<svg height="1247.6346685976928" version="1.1" viewbox="0 0 1229.2849974479177 1247.6346685976928" width="1229.2849974479177" xmlns="http://www.w3.org/2000/svg">
<!-- svg-source:excalidraw -->
<!-- payload-type:application/vnd.excalidraw+json --><!-- payload-version:2 -->
<defs>
<style class="style-fonts">
</style>
</defs>
<rect fill="#ffffff" height="1247.6346685976928" width="1229.2849974479177" x="0" y="0"></rect><g stroke-linecap="round" transform="translate(10 551.6678819712731) rotate(0 107.67736503012077 70.84125310622198)"><path d="M32 0 C65.87 -1.34, 95.99 -1.94, 183.35 0 M32 0 C77.69 -0.77, 123.39 0.05, 183.35 0 M183.35 0 C204.74 -1.75, 217.34 10.35, 215.35 32 M183.35 0 C204.62 -1.87, 216.5 10.57, 215.35 32 M215.35 32 C214.15 58.2, 214.86 81.57, 215.35 109.68 M215.35 32 C214.76 53.27, 214.55 73.8, 215.35 109.68 M215.35 109.68 C214.32 131.53, 203.68 140.17, 183.35 141.68 M215.35 109.68 C213.94 133.29, 203.77 141.3, 183.35 141.68 M183.35 141.68 C151.98 139.64, 117.45 141.29, 32 141.68 M183.35 141.68 C124.14 142.41, 64.93 142.07, 32 141.68 M32 141.68 C10.86 140.31, -1.98 129.71, 0 109.68 M32 141.68 C12.3 140.22, 1.74 131.19, 0 109.68 M0 109.68 C-2.23 87.07, -1.63 67.08, 0 32 M0 109.68 C-1.2 94.02, -1.03 77.89, 0 32 M0 32 C-1.54 9.38, 12.31 -0.01, 32 0 M0 32 C-1.77 10.39, 9.1 2.05, 32 0" fill="none" stroke="#1e1e1e" stroke-width="2"></path></g><g transform="translate(17.637448037933268 585.0091350774951) rotate(0 100.0399169921875 37.5)"><text direction="ltr" dominant-baseline="text-before-edge" fill="#1e1e1e" font-family="Virgil, Segoe UI Emoji" font-size="20px" style="white-space: pre;" text-anchor="middle" x="100.0399169921875" y="0">Client</text><text direction="ltr" dominant-baseline="text-before-edge" fill="#1e1e1e" font-family="Virgil, Segoe UI Emoji" font-size="20px" style="white-space: pre;" text-anchor="middle" x="100.0399169921875" y="25">- Batch writes</text><text direction="ltr" dominant-baseline="text-before-edge" fill="#1e1e1e" font-family="Virgil, Segoe UI Emoji" font-size="20px" style="white-space: pre;" text-anchor="middle" x="100.0399169921875" y="50">w/ connection pooling</text></g><g stroke-linecap="round"><g transform="translate(240.30861929911202 618.6831630572626) rotate(0 221.01345995259095 -0.5281193171612699)"><path d="M-0.22 -0.76 C73.61 -1.16, 368.27 -1.58, 442.18 -1.66 M-1.79 1.46 C71.96 1.13, 367.16 -0.2, 441.31 -0.43" fill="none" stroke="#1e1e1e" stroke-width="2"></path></g><g transform="translate(240.30861929911202 618.6831630572626) rotate(0 221.01345995259095 -0.5281193171612699)"><path d="M413.16 9.94 C418.39 7.82, 425.22 7.12, 441.31 -0.43 M413.16 9.94 C421.79 6.74, 428.41 3.48, 441.31 -0.43" fill="none" stroke="#1e1e1e" stroke-width="2"></path></g><g transform="translate(240.30861929911202 618.6831630572626) rotate(0 221.01345995259095 -0.5281193171612699)"><path d="M413.08 -10.58 C418.46 -7.92, 425.31 -3.82, 441.31 -0.43 M413.08 -10.58 C421.86 -7.86, 428.51 -5.2, 441.31 -0.43" fill="none" stroke="#1e1e1e" stroke-width="2"></path></g></g><mask></mask><g transform="translate(314.34309517046336 636.3755935857089) rotate(0 150.75985717773438 50)"><text direction="ltr" dominant-baseline="text-before-edge" fill="#868e96" font-family="Virgil, Segoe UI Emoji" font-size="20px" style="white-space: pre;" text-anchor="start" x="0" y="0">- consistent hashing </text><text direction="ltr" dominant-baseline="text-before-edge" fill="#868e96" font-family="Virgil, Segoe UI Emoji" font-size="20px" style="white-space: pre;" text-anchor="start" x="0" y="25">to determine the right node</text><text direction="ltr" dominant-baseline="text-before-edge" fill="#868e96" font-family="Virgil, Segoe UI Emoji" font-size="20px" style="white-space: pre;" text-anchor="start" x="0" y="50">- random suffix to spread hot</text><text direction="ltr" dominant-baseline="text-before-edge" fill="#868e96" font-family="Virgil, Segoe UI Emoji" font-size="20px" style="white-space: pre;" text-anchor="start" x="0" y="75">key load across nodes</text></g><g stroke-linecap="round" transform="translate(782.2289762604241 241.59771389886595) rotate(0 74.2627792438891 64.24239053769313)"><path d="M32 0 C55.2 0.18, 72.87 -0.46, 116.53 0 M32 0 C51.92 -0.17, 72.03 0.38, 116.53 0 M116.53 0 C137.66 0.87, 149.34 10.85, 148.53 32 M116.53 0 C139.88 -1.22, 148.85 8.56, 148.53 32 M148.53 32 C148.68 47.76, 148.02 65.85, 148.53 96.48 M148.53 32 C148.21 55.3, 148.57 78.97, 148.53 96.48 M148.53 96.48 C148.79 119.8, 139.34 130.34, 116.53 128.48 M148.53 96.48 C147.41 119.42, 135.62 129.79, 116.53 128.48 M116.53 128.48 C85.94 129.65, 49.99 128.89, 32 128.48 M116.53 128.48 C92.03 128.5, 68.41 129.16, 32 128.48 M32 128.48 C11.35 128.75, -1.15 116.56, 0 96.48 M32 128.48 C12.69 127.85, -1.86 117.84, 0 96.48 M0 96.48 C-1.69 74.11, 2.04 50.77, 0 32 M0 96.48 C1.53 80.7, 0.14 64.62, 0 32 M0 32 C-1.38 8.84, 9.67 0.23, 32 0 M0 32 C0.73 9.84, 11.49 -0.35, 32 0" fill="none" stroke="#1e1e1e" stroke-width="2"></path></g><g transform="translate(830.6417799183757 293.34010443655905) rotate(0 25.8499755859375 12.5)"><text direction="ltr" dominant-baseline="text-before-edge" fill="#1e1e1e" font-family="Virgil, Segoe UI Emoji" font-size="20px" style="white-space: pre;" text-anchor="middle" x="25.8499755859375" y="0">Node1</text></g><g stroke-linecap="round" transform="translate(988.6258277764721 154.85295133676095) rotate(0 74.2627792438891 64.24239053769313)"><path d="M32 0 C48.01 -1.35, 66.01 -1.52, 116.53 0 M32 0 C58.21 0.31, 83.44 -0.36, 116.53 0 M116.53 0 C138.68 -1.54, 149.71 10.36, 148.53 32 M116.53 0 C139.68 0.81, 146.8 9.6, 148.53 32 M148.53 32 C146.91 46.11, 149.05 60.68, 148.53 96.48 M148.53 32 C147.21 55.93, 147.54 80, 148.53 96.48 M148.53 96.48 C146.94 119.3, 139.31 128.54, 116.53 128.48 M148.53 96.48 C147.84 118.36, 137.4 127.91, 116.53 128.48 M116.53 128.48 C88.05 127.72, 62.45 128.06, 32 128.48 M116.53 128.48 C89.14 128.81, 59.62 128.35, 32 128.48 M32 128.48 C9.42 130.16, 1.21 116.4, 0 96.48 M32 128.48 C11.73 129.17, 1.95 117.94, 0 96.48 M0 96.48 C0.46 81.08, -0.52 62.88, 0 32 M0 96.48 C-0.42 80.02, -0.27 62.84, 0 32 M0 32 C0.02 10.37, 12.64 -1.87, 32 0 M0 32 C0.97 8.75, 8.99 0.74, 32 0" fill="none" stroke="#1e1e1e" stroke-width="2"></path></g><g transform="translate(1002.4286460828612 194.09534187445408) rotate(0 60.4599609375 25)"><text direction="ltr" dominant-baseline="text-before-edge" fill="#1e1e1e" font-family="Virgil, Segoe UI Emoji" font-size="20px" style="white-space: pre;" text-anchor="middle" x="60.4599609375" y="0">Node1 Read </text><text direction="ltr" dominant-baseline="text-before-edge" fill="#1e1e1e" font-family="Virgil, Segoe UI Emoji" font-size="20px" style="white-space: pre;" text-anchor="middle" x="60.4599609375" y="25">Replica</text></g><g stroke-linecap="round" transform="translate(993.8920405418803 327.7400469163349) rotate(0 74.2627792438891 64.24239053769313)"><path d="M32 0 C57.14 1.36, 79.6 1.63, 116.53 0 M32 0 C49.88 0.92, 70.15 1.5, 116.53 0 M116.53 0 C138.9 -0.33, 148.67 11.24, 148.53 32 M116.53 0 C140.01 0.39, 146.97 10.88, 148.53 32 M148.53 32 C150.62 52.15, 147.6 70.11, 148.53 96.48 M148.53 32 C148.2 49.81, 147.66 67.79, 148.53 96.48 M148.53 96.48 C149.01 117.06, 139.53 129.17, 116.53 128.48 M148.53 96.48 C150.62 118.92, 137.35 130.76, 116.53 128.48 M116.53 128.48 C91.32 127.75, 68.17 130.1, 32 128.48 M116.53 128.48 C84.14 128.66, 50.12 126.72, 32 128.48 M32 128.48 C12.39 126.75, 0.07 117.69, 0 96.48 M32 128.48 C10.6 128.87, -1.66 117.72, 0 96.48 M0 96.48 C-0.91 73.63, 0.89 52.84, 0 32 M0 96.48 C-0.2 78.6, -1.09 62.56, 0 32 M0 32 C-0.56 11.38, 9.91 0.28, 32 0 M0 32 C1.74 11.46, 8.85 -2.11, 32 0" fill="none" stroke="#1e1e1e" stroke-width="2"></path></g><g transform="translate(1007.6948588482694 366.98243745402806) rotate(0 60.4599609375 25)"><text direction="ltr" dominant-baseline="text-before-edge" fill="#1e1e1e" font-family="Virgil, Segoe UI Emoji" font-size="20px" style="white-space: pre;" text-anchor="middle" x="60.4599609375" y="0">Node1 Read </text><text direction="ltr" dominant-baseline="text-before-edge" fill="#1e1e1e" font-family="Virgil, Segoe UI Emoji" font-size="20px" style="white-space: pre;" text-anchor="middle" x="60.4599609375" y="25">Replica</text></g><g stroke-linecap="round" transform="translate(785.0255591031439 586.4658899585888) rotate(0 74.2627792438891 64.24239053769311)"><path d="M32 0 C64.99 -1.72, 96.16 -0.01, 116.53 0 M32 0 C53.73 0.09, 76.68 -0.63, 116.53 0 M116.53 0 C136 -0.5, 146.98 10.21, 148.53 32 M116.53 0 C137.42 2.23, 149.14 10.23, 148.53 32 M148.53 32 C149.02 54.9, 148.88 77.51, 148.53 96.48 M148.53 32 C147.55 45.83, 147.82 62.26, 148.53 96.48 M148.53 96.48 C146.78 115.91, 138.61 129.3, 116.53 128.48 M148.53 96.48 C149.21 116.01, 139.48 126.27, 116.53 128.48 M116.53 128.48 C88.48 129.71, 60.73 128.85, 32 128.48 M116.53 128.48 C92.55 129.38, 68.87 129.55, 32 128.48 M32 128.48 C9.77 127.43, -1.77 118.65, 0 96.48 M32 128.48 C11.75 127, -0.05 117.33, 0 96.48 M0 96.48 C-1.66 82.48, -1.57 66.72, 0 32 M0 96.48 C-0.6 80.05, 0.4 64.58, 0 32 M0 32 C1.14 9.67, 9.77 0.21, 32 0 M0 32 C0.86 11.78, 10.98 2, 32 0" fill="none" stroke="#1e1e1e" stroke-width="2"></path></g><g transform="translate(829.0283667283807 638.208280496282) rotate(0 30.259971618652344 12.5)"><text direction="ltr" dominant-baseline="text-before-edge" fill="#1e1e1e" font-family="Virgil, Segoe UI Emoji" font-size="20px" style="white-space: pre;" text-anchor="middle" x="30.259971618652344" y="0">Node2</text></g><g stroke-linecap="round" transform="translate(991.4224106191916 499.7211273964838) rotate(0 74.2627792438891 64.24239053769313)"><path d="M32 0 C50.49 -0.38, 70.15 -0.84, 116.53 0 M32 0 C55.81 0.42, 80.72 0.44, 116.53 0 M116.53 0 C137.47 1.94, 149.06 10.28, 148.53 32 M116.53 0 C138.76 1.91, 148.47 10.62, 148.53 32 M148.53 32 C147.04 52.7, 148.72 76.62, 148.53 96.48 M148.53 32 C147.6 44.45, 148.85 59.22, 148.53 96.48 M148.53 96.48 C149.12 116.25, 139.27 126.56, 116.53 128.48 M148.53 96.48 C149.23 117.75, 138.72 128.36, 116.53 128.48 M116.53 128.48 C86.87 128.91, 59.07 127.37, 32 128.48 M116.53 128.48 C86.47 128.53, 56.42 129.47, 32 128.48 M32 128.48 C11.61 127.2, -0.04 117.39, 0 96.48 M32 128.48 C9.41 128.87, -0.37 116.04, 0 96.48 M0 96.48 C-0.5 72.1, -0.79 45.44, 0 32 M0 96.48 C0.15 78.04, -0.87 60.71, 0 32 M0 32 C0.75 11.63, 10.94 1.74, 32 0 M0 32 C-0.14 12.71, 12.02 2.04, 32 0" fill="none" stroke="#1e1e1e" stroke-width="2"></path></g><g transform="translate(1000.8152328928659 538.9635179341769) rotate(0 64.86995697021484 25)"><text direction="ltr" dominant-baseline="text-before-edge" fill="#1e1e1e" font-family="Virgil, Segoe UI Emoji" font-size="20px" style="white-space: pre;" text-anchor="middle" x="64.86995697021484" y="0">Node2 Read </text><text direction="ltr" dominant-baseline="text-before-edge" fill="#1e1e1e" font-family="Virgil, Segoe UI Emoji" font-size="20px" style="white-space: pre;" text-anchor="middle" x="64.86995697021484" y="25">Replica</text></g><g stroke-linecap="round" transform="translate(996.6886233846001 672.6082229760577) rotate(0 74.2627792438891 64.24239053769314)"><path d="M32 0 C56.08 1.3, 78.86 -1.56, 116.53 0 M32 0 C55.04 1.16, 78.74 0, 116.53 0 M116.53 0 C138.64 1.66, 148.48 10.63, 148.53 32 M116.53 0 C139.04 -0.21, 150.55 9.03, 148.53 32 M148.53 32 C146.77 44.89, 150.12 56.34, 148.53 96.48 M148.53 32 C149.07 44.39, 149.47 57.39, 148.53 96.48 M148.53 96.48 C149.13 117.76, 138.61 128.37, 116.53 128.48 M148.53 96.48 C149.57 117.89, 137.91 127.96, 116.53 128.48 M116.53 128.48 C90.46 126.34, 63.73 127.11, 32 128.48 M116.53 128.48 C96.09 128.19, 74.69 128.62, 32 128.48 M32 128.48 C9.57 128.82, -0.32 116.27, 0 96.48 M32 128.48 C12.75 126.81, 2.15 116.7, 0 96.48 M0 96.48 C-0.03 75.88, 1.44 53.81, 0 32 M0 96.48 C0.66 80.84, 0.42 65.11, 0 32 M0 32 C-0.13 12.45, 11.84 1.78, 32 0 M0 32 C0.64 8.88, 11.28 -0.94, 32 0" fill="none" stroke="#1e1e1e" stroke-width="2"></path></g><g transform="translate(1006.0814456582743 711.8506135137509) rotate(0 64.86995697021484 25)"><text direction="ltr" dominant-baseline="text-before-edge" fill="#1e1e1e" font-family="Virgil, Segoe UI Emoji" font-size="20px" style="white-space: pre;" text-anchor="middle" x="64.86995697021484" y="0">Node2 Read </text><text direction="ltr" dominant-baseline="text-before-edge" fill="#1e1e1e" font-family="Virgil, Segoe UI Emoji" font-size="20px" style="white-space: pre;" text-anchor="middle" x="64.86995697021484" y="25">Replica</text></g><g stroke-linecap="round" transform="translate(792.4759154118087 934.4323140815244) rotate(0 74.2627792438891 64.2423905376931)"><path d="M32 0 C62.25 0.82, 93.43 -0.51, 116.53 0 M32 0 C53.05 0.97, 73.5 0.8, 116.53 0 M116.53 0 C136.67 0.44, 147.44 9.99, 148.53 32 M116.53 0 C138.43 -2.14, 147.98 10.84, 148.53 32 M148.53 32 C149.77 47.75, 149.09 59.99, 148.53 96.48 M148.53 32 C149.59 56.57, 149.19 81.9, 148.53 96.48 M148.53 96.48 C150.11 118.69, 136.67 127.91, 116.53 128.48 M148.53 96.48 C149.75 115.94, 135.59 127.67, 116.53 128.48 M116.53 128.48 C93.76 127.23, 72.73 126.24, 32 128.48 M116.53 128.48 C97.66 128.32, 78.22 128.02, 32 128.48 M32 128.48 C11.46 128.27, 1.29 119.11, 0 96.48 M32 128.48 C12.31 127.6, -2.01 120.05, 0 96.48 M0 96.48 C0.71 74.48, -1.74 48.91, 0 32 M0 96.48 C-0.76 71.71, -0.43 46.07, 0 32 M0 32 C1.26 12.44, 9.02 1.86, 32 0 M0 32 C-1.53 8.58, 10.91 -2.11, 32 0" fill="none" stroke="#1e1e1e" stroke-width="2"></path></g><g transform="translate(837.1587233422213 986.1747046192176) rotate(0 29.579971313476562 12.5)"><text direction="ltr" dominant-baseline="text-before-edge" fill="#1e1e1e" font-family="Virgil, Segoe UI Emoji" font-size="20px" style="white-space: pre;" text-anchor="middle" x="29.579971313476562" y="0">NodeN</text></g><g stroke-linecap="round" transform="translate(998.8727669278564 847.6875515194193) rotate(0 74.2627792438891 64.2423905376931)"><path d="M32 0 C62.31 0.49, 93.37 0.69, 116.53 0 M32 0 C59.75 0.07, 88.16 -0.49, 116.53 0 M116.53 0 C138.36 -1.86, 148.05 10.82, 148.53 32 M116.53 0 C136.3 -2.12, 150.57 12.78, 148.53 32 M148.53 32 C150.61 54.99, 149.02 77.11, 148.53 96.48 M148.53 32 C149.52 49.86, 148.13 66.57, 148.53 96.48 M148.53 96.48 C149.59 116.18, 135.89 127.77, 116.53 128.48 M148.53 96.48 C147.32 116.05, 136.97 126.36, 116.53 128.48 M116.53 128.48 C93.68 129.59, 74 128.6, 32 128.48 M116.53 128.48 C94.12 127.87, 71.57 128.62, 32 128.48 M32 128.48 C12.09 127.71, -1.75 119.76, 0 96.48 M32 128.48 C12.07 130.23, -1.33 119.19, 0 96.48 M0 96.48 C2.22 74.39, -0.25 48.88, 0 32 M0 96.48 C0.62 75.18, -0.83 53.03, 0 32 M0 32 C-1.33 8.85, 10.88 -1.83, 32 0 M0 32 C-1.96 8.51, 10.83 -1.56, 32 0" fill="none" stroke="#1e1e1e" stroke-width="2"></path></g><g transform="translate(1008.9455895067065 886.9299420571125) rotate(0 64.18995666503906 25)"><text direction="ltr" dominant-baseline="text-before-edge" fill="#1e1e1e" font-family="Virgil, Segoe UI Emoji" font-size="20px" style="white-space: pre;" text-anchor="middle" x="64.18995666503906" y="0">NodeN Read </text><text direction="ltr" dominant-baseline="text-before-edge" fill="#1e1e1e" font-family="Virgil, Segoe UI Emoji" font-size="20px" style="white-space: pre;" text-anchor="middle" x="64.18995666503906" y="25">Replica</text></g><g stroke-linecap="round" transform="translate(1004.1389796932649 1020.8335085559719) rotate(0 74.2627792438891 64.2423905376931)"><path d="M32 0 C60.32 -0.05, 87.57 -1.5, 116.53 0 M32 0 C59.48 -0.65, 86.22 0.36, 116.53 0 M116.53 0 C136.5 -1.84, 150.3 12.51, 148.53 32 M116.53 0 C138.75 1.33, 146.28 12.64, 148.53 32 M148.53 32 C147.97 55.6, 148.91 79.57, 148.53 96.48 M148.53 32 C148.67 53.33, 147.16 75.94, 148.53 96.48 M148.53 96.48 C147.48 116.28, 137.09 126.64, 116.53 128.48 M148.53 96.48 C147.45 115.57, 135.65 126.84, 116.53 128.48 M116.53 128.48 C82.44 129.58, 48.36 129.67, 32 128.48 M116.53 128.48 C92.78 128.64, 66.74 130, 32 128.48 M32 128.48 C11.89 130, -1.15 119.01, 0 96.48 M32 128.48 C12.14 127.04, -1.14 119.91, 0 96.48 M0 96.48 C1.09 72.67, 0.24 50.04, 0 32 M0 96.48 C-0.14 70.52, 0.64 45.46, 0 32 M0 32 C-1.7 8.79, 10.81 -1.36, 32 0 M0 32 C-0.56 10.59, 9.93 1.43, 32 0" fill="none" stroke="#1e1e1e" stroke-width="2"></path></g><g transform="translate(1014.2118022721149 1060.0758990936652) rotate(0 64.18995666503906 25)"><text direction="ltr" dominant-baseline="text-before-edge" fill="#1e1e1e" font-family="Virgil, Segoe UI Emoji" font-size="20px" style="white-space: pre;" text-anchor="middle" x="64.18995666503906" y="0">NodeN Read </text><text direction="ltr" dominant-baseline="text-before-edge" fill="#1e1e1e" font-family="Virgil, Segoe UI Emoji" font-size="20px" style="white-space: pre;" text-anchor="middle" x="64.18995666503906" y="25">Replica</text></g><g stroke-linecap="round"><g transform="translate(948.002656645052 308.7682979042995) rotate(0 15.20811059749201 -36.645075003531275)"><path d="M-0.24 0.29 C4.91 -11.64, 24.56 -60.04, 29.83 -72.33 M-1.83 -0.6 C3.82 -12.79, 26.74 -62.02, 32.23 -73.95" fill="none" stroke="#1e1e1e" stroke-width="2"></path></g><g transform="translate(948.002656645052 308.7682979042995) rotate(0 15.20811059749201 -36.645075003531275)"><path d="M29.69 -44.06 C30.89 -51.32, 32.54 -55.01, 32.23 -73.95 M29.69 -44.06 C31.25 -51.82, 30.77 -61.04, 32.23 -73.95" fill="none" stroke="#1e1e1e" stroke-width="2"></path></g><g transform="translate(948.002656645052 308.7682979042995) rotate(0 15.20811059749201 -36.645075003531275)"><path d="M11.07 -52.69 C16.14 -58.1, 21.71 -59.97, 32.23 -73.95 M11.07 -52.69 C17.95 -58.11, 22.86 -64.84, 32.23 -73.95" fill="none" stroke="#1e1e1e" stroke-width="2"></path></g></g><mask></mask><g stroke-linecap="round"><g transform="translate(946.6112763137921 325.95658708342694) rotate(0 20.175014803268596 23.71818099566309)"><path d="M-0.58 -0.7 C6.28 7.11, 33.43 38.91, 40.1 46.99 M1.31 1.55 C8.09 9.51, 32.26 40.95, 39.02 48.3" fill="none" stroke="#1e1e1e" stroke-width="2"></path></g><g transform="translate(946.6112763137921 325.95658708342694) rotate(0 20.175014803268596 23.71818099566309)"><path d="M13.1 33.19 C17.39 36.07, 23.25 38.18, 39.02 48.3 M13.1 33.19 C21.94 38.38, 29.99 43.79, 39.02 48.3" fill="none" stroke="#1e1e1e" stroke-width="2"></path></g><g transform="translate(946.6112763137921 325.95658708342694) rotate(0 20.175014803268596 23.71818099566309)"><path d="M28.88 20.07 C29.87 25.62, 32.43 30.48, 39.02 48.3 M28.88 20.07 C32.5 29.5, 35.36 39.22, 39.02 48.3" fill="none" stroke="#1e1e1e" stroke-width="2"></path></g></g><mask></mask><g stroke-linecap="round"><g transform="translate(941.0781126708748 221.34420078195535) rotate(0 35.6419868577392 -88.80565858471661)"><path d="M0.16 -0.91 C-1.29 -21.44, -21.64 -93.24, -8.45 -122.77 C4.74 -152.3, 64.48 -169.12, 79.31 -178.07 M-1.21 1.22 C-2.79 -19.21, -22.85 -92.01, -9.04 -121.71 C4.76 -151.42, 66.65 -167.54, 81.63 -177" fill="none" stroke="#868e96" stroke-width="2"></path></g><g transform="translate(941.0781126708748 221.34420078195535) rotate(0 35.6419868577392 -88.80565858471661)"><path d="M-14.13 -27.29 C-10.94 -17.64, -6.31 -12.04, 0.16 -0.91 M-14.13 -27.29 C-10.21 -19.81, -7.38 -14.52, 0.16 -0.91" fill="none" stroke="#868e96" stroke-width="2"></path></g><g transform="translate(941.0781126708748 221.34420078195535) rotate(0 35.6419868577392 -88.80565858471661)"><path d="M6.17 -30.31 C2.79 -19.65, 0.84 -13.08, 0.16 -0.91 M6.17 -30.31 C4.78 -21.85, 2.31 -15.77, 0.16 -0.91" fill="none" stroke="#868e96" stroke-width="2"></path></g></g><mask></mask><g transform="translate(991.5372437800704 10) rotate(0 80.62992858886719 12.5)"><text direction="ltr" dominant-baseline="text-before-edge" fill="#868e96" font-family="Virgil, Segoe UI Emoji" font-size="20px" style="white-space: pre;" text-anchor="middle" x="80.62992858886719" y="0">Async replication</text></g><g stroke-linecap="round"><g transform="translate(942.2945835835039 649.1536641957053) rotate(0 15.20811059749201 -36.645075003531275)"><path d="M0.18 -1.19 C5.13 -13.34, 25.49 -60.88, 30.41 -73.07 M-1.18 0.81 C3.55 -11.72, 23.9 -62.68, 29.45 -75.07" fill="none" stroke="#1e1e1e" stroke-width="2"></path></g><g transform="translate(942.2945835835039 649.1536641957053) rotate(0 15.20811059749201 -36.645075003531275)"><path d="M28.01 -45.11 C26.59 -55.87, 29.46 -67.89, 29.45 -75.07 M28.01 -45.11 C27.43 -50.85, 27.58 -57.88, 29.45 -75.07" fill="none" stroke="#1e1e1e" stroke-width="2"></path></g><g transform="translate(942.2945835835039 649.1536641957053) rotate(0 15.20811059749201 -36.645075003531275)"><path d="M9.09 -53.04 C14.44 -60.99, 24.09 -70.16, 29.45 -75.07 M9.09 -53.04 C12.61 -57.24, 16.79 -62.58, 29.45 -75.07" fill="none" stroke="#1e1e1e" stroke-width="2"></path></g></g><mask></mask><g stroke-linecap="round"><g transform="translate(940.9032032522441 666.3419533748328) rotate(0 20.175014803268596 23.71818099566309)"><path d="M-0.01 0.22 C6.56 8.15, 32.71 38.37, 39.58 46.4 M-1.48 -0.7 C5.46 7.44, 34.83 39.51, 41.88 47.39" fill="none" stroke="#1e1e1e" stroke-width="2"></path></g><g transform="translate(940.9032032522441 666.3419533748328) rotate(0 20.175014803268596 23.71818099566309)"><path d="M15.35 33.39 C23.94 36.51, 30.2 43.59, 41.88 47.39 M15.35 33.39 C24.51 38.57, 35.81 43.21, 41.88 47.39" fill="none" stroke="#1e1e1e" stroke-width="2"></path></g><g transform="translate(940.9032032522441 666.3419533748328) rotate(0 20.175014803268596 23.71818099566309)"><path d="M30.56 19.61 C34.22 27.07, 35.69 38.49, 41.88 47.39 M30.56 19.61 C33.84 30.14, 39.34 40.03, 41.88 47.39" fill="none" stroke="#1e1e1e" stroke-width="2"></path></g></g><mask></mask><g stroke-linecap="round"><g transform="translate(956.6588738105263 1013.9157392995346) rotate(0 15.20811059749201 -36.645075003531275)"><path d="M-0.14 -0.1 C4.83 -12.33, 24.93 -61.42, 30.18 -73.53 M-1.68 -1.2 C3.09 -13.24, 23.65 -59.84, 29.1 -72.12" fill="none" stroke="#1e1e1e" stroke-width="2"></path></g><g transform="translate(956.6588738105263 1013.9157392995346) rotate(0 15.20811059749201 -36.645075003531275)"><path d="M27.1 -42.18 C27.62 -52.37, 28.05 -60.27, 29.1 -72.12 M27.1 -42.18 C28.03 -53.35, 29.03 -62.28, 29.1 -72.12" fill="none" stroke="#1e1e1e" stroke-width="2"></path></g><g transform="translate(956.6588738105263 1013.9157392995346) rotate(0 15.20811059749201 -36.645075003531275)"><path d="M8.33 -50.47 C14.98 -57.93, 21.55 -63.11, 29.1 -72.12 M8.33 -50.47 C15.66 -58.63, 23.1 -64.72, 29.1 -72.12" fill="none" stroke="#1e1e1e" stroke-width="2"></path></g></g><mask></mask><g stroke-linecap="round"><g transform="translate(955.2674934792665 1031.104028478662) rotate(0 20.175014803268596 23.71818099566309)"><path d="M-0.24 -0.24 C6.66 7.77, 34.6 40.18, 41.25 47.96 M-1.83 -1.41 C5.01 6.25, 33.44 38.01, 40.77 46.11" fill="none" stroke="#1e1e1e" stroke-width="2"></path></g><g transform="translate(955.2674934792665 1031.104028478662) rotate(0 20.175014803268596 23.71818099566309)"><path d="M14.29 32.01 C21.52 37.63, 30.41 39, 40.77 46.11 M14.29 32.01 C20.4 35.75, 26.7 38.16, 40.77 46.11" fill="none" stroke="#1e1e1e" stroke-width="2"></path></g><g transform="translate(955.2674934792665 1031.104028478662) rotate(0 20.175014803268596 23.71818099566309)"><path d="M29.55 18.29 C32.37 27.83, 36.86 33.15, 40.77 46.11 M29.55 18.29 C32.37 24.85, 35.38 30.23, 40.77 46.11" fill="none" stroke="#1e1e1e" stroke-width="2"></path></g></g><mask></mask><g stroke="none" transform="translate(861.7413390349111 787.383634344805) rotate(0 0.00004999999998744897 0.00004999999998744897)"><path d="M 3.14,-3.14 Q 3.14,-3.14 3.55,-2.55 3.97,-1.97 4.18,-1.28 4.40,-0.59 4.38,0.11 4.36,0.83 4.11,1.51 3.86,2.18 3.41,2.74 2.96,3.30 2.36,3.69 1.75,4.07 1.05,4.25 0.36,4.42 -0.35,4.36 -1.07,4.30 -1.73,4.02 -2.39,3.74 -2.92,3.26 -3.46,2.78 -3.81,2.15 -4.16,1.53 -4.30,0.82 -4.43,0.11 -4.34,-0.59 -4.24,-1.30 -3.92,-1.94 -3.60,-2.59 -3.09,-3.09 -2.59,-3.60 -1.94,-3.92 -1.30,-4.24 -0.59,-4.34 0.12,-4.43 0.82,-4.30 1.53,-4.16 2.15,-3.81 2.78,-3.46 3.26,-2.92 3.74,-2.39 4.02,-1.73 4.31,-1.07 4.36,-0.35 4.42,0.36 4.25,1.05 4.07,1.75 3.69,2.36 3.30,2.96 2.74,3.41 2.18,3.86 1.51,4.11 0.83,4.36 0.11,4.38 -0.60,4.40 -1.28,4.18 -1.97,3.97 -2.55,3.55 -3.14,3.13 -3.14,3.14 -3.14,3.14 -3.47,2.71 -3.80,2.29 -4.02,1.80 -4.24,1.32 -4.33,0.79 -4.43,0.26 -4.40,-0.26 -4.36,-0.80 -4.20,-1.31 -4.04,-1.82 -3.77,-2.28 -3.49,-2.73 -3.11,-3.11 -2.73,-3.49 -2.28,-3.77 -1.82,-4.05 -1.31,-4.20 -0.80,-4.36 -0.26,-4.40 0.26,-4.43 0.79,-4.33 1.32,-4.24 1.80,-4.02 2.29,-3.80 2.71,-3.47 3.14,-3.14 3.14,-3.14 L 3.14,-3.14 Z" fill="#1e1e1e"></path></g><g stroke="none" transform="translate(860.7646264561174 825.3972235612282) rotate(0 0.00004999999998744897 0.00004999999998744897)"><path d="M 3.14,-3.14 Q 3.14,-3.14 3.55,-2.55 3.97,-1.97 4.18,-1.28 4.40,-0.59 4.38,0.11 4.36,0.83 4.11,1.51 3.86,2.18 3.41,2.74 2.96,3.30 2.36,3.69 1.75,4.07 1.05,4.25 0.36,4.42 -0.35,4.36 -1.07,4.30 -1.73,4.02 -2.39,3.74 -2.92,3.26 -3.46,2.78 -3.81,2.15 -4.16,1.53 -4.30,0.82 -4.43,0.11 -4.34,-0.59 -4.24,-1.30 -3.92,-1.94 -3.60,-2.59 -3.09,-3.09 -2.59,-3.60 -1.94,-3.92 -1.30,-4.24 -0.59,-4.34 0.12,-4.43 0.82,-4.30 1.53,-4.16 2.15,-3.81 2.78,-3.46 3.26,-2.92 3.74,-2.39 4.02,-1.73 4.31,-1.07 4.36,-0.35 4.42,0.36 4.25,1.05 4.07,1.75 3.69,2.36 3.30,2.96 2.74,3.41 2.18,3.86 1.51,4.11 0.83,4.36 0.11,4.38 -0.60,4.40 -1.28,4.18 -1.97,3.97 -2.55,3.55 -3.14,3.13 -3.14,3.14 -3.14,3.14 -3.47,2.71 -3.80,2.29 -4.02,1.80 -4.24,1.32 -4.33,0.79 -4.43,0.26 -4.40,-0.26 -4.36,-0.80 -4.20,-1.31 -4.04,-1.82 -3.77,-2.28 -3.49,-2.73 -3.11,-3.11 -2.73,-3.49 -2.28,-3.77 -1.82,-4.05 -1.31,-4.20 -0.80,-4.36 -0.26,-4.40 0.26,-4.43 0.79,-4.33 1.32,-4.24 1.80,-4.02 2.29,-3.80 2.71,-3.47 3.14,-3.14 3.14,-3.14 L 3.14,-3.14 Z" fill="#1e1e1e"></path></g><g stroke="none" transform="translate(859.4734045770017 863.2475746012078) rotate(0 0.00004999999998744897 0.00004999999998744897)"><path d="M 3.14,-3.14 Q 3.14,-3.14 3.55,-2.55 3.97,-1.97 4.18,-1.28 4.40,-0.59 4.38,0.11 4.36,0.83 4.11,1.51 3.86,2.18 3.41,2.74 2.96,3.30 2.36,3.69 1.75,4.07 1.05,4.25 0.36,4.42 -0.35,4.36 -1.07,4.30 -1.73,4.02 -2.39,3.74 -2.92,3.26 -3.46,2.78 -3.81,2.15 -4.16,1.53 -4.30,0.82 -4.43,0.11 -4.34,-0.59 -4.24,-1.30 -3.92,-1.94 -3.60,-2.59 -3.09,-3.09 -2.59,-3.60 -1.94,-3.92 -1.30,-4.24 -0.59,-4.34 0.12,-4.43 0.82,-4.30 1.53,-4.16 2.15,-3.81 2.78,-3.46 3.26,-2.92 3.74,-2.39 4.02,-1.73 4.31,-1.07 4.36,-0.35 4.42,0.36 4.25,1.05 4.07,1.75 3.69,2.36 3.30,2.96 2.74,3.41 2.18,3.86 1.51,4.11 0.83,4.36 0.11,4.38 -0.60,4.40 -1.28,4.18 -1.97,3.97 -2.55,3.55 -3.14,3.13 -3.14,3.14 -3.14,3.14 -3.47,2.71 -3.80,2.29 -4.02,1.80 -4.24,1.32 -4.33,0.79 -4.43,0.26 -4.40,-0.26 -4.36,-0.80 -4.20,-1.31 -4.04,-1.82 -3.77,-2.28 -3.49,-2.73 -3.11,-3.11 -2.73,-3.49 -2.28,-3.77 -1.82,-4.05 -1.31,-4.20 -0.80,-4.36 -0.26,-4.40 0.26,-4.43 0.79,-4.33 1.32,-4.24 1.80,-4.02 2.29,-3.80 2.71,-3.47 3.14,-3.14 3.14,-3.14 L 3.14,-3.14 Z" fill="#1e1e1e"></path></g><g stroke-linecap="round" transform="translate(725.1869081894173 96.3876389905015) rotate(0 247.0490446292502 570.6235148035956)"><path d="M32 0 C128.8 -1.45, 225.99 -1.6, 462.1 0 M462.1 0 C483.56 1.4, 493.7 8.81, 494.1 32 M494.1 32 C498.26 289.43, 498.6 546.02, 494.1 1109.25 M494.1 1109.25 C493.48 1130.8, 484.52 1140.84, 462.1 1141.25 M462.1 1141.25 C293.89 1140.4, 123.3 1141.9, 32 1141.25 M32 1141.25 C12.33 1140.97, 1.16 1130.87, 0 1109.25 M0 1109.25 C1.4 851.86, 1.22 593.46, 0 32 M0 32 C1.61 12.52, 10.33 -0.86, 32 0" fill="none" stroke="#1e1e1e" stroke-dasharray="8 10" stroke-width="2.5"></path></g></svg>