<svg height="598.4234170041336" version="1.1" viewbox="0 0 836.2516255395881 598.4234170041336" width="836.2516255395881" xmlns="http://www.w3.org/2000/svg">
<!-- svg-source:excalidraw -->
<!-- payload-type:application/vnd.excalidraw+json --><!-- payload-version:2 -->
<defs>
<style class="style-fonts">
</style>
</defs>
<rect fill="#ffffff" height="598.4234170041336" width="836.2516255395881" x="0" y="0"></rect><g stroke-linecap="round" transform="translate(10 255.75598947498335) rotate(0 46.552734375 44.4140625)"><path d="M22.21 0 C40.91 -0.78, 58.2 1.21, 70.9 0 M22.21 0 C32.74 -0.64, 44.36 0.05, 70.9 0 M70.9 0 C84.2 -0.43, 94.43 7.36, 93.11 22.21 M70.9 0 C87.98 -2.24, 90.84 7.97, 93.11 22.21 M93.11 22.21 C92.77 35.51, 92.21 51.36, 93.11 66.62 M93.11 22.21 C93.49 39.44, 93.42 54.47, 93.11 66.62 M93.11 66.62 C91.73 79.83, 84.84 88.71, 70.9 88.83 M93.11 66.62 C94.96 79.57, 85.04 89.5, 70.9 88.83 M70.9 88.83 C52.07 86.81, 33.12 89.68, 22.21 88.83 M70.9 88.83 C57.33 89.22, 40.97 87.61, 22.21 88.83 M22.21 88.83 C7.89 88.53, 1.16 79.5, 0 66.62 M22.21 88.83 C6.95 86.97, -1.19 81.87, 0 66.62 M0 66.62 C1.49 47.95, -1.09 33.37, 0 22.21 M0 66.62 C-0.92 52.94, 0.26 39.42, 0 22.21 M0 22.21 C1.82 7.57, 5.66 1.19, 22.21 0 M0 22.21 C-0.81 7.79, 9.42 1.75, 22.21 0" fill="none" stroke="#1e1e1e" stroke-width="2"></path></g><g transform="translate(30.922760009765625 287.6700519749834) rotate(0 25.629974365234375 12.5)"><text direction="ltr" dominant-baseline="text-before-edge" fill="#1e1e1e" font-family="Virgil, Segoe UI Emoji" font-size="20px" style="white-space: pre;" text-anchor="middle" x="25.629974365234375" y="0">client</text></g><g stroke-linecap="round"><g transform="translate(112.52969360351562 301.6253166269664) rotate(0 111.64130833579787 1.5168346264314607)"><path d="M0.92 -0.76 C38.27 -0.35, 186.92 3, 223.78 3.55 M-0.05 1.45 C37.2 2.02, 185.69 1.34, 223.1 1.69" fill="none" stroke="#1e1e1e" stroke-width="2"></path></g><g transform="translate(112.52969360351562 301.6253166269664) rotate(0 111.64130833579787 1.5168346264314607)"><path d="M29.31 -10.47 C20.26 -6.73, 14.52 -6.85, 0.92 -0.76 M29.31 -10.47 C21.19 -8.12, 15.32 -5.44, 0.92 -0.76" fill="none" stroke="#1e1e1e" stroke-width="2"></path></g><g transform="translate(112.52969360351562 301.6253166269664) rotate(0 111.64130833579787 1.5168346264314607)"><path d="M28.91 10.05 C19.79 8.1, 14.16 2.29, 0.92 -0.76 M28.91 10.05 C21.08 7.13, 15.31 4.55, 0.92 -0.76" fill="none" stroke="#1e1e1e" stroke-width="2"></path></g><g transform="translate(112.52969360351562 301.6253166269664) rotate(0 111.64130833579787 1.5168346264314607)"><path d="M194.89 11.9 C201.34 9.69, 211.28 4.05, 223.1 1.69 M194.89 11.9 C201.46 9, 210.11 6.57, 223.1 1.69" fill="none" stroke="#1e1e1e" stroke-width="2"></path></g><g transform="translate(112.52969360351562 301.6253166269664) rotate(0 111.64130833579787 1.5168346264314607)"><path d="M194.92 -8.62 C201.55 -5.15, 211.48 -5.1, 223.1 1.69 M194.92 -8.62 C201.31 -6.26, 209.94 -3.43, 223.1 1.69" fill="none" stroke="#1e1e1e" stroke-width="2"></path></g></g><mask></mask><g stroke-linecap="round" transform="translate(647.2018729465601 10) rotate(0 88.23450257863317 98.93473203061866)"><path d="M32 0 C69.99 0.2, 107.32 -1.71, 144.47 0 M32 0 C54.53 -0.16, 77.14 -1.24, 144.47 0 M144.47 0 C164.96 -0.76, 177.88 10.31, 176.47 32 M144.47 0 C167.94 1.07, 178.26 11.56, 176.47 32 M176.47 32 C174.69 63.63, 177.16 93.88, 176.47 165.87 M176.47 32 C175.94 68.12, 176.55 103.67, 176.47 165.87 M176.47 165.87 C175.08 188.15, 165.78 199.43, 144.47 197.87 M176.47 165.87 C175.13 189.46, 167.37 195.97, 144.47 197.87 M144.47 197.87 C122.34 195.77, 97.51 196.08, 32 197.87 M144.47 197.87 C115.58 198.35, 89.17 198.04, 32 197.87 M32 197.87 C9.14 198.81, 0.26 187.94, 0 165.87 M32 197.87 C11.55 196.14, 0.48 188.18, 0 165.87 M0 165.87 C-2.96 119.02, -1.92 70.13, 0 32 M0 165.87 C-2.01 113.64, -0.97 62.87, 0 32 M0 32 C0.48 11.23, 8.7 0.86, 32 0 M0 32 C-0.89 12.79, 12.66 -1.68, 32 0" fill="none" stroke="#1e1e1e" stroke-width="2"></path></g><g transform="translate(661.9164246584941 96.43473203061868) rotate(0 73.51995086669922 12.5)"><text direction="ltr" dominant-baseline="text-before-edge" fill="#1e1e1e" font-family="Virgil, Segoe UI Emoji" font-size="20px" style="white-space: pre;" text-anchor="middle" x="73.51995086669922" y="0">Replica cache 1</text></g><g stroke-linecap="round" transform="translate(352.15924778627004 215.4885044605144) rotate(0 88.23450257863317 98.93473203061865)"><path d="M32 0 C69.72 -0.88, 109.69 2.01, 144.47 0 M32 0 C69.62 0.93, 106.73 0.49, 144.47 0 M144.47 0 C167.24 1.13, 174.51 8.89, 176.47 32 M144.47 0 C166.27 -1.71, 178.1 12.67, 176.47 32 M176.47 32 C174.79 79.91, 176.37 128.98, 176.47 165.87 M176.47 32 C176.39 79.7, 175.57 127.86, 176.47 165.87 M176.47 165.87 C174.87 189.06, 166.9 198.52, 144.47 197.87 M176.47 165.87 C177.67 187.29, 165.24 198.24, 144.47 197.87 M144.47 197.87 C104.62 198.32, 66.46 197.13, 32 197.87 M144.47 197.87 C112.72 197.01, 82.49 196.8, 32 197.87 M32 197.87 C9.71 197.93, 0.17 188.85, 0 165.87 M32 197.87 C12.87 199.83, 2.13 187.13, 0 165.87 M0 165.87 C-0.8 135.75, 1.21 105.55, 0 32 M0 165.87 C-0.3 120.25, -1.21 76.06, 0 32 M0 32 C1.97 9.97, 9.75 -0.33, 32 0 M0 32 C1.56 11.14, 11.39 2.13, 32 0" fill="none" stroke="#1e1e1e" stroke-width="2"></path></g><g transform="translate(374.68379705679774 301.923236491133) rotate(0 65.70995330810547 12.5)"><text direction="ltr" dominant-baseline="text-before-edge" fill="#1e1e1e" font-family="Virgil, Segoe UI Emoji" font-size="20px" style="white-space: pre;" text-anchor="middle" x="65.70995330810547" y="0">Leader cache</text></g><g stroke-linecap="round" transform="translate(649.7826203823217 390.55395294289633) rotate(0 88.23450257863317 98.93473203061865)"><path d="M32 0 C70.09 1.18, 111.28 -0.28, 144.47 0 M32 0 C56.69 -1.63, 82.17 -0.61, 144.47 0 M144.47 0 C165.32 -1.8, 175.43 12.02, 176.47 32 M144.47 0 C167.1 0.59, 174.8 9.54, 176.47 32 M176.47 32 C176.81 79.74, 176.43 128.57, 176.47 165.87 M176.47 32 C178.23 86.2, 178.54 138.15, 176.47 165.87 M176.47 165.87 C175.53 187.87, 164.25 199.82, 144.47 197.87 M176.47 165.87 C174.85 188.49, 167.23 199, 144.47 197.87 M144.47 197.87 C119.32 197.18, 90.62 198.22, 32 197.87 M144.47 197.87 C105.87 198.51, 66.03 196.92, 32 197.87 M32 197.87 C12.29 198.56, 1.93 188.53, 0 165.87 M32 197.87 C12.58 199.36, -1.31 188.11, 0 165.87 M0 165.87 C0.69 118.26, 2.98 69.36, 0 32 M0 165.87 C0.19 134.59, 0.66 102.88, 0 32 M0 32 C-0.93 10.1, 9.54 0.41, 32 0 M0 32 C1.31 11.88, 12.08 -1.3, 32 0" fill="none" stroke="#1e1e1e" stroke-width="2"></path></g><g transform="translate(660.0871760615408 476.988684973515) rotate(0 77.92994689941406 12.5)"><text direction="ltr" dominant-baseline="text-before-edge" fill="#1e1e1e" font-family="Virgil, Segoe UI Emoji" font-size="20px" style="white-space: pre;" text-anchor="middle" x="77.92994689941406" y="0">Replica cache 2</text></g><g stroke-linecap="round"><g transform="translate(536.6891453735933 317.4343282930978) rotate(0 47.0062255859375 -91.88438415527344)"><path d="M-0.63 0.36 C15.03 -30.16, 77.87 -152.89, 93.69 -183.41 M1.25 -0.5 C16.74 -31.36, 77.17 -154.66, 92.57 -185.34" fill="none" stroke="#1e1e1e" stroke-width="2"></path></g><g transform="translate(536.6891453735933 317.4343282930978) rotate(0 47.0062255859375 -91.88438415527344)"><path d="M89.25 -155.52 C90.85 -164.32, 91.78 -171.6, 92.57 -185.34 M89.25 -155.52 C90.07 -167.07, 92.11 -178.95, 92.57 -185.34" fill="none" stroke="#1e1e1e" stroke-width="2"></path></g><g transform="translate(536.6891453735933 317.4343282930978) rotate(0 47.0062255859375 -91.88438415527344)"><path d="M70.86 -164.63 C77.53 -170.8, 83.57 -175.56, 92.57 -185.34 M70.86 -164.63 C78.71 -172.7, 87.84 -181.08, 92.57 -185.34" fill="none" stroke="#1e1e1e" stroke-width="2"></path></g></g><mask></mask><g stroke-linecap="round"><g transform="translate(536.4828465454683 335.82806608606654) rotate(0 51.37030029296875 83.58130021385779)"><path d="M-0.91 -0.94 C16.21 27.22, 85.21 140.37, 102.67 168.36 M0.82 1.19 C17.77 29.09, 84.54 139.02, 101.68 166.86" fill="none" stroke="#1e1e1e" stroke-width="2"></path></g><g transform="translate(536.4828465454683 335.82806608606654) rotate(0 51.37030029296875 83.58130021385779)"><path d="M78.23 148.15 C83.55 153.76, 94.06 161.28, 101.68 166.86 M78.23 148.15 C85.24 154.22, 91.03 159.83, 101.68 166.86" fill="none" stroke="#1e1e1e" stroke-width="2"></path></g><g transform="translate(536.4828465454683 335.82806608606654) rotate(0 51.37030029296875 83.58130021385779)"><path d="M95.74 137.45 C95.81 146.11, 101.12 156.8, 101.68 166.86 M95.74 137.45 C97.81 146.43, 98.58 155.11, 101.68 166.86" fill="none" stroke="#1e1e1e" stroke-width="2"></path></g></g><mask></mask><g transform="translate(564.8656590454683 295.2390157930978) rotate(0 122.55988311767578 25)"><text direction="ltr" dominant-baseline="text-before-edge" fill="#868e96" font-family="Virgil, Segoe UI Emoji" font-size="20px" style="white-space: pre;" text-anchor="middle" x="122.55988311767578" y="0">Asyncronounsly propogate</text><text direction="ltr" dominant-baseline="text-before-edge" fill="#868e96" font-family="Virgil, Segoe UI Emoji" font-size="20px" style="white-space: pre;" text-anchor="middle" x="122.55988311767578" y="25">changes to replicas</text></g></svg>