<svg height="957.3824707271324" version="1.1" viewbox="0 0 1798.8153147453309 957.3824707271324" width="1798.8153147453309" xmlns="http://www.w3.org/2000/svg">
<!-- svg-source:excalidraw -->
<!-- payload-type:application/vnd.excalidraw+json --><!-- payload-version:2 -->
<defs>
<style class="style-fonts">
</style>
</defs>
<rect fill="#ffffff" height="957.3824707271324" width="1798.8153147453309" x="0" y="0"></rect><g stroke-linecap="round" transform="translate(10 342.80869222417095) rotate(0 66.41791896430016 54.30053481342259)"><path d="M27.15 0 C56.92 0.65, 83.18 -2.11, 105.69 0 M27.15 0 C53.05 -0.07, 77.51 -0.05, 105.69 0 M105.69 0 C121.95 -1.84, 130.88 9.74, 132.84 27.15 M105.69 0 C121.97 -0.88, 130.55 7.18, 132.84 27.15 M132.84 27.15 C134.14 39.1, 134.17 54.11, 132.84 81.45 M132.84 27.15 C133.12 48.44, 133.72 67.61, 132.84 81.45 M132.84 81.45 C133.49 101.51, 123.81 108.88, 105.69 108.6 M132.84 81.45 C130.94 98.81, 122.11 106.49, 105.69 108.6 M105.69 108.6 C89.16 107.26, 74.24 108.66, 27.15 108.6 M105.69 108.6 C75.13 109.02, 44.61 109.53, 27.15 108.6 M27.15 108.6 C9 106.96, 1.15 99.45, 0 81.45 M27.15 108.6 C9.55 107.63, 0.73 98.04, 0 81.45 M0 81.45 C-0.47 63.21, 2.02 45.17, 0 27.15 M0 81.45 C-0.94 68.78, 0.01 53.98, 0 27.15 M0 27.15 C1.67 9.83, 10.74 -1.37, 27.15 0 M0 27.15 C-0.62 7.24, 8.6 1.73, 27.15 0" fill="none" stroke="#1e1e1e" stroke-width="2"></path></g><g transform="translate(51.974559589300156 384.60922703759354) rotate(0 24.443359375 12.5)"><text direction="ltr" dominant-baseline="text-before-edge" fill="#1e1e1e" font-family="Virgil, Segoe UI Emoji" font-size="20px" style="white-space: pre;" text-anchor="middle" x="24.443359375" y="0">Client</text></g><g stroke-linecap="round" transform="translate(273.2528845617528 193.82069936825428) rotate(0 91.13351565247496 195.92611917101357)"><path d="M32 0 C74.43 2.07, 114.46 1.86, 150.27 0 M32 0 C59.07 -0.2, 87 1.07, 150.27 0 M150.27 0 C170.02 -0.76, 180.28 9.04, 182.27 32 M150.27 0 C170.16 -1.02, 182.3 12.44, 182.27 32 M182.27 32 C185.11 115.22, 183.4 198.54, 182.27 359.85 M182.27 32 C184.37 155.29, 184.15 277.33, 182.27 359.85 M182.27 359.85 C180.62 380.54, 170.14 390.02, 150.27 391.85 M182.27 359.85 C180.05 380.8, 173.18 391.23, 150.27 391.85 M150.27 391.85 C127.79 392.24, 102.81 392.39, 32 391.85 M150.27 391.85 C115.71 391.54, 81.78 392.31, 32 391.85 M32 391.85 C11.1 391.01, 0.63 379.87, 0 359.85 M32 391.85 C11.41 390.21, 1.98 380.2, 0 359.85 M0 359.85 C-2.61 264.79, -1.84 168.49, 0 32 M0 359.85 C0.58 243.4, 0.58 125.94, 0 32 M0 32 C-0.54 9.09, 10.28 1.5, 32 0 M0 32 C-2.05 8.67, 9.74 1.07, 32 0" fill="none" stroke="#1e1e1e" stroke-width="2"></path></g><g transform="translate(301.91081427672776 339.74681853926785) rotate(0 62.4755859375 50)"><text direction="ltr" dominant-baseline="text-before-edge" fill="#1e1e1e" font-family="Virgil, Segoe UI Emoji" font-size="20px" style="white-space: pre;" text-anchor="middle" x="62.4755859375" y="0">API Gateway</text><text direction="ltr" dominant-baseline="text-before-edge" fill="#1e1e1e" font-family="Virgil, Segoe UI Emoji" font-size="20px" style="white-space: pre;" text-anchor="middle" x="62.4755859375" y="25">- authentication</text><text direction="ltr" dominant-baseline="text-before-edge" fill="#1e1e1e" font-family="Virgil, Segoe UI Emoji" font-size="20px" style="white-space: pre;" text-anchor="middle" x="62.4755859375" y="50">- rate limiting</text><text direction="ltr" dominant-baseline="text-before-edge" fill="#1e1e1e" font-family="Virgil, Segoe UI Emoji" font-size="20px" style="white-space: pre;" text-anchor="middle" x="62.4755859375" y="75">- routing</text></g><g stroke-linecap="round"><g transform="translate(156.9605616707031 396.9823636565743) rotate(0 56.38036740573851 -0.5551085060830019)"><path d="M0.53 -0.76 C19.1 -0.92, 93.57 -1.6, 112.09 -1.84 M-0.65 1.46 C18.26 1.51, 95.34 -0.2, 114.45 -0.69" fill="none" stroke="#1e1e1e" stroke-width="2"></path></g><g transform="translate(156.9605616707031 396.9823636565743) rotate(0 56.38036740573851 -0.5551085060830019)"><path d="M28.62 -11.28 C17.33 -8.55, 7.42 -5.55, 0.53 -0.76 M28.62 -11.28 C21.89 -9.38, 15.85 -7.63, 0.53 -0.76" fill="none" stroke="#1e1e1e" stroke-width="2"></path></g><g transform="translate(156.9605616707031 396.9823636565743) rotate(0 56.38036740573851 -0.5551085060830019)"><path d="M28.81 9.24 C17.6 4.7, 7.62 0.44, 0.53 -0.76 M28.81 9.24 C22.24 6.87, 16.16 4.37, 0.53 -0.76" fill="none" stroke="#1e1e1e" stroke-width="2"></path></g><g transform="translate(156.9605616707031 396.9823636565743) rotate(0 56.38036740573851 -0.5551085060830019)"><path d="M86.5 10.22 C95.21 5.11, 105.15 0.53, 114.45 -0.69 M86.5 10.22 C91.62 7.47, 97.23 4.77, 114.45 -0.69" fill="none" stroke="#1e1e1e" stroke-width="2"></path></g><g transform="translate(156.9605616707031 396.9823636565743) rotate(0 56.38036740573851 -0.5551085060830019)"><path d="M86.02 -10.3 C94.76 -8.14, 104.87 -5.46, 114.45 -0.69 M86.02 -10.3 C91.05 -8.78, 96.75 -7.22, 114.45 -0.69" fill="none" stroke="#1e1e1e" stroke-width="2"></path></g></g><mask></mask><g stroke-linecap="round" transform="translate(680.0516580664366 329.08496234051563) rotate(0 133.45758189228422 69.29831816266892)"><path d="M32 0 C100.71 -0.63, 169.96 -0.73, 234.92 0 M32 0 C99 -0.03, 167.21 0.3, 234.92 0 M234.92 0 C256.28 1.54, 265.98 12.24, 266.92 32 M234.92 0 C257.63 1.8, 267.11 9.6, 266.92 32 M266.92 32 C266.19 56.81, 269.43 80.34, 266.92 106.6 M266.92 32 C265.57 54.51, 265.34 78.68, 266.92 106.6 M266.92 106.6 C268.29 127.39, 254.37 139.13, 234.92 138.6 M266.92 106.6 C266.37 130.1, 257.02 140.06, 234.92 138.6 M234.92 138.6 C166.5 140.12, 95.08 141.19, 32 138.6 M234.92 138.6 C175.37 137.24, 115.54 137.19, 32 138.6 M32 138.6 C12.39 137.74, -0.2 129.56, 0 106.6 M32 138.6 C10.43 137.3, -0.06 127.93, 0 106.6 M0 106.6 C-2.41 93.02, 0.37 77.77, 0 32 M0 106.6 C0 90.09, -0.69 71.22, 0 32 M0 32 C-0.8 11.6, 11.22 -1.83, 32 0 M0 32 C-1.47 10.5, 9.4 -0.37, 32 0" fill="none" stroke="#1e1e1e" stroke-width="2"></path></g><g transform="translate(757.6986930837209 385.88328050318455) rotate(0 55.810546875 12.5)"><text direction="ltr" dominant-baseline="text-before-edge" fill="#1e1e1e" font-family="Virgil, Segoe UI Emoji" font-size="20px" style="white-space: pre;" text-anchor="middle" x="55.810546875" y="0">Event Service</text></g><g stroke-linecap="round"><g transform="translate(470.0909273878158 406.8464539599445) rotate(0 98.12245388739251 1.71820194628026)"><path d="M-1.17 0.41 C31.56 1.1, 162.59 2.64, 195.3 2.98 M0.41 -0.41 C33.61 0.53, 164.69 3.66, 197.51 4.27" fill="none" stroke="#1e1e1e" stroke-width="2"></path></g><g transform="translate(470.0909273878158 406.8464539599445) rotate(0 98.12245388739251 1.71820194628026)"><path d="M27.16 -9.46 C21.86 -9.26, 14.52 -7.62, -1.17 0.41 M27.16 -9.46 C20.91 -6.66, 14.24 -4.48, -1.17 0.41" fill="none" stroke="#1e1e1e" stroke-width="2"></path></g><g transform="translate(470.0909273878158 406.8464539599445) rotate(0 98.12245388739251 1.71820194628026)"><path d="M26.88 11.06 C21.83 6.99, 14.54 4.37, -1.17 0.41 M26.88 11.06 C20.82 9.38, 14.21 7.06, -1.17 0.41" fill="none" stroke="#1e1e1e" stroke-width="2"></path></g><g transform="translate(470.0909273878158 406.8464539599445) rotate(0 98.12245388739251 1.71820194628026)"><path d="M169.1 13.92 C175.79 10.61, 180.24 8.2, 197.51 4.27 M169.1 13.92 C175.39 12.71, 181.13 10.61, 197.51 4.27" fill="none" stroke="#1e1e1e" stroke-width="2"></path></g><g transform="translate(470.0909273878158 406.8464539599445) rotate(0 98.12245388739251 1.71820194628026)"><path d="M169.55 -6.6 C175.96 -5.64, 180.32 -3.79, 197.51 4.27 M169.55 -6.6 C175.61 -3.32, 181.25 -0.93, 197.51 4.27" fill="none" stroke="#1e1e1e" stroke-width="2"></path></g></g><mask></mask><g stroke-linecap="round" transform="translate(1122.855603619533 283.3887598843103) rotate(0 112.92030416412285 108.78506994587957)"><path d="M58.61 13.19 C69.39 5.79, 85.63 1.99, 99.32 0.42 C113.01 -1.15, 127.56 0.54, 140.76 3.77 C153.97 7, 167.61 12.34, 178.54 19.8 C189.46 27.26, 198.76 37.52, 206.31 48.53 C213.86 59.54, 220.92 73.08, 223.86 85.87 C226.8 98.67, 225.93 112.5, 223.94 125.32 C221.96 138.14, 218.56 151.59, 211.94 162.77 C205.33 173.95, 195.02 184.28, 184.24 192.41 C173.47 200.55, 160.42 207.57, 147.31 211.57 C134.19 215.58, 119.1 216.94, 105.55 216.43 C92 215.92, 78.28 213.92, 66.01 208.5 C53.74 203.08, 41.37 193.44, 31.93 183.92 C22.5 174.4, 14.55 163.22, 9.39 151.39 C4.24 139.57, 1.43 125.94, 1.01 112.95 C0.6 99.97, 2.6 85.78, 6.89 73.5 C11.18 61.21, 17.34 49.62, 26.76 39.24 C36.18 28.85, 56.69 15.73, 63.41 11.19 C70.13 6.64, 66.34 10.3, 67.09 11.97 M89.71 1.35 C102.11 -2.85, 118.68 -1.73, 132 0.72 C145.32 3.16, 158.13 9.47, 169.64 16.03 C181.15 22.59, 192.54 30.06, 201.04 40.1 C209.54 50.13, 216.78 63.46, 220.63 76.24 C224.48 89.02, 225.05 103.96, 224.16 116.78 C223.28 129.6, 220.59 141.34, 215.3 153.17 C210.01 165.01, 202.03 178.63, 192.44 187.79 C182.85 196.95, 170.58 203.35, 157.76 208.11 C144.94 212.87, 129.37 215.64, 115.52 216.35 C101.67 217.06, 87.61 216.79, 74.65 212.36 C61.69 207.93, 48.1 198.43, 37.76 189.8 C27.42 181.16, 18.7 172.12, 12.61 160.54 C6.52 148.96, 2.88 133.47, 1.21 120.33 C-0.46 107.19, -0.6 94.2, 2.57 81.7 C5.73 69.2, 12.23 55.97, 20.2 45.32 C28.18 34.66, 38.73 24.67, 50.42 17.77 C62.12 10.86, 83.98 6.19, 90.39 3.89 C96.8 1.6, 88.85 2.51, 88.89 4.02" fill="none" stroke="#1e1e1e" stroke-width="2"></path></g><g transform="translate(1180.377437163057 367.25116917960554) rotate(0 55.5517578125 25)"><text direction="ltr" dominant-baseline="text-before-edge" fill="#1e1e1e" font-family="Virgil, Segoe UI Emoji" font-size="20px" style="white-space: pre;" text-anchor="middle" x="55.5517578125" y="0">Database</text><text direction="ltr" dominant-baseline="text-before-edge" fill="#1e1e1e" font-family="Virgil, Segoe UI Emoji" font-size="20px" style="white-space: pre;" text-anchor="middle" x="55.5517578125" y="25">(PostgreSQL)</text></g><g stroke-linecap="round"><g transform="translate(955.7234170581862 396.8944771316055) rotate(0 75.14656532720915 0.29807728076474405)"><path d="M-0.75 -0.53 C24.5 -0.12, 125.23 1.18, 150.31 1.52 M1.05 1.8 C26.25 1.98, 124.77 0.24, 149.37 -0.11" fill="none" stroke="#1e1e1e" stroke-width="2"></path></g><g transform="translate(955.7234170581862 396.8944771316055) rotate(0 75.14656532720915 0.29807728076474405)"><path d="M27.58 -10.41 C20.92 -8.58, 17.68 -7.56, -0.75 -0.53 M27.58 -10.41 C16.99 -6.91, 6.42 -1.97, -0.75 -0.53" fill="none" stroke="#1e1e1e" stroke-width="2"></path></g><g transform="translate(955.7234170581862 396.8944771316055) rotate(0 75.14656532720915 0.29807728076474405)"><path d="M27.29 10.11 C20.86 7.83, 17.67 4.74, -0.75 -0.53 M27.29 10.11 C16.7 5.84, 6.23 3.01, -0.75 -0.53" fill="none" stroke="#1e1e1e" stroke-width="2"></path></g><g transform="translate(955.7234170581862 396.8944771316055) rotate(0 75.14656532720915 0.29807728076474405)"><path d="M121.34 10.59 C126.16 8.65, 134.22 5.54, 149.37 -0.11 M121.34 10.59 C131.98 5.85, 142.74 3.01, 149.37 -0.11" fill="none" stroke="#1e1e1e" stroke-width="2"></path></g><g transform="translate(955.7234170581862 396.8944771316055) rotate(0 75.14656532720915 0.29807728076474405)"><path d="M121.02 -9.93 C125.74 -7.76, 133.85 -6.74, 149.37 -0.11 M121.02 -9.93 C131.9 -6.9, 142.78 -1.98, 149.37 -0.11" fill="none" stroke="#1e1e1e" stroke-width="2"></path></g></g><mask></mask><g transform="translate(1377.222077890124 248.479582257758) rotate(0 65.74993133544922 100)"><text direction="ltr" dominant-baseline="text-before-edge" fill="#1e1e1e" font-family="Virgil, Segoe UI Emoji" font-size="20px" style="white-space: pre;" text-anchor="start" x="0" y="0">Event</text><text direction="ltr" dominant-baseline="text-before-edge" fill="#1e1e1e" font-family="Virgil, Segoe UI Emoji" font-size="20px" style="white-space: pre;" text-anchor="start" x="0" y="25">- id</text><text direction="ltr" dominant-baseline="text-before-edge" fill="#1e1e1e" font-family="Virgil, Segoe UI Emoji" font-size="20px" style="white-space: pre;" text-anchor="start" x="0" y="50">- venueId</text><text direction="ltr" dominant-baseline="text-before-edge" fill="#1e1e1e" font-family="Virgil, Segoe UI Emoji" font-size="20px" style="white-space: pre;" text-anchor="start" x="0" y="75">- performerId</text><text direction="ltr" dominant-baseline="text-before-edge" fill="#1e1e1e" font-family="Virgil, Segoe UI Emoji" font-size="20px" style="white-space: pre;" text-anchor="start" x="0" y="100">- tickets[]</text><text direction="ltr" dominant-baseline="text-before-edge" fill="#1e1e1e" font-family="Virgil, Segoe UI Emoji" font-size="20px" style="white-space: pre;" text-anchor="start" x="0" y="125">- name</text><text direction="ltr" dominant-baseline="text-before-edge" fill="#1e1e1e" font-family="Virgil, Segoe UI Emoji" font-size="20px" style="white-space: pre;" text-anchor="start" x="0" y="150">- description</text><text direction="ltr" dominant-baseline="text-before-edge" fill="#1e1e1e" font-family="Virgil, Segoe UI Emoji" font-size="20px" style="white-space: pre;" text-anchor="start" x="0" y="175">- ....</text></g><g transform="translate(1547.4297951596418 246.65944632440005) rotate(0 51.58995819091797 62.5)"><text direction="ltr" dominant-baseline="text-before-edge" fill="#1e1e1e" font-family="Virgil, Segoe UI Emoji" font-size="20px" style="white-space: pre;" text-anchor="start" x="0" y="0">Venue</text><text direction="ltr" dominant-baseline="text-before-edge" fill="#1e1e1e" font-family="Virgil, Segoe UI Emoji" font-size="20px" style="white-space: pre;" text-anchor="start" x="0" y="25">- id</text><text direction="ltr" dominant-baseline="text-before-edge" fill="#1e1e1e" font-family="Virgil, Segoe UI Emoji" font-size="20px" style="white-space: pre;" text-anchor="start" x="0" y="50">- location</text><text direction="ltr" dominant-baseline="text-before-edge" fill="#1e1e1e" font-family="Virgil, Segoe UI Emoji" font-size="20px" style="white-space: pre;" text-anchor="start" x="0" y="75">- seatMap</text><text direction="ltr" dominant-baseline="text-before-edge" fill="#1e1e1e" font-family="Virgil, Segoe UI Emoji" font-size="20px" style="white-space: pre;" text-anchor="start" x="0" y="100">- ...</text></g><g transform="translate(1694.4554209465027 252.07797672987) rotate(0 47.17994689941406 37.5)"><text direction="ltr" dominant-baseline="text-before-edge" fill="#1e1e1e" font-family="Virgil, Segoe UI Emoji" font-size="20px" style="white-space: pre;" text-anchor="start" x="0" y="0">Performer</text><text direction="ltr" dominant-baseline="text-before-edge" fill="#1e1e1e" font-family="Virgil, Segoe UI Emoji" font-size="20px" style="white-space: pre;" text-anchor="start" x="0" y="25">- id</text><text direction="ltr" dominant-baseline="text-before-edge" fill="#1e1e1e" font-family="Virgil, Segoe UI Emoji" font-size="20px" style="white-space: pre;" text-anchor="start" x="0" y="50">...</text></g><g transform="translate(500.43034150415417 362.7018156796912) rotate(0 64.13993835449219 12.5)"><text direction="ltr" dominant-baseline="text-before-edge" fill="#1e1e1e" font-family="Virgil, Segoe UI Emoji" font-size="20px" style="white-space: pre;" text-anchor="start" x="0" y="0">view(eventId)</text></g><g stroke-linecap="round" transform="translate(673.7122488405965 81.61372336185377) rotate(0 133.45758189228422 69.29831816266892)"><path d="M32 0 C95.93 1.06, 156.06 0.15, 234.92 0 M32 0 C112.05 -0.54, 192.92 -1.07, 234.92 0 M234.92 0 C254.32 -0.34, 268.29 10.13, 266.92 32 M234.92 0 C254.09 0.61, 266.37 12.84, 266.92 32 M266.92 32 C267.23 58.6, 268.24 81.69, 266.92 106.6 M266.92 32 C267.56 47.85, 267.66 63.88, 266.92 106.6 M266.92 106.6 C267.56 126.5, 257.97 137.74, 234.92 138.6 M266.92 106.6 C266.68 129.81, 256.01 137.3, 234.92 138.6 M234.92 138.6 C175.58 136.86, 112.46 138.36, 32 138.6 M234.92 138.6 C165.84 136.65, 97.07 138.02, 32 138.6 M32 138.6 C8.89 136.86, -0.8 128.86, 0 106.6 M32 138.6 C11.3 136.5, -1.47 127.76, 0 106.6 M0 106.6 C0.01 89.89, 2.08 68.98, 0 32 M0 106.6 C-0.32 86.35, 0.59 68.07, 0 32 M0 32 C-0.73 11.21, 12.63 0.21, 32 0 M0 32 C-2.11 10.9, 10.26 0.68, 32 0" fill="none" stroke="#1e1e1e" stroke-width="2"></path></g><g transform="translate(747.4774479203808 138.4120415245227) rotate(0 59.6923828125 12.5)"><text direction="ltr" dominant-baseline="text-before-edge" fill="#1e1e1e" font-family="Virgil, Segoe UI Emoji" font-size="20px" style="white-space: pre;" text-anchor="middle" x="59.6923828125" y="0">Search Service</text></g><g stroke-linecap="round"><g transform="translate(471.95087765606047 340.47306822446626) rotate(0 90.93538370750377 -87.87295048122769)"><path d="M0.39 1.18 C30.54 -27.96, 151.8 -146.03, 181.88 -175.58 M-0.86 0.75 C29.04 -28.1, 150.25 -144.66, 180.94 -173.95" fill="none" stroke="#1e1e1e" stroke-width="2"></path></g><g transform="translate(471.95087765606047 340.47306822446626) rotate(0 90.93538370750377 -87.87295048122769)"><path d="M13.44 -25.83 C10.23 -15.42, 3.54 -6.73, 0.39 1.18 M13.44 -25.83 C8.79 -18.89, 6.94 -11.75, 0.39 1.18" fill="none" stroke="#1e1e1e" stroke-width="2"></path></g><g transform="translate(471.95087765606047 340.47306822446626) rotate(0 90.93538370750377 -87.87295048122769)"><path d="M27.75 -11.12 C19.15 -6.3, 6.98 -3.25, 0.39 1.18 M27.75 -11.12 C19.37 -8.25, 13.69 -5.06, 0.39 1.18" fill="none" stroke="#1e1e1e" stroke-width="2"></path></g><g transform="translate(471.95087765606047 340.47306822446626) rotate(0 90.93538370750377 -87.87295048122769)"><path d="M167.69 -147.04 C174.9 -157.38, 178.3 -169.36, 180.94 -173.95 M167.69 -147.04 C170.47 -154.29, 175.67 -161.6, 180.94 -173.95" fill="none" stroke="#1e1e1e" stroke-width="2"></path></g><g transform="translate(471.95087765606047 340.47306822446626) rotate(0 90.93538370750377 -87.87295048122769)"><path d="M153.49 -161.85 C166.05 -166.56, 174.89 -172.86, 180.94 -173.95 M153.49 -161.85 C159.97 -165.01, 168.97 -168.35, 180.94 -173.95" fill="none" stroke="#1e1e1e" stroke-width="2"></path></g></g><mask></mask><g transform="translate(164.10218856898575 10) rotate(0 468.1796569824219 12.5)"><text direction="ltr" dominant-baseline="text-before-edge" fill="#1e1e1e" font-family="Virgil, Segoe UI Emoji" font-size="20px" style="white-space: pre;" text-anchor="start" x="0" y="0">GET /search?term={term}&amp;location={location}&amp;type={type}&amp;date={date} -&gt; Partial&lt;Event&gt;[]</text></g><g stroke-linecap="round"><g transform="translate(953.5581413863454 155.685936333899) rotate(0 94.64702248989141 70.92741489771151)"><path d="M-0.99 -0.39 C30.41 23.05, 156.9 117.08, 188.42 140.75 M0.7 -1.63 C32.47 21.89, 159.05 117.63, 190.67 141.71" fill="none" stroke="#1e1e1e" stroke-width="2"></path></g><g transform="translate(953.5581413863454 155.685936333899) rotate(0 94.64702248989141 70.92741489771151)"><path d="M27.75 8.22 C18.45 3.93, 8.61 0.87, -0.99 -0.39 M27.75 8.22 C18.62 5.97, 11.18 4.21, -0.99 -0.39" fill="none" stroke="#1e1e1e" stroke-width="2"></path></g><g transform="translate(953.5581413863454 155.685936333899) rotate(0 94.64702248989141 70.92741489771151)"><path d="M15.5 24.68 C9.86 15.54, 3.7 7.53, -0.99 -0.39 M15.5 24.68 C9.72 17.81, 5.75 11.39, -0.99 -0.39" fill="none" stroke="#1e1e1e" stroke-width="2"></path></g><g transform="translate(953.5581413863454 155.685936333899) rotate(0 94.64702248989141 70.92741489771151)"><path d="M162.01 132.86 C170 134.3, 177.44 136.5, 190.67 141.71 M162.01 132.86 C169.24 135.71, 178.06 138.89, 190.67 141.71" fill="none" stroke="#1e1e1e" stroke-width="2"></path></g><g transform="translate(953.5581413863454 155.685936333899) rotate(0 94.64702248989141 70.92741489771151)"><path d="M174.41 116.51 C178.69 122.77, 182.4 129.89, 190.67 141.71 M174.41 116.51 C178.24 123.95, 183.55 131.77, 190.67 141.71" fill="none" stroke="#1e1e1e" stroke-width="2"></path></g></g><mask></mask><g transform="translate(1019.4699252994563 153.82429193471762) rotate(0 129.81988525390625 25)"><text direction="ltr" dominant-baseline="text-before-edge" fill="#1e1e1e" font-family="Virgil, Segoe UI Emoji" font-size="20px" style="white-space: pre;" text-anchor="middle" x="129.81988525390625" y="0">Query event table directly</text><text direction="ltr" dominant-baseline="text-before-edge" fill="#1e1e1e" font-family="Virgil, Segoe UI Emoji" font-size="20px" style="white-space: pre;" text-anchor="middle" x="129.81988525390625" y="25">for search</text></g><g stroke-linecap="round" transform="translate(691.3079702354096 613.8894445030382) rotate(0 132.14561200083367 76.0151989733738)"><path d="M32 0 C77.16 2.97, 122.44 0.05, 232.29 0 M32 0 C97.69 -1.13, 163.15 -1.77, 232.29 0 M232.29 0 C255.35 0.85, 264.24 9.03, 264.29 32 M232.29 0 C254.95 -0.12, 264.79 9.69, 264.29 32 M264.29 32 C262.29 62.92, 262.86 90.19, 264.29 120.03 M264.29 32 C264.18 65.6, 263.25 99.75, 264.29 120.03 M264.29 120.03 C264.29 139.37, 255.3 152.81, 232.29 152.03 M264.29 120.03 C266.23 139.78, 253.01 150.22, 232.29 152.03 M232.29 152.03 C174.55 149.71, 120.76 150.92, 32 152.03 M232.29 152.03 C190 151.75, 148.38 151.85, 32 152.03 M32 152.03 C12.22 153.99, -1.09 140.66, 0 120.03 M32 152.03 C9.12 151.88, -1.9 140.2, 0 120.03 M0 120.03 C-0.29 94.77, -0.63 63.75, 0 32 M0 120.03 C0.34 92.15, -0.46 65.68, 0 32 M0 32 C-1.93 10.69, 11.32 -0.85, 32 0 M0 32 C0.34 10.58, 11.26 -0.9, 32 0" fill="none" stroke="#1e1e1e" stroke-width="2"></path></g><g transform="translate(756.5199884862434 677.404643476412) rotate(0 66.93359375000003 12.5)"><text direction="ltr" dominant-baseline="text-before-edge" fill="#1e1e1e" font-family="Virgil, Segoe UI Emoji" font-size="20px" style="white-space: pre;" text-anchor="middle" x="66.93359375" y="0">Booking Service</text></g><g stroke-linecap="round"><g transform="translate(972.9638959666908 674.6686083836321) rotate(0 103.18857837129764 -85.73502393749277)"><path d="M-1.13 0.32 C33.08 -28.02, 171.44 -141.83, 206.09 -170.34 M0.48 -0.56 C34.44 -29.17, 170.7 -143.18, 204.99 -171.87" fill="none" stroke="#1e1e1e" stroke-width="2"></path></g><g transform="translate(972.9638959666908 674.6686083836321) rotate(0 103.18857837129764 -85.73502393749277)"><path d="M189.96 -145.91 C196.1 -155.82, 203 -164.24, 204.99 -171.87 M189.96 -145.91 C196.18 -154.91, 200.76 -165.59, 204.99 -171.87" fill="none" stroke="#1e1e1e" stroke-width="2"></path></g><g transform="translate(972.9638959666908 674.6686083836321) rotate(0 103.18857837129764 -85.73502393749277)"><path d="M176.79 -161.65 C187.75 -165.63, 199.5 -168.25, 204.99 -171.87 M176.79 -161.65 C187.86 -164.91, 197.23 -169.87, 204.99 -171.87" fill="none" stroke="#1e1e1e" stroke-width="2"></path></g></g><mask></mask><g stroke-linecap="round" transform="translate(697.9943755026302 860.1277425167536) rotate(0 132.68811403083757 43.62736410518937)"><path d="M21.81 0 C69.12 1.03, 114.27 1.16, 243.56 0 M21.81 0 C86.54 -1.52, 151.81 -0.86, 243.56 0 M243.56 0 C258.54 -0.85, 266.01 5.95, 265.38 21.81 M243.56 0 C258.85 -1.64, 267.36 6.29, 265.38 21.81 M265.38 21.81 C264.61 34.41, 265.73 45.19, 265.38 65.44 M265.38 21.81 C266.21 37.74, 266.22 52.19, 265.38 65.44 M265.38 65.44 C264.84 78.41, 257.71 88.76, 243.56 87.25 M265.38 65.44 C263.33 77.99, 257.18 88.32, 243.56 87.25 M243.56 87.25 C170.82 85.08, 98.05 85.43, 21.81 87.25 M243.56 87.25 C177.81 88.83, 112.41 89.08, 21.81 87.25 M21.81 87.25 C5.62 86.24, 0.18 81.89, 0 65.44 M21.81 87.25 C6.43 87.88, 2.25 80.22, 0 65.44 M0 65.44 C0.55 56.73, -1.2 46.05, 0 21.81 M0 65.44 C0.75 50.76, 0.57 36.9, 0 21.81 M0 21.81 C0.52 6.48, 6.18 1.42, 21.81 0 M0 21.81 C1.61 8.61, 5.69 0.01, 21.81 0" fill="none" stroke="#1e1e1e" stroke-width="2"></path></g><g transform="translate(806.7957707834678 891.255106621943) rotate(0 23.88671874999997 12.5)"><text direction="ltr" dominant-baseline="text-before-edge" fill="#1e1e1e" font-family="Virgil, Segoe UI Emoji" font-size="20px" style="white-space: pre;" text-anchor="middle" x="23.88671875" y="0">Stripe</text></g><g stroke-linecap="round"><g transform="translate(777.7883709218485 849.5280874689815) rotate(0 -0.0951187552088868 -36.923922624306954)"><path d="M0.49 -0.1 C0.57 -12.45, 0.96 -60.88, 0.85 -73.34 M-0.71 -1.19 C-0.74 -13.97, 0.49 -63.05, 0.44 -75.19" fill="none" stroke="#1e1e1e" stroke-width="2"></path></g><g transform="translate(777.7883709218485 849.5280874689815) rotate(0 -0.0951187552088868 -36.923922624306954)"><path d="M-9.59 -28.35 C-6.21 -17.25, -1.83 -9.6, 0.49 -0.1 M-9.59 -28.35 C-7.01 -22.61, -4.71 -16.68, 0.49 -0.1" fill="none" stroke="#1e1e1e" stroke-width="2"></path></g><g transform="translate(777.7883709218485 849.5280874689815) rotate(0 -0.0951187552088868 -36.923922624306954)"><path d="M10.93 -28.22 C7.47 -17.07, 5 -9.48, 0.49 -0.1 M10.93 -28.22 C9.03 -22.51, 6.86 -16.62, 0.49 -0.1" fill="none" stroke="#1e1e1e" stroke-width="2"></path></g></g><mask></mask><g stroke-linecap="round"><g transform="translate(877.8704912097671 854.4987043592737) rotate(0 -0.5872932087754634 -40.253123116126005)"><path d="M1.04 0.51 C0.75 -13.05, -0.95 -67.98, -1.21 -81.49 M0.12 -0.27 C-0.37 -13.7, -2 -67.3, -2.17 -80.47" fill="none" stroke="#1e1e1e" stroke-width="2"></path></g><g transform="translate(877.8704912097671 854.4987043592737) rotate(0 -0.5872932087754634 -40.253123116126005)"><path d="M8.74 -52.52 C5.9 -62.01, -0.32 -70.33, -2.17 -80.47 M8.74 -52.52 C5.78 -61.47, 2.57 -69.76, -2.17 -80.47" fill="none" stroke="#1e1e1e" stroke-width="2"></path></g><g transform="translate(877.8704912097671 854.4987043592737) rotate(0 -0.5872932087754634 -40.253123116126005)"><path d="M-11.78 -52.05 C-7.63 -61.87, -6.84 -70.36, -2.17 -80.47 M-11.78 -52.05 C-8.69 -61.04, -5.85 -69.48, -2.17 -80.47" fill="none" stroke="#1e1e1e" stroke-width="2"></path></g></g><mask></mask><g stroke-linecap="round"><g transform="translate(472.792096794106 530.6228330156737) rotate(0 103.31966170318998 73.45913294030242)"><path d="M-0.03 -0.98 C34.35 23.41, 172.84 122.29, 207.33 146.86 M-1.51 1.12 C32.69 25.66, 172.11 123.97, 206.74 148.36" fill="none" stroke="#1e1e1e" stroke-width="2"></path></g><g transform="translate(472.792096794106 530.6228330156737) rotate(0 103.31966170318998 73.45913294030242)"><path d="M28.88 7.03 C16.04 5.07, 6.4 1.26, -0.03 -0.98 M28.88 7.03 C21.72 4.06, 14.81 2.28, -0.03 -0.98" fill="none" stroke="#1e1e1e" stroke-width="2"></path></g><g transform="translate(472.792096794106 530.6228330156737) rotate(0 103.31966170318998 73.45913294030242)"><path d="M16.97 23.74 C8.66 15.33, 3.62 5.06, -0.03 -0.98 M16.97 23.74 C12.83 16.54, 8.99 10.46, -0.03 -0.98" fill="none" stroke="#1e1e1e" stroke-width="2"></path></g><g transform="translate(472.792096794106 530.6228330156737) rotate(0 103.31966170318998 73.45913294030242)"><path d="M177.79 140.5 C187.37 144.7, 200.09 147.02, 206.74 148.36 M177.79 140.5 C185.6 142.01, 193.6 144.32, 206.74 148.36" fill="none" stroke="#1e1e1e" stroke-width="2"></path></g><g transform="translate(472.792096794106 530.6228330156737) rotate(0 103.31966170318998 73.45913294030242)"><path d="M189.61 123.73 C194.7 134.4, 202.85 143.2, 206.74 148.36 M189.61 123.73 C194.43 129.48, 199.38 136.11, 206.74 148.36" fill="none" stroke="#1e1e1e" stroke-width="2"></path></g></g><mask></mask><g transform="translate(1373.076281767333 488.93251171886004) rotate(0 134.03988647460938 87.5)"><text direction="ltr" dominant-baseline="text-before-edge" fill="#1e1e1e" font-family="Virgil, Segoe UI Emoji" font-size="20px" style="white-space: pre;" text-anchor="start" x="0" y="0">Ticket</text><text direction="ltr" dominant-baseline="text-before-edge" fill="#1e1e1e" font-family="Virgil, Segoe UI Emoji" font-size="20px" style="white-space: pre;" text-anchor="start" x="0" y="25">- id</text><text direction="ltr" dominant-baseline="text-before-edge" fill="#1e1e1e" font-family="Virgil, Segoe UI Emoji" font-size="20px" style="white-space: pre;" text-anchor="start" x="0" y="50">- eventId</text><text direction="ltr" dominant-baseline="text-before-edge" fill="#1e1e1e" font-family="Virgil, Segoe UI Emoji" font-size="20px" style="white-space: pre;" text-anchor="start" x="0" y="75">- seat</text><text direction="ltr" dominant-baseline="text-before-edge" fill="#1e1e1e" font-family="Virgil, Segoe UI Emoji" font-size="20px" style="white-space: pre;" text-anchor="start" x="0" y="100">- price</text><text direction="ltr" dominant-baseline="text-before-edge" fill="#1e1e1e" font-family="Virgil, Segoe UI Emoji" font-size="20px" style="white-space: pre;" text-anchor="start" x="0" y="125">- status: available, booked</text><text direction="ltr" dominant-baseline="text-before-edge" fill="#1e1e1e" font-family="Virgil, Segoe UI Emoji" font-size="20px" style="white-space: pre;" text-anchor="start" x="0" y="150">- userId</text></g><g transform="translate(1673.258122387519 490.06405698375966) rotate(0 43.38995361328125 50)"><text direction="ltr" dominant-baseline="text-before-edge" fill="#1e1e1e" font-family="Virgil, Segoe UI Emoji" font-size="20px" style="white-space: pre;" text-anchor="start" x="0" y="0">Booking</text><text direction="ltr" dominant-baseline="text-before-edge" fill="#1e1e1e" font-family="Virgil, Segoe UI Emoji" font-size="20px" style="white-space: pre;" text-anchor="start" x="0" y="25">- id</text><text direction="ltr" dominant-baseline="text-before-edge" fill="#1e1e1e" font-family="Virgil, Segoe UI Emoji" font-size="20px" style="white-space: pre;" text-anchor="start" x="0" y="50">- userId</text><text direction="ltr" dominant-baseline="text-before-edge" fill="#1e1e1e" font-family="Virgil, Segoe UI Emoji" font-size="20px" style="white-space: pre;" text-anchor="start" x="0" y="75">- tickets</text></g><g transform="translate(548.7767418033012 527.7275184743012) rotate(0 201.83981323242188 25)"><text direction="ltr" dominant-baseline="text-before-edge" fill="#1e1e1e" font-family="Virgil, Segoe UI Emoji" font-size="20px" style="white-space: pre;" text-anchor="start" x="0" y="0">reserve(ticketId, userId)</text><text direction="ltr" dominant-baseline="text-before-edge" fill="#1e1e1e" font-family="Virgil, Segoe UI Emoji" font-size="20px" style="white-space: pre;" text-anchor="start" x="0" y="25">confirm(ticketId, userId, paymentDetails)</text></g><g stroke-linecap="round" transform="translate(1133.453691668826 626.6461230082587) rotate(0 62.59547628591781 59.93944973184932)"><path d="M89.52 5.36 C98.25 8.25, 105.8 16.08, 111.59 23.29 C117.37 30.5, 122.38 39.46, 124.25 48.61 C126.11 57.76, 125.9 69.04, 122.78 78.18 C119.66 87.33, 112.47 96.81, 105.54 103.47 C98.6 110.13, 90.4 115.62, 81.18 118.14 C71.95 120.65, 59.9 120.46, 50.18 118.55 C40.46 116.64, 30.2 112.54, 22.85 106.66 C15.5 100.78, 10.01 91.78, 6.08 83.25 C2.15 74.72, -1.33 64.55, -0.72 55.48 C-0.12 46.41, 4.66 36.78, 9.73 28.83 C14.8 20.88, 21.44 12.67, 29.69 7.78 C37.93 2.9, 48.94 -0.23, 59.2 -0.47 C69.46 -0.7, 85.56 4.65, 91.25 6.39 C96.95 8.12, 93.67 9.09, 93.38 9.94 M50.35 0.17 C59.45 -1.99, 72.26 1.22, 81.62 4.22 C90.98 7.22, 99.46 11.77, 106.5 18.15 C113.55 24.54, 121.2 33.68, 123.91 42.52 C126.61 51.35, 124.82 61.98, 122.74 71.16 C120.66 80.33, 117.17 90.45, 111.43 97.56 C105.7 104.67, 97.28 110.08, 88.31 113.84 C79.34 117.61, 67.57 120.61, 57.61 120.15 C47.65 119.7, 36.57 116.12, 28.53 111.11 C20.49 106.1, 14.07 98.06, 9.37 90.08 C4.67 82.1, 0.88 72.5, 0.32 63.24 C-0.24 53.97, 2.17 42.77, 6.02 34.51 C9.86 26.24, 15.62 19.11, 23.39 13.66 C31.16 8.21, 48.07 3.73, 52.64 1.81 C57.2 -0.11, 50.74 1.15, 50.77 2.12" fill="none" stroke="#1e1e1e" stroke-width="2"></path></g><g transform="translate(1166.8490056388696 649.2019813741272) rotate(0 29.4384765625 37.5)"><text direction="ltr" dominant-baseline="text-before-edge" fill="#1e1e1e" font-family="Virgil, Segoe UI Emoji" font-size="20px" style="white-space: pre;" text-anchor="middle" x="29.4384765625" y="0">Ticket </text><text direction="ltr" dominant-baseline="text-before-edge" fill="#1e1e1e" font-family="Virgil, Segoe UI Emoji" font-size="20px" style="white-space: pre;" text-anchor="middle" x="29.4384765625" y="25">Lock</text><text direction="ltr" dominant-baseline="text-before-edge" fill="#1e1e1e" font-family="Virgil, Segoe UI Emoji" font-size="20px" style="white-space: pre;" text-anchor="middle" x="29.4384765625" y="50">(Redis)</text></g><g stroke-linecap="round"><g transform="translate(977.0851088394139 696.2566184409661) rotate(0 69.08745180587596 0.12502253312686662)"><path d="M-0.12 0.98 C22.71 0.99, 115.01 -0.3, 138.05 -0.42 M-1.65 0.45 C20.93 0.65, 113.87 0.57, 137.04 0.76" fill="none" stroke="#1e1e1e" stroke-width="2"></path></g><g transform="translate(977.0851088394139 696.2566184409661) rotate(0 69.08745180587596 0.12502253312686662)"><path d="M27.96 -9.57 C18.71 -5.73, 5.11 -1.51, -0.12 0.98 M27.96 -9.57 C19.43 -7.24, 11.84 -2.69, -0.12 0.98" fill="none" stroke="#1e1e1e" stroke-width="2"></path></g><g transform="translate(977.0851088394139 696.2566184409661) rotate(0 69.08745180587596 0.12502253312686662)"><path d="M28.17 10.95 C18.92 6.87, 5.24 3.17, -0.12 0.98 M28.17 10.95 C19.77 7.12, 12.12 5.52, -0.12 0.98" fill="none" stroke="#1e1e1e" stroke-width="2"></path></g><g transform="translate(977.0851088394139 696.2566184409661) rotate(0 69.08745180587596 0.12502253312686662)"><path d="M108.82 10.93 C121.39 6.83, 129.53 3.05, 137.04 0.76 M108.82 10.93 C117.38 6.72, 126.69 5.06, 137.04 0.76" fill="none" stroke="#1e1e1e" stroke-width="2"></path></g><g transform="translate(977.0851088394139 696.2566184409661) rotate(0 69.08745180587596 0.12502253312686662)"><path d="M108.88 -9.59 C121.34 -5.77, 129.45 -1.62, 137.04 0.76 M108.88 -9.59 C117.23 -7.64, 126.52 -3.14, 137.04 0.76" fill="none" stroke="#1e1e1e" stroke-width="2"></path></g></g><mask></mask><g transform="translate(1049.7607073460294 761.6225661774333) rotate(0 149.9698944091797 12.5)"><text direction="ltr" dominant-baseline="text-before-edge" fill="#1e1e1e" font-family="Virgil, Segoe UI Emoji" font-size="20px" style="white-space: pre;" text-anchor="start" x="0" y="0">{ticketId: userId} TTL 10 min</text></g><g stroke-linecap="round" transform="translate(974.9311850673867 256.7288420540808) rotate(0 56.58724715460437 49.969668064270536)"><path d="M29.58 6.43 C37.14 2.29, 50.11 0.7, 59.59 0.9 C69.06 1.1, 78.68 3.3, 86.42 7.62 C94.17 11.94, 101.48 19.52, 106.06 26.81 C110.63 34.1, 114.31 43.1, 113.87 51.38 C113.42 59.67, 108.51 69.31, 103.37 76.52 C98.24 83.73, 91.44 90.84, 83.06 94.62 C74.67 98.41, 62.58 99.77, 53.07 99.25 C43.56 98.73, 33.81 95.94, 25.99 91.5 C18.18 87.05, 10.5 79.76, 6.17 72.59 C1.84 65.41, -0.62 56.8, 0 48.45 C0.63 40.09, 3.99 30.09, 9.92 22.48 C15.85 14.86, 30.27 6.2, 35.57 2.78 C40.87 -0.64, 41.41 1.05, 41.73 1.95 M83.96 5.7 C92.16 8.63, 97.98 16.03, 102.79 23.08 C107.61 30.13, 112.11 39.86, 112.84 48.01 C113.57 56.16, 111.6 64.58, 107.17 71.98 C102.75 79.37, 94.5 87.74, 86.28 92.39 C78.06 97.05, 67.05 99.67, 57.86 99.9 C48.68 100.12, 39.28 97.58, 31.17 93.76 C23.07 89.93, 14.34 83.95, 9.22 76.95 C4.1 69.96, 1.08 59.92, 0.45 51.79 C-0.17 43.65, 1.03 35.32, 5.45 28.16 C9.88 21, 19.12 13.51, 27.02 8.82 C34.91 4.14, 43.56 0.47, 52.83 0.07 C62.1 -0.34, 77.9 5.07, 82.63 6.37 C87.36 7.66, 81.48 7.14, 81.22 7.83" fill="none" stroke="#1e1e1e" stroke-width="2"></path></g><g transform="translate(1008.7268857177911 294.3646189764648) rotate(0 22.7783203125 12.5)"><text direction="ltr" dominant-baseline="text-before-edge" fill="#1e1e1e" font-family="Virgil, Segoe UI Emoji" font-size="20px" style="white-space: pre;" text-anchor="middle" x="22.7783203125" y="0">Redis</text></g><g stroke-linecap="round"><g transform="translate(969.1015672766069 300.4438938162093) rotate(0 -52.62610139680169 8.454302325060326)"><path d="M0 -1.2 C-10.98 -0.77, -49.63 0.33, -67.01 3.21 C-84.38 6.09, -97.81 13.96, -104.24 16.08 M-1.46 0.79 C-12.41 0.79, -50.26 -1.36, -67.43 1.34 C-84.59 4.04, -98.13 14.43, -104.47 16.97" fill="none" stroke="#1e1e1e" stroke-width="2"></path></g><g transform="translate(969.1015672766069 300.4438938162093) rotate(0 -52.62610139680169 8.454302325060326)"><path d="M-18.37 6.51 C-16.65 6.6, -10.12 5.04, 0 -1.2 M-18.37 6.51 C-14.3 5.62, -10.74 2.23, 0 -1.2" fill="none" stroke="#1e1e1e" stroke-width="2"></path></g><g transform="translate(969.1015672766069 300.4438938162093) rotate(0 -52.62610139680169 8.454302325060326)"><path d="M-19.03 -7.1 C-17.09 -4.22, -10.43 -3, 0 -1.2 M-19.03 -7.1 C-14.84 -4.84, -11.13 -5.08, 0 -1.2" fill="none" stroke="#1e1e1e" stroke-width="2"></path></g><g transform="translate(969.1015672766069 300.4438938162093) rotate(0 -52.62610139680169 8.454302325060326)"><path d="M-91.1 2.21 C-95.74 6.89, -95.7 9.92, -104.47 16.97 M-91.1 2.21 C-94.42 6.26, -98.21 8.07, -104.47 16.97" fill="none" stroke="#1e1e1e" stroke-width="2"></path></g><g transform="translate(969.1015672766069 300.4438938162093) rotate(0 -52.62610139680169 8.454302325060326)"><path d="M-84.74 14.26 C-90.74 16.48, -92.01 17.05, -104.47 16.97 M-84.74 14.26 C-89.5 15.48, -94.76 14.49, -104.47 16.97" fill="none" stroke="#1e1e1e" stroke-width="2"></path></g></g><mask></mask><g transform="translate(843.4105770652836 260.7613255584247) rotate(0 59.87995910644531 12.5)"><text direction="ltr" dominant-baseline="text-before-edge" fill="#1e1e1e" font-family="Virgil, Segoe UI Emoji" font-size="20px" style="white-space: pre;" text-anchor="start" x="0" y="0">Event cache</text></g></svg>