<svg height="1034.578488466641" version="1.1" viewbox="0 0 1798.8153147453309 1034.578488466641" width="1798.8153147453309" xmlns="http://www.w3.org/2000/svg">
<!-- svg-source:excalidraw -->
<!-- payload-type:application/vnd.excalidraw+json --><!-- payload-version:2 -->
<defs>
<style class="style-fonts">
</style>
</defs>
<rect fill="#ffffff" height="1034.578488466641" width="1798.8153147453309" x="0" y="0"></rect><g stroke-linecap="round" transform="translate(10 419.67522448584896) rotate(0 66.41791896430016 54.30053481342259)"><path d="M27.15 0 C44.58 -1.47, 60.6 0.54, 105.69 0 M27.15 0 C52.36 0.73, 75.77 0.08, 105.69 0 M105.69 0 C123.44 0.66, 131.72 7.97, 132.84 27.15 M105.69 0 C122.79 -0.07, 134.57 10.6, 132.84 27.15 M132.84 27.15 C133.97 48.71, 135.09 67.86, 132.84 81.45 M132.84 27.15 C133.49 46.69, 132.44 67.93, 132.84 81.45 M132.84 81.45 C132.79 97.63, 124.43 109.7, 105.69 108.6 M132.84 81.45 C134.92 99.51, 125.41 109.01, 105.69 108.6 M105.69 108.6 C79.64 109.69, 55.56 107.39, 27.15 108.6 M105.69 108.6 C83.31 107.27, 60 107.72, 27.15 108.6 M27.15 108.6 C10.71 108.13, -1.89 99.3, 0 81.45 M27.15 108.6 C8.69 107.06, -1.44 101.22, 0 81.45 M0 81.45 C1.36 61.67, 1.83 43.02, 0 27.15 M0 81.45 C0.92 64.15, -0.49 45.91, 0 27.15 M0 27.15 C1.82 7.24, 10.52 -1.46, 27.15 0 M0 27.15 C-0.84 6.77, 10.87 -1.45, 27.15 0" fill="none" stroke="#1e1e1e" stroke-width="2"></path></g><g transform="translate(51.974559589300156 461.47575929927154) rotate(0 24.443359375 12.5)"><text direction="ltr" dominant-baseline="text-before-edge" fill="#1e1e1e" font-family="Virgil, Segoe UI Emoji" font-size="20px" style="white-space: pre;" text-anchor="middle" x="24.443359375" y="0">Client</text></g><g stroke-linecap="round" transform="translate(273.2528845617528 270.68723162993047) rotate(0 91.13351565247496 195.92611917101357)"><path d="M32 0 C59.02 0.25, 83.99 0.79, 150.27 0 M32 0 C68.94 0.93, 105.67 0.06, 150.27 0 M150.27 0 C170.73 -0.06, 183.78 12.01, 182.27 32 M150.27 0 C173.24 1.35, 180.71 11.6, 182.27 32 M182.27 32 C185.42 153.93, 184.66 275.18, 182.27 359.85 M182.27 32 C180.81 109.82, 181.05 189.34, 182.27 359.85 M182.27 359.85 C184.08 381.15, 173.01 392.21, 150.27 391.85 M182.27 359.85 C182.7 379.67, 170.14 390.7, 150.27 391.85 M150.27 391.85 C105.16 392.8, 59.59 392.15, 32 391.85 M150.27 391.85 C127.31 390.98, 101.74 391.09, 32 391.85 M32 391.85 C10.35 390.51, -1.25 382.64, 0 359.85 M32 391.85 C12.23 392.22, 1.49 382.84, 0 359.85 M0 359.85 C-1.7 257.46, -2.56 157.64, 0 32 M0 359.85 C2.54 235.02, 2.42 110.93, 0 32 M0 32 C-0.73 8.69, 12.25 -1.26, 32 0 M0 32 C1.28 10.83, 11.83 -0.05, 32 0" fill="none" stroke="#1e1e1e" stroke-width="2"></path></g><g transform="translate(301.91081427672776 416.61335080094403) rotate(0 62.4755859375 50)"><text direction="ltr" dominant-baseline="text-before-edge" fill="#1e1e1e" font-family="Virgil, Segoe UI Emoji" font-size="20px" style="white-space: pre;" text-anchor="middle" x="62.4755859375" y="0">API Gateway</text><text direction="ltr" dominant-baseline="text-before-edge" fill="#1e1e1e" font-family="Virgil, Segoe UI Emoji" font-size="20px" style="white-space: pre;" text-anchor="middle" x="62.4755859375" y="25">- authentication</text><text direction="ltr" dominant-baseline="text-before-edge" fill="#1e1e1e" font-family="Virgil, Segoe UI Emoji" font-size="20px" style="white-space: pre;" text-anchor="middle" x="62.4755859375" y="50">- rate limiting</text><text direction="ltr" dominant-baseline="text-before-edge" fill="#1e1e1e" font-family="Virgil, Segoe UI Emoji" font-size="20px" style="white-space: pre;" text-anchor="middle" x="62.4755859375" y="75">- routing</text></g><g stroke-linecap="round"><g transform="translate(156.9605616707031 473.8488959182523) rotate(0 56.38036740573851 -0.5551085060830019)"><path d="M0.66 0.17 C19.26 0.03, 93.28 -1.57, 111.93 -1.72 M-0.45 -0.79 C18.5 -0.7, 95.52 -0.16, 114.21 -0.5" fill="none" stroke="#1e1e1e" stroke-width="2"></path></g><g transform="translate(156.9605616707031 473.8488959182523) rotate(0 56.38036740573851 -0.5551085060830019)"><path d="M28.67 -10.58 C19.67 -8.28, 9.18 -3.71, 0.66 0.17 M28.67 -10.58 C18.85 -7.18, 10.71 -2.9, 0.66 0.17" fill="none" stroke="#1e1e1e" stroke-width="2"></path></g><g transform="translate(156.9605616707031 473.8488959182523) rotate(0 56.38036740573851 -0.5551085060830019)"><path d="M29.03 9.93 C20.06 5.5, 9.46 3.33, 0.66 0.17 M29.03 9.93 C19.2 6.5, 10.95 3.95, 0.66 0.17" fill="none" stroke="#1e1e1e" stroke-width="2"></path></g><g transform="translate(156.9605616707031 473.8488959182523) rotate(0 56.38036740573851 -0.5551085060830019)"><path d="M86.06 9.86 C95.65 4.92, 103.6 2.56, 114.21 -0.5 M86.06 9.86 C95.05 6.53, 105.62 3.79, 114.21 -0.5" fill="none" stroke="#1e1e1e" stroke-width="2"></path></g><g transform="translate(156.9605616707031 473.8488959182523) rotate(0 56.38036740573851 -0.5551085060830019)"><path d="M85.98 -10.66 C95.45 -8.86, 103.42 -4.49, 114.21 -0.5 M85.98 -10.66 C94.89 -7.15, 105.48 -3.07, 114.21 -0.5" fill="none" stroke="#1e1e1e" stroke-width="2"></path></g></g><mask></mask><g stroke-linecap="round" transform="translate(680.0516580664366 405.95149460219363) rotate(0 133.45758189228422 69.29831816266892)"><path d="M32 0 C103.14 0.95, 176.69 0.25, 234.92 0 M32 0 C82.64 0.65, 132.56 0.58, 234.92 0 M234.92 0 C254.9 0.81, 268.32 12.6, 266.92 32 M234.92 0 C256.7 1.63, 267.95 11.04, 266.92 32 M266.92 32 C267.45 57.36, 264.54 83.46, 266.92 106.6 M266.92 32 C268.3 58.66, 267.78 84.31, 266.92 106.6 M266.92 106.6 C265.64 126.93, 257.84 138.57, 234.92 138.6 M266.92 106.6 C266.09 127.69, 257.82 137.58, 234.92 138.6 M234.92 138.6 C165.75 139.71, 98.09 136.54, 32 138.6 M234.92 138.6 C176.05 138.03, 118.92 137.52, 32 138.6 M32 138.6 C11.97 140.04, 0.19 129.84, 0 106.6 M32 138.6 C12.41 139.36, -1.51 127.25, 0 106.6 M0 106.6 C0.69 81.85, -2.4 54.93, 0 32 M0 106.6 C1.06 89.04, 0.83 72.82, 0 32 M0 32 C1.01 10.63, 11.61 1.14, 32 0 M0 32 C1.27 11.59, 11.05 1.32, 32 0" fill="none" stroke="#1e1e1e" stroke-width="2"></path></g><g transform="translate(757.6986930837209 462.74981276486255) rotate(0 55.810546875 12.5)"><text direction="ltr" dominant-baseline="text-before-edge" fill="#1e1e1e" font-family="Virgil, Segoe UI Emoji" font-size="20px" style="white-space: pre;" text-anchor="middle" x="55.810546875" y="0">Event Service</text></g><g stroke-linecap="round"><g transform="translate(470.0909273878158 483.7129862216225) rotate(0 98.12245388739251 1.71820194628026)"><path d="M-0.67 -0.65 C31.98 -0.14, 162.75 2.59, 195.72 3.4 M1.18 1.63 C33.65 2.3, 161.89 4.81, 194.5 4.92" fill="none" stroke="#1e1e1e" stroke-width="2"></path></g><g transform="translate(470.0909273878158 483.7129862216225) rotate(0 98.12245388739251 1.71820194628026)"><path d="M27.72 -10.34 C18.64 -8.62, 11.63 -3.5, -0.67 -0.65 M27.72 -10.34 C16.68 -6.21, 7.63 -2.08, -0.67 -0.65" fill="none" stroke="#1e1e1e" stroke-width="2"></path></g><g transform="translate(470.0909273878158 483.7129862216225) rotate(0 98.12245388739251 1.71820194628026)"><path d="M27.31 10.18 C18.28 6.09, 11.38 5.41, -0.67 -0.65 M27.31 10.18 C16.28 6.77, 7.38 3.36, -0.67 -0.65" fill="none" stroke="#1e1e1e" stroke-width="2"></path></g><g transform="translate(470.0909273878158 483.7129862216225) rotate(0 98.12245388739251 1.71820194628026)"><path d="M166.18 14.82 C173.09 11.31, 182.12 10.89, 194.5 4.92 M166.18 14.82 C175.84 11.43, 187.62 8.35, 194.5 4.92" fill="none" stroke="#1e1e1e" stroke-width="2"></path></g><g transform="translate(470.0909273878158 483.7129862216225) rotate(0 98.12245388739251 1.71820194628026)"><path d="M166.45 -5.7 C173.34 -3.4, 182.3 1.98, 194.5 4.92 M166.45 -5.7 C176.15 -1.55, 187.83 2.91, 194.5 4.92" fill="none" stroke="#1e1e1e" stroke-width="2"></path></g></g><mask></mask><g stroke-linecap="round" transform="translate(1122.855603619533 360.2552921459883) rotate(0 112.92030416412285 108.78506994587957)"><path d="M155.18 7 C167.79 10.02, 180.07 20.66, 190.1 29.71 C200.14 38.76, 209.38 49.58, 215.39 61.31 C221.4 73.05, 225.15 87.02, 226.15 100.11 C227.16 113.2, 225.48 127.45, 221.43 139.84 C217.38 152.23, 210.08 164.12, 201.85 174.43 C193.62 184.75, 183.73 194.77, 172.05 201.73 C160.37 208.69, 145.15 213.75, 131.77 216.2 C118.39 218.66, 104.97 218.9, 91.79 216.45 C78.6 214, 64.21 208.6, 52.65 201.5 C41.09 194.39, 30.63 184.54, 22.42 173.8 C14.21 163.06, 7.12 149.57, 3.4 137.04 C-0.33 124.51, -1.4 111.62, 0.07 98.63 C1.55 85.65, 6.02 70.81, 12.25 59.12 C18.48 47.42, 27.39 37.09, 37.45 28.46 C47.5 19.84, 60 12.16, 72.58 7.38 C85.15 2.6, 98.25 -0.83, 112.88 -0.2 C127.51 0.42, 151.55 8.72, 160.35 11.13 C169.15 13.54, 166.41 12.77, 165.68 14.25 M76.87 6.27 C88.82 0.58, 104.42 0.49, 117.86 1.15 C131.31 1.81, 145 5.16, 157.53 10.22 C170.06 15.29, 183.48 22.67, 193.02 31.51 C202.55 40.36, 209.14 51.26, 214.72 63.3 C220.3 75.34, 225.77 90.43, 226.5 103.74 C227.23 117.05, 223.19 131.13, 219.1 143.17 C215.01 155.21, 210.13 166.17, 201.95 175.99 C193.78 185.82, 182.18 195.65, 170.05 202.13 C157.93 208.61, 142.64 212.89, 129.21 214.87 C115.78 216.85, 102.51 216.6, 89.47 214 C76.43 211.41, 62.35 206.44, 50.97 199.31 C39.6 192.18, 29.06 181.82, 21.23 171.22 C13.4 160.62, 7.25 148.33, 4 135.72 C0.75 123.11, 0.09 108.54, 1.74 95.55 C3.4 82.56, 7.55 69.58, 13.92 57.77 C20.28 45.96, 29.76 33.08, 39.94 24.68 C50.11 16.28, 68.93 10.35, 74.97 7.39 C81.01 4.43, 75.41 5.41, 76.16 6.94" fill="none" stroke="#1e1e1e" stroke-width="2"></path></g><g transform="translate(1180.377437163057 444.11770144128354) rotate(0 55.5517578125 25)"><text direction="ltr" dominant-baseline="text-before-edge" fill="#1e1e1e" font-family="Virgil, Segoe UI Emoji" font-size="20px" style="white-space: pre;" text-anchor="middle" x="55.5517578125" y="0">Database</text><text direction="ltr" dominant-baseline="text-before-edge" fill="#1e1e1e" font-family="Virgil, Segoe UI Emoji" font-size="20px" style="white-space: pre;" text-anchor="middle" x="55.5517578125" y="25">(PostgreSQL)</text></g><g stroke-linecap="round"><g transform="translate(955.7234170581862 473.76100939328353) rotate(0 75.14656532720915 0.29807728076474405)"><path d="M0.85 0.71 C25.62 0.75, 124.44 0.91, 149.48 1.08 M-0.16 0.03 C24.91 -0.36, 126.61 -0.78, 151.77 -0.78" fill="none" stroke="#1e1e1e" stroke-width="2"></path></g><g transform="translate(955.7234170581862 473.76100939328353) rotate(0 75.14656532720915 0.29807728076474405)"><path d="M29.07 -9.5 C19.71 -6.82, 8.76 -0.23, 0.85 0.71 M29.07 -9.5 C18.35 -5.09, 7.11 -1.81, 0.85 0.71" fill="none" stroke="#1e1e1e" stroke-width="2"></path></g><g transform="translate(955.7234170581862 473.76100939328353) rotate(0 75.14656532720915 0.29807728076474405)"><path d="M29.02 11.02 C19.55 6, 8.61 4.87, 0.85 0.71 M29.02 11.02 C18.28 7.29, 7.07 2.43, 0.85 0.71" fill="none" stroke="#1e1e1e" stroke-width="2"></path></g><g transform="translate(955.7234170581862 473.76100939328353) rotate(0 75.14656532720915 0.29807728076474405)"><path d="M123.6 9.55 C135.29 4.12, 145.51 2.99, 151.77 -0.78 M123.6 9.55 C135.2 5.42, 146.33 0.55, 151.77 -0.78" fill="none" stroke="#1e1e1e" stroke-width="2"></path></g><g transform="translate(955.7234170581862 473.76100939328353) rotate(0 75.14656532720915 0.29807728076474405)"><path d="M123.55 -10.97 C135.39 -8.69, 145.63 -2.12, 151.77 -0.78 M123.55 -10.97 C135.21 -6.97, 146.36 -3.69, 151.77 -0.78" fill="none" stroke="#1e1e1e" stroke-width="2"></path></g></g><mask></mask><g transform="translate(1377.222077890124 325.346114519436) rotate(0 65.74993133544922 100)"><text direction="ltr" dominant-baseline="text-before-edge" fill="#1e1e1e" font-family="Virgil, Segoe UI Emoji" font-size="20px" style="white-space: pre;" text-anchor="start" x="0" y="0">Event</text><text direction="ltr" dominant-baseline="text-before-edge" fill="#1e1e1e" font-family="Virgil, Segoe UI Emoji" font-size="20px" style="white-space: pre;" text-anchor="start" x="0" y="25">- id</text><text direction="ltr" dominant-baseline="text-before-edge" fill="#1e1e1e" font-family="Virgil, Segoe UI Emoji" font-size="20px" style="white-space: pre;" text-anchor="start" x="0" y="50">- venueId</text><text direction="ltr" dominant-baseline="text-before-edge" fill="#1e1e1e" font-family="Virgil, Segoe UI Emoji" font-size="20px" style="white-space: pre;" text-anchor="start" x="0" y="75">- performerId</text><text direction="ltr" dominant-baseline="text-before-edge" fill="#1e1e1e" font-family="Virgil, Segoe UI Emoji" font-size="20px" style="white-space: pre;" text-anchor="start" x="0" y="100">- tickets[]</text><text direction="ltr" dominant-baseline="text-before-edge" fill="#1e1e1e" font-family="Virgil, Segoe UI Emoji" font-size="20px" style="white-space: pre;" text-anchor="start" x="0" y="125">- name</text><text direction="ltr" dominant-baseline="text-before-edge" fill="#1e1e1e" font-family="Virgil, Segoe UI Emoji" font-size="20px" style="white-space: pre;" text-anchor="start" x="0" y="150">- description</text><text direction="ltr" dominant-baseline="text-before-edge" fill="#1e1e1e" font-family="Virgil, Segoe UI Emoji" font-size="20px" style="white-space: pre;" text-anchor="start" x="0" y="175">- ....</text></g><g transform="translate(1547.4297951596418 323.52597858607805) rotate(0 51.58995819091797 62.5)"><text direction="ltr" dominant-baseline="text-before-edge" fill="#1e1e1e" font-family="Virgil, Segoe UI Emoji" font-size="20px" style="white-space: pre;" text-anchor="start" x="0" y="0">Venue</text><text direction="ltr" dominant-baseline="text-before-edge" fill="#1e1e1e" font-family="Virgil, Segoe UI Emoji" font-size="20px" style="white-space: pre;" text-anchor="start" x="0" y="25">- id</text><text direction="ltr" dominant-baseline="text-before-edge" fill="#1e1e1e" font-family="Virgil, Segoe UI Emoji" font-size="20px" style="white-space: pre;" text-anchor="start" x="0" y="50">- location</text><text direction="ltr" dominant-baseline="text-before-edge" fill="#1e1e1e" font-family="Virgil, Segoe UI Emoji" font-size="20px" style="white-space: pre;" text-anchor="start" x="0" y="75">- seatMap</text><text direction="ltr" dominant-baseline="text-before-edge" fill="#1e1e1e" font-family="Virgil, Segoe UI Emoji" font-size="20px" style="white-space: pre;" text-anchor="start" x="0" y="100">- ...</text></g><g transform="translate(1694.4554209465027 328.944508991548) rotate(0 47.17994689941406 37.5)"><text direction="ltr" dominant-baseline="text-before-edge" fill="#1e1e1e" font-family="Virgil, Segoe UI Emoji" font-size="20px" style="white-space: pre;" text-anchor="start" x="0" y="0">Performer</text><text direction="ltr" dominant-baseline="text-before-edge" fill="#1e1e1e" font-family="Virgil, Segoe UI Emoji" font-size="20px" style="white-space: pre;" text-anchor="start" x="0" y="25">- id</text><text direction="ltr" dominant-baseline="text-before-edge" fill="#1e1e1e" font-family="Virgil, Segoe UI Emoji" font-size="20px" style="white-space: pre;" text-anchor="start" x="0" y="50">...</text></g><g transform="translate(500.43034150415417 439.5683479413692) rotate(0 64.13993835449219 12.5)"><text direction="ltr" dominant-baseline="text-before-edge" fill="#1e1e1e" font-family="Virgil, Segoe UI Emoji" font-size="20px" style="white-space: pre;" text-anchor="start" x="0" y="0">view(eventId)</text></g><g stroke-linecap="round" transform="translate(673.7122488405965 158.48025562352996) rotate(0 133.45758189228422 69.29831816266892)"><path d="M32 0 C100.89 -1.88, 172.84 -0.78, 234.92 0 M32 0 C74.15 -1.01, 115.31 -0.84, 234.92 0 M234.92 0 C256.63 -1.32, 265.64 9.67, 266.92 32 M234.92 0 C258.08 -0.03, 266.09 10.43, 266.92 32 M266.92 32 C264.61 59.08, 265.51 88.63, 266.92 106.6 M266.92 32 C266.05 51.95, 265.59 73.96, 266.92 106.6 M266.92 106.6 C268.27 128.25, 257.55 140.04, 234.92 138.6 M266.92 106.6 C267.14 130.13, 257.99 139.36, 234.92 138.6 M234.92 138.6 C188.79 138.09, 140.98 141.25, 32 138.6 M234.92 138.6 C192.12 136.38, 150.68 136.7, 32 138.6 M32 138.6 C11.78 138.74, 1.01 127.89, 0 106.6 M32 138.6 C11.75 139.91, 1.27 128.86, 0 106.6 M0 106.6 C-2.01 81.8, 1.39 58.8, 0 32 M0 106.6 C0.62 90.51, 0.58 72.96, 0 32 M0 32 C-1.38 9.89, 10.48 1.31, 32 0 M0 32 C2.22 10.59, 10.06 2.08, 32 0" fill="none" stroke="#1e1e1e" stroke-width="2"></path></g><g transform="translate(747.4774479203808 215.27857378619888) rotate(0 59.6923828125 12.5)"><text direction="ltr" dominant-baseline="text-before-edge" fill="#1e1e1e" font-family="Virgil, Segoe UI Emoji" font-size="20px" style="white-space: pre;" text-anchor="middle" x="59.6923828125" y="0">Search Service</text></g><g stroke-linecap="round"><g transform="translate(471.95087765606047 417.33960048614426) rotate(0 90.93538370750377 -87.87295048122769)"><path d="M-0.03 -1.16 C30.47 -30.44, 151.76 -145.98, 182.26 -175.09 M-1.5 0.85 C28.94 -28.83, 150.8 -147.64, 181.51 -176.86" fill="none" stroke="#1e1e1e" stroke-width="2"></path></g><g transform="translate(471.95087765606047 417.33960048614426) rotate(0 90.93538370750377 -87.87295048122769)"><path d="M13.28 -28.04 C8.35 -21.06, 8.23 -13.54, -0.03 -1.16 M13.28 -28.04 C9.69 -20.65, 4.89 -12.47, -0.03 -1.16" fill="none" stroke="#1e1e1e" stroke-width="2"></path></g><g transform="translate(471.95087765606047 417.33960048614426) rotate(0 90.93538370750377 -87.87295048122769)"><path d="M27.45 -13.2 C19.1 -9.72, 15.64 -5.71, -0.03 -1.16 M27.45 -13.2 C19.52 -10.21, 10.5 -6.46, -0.03 -1.16" fill="none" stroke="#1e1e1e" stroke-width="2"></path></g><g transform="translate(471.95087765606047 417.33960048614426) rotate(0 90.93538370750377 -87.87295048122769)"><path d="M168.35 -149.9 C169.4 -155.62, 175.53 -160.81, 181.51 -176.86 M168.35 -149.9 C172.28 -158.63, 175.38 -166.51, 181.51 -176.86" fill="none" stroke="#1e1e1e" stroke-width="2"></path></g><g transform="translate(471.95087765606047 417.33960048614426) rotate(0 90.93538370750377 -87.87295048122769)"><path d="M154.1 -164.67 C158.58 -166.9, 168.08 -168.6, 181.51 -176.86 M154.1 -164.67 C162.38 -169.02, 169.74 -172.49, 181.51 -176.86" fill="none" stroke="#1e1e1e" stroke-width="2"></path></g></g><mask></mask><g transform="translate(164.10218856898575 86.86653226167618) rotate(0 468.1796569824219 12.5)"><text direction="ltr" dominant-baseline="text-before-edge" fill="#1e1e1e" font-family="Virgil, Segoe UI Emoji" font-size="20px" style="white-space: pre;" text-anchor="start" x="0" y="0">GET /search?term={term}&amp;location={location}&amp;type={type}&amp;date={date} -&gt; Partial&lt;Event&gt;[]</text></g><g stroke-linecap="round"><g transform="translate(953.5581413863454 232.5524685955752) rotate(0 94.64702248989141 70.92741489771151)"><path d="M1.09 -0.02 C32.71 23.55, 158.73 118.56, 190.14 142.07 M0.2 -1.08 C31.71 22.05, 158.19 116.22, 189.64 140.06" fill="none" stroke="#1e1e1e" stroke-width="2"></path></g><g transform="translate(953.5581413863454 232.5524685955752) rotate(0 94.64702248989141 70.92741489771151)"><path d="M29.79 8.72 C20.17 7.48, 11.03 3.55, 1.09 -0.02 M29.79 8.72 C23.92 6.51, 16.04 4.38, 1.09 -0.02" fill="none" stroke="#1e1e1e" stroke-width="2"></path></g><g transform="translate(953.5581413863454 232.5524685955752) rotate(0 94.64702248989141 70.92741489771151)"><path d="M17.46 25.12 C11.85 18.33, 6.8 8.95, 1.09 -0.02 M17.46 25.12 C14.58 19.14, 9.59 13.16, 1.09 -0.02" fill="none" stroke="#1e1e1e" stroke-width="2"></path></g><g transform="translate(953.5581413863454 232.5524685955752) rotate(0 94.64702248989141 70.92741489771151)"><path d="M160.93 131.35 C170.48 135.4, 180.41 137.26, 189.64 140.06 M160.93 131.35 C168.39 133.52, 173.96 135.47, 189.64 140.06" fill="none" stroke="#1e1e1e" stroke-width="2"></path></g><g transform="translate(953.5581413863454 232.5524685955752) rotate(0 94.64702248989141 70.92741489771151)"><path d="M173.24 114.94 C178.79 124.54, 184.63 131.86, 189.64 140.06 M173.24 114.94 C177.72 120.89, 180.4 126.68, 189.64 140.06" fill="none" stroke="#1e1e1e" stroke-width="2"></path></g></g><mask></mask><g stroke-linecap="round" transform="translate(714.340067992064 686.6002083185449) rotate(0 132.14561200083367 76.0151989733738)"><path d="M32 0 C110.57 -0.93, 187.31 -2.41, 232.29 0 M32 0 C81.77 -0.07, 132.79 -0.37, 232.29 0 M232.29 0 C254.35 -1.98, 263.88 9.59, 264.29 32 M232.29 0 C255.53 -0.54, 262.12 10.38, 264.29 32 M264.29 32 C265.15 58.39, 264.02 83.36, 264.29 120.03 M264.29 32 C265.13 65.09, 263.72 97.22, 264.29 120.03 M264.29 120.03 C265.41 142.94, 251.93 153.3, 232.29 152.03 M264.29 120.03 C266.38 139.28, 255.31 150.35, 232.29 152.03 M232.29 152.03 C178.36 154.46, 126.82 154.37, 32 152.03 M232.29 152.03 C173.1 153.42, 113.07 153.58, 32 152.03 M32 152.03 C10.81 150.45, -1.18 143.18, 0 120.03 M32 152.03 C10.01 150.27, -0.1 141.75, 0 120.03 M0 120.03 C-1.09 87.05, -1.28 56.64, 0 32 M0 120.03 C-1.11 88.74, -0.72 55.18, 0 32 M0 32 C-0.54 10.88, 10.38 -1.02, 32 0 M0 32 C1.3 12.23, 12.27 -1.72, 32 0" fill="none" stroke="#1e1e1e" stroke-width="2"></path></g><g transform="translate(779.5520862428978 750.1154072919187) rotate(0 66.93359375 12.5)"><text direction="ltr" dominant-baseline="text-before-edge" fill="#1e1e1e" font-family="Virgil, Segoe UI Emoji" font-size="20px" style="white-space: pre;" text-anchor="middle" x="66.93359375" y="0">Booking Service</text></g><g stroke-linecap="round"><g transform="translate(995.9959937233451 744.2838320502997) rotate(0 93.13683258314887 -81.43537361839753)"><path d="M-0.76 -0.6 C30.4 -27.62, 156.13 -135.82, 187.23 -162.89 M1.04 1.7 C32.11 -25.04, 156.15 -134.12, 186.78 -161.36" fill="none" stroke="#1e1e1e" stroke-width="2"></path></g><g transform="translate(995.9959937233451 744.2838320502997) rotate(0 93.13683258314887 -81.43537361839753)"><path d="M172.45 -135.01 C176.19 -141.73, 181.74 -152.44, 186.78 -161.36 M172.45 -135.01 C176.78 -143.56, 180.36 -150.74, 186.78 -161.36" fill="none" stroke="#1e1e1e" stroke-width="2"></path></g><g transform="translate(995.9959937233451 744.2838320502997) rotate(0 93.13683258314887 -81.43537361839753)"><path d="M158.86 -150.39 C166.84 -152.12, 176.72 -157.92, 186.78 -161.36 M158.86 -150.39 C167.23 -154.43, 174.75 -157.15, 186.78 -161.36" fill="none" stroke="#1e1e1e" stroke-width="2"></path></g></g><mask></mask><g stroke-linecap="round" transform="translate(718.092989650223 937.3237602562622) rotate(0 132.68811403083762 43.62736410518937)"><path d="M21.81 0 C74.23 -2.14, 126.51 -0.34, 243.56 0 M21.81 0 C78.37 1.43, 136 1.69, 243.56 0 M243.56 0 C256.22 -0.25, 265.06 5.93, 265.38 21.81 M243.56 0 C256.67 1.67, 266.94 7.64, 265.38 21.81 M265.38 21.81 C267.6 39.25, 266.35 52.34, 265.38 65.44 M265.38 21.81 C264.77 34.24, 266.53 44.49, 265.38 65.44 M265.38 65.44 C266.84 78.52, 257.38 85.28, 243.56 87.25 M265.38 65.44 C267.2 78.53, 259.38 87.42, 243.56 87.25 M243.56 87.25 C166.77 89.11, 88.7 88.44, 21.81 87.25 M243.56 87.25 C163.76 86.53, 84.73 85.08, 21.81 87.25 M21.81 87.25 C7.19 87.59, 1.18 81.14, 0 65.44 M21.81 87.25 C8.54 86.58, -1.59 79.09, 0 65.44 M0 65.44 C-0.35 52.23, 1.52 40.33, 0 21.81 M0 65.44 C-0.03 53.86, 0.68 43.99, 0 21.81 M0 21.81 C1.39 5.78, 9.07 1.64, 21.81 0 M0 21.81 C-0.75 6.17, 8.15 -1.2, 21.81 0" fill="none" stroke="#1e1e1e" stroke-width="2"></path></g><g transform="translate(826.8943849310606 968.4511243614515) rotate(0 23.88671875 12.5)"><text direction="ltr" dominant-baseline="text-before-edge" fill="#1e1e1e" font-family="Virgil, Segoe UI Emoji" font-size="20px" style="white-space: pre;" text-anchor="middle" x="23.88671875" y="0">Stripe</text></g><g stroke-linecap="round"><g transform="translate(798.5416175919074 926.7241052084919) rotate(0 0.3978480995967857 -39.166549586309884)"><path d="M0.82 -0.53 C1.1 -13.76, 1.27 -66.44, 1.23 -79.52 M-0.21 1.81 C-0.01 -11.31, 0.53 -65.3, 0.51 -78.6" fill="none" stroke="#1e1e1e" stroke-width="2"></path></g><g transform="translate(798.5416175919074 926.7241052084919) rotate(0 0.3978480995967857 -39.166549586309884)"><path d="M-9.25 -28.79 C-7.5 -20.67, -5.93 -14.33, 0.82 -0.53 M-9.25 -28.79 C-7.48 -21.93, -4.21 -15.51, 0.82 -0.53" fill="none" stroke="#1e1e1e" stroke-width="2"></path></g><g transform="translate(798.5416175919074 926.7241052084919) rotate(0 0.3978480995967857 -39.166549586309884)"><path d="M11.27 -28.65 C7.6 -20.43, 3.74 -14.13, 0.82 -0.53 M11.27 -28.65 C7.99 -21.88, 6.2 -15.49, 0.82 -0.53" fill="none" stroke="#1e1e1e" stroke-width="2"></path></g></g><mask></mask><g stroke-linecap="round"><g transform="translate(898.4760993981602 931.694722098784) rotate(0 -0.0872052329041253 -42.49575007812837)"><path d="M0.43 -1.19 C0.23 -15.37, -0.48 -71.62, -0.42 -85.64 M-0.8 0.81 C-1.26 -13.18, -1.73 -70.28, -1.5 -84.44" fill="none" stroke="#1e1e1e" stroke-width="2"></path></g><g transform="translate(898.4760993981602 931.694722098784) rotate(0 -0.0872052329041253 -42.49575007812837)"><path d="M8.72 -56.23 C3.1 -66.99, 0.24 -75.32, -1.5 -84.44 M8.72 -56.23 C6 -64.71, 2.71 -71.11, -1.5 -84.44" fill="none" stroke="#1e1e1e" stroke-width="2"></path></g><g transform="translate(898.4760993981602 931.694722098784) rotate(0 -0.0872052329041253 -42.49575007812837)"><path d="M-11.8 -56.26 C-9.86 -67.09, -5.16 -75.4, -1.5 -84.44 M-11.8 -56.26 C-8.85 -64.71, -6.46 -71.1, -1.5 -84.44" fill="none" stroke="#1e1e1e" stroke-width="2"></path></g></g><mask></mask><g stroke-linecap="round"><g transform="translate(472.792096794106 601.4363444116916) rotate(0 114.83571058151716 76.17224648972388)"><path d="M-0.25 -0.64 C38.13 24.9, 192.54 126.59, 230.67 152.06 M1.83 1.63 C40.09 27.46, 192.07 128.15, 230.24 153.45" fill="none" stroke="#1e1e1e" stroke-width="2"></path></g><g transform="translate(472.792096794106 601.4363444116916) rotate(0 114.83571058151716 76.17224648972388)"><path d="M28.93 6.34 C18.12 5.59, 8.92 -0.3, -0.25 -0.64 M28.93 6.34 C19.93 4.86, 12.85 2.29, -0.25 -0.64" fill="none" stroke="#1e1e1e" stroke-width="2"></path></g><g transform="translate(472.792096794106 601.4363444116916) rotate(0 114.83571058151716 76.17224648972388)"><path d="M17.62 23.46 C10.78 16.98, 5.38 5.33, -0.25 -0.64 M17.62 23.46 C11.9 17.14, 8.07 9.65, -0.25 -0.64" fill="none" stroke="#1e1e1e" stroke-width="2"></path></g><g transform="translate(472.792096794106 601.4363444116916) rotate(0 114.83571058151716 76.17224648972388)"><path d="M201.08 146.43 C209.74 150.51, 220.14 149.32, 230.24 153.45 M201.08 146.43 C208.82 149.36, 218.5 150.82, 230.24 153.45" fill="none" stroke="#1e1e1e" stroke-width="2"></path></g><g transform="translate(472.792096794106 601.4363444116916) rotate(0 114.83571058151716 76.17224648972388)"><path d="M212.42 129.32 C217.1 139.13, 223.69 143.69, 230.24 153.45 M212.42 129.32 C216.88 137.1, 223.3 143.46, 230.24 153.45" fill="none" stroke="#1e1e1e" stroke-width="2"></path></g></g><mask></mask><g transform="translate(1373.076281767333 565.799043980538) rotate(0 134.03988647460938 87.5)"><text direction="ltr" dominant-baseline="text-before-edge" fill="#1e1e1e" font-family="Virgil, Segoe UI Emoji" font-size="20px" style="white-space: pre;" text-anchor="start" x="0" y="0">Ticket</text><text direction="ltr" dominant-baseline="text-before-edge" fill="#1e1e1e" font-family="Virgil, Segoe UI Emoji" font-size="20px" style="white-space: pre;" text-anchor="start" x="0" y="25">- id</text><text direction="ltr" dominant-baseline="text-before-edge" fill="#1e1e1e" font-family="Virgil, Segoe UI Emoji" font-size="20px" style="white-space: pre;" text-anchor="start" x="0" y="50">- eventId</text><text direction="ltr" dominant-baseline="text-before-edge" fill="#1e1e1e" font-family="Virgil, Segoe UI Emoji" font-size="20px" style="white-space: pre;" text-anchor="start" x="0" y="75">- seat</text><text direction="ltr" dominant-baseline="text-before-edge" fill="#1e1e1e" font-family="Virgil, Segoe UI Emoji" font-size="20px" style="white-space: pre;" text-anchor="start" x="0" y="100">- price</text><text direction="ltr" dominant-baseline="text-before-edge" fill="#1e1e1e" font-family="Virgil, Segoe UI Emoji" font-size="20px" style="white-space: pre;" text-anchor="start" x="0" y="125">- status: available, booked</text><text direction="ltr" dominant-baseline="text-before-edge" fill="#1e1e1e" font-family="Virgil, Segoe UI Emoji" font-size="20px" style="white-space: pre;" text-anchor="start" x="0" y="150">- userId</text></g><g transform="translate(1673.258122387519 566.9305892454377) rotate(0 43.38995361328125 50)"><text direction="ltr" dominant-baseline="text-before-edge" fill="#1e1e1e" font-family="Virgil, Segoe UI Emoji" font-size="20px" style="white-space: pre;" text-anchor="start" x="0" y="0">Booking</text><text direction="ltr" dominant-baseline="text-before-edge" fill="#1e1e1e" font-family="Virgil, Segoe UI Emoji" font-size="20px" style="white-space: pre;" text-anchor="start" x="0" y="25">- id</text><text direction="ltr" dominant-baseline="text-before-edge" fill="#1e1e1e" font-family="Virgil, Segoe UI Emoji" font-size="20px" style="white-space: pre;" text-anchor="start" x="0" y="50">- userId</text><text direction="ltr" dominant-baseline="text-before-edge" fill="#1e1e1e" font-family="Virgil, Segoe UI Emoji" font-size="20px" style="white-space: pre;" text-anchor="start" x="0" y="75">- tickets</text></g><g transform="translate(548.7767418033012 604.5940507359792) rotate(0 201.83981323242188 25)"><text direction="ltr" dominant-baseline="text-before-edge" fill="#1e1e1e" font-family="Virgil, Segoe UI Emoji" font-size="20px" style="white-space: pre;" text-anchor="start" x="0" y="0">reserve(ticketId, userId)</text><text direction="ltr" dominant-baseline="text-before-edge" fill="#1e1e1e" font-family="Virgil, Segoe UI Emoji" font-size="20px" style="white-space: pre;" text-anchor="start" x="0" y="25">confirm(ticketId, userId, paymentDetails)</text></g><g stroke-linecap="round" transform="translate(1133.453691668826 703.5126552699348) rotate(0 62.59547628591781 59.93944973184932)"><path d="M84.13 3.51 C93.26 5.62, 102.88 13.23, 109.42 19.91 C115.95 26.58, 121 34.65, 123.33 43.57 C125.67 52.5, 125.43 64.44, 123.41 73.47 C121.39 82.51, 117.3 90.62, 111.2 97.77 C105.1 104.92, 96.06 112.62, 86.8 116.38 C77.53 120.14, 65.49 121.44, 55.61 120.33 C45.73 119.21, 35.65 114.78, 27.53 109.69 C19.41 104.61, 11.57 97.79, 6.88 89.83 C2.19 81.86, -0.56 71.23, -0.61 61.9 C-0.66 52.57, 2.17 42.18, 6.57 33.85 C10.98 25.51, 17.88 17.34, 25.82 11.89 C33.75 6.45, 43.44 2.14, 54.16 1.17 C64.89 0.21, 83.25 4.6, 90.18 6.11 C97.11 7.62, 96.37 9.45, 95.72 10.22 M90.03 6.34 C98.93 9.76, 108.08 18, 113.96 25.37 C119.84 32.74, 124.2 41.64, 125.32 50.58 C126.44 59.52, 124.04 70, 120.7 79.01 C117.36 88.02, 111.94 98.2, 105.28 104.64 C98.62 111.08, 90.14 115.11, 80.75 117.65 C71.36 120.19, 58.64 121.95, 48.96 119.88 C39.27 117.81, 30.07 111.38, 22.63 105.22 C15.19 99.07, 8.08 91.54, 4.32 82.94 C0.56 74.34, -1.05 62.75, 0.05 53.65 C1.15 44.55, 5.45 36.18, 10.93 28.33 C16.42 20.48, 24.44 11.07, 32.98 6.56 C41.52 2.05, 52.72 1.45, 62.16 1.26 C71.6 1.06, 84.94 4.52, 89.6 5.38 C94.26 6.23, 90.67 5.55, 90.12 6.39" fill="none" stroke="#1e1e1e" stroke-width="2"></path></g><g transform="translate(1166.8490056388696 726.0685136358034) rotate(0 29.4384765625 37.5)"><text direction="ltr" dominant-baseline="text-before-edge" fill="#1e1e1e" font-family="Virgil, Segoe UI Emoji" font-size="20px" style="white-space: pre;" text-anchor="middle" x="29.4384765625" y="0">Ticket </text><text direction="ltr" dominant-baseline="text-before-edge" fill="#1e1e1e" font-family="Virgil, Segoe UI Emoji" font-size="20px" style="white-space: pre;" text-anchor="middle" x="29.4384765625" y="25">Lock</text><text direction="ltr" dominant-baseline="text-before-edge" fill="#1e1e1e" font-family="Virgil, Segoe UI Emoji" font-size="20px" style="white-space: pre;" text-anchor="middle" x="29.4384765625" y="50">(Redis)</text></g><g stroke-linecap="round"><g transform="translate(1000.1172065960683 770.9488252334122) rotate(0 57.51430583474911 0.7548427886058562)"><path d="M0.78 0.87 C19.83 1.28, 95.95 2.48, 115.14 2.66 M-0.27 0.27 C18.57 0.36, 94.94 1.22, 114.26 1.14" fill="none" stroke="#1e1e1e" stroke-width="2"></path></g><g transform="translate(1000.1172065960683 770.9488252334122) rotate(0 57.51430583474911 0.7548427886058562)"><path d="M29.14 -8.93 C20.17 -4.95, 10.21 -0.03, 0.78 0.87 M29.14 -8.93 C20.19 -4.96, 9.33 -1.85, 0.78 0.87" fill="none" stroke="#1e1e1e" stroke-width="2"></path></g><g transform="translate(1000.1172065960683 770.9488252334122) rotate(0 57.51430583474911 0.7548427886058562)"><path d="M28.8 11.59 C19.92 8.02, 10.08 5.4, 0.78 0.87 M28.8 11.59 C20.09 8.72, 9.35 5, 0.78 0.87" fill="none" stroke="#1e1e1e" stroke-width="2"></path></g><g transform="translate(1000.1172065960683 770.9488252334122) rotate(0 57.51430583474911 0.7548427886058562)"><path d="M86.02 11.27 C97.83 7.55, 108.69 5.15, 114.26 1.14 M86.02 11.27 C96.05 8.77, 104.05 5.24, 114.26 1.14" fill="none" stroke="#1e1e1e" stroke-width="2"></path></g><g transform="translate(1000.1172065960683 770.9488252334122) rotate(0 57.51430583474911 0.7548427886058562)"><path d="M86.11 -9.25 C97.92 -5.42, 108.74 -0.28, 114.26 1.14 M86.11 -9.25 C95.98 -4.92, 103.94 -1.61, 114.26 1.14" fill="none" stroke="#1e1e1e" stroke-width="2"></path></g></g><mask></mask><g transform="translate(1049.7607073460294 838.4890984391113) rotate(0 149.96989440917974 12.5)"><text direction="ltr" dominant-baseline="text-before-edge" fill="#1e1e1e" font-family="Virgil, Segoe UI Emoji" font-size="20px" style="white-space: pre;" text-anchor="start" x="0" y="0">{ticketId: userId} TTL 10 min</text></g><g stroke-linecap="round" transform="translate(974.9311850673867 333.595374315757) rotate(0 56.58724715460437 49.969668064270536)"><path d="M39.11 1.82 C47.49 -1.35, 59.22 -0.02, 68.19 1.86 C77.16 3.74, 86.06 7.82, 92.93 13.09 C99.81 18.36, 106.39 25.59, 109.42 33.48 C112.45 41.37, 112.92 52.12, 111.11 60.44 C109.3 68.77, 104.58 77.2, 98.55 83.42 C92.52 89.64, 83.74 95.1, 74.92 97.77 C66.09 100.45, 54.77 101.07, 45.6 99.46 C36.43 97.86, 26.93 93.67, 19.91 88.13 C12.88 82.6, 6.47 74.22, 3.43 66.26 C0.39 58.3, 0.02 48.66, 1.65 40.36 C3.28 32.06, 5.38 23.15, 13.2 16.48 C21.02 9.81, 41.36 2.92, 48.58 0.34 C55.79 -2.25, 56.46 -0.01, 56.49 0.96 M71.75 1.51 C80.41 3.32, 90.7 10.5, 97.59 16.64 C104.47 22.79, 110.95 30.2, 113.09 38.37 C115.23 46.53, 113.32 57.76, 110.41 65.63 C107.5 73.5, 102.49 80.08, 95.63 85.6 C88.78 91.12, 78.51 96.83, 69.26 98.74 C60.02 100.66, 49 99.32, 40.17 97.08 C31.34 94.84, 22.56 91.42, 16.3 85.3 C10.03 79.19, 4.67 68.47, 2.58 60.4 C0.48 52.33, 1.27 44.81, 3.72 36.9 C6.16 28.98, 10.51 18.98, 17.24 12.93 C23.97 6.87, 34.99 2.56, 44.08 0.57 C53.16 -1.42, 66.84 0.73, 71.73 0.98 C76.62 1.24, 73.37 0.94, 73.42 2.1" fill="none" stroke="#1e1e1e" stroke-width="2"></path></g><g transform="translate(1008.7268857177911 371.23115123814097) rotate(0 22.7783203125 12.5)"><text direction="ltr" dominant-baseline="text-before-edge" fill="#1e1e1e" font-family="Virgil, Segoe UI Emoji" font-size="20px" style="white-space: pre;" text-anchor="middle" x="22.7783203125" y="0">Redis</text></g><g stroke-linecap="round"><g transform="translate(969.1015672766069 377.3104260778873) rotate(0 -52.62610139680169 8.454302325060326)"><path d="M0.67 0.95 C-10.7 1.59, -51.56 1.03, -69.03 3.51 C-86.5 5.99, -98.27 13.73, -104.16 15.82 M-0.43 0.4 C-11.37 0.73, -49.53 -0.91, -66.85 1.79 C-84.17 4.48, -98.22 14.09, -104.35 16.57" fill="none" stroke="#1e1e1e" stroke-width="2"></path></g><g transform="translate(969.1015672766069 377.3104260778873) rotate(0 -52.62610139680169 8.454302325060326)"><path d="M-17.9 8.15 C-11.96 4.67, -7.91 6.49, 0.67 0.95 M-17.9 8.15 C-14.43 5.8, -9.39 4.64, 0.67 0.95" fill="none" stroke="#1e1e1e" stroke-width="2"></path></g><g transform="translate(969.1015672766069 377.3104260778873) rotate(0 -52.62610139680169 8.454302325060326)"><path d="M-18.19 -5.47 C-12.22 -5.77, -8.1 -0.76, 0.67 0.95 M-18.19 -5.47 C-14.55 -4.98, -9.46 -3.27, 0.67 0.95" fill="none" stroke="#1e1e1e" stroke-width="2"></path></g><g transform="translate(969.1015672766069 377.3104260778873) rotate(0 -52.62610139680169 8.454302325060326)"><path d="M-90.67 2.08 C-92.35 3.86, -95.86 10.76, -104.35 16.57 M-90.67 2.08 C-93.79 4.03, -95.5 7.42, -104.35 16.57" fill="none" stroke="#1e1e1e" stroke-width="2"></path></g><g transform="translate(969.1015672766069 377.3104260778873) rotate(0 -52.62610139680169 8.454302325060326)"><path d="M-84.56 14.27 C-87.64 13.22, -92.57 17.27, -104.35 16.57 M-84.56 14.27 C-89.05 13.62, -92.04 14.46, -104.35 16.57" fill="none" stroke="#1e1e1e" stroke-width="2"></path></g></g><mask></mask><g transform="translate(843.4105770652836 337.62785782009996) rotate(0 59.87995910644531 12.5)"><text direction="ltr" dominant-baseline="text-before-edge" fill="#1e1e1e" font-family="Virgil, Segoe UI Emoji" font-size="20px" style="white-space: pre;" text-anchor="start" x="0" y="0">Event cache</text></g><g stroke-linecap="round" transform="translate(459.2770680490164 741.4546670959862) rotate(0 85.59164819917294 33.367475980854465)"><path d="M16.68 0 C44.51 0.21, 74.49 -1.98, 154.5 0 M16.68 0 C44.95 0.94, 72.6 0.85, 154.5 0 M154.5 0 C166.56 1.14, 172.28 6.37, 171.18 16.68 M154.5 0 C166 1.32, 171.35 3.74, 171.18 16.68 M171.18 16.68 C169.96 24.64, 171.82 33.95, 171.18 50.05 M171.18 16.68 C170.68 28.24, 171.27 41.24, 171.18 50.05 M171.18 50.05 C173.11 61.11, 165.09 68.54, 154.5 66.73 M171.18 50.05 C171.48 60.11, 165 66.98, 154.5 66.73 M154.5 66.73 C116.5 68.9, 74.28 69.31, 16.68 66.73 M154.5 66.73 C102.22 65.55, 48.47 65.34, 16.68 66.73 M16.68 66.73 C6.83 65.47, 1.14 62.55, 0 50.05 M16.68 66.73 C6.21 66.68, -0.07 61.88, 0 50.05 M0 50.05 C-0.46 38.56, -1.96 31.62, 0 16.68 M0 50.05 C-0.81 42.25, -0.35 34.19, 0 16.68 M0 16.68 C0.8 5.07, 4.97 -1.33, 16.68 0 M0 16.68 C-0.92 7.8, 4.84 0.69, 16.68 0" fill="none" stroke="#1e1e1e" stroke-width="2"></path></g><g transform="translate(483.77008343568934 749.8221430768407) rotate(0 61.0986328125 25)"><text direction="ltr" dominant-baseline="text-before-edge" fill="#1e1e1e" font-family="Virgil, Segoe UI Emoji" font-size="20px" style="white-space: pre;" text-anchor="middle" x="61.0986328125" y="0">virtual waiting </text><text direction="ltr" dominant-baseline="text-before-edge" fill="#1e1e1e" font-family="Virgil, Segoe UI Emoji" font-size="20px" style="white-space: pre;" text-anchor="middle" x="61.0986328125" y="25">queue</text></g><g stroke-linecap="round"><g transform="translate(639.553065281962 780.072617389962) rotate(0 30.41810512492907 -0.13031178960045509)"><path d="M-0.44 -1.19 C9.71 -1.21, 51.46 -1.19, 61.79 -1.02 M1.54 0.8 C11.53 1, 51.41 0.06, 61.34 0.12" fill="none" stroke="#1e1e1e" stroke-width="2"></path></g><g transform="translate(639.553065281962 780.072617389962) rotate(0 30.41810512492907 -0.13031178960045509)"><path d="M33.25 10.67 C41.83 8.42, 53.04 4.01, 61.34 0.12 M33.25 10.67 C42.29 8.01, 51 4.6, 61.34 0.12" fill="none" stroke="#1e1e1e" stroke-width="2"></path></g><g transform="translate(639.553065281962 780.072617389962) rotate(0 30.41810512492907 -0.13031178960045509)"><path d="M33.04 -9.85 C41.55 -4.44, 52.83 -1.19, 61.34 0.12 M33.04 -9.85 C42.25 -6.21, 51.02 -3.32, 61.34 0.12" fill="none" stroke="#1e1e1e" stroke-width="2"></path></g></g><mask></mask><g stroke-linecap="round"><g transform="translate(424.7060655642292 674.6035996580613) rotate(0 12.491219607064124 47.049994805847746)"><path d="M0.95 -0.76 C5.3 15.14, 21.54 78.38, 25.65 94.19 M-0.01 1.46 C4.27 17.67, 20.86 80.11, 25.05 95.77" fill="none" stroke="#1e1e1e" stroke-width="2"></path></g><g transform="translate(424.7060655642292 674.6035996580613) rotate(0 12.491219607064124 47.049994805847746)"><path d="M7.88 71.17 C10.9 78.63, 16.83 85.02, 25.05 95.77 M7.88 71.17 C13.66 78.8, 18.39 86.31, 25.05 95.77" fill="none" stroke="#1e1e1e" stroke-width="2"></path></g><g transform="translate(424.7060655642292 674.6035996580613) rotate(0 12.491219607064124 47.049994805847746)"><path d="M27.71 65.89 C25.45 74.9, 26.15 82.68, 25.05 95.77 M27.71 65.89 C27.61 75.21, 26.43 84.29, 25.05 95.77" fill="none" stroke="#1e1e1e" stroke-width="2"></path></g></g><mask></mask><g stroke-linecap="round" transform="translate(1162.0661149330012 10) rotate(0 102.01660310209377 90.50678962103291)"><path d="M128.2 3.45 C140.63 4.8, 153.48 11.55, 163.87 18.43 C174.26 25.3, 184.13 34.87, 190.53 44.7 C196.93 54.52, 200.4 66.01, 202.26 77.38 C204.12 88.75, 204.94 101.67, 201.68 112.94 C198.41 124.21, 190.65 135.62, 182.69 144.98 C174.72 154.34, 164.9 163.16, 153.9 169.11 C142.91 175.06, 129.69 179.3, 116.73 180.69 C103.76 182.08, 88.87 180.43, 76.12 177.43 C63.36 174.42, 50.41 169.34, 40.18 162.66 C29.95 155.98, 21.28 147.34, 14.74 137.36 C8.2 127.38, 2.71 114.35, 0.95 102.78 C-0.81 91.21, 0.98 79.09, 4.17 67.91 C7.37 56.74, 12.41 44.98, 20.12 35.72 C27.83 26.46, 39.19 18.06, 50.4 12.35 C61.61 6.64, 72.76 2.44, 87.37 1.44 C101.98 0.43, 128.44 4.6, 138.06 6.31 C147.69 8.02, 145.71 10.46, 145.14 11.71 M76.84 1.46 C88.55 -2.52, 105.44 -2.01, 118.62 0.12 C131.8 2.25, 144.88 8.07, 155.91 14.23 C166.94 20.38, 177.25 27.82, 184.78 37.05 C192.32 46.27, 198.11 58.2, 201.1 69.56 C204.08 80.93, 204.57 93.92, 202.69 105.22 C200.82 116.52, 196.82 127.85, 189.86 137.35 C182.89 146.86, 171.4 155.54, 160.9 162.23 C150.4 168.93, 139.44 174.72, 126.88 177.53 C114.32 180.34, 98.77 180.68, 85.53 179.1 C72.3 177.53, 58.6 173.91, 47.48 168.07 C36.37 162.23, 26.2 153.47, 18.86 144.05 C11.53 134.62, 6.51 122.94, 3.5 111.54 C0.48 100.14, -1.03 86.73, 0.76 75.63 C2.56 64.53, 7.51 54.54, 14.27 44.91 C21.03 35.29, 30.48 24.73, 41.33 17.9 C52.18 11.07, 72.96 6.24, 79.36 3.92 C85.77 1.61, 79.74 2.82, 79.75 4.03" fill="none" stroke="#1e1e1e" stroke-width="2"></path></g><g transform="translate(1211.197062750488 88.0088249365763) rotate(0 52.7490234375 12.5)"><text direction="ltr" dominant-baseline="text-before-edge" fill="#1e1e1e" font-family="Virgil, Segoe UI Emoji" font-size="20px" style="white-space: pre;" text-anchor="middle" x="52.7490234375" y="0">Elasticsearch</text></g><g stroke-linecap="round"><g transform="translate(958.1149560561017 200.04832416243516) rotate(0 100.54996068620676 -34.847141914719884)"><path d="M0.56 0.69 C34.09 -10.84, 168.31 -57.6, 201.76 -69.21 M-0.6 0 C32.77 -11.89, 167.62 -59.25, 201.16 -71.08" fill="none" stroke="#1e1e1e" stroke-width="2"></path></g><g transform="translate(958.1149560561017 200.04832416243516) rotate(0 100.54996068620676 -34.847141914719884)"><path d="M23.83 -18.25 C16.81 -10.4, 8.31 -4.53, 0.56 0.69 M23.83 -18.25 C14.93 -10.76, 6.92 -5.66, 0.56 0.69" fill="none" stroke="#1e1e1e" stroke-width="2"></path></g><g transform="translate(958.1149560561017 200.04832416243516) rotate(0 100.54996068620676 -34.847141914719884)"><path d="M30.56 1.13 C21.18 2.22, 10.33 1.29, 0.56 0.69 M30.56 1.13 C19.24 1.64, 8.82 -0.19, 0.56 0.69" fill="none" stroke="#1e1e1e" stroke-width="2"></path></g><g transform="translate(958.1149560561017 200.04832416243516) rotate(0 100.54996068620676 -34.847141914719884)"><path d="M177.97 -52.04 C187.25 -57.73, 195.05 -65.17, 201.16 -71.08 M177.97 -52.04 C185.66 -57.76, 194.25 -66.24, 201.16 -71.08" fill="none" stroke="#1e1e1e" stroke-width="2"></path></g><g transform="translate(958.1149560561017 200.04832416243516) rotate(0 100.54996068620676 -34.847141914719884)"><path d="M171.16 -71.4 C182.83 -70.33, 193.01 -70.99, 201.16 -71.08 M171.16 -71.4 C181.3 -70.14, 192.33 -71.7, 201.16 -71.08" fill="none" stroke="#1e1e1e" stroke-width="2"></path></g></g><mask></mask><g stroke-linecap="round"><g transform="translate(1269.2155674766732 351.8977835294536) rotate(0 13.664035190272784 -78.77627195810919)"><path d="M0.66 0.48 C5.15 -13.35, 24.59 -55.82, 27.53 -82.32 C30.46 -108.82, 19.96 -146.14, 18.28 -158.5 M-0.45 -0.31 C3.85 -14.55, 23.68 -57.85, 26.68 -84.08 C29.69 -110.31, 19.12 -145.29, 17.56 -157.68" fill="none" stroke="#1e1e1e" stroke-width="2"></path></g><g transform="translate(1269.2155674766732 351.8977835294536) rotate(0 13.664035190272784 -78.77627195810919)"><path d="M33.07 -132 C28.34 -140.49, 23.31 -149.59, 17.56 -157.68 M33.07 -132 C29.5 -138.3, 26.33 -143.04, 17.56 -157.68" fill="none" stroke="#1e1e1e" stroke-width="2"></path></g><g transform="translate(1269.2155674766732 351.8977835294536) rotate(0 13.664035190272784 -78.77627195810919)"><path d="M12.93 -128.04 C15.17 -138.02, 17.13 -148.49, 17.56 -157.68 M12.93 -128.04 C13.84 -135.4, 15.11 -141.01, 17.56 -157.68" fill="none" stroke="#1e1e1e" stroke-width="2"></path></g></g><mask></mask><g transform="translate(1237.7548040724187 251.01670598465353) rotate(0 20.67998504638672 12.5)"><text direction="ltr" dominant-baseline="text-before-edge" fill="#1e1e1e" font-family="Virgil, Segoe UI Emoji" font-size="20px" style="white-space: pre;" text-anchor="start" x="0" y="0">CDC</text></g><g transform="translate(1387.7626321752916 73.51498957127114) rotate(0 157.08987426757812 25)"><text direction="ltr" dominant-baseline="text-before-edge" fill="#1e1e1e" font-family="Virgil, Segoe UI Emoji" font-size="20px" style="white-space: pre;" text-anchor="start" x="0" y="0">- index on name, description, </text><text direction="ltr" dominant-baseline="text-before-edge" fill="#1e1e1e" font-family="Virgil, Segoe UI Emoji" font-size="20px" style="white-space: pre;" text-anchor="start" x="0" y="25">    venue, performer, date, etc.</text></g></svg>