<svg height="957.3824707271306" version="1.1" viewbox="0 0 1798.815314745331 957.3824707271306" width="1798.815314745331" xmlns="http://www.w3.org/2000/svg">
<!-- svg-source:excalidraw -->
<!-- payload-type:application/vnd.excalidraw+json --><!-- payload-version:2 -->
<defs>
<style class="style-fonts">
</style>
</defs>
<rect fill="#ffffff" height="957.3824707271306" width="1798.815314745331" x="0" y="0"></rect><g stroke-linecap="round" transform="translate(10 342.80869222417095) rotate(0 66.41791896430016 54.30053481342259)"><path d="M27.15 0 C57.65 -1.26, 86.64 1.43, 105.69 0 M27.15 0 C53.15 1.09, 79.31 0.37, 105.69 0 M105.69 0 C123.64 -1.63, 132.78 10.32, 132.84 27.15 M105.69 0 C123.56 -0.4, 132.9 10.15, 132.84 27.15 M132.84 27.15 C131.2 41.44, 132.22 56.21, 132.84 81.45 M132.84 27.15 C132.73 42.7, 132.03 60.9, 132.84 81.45 M132.84 81.45 C133.86 99.75, 123.64 108.79, 105.69 108.6 M132.84 81.45 C131.37 97.62, 125.05 110.05, 105.69 108.6 M105.69 108.6 C78.69 107.76, 48.66 108.51, 27.15 108.6 M105.69 108.6 C76.91 109.01, 47.38 108.42, 27.15 108.6 M27.15 108.6 C10.51 107.22, -1.08 99.08, 0 81.45 M27.15 108.6 C9.2 106.88, 1.19 101.59, 0 81.45 M0 81.45 C1.03 63.35, -0.48 41.64, 0 27.15 M0 81.45 C0.71 61.28, -0.15 40.17, 0 27.15 M0 27.15 C1.72 10.95, 10.06 1.83, 27.15 0 M0 27.15 C1.26 10.3, 9.04 2.17, 27.15 0" fill="none" stroke="#1e1e1e" stroke-width="2"></path></g><g transform="translate(51.974559589300156 384.60922703759354) rotate(0 24.443359375 12.5)"><text direction="ltr" dominant-baseline="text-before-edge" fill="#1e1e1e" font-family="Virgil, Segoe UI Emoji" font-size="20px" style="white-space: pre;" text-anchor="middle" x="24.443359375" y="0">Client</text></g><g stroke-linecap="round" transform="translate(273.2528845617528 193.82069936825428) rotate(0 91.13351565247496 195.92611917101357)"><path d="M32 0 C60.94 -1.25, 87.78 -1.85, 150.27 0 M32 0 C77.41 -0.97, 122.94 0.48, 150.27 0 M150.27 0 C171.41 -0.35, 182.33 11.62, 182.27 32 M150.27 0 C170.87 0.87, 183.47 8.55, 182.27 32 M182.27 32 C181.39 124.99, 180.48 219.98, 182.27 359.85 M182.27 32 C181.56 100.09, 181.16 168.12, 182.27 359.85 M182.27 359.85 C181 379.5, 172.7 393.11, 150.27 391.85 M182.27 359.85 C183.83 382.25, 170.94 394.03, 150.27 391.85 M150.27 391.85 C119.9 393.91, 85.4 393.19, 32 391.85 M150.27 391.85 C105.32 391.49, 58.37 391.94, 32 391.85 M32 391.85 C10.8 390.35, 1.03 382.96, 0 359.85 M32 391.85 C12.22 394.15, -0.89 383, 0 359.85 M0 359.85 C0.98 230.39, 1.27 102.81, 0 32 M0 359.85 C1.47 252.88, 1.23 145.23, 0 32 M0 32 C1.09 11.75, 10.66 1.89, 32 0 M0 32 C0.48 12.93, 11.08 2.24, 32 0" fill="none" stroke="#1e1e1e" stroke-width="2"></path></g><g transform="translate(301.91081427672776 339.74681853926785) rotate(0 62.4755859375 50)"><text direction="ltr" dominant-baseline="text-before-edge" fill="#1e1e1e" font-family="Virgil, Segoe UI Emoji" font-size="20px" style="white-space: pre;" text-anchor="middle" x="62.4755859375" y="0">API Gateway</text><text direction="ltr" dominant-baseline="text-before-edge" fill="#1e1e1e" font-family="Virgil, Segoe UI Emoji" font-size="20px" style="white-space: pre;" text-anchor="middle" x="62.4755859375" y="25">- authentication</text><text direction="ltr" dominant-baseline="text-before-edge" fill="#1e1e1e" font-family="Virgil, Segoe UI Emoji" font-size="20px" style="white-space: pre;" text-anchor="middle" x="62.4755859375" y="50">- rate limiting</text><text direction="ltr" dominant-baseline="text-before-edge" fill="#1e1e1e" font-family="Virgil, Segoe UI Emoji" font-size="20px" style="white-space: pre;" text-anchor="middle" x="62.4755859375" y="75">- routing</text></g><g stroke-linecap="round"><g transform="translate(156.9605616707031 396.9823636565725) rotate(0 56.38036740573851 -0.5551085060830019)"><path d="M-0.59 1.02 C18.08 0.92, 92.89 -0.43, 111.77 -0.95 M1.3 0.5 C20.35 0.66, 95.53 0.97, 113.96 0.67" fill="none" stroke="#1e1e1e" stroke-width="2"></path></g><g transform="translate(156.9605616707031 396.9823636565725) rotate(0 56.38036740573851 -0.5551085060830019)"><path d="M27.43 -9.69 C21.22 -8.48, 11.93 -3.96, -0.59 1.02 M27.43 -9.69 C21.21 -7.35, 15.22 -4.36, -0.59 1.02" fill="none" stroke="#1e1e1e" stroke-width="2"></path></g><g transform="translate(156.9605616707031 396.9823636565725) rotate(0 56.38036740573851 -0.5551085060830019)"><path d="M27.76 10.82 C21.52 6.28, 12.13 5.03, -0.59 1.02 M27.76 10.82 C21.48 8.69, 15.41 7.2, -0.59 1.02" fill="none" stroke="#1e1e1e" stroke-width="2"></path></g><g transform="translate(156.9605616707031 396.9823636565725) rotate(0 56.38036740573851 -0.5551085060830019)"><path d="M85.82 11.05 C95.44 6.62, 101.92 5.22, 113.96 0.67 M85.82 11.05 C91.87 8.43, 98.14 6.82, 113.96 0.67" fill="none" stroke="#1e1e1e" stroke-width="2"></path></g><g transform="translate(156.9605616707031 396.9823636565725) rotate(0 56.38036740573851 -0.5551085060830019)"><path d="M85.73 -9.47 C95.32 -8.13, 101.82 -3.78, 113.96 0.67 M85.73 -9.47 C91.79 -7.61, 98.08 -4.75, 113.96 0.67" fill="none" stroke="#1e1e1e" stroke-width="2"></path></g></g><mask></mask><g stroke-linecap="round" transform="translate(680.0516580664366 329.0849623405138) rotate(0 133.45758189228422 69.29831816266892)"><path d="M32 0 C83.11 1.37, 132.28 1.45, 234.92 0 M32 0 C105.8 0.74, 179.27 0.65, 234.92 0 M234.92 0 C257.29 -1.84, 266.64 9.84, 266.92 32 M234.92 0 C256.18 0.08, 265.5 9.23, 266.92 32 M266.92 32 C267.83 57.12, 266.42 80.05, 266.92 106.6 M266.92 32 C266.99 55.69, 267.12 78.6, 266.92 106.6 M266.92 106.6 C266.34 129.83, 255.64 139.35, 234.92 138.6 M266.92 106.6 C267.07 129.64, 258.52 137.27, 234.92 138.6 M234.92 138.6 C161.83 140.79, 86.53 138.52, 32 138.6 M234.92 138.6 C179.26 138.03, 123.28 138.13, 32 138.6 M32 138.6 C9.9 140.17, 1.86 127.99, 0 106.6 M32 138.6 C10.78 140.36, -1.03 130.18, 0 106.6 M0 106.6 C-0.96 82.43, 1.69 55.84, 0 32 M0 106.6 C-0.41 78.35, -0.2 49.21, 0 32 M0 32 C0.36 12.61, 10.39 0.72, 32 0 M0 32 C-1.17 9.31, 12.67 2.09, 32 0" fill="none" stroke="#1e1e1e" stroke-width="2"></path></g><g transform="translate(757.6986930837209 385.88328050318273) rotate(0 55.810546875 12.5)"><text direction="ltr" dominant-baseline="text-before-edge" fill="#1e1e1e" font-family="Virgil, Segoe UI Emoji" font-size="20px" style="white-space: pre;" text-anchor="middle" x="55.810546875" y="0">Event Service</text></g><g stroke-linecap="round"><g transform="translate(470.0909273878158 406.8464539599445) rotate(0 98.12245388739251 1.71820194628026)"><path d="M-0.03 0.76 C32.67 1.46, 163.41 2.69, 196.13 3.23 M-1.51 0.12 C31.03 1.09, 162.28 4.35, 195.12 4.66" fill="none" stroke="#1e1e1e" stroke-width="2"></path></g><g transform="translate(470.0909273878158 406.8464539599445) rotate(0 98.12245388739251 1.71820194628026)"><path d="M28.28 -9.14 C21.18 -6.44, 11.27 -3.29, -0.03 0.76 M28.28 -9.14 C18.93 -6.51, 8.43 -2.56, -0.03 0.76" fill="none" stroke="#1e1e1e" stroke-width="2"></path></g><g transform="translate(470.0909273878158 406.8464539599445) rotate(0 98.12245388739251 1.71820194628026)"><path d="M28.03 11.38 C21.17 8.07, 11.33 5.21, -0.03 0.76 M28.03 11.38 C18.83 6.87, 8.41 3.69, -0.03 0.76" fill="none" stroke="#1e1e1e" stroke-width="2"></path></g><g transform="translate(470.0909273878158 406.8464539599445) rotate(0 98.12245388739251 1.71820194628026)"><path d="M166.74 14.4 C176.4 11.36, 183.1 8.76, 195.12 4.66 M166.74 14.4 C177.16 9.99, 186.37 7.11, 195.12 4.66" fill="none" stroke="#1e1e1e" stroke-width="2"></path></g><g transform="translate(470.0909273878158 406.8464539599445) rotate(0 98.12245388739251 1.71820194628026)"><path d="M167.12 -6.12 C176.5 -3.15, 183.08 0.26, 195.12 4.66 M167.12 -6.12 C177.34 -3.4, 186.41 0.86, 195.12 4.66" fill="none" stroke="#1e1e1e" stroke-width="2"></path></g></g><mask></mask><g stroke-linecap="round" transform="translate(1122.855603619533 283.38875988430846) rotate(0 112.92030416412285 108.78506994587957)"><path d="M114.96 0.53 C127.67 -0.94, 141.87 2.98, 154.34 7.8 C166.82 12.62, 179.74 20.56, 189.81 29.45 C199.88 38.34, 208.92 49.27, 214.77 61.12 C220.61 72.98, 223.98 87.49, 224.87 100.58 C225.77 113.66, 223.81 127.03, 220.14 139.63 C216.46 152.22, 211 165.73, 202.82 176.13 C194.64 186.53, 182.82 195.5, 171.04 202.04 C159.26 208.58, 145.68 213.04, 132.12 215.37 C118.56 217.69, 102.93 218.34, 89.7 215.96 C76.46 213.58, 63.93 208.3, 52.69 201.1 C41.46 193.9, 30.26 183.5, 22.28 172.77 C14.3 162.03, 8.36 149.29, 4.82 136.7 C1.27 124.11, -0.39 110.03, 1.03 97.22 C2.45 84.41, 7.25 71.4, 13.34 59.85 C19.42 48.31, 27.31 36.71, 37.51 27.95 C47.71 19.18, 60.49 11.75, 74.55 7.27 C88.61 2.78, 113.03 1.82, 121.86 1.05 C130.7 0.28, 127.78 0.97, 127.56 2.66 M72.61 9.05 C83.76 2.89, 98.11 1.49, 111.77 1.18 C125.43 0.88, 141.76 2.53, 154.57 7.2 C167.39 11.86, 178.9 20.16, 188.65 29.17 C198.4 38.18, 206.85 49.69, 213.07 61.27 C219.3 72.84, 224.67 85.92, 226.01 98.62 C227.35 111.32, 224.66 124.68, 221.1 137.46 C217.54 150.24, 212.58 164.51, 204.66 175.33 C196.75 186.14, 185.21 195.5, 173.61 202.35 C162.01 209.2, 148.53 213.95, 135.05 216.43 C121.57 218.91, 106.19 219.46, 92.73 217.23 C79.27 215, 65.83 209.87, 54.28 203.04 C42.73 196.21, 31.76 186.81, 23.42 176.24 C15.09 165.67, 8.22 152.6, 4.26 139.62 C0.3 126.65, -1.77 111.33, -0.33 98.41 C1.1 85.5, 6.59 73.8, 12.89 62.15 C19.2 50.5, 27.73 37.85, 37.5 28.5 C47.27 19.16, 65.44 9.01, 71.51 6.09 C77.57 3.17, 73.41 9.24, 73.9 10.99" fill="none" stroke="#1e1e1e" stroke-width="2"></path></g><g transform="translate(1180.377437163057 367.2511691796037) rotate(0 55.5517578125 25)"><text direction="ltr" dominant-baseline="text-before-edge" fill="#1e1e1e" font-family="Virgil, Segoe UI Emoji" font-size="20px" style="white-space: pre;" text-anchor="middle" x="55.5517578125" y="0">Database</text><text direction="ltr" dominant-baseline="text-before-edge" fill="#1e1e1e" font-family="Virgil, Segoe UI Emoji" font-size="20px" style="white-space: pre;" text-anchor="middle" x="55.5517578125" y="25">(PostgreSQL)</text></g><g stroke-linecap="round"><g transform="translate(955.7234170581862 396.8944771316037) rotate(0 75.14656532720915 0.29807728076474405)"><path d="M-0.38 0.45 C24.77 0.27, 125.84 -0.45, 150.92 -0.51 M1.62 -0.36 C26.66 -0.48, 125.69 0.2, 150.3 0.45" fill="none" stroke="#1e1e1e" stroke-width="2"></path></g><g transform="translate(955.7234170581862 396.8944771316037) rotate(0 75.14656532720915 0.29807728076474405)"><path d="M27.74 -10 C20.02 -5.88, 8.91 -4.03, -0.38 0.45 M27.74 -10 C19.84 -7.91, 13.41 -5.5, -0.38 0.45" fill="none" stroke="#1e1e1e" stroke-width="2"></path></g><g transform="translate(955.7234170581862 396.8944771316037) rotate(0 75.14656532720915 0.29807728076474405)"><path d="M27.88 10.52 C20.02 8.43, 8.87 4.06, -0.38 0.45 M27.88 10.52 C19.95 7.3, 13.48 4.39, -0.38 0.45" fill="none" stroke="#1e1e1e" stroke-width="2"></path></g><g transform="translate(955.7234170581862 396.8944771316037) rotate(0 75.14656532720915 0.29807728076474405)"><path d="M122.03 10.48 C131.3 8.58, 137.27 4.22, 150.3 0.45 M122.03 10.48 C128.74 7.25, 136.9 4.36, 150.3 0.45" fill="none" stroke="#1e1e1e" stroke-width="2"></path></g><g transform="translate(955.7234170581862 396.8944771316037) rotate(0 75.14656532720915 0.29807728076474405)"><path d="M122.19 -10.04 C131.51 -5.72, 137.44 -3.87, 150.3 0.45 M122.19 -10.04 C128.85 -7.96, 136.98 -5.54, 150.3 0.45" fill="none" stroke="#1e1e1e" stroke-width="2"></path></g></g><mask></mask><g transform="translate(1377.222077890124 248.4795822577562) rotate(0 65.74993133544922 100)"><text direction="ltr" dominant-baseline="text-before-edge" fill="#1e1e1e" font-family="Virgil, Segoe UI Emoji" font-size="20px" style="white-space: pre;" text-anchor="start" x="0" y="0">Event</text><text direction="ltr" dominant-baseline="text-before-edge" fill="#1e1e1e" font-family="Virgil, Segoe UI Emoji" font-size="20px" style="white-space: pre;" text-anchor="start" x="0" y="25">- id</text><text direction="ltr" dominant-baseline="text-before-edge" fill="#1e1e1e" font-family="Virgil, Segoe UI Emoji" font-size="20px" style="white-space: pre;" text-anchor="start" x="0" y="50">- venueId</text><text direction="ltr" dominant-baseline="text-before-edge" fill="#1e1e1e" font-family="Virgil, Segoe UI Emoji" font-size="20px" style="white-space: pre;" text-anchor="start" x="0" y="75">- performerId</text><text direction="ltr" dominant-baseline="text-before-edge" fill="#1e1e1e" font-family="Virgil, Segoe UI Emoji" font-size="20px" style="white-space: pre;" text-anchor="start" x="0" y="100">- tickets[]</text><text direction="ltr" dominant-baseline="text-before-edge" fill="#1e1e1e" font-family="Virgil, Segoe UI Emoji" font-size="20px" style="white-space: pre;" text-anchor="start" x="0" y="125">- name</text><text direction="ltr" dominant-baseline="text-before-edge" fill="#1e1e1e" font-family="Virgil, Segoe UI Emoji" font-size="20px" style="white-space: pre;" text-anchor="start" x="0" y="150">- description</text><text direction="ltr" dominant-baseline="text-before-edge" fill="#1e1e1e" font-family="Virgil, Segoe UI Emoji" font-size="20px" style="white-space: pre;" text-anchor="start" x="0" y="175">- ....</text></g><g transform="translate(1547.429795159642 246.65944632439823) rotate(0 51.58995819091797 62.5)"><text direction="ltr" dominant-baseline="text-before-edge" fill="#1e1e1e" font-family="Virgil, Segoe UI Emoji" font-size="20px" style="white-space: pre;" text-anchor="start" x="0" y="0">Venue</text><text direction="ltr" dominant-baseline="text-before-edge" fill="#1e1e1e" font-family="Virgil, Segoe UI Emoji" font-size="20px" style="white-space: pre;" text-anchor="start" x="0" y="25">- id</text><text direction="ltr" dominant-baseline="text-before-edge" fill="#1e1e1e" font-family="Virgil, Segoe UI Emoji" font-size="20px" style="white-space: pre;" text-anchor="start" x="0" y="50">- location</text><text direction="ltr" dominant-baseline="text-before-edge" fill="#1e1e1e" font-family="Virgil, Segoe UI Emoji" font-size="20px" style="white-space: pre;" text-anchor="start" x="0" y="75">- seatMap</text><text direction="ltr" dominant-baseline="text-before-edge" fill="#1e1e1e" font-family="Virgil, Segoe UI Emoji" font-size="20px" style="white-space: pre;" text-anchor="start" x="0" y="100">- ...</text></g><g transform="translate(1694.455420946503 252.07797672986817) rotate(0 47.17994689941406 37.5)"><text direction="ltr" dominant-baseline="text-before-edge" fill="#1e1e1e" font-family="Virgil, Segoe UI Emoji" font-size="20px" style="white-space: pre;" text-anchor="start" x="0" y="0">Performer</text><text direction="ltr" dominant-baseline="text-before-edge" fill="#1e1e1e" font-family="Virgil, Segoe UI Emoji" font-size="20px" style="white-space: pre;" text-anchor="start" x="0" y="25">- id</text><text direction="ltr" dominant-baseline="text-before-edge" fill="#1e1e1e" font-family="Virgil, Segoe UI Emoji" font-size="20px" style="white-space: pre;" text-anchor="start" x="0" y="50">...</text></g><g transform="translate(500.43034150415417 362.7018156796894) rotate(0 64.13993835449219 12.5)"><text direction="ltr" dominant-baseline="text-before-edge" fill="#1e1e1e" font-family="Virgil, Segoe UI Emoji" font-size="20px" style="white-space: pre;" text-anchor="start" x="0" y="0">view(eventId)</text></g><g stroke-linecap="round" transform="translate(673.7122488405965 81.61372336185377) rotate(0 133.45758189228422 69.29831816266892)"><path d="M32 0 C78.71 -1.26, 130.16 0.5, 234.92 0 M32 0 C94.32 -0.92, 158.27 0.4, 234.92 0 M234.92 0 C257.61 0.93, 266.34 12.56, 266.92 32 M234.92 0 C255.54 0.87, 267.07 12.38, 266.92 32 M266.92 32 C268.21 62.73, 267.03 92.96, 266.92 106.6 M266.92 32 C266.58 48.49, 267.03 67.37, 266.92 106.6 M266.92 106.6 C268.27 129.93, 255.48 140.17, 234.92 138.6 M266.92 106.6 C269.05 128, 256.37 140.36, 234.92 138.6 M234.92 138.6 C183.62 138.75, 130.64 140.99, 32 138.6 M234.92 138.6 C155.24 140.74, 74.58 141.1, 32 138.6 M32 138.6 C11.08 140.56, 0.36 129.88, 0 106.6 M32 138.6 C10.35 139.42, -1.17 126.58, 0 106.6 M0 106.6 C-1.03 77.59, -2.62 50.79, 0 32 M0 106.6 C0.42 77.83, 0.46 48.11, 0 32 M0 32 C1.74 10.58, 12.1 -1.79, 32 0 M0 32 C1.07 8.56, 10.56 1.35, 32 0" fill="none" stroke="#1e1e1e" stroke-width="2"></path></g><g transform="translate(747.4774479203808 138.4120415245227) rotate(0 59.6923828125 12.5)"><text direction="ltr" dominant-baseline="text-before-edge" fill="#1e1e1e" font-family="Virgil, Segoe UI Emoji" font-size="20px" style="white-space: pre;" text-anchor="middle" x="59.6923828125" y="0">Search Service</text></g><g stroke-linecap="round"><g transform="translate(471.95087765606047 340.47306822446626) rotate(0 90.93538370750376 -87.87295048122769)"><path d="M0.61 0.12 C31.01 -29.31, 151.7 -146.16, 181.78 -175.64 M-0.52 -0.86 C29.75 -30.17, 150.1 -144.86, 180.79 -174.04" fill="none" stroke="#1e1e1e" stroke-width="2"></path></g><g transform="translate(471.95087765606047 340.47306822446626) rotate(0 90.93538370750376 -87.87295048122769)"><path d="M13.72 -26.87 C10.82 -20.12, 7.49 -14.42, 0.61 0.12 M13.72 -26.87 C11.72 -20.49, 7.92 -14.18, 0.61 0.12" fill="none" stroke="#1e1e1e" stroke-width="2"></path></g><g transform="translate(471.95087765606047 340.47306822446626) rotate(0 90.93538370750376 -87.87295048122769)"><path d="M28 -12.13 C21.37 -9.03, 14.43 -7.06, 0.61 0.12 M28 -12.13 C22.83 -8.85, 15.95 -5.72, 0.61 0.12" fill="none" stroke="#1e1e1e" stroke-width="2"></path></g><g transform="translate(471.95087765606047 340.47306822446626) rotate(0 90.93538370750376 -87.87295048122769)"><path d="M167.45 -147.17 C170.81 -154.18, 174.17 -162.1, 180.79 -174.04 M167.45 -147.17 C170.87 -152.59, 172.78 -157.91, 180.79 -174.04" fill="none" stroke="#1e1e1e" stroke-width="2"></path></g><g transform="translate(471.95087765606047 340.47306822446626) rotate(0 90.93538370750376 -87.87295048122769)"><path d="M153.3 -162.03 C160.36 -165.35, 167.3 -169.52, 180.79 -174.04 M153.3 -162.03 C159.85 -164.33, 164.82 -166.44, 180.79 -174.04" fill="none" stroke="#1e1e1e" stroke-width="2"></path></g></g><mask></mask><g transform="translate(164.10218856898575 10) rotate(0 468.1796569824219 12.5)"><text direction="ltr" dominant-baseline="text-before-edge" fill="#1e1e1e" font-family="Virgil, Segoe UI Emoji" font-size="20px" style="white-space: pre;" text-anchor="start" x="0" y="0">GET /search?term={term}&amp;location={location}&amp;type={type}&amp;date={date} -&gt; Partial&lt;Event&gt;[]</text></g><g stroke-linecap="round"><g transform="translate(953.5581413863454 155.685936333899) rotate(0 94.64702248989141 70.92741489771151)"><path d="M-0.76 -1.01 C30.91 22.74, 158.14 118.71, 189.95 142.61 M1.04 1.08 C32.62 24.48, 157.9 117.67, 189.35 140.88" fill="none" stroke="#1e1e1e" stroke-width="2"></path></g><g transform="translate(953.5581413863454 155.685936333899) rotate(0 94.64702248989141 70.92741489771151)"><path d="M27.93 7.75 C17.84 6.11, 12.37 3.8, -0.76 -1.01 M27.93 7.75 C17.71 5.37, 8.14 2.7, -0.76 -1.01" fill="none" stroke="#1e1e1e" stroke-width="2"></path></g><g transform="translate(953.5581413863454 155.685936333899) rotate(0 94.64702248989141 70.92741489771151)"><path d="M15.58 24.15 C9.09 17.78, 7.24 10.67, -0.76 -1.01 M15.58 24.15 C9.69 15.97, 4.4 7.62, -0.76 -1.01" fill="none" stroke="#1e1e1e" stroke-width="2"></path></g><g transform="translate(953.5581413863454 155.685936333899) rotate(0 94.64702248989141 70.92741489771151)"><path d="M160.6 132.34 C167.34 136.12, 178.71 138.88, 189.35 140.88 M160.6 132.34 C170.23 135.4, 180.56 138.73, 189.35 140.88" fill="none" stroke="#1e1e1e" stroke-width="2"></path></g><g transform="translate(953.5581413863454 155.685936333899) rotate(0 94.64702248989141 70.92741489771151)"><path d="M172.82 115.85 C176 124.39, 183.78 131.98, 189.35 140.88 M172.82 115.85 C178.17 124.74, 184.27 133.78, 189.35 140.88" fill="none" stroke="#1e1e1e" stroke-width="2"></path></g></g><mask></mask><g transform="translate(1019.4699252994563 153.8242919347158) rotate(0 129.81988525390625 25)"><text direction="ltr" dominant-baseline="text-before-edge" fill="#1e1e1e" font-family="Virgil, Segoe UI Emoji" font-size="20px" style="white-space: pre;" text-anchor="middle" x="129.81988525390625" y="0">Query event table directly</text><text direction="ltr" dominant-baseline="text-before-edge" fill="#1e1e1e" font-family="Virgil, Segoe UI Emoji" font-size="20px" style="white-space: pre;" text-anchor="middle" x="129.81988525390625" y="25">for search</text></g><g stroke-linecap="round" transform="translate(691.3079702354096 613.8894445030364) rotate(0 132.1456120008337 76.0151989733738)"><path d="M32 0 C103.95 -1.74, 175.94 -1.77, 232.29 0 M32 0 C100.55 -1.86, 167.88 -0.56, 232.29 0 M232.29 0 C254.6 0.55, 265.75 9.29, 264.29 32 M232.29 0 C252.38 -0.54, 264.45 8.94, 264.29 32 M264.29 32 C267.07 62.19, 266.65 95.79, 264.29 120.03 M264.29 32 C263.89 59.67, 264.81 85.66, 264.29 120.03 M264.29 120.03 C263.51 140.61, 255.34 153.93, 232.29 152.03 M264.29 120.03 C265.45 143.46, 254.88 153.28, 232.29 152.03 M232.29 152.03 C174.03 152.73, 113.98 152.16, 32 152.03 M232.29 152.03 C165.8 151.79, 98.39 150.81, 32 152.03 M32 152.03 C10.55 150.08, 1.97 143.25, 0 120.03 M32 152.03 C8.64 150.34, -0.54 142.84, 0 120.03 M0 120.03 C-0.38 96.84, -2.09 71.7, 0 32 M0 120.03 C-0.91 101.06, 0.98 83.3, 0 32 M0 32 C-1.08 9.32, 11.52 1.13, 32 0 M0 32 C2.08 12.06, 11.92 -0.27, 32 0" fill="none" stroke="#1e1e1e" stroke-width="2"></path></g><g transform="translate(756.5199884862434 677.4046434764102) rotate(0 66.93359375 12.5)"><text direction="ltr" dominant-baseline="text-before-edge" fill="#1e1e1e" font-family="Virgil, Segoe UI Emoji" font-size="20px" style="white-space: pre;" text-anchor="middle" x="66.93359375" y="0">Booking Service</text></g><g stroke-linecap="round"><g transform="translate(972.9638959666908 674.6686083836321) rotate(0 103.18857837129764 -85.73502393749277)"><path d="M-0.37 0.45 C34.1 -28.17, 171.8 -141.81, 206.46 -170.58 M1.64 -0.35 C35.99 -28.79, 171.26 -143.76, 205.55 -172.23" fill="none" stroke="#1e1e1e" stroke-width="2"></path></g><g transform="translate(972.9638959666908 674.6686083836321) rotate(0 103.18857837129764 -85.73502393749277)"><path d="M190.59 -146.23 C195.15 -153.1, 199.94 -158.31, 205.55 -172.23 M190.59 -146.23 C194.54 -152.39, 198.4 -159.65, 205.55 -172.23" fill="none" stroke="#1e1e1e" stroke-width="2"></path></g><g transform="translate(972.9638959666908 674.6686083836321) rotate(0 103.18857837129764 -85.73502393749277)"><path d="M177.38 -161.94 C185.67 -164.51, 194.04 -165.46, 205.55 -172.23 M177.38 -161.94 C184.62 -164.4, 191.69 -167.86, 205.55 -172.23" fill="none" stroke="#1e1e1e" stroke-width="2"></path></g></g><mask></mask><g stroke-linecap="round" transform="translate(697.9943755026302 860.1277425167518) rotate(0 132.6881140308376 43.62736410518937)"><path d="M21.81 0 C82.82 1.58, 140.27 0.95, 243.56 0 M21.81 0 C108.09 -1.12, 192.64 -0.73, 243.56 0 M243.56 0 C258.24 -1.5, 266.41 9.05, 265.38 21.81 M243.56 0 C259.66 2.3, 264.49 9.08, 265.38 21.81 M265.38 21.81 C266.92 38.06, 267.34 57.04, 265.38 65.44 M265.38 21.81 C266.06 37.09, 265.71 51.37, 265.38 65.44 M265.38 65.44 C266.47 81.07, 258.1 89.14, 243.56 87.25 M265.38 65.44 C265.86 82.25, 258.52 89.49, 243.56 87.25 M243.56 87.25 C179.05 87.79, 118.13 87.52, 21.81 87.25 M243.56 87.25 C181.74 86.2, 117.46 84.76, 21.81 87.25 M21.81 87.25 C6.8 88.54, -0.4 80.66, 0 65.44 M21.81 87.25 C9.27 87.16, 1.65 77.92, 0 65.44 M0 65.44 C1.57 48.42, -0.86 37.09, 0 21.81 M0 65.44 C0.66 53.08, 1.14 40.21, 0 21.81 M0 21.81 C1.09 7.04, 9.08 0.06, 21.81 0 M0 21.81 C1.7 6.27, 5.75 -0.98, 21.81 0" fill="none" stroke="#1e1e1e" stroke-width="2"></path></g><g transform="translate(806.7957707834678 891.2551066219412) rotate(0 23.88671875 12.5)"><text direction="ltr" dominant-baseline="text-before-edge" fill="#1e1e1e" font-family="Virgil, Segoe UI Emoji" font-size="20px" style="white-space: pre;" text-anchor="middle" x="23.88671875" y="0">Stripe</text></g><g stroke-linecap="round"><g transform="translate(777.7883709218485 849.5280874689815) rotate(0 -0.0951187552088868 -36.923922624306954)"><path d="M0.75 1.03 C0.62 -11.1, 0.41 -60.9, 0.4 -73.52 M-0.31 0.53 C-0.66 -11.92, -0.36 -63.08, -0.25 -75.47" fill="none" stroke="#1e1e1e" stroke-width="2"></path></g><g transform="translate(777.7883709218485 849.5280874689815) rotate(0 -0.0951187552088868 -36.923922624306954)"><path d="M-9.66 -27.1 C-3.95 -14.97, -0.97 -3.27, 0.75 1.03 M-9.66 -27.1 C-7.34 -21.32, -4.48 -13.18, 0.75 1.03" fill="none" stroke="#1e1e1e" stroke-width="2"></path></g><g transform="translate(777.7883709218485 849.5280874689815) rotate(0 -0.0951187552088868 -36.923922624306954)"><path d="M10.86 -27.21 C8.39 -14.91, 3.18 -3.16, 0.75 1.03 M10.86 -27.21 C8.44 -21.46, 6.55 -13.29, 0.75 1.03" fill="none" stroke="#1e1e1e" stroke-width="2"></path></g></g><mask></mask><g stroke-linecap="round"><g transform="translate(877.8704912097671 854.4987043592737) rotate(0 -0.587293208775435 -40.253123116126005)"><path d="M0.59 0.33 C0.41 -13.4, 0.1 -67.81, -0.3 -81.33 M-0.57 -0.55 C-0.89 -13.62, -0.4 -67.05, -0.79 -80.23" fill="none" stroke="#1e1e1e" stroke-width="2"></path></g><g transform="translate(877.8704912097671 854.4987043592737) rotate(0 -0.587293208775435 -40.253123116126005)"><path d="M9.69 -52.12 C6.2 -60.8, 0.47 -73.53, -0.79 -80.23 M9.69 -52.12 C7.29 -59.08, 4.55 -66.75, -0.79 -80.23" fill="none" stroke="#1e1e1e" stroke-width="2"></path></g><g transform="translate(877.8704912097671 854.4987043592737) rotate(0 -0.587293208775435 -40.253123116126005)"><path d="M-10.83 -51.96 C-6.89 -60.8, -5.17 -73.59, -0.79 -80.23 M-10.83 -51.96 C-7.55 -58.81, -4.62 -66.52, -0.79 -80.23" fill="none" stroke="#1e1e1e" stroke-width="2"></path></g></g><mask></mask><g stroke-linecap="round"><g transform="translate(472.792096794106 530.6228330156737) rotate(0 103.31966170318998 73.45913294030242)"><path d="M0.87 -0.83 C35.11 23.56, 171.68 122.16, 205.99 146.64 M-0.13 1.35 C34.45 25.89, 174.01 123.77, 208.36 148.03" fill="none" stroke="#1e1e1e" stroke-width="2"></path></g><g transform="translate(472.792096794106 530.6228330156737) rotate(0 103.31966170318998 73.45913294030242)"><path d="M29.75 7.3 C18.28 3.6, 9.12 1.98, 0.87 -0.83 M29.75 7.3 C23.89 6.73, 16.33 4.69, 0.87 -0.83" fill="none" stroke="#1e1e1e" stroke-width="2"></path></g><g transform="translate(472.792096794106 530.6228330156737) rotate(0 103.31966170318998 73.45913294030242)"><path d="M17.77 23.96 C10.43 14.36, 5.45 6.93, 0.87 -0.83 M17.77 23.96 C14.51 19.53, 9.65 13.74, 0.87 -0.83" fill="none" stroke="#1e1e1e" stroke-width="2"></path></g><g transform="translate(472.792096794106 530.6228330156737) rotate(0 103.31966170318998 73.45913294030242)"><path d="M179.4 140.2 C188.15 141.64, 199.16 145.58, 208.36 148.03 M179.4 140.2 C186.64 142.7, 192.09 144.25, 208.36 148.03" fill="none" stroke="#1e1e1e" stroke-width="2"></path></g><g transform="translate(472.792096794106 530.6228330156737) rotate(0 103.31966170318998 73.45913294030242)"><path d="M191.21 123.41 C195.88 130.8, 202.78 140.59, 208.36 148.03 M191.21 123.41 C195.87 129.8, 198.67 135.13, 208.36 148.03" fill="none" stroke="#1e1e1e" stroke-width="2"></path></g></g><mask></mask><g transform="translate(1373.076281767333 488.93251171886004) rotate(0 134.03988647460932 87.5)"><text direction="ltr" dominant-baseline="text-before-edge" fill="#1e1e1e" font-family="Virgil, Segoe UI Emoji" font-size="20px" style="white-space: pre;" text-anchor="start" x="0" y="0">Ticket</text><text direction="ltr" dominant-baseline="text-before-edge" fill="#1e1e1e" font-family="Virgil, Segoe UI Emoji" font-size="20px" style="white-space: pre;" text-anchor="start" x="0" y="25">- id</text><text direction="ltr" dominant-baseline="text-before-edge" fill="#1e1e1e" font-family="Virgil, Segoe UI Emoji" font-size="20px" style="white-space: pre;" text-anchor="start" x="0" y="50">- eventId</text><text direction="ltr" dominant-baseline="text-before-edge" fill="#1e1e1e" font-family="Virgil, Segoe UI Emoji" font-size="20px" style="white-space: pre;" text-anchor="start" x="0" y="75">- seat</text><text direction="ltr" dominant-baseline="text-before-edge" fill="#1e1e1e" font-family="Virgil, Segoe UI Emoji" font-size="20px" style="white-space: pre;" text-anchor="start" x="0" y="100">- price</text><text direction="ltr" dominant-baseline="text-before-edge" fill="#1e1e1e" font-family="Virgil, Segoe UI Emoji" font-size="20px" style="white-space: pre;" text-anchor="start" x="0" y="125">- status: available, booked</text><text direction="ltr" dominant-baseline="text-before-edge" fill="#1e1e1e" font-family="Virgil, Segoe UI Emoji" font-size="20px" style="white-space: pre;" text-anchor="start" x="0" y="150">- userId</text></g><g transform="translate(1673.2581223875193 490.06405698375784) rotate(0 43.38995361328125 50)"><text direction="ltr" dominant-baseline="text-before-edge" fill="#1e1e1e" font-family="Virgil, Segoe UI Emoji" font-size="20px" style="white-space: pre;" text-anchor="start" x="0" y="0">Booking</text><text direction="ltr" dominant-baseline="text-before-edge" fill="#1e1e1e" font-family="Virgil, Segoe UI Emoji" font-size="20px" style="white-space: pre;" text-anchor="start" x="0" y="25">- id</text><text direction="ltr" dominant-baseline="text-before-edge" fill="#1e1e1e" font-family="Virgil, Segoe UI Emoji" font-size="20px" style="white-space: pre;" text-anchor="start" x="0" y="50">- userId</text><text direction="ltr" dominant-baseline="text-before-edge" fill="#1e1e1e" font-family="Virgil, Segoe UI Emoji" font-size="20px" style="white-space: pre;" text-anchor="start" x="0" y="75">- tickets</text></g><g transform="translate(548.7767418033012 527.7275184742994) rotate(0 201.83981323242188 25)"><text direction="ltr" dominant-baseline="text-before-edge" fill="#1e1e1e" font-family="Virgil, Segoe UI Emoji" font-size="20px" style="white-space: pre;" text-anchor="start" x="0" y="0">reserve(ticketId, userId)</text><text direction="ltr" dominant-baseline="text-before-edge" fill="#1e1e1e" font-family="Virgil, Segoe UI Emoji" font-size="20px" style="white-space: pre;" text-anchor="start" x="0" y="25">confirm(ticketId, userId, paymentDetails)</text></g><g stroke-linecap="round" transform="translate(1133.453691668826 626.6461230082577) rotate(0 62.59547628591781 59.93944973184932)"><path d="M50.63 1.16 C59.49 -1.63, 71.85 -0.67, 81.29 2.06 C90.74 4.79, 100.47 11.04, 107.32 17.54 C114.17 24.04, 119.65 32.16, 122.42 41.06 C125.19 49.95, 125.44 61.62, 123.92 70.92 C122.39 80.22, 118.94 89.54, 113.26 96.86 C107.59 104.19, 98.72 111.03, 89.86 114.86 C80.99 118.68, 69.76 120.31, 60.08 119.8 C50.4 119.29, 40.06 116.48, 31.78 111.8 C23.5 107.12, 15.5 99.67, 10.39 91.72 C5.28 83.77, 1.94 73.49, 1.13 64.11 C0.33 54.74, 1.96 43.81, 5.58 35.46 C9.2 27.12, 12.92 19.85, 22.84 14.06 C32.75 8.27, 56.02 2.6, 65.09 0.74 C74.15 -1.13, 77.54 1.83, 77.2 2.87 M90.66 7.49 C99.46 10.98, 107.49 18.4, 113.37 25.8 C119.26 33.21, 124.43 43.04, 125.94 51.93 C127.46 60.83, 125.89 70.67, 122.46 79.17 C119.03 87.68, 112.73 96.34, 105.36 102.95 C97.99 109.56, 87.98 116.44, 78.24 118.84 C68.5 121.24, 56.11 119.63, 46.92 117.36 C37.72 115.09, 30.29 111.31, 23.06 105.22 C15.83 99.14, 7.21 89.35, 3.53 80.86 C-0.14 72.36, -0.4 63.19, 1.01 54.28 C2.43 45.37, 6.57 35.27, 12.01 27.39 C17.45 19.52, 25.13 11.59, 33.66 7.03 C42.19 2.47, 53.45 0.24, 63.2 0.05 C72.94 -0.14, 87.75 4.73, 92.13 5.88 C96.5 7.03, 90.16 6.11, 89.46 6.96" fill="none" stroke="#1e1e1e" stroke-width="2"></path></g><g transform="translate(1166.8490056388696 649.2019813741263) rotate(0 29.4384765625 37.5)"><text direction="ltr" dominant-baseline="text-before-edge" fill="#1e1e1e" font-family="Virgil, Segoe UI Emoji" font-size="20px" style="white-space: pre;" text-anchor="middle" x="29.4384765625" y="0">Ticket </text><text direction="ltr" dominant-baseline="text-before-edge" fill="#1e1e1e" font-family="Virgil, Segoe UI Emoji" font-size="20px" style="white-space: pre;" text-anchor="middle" x="29.4384765625" y="25">Lock</text><text direction="ltr" dominant-baseline="text-before-edge" fill="#1e1e1e" font-family="Virgil, Segoe UI Emoji" font-size="20px" style="white-space: pre;" text-anchor="middle" x="29.4384765625" y="50">(Redis)</text></g><g stroke-linecap="round"><g transform="translate(977.0851088394139 696.2566184409652) rotate(0 69.08745180587596 0.12502253312686662)"><path d="M1.12 0.04 C24.23 0.08, 115.48 0.94, 138.24 1.17 M0.24 -0.99 C23.25 -1.36, 114.6 -0.58, 137.32 -0.47" fill="none" stroke="#1e1e1e" stroke-width="2"></path></g><g transform="translate(977.0851088394139 696.2566184409652) rotate(0 69.08745180587596 0.12502253312686662)"><path d="M29.39 -10 C22.14 -7.01, 16.22 -5.38, 1.12 0.04 M29.39 -10 C17.8 -6.31, 7.8 -0.98, 1.12 0.04" fill="none" stroke="#1e1e1e" stroke-width="2"></path></g><g transform="translate(977.0851088394139 696.2566184409652) rotate(0 69.08745180587596 0.12502253312686662)"><path d="M29.23 10.52 C21.86 8.14, 15.98 4.4, 1.12 0.04 M29.23 10.52 C17.6 6.05, 7.67 3.21, 1.12 0.04" fill="none" stroke="#1e1e1e" stroke-width="2"></path></g><g transform="translate(977.0851088394139 696.2566184409652) rotate(0 69.08745180587596 0.12502253312686662)"><path d="M109.06 9.61 C116.43 6.81, 125.29 3.18, 137.32 -0.47 M109.06 9.61 C119.86 5.14, 132.35 2.46, 137.32 -0.47" fill="none" stroke="#1e1e1e" stroke-width="2"></path></g><g transform="translate(977.0851088394139 696.2566184409652) rotate(0 69.08745180587596 0.12502253312686662)"><path d="M109.2 -10.92 C116.7 -8.34, 125.52 -6.61, 137.32 -0.47 M109.2 -10.92 C120.04 -7.22, 132.48 -1.73, 137.32 -0.47" fill="none" stroke="#1e1e1e" stroke-width="2"></path></g></g><mask></mask><g transform="translate(1049.7607073460294 761.6225661774333) rotate(0 149.9698944091797 12.5)"><text direction="ltr" dominant-baseline="text-before-edge" fill="#1e1e1e" font-family="Virgil, Segoe UI Emoji" font-size="20px" style="white-space: pre;" text-anchor="start" x="0" y="0">{ticketId: userId} TTL 10 min</text></g></svg>