<svg height="411.85223834202714" version="1.1" viewbox="0 0 1798.8153147453313 411.85223834202714" width="1798.8153147453313" xmlns="http://www.w3.org/2000/svg">
<!-- svg-source:excalidraw -->
<!-- payload-type:application/vnd.excalidraw+json --><!-- payload-version:2 -->
<defs>
<style class="style-fonts">
</style>
</defs>
<rect fill="#ffffff" height="411.85223834202714" width="1798.8153147453313" x="0" y="0"></rect><g stroke-linecap="round" transform="translate(10 158.98799285591667) rotate(0 66.41791896430016 54.30053481342259)"><path d="M27.15 0 C46.85 0.38, 61.91 0.32, 105.69 0 M27.15 0 C51.94 -0.95, 77.62 -0.93, 105.69 0 M105.69 0 C122.16 1.07, 131.31 8.32, 132.84 27.15 M105.69 0 C124.17 2.17, 131.83 8.49, 132.84 27.15 M132.84 27.15 C134.07 44.84, 131.74 61.22, 132.84 81.45 M132.84 27.15 C132.93 48.33, 133.52 69.28, 132.84 81.45 M132.84 81.45 C133.31 99.17, 123.21 108.03, 105.69 108.6 M132.84 81.45 C131.11 97.59, 123.1 108.3, 105.69 108.6 M105.69 108.6 C75.72 108.7, 45.16 109.72, 27.15 108.6 M105.69 108.6 C75.95 107.89, 47.4 108.1, 27.15 108.6 M27.15 108.6 C7.08 107.48, -0.05 97.99, 0 81.45 M27.15 108.6 C7.56 109.94, -0.14 99.73, 0 81.45 M0 81.45 C1.24 68.48, 0.6 51.02, 0 27.15 M0 81.45 C-0.36 60.3, 0.19 38.53, 0 27.15 M0 27.15 C-0.47 7.93, 10.86 -1.02, 27.15 0 M0 27.15 C-1.02 7.57, 7.03 1.58, 27.15 0" fill="none" stroke="#1e1e1e" stroke-width="2"></path></g><g transform="translate(51.974559589300156 200.78852766933926) rotate(0 24.443359375 12.5)"><text direction="ltr" dominant-baseline="text-before-edge" fill="#1e1e1e" font-family="Virgil, Segoe UI Emoji" font-size="20px" style="white-space: pre;" text-anchor="middle" x="24.443359375" y="0">Client</text></g><g stroke-linecap="round" transform="translate(273.2528845617529 10) rotate(0 91.13351565247496 195.92611917101357)"><path d="M32 0 C69.38 -1.52, 107.28 -1.76, 150.27 0 M32 0 C62.66 0.91, 94.18 0.01, 150.27 0 M150.27 0 C171.93 1.88, 181.4 10.18, 182.27 32 M150.27 0 C171.67 -1.06, 180.73 12.37, 182.27 32 M182.27 32 C182.53 150.2, 182.55 269.66, 182.27 359.85 M182.27 32 C184.36 132.85, 184 233.77, 182.27 359.85 M182.27 359.85 C180.77 379.48, 171.01 391.59, 150.27 391.85 M182.27 359.85 C184.5 382.94, 172.06 393.26, 150.27 391.85 M150.27 391.85 C116.62 391.89, 78.94 391.87, 32 391.85 M150.27 391.85 C117.41 391.18, 86.49 390.96, 32 391.85 M32 391.85 C9.37 393.01, -0.12 381.34, 0 359.85 M32 391.85 C9.82 392.55, -0.83 382.8, 0 359.85 M0 359.85 C0.41 238.61, -1.96 118.57, 0 32 M0 359.85 C0.45 255.64, 1.24 151.84, 0 32 M0 32 C-0.89 9.38, 8.91 1.37, 32 0 M0 32 C0.43 10.92, 12.3 0.11, 32 0" fill="none" stroke="#1e1e1e" stroke-width="2"></path></g><g transform="translate(301.9108142767279 155.92611917101357) rotate(0 62.4755859375 50.00000000000003)"><text direction="ltr" dominant-baseline="text-before-edge" fill="#1e1e1e" font-family="Virgil, Segoe UI Emoji" font-size="20px" style="white-space: pre;" text-anchor="middle" x="62.4755859375" y="0">API Gateway</text><text direction="ltr" dominant-baseline="text-before-edge" fill="#1e1e1e" font-family="Virgil, Segoe UI Emoji" font-size="20px" style="white-space: pre;" text-anchor="middle" x="62.4755859375" y="25">- authentication</text><text direction="ltr" dominant-baseline="text-before-edge" fill="#1e1e1e" font-family="Virgil, Segoe UI Emoji" font-size="20px" style="white-space: pre;" text-anchor="middle" x="62.4755859375" y="50">- rate limiting</text><text direction="ltr" dominant-baseline="text-before-edge" fill="#1e1e1e" font-family="Virgil, Segoe UI Emoji" font-size="20px" style="white-space: pre;" text-anchor="middle" x="62.4755859375" y="75">- routing</text></g><g stroke-linecap="round"><g transform="translate(156.9605616707032 213.16166428831866) rotate(0 56.380367405738525 -0.5551085060830019)"><path d="M-0.99 -0.41 C17.79 -0.81, 93.03 -1.48, 111.83 -1.49 M0.68 -1.67 C19.91 -1.98, 95.14 -0.02, 114.05 -0.16" fill="none" stroke="#1e1e1e" stroke-width="2"></path></g><g transform="translate(156.9605616707032 213.16166428831866) rotate(0 56.380367405738525 -0.5551085060830019)"><path d="M27.08 -10.98 C20.06 -10.34, 13.67 -7.99, -0.99 -0.41 M27.08 -10.98 C17.24 -6.4, 6.72 -3.85, -0.99 -0.41" fill="none" stroke="#1e1e1e" stroke-width="2"></path></g><g transform="translate(156.9605616707032 213.16166428831866) rotate(0 56.380367405738525 -0.5551085060830019)"><path d="M27.31 9.54 C20.07 5.48, 13.63 3.13, -0.99 -0.41 M27.31 9.54 C17.55 6.87, 6.94 2.16, -0.99 -0.41" fill="none" stroke="#1e1e1e" stroke-width="2"></path></g><g transform="translate(156.9605616707032 213.16166428831866) rotate(0 56.380367405738525 -0.5551085060830019)"><path d="M85.75 9.79 C91.48 6.19, 98 3.85, 114.05 -0.16 M85.75 9.79 C95.99 7.32, 105.39 2.62, 114.05 -0.16" fill="none" stroke="#1e1e1e" stroke-width="2"></path></g><g transform="translate(156.9605616707032 213.16166428831866) rotate(0 56.380367405738525 -0.5551085060830019)"><path d="M85.98 -10.73 C91.81 -9.63, 98.28 -7.28, 114.05 -0.16 M85.98 -10.73 C95.98 -5.95, 105.3 -3.4, 114.05 -0.16" fill="none" stroke="#1e1e1e" stroke-width="2"></path></g></g><mask></mask><g stroke-linecap="round" transform="translate(680.0516580664367 145.26426297225953) rotate(0 133.45758189228422 69.29831816266892)"><path d="M32 0 C75.49 -0.04, 121.07 0.05, 234.92 0 M32 0 C85.11 -1.93, 139.02 -2.12, 234.92 0 M234.92 0 C254.91 1.48, 268.15 9.82, 266.92 32 M234.92 0 C257.6 2.04, 266.17 12.73, 266.92 32 M266.92 32 C266.84 56.87, 266.59 80.21, 266.92 106.6 M266.92 32 C266.06 52.13, 267.33 73.29, 266.92 106.6 M266.92 106.6 C267.32 129.15, 256.19 140.45, 234.92 138.6 M266.92 106.6 C268.02 129.66, 255.63 137.42, 234.92 138.6 M234.92 138.6 C179.47 137.99, 123.37 139.7, 32 138.6 M234.92 138.6 C189.78 139.72, 144.42 139.92, 32 138.6 M32 138.6 C9.95 140, 1.33 128.7, 0 106.6 M32 138.6 C8.56 140.73, -1.94 126.08, 0 106.6 M0 106.6 C-0.7 89.83, -1.24 75.81, 0 32 M0 106.6 C-0.55 88.7, 0.52 69.54, 0 32 M0 32 C1.42 10.76, 11.07 -0.99, 32 0 M0 32 C-0.19 12.77, 8.47 2.13, 32 0" fill="none" stroke="#1e1e1e" stroke-width="2"></path></g><g transform="translate(757.698693083721 202.06258113492845) rotate(0 55.810546875 12.5)"><text direction="ltr" dominant-baseline="text-before-edge" fill="#1e1e1e" font-family="Virgil, Segoe UI Emoji" font-size="20px" style="white-space: pre;" text-anchor="middle" x="55.810546875" y="0">Event Service</text></g><g stroke-linecap="round"><g transform="translate(470.0909273878159 223.0257545916911) rotate(0 98.12245388739251 1.71820194628026)"><path d="M-0.91 -0.44 C31.99 0.22, 163.67 3.97, 196.44 4.57 M0.81 -1.71 C33.66 -1.42, 163.29 2.04, 195.6 3.04" fill="none" stroke="#1e1e1e" stroke-width="2"></path></g><g transform="translate(470.0909273878159 223.0257545916911) rotate(0 98.12245388739251 1.71820194628026)"><path d="M27.53 -9.97 C20.63 -7.77, 17.01 -6.88, -0.91 -0.44 M27.53 -9.97 C19.03 -6.73, 12.48 -5.27, -0.91 -0.44" fill="none" stroke="#1e1e1e" stroke-width="2"></path></g><g transform="translate(470.0909273878159 223.0257545916911) rotate(0 98.12245388739251 1.71820194628026)"><path d="M27 10.55 C20.11 8.26, 16.6 4.65, -0.91 -0.44 M27 10.55 C18.64 8.13, 12.24 3.95, -0.91 -0.44" fill="none" stroke="#1e1e1e" stroke-width="2"></path></g><g transform="translate(470.0909273878159 223.0257545916911) rotate(0 98.12245388739251 1.71820194628026)"><path d="M167.13 12.5 C172.59 10.98, 181.43 7.7, 195.6 3.04 M167.13 12.5 C174.3 10.76, 183.43 7, 195.6 3.04" fill="none" stroke="#1e1e1e" stroke-width="2"></path></g><g transform="translate(470.0909273878159 223.0257545916911) rotate(0 98.12245388739251 1.71820194628026)"><path d="M167.71 -8.01 C173.15 -5.05, 181.87 -3.83, 195.6 3.04 M167.71 -8.01 C174.73 -4.1, 183.7 -2.22, 195.6 3.04" fill="none" stroke="#1e1e1e" stroke-width="2"></path></g></g><mask></mask><g stroke-linecap="round" transform="translate(1122.8556036195332 99.56806051605417) rotate(0 112.92030416412285 108.78506994587957)"><path d="M88.06 1.9 C100.45 -2.34, 117.28 -0.32, 130.73 1.87 C144.18 4.06, 156.92 8.67, 168.74 15.04 C180.55 21.41, 192.85 29.94, 201.62 40.07 C210.39 50.21, 217.33 63.17, 221.35 75.84 C225.36 88.51, 226.69 103.02, 225.72 116.09 C224.75 129.16, 221.24 142.55, 215.54 154.27 C209.84 165.99, 201.3 177.45, 191.52 186.42 C181.74 195.4, 169.51 202.99, 156.89 208.12 C144.27 213.25, 129.36 216.49, 115.8 217.21 C102.23 217.93, 88.07 216.68, 75.5 212.44 C62.94 208.2, 50.63 200.42, 40.41 191.76 C30.19 183.09, 20.6 171.92, 14.17 160.44 C7.74 148.96, 3.49 135.91, 1.81 122.88 C0.13 109.84, 1.05 95.06, 4.1 82.22 C7.15 69.38, 12.44 56.41, 20.1 45.86 C27.75 35.3, 36.13 26.62, 50.03 18.87 C63.93 11.13, 92.13 2.15, 103.49 -0.61 C114.84 -3.37, 118.1 0.43, 118.14 2.29 M144.72 5.01 C157.52 7.11, 170.63 15.86, 181.63 23.91 C192.62 31.96, 203.84 42.05, 210.71 53.33 C217.57 64.61, 220.87 79, 222.81 91.61 C224.75 104.22, 225.01 116.34, 222.36 129 C219.71 141.65, 214.07 156.36, 206.9 167.53 C199.73 178.71, 190.17 188.46, 179.35 196.03 C168.54 203.61, 154.85 209.61, 142.02 212.97 C129.19 216.33, 115.93 217.6, 102.36 216.2 C88.79 214.8, 73.11 210.24, 60.58 204.54 C48.04 198.85, 36.01 191.63, 27.14 182.02 C18.28 172.41, 11.72 159.33, 7.37 146.89 C3.03 134.46, 0.89 120.65, 1.07 107.4 C1.26 94.15, 3.6 79.33, 8.48 67.39 C13.36 55.46, 21.37 45.01, 30.37 35.8 C39.37 26.6, 50.01 18.26, 62.51 12.15 C75 6.05, 91.78 0.61, 105.34 -0.82 C118.9 -2.25, 137.41 2.47, 143.88 3.59 C150.35 4.71, 144.58 4.17, 144.16 5.91" fill="none" stroke="#1e1e1e" stroke-width="2"></path></g><g transform="translate(1199.283687163057 195.93046981134944) rotate(0 36.6455078125 12.5)"><text direction="ltr" dominant-baseline="text-before-edge" fill="#1e1e1e" font-family="Virgil, Segoe UI Emoji" font-size="20px" style="white-space: pre;" text-anchor="middle" x="36.6455078125" y="0">Database</text></g><g stroke-linecap="round"><g transform="translate(955.7234170581863 213.07377776334988) rotate(0 75.14656532720915 0.29807728076474405)"><path d="M0.03 -0.55 C25.04 -0.25, 124.33 1.38, 149.49 1.48 M-1.41 1.77 C24.02 1.77, 126.44 -0.07, 151.78 -0.17" fill="none" stroke="#1e1e1e" stroke-width="2"></path></g><g transform="translate(955.7234170581863 213.07377776334988) rotate(0 75.14656532720915 0.29807728076474405)"><path d="M28.37 -10.4 C20.16 -9.2, 15.29 -4.1, 0.03 -0.55 M28.37 -10.4 C20.8 -6.71, 14.08 -4.99, 0.03 -0.55" fill="none" stroke="#1e1e1e" stroke-width="2"></path></g><g transform="translate(955.7234170581863 213.07377776334988) rotate(0 75.14656532720915 0.29807728076474405)"><path d="M28.07 10.12 C19.99 6.06, 15.2 5.89, 0.03 -0.55 M28.07 10.12 C20.46 8.51, 13.82 4.94, 0.03 -0.55" fill="none" stroke="#1e1e1e" stroke-width="2"></path></g><g transform="translate(955.7234170581863 213.07377776334988) rotate(0 75.14656532720915 0.29807728076474405)"><path d="M123.72 10.42 C130.02 6.36, 139.62 6.22, 151.78 -0.17 M123.72 10.42 C130.57 8.34, 138.4 4.79, 151.78 -0.17" fill="none" stroke="#1e1e1e" stroke-width="2"></path></g><g transform="translate(955.7234170581863 213.07377776334988) rotate(0 75.14656532720915 0.29807728076474405)"><path d="M123.47 -10.1 C129.79 -8.9, 139.45 -3.78, 151.78 -0.17 M123.47 -10.1 C130.51 -6.89, 138.4 -5.15, 151.78 -0.17" fill="none" stroke="#1e1e1e" stroke-width="2"></path></g></g><mask></mask><g transform="translate(1377.2220778901242 64.65888288950237) rotate(0 65.74993133544922 100)"><text direction="ltr" dominant-baseline="text-before-edge" fill="#1e1e1e" font-family="Virgil, Segoe UI Emoji" font-size="20px" style="white-space: pre;" text-anchor="start" x="0" y="0">Event</text><text direction="ltr" dominant-baseline="text-before-edge" fill="#1e1e1e" font-family="Virgil, Segoe UI Emoji" font-size="20px" style="white-space: pre;" text-anchor="start" x="0" y="25">- id</text><text direction="ltr" dominant-baseline="text-before-edge" fill="#1e1e1e" font-family="Virgil, Segoe UI Emoji" font-size="20px" style="white-space: pre;" text-anchor="start" x="0" y="50">- venueId</text><text direction="ltr" dominant-baseline="text-before-edge" fill="#1e1e1e" font-family="Virgil, Segoe UI Emoji" font-size="20px" style="white-space: pre;" text-anchor="start" x="0" y="75">- performerId</text><text direction="ltr" dominant-baseline="text-before-edge" fill="#1e1e1e" font-family="Virgil, Segoe UI Emoji" font-size="20px" style="white-space: pre;" text-anchor="start" x="0" y="100">- tickets[]</text><text direction="ltr" dominant-baseline="text-before-edge" fill="#1e1e1e" font-family="Virgil, Segoe UI Emoji" font-size="20px" style="white-space: pre;" text-anchor="start" x="0" y="125">- name</text><text direction="ltr" dominant-baseline="text-before-edge" fill="#1e1e1e" font-family="Virgil, Segoe UI Emoji" font-size="20px" style="white-space: pre;" text-anchor="start" x="0" y="150">- description</text><text direction="ltr" dominant-baseline="text-before-edge" fill="#1e1e1e" font-family="Virgil, Segoe UI Emoji" font-size="20px" style="white-space: pre;" text-anchor="start" x="0" y="175">- ....</text></g><g transform="translate(1547.4297951596423 62.83874695614395) rotate(0 51.58995819091791 62.5)"><text direction="ltr" dominant-baseline="text-before-edge" fill="#1e1e1e" font-family="Virgil, Segoe UI Emoji" font-size="20px" style="white-space: pre;" text-anchor="start" x="0" y="0">Venue</text><text direction="ltr" dominant-baseline="text-before-edge" fill="#1e1e1e" font-family="Virgil, Segoe UI Emoji" font-size="20px" style="white-space: pre;" text-anchor="start" x="0" y="25">- id</text><text direction="ltr" dominant-baseline="text-before-edge" fill="#1e1e1e" font-family="Virgil, Segoe UI Emoji" font-size="20px" style="white-space: pre;" text-anchor="start" x="0" y="50">- location</text><text direction="ltr" dominant-baseline="text-before-edge" fill="#1e1e1e" font-family="Virgil, Segoe UI Emoji" font-size="20px" style="white-space: pre;" text-anchor="start" x="0" y="75">- seatMap</text><text direction="ltr" dominant-baseline="text-before-edge" fill="#1e1e1e" font-family="Virgil, Segoe UI Emoji" font-size="20px" style="white-space: pre;" text-anchor="start" x="0" y="100">- ...</text></g><g transform="translate(1694.4554209465032 68.25727736161434) rotate(0 47.17994689941406 37.5)"><text direction="ltr" dominant-baseline="text-before-edge" fill="#1e1e1e" font-family="Virgil, Segoe UI Emoji" font-size="20px" style="white-space: pre;" text-anchor="start" x="0" y="0">Performer</text><text direction="ltr" dominant-baseline="text-before-edge" fill="#1e1e1e" font-family="Virgil, Segoe UI Emoji" font-size="20px" style="white-space: pre;" text-anchor="start" x="0" y="25">- id</text><text direction="ltr" dominant-baseline="text-before-edge" fill="#1e1e1e" font-family="Virgil, Segoe UI Emoji" font-size="20px" style="white-space: pre;" text-anchor="start" x="0" y="50">...</text></g><g transform="translate(500.4303415041543 178.88111631143602) rotate(0 64.13993835449219 12.5)"><text direction="ltr" dominant-baseline="text-before-edge" fill="#1e1e1e" font-family="Virgil, Segoe UI Emoji" font-size="20px" style="white-space: pre;" text-anchor="start" x="0" y="0">view(eventId)</text></g></svg>