<svg height="466.5365412058459" version="1.1" viewbox="0 0 877.4568932810187 466.5365412058459" width="877.4568932810187" xmlns="http://www.w3.org/2000/svg">
<!-- svg-source:excalidraw -->
<!-- payload-type:application/vnd.excalidraw+json --><!-- payload-version:2 -->
<defs>
<style class="style-fonts">
</style>
</defs>
<rect fill="#ffffff" height="466.5365412058459" width="877.4568932810187" x="0" y="0"></rect><g stroke-linecap="round" transform="translate(10 280.93914068787035) rotate(0 55.986328125 44.6328125)"><path d="M22.32 0 C39.82 0.76, 59.67 -2.66, 89.66 0 M22.32 0 C47.46 -0.53, 72.6 -0.53, 89.66 0 M89.66 0 C103.35 0.01, 111.46 5.91, 111.97 22.32 M89.66 0 C102.7 -1.34, 111.85 6.91, 111.97 22.32 M111.97 22.32 C111.25 36.05, 111.36 54.95, 111.97 66.95 M111.97 22.32 C111.51 37.38, 112.74 51.71, 111.97 66.95 M111.97 66.95 C110.14 82.05, 103.9 91.18, 89.66 89.27 M111.97 66.95 C113.27 82.05, 105.88 89.05, 89.66 89.27 M89.66 89.27 C65.47 90.72, 39.74 89.89, 22.32 89.27 M89.66 89.27 C71.08 89.44, 51.81 89.94, 22.32 89.27 M22.32 89.27 C7.57 88.36, 1.81 81.81, 0 66.95 M22.32 89.27 C8.59 89.35, 0.79 82.46, 0 66.95 M0 66.95 C-2.15 54.51, -2.32 42.44, 0 22.32 M0 66.95 C-0.84 49.76, -0.2 31.78, 0 22.32 M0 22.32 C0.19 6.63, 7.79 -0.62, 22.32 0 M0 22.32 C0.26 8.24, 7.37 -1.28, 22.32 0" fill="none" stroke="#1e1e1e" stroke-width="1"></path></g><g transform="translate(38.880859375 315.57195318787035) rotate(0 27.10546875 10)"><text direction="ltr" dominant-baseline="text-before-edge" fill="#1e1e1e" font-family="Virgil, Segoe UI Emoji" font-size="16px" style="white-space: pre;" text-anchor="middle" x="27.10546875" y="0">Browser</text></g><g stroke-linecap="round"><g transform="translate(129.91015625 310.21416254405995) rotate(0 13.727197134581274 -42.60575583781406)"><path d="M-1.2 0.8 C3.28 -13.3, 22.86 -69.71, 27.72 -84.02 M0.37 0.17 C4.64 -14.28, 22.39 -71.55, 26.91 -85.52" fill="none" stroke="#1e1e1e" stroke-width="1"></path></g><g transform="translate(129.91015625 310.21416254405995) rotate(0 13.727197134581274 -42.60575583781406)"><path d="M-1.84 -29.19 C-0.12 -17.62, 0.77 -6.03, -1.2 0.8 M-1.84 -29.19 C-1.96 -19.78, -1.42 -11.13, -1.2 0.8" fill="none" stroke="#1e1e1e" stroke-width="1"></path></g><g transform="translate(129.91015625 310.21416254405995) rotate(0 13.727197134581274 -42.60575583781406)"><path d="M17.59 -22.59 C12.07 -13.65, 5.75 -4.52, -1.2 0.8 M17.59 -22.59 C11.31 -15.21, 5.76 -8.65, -1.2 0.8" fill="none" stroke="#1e1e1e" stroke-width="1"></path></g><g transform="translate(129.91015625 310.21416254405995) rotate(0 13.727197134581274 -42.60575583781406)"><path d="M28.22 -55.54 C28.92 -66.23, 29.09 -76.88, 26.91 -85.52 M28.22 -55.54 C26.94 -64.94, 26.87 -75.12, 26.91 -85.52" fill="none" stroke="#1e1e1e" stroke-width="1"></path></g><g transform="translate(129.91015625 310.21416254405995) rotate(0 13.727197134581274 -42.60575583781406)"><path d="M8.65 -61.72 C16.64 -69.92, 24.07 -78.28, 26.91 -85.52 M8.65 -61.72 C13.57 -69.21, 19.64 -77.45, 26.91 -85.52" fill="none" stroke="#1e1e1e" stroke-width="1"></path></g></g><mask></mask><g stroke-linecap="round" transform="translate(229.43750000000006 370.88835943787035) rotate(0 64.1640625 42.67578125)"><path d="M21.34 0 C40.46 0.72, 55.88 1.64, 106.99 0 M21.34 0 C48.01 -0.77, 74.4 -0.59, 106.99 0 M106.99 0 C121.11 -0.46, 129.27 8.57, 128.33 21.34 M106.99 0 C119.01 -1.2, 126.31 6.03, 128.33 21.34 M128.33 21.34 C129.69 36.44, 129.2 55.23, 128.33 64.01 M128.33 21.34 C127.62 35.16, 128.5 47.15, 128.33 64.01 M128.33 64.01 C129.5 78.05, 122.72 83.64, 106.99 85.35 M128.33 64.01 C127.49 79.47, 123.17 86.03, 106.99 85.35 M106.99 85.35 C79.16 85.37, 47.39 83.68, 21.34 85.35 M106.99 85.35 C81.04 84.95, 53.79 85, 21.34 85.35 M21.34 85.35 C7.8 85.9, -0.23 79.98, 0 64.01 M21.34 85.35 C7 83.33, 0.5 76.01, 0 64.01 M0 64.01 C1.1 47.61, -0.17 33.48, 0 21.34 M0 64.01 C0.13 53.43, 0.07 43.82, 0 21.34 M0 21.34 C-0.06 6, 6.26 -0.81, 21.34 0 M0 21.34 C-0.1 6.55, 8.92 1.77, 21.34 0" fill="none" stroke="#1e1e1e" stroke-width="1"></path></g><g transform="translate(243.16406250000006 403.56414068787035) rotate(0 50.4375 10)"><text direction="ltr" dominant-baseline="text-before-edge" fill="#1e1e1e" font-family="Virgil, Segoe UI Emoji" font-size="16px" style="white-space: pre;" text-anchor="middle" x="50.4375" y="0">Click Processor</text></g><g stroke-linecap="round"><g transform="translate(131.64453125 363.85320318787035) rotate(0 45.919921875 22.939453125)"><path d="M1.1 0.17 C16.2 7.79, 76.06 38.42, 91.13 45.89 M0.22 -0.78 C15.66 7.03, 78.4 39.67, 93.47 47.43" fill="none" stroke="#1e1e1e" stroke-width="1"></path></g><g transform="translate(131.64453125 363.85320318787035) rotate(0 45.919921875 22.939453125)"><path d="M63.71 43.58 C74.29 43.45, 84.29 45.45, 93.47 47.43 M63.71 43.58 C70.28 44.38, 77.45 46.2, 93.47 47.43" fill="none" stroke="#1e1e1e" stroke-width="1"></path></g><g transform="translate(131.64453125 363.85320318787035) rotate(0 45.919921875 22.939453125)"><path d="M73.15 25.35 C80.49 31.61, 87.23 39.91, 93.47 47.43 M73.15 25.35 C77.46 30.18, 82.53 36.07, 93.47 47.43" fill="none" stroke="#1e1e1e" stroke-width="1"></path></g></g><mask></mask><g stroke-linecap="round"><g transform="translate(369.85937499999983 413.57195318787035) rotate(0 12.25390625 -0.012888304629086633)"><path d="M-0.33 0 C3.65 -0.08, 20.3 -0.39, 24.37 -0.45 M0.51 -0.47 C4.36 -0.51, 19.75 -0.06, 23.86 0.04" fill="none" stroke="#1e1e1e" stroke-width="1"></path></g><g transform="translate(369.85937499999983 413.57195318787035) rotate(0 12.25390625 -0.012888304629086633)"><path d="M12.24 3.93 C16.8 2.28, 20.87 0.43, 23.86 0.04 M12.24 3.93 C15.2 3.23, 17.56 1.9, 23.86 0.04" fill="none" stroke="#1e1e1e" stroke-width="1"></path></g><g transform="translate(369.85937499999983 413.57195318787035) rotate(0 12.25390625 -0.012888304629086633)"><path d="M12.46 -4.45 C16.93 -2.82, 20.93 -1.39, 23.86 0.04 M12.46 -4.45 C15.36 -3.13, 17.67 -2.43, 23.86 0.04" fill="none" stroke="#1e1e1e" stroke-width="1"></path></g></g><mask></mask><g stroke-linecap="round" transform="translate(404.17578124999983 396.3739195565813) rotate(0 79.8203125 18.873046875)"><path d="M9.44 0 C41.78 -1.24, 76.01 0.25, 150.2 0 M9.44 0 C47.49 -1.55, 86.59 -1.5, 150.2 0 M150.2 0 C158.15 0.58, 160.33 4.38, 159.64 9.44 M150.2 0 C155.09 0.87, 161.06 3.18, 159.64 9.44 M159.64 9.44 C161.47 14.44, 159.84 18.41, 159.64 28.31 M159.64 9.44 C159.44 15.42, 160.58 20.68, 159.64 28.31 M159.64 28.31 C160.51 34.08, 157.19 39.35, 150.2 37.75 M159.64 28.31 C159.32 33.75, 154.23 38.06, 150.2 37.75 M150.2 37.75 C107.01 40.02, 63.92 39.71, 9.44 37.75 M150.2 37.75 C104.06 38.09, 58.23 38, 9.44 37.75 M9.44 37.75 C4.37 39.49, 1.57 36.07, 0 28.31 M9.44 37.75 C2.02 37.98, 0.36 33.24, 0 28.31 M0 28.31 C-0.51 22.68, 0.74 16.56, 0 9.44 M0 28.31 C0.04 23.47, 0.82 19.81, 0 9.44 M0 9.44 C-0.37 5, 3.79 -0.93, 9.44 0 M0 9.44 C1.22 4.24, 0.97 -0.52, 9.44 0" fill="none" stroke="#1e1e1e" stroke-width="1"></path></g><g transform="translate(459.99609374999983 405.2469664315813) rotate(0 24 10)"><text direction="ltr" dominant-baseline="text-before-edge" fill="#1e1e1e" font-family="Virgil, Segoe UI Emoji" font-size="16px" style="white-space: pre;" text-anchor="middle" x="24" y="0">Kinesis</text></g><g stroke-linecap="round"><g transform="translate(574.3437499999998 414.72583760007274) rotate(0 12.010718827765345 0.19367369831059023)"><path d="M-0.03 -0.13 C4.09 0.06, 20.36 0.75, 24.28 0.79 M-0.71 -0.67 C3.4 -0.6, 19.77 -0.17, 23.98 0.03" fill="none" stroke="#1e1e1e" stroke-width="1"></path></g><g transform="translate(574.3437499999998 414.72583760007274) rotate(0 12.010718827765345 0.19367369831059023)"><path d="M12.56 3.73 C14.95 3.2, 18.04 1.53, 23.98 0.03 M12.56 3.73 C15.65 2.93, 18.33 2.11, 23.98 0.03" fill="none" stroke="#1e1e1e" stroke-width="1"></path></g><g transform="translate(574.3437499999998 414.72583760007274) rotate(0 12.010718827765345 0.19367369831059023)"><path d="M12.85 -4.48 C15.15 -3.2, 18.18 -3.07, 23.98 0.03 M12.85 -4.48 C15.83 -3.25, 18.45 -2.03, 23.98 0.03" fill="none" stroke="#1e1e1e" stroke-width="1"></path></g></g><mask></mask><g stroke-linecap="round" transform="translate(607.7210028400939 381.16291826570523) rotate(0 40.23065809100831 37.686811470070325)"><path d="M18.84 0 C32.9 -2.12, 43 -1.96, 61.62 0 M18.84 0 C30.01 0.49, 39.86 0.25, 61.62 0 M61.62 0 C75.41 0.03, 78.63 6.51, 80.46 18.84 M61.62 0 C73.45 2.2, 81.76 6.5, 80.46 18.84 M80.46 18.84 C78.72 31.63, 81.49 47.57, 80.46 56.53 M80.46 18.84 C80.97 32.06, 80.48 43.31, 80.46 56.53 M80.46 56.53 C78.49 69.36, 74.31 74.47, 61.62 75.37 M80.46 56.53 C82.54 69.07, 75.33 75.46, 61.62 75.37 M61.62 75.37 C49.05 75.22, 31.24 75.75, 18.84 75.37 M61.62 75.37 C53.71 76.48, 43.74 75.85, 18.84 75.37 M18.84 75.37 C6.59 74.19, 0.19 68.28, 0 56.53 M18.84 75.37 C6.68 74.66, 0.26 69.9, 0 56.53 M0 56.53 C-0.6 45.24, -0.28 35.71, 0 18.84 M0 56.53 C0.39 41.86, 0.6 28.6, 0 18.84 M0 18.84 C-1.89 5.82, 6.97 -1.71, 18.84 0 M0 18.84 C0.28 5.31, 8.12 2.04, 18.84 0" fill="none" stroke="#1e1e1e" stroke-width="1"></path></g><g transform="translate(631.0571296811022 408.84972973577555) rotate(0 16.89453125 10)"><text direction="ltr" dominant-baseline="text-before-edge" fill="#1e1e1e" font-family="Virgil, Segoe UI Emoji" font-size="16px" style="white-space: pre;" text-anchor="middle" x="16.89453125" y="0">Flink</text></g><g stroke-linecap="round"><g transform="translate(646.5896876896929 376.8872341809001) rotate(0 0.15031034460486126 -26.344843432486414)"><path d="M-1.05 -0.57 C-0.65 -9.18, 1 -43.78, 1.29 -52.34 M0.59 1.75 C1.03 -7.19, 0.94 -45, 0.86 -54.28" fill="none" stroke="#1e1e1e" stroke-width="1"></path></g><g transform="translate(646.5896876896929 376.8872341809001) rotate(0 0.15031034460486126 -26.344843432486414)"><path d="M9.97 -29.56 C7.3 -33.03, 6.97 -39.03, 0.86 -54.28 M9.97 -29.56 C7.44 -38.45, 2.62 -47.3, 0.86 -54.28" fill="none" stroke="#1e1e1e" stroke-width="1"></path></g><g transform="translate(646.5896876896929 376.8872341809001) rotate(0 0.15031034460486126 -26.344843432486414)"><path d="M-8.05 -29.49 C-7.05 -32.81, -3.7 -38.83, 0.86 -54.28 M-8.05 -29.49 C-4.06 -38.48, -2.36 -47.34, 0.86 -54.28" fill="none" stroke="#1e1e1e" stroke-width="1"></path></g></g><mask></mask><g stroke-linecap="round" transform="translate(586.7019930864515 203.30074160587537) rotate(0 62.92936798114465 59.195253689893434)"><path d="M74.13 1.5 C83.31 2.08, 93.65 5.94, 101.33 11.38 C109.01 16.82, 115.97 25.55, 120.21 34.13 C124.44 42.71, 127.24 53.53, 126.73 62.83 C126.22 72.14, 122.3 82.06, 117.15 89.98 C112 97.89, 104.3 105.69, 95.84 110.34 C87.39 114.99, 76.03 117.24, 66.4 117.89 C56.78 118.54, 46.85 117.79, 38.12 114.23 C29.39 110.67, 20.23 103.78, 14.02 96.53 C7.81 89.28, 2.62 79.81, 0.87 70.7 C-0.89 61.6, 0.69 50.92, 3.49 41.92 C6.3 32.92, 10.96 23.21, 17.69 16.71 C24.41 10.21, 32.98 5, 43.84 2.9 C54.69 0.79, 74.84 3.17, 82.82 4.08 C90.8 5, 91.96 7.55, 91.7 8.39 M71.46 -0.76 C80.84 -0.9, 91.75 3.81, 99.84 9.58 C107.94 15.35, 115.51 25.24, 120.04 33.86 C124.57 42.47, 127.46 52.29, 127.03 61.27 C126.59 70.24, 122.26 80, 117.43 87.71 C112.6 95.43, 106.02 102.61, 98.06 107.57 C90.09 112.52, 79.33 116.43, 69.64 117.46 C59.95 118.48, 48.97 116.93, 39.92 113.72 C30.86 110.52, 21.71 105.27, 15.32 98.24 C8.92 91.22, 3.86 80.71, 1.55 71.58 C-0.77 62.46, -1.04 52.27, 1.45 43.48 C3.93 34.69, 9.56 25.33, 16.45 18.86 C23.33 12.39, 33.62 7.48, 42.76 4.66 C51.89 1.85, 66.41 2.55, 71.26 1.95 C76.11 1.34, 71.81 0.17, 71.85 1.03" fill="none" stroke="#1e1e1e" stroke-width="1"></path></g><g transform="translate(615.6296719823451 252.63862999758715) rotate(0 34.00390625 10)"><text direction="ltr" dominant-baseline="text-before-edge" fill="#1e1e1e" font-family="Virgil, Segoe UI Emoji" font-size="16px" style="white-space: pre;" text-anchor="middle" x="34.00390625" y="0">OLAP DB</text></g><g stroke-linecap="round" transform="translate(572.1618764582474 10) rotate(0 77.5434786312237 35.58840984914019)"><path d="M17.79 0 C58.53 1.96, 97.78 -1.1, 137.29 0 M17.79 0 C55.55 -1.05, 92.76 -1.24, 137.29 0 M137.29 0 C150.66 -1.71, 154.36 7, 155.09 17.79 M137.29 0 C151.11 0.68, 156.09 5.33, 155.09 17.79 M155.09 17.79 C154.63 27.74, 155.64 41.75, 155.09 53.38 M155.09 17.79 C155.91 26.89, 155.75 36.2, 155.09 53.38 M155.09 53.38 C154.85 66.98, 149.06 69.42, 137.29 71.18 M155.09 53.38 C155.58 63.02, 150.57 73.19, 137.29 71.18 M137.29 71.18 C92.28 70.9, 45.67 70.79, 17.79 71.18 M137.29 71.18 C106.41 71.15, 75.27 70.25, 17.79 71.18 M17.79 71.18 C5.08 70.37, -0.09 64.76, 0 53.38 M17.79 71.18 C7.74 72.95, -0.42 67.38, 0 53.38 M0 53.38 C1.12 39.66, -0.29 30.42, 0 17.79 M0 53.38 C0.76 46.64, 0.9 37.4, 0 17.79 M0 17.79 C1.41 7.69, 4.41 -1.24, 17.79 0 M0 17.79 C0.38 4.82, 8.21 1.53, 17.79 0" fill="none" stroke="#1e1e1e" stroke-width="1"></path></g><g transform="translate(595.7131675894711 35.58840984914019) rotate(0 53.9921875 10)"><text direction="ltr" dominant-baseline="text-before-edge" fill="#1e1e1e" font-family="Virgil, Segoe UI Emoji" font-size="16px" style="white-space: pre;" text-anchor="middle" x="53.9921875" y="0">Analyst Browser</text></g><g stroke-linecap="round" transform="translate(599.6143886513576 116.90008943763041) rotate(0 51.13453969928662 25)"><path d="M12.5 0 C40.66 0.07, 70.28 1.84, 89.77 0 M12.5 0 C37.17 -0.78, 59.98 0.61, 89.77 0 M89.77 0 C99.8 0.59, 103.14 3.64, 102.27 12.5 M89.77 0 C98.9 1.84, 101.95 3.32, 102.27 12.5 M102.27 12.5 C101.4 19.35, 102.28 23.58, 102.27 37.5 M102.27 12.5 C102.24 20.96, 102.31 26.8, 102.27 37.5 M102.27 37.5 C102.7 43.9, 99.33 51.75, 89.77 50 M102.27 37.5 C104.07 47.53, 96.98 50.24, 89.77 50 M89.77 50 C64.58 50.42, 40.39 50.3, 12.5 50 M89.77 50 C63.46 49.16, 37.96 49.33, 12.5 50 M12.5 50 C5.74 51.54, -0.37 47.69, 0 37.5 M12.5 50 C4.91 48.93, 1.22 46.93, 0 37.5 M0 37.5 C-1.66 32.61, -0.79 28.83, 0 12.5 M0 37.5 C0.47 28.67, -1 17.46, 0 12.5 M0 12.5 C0.33 3.2, 6.15 1.33, 12.5 0 M0 12.5 C1.28 5.12, 5.24 0.24, 12.5 0" fill="none" stroke="#1e1e1e" stroke-width="1"></path></g><g transform="translate(618.0887721006443 121.90008943763041) rotate(0 32.66015625 20)"><text direction="ltr" dominant-baseline="text-before-edge" fill="#1e1e1e" font-family="Virgil, Segoe UI Emoji" font-size="16px" style="white-space: pre;" text-anchor="middle" x="32.66015625" y="0">Analytics </text><text direction="ltr" dominant-baseline="text-before-edge" fill="#1e1e1e" font-family="Virgil, Segoe UI Emoji" font-size="16px" style="white-space: pre;" text-anchor="middle" x="32.66015625" y="20">Service</text></g><g stroke-linecap="round"><g transform="translate(651.8387477757826 86.79278662922206) rotate(0 -0.018329159458971844 11.669999486472648)"><path d="M0.31 0.05 C0.39 3.85, 0.27 19.48, 0.29 23.29 M-0.19 -0.4 C-0.15 3.72, -0.05 20.02, 0.02 23.96" fill="none" stroke="#1e1e1e" stroke-width="1"></path></g><g transform="translate(651.8387477757826 86.79278662922206) rotate(0 -0.018329159458971844 11.669999486472648)"><path d="M-4.09 13.04 C-2.88 16.3, -1.89 19.33, 0.02 23.96 M-4.09 13.04 C-2.98 15.46, -2.22 17.64, 0.02 23.96" fill="none" stroke="#1e1e1e" stroke-width="1"></path></g><g transform="translate(651.8387477757826 86.79278662922206) rotate(0 -0.018329159458971844 11.669999486472648)"><path d="M3.89 12.95 C2.96 16.26, 1.81 19.31, 0.02 23.96 M3.89 12.95 C3.29 15.41, 2.34 17.61, 0.02 23.96" fill="none" stroke="#1e1e1e" stroke-width="1"></path></g></g><mask></mask><g stroke-linecap="round"><g transform="translate(649.9316724129801 171.91437360933196) rotate(0 -0.38601381970147486 11.359815943839294)"><path d="M0.32 -0.05 C0.21 3.65, -0.14 18.41, -0.36 22.25 M-0.18 -0.56 C-0.35 3.19, -0.37 18.93, -0.58 22.71" fill="none" stroke="#1e1e1e" stroke-width="1"></path></g><g transform="translate(649.9316724129801 171.91437360933196) rotate(0 -0.38601381970147486 11.359815943839294)"><path d="M-4.21 11.94 C-2.96 16.19, -2.1 19.4, -0.58 22.71 M-4.21 11.94 C-2.75 15.66, -1.5 19.77, -0.58 22.71" fill="none" stroke="#1e1e1e" stroke-width="1"></path></g><g transform="translate(649.9316724129801 171.91437360933196) rotate(0 -0.38601381970147486 11.359815943839294)"><path d="M3.57 12.12 C2.04 16.34, 0.13 19.48, -0.58 22.71 M3.57 12.12 C2.27 15.8, 0.78 19.84, -0.58 22.71" fill="none" stroke="#1e1e1e" stroke-width="1"></path></g></g><mask></mask><g stroke-linecap="round" transform="translate(165.6910475452658 135.07889785719908) rotate(0 65.490234375 47.623046875)"><path d="M23.81 0 C51.99 -1.35, 84.66 1.07, 107.17 0 M23.81 0 C51.63 1.02, 78.61 -0.15, 107.17 0 M107.17 0 C121.08 0.27, 131.12 7.03, 130.98 23.81 M107.17 0 C125.12 -0.02, 132.13 8.02, 130.98 23.81 M130.98 23.81 C132.85 39.64, 129.35 56.1, 130.98 71.43 M130.98 23.81 C132.06 34.23, 130.78 43.28, 130.98 71.43 M130.98 71.43 C131.29 86.12, 123.24 94.43, 107.17 95.25 M130.98 71.43 C131.38 86.59, 123.3 96.05, 107.17 95.25 M107.17 95.25 C81.59 94.8, 57.15 96.46, 23.81 95.25 M107.17 95.25 C76.07 95.55, 44.86 96.5, 23.81 95.25 M23.81 95.25 C6.04 94.79, 0.69 85.6, 0 71.43 M23.81 95.25 C8.21 94.27, 1.84 89.34, 0 71.43 M0 71.43 C2.1 51.12, -0.89 34.18, 0 23.81 M0 71.43 C0.08 59.87, -0.01 47.57, 0 23.81 M0 23.81 C1.07 8.75, 8.37 1.76, 23.81 0 M0 23.81 C0.1 6.88, 5.8 0.94, 23.81 0" fill="none" stroke="#1e1e1e" stroke-width="1"></path></g><g transform="translate(184.0836256702658 162.70194473219908) rotate(0 47.09765625 20)"><text direction="ltr" dominant-baseline="text-before-edge" fill="#1e1e1e" font-family="Virgil, Segoe UI Emoji" font-size="16px" style="white-space: pre;" text-anchor="middle" x="47.09765625" y="0">Ad Placement </text><text direction="ltr" dominant-baseline="text-before-edge" fill="#1e1e1e" font-family="Virgil, Segoe UI Emoji" font-size="16px" style="white-space: pre;" text-anchor="middle" x="47.09765625" y="20">Service</text></g><g stroke-linecap="round" transform="translate(390.4530731571977 118.64664689480651) rotate(0 72.69127211417481 70.84147595836083)"><path d="M89.21 1.53 C99.18 2.38, 109.13 7.82, 117.28 14.19 C125.43 20.56, 133.5 30.24, 138.11 39.76 C142.72 49.28, 144.88 60.97, 144.93 71.29 C144.97 81.61, 142.79 92.5, 138.38 101.67 C133.96 110.83, 126.55 119.95, 118.42 126.29 C110.29 132.62, 99.69 137.41, 89.6 139.69 C79.5 141.96, 68.3 142.12, 57.84 139.96 C47.39 137.8, 35.42 132.95, 26.86 126.73 C18.29 120.5, 10.77 111.71, 6.44 102.6 C2.11 93.5, 0.66 82.51, 0.88 72.08 C1.09 61.65, 3.36 49.39, 7.73 40.03 C12.1 30.66, 19.15 22.24, 27.11 15.9 C35.06 9.55, 43.62 3.82, 55.46 1.98 C67.31 0.13, 89.58 3.43, 98.2 4.83 C106.83 6.24, 107.54 9.34, 107.23 10.41 M52.64 2.36 C62.25 -1.04, 75.86 0.15, 86.19 2.18 C96.52 4.21, 106.15 8.9, 114.6 14.54 C123.05 20.18, 131.62 27.14, 136.87 36 C142.11 44.87, 145.82 57.44, 146.07 67.73 C146.32 78.02, 142.46 88.62, 138.37 97.74 C134.28 106.87, 129.12 115.71, 121.54 122.47 C113.95 129.24, 102.85 135.07, 92.85 138.32 C82.86 141.57, 71.72 143.8, 61.57 141.99 C51.41 140.17, 40.51 133.38, 31.93 127.44 C23.34 121.49, 15.55 115.25, 10.06 106.3 C4.57 97.35, -0.33 84.31, -1.03 73.74 C-1.73 63.17, 1.36 52.01, 5.84 42.87 C10.32 33.74, 17.9 25.51, 25.85 18.92 C33.8 12.34, 48.88 5.8, 53.54 3.35 C58.2 0.9, 53.48 3.11, 53.81 4.25" fill="none" stroke="#1e1e1e" stroke-width="1"></path></g><g transform="translate(440.3532288263629 179.3956348137466) rotate(0 22.890625 10)"><text direction="ltr" dominant-baseline="text-before-edge" fill="#1e1e1e" font-family="Virgil, Segoe UI Emoji" font-size="16px" style="white-space: pre;" text-anchor="middle" x="22.890625" y="0">Ad DB</text></g><g transform="translate(398.8719355129402 18.796790023960966) rotate(0 60.903953552246094 40)"><text direction="ltr" dominant-baseline="text-before-edge" fill="#1e1e1e" font-family="Virgil, Segoe UI Emoji" font-size="16px" style="white-space: pre;" text-anchor="start" x="0" y="0">Advertisement:</text><text direction="ltr" dominant-baseline="text-before-edge" fill="#1e1e1e" font-family="Virgil, Segoe UI Emoji" font-size="16px" style="white-space: pre;" text-anchor="start" x="0" y="20">- AdId</text><text direction="ltr" dominant-baseline="text-before-edge" fill="#1e1e1e" font-family="Virgil, Segoe UI Emoji" font-size="16px" style="white-space: pre;" text-anchor="start" x="0" y="40">- RedirectUrl</text><text direction="ltr" dominant-baseline="text-before-edge" fill="#1e1e1e" font-family="Virgil, Segoe UI Emoji" font-size="16px" style="white-space: pre;" text-anchor="start" x="0" y="60">- ... metadata </text></g><g stroke-linecap="round"><g transform="translate(309.36848092311635 193.80088796116706) rotate(0 36.91240173703113 -0.18481720816680536)"><path d="M-0.17 -0.44 C11.87 -0.64, 60.3 -0.13, 72.64 -0.21 M-1.72 -1.72 C10.63 -1.78, 62.25 1.11, 74.74 1.41" fill="none" stroke="#1e1e1e" stroke-width="1"></path></g><g transform="translate(309.36848092311635 193.80088796116706) rotate(0 36.91240173703113 -0.18481720816680536)"><path d="M28.06 -10.61 C17.95 -9.21, 9.51 -3.71, -0.17 -0.44 M28.06 -10.61 C21.46 -7.99, 14.12 -5.16, -0.17 -0.44" fill="none" stroke="#1e1e1e" stroke-width="1"></path></g><g transform="translate(309.36848092311635 193.80088796116706) rotate(0 36.91240173703113 -0.18481720816680536)"><path d="M27.99 9.91 C17.74 4.44, 9.32 3.08, -0.17 -0.44 M27.99 9.91 C21.22 7.31, 13.9 4.91, -0.17 -0.44" fill="none" stroke="#1e1e1e" stroke-width="1"></path></g><g transform="translate(309.36848092311635 193.80088796116706) rotate(0 36.91240173703113 -0.18481720816680536)"><path d="M46.14 10.49 C54.9 5.52, 65.48 4.59, 74.74 1.41 M46.14 10.49 C53.84 8.22, 60.97 6.14, 74.74 1.41" fill="none" stroke="#1e1e1e" stroke-width="1"></path></g><g transform="translate(309.36848092311635 193.80088796116706) rotate(0 36.91240173703113 -0.18481720816680536)"><path d="M47 -10.02 C55.64 -8.12, 65.93 -2.19, 74.74 1.41 M47 -10.02 C54.67 -7.07, 61.58 -3.92, 74.74 1.41" fill="none" stroke="#1e1e1e" stroke-width="1"></path></g></g><mask></mask><g transform="translate(728.8489831247687 216.73699973711882) rotate(0 69.303955078125 40)"><text direction="ltr" dominant-baseline="text-before-edge" fill="#1e1e1e" font-family="Virgil, Segoe UI Emoji" font-size="16px" style="white-space: pre;" text-anchor="start" x="0" y="0">Aggregated Data</text><text direction="ltr" dominant-baseline="text-before-edge" fill="#1e1e1e" font-family="Virgil, Segoe UI Emoji" font-size="16px" style="white-space: pre;" text-anchor="start" x="0" y="20">- AdId</text><text direction="ltr" dominant-baseline="text-before-edge" fill="#1e1e1e" font-family="Virgil, Segoe UI Emoji" font-size="16px" style="white-space: pre;" text-anchor="start" x="0" y="40">- Minute</text><text direction="ltr" dominant-baseline="text-before-edge" fill="#1e1e1e" font-family="Virgil, Segoe UI Emoji" font-size="16px" style="white-space: pre;" text-anchor="start" x="0" y="60">- Click Count</text></g></svg>