<svg height="682.1096014240266" version="1.1" viewbox="0 0 1213.9192344114304 682.1096014240266" width="1213.9192344114304" xmlns="http://www.w3.org/2000/svg">
<!-- svg-source:excalidraw -->
<!-- payload-type:application/vnd.excalidraw+json --><!-- payload-version:2 -->
<defs>
<style class="style-fonts">
</style>
</defs>
<rect fill="#ffffff" height="682.1096014240266" width="1213.9192344114304" x="0" y="0"></rect><g stroke-linecap="round" transform="translate(399.1152757098577 383.00692392068686) rotate(0 64.1640625 42.67578125)"><path d="M21.34 0 C54.6 -1.47, 86.13 -1.55, 106.99 0 M21.34 0 C38.75 0.41, 55.29 0.39, 106.99 0 M106.99 0 C121.99 0.1, 130.28 5.45, 128.33 21.34 M106.99 0 C122.62 -1.33, 129.09 7.12, 128.33 21.34 M128.33 21.34 C128.73 38.03, 130.02 53.44, 128.33 64.01 M128.33 21.34 C128.4 34.23, 127.83 45.96, 128.33 64.01 M128.33 64.01 C128.79 77.75, 120.66 86.06, 106.99 85.35 M128.33 64.01 C126.37 76.14, 122.88 86.34, 106.99 85.35 M106.99 85.35 C79.45 85.23, 47.11 84.82, 21.34 85.35 M106.99 85.35 C88.7 87, 70.16 86.25, 21.34 85.35 M21.34 85.35 C7.91 83.61, -0.02 76.72, 0 64.01 M21.34 85.35 C5.39 83.34, 0.83 78.82, 0 64.01 M0 64.01 C0.12 48.91, 1.5 32.74, 0 21.34 M0 64.01 C-0.77 48, -0.11 32.32, 0 21.34 M0 21.34 C-0.51 5.17, 7.03 -1.62, 21.34 0 M0 21.34 C0.07 5.51, 6.81 1.27, 21.34 0" fill="none" stroke="#1e1e1e" stroke-width="1"></path></g><g transform="translate(412.8418382098577 415.68270517068686) rotate(0 50.4375 10)"><text direction="ltr" dominant-baseline="text-before-edge" fill="#1e1e1e" font-family="Virgil, Segoe UI Emoji" font-size="16px" style="white-space: pre;" text-anchor="middle" x="50.4375" y="0">Click Processor</text></g><g stroke-linecap="round"><g transform="translate(539.681427027597 423.7170963345252) rotate(0 12.189072306922242 -0.19957899977089255)"><path d="M-0.48 -0.53 C3.65 -0.53, 20.19 -0.49, 24.34 -0.43 M0.28 0.38 C4.37 0.52, 19.92 0.51, 23.88 0.25" fill="none" stroke="#1e1e1e" stroke-width="1"></path></g><g transform="translate(539.681427027597 423.7170963345252) rotate(0 12.189072306922242 -0.19957899977089255)"><path d="M12.55 4.74 C14.44 3.76, 17.46 2.85, 23.88 0.25 M12.55 4.74 C16.49 3.23, 20.47 1.45, 23.88 0.25" fill="none" stroke="#1e1e1e" stroke-width="1"></path></g><g transform="translate(539.681427027597 423.7170963345252) rotate(0 12.189072306922242 -0.19957899977089255)"><path d="M12.32 -3.6 C14.22 -2.76, 17.29 -1.86, 23.88 0.25 M12.32 -3.6 C16.3 -2.31, 20.36 -1.29, 23.88 0.25" fill="none" stroke="#1e1e1e" stroke-width="1"></path></g></g><mask></mask><g stroke-linecap="round" transform="translate(573.7238890737021 404.7372919106965) rotate(0 79.8203125 18.873046875)"><path d="M9.44 0 C39.34 0.16, 70.18 -1.54, 150.2 0 M9.44 0 C57.46 -0.9, 104.15 -0.64, 150.2 0 M150.2 0 C157.16 0.01, 160.82 3.28, 159.64 9.44 M150.2 0 C157.09 0.43, 161.23 5.06, 159.64 9.44 M159.64 9.44 C161.19 16, 161.13 21.99, 159.64 28.31 M159.64 9.44 C159.42 16.3, 158.88 21.64, 159.64 28.31 M159.64 28.31 C161.09 35.46, 157.33 37.68, 150.2 37.75 M159.64 28.31 C159.58 36.6, 156.38 36.23, 150.2 37.75 M150.2 37.75 C113.34 38.26, 74.63 37.37, 9.44 37.75 M150.2 37.75 C106.22 35.76, 61.5 35.65, 9.44 37.75 M9.44 37.75 C3.87 38.25, 1.17 33.32, 0 28.31 M9.44 37.75 C1.57 37.57, 0.22 36.01, 0 28.31 M0 28.31 C1.59 21.79, 0.1 18.01, 0 9.44 M0 28.31 C0.01 20.77, 0.08 14.1, 0 9.44 M0 9.44 C-0.27 4.25, 4.79 1.1, 9.44 0 M0 9.44 C-0.66 2.65, 2.82 -2.02, 9.44 0" fill="none" stroke="#1e1e1e" stroke-width="1"></path></g><g transform="translate(629.5442015737021 413.6103387856965) rotate(0 24 10)"><text direction="ltr" dominant-baseline="text-before-edge" fill="#1e1e1e" font-family="Virgil, Segoe UI Emoji" font-size="16px" style="white-space: pre;" text-anchor="middle" x="24" y="0">Kinesis</text></g><g stroke-linecap="round"><g transform="translate(743.8918578237021 418.69016807719254) rotate(0 11.866442510026047 -0.2482063744369043)"><path d="M-0.45 0.19 C3.54 0.08, 19.82 -0.28, 23.94 -0.47 M0.32 -0.19 C4.25 -0.22, 19.64 0.31, 23.62 0.24" fill="none" stroke="#1e1e1e" stroke-width="1"></path></g><g transform="translate(743.8918578237021 418.69016807719254) rotate(0 11.866442510026047 -0.2482063744369043)"><path d="M12.42 4.17 C16.01 3.26, 19.22 2.42, 23.62 0.24 M12.42 4.17 C14.94 3.35, 17.45 2.52, 23.62 0.24" fill="none" stroke="#1e1e1e" stroke-width="1"></path></g><g transform="translate(743.8918578237021 418.69016807719254) rotate(0 11.866442510026047 -0.2482063744369043)"><path d="M12.52 -3.95 C16.09 -2.4, 19.28 -0.79, 23.62 0.24 M12.52 -3.95 C15.04 -3, 17.53 -2.08, 23.62 0.24" fill="none" stroke="#1e1e1e" stroke-width="1"></path></g></g><mask></mask><g stroke-linecap="round" transform="translate(776.9805580283175 382.421488040487) rotate(0 40.23065809100831 37.686811470070325)"><path d="M18.84 0 C28.25 1.78, 35.81 1.06, 61.62 0 M18.84 0 C29.8 0.07, 39.83 0.19, 61.62 0 M61.62 0 C75.56 1.67, 81.93 5.94, 80.46 18.84 M61.62 0 C75.96 1.93, 79.87 8.14, 80.46 18.84 M80.46 18.84 C80.15 26.5, 81.34 33.55, 80.46 56.53 M80.46 18.84 C81.15 26.68, 80.71 35.45, 80.46 56.53 M80.46 56.53 C80.36 67.77, 73.67 73.6, 61.62 75.37 M80.46 56.53 C81.93 71.17, 73.73 77.39, 61.62 75.37 M61.62 75.37 C49.77 75.52, 39.88 74.05, 18.84 75.37 M61.62 75.37 C53.12 74.84, 42.76 75.4, 18.84 75.37 M18.84 75.37 C6.48 76.6, -0.67 70.66, 0 56.53 M18.84 75.37 C6.21 77.49, -1.81 69.39, 0 56.53 M0 56.53 C-2.17 45.62, -1.84 34.92, 0 18.84 M0 56.53 C0.87 48.4, -0.24 38.96, 0 18.84 M0 18.84 C-0.28 4.53, 4.49 0.5, 18.84 0 M0 18.84 C1.99 4.33, 6.59 1.34, 18.84 0" fill="none" stroke="#1e1e1e" stroke-width="1"></path></g><g transform="translate(800.3166848693259 410.10829951055734) rotate(0 16.89453125 10)"><text direction="ltr" dominant-baseline="text-before-edge" fill="#1e1e1e" font-family="Virgil, Segoe UI Emoji" font-size="16px" style="white-space: pre;" text-anchor="middle" x="16.89453125" y="0">Flink</text></g><g stroke-linecap="round"><g transform="translate(815.846939893381 378.1458039556828) rotate(0 0.15276288302800367 -26.974080749090263)"><path d="M0.73 -0.69 C0.66 -9.52, 0.66 -45.08, 0.71 -53.94 M-0.34 1.56 C-0.64 -6.97, -0.19 -43.39, -0.03 -52.4" fill="none" stroke="#1e1e1e" stroke-width="1"></path></g><g transform="translate(815.846939893381 378.1458039556828) rotate(0 0.15276288302800367 -26.974080749090263)"><path d="M8.84 -26.93 C4.37 -36.33, 2.01 -45.95, -0.03 -52.4 M8.84 -26.93 C6.74 -33.89, 4.07 -42.71, -0.03 -52.4" fill="none" stroke="#1e1e1e" stroke-width="1"></path></g><g transform="translate(815.846939893381 378.1458039556828) rotate(0 0.15276288302800367 -26.974080749090263)"><path d="M-9.61 -27.18 C-6.75 -36.6, -1.78 -46.11, -0.03 -52.4 M-9.61 -27.18 C-6.05 -34.11, -3.06 -42.84, -0.03 -52.4" fill="none" stroke="#1e1e1e" stroke-width="1"></path></g></g><mask></mask><g stroke-linecap="round" transform="translate(755.9615482746751 203.30074160587537) rotate(0 62.92936798114462 59.195253689893434)"><path d="M81.37 3.23 C90.63 5, 101.02 11.3, 107.91 17.75 C114.8 24.19, 119.72 33.35, 122.69 41.91 C125.67 50.48, 127.27 60.38, 125.75 69.15 C124.23 77.92, 119.59 87.17, 113.58 94.51 C107.56 101.86, 98.7 109.3, 89.67 113.22 C80.64 117.14, 69.13 118.7, 59.38 118.03 C49.63 117.37, 39.65 113.76, 31.15 109.24 C22.66 104.73, 13.52 98.54, 8.42 90.94 C3.32 83.34, 1.1 72.93, 0.58 63.65 C0.06 54.38, 1.31 43.77, 5.31 35.3 C9.32 26.83, 17.08 18.59, 24.6 12.84 C32.12 7.09, 40.08 2.04, 50.44 0.8 C60.8 -0.44, 79.47 4.12, 86.74 5.39 C94.01 6.66, 94.19 7.75, 94.07 8.44 M66.82 -1.02 C75.83 -1.36, 86.02 2.26, 94.45 7.27 C102.88 12.28, 112.02 21.12, 117.38 29.03 C122.74 36.95, 126.32 45.69, 126.63 54.76 C126.94 63.83, 123.38 74.79, 119.25 83.46 C115.11 92.13, 109.4 100.91, 101.8 106.77 C94.21 112.63, 83.29 116.9, 73.67 118.61 C64.05 120.33, 53.48 119.97, 44.07 117.06 C34.65 114.16, 24.09 107.76, 17.18 101.18 C10.27 94.6, 5.38 86.63, 2.63 77.6 C-0.12 68.56, -1.13 56.34, 0.67 46.97 C2.46 37.61, 7.3 28.54, 13.4 21.4 C19.49 14.26, 28.37 7.54, 37.24 4.13 C46.11 0.72, 61.51 1.28, 66.63 0.94 C71.76 0.61, 68.09 1.33, 67.99 2.12" fill="none" stroke="#1e1e1e" stroke-width="1"></path></g><g transform="translate(784.8892271705688 252.63862999758715) rotate(0 34.00390625 10)"><text direction="ltr" dominant-baseline="text-before-edge" fill="#1e1e1e" font-family="Virgil, Segoe UI Emoji" font-size="16px" style="white-space: pre;" text-anchor="middle" x="34.00390625" y="0">OLAP DB</text></g><g stroke-linecap="round" transform="translate(741.4214316464711 10) rotate(0 77.54347863122368 35.58840984914019)"><path d="M17.79 0 C61.05 1.07, 105.22 1.17, 137.29 0 M17.79 0 C51.37 -0.19, 84.63 -0.54, 137.29 0 M137.29 0 C149.62 -0.49, 154.54 6.64, 155.09 17.79 M137.29 0 C147.2 -2.1, 156.76 6.92, 155.09 17.79 M155.09 17.79 C156.81 29.86, 153.75 41.62, 155.09 53.38 M155.09 17.79 C155.12 26.19, 154.68 32.96, 155.09 53.38 M155.09 53.38 C155.88 63.51, 149.13 69.66, 137.29 71.18 M155.09 53.38 C153.37 63.23, 149.99 71.76, 137.29 71.18 M137.29 71.18 C94.28 70.55, 52.81 69.69, 17.79 71.18 M137.29 71.18 C91.3 72.41, 46.76 72.87, 17.79 71.18 M17.79 71.18 C5.42 69.23, -0.08 63.62, 0 53.38 M17.79 71.18 C6 69.57, -0.31 66.52, 0 53.38 M0 53.38 C-0.62 39.5, -1.95 24.4, 0 17.79 M0 53.38 C-0.17 42.4, 0.24 29.77, 0 17.79 M0 17.79 C0.75 5.29, 5.12 1.81, 17.79 0 M0 17.79 C-0.26 5.26, 5.22 1.62, 17.79 0" fill="none" stroke="#1e1e1e" stroke-width="1"></path></g><g transform="translate(764.9727227776948 35.58840984914019) rotate(0 53.9921875 10)"><text direction="ltr" dominant-baseline="text-before-edge" fill="#1e1e1e" font-family="Virgil, Segoe UI Emoji" font-size="16px" style="white-space: pre;" text-anchor="middle" x="53.9921875" y="0">Analyst Browser</text></g><g stroke-linecap="round" transform="translate(768.8739438395812 116.90008943763041) rotate(0 51.13453969928662 25)"><path d="M12.5 0 C40.68 0.98, 71.21 -1.08, 89.77 0 M12.5 0 C42.15 -0.6, 71.06 0, 89.77 0 M89.77 0 C96.4 -1.83, 103.72 5.03, 102.27 12.5 M89.77 0 C99.06 -0.07, 102.21 6.16, 102.27 12.5 M102.27 12.5 C100.33 21.15, 103.91 26.86, 102.27 37.5 M102.27 12.5 C102.51 21.32, 102.1 31.12, 102.27 37.5 M102.27 37.5 C100.77 44.08, 98.83 50.5, 89.77 50 M102.27 37.5 C103.62 44.36, 96.53 49.82, 89.77 50 M89.77 50 C67.4 49.68, 43.74 48.17, 12.5 50 M89.77 50 C65.32 49.48, 41.35 49.65, 12.5 50 M12.5 50 C4.23 48.61, -0.27 46.94, 0 37.5 M12.5 50 C6.06 51.26, -0.66 45.34, 0 37.5 M0 37.5 C0.72 32.08, -1.47 23.48, 0 12.5 M0 37.5 C0.24 28.22, -0.54 20.49, 0 12.5 M0 12.5 C-0.22 3.58, 3.54 1.41, 12.5 0 M0 12.5 C0.49 2.07, 5.28 0.26, 12.5 0" fill="none" stroke="#1e1e1e" stroke-width="1"></path></g><g transform="translate(787.348327288868 121.90008943763041) rotate(0 32.66015625 20)"><text direction="ltr" dominant-baseline="text-before-edge" fill="#1e1e1e" font-family="Virgil, Segoe UI Emoji" font-size="16px" style="white-space: pre;" text-anchor="middle" x="32.66015625" y="0">Analytics </text><text direction="ltr" dominant-baseline="text-before-edge" fill="#1e1e1e" font-family="Virgil, Segoe UI Emoji" font-size="16px" style="white-space: pre;" text-anchor="middle" x="32.66015625" y="20">Service</text></g><g stroke-linecap="round"><g transform="translate(821.0983029640063 86.79278662922206) rotate(0 -0.018329159458971844 11.669999486472648)"><path d="M-0.14 0.44 C-0.29 4.3, -0.53 19.8, -0.49 23.59 M0.79 0.2 C0.76 4.13, 0.67 18.84, 0.51 22.76" fill="none" stroke="#1e1e1e" stroke-width="1"></path></g><g transform="translate(821.0983029640063 86.79278662922206) rotate(0 -0.018329159458971844 11.669999486472648)"><path d="M-3.24 11.71 C-1.31 15.4, -0.09 20.19, 0.51 22.76 M-3.24 11.71 C-2.47 14.48, -0.98 17.92, 0.51 22.76" fill="none" stroke="#1e1e1e" stroke-width="1"></path></g><g transform="translate(821.0983029640063 86.79278662922206) rotate(0 -0.018329159458971844 11.669999486472648)"><path d="M4.74 11.88 C3.66 15.5, 1.86 20.22, 0.51 22.76 M4.74 11.88 C3.31 14.62, 2.6 18.01, 0.51 22.76" fill="none" stroke="#1e1e1e" stroke-width="1"></path></g></g><mask></mask><g stroke-linecap="round"><g transform="translate(819.1912276012038 171.91437360933196) rotate(0 -0.38601381970147486 11.359815943839294)"><path d="M-0.45 0.25 C-0.54 3.94, -0.57 18.81, -0.64 22.59 M0.32 -0.09 C0.18 3.64, -0.73 19.54, -1.01 23.22" fill="none" stroke="#1e1e1e" stroke-width="1"></path></g><g transform="translate(819.1912276012038 171.91437360933196) rotate(0 -0.38601381970147486 11.359815943839294)"><path d="M-4.2 12.31 C-3.02 15.45, -2.54 18.15, -1.01 23.22 M-4.2 12.31 C-2.97 16.1, -1.99 19.63, -1.01 23.22" fill="none" stroke="#1e1e1e" stroke-width="1"></path></g><g transform="translate(819.1912276012038 171.91437360933196) rotate(0 -0.38601381970147486 11.359815943839294)"><path d="M3.56 12.81 C2.61 15.78, 0.96 18.34, -1.01 23.22 M3.56 12.81 C2.19 16.4, 0.57 19.76, -1.01 23.22" fill="none" stroke="#1e1e1e" stroke-width="1"></path></g></g><mask></mask><g stroke-linecap="round" transform="translate(334.9506027334896 135.07889785719908) rotate(0 65.490234375 47.623046875)"><path d="M23.81 0 C41.47 -0.75, 60.81 -1.89, 107.17 0 M23.81 0 C41.63 -0.39, 58.59 0.51, 107.17 0 M107.17 0 C122.94 -1.32, 130.47 6.16, 130.98 23.81 M107.17 0 C124.51 2.07, 130.53 9.95, 130.98 23.81 M130.98 23.81 C129.3 35.05, 129.52 44.83, 130.98 71.43 M130.98 23.81 C131.74 33.29, 130.47 43.97, 130.98 71.43 M130.98 71.43 C131.18 88.54, 122.37 96.81, 107.17 95.25 M130.98 71.43 C130.91 89.43, 121.24 95.55, 107.17 95.25 M107.17 95.25 C81.26 94.96, 57.62 95.09, 23.81 95.25 M107.17 95.25 C88.79 96.26, 68.49 95.49, 23.81 95.25 M23.81 95.25 C7.65 93.49, -1.79 87.81, 0 71.43 M23.81 95.25 C9.93 93.3, 0.31 88.65, 0 71.43 M0 71.43 C-0.41 53.74, 2.03 37.43, 0 23.81 M0 71.43 C0.36 57.64, 0.63 45.77, 0 23.81 M0 23.81 C-1.24 6.99, 9.2 -1.83, 23.81 0 M0 23.81 C2.06 10.19, 9.67 -1.53, 23.81 0" fill="none" stroke="#1e1e1e" stroke-width="1"></path></g><g transform="translate(353.3431808584896 162.70194473219908) rotate(0 47.09765625 20)"><text direction="ltr" dominant-baseline="text-before-edge" fill="#1e1e1e" font-family="Virgil, Segoe UI Emoji" font-size="16px" style="white-space: pre;" text-anchor="middle" x="47.09765625" y="0">Ad Placement </text><text direction="ltr" dominant-baseline="text-before-edge" fill="#1e1e1e" font-family="Virgil, Segoe UI Emoji" font-size="16px" style="white-space: pre;" text-anchor="middle" x="47.09765625" y="20">Service</text></g><g stroke-linecap="round" transform="translate(559.7126283454215 118.64664689480651) rotate(0 72.69127211417481 70.84147595836083)"><path d="M98.46 4.59 C108.26 6.97, 119.16 14.64, 126.29 22.03 C133.42 29.43, 138.33 39.09, 141.25 48.96 C144.17 58.83, 144.99 71.1, 143.8 81.26 C142.61 91.42, 139.64 101.58, 134.1 109.9 C128.57 118.22, 119.78 125.84, 110.61 131.16 C101.43 136.48, 89.82 140.84, 79.05 141.82 C68.29 142.8, 55.99 140.89, 46.02 137.06 C36.04 133.23, 26.44 126.22, 19.2 118.85 C11.96 111.48, 5.64 102.37, 2.6 92.84 C-0.45 83.3, -0.54 71.97, 0.95 61.65 C2.44 51.33, 5.77 39.51, 11.54 30.9 C17.31 22.29, 26.32 15.15, 35.57 9.99 C44.83 4.82, 56.16 0.72, 67.07 -0.07 C77.98 -0.86, 95.15 4.16, 101.02 5.26 C106.9 6.35, 102.87 5.43, 102.31 6.51 M93.78 1.85 C103.72 3.73, 114.25 10.39, 121.96 17.67 C129.68 24.95, 135.97 35.69, 140.05 45.53 C144.13 55.36, 147.21 66.65, 146.43 76.67 C145.65 86.7, 140.82 97.16, 135.36 105.69 C129.9 114.23, 122.48 121.98, 113.67 127.9 C104.85 133.82, 92.61 139.65, 82.47 141.23 C72.33 142.8, 62.64 140.25, 52.84 137.35 C43.04 134.45, 31.48 130.68, 23.67 123.84 C15.85 117, 9.77 106.03, 5.95 96.28 C2.13 86.53, 0.24 75.23, 0.75 65.35 C1.25 55.48, 3.89 45.91, 8.99 37.02 C14.08 28.14, 22.65 17.89, 31.33 12.03 C40.02 6.17, 50.63 3.61, 61.1 1.89 C71.57 0.17, 88.65 1.25, 94.16 1.7 C99.66 2.15, 94.71 3.35, 94.14 4.59" fill="none" stroke="#1e1e1e" stroke-width="1"></path></g><g transform="translate(609.6127840145866 179.39563481374663) rotate(0 22.890625 10)"><text direction="ltr" dominant-baseline="text-before-edge" fill="#1e1e1e" font-family="Virgil, Segoe UI Emoji" font-size="16px" style="white-space: pre;" text-anchor="middle" x="22.890625" y="0">Ad DB</text></g><g transform="translate(568.131490701164 18.796790023960966) rotate(0 60.903953552246094 40)"><text direction="ltr" dominant-baseline="text-before-edge" fill="#1e1e1e" font-family="Virgil, Segoe UI Emoji" font-size="16px" style="white-space: pre;" text-anchor="start" x="0" y="0">Advertisement:</text><text direction="ltr" dominant-baseline="text-before-edge" fill="#1e1e1e" font-family="Virgil, Segoe UI Emoji" font-size="16px" style="white-space: pre;" text-anchor="start" x="0" y="20">- AdId</text><text direction="ltr" dominant-baseline="text-before-edge" fill="#1e1e1e" font-family="Virgil, Segoe UI Emoji" font-size="16px" style="white-space: pre;" text-anchor="start" x="0" y="40">- RedirectUrl</text><text direction="ltr" dominant-baseline="text-before-edge" fill="#1e1e1e" font-family="Virgil, Segoe UI Emoji" font-size="16px" style="white-space: pre;" text-anchor="start" x="0" y="60">- ... metadata </text></g><g stroke-linecap="round"><g transform="translate(478.6280361113401 193.80088796116706) rotate(0 36.91240173703113 -0.18481720816680536)"><path d="M-0.03 1.04 C12.18 0.85, 61.51 -0.75, 73.76 -1.16 M-1.51 0.54 C10.5 0.49, 60.43 0.16, 72.79 -0.04" fill="none" stroke="#1e1e1e" stroke-width="1"></path></g><g transform="translate(478.6280361113401 193.80088796116706) rotate(0 36.91240173703113 -0.18481720816680536)"><path d="M27.85 -10.03 C20.05 -6.35, 7.46 -2.97, -0.03 1.04 M27.85 -10.03 C21.84 -6.56, 15.5 -4.98, -0.03 1.04" fill="none" stroke="#1e1e1e" stroke-width="1"></path></g><g transform="translate(478.6280361113401 193.80088796116706) rotate(0 36.91240173703113 -0.18481720816680536)"><path d="M28.44 10.48 C20.45 7.15, 7.66 3.51, -0.03 1.04 M28.44 10.48 C22.17 9.62, 15.72 6.88, -0.03 1.04" fill="none" stroke="#1e1e1e" stroke-width="1"></path></g><g transform="translate(478.6280361113401 193.80088796116706) rotate(0 36.91240173703113 -0.18481720816680536)"><path d="M44.71 10.52 C56.04 6.82, 62.59 2.8, 72.79 -0.04 M44.71 10.52 C50.38 8.91, 55.87 5.93, 72.79 -0.04" fill="none" stroke="#1e1e1e" stroke-width="1"></path></g><g transform="translate(478.6280361113401 193.80088796116706) rotate(0 36.91240173703113 -0.18481720816680536)"><path d="M44.49 -10 C55.89 -6.69, 62.51 -3.69, 72.79 -0.04 M44.49 -10 C50.33 -7.27, 55.87 -5.92, 72.79 -0.04" fill="none" stroke="#1e1e1e" stroke-width="1"></path></g></g><mask></mask><g transform="translate(900.3971322767741 165.16319025809753) rotate(0 76.64793395996094 50)"><text direction="ltr" dominant-baseline="text-before-edge" fill="#1e1e1e" font-family="Virgil, Segoe UI Emoji" font-size="16px" style="white-space: pre;" text-anchor="start" x="0" y="0">Aggregated Data</text><text direction="ltr" dominant-baseline="text-before-edge" fill="#1e1e1e" font-family="Virgil, Segoe UI Emoji" font-size="16px" style="white-space: pre;" text-anchor="start" x="0" y="20">- AdId</text><text direction="ltr" dominant-baseline="text-before-edge" fill="#1e1e1e" font-family="Virgil, Segoe UI Emoji" font-size="16px" style="white-space: pre;" text-anchor="start" x="0" y="40">- AdvertiserId (PK)</text><text direction="ltr" dominant-baseline="text-before-edge" fill="#1e1e1e" font-family="Virgil, Segoe UI Emoji" font-size="16px" style="white-space: pre;" text-anchor="start" x="0" y="60">- Minute (SK)</text><text direction="ltr" dominant-baseline="text-before-edge" fill="#1e1e1e" font-family="Virgil, Segoe UI Emoji" font-size="16px" style="white-space: pre;" text-anchor="start" x="0" y="80">- Click Count</text></g><g transform="translate(410.4193573604496 314.0709607156632) rotate(0 183.97589111328125 30)"><text direction="ltr" dominant-baseline="text-before-edge" fill="#1e1e1e" font-family="Virgil, Segoe UI Emoji" font-size="16px" style="white-space: pre;" text-anchor="start" x="0" y="0">- Both Kinesis and Flink partition by AdId with</text><text direction="ltr" dominant-baseline="text-before-edge" fill="#1e1e1e" font-family="Virgil, Segoe UI Emoji" font-size="16px" style="white-space: pre;" text-anchor="start" x="0" y="20">   celebrity solution for hot shards</text><text direction="ltr" dominant-baseline="text-before-edge" fill="#1e1e1e" font-family="Virgil, Segoe UI Emoji" font-size="16px" style="white-space: pre;" text-anchor="start" x="0" y="40">- 7 day retention period on Kinesis</text></g><g stroke-linecap="round" transform="translate(199.26532885268892 169.81391348717625) rotate(0 41.82508274689235 135.50951017640364)"><path d="M20.91 0 C34.2 -0.66, 45.64 -1.54, 62.74 0 M20.91 0 C33.97 -0.4, 46.3 -0.51, 62.74 0 M62.74 0 C77.4 0.5, 84.82 5.69, 83.65 20.91 M62.74 0 C75.11 -0.18, 83.87 8.38, 83.65 20.91 M83.65 20.91 C86.75 80.67, 85.4 142.9, 83.65 250.11 M83.65 20.91 C83.12 102.51, 83.18 184.9, 83.65 250.11 M83.65 250.11 C83.38 265.16, 78.32 272.12, 62.74 271.02 M83.65 250.11 C82.99 263.55, 76.35 269, 62.74 271.02 M62.74 271.02 C52.24 271.65, 46.29 272.47, 20.91 271.02 M62.74 271.02 C51.76 271.79, 41.48 270.59, 20.91 271.02 M20.91 271.02 C6.35 272.43, 0.42 262.23, 0 250.11 M20.91 271.02 C8.09 271.28, -1.43 262.96, 0 250.11 M0 250.11 C3.45 168.16, 0.66 84.95, 0 20.91 M0 250.11 C-0.53 166.08, -1.45 81.37, 0 20.91 M0 20.91 C-0.1 6.98, 7.07 0.9, 20.91 0 M0 20.91 C1.58 5.66, 4.82 -1.55, 20.91 0" fill="none" stroke="#1e1e1e" stroke-width="1"></path></g><g transform="translate(205.75447409958127 285.3234236635799) rotate(0 35.3359375 20)"><text direction="ltr" dominant-baseline="text-before-edge" fill="#1e1e1e" font-family="Virgil, Segoe UI Emoji" font-size="16px" style="white-space: pre;" text-anchor="middle" x="35.3359375" y="0">LB &amp; API </text><text direction="ltr" dominant-baseline="text-before-edge" fill="#1e1e1e" font-family="Virgil, Segoe UI Emoji" font-size="16px" style="white-space: pre;" text-anchor="middle" x="35.3359375" y="20">Gateway</text></g><g stroke-linecap="round" transform="translate(10 259.64809044298363) rotate(0 55.986328125 44.6328125)"><path d="M22.32 0 C41.46 1.22, 58.37 0.41, 89.66 0 M22.32 0 C37.77 0.84, 53.08 -0.05, 89.66 0 M89.66 0 C103.17 -0.16, 112.17 8.67, 111.97 22.32 M89.66 0 C103.77 1.8, 111.91 9.56, 111.97 22.32 M111.97 22.32 C113.21 31.69, 110.09 42, 111.97 66.95 M111.97 22.32 C111.85 32.64, 112.81 42.41, 111.97 66.95 M111.97 66.95 C111.4 81.4, 104.25 87.51, 89.66 89.27 M111.97 66.95 C109.92 82.4, 106.52 87.32, 89.66 89.27 M89.66 89.27 C67.6 90.39, 46.78 88.83, 22.32 89.27 M89.66 89.27 C63.05 89.77, 37.28 88.16, 22.32 89.27 M22.32 89.27 C8.41 89.49, -1.24 80.88, 0 66.95 M22.32 89.27 C8.89 87.16, 2.06 84.08, 0 66.95 M0 66.95 C1.64 51.13, -1 34.35, 0 22.32 M0 66.95 C0.23 53.15, 0.33 39.79, 0 22.32 M0 22.32 C1.37 6.3, 5.57 -1.35, 22.32 0 M0 22.32 C1.38 8.96, 7.37 -1.01, 22.32 0" fill="none" stroke="#1e1e1e" stroke-width="1"></path></g><g transform="translate(38.880859375 294.28090294298363) rotate(0 27.10546875 10)"><text direction="ltr" dominant-baseline="text-before-edge" fill="#1e1e1e" font-family="Virgil, Segoe UI Emoji" font-size="16px" style="white-space: pre;" text-anchor="middle" x="27.10546875" y="0">Browser</text></g><g stroke-linecap="round"><g transform="translate(134.99271419461374 303.97266727642545) rotate(0 28.49354597393547 0.061418079753821075)"><path d="M-0.01 -0.91 C9.26 -0.89, 46.52 -1.15, 56.09 -0.93 M-1.48 1.23 C8.12 1.45, 48.6 -0.06, 58.33 0.06" fill="none" stroke="#1e1e1e" stroke-width="1"></path></g><g transform="translate(134.99271419461374 303.97266727642545) rotate(0 28.49354597393547 0.061418079753821075)"><path d="M26.74 -10.73 C16.05 -8.89, 6.72 -3.34, -0.01 -0.91 M26.74 -10.73 C17.41 -7.78, 9.5 -3.9, -0.01 -0.91" fill="none" stroke="#1e1e1e" stroke-width="1"></path></g><g transform="translate(134.99271419461374 303.97266727642545) rotate(0 28.49354597393547 0.061418079753821075)"><path d="M26.79 8.76 C16.25 3.98, 6.91 2.91, -0.01 -0.91 M26.79 8.76 C17.33 5.37, 9.4 2.91, -0.01 -0.91" fill="none" stroke="#1e1e1e" stroke-width="1"></path></g><g transform="translate(134.99271419461374 303.97266727642545) rotate(0 28.49354597393547 0.061418079753821075)"><path d="M31.71 10.23 C39.33 5.28, 48.14 4.04, 58.33 0.06 M31.71 10.23 C39.63 7.01, 49.06 4.4, 58.33 0.06" fill="none" stroke="#1e1e1e" stroke-width="1"></path></g><g transform="translate(134.99271419461374 303.97266727642545) rotate(0 28.49354597393547 0.061418079753821075)"><path d="M31.4 -9.26 C38.95 -7.59, 47.87 -2.2, 58.33 0.06 M31.4 -9.26 C39.53 -6.14, 49.07 -2.42, 58.33 0.06" fill="none" stroke="#1e1e1e" stroke-width="1"></path></g></g><mask></mask><g stroke-linecap="round"><g transform="translate(295.213602149306 364.99871621246257) rotate(0 48.97119861655193 29.978607841885832)"><path d="M-0.9 -1.05 C15.5 9.14, 81.79 50.22, 98.38 60.26 M0.83 1.01 C17.11 10.91, 81.42 48.45, 97.66 58.3" fill="none" stroke="#1e1e1e" stroke-width="1"></path></g><g transform="translate(295.213602149306 364.99871621246257) rotate(0 48.97119861655193 29.978607841885832)"><path d="M28.47 5.06 C17.99 3.74, 11.47 2.36, -0.9 -1.05 M28.47 5.06 C21.68 4.21, 14.32 2.94, -0.9 -1.05" fill="none" stroke="#1e1e1e" stroke-width="1"></path></g><g transform="translate(295.213602149306 364.99871621246257) rotate(0 48.97119861655193 29.978607841885832)"><path d="M17.67 22.51 C10.55 16.05, 7.25 9.46, -0.9 -1.05 M17.67 22.51 C13.55 17.55, 8.73 12.16, -0.9 -1.05" fill="none" stroke="#1e1e1e" stroke-width="1"></path></g><g transform="translate(295.213602149306 364.99871621246257) rotate(0 48.97119861655193 29.978607841885832)"><path d="M68.18 52.72 C75.2 55.33, 86.26 57.45, 97.66 58.3 M68.18 52.72 C75.2 54.67, 81.72 56.16, 97.66 58.3" fill="none" stroke="#1e1e1e" stroke-width="1"></path></g><g transform="translate(295.213602149306 364.99871621246257) rotate(0 48.97119861655193 29.978607841885832)"><path d="M78.66 35.08 C82.41 42.88, 90.34 50.27, 97.66 58.3 M78.66 35.08 C83.08 41.19, 87.13 46.84, 97.66 58.3" fill="none" stroke="#1e1e1e" stroke-width="1"></path></g></g><mask></mask><g stroke-linecap="round"><g transform="translate(290.44346373588587 231.6863060210908) rotate(0 17.104613218133522 -21.35349127125596)"><path d="M0.43 0.3 C6.4 -6.77, 29.42 -36.29, 34.91 -43.47 M-0.8 -0.58 C5.15 -7.43, 28.23 -35.52, 34.33 -42.34" fill="none" stroke="#1e1e1e" stroke-width="1"></path></g><g transform="translate(290.44346373588587 231.6863060210908) rotate(0 17.104613218133522 -21.35349127125596)"><path d="M9.06 -25.66 C7.4 -18.61, 3.67 -15.3, 0.43 0.3 M9.06 -25.66 C6.23 -17.24, 4.02 -9.51, 0.43 0.3" fill="none" stroke="#1e1e1e" stroke-width="1"></path></g><g transform="translate(290.44346373588587 231.6863060210908) rotate(0 17.104613218133522 -21.35349127125596)"><path d="M23.73 -14.04 C18.86 -9.55, 11.83 -8.86, 0.43 0.3 M23.73 -14.04 C16.61 -8.92, 10.1 -4.59, 0.43 0.3" fill="none" stroke="#1e1e1e" stroke-width="1"></path></g><g transform="translate(290.44346373588587 231.6863060210908) rotate(0 17.104613218133522 -21.35349127125596)"><path d="M24.77 -16.71 C27.65 -21.34, 28.02 -29.66, 34.33 -42.34 M24.77 -16.71 C27.2 -23.47, 30.3 -30.82, 34.33 -42.34" fill="none" stroke="#1e1e1e" stroke-width="1"></path></g><g transform="translate(290.44346373588587 231.6863060210908) rotate(0 17.104613218133522 -21.35349127125596)"><path d="M10.53 -28.85 C16.51 -30.8, 20.09 -36.38, 34.33 -42.34 M10.53 -28.85 C17.14 -32.16, 24.4 -35.96, 34.33 -42.34" fill="none" stroke="#1e1e1e" stroke-width="1"></path></g></g><mask></mask><g stroke-linecap="round"><g transform="translate(736.9681749175397 447.3291240580256) rotate(0 18.929250724075928 25.420822374378076)"><path d="M0.7 -0.77 C6.8 7.64, 30.83 42.02, 37.04 50.75 M-0.39 1.44 C6.06 10.02, 33.04 44.21, 39.32 52.24" fill="none" stroke="#1e1e1e" stroke-width="1"></path></g><g transform="translate(736.9681749175397 447.3291240580256) rotate(0 18.929250724075928 25.420822374378076)"><path d="M13.83 36.41 C21.16 40.21, 30.85 47.1, 39.32 52.24 M13.83 36.41 C22.96 42.85, 31.41 47.78, 39.32 52.24" fill="none" stroke="#1e1e1e" stroke-width="1"></path></g><g transform="translate(736.9681749175397 447.3291240580256) rotate(0 18.929250724075928 25.420822374378076)"><path d="M29.97 23.73 C31.91 31.89, 36.17 43.04, 39.32 52.24 M29.97 23.73 C33.23 34.88, 35.84 44.39, 39.32 52.24" fill="none" stroke="#1e1e1e" stroke-width="1"></path></g></g><mask></mask><g stroke-linecap="round" transform="translate(752.2357532418339 493.6851907923183) rotate(0 65.60316897266054 63.5)"><path d="M69.59 0.05 C79.33 -0.51, 91.16 3.02, 99.81 8 C108.46 12.97, 116.18 21.45, 121.48 29.9 C126.78 38.34, 131.08 48.85, 131.63 58.68 C132.17 68.5, 129.06 79.79, 124.76 88.85 C120.47 97.91, 113.73 106.92, 105.85 113.06 C97.96 119.2, 87.22 123.67, 77.48 125.69 C67.73 127.71, 56.89 128, 47.36 125.16 C37.84 122.32, 27.7 115.67, 20.3 108.63 C12.91 101.6, 6.36 92.41, 2.99 82.95 C-0.39 73.49, -1.73 61.41, 0.07 51.88 C1.86 42.35, 7.57 33.42, 13.75 25.78 C19.93 18.14, 27.13 10.17, 37.14 6.04 C47.16 1.9, 67.21 1.53, 73.84 0.98 C80.48 0.43, 77.24 1.82, 76.97 2.71 M93.8 7.44 C102.99 10.52, 112.5 16.69, 118.73 24.46 C124.96 32.23, 129.85 44.22, 131.18 54.06 C132.51 63.89, 129.97 74.41, 126.7 83.45 C123.43 92.5, 118.57 101.21, 111.56 108.32 C104.55 115.43, 94.38 123.41, 84.62 126.12 C74.86 128.83, 63 126.73, 53.02 124.6 C43.05 122.47, 32.68 119.61, 24.79 113.32 C16.91 107.04, 9.69 96.11, 5.72 86.88 C1.75 77.66, 0.32 67.74, 0.95 57.95 C1.59 48.16, 4.16 36.44, 9.54 28.15 C14.92 19.86, 24.23 12.8, 33.25 8.23 C42.27 3.65, 53.3 1.16, 63.64 0.71 C73.98 0.26, 90.52 4.56, 95.3 5.53 C100.08 6.5, 92.79 5.26, 92.29 6.52" fill="none" stroke="#1e1e1e" stroke-width="1"></path></g><g transform="translate(781.9543828165993 537.2839101869725) rotate(0 35.99609375 20)"><text direction="ltr" dominant-baseline="text-before-edge" fill="#1e1e1e" font-family="Virgil, Segoe UI Emoji" font-size="16px" style="white-space: pre;" text-anchor="middle" x="35.99609375" y="0">Raw Click </text><text direction="ltr" dominant-baseline="text-before-edge" fill="#1e1e1e" font-family="Virgil, Segoe UI Emoji" font-size="16px" style="white-space: pre;" text-anchor="middle" x="35.99609375" y="20">Data (s3)</text></g><g stroke-linecap="round" transform="translate(969.4976419437264 457.75345636681686) rotate(0 40.84526841546733 107.17807252860484)"><path d="M20.42 0 C34.64 0.08, 47.57 -1.44, 61.27 0 M20.42 0 C32.96 -1.21, 45.96 -1.05, 61.27 0 M61.27 0 C74.94 -1.39, 81.42 7.91, 81.69 20.42 M61.27 0 C76.77 1.26, 81.03 6.31, 81.69 20.42 M81.69 20.42 C80.67 71.75, 78.48 119.89, 81.69 193.93 M81.69 20.42 C83.02 82.28, 82.23 145.68, 81.69 193.93 M81.69 193.93 C81.47 206.96, 74.26 215.76, 61.27 214.36 M81.69 193.93 C82.18 205.46, 76 214.61, 61.27 214.36 M61.27 214.36 C49.72 216.41, 43.8 216.12, 20.42 214.36 M61.27 214.36 C52.2 213.98, 42.65 214.72, 20.42 214.36 M20.42 214.36 C5.56 213.13, -0.1 207.56, 0 193.93 M20.42 214.36 C6.92 215.39, 1.58 206.24, 0 193.93 M0 193.93 C2.49 158.05, 0.29 120.52, 0 20.42 M0 193.93 C-0.39 137.67, 0.05 81.51, 0 20.42 M0 20.42 C-1.96 6.86, 5.39 0.72, 20.42 0 M0 20.42 C-0.76 6.02, 6.69 -0.44, 20.42 0" fill="none" stroke="#1e1e1e" stroke-width="1"></path></g><g transform="translate(991.6788478591938 554.9315288954217) rotate(0 18.6640625 10)"><text direction="ltr" dominant-baseline="text-before-edge" fill="#1e1e1e" font-family="Virgil, Segoe UI Emoji" font-size="16px" style="white-space: pre;" text-anchor="middle" x="18.6640625" y="0">Spark</text></g><g stroke-linecap="round" transform="translate(1113.5378410644794 594.5028790248243) rotate(0 45.190696673475486 19.707706582320498)"><path d="M9.85 0 C31.11 0.3, 53.03 0.05, 80.53 0 M9.85 0 C24.22 -0.12, 38.39 1.13, 80.53 0 M80.53 0 C88.74 1.1, 89.81 2.86, 90.38 9.85 M80.53 0 C86.77 -2.02, 88.33 3.86, 90.38 9.85 M90.38 9.85 C91.36 18.55, 89.29 25.83, 90.38 29.56 M90.38 9.85 C90.19 14.85, 90 21.11, 90.38 29.56 M90.38 29.56 C90.81 34.31, 88.07 39.64, 80.53 39.42 M90.38 29.56 C88.95 35.04, 88.55 37.31, 80.53 39.42 M80.53 39.42 C51.67 41.47, 26.8 40.89, 9.85 39.42 M80.53 39.42 C63.26 38.87, 47.2 39.49, 9.85 39.42 M9.85 39.42 C3.39 40.32, 1.37 34.99, 0 29.56 M9.85 39.42 C1.13 37.87, 1.38 37.65, 0 29.56 M0 29.56 C0.57 24.3, 1 18.1, 0 9.85 M0 29.56 C-1.08 23.67, -0.81 18.08, 0 9.85 M0 9.85 C-0.66 2.6, 3.18 -0.38, 9.85 0 M0 9.85 C-1.29 4.49, 3.32 1.91, 9.85 0" fill="none" stroke="#1e1e1e" stroke-width="1"></path></g><g transform="translate(1144.5136939879549 604.2105856071448) rotate(0 14.21484375 10)"><text direction="ltr" dominant-baseline="text-before-edge" fill="#1e1e1e" font-family="Virgil, Segoe UI Emoji" font-size="16px" style="white-space: pre;" text-anchor="middle" x="14.21484375" y="0">cron</text></g><g stroke-linecap="round"><g transform="translate(1101.618995098421 614.342113802998) rotate(0 -17.663040992236347 0)"><path d="M-0.14 -0.53 C-6.02 -0.66, -29.49 -0.47, -35.35 -0.45 M0.79 0.38 C-5.16 0.28, -29.72 0.08, -35.79 0.02" fill="none" stroke="#1e1e1e" stroke-width="1"></path></g><g transform="translate(1101.618995098421 614.342113802998) rotate(0 -17.663040992236347 0)"><path d="M-19.14 -5.87 C-24.77 -4.23, -29.41 -2.48, -35.79 0.02 M-19.14 -5.87 C-22.61 -4.22, -26.94 -3.2, -35.79 0.02" fill="none" stroke="#1e1e1e" stroke-width="1"></path></g><g transform="translate(1101.618995098421 614.342113802998) rotate(0 -17.663040992236347 0)"><path d="M-19.25 6.21 C-24.88 4.38, -29.49 2.66, -35.79 0.02 M-19.25 6.21 C-22.69 5.08, -26.99 3.31, -35.79 0.02" fill="none" stroke="#1e1e1e" stroke-width="1"></path></g></g><mask></mask><g stroke-linecap="round"><g transform="translate(963.1047748571441 565.1935453480737) rotate(0 -36.905232806046854 -1.4819644685528601)"><path d="M-0.05 -0.97 C-12.29 -1.41, -61.45 -3.58, -73.77 -3.8 M-1.53 1.13 C-13.9 0.92, -62.49 -1.8, -74.7 -2.7" fill="none" stroke="#1e1e1e" stroke-width="1"></path></g><g transform="translate(963.1047748571441 565.1935453480737) rotate(0 -36.905232806046854 -1.4819644685528601)"><path d="M-45.92 -11.17 C-55.53 -8.8, -63.2 -6.8, -74.7 -2.7 M-45.92 -11.17 C-56.37 -8.22, -66.45 -5.87, -74.7 -2.7" fill="none" stroke="#1e1e1e" stroke-width="1"></path></g><g transform="translate(963.1047748571441 565.1935453480737) rotate(0 -36.905232806046854 -1.4819644685528601)"><path d="M-47.21 9.31 C-56.27 6.06, -63.59 2.44, -74.7 -2.7 M-47.21 9.31 C-57.37 4.98, -66.99 0.05, -74.7 -2.7" fill="none" stroke="#1e1e1e" stroke-width="1"></path></g></g><mask></mask><g stroke-linecap="round" transform="translate(943.0217457861968 353.43289445249684) rotate(0 68.41211460905242 31.137503778101063)"><path d="M15.57 0 C45.46 -0.3, 79.26 1.61, 121.26 0 M15.57 0 C52.93 -0.65, 89.68 0.48, 121.26 0 M121.26 0 C133.36 -1.69, 137.1 6.36, 136.82 15.57 M121.26 0 C132.89 -1.08, 137.69 4.45, 136.82 15.57 M136.82 15.57 C136.52 23.03, 138.51 32.16, 136.82 46.71 M136.82 15.57 C136.35 21.61, 137.61 27.67, 136.82 46.71 M136.82 46.71 C138.62 59.04, 133.14 60.95, 121.26 62.28 M136.82 46.71 C138.58 58.63, 132.72 60.79, 121.26 62.28 M121.26 62.28 C83.47 61.52, 48.14 61.71, 15.57 62.28 M121.26 62.28 C83.84 61, 48.9 62.33, 15.57 62.28 M15.57 62.28 C5.13 61.4, -1.77 57.57, 0 46.71 M15.57 62.28 C5.87 63.34, 0.28 57.09, 0 46.71 M0 46.71 C0.01 34.17, 0.69 23.82, 0 15.57 M0 46.71 C-0.55 38.95, 0.03 30.97, 0 15.57 M0 15.57 C0.31 4.2, 5.09 1.13, 15.57 0 M0 15.57 C-1.95 4.6, 5.64 -0.17, 15.57 0" fill="none" stroke="#1e1e1e" stroke-width="1"></path></g><g transform="translate(962.7815166452492 364.5703982305979) rotate(0 48.65234375 20)"><text direction="ltr" dominant-baseline="text-before-edge" fill="#1e1e1e" font-family="Virgil, Segoe UI Emoji" font-size="16px" style="white-space: pre;" text-anchor="middle" x="48.65234375" y="0">Reconciliation </text><text direction="ltr" dominant-baseline="text-before-edge" fill="#1e1e1e" font-family="Virgil, Segoe UI Emoji" font-size="16px" style="white-space: pre;" text-anchor="middle" x="48.65234375" y="20">Worker</text></g><g mask="url(#mask-4bfrAexKA1t8pUb_4z1eP)" stroke-linecap="round"><g transform="translate(1016.5189570472016 349.2031513794809) rotate(0 -69.74586110485126 -22.80028455212073)"><path d="M0.99 0.66 C-6.6 -6.8, -22.21 -36.21, -45.65 -44.09 C-69.09 -51.98, -123.84 -46.45, -139.66 -46.65 M0.04 -0.04 C-7.71 -7.38, -23.35 -35.05, -46.78 -42.69 C-70.2 -50.33, -124.83 -45.66, -140.52 -45.89" fill="none" stroke="#1e1e1e" stroke-width="1"></path></g><g transform="translate(1016.5189570472016 349.2031513794809) rotate(0 -69.74586110485126 -22.80028455212073)"><path d="M-112.63 -56.95 C-119.47 -54.13, -128.99 -50.66, -140.52 -45.89 M-112.63 -56.95 C-117.79 -55.38, -124.44 -51.6, -140.52 -45.89" fill="none" stroke="#1e1e1e" stroke-width="1"></path></g><g transform="translate(1016.5189570472016 349.2031513794809) rotate(0 -69.74586110485126 -22.80028455212073)"><path d="M-112.04 -36.44 C-119.16 -39.49, -128.85 -41.91, -140.52 -45.89 M-112.04 -36.44 C-117.14 -39.22, -123.91 -39.8, -140.52 -45.89" fill="none" stroke="#1e1e1e" stroke-width="1"></path></g></g><mask id="mask-4bfrAexKA1t8pUb_4z1eP"><rect fill="#fff" height="494.8037204837224" width="1256.010679256904" x="0" y="0"></rect><rect fill="#000" height="40" opacity="1" width="107.9375" x="917.2455978010958" y="285.370733243793"></rect></mask><g transform="translate(917.2455978010958 285.370733243793) rotate(0 29.507992137593533 39.98800042064113)"><text direction="ltr" dominant-baseline="text-before-edge" fill="#1e1e1e" font-family="Virgil, Segoe UI Emoji" font-size="16px" style="white-space: pre;" text-anchor="middle" x="53.96875" y="0">potentially fix </text><text direction="ltr" dominant-baseline="text-before-edge" fill="#1e1e1e" font-family="Virgil, Segoe UI Emoji" font-size="16px" style="white-space: pre;" text-anchor="middle" x="53.96875" y="20">incorrect records</text></g><g stroke-linecap="round"><g transform="translate(1065.9007462062182 505.00405759083515) rotate(0 31.93939204423691 -60.94305661582939)"><path d="M-0.17 -1.05 C10.36 -9.64, 58.47 -31.45, 62.81 -51.76 C67.14 -72.07, 32.15 -111.33, 25.85 -122.9 M-1.72 1.01 C9.2 -7.93, 60.4 -33.2, 64.95 -53.72 C69.51 -74.24, 32.23 -110.51, 25.63 -122.12" fill="none" stroke="#1e1e1e" stroke-width="1"></path></g><g transform="translate(1065.9007462062182 505.00405759083515) rotate(0 31.93939204423691 -60.94305661582939)"><path d="M50.92 -105.98 C42.34 -112.18, 37.73 -113.04, 25.63 -122.12 M50.92 -105.98 C45.99 -109.78, 40.38 -113.1, 25.63 -122.12" fill="none" stroke="#1e1e1e" stroke-width="1"></path></g><g transform="translate(1065.9007462062182 505.00405759083515) rotate(0 31.93939204423691 -60.94305661582939)"><path d="M34.63 -93.5 C30.49 -103.06, 30.31 -107.31, 25.63 -122.12 M34.63 -93.5 C33.2 -100.08, 31.09 -106.09, 25.63 -122.12" fill="none" stroke="#1e1e1e" stroke-width="1"></path></g></g><mask></mask></svg>