<svg height="682.1096014240266" version="1.1" viewbox="0 0 1213.9192344114304 682.1096014240266" width="1213.9192344114304" xmlns="http://www.w3.org/2000/svg">
<!-- svg-source:excalidraw -->
<!-- payload-type:application/vnd.excalidraw+json --><!-- payload-version:2 -->
<defs>
<style class="style-fonts">
</style>
</defs>
<rect fill="#ffffff" height="682.1096014240266" width="1213.9192344114304" x="0" y="0"></rect><g stroke-linecap="round" transform="translate(399.1152757098577 383.00692392068686) rotate(0 64.1640625 42.67578125)"><path d="M21.34 0 C50.64 -2.65, 80.88 1.23, 106.99 0 M21.34 0 C44.23 -0.77, 69.04 0.01, 106.99 0 M106.99 0 C120.93 -0.21, 127.22 7.7, 128.33 21.34 M106.99 0 C119.92 -0.54, 126.94 5.78, 128.33 21.34 M128.33 21.34 C128.65 36.47, 128.76 49.34, 128.33 64.01 M128.33 21.34 C127.84 35.78, 127.14 52.05, 128.33 64.01 M128.33 64.01 C129.01 76.84, 120.51 86.74, 106.99 85.35 M128.33 64.01 C130.45 79.8, 121.49 86.54, 106.99 85.35 M106.99 85.35 C80.94 85.2, 53.51 86.54, 21.34 85.35 M106.99 85.35 C72.42 84.78, 38.87 84.93, 21.34 85.35 M21.34 85.35 C7.08 85.12, 1.42 80.24, 0 64.01 M21.34 85.35 C5.53 83.95, -1.53 80.01, 0 64.01 M0 64.01 C-1.8 51.96, -0.4 38.81, 0 21.34 M0 64.01 C-0.19 55.32, 1.34 47.41, 0 21.34 M0 21.34 C-1.74 8.71, 8.56 -0.43, 21.34 0 M0 21.34 C1.91 7.13, 9.02 2.09, 21.34 0" fill="none" stroke="#1e1e1e" stroke-width="1"></path></g><g transform="translate(412.8418382098577 415.68270517068686) rotate(0 50.4375 10)"><text direction="ltr" dominant-baseline="text-before-edge" fill="#1e1e1e" font-family="Virgil, Segoe UI Emoji" font-size="16px" style="white-space: pre;" text-anchor="middle" x="50.4375" y="0">Click Processor</text></g><g stroke-linecap="round"><g transform="translate(539.6814270275969 423.7170963345252) rotate(0 12.189072306922242 -0.19957899977089255)"><path d="M0.52 -0.13 C4.75 -0.13, 20.91 -0.13, 24.82 -0.22 M0.12 -0.68 C4.36 -0.82, 20.45 -1.17, 24.61 -1.09" fill="none" stroke="#1e1e1e" stroke-width="1"></path></g><g transform="translate(539.6814270275969 423.7170963345252) rotate(0 12.189072306922242 -0.19957899977089255)"><path d="M13.18 3.13 C15.34 2.71, 17.98 0.92, 24.61 -1.09 M13.18 3.13 C15.99 2.02, 18.73 1.08, 24.61 -1.09" fill="none" stroke="#1e1e1e" stroke-width="1"></path></g><g transform="translate(539.6814270275969 423.7170963345252) rotate(0 12.189072306922242 -0.19957899977089255)"><path d="M13.14 -5.21 C15.29 -3.95, 17.94 -4.07, 24.61 -1.09 M13.14 -5.21 C15.98 -4.23, 18.73 -3.07, 24.61 -1.09" fill="none" stroke="#1e1e1e" stroke-width="1"></path></g></g><mask></mask><g stroke-linecap="round" transform="translate(573.7238890737023 404.7372919106974) rotate(0 79.8203125 18.873046875)"><path d="M9.44 0 C65.63 -2.62, 119.54 -0.26, 150.2 0 M9.44 0 C55.21 0.44, 101.54 -0.08, 150.2 0 M150.2 0 C155.29 -1.16, 159.99 4.58, 159.64 9.44 M150.2 0 C158.49 0.01, 161.45 3.29, 159.64 9.44 M159.64 9.44 C159.49 15.42, 157.93 20.59, 159.64 28.31 M159.64 9.44 C159.37 15.56, 160.58 21, 159.64 28.31 M159.64 28.31 C159.88 35.63, 156.74 39.09, 150.2 37.75 M159.64 28.31 C161.32 35.41, 155.6 37.79, 150.2 37.75 M150.2 37.75 C103.35 34.62, 57.21 34.84, 9.44 37.75 M150.2 37.75 C110.67 38.58, 69.02 36.98, 9.44 37.75 M9.44 37.75 C1.82 39.28, -0.13 34.38, 0 28.31 M9.44 37.75 C5.04 35.62, 0.55 34.08, 0 28.31 M0 28.31 C-1.36 21.72, 0.37 19.07, 0 9.44 M0 28.31 C0.85 20.58, 0.95 13.26, 0 9.44 M0 9.44 C1.66 4.96, 1.85 -0.4, 9.44 0 M0 9.44 C0.55 1.84, 2.07 1.13, 9.44 0" fill="none" stroke="#1e1e1e" stroke-width="1"></path></g><g transform="translate(629.5442015737023 413.6103387856974) rotate(0 24 10)"><text direction="ltr" dominant-baseline="text-before-edge" fill="#1e1e1e" font-family="Virgil, Segoe UI Emoji" font-size="16px" style="white-space: pre;" text-anchor="middle" x="24" y="0">Kinesis</text></g><g stroke-linecap="round"><g transform="translate(743.891857823702 418.69016807719254) rotate(0 11.866442510026047 -0.2482063744369043)"><path d="M0.24 0.16 C4.25 0.11, 19.79 -0.47, 23.66 -0.56 M-0.31 -0.23 C3.66 -0.17, 19.31 0.29, 23.18 0.11" fill="none" stroke="#1e1e1e" stroke-width="1"></path></g><g transform="translate(743.891857823702 418.69016807719254) rotate(0 11.866442510026047 -0.2482063744369043)"><path d="M12.04 4.2 C14.74 3.17, 17.01 2.01, 23.18 0.11 M12.04 4.2 C15.54 2.7, 19.44 1.74, 23.18 0.11" fill="none" stroke="#1e1e1e" stroke-width="1"></path></g><g transform="translate(743.891857823702 418.69016807719254) rotate(0 11.866442510026047 -0.2482063744369043)"><path d="M12.02 -3.91 C14.7 -3.11, 16.98 -2.45, 23.18 0.11 M12.02 -3.91 C15.51 -2.75, 19.41 -1.04, 23.18 0.11" fill="none" stroke="#1e1e1e" stroke-width="1"></path></g></g><mask></mask><g stroke-linecap="round" transform="translate(776.9805580283177 382.42148804048793) rotate(0 40.23065809100831 37.686811470070325)"><path d="M18.84 0 C33.3 -1.05, 48.77 -1.07, 61.62 0 M18.84 0 C30.86 0.96, 43.39 0.25, 61.62 0 M61.62 0 C75.76 0.12, 81.35 7.5, 80.46 18.84 M61.62 0 C73.01 -0.33, 79.83 4.05, 80.46 18.84 M80.46 18.84 C79.02 25.78, 81.81 35.97, 80.46 56.53 M80.46 18.84 C80.63 33.38, 81.24 46.93, 80.46 56.53 M80.46 56.53 C79.69 69.13, 74.74 77.23, 61.62 75.37 M80.46 56.53 C78.32 68.35, 72.08 74.7, 61.62 75.37 M61.62 75.37 C51.99 76.79, 44.81 73.99, 18.84 75.37 M61.62 75.37 C51.33 75.59, 41.99 74.78, 18.84 75.37 M18.84 75.37 C6.76 74.92, -0.14 67.22, 0 56.53 M18.84 75.37 C4.24 73.5, -1.3 69.32, 0 56.53 M0 56.53 C1.23 43.04, -0.81 28.31, 0 18.84 M0 56.53 C-0.96 44.99, -0.07 33.29, 0 18.84 M0 18.84 C-0.93 7.27, 5.13 -1.68, 18.84 0 M0 18.84 C-1.76 5.43, 4.85 -0.84, 18.84 0" fill="none" stroke="#1e1e1e" stroke-width="1"></path></g><g transform="translate(800.316684869326 410.10829951055825) rotate(0 16.89453125 10)"><text direction="ltr" dominant-baseline="text-before-edge" fill="#1e1e1e" font-family="Virgil, Segoe UI Emoji" font-size="16px" style="white-space: pre;" text-anchor="middle" x="16.89453125" y="0">Flink</text></g><g stroke-linecap="round"><g transform="translate(815.8469398933811 378.1458039556828) rotate(0 0.15276288302800367 -26.974080749090263)"><path d="M-0.68 -0.28 C-0.63 -9.44, -0.62 -45.84, -0.42 -54.64 M1.17 -1.47 C1.66 -10.52, 2.13 -44.55, 1.92 -53.47" fill="none" stroke="#1e1e1e" stroke-width="1"></path></g><g transform="translate(815.8469398933811 378.1458039556828) rotate(0 0.15276288302800367 -26.974080749090263)"><path d="M11.19 -28.14 C8.39 -35.59, 5.43 -40.22, 1.92 -53.47 M11.19 -28.14 C8.31 -37.49, 4.52 -46.36, 1.92 -53.47" fill="none" stroke="#1e1e1e" stroke-width="1"></path></g><g transform="translate(815.8469398933811 378.1458039556828) rotate(0 0.15276288302800367 -26.974080749090263)"><path d="M-7.26 -28.1 C-5.56 -35.45, -4.01 -40.1, 1.92 -53.47 M-7.26 -28.1 C-3.28 -37.47, -0.22 -46.35, 1.92 -53.47" fill="none" stroke="#1e1e1e" stroke-width="1"></path></g></g><mask></mask><g stroke-linecap="round" transform="translate(755.9615482746752 203.30074160587537) rotate(0 62.92936798114465 59.195253689893434)"><path d="M68.49 1.02 C77.69 0.85, 88.75 5.11, 97.04 9.86 C105.34 14.6, 113.51 21.64, 118.28 29.5 C123.06 37.35, 125.63 47.92, 125.68 57 C125.74 66.09, 122.84 75.66, 118.6 84.02 C114.36 92.38, 108.02 101.58, 100.23 107.14 C92.44 112.69, 81.33 115.85, 71.83 117.34 C62.33 118.84, 52.22 119.01, 43.23 116.12 C34.23 113.22, 24.61 106.78, 17.88 99.98 C11.15 93.19, 5.5 84.06, 2.86 75.34 C0.23 66.61, 0.05 56.68, 2.05 47.63 C4.05 38.57, 8.74 28.14, 14.85 21.01 C20.97 13.88, 29.17 8.41, 38.74 4.84 C48.31 1.27, 66.45 0.21, 72.26 -0.4 C78.08 -1, 73.96 0.21, 73.62 1.2 M59.57 1.64 C68.57 0.04, 78.56 0.44, 87.15 4.06 C95.73 7.68, 104.84 16.09, 111.08 23.38 C117.32 30.66, 122.39 39.19, 124.62 47.77 C126.84 56.35, 127.16 66.1, 124.43 74.85 C121.7 83.61, 115.27 93.75, 108.23 100.29 C101.18 106.84, 91.7 111.46, 82.15 114.12 C72.59 116.79, 60.6 117.61, 50.87 116.3 C41.14 115, 31.04 111.44, 23.77 106.31 C16.5 101.17, 11.42 93.66, 7.25 85.51 C3.09 77.36, -1.65 66.87, -1.22 57.41 C-0.79 47.95, 4.45 36.85, 9.84 28.75 C15.22 20.66, 22.76 13.4, 31.08 8.86 C39.4 4.32, 55.32 2.81, 59.75 1.51 C64.17 0.2, 57.69 0.41, 57.62 1.03" fill="none" stroke="#1e1e1e" stroke-width="1"></path></g><g transform="translate(784.8892271705689 252.63862999758715) rotate(0 34.00390625 10)"><text direction="ltr" dominant-baseline="text-before-edge" fill="#1e1e1e" font-family="Virgil, Segoe UI Emoji" font-size="16px" style="white-space: pre;" text-anchor="middle" x="34.00390625" y="0">OLAP DB</text></g><g stroke-linecap="round" transform="translate(741.4214316464712 10) rotate(0 77.5434786312237 35.58840984914019)"><path d="M17.79 0 C55.77 0.54, 93.85 -0.15, 137.29 0 M17.79 0 C60.66 -0.8, 103.11 0.06, 137.29 0 M137.29 0 C149.84 -1.4, 154.38 7.32, 155.09 17.79 M137.29 0 C151.28 1.56, 155.36 7.12, 155.09 17.79 M155.09 17.79 C156.03 28.14, 155.36 40.6, 155.09 53.38 M155.09 17.79 C153.85 31.49, 153.95 45.62, 155.09 53.38 M155.09 53.38 C155.05 65.02, 150.58 73.17, 137.29 71.18 M155.09 53.38 C153.5 63.84, 147.63 72.95, 137.29 71.18 M137.29 71.18 C100.36 72.64, 66.67 72.02, 17.79 71.18 M137.29 71.18 C112.1 70.3, 88.99 71.19, 17.79 71.18 M17.79 71.18 C4.2 72.78, 1.45 64.81, 0 53.38 M17.79 71.18 C7.84 71.2, 1.91 67.33, 0 53.38 M0 53.38 C-1.07 44.09, 1.06 35.51, 0 17.79 M0 53.38 C-0.35 45.33, 0.6 38.99, 0 17.79 M0 17.79 C1.19 4.18, 5.32 -0.81, 17.79 0 M0 17.79 C0.23 5.1, 6.48 1.59, 17.79 0" fill="none" stroke="#1e1e1e" stroke-width="1"></path></g><g transform="translate(764.9727227776949 35.58840984914019) rotate(0 53.9921875 10)"><text direction="ltr" dominant-baseline="text-before-edge" fill="#1e1e1e" font-family="Virgil, Segoe UI Emoji" font-size="16px" style="white-space: pre;" text-anchor="middle" x="53.9921875" y="0">Analyst Browser</text></g><g stroke-linecap="round" transform="translate(768.8739438395813 116.90008943763041) rotate(0 51.13453969928662 25)"><path d="M12.5 0 C42.99 -1.36, 70.76 -0.89, 89.77 0 M12.5 0 C28.53 -0.62, 43.53 0.78, 89.77 0 M89.77 0 C99.95 1.36, 102.51 5.2, 102.27 12.5 M89.77 0 C98.39 1.55, 103.95 4.98, 102.27 12.5 M102.27 12.5 C104.13 17.17, 101.63 23.74, 102.27 37.5 M102.27 12.5 C102.05 19.16, 102.78 27.04, 102.27 37.5 M102.27 37.5 C100.89 44.61, 96.77 51.54, 89.77 50 M102.27 37.5 C102.12 45.57, 99.99 47.88, 89.77 50 M89.77 50 C62.87 48.17, 38.1 48.82, 12.5 50 M89.77 50 C64.95 51.56, 42.59 50.55, 12.5 50 M12.5 50 C5.83 50.02, 1.66 47.65, 0 37.5 M12.5 50 C2.67 49.54, 0.55 44.53, 0 37.5 M0 37.5 C-1.8 29.64, -0.87 23.59, 0 12.5 M0 37.5 C0.51 30.04, -0.39 23.93, 0 12.5 M0 12.5 C0.2 3.45, 4.64 1.39, 12.5 0 M0 12.5 C0.99 3.99, 3.89 1.76, 12.5 0" fill="none" stroke="#1e1e1e" stroke-width="1"></path></g><g transform="translate(787.348327288868 121.90008943763041) rotate(0 32.66015625 20)"><text direction="ltr" dominant-baseline="text-before-edge" fill="#1e1e1e" font-family="Virgil, Segoe UI Emoji" font-size="16px" style="white-space: pre;" text-anchor="middle" x="32.66015625" y="0">Analytics </text><text direction="ltr" dominant-baseline="text-before-edge" fill="#1e1e1e" font-family="Virgil, Segoe UI Emoji" font-size="16px" style="white-space: pre;" text-anchor="middle" x="32.66015625" y="20">Service</text></g><g stroke-linecap="round"><g transform="translate(821.0983029640064 86.79278662922206) rotate(0 -0.018329159458971844 11.669999486472648)"><path d="M-0.15 -0.53 C-0.2 3.36, -0.62 19.37, -0.57 23.28 M0.77 0.38 C0.91 4.37, 0.53 20.12, 0.39 23.95" fill="none" stroke="#1e1e1e" stroke-width="1"></path></g><g transform="translate(821.0983029640064 86.79278662922206) rotate(0 -0.018329159458971844 11.669999486472648)"><path d="M-3.29 12.88 C-2.95 15.07, -1.53 18.6, 0.39 23.95 M-3.29 12.88 C-2.19 15.61, -1.58 18.1, 0.39 23.95" fill="none" stroke="#1e1e1e" stroke-width="1"></path></g><g transform="translate(821.0983029640064 86.79278662922206) rotate(0 -0.018329159458971844 11.669999486472648)"><path d="M4.69 13.1 C3.05 15.23, 2.48 18.7, 0.39 23.95 M4.69 13.1 C3.95 15.81, 2.73 18.26, 0.39 23.95" fill="none" stroke="#1e1e1e" stroke-width="1"></path></g></g><mask></mask><g stroke-linecap="round"><g transform="translate(819.1912276012039 171.91437360933196) rotate(0 -0.38601381970147486 11.359815943839294)"><path d="M-0.54 -0.06 C-0.61 3.75, -0.51 18.47, -0.58 22.33 M0.19 -0.56 C0.08 3.35, -0.65 19.04, -0.92 22.83" fill="none" stroke="#1e1e1e" stroke-width="1"></path></g><g transform="translate(819.1912276012039 171.91437360933196) rotate(0 -0.38601381970147486 11.359815943839294)"><path d="M-4.2 11.95 C-3.42 15.13, -2.86 17.7, -0.92 22.83 M-4.2 11.95 C-2.91 16.11, -1.69 20.17, -0.92 22.83" fill="none" stroke="#1e1e1e" stroke-width="1"></path></g><g transform="translate(819.1912276012039 171.91437360933196) rotate(0 -0.38601381970147486 11.359815943839294)"><path d="M3.56 12.39 C2.23 15.41, 0.67 17.86, -0.92 22.83 M3.56 12.39 C1.99 16.41, 0.33 20.31, -0.92 22.83" fill="none" stroke="#1e1e1e" stroke-width="1"></path></g></g><mask></mask><g stroke-linecap="round" transform="translate(334.9506027334896 135.07889785719908) rotate(0 65.490234375 47.623046875)"><path d="M23.81 0 C39.31 -0.99, 59 1.56, 107.17 0 M23.81 0 C54.61 0.24, 85.88 -0.08, 107.17 0 M107.17 0 C122.27 0.03, 131.55 9.8, 130.98 23.81 M107.17 0 C120.91 -0.74, 128.88 7.27, 130.98 23.81 M130.98 23.81 C130.69 35.7, 132.91 43.37, 130.98 71.43 M130.98 23.81 C130.6 35.08, 131.49 45.66, 130.98 71.43 M130.98 71.43 C131.46 86.86, 122.9 93.37, 107.17 95.25 M130.98 71.43 C128.94 85.44, 121.74 95.48, 107.17 95.25 M107.17 95.25 C75.73 95.97, 40.65 96.18, 23.81 95.25 M107.17 95.25 C81.44 95.8, 57.25 95.43, 23.81 95.25 M23.81 95.25 C7 96.23, -1.15 85.63, 0 71.43 M23.81 95.25 C6.18 94.39, -1.43 86.47, 0 71.43 M0 71.43 C-2.22 54.98, -1.28 39.95, 0 23.81 M0 71.43 C0.32 58.79, -0.23 47.06, 0 23.81 M0 23.81 C1.26 8.84, 9.04 1.08, 23.81 0 M0 23.81 C-1.67 8.95, 6.09 -0.1, 23.81 0" fill="none" stroke="#1e1e1e" stroke-width="1"></path></g><g transform="translate(353.3431808584896 162.70194473219908) rotate(0 47.09765625 20)"><text direction="ltr" dominant-baseline="text-before-edge" fill="#1e1e1e" font-family="Virgil, Segoe UI Emoji" font-size="16px" style="white-space: pre;" text-anchor="middle" x="47.09765625" y="0">Ad Placement </text><text direction="ltr" dominant-baseline="text-before-edge" fill="#1e1e1e" font-family="Virgil, Segoe UI Emoji" font-size="16px" style="white-space: pre;" text-anchor="middle" x="47.09765625" y="20">Service</text></g><g stroke-linecap="round" transform="translate(559.7126283454214 118.64664689480651) rotate(0 72.69127211417481 70.84147595836083)"><path d="M77.71 0.86 C87.72 0.29, 99.37 3.66, 108.44 8.58 C117.51 13.49, 126 22.06, 132.15 30.34 C138.3 38.63, 143.66 48.4, 145.33 58.3 C147 68.21, 145.3 79.94, 142.14 89.79 C138.99 99.65, 133.43 109.68, 126.42 117.44 C119.42 125.2, 109.82 132.23, 100.12 136.37 C90.42 140.51, 78.54 142.99, 68.23 142.27 C57.93 141.54, 47.56 137.25, 38.29 132.03 C29.03 126.81, 18.73 119.23, 12.64 110.96 C6.55 102.68, 3.39 92.25, 1.75 82.39 C0.11 72.53, 0.14 61.59, 2.8 51.8 C5.47 42.02, 10.73 31.44, 17.75 23.68 C24.76 15.92, 32.93 8.96, 44.9 5.22 C56.87 1.49, 80.06 0.92, 89.56 1.27 C99.06 1.62, 102.03 5.87, 101.91 7.32 M108.24 8.15 C117.98 11.63, 126.56 20.66, 132.76 29.24 C138.96 37.81, 143.96 49.55, 145.46 59.58 C146.97 69.61, 144.73 79.91, 141.78 89.41 C138.83 98.92, 134.65 108.73, 127.77 116.62 C120.9 124.5, 110.41 132.78, 100.54 136.73 C90.67 140.69, 79.12 141.03, 68.54 140.35 C57.97 139.67, 46.34 137.39, 37.08 132.65 C27.81 127.91, 18.84 119.86, 12.93 111.91 C7.03 103.96, 3.22 95.16, 1.65 84.95 C0.09 74.74, 0.88 60.88, 3.52 50.66 C6.16 40.43, 10.71 31.19, 17.51 23.61 C24.3 16.02, 34.49 8.9, 44.3 5.15 C54.1 1.4, 65.75 0.58, 76.34 1.11 C86.92 1.65, 102.81 6.73, 107.81 8.36 C112.8 9.98, 106.81 9.7, 106.29 10.87" fill="none" stroke="#1e1e1e" stroke-width="1"></path></g><g transform="translate(609.6127840145866 179.39563481374663) rotate(0 22.890625 9.999999999999986)"><text direction="ltr" dominant-baseline="text-before-edge" fill="#1e1e1e" font-family="Virgil, Segoe UI Emoji" font-size="16px" style="white-space: pre;" text-anchor="middle" x="22.890625" y="0">Ad DB</text></g><g transform="translate(568.1314907011639 18.796790023960966) rotate(0 60.903953552246094 40)"><text direction="ltr" dominant-baseline="text-before-edge" fill="#1e1e1e" font-family="Virgil, Segoe UI Emoji" font-size="16px" style="white-space: pre;" text-anchor="start" x="0" y="0">Advertisement:</text><text direction="ltr" dominant-baseline="text-before-edge" fill="#1e1e1e" font-family="Virgil, Segoe UI Emoji" font-size="16px" style="white-space: pre;" text-anchor="start" x="0" y="20">- AdId</text><text direction="ltr" dominant-baseline="text-before-edge" fill="#1e1e1e" font-family="Virgil, Segoe UI Emoji" font-size="16px" style="white-space: pre;" text-anchor="start" x="0" y="40">- RedirectUrl</text><text direction="ltr" dominant-baseline="text-before-edge" fill="#1e1e1e" font-family="Virgil, Segoe UI Emoji" font-size="16px" style="white-space: pre;" text-anchor="start" x="0" y="60">- ... metadata </text></g><g stroke-linecap="round"><g transform="translate(478.62803611134007 193.80088796116706) rotate(0 36.91240173703113 -0.18481720816680536)"><path d="M0.88 0.42 C13.08 0.23, 61.15 -0.4, 73.36 -0.35 M-0.12 -0.4 C11.87 -0.46, 59.88 1.3, 72.17 1.2" fill="none" stroke="#1e1e1e" stroke-width="1"></path></g><g transform="translate(478.62803611134007 193.80088796116706) rotate(0 36.91240173703113 -0.18481720816680536)"><path d="M28.94 -10.19 C20.95 -7.44, 11.51 -2.79, 0.88 0.42 M28.94 -10.19 C16.9 -6.4, 5.98 -2.08, 0.88 0.42" fill="none" stroke="#1e1e1e" stroke-width="1"></path></g><g transform="translate(478.62803611134007 193.80088796116706) rotate(0 36.91240173703113 -0.18481720816680536)"><path d="M29.19 10.33 C20.99 6.67, 11.47 4.91, 0.88 0.42 M29.19 10.33 C17.25 6.06, 6.23 2.31, 0.88 0.42" fill="none" stroke="#1e1e1e" stroke-width="1"></path></g><g transform="translate(478.62803611134007 193.80088796116706) rotate(0 36.91240173703113 -0.18481720816680536)"><path d="M43.81 10.99 C53.31 6.95, 61.5 5.23, 72.17 1.2 M43.81 10.99 C54.13 6.94, 65.39 3.25, 72.17 1.2" fill="none" stroke="#1e1e1e" stroke-width="1"></path></g><g transform="translate(478.62803611134007 193.80088796116706) rotate(0 36.91240173703113 -0.18481720816680536)"><path d="M44.15 -9.53 C53.68 -7.16, 61.76 -2.47, 72.17 1.2 M44.15 -9.53 C54.15 -5.51, 65.27 -1.15, 72.17 1.2" fill="none" stroke="#1e1e1e" stroke-width="1"></path></g></g><mask></mask><g transform="translate(900.3971322767742 165.16319025809753) rotate(0 76.64793395996094 50)"><text direction="ltr" dominant-baseline="text-before-edge" fill="#1e1e1e" font-family="Virgil, Segoe UI Emoji" font-size="16px" style="white-space: pre;" text-anchor="start" x="0" y="0">Aggregated Data</text><text direction="ltr" dominant-baseline="text-before-edge" fill="#1e1e1e" font-family="Virgil, Segoe UI Emoji" font-size="16px" style="white-space: pre;" text-anchor="start" x="0" y="20">- AdId</text><text direction="ltr" dominant-baseline="text-before-edge" fill="#1e1e1e" font-family="Virgil, Segoe UI Emoji" font-size="16px" style="white-space: pre;" text-anchor="start" x="0" y="40">- AdvertiserId (PK)</text><text direction="ltr" dominant-baseline="text-before-edge" fill="#1e1e1e" font-family="Virgil, Segoe UI Emoji" font-size="16px" style="white-space: pre;" text-anchor="start" x="0" y="60">- Minute (SK)</text><text direction="ltr" dominant-baseline="text-before-edge" fill="#1e1e1e" font-family="Virgil, Segoe UI Emoji" font-size="16px" style="white-space: pre;" text-anchor="start" x="0" y="80">- Click Count</text></g><g transform="translate(410.4193573604496 314.0709607156632) rotate(0 183.97589111328125 30)"><text direction="ltr" dominant-baseline="text-before-edge" fill="#1e1e1e" font-family="Virgil, Segoe UI Emoji" font-size="16px" style="white-space: pre;" text-anchor="start" x="0" y="0">- Both Kinesis and Flink partition by AdId with</text><text direction="ltr" dominant-baseline="text-before-edge" fill="#1e1e1e" font-family="Virgil, Segoe UI Emoji" font-size="16px" style="white-space: pre;" text-anchor="start" x="0" y="20">   celebrity solution for hot shards</text><text direction="ltr" dominant-baseline="text-before-edge" fill="#1e1e1e" font-family="Virgil, Segoe UI Emoji" font-size="16px" style="white-space: pre;" text-anchor="start" x="0" y="40">- 7 day retention period on Kinesis</text></g><g stroke-linecap="round" transform="translate(199.26532885268892 170.00189876250442) rotate(0 41.82508274689235 135.50951017640364)"><path d="M20.91 0 C34 -1.43, 47.79 -1.21, 62.74 0 M20.91 0 C33.58 1.05, 44.14 -0.56, 62.74 0 M62.74 0 C75.35 1.54, 83.52 6.75, 83.65 20.91 M62.74 0 C78.57 -2.12, 84.2 6.45, 83.65 20.91 M83.65 20.91 C80.43 87.09, 81.99 156.83, 83.65 250.11 M83.65 20.91 C82.57 112.13, 82.66 203.73, 83.65 250.11 M83.65 250.11 C85.31 265.86, 75.38 270.62, 62.74 271.02 M83.65 250.11 C84.2 262.74, 75.61 272.15, 62.74 271.02 M62.74 271.02 C51.85 269.45, 41.71 271.35, 20.91 271.02 M62.74 271.02 C45.74 270.25, 29.46 270.29, 20.91 271.02 M20.91 271.02 C7.45 272.4, 0.86 263.9, 0 250.11 M20.91 271.02 C6.69 272.78, 1.45 265.09, 0 250.11 M0 250.11 C-0.3 167.4, -1.12 86.46, 0 20.91 M0 250.11 C-1.78 161.83, -2.13 74.54, 0 20.91 M0 20.91 C-1.55 5.49, 8.43 -1.67, 20.91 0 M0 20.91 C1.37 8.97, 7.18 0.94, 20.91 0" fill="none" stroke="#1e1e1e" stroke-width="1"></path></g><g transform="translate(205.75447409958127 285.51140893890806) rotate(0 35.3359375 20)"><text direction="ltr" dominant-baseline="text-before-edge" fill="#1e1e1e" font-family="Virgil, Segoe UI Emoji" font-size="16px" style="white-space: pre;" text-anchor="middle" x="35.3359375" y="0">LB &amp; API </text><text direction="ltr" dominant-baseline="text-before-edge" fill="#1e1e1e" font-family="Virgil, Segoe UI Emoji" font-size="16px" style="white-space: pre;" text-anchor="middle" x="35.3359375" y="20">Gateway</text></g><g stroke-linecap="round" transform="translate(10 259.64809044298363) rotate(0 55.986328125 44.6328125)"><path d="M22.32 0 C36.1 0.5, 50.22 1.96, 89.66 0 M22.32 0 C48.58 1.18, 76.11 0.3, 89.66 0 M89.66 0 C106.18 -1.85, 112.45 6.99, 111.97 22.32 M89.66 0 C104.37 -2.16, 109.93 5.57, 111.97 22.32 M111.97 22.32 C113.99 31.45, 113.62 45.5, 111.97 66.95 M111.97 22.32 C113.17 35.65, 111.69 46.96, 111.97 66.95 M111.97 66.95 C112.45 80.69, 103.6 90.25, 89.66 89.27 M111.97 66.95 C110.65 79.9, 102.78 88.41, 89.66 89.27 M89.66 89.27 C75.63 90.68, 55.89 88.87, 22.32 89.27 M89.66 89.27 C72.42 89.72, 55.13 88.95, 22.32 89.27 M22.32 89.27 C7.2 90.8, 1.26 82.73, 0 66.95 M22.32 89.27 C8.7 90.5, -1.67 82.83, 0 66.95 M0 66.95 C1.67 58.72, -1.55 46.77, 0 22.32 M0 66.95 C-0.46 55.97, 1.04 45.64, 0 22.32 M0 22.32 C1.19 9.17, 7.62 0.81, 22.32 0 M0 22.32 C2.23 7.45, 8.38 1.33, 22.32 0" fill="none" stroke="#1e1e1e" stroke-width="1"></path></g><g transform="translate(38.880859375 294.28090294298363) rotate(0 27.10546875 10)"><text direction="ltr" dominant-baseline="text-before-edge" fill="#1e1e1e" font-family="Virgil, Segoe UI Emoji" font-size="16px" style="white-space: pre;" text-anchor="middle" x="27.10546875" y="0">Browser</text></g><g stroke-linecap="round"><g transform="translate(134.9927141946137 303.97266727642545) rotate(0 28.493545973935483 0.11173916449297394)"><path d="M0.85 1.2 C10.22 1.14, 46.94 -0.5, 56.16 -0.51 M-0.16 0.78 C9.59 0.87, 48.63 0.89, 58.44 0.65" fill="none" stroke="#1e1e1e" stroke-width="1"></path></g><g transform="translate(134.9927141946137 303.97266727642545) rotate(0 28.493545973935483 0.11173916449297394)"><path d="M27.29 -9.42 C21.39 -7.44, 10.29 -4.23, 0.85 1.2 M27.29 -9.42 C18.14 -6.37, 7.59 -1.67, 0.85 1.2" fill="none" stroke="#1e1e1e" stroke-width="1"></path></g><g transform="translate(134.9927141946137 303.97266727642545) rotate(0 28.493545973935483 0.11173916449297394)"><path d="M27.93 10.06 C21.86 6.23, 10.57 3.64, 0.85 1.2 M27.93 10.06 C18.55 5.77, 7.76 3.12, 0.85 1.2" fill="none" stroke="#1e1e1e" stroke-width="1"></path></g><g transform="translate(134.9927141946137 303.97266727642545) rotate(0 28.493545973935483 0.11173916449297394)"><path d="M31.76 10.67 C41.73 6.11, 46.47 3.17, 58.44 0.65 M31.76 10.67 C42.65 6, 52.11 2.92, 58.44 0.65" fill="none" stroke="#1e1e1e" stroke-width="1"></path></g><g transform="translate(134.9927141946137 303.97266727642545) rotate(0 28.493545973935483 0.11173916449297394)"><path d="M31.56 -8.82 C41.56 -7.57, 46.36 -4.69, 58.44 0.65 M31.56 -8.82 C42.51 -6.15, 52.05 -1.88, 58.44 0.65" fill="none" stroke="#1e1e1e" stroke-width="1"></path></g></g><mask></mask><g stroke-linecap="round"><g transform="translate(295.213602149306 365.1145452262963) rotate(0 48.97119861655193 29.936599059514265)"><path d="M-0.83 -0.73 C15.22 9.2, 80.7 50.72, 97.15 60.8 M0.94 1.5 C17.3 11.61, 83.42 49.24, 99.44 59.16" fill="none" stroke="#1e1e1e" stroke-width="1"></path></g><g transform="translate(295.213602149306 365.1145452262963) rotate(0 48.97119861655193 29.936599059514265)"><path d="M28.5 5.6 C16.34 1.72, 8.21 0.57, -0.83 -0.73 M28.5 5.6 C20.22 3.27, 11.44 0.73, -0.83 -0.73" fill="none" stroke="#1e1e1e" stroke-width="1"></path></g><g transform="translate(295.213602149306 365.1145452262963) rotate(0 48.97119861655193 29.936599059514265)"><path d="M17.57 22.97 C9.29 12.72, 5.22 5.13, -0.83 -0.73 M17.57 22.97 C12.3 15.73, 6.68 8.17, -0.83 -0.73" fill="none" stroke="#1e1e1e" stroke-width="1"></path></g><g transform="translate(295.213602149306 365.1145452262963) rotate(0 48.97119861655193 29.936599059514265)"><path d="M69.95 53.65 C79.73 54.57, 93.43 57.81, 99.44 59.16 M69.95 53.65 C78.75 55.29, 86.95 56.17, 99.44 59.16" fill="none" stroke="#1e1e1e" stroke-width="1"></path></g><g transform="translate(295.213602149306 365.1145452262963) rotate(0 48.97119861655193 29.936599059514265)"><path d="M80.39 35.99 C86.47 43.39, 96.29 53.18, 99.44 59.16 M80.39 35.99 C86.32 42.63, 91.51 48.6, 99.44 59.16" fill="none" stroke="#1e1e1e" stroke-width="1"></path></g></g><mask></mask><g stroke-linecap="round"><g transform="translate(290.44346373588587 231.76087386033032) rotate(0 17.104613218133522 -21.37302857672921)"><path d="M-0.8 0.92 C5.03 -6.1, 28.13 -35.42, 34.13 -42.88 M0.99 0.36 C6.72 -6.41, 27.48 -34.17, 33.14 -41.41" fill="none" stroke="#1e1e1e" stroke-width="1"></path></g><g transform="translate(290.44346373588587 231.76087386033032) rotate(0 17.104613218133522 -21.37302857672921)"><path d="M7.93 -25.02 C7.29 -19.21, 3.51 -11.45, -0.8 0.92 M7.93 -25.02 C6.11 -20.59, 3.48 -15.08, -0.8 0.92" fill="none" stroke="#1e1e1e" stroke-width="1"></path></g><g transform="translate(290.44346373588587 231.76087386033032) rotate(0 17.104613218133522 -21.37302857672921)"><path d="M22.57 -13.34 C18.62 -10.33, 11.46 -5.26, -0.8 0.92 M22.57 -13.34 C17.68 -11.37, 12.01 -8.29, -0.8 0.92" fill="none" stroke="#1e1e1e" stroke-width="1"></path></g><g transform="translate(290.44346373588587 231.76087386033032) rotate(0 17.104613218133522 -21.37302857672921)"><path d="M24.97 -15.29 C28.55 -21.4, 28.68 -25.66, 33.14 -41.41 M24.97 -15.29 C26.53 -21.63, 27.41 -26.93, 33.14 -41.41" fill="none" stroke="#1e1e1e" stroke-width="1"></path></g><g transform="translate(290.44346373588587 231.76087386033032) rotate(0 17.104613218133522 -21.37302857672921)"><path d="M10.09 -26.66 C17.04 -30.04, 20.61 -31.68, 33.14 -41.41 M10.09 -26.66 C14.77 -30.61, 18.74 -33.55, 33.14 -41.41" fill="none" stroke="#1e1e1e" stroke-width="1"></path></g></g><mask></mask><g stroke-linecap="round"><g transform="translate(736.9681749175398 447.3291240580256) rotate(0 18.929250724075928 25.420822374378076)"><path d="M-0.08 -0.14 C6.53 8, 32.47 41.28, 38.85 49.73 M-1.58 -1.25 C5.03 6.91, 31.9 41.86, 38.41 50.69" fill="none" stroke="#1e1e1e" stroke-width="1"></path></g><g transform="translate(736.9681749175398 447.3291240580256) rotate(0 18.929250724075928 25.420822374378076)"><path d="M13.23 34.39 C19.01 39.86, 23.27 42.5, 38.41 50.69 M13.23 34.39 C19.31 38.34, 26.63 43.77, 38.41 50.69" fill="none" stroke="#1e1e1e" stroke-width="1"></path></g><g transform="translate(736.9681749175398 447.3291240580256) rotate(0 18.929250724075928 25.420822374378076)"><path d="M29.59 22.01 C31.65 30.36, 32.09 35.89, 38.41 50.69 M29.59 22.01 C31.13 29.24, 33.9 38.11, 38.41 50.69" fill="none" stroke="#1e1e1e" stroke-width="1"></path></g></g><mask></mask><g stroke-linecap="round" transform="translate(752.235753241834 493.6851907923183) rotate(0 65.60316897266057 63.5)"><path d="M72.46 -0.44 C82.06 -0.34, 93.41 4.73, 101.96 10.61 C110.51 16.5, 118.7 26.2, 123.74 34.86 C128.78 43.51, 132.06 52.72, 132.19 62.52 C132.33 72.32, 129.45 84.63, 124.55 93.63 C119.64 102.63, 111.23 110.91, 102.75 116.53 C94.26 122.15, 83.53 126.4, 73.63 127.35 C63.73 128.31, 52.9 125.83, 43.36 122.26 C33.81 118.69, 23.37 113.25, 16.38 105.93 C9.38 98.61, 3.7 88.02, 1.37 78.34 C-0.97 68.66, 0 57.44, 2.37 47.84 C4.74 38.23, 9 28.09, 15.58 20.71 C22.16 13.33, 31.94 6.82, 41.86 3.54 C51.78 0.27, 69.04 1.16, 75.11 1.05 C81.18 0.94, 78.54 1.96, 78.29 2.9 M52.78 2.33 C62.13 -0.39, 74.77 -0.37, 84.45 2.38 C94.12 5.12, 103.44 11.88, 110.83 18.82 C118.21 25.76, 125.37 34.75, 128.76 44.02 C132.15 53.29, 133.15 64.73, 131.19 74.44 C129.23 84.14, 123.43 94.54, 116.99 102.26 C110.56 109.98, 101.71 116.46, 92.57 120.78 C83.44 125.1, 71.93 128.76, 62.17 128.19 C52.41 127.62, 42.77 122.64, 34.03 117.35 C25.3 112.05, 15.57 104.61, 9.76 96.43 C3.95 88.25, 0.12 78.08, -0.83 68.27 C-1.78 58.45, -0.27 46.74, 4.06 37.55 C8.4 28.35, 16.95 18.92, 25.16 13.1 C33.37 7.27, 48.7 4.25, 53.31 2.6 C57.93 0.94, 52.51 2.33, 52.82 3.15" fill="none" stroke="#1e1e1e" stroke-width="1"></path></g><g transform="translate(781.9543828165994 537.2839101869725) rotate(0 35.99609375 20)"><text direction="ltr" dominant-baseline="text-before-edge" fill="#1e1e1e" font-family="Virgil, Segoe UI Emoji" font-size="16px" style="white-space: pre;" text-anchor="middle" x="35.99609375" y="0">Raw Click </text><text direction="ltr" dominant-baseline="text-before-edge" fill="#1e1e1e" font-family="Virgil, Segoe UI Emoji" font-size="16px" style="white-space: pre;" text-anchor="middle" x="35.99609375" y="20">Data (s3)</text></g><g stroke-linecap="round" transform="translate(969.4976419437265 457.75345636681686) rotate(0 40.84526841546733 107.17807252860484)"><path d="M20.42 0 C31.77 -1.75, 45.25 -1.1, 61.27 0 M20.42 0 C32.22 0.4, 46.47 -0.62, 61.27 0 M61.27 0 C76.54 0.02, 83.35 8.62, 81.69 20.42 M61.27 0 C73.39 -0.46, 82.24 5.5, 81.69 20.42 M81.69 20.42 C80.87 62.85, 81.8 107.09, 81.69 193.93 M81.69 20.42 C82.85 65.24, 81.95 111.4, 81.69 193.93 M81.69 193.93 C81.89 206.83, 75.36 215.74, 61.27 214.36 M81.69 193.93 C82.68 207.37, 74.61 216.12, 61.27 214.36 M61.27 214.36 C47.51 213.13, 32.47 212.97, 20.42 214.36 M61.27 214.36 C49.97 213.91, 36.81 213.99, 20.42 214.36 M20.42 214.36 C5.41 213.82, -1.55 206.06, 0 193.93 M20.42 214.36 C8.49 212.44, 1.37 209.54, 0 193.93 M0 193.93 C-0.7 141.11, 0.45 84.66, 0 20.42 M0 193.93 C0.36 153.34, 0.58 114.02, 0 20.42 M0 20.42 C0.59 7.66, 8.03 0.91, 20.42 0 M0 20.42 C-1.29 7.25, 7.6 -1.62, 20.42 0" fill="none" stroke="#1e1e1e" stroke-width="1"></path></g><g transform="translate(983.6905666091939 534.9315288954217) rotate(0 26.65234375 30)"><text direction="ltr" dominant-baseline="text-before-edge" fill="#1e1e1e" font-family="Virgil, Segoe UI Emoji" font-size="16px" style="white-space: pre;" text-anchor="middle" x="26.65234375" y="0">Spark</text><text direction="ltr" dominant-baseline="text-before-edge" fill="#1e1e1e" font-family="Virgil, Segoe UI Emoji" font-size="16px" style="white-space: pre;" text-anchor="middle" x="26.65234375" y="20">(Map </text><text direction="ltr" dominant-baseline="text-before-edge" fill="#1e1e1e" font-family="Virgil, Segoe UI Emoji" font-size="16px" style="white-space: pre;" text-anchor="middle" x="26.65234375" y="40">Reduce)</text></g><g stroke-linecap="round" transform="translate(1113.5378410644794 594.5028790248243) rotate(0 45.190696673475486 19.707706582320498)"><path d="M9.85 0 C24.97 2.33, 41.66 -1.34, 80.53 0 M9.85 0 C37.54 0.16, 64.41 1.06, 80.53 0 M80.53 0 C85.8 -0.4, 90.86 2.15, 90.38 9.85 M80.53 0 C86.02 1.13, 89.06 1.35, 90.38 9.85 M90.38 9.85 C89.59 14.9, 92.26 19.84, 90.38 29.56 M90.38 9.85 C90.42 13.68, 90.56 18.91, 90.38 29.56 M90.38 29.56 C91.24 35.98, 86.86 40.95, 80.53 39.42 M90.38 29.56 C91.84 37.17, 88.36 40.65, 80.53 39.42 M80.53 39.42 C64.38 37.72, 50.06 40.42, 9.85 39.42 M80.53 39.42 C64.16 38.65, 48.42 38.17, 9.85 39.42 M9.85 39.42 C4.75 37.75, 1.19 37.86, 0 29.56 M9.85 39.42 C3.5 40.35, 2.23 36.14, 0 29.56 M0 29.56 C-1.52 22.31, -0.03 15.9, 0 9.85 M0 29.56 C0.27 25.91, 0.58 21.87, 0 9.85 M0 9.85 C-1.12 3.67, 3.97 -1.41, 9.85 0 M0 9.85 C0.11 3.09, 1.91 -1.82, 9.85 0" fill="none" stroke="#1e1e1e" stroke-width="1"></path></g><g transform="translate(1144.5136939879549 604.2105856071448) rotate(0 14.21484375 10)"><text direction="ltr" dominant-baseline="text-before-edge" fill="#1e1e1e" font-family="Virgil, Segoe UI Emoji" font-size="16px" style="white-space: pre;" text-anchor="middle" x="14.21484375" y="0">cron</text></g><g stroke-linecap="round"><g transform="translate(1101.6189950984212 614.342113802998) rotate(0 -17.663040992236347 0)"><path d="M-0.48 0.44 C-6.39 0.33, -29.2 -0.05, -34.93 -0.12 M0.28 0.19 C-5.71 0.39, -29.28 0.45, -35.16 0.52" fill="none" stroke="#1e1e1e" stroke-width="1"></path></g><g transform="translate(1101.6189950984212 614.342113802998) rotate(0 -17.663040992236347 0)"><path d="M-18.6 -5.64 C-24.42 -2.63, -31.89 -0.1, -35.16 0.52 M-18.6 -5.64 C-23.84 -3.8, -28.43 -2.11, -35.16 0.52" fill="none" stroke="#1e1e1e" stroke-width="1"></path></g><g transform="translate(1101.6189950984212 614.342113802998) rotate(0 -17.663040992236347 0)"><path d="M-18.52 6.45 C-24.43 4.66, -31.93 2.41, -35.16 0.52 M-18.52 6.45 C-23.83 4.65, -28.45 2.7, -35.16 0.52" fill="none" stroke="#1e1e1e" stroke-width="1"></path></g></g><mask></mask><g stroke-linecap="round"><g transform="translate(963.104774857144 565.1935453480737) rotate(0 -36.905232806046854 -1.4819644685528601)"><path d="M0.87 -0.26 C-11.1 -0.91, -60.53 -2.68, -72.82 -2.95 M-0.14 -1.44 C-12.08 -1.97, -61.09 -1.04, -73.24 -1.41" fill="none" stroke="#1e1e1e" stroke-width="1"></path></g><g transform="translate(963.104774857144 565.1935453480737) rotate(0 -36.905232806046854 -1.4819644685528601)"><path d="M-45.02 -11.59 C-51.39 -7.56, -56.96 -5.39, -73.24 -1.41 M-45.02 -11.59 C-55.88 -8.24, -67.61 -3.2, -73.24 -1.41" fill="none" stroke="#1e1e1e" stroke-width="1"></path></g><g transform="translate(963.104774857144 565.1935453480737) rotate(0 -36.905232806046854 -1.4819644685528601)"><path d="M-45.08 8.93 C-51.6 8.59, -57.16 6.38, -73.24 -1.41 M-45.08 8.93 C-55.78 4.27, -67.49 1.29, -73.24 -1.41" fill="none" stroke="#1e1e1e" stroke-width="1"></path></g></g><mask></mask><g stroke-linecap="round" transform="translate(943.0217457861967 353.43289445249684) rotate(0 68.41211460905242 31.137503778101063)"><path d="M15.57 0 C54.93 0.78, 96.07 -2.18, 121.26 0 M15.57 0 C44.71 1.09, 74.21 -0.24, 121.26 0 M121.26 0 C130.11 -0.74, 135.58 4.46, 136.82 15.57 M121.26 0 C132.39 2.28, 138.19 3.17, 136.82 15.57 M136.82 15.57 C135.98 24.44, 138.08 33.21, 136.82 46.71 M136.82 15.57 C137.42 25.13, 137.34 34.32, 136.82 46.71 M136.82 46.71 C135.37 57.96, 130.03 62.19, 121.26 62.28 M136.82 46.71 C135.52 58.98, 133.44 60.47, 121.26 62.28 M121.26 62.28 C92.05 59.98, 62.42 62.99, 15.57 62.28 M121.26 62.28 C98.45 63.6, 76.43 63.2, 15.57 62.28 M15.57 62.28 C6.01 63.43, -1.99 55.66, 0 46.71 M15.57 62.28 C4.56 62.37, -0.26 54.93, 0 46.71 M0 46.71 C1.04 38.27, 1.1 26.25, 0 15.57 M0 46.71 C-0.06 36.69, -0.71 26.04, 0 15.57 M0 15.57 C-1.3 6.96, 5 -0.54, 15.57 0 M0 15.57 C0.25 3.19, 7.48 -0.87, 15.57 0" fill="none" stroke="#1e1e1e" stroke-width="1"></path></g><g transform="translate(962.7815166452491 364.5703982305979) rotate(0 48.65234375 20)"><text direction="ltr" dominant-baseline="text-before-edge" fill="#1e1e1e" font-family="Virgil, Segoe UI Emoji" font-size="16px" style="white-space: pre;" text-anchor="middle" x="48.65234375" y="0">Reconciliation </text><text direction="ltr" dominant-baseline="text-before-edge" fill="#1e1e1e" font-family="Virgil, Segoe UI Emoji" font-size="16px" style="white-space: pre;" text-anchor="middle" x="48.65234375" y="20">Worker</text></g><g mask="url(#mask-cIBviLcM69faYZ7cpvyJU)" stroke-linecap="round"><g transform="translate(1016.5189570472015 349.2031513794809) rotate(0 -69.74586110485126 -22.80028455212073)"><path d="M-0.78 -0.24 C-8.45 -7.84, -21.81 -37.05, -45.02 -44.51 C-68.23 -51.98, -124.19 -44.66, -140.05 -45.01 M1.01 -1.41 C-6.88 -8.35, -22.13 -35.73, -45.81 -43.33 C-69.5 -50.94, -125.36 -46.59, -141.11 -47.04" fill="none" stroke="#1e1e1e" stroke-width="1"></path></g><g transform="translate(1016.5189570472015 349.2031513794809) rotate(0 -69.74586110485126 -22.80028455212073)"><path d="M-113.12 -57.84 C-124.14 -53.41, -135.59 -50.69, -141.11 -47.04 M-113.12 -57.84 C-123.72 -54.67, -133.36 -50.9, -141.11 -47.04" fill="none" stroke="#1e1e1e" stroke-width="1"></path></g><g transform="translate(1016.5189570472015 349.2031513794809) rotate(0 -69.74586110485126 -22.80028455212073)"><path d="M-112.73 -37.32 C-124.08 -40.75, -135.69 -45.88, -141.11 -47.04 M-112.73 -37.32 C-123.35 -41.32, -133.12 -44.72, -141.11 -47.04" fill="none" stroke="#1e1e1e" stroke-width="1"></path></g></g><mask id="mask-cIBviLcM69faYZ7cpvyJU"><rect fill="#fff" height="494.8037204837224" width="1256.010679256904" x="0" y="0"></rect><rect fill="#000" height="40" opacity="1" width="107.9375" x="917.2455978010956" y="285.370733243793"></rect></mask><g transform="translate(917.2455978010956 285.370733243793) rotate(0 29.223157335992255 39.772061903917404)"><text direction="ltr" dominant-baseline="text-before-edge" fill="#1e1e1e" font-family="Virgil, Segoe UI Emoji" font-size="16px" style="white-space: pre;" text-anchor="middle" x="53.96875" y="0">potentially fix </text><text direction="ltr" dominant-baseline="text-before-edge" fill="#1e1e1e" font-family="Virgil, Segoe UI Emoji" font-size="16px" style="white-space: pre;" text-anchor="middle" x="53.96875" y="20">incorrect records</text></g><g stroke-linecap="round"><g transform="translate(1065.9007462062182 505.00405759083606) rotate(0 31.93939204423691 -60.94305661582939)"><path d="M-0.56 0.59 C9.92 -8.14, 59.11 -32.58, 63.19 -53.07 C67.26 -73.55, 30.41 -110.79, 23.89 -122.33 M1.35 -0.14 C12.2 -8.7, 61.38 -31.87, 65.54 -52.06 C69.7 -72.24, 33.24 -109.68, 26.3 -121.25" fill="none" stroke="#1e1e1e" stroke-width="1"></path></g><g transform="translate(1065.9007462062182 505.00405759083606) rotate(0 31.93939204423691 -60.94305661582939)"><path d="M51.52 -105 C44.43 -111.53, 33.6 -117.17, 26.3 -121.25 M51.52 -105 C45.32 -108.37, 38.96 -114.51, 26.3 -121.25" fill="none" stroke="#1e1e1e" stroke-width="1"></path></g><g transform="translate(1065.9007462062182 505.00405759083606) rotate(0 31.93939204423691 -60.94305661582939)"><path d="M35.18 -92.59 C33.45 -103.06, 27.91 -112.73, 26.3 -121.25 M35.18 -92.59 C33.35 -99.16, 31.29 -108.56, 26.3 -121.25" fill="none" stroke="#1e1e1e" stroke-width="1"></path></g></g><mask></mask><g stroke-linecap="round" transform="translate(305.95404368295556 261.4841331209627) rotate(0 39.46268808342085 36.73294215164606)"><path d="M24.38 2.98 C31.22 0.17, 42.65 0.05, 50.07 1.7 C57.48 3.35, 64.13 7.42, 68.86 12.86 C73.59 18.3, 77.82 27.06, 78.43 34.34 C79.04 41.61, 76.46 50.34, 72.53 56.49 C68.61 62.64, 62 68.62, 54.88 71.25 C47.75 73.87, 37.26 73.96, 29.77 72.24 C22.29 70.52, 14.83 66.34, 9.96 60.93 C5.08 55.52, 1.11 47.19, 0.54 39.78 C-0.02 32.37, 2.2 22.9, 6.57 16.49 C10.94 10.07, 23.16 3.76, 26.74 1.3 C30.32 -1.16, 27.79 0.91, 28.07 1.75 M23.34 2.38 C29.8 -0.69, 39.67 -1.63, 47.54 -0.09 C55.42 1.45, 65.23 5.77, 70.59 11.65 C75.95 17.53, 79.26 27.7, 79.7 35.18 C80.14 42.67, 77.18 50.65, 73.23 56.56 C69.28 62.48, 63.05 67.9, 55.99 70.69 C48.92 73.48, 38.84 75.18, 30.83 73.31 C22.83 71.45, 13.13 65.1, 7.94 59.49 C2.76 53.88, 0.09 46.88, -0.29 39.65 C-0.67 32.42, 1.52 22.4, 5.66 16.11 C9.8 9.81, 21.3 3.87, 24.55 1.87 C27.8 -0.13, 24.76 3.27, 25.14 4.1" fill="none" stroke="#1e1e1e" stroke-width="1"></path></g><g transform="translate(325.52411616873997 288.2429627842467) rotate(0 19.98828125 10)"><text direction="ltr" dominant-baseline="text-before-edge" fill="#1e1e1e" font-family="Virgil, Segoe UI Emoji" font-size="16px" style="white-space: pre;" text-anchor="middle" x="19.98828125" y="0">Cache</text></g><g stroke-linecap="round"><g transform="translate(395.81497062238793 396.0777279535314) rotate(0 -19.584364980351637 -25.12215906602796)"><path d="M-0.75 -0.44 C-7.06 -8.54, -32.49 -40.58, -38.78 -49.06 M1.06 -1.72 C-5.29 -10.08, -32.87 -42.42, -39.52 -50.55" fill="none" stroke="#1e1e1e" stroke-width="1"></path></g><g transform="translate(395.81497062238793 396.0777279535314) rotate(0 -19.584364980351637 -25.12215906602796)"><path d="M-26.24 -16.26 C-21.33 -11.91, -12.92 -7.84, -0.75 -0.44 M-26.24 -16.26 C-20.77 -13.16, -15.22 -8.74, -0.75 -0.44" fill="none" stroke="#1e1e1e" stroke-width="1"></path></g><g transform="translate(395.81497062238793 396.0777279535314) rotate(0 -19.584364980351637 -25.12215906602796)"><path d="M-10.11 -28.94 C-8.85 -21.86, -4.05 -14.95, -0.75 -0.44 M-10.11 -28.94 C-8.11 -23.21, -5.98 -16.11, -0.75 -0.44" fill="none" stroke="#1e1e1e" stroke-width="1"></path></g><g transform="translate(395.81497062238793 396.0777279535314) rotate(0 -19.584364980351637 -25.12215906602796)"><path d="M-13.56 -35.51 C-20.04 -38.38, -23.13 -41.2, -39.52 -50.55 M-13.56 -35.51 C-18.93 -39.17, -24.3 -41.31, -39.52 -50.55" fill="none" stroke="#1e1e1e" stroke-width="1"></path></g><g transform="translate(395.81497062238793 396.0777279535314) rotate(0 -19.584364980351637 -25.12215906602796)"><path d="M-29.31 -22.34 C-32.22 -28.06, -31.79 -33.83, -39.52 -50.55 M-29.31 -22.34 C-31.29 -28.74, -33.32 -33.67, -39.52 -50.55" fill="none" stroke="#1e1e1e" stroke-width="1"></path></g></g><mask></mask><g transform="translate(222.6058638160497 81.28368931132354) rotate(0 154.46392822265625 20)"><text direction="ltr" dominant-baseline="text-before-edge" fill="#1e1e1e" font-family="Virgil, Segoe UI Emoji" font-size="16px" style="white-space: pre;" text-anchor="start" x="0" y="0">- generate ad impression id as</text><text direction="ltr" dominant-baseline="text-before-edge" fill="#1e1e1e" font-family="Virgil, Segoe UI Emoji" font-size="16px" style="white-space: pre;" text-anchor="start" x="0" y="20">    idempotency key and store in cache</text></g></svg>