<svg height="837.4024881631581" version="1.1" viewbox="0 0 1859.956650989362 837.4024881631581" width="1859.956650989362" xmlns="http://www.w3.org/2000/svg">
<!-- svg-source:excalidraw -->
<!-- payload-type:application/vnd.excalidraw+json --><!-- payload-version:2 -->
<defs>
<style class="style-fonts">
</style>
</defs>
<rect fill="#ffffff" height="837.4024881631581" width="1859.956650989362" x="0" y="0"></rect><g stroke-linecap="round" transform="translate(10 251.446901748639) rotate(0 128.0182913190058 84.77455315625434)"><path d="M32 0 C96.07 2.68, 154.93 -0.13, 224.04 0 M32 0 C94.73 0.8, 158.04 -0.73, 224.04 0 M224.04 0 C244.19 -1.22, 254.17 8.78, 256.04 32 M224.04 0 C244.39 1.24, 254.42 8.67, 256.04 32 M256.04 32 C254.73 70.7, 254.8 104.2, 256.04 137.55 M256.04 32 C256.63 70.79, 257.6 111.34, 256.04 137.55 M256.04 137.55 C257.84 159.17, 245.7 169.49, 224.04 169.55 M256.04 137.55 C256.63 160.7, 243.77 169.83, 224.04 169.55 M224.04 169.55 C182.51 167.74, 143.17 169.27, 32 169.55 M224.04 169.55 C176.65 170.49, 131.54 170.87, 32 169.55 M32 169.55 C12.15 169.58, -0.12 158.95, 0 137.55 M32 169.55 C11.24 167.83, 0.32 159.63, 0 137.55 M0 137.55 C-1.86 100.08, 0.72 63.22, 0 32 M0 137.55 C1.05 107.9, 1 77.5, 0 32 M0 32 C1.52 10.13, 8.92 0.38, 32 0 M0 32 C1.61 10.8, 10.44 -2.22, 32 0" fill="none" stroke="#1e1e1e" stroke-width="1"></path></g><g transform="translate(63.86301788150581 323.72145490489333) rotate(0 74.1552734375 12.5)"><text direction="ltr" dominant-baseline="text-before-edge" fill="#1e1e1e" font-family="Virgil, Segoe UI Emoji" font-size="20px" style="white-space: pre;" text-anchor="middle" x="74.1552734375" y="0">Commenter Client</text></g><g mask="url(#mask-ZAvQFxypSqjgHa3H2FpDX)" stroke-linecap="round"><g transform="translate(289.9586521006024 289.4782835421702) rotate(0 123.1463414244705 1.931271818146115)"><path d="M-1.1 0.34 C39.87 1.1, 205.27 3.07, 246.42 3.79 M0.52 -0.52 C41.3 0.5, 204.83 4.74, 245.54 5.29" fill="none" stroke="#1e1e1e" stroke-width="1"></path></g><g transform="translate(289.9586521006024 289.4782835421702) rotate(0 123.1463414244705 1.931271818146115)"><path d="M27.23 -9.53 C17.86 -6.13, 7.28 -3.7, -1.1 0.34 M27.23 -9.53 C16.18 -6.74, 5.4 -3.44, -1.1 0.34" fill="none" stroke="#1e1e1e" stroke-width="1"></path></g><g transform="translate(289.9586521006024 289.4782835421702) rotate(0 123.1463414244705 1.931271818146115)"><path d="M26.95 10.99 C17.8 7.23, 7.32 2.51, -1.1 0.34 M26.95 10.99 C16.04 6.22, 5.37 1.97, -1.1 0.34" fill="none" stroke="#1e1e1e" stroke-width="1"></path></g><g transform="translate(289.9586521006024 289.4782835421702) rotate(0 123.1463414244705 1.931271818146115)"><path d="M217.14 14.96 C227.68 12.06, 236.89 7.68, 245.54 5.29 M217.14 14.96 C227.03 11.03, 237.15 7.13, 245.54 5.29" fill="none" stroke="#1e1e1e" stroke-width="1"></path></g><g transform="translate(289.9586521006024 289.4782835421702) rotate(0 123.1463414244705 1.931271818146115)"><path d="M217.57 -5.55 C227.83 -1.3, 236.89 1.47, 245.54 5.29 M217.57 -5.55 C227.26 -1.93, 237.22 1.73, 245.54 5.29" fill="none" stroke="#1e1e1e" stroke-width="1"></path></g></g><mask id="mask-ZAvQFxypSqjgHa3H2FpDX"><rect fill="#fff" height="393.3408271784624" width="636.2513349495434" x="0" y="0"></rect><rect fill="#000" height="25" opacity="1" width="61.123046875" x="382.5434700875729" y="278.9095553603163"></rect></mask><g transform="translate(382.5434700875729 278.9095553603163) rotate(0 30.07452576719224 12.952481928803024)"><text direction="ltr" dominant-baseline="text-before-edge" fill="#1e1e1e" font-family="Virgil, Segoe UI Emoji" font-size="20px" style="white-space: pre;" text-anchor="middle" x="30.5615234375" y="0">HTTPS</text></g><g stroke-linecap="round" transform="translate(563.033988117355 10.486329565606866) rotate(0 52.987237405710914 314.61157847145796)"><path d="M26.49 0 C44.32 -0.21, 57.71 -0.97, 79.48 0 M26.49 0 C38.74 1.04, 51.14 -0.37, 79.48 0 M79.48 0 C98.14 0.36, 107.31 7.34, 105.97 26.49 M79.48 0 C99.21 -1.64, 104.12 10.53, 105.97 26.49 M105.97 26.49 C107.17 248, 108.04 469.13, 105.97 602.73 M105.97 26.49 C106.45 207.97, 106.07 388.85, 105.97 602.73 M105.97 602.73 C104.18 620.91, 96.09 628.09, 79.48 629.22 M105.97 602.73 C105.05 620.31, 97.99 627.88, 79.48 629.22 M79.48 629.22 C64.04 629.28, 50.38 630.18, 26.49 629.22 M79.48 629.22 C63.75 628.5, 47.66 629.57, 26.49 629.22 M26.49 629.22 C9.91 630.03, 0.36 618.95, 0 602.73 M26.49 629.22 C8.7 630.54, 0.45 620.04, 0 602.73 M0 602.73 C0.78 480.1, 0.5 357.94, 0 26.49 M0 602.73 C2.3 445.4, 1.98 287.64, 0 26.49 M0 26.49 C-1.22 8.87, 9.62 0.6, 26.49 0 M0 26.49 C0.19 8.08, 8.59 -0.84, 26.49 0" fill="none" stroke="#1e1e1e" stroke-width="1"></path></g><g transform="translate(580.4889989605658 300.0979080370648) rotate(0 35.5322265625 25)"><text direction="ltr" dominant-baseline="text-before-edge" fill="#1e1e1e" font-family="Virgil, Segoe UI Emoji" font-size="20px" style="white-space: pre;" text-anchor="middle" x="35.5322265625" y="0">Load </text><text direction="ltr" dominant-baseline="text-before-edge" fill="#1e1e1e" font-family="Virgil, Segoe UI Emoji" font-size="20px" style="white-space: pre;" text-anchor="middle" x="35.5322265625" y="25">Balancer</text></g><g stroke-linecap="round" transform="translate(829.0716441099039 73.28495701370684) rotate(0 170.30904558041385 102.57951969389615)"><path d="M32 0 C108.21 -0.18, 184.84 0.61, 308.62 0 M32 0 C130.29 2, 228.33 1.28, 308.62 0 M308.62 0 C331.75 -1.43, 339.01 12.15, 340.62 32 M308.62 0 C331.87 1.74, 339.96 9.1, 340.62 32 M340.62 32 C341.48 84.36, 341.13 136.58, 340.62 173.16 M340.62 32 C338.74 85.78, 339.11 138.48, 340.62 173.16 M340.62 173.16 C339.81 194.42, 330.69 203.99, 308.62 205.16 M340.62 173.16 C339.98 196.22, 327.66 203.99, 308.62 205.16 M308.62 205.16 C217.6 206.65, 126.59 207.13, 32 205.16 M308.62 205.16 C246.67 206.17, 184.02 205.3, 32 205.16 M32 205.16 C10.56 206.3, 0.39 194.19, 0 173.16 M32 205.16 C8.66 204.7, 0.29 195.41, 0 173.16 M0 173.16 C-0.6 127.89, 0.31 87.52, 0 32 M0 173.16 C-0.48 130.01, 0.53 87.11, 0 32 M0 32 C0.17 10.02, 10.46 -0.73, 32 0 M0 32 C2.03 9.53, 10.77 -0.9, 32 0" fill="none" stroke="#1e1e1e" stroke-width="1"></path></g><g transform="translate(872.7498303153177 163.364476707603) rotate(0 126.630859375 12.5)"><text direction="ltr" dominant-baseline="text-before-edge" fill="#1e1e1e" font-family="Virgil, Segoe UI Emoji" font-size="20px" style="white-space: pre;" text-anchor="middle" x="126.630859375" y="0">Comment Management Service</text></g><g stroke-linecap="round"><g transform="translate(685.65572717853 192.03302553662797) rotate(0 60.622670454105105 0.2366320119174361)"><path d="M-0.51 0.65 C19.74 0.74, 100.01 -0.58, 120.4 -0.57 M1.42 -0.06 C22.15 0.25, 102.68 0.06, 122.67 0.42" fill="none" stroke="#1e1e1e" stroke-width="1"></path></g><g transform="translate(685.65572717853 192.03302553662797) rotate(0 60.622670454105105 0.2366320119174361)"><path d="M27.57 -9.91 C22.75 -9.25, 14.12 -4.67, -0.51 0.65 M27.57 -9.91 C19.61 -7.47, 8.98 -2.67, -0.51 0.65" fill="none" stroke="#1e1e1e" stroke-width="1"></path></g><g transform="translate(685.65572717853 192.03302553662797) rotate(0 60.622670454105105 0.2366320119174361)"><path d="M27.79 10.61 C23.11 7.03, 14.44 7.37, -0.51 0.65 M27.79 10.61 C19.62 6.52, 8.92 4.8, -0.51 0.65" fill="none" stroke="#1e1e1e" stroke-width="1"></path></g><g transform="translate(685.65572717853 192.03302553662797) rotate(0 60.622670454105105 0.2366320119174361)"><path d="M94.42 10.49 C101.43 7.13, 104.45 7.44, 122.67 0.42 M94.42 10.49 C104.23 6.79, 111.51 5.04, 122.67 0.42" fill="none" stroke="#1e1e1e" stroke-width="1"></path></g><g transform="translate(685.65572717853 192.03302553662797) rotate(0 60.622670454105105 0.2366320119174361)"><path d="M94.55 -10.03 C101.34 -9.15, 104.34 -4.6, 122.67 0.42 M94.55 -10.03 C104.46 -7.21, 111.7 -2.44, 122.67 0.42" fill="none" stroke="#1e1e1e" stroke-width="1"></path></g></g><mask></mask><g stroke-linecap="round" transform="translate(1371.641678328424 49.68229322763091) rotate(0 133.62108660928106 133.6788415220053)"><path d="M165.7 4.99 C179.39 6.08, 193.66 13.07, 206.01 20.97 C218.37 28.88, 230.7 40.92, 239.82 52.43 C248.95 63.93, 256.31 76.35, 260.77 90.01 C265.22 103.67, 266.62 119.72, 266.56 134.39 C266.5 149.06, 264.96 164.41, 260.4 178.01 C255.84 191.61, 248.15 204.66, 239.2 215.97 C230.24 227.28, 218.66 238.09, 206.66 245.86 C194.66 253.63, 181.19 259.22, 167.19 262.58 C153.2 265.93, 137.18 267.17, 122.68 266 C108.18 264.83, 93.54 261.29, 80.18 255.56 C66.82 249.83, 53.23 241.26, 42.54 231.61 C31.85 221.96, 22.94 210.35, 16.06 197.65 C9.17 184.94, 3.48 169.88, 1.23 155.38 C-1.01 140.88, 0.18 124.83, 2.58 110.66 C4.97 96.48, 8.87 82.76, 15.61 70.32 C22.35 57.89, 32.29 45.91, 43.02 36.05 C53.75 26.2, 66.71 17.08, 79.98 11.19 C93.26 5.3, 107.92 1.75, 122.65 0.7 C137.38 -0.34, 160.26 3.62, 168.38 4.94 C176.49 6.27, 171.75 6.51, 171.35 8.67 M86.84 8.34 C98.75 1.33, 113.96 0.04, 128.4 -0.24 C142.83 -0.53, 159.42 2.27, 173.47 6.62 C187.52 10.98, 200.86 17.51, 212.69 25.89 C224.52 34.27, 236.41 45, 244.43 56.91 C252.45 68.82, 256.88 83.36, 260.82 97.36 C264.77 111.36, 268.68 126.73, 268.1 140.89 C267.53 155.05, 263.11 168.91, 257.36 182.31 C251.62 195.72, 242.98 210.08, 233.62 221.32 C224.27 232.57, 213.56 242.61, 201.23 249.78 C188.89 256.95, 173.91 261.71, 159.6 264.35 C145.28 266.98, 129.48 267.58, 115.35 265.58 C101.22 263.57, 87.7 258.84, 74.82 252.32 C61.94 245.8, 48.48 236.85, 38.08 226.47 C27.68 216.1, 18.69 202.87, 12.43 190.07 C6.18 177.27, 2.26 163.98, 0.54 149.68 C-1.18 135.38, -1.18 118.49, 2.12 104.27 C5.42 90.06, 12.55 76.62, 20.34 64.39 C28.13 52.17, 37.65 40.27, 48.84 30.93 C60.03 21.59, 81.04 11.41, 87.46 8.35 C93.89 5.28, 86.94 10.55, 87.38 12.54" fill="none" stroke="#1e1e1e" stroke-width="1"></path></g><g transform="translate(1443.0518259867674 158.33591940826443) rotate(0 62.2265625 25)"><text direction="ltr" dominant-baseline="text-before-edge" fill="#1e1e1e" font-family="Virgil, Segoe UI Emoji" font-size="20px" style="white-space: pre;" text-anchor="middle" x="62.2265625" y="0">Comments DB </text><text direction="ltr" dominant-baseline="text-before-edge" fill="#1e1e1e" font-family="Virgil, Segoe UI Emoji" font-size="20px" style="white-space: pre;" text-anchor="middle" x="62.2265625" y="25">(DynamoDB)</text></g><g stroke-linecap="round"><g transform="translate(1191.7657013226271 183.787609207041) rotate(0 80.12992170582652 -0.03953793054711241)"><path d="M0.8 -0.9 C27.59 -1.09, 134.92 -1.22, 161.34 -0.94 M-0.23 1.25 C26.44 1.17, 133.97 0.54, 160.96 0.15" fill="none" stroke="#1e1e1e" stroke-width="1"></path></g><g transform="translate(1191.7657013226271 183.787609207041) rotate(0 80.12992170582652 -0.03953793054711241)"><path d="M28.98 -11.2 C17.65 -5.61, 7.87 -5.42, 0.8 -0.9 M28.98 -11.2 C18.24 -7.82, 8.68 -2.88, 0.8 -0.9" fill="none" stroke="#1e1e1e" stroke-width="1"></path></g><g transform="translate(1191.7657013226271 183.787609207041) rotate(0 80.12992170582652 -0.03953793054711241)"><path d="M29.01 9.32 C17.64 7.73, 7.84 0.75, 0.8 -0.9 M29.01 9.32 C18.09 5.03, 8.52 2.3, 0.8 -0.9" fill="none" stroke="#1e1e1e" stroke-width="1"></path></g><g transform="translate(1191.7657013226271 183.787609207041) rotate(0 80.12992170582652 -0.03953793054711241)"><path d="M132.86 10.68 C141.17 8.61, 151.06 1.52, 160.96 0.15 M132.86 10.68 C142.99 5.85, 154.47 3, 160.96 0.15" fill="none" stroke="#1e1e1e" stroke-width="1"></path></g><g transform="translate(1191.7657013226271 183.787609207041) rotate(0 80.12992170582652 -0.03953793054711241)"><path d="M132.67 -9.84 C141.09 -4.74, 151.04 -4.65, 160.96 0.15 M132.67 -9.84 C143.05 -7, 154.59 -2.18, 160.96 0.15" fill="none" stroke="#1e1e1e" stroke-width="1"></path></g></g><mask></mask><g transform="translate(1681.2967846563542 102.70819098893753) rotate(0 84.3299331665039 75)"><text direction="ltr" dominant-baseline="text-before-edge" fill="#1e1e1e" font-family="Virgil, Segoe UI Emoji" font-size="20px" style="white-space: pre;" text-anchor="start" x="0" y="0">Comment</text><text direction="ltr" dominant-baseline="text-before-edge" fill="#1e1e1e" font-family="Virgil, Segoe UI Emoji" font-size="20px" style="white-space: pre;" text-anchor="start" x="0" y="25">- commentId</text><text direction="ltr" dominant-baseline="text-before-edge" fill="#1e1e1e" font-family="Virgil, Segoe UI Emoji" font-size="20px" style="white-space: pre;" text-anchor="start" x="0" y="50">- videoId (PK)</text><text direction="ltr" dominant-baseline="text-before-edge" fill="#1e1e1e" font-family="Virgil, Segoe UI Emoji" font-size="20px" style="white-space: pre;" text-anchor="start" x="0" y="75">- content</text><text direction="ltr" dominant-baseline="text-before-edge" fill="#1e1e1e" font-family="Virgil, Segoe UI Emoji" font-size="20px" style="white-space: pre;" text-anchor="start" x="0" y="100">- author</text><text direction="ltr" dominant-baseline="text-before-edge" fill="#1e1e1e" font-family="Virgil, Segoe UI Emoji" font-size="20px" style="white-space: pre;" text-anchor="start" x="0" y="125">- createdAt (SK)</text></g><g transform="translate(346.4042316370312 246.18504761431905) rotate(0 66.38994598388672 12.5)"><text direction="ltr" dominant-baseline="text-before-edge" fill="#1e1e1e" font-family="Virgil, Segoe UI Emoji" font-size="20px" style="white-space: pre;" text-anchor="start" x="0" y="0">- for /create</text></g><g transform="translate(786.3022291012512 10) rotate(0 231.78981018066406 25)"><text direction="ltr" dominant-baseline="text-before-edge" fill="#1e1e1e" font-family="Virgil, Segoe UI Emoji" font-size="20px" style="white-space: pre;" text-anchor="start" x="0" y="0">- When a new comment is posted, persist in DB</text><text direction="ltr" dominant-baseline="text-before-edge" fill="#1e1e1e" font-family="Virgil, Segoe UI Emoji" font-size="20px" style="white-space: pre;" text-anchor="start" x="0" y="25">and sent over SSE to connected clients</text></g><g stroke-linecap="round" transform="translate(817.0863844340765 509.0221095491138) rotate(0 170.30904558041385 102.57951969389615)"><path d="M32 0 C137.02 1.67, 244.76 2, 308.62 0 M32 0 C119.16 0.67, 205.39 0.15, 308.62 0 M308.62 0 C328.16 0.52, 339.57 9.53, 340.62 32 M308.62 0 C329.03 -0.08, 341.46 9.32, 340.62 32 M340.62 32 C340.67 71.03, 341.44 110.37, 340.62 173.16 M340.62 32 C340.78 73.83, 340.67 117.48, 340.62 173.16 M340.62 173.16 C341.7 195.3, 330.32 203.72, 308.62 205.16 M340.62 173.16 C340.49 195.81, 330.4 204.81, 308.62 205.16 M308.62 205.16 C250.33 205.56, 190.89 206.6, 32 205.16 M308.62 205.16 C233.62 205.61, 157.47 204.82, 32 205.16 M32 205.16 C9.44 205.2, 0.78 195.09, 0 173.16 M32 205.16 C10.86 204.41, -0.24 193.65, 0 173.16 M0 173.16 C-0.09 117.78, -0.47 63.19, 0 32 M0 173.16 C1.45 121.18, 1.23 68.7, 0 32 M0 32 C1.22 10.37, 10.52 1.96, 32 0 M0 32 C-1.78 9.48, 9.76 -0.74, 32 0" fill="none" stroke="#1e1e1e" stroke-width="1"></path></g><g stroke-linecap="round" transform="translate(835.9349895555401 523.4753466695634) rotate(0 170.30904558041385 102.57951969389615)"><path d="M32 0 C107.72 -0.07, 182.41 -1.21, 308.62 0 M32 0 C113.69 -1.6, 195.76 -1.49, 308.62 0 M308.62 0 C328.9 -1.13, 339.81 10.6, 340.62 32 M308.62 0 C330.8 -1.34, 339.98 12.39, 340.62 32 M340.62 32 C339.66 61.8, 339.94 88.51, 340.62 173.16 M340.62 32 C341.11 75.18, 341.51 118.11, 340.62 173.16 M340.62 173.16 C340.98 193.05, 329.84 206.3, 308.62 205.16 M340.62 173.16 C341.06 194.14, 327.95 204.7, 308.62 205.16 M308.62 205.16 C222.2 206.51, 135.23 203.99, 32 205.16 M308.62 205.16 C220.32 204.54, 131.7 205.3, 32 205.16 M32 205.16 C11.45 205.76, 0.17 193.84, 0 173.16 M32 205.16 C10.43 204.32, 2.03 193.36, 0 173.16 M0 173.16 C-0.62 129.76, 1.97 85.75, 0 32 M0 173.16 C-0.4 134.84, -0.03 95.98, 0 32 M0 32 C-0.15 12.63, 9.12 -1.03, 32 0 M0 32 C-0.91 9.92, 11.96 -1.33, 32 0" fill="none" stroke="#1e1e1e" stroke-width="1"></path></g><g stroke-linecap="round" transform="translate(858.1692159750828 542.5285409922758) rotate(0 170.30904558041385 102.57951969389615)"><path d="M32 0 C134.19 -1.68, 235.9 -1.53, 308.62 0 M32 0 C136.19 -0.06, 241.36 -0.7, 308.62 0 M308.62 0 C329.15 -0.07, 341.35 9.5, 340.62 32 M308.62 0 C329.32 1.73, 338.33 9.5, 340.62 32 M340.62 32 C340.48 78.34, 340.52 125.42, 340.62 173.16 M340.62 32 C341.35 64.23, 341 94.93, 340.62 173.16 M340.62 173.16 C340.51 195.63, 330.34 204.85, 308.62 205.16 M340.62 173.16 C338.62 194.03, 330.24 206.08, 308.62 205.16 M308.62 205.16 C222.92 205.43, 138.35 207.86, 32 205.16 M308.62 205.16 C223.54 203.11, 139.71 203.32, 32 205.16 M32 205.16 C10.83 204.51, -0.21 193.76, 0 173.16 M32 205.16 C12.69 204.02, 0.11 193.59, 0 173.16 M0 173.16 C2.24 133.61, 0.28 97.8, 0 32 M0 173.16 C0.28 125.81, -0.4 79.74, 0 32 M0 32 C-1.55 9.64, 9.88 -0.65, 32 0 M0 32 C1.3 9.34, 9.13 0.69, 32 0" fill="none" stroke="#1e1e1e" stroke-width="1"></path></g><g transform="translate(946.5495506179966 620.1080606861719) rotate(0 81.9287109375 25)"><text direction="ltr" dominant-baseline="text-before-edge" fill="#1e1e1e" font-family="Virgil, Segoe UI Emoji" font-size="20px" style="white-space: pre;" text-anchor="middle" x="81.9287109375" y="0">Realtime Messaging</text><text direction="ltr" dominant-baseline="text-before-edge" fill="#1e1e1e" font-family="Virgil, Segoe UI Emoji" font-size="20px" style="white-space: pre;" text-anchor="middle" x="81.9287109375" y="25"> Service</text></g><g mask="url(#mask-ICjgZoxjzX0PWLqpPYGDN)" stroke-linecap="round"><g transform="translate(283.7339711014638 366.8830023769606) rotate(0 259.46530474452163 125.83687886223038)"><path d="M0 0 C164.77 78.53, 328.4 157.99, 518.93 251.67 M0 0 C168.43 83.18, 337.85 164.98, 518.93 251.67" fill="none" stroke="#1e1e1e" stroke-width="1"></path></g><g transform="translate(283.7339711014638 366.8830023769606) rotate(0 259.46530474452163 125.83687886223038)"><path d="M29.85 3.01 C21.99 0.74, 11.21 -0.61, 0 0 M29.85 3.01 C19.73 1.83, 10.78 0.3, 0 0" fill="none" stroke="#1e1e1e" stroke-width="1"></path></g><g transform="translate(283.7339711014638 366.8830023769606) rotate(0 259.46530474452163 125.83687886223038)"><path d="M20.93 21.49 C15.9 13.36, 7.94 6.16, 0 0 M20.93 21.49 C13.82 14.34, 7.77 6.78, 0 0" fill="none" stroke="#1e1e1e" stroke-width="1"></path></g></g><mask id="mask-ICjgZoxjzX0PWLqpPYGDN"><rect fill="#fff" height="718.5567601014213" width="902.6645805905071" x="0" y="0"></rect><rect fill="#000" height="25" opacity="1" width="34.462890625" x="525.9678305334854" y="480.21988123919095"></rect></mask><g transform="translate(525.9678305334854 480.21988123919095) rotate(0 17.2314453125 12.5)"><text direction="ltr" dominant-baseline="text-before-edge" fill="#1e1e1e" font-family="Virgil, Segoe UI Emoji" font-size="20px" style="white-space: pre;" text-anchor="middle" x="17.2314453125" y="0">SSE</text></g><g stroke-linecap="round" transform="translate(976.3476131470784 336.59414485526395) rotate(0 19.284182130573413 62.775886524987754)"><path d="M2.57 2.23 C2.57 2.23, 2.57 2.23, 2.57 2.23 M2.57 2.23 C2.57 2.23, 2.57 2.23, 2.57 2.23 M0.99 10.14 C3.59 7.17, 7.15 2.67, 9.52 0.33 M0.99 10.14 C3.21 7.67, 5.64 4.78, 9.52 0.33 M0.73 16.54 C4.75 10.83, 12.73 3.01, 15.16 -0.07 M0.73 16.54 C4.43 11.83, 7.72 8.22, 15.16 -0.07 M1.13 22.18 C4.75 18.2, 11.37 12.71, 20.15 0.29 M1.13 22.18 C7.33 13.23, 14.89 5.83, 20.15 0.29 M0.86 28.58 C9.67 18.61, 20.27 8.22, 25.14 0.65 M0.86 28.58 C8.58 19.25, 16.97 9.94, 25.14 0.65 M1.26 34.22 C13.73 21.73, 21.64 11.4, 30.78 0.26 M1.26 34.22 C8.57 26.56, 14.98 20.31, 30.78 0.26 M1 40.62 C12.03 28.15, 20.91 18.21, 34.46 2.13 M1 40.62 C12.29 27.85, 21.93 14.71, 34.46 2.13 M0.74 47.02 C15.21 32.84, 26.68 17.6, 37.48 4.75 M0.74 47.02 C14.73 30.51, 29.18 14.03, 37.48 4.75 M1.13 52.66 C15.15 37.36, 26.03 20.67, 40.49 7.38 M1.13 52.66 C13.12 39.2, 23.39 25.71, 40.49 7.38 M0.87 59.06 C9.83 48.24, 23.65 34.17, 40.23 13.77 M0.87 59.06 C14.18 43.24, 27.24 29.18, 40.23 13.77 M1.26 64.7 C15.64 47.7, 28.46 32.38, 40.63 19.42 M1.26 64.7 C14.45 48.49, 27.92 32.88, 40.63 19.42 M1 71.1 C9.81 57.01, 24.07 44.95, 40.37 25.81 M1 71.1 C16.87 53.15, 30.57 37.29, 40.37 25.81 M1.4 76.74 C14.22 60.8, 31.05 43.34, 40.76 31.46 M1.4 76.74 C18.35 59.06, 33.71 40.32, 40.76 31.46 M1.14 83.14 C11.84 68.35, 22.77 55.68, 40.5 37.86 M1.14 83.14 C15.65 67.82, 29.7 51.98, 40.5 37.86 M1.53 88.78 C8.98 80.31, 21.07 67.66, 40.89 43.5 M1.53 88.78 C11.11 78.33, 21.06 65.22, 40.89 43.5 M1.27 95.18 C14.37 81.72, 26.15 64.78, 40.63 49.9 M1.27 95.18 C14.3 78.55, 28.63 64.2, 40.63 49.9 M1.01 101.58 C13.05 89.38, 25.15 75.45, 40.37 56.29 M1.01 101.58 C11.3 89.58, 24 75.8, 40.37 56.29 M1.4 107.22 C9.45 98.32, 20.95 86.26, 40.77 61.94 M1.4 107.22 C14.62 90.8, 29.3 76.14, 40.77 61.94 M1.14 113.62 C17.78 95.85, 29.22 79.73, 40.5 68.34 M1.14 113.62 C14.92 96.96, 30.15 80.03, 40.5 68.34 M0.88 120.02 C11.46 106.23, 22.88 92.03, 40.9 73.98 M0.88 120.02 C10.83 108.89, 20.07 99.18, 40.9 73.98 M3.24 123.39 C13.6 110.89, 26.41 97.19, 40.64 80.38 M3.24 123.39 C15.88 106.89, 30.14 93.21, 40.64 80.38 M6.26 126.02 C13.58 116.93, 23.52 103.65, 41.03 86.02 M6.26 126.02 C18.44 111.5, 29.98 99.5, 41.03 86.02 M11.9 125.62 C17.9 118.35, 24.88 106.51, 40.77 92.42 M11.9 125.62 C22.39 113.05, 31.63 101.72, 40.77 92.42 M16.89 125.98 C21.56 118.21, 27.38 111.99, 41.17 98.06 M16.89 125.98 C23.82 117.46, 31.54 108.41, 41.17 98.06 M22.53 125.59 C28.66 118.24, 37.08 107.38, 40.9 104.46 M22.53 125.59 C27.31 119.88, 33.51 112.63, 40.9 104.46 M27.52 125.95 C30.35 121.6, 37.61 115.08, 40.64 110.86 M27.52 125.95 C30.76 122.63, 34.53 117.4, 40.64 110.86 M33.16 125.55 C34.84 122.19, 36.85 121.34, 40.38 117.25 M33.16 125.55 C35.71 122.8, 38.06 120.11, 40.38 117.25" fill="none" stroke="#ffffff" stroke-width="0.5"></path><path d="M9.64 0 C14.58 -0.84, 17.44 -0.6, 28.93 0 M9.64 0 C15.09 0.84, 20.12 -0.38, 28.93 0 M28.93 0 C35.94 -0.24, 40.05 3.25, 38.57 9.64 M28.93 0 C35.22 0.08, 39.14 1.5, 38.57 9.64 M38.57 9.64 C39.72 43.37, 37.48 76.25, 38.57 115.91 M38.57 9.64 C37.9 47.39, 38.9 85.93, 38.57 115.91 M38.57 115.91 C38.73 122.43, 36.87 125.01, 28.93 125.55 M38.57 115.91 C36.56 122.77, 36.97 125.69, 28.93 125.55 M28.93 125.55 C23.37 126.19, 18.31 125.59, 9.64 125.55 M28.93 125.55 C24.62 125, 18.65 125.1, 9.64 125.55 M9.64 125.55 C2.62 124.38, -0.4 123.75, 0 115.91 M9.64 125.55 C1.59 124.93, 1.04 123.13, 0 115.91 M0 115.91 C-0.5 81.41, 1.75 45.65, 0 9.64 M0 115.91 C0.98 88.92, -0.25 63.39, 0 9.64 M0 9.64 C-1.54 4.74, 5.21 0.56, 9.64 0 M0 9.64 C-1.96 4.42, 1.64 -1.2, 9.64 0" fill="none" stroke="#1e1e1e" stroke-width="1"></path></g><g transform="translate(985.6317952776518 386.8700313802517) rotate(0 10 12.5)"><text direction="ltr" dominant-baseline="text-before-edge" fill="#1e1e1e" font-family="Virgil, Segoe UI Emoji" font-size="20px" style="white-space: pre;" text-anchor="middle" x="10" y="0">v3</text></g><g stroke-linecap="round"><g transform="translate(996.6877395421593 293.1552376740756) rotate(0 0 15.383788003548034)"><path d="M-0.22 -0.02 C-0.14 5.11, 0.19 25.25, 0.2 30.45 M0.67 -0.5 C0.72 4.71, 0.08 25.84, -0.13 30.98" fill="none" stroke="#1e1e1e" stroke-width="1"></path></g><g transform="translate(996.6877395421593 293.1552376740756) rotate(0 0 15.383788003548034)"><path d="M-4.9 16.36 C-3.78 20.27, -3.03 23.39, -0.13 30.98 M-4.9 16.36 C-3.07 21.81, -1.11 27.35, -0.13 30.98" fill="none" stroke="#1e1e1e" stroke-width="1"></path></g><g transform="translate(996.6877395421593 293.1552376740756) rotate(0 0 15.383788003548034)"><path d="M5.62 16.71 C4.13 20.51, 2.29 23.55, -0.13 30.98 M5.62 16.71 C3.51 22, 1.52 27.41, -0.13 30.98" fill="none" stroke="#1e1e1e" stroke-width="1"></path></g></g><mask></mask><g stroke-linecap="round"><g transform="translate(996.2389632297436 468.0196078765648) rotate(0 0 14.436737991317386)"><path d="M0.2 -0.32 C0.21 4.56, -0.03 24.47, -0.15 29.29 M-0.36 0.7 C-0.41 5.44, -0.8 23.81, -0.66 28.53" fill="none" stroke="#1e1e1e" stroke-width="1"></path></g><g transform="translate(996.2389632297436 468.0196078765648) rotate(0 0 14.436737991317386)"><path d="M-5.61 14.97 C-4.75 18.29, -2.5 21.29, -0.66 28.53 M-5.61 14.97 C-4.09 18.36, -3.14 21.75, -0.66 28.53" fill="none" stroke="#1e1e1e" stroke-width="1"></path></g><g transform="translate(996.2389632297436 468.0196078765648) rotate(0 0 14.436737991317386)"><path d="M4.26 14.96 C2.56 18.3, 2.24 21.31, -0.66 28.53 M4.26 14.96 C3.32 18.35, 1.81 21.74, -0.66 28.53" fill="none" stroke="#1e1e1e" stroke-width="1"></path></g></g><mask></mask><g transform="translate(1162.5252690422562 347.446550002212) rotate(0 131.44989013671875 50)"><text direction="ltr" dominant-baseline="text-before-edge" fill="#1e1e1e" font-family="Virgil, Segoe UI Emoji" font-size="20px" style="white-space: pre;" text-anchor="start" x="0" y="0">Redis Pub/Sub</text><text direction="ltr" dominant-baseline="text-before-edge" fill="#1e1e1e" font-family="Virgil, Segoe UI Emoji" font-size="20px" style="white-space: pre;" text-anchor="start" x="0" y="25">- broadcast new comments</text><text direction="ltr" dominant-baseline="text-before-edge" fill="#1e1e1e" font-family="Virgil, Segoe UI Emoji" font-size="20px" style="white-space: pre;" text-anchor="start" x="0" y="50">- partition by live videoId </text><text direction="ltr" dominant-baseline="text-before-edge" fill="#1e1e1e" font-family="Virgil, Segoe UI Emoji" font-size="20px" style="white-space: pre;" text-anchor="start" x="0" y="75">    (so topic per video)</text></g><g transform="translate(789.3795927790156 777.4024881631581) rotate(0 251.31976318359375 25)"><text direction="ltr" dominant-baseline="text-before-edge" fill="#1e1e1e" font-family="Virgil, Segoe UI Emoji" font-size="20px" style="white-space: pre;" text-anchor="start" x="0" y="0">- Subscribe only to the topics with comments from </text><text direction="ltr" dominant-baseline="text-before-edge" fill="#1e1e1e" font-family="Virgil, Segoe UI Emoji" font-size="20px" style="white-space: pre;" text-anchor="start" x="0" y="25">    live videos that your clients are watching</text></g><g stroke-linecap="round" transform="translate(921.0440831593521 336.1969815445191) rotate(0 19.284182130573413 62.775886524987754)"><path d="M2.57 2.23 C2.57 2.23, 2.57 2.23, 2.57 2.23 M2.57 2.23 C2.57 2.23, 2.57 2.23, 2.57 2.23 M0.99 10.14 C5.09 7.82, 6.37 3.46, 9.52 0.33 M0.99 10.14 C4.51 6.63, 8.13 1.84, 9.52 0.33 M0.73 16.54 C7.81 9.87, 10.6 5.78, 15.16 -0.07 M0.73 16.54 C6.75 10.56, 11.35 2.6, 15.16 -0.07 M1.13 22.18 C7.69 17.76, 11.66 10.52, 20.15 0.29 M1.13 22.18 C8.95 13.34, 15.44 5.24, 20.15 0.29 M0.86 28.58 C8.08 17.25, 20.1 7.89, 25.14 0.65 M0.86 28.58 C6.52 21.22, 13.38 14.66, 25.14 0.65 M1.26 34.22 C11.76 22.29, 23.72 8.37, 30.78 0.26 M1.26 34.22 C10.87 24.09, 20.01 13.1, 30.78 0.26 M1 40.62 C6.89 30.91, 16.32 24.88, 34.46 2.13 M1 40.62 C12.3 27.33, 22.15 15.68, 34.46 2.13 M0.74 47.02 C8.97 36.66, 18.12 27.35, 37.48 4.75 M0.74 47.02 C9.64 38.02, 17.35 29.01, 37.48 4.75 M1.13 52.66 C12.76 40.11, 20.15 30.74, 40.49 7.38 M1.13 52.66 C13.56 37.04, 27.23 21.38, 40.49 7.38 M0.87 59.06 C12 44.5, 23.3 32.17, 40.23 13.77 M0.87 59.06 C9.22 49.03, 17.38 38.66, 40.23 13.77 M1.26 64.7 C11.2 53.81, 20.24 39.41, 40.63 19.42 M1.26 64.7 C16.81 46.64, 32.43 29.12, 40.63 19.42 M1 71.1 C11.25 61.42, 17.57 50.71, 40.37 25.81 M1 71.1 C11.88 57.48, 25.52 43.8, 40.37 25.81 M1.4 76.74 C15.97 60.96, 29.27 42.51, 40.76 31.46 M1.4 76.74 C10.16 66.03, 21.03 55.27, 40.76 31.46 M1.14 83.14 C14.01 67.23, 29.33 50.6, 40.5 37.86 M1.14 83.14 C16.73 65.81, 31.04 49.8, 40.5 37.86 M1.53 88.78 C12.44 77.48, 23.32 65.76, 40.89 43.5 M1.53 88.78 C12.75 76.5, 22.92 62.84, 40.89 43.5 M1.27 95.18 C12.07 80.2, 25.99 67.66, 40.63 49.9 M1.27 95.18 C17.67 76.66, 31.25 60.88, 40.63 49.9 M1.01 101.58 C12.33 86.26, 25.09 73.75, 40.37 56.29 M1.01 101.58 C14.53 85.98, 26.89 70.46, 40.37 56.29 M1.4 107.22 C18.46 90.76, 34.4 71.02, 40.77 61.94 M1.4 107.22 C9.32 98.06, 16.03 89.18, 40.77 61.94 M1.14 113.62 C11.17 104.99, 18.21 92.67, 40.5 68.34 M1.14 113.62 C9.83 104, 19.98 92.6, 40.5 68.34 M0.88 120.02 C14.86 106, 25.39 91.24, 40.9 73.98 M0.88 120.02 C13.59 105.3, 26.17 88.7, 40.9 73.98 M3.24 123.39 C15.79 111.85, 25.26 97.81, 40.64 80.38 M3.24 123.39 C15.2 111.05, 26.35 97.02, 40.64 80.38 M6.26 126.02 C18.07 112.75, 28.77 99.67, 41.03 86.02 M6.26 126.02 C14.43 116.99, 21.19 108.65, 41.03 86.02 M11.9 125.62 C20.13 118.44, 24.91 108.84, 40.77 92.42 M11.9 125.62 C17.72 119.04, 23.06 112.17, 40.77 92.42 M16.89 125.98 C22.56 120.73, 27.16 113.76, 41.17 98.06 M16.89 125.98 C24.74 116.79, 31.23 109.46, 41.17 98.06 M22.53 125.59 C28.31 118.07, 33.69 111.73, 40.9 104.46 M22.53 125.59 C29.26 117.95, 35.25 111.5, 40.9 104.46 M27.52 125.95 C33.66 119.21, 35.41 114.43, 40.64 110.86 M27.52 125.95 C30.28 121.85, 33.36 119.23, 40.64 110.86 M33.16 125.55 C35.09 123.46, 36 121.81, 40.38 117.25 M33.16 125.55 C35.4 123.46, 37.57 121.44, 40.38 117.25" fill="none" stroke="#ffffff" stroke-width="0.5"></path><path d="M9.64 0 C13.28 1.37, 17.41 -0.17, 28.93 0 M9.64 0 C15.63 0.46, 21.87 0.53, 28.93 0 M28.93 0 C35.72 -1.44, 38.46 4.36, 38.57 9.64 M28.93 0 C35.8 -0.35, 36.57 2.75, 38.57 9.64 M38.57 9.64 C39.08 44.39, 38.45 74.34, 38.57 115.91 M38.57 9.64 C39.22 42.57, 38.7 77.45, 38.57 115.91 M38.57 115.91 C39.35 122.94, 35.52 124.9, 28.93 125.55 M38.57 115.91 C38.33 121.5, 37.38 124.41, 28.93 125.55 M28.93 125.55 C21.92 125.11, 18.54 124.13, 9.64 125.55 M28.93 125.55 C23.89 125.8, 18.99 125.47, 9.64 125.55 M9.64 125.55 C3.07 127.51, -1.55 121.31, 0 115.91 M9.64 125.55 C2.31 124.81, 1.3 121.01, 0 115.91 M0 115.91 C1.2 93.12, 0.25 64.63, 0 9.64 M0 115.91 C1.31 79.13, 1.56 40.22, 0 9.64 M0 9.64 C-1.78 1.23, 5.07 -1.88, 9.64 0 M0 9.64 C1.49 4.09, 5.05 0.62, 9.64 0" fill="none" stroke="#1e1e1e" stroke-width="1"></path></g><g transform="translate(930.3282652899255 386.47286806950683) rotate(0 10 12.5)"><text direction="ltr" dominant-baseline="text-before-edge" fill="#1e1e1e" font-family="Virgil, Segoe UI Emoji" font-size="20px" style="white-space: pre;" text-anchor="middle" x="10" y="0">v2</text></g><g stroke-linecap="round" transform="translate(864.4527990134711 336.7991714727864) rotate(0 19.284182130573413 62.775886524987754)"><path d="M2.57 2.23 C2.57 2.23, 2.57 2.23, 2.57 2.23 M2.57 2.23 C2.57 2.23, 2.57 2.23, 2.57 2.23 M0.34 10.89 C5.29 5.64, 6.45 2.82, 9.52 0.33 M0.34 10.89 C3.85 6.74, 6.14 4.28, 9.52 0.33 M0.08 17.29 C5.85 13.1, 9.19 9.09, 15.16 -0.07 M0.08 17.29 C5.53 10.98, 12.01 5.29, 15.16 -0.07 M-0.19 23.69 C9.27 15.14, 16.15 6.86, 20.15 0.29 M-0.19 23.69 C5.37 17.36, 10.33 11.49, 20.15 0.29 M0.21 29.33 C4.94 23.81, 10.47 15.25, 25.14 0.65 M0.21 29.33 C6.42 23.65, 11.49 16.14, 25.14 0.65 M-0.05 35.73 C9.9 24.77, 20.22 13.96, 30.78 0.26 M-0.05 35.73 C9.7 22.86, 21.98 10.17, 30.78 0.26 M0.34 41.37 C7.72 32.37, 16.54 25.49, 34.46 2.13 M0.34 41.37 C8.08 32.37, 17.41 22.36, 34.46 2.13 M0.08 47.77 C8.48 34.51, 20.46 25.77, 37.48 4.75 M0.08 47.77 C10.03 35.06, 20.91 23.79, 37.48 4.75 M0.47 53.41 C11.54 42.27, 21.47 28.99, 37.87 10.39 M0.47 53.41 C10.28 42.51, 20.98 30.91, 37.87 10.39 M0.21 59.81 C7.47 50.3, 18.95 39.4, 38.26 16.04 M0.21 59.81 C11.08 46.56, 22.26 34.19, 38.26 16.04 M0.61 65.45 C15.49 49.51, 28.39 36.64, 38 22.44 M0.61 65.45 C9.09 55.68, 19.96 44.59, 38 22.44 M0.35 71.85 C14.96 56.52, 31.01 37.47, 38.4 28.08 M0.35 71.85 C13.87 56.16, 26.47 41.14, 38.4 28.08 M0.74 77.5 C11.96 62.65, 26.34 47.65, 38.14 34.48 M0.74 77.5 C14.07 63.11, 25.15 47.1, 38.14 34.48 M0.48 83.89 C16 67.19, 27 53.28, 38.53 40.12 M0.48 83.89 C10.67 70.95, 21.62 59.63, 38.53 40.12 M0.22 90.29 C12.8 73.88, 27.38 60.01, 38.27 46.52 M0.22 90.29 C13.53 76.27, 26.24 60.19, 38.27 46.52 M0.61 95.93 C11.56 84.25, 18.97 76.16, 38.66 52.16 M0.61 95.93 C9.19 86.92, 16.18 76.67, 38.66 52.16 M0.35 102.33 C11.41 90.71, 21.78 79.92, 38.4 58.56 M0.35 102.33 C11.18 91.43, 20.87 80.86, 38.4 58.56 M0.75 107.97 C13.08 92.49, 31.26 74.74, 38.14 64.96 M0.75 107.97 C12.92 94.28, 25.94 79.8, 38.14 64.96 M0.48 114.37 C14.44 96.54, 29.51 78.41, 38.54 70.6 M0.48 114.37 C14.69 99.1, 28.68 82.67, 38.54 70.6 M0.88 120.02 C14.33 105.57, 27.64 89.97, 38.27 77 M0.88 120.02 C14.7 105.71, 27.41 90.25, 38.27 77 M3.24 123.39 C17.26 105.38, 31.97 92.34, 38.67 82.64 M3.24 123.39 C15.76 110.17, 27.17 95.35, 38.67 82.64 M6.92 125.26 C15.51 111.35, 28.84 102.91, 38.41 89.04 M6.92 125.26 C13.32 116.87, 20.52 109.69, 38.41 89.04 M12.56 124.87 C19.98 114.98, 31.18 103.93, 38.8 94.68 M12.56 124.87 C20.89 114.78, 31.25 104.61, 38.8 94.68 M17.55 125.23 C25.62 114.64, 33.31 107.59, 38.54 101.08 M17.55 125.23 C22.66 119.01, 27.21 114.33, 38.54 101.08 M23.19 124.83 C28.93 119.02, 31.75 114.72, 38.94 106.72 M23.19 124.83 C27.64 119.17, 31.59 116.12, 38.94 106.72 M28.18 125.19 C29.32 124.09, 33.54 119.95, 38.67 113.12 M28.18 125.19 C30.45 122.76, 33.61 119.42, 38.67 113.12 M33.16 125.55 C34.68 123.4, 37.26 122.02, 38.41 119.52 M33.16 125.55 C34.84 123.25, 36.96 121.29, 38.41 119.52" fill="none" stroke="#ffffff" stroke-width="0.5"></path><path d="M9.64 0 C16.92 0.49, 22.63 0.28, 28.93 0 M9.64 0 C16.23 -0.77, 22.42 0.47, 28.93 0 M28.93 0 C35.74 -0.31, 36.83 2.81, 38.57 9.64 M28.93 0 C35.65 0.92, 38.76 3.32, 38.57 9.64 M38.57 9.64 C38.66 50.99, 38.4 89.35, 38.57 115.91 M38.57 9.64 C38.31 31.54, 38 52.52, 38.57 115.91 M38.57 115.91 C38.36 121.61, 37.12 124.56, 28.93 125.55 M38.57 115.91 C38.67 121.44, 34.67 124.21, 28.93 125.55 M28.93 125.55 C23 126.29, 18.78 125.86, 9.64 125.55 M28.93 125.55 C22.7 126.47, 15.86 125.03, 9.64 125.55 M9.64 125.55 C2.42 124.91, 1.13 121.18, 0 115.91 M9.64 125.55 C1.68 126.24, -1.77 124.09, 0 115.91 M0 115.91 C0.75 72.07, -1.34 32.13, 0 9.64 M0 115.91 C-1.78 76.14, 0.04 37.41, 0 9.64 M0 9.64 C1.29 3.97, 4.81 0.54, 9.64 0 M0 9.64 C1 2.01, 4.3 0.77, 9.64 0" fill="none" stroke="#1e1e1e" stroke-width="1"></path></g><g transform="translate(873.7369811440445 387.07505799777414) rotate(0 10 12.5)"><text direction="ltr" dominant-baseline="text-before-edge" fill="#1e1e1e" font-family="Virgil, Segoe UI Emoji" font-size="20px" style="white-space: pre;" text-anchor="middle" x="10" y="0">v1</text></g><g stroke-linecap="round" transform="translate(1031.079723438883 334.76920865008196) rotate(0 19.284182130573413 62.775886524987754)"><path d="M2.57 2.23 C2.57 2.23, 2.57 2.23, 2.57 2.23 M2.57 2.23 C2.57 2.23, 2.57 2.23, 2.57 2.23 M0.34 10.89 C3.08 9.24, 3.15 7.02, 9.52 0.33 M0.34 10.89 C2.11 8.33, 4.75 6.83, 9.52 0.33 M0.08 17.29 C6.04 10.29, 7.98 5.88, 15.16 -0.07 M0.08 17.29 C5.31 12.04, 9.19 7.69, 15.16 -0.07 M-0.19 23.69 C5.39 15.9, 12.4 9.2, 20.15 0.29 M-0.19 23.69 C3.79 19.26, 8.82 12.52, 20.15 0.29 M0.21 29.33 C8.25 20.31, 18.06 9.54, 25.14 0.65 M0.21 29.33 C10.1 18.82, 19 7.23, 25.14 0.65 M-0.05 35.73 C10.63 25.24, 19.53 11.25, 30.78 0.26 M-0.05 35.73 C7.16 27.21, 16.3 17.14, 30.78 0.26 M0.34 41.37 C7.93 29.74, 18.52 18.81, 34.46 2.13 M0.34 41.37 C12 27.85, 24.27 12.76, 34.46 2.13 M0.08 47.77 C8.48 39.26, 16.87 26.81, 37.48 4.75 M0.08 47.77 C9.09 35.92, 19.65 26.58, 37.48 4.75 M0.47 53.41 C12.08 39.16, 23.51 24.72, 37.87 10.39 M0.47 53.41 C11.37 39.77, 23.53 25.36, 37.87 10.39 M0.21 59.81 C12.47 44.63, 23.87 30.03, 38.26 16.04 M0.21 59.81 C9.34 49.1, 16.63 41.06, 38.26 16.04 M0.61 65.45 C7.72 57.33, 15.63 44.78, 38 22.44 M0.61 65.45 C15.31 47.83, 29.67 32.3, 38 22.44 M0.35 71.85 C14.68 58.16, 28.55 41.7, 38.4 28.08 M0.35 71.85 C11.43 59.08, 21.16 46.44, 38.4 28.08 M0.74 77.5 C10.61 68.02, 20.19 58.14, 38.14 34.48 M0.74 77.5 C14.4 62.32, 27.5 49.31, 38.14 34.48 M0.48 83.89 C10.03 71.86, 22.39 60.34, 38.53 40.12 M0.48 83.89 C9.94 73.62, 19.25 62.69, 38.53 40.12 M0.22 90.29 C10.3 78.19, 17.45 68.62, 38.27 46.52 M0.22 90.29 C13.56 74.98, 28.07 59.62, 38.27 46.52 M0.61 95.93 C8.51 82.7, 21.92 73.83, 38.66 52.16 M0.61 95.93 C13.64 80.35, 27.92 66.38, 38.66 52.16 M0.35 102.33 C11.29 88.09, 22.22 76.48, 38.4 58.56 M0.35 102.33 C12.38 89.74, 22.97 74.66, 38.4 58.56 M0.75 107.97 C14.88 89.96, 29.29 74.72, 38.14 64.96 M0.75 107.97 C15.98 90.89, 29.35 74.31, 38.14 64.96 M0.48 114.37 C12.75 103.11, 21.7 90.77, 38.54 70.6 M0.48 114.37 C15.9 96.39, 30.95 79.75, 38.54 70.6 M0.88 120.02 C13.67 104.83, 22.48 93.05, 38.27 77 M0.88 120.02 C15.67 103.46, 29.1 88.31, 38.27 77 M3.24 123.39 C11.42 116.04, 16.12 107.19, 38.67 82.64 M3.24 123.39 C16.53 107.88, 29.81 92.85, 38.67 82.64 M6.92 125.26 C11.73 118.53, 17.72 109.02, 38.41 89.04 M6.92 125.26 C15.3 115.46, 22.37 106.31, 38.41 89.04 M12.56 124.87 C21.68 113.68, 30.17 104.08, 38.8 94.68 M12.56 124.87 C21.12 115.02, 28.99 106.31, 38.8 94.68 M17.55 125.23 C20.79 118.66, 27.8 114.84, 38.54 101.08 M17.55 125.23 C21.7 119.45, 26.52 115.83, 38.54 101.08 M23.19 124.83 C26.89 119.57, 33.06 115.32, 38.94 106.72 M23.19 124.83 C25.69 120.33, 29.19 116.19, 38.94 106.72 M28.18 125.19 C31.21 120.56, 36.56 115.38, 38.67 113.12 M28.18 125.19 C32.01 120.12, 36.21 116.34, 38.67 113.12 M33.16 125.55 C34.9 124.51, 36.71 122.06, 38.41 119.52 M33.16 125.55 C34.66 123.94, 35.92 122.19, 38.41 119.52" fill="none" stroke="#ffffff" stroke-width="0.5"></path><path d="M9.64 0 C16.54 1.01, 22.95 0.32, 28.93 0 M9.64 0 C14.23 -0.26, 17.6 -0.3, 28.93 0 M28.93 0 C35.61 0.8, 38.73 3.31, 38.57 9.64 M28.93 0 C37.1 -0.62, 36.56 3.65, 38.57 9.64 M38.57 9.64 C36.7 47.75, 38.67 89.09, 38.57 115.91 M38.57 9.64 C38.55 44.34, 39.54 79.27, 38.57 115.91 M38.57 115.91 C38.66 121.55, 34.76 124.38, 28.93 125.55 M38.57 115.91 C38.11 123.96, 33.73 124.93, 28.93 125.55 M28.93 125.55 C22.64 126.78, 15.33 125.45, 9.64 125.55 M28.93 125.55 C20.87 125.14, 14.12 124.9, 9.64 125.55 M9.64 125.55 C1.88 126.15, -1.54 123.86, 0 115.91 M9.64 125.55 C5.51 126.2, -1.96 123.54, 0 115.91 M0 115.91 C1.85 92.97, -1.1 64.91, 0 9.64 M0 115.91 C-0.34 94.97, -0.19 73.55, 0 9.64 M0 9.64 C0.87 2.17, 4.16 0.67, 9.64 0 M0 9.64 C0.09 3.05, 2.78 0.53, 9.64 0" fill="none" stroke="#1e1e1e" stroke-width="1"></path></g><g transform="translate(1040.3639055694566 385.0450951750697) rotate(0 10 12.5)"><text direction="ltr" dominant-baseline="text-before-edge" fill="#1e1e1e" font-family="Virgil, Segoe UI Emoji" font-size="20px" style="white-space: pre;" text-anchor="middle" x="10" y="0">v4</text></g><g stroke-linecap="round" transform="translate(1088.229490179527 335.28884028173024) rotate(0 19.284182130573413 62.775886524987754)"><path d="M2.57 2.23 C2.57 2.23, 2.57 2.23, 2.57 2.23 M2.57 2.23 C2.57 2.23, 2.57 2.23, 2.57 2.23 M0.99 10.14 C3 5.71, 8.21 2.69, 9.52 0.33 M0.99 10.14 C3.41 7.79, 5.91 5.05, 9.52 0.33 M0.73 16.54 C4.02 14.27, 8.63 10.89, 15.16 -0.07 M0.73 16.54 C5.29 11.72, 10.01 5.99, 15.16 -0.07 M1.13 22.18 C5.66 16.53, 11.18 7.51, 20.15 0.29 M1.13 22.18 C9.09 13.17, 15.52 4.96, 20.15 0.29 M0.86 28.58 C11.83 17.82, 19.22 7.89, 25.14 0.65 M0.86 28.58 C9.91 18.8, 18.96 8.98, 25.14 0.65 M1.26 34.22 C10.69 23.75, 20.43 9.48, 30.78 0.26 M1.26 34.22 C12.15 22.24, 24.12 7.75, 30.78 0.26 M1 40.62 C10.42 31.95, 17.76 21.02, 34.46 2.13 M1 40.62 C11.47 28.01, 24.21 15.11, 34.46 2.13 M0.74 47.02 C14.08 30.41, 30.41 13.64, 37.48 4.75 M0.74 47.02 C8.07 38.71, 14.55 29.51, 37.48 4.75 M1.13 52.66 C13.38 40.78, 24.5 24.88, 40.49 7.38 M1.13 52.66 C13.25 40.02, 24.59 26.09, 40.49 7.38 M0.87 59.06 C10.17 46.55, 21.44 35.94, 40.23 13.77 M0.87 59.06 C8.39 50.51, 17.22 40.12, 40.23 13.77 M1.26 64.7 C18.28 49.24, 32.89 31.8, 40.63 19.42 M1.26 64.7 C9.74 56.24, 16.55 46.32, 40.63 19.42 M1 71.1 C15.87 52.89, 31.93 35.85, 40.37 25.81 M1 71.1 C11.31 59.74, 21.35 47.6, 40.37 25.81 M1.4 76.74 C15.46 59.34, 26.13 46.5, 40.76 31.46 M1.4 76.74 C8.99 66.31, 18.21 56.83, 40.76 31.46 M1.14 83.14 C10.3 71.26, 22.44 59.28, 40.5 37.86 M1.14 83.14 C12.99 69.14, 26.28 54.51, 40.5 37.86 M1.53 88.78 C12.64 77.43, 19.85 65.76, 40.89 43.5 M1.53 88.78 C14.29 73.09, 28.89 56.96, 40.89 43.5 M1.27 95.18 C10.13 84.13, 16.23 75.05, 40.63 49.9 M1.27 95.18 C9.75 85.49, 18.87 74.59, 40.63 49.9 M1.01 101.58 C12.8 89.88, 25.55 76.98, 40.37 56.29 M1.01 101.58 C17.01 85.12, 31.9 67.03, 40.37 56.29 M1.4 107.22 C10.62 98.32, 18.09 91.28, 40.77 61.94 M1.4 107.22 C11.09 95.36, 20.66 85.28, 40.77 61.94 M1.14 113.62 C16.14 98.65, 28.85 84.31, 40.5 68.34 M1.14 113.62 C11.39 102.27, 21.17 90.47, 40.5 68.34 M0.88 120.02 C11.44 108.89, 19.97 101.55, 40.9 73.98 M0.88 120.02 C9.16 109.48, 20.11 98.65, 40.9 73.98 M3.24 123.39 C18.58 106.62, 30.97 92.21, 40.64 80.38 M3.24 123.39 C10.46 114.58, 20.61 103.56, 40.64 80.38 M6.26 126.02 C17.72 111.39, 31.83 99.2, 41.03 86.02 M6.26 126.02 C14.52 117.37, 22.13 108.44, 41.03 86.02 M11.9 125.62 C18.5 120.17, 24.89 112.26, 40.77 92.42 M11.9 125.62 C18.06 117.43, 26.11 108.64, 40.77 92.42 M16.89 125.98 C21.17 119.65, 28.48 111.45, 41.17 98.06 M16.89 125.98 C21.68 119.54, 27.32 113.69, 41.17 98.06 M22.53 125.59 C26.08 119.68, 34.8 111.5, 40.9 104.46 M22.53 125.59 C28.19 120.9, 31.86 114.47, 40.9 104.46 M27.52 125.95 C32.62 122.47, 35.47 117.2, 40.64 110.86 M27.52 125.95 C29.86 123.75, 33.24 120.21, 40.64 110.86 M33.16 125.55 C35.31 123.07, 38.36 119.83, 40.38 117.25 M33.16 125.55 C35.42 123.43, 37.23 121.24, 40.38 117.25" fill="none" stroke="#ffffff" stroke-width="0.5"></path><path d="M9.64 0 C15.08 -0.14, 24.39 0.34, 28.93 0 M9.64 0 C15.25 0.42, 20.7 0.08, 28.93 0 M28.93 0 C36.87 -0.54, 36.82 3.59, 38.57 9.64 M28.93 0 C36.97 0.13, 38.35 0.99, 38.57 9.64 M38.57 9.64 C39.19 35.18, 37.94 60.18, 38.57 115.91 M38.57 9.64 C39.55 37.25, 39.21 65.06, 38.57 115.91 M38.57 115.91 C38.17 123.75, 33.94 125.01, 28.93 125.55 M38.57 115.91 C39.61 123.13, 35.89 126, 28.93 125.55 M28.93 125.55 C23.85 124.04, 14.01 124.78, 9.64 125.55 M28.93 125.55 C23.12 125.73, 17.86 126.17, 9.64 125.55 M9.64 125.55 C5.21 126.12, -1.7 123.38, 0 115.91 M9.64 125.55 C1.64 124.36, 1.34 123.83, 0 115.91 M0 115.91 C-1.11 77.01, -1 35.7, 0 9.64 M0 115.91 C-0.41 79.48, -0.37 44.43, 0 9.64 M0 9.64 C0.08 3.07, 2.84 0.46, 9.64 0 M0 9.64 C0.83 1.57, 2.07 -1.51, 9.64 0" fill="none" stroke="#1e1e1e" stroke-width="1"></path></g><g transform="translate(1097.5136723101004 385.564726806718) rotate(0 10 12.5)"><text direction="ltr" dominant-baseline="text-before-edge" fill="#1e1e1e" font-family="Virgil, Segoe UI Emoji" font-size="20px" style="white-space: pre;" text-anchor="middle" x="10" y="0">v5</text></g></svg>