<svg height="327.03997627164154" version="1.1" viewbox="0 0 1597.62097094825 327.03997627164154" width="1597.62097094825" xmlns="http://www.w3.org/2000/svg">
<!-- svg-source:excalidraw -->
<!-- payload-type:application/vnd.excalidraw+json --><!-- payload-version:2 -->
<defs>
<style class="style-fonts">
</style>
</defs>
<rect fill="#ffffff" height="327.03997627164154" width="1597.62097094825" x="0" y="0"></rect><g stroke-linecap="round" transform="translate(10 98.51688253954103) rotate(0 128.0182913190058 84.77455315625434)"><path d="M32 0 C78.08 -1.99, 123.85 -0.05, 224.04 0 M32 0 C86.79 0.81, 141.92 -0.31, 224.04 0 M224.04 0 C246.19 -1.88, 257.5 9.08, 256.04 32 M224.04 0 C246.59 -0.97, 256.19 9.98, 256.04 32 M256.04 32 C257.44 64.28, 256.39 97.9, 256.04 137.55 M256.04 32 C254.85 55.84, 254.88 80.15, 256.04 137.55 M256.04 137.55 C255.14 158.76, 247.1 169.6, 224.04 169.55 M256.04 137.55 C254.03 156.74, 245.12 169.61, 224.04 169.55 M224.04 169.55 C176.7 165.87, 125.33 166.51, 32 169.55 M224.04 169.55 C168.38 168.63, 114.14 168.8, 32 169.55 M32 169.55 C10.95 170.76, 1.36 157.78, 0 137.55 M32 169.55 C11.67 171.28, 0.84 159.58, 0 137.55 M0 137.55 C0.06 111.45, 0.81 82.37, 0 32 M0 137.55 C-0.45 102.01, -0.05 68.36, 0 32 M0 32 C1.35 11.37, 10.1 -0.85, 32 0 M0 32 C-2.06 10.64, 11.28 1.46, 32 0" fill="none" stroke="#1e1e1e" stroke-width="1"></path></g><g transform="translate(63.86301788150581 170.79143569579537) rotate(0 74.1552734375 12.5)"><text direction="ltr" dominant-baseline="text-before-edge" fill="#1e1e1e" font-family="Virgil, Segoe UI Emoji" font-size="20px" style="white-space: pre;" text-anchor="middle" x="74.1552734375" y="0">Commenter Client</text></g><g mask="url(#mask-Xa0CaWOltwetIFuhey0HF)" stroke-linecap="round"><g transform="translate(289.9586521006023 136.5482643330722) rotate(0 123.1463414244705 1.931271818146115)"><path d="M0.54 -0.17 C41.72 0.39, 205.56 3, 246.48 3.82 M-0.64 -1.3 C40.46 -0.58, 204.66 4.64, 245.63 5.34" fill="none" stroke="#1e1e1e" stroke-width="1"></path></g><g transform="translate(289.9586521006023 136.5482643330722) rotate(0 123.1463414244705 1.931271818146115)"><path d="M28.89 -9.98 C21.62 -7.11, 14.81 -5.33, 0.54 -0.17 M28.89 -9.98 C18.67 -7.35, 8.35 -3.52, 0.54 -0.17" fill="none" stroke="#1e1e1e" stroke-width="1"></path></g><g transform="translate(289.9586521006023 136.5482643330722) rotate(0 123.1463414244705 1.931271818146115)"><path d="M28.56 10.54 C21.3 8.33, 14.57 5.02, 0.54 -0.17 M28.56 10.54 C18.46 5.48, 8.27 1.61, 0.54 -0.17" fill="none" stroke="#1e1e1e" stroke-width="1"></path></g><g transform="translate(289.9586521006023 136.5482643330722) rotate(0 123.1463414244705 1.931271818146115)"><path d="M217.19 14.89 C223.92 12.71, 231.18 9.69, 245.63 5.34 M217.19 14.89 C228.27 10.47, 239.25 7.04, 245.63 5.34" fill="none" stroke="#1e1e1e" stroke-width="1"></path></g><g transform="translate(289.9586521006023 136.5482643330722) rotate(0 123.1463414244705 1.931271818146115)"><path d="M217.71 -5.63 C224.4 -2.72, 231.53 -0.65, 245.63 5.34 M217.71 -5.63 C228.59 -2.35, 239.39 1.91, 245.63 5.34" fill="none" stroke="#1e1e1e" stroke-width="1"></path></g></g><mask id="mask-Xa0CaWOltwetIFuhey0HF"><rect fill="#fff" height="240.41080796936444" width="636.2513349495433" x="0" y="0"></rect><rect fill="#000" height="25" opacity="1" width="61.123046875" x="382.5434700875728" y="125.97953615121833"></rect></mask><g transform="translate(382.5434700875728 125.97953615121833) rotate(0 30.336690130699424 12.590096391327677)"><text direction="ltr" dominant-baseline="text-before-edge" fill="#1e1e1e" font-family="Virgil, Segoe UI Emoji" font-size="20px" style="white-space: pre;" text-anchor="middle" x="30.5615234375" y="0">HTTPS</text></g><g stroke-linecap="round" transform="translate(563.8319125759335 73.28495701370639) rotate(0 170.30904558041385 102.57951969389615)"><path d="M32 0 C113.92 0.25, 197.52 -0.06, 308.62 0 M32 0 C103.43 1.23, 175.33 0.86, 308.62 0 M308.62 0 C329.3 -0.46, 340.68 9.32, 340.62 32 M308.62 0 C328.31 -1.42, 339.62 9.08, 340.62 32 M340.62 32 C339.2 70.45, 339.37 103.69, 340.62 173.16 M340.62 32 C339.99 60.95, 339.53 91.02, 340.62 173.16 M340.62 173.16 C338.73 192.79, 328.7 204.89, 308.62 205.16 M340.62 173.16 C340.85 193.75, 328.47 204.47, 308.62 205.16 M308.62 205.16 C222.98 206.51, 134.63 206.13, 32 205.16 M308.62 205.16 C204.44 205.04, 100.92 205.43, 32 205.16 M32 205.16 C11.2 204.91, -1.92 195.04, 0 173.16 M32 205.16 C10.91 206.48, -0.79 192.27, 0 173.16 M0 173.16 C0.77 129.45, -0.79 85.07, 0 32 M0 173.16 C-1.34 130.82, -0.92 87.77, 0 32 M0 32 C1.27 8.8, 11.87 0.57, 32 0 M0 32 C-1.97 12.68, 9.83 1.52, 32 0" fill="none" stroke="#1e1e1e" stroke-width="1"></path></g><g transform="translate(607.5100987813474 163.36447670760253) rotate(0 126.630859375 12.5)"><text direction="ltr" dominant-baseline="text-before-edge" fill="#1e1e1e" font-family="Virgil, Segoe UI Emoji" font-size="20px" style="white-space: pre;" text-anchor="middle" x="126.630859375" y="0">Comment Management Service</text></g><g stroke-linecap="round" transform="translate(1106.401946794454 49.68229322763091) rotate(0 133.62108660928106 133.6788415220053)"><path d="M141.87 -0.09 C155.55 -1.51, 171.01 4.64, 184.23 10.08 C197.44 15.52, 210.35 23.07, 221.15 32.55 C231.95 42.02, 241.85 54.31, 249.02 66.93 C256.19 79.54, 261.53 94.03, 264.19 108.24 C266.85 122.45, 266.92 137.65, 264.97 152.18 C263.03 166.71, 258.94 182.63, 252.51 195.44 C246.08 208.25, 236.95 219.16, 226.39 229.04 C215.83 238.92, 202.28 248.53, 189.18 254.72 C176.07 260.9, 162.02 264.75, 147.75 266.14 C133.48 267.53, 117.56 266.36, 103.56 263.06 C89.55 259.75, 76.11 253.89, 63.72 246.3 C51.34 238.72, 38.51 228.61, 29.25 217.57 C19.98 206.54, 13.06 193.67, 8.14 180.09 C3.22 166.52, 0.07 150.58, -0.29 136.12 C-0.65 121.66, 1.56 106.99, 5.97 93.33 C10.38 79.67, 17.41 65.7, 26.18 54.17 C34.95 42.64, 46.73 32.3, 58.58 24.16 C70.43 16.02, 82.16 9.14, 97.29 5.32 C112.41 1.49, 139.64 1.43, 149.33 1.21 C159.02 0.98, 155.94 1.84, 155.4 3.97 M99.26 4.53 C112.02 -0.72, 130.12 0.44, 144.69 1.31 C159.26 2.18, 173.43 4.11, 186.67 9.76 C199.9 15.41, 213.21 25.06, 224.11 35.18 C235.02 45.3, 245.28 57.85, 252.09 70.48 C258.9 83.1, 262.98 96.74, 264.98 110.92 C266.98 125.09, 266.32 141.01, 264.09 155.54 C261.86 170.08, 258.48 185.44, 251.6 198.14 C244.71 210.84, 233.6 222.34, 222.76 231.74 C211.93 241.15, 199.42 248.95, 186.59 254.57 C173.75 260.2, 159.85 263.97, 145.73 265.49 C131.6 267.02, 116.24 266.81, 101.84 263.72 C87.45 260.64, 71.72 254.78, 59.36 246.97 C47 239.16, 36.41 228.57, 27.7 216.87 C19 205.17, 11.73 190.61, 7.12 176.78 C2.51 162.94, 0.21 148.22, 0.04 133.87 C-0.12 119.53, 1.48 104.65, 6.12 90.71 C10.76 76.76, 18.88 61.63, 27.88 50.19 C36.88 38.74, 47.78 29.76, 60.1 22.04 C72.43 14.31, 94.71 6.52, 101.82 3.83 C108.94 1.13, 102.19 3.84, 102.79 5.88" fill="none" stroke="#1e1e1e" stroke-width="1"></path></g><g transform="translate(1177.8120944527975 158.33591940826443) rotate(0 62.2265625 25)"><text direction="ltr" dominant-baseline="text-before-edge" fill="#1e1e1e" font-family="Virgil, Segoe UI Emoji" font-size="20px" style="white-space: pre;" text-anchor="middle" x="62.2265625" y="0">Comments DB </text><text direction="ltr" dominant-baseline="text-before-edge" fill="#1e1e1e" font-family="Virgil, Segoe UI Emoji" font-size="20px" style="white-space: pre;" text-anchor="middle" x="62.2265625" y="25">(DynamoDB)</text></g><g stroke-linecap="round"><g transform="translate(926.5259697886572 183.78760920704144) rotate(0 80.12992170582652 -0.03953793054711241)"><path d="M1.03 0.35 C27.65 0.14, 133.33 -0.15, 159.87 -0.36 M0.11 -0.51 C26.53 -0.62, 132.15 0.95, 158.72 1.04" fill="none" stroke="#1e1e1e" stroke-width="1"></path></g><g transform="translate(926.5259697886572 183.78760920704144) rotate(0 80.12992170582652 -0.03953793054711241)"><path d="M29.18 -10.03 C21.07 -7.19, 11.24 -3.25, 1.03 0.35 M29.18 -10.03 C22.13 -8.48, 15.62 -6.29, 1.03 0.35" fill="none" stroke="#1e1e1e" stroke-width="1"></path></g><g transform="translate(926.5259697886572 183.78760920704144) rotate(0 80.12992170582652 -0.03953793054711241)"><path d="M29.27 10.49 C20.97 6.93, 11.11 4.47, 1.03 0.35 M29.27 10.49 C22.34 7.27, 15.81 4.69, 1.03 0.35" fill="none" stroke="#1e1e1e" stroke-width="1"></path></g><g transform="translate(926.5259697886572 183.78760920704144) rotate(0 80.12992170582652 -0.03953793054711241)"><path d="M130.43 11.03 C139.77 7.02, 147.54 4.61, 158.72 1.04 M130.43 11.03 C136.65 8.19, 143.26 5.64, 158.72 1.04" fill="none" stroke="#1e1e1e" stroke-width="1"></path></g><g transform="translate(926.5259697886572 183.78760920704144) rotate(0 80.12992170582652 -0.03953793054711241)"><path d="M130.63 -9.49 C140.06 -7.1, 147.77 -3.11, 158.72 1.04 M130.63 -9.49 C136.65 -7.56, 143.21 -5.34, 158.72 1.04" fill="none" stroke="#1e1e1e" stroke-width="1"></path></g></g><mask></mask><g transform="translate(346.4042316370311 93.25502840522063) rotate(0 66.38994598388672 12.5)"><text direction="ltr" dominant-baseline="text-before-edge" fill="#1e1e1e" font-family="Virgil, Segoe UI Emoji" font-size="20px" style="white-space: pre;" text-anchor="start" x="0" y="0">- for /create</text></g><g transform="translate(357.1651627552587 237.72114562489412) rotate(0 67.81993865966797 25)"><text direction="ltr" dominant-baseline="text-before-edge" fill="#1e1e1e" font-family="Virgil, Segoe UI Emoji" font-size="20px" style="white-space: pre;" text-anchor="start" x="0" y="0">- for comment</text><text direction="ltr" dominant-baseline="text-before-edge" fill="#1e1e1e" font-family="Virgil, Segoe UI Emoji" font-size="20px" style="white-space: pre;" text-anchor="start" x="0" y="25"> broadcasting</text></g><g mask="url(#mask-RhyAIyJ4K8Fu4XDKBfShE)" stroke-linecap="round"><g transform="translate(297.72576824410885 213.99409994721168) rotate(0 120.91652068618482 1.6462241357955918)"><path d="M-0.52 -0.83 C39.85 -0.34, 201.05 1.52, 241.35 2.19 M1.41 1.35 C41.65 2.01, 200.35 2.63, 240.16 3.15" fill="none" stroke="#1e1e1e" stroke-width="1"></path></g><g transform="translate(297.72576824410885 213.99409994721168) rotate(0 120.91652068618482 1.6462241357955918)"><path d="M27.79 -10.75 C19.88 -9.4, 12.96 -7.24, -0.52 -0.83 M27.79 -10.75 C18.69 -8.76, 11.14 -4.89, -0.52 -0.83" fill="none" stroke="#1e1e1e" stroke-width="1"></path></g><g transform="translate(297.72576824410885 213.99409994721168) rotate(0 120.91652068618482 1.6462241357955918)"><path d="M27.55 9.77 C19.82 6.43, 12.96 3.91, -0.52 -0.83 M27.55 9.77 C18.34 5.73, 10.86 3.58, -0.52 -0.83" fill="none" stroke="#1e1e1e" stroke-width="1"></path></g><g transform="translate(297.72576824410885 213.99409994721168) rotate(0 120.91652068618482 1.6462241357955918)"><path d="M211.88 13.18 C217.02 10.22, 223.03 7.82, 240.16 3.15 M211.88 13.18 C219.23 9.3, 228.29 7.31, 240.16 3.15" fill="none" stroke="#1e1e1e" stroke-width="1"></path></g><g transform="translate(297.72576824410885 213.99409994721168) rotate(0 120.91652068618482 1.6462241357955918)"><path d="M212.05 -7.34 C217.02 -5.62, 222.99 -3.32, 240.16 3.15 M212.05 -7.34 C219.52 -5.19, 228.54 -1.15, 240.16 3.15" fill="none" stroke="#1e1e1e" stroke-width="1"></path></g></g><mask id="mask-RhyAIyJ4K8Fu4XDKBfShE"><rect fill="#fff" height="317.28654821880286" width="639.5588096164785" x="0" y="0"></rect><rect fill="#000" height="25" opacity="1" width="37.79997253417969" x="399.7423026632038" y="203.14032408300727"></rect></mask><g transform="translate(399.7423026632038 203.14032408300727) rotate(0 18.401331483945256 12.014716413300476)"><text direction="ltr" dominant-baseline="text-before-edge" fill="#1e1e1e" font-family="Virgil, Segoe UI Emoji" font-size="20px" style="white-space: pre;" text-anchor="middle" x="18.899986267089844" y="0">SSE</text></g><g transform="translate(521.0624975672813 10) rotate(0 231.78981018066406 25)"><text direction="ltr" dominant-baseline="text-before-edge" fill="#1e1e1e" font-family="Virgil, Segoe UI Emoji" font-size="20px" style="white-space: pre;" text-anchor="start" x="0" y="0">- When a new comment is posted, persist in DB</text><text direction="ltr" dominant-baseline="text-before-edge" fill="#1e1e1e" font-family="Virgil, Segoe UI Emoji" font-size="20px" style="white-space: pre;" text-anchor="start" x="0" y="25">and sent over SSE to connected clients</text></g><g transform="translate(1418.5611107187578 98.29253465178743) rotate(0 84.5299301147461 75)"><text direction="ltr" dominant-baseline="text-before-edge" fill="#1e1e1e" font-family="Virgil, Segoe UI Emoji" font-size="20px" style="white-space: pre;" text-anchor="start" x="0" y="0">Comment</text><text direction="ltr" dominant-baseline="text-before-edge" fill="#1e1e1e" font-family="Virgil, Segoe UI Emoji" font-size="20px" style="white-space: pre;" text-anchor="start" x="0" y="25">- commentId (PK)</text><text direction="ltr" dominant-baseline="text-before-edge" fill="#1e1e1e" font-family="Virgil, Segoe UI Emoji" font-size="20px" style="white-space: pre;" text-anchor="start" x="0" y="50">- videoId (shard)</text><text direction="ltr" dominant-baseline="text-before-edge" fill="#1e1e1e" font-family="Virgil, Segoe UI Emoji" font-size="20px" style="white-space: pre;" text-anchor="start" x="0" y="75">- content</text><text direction="ltr" dominant-baseline="text-before-edge" fill="#1e1e1e" font-family="Virgil, Segoe UI Emoji" font-size="20px" style="white-space: pre;" text-anchor="start" x="0" y="100">- author</text><text direction="ltr" dominant-baseline="text-before-edge" fill="#1e1e1e" font-family="Virgil, Segoe UI Emoji" font-size="20px" style="white-space: pre;" text-anchor="start" x="0" y="125">- createdAt (SK)</text></g></svg>