<svg height="912.4024881631576" version="1.1" viewbox="0 0 1852.3853381739032 912.4024881631576" width="1852.3853381739032" xmlns="http://www.w3.org/2000/svg">
<!-- svg-source:excalidraw -->
<!-- payload-type:application/vnd.excalidraw+json --><!-- payload-version:2 -->
<defs>
<style class="style-fonts">
</style>
</defs>
<rect fill="#ffffff" height="912.4024881631576" width="1852.3853381739032" x="0" y="0"></rect><g stroke-linecap="round" transform="translate(10 251.446901748639) rotate(0 128.0182913190058 84.77455315625434)"><path d="M32 0 C91.4 1.28, 152.31 1.57, 224.04 0 M32 0 C95.51 0.51, 158.22 0.75, 224.04 0 M224.04 0 C246.82 1.74, 255.47 8.79, 256.04 32 M224.04 0 C243.87 -0.98, 256.9 8.49, 256.04 32 M256.04 32 C255.57 57.2, 254.33 80.84, 256.04 137.55 M256.04 32 C254.19 58.1, 256.02 85, 256.04 137.55 M256.04 137.55 C257.84 159.6, 243.62 169.92, 224.04 169.55 M256.04 137.55 C254.08 158.04, 246.07 169.05, 224.04 169.55 M224.04 169.55 C172.33 167.17, 126.23 168.46, 32 169.55 M224.04 169.55 C184.9 170.73, 146 170.4, 32 169.55 M32 169.55 C10.1 168.47, 1.94 157.43, 0 137.55 M32 169.55 C9.25 171.42, 1.95 157.98, 0 137.55 M0 137.55 C-1.32 95.41, 0.28 54.4, 0 32 M0 137.55 C-0.16 108.68, -0.84 80.99, 0 32 M0 32 C-1.29 12.08, 9.68 -0.42, 32 0 M0 32 C0.85 9.58, 11.55 -0.28, 32 0" fill="none" stroke="#1e1e1e" stroke-width="1"></path></g><g transform="translate(63.86301788150581 323.72145490489333) rotate(0 74.1552734375 12.5)"><text direction="ltr" dominant-baseline="text-before-edge" fill="#1e1e1e" font-family="Virgil, Segoe UI Emoji" font-size="20px" style="white-space: pre;" text-anchor="middle" x="74.1552734375" y="0">Commenter Client</text></g><g mask="url(#mask-N3_C9SCTQa9ZkfYzsQCHN)" stroke-linecap="round"><g transform="translate(289.9586521006024 289.4782835421702) rotate(0 123.1463414244705 1.931271818146115)"><path d="M1.17 0.37 C41.91 0.91, 204.56 2.72, 245.42 3.18 M0.33 -0.49 C41.35 0.2, 206.79 3.6, 247.67 4.36" fill="none" stroke="#1e1e1e" stroke-width="1"></path></g><g transform="translate(289.9586521006024 289.4782835421702) rotate(0 123.1463414244705 1.931271818146115)"><path d="M29.48 -9.57 C19.24 -6.94, 6.66 -1.6, 1.17 0.37 M29.48 -9.57 C23.28 -6.39, 15.42 -5.79, 1.17 0.37" fill="none" stroke="#1e1e1e" stroke-width="1"></path></g><g transform="translate(289.9586521006024 289.4782835421702) rotate(0 123.1463414244705 1.931271818146115)"><path d="M29.24 10.95 C19.11 5.72, 6.62 3.2, 1.17 0.37 M29.24 10.95 C23.24 9.17, 15.44 4.79, 1.17 0.37" fill="none" stroke="#1e1e1e" stroke-width="1"></path></g><g transform="translate(289.9586521006024 289.4782835421702) rotate(0 123.1463414244705 1.931271818146115)"><path d="M219.29 14.07 C230.77 8.62, 239.9 6.44, 247.67 4.36 M219.29 14.07 C226.95 12.68, 232.82 8.53, 247.67 4.36" fill="none" stroke="#1e1e1e" stroke-width="1"></path></g><g transform="translate(289.9586521006024 289.4782835421702) rotate(0 123.1463414244705 1.931271818146115)"><path d="M219.69 -6.45 C231.01 -4.04, 239.98 1.64, 247.67 4.36 M219.69 -6.45 C227.11 -2.87, 232.88 -2.06, 247.67 4.36" fill="none" stroke="#1e1e1e" stroke-width="1"></path></g></g><mask id="mask-N3_C9SCTQa9ZkfYzsQCHN"><rect fill="#fff" height="393.3408271784624" width="636.2513349495434" x="0" y="0"></rect><rect fill="#000" height="25" opacity="1" width="61.123046875" x="382.5434700875729" y="278.9095553603163"></rect></mask><g transform="translate(382.5434700875729 278.9095553603163) rotate(0 31.415202590906986 12.506414108937605)"><text direction="ltr" dominant-baseline="text-before-edge" fill="#1e1e1e" font-family="Virgil, Segoe UI Emoji" font-size="20px" style="white-space: pre;" text-anchor="middle" x="30.5615234375" y="0">HTTPS</text></g><g stroke-linecap="round" transform="translate(563.033988117355 10.629021465668302) rotate(0 52.987237405710914 314.61157847145796)"><path d="M26.49 0 C37.38 -1.44, 49.9 1.42, 79.48 0 M26.49 0 C46.35 0.07, 67.88 -0.45, 79.48 0 M79.48 0 C95.64 -1.09, 106.17 8.94, 105.97 26.49 M79.48 0 C98.86 -1.3, 107.59 7.66, 105.97 26.49 M105.97 26.49 C104.5 152.32, 104.98 277.49, 105.97 602.73 M105.97 26.49 C103.61 219.96, 104.07 413.64, 105.97 602.73 M105.97 602.73 C105.17 618.45, 96.59 627.39, 79.48 629.22 M105.97 602.73 C103.85 622.62, 96.49 626.96, 79.48 629.22 M79.48 629.22 C65.71 627.88, 52.27 628.45, 26.49 629.22 M79.48 629.22 C65.83 629.65, 54.26 628.45, 26.49 629.22 M26.49 629.22 C10.7 630.2, 1.8 619.59, 0 602.73 M26.49 629.22 C8.12 630.14, -0.12 619.61, 0 602.73 M0 602.73 C0.6 429.86, 0.92 257.84, 0 26.49 M0 602.73 C1.28 389.08, 1.29 175.77, 0 26.49 M0 26.49 C-0.61 9.05, 9.06 1.63, 26.49 0 M0 26.49 C-1.94 8.56, 8.88 1.2, 26.49 0" fill="none" stroke="#1e1e1e" stroke-width="1"></path></g><g transform="translate(568.5456395855658 275.24059993712626) rotate(0 47.4755859375 50)"><text direction="ltr" dominant-baseline="text-before-edge" fill="#1e1e1e" font-family="Virgil, Segoe UI Emoji" font-size="20px" style="white-space: pre;" text-anchor="middle" x="47.4755859375" y="0">Load </text><text direction="ltr" dominant-baseline="text-before-edge" fill="#1e1e1e" font-family="Virgil, Segoe UI Emoji" font-size="20px" style="white-space: pre;" text-anchor="middle" x="47.4755859375" y="25">Balancer</text><text direction="ltr" dominant-baseline="text-before-edge" fill="#1e1e1e" font-family="Virgil, Segoe UI Emoji" font-size="20px" style="white-space: pre;" text-anchor="middle" x="47.4755859375" y="50">- layer 7 for</text><text direction="ltr" dominant-baseline="text-before-edge" fill="#1e1e1e" font-family="Virgil, Segoe UI Emoji" font-size="20px" style="white-space: pre;" text-anchor="middle" x="47.4755859375" y="75">SSE</text></g><g stroke-linecap="round" transform="translate(829.0716441099039 73.28495701370593) rotate(0 170.30904558041385 102.57951969389615)"><path d="M32 0 C96.76 -1.98, 157.39 -2.55, 308.62 0 M32 0 C102.62 1.6, 174.47 2.07, 308.62 0 M308.62 0 C331.44 -1.13, 342.03 9.65, 340.62 32 M308.62 0 C328.05 -1.3, 338.39 10.18, 340.62 32 M340.62 32 C341.87 84.66, 341.53 139.13, 340.62 173.16 M340.62 32 C340.64 68.2, 340.77 105.43, 340.62 173.16 M340.62 173.16 C338.77 196.43, 329.38 203.19, 308.62 205.16 M340.62 173.16 C339.26 196.51, 329.04 204.01, 308.62 205.16 M308.62 205.16 C240.48 206.06, 172.88 203.61, 32 205.16 M308.62 205.16 C203.81 204.7, 98.26 204.01, 32 205.16 M32 205.16 C10.05 205.96, -0.1 193.82, 0 173.16 M32 205.16 C10.64 203.94, -0.41 192.71, 0 173.16 M0 173.16 C1.93 141.82, 0.1 113.19, 0 32 M0 173.16 C-0.85 137.61, -0.43 102.65, 0 32 M0 32 C-1.69 10.43, 10.71 1.04, 32 0 M0 32 C-0.95 8.96, 11.67 -0.18, 32 0" fill="none" stroke="#1e1e1e" stroke-width="1"></path></g><g transform="translate(872.7498303153177 163.36447670760208) rotate(0 126.630859375 12.5)"><text direction="ltr" dominant-baseline="text-before-edge" fill="#1e1e1e" font-family="Virgil, Segoe UI Emoji" font-size="20px" style="white-space: pre;" text-anchor="middle" x="126.630859375" y="0">Comment Management Service</text></g><g stroke-linecap="round"><g transform="translate(685.65572717853 192.13573834723684) rotate(0 60.622670454105105 0.2147864390281029)"><path d="M-0.78 -0.51 C19.56 -0.44, 101.51 -0.76, 121.7 -0.71 M1.01 -1.83 C21.26 -1.55, 100.69 -0.2, 120.99 0.23" fill="none" stroke="#1e1e1e" stroke-width="1"></path></g><g transform="translate(685.65572717853 192.13573834723684) rotate(0 60.622670454105105 0.2147864390281029)"><path d="M27.39 -10.82 C18.79 -7.45, 10.09 -6.91, -0.78 -0.51 M27.39 -10.82 C21.23 -8.84, 14.27 -6.25, -0.78 -0.51" fill="none" stroke="#1e1e1e" stroke-width="1"></path></g><g transform="translate(685.65572717853 192.13573834723684) rotate(0 60.622670454105105 0.2147864390281029)"><path d="M27.43 9.7 C19 7.49, 10.29 2.46, -0.78 -0.51 M27.43 9.7 C21.24 6.64, 14.27 4.19, -0.78 -0.51" fill="none" stroke="#1e1e1e" stroke-width="1"></path></g><g transform="translate(685.65572717853 192.13573834723684) rotate(0 60.622670454105105 0.2147864390281029)"><path d="M92.61 9.96 C99.56 8.25, 106.23 3.35, 120.99 0.23 M92.61 9.96 C100.31 6.99, 107.24 4.66, 120.99 0.23" fill="none" stroke="#1e1e1e" stroke-width="1"></path></g><g transform="translate(685.65572717853 192.13573834723684) rotate(0 60.622670454105105 0.2147864390281029)"><path d="M92.99 -10.56 C99.65 -6.69, 106.21 -6.02, 120.99 0.23 M92.99 -10.56 C100.62 -8.49, 107.45 -5.78, 120.99 0.23" fill="none" stroke="#1e1e1e" stroke-width="1"></path></g></g><mask></mask><g stroke-linecap="round" transform="translate(1371.641678328424 49.68229322763) rotate(0 133.62108660928106 133.6788415220053)"><path d="M84.53 10.12 C96.53 3.2, 112.56 1.77, 126.92 0.85 C141.27 -0.08, 156.77 0.77, 170.65 4.55 C184.53 8.34, 198.34 14.92, 210.2 23.56 C222.06 32.19, 233.18 44.31, 241.8 56.35 C250.41 68.4, 257.6 82.29, 261.89 95.85 C266.18 109.41, 268.08 123.54, 267.51 137.71 C266.95 151.88, 263.83 167.15, 258.51 180.85 C253.2 194.55, 244.98 208.75, 235.62 219.91 C226.25 231.07, 214.82 240.43, 202.33 247.8 C189.84 255.16, 174.93 261.16, 160.68 264.11 C146.42 267.06, 130.83 267.21, 116.79 265.48 C102.75 263.76, 89.49 260, 76.46 253.76 C63.43 247.52, 48.88 238.25, 38.59 228.05 C28.3 217.85, 21.06 205.51, 14.72 192.55 C8.39 179.58, 2.75 164.59, 0.61 150.26 C-1.53 135.93, -1.01 120.49, 1.89 106.57 C4.78 92.65, 10.62 79.27, 17.98 66.75 C25.34 54.23, 34.44 41.03, 46.06 31.46 C57.69 21.88, 80.43 12.69, 87.73 9.28 C95.04 5.87, 89.15 8.9, 89.87 11 M106.81 2.19 C119.93 -2.85, 136.52 -1.43, 150.83 0.32 C165.14 2.08, 179.92 6.27, 192.67 12.73 C205.42 19.19, 217.27 28.44, 227.33 39.09 C237.38 49.75, 246.63 63.59, 253 76.66 C259.38 89.73, 263.59 103.45, 265.56 117.53 C267.53 131.6, 267.63 146.92, 264.8 161.09 C261.98 175.26, 256.26 189.99, 248.62 202.53 C240.99 215.06, 230.13 226.78, 218.98 236.31 C207.83 245.84, 195.34 254.56, 181.71 259.69 C168.07 264.82, 151.65 266.64, 137.17 267.09 C122.7 267.54, 108.58 266.74, 94.85 262.38 C81.12 258.02, 66.41 249.57, 54.79 240.95 C43.17 232.33, 33.15 222.38, 25.12 210.66 C17.08 198.95, 10.57 184.27, 6.58 170.64 C2.59 157, 0.78 143.34, 1.17 128.86 C1.56 114.37, 3.97 97.27, 8.9 83.71 C13.83 70.14, 21.27 58.29, 30.76 47.48 C40.24 36.67, 52.85 26.19, 65.79 18.85 C78.72 11.51, 101.31 5.64, 108.39 3.45 C115.46 1.26, 107.88 3.69, 108.26 5.72" fill="none" stroke="#1e1e1e" stroke-width="1"></path></g><g transform="translate(1443.0518259867674 158.33591940826352) rotate(0 62.2265625 25)"><text direction="ltr" dominant-baseline="text-before-edge" fill="#1e1e1e" font-family="Virgil, Segoe UI Emoji" font-size="20px" style="white-space: pre;" text-anchor="middle" x="62.2265625" y="0">Comments DB </text><text direction="ltr" dominant-baseline="text-before-edge" fill="#1e1e1e" font-family="Virgil, Segoe UI Emoji" font-size="20px" style="white-space: pre;" text-anchor="middle" x="62.2265625" y="25">(DynamoDB)</text></g><g stroke-linecap="round"><g transform="translate(1191.7657013226271 183.78760920704008) rotate(0 80.12992170582652 -0.03953793054711241)"><path d="M0.11 0.07 C27.12 0.05, 134.32 -0.63, 161.15 -0.76 M-1.28 -0.95 C25.72 -0.76, 133.66 0.22, 160.68 0.42" fill="none" stroke="#1e1e1e" stroke-width="1"></path></g><g transform="translate(1191.7657013226271 183.78760920704008) rotate(0 80.12992170582652 -0.03953793054711241)"><path d="M28.25 -10.33 C21.99 -6.48, 14.42 -4.23, 0.11 0.07 M28.25 -10.33 C20.18 -8.11, 14.99 -4.93, 0.11 0.07" fill="none" stroke="#1e1e1e" stroke-width="1"></path></g><g transform="translate(1191.7657013226271 183.78760920704008) rotate(0 80.12992170582652 -0.03953793054711241)"><path d="M28.36 10.19 C22.18 9.43, 14.59 7.08, 0.11 0.07 M28.36 10.19 C20.43 7.29, 15.22 5.36, 0.11 0.07" fill="none" stroke="#1e1e1e" stroke-width="1"></path></g><g transform="translate(1191.7657013226271 183.78760920704008) rotate(0 80.12992170582652 -0.03953793054711241)"><path d="M132.4 10.45 C138.92 9.66, 144.03 7.33, 160.68 0.42 M132.4 10.45 C138.56 7.9, 147.43 5.99, 160.68 0.42" fill="none" stroke="#1e1e1e" stroke-width="1"></path></g><g transform="translate(1191.7657013226271 183.78760920704008) rotate(0 80.12992170582652 -0.03953793054711241)"><path d="M132.57 -10.07 C138.94 -6.25, 144.01 -3.97, 160.68 0.42 M132.57 -10.07 C138.52 -7.51, 147.35 -4.3, 160.68 0.42" fill="none" stroke="#1e1e1e" stroke-width="1"></path></g></g><mask></mask><g transform="translate(346.4042316370312 246.18504761431905) rotate(0 66.38994598388672 12.5)"><text direction="ltr" dominant-baseline="text-before-edge" fill="#1e1e1e" font-family="Virgil, Segoe UI Emoji" font-size="20px" style="white-space: pre;" text-anchor="start" x="0" y="0">- for /create</text></g><g transform="translate(786.3022291012512 10) rotate(0 231.78981018066406 25)"><text direction="ltr" dominant-baseline="text-before-edge" fill="#1e1e1e" font-family="Virgil, Segoe UI Emoji" font-size="20px" style="white-space: pre;" text-anchor="start" x="0" y="0">- When a new comment is posted, persist in DB</text><text direction="ltr" dominant-baseline="text-before-edge" fill="#1e1e1e" font-family="Virgil, Segoe UI Emoji" font-size="20px" style="white-space: pre;" text-anchor="start" x="0" y="25">and sent over SSE to connected clients</text></g><g stroke-linecap="round" transform="translate(817.0863844340765 509.02210954911243) rotate(0 170.30904558041385 102.57951969389615)"><path d="M32 0 C91.74 3.39, 152.73 3.46, 308.62 0 M32 0 C124.29 -0.68, 218.12 -0.57, 308.62 0 M308.62 0 C329.15 -1.94, 340.07 8.84, 340.62 32 M308.62 0 C327.82 2.23, 339.97 8.41, 340.62 32 M340.62 32 C340.86 64.9, 340.19 99.5, 340.62 173.16 M340.62 32 C341.37 67.55, 342.84 101.07, 340.62 173.16 M340.62 173.16 C342.49 195.47, 331.75 204.35, 308.62 205.16 M340.62 173.16 C339.91 195.41, 329.83 204.38, 308.62 205.16 M308.62 205.16 C224.76 203.47, 142.73 203.78, 32 205.16 M308.62 205.16 C206.43 204.34, 103.98 204.61, 32 205.16 M32 205.16 C10.05 205.38, 0.23 196.12, 0 173.16 M32 205.16 C8.73 204.89, 0.05 195.69, 0 173.16 M0 173.16 C0.89 138.25, 0.37 101.43, 0 32 M0 173.16 C-0.44 118.07, 0.44 62.25, 0 32 M0 32 C1.99 11.66, 11.78 0.54, 32 0 M0 32 C1.65 10.41, 8.93 -2.29, 32 0" fill="none" stroke="#1e1e1e" stroke-width="1"></path></g><g stroke-linecap="round" transform="translate(835.9349895555401 523.4753466695638) rotate(0 170.30904558041385 102.57951969389615)"><path d="M32 0 C88.77 -0.43, 144.92 -3.18, 308.62 0 M32 0 C120.41 0.61, 208.03 0.03, 308.62 0 M308.62 0 C329.4 -1.83, 338.77 12.6, 340.62 32 M308.62 0 C329.3 -2.26, 339.26 12.68, 340.62 32 M340.62 32 C338.25 68.21, 338.84 107.48, 340.62 173.16 M340.62 32 C340.6 63.69, 340.68 96.65, 340.62 173.16 M340.62 173.16 C342.42 193.69, 329.34 205.96, 308.62 205.16 M340.62 173.16 C340.5 193.71, 329.92 203.94, 308.62 205.16 M308.62 205.16 C229.95 202.35, 153.52 202.58, 32 205.16 M308.62 205.16 C231.78 204.05, 154.11 204.23, 32 205.16 M32 205.16 C10.89 206.79, -1.69 194.25, 0 173.16 M32 205.16 C10.71 206.36, -0.95 192.78, 0 173.16 M0 173.16 C-0.57 126.05, 1.98 75.54, 0 32 M0 173.16 C1.25 137.86, 2.28 102.57, 0 32 M0 32 C1.11 11.2, 12.1 -0.22, 32 0 M0 32 C-1.73 8.38, 9.72 1.33, 32 0" fill="none" stroke="#1e1e1e" stroke-width="1"></path></g><g stroke-linecap="round" transform="translate(858.1692159750828 542.5285409922744) rotate(0 170.30904558041385 102.57951969389615)"><path d="M32 0 C139.19 -3.28, 245.56 -3.24, 308.62 0 M32 0 C104.53 -0.28, 177.48 -0.24, 308.62 0 M308.62 0 C328.1 1.94, 340.05 8.7, 340.62 32 M308.62 0 C328.6 2.01, 339.71 9.52, 340.62 32 M340.62 32 C338.37 68.29, 337.99 99.46, 340.62 173.16 M340.62 32 C342.75 86.34, 342.72 139.3, 340.62 173.16 M340.62 173.16 C340 195.29, 329.85 204.48, 308.62 205.16 M340.62 173.16 C340.59 193.28, 329.54 203.37, 308.62 205.16 M308.62 205.16 C250.23 203.02, 189.34 204.35, 32 205.16 M308.62 205.16 C238.5 204.98, 168.94 205.52, 32 205.16 M32 205.16 C8.98 204.92, 0.04 195.54, 0 173.16 M32 205.16 C9.72 203.45, 1 194.31, 0 173.16 M0 173.16 C2.35 118.62, -0.49 63.6, 0 32 M0 173.16 C1.04 124.41, 0.6 74.94, 0 32 M0 32 C1.44 10.44, 9.16 -1.99, 32 0 M0 32 C-0.95 12, 12.68 2.03, 32 0" fill="none" stroke="#1e1e1e" stroke-width="1"></path></g><g transform="translate(946.5495506179966 620.1080606861706) rotate(0 81.9287109375 25)"><text direction="ltr" dominant-baseline="text-before-edge" fill="#1e1e1e" font-family="Virgil, Segoe UI Emoji" font-size="20px" style="white-space: pre;" text-anchor="middle" x="81.9287109375" y="0">Realtime Messaging</text><text direction="ltr" dominant-baseline="text-before-edge" fill="#1e1e1e" font-family="Virgil, Segoe UI Emoji" font-size="20px" style="white-space: pre;" text-anchor="middle" x="81.9287109375" y="25"> Service</text></g><g mask="url(#mask-6fVt_7I6sp-P5PyhuCXqe)" stroke-linecap="round"><g transform="translate(283.5912792014027 366.8830023769606) rotate(0 259.46530474452163 125.83687886223038)"><path d="M0 0 C110.06 55.44, 220.35 108.3, 518.93 251.67 M0 0 C104.65 53.36, 210.21 103.65, 518.93 251.67" fill="none" stroke="#1e1e1e" stroke-width="1"></path></g><g transform="translate(283.5912792014027 366.8830023769606) rotate(0 259.46530474452163 125.83687886223038)"><path d="M29.83 3.15 C22.76 2.84, 16.72 0.75, 0 0 M29.83 3.15 C22.86 3.21, 17.45 0.62, 0 0" fill="none" stroke="#1e1e1e" stroke-width="1"></path></g><g transform="translate(283.5912792014027 366.8830023769606) rotate(0 259.46530474452163 125.83687886223038)"><path d="M20.83 21.59 C15.63 17.44, 11.51 11.44, 0 0 M20.83 21.59 C15.74 17.99, 12.15 11.66, 0 0" fill="none" stroke="#1e1e1e" stroke-width="1"></path></g></g><mask id="mask-6fVt_7I6sp-P5PyhuCXqe"><rect fill="#fff" height="718.5567601014213" width="902.521888690446" x="0" y="0"></rect><rect fill="#000" height="50" opacity="1" width="255.380859375" x="415.36615425842433" y="467.71988123919095"></rect></mask><g transform="translate(415.36615425842433 467.71988123919095) rotate(0 127.6904296875 25)"><text direction="ltr" dominant-baseline="text-before-edge" fill="#1e1e1e" font-family="Virgil, Segoe UI Emoji" font-size="20px" style="white-space: pre;" text-anchor="middle" x="127.6904296875" y="0">SSE</text><text direction="ltr" dominant-baseline="text-before-edge" fill="#1e1e1e" font-family="Virgil, Segoe UI Emoji" font-size="20px" style="white-space: pre;" text-anchor="middle" x="127.6904296875" y="25">- connect based on LiveVideoId</text></g><g stroke-linecap="round" transform="translate(976.3476131470784 336.59414485526395) rotate(0 19.284182130573413 62.775886524987754)"><path d="M2.57 2.23 C2.57 2.23, 2.57 2.23, 2.57 2.23 M2.57 2.23 C2.57 2.23, 2.57 2.23, 2.57 2.23 M0.34 10.89 C2.91 7.18, 4.18 4.79, 9.52 0.33 M0.34 10.89 C3.7 6.27, 7.4 2.95, 9.52 0.33 M0.08 17.29 C5.42 12.04, 12.77 4.23, 15.16 -0.07 M0.08 17.29 C5.04 11.8, 9.25 7.17, 15.16 -0.07 M-0.19 23.69 C6.95 16.77, 13.99 6.33, 20.15 0.29 M-0.19 23.69 C8.34 15.02, 14.95 6.03, 20.15 0.29 M0.21 29.33 C10.92 17.37, 18.26 5.47, 25.14 0.65 M0.21 29.33 C7.13 22.42, 12.98 15.51, 25.14 0.65 M-0.05 35.73 C8.93 25.6, 16.59 12.36, 30.78 0.26 M-0.05 35.73 C8.42 25.33, 16.96 16.11, 30.78 0.26 M0.34 41.37 C12.66 25.98, 23.56 13.8, 34.46 2.13 M0.34 41.37 C13.13 27.27, 26.84 11.48, 34.46 2.13 M0.08 47.77 C11.23 32.29, 23.15 19.74, 37.48 4.75 M0.08 47.77 C9.48 36.15, 21.43 23.39, 37.48 4.75 M0.47 53.41 C11.31 44.01, 21.32 32.11, 37.87 10.39 M0.47 53.41 C9.07 42.2, 18.75 31.39, 37.87 10.39 M0.21 59.81 C13.94 43.82, 30.34 26.92, 38.26 16.04 M0.21 59.81 C11.4 45.81, 23.47 33.26, 38.26 16.04 M0.61 65.45 C11.03 54.32, 22.13 43.41, 38 22.44 M0.61 65.45 C12.12 52.99, 23.72 40.71, 38 22.44 M0.35 71.85 C13.74 53.91, 28.48 38.51, 38.4 28.08 M0.35 71.85 C13.66 55.28, 27.66 39.4, 38.4 28.08 M0.74 77.5 C15.97 63.82, 25.37 47.68, 38.14 34.48 M0.74 77.5 C10.5 64.58, 21.56 52, 38.14 34.48 M0.48 83.89 C11.75 70.08, 22.77 58.07, 38.53 40.12 M0.48 83.89 C13.27 67.99, 27.04 51.69, 38.53 40.12 M0.22 90.29 C12.75 79.32, 24.12 66.22, 38.27 46.52 M0.22 90.29 C11.11 77.04, 20.89 65.28, 38.27 46.52 M0.61 95.93 C16.11 79.06, 28.63 63.51, 38.66 52.16 M0.61 95.93 C11.17 84.08, 22.26 70.57, 38.66 52.16 M0.35 102.33 C8.67 90.75, 18.75 83.28, 38.4 58.56 M0.35 102.33 C8.5 93.83, 15.65 82.9, 38.4 58.56 M0.75 107.97 C13.26 93.67, 28.52 76.96, 38.14 64.96 M0.75 107.97 C10.53 96.62, 19.78 87.22, 38.14 64.96 M0.48 114.37 C14.34 99.47, 29.49 81.32, 38.54 70.6 M0.48 114.37 C14.37 97.47, 26.94 82.53, 38.54 70.6 M0.88 120.02 C16.2 105.59, 27.6 89.51, 38.27 77 M0.88 120.02 C10.59 109.89, 20.86 97.82, 38.27 77 M3.24 123.39 C10.58 113.08, 19.29 104.65, 38.67 82.64 M3.24 123.39 C12.75 112.52, 22.62 101.53, 38.67 82.64 M6.92 125.26 C16.52 112.24, 30.96 97.58, 38.41 89.04 M6.92 125.26 C13.82 117.09, 20.37 109.96, 38.41 89.04 M12.56 124.87 C20.32 115.79, 26.8 107.52, 38.8 94.68 M12.56 124.87 C22.44 113.87, 31.87 102.21, 38.8 94.68 M17.55 125.23 C20.83 121.39, 24.45 113.96, 38.54 101.08 M17.55 125.23 C24.48 117.7, 32.09 108.66, 38.54 101.08 M23.19 124.83 C30.26 118.19, 36.12 111.69, 38.94 106.72 M23.19 124.83 C27.19 120.49, 32.37 115.31, 38.94 106.72 M28.18 125.19 C30.6 120.39, 32.97 120.33, 38.67 113.12 M28.18 125.19 C31.74 121.11, 34.17 117.54, 38.67 113.12 M33.16 125.55 C35.1 123.98, 36.59 120.78, 38.41 119.52 M33.16 125.55 C35.47 123.4, 36.94 120.97, 38.41 119.52" fill="none" stroke="#ffffff" stroke-width="0.5"></path><path d="M9.64 0 C14.14 -0.45, 20.62 -1.71, 28.93 0 M9.64 0 C16.73 1.03, 24.57 -0.29, 28.93 0 M28.93 0 C34.22 -1.66, 38 2.13, 38.57 9.64 M28.93 0 C37.58 -1.67, 37.15 5.09, 38.57 9.64 M38.57 9.64 C39.13 52.34, 37.35 90.83, 38.57 115.91 M38.57 9.64 C38.5 45.23, 38.34 81.09, 38.57 115.91 M38.57 115.91 C36.87 121.59, 34.06 126.96, 28.93 125.55 M38.57 115.91 C37.43 121.85, 36.2 124.46, 28.93 125.55 M28.93 125.55 C22.61 125.71, 17.44 123.87, 9.64 125.55 M28.93 125.55 C22.97 124.94, 18.23 125.58, 9.64 125.55 M9.64 125.55 C4.85 124.88, 1.37 124.21, 0 115.91 M9.64 125.55 C2.45 124.44, -2.08 123.46, 0 115.91 M0 115.91 C0.74 85.44, 0.27 54.2, 0 9.64 M0 115.91 C0.39 85.8, 1.68 55.41, 0 9.64 M0 9.64 C-0.14 2.2, 1.75 -1.37, 9.64 0 M0 9.64 C-2.12 4.49, 1.49 1.69, 9.64 0" fill="none" stroke="#1e1e1e" stroke-width="1"></path></g><g transform="translate(985.6317952776518 386.8700313802517) rotate(0 10 12.5)"><text direction="ltr" dominant-baseline="text-before-edge" fill="#1e1e1e" font-family="Virgil, Segoe UI Emoji" font-size="20px" style="white-space: pre;" text-anchor="middle" x="10" y="0">v3</text></g><g stroke-linecap="round"><g transform="translate(996.6877395421593 293.15523767407467) rotate(0 0 15.383788003548034)"><path d="M-0.51 0.53 C-0.51 5.65, -0.19 25.11, -0.16 30.23 M0.23 0.33 C0.16 5.54, -0.77 25.63, -0.67 30.65" fill="none" stroke="#1e1e1e" stroke-width="1"></path></g><g transform="translate(996.6877395421593 293.15523767407467) rotate(0 0 15.383788003548034)"><path d="M-5.67 16.1 C-3.63 19.87, -3.77 23.6, -0.67 30.65 M-5.67 16.1 C-3.98 21.43, -1.93 27.18, -0.67 30.65" fill="none" stroke="#1e1e1e" stroke-width="1"></path></g><g transform="translate(996.6877395421593 293.15523767407467) rotate(0 0 15.383788003548034)"><path d="M4.85 16.29 C4.02 19.96, 1.02 23.64, -0.67 30.65 M4.85 16.29 C2.46 21.52, 0.44 27.2, -0.67 30.65" fill="none" stroke="#1e1e1e" stroke-width="1"></path></g></g><mask></mask><g stroke-linecap="round"><g transform="translate(996.2389632297436 468.0196078765639) rotate(0 0 14.436737991317386)"><path d="M-0.16 -0.54 C-0.13 4.26, -0.31 24.5, -0.32 29.35 M0.77 0.37 C1.02 5.26, 0.98 23.86, 0.74 28.64" fill="none" stroke="#1e1e1e" stroke-width="1"></path></g><g transform="translate(996.2389632297436 468.0196078765639) rotate(0 0 14.436737991317386)"><path d="M-3.9 14.97 C-3.58 17.38, -1.27 20.36, 0.74 28.64 M-3.9 14.97 C-2.88 18.21, -1.26 21.56, 0.74 28.64" fill="none" stroke="#1e1e1e" stroke-width="1"></path></g><g transform="translate(996.2389632297436 468.0196078765639) rotate(0 0 14.436737991317386)"><path d="M5.97 15.18 C4.24 17.54, 4.5 20.47, 0.74 28.64 M5.97 15.18 C4.53 18.33, 3.67 21.63, 0.74 28.64" fill="none" stroke="#1e1e1e" stroke-width="1"></path></g></g><mask></mask><g transform="translate(1162.5252690422562 347.44655000221155) rotate(0 131.44989013671875 50)"><text direction="ltr" dominant-baseline="text-before-edge" fill="#1e1e1e" font-family="Virgil, Segoe UI Emoji" font-size="20px" style="white-space: pre;" text-anchor="start" x="0" y="0">Redis Pub/Sub</text><text direction="ltr" dominant-baseline="text-before-edge" fill="#1e1e1e" font-family="Virgil, Segoe UI Emoji" font-size="20px" style="white-space: pre;" text-anchor="start" x="0" y="25">- broadcast new comments</text><text direction="ltr" dominant-baseline="text-before-edge" fill="#1e1e1e" font-family="Virgil, Segoe UI Emoji" font-size="20px" style="white-space: pre;" text-anchor="start" x="0" y="50">- partition by live videoId </text><text direction="ltr" dominant-baseline="text-before-edge" fill="#1e1e1e" font-family="Virgil, Segoe UI Emoji" font-size="20px" style="white-space: pre;" text-anchor="start" x="0" y="75"></text></g><g transform="translate(789.2369008789547 777.4024881631576) rotate(0 286.7998046875 62.5)"><text direction="ltr" dominant-baseline="text-before-edge" fill="#1e1e1e" font-family="Virgil, Segoe UI Emoji" font-size="20px" style="white-space: pre;" text-anchor="start" x="0" y="0">- Subscribe only to the topics with comments from </text><text direction="ltr" dominant-baseline="text-before-edge" fill="#1e1e1e" font-family="Virgil, Segoe UI Emoji" font-size="20px" style="white-space: pre;" text-anchor="start" x="0" y="25">    live videos that your clients are watching</text><text direction="ltr" dominant-baseline="text-before-edge" fill="#1e1e1e" font-family="Virgil, Segoe UI Emoji" font-size="20px" style="white-space: pre;" text-anchor="start" x="0" y="50">- Viewers of same video end up on same box based </text><text direction="ltr" dominant-baseline="text-before-edge" fill="#1e1e1e" font-family="Virgil, Segoe UI Emoji" font-size="20px" style="white-space: pre;" text-anchor="start" x="0" y="75">    on layer 7 LB. Leads to fewer topics to subscribe to</text><text direction="ltr" dominant-baseline="text-before-edge" fill="#1e1e1e" font-family="Virgil, Segoe UI Emoji" font-size="20px" style="white-space: pre;" text-anchor="start" x="0" y="100">    per server</text></g><g stroke-linecap="round" transform="translate(921.0440831593519 336.1969815445191) rotate(0 19.284182130573413 62.775886524987754)"><path d="M2.57 2.23 C2.57 2.23, 2.57 2.23, 2.57 2.23 M2.57 2.23 C2.57 2.23, 2.57 2.23, 2.57 2.23 M0.34 10.89 C2.42 8.14, 4.6 6.44, 9.52 0.33 M0.34 10.89 C4.15 7.2, 7.09 3.38, 9.52 0.33 M0.08 17.29 C5.27 9.53, 10.1 6.75, 15.16 -0.07 M0.08 17.29 C4.14 12.25, 8.3 8.82, 15.16 -0.07 M-0.19 23.69 C4.26 18.07, 12.59 9.14, 20.15 0.29 M-0.19 23.69 C4.96 18.42, 10.35 13.03, 20.15 0.29 M0.21 29.33 C10.77 18.23, 17.56 9.68, 25.14 0.65 M0.21 29.33 C5.55 24.37, 10.93 16.97, 25.14 0.65 M-0.05 35.73 C10.47 23.75, 20.92 10.34, 30.78 0.26 M-0.05 35.73 C6.92 27.72, 12.97 21.07, 30.78 0.26 M0.34 41.37 C15.65 26.57, 26.91 8.79, 34.46 2.13 M0.34 41.37 C10.36 31.3, 18.35 20.54, 34.46 2.13 M0.08 47.77 C14.35 29.98, 29.84 16.57, 37.48 4.75 M0.08 47.77 C13.75 32.49, 27.87 14.67, 37.48 4.75 M0.47 53.41 C10.52 38.3, 21.59 28.27, 37.87 10.39 M0.47 53.41 C11.55 40.57, 21.91 27.4, 37.87 10.39 M0.21 59.81 C11.32 46.74, 21.33 36.18, 38.26 16.04 M0.21 59.81 C12.06 45.27, 26.39 29.83, 38.26 16.04 M0.61 65.45 C16.02 47.96, 27.71 31.29, 38 22.44 M0.61 65.45 C8.46 54.8, 16.67 44.78, 38 22.44 M0.35 71.85 C6.75 62.25, 17.97 54.98, 38.4 28.08 M0.35 71.85 C8.77 63.51, 15.73 53.02, 38.4 28.08 M0.74 77.5 C12.47 64.92, 21.7 53.06, 38.14 34.48 M0.74 77.5 C13.15 63.92, 24.58 49.1, 38.14 34.48 M0.48 83.89 C8.55 73.23, 19.58 65.33, 38.53 40.12 M0.48 83.89 C14.54 68.04, 29.7 49.56, 38.53 40.12 M0.22 90.29 C10.73 79.33, 23.57 64.74, 38.27 46.52 M0.22 90.29 C14.19 75.49, 26.8 60.74, 38.27 46.52 M0.61 95.93 C11.89 81.94, 25.21 65.78, 38.66 52.16 M0.61 95.93 C14.74 80.77, 28.31 65.54, 38.66 52.16 M0.35 102.33 C8.5 93.13, 16.9 83.47, 38.4 58.56 M0.35 102.33 C14.1 87.34, 26.89 72.18, 38.4 58.56 M0.75 107.97 C13.44 92.89, 27.36 77.79, 38.14 64.96 M0.75 107.97 C14.82 93.08, 28.07 76.16, 38.14 64.96 M0.48 114.37 C10.95 101.75, 20.62 94.2, 38.54 70.6 M0.48 114.37 C9.75 102.49, 19.75 92.68, 38.54 70.6 M0.88 120.02 C13.75 106.01, 22.96 93.01, 38.27 77 M0.88 120.02 C10.14 108.27, 20.74 96.79, 38.27 77 M3.24 123.39 C16.08 108.84, 25.63 95.71, 38.67 82.64 M3.24 123.39 C16.97 107.76, 29.43 93.53, 38.67 82.64 M6.92 125.26 C12.79 115.14, 22.01 107.09, 38.41 89.04 M6.92 125.26 C17.78 114.48, 26.52 103.61, 38.41 89.04 M12.56 124.87 C17.4 119.02, 23.63 112.01, 38.8 94.68 M12.56 124.87 C18.43 117.55, 23.54 112.65, 38.8 94.68 M17.55 125.23 C23.63 117.43, 31.98 109.96, 38.54 101.08 M17.55 125.23 C25.98 115.62, 32.9 107.9, 38.54 101.08 M23.19 124.83 C27.48 119.86, 33.92 109.94, 38.94 106.72 M23.19 124.83 C27.3 119.58, 31.11 115.47, 38.94 106.72 M28.18 125.19 C31.78 121.99, 32.85 121.13, 38.67 113.12 M28.18 125.19 C31.57 122.61, 34.49 119.1, 38.67 113.12 M33.16 125.55 C34.86 124.69, 34.79 122.11, 38.41 119.52 M33.16 125.55 C34.37 124.09, 35.57 122.67, 38.41 119.52" fill="none" stroke="#ffffff" stroke-width="0.5"></path><path d="M9.64 0 C13.06 -0.43, 18.65 1.98, 28.93 0 M9.64 0 C14.84 -0.53, 19.31 0.31, 28.93 0 M28.93 0 C37.15 -0.81, 37.95 4.01, 38.57 9.64 M28.93 0 C35.23 -0.78, 38.54 2, 38.57 9.64 M38.57 9.64 C37 38.35, 39.15 68.66, 38.57 115.91 M38.57 9.64 C39.34 39.15, 38.65 69.02, 38.57 115.91 M38.57 115.91 C38.8 123.97, 33.67 125.31, 28.93 125.55 M38.57 115.91 C38.62 123.54, 34.41 123.84, 28.93 125.55 M28.93 125.55 C21.65 127.03, 17.49 125.07, 9.64 125.55 M28.93 125.55 C24.04 125.88, 20.18 126.13, 9.64 125.55 M9.64 125.55 C4.32 126.09, 1.44 122.11, 0 115.91 M9.64 125.55 C1.48 123.26, -0.95 123.67, 0 115.91 M0 115.91 C-1.95 73.28, -2.3 31.73, 0 9.64 M0 115.91 C0.15 78.8, 1.45 40.87, 0 9.64 M0 9.64 C0.19 2.82, 3.83 -1.6, 9.64 0 M0 9.64 C-0.87 5.13, 3.31 0.22, 9.64 0" fill="none" stroke="#1e1e1e" stroke-width="1"></path></g><g transform="translate(930.3282652899253 386.47286806950683) rotate(0 10 12.5)"><text direction="ltr" dominant-baseline="text-before-edge" fill="#1e1e1e" font-family="Virgil, Segoe UI Emoji" font-size="20px" style="white-space: pre;" text-anchor="middle" x="10" y="0">v2</text></g><g stroke-linecap="round" transform="translate(864.4527990134711 336.79917147278593) rotate(0 19.284182130573413 62.775886524987754)"><path d="M2.57 2.23 C2.57 2.23, 2.57 2.23, 2.57 2.23 M2.57 2.23 C2.57 2.23, 2.57 2.23, 2.57 2.23 M0.34 10.89 C3.75 8, 5.86 5.8, 9.52 0.33 M0.34 10.89 C3.26 7.92, 6.08 4.83, 9.52 0.33 M0.08 17.29 C2.29 13.44, 8.37 10.33, 15.16 -0.07 M0.08 17.29 C3.22 13.2, 7.56 8.71, 15.16 -0.07 M-0.19 23.69 C5.86 13.52, 13.59 6.97, 20.15 0.29 M-0.19 23.69 C6.45 16.76, 12.29 10.09, 20.15 0.29 M0.21 29.33 C4.61 20.22, 12.11 14.72, 25.14 0.65 M0.21 29.33 C10.26 18.06, 20.19 7.15, 25.14 0.65 M-0.05 35.73 C7.98 25.86, 21.04 14.71, 30.78 0.26 M-0.05 35.73 C9.38 25.42, 17.17 16.76, 30.78 0.26 M0.34 41.37 C11.42 28.07, 23.02 16.39, 34.46 2.13 M0.34 41.37 C13.72 26.83, 24.77 12.89, 34.46 2.13 M0.08 47.77 C9.7 38.52, 15.14 27.56, 37.48 4.75 M0.08 47.77 C15 30.2, 30.61 13.48, 37.48 4.75 M0.47 53.41 C8.29 45.67, 16.12 36.31, 37.87 10.39 M0.47 53.41 C11.51 41.44, 22.55 28.57, 37.87 10.39 M0.21 59.81 C10.64 50.37, 19.09 35.79, 38.26 16.04 M0.21 59.81 C14.7 44.52, 28.53 28.78, 38.26 16.04 M0.61 65.45 C9.39 55.06, 22.08 41.68, 38 22.44 M0.61 65.45 C9.36 54.59, 20.1 43.52, 38 22.44 M0.35 71.85 C8.72 59.57, 20.71 48.12, 38.4 28.08 M0.35 71.85 C15.11 54.33, 30.06 38.73, 38.4 28.08 M0.74 77.5 C10.44 66.42, 20.29 56.43, 38.14 34.48 M0.74 77.5 C14.44 60.77, 29.06 44.72, 38.14 34.48 M0.48 83.89 C12.11 72.95, 20.21 59.52, 38.53 40.12 M0.48 83.89 C14.43 66.96, 29.57 51.05, 38.53 40.12 M0.22 90.29 C14.76 73.26, 27.55 59.33, 38.27 46.52 M0.22 90.29 C13.01 75.25, 24.49 60.56, 38.27 46.52 M0.61 95.93 C13.34 83.53, 21.77 70.93, 38.66 52.16 M0.61 95.93 C12.51 80.28, 26.54 65.9, 38.66 52.16 M0.35 102.33 C14.67 86.81, 26.22 73.19, 38.4 58.56 M0.35 102.33 C10.74 91.69, 20.87 79.08, 38.4 58.56 M0.75 107.97 C14.49 92.3, 27.13 79.89, 38.14 64.96 M0.75 107.97 C13.54 92.48, 28.44 77.65, 38.14 64.96 M0.48 114.37 C7.33 106.04, 15.39 94.91, 38.54 70.6 M0.48 114.37 C9.79 103.81, 18.19 93.83, 38.54 70.6 M0.88 120.02 C9.83 109.95, 19.12 97.2, 38.27 77 M0.88 120.02 C11.39 108.07, 21.73 97.25, 38.27 77 M3.24 123.39 C14.51 110.85, 21.32 102.2, 38.67 82.64 M3.24 123.39 C9.83 116, 17.36 106.28, 38.67 82.64 M6.92 125.26 C13.64 116.2, 21.94 111.93, 38.41 89.04 M6.92 125.26 C17.51 112.83, 28.43 98.57, 38.41 89.04 M12.56 124.87 C20.18 112.76, 32.1 103.75, 38.8 94.68 M12.56 124.87 C18.4 118.11, 24.56 111.48, 38.8 94.68 M17.55 125.23 C24.97 118.17, 29.24 112.36, 38.54 101.08 M17.55 125.23 C23.05 119.91, 26.94 113.31, 38.54 101.08 M23.19 124.83 C28.09 120.21, 35.46 112.21, 38.94 106.72 M23.19 124.83 C25.82 120.83, 30.84 117.52, 38.94 106.72 M28.18 125.19 C30.42 120.92, 35.12 119.77, 38.67 113.12 M28.18 125.19 C31.66 120.74, 35.71 116.11, 38.67 113.12 M33.16 125.55 C34.56 123, 37.48 121.19, 38.41 119.52 M33.16 125.55 C34.73 124.12, 36.51 122.31, 38.41 119.52" fill="none" stroke="#ffffff" stroke-width="0.5"></path><path d="M9.64 0 C13.48 -1.37, 21.7 1.45, 28.93 0 M9.64 0 C15.54 -0.48, 19.4 0.29, 28.93 0 M28.93 0 C35.25 -0.68, 38.54 2.16, 38.57 9.64 M28.93 0 C34.95 -1.79, 36.61 2.36, 38.57 9.64 M38.57 9.64 C38.89 35.39, 38.37 60.44, 38.57 115.91 M38.57 9.64 C38.36 41.03, 37.4 70.66, 38.57 115.91 M38.57 115.91 C38.61 123.38, 34.53 124.07, 28.93 125.55 M38.57 115.91 C39.57 122.16, 37.23 124.78, 28.93 125.55 M28.93 125.55 C20.89 123.74, 15.66 125.43, 9.64 125.55 M28.93 125.55 C23.2 125.91, 17.1 125.54, 9.64 125.55 M9.64 125.55 C1.71 123.56, -0.83 123.5, 0 115.91 M9.64 125.55 C5.22 127.58, -0.16 121.18, 0 115.91 M0 115.91 C1.84 90.33, 2.2 66.46, 0 9.64 M0 115.91 C-0.6 76.55, -0.39 36.78, 0 9.64 M0 9.64 C-0.76 4.88, 3.3 0.19, 9.64 0 M0 9.64 C-1.69 2.52, 4.77 -0.78, 9.64 0" fill="none" stroke="#1e1e1e" stroke-width="1"></path></g><g transform="translate(873.7369811440445 387.0750579977737) rotate(0 10 12.5)"><text direction="ltr" dominant-baseline="text-before-edge" fill="#1e1e1e" font-family="Virgil, Segoe UI Emoji" font-size="20px" style="white-space: pre;" text-anchor="middle" x="10" y="0">v1</text></g><g stroke-linecap="round" transform="translate(1031.0797234388833 334.76920865008105) rotate(0 19.284182130573413 62.775886524987754)"><path d="M2.57 2.23 C2.57 2.23, 2.57 2.23, 2.57 2.23 M2.57 2.23 C2.57 2.23, 2.57 2.23, 2.57 2.23 M0.34 10.89 C3.18 8.34, 5.77 4.59, 9.52 0.33 M0.34 10.89 C2.5 7.5, 6.44 4.07, 9.52 0.33 M0.08 17.29 C3.09 13.83, 9.21 6.37, 15.16 -0.07 M0.08 17.29 C4.87 12.95, 8.08 6.92, 15.16 -0.07 M-0.19 23.69 C4.56 20.22, 9.15 14.52, 20.15 0.29 M-0.19 23.69 C6.14 15.58, 13.75 6.84, 20.15 0.29 M0.21 29.33 C7.25 23.7, 9.49 18.25, 25.14 0.65 M0.21 29.33 C6.97 21.45, 13.11 12.85, 25.14 0.65 M-0.05 35.73 C10.29 23.05, 23.15 11.92, 30.78 0.26 M-0.05 35.73 C8.59 25.63, 15.79 16, 30.78 0.26 M0.34 41.37 C11.32 28.54, 20.95 20.48, 34.46 2.13 M0.34 41.37 C9.21 31.07, 20.17 20.35, 34.46 2.13 M0.08 47.77 C14.3 32.69, 23.65 20, 37.48 4.75 M0.08 47.77 C6.62 38.17, 15.92 29.8, 37.48 4.75 M0.47 53.41 C13.63 37.04, 26.09 22.31, 37.87 10.39 M0.47 53.41 C13.38 38.07, 27.48 23.14, 37.87 10.39 M0.21 59.81 C16.02 43.76, 30.04 28.36, 38.26 16.04 M0.21 59.81 C13.31 43, 27.05 26.98, 38.26 16.04 M0.61 65.45 C12.1 49.05, 24.63 34.29, 38 22.44 M0.61 65.45 C9.86 55.54, 20.39 42.58, 38 22.44 M0.35 71.85 C13.73 56.95, 22.85 44.49, 38.4 28.08 M0.35 71.85 C8.7 61.71, 17.38 51.55, 38.4 28.08 M0.74 77.5 C11.93 64.38, 20.47 53.25, 38.14 34.48 M0.74 77.5 C9.58 67.86, 19.77 57.57, 38.14 34.48 M0.48 83.89 C15.8 69.06, 25.94 52.1, 38.53 40.12 M0.48 83.89 C9.33 75.25, 16.51 65.09, 38.53 40.12 M0.22 90.29 C10.21 79.32, 20.35 69.13, 38.27 46.52 M0.22 90.29 C10.55 78.84, 19.61 68.16, 38.27 46.52 M0.61 95.93 C13.78 82.32, 27.11 66.48, 38.66 52.16 M0.61 95.93 C9.79 85.27, 18.88 75.91, 38.66 52.16 M0.35 102.33 C11.35 90.32, 22.17 76.84, 38.4 58.56 M0.35 102.33 C14.6 86.06, 29.01 70.39, 38.4 58.56 M0.75 107.97 C11.17 97.93, 17.38 84.95, 38.14 64.96 M0.75 107.97 C9.97 96.6, 21.9 83.37, 38.14 64.96 M0.48 114.37 C12.92 98.34, 29.63 83.62, 38.54 70.6 M0.48 114.37 C12.7 99.37, 25.26 85.17, 38.54 70.6 M0.88 120.02 C12.75 105.81, 25.28 92.65, 38.27 77 M0.88 120.02 C9.95 107.96, 19.88 98.39, 38.27 77 M3.24 123.39 C9.6 113.91, 18.98 103.55, 38.67 82.64 M3.24 123.39 C16 108.4, 29.72 92.63, 38.67 82.64 M6.92 125.26 C14.77 117, 22.21 107.56, 38.41 89.04 M6.92 125.26 C19.61 111.28, 31.5 97.35, 38.41 89.04 M12.56 124.87 C16.86 117.25, 25.9 110.96, 38.8 94.68 M12.56 124.87 C19.88 116.86, 27.5 108.2, 38.8 94.68 M17.55 125.23 C22.55 117.37, 31.35 111.74, 38.54 101.08 M17.55 125.23 C25.46 116.95, 30.84 108.55, 38.54 101.08 M23.19 124.83 C27.99 118.12, 35.05 108.51, 38.94 106.72 M23.19 124.83 C27.53 119.32, 33.4 113.31, 38.94 106.72 M28.18 125.19 C32.06 123.44, 34.03 118.28, 38.67 113.12 M28.18 125.19 C32.39 120.2, 34.83 116.18, 38.67 113.12 M33.16 125.55 C34.37 123.93, 35.63 122.62, 38.41 119.52 M33.16 125.55 C35.52 122.94, 37.06 120.87, 38.41 119.52" fill="none" stroke="#ffffff" stroke-width="0.5"></path><path d="M9.64 0 C13.49 1.64, 19.78 1.57, 28.93 0 M9.64 0 C14.6 -0.4, 19.65 -0.59, 28.93 0 M28.93 0 C35 -1.55, 36.87 2.47, 38.57 9.64 M28.93 0 C33.87 1.62, 37.43 2.73, 38.57 9.64 M38.57 9.64 C37.82 44.81, 38.29 81.44, 38.57 115.91 M38.57 9.64 C37.69 50.69, 37.26 89.96, 38.57 115.91 M38.57 115.91 C39.44 122.18, 36.99 124.88, 28.93 125.55 M38.57 115.91 C40.14 124.49, 34.59 124.44, 28.93 125.55 M28.93 125.55 C25.36 127.47, 21.81 126.62, 9.64 125.55 M28.93 125.55 C21.9 124.57, 15.92 126.09, 9.64 125.55 M9.64 125.55 C4.96 127.31, -0.14 121.33, 0 115.91 M9.64 125.55 C1.53 123.98, -2.12 123.62, 0 115.91 M0 115.91 C0.59 93.3, 0.33 68.26, 0 9.64 M0 115.91 C-0.71 86.94, -0.29 56.41, 0 9.64 M0 9.64 C-1.47 2.61, 4.57 -0.68, 9.64 0 M0 9.64 C-1.49 1.64, 3.32 -1.58, 9.64 0" fill="none" stroke="#1e1e1e" stroke-width="1"></path></g><g transform="translate(1040.3639055694566 385.0450951750688) rotate(0 10 12.5)"><text direction="ltr" dominant-baseline="text-before-edge" fill="#1e1e1e" font-family="Virgil, Segoe UI Emoji" font-size="20px" style="white-space: pre;" text-anchor="middle" x="10" y="0">v4</text></g><g stroke-linecap="round" transform="translate(1088.2294901795271 335.2888402817298) rotate(0 19.284182130573413 62.775886524987754)"><path d="M2.57 2.23 C2.57 2.23, 2.57 2.23, 2.57 2.23 M2.57 2.23 C2.57 2.23, 2.57 2.23, 2.57 2.23 M0.34 10.89 C3.84 8.01, 7.14 1.91, 9.52 0.33 M0.34 10.89 C2.79 8.61, 5.56 4.67, 9.52 0.33 M0.08 17.29 C5.73 12.1, 10.56 4.87, 15.16 -0.07 M0.08 17.29 C4.53 10.86, 10.78 5.49, 15.16 -0.07 M-0.19 23.69 C8.27 14.74, 17.22 4.69, 20.15 0.29 M-0.19 23.69 C4.82 16.67, 11.66 10.97, 20.15 0.29 M0.21 29.33 C7.69 21.5, 16.01 11.45, 25.14 0.65 M0.21 29.33 C8.21 21.98, 15.5 12.61, 25.14 0.65 M-0.05 35.73 C8.8 24.72, 20.78 13.94, 30.78 0.26 M-0.05 35.73 C8.6 25.77, 17.91 16.77, 30.78 0.26 M0.34 41.37 C7.4 31.35, 15.52 21.74, 34.46 2.13 M0.34 41.37 C12.65 26.33, 24.23 13.66, 34.46 2.13 M0.08 47.77 C7.28 39.55, 16.35 25.65, 37.48 4.75 M0.08 47.77 C8.81 38.28, 16.82 28.53, 37.48 4.75 M0.47 53.41 C11.13 42.3, 20.13 31.02, 37.87 10.39 M0.47 53.41 C12.77 39.81, 22.57 27.14, 37.87 10.39 M0.21 59.81 C13.35 47.53, 25.46 31.18, 38.26 16.04 M0.21 59.81 C9.92 50.31, 18.03 38.66, 38.26 16.04 M0.61 65.45 C7.78 57.91, 14.74 47.62, 38 22.44 M0.61 65.45 C15.09 48.71, 30.14 32.81, 38 22.44 M0.35 71.85 C7.79 61.81, 19.17 51.03, 38.4 28.08 M0.35 71.85 C12.78 57.97, 25.59 43.78, 38.4 28.08 M0.74 77.5 C7.65 68.27, 15.9 58.59, 38.14 34.48 M0.74 77.5 C14.63 61.22, 27.47 46.56, 38.14 34.48 M0.48 83.89 C12.26 70.2, 26.4 55.6, 38.53 40.12 M0.48 83.89 C15.22 66.24, 31.38 49.38, 38.53 40.12 M0.22 90.29 C10.54 75.54, 21.35 64.01, 38.27 46.52 M0.22 90.29 C11.45 76.94, 22.36 65.91, 38.27 46.52 M0.61 95.93 C11.21 83.21, 24.02 68.86, 38.66 52.16 M0.61 95.93 C9.71 84.52, 19.92 73.88, 38.66 52.16 M0.35 102.33 C16.4 86.94, 28.72 69.91, 38.4 58.56 M0.35 102.33 C10.73 89.9, 22.9 77.15, 38.4 58.56 M0.75 107.97 C13.79 94.6, 28.46 76.37, 38.14 64.96 M0.75 107.97 C15.42 91.21, 28.84 74.41, 38.14 64.96 M0.48 114.37 C10.76 101.43, 21.85 89.97, 38.54 70.6 M0.48 114.37 C10.75 102.85, 19.58 91.62, 38.54 70.6 M0.88 120.02 C10.82 108.82, 23.09 94.67, 38.27 77 M0.88 120.02 C8.19 109.76, 17.44 100.26, 38.27 77 M3.24 123.39 C15.34 111, 22.89 98.01, 38.67 82.64 M3.24 123.39 C14.44 110.76, 27.87 97.01, 38.67 82.64 M6.92 125.26 C17.76 112.47, 24.73 104.37, 38.41 89.04 M6.92 125.26 C13.71 117.17, 22.19 107.05, 38.41 89.04 M12.56 124.87 C19.33 117.86, 26.24 108.2, 38.8 94.68 M12.56 124.87 C22.16 113.42, 32.38 101.95, 38.8 94.68 M17.55 125.23 C23.98 117.69, 27.76 113.19, 38.54 101.08 M17.55 125.23 C24.52 118.95, 29.65 111.4, 38.54 101.08 M23.19 124.83 C28.55 120.1, 35.36 112.29, 38.94 106.72 M23.19 124.83 C27.4 120.07, 33.64 114.38, 38.94 106.72 M28.18 125.19 C32.77 119.42, 36.98 117.2, 38.67 113.12 M28.18 125.19 C30.05 123.24, 32.59 120.16, 38.67 113.12 M33.16 125.55 C35.33 124.32, 36.74 122.89, 38.41 119.52 M33.16 125.55 C34.82 124.05, 35.71 122.49, 38.41 119.52" fill="none" stroke="#ffffff" stroke-width="0.5"></path><path d="M9.64 0 C16.45 -0.77, 25.58 -0.27, 28.93 0 M9.64 0 C14.6 -0.65, 19.09 -0.26, 28.93 0 M28.93 0 C34.06 1.41, 37.58 2.79, 38.57 9.64 M28.93 0 C36.2 -1.09, 39.45 2.93, 38.57 9.64 M38.57 9.64 C40.31 36.57, 38.45 66.91, 38.57 115.91 M38.57 9.64 C38.57 46.99, 38.95 84.15, 38.57 115.91 M38.57 115.91 C39.93 124.21, 34.69 124.59, 28.93 125.55 M38.57 115.91 C36.49 123.46, 35.29 126.12, 28.93 125.55 M28.93 125.55 C21.74 127.04, 13.3 124.2, 9.64 125.55 M28.93 125.55 C25.9 126.51, 21.12 125.18, 9.64 125.55 M9.64 125.55 C1.75 124.19, -1.84 123.45, 0 115.91 M9.64 125.55 C1.49 127.24, -1.48 123.91, 0 115.91 M0 115.91 C-0.98 77.68, -2.19 37.45, 0 9.64 M0 115.91 C-0.78 74.86, 0.63 34.08, 0 9.64 M0 9.64 C-1.3 1.85, 3.31 -1.37, 9.64 0 M0 9.64 C-1.82 2.32, 5.46 -1.2, 9.64 0" fill="none" stroke="#1e1e1e" stroke-width="1"></path></g><g transform="translate(1097.5136723101004 385.56472680671754) rotate(0 10 12.5)"><text direction="ltr" dominant-baseline="text-before-edge" fill="#1e1e1e" font-family="Virgil, Segoe UI Emoji" font-size="20px" style="white-space: pre;" text-anchor="middle" x="10" y="0">v5</text></g><g transform="translate(1673.325477944411 90.33603861711129) rotate(0 84.5299301147461 75)"><text direction="ltr" dominant-baseline="text-before-edge" fill="#1e1e1e" font-family="Virgil, Segoe UI Emoji" font-size="20px" style="white-space: pre;" text-anchor="start" x="0" y="0">Comment</text><text direction="ltr" dominant-baseline="text-before-edge" fill="#1e1e1e" font-family="Virgil, Segoe UI Emoji" font-size="20px" style="white-space: pre;" text-anchor="start" x="0" y="25">- commentId (PK)</text><text direction="ltr" dominant-baseline="text-before-edge" fill="#1e1e1e" font-family="Virgil, Segoe UI Emoji" font-size="20px" style="white-space: pre;" text-anchor="start" x="0" y="50">- videoId (shard)</text><text direction="ltr" dominant-baseline="text-before-edge" fill="#1e1e1e" font-family="Virgil, Segoe UI Emoji" font-size="20px" style="white-space: pre;" text-anchor="start" x="0" y="75">- content</text><text direction="ltr" dominant-baseline="text-before-edge" fill="#1e1e1e" font-family="Virgil, Segoe UI Emoji" font-size="20px" style="white-space: pre;" text-anchor="start" x="0" y="100">- author</text><text direction="ltr" dominant-baseline="text-before-edge" fill="#1e1e1e" font-family="Virgil, Segoe UI Emoji" font-size="20px" style="white-space: pre;" text-anchor="start" x="0" y="125">- createdAt (SK)</text></g></svg>