<svg height="837.9561143875326" version="1.1" viewbox="0 0 1853.7756918915254 837.9561143875326" width="1853.7756918915254" xmlns="http://www.w3.org/2000/svg">
<!-- svg-source:excalidraw -->
<!-- payload-type:application/vnd.excalidraw+json --><!-- payload-version:2 -->
<defs>
<style class="style-fonts">
</style>
</defs>
<rect fill="#ffffff" height="837.9561143875326" width="1853.7756918915254" x="0" y="0"></rect><g stroke-linecap="round" transform="translate(10 251.446901748639) rotate(0 128.0182913190058 84.77455315625434)"><path d="M32 0 C70.04 -2.75, 110.58 0.64, 224.04 0 M32 0 C104.27 -1.23, 176.15 -1.66, 224.04 0 M224.04 0 C243.54 0.59, 256.39 9.9, 256.04 32 M224.04 0 C245.41 1.76, 256.95 9.05, 256.04 32 M256.04 32 C256.44 64.45, 256.26 92.55, 256.04 137.55 M256.04 32 C256.32 53.56, 256.76 74.26, 256.04 137.55 M256.04 137.55 C254.94 159.24, 243.72 169.91, 224.04 169.55 M256.04 137.55 C256.02 157.62, 246.84 168.64, 224.04 169.55 M224.04 169.55 C154.07 172.11, 84.94 170.97, 32 169.55 M224.04 169.55 C165.88 167.89, 107.94 169.32, 32 169.55 M32 169.55 C11.65 171.28, 0.42 160.45, 0 137.55 M32 169.55 C9.95 169.76, 1.35 159.95, 0 137.55 M0 137.55 C0.42 113.67, -0.47 87.49, 0 32 M0 137.55 C-0.15 95.67, 1.46 55.49, 0 32 M0 32 C0.81 10.05, 12.53 0.63, 32 0 M0 32 C0.41 8.68, 12.41 -0.23, 32 0" fill="none" stroke="#1e1e1e" stroke-width="1"></path></g><g transform="translate(63.86301788150581 323.72145490489333) rotate(0 74.1552734375 12.5)"><text direction="ltr" dominant-baseline="text-before-edge" fill="#1e1e1e" font-family="Virgil, Segoe UI Emoji" font-size="20px" style="white-space: pre;" text-anchor="middle" x="74.1552734375" y="0">Commenter Client</text></g><g mask="url(#mask-M-332mNwVK0Dd5SGZHjZP)" stroke-linecap="round"><g transform="translate(289.9586521006024 289.4782835421702) rotate(0 123.1463414244705 1.931271818146115)"><path d="M1.15 0.91 C42.48 1.71, 206.21 4.08, 247.08 4.55 M0.29 0.34 C41.61 0.82, 205.65 2.02, 246.54 2.79" fill="none" stroke="#1e1e1e" stroke-width="1"></path></g><g transform="translate(289.9586521006024 289.4782835421702) rotate(0 123.1463414244705 1.931271818146115)"><path d="M29.49 -8.92 C24.57 -5.11, 17.78 -4.03, 1.15 0.91 M29.49 -8.92 C20.44 -5.96, 13.41 -3.83, 1.15 0.91" fill="none" stroke="#1e1e1e" stroke-width="1"></path></g><g transform="translate(289.9586521006024 289.4782835421702) rotate(0 123.1463414244705 1.931271818146115)"><path d="M29.18 11.6 C24.37 10.76, 17.65 7.19, 1.15 0.91 M29.18 11.6 C20.26 8.68, 13.32 4.94, 1.15 0.91" fill="none" stroke="#1e1e1e" stroke-width="1"></path></g><g transform="translate(289.9586521006024 289.4782835421702) rotate(0 123.1463414244705 1.931271818146115)"><path d="M218.23 12.7 C226.18 11.5, 232.22 8.11, 246.54 2.79 M218.23 12.7 C225.45 10.32, 234.64 6.8, 246.54 2.79" fill="none" stroke="#1e1e1e" stroke-width="1"></path></g><g transform="translate(289.9586521006024 289.4782835421702) rotate(0 123.1463414244705 1.931271818146115)"><path d="M218.48 -7.82 C226.33 -4.37, 232.32 -3.12, 246.54 2.79 M218.48 -7.82 C225.58 -4.33, 234.71 -1.97, 246.54 2.79" fill="none" stroke="#1e1e1e" stroke-width="1"></path></g></g><mask id="mask-M-332mNwVK0Dd5SGZHjZP"><rect fill="#fff" height="393.3408271784624" width="636.2513349495434" x="0" y="0"></rect><rect fill="#000" height="25" opacity="1" width="61.123046875" x="382.5434700875729" y="278.9095553603163"></rect></mask><g transform="translate(382.5434700875729 278.9095553603163) rotate(0 31.10192937355953 13.014939530151892)"><text direction="ltr" dominant-baseline="text-before-edge" fill="#1e1e1e" font-family="Virgil, Segoe UI Emoji" font-size="20px" style="white-space: pre;" text-anchor="middle" x="30.5615234375" y="0">HTTPS</text></g><g stroke-linecap="round" transform="translate(563.0339881173552 10.486329565606866) rotate(0 52.987237405710914 314.61157847145796)"><path d="M26.49 0 C45.59 -0.49, 64.12 -1.87, 79.48 0 M26.49 0 C43.98 0.97, 61.83 -0.5, 79.48 0 M79.48 0 C96.98 1.93, 105.95 8.22, 105.97 26.49 M79.48 0 C99.06 -0.91, 104.82 6.53, 105.97 26.49 M105.97 26.49 C107.2 189.74, 106.86 351.08, 105.97 602.73 M105.97 26.49 C104.07 209.34, 104.33 392.48, 105.97 602.73 M105.97 602.73 C107.26 621.29, 97.85 629.18, 79.48 629.22 M105.97 602.73 C108.14 621.26, 98 629.26, 79.48 629.22 M79.48 629.22 C65.39 628.44, 55.35 630.07, 26.49 629.22 M79.48 629.22 C58.69 629.73, 39.1 630.1, 26.49 629.22 M26.49 629.22 C7.58 628.79, -1.31 620.58, 0 602.73 M26.49 629.22 C10.2 628.41, 0.08 622.4, 0 602.73 M0 602.73 C-1.7 465.33, -1.13 326.93, 0 26.49 M0 602.73 C-2.07 447.37, -1.84 292.66, 0 26.49 M0 26.49 C0.14 9.91, 9.53 -1.65, 26.49 0 M0 26.49 C1.45 9.09, 10.58 -0.36, 26.49 0" fill="none" stroke="#1e1e1e" stroke-width="1"></path></g><g transform="translate(580.488998960566 300.0979080370648) rotate(0 35.5322265625 25)"><text direction="ltr" dominant-baseline="text-before-edge" fill="#1e1e1e" font-family="Virgil, Segoe UI Emoji" font-size="20px" style="white-space: pre;" text-anchor="middle" x="35.5322265625" y="0">Load </text><text direction="ltr" dominant-baseline="text-before-edge" fill="#1e1e1e" font-family="Virgil, Segoe UI Emoji" font-size="20px" style="white-space: pre;" text-anchor="middle" x="35.5322265625" y="25">Balancer</text></g><g stroke-linecap="round" transform="translate(829.0716441099037 73.28495701370684) rotate(0 170.30904558041385 102.57951969389615)"><path d="M32 0 C109.28 2.22, 185.04 1.97, 308.62 0 M32 0 C136.03 2.24, 240.18 1.26, 308.62 0 M308.62 0 C331.62 -0.79, 339.61 8.67, 340.62 32 M308.62 0 C329.54 0.88, 341.7 11.65, 340.62 32 M340.62 32 C340.98 85.65, 340.99 142.6, 340.62 173.16 M340.62 32 C342.16 67.02, 341.87 101.13, 340.62 173.16 M340.62 173.16 C342.5 195.25, 330.69 205.19, 308.62 205.16 M340.62 173.16 C339.32 193.21, 329.34 203.8, 308.62 205.16 M308.62 205.16 C235.88 206.54, 161.67 205.73, 32 205.16 M308.62 205.16 C222.67 205.99, 137.19 206.23, 32 205.16 M32 205.16 C11.86 204.46, 0.07 196.24, 0 173.16 M32 205.16 C9.28 206.06, -1.82 192.2, 0 173.16 M0 173.16 C-0.21 121.02, 1.03 65.52, 0 32 M0 173.16 C-1 143.57, -0.72 112.07, 0 32 M0 32 C1.26 10.89, 12.19 -0.31, 32 0 M0 32 C-1.37 8.48, 10.75 1.39, 32 0" fill="none" stroke="#1e1e1e" stroke-width="1"></path></g><g transform="translate(872.7498303153175 163.364476707603) rotate(0 126.630859375 12.5)"><text direction="ltr" dominant-baseline="text-before-edge" fill="#1e1e1e" font-family="Virgil, Segoe UI Emoji" font-size="20px" style="white-space: pre;" text-anchor="middle" x="126.630859375" y="0">Comment Management Service</text></g><g stroke-linecap="round"><g transform="translate(685.65572717853 192.03302553662797) rotate(0 60.622670454105105 0.2366320119174361)"><path d="M0.02 0.92 C20.27 0.93, 101.53 -0.49, 121.72 -0.37 M-1.43 0.35 C18.69 0.54, 100.73 0.8, 121.02 0.73" fill="none" stroke="#1e1e1e" stroke-width="1"></path></g><g transform="translate(685.65572717853 192.03302553662797) rotate(0 60.622670454105105 0.2366320119174361)"><path d="M28.09 -9.67 C20.66 -5.52, 8.82 -3.11, 0.02 0.92 M28.09 -9.67 C17.8 -5.96, 5.33 -2.36, 0.02 0.92" fill="none" stroke="#1e1e1e" stroke-width="1"></path></g><g transform="translate(685.65572717853 192.03302553662797) rotate(0 60.622670454105105 0.2366320119174361)"><path d="M28.33 10.85 C20.9 8.49, 8.99 4.38, 0.02 0.92 M28.33 10.85 C17.94 6.43, 5.38 1.89, 0.02 0.92" fill="none" stroke="#1e1e1e" stroke-width="1"></path></g><g transform="translate(685.65572717853 192.03302553662797) rotate(0 60.622670454105105 0.2366320119174361)"><path d="M92.83 10.98 C103.34 8.51, 109.36 4.3, 121.02 0.73 M92.83 10.98 C104.84 6.6, 114.68 1.94, 121.02 0.73" fill="none" stroke="#1e1e1e" stroke-width="1"></path></g><g transform="translate(685.65572717853 192.03302553662797) rotate(0 60.622670454105105 0.2366320119174361)"><path d="M92.84 -9.55 C103.27 -5.5, 109.29 -3.2, 121.02 0.73 M92.84 -9.55 C104.84 -5.78, 114.68 -2.31, 121.02 0.73" fill="none" stroke="#1e1e1e" stroke-width="1"></path></g></g><mask></mask><g stroke-linecap="round" transform="translate(1371.6416783284237 49.68229322763091) rotate(0 133.62108660928106 133.6788415220053)"><path d="M127.7 0.95 C141.11 -1.81, 157.51 1.08, 171.26 5.03 C185.01 8.98, 198.28 16.09, 210.19 24.65 C222.1 33.21, 234.05 44.44, 242.7 56.39 C251.35 68.35, 258.02 82.67, 262.09 96.36 C266.16 110.06, 267.77 124.4, 267.14 138.56 C266.51 152.73, 263.53 167.79, 258.31 181.36 C253.09 194.93, 245.29 208.71, 235.83 220 C226.37 231.29, 214.07 241.58, 201.55 249.11 C189.04 256.63, 174.72 262.2, 160.74 265.13 C146.75 268.07, 131.93 268.43, 117.64 266.7 C103.35 264.97, 88.01 261.1, 75 254.76 C61.99 248.41, 49.81 239.12, 39.58 228.64 C29.35 218.17, 20.15 205.01, 13.63 191.91 C7.12 178.81, 2.38 164.36, 0.48 150.04 C-1.42 135.73, -0.96 120.05, 2.23 106.02 C5.42 91.98, 11.99 78.17, 19.63 65.82 C27.27 53.48, 37.04 41.44, 48.06 31.94 C59.07 22.45, 71.64 14.09, 85.74 8.87 C99.85 3.64, 124.03 1.72, 132.67 0.59 C141.3 -0.54, 137.58 0.07, 137.55 2.09 M140.05 1.46 C153.57 0.2, 168.85 5.16, 182.08 10.04 C195.31 14.92, 208.11 21.48, 219.44 30.73 C230.77 39.98, 242.46 52.9, 250.08 65.55 C257.7 78.2, 262.28 92.28, 265.18 106.61 C268.08 120.94, 269.44 137.32, 267.5 151.53 C265.57 165.73, 260.04 179, 253.56 191.85 C247.08 204.71, 238.95 218.14, 228.64 228.65 C218.32 239.17, 204.78 248.87, 191.65 254.96 C178.52 261.05, 164.05 263.61, 149.83 265.2 C135.61 266.79, 120.35 267.4, 106.32 264.5 C92.28 261.61, 78.32 255.59, 65.64 247.84 C52.95 240.09, 39.68 228.91, 30.22 218 C20.76 207.09, 13.67 195.77, 8.89 182.39 C4.1 169, 2.2 152.51, 1.49 137.69 C0.78 122.87, 0.45 106.99, 4.63 93.47 C8.8 79.95, 17.78 68.03, 26.54 56.58 C35.31 45.12, 45.71 33.49, 57.21 24.73 C68.7 15.96, 81.61 8.2, 95.53 3.98 C109.45 -0.25, 133.21 -0.31, 140.74 -0.62 C148.27 -0.92, 141.04 -0.12, 140.73 2.14" fill="none" stroke="#1e1e1e" stroke-width="1"></path></g><g transform="translate(1443.0518259867672 158.33591940826443) rotate(0 62.2265625 24.999999999999996)"><text direction="ltr" dominant-baseline="text-before-edge" fill="#1e1e1e" font-family="Virgil, Segoe UI Emoji" font-size="20px" style="white-space: pre;" text-anchor="middle" x="62.2265625" y="0">Comments DB </text><text direction="ltr" dominant-baseline="text-before-edge" fill="#1e1e1e" font-family="Virgil, Segoe UI Emoji" font-size="20px" style="white-space: pre;" text-anchor="middle" x="62.2265625" y="25">(DynamoDB)</text></g><g stroke-linecap="round"><g transform="translate(1191.765701322627 183.787609207041) rotate(0 80.12992170582652 -0.03953793054711241)"><path d="M-0.02 -0.37 C26.88 -0.65, 134.65 -0.4, 161.26 -0.56 M-1.48 -1.61 C25.35 -1.22, 134.16 0.56, 160.84 0.73" fill="none" stroke="#1e1e1e" stroke-width="1"></path></g><g transform="translate(1191.765701322627 183.787609207041) rotate(0 80.12992170582652 -0.03953793054711241)"><path d="M28.16 -10.66 C19.43 -5.99, 11.04 -5.67, -0.02 -0.37 M28.16 -10.66 C22.97 -8.06, 17.78 -6.43, -0.02 -0.37" fill="none" stroke="#1e1e1e" stroke-width="1"></path></g><g transform="translate(1191.765701322627 183.787609207041) rotate(0 80.12992170582652 -0.03953793054711241)"><path d="M28.19 9.86 C19.25 8.54, 10.85 2.88, -0.02 -0.37 M28.19 9.86 C23.03 8.35, 17.83 5.88, -0.02 -0.37" fill="none" stroke="#1e1e1e" stroke-width="1"></path></g><g transform="translate(1191.765701322627 183.787609207041) rotate(0 80.12992170582652 -0.03953793054711241)"><path d="M132.53 10.65 C140.07 9.43, 148.15 3.86, 160.84 0.73 M132.53 10.65 C138.68 8.98, 144.8 6.58, 160.84 0.73" fill="none" stroke="#1e1e1e" stroke-width="1"></path></g><g transform="translate(1191.765701322627 183.787609207041) rotate(0 80.12992170582652 -0.03953793054711241)"><path d="M132.78 -9.87 C140.45 -5.11, 148.45 -4.69, 160.84 0.73 M132.78 -9.87 C138.84 -7.43, 144.91 -5.73, 160.84 0.73" fill="none" stroke="#1e1e1e" stroke-width="1"></path></g></g><mask></mask><g transform="translate(346.4042316370312 246.18504761431905) rotate(0 66.38994598388672 12.5)"><text direction="ltr" dominant-baseline="text-before-edge" fill="#1e1e1e" font-family="Virgil, Segoe UI Emoji" font-size="20px" style="white-space: pre;" text-anchor="start" x="0" y="0">- for /create</text></g><g transform="translate(786.302229101251 10) rotate(0 231.78981018066406 25)"><text direction="ltr" dominant-baseline="text-before-edge" fill="#1e1e1e" font-family="Virgil, Segoe UI Emoji" font-size="20px" style="white-space: pre;" text-anchor="start" x="0" y="0">- When a new comment is posted, persist in DB</text><text direction="ltr" dominant-baseline="text-before-edge" fill="#1e1e1e" font-family="Virgil, Segoe UI Emoji" font-size="20px" style="white-space: pre;" text-anchor="start" x="0" y="25">and broadcast via pub/sub</text></g><g stroke-linecap="round" transform="translate(817.0863844340765 509.02210954911425) rotate(0 170.30904558041385 102.57951969389615)"><path d="M32 0 C110.68 0.42, 188.04 -1.85, 308.62 0 M32 0 C119.88 -0.81, 208.26 -0.69, 308.62 0 M308.62 0 C331.23 0.9, 341.33 10.63, 340.62 32 M308.62 0 C332.11 0.87, 341.47 10.7, 340.62 32 M340.62 32 C338.65 65.74, 341.52 101.76, 340.62 173.16 M340.62 32 C340.61 86.66, 341.5 141.61, 340.62 173.16 M340.62 173.16 C339.37 194.06, 328.64 205.35, 308.62 205.16 M340.62 173.16 C341.99 193.68, 330.04 207.17, 308.62 205.16 M308.62 205.16 C240.8 204.74, 175.62 204.1, 32 205.16 M308.62 205.16 C234.34 205.16, 160.37 205.75, 32 205.16 M32 205.16 C10.81 206.24, 0.7 192.84, 0 173.16 M32 205.16 C12.12 205.42, 1.75 194.13, 0 173.16 M0 173.16 C2.55 141.09, 0.46 103.7, 0 32 M0 173.16 C-0.75 142.84, -1.62 111.18, 0 32 M0 32 C1 9.64, 11.82 -0.9, 32 0 M0 32 C-0.71 9.88, 12.11 0.86, 32 0" fill="none" stroke="#1e1e1e" stroke-width="1"></path></g><g stroke-linecap="round" transform="translate(835.9349895555401 523.4753466695638) rotate(0 170.30904558041385 102.57951969389615)"><path d="M32 0 C127.98 -2.81, 224.2 -3.24, 308.62 0 M32 0 C120.47 0.87, 208.44 1.52, 308.62 0 M308.62 0 C330.66 -0.04, 342.5 11.43, 340.62 32 M308.62 0 C330.8 0.03, 339.32 9.39, 340.62 32 M340.62 32 C341.47 71.58, 341.51 109.62, 340.62 173.16 M340.62 32 C340.77 85.87, 339.55 138.59, 340.62 173.16 M340.62 173.16 C339.31 194.68, 331.14 204.46, 308.62 205.16 M340.62 173.16 C340.7 196.5, 328.56 206.06, 308.62 205.16 M308.62 205.16 C247.07 207.55, 185.94 208.36, 32 205.16 M308.62 205.16 C217.57 203.23, 125.4 203.73, 32 205.16 M32 205.16 C11.37 203.51, 1.26 194.72, 0 173.16 M32 205.16 C12.42 204.8, -1.37 192.31, 0 173.16 M0 173.16 C-1.73 128.75, -2.53 89.04, 0 32 M0 173.16 C-1.02 117.99, 0 64.1, 0 32 M0 32 C1.16 9.76, 10.05 -0.68, 32 0 M0 32 C1.44 11.53, 12.92 1.01, 32 0" fill="none" stroke="#1e1e1e" stroke-width="1"></path></g><g stroke-linecap="round" transform="translate(858.1692159750826 542.5285409922753) rotate(0 170.30904558041385 102.57951969389615)"><path d="M32 0 C140.65 -0.11, 249.02 1.16, 308.62 0 M32 0 C100.25 1.19, 167.78 0.83, 308.62 0 M308.62 0 C331.83 0.76, 341.36 10.7, 340.62 32 M308.62 0 C328.65 -1.28, 340.01 9.31, 340.62 32 M340.62 32 C343.54 70.23, 343.37 106.98, 340.62 173.16 M340.62 32 C340.82 75.39, 340.79 119.32, 340.62 173.16 M340.62 173.16 C341.81 193.79, 330.03 206.91, 308.62 205.16 M340.62 173.16 C339.23 195.39, 328.13 202.87, 308.62 205.16 M308.62 205.16 C202.33 207.47, 97.47 206.31, 32 205.16 M308.62 205.16 C249.63 205.36, 190.79 204.31, 32 205.16 M32 205.16 C11.93 205.38, 1.52 194.18, 0 173.16 M32 205.16 C9.3 202.98, 0.08 195.88, 0 173.16 M0 173.16 C-1.05 119.11, 2.31 62.65, 0 32 M0 173.16 C1.23 127.15, 1.31 81.7, 0 32 M0 32 C-0.62 9.98, 11.92 0.75, 32 0 M0 32 C2.26 11.68, 8.75 1.81, 32 0" fill="none" stroke="#1e1e1e" stroke-width="1"></path></g><g transform="translate(946.5495506179964 620.1080606861715) rotate(0 81.9287109375 25)"><text direction="ltr" dominant-baseline="text-before-edge" fill="#1e1e1e" font-family="Virgil, Segoe UI Emoji" font-size="20px" style="white-space: pre;" text-anchor="middle" x="81.9287109375" y="0">Realtime Messaging</text><text direction="ltr" dominant-baseline="text-before-edge" fill="#1e1e1e" font-family="Virgil, Segoe UI Emoji" font-size="20px" style="white-space: pre;" text-anchor="middle" x="81.9287109375" y="25"> Service</text></g><g mask="url(#mask-CSQzXUQ2mHlHsWH1TUVS2)" stroke-linecap="round"><g transform="translate(283.73397110146374 366.8830023769606) rotate(0 259.46530474452163 125.83687886223038)"><path d="M0 0 C112.6 55.25, 225.57 109.99, 518.93 251.67 M0 0 C179.72 87, 358.47 173.66, 518.93 251.67" fill="none" stroke="#1e1e1e" stroke-width="1"></path></g><g transform="translate(283.73397110146374 366.8830023769606) rotate(0 259.46530474452163 125.83687886223038)"><path d="M29.84 3.1 C22.24 3.7, 16.06 3.03, 0 0 M29.84 3.1 C20.48 2.4, 9.62 0.97, 0 0" fill="none" stroke="#1e1e1e" stroke-width="1"></path></g><g transform="translate(283.73397110146374 366.8830023769606) rotate(0 259.46530474452163 125.83687886223038)"><path d="M20.87 21.56 C15.19 18.14, 10.96 13.46, 0 0 M20.87 21.56 C14.53 14.5, 6.77 6.7, 0 0" fill="none" stroke="#1e1e1e" stroke-width="1"></path></g></g><mask id="mask-CSQzXUQ2mHlHsWH1TUVS2"><rect fill="#fff" height="718.5567601014213" width="902.6645805905071" x="0" y="0"></rect><rect fill="#000" height="25" opacity="1" width="34.462890625" x="525.9678305334853" y="480.21988123919095"></rect></mask><g transform="translate(525.9678305334853 480.21988123919095) rotate(0 17.2314453125 12.5)"><text direction="ltr" dominant-baseline="text-before-edge" fill="#1e1e1e" font-family="Virgil, Segoe UI Emoji" font-size="20px" style="white-space: pre;" text-anchor="middle" x="17.2314453125" y="0">SSE</text></g><g stroke-linecap="round" transform="translate(976.3476131470784 336.59414485526395) rotate(0 19.284182130573413 62.775886524987754)"><path d="M2.57 2.23 C2.57 2.23, 2.57 2.23, 2.57 2.23 M2.57 2.23 C2.57 2.23, 2.57 2.23, 2.57 2.23 M0.99 10.14 C4.45 6.14, 6.5 3.07, 9.52 0.33 M0.99 10.14 C5.03 6.56, 7.42 2.63, 9.52 0.33 M0.73 16.54 C4.4 11.2, 6.54 6.55, 15.16 -0.07 M0.73 16.54 C5.54 12.27, 8.58 5.4, 15.16 -0.07 M1.13 22.18 C4.92 17.69, 12.12 8.4, 20.15 0.29 M1.13 22.18 C7.8 13.89, 15.96 5.63, 20.15 0.29 M0.86 28.58 C7.45 18.04, 17.44 9.98, 25.14 0.65 M0.86 28.58 C5.71 22.66, 11.88 15.35, 25.14 0.65 M1.26 34.22 C11.1 25.28, 20.53 11.77, 30.78 0.26 M1.26 34.22 C7.92 26.8, 14.13 19.64, 30.78 0.26 M1 40.62 C11.54 29.28, 21.73 16.46, 34.46 2.13 M1 40.62 C9.08 33.41, 15.55 25.03, 34.46 2.13 M0.74 47.02 C16.73 31.08, 29.9 14.3, 37.48 4.75 M0.74 47.02 C8.91 36.63, 19.82 26.15, 37.48 4.75 M1.13 52.66 C11.07 39.11, 22.29 28.1, 40.49 7.38 M1.13 52.66 C15.44 35.99, 29.34 19.13, 40.49 7.38 M0.87 59.06 C14.12 44.69, 26.46 29.02, 40.23 13.77 M0.87 59.06 C7.64 50.05, 17.46 41.28, 40.23 13.77 M1.26 64.7 C10.53 55.86, 18.41 45.83, 40.63 19.42 M1.26 64.7 C13.95 50.52, 25.17 37.39, 40.63 19.42 M1 71.1 C13.01 55.28, 29.4 38.08, 40.37 25.81 M1 71.1 C12.75 56.2, 26.56 41.75, 40.37 25.81 M1.4 76.74 C9.31 64.93, 19.13 57.02, 40.76 31.46 M1.4 76.74 C15.7 60.73, 29.96 45.67, 40.76 31.46 M1.14 83.14 C10.84 71.93, 23.02 56.95, 40.5 37.86 M1.14 83.14 C15.67 65.46, 30.2 47.6, 40.5 37.86 M1.53 88.78 C11.41 80.11, 16.18 68.21, 40.89 43.5 M1.53 88.78 C13.17 76.55, 25.13 62.13, 40.89 43.5 M1.27 95.18 C15.44 79.79, 28.66 63.65, 40.63 49.9 M1.27 95.18 C9.67 83.8, 18.56 74.76, 40.63 49.9 M1.01 101.58 C15.7 85.63, 32 66.79, 40.37 56.29 M1.01 101.58 C9.64 89.73, 18.7 79.11, 40.37 56.29 M1.4 107.22 C13.02 93.09, 26.38 79.99, 40.77 61.94 M1.4 107.22 C9.16 95.96, 18.64 87.26, 40.77 61.94 M1.14 113.62 C9.94 99.1, 22.33 89.23, 40.5 68.34 M1.14 113.62 C15.54 96.14, 31.79 78.59, 40.5 68.34 M0.88 120.02 C11.07 109.81, 21.47 97.68, 40.9 73.98 M0.88 120.02 C9.81 110.52, 19.15 99.45, 40.9 73.98 M3.24 123.39 C13.02 110.85, 24.91 100.61, 40.64 80.38 M3.24 123.39 C12.87 110.72, 24.97 99.92, 40.64 80.38 M6.26 126.02 C18.96 109.84, 30.7 96.57, 41.03 86.02 M6.26 126.02 C20.64 110.77, 33.56 93.57, 41.03 86.02 M11.9 125.62 C21.88 113.89, 30.57 104.87, 40.77 92.42 M11.9 125.62 C19.96 116.25, 29.68 106.59, 40.77 92.42 M16.89 125.98 C22.54 119.26, 31.16 109.25, 41.17 98.06 M16.89 125.98 C26.3 115.99, 35.63 103.81, 41.17 98.06 M22.53 125.59 C28.94 119.1, 31.19 113.94, 40.9 104.46 M22.53 125.59 C29.57 117.56, 35.85 110.75, 40.9 104.46 M27.52 125.95 C34.27 119.92, 38.39 112.71, 40.64 110.86 M27.52 125.95 C32.21 120.17, 38 115.64, 40.64 110.86 M33.16 125.55 C36.45 122.04, 39.12 119.65, 40.38 117.25 M33.16 125.55 C35.14 122.98, 37.02 120.91, 40.38 117.25" fill="none" stroke="#ffffff" stroke-width="0.5"></path><path d="M9.64 0 C17.52 0.56, 23.64 1.69, 28.93 0 M9.64 0 C15.61 -0.54, 22.42 -0.57, 28.93 0 M28.93 0 C34.71 1.69, 39.55 4.95, 38.57 9.64 M28.93 0 C35.84 1.8, 37.85 3.42, 38.57 9.64 M38.57 9.64 C38.63 46.43, 39.25 87.04, 38.57 115.91 M38.57 9.64 C38 38.18, 37.82 64.94, 38.57 115.91 M38.57 115.91 C40.22 121.76, 36.17 124.93, 28.93 125.55 M38.57 115.91 C40.71 123.06, 35.77 123.56, 28.93 125.55 M28.93 125.55 C22.73 126.24, 12.85 126.78, 9.64 125.55 M28.93 125.55 C22.35 124.61, 16.96 126.1, 9.64 125.55 M9.64 125.55 C5.09 124.67, -1.56 120.66, 0 115.91 M9.64 125.55 C5.01 127.49, 0.82 122.85, 0 115.91 M0 115.91 C-0.08 90.72, 0.05 62.6, 0 9.64 M0 115.91 C0.32 88.1, -1.5 60.21, 0 9.64 M0 9.64 C0.83 4.28, 4.72 1.97, 9.64 0 M0 9.64 C-2.21 2.39, 5.35 0.42, 9.64 0" fill="none" stroke="#1e1e1e" stroke-width="1"></path></g><g stroke-linecap="round"><g transform="translate(996.6877395421593 293.1552376740756) rotate(0 0 15.383788003548034)"><path d="M0.19 -0.01 C0.22 5.11, 0.52 25.85, 0.52 30.98 M-0.37 -0.49 C-0.4 4.44, 0.3 24.81, 0.35 30.12" fill="none" stroke="#1e1e1e" stroke-width="1"></path></g><g transform="translate(996.6877395421593 293.1552376740756) rotate(0 0 15.383788003548034)"><path d="M-5.24 15.79 C-3.19 21.72, -0.85 26.5, 0.35 30.12 M-5.24 15.79 C-3.7 19.9, -2.03 24.77, 0.35 30.12" fill="none" stroke="#1e1e1e" stroke-width="1"></path></g><g transform="translate(996.6877395421593 293.1552376740756) rotate(0 0 15.383788003548034)"><path d="M5.28 15.54 C3.5 21.58, 2.01 26.45, 0.35 30.12 M5.28 15.54 C3.65 19.7, 2.14 24.64, 0.35 30.12" fill="none" stroke="#1e1e1e" stroke-width="1"></path></g></g><mask></mask><g stroke-linecap="round"><g transform="translate(996.2389632297436 468.0196078765648) rotate(0 0 14.436737991317386)"><path d="M0.52 0.21 C0.52 5.02, 0.34 24.16, 0.2 28.88 M0.12 -0.16 C0.05 4.75, 0.03 24.72, -0.12 29.58" fill="none" stroke="#1e1e1e" stroke-width="1"></path></g><g transform="translate(996.2389632297436 468.0196078765648) rotate(0 0 14.436737991317386)"><path d="M-4.87 15.95 C-3 20.77, -1.68 24.67, -0.12 29.58 M-4.87 15.95 C-3.84 19.6, -2.39 22.94, -0.12 29.58" fill="none" stroke="#1e1e1e" stroke-width="1"></path></g><g transform="translate(996.2389632297436 468.0196078765648) rotate(0 0 14.436737991317386)"><path d="M5.01 16.09 C3.56 20.91, 1.57 24.76, -0.12 29.58 M5.01 16.09 C3.62 19.68, 2.66 22.98, -0.12 29.58" fill="none" stroke="#1e1e1e" stroke-width="1"></path></g></g><mask></mask><g transform="translate(1033.1904128358626 355.30415729201195) rotate(0 129.82989501953125 25)"><text direction="ltr" dominant-baseline="text-before-edge" fill="#1e1e1e" font-family="Virgil, Segoe UI Emoji" font-size="20px" style="white-space: pre;" text-anchor="start" x="0" y="0">Redis Pub/Sub</text><text direction="ltr" dominant-baseline="text-before-edge" fill="#1e1e1e" font-family="Virgil, Segoe UI Emoji" font-size="20px" style="white-space: pre;" text-anchor="start" x="0" y="25">- broadcast new comments</text></g><g transform="translate(819.0374467461397 777.9561143875326) rotate(0 193.97984313964844 25)"><text direction="ltr" dominant-baseline="text-before-edge" fill="#1e1e1e" font-family="Virgil, Segoe UI Emoji" font-size="20px" style="white-space: pre;" text-anchor="start" x="0" y="0">- needs to process EVERY new comment</text><text direction="ltr" dominant-baseline="text-before-edge" fill="#1e1e1e" font-family="Virgil, Segoe UI Emoji" font-size="20px" style="white-space: pre;" text-anchor="start" x="0" y="25">and it computationally overwhelmed </text></g><g transform="translate(1674.7158316620332 95.26372876310069) rotate(0 84.5299301147461 75)"><text direction="ltr" dominant-baseline="text-before-edge" fill="#1e1e1e" font-family="Virgil, Segoe UI Emoji" font-size="20px" style="white-space: pre;" text-anchor="start" x="0" y="0">Comment</text><text direction="ltr" dominant-baseline="text-before-edge" fill="#1e1e1e" font-family="Virgil, Segoe UI Emoji" font-size="20px" style="white-space: pre;" text-anchor="start" x="0" y="25">- commentId (PK)</text><text direction="ltr" dominant-baseline="text-before-edge" fill="#1e1e1e" font-family="Virgil, Segoe UI Emoji" font-size="20px" style="white-space: pre;" text-anchor="start" x="0" y="50">- videoId (shard)</text><text direction="ltr" dominant-baseline="text-before-edge" fill="#1e1e1e" font-family="Virgil, Segoe UI Emoji" font-size="20px" style="white-space: pre;" text-anchor="start" x="0" y="75">- content</text><text direction="ltr" dominant-baseline="text-before-edge" fill="#1e1e1e" font-family="Virgil, Segoe UI Emoji" font-size="20px" style="white-space: pre;" text-anchor="start" x="0" y="100">- author</text><text direction="ltr" dominant-baseline="text-before-edge" fill="#1e1e1e" font-family="Virgil, Segoe UI Emoji" font-size="20px" style="white-space: pre;" text-anchor="start" x="0" y="125">- createdAt (SK)</text></g></svg>