<svg height="179.41015625" version="1.1" viewbox="0 0 669.828125 179.41015625" width="669.828125" xmlns="http://www.w3.org/2000/svg">
<!-- svg-source:excalidraw -->
<!-- payload-type:application/vnd.excalidraw+json --><!-- payload-version:2 -->
<defs>
<style class="style-fonts">
</style>
</defs>
<rect fill="#ffffff" height="179.41015625" width="669.828125" x="0" y="0"></rect><g stroke-linecap="round" transform="translate(10 10) rotate(0 79.794921875 79.705078125)"><path d="M108.05 5.32 C118.1 7.66, 128.92 14.24, 136.43 21.75 C143.94 29.26, 149.35 40.2, 153.1 50.38 C156.85 60.57, 159.09 71.97, 158.94 82.85 C158.79 93.74, 156.87 105.99, 152.19 115.67 C147.5 125.35, 139.42 134.04, 130.81 140.95 C122.2 147.85, 110.93 154.02, 100.55 157.1 C90.17 160.18, 79.19 161.23, 68.54 159.41 C57.88 157.59, 45.94 151.99, 36.65 146.19 C27.35 140.39, 18.86 133.63, 12.79 124.63 C6.72 115.63, 1.84 103.01, 0.22 92.18 C-1.4 81.35, 0.06 70.02, 3.06 59.65 C6.06 49.27, 11.45 38.4, 18.21 29.96 C24.97 21.51, 34.15 13.91, 43.61 8.98 C53.07 4.04, 63.91 0.86, 74.97 0.35 C86.04 -0.16, 103.66 4.44, 110.01 5.9 C116.36 7.37, 113.41 7.93, 113.1 9.12 M91.66 1.53 C101.79 2.1, 113.35 6.98, 122.43 12.86 C131.51 18.74, 140.33 27.91, 146.15 36.81 C151.96 45.71, 155.51 55.9, 157.3 66.25 C159.09 76.6, 159.2 88.33, 156.87 98.89 C154.55 109.45, 150.28 120.79, 143.35 129.61 C136.41 138.43, 124.92 146.97, 115.26 151.82 C105.61 156.67, 95.85 158.47, 85.43 158.7 C75.01 158.94, 62.83 156.89, 52.74 153.24 C42.65 149.6, 32.85 144.13, 24.9 136.86 C16.94 129.58, 9.26 119.74, 5 109.61 C0.75 99.48, -1.05 86.86, -0.61 76.07 C-0.17 65.27, 2.86 54.35, 7.67 44.84 C12.47 35.33, 19.81 26.23, 28.2 18.99 C36.59 11.76, 47.21 4.51, 57.99 1.44 C68.77 -1.64, 87.42 0.45, 92.9 0.54 C98.38 0.64, 91.17 0.85, 90.88 2" fill="none" stroke="#1e1e1e" stroke-width="1"></path></g><g transform="translate(65.42803213793673 77.34507688780894) rotate(0 24.443359375 12.5)"><text direction="ltr" dominant-baseline="text-before-edge" fill="#1e1e1e" font-family="Virgil, Segoe UI Emoji" font-size="20px" style="white-space: pre;" text-anchor="middle" x="24.443359375" y="0">Client</text></g><g stroke-linecap="round" transform="translate(262.59765625 19.96484375) rotate(0 78.412109375 65.912109375)"><path d="M32 0 C61.4 1.08, 93.05 0.68, 124.82 0 M32 0 C67.88 -0.86, 104.65 0.23, 124.82 0 M124.82 0 C147.84 -0.93, 155.1 9.49, 156.82 32 M124.82 0 C147.87 -2.1, 154.76 11.99, 156.82 32 M156.82 32 C159.23 49.9, 158.05 68.71, 156.82 99.82 M156.82 32 C156.58 47.51, 156.07 62.41, 156.82 99.82 M156.82 99.82 C158.1 119.69, 146.11 132.68, 124.82 131.82 M156.82 99.82 C156.31 121.64, 145.77 133.37, 124.82 131.82 M124.82 131.82 C103.32 133.3, 84.43 130.03, 32 131.82 M124.82 131.82 C89.19 130.76, 52.97 131.73, 32 131.82 M32 131.82 C9.99 132.88, -0.92 121.09, 0 99.82 M32 131.82 C9.49 133.05, -1.42 122.48, 0 99.82 M0 99.82 C0.19 81.36, 0.03 65.33, 0 32 M0 99.82 C-0.37 85.53, 0.8 70.4, 0 32 M0 32 C-0.65 10.45, 12.15 1.65, 32 0 M0 32 C-1.88 10.27, 12.3 -0.51, 32 0" fill="none" stroke="#1e1e1e" stroke-width="1"></path></g><g transform="translate(293.5244140625 73.376953125) rotate(0 47.4853515625 12.5)"><text direction="ltr" dominant-baseline="text-before-edge" fill="#1e1e1e" font-family="Virgil, Segoe UI Emoji" font-size="20px" style="white-space: pre;" text-anchor="middle" x="47.4853515625" y="0">Chat Server</text></g><g stroke-linecap="round" transform="translate(483.171875 21.671875) rotate(0 88.328125 62.013671875)"><path d="M31.01 0 C68.28 1.33, 102.22 -0.12, 145.65 0 M31.01 0 C57.24 -0.82, 80.94 -0.95, 145.65 0 M145.65 0 C167.81 -1.83, 174.86 11.48, 176.66 31.01 M145.65 0 C165.58 2.3, 175.95 12.32, 176.66 31.01 M176.66 31.01 C175.27 48.07, 176.41 66.53, 176.66 93.02 M176.66 31.01 C176.97 51.72, 176.31 74.32, 176.66 93.02 M176.66 93.02 C176.21 114.11, 165.99 125.37, 145.65 124.03 M176.66 93.02 C174.79 113.07, 166.1 122.69, 145.65 124.03 M145.65 124.03 C104.12 124.21, 58.19 124.37, 31.01 124.03 M145.65 124.03 C119.17 124.85, 92.9 124.28, 31.01 124.03 M31.01 124.03 C9.31 125.09, -1.23 114.84, 0 93.02 M31.01 124.03 C9.44 121.83, 1.85 113.16, 0 93.02 M0 93.02 C-1.58 75.25, 0.13 58.79, 0 31.01 M0 93.02 C-0.5 73.99, 0.57 56, 0 31.01 M0 31.01 C-1.63 9.99, 11.76 -0.44, 31.01 0 M0 31.01 C1.82 12.46, 11.25 -2.02, 31.01 0" fill="none" stroke="#1e1e1e" stroke-width="1"></path></g><g transform="translate(534.8544921875 71.185546875) rotate(0 36.6455078125 12.5)"><text direction="ltr" dominant-baseline="text-before-edge" fill="#1e1e1e" font-family="Virgil, Segoe UI Emoji" font-size="20px" style="white-space: pre;" text-anchor="middle" x="36.6455078125" y="0">Database</text></g><g stroke-linecap="round"><g transform="translate(176.4226481908961 90.15518253783785) rotate(0 30.68516027955195 0.060688685384945984)"><path d="M-0.14 -0.94 C10.1 -0.88, 51.73 0.41, 62.15 0.49 M-1.68 1.18 C8.41 0.86, 50.98 -1.33, 61.61 -1.43" fill="none" stroke="#1e1e1e" stroke-width="1"></path></g><g transform="translate(176.4226481908961 90.15518253783785) rotate(0 30.68516027955195 0.060688685384945984)"><path d="M33.78 9.76 C42.23 7.06, 54.46 3.41, 61.61 -1.43 M33.78 9.76 C41.67 6.18, 47.08 4.83, 61.61 -1.43" fill="none" stroke="#1e1e1e" stroke-width="1"></path></g><g transform="translate(176.4226481908961 90.15518253783785) rotate(0 30.68516027955195 0.060688685384945984)"><path d="M33.1 -10.75 C41.82 -6.05, 54.29 -2.31, 61.61 -1.43 M33.1 -10.75 C40.99 -9.13, 46.57 -5.29, 61.61 -1.43" fill="none" stroke="#1e1e1e" stroke-width="1"></path></g></g><mask></mask><g stroke-linecap="round"><g transform="translate(432.296875 87.03826022181852) rotate(0 15.849609375000057 -0.4425150242687721)"><path d="M0.46 -0.26 C5.61 -0.49, 25.95 -1.02, 31.23 -1.21 M0.04 0.8 C5.32 0.62, 26.89 -0.37, 32.22 -0.68" fill="none" stroke="#1e1e1e" stroke-width="1"></path></g><g transform="translate(432.296875 87.03826022181852) rotate(0 15.849609375000057 -0.4425150242687721)"><path d="M17.61 5.49 C22.56 2.5, 27.8 1.52, 32.22 -0.68 M17.61 5.49 C20.56 4.56, 23.61 3.22, 32.22 -0.68" fill="none" stroke="#1e1e1e" stroke-width="1"></path></g><g transform="translate(432.296875 87.03826022181852) rotate(0 15.849609375000057 -0.4425150242687721)"><path d="M17.06 -5.34 C22.23 -4.38, 27.67 -1.41, 32.22 -0.68 M17.06 -5.34 C20.08 -4.01, 23.24 -3.09, 32.22 -0.68" fill="none" stroke="#1e1e1e" stroke-width="1"></path></g></g><mask></mask></svg>