<svg height="536.4716796875" version="1.1" viewbox="0 0 847.02734375 536.4716796875" width="847.02734375" xmlns="http://www.w3.org/2000/svg">
<!-- svg-source:excalidraw -->
<!-- payload-type:application/vnd.excalidraw+json --><!-- payload-version:2 -->
<defs>
<style class="style-fonts">
</style>
</defs>
<rect fill="#ffffff" height="536.4716796875" width="847.02734375" x="0" y="0"></rect><g stroke-linecap="round"><g transform="translate(496.04296875 109.3203125) rotate(0 -128.310546875 133.59375)"><path d="M-0.52 0.52 C-43.45 45.07, -214.72 222.78, -257.43 267.17 M1.4 -0.25 C-41.15 44.51, -211.97 223.98, -255.15 268.69" fill="none" stroke="#1e1e1e" stroke-width="1"></path></g><g transform="translate(496.04296875 109.3203125) rotate(0 -128.310546875 133.59375)"><path d="M-12.7 27.94 C-8.04 18.16, -5.17 10.7, -0.52 0.52 M-12.7 27.94 C-8.39 21.37, -5.2 13.54, -0.52 0.52" fill="none" stroke="#1e1e1e" stroke-width="1"></path></g><g transform="translate(496.04296875 109.3203125) rotate(0 -128.310546875 133.59375)"><path d="M-27.47 13.7 C-18.25 8.39, -10.82 5.34, -0.52 0.52 M-27.47 13.7 C-19.18 11.01, -11.96 7.07, -0.52 0.52" fill="none" stroke="#1e1e1e" stroke-width="1"></path></g><g transform="translate(496.04296875 109.3203125) rotate(0 -128.310546875 133.59375)"><path d="M-243.06 241.24 C-245.96 248.32, -250.6 257.84, -255.15 268.69 M-243.06 241.24 C-245.57 249.66, -249.02 256.82, -255.15 268.69" fill="none" stroke="#1e1e1e" stroke-width="1"></path></g><g transform="translate(496.04296875 109.3203125) rotate(0 -128.310546875 133.59375)"><path d="M-228.24 255.43 C-235.71 258.06, -244.93 263.19, -255.15 268.69 M-228.24 255.43 C-234.75 259.98, -242.24 263.27, -255.15 268.69" fill="none" stroke="#1e1e1e" stroke-width="1"></path></g></g><mask></mask><g stroke-linecap="round" transform="translate(10 119.8583984375) rotate(0 79.794921875 79.705078125)"><path d="M81.49 0.62 C91.62 -0.27, 104.18 2.58, 114.01 7.21 C123.85 11.83, 133.54 19.98, 140.51 28.38 C147.49 36.79, 152.72 47.44, 155.84 57.65 C158.97 67.86, 160.5 79, 159.26 89.64 C158.01 100.27, 154.13 112.03, 148.38 121.48 C142.63 130.92, 133.98 140.11, 124.77 146.31 C115.56 152.51, 103.91 156.78, 93.11 158.7 C82.32 160.62, 70.43 160.55, 59.99 157.84 C49.55 155.13, 39.04 149.22, 30.49 142.46 C21.95 135.7, 13.74 126.84, 8.72 117.26 C3.71 107.69, 0.9 95.84, 0.4 85.01 C-0.1 74.18, 2.02 62.28, 5.71 52.27 C9.4 42.26, 15.15 32.69, 22.55 24.94 C29.96 17.19, 38.94 9.85, 50.14 5.8 C61.34 1.74, 82.39 1.1, 89.75 0.62 C97.12 0.14, 94.74 1.47, 94.35 2.91 M49.17 7.03 C57.9 2.46, 70.74 1.16, 81.7 1.51 C92.66 1.87, 104.85 4.66, 114.93 9.16 C125.01 13.66, 135.49 20.56, 142.19 28.5 C148.89 36.45, 152.13 46.58, 155.14 56.82 C158.14 67.07, 161.59 79.03, 160.24 89.98 C158.88 100.93, 152.91 113.36, 147.02 122.52 C141.13 131.69, 133.81 138.89, 124.89 144.96 C115.97 151.03, 104.18 157.07, 93.52 158.94 C82.86 160.8, 71.3 158.97, 60.94 156.17 C50.58 153.36, 40.2 148.6, 31.36 142.08 C22.52 135.57, 12.88 126.71, 7.9 117.06 C2.93 107.42, 2.16 94.74, 1.51 84.21 C0.86 73.68, 0.66 63.93, 4.01 53.89 C7.36 43.85, 14.15 32.1, 21.61 23.99 C29.07 15.87, 44.14 7.74, 48.79 5.2 C53.44 2.65, 48.6 7.3, 49.5 8.72" fill="none" stroke="#1e1e1e" stroke-width="1"></path></g><g transform="translate(62.82141897875704 187.20347532530894) rotate(0 27.049972534179688 12.5)"><text direction="ltr" dominant-baseline="text-before-edge" fill="#1e1e1e" font-family="Virgil, Segoe UI Emoji" font-size="20px" style="white-space: pre;" text-anchor="middle" x="27.049972534179688" y="0">Client</text></g><g stroke-linecap="round" transform="translate(660.37109375 172.0224609375) rotate(0 88.328125 62.013671875)"><path d="M31.01 0 C71.57 1.11, 111.87 1.22, 145.65 0 M31.01 0 C69.81 -0.75, 109.75 -1.69, 145.65 0 M145.65 0 C167.42 -1.55, 178.11 9.54, 176.66 31.01 M145.65 0 C165.79 -1.72, 176.4 10.76, 176.66 31.01 M176.66 31.01 C177.98 47.08, 178.28 61.33, 176.66 93.02 M176.66 31.01 C176.48 53.78, 177.53 77.05, 176.66 93.02 M176.66 93.02 C178.34 112.28, 165.5 125.59, 145.65 124.03 M176.66 93.02 C175.52 115.95, 166.75 125.79, 145.65 124.03 M145.65 124.03 C99.83 124.89, 55.17 122.33, 31.01 124.03 M145.65 124.03 C105.78 123.97, 66.48 122.85, 31.01 124.03 M31.01 124.03 C11.11 123.34, -2 113.45, 0 93.02 M31.01 124.03 C12.34 122.21, -1.16 115.71, 0 93.02 M0 93.02 C-0.69 76.1, 2.04 63.4, 0 31.01 M0 93.02 C-0.74 73.18, 0.44 50.57, 0 31.01 M0 31.01 C1.38 10.59, 9.76 -0.61, 31.01 0 M0 31.01 C-1.41 10.83, 9.42 1.81, 31.01 0" fill="none" stroke="#1e1e1e" stroke-width="1"></path></g><g transform="translate(690.3992614746094 209.0361328125) rotate(0 58.299957275390625 25)"><text direction="ltr" dominant-baseline="text-before-edge" fill="#1e1e1e" font-family="Virgil, Segoe UI Emoji" font-size="20px" style="white-space: pre;" text-anchor="middle" x="58.299957275390625" y="0">Database</text><text direction="ltr" dominant-baseline="text-before-edge" fill="#1e1e1e" font-family="Virgil, Segoe UI Emoji" font-size="20px" style="white-space: pre;" text-anchor="middle" x="58.299957275390625" y="25">(DynamoDB)</text></g><g stroke-linecap="round"><g transform="translate(175.82256973128608 209.74161848677434) rotate(0 67.33090263435696 8.01566981021638)"><path d="M0.23 0.48 C22.47 3.42, 111.24 14.33, 133.61 16.95 M-1.11 -0.31 C21.47 2.37, 113.33 12.33, 135.76 15.3" fill="none" stroke="#1e1e1e" stroke-width="1"></path></g><g transform="translate(175.82256973128608 209.74161848677434) rotate(0 67.33090263435696 8.01566981021638)"><path d="M106.56 22.17 C116.55 18.2, 126.41 17.37, 135.76 15.3 M106.56 22.17 C116.18 19.49, 125.48 17.72, 135.76 15.3" fill="none" stroke="#1e1e1e" stroke-width="1"></path></g><g transform="translate(175.82256973128608 209.74161848677434) rotate(0 67.33090263435696 8.01566981021638)"><path d="M108.98 1.79 C118.1 4.21, 127.2 9.76, 135.76 15.3 M108.98 1.79 C117.98 5.45, 126.52 10.05, 135.76 15.3" fill="none" stroke="#1e1e1e" stroke-width="1"></path></g></g><mask></mask><g stroke-linecap="round"><g transform="translate(504.9882812500001 236.09910915306364) rotate(0 68.10351562499994 -0.722110488436627)"><path d="M-1.06 0.92 C21.56 0.62, 112.93 -0.74, 135.94 -1.3 M0.59 0.35 C23.01 0.23, 112.17 0.65, 134.85 0.32" fill="none" stroke="#1e1e1e" stroke-width="1"></path></g><g transform="translate(504.9882812500001 236.09910915306364) rotate(0 68.10351562499994 -0.722110488436627)"><path d="M106.7 10.68 C117.16 7.18, 124.86 5.69, 134.85 0.32 M106.7 10.68 C113.51 8.24, 118.7 5.63, 134.85 0.32" fill="none" stroke="#1e1e1e" stroke-width="1"></path></g><g transform="translate(504.9882812500001 236.09910915306364) rotate(0 68.10351562499994 -0.722110488436627)"><path d="M106.62 -9.84 C117.19 -6.8, 124.91 -1.74, 134.85 0.32 M106.62 -9.84 C113.57 -7.8, 118.77 -5.94, 134.85 0.32" fill="none" stroke="#1e1e1e" stroke-width="1"></path></g></g><mask></mask><g transform="translate(185.890625 169.5595703125) rotate(0 68.39994812011719 12.5)"><text direction="ltr" dominant-baseline="text-before-edge" fill="#1e1e1e" font-family="Virgil, Segoe UI Emoji" font-size="20px" style="white-space: pre;" text-anchor="start" x="0" y="0">WS Connection</text></g><g stroke-linecap="round" transform="translate(478.337890625 394.6474609375) rotate(0 78.412109375 65.912109375)"><path d="M32 0 C61.14 0.12, 91.84 0.75, 124.82 0 M32 0 C52.12 -0.66, 71.1 0.64, 124.82 0 M124.82 0 C148.13 1.56, 158.4 12.4, 156.82 32 M124.82 0 C146.44 1.43, 158.68 9.77, 156.82 32 M156.82 32 C155.76 49.07, 158.46 61.15, 156.82 99.82 M156.82 32 C156.86 47.41, 157.7 64.72, 156.82 99.82 M156.82 99.82 C156.58 120.04, 144.74 132.19, 124.82 131.82 M156.82 99.82 C155.93 119.64, 145.06 130.39, 124.82 131.82 M124.82 131.82 C88.24 133.27, 56.4 131.67, 32 131.82 M124.82 131.82 C95.66 131.58, 66.64 130.18, 32 131.82 M32 131.82 C8.95 133.15, -1.8 122.81, 0 99.82 M32 131.82 C11.37 132.87, -0.48 119.8, 0 99.82 M0 99.82 C-0.37 76.37, 2.14 57.03, 0 32 M0 99.82 C-1.34 76.32, -1.05 52.03, 0 32 M0 32 C-1.94 10.18, 9.6 1.76, 32 0 M0 32 C2.13 11.4, 11.39 -0.42, 32 0" fill="none" stroke="#1e1e1e" stroke-width="1"></path></g><g transform="translate(497.2000503540039 448.0595703125) rotate(0 59.549949645996094 12.5)"><text direction="ltr" dominant-baseline="text-before-edge" fill="#1e1e1e" font-family="Virgil, Segoe UI Emoji" font-size="20px" style="white-space: pre;" text-anchor="middle" x="59.549949645996094" y="0">Chat Server</text></g><g stroke-linecap="round" transform="translate(185.826171875 389.8115234375) rotate(0 78.412109375 65.912109375)"><path d="M32 0 C66.56 -1.39, 105.45 1.74, 124.82 0 M32 0 C50.66 -0.78, 69.64 -1.47, 124.82 0 M124.82 0 C147.3 -1.51, 155.91 11.44, 156.82 32 M124.82 0 C148.26 -0.23, 158.55 9.94, 156.82 32 M156.82 32 C155.8 52.84, 156.42 70.65, 156.82 99.82 M156.82 32 C156.61 51.03, 157.21 71.04, 156.82 99.82 M156.82 99.82 C156.5 119.23, 144.24 133.5, 124.82 131.82 M156.82 99.82 C158.88 120.59, 146.99 129.6, 124.82 131.82 M124.82 131.82 C91.93 130.54, 57.23 131.53, 32 131.82 M124.82 131.82 C88.48 130.66, 53.64 131.47, 32 131.82 M32 131.82 C9.72 131.88, 0.46 120.93, 0 99.82 M32 131.82 C10.97 131.93, -0.94 122.6, 0 99.82 M0 99.82 C0.31 77.02, -1.96 48.69, 0 32 M0 99.82 C0.73 74.35, 0.42 46.71, 0 32 M0 32 C0.89 10.6, 12.04 1.51, 32 0 M0 32 C1.1 10.64, 10.81 0.34, 32 0" fill="none" stroke="#1e1e1e" stroke-width="1"></path></g><g transform="translate(204.6883316040039 443.2236328125) rotate(0 59.549949645996094 12.5)"><text direction="ltr" dominant-baseline="text-before-edge" fill="#1e1e1e" font-family="Virgil, Segoe UI Emoji" font-size="20px" style="white-space: pre;" text-anchor="middle" x="59.549949645996094" y="0">Chat Server</text></g><g stroke-linecap="round"><g transform="translate(398.41649372324684 307.4541015625) rotate(0 -54.454775050838066 36.76953125)"><path d="M-0.71 -0.36 C-18.76 11.91, -89.98 61.54, -108 74.03 M1.11 -1.6 C-17.04 10.28, -90.02 59.77, -108.47 72.17" fill="none" stroke="#1e1e1e" stroke-width="1"></path></g><g transform="translate(398.41649372324684 307.4541015625) rotate(0 -54.454775050838066 36.76953125)"><path d="M-18.04 24.13 C-13.11 17.82, -6.08 8.46, -0.71 -0.36 M-18.04 24.13 C-11.04 14.73, -4.46 5.59, -0.71 -0.36" fill="none" stroke="#1e1e1e" stroke-width="1"></path></g><g transform="translate(398.41649372324684 307.4541015625) rotate(0 -54.454775050838066 36.76953125)"><path d="M-29.73 7.26 C-20.96 6.48, -10.14 2.59, -0.71 -0.36 M-29.73 7.26 C-18.18 4.45, -7.06 1.85, -0.71 -0.36" fill="none" stroke="#1e1e1e" stroke-width="1"></path></g><g transform="translate(398.41649372324684 307.4541015625) rotate(0 -54.454775050838066 36.76953125)"><path d="M-90.85 47.89 C-97.07 57.17, -101.36 63.61, -108.47 72.17 M-90.85 47.89 C-97.36 57.3, -104.34 67.08, -108.47 72.17" fill="none" stroke="#1e1e1e" stroke-width="1"></path></g><g transform="translate(398.41649372324684 307.4541015625) rotate(0 -54.454775050838066 36.76953125)"><path d="M-79.36 64.9 C-89.37 68.6, -97.37 69.53, -108.47 72.17 M-79.36 64.9 C-90.35 67.67, -101.78 70.86, -108.47 72.17" fill="none" stroke="#1e1e1e" stroke-width="1"></path></g></g><mask></mask><g stroke-linecap="round"><g transform="translate(467.7468052285602 313.2822265625) rotate(0 36.626299958398874 34.404296875)"><path d="M-0.6 -1.15 C11.7 10.36, 60.5 58.07, 72.87 69.65 M1.28 0.86 C13.47 11.98, 59.76 56.55, 71.73 67.97" fill="none" stroke="#1e1e1e" stroke-width="1"></path></g><g transform="translate(467.7468052285602 313.2822265625) rotate(0 36.626299958398874 34.404296875)"><path d="M26.81 11.04 C18.73 7.56, 15.96 6.11, -0.6 -1.15 M26.81 11.04 C20.59 7.53, 12.89 3.9, -0.6 -1.15" fill="none" stroke="#1e1e1e" stroke-width="1"></path></g><g transform="translate(467.7468052285602 313.2822265625) rotate(0 36.626299958398874 34.404296875)"><path d="M12.56 25.81 C7.58 19.12, 7.97 14.38, -0.6 -1.15 M12.56 25.81 C10.04 18.61, 6.03 11.14, -0.6 -1.15" fill="none" stroke="#1e1e1e" stroke-width="1"></path></g><g transform="translate(467.7468052285602 313.2822265625) rotate(0 36.626299958398874 34.404296875)"><path d="M44.27 55.87 C48.52 58.07, 57.94 62.01, 71.73 67.97 M44.27 55.87 C52.29 59.2, 58.82 61.87, 71.73 67.97" fill="none" stroke="#1e1e1e" stroke-width="1"></path></g><g transform="translate(467.7468052285602 313.2822265625) rotate(0 36.626299958398874 34.404296875)"><path d="M58.47 41.05 C59.63 46.47, 65.9 53.71, 71.73 67.97 M58.47 41.05 C62.8 48.09, 65.65 54.61, 71.73 67.97" fill="none" stroke="#1e1e1e" stroke-width="1"></path></g></g><mask></mask><g stroke-linecap="round"><g transform="translate(346.46875 447.6497823400473) rotate(0 62.638671875 1.3363666295285839)"><path d="M0.13 0.49 C20.99 0.68, 103.5 1.76, 124.19 2.18 M-1.27 -0.3 C20.04 0.57, 105.01 3.27, 126.33 3.47" fill="none" stroke="#1e1e1e" stroke-width="1"></path></g><g transform="translate(346.46875 447.6497823400473) rotate(0 62.638671875 1.3363666295285839)"><path d="M28.45 -9.41 C23.21 -9.05, 15.44 -6.73, 0.13 0.49 M28.45 -9.41 C19.44 -5.67, 9.05 -2.85, 0.13 0.49" fill="none" stroke="#1e1e1e" stroke-width="1"></path></g><g transform="translate(346.46875 447.6497823400473) rotate(0 62.638671875 1.3363666295285839)"><path d="M28.18 11.11 C22.82 7.02, 15.11 4.89, 0.13 0.49 M28.18 11.11 C19.06 8.1, 8.76 4.17, 0.13 0.49" fill="none" stroke="#1e1e1e" stroke-width="1"></path></g><g transform="translate(346.46875 447.6497823400473) rotate(0 62.638671875 1.3363666295285839)"><path d="M97.92 13.1 C104.81 9.17, 109.34 7.25, 126.33 3.47 M97.92 13.1 C107.38 10.4, 115.65 6.8, 126.33 3.47" fill="none" stroke="#1e1e1e" stroke-width="1"></path></g><g transform="translate(346.46875 447.6497823400473) rotate(0 62.638671875 1.3363666295285839)"><path d="M98.38 -7.42 C105.34 -6.9, 109.78 -4.37, 126.33 3.47 M98.38 -7.42 C107.89 -3.37, 116.01 -0.22, 126.33 3.47" fill="none" stroke="#1e1e1e" stroke-width="1"></path></g></g><mask></mask><g stroke-linecap="round" transform="translate(513.53125 44.0205078125) rotate(0 65.90625 48.291015625)"><path d="M24.15 0 C56.08 2.07, 91.29 2.16, 107.67 0 M24.15 0 C43.44 -0.07, 63.23 0.76, 107.67 0 M107.67 0 C122.48 0.3, 132.83 9.2, 131.81 24.15 M107.67 0 C123.14 -1.25, 133.41 9.99, 131.81 24.15 M131.81 24.15 C133.37 38.84, 130.26 54.02, 131.81 72.44 M131.81 24.15 C132.17 34.06, 131.91 43.63, 131.81 72.44 M131.81 72.44 C133.64 86.84, 123.09 97.5, 107.67 96.58 M131.81 72.44 C131.66 86.24, 123.31 98.19, 107.67 96.58 M107.67 96.58 C80.61 98.54, 57.16 98.36, 24.15 96.58 M107.67 96.58 C88.92 97.44, 70.45 96.04, 24.15 96.58 M24.15 96.58 C7.26 98.24, 1.93 89.37, 0 72.44 M24.15 96.58 C8.26 96.56, -0.09 90.4, 0 72.44 M0 72.44 C-1.08 57.8, -2.25 47.52, 0 24.15 M0 72.44 C-0.77 60.62, 0.69 48.79, 0 24.15 M0 24.15 C1.69 7.22, 8.2 1.71, 24.15 0 M0 24.15 C-0.85 6.44, 7.75 -2.21, 24.15 0" fill="none" stroke="#1e1e1e" stroke-width="1"></path></g><g transform="translate(556.337516784668 79.8115234375) rotate(0 23.09998321533203 12.5)"><text direction="ltr" dominant-baseline="text-before-edge" fill="#1e1e1e" font-family="Virgil, Segoe UI Emoji" font-size="20px" style="white-space: pre;" text-anchor="middle" x="23.09998321533203" y="0">Etcd</text></g><g stroke-linecap="round" transform="translate(305.6328125 10.6298828125) rotate(0 57.09765625 36.625)"><path d="M18.31 0 C48.47 -1.64, 79.01 -2.02, 95.88 0 M18.31 0 C44.92 0.36, 70.47 0.29, 95.88 0 M95.88 0 C107.86 -1.92, 115.06 4.63, 114.2 18.31 M95.88 0 C109.83 2.07, 115.76 5, 114.2 18.31 M114.2 18.31 C113.7 31.58, 114.17 46.14, 114.2 54.94 M114.2 18.31 C114.46 26.52, 114.3 36.04, 114.2 54.94 M114.2 54.94 C115.57 65.98, 107.28 72.33, 95.88 73.25 M114.2 54.94 C113.41 66.75, 107.08 74.97, 95.88 73.25 M95.88 73.25 C79.19 74.37, 62.73 74.74, 18.31 73.25 M95.88 73.25 C69.57 72.6, 41.92 72.34, 18.31 73.25 M18.31 73.25 C6.34 73.44, 0.64 68.93, 0 54.94 M18.31 73.25 C6.14 75.33, 0.56 67.12, 0 54.94 M0 54.94 C-0.59 43.81, 0.69 35.92, 0 18.31 M0 54.94 C-0.99 47.6, -0.21 39.74, 0 18.31 M0 18.31 C0.84 6.9, 5.8 -1.19, 18.31 0 M0 18.31 C1.27 7.21, 4.8 -1.48, 18.31 0" fill="none" stroke="#1e1e1e" stroke-width="1"></path></g><g transform="translate(323.21051025390625 22.2548828125) rotate(0 39.51995849609375 25)"><text direction="ltr" dominant-baseline="text-before-edge" fill="#1e1e1e" font-family="Virgil, Segoe UI Emoji" font-size="20px" style="white-space: pre;" text-anchor="middle" x="39.51995849609375" y="0">Chat </text><text direction="ltr" dominant-baseline="text-before-edge" fill="#1e1e1e" font-family="Virgil, Segoe UI Emoji" font-size="20px" style="white-space: pre;" text-anchor="middle" x="39.51995849609375" y="25">Registry</text></g><g stroke-linecap="round"><g transform="translate(161.85546875 145.8203125) rotate(0 64.267578125 -38.85546875)"><path d="M-0.79 1.17 C21 -11.91, 108.13 -64.33, 129.61 -77.42 M1 0.75 C22.82 -12.21, 108.21 -66.62, 129.23 -79.39" fill="none" stroke="#1e1e1e" stroke-width="1"></path></g><g transform="translate(161.85546875 145.8203125) rotate(0 64.267578125 -38.85546875)"><path d="M18.07 -22.16 C16.34 -15.67, 10.97 -13.35, -0.79 1.17 M18.07 -22.16 C10.98 -14.96, 5.89 -7.46, -0.79 1.17" fill="none" stroke="#1e1e1e" stroke-width="1"></path></g><g transform="translate(161.85546875 145.8203125) rotate(0 64.267578125 -38.85546875)"><path d="M28.65 -4.57 C24.58 -1.79, 17.02 -3.11, -0.79 1.17 M28.65 -4.57 C18.27 -3.14, 9.73 -1.35, -0.79 1.17" fill="none" stroke="#1e1e1e" stroke-width="1"></path></g><g transform="translate(161.85546875 145.8203125) rotate(0 64.267578125 -38.85546875)"><path d="M110.74 -55.76 C116.31 -58.74, 118.65 -66.13, 129.23 -79.39 M110.74 -55.76 C116.19 -63.72, 123.25 -71.49, 129.23 -79.39" fill="none" stroke="#1e1e1e" stroke-width="1"></path></g><g transform="translate(161.85546875 145.8203125) rotate(0 64.267578125 -38.85546875)"><path d="M99.88 -73.17 C107.84 -72.48, 112.43 -76.27, 129.23 -79.39 M99.88 -73.17 C108.72 -75.43, 119.31 -77.54, 129.23 -79.39" fill="none" stroke="#1e1e1e" stroke-width="1"></path></g></g><mask></mask><g transform="translate(116.0390625 10) rotate(0 59.549949645996094 37.5)"><text direction="ltr" dominant-baseline="text-before-edge" fill="#1e1e1e" font-family="Virgil, Segoe UI Emoji" font-size="20px" style="white-space: pre;" text-anchor="middle" x="59.549949645996094" y="0">Look Up</text><text direction="ltr" dominant-baseline="text-before-edge" fill="#1e1e1e" font-family="Virgil, Segoe UI Emoji" font-size="20px" style="white-space: pre;" text-anchor="middle" x="59.549949645996094" y="25">Chat Server</text><text direction="ltr" dominant-baseline="text-before-edge" fill="#1e1e1e" font-family="Virgil, Segoe UI Emoji" font-size="20px" style="white-space: pre;" text-anchor="middle" x="59.549949645996094" y="50">Address</text></g><g stroke-linecap="round"><g transform="translate(570.01171875 148.5234375) rotate(0 -31.21875 28.61328125)"><path d="M-0.09 -0.47 C-10.42 8.83, -51.38 47.11, -61.95 56.8 M-1.6 -1.76 C-12.04 8.23, -52.72 48.56, -62.64 58.12" fill="none" stroke="#1e1e1e" stroke-width="1"></path></g><g transform="translate(570.01171875 148.5234375) rotate(0 -31.21875 28.61328125)"><path d="M-13.81 26.21 C-10.7 19.04, -6.51 8.52, -0.09 -0.47 M-13.81 26.21 C-8.38 16.5, -3.83 7.33, -0.09 -0.47" fill="none" stroke="#1e1e1e" stroke-width="1"></path></g><g transform="translate(570.01171875 148.5234375) rotate(0 -31.21875 28.61328125)"><path d="M-27.75 11.15 C-20.33 8.51, -11.97 2.5, -0.09 -0.47 M-27.75 11.15 C-17.43 6.64, -8.13 2.6, -0.09 -0.47" fill="none" stroke="#1e1e1e" stroke-width="1"></path></g><g transform="translate(570.01171875 148.5234375) rotate(0 -31.21875 28.61328125)"><path d="M-49.68 31.06 C-54.11 39.99, -57.92 45.57, -62.64 58.12 M-49.68 31.06 C-52.86 39.54, -57.4 48.69, -62.64 58.12" fill="none" stroke="#1e1e1e" stroke-width="1"></path></g><g transform="translate(570.01171875 148.5234375) rotate(0 -31.21875 28.61328125)"><path d="M-35.32 45.73 C-44.18 50.24, -52.3 51.43, -62.64 58.12 M-35.32 45.73 C-43.52 49.14, -52.96 53.29, -62.64 58.12" fill="none" stroke="#1e1e1e" stroke-width="1"></path></g></g><mask></mask><g stroke-linecap="round"><g transform="translate(427.58984375 46.5078125) rotate(0 37.193359375 11.751953125)"><path d="M-1.03 0.65 C11.36 4.7, 60.83 19.57, 73.3 23.33 M0.62 -0.06 C13.48 4.26, 63.42 20.71, 75.44 24.78" fill="none" stroke="#1e1e1e" stroke-width="1"></path></g><g transform="translate(427.58984375 46.5078125) rotate(0 37.193359375 11.751953125)"><path d="M28.93 -0.9 C23.72 -2.64, 16.08 -1.46, -1.03 0.65 M28.93 -0.9 C21.66 0.7, 12.96 0.44, -1.03 0.65" fill="none" stroke="#1e1e1e" stroke-width="1"></path></g><g transform="translate(427.58984375 46.5078125) rotate(0 37.193359375 11.751953125)"><path d="M22.91 18.72 C19.13 12.92, 12.75 10, -1.03 0.65 M22.91 18.72 C17.28 14.9, 10.22 9.27, -1.03 0.65" fill="none" stroke="#1e1e1e" stroke-width="1"></path></g><g transform="translate(427.58984375 46.5078125) rotate(0 37.193359375 11.751953125)"><path d="M45.46 25.6 C52.82 23.88, 57.72 24.56, 75.44 24.78 M45.46 25.6 C54.58 25.99, 62.26 25.08, 75.44 24.78" fill="none" stroke="#1e1e1e" stroke-width="1"></path></g><g transform="translate(427.58984375 46.5078125) rotate(0 37.193359375 11.751953125)"><path d="M51.94 6.13 C57.79 8.43, 61.34 13.19, 75.44 24.78 M51.94 6.13 C59.3 11.9, 65.21 16.32, 75.44 24.78" fill="none" stroke="#1e1e1e" stroke-width="1"></path></g></g><mask></mask><g stroke-linecap="round"><g transform="translate(611.88671875 147.7734375) rotate(0 -27.212890625 115.083984375)"><path d="M-0.5 -0.36 C-9.72 37.81, -45.56 191.79, -54.58 230.09 M1.44 -1.59 C-8.01 37.29, -46.12 192.93, -55.61 231.59" fill="none" stroke="#1e1e1e" stroke-width="1"></path></g><g transform="translate(611.88671875 147.7734375) rotate(0 -27.212890625 115.083984375)"><path d="M3.04 29.43 C0.9 18.49, 0.11 7.73, -0.5 -0.36 M3.04 29.43 C1.04 22.71, 1.66 15.56, -0.5 -0.36" fill="none" stroke="#1e1e1e" stroke-width="1"></path></g><g transform="translate(611.88671875 147.7734375) rotate(0 -27.212890625 115.083984375)"><path d="M-16.94 24.74 C-11.87 15.56, -5.51 6.48, -0.5 -0.36 M-16.94 24.74 C-14.12 19.14, -8.74 13.11, -0.5 -0.36" fill="none" stroke="#1e1e1e" stroke-width="1"></path></g><g transform="translate(611.88671875 147.7734375) rotate(0 -27.212890625 115.083984375)"><path d="M-58.86 201.77 C-58.03 212.21, -56.39 222.81, -55.61 231.59 M-58.86 201.77 C-58.7 209.28, -56.46 216.36, -55.61 231.59" fill="none" stroke="#1e1e1e" stroke-width="1"></path></g><g transform="translate(611.88671875 147.7734375) rotate(0 -27.212890625 115.083984375)"><path d="M-38.93 206.65 C-45.28 215.26, -50.78 224.11, -55.61 231.59 M-38.93 206.65 C-43.57 212.99, -46.09 218.91, -55.61 231.59" fill="none" stroke="#1e1e1e" stroke-width="1"></path></g></g><mask></mask><g stroke-linecap="round" transform="translate(335.2890625 166.9052734375) rotate(0 78.412109375 65.912109375)"><path d="M32 0 C57.01 3.95, 78.43 -2.76, 124.82 0 C147.36 -2.13, 156.39 9.11, 156.82 32 C154.48 46.86, 155.23 68.33, 156.82 99.82 C155.57 124.19, 144.02 134.88, 124.82 131.82 C95.45 128.63, 68.33 132.14, 32 131.82 C8.36 131.59, 3.4 118.74, 0 99.82 C-2.21 76.94, 0.38 56.62, 0 32 C-3.2 13.45, 11.32 1.08, 32 0" fill="#ffffff" stroke="none" stroke-width="0"></path><path d="M32 0 C58.82 1.87, 87.85 -0.76, 124.82 0 M32 0 C57.96 0.94, 82.66 1.3, 124.82 0 M124.82 0 C145.71 0.24, 158.2 9.03, 156.82 32 M124.82 0 C147.42 -1.79, 158.5 9.75, 156.82 32 M156.82 32 C156.69 49.71, 158.31 68.69, 156.82 99.82 M156.82 32 C156.98 55.52, 157.19 76.56, 156.82 99.82 M156.82 99.82 C156.35 119.89, 147.79 130.28, 124.82 131.82 M156.82 99.82 C158.76 119.54, 145.22 133.62, 124.82 131.82 M124.82 131.82 C103.1 133.81, 78.49 130.23, 32 131.82 M124.82 131.82 C101.47 131.86, 79.03 130.9, 32 131.82 M32 131.82 C10.32 132.84, 0.43 119.94, 0 99.82 M32 131.82 C11.56 131.04, -2.3 120.88, 0 99.82 M0 99.82 C2.29 72.65, -0.06 46, 0 32 M0 99.82 C1.33 82.8, 0.66 65.02, 0 32 M0 32 C-1.16 12.45, 11.88 -1.99, 32 0 M0 32 C1.58 10.96, 10 -0.7, 32 0" fill="none" stroke="#1e1e1e" stroke-width="2"></path></g><g transform="translate(354.1512222290039 220.3173828125) rotate(0 59.549949645996094 12.5)"><text direction="ltr" dominant-baseline="text-before-edge" fill="#1e1e1e" font-family="Virgil, Segoe UI Emoji" font-size="20px" style="white-space: pre;" text-anchor="middle" x="59.549949645996094" y="0">Chat Server</text></g></svg>