<svg height="684.1779328541697" version="1.1" viewbox="0 0 1929.0278751910446 684.1779328541697" width="1929.0278751910446" xmlns="http://www.w3.org/2000/svg">
<!-- svg-source:excalidraw -->
<!-- payload-type:application/vnd.excalidraw+json --><!-- payload-version:2 -->
<defs>
<style class="style-fonts">
</style>
</defs>
<rect fill="#ffffff" height="684.1779328541697" width="1929.0278751910446" x="0" y="0"></rect><g stroke-linecap="round" transform="translate(515.2737544801546 38.33160706004219) rotate(0 98.697265625 53.470703125)"><path d="M4.03 10.13 C4.03 10.13, 4.03 10.13, 4.03 10.13 M4.03 10.13 C4.03 10.13, 4.03 10.13, 4.03 10.13 M0.88 25.94 C7.5 21.56, 9.6 14.54, 22.53 1.04 M0.88 25.94 C4.44 21.74, 10.05 15.98, 22.53 1.04 M1.02 37.99 C8.56 29.78, 16.14 17.11, 33.82 0.25 M1.02 37.99 C9.68 27.29, 17.87 18.16, 33.82 0.25 M1.15 50.03 C13.84 34.03, 27.8 16.66, 44.45 0.22 M1.15 50.03 C12.48 38.15, 21.63 24.71, 44.45 0.22 M1.28 62.07 C13.62 44.18, 29.36 31.53, 55.08 0.18 M1.28 62.07 C21.1 38.51, 40.71 15.75, 55.08 0.18 M1.42 74.11 C23.36 44.2, 47.75 19.66, 65.71 0.15 M1.42 74.11 C18.95 53.76, 37.79 33.95, 65.71 0.15 M0.89 86.9 C28.92 52.17, 59.02 17.08, 76.34 0.11 M0.89 86.9 C25.76 59.69, 50.12 31.09, 76.34 0.11 M3.65 95.93 C33.03 61.17, 65.3 25.2, 86.97 0.08 M3.65 95.93 C34.89 59.36, 67.29 22.67, 86.97 0.08 M9.03 101.93 C30.75 77.36, 51.97 54.67, 97.6 0.04 M9.03 101.93 C30.31 75.64, 52.29 52.23, 97.6 0.04 M16.38 105.67 C47.47 70.6, 77.31 37.66, 108.23 0.01 M16.38 105.67 C45.22 72.28, 72.35 41.58, 108.23 0.01 M25.7 107.14 C53.85 71.93, 83.55 39.72, 118.86 -0.03 M25.7 107.14 C45.47 83.9, 65.61 60.4, 118.86 -0.03 M36.33 107.11 C70.46 66.47, 101.88 29.19, 128.84 0.69 M36.33 107.11 C55.94 83.3, 74.62 60.19, 128.84 0.69 M46.96 107.07 C68.34 82.22, 87.74 58.93, 139.47 0.66 M46.96 107.07 C75.32 75.46, 102.38 44.16, 139.47 0.66 M57.59 107.04 C90.4 72.68, 120.62 35.1, 150.1 0.63 M57.59 107.04 C92.19 65.3, 126.65 26.78, 150.1 0.63 M68.22 107 C93.5 80.45, 117 52.93, 160.73 0.59 M68.22 107 C94.54 77.14, 119.4 47.45, 160.73 0.59 M78.85 106.97 C107.59 71.94, 137.43 39.43, 171.36 0.56 M78.85 106.97 C107.23 76.6, 134.81 44.1, 171.36 0.56 M89.48 106.94 C123.9 66.64, 160.9 26.27, 180.67 2.03 M89.48 106.94 C121.22 71.57, 153.12 35.07, 180.67 2.03 M100.11 106.9 C132.24 74.56, 160.41 37.28, 188.68 5.02 M100.11 106.9 C130.47 71.6, 162.54 36.31, 188.68 5.02 M110.74 106.87 C134.58 78.76, 159.64 50.33, 194.06 11.02 M110.74 106.87 C129.4 87.47, 146.28 67.72, 194.06 11.02 M121.37 106.83 C140.3 84.07, 160.02 57.77, 196.82 20.04 M121.37 106.83 C148.03 75.78, 174.42 45.89, 196.82 20.04 M132 106.8 C155.09 83.5, 175.69 57.34, 197.61 31.33 M132 106.8 C156.03 80.44, 177.19 54.38, 197.61 31.33 M141.98 107.52 C158.84 89.42, 174 67.36, 197.74 43.37 M141.98 107.52 C153.38 94.7, 165.1 80.52, 197.74 43.37 M152.61 107.48 C170.46 89.52, 186.48 67.28, 197.87 55.41 M152.61 107.48 C163.65 96.68, 172.16 84.12, 197.87 55.41 M163.24 107.45 C172.26 93.63, 183.21 80.39, 198.01 67.45 M163.24 107.45 C173.59 96.5, 181.31 85.91, 198.01 67.45 M174.52 106.66 C180.02 98.81, 190.18 90.25, 197.48 80.24 M174.52 106.66 C180.33 100.87, 183.74 95.82, 197.48 80.24" fill="none" stroke="#ffffff" stroke-width="1"></path><path d="M26.74 0 C80.33 -2, 129.24 -0.19, 170.66 0 M26.74 0 C57.24 -0.58, 88.41 0.03, 170.66 0 M170.66 0 C189.45 0.56, 197.18 8.26, 197.39 26.74 M170.66 0 C189.04 1.29, 195.17 7.01, 197.39 26.74 M197.39 26.74 C198.66 40.41, 198.45 57.45, 197.39 80.21 M197.39 26.74 C197.28 47.16, 197.31 64.81, 197.39 80.21 M197.39 80.21 C197.09 97.89, 188.28 106.56, 170.66 106.94 M197.39 80.21 C197.45 95.93, 188.79 107.8, 170.66 106.94 M170.66 106.94 C140.92 105.79, 112.13 104.81, 26.74 106.94 M170.66 106.94 C113.82 106.59, 56.95 105.06, 26.74 106.94 M26.74 106.94 C7.44 106.83, -0.9 98.26, 0 80.21 M26.74 106.94 C6.82 104.92, 1.2 99.52, 0 80.21 M0 80.21 C0.78 64.5, -1.19 43.61, 0 26.74 M0 80.21 C-1.28 60.91, -1.39 40.39, 0 26.74 M0 26.74 C1.35 9.56, 10.01 -1.32, 26.74 0 M0 26.74 C0.81 8.33, 8.34 2.24, 26.74 0" fill="none" stroke="#1e1e1e" stroke-width="2"></path></g><g transform="translate(541.5003169801546 79.30231018504219) rotate(0 72.470703125 12.5)"><text direction="ltr" dominant-baseline="text-before-edge" fill="#1e1e1e" font-family="Virgil, Segoe UI Emoji" font-size="20px" style="white-space: pre;" text-anchor="middle" x="72.470703125" y="0">Scheduler Service</text></g><g stroke-linecap="round"><g transform="translate(720.3245357301546 134.49725371739896) rotate(0 39.22324959116702 15.758255254877895)"><path d="M-0.04 -1.02 C13.12 4.41, 64.88 26.39, 77.86 31.76 M-1.53 1.07 C12.14 6.17, 67.21 24.55, 80.26 29.76" fill="none" stroke="#1e1e1e" stroke-width="2"></path></g><g transform="translate(720.3245357301546 134.49725371739896) rotate(0 39.22324959116702 15.758255254877895)"><path d="M29.92 0.47 C22.07 -0.83, 18 -1.13, -0.04 -1.02 M29.92 0.47 C22.3 0.44, 13.61 -0.57, -0.04 -1.02" fill="none" stroke="#1e1e1e" stroke-width="2"></path></g><g transform="translate(720.3245357301546 134.49725371739896) rotate(0 39.22324959116702 15.758255254877895)"><path d="M21.96 19.38 C15.87 14.2, 13.44 10, -0.04 -1.02 M21.96 19.38 C16.55 14.21, 10.01 8.09, -0.04 -1.02" fill="none" stroke="#1e1e1e" stroke-width="2"></path></g><g transform="translate(720.3245357301546 134.49725371739896) rotate(0 39.22324959116702 15.758255254877895)"><path d="M50.26 29.83 C54.74 28.85, 63 28.83, 80.26 29.76 M50.26 29.83 C58.86 30, 66.38 29.37, 80.26 29.76" fill="none" stroke="#1e1e1e" stroke-width="2"></path></g><g transform="translate(720.3245357301546 134.49725371739896) rotate(0 39.22324959116702 15.758255254877895)"><path d="M57.24 10.53 C60.15 13.51, 66.98 17.47, 80.26 29.76 M57.24 10.53 C63.89 15.94, 69.52 20.54, 80.26 29.76" fill="none" stroke="#1e1e1e" stroke-width="2"></path></g></g><mask></mask><g stroke-linecap="round" transform="translate(812.917754118215 80.24057533496762) rotate(0 89.47739173275392 87.55859375)"><path d="M12.11 42.33 C12.11 42.33, 12.11 42.33, 12.11 42.33 M12.11 42.33 C12.11 42.33, 12.11 42.33, 12.11 42.33 M5.03 62.67 C17.21 47.97, 31.55 29.4, 41.77 20.41 M5.03 62.67 C18.26 45.86, 32.06 30.17, 41.77 20.41 M3.19 76.97 C22.82 56.51, 45.05 32.6, 58.3 13.58 M3.19 76.97 C18.24 60.77, 32.1 42.6, 58.3 13.58 M3.98 88.26 C22.48 66.44, 44.58 45.72, 73.52 8.26 M3.98 88.26 C28.63 59.91, 54.57 31.23, 73.52 8.26 M4.77 99.55 C24.83 78.98, 41.26 56.46, 84.81 7.47 M4.77 99.55 C25.48 77.96, 44.79 53.72, 84.81 7.47 M5.56 110.83 C26.06 86.24, 45.03 62.55, 96.1 6.68 M5.56 110.83 C31.99 81.42, 57.6 50.59, 96.1 6.68 M8.97 119.1 C40.35 84.07, 68.77 49.95, 108.04 5.14 M8.97 119.1 C41.61 81.59, 73.58 44.2, 108.04 5.14 M12.39 127.37 C48.39 89.72, 79.34 47.93, 116.04 8.12 M12.39 127.37 C43.76 89.6, 76.33 54.26, 116.04 8.12 M16.46 134.88 C39.99 104.44, 68.54 74.39, 124.05 11.11 M16.46 134.88 C38.73 108.65, 60.35 84.64, 124.05 11.11 M20.52 142.39 C45.47 112.14, 72.28 84.34, 132.05 14.09 M20.52 142.39 C45.35 113.55, 70.04 84.96, 132.05 14.09 M26.56 147.64 C56.91 113.21, 90.15 76.99, 140.06 17.08 M26.56 147.64 C64.11 105.1, 101.11 61.61, 140.06 17.08 M32.6 152.89 C59.06 123.29, 89 91.8, 146.1 22.33 M32.6 152.89 C64.26 116.22, 97.44 80.98, 146.1 22.33 M38.64 158.14 C65.45 126.75, 93.57 97.79, 152.79 26.82 M38.64 158.14 C75.08 115.31, 111.17 74.69, 152.79 26.82 M44.68 163.39 C85.77 119.09, 125.87 72.59, 158.83 32.07 M44.68 163.39 C67.45 135.64, 91.36 109.77, 158.83 32.07 M52.68 166.37 C92.21 119.24, 133.52 73.45, 164.87 37.32 M52.68 166.37 C92.44 122.34, 130.61 77.46, 164.87 37.32 M60.69 169.36 C89.76 134.46, 117.74 102.94, 168.28 45.58 M60.69 169.36 C100.55 123.17, 139.18 77.62, 168.28 45.58 M68.69 172.34 C94.7 142.19, 119.21 112.98, 171.69 53.85 M68.69 172.34 C102.02 133.61, 134.64 96.1, 171.69 53.85 M76.7 175.32 C114.86 131.88, 149.37 88.31, 175.76 61.36 M76.7 175.32 C97.23 151.3, 118.55 126.79, 175.76 61.36 M87.99 174.54 C116.52 138.31, 149.55 107.45, 179.18 69.63 M87.99 174.54 C120.35 136.55, 154.27 96.7, 179.18 69.63 M98.62 174.5 C128.87 144.17, 155.01 111.07, 179.97 80.92 M98.62 174.5 C117.27 152.38, 135.82 132.13, 179.97 80.92 M109.9 173.71 C137.25 142.35, 163.55 114.44, 180.76 92.2 M109.9 173.71 C132.67 148.54, 153.79 122.68, 180.76 92.2 M117.25 177.45 C138.88 150.28, 163.41 123.97, 181.54 103.49 M117.25 177.45 C142.41 149.59, 166.49 123.05, 181.54 103.49" fill="none" stroke="#ffffff" stroke-width="1"></path><path d="M68.09 3.1 C78.37 -0.75, 91.75 -0.76, 102.93 0.85 C114.11 2.45, 125.36 7.12, 135.19 12.72 C145.03 18.33, 155.22 25.58, 161.93 34.47 C168.64 43.36, 172.76 54.97, 175.46 66.06 C178.16 77.16, 179.55 90.05, 178.11 101.06 C176.67 112.07, 172.61 122.53, 166.8 132.13 C160.99 141.72, 152.4 151.95, 143.23 158.63 C134.07 165.31, 123.14 169.62, 111.82 172.22 C100.51 174.81, 86.58 175.78, 75.34 174.2 C64.09 172.61, 54.14 168.48, 44.36 162.7 C34.58 156.92, 23.61 148.53, 16.65 139.53 C9.69 130.53, 5.24 119.49, 2.6 108.69 C-0.05 97.88, -0.76 85.7, 0.78 74.69 C2.32 63.68, 5.87 52.38, 11.84 42.64 C17.81 32.9, 26.08 23.25, 36.58 16.24 C47.09 9.23, 67.55 2.93, 74.88 0.57 C82.22 -1.78, 80.45 0.65, 80.6 2.11 M131.84 11.33 C142.14 15.11, 152.38 22.21, 159.38 30.6 C166.39 39, 170.81 50.81, 173.89 61.7 C176.97 72.59, 179 85.02, 177.88 95.94 C176.77 106.85, 172.3 117.18, 167.21 127.19 C162.11 137.19, 155.81 148.42, 147.32 155.98 C138.83 163.54, 127.42 169.25, 116.28 172.54 C105.14 175.82, 91.68 177.02, 80.49 175.66 C69.29 174.31, 59.27 169.61, 49.13 164.41 C39 159.2, 26.99 152.99, 19.66 144.43 C12.34 135.87, 8.62 123.78, 5.2 113.04 C1.78 102.3, -1.49 91.15, -0.86 80 C-0.23 68.84, 3.25 55.98, 8.97 46.08 C14.69 36.18, 24.27 27.79, 33.43 20.6 C42.6 13.4, 53.13 6.32, 63.96 2.89 C74.79 -0.55, 87.23 -1.45, 98.4 0.01 C109.56 1.46, 125.8 9.42, 130.95 11.62 C136.09 13.82, 129.73 12.02, 129.27 13.2" fill="none" stroke="#1e1e1e" stroke-width="2"></path></g><g transform="translate(847.6348410188535 142.88589369318456) rotate(0 54.990234375 25)"><text direction="ltr" dominant-baseline="text-before-edge" fill="#1e1e1e" font-family="Virgil, Segoe UI Emoji" font-size="20px" style="white-space: pre;" text-anchor="middle" x="54.990234375" y="0">Job Store</text><text direction="ltr" dominant-baseline="text-before-edge" fill="#1e1e1e" font-family="Virgil, Segoe UI Emoji" font-size="20px" style="white-space: pre;" text-anchor="middle" x="54.990234375" y="25">(DynamoDB)</text></g><g transform="translate(1023.4826870800541 84.88780423003573) rotate(0 49.43994903564453 75)"><text direction="ltr" dominant-baseline="text-before-edge" fill="#1e1e1e" font-family="Virgil, Segoe UI Emoji" font-size="20px" style="white-space: pre;" text-anchor="start" x="0" y="0">Jobs</text><text direction="ltr" dominant-baseline="text-before-edge" fill="#1e1e1e" font-family="Virgil, Segoe UI Emoji" font-size="20px" style="white-space: pre;" text-anchor="start" x="0" y="25">- id</text><text direction="ltr" dominant-baseline="text-before-edge" fill="#1e1e1e" font-family="Virgil, Segoe UI Emoji" font-size="20px" style="white-space: pre;" text-anchor="start" x="0" y="50">- userId</text><text direction="ltr" dominant-baseline="text-before-edge" fill="#1e1e1e" font-family="Virgil, Segoe UI Emoji" font-size="20px" style="white-space: pre;" text-anchor="start" x="0" y="75">- taskId</text><text direction="ltr" dominant-baseline="text-before-edge" fill="#1e1e1e" font-family="Virgil, Segoe UI Emoji" font-size="20px" style="white-space: pre;" text-anchor="start" x="0" y="100">- params</text><text direction="ltr" dominant-baseline="text-before-edge" fill="#1e1e1e" font-family="Virgil, Segoe UI Emoji" font-size="20px" style="white-space: pre;" text-anchor="start" x="0" y="125">- schedule</text></g><g transform="translate(1157.9286877196107 85.1261715337796) rotate(0 52.00994873046875 75)"><text direction="ltr" dominant-baseline="text-before-edge" fill="#1e1e1e" font-family="Virgil, Segoe UI Emoji" font-size="20px" style="white-space: pre;" text-anchor="start" x="0" y="0">Executions</text><text direction="ltr" dominant-baseline="text-before-edge" fill="#1e1e1e" font-family="Virgil, Segoe UI Emoji" font-size="20px" style="white-space: pre;" text-anchor="start" x="0" y="25">- time</text><text direction="ltr" dominant-baseline="text-before-edge" fill="#1e1e1e" font-family="Virgil, Segoe UI Emoji" font-size="20px" style="white-space: pre;" text-anchor="start" x="0" y="50">- jobId</text><text direction="ltr" dominant-baseline="text-before-edge" fill="#1e1e1e" font-family="Virgil, Segoe UI Emoji" font-size="20px" style="white-space: pre;" text-anchor="start" x="0" y="75">- userId</text><text direction="ltr" dominant-baseline="text-before-edge" fill="#1e1e1e" font-family="Virgil, Segoe UI Emoji" font-size="20px" style="white-space: pre;" text-anchor="start" x="0" y="100">- status</text><text direction="ltr" dominant-baseline="text-before-edge" fill="#1e1e1e" font-family="Virgil, Segoe UI Emoji" font-size="20px" style="white-space: pre;" text-anchor="start" x="0" y="125">- attempt</text></g><g stroke-linecap="round"><g transform="translate(904.5964639359524 266.8699652474361) rotate(0 0.9476839926498997 58.65029357750063)"><path d="M-0.13 -0.39 C0.14 19.22, 2.04 98.52, 2.19 117.97 M-1.66 -1.64 C-1.57 17.59, 0.61 96.41, 1.39 116.2" fill="none" stroke="#1e1e1e" stroke-width="2"></path></g><g transform="translate(904.5964639359524 266.8699652474361) rotate(0 0.9476839926498997 58.65029357750063)"><path d="M10.71 27.59 C6.2 18.31, 4.2 6.15, -0.13 -0.39 M10.71 27.59 C9.04 22.12, 5.58 15.92, -0.13 -0.39" fill="none" stroke="#1e1e1e" stroke-width="2"></path></g><g transform="translate(904.5964639359524 266.8699652474361) rotate(0 0.9476839926498997 58.65029357750063)"><path d="M-9.81 28.01 C-7.17 18.61, -2.02 6.3, -0.13 -0.39 M-9.81 28.01 C-7.02 22.42, -6.01 16.13, -0.13 -0.39" fill="none" stroke="#1e1e1e" stroke-width="2"></path></g><g transform="translate(904.5964639359524 266.8699652474361) rotate(0 0.9476839926498997 58.65029357750063)"><path d="M-9.77 88.36 C-6.45 98.56, -0.8 105.84, 1.39 116.2 M-9.77 88.36 C-6.81 95, -5.47 100.95, 1.39 116.2" fill="none" stroke="#1e1e1e" stroke-width="2"></path></g><g transform="translate(904.5964639359524 266.8699652474361) rotate(0 0.9476839926498997 58.65029357750063)"><path d="M10.74 87.7 C6.91 98.1, 5.42 105.62, 1.39 116.2 M10.74 87.7 C9.24 94.51, 6.11 100.6, 1.39 116.2" fill="none" stroke="#1e1e1e" stroke-width="2"></path></g></g><mask></mask><g stroke-linecap="round" transform="translate(780.4747933105998 394.8336908473584) rotate(0 125.576171875 63.78515625000003)"><path d="M4.79 12.11 C4.79 12.11, 4.79 12.11, 4.79 12.11 M4.79 12.11 C4.79 12.11, 4.79 12.11, 4.79 12.11 M2.95 26.42 C6.79 18.02, 13.39 15.36, 25.26 0.76 M2.95 26.42 C11.31 17.04, 20.52 7.41, 25.26 0.76 M3.08 38.46 C10.23 28.02, 17.01 21.23, 34.58 2.23 M3.08 38.46 C14.01 23.92, 25.94 10.58, 34.58 2.23 M2.56 51.25 C19.62 34.29, 37.98 14.58, 45.21 2.2 M2.56 51.25 C13.63 38.09, 26.31 25.8, 45.21 2.2 M2.69 63.29 C20.19 44.09, 40.2 19.99, 55.84 2.16 M2.69 63.29 C15.35 50.21, 28.17 36.4, 55.84 2.16 M2.83 75.33 C27.15 46.2, 53.02 18.23, 66.47 2.13 M2.83 75.33 C16.88 58.8, 31.26 42.33, 66.47 2.13 M2.96 87.37 C28.49 58.42, 54.95 31.85, 77.1 2.09 M2.96 87.37 C19.49 68.9, 35.69 48.54, 77.1 2.09 M3.09 99.42 C31.41 68.37, 55.22 37.1, 87.73 2.06 M3.09 99.42 C35.51 63.83, 67.71 26.16, 87.73 2.06 M5.85 108.44 C33.54 77.74, 58.96 46.59, 98.36 2.02 M5.85 108.44 C37.85 72.04, 71.07 33.52, 98.36 2.02 M7.95 118.21 C43.34 78.31, 79.54 37.27, 108.99 1.99 M7.95 118.21 C41.65 79.01, 75.66 40.73, 108.99 1.99 M13.33 124.22 C44.42 87.07, 78.17 49.55, 119.62 1.95 M13.33 124.22 C51.18 78.92, 90.28 33.39, 119.62 1.95 M22 126.45 C62.3 78.83, 102.59 32.58, 130.25 1.92 M22 126.45 C59.52 82.98, 97.4 38.61, 130.25 1.92 M28.69 130.94 C61.82 91.04, 95.73 55.16, 140.22 2.64 M28.69 130.94 C70.29 84.19, 111.91 34.85, 140.22 2.64 M38.01 132.42 C74.77 90.55, 110.63 46.89, 150.85 2.61 M38.01 132.42 C74.41 89.33, 113.29 46.07, 150.85 2.61 M48.64 132.38 C84.08 93.05, 119.77 50.1, 161.48 2.57 M48.64 132.38 C76.5 99.31, 104.55 66.86, 161.48 2.57 M59.27 132.35 C90.82 97.52, 119.37 64.43, 172.11 2.54 M59.27 132.35 C89.36 97.9, 118.61 63.98, 172.11 2.54 M69.9 132.31 C95.25 99.71, 122.5 69.4, 182.74 2.5 M69.9 132.31 C94.83 105.67, 117.53 79.24, 182.74 2.5 M79.87 133.03 C115.37 92.23, 150.42 48.84, 193.37 2.47 M79.87 133.03 C120.86 85.14, 161.13 38.05, 193.37 2.47 M90.5 133 C125.26 89.51, 163.81 51.62, 204 2.43 M90.5 133 C117.4 102.4, 144.87 70.08, 204 2.43 M101.13 132.96 C137 90.38, 173.85 47.83, 214.63 2.4 M101.13 132.96 C137.25 89.36, 176.11 45.76, 214.63 2.4 M111.76 132.93 C133.2 104.13, 156.66 77.13, 223.95 3.87 M111.76 132.93 C145.75 93.31, 181.08 54, 223.95 3.87 M122.39 132.89 C166.25 79.75, 208.58 29.27, 234.58 3.84 M122.39 132.89 C157.21 89.68, 194.31 48.31, 234.58 3.84 M133.02 132.86 C170.64 87.66, 210.05 43.66, 241.93 7.58 M133.02 132.86 C162.95 96.51, 195.21 61.44, 241.93 7.58 M143.65 132.83 C182.01 91.39, 215.28 48.47, 247.31 13.58 M143.65 132.83 C177.62 92.48, 213.89 49.72, 247.31 13.58 M154.28 132.79 C190.96 89.65, 227.22 48.1, 250.72 21.85 M154.28 132.79 C181.33 102.71, 206.86 71.8, 250.72 21.85 M164.91 132.76 C189.36 101.51, 215.86 73.26, 255.45 28.61 M164.91 132.76 C187.07 105.3, 212.69 78.78, 255.45 28.61 M175.54 132.72 C198.95 104.18, 224.02 74.88, 255.58 40.65 M175.54 132.72 C197.99 106.26, 219.73 80.98, 255.58 40.65 M186.17 132.69 C213.16 99.45, 238.62 69.87, 255.72 52.69 M186.17 132.69 C200.85 115.54, 215.98 99.63, 255.72 52.69 M196.8 132.65 C216.62 107.04, 238.68 83.41, 255.85 64.73 M196.8 132.65 C212.48 112.97, 230.92 94.28, 255.85 64.73 M207.43 132.62 C226.58 112.05, 240.31 91.6, 255.98 76.77 M207.43 132.62 C226.22 111.56, 244.22 90.64, 255.98 76.77 M221.34 128.81 C232.81 117.01, 242.12 102.98, 256.12 88.81 M221.34 128.81 C229.68 119.73, 238.07 108.89, 256.12 88.81 M233.94 126.51 C240.86 119.61, 248.28 111.52, 252.97 104.63 M233.94 126.51 C237.57 121.38, 241.24 117.77, 252.97 104.63" fill="none" stroke="#ffffff" stroke-width="1"></path><path d="M31.89 0 C87.19 -2.39, 138.6 -0.98, 219.26 0 M31.89 0 C90.09 -0.63, 149.98 -0.48, 219.26 0 M219.26 0 C239.95 -1.93, 251.22 12.47, 251.15 31.89 M219.26 0 C240.67 -2.14, 250.8 10.46, 251.15 31.89 M251.15 31.89 C249.2 50.64, 251.78 66.94, 251.15 95.68 M251.15 31.89 C250.64 55.64, 250.15 80.27, 251.15 95.68 M251.15 95.68 C251.95 115.36, 241.22 129.13, 219.26 127.57 M251.15 95.68 C252.66 115.22, 238.83 127.45, 219.26 127.57 M219.26 127.57 C169.73 126.91, 125.02 126.49, 31.89 127.57 M219.26 127.57 C147.84 128.37, 73.84 129.42, 31.89 127.57 M31.89 127.57 C12.28 127.18, -1.67 117.8, 0 95.68 M31.89 127.57 C8.46 126.75, 1.55 117.68, 0 95.68 M0 95.68 C-0.08 72.56, 2.37 48.81, 0 31.89 M0 95.68 C0.33 69.46, -1.38 44.65, 0 31.89 M0 31.89 C-1.37 11.95, 10.76 1.97, 31.89 0 M0 31.89 C-1 11.06, 11.81 -1.42, 31.89 0" fill="none" stroke="#1e1e1e" stroke-width="2"></path></g><g transform="translate(787.7257698730998 421.1188470973584) rotate(0 118.3251953125 37.5)"><text direction="ltr" dominant-baseline="text-before-edge" fill="#1e1e1e" font-family="Virgil, Segoe UI Emoji" font-size="20px" style="white-space: pre;" text-anchor="middle" x="118.3251953125" y="0">Watcher</text><text direction="ltr" dominant-baseline="text-before-edge" fill="#1e1e1e" font-family="Virgil, Segoe UI Emoji" font-size="20px" style="white-space: pre;" text-anchor="middle" x="118.3251953125" y="25">- polls for Jobs that should be</text><text direction="ltr" dominant-baseline="text-before-edge" fill="#1e1e1e" font-family="Virgil, Segoe UI Emoji" font-size="20px" style="white-space: pre;" text-anchor="middle" x="118.3251953125" y="50">executed soon</text></g><g stroke-linecap="round"><g transform="translate(1052.283811325741 454.6546290999804) rotate(0 36.28125 -0.10546875)"><path d="M-0.31 0.16 C12.09 0.41, 61.25 0.47, 73.3 0.51 M1.72 -0.8 C14.14 -0.81, 61.2 -1.09, 72.73 -1.24" fill="none" stroke="#1e1e1e" stroke-width="2"></path></g><g transform="translate(1052.283811325741 454.6546290999804) rotate(0 36.28125 -0.10546875)"><path d="M44.63 9.27 C50.7 8.43, 57.35 4.1, 72.73 -1.24 M44.63 9.27 C54.08 4.45, 64.21 2.67, 72.73 -1.24" fill="none" stroke="#1e1e1e" stroke-width="2"></path></g><g transform="translate(1052.283811325741 454.6546290999804) rotate(0 36.28125 -0.10546875)"><path d="M44.46 -11.25 C50.39 -7.92, 57.08 -8.07, 72.73 -1.24 M44.46 -11.25 C54.11 -8.91, 64.3 -3.52, 72.73 -1.24" fill="none" stroke="#1e1e1e" stroke-width="2"></path></g></g><mask></mask><g stroke-linecap="round" transform="translate(1134.687582371788 412.2796290999804) rotate(0 128.51953125 42.5)"><path d="M3.19 8.07 C3.19 8.07, 3.19 8.07, 3.19 8.07 M3.19 8.07 C3.19 8.07, 3.19 8.07, 3.19 8.07 M0.7 23.13 C7.4 13.75, 16.82 6, 20.38 0.49 M0.7 23.13 C8.5 13.93, 15.6 4.54, 20.38 0.49 M0.83 35.17 C10.58 23.54, 16.81 13.56, 31.01 0.46 M0.83 35.17 C7.03 27.1, 15.92 19.63, 31.01 0.46 M0.96 47.21 C15.29 28.81, 31.39 13.53, 41.64 0.42 M0.96 47.21 C15.45 28.85, 32.7 11.66, 41.64 0.42 M1.1 59.25 C14.7 44.45, 29.9 30.44, 52.27 0.39 M1.1 59.25 C19.84 37.1, 38.58 15.64, 52.27 0.39 M1.23 71.29 C19.85 51.48, 36.35 32.07, 62.9 0.35 M1.23 71.29 C15.96 54.98, 30.19 38.96, 62.9 0.35 M5.3 78.81 C32.02 48.43, 59.18 17.77, 73.53 0.32 M5.3 78.81 C20.37 61.27, 36.45 41.57, 73.53 0.32 M11.99 83.3 C27.27 63.02, 47.57 43.14, 84.16 0.28 M11.99 83.3 C27.78 64.82, 44.58 45.3, 84.16 0.28 M20.65 85.53 C37.51 62.83, 59.22 41.9, 94.79 0.25 M20.65 85.53 C40.15 62, 61.38 38.73, 94.79 0.25 M31.28 85.5 C60.69 52.66, 89.22 19.53, 105.42 0.21 M31.28 85.5 C57.78 52.89, 86.02 21.66, 105.42 0.21 M41.91 85.46 C69.45 50.77, 97.69 17.63, 116.05 0.18 M41.91 85.46 C57.18 66.27, 73.53 47.11, 116.05 0.18 M52.54 85.43 C70.13 65.33, 87.86 45.2, 126.68 0.14 M52.54 85.43 C70.7 65.05, 87.24 45.14, 126.68 0.14 M63.17 85.39 C87.15 54.61, 116.79 23.16, 137.31 0.11 M63.17 85.39 C83.06 62.86, 102.57 39.92, 137.31 0.11 M73.8 85.36 C96.01 58.28, 118.25 35.79, 147.94 0.08 M73.8 85.36 C101.12 53.42, 129.76 21.58, 147.94 0.08 M84.44 85.32 C104.94 64.72, 121.72 43.65, 157.91 0.8 M84.44 85.32 C101.66 66.49, 118.68 46.13, 157.91 0.8 M95.07 85.29 C114.72 64.89, 132.5 42.83, 168.54 0.76 M95.07 85.29 C116.53 61.48, 135.26 38.7, 168.54 0.76 M105.7 85.25 C122.53 66.51, 140.27 44.98, 179.17 0.73 M105.7 85.25 C123.67 64.68, 141.54 43.82, 179.17 0.73 M116.33 85.22 C133.13 67.76, 148.68 47.18, 189.8 0.69 M116.33 85.22 C145.58 51.47, 173.13 19.58, 189.8 0.69 M126.3 85.94 C153.74 53.36, 183.87 20.76, 200.43 0.66 M126.3 85.94 C144.95 64.9, 162.27 44.39, 200.43 0.66 M136.93 85.91 C156.1 61.62, 175.7 41.12, 211.06 0.62 M136.93 85.91 C163.97 55.36, 188.49 25.82, 211.06 0.62 M147.56 85.87 C165.81 65.4, 181.32 49.11, 221.69 0.59 M147.56 85.87 C166.83 63.53, 184.54 40.47, 221.69 0.59 M158.19 85.84 C178.04 62.72, 194.35 42.51, 232.32 0.55 M158.19 85.84 C180.2 59.16, 202.85 33.28, 232.32 0.55 M168.82 85.8 C183.93 65.73, 199.73 48.78, 242.3 1.27 M168.82 85.8 C195.85 55.83, 222.88 23.2, 242.3 1.27 M179.45 85.77 C197.49 62.43, 217.2 42.59, 250.3 4.26 M179.45 85.77 C194.94 68.25, 209.23 50.55, 250.3 4.26 M190.08 85.73 C209.57 65.6, 228.33 42.87, 254.37 11.77 M190.08 85.73 C211.11 61.95, 229.85 39.28, 254.37 11.77 M200.71 85.7 C218.62 62.34, 237.2 44.57, 257.13 20.79 M200.71 85.7 C221.83 61.88, 241.44 38.81, 257.13 20.79 M211.34 85.66 C224.91 72.39, 234.15 58.25, 257.26 32.83 M211.34 85.66 C224.05 70.39, 236.17 54.39, 257.26 32.83 M221.97 85.63 C233.33 71.98, 243.81 60.24, 257.4 44.88 M221.97 85.63 C236.65 69.17, 248.99 53.85, 257.4 44.88 M232.6 85.6 C239.93 77.12, 244.31 73.81, 257.53 56.92 M232.6 85.6 C240.58 76.56, 249.3 64.81, 257.53 56.92 M244.54 84.05 C247.23 81.65, 250.25 77.66, 257.01 69.71 M244.54 84.05 C247.95 79.69, 252.91 74.26, 257.01 69.71" fill="none" stroke="#ffffff" stroke-width="1"></path><path d="M21.25 0 C81.04 -2, 139.59 0.11, 235.79 0 M21.25 0 C99.53 2.62, 177.8 1, 235.79 0 M235.79 0 C249.65 -0.14, 256.84 6.7, 257.04 21.25 M235.79 0 C250.01 -2.1, 257.34 7.94, 257.04 21.25 M257.04 21.25 C256.91 29.79, 257.44 37.47, 257.04 63.75 M257.04 21.25 C257.56 38.92, 257.86 54.27, 257.04 63.75 M257.04 63.75 C255.57 77.81, 249.05 85.23, 235.79 85 M257.04 63.75 C254.95 75.9, 251.15 86.49, 235.79 85 M235.79 85 C165.84 86, 93.08 83.21, 21.25 85 M235.79 85 C155.89 85.01, 76.63 84.32, 21.25 85 M21.25 85 C8.44 85.64, 1.09 76.59, 0 63.75 M21.25 85 C7.89 84.42, -0.57 80.15, 0 63.75 M0 63.75 C0.66 56.01, -1.89 43.28, 0 21.25 M0 63.75 C0.36 52.23, -0.14 38.91, 0 21.25 M0 21.25 C1.03 5.85, 8.9 -0.48, 21.25 0 M0 21.25 C1.93 8.81, 5.5 0.48, 21.25 0" fill="none" stroke="#1e1e1e" stroke-width="2"></path></g><g transform="translate(1172.113363621788 442.2796290999804) rotate(0 91.09375 12.5)"><text direction="ltr" dominant-baseline="text-before-edge" fill="#1e1e1e" font-family="Virgil, Segoe UI Emoji" font-size="20px" style="white-space: pre;" text-anchor="middle" x="91.09375" y="0">Message Queue (SQS)</text></g><g stroke-linecap="round"><g transform="translate(1540.3736550757408 452.9532363615899) rotate(0 -70.70827072697625 0.08719451623176155)"><path d="M0.86 0.78 C-22.67 0.51, -118.05 -1.07, -141.76 -0.98 M-0.15 0.14 C-23.81 -0.07, -119.23 0.05, -142.89 -0.06" fill="none" stroke="#1e1e1e" stroke-width="2"></path></g><g transform="translate(1540.3736550757408 452.9532363615899) rotate(0 -70.70827072697625 0.08719451623176155)"><path d="M-114.69 -10.28 C-120.43 -8.08, -130.75 -4.86, -142.89 -0.06 M-114.69 -10.28 C-125.89 -6.61, -136.89 -2.72, -142.89 -0.06" fill="none" stroke="#1e1e1e" stroke-width="2"></path></g><g transform="translate(1540.3736550757408 452.9532363615899) rotate(0 -70.70827072697625 0.08719451623176155)"><path d="M-114.71 10.24 C-120.56 7.28, -130.87 5.33, -142.89 -0.06 M-114.71 10.24 C-125.92 5.87, -136.91 1.72, -142.89 -0.06" fill="none" stroke="#1e1e1e" stroke-width="2"></path></g></g><mask></mask><g transform="translate(1094.090573387515 518.907700464054) rotate(0 175.69982910156244 25)"><text direction="ltr" dominant-baseline="text-before-edge" fill="#1e1e1e" font-family="Virgil, Segoe UI Emoji" font-size="20px" style="white-space: pre;" text-anchor="start" x="0" y="0">- delivery delay until execution time</text><text direction="ltr" dominant-baseline="text-before-edge" fill="#1e1e1e" font-family="Virgil, Segoe UI Emoji" font-size="20px" style="white-space: pre;" text-anchor="start" x="0" y="25">- partition by execution time</text></g><g stroke-linecap="round" transform="translate(512.1396148545425 185.04063219735417) rotate(0 98.697265625 53.470703125)"><path d="M4.03 10.13 C4.03 10.13, 4.03 10.13, 4.03 10.13 M4.03 10.13 C4.03 10.13, 4.03 10.13, 4.03 10.13 M0.88 25.94 C5.66 18.17, 10.1 14.08, 22.53 1.04 M0.88 25.94 C8.22 15.7, 16.47 6.59, 22.53 1.04 M1.02 37.99 C14.11 25.4, 28.61 10.13, 33.82 0.25 M1.02 37.99 C9.45 27.82, 19.47 18.6, 33.82 0.25 M1.15 50.03 C15.09 34.73, 31.64 14.61, 44.45 0.22 M1.15 50.03 C11.5 39.49, 22.08 28.25, 44.45 0.22 M1.28 62.07 C21.74 37.33, 43.78 13.75, 55.08 0.18 M1.28 62.07 C13.2 48.05, 25.42 34.07, 55.08 0.18 M1.42 74.11 C23.56 48.96, 46.74 26.17, 65.71 0.15 M1.42 74.11 C15.71 58.17, 29.71 40.34, 65.71 0.15 M0.89 86.9 C26.34 59.16, 47.24 31.23, 76.34 0.11 M0.89 86.9 C29.78 55.2, 58.52 21.52, 76.34 0.11 M3.65 95.93 C28.73 68.23, 51.5 40.13, 86.97 0.08 M3.65 95.93 C32.44 63.19, 62.41 28.42, 86.97 0.08 M9.03 101.93 C39.84 67.11, 71.59 31.2, 97.6 0.04 M9.03 101.93 C38.64 67.56, 68.47 34.09, 97.6 0.04 M16.38 105.67 C42.98 73.66, 72.18 41.38, 108.23 0.01 M16.38 105.67 C48.99 66.47, 82.76 27.07, 108.23 0.01 M25.7 107.14 C60.41 65.93, 95.05 26.19, 118.86 -0.03 M25.7 107.14 C58.03 69.77, 90.64 31.47, 118.86 -0.03 M36.33 107.11 C63.95 73.82, 92.2 44.46, 128.84 0.69 M36.33 107.11 C70.84 68.43, 105.28 27.35, 128.84 0.69 M46.96 107.07 C77.2 72.96, 106.43 36.94, 139.47 0.66 M46.96 107.07 C76.63 71.88, 108.71 36.42, 139.47 0.66 M57.59 107.04 C86.6 75, 115.89 39.42, 150.1 0.63 M57.59 107.04 C80.54 79.89, 103.57 53.21, 150.1 0.63 M68.22 107 C94.39 78.17, 117.64 51.17, 160.73 0.59 M68.22 107 C93 78.73, 116.94 50.91, 160.73 0.59 M78.85 106.97 C99.66 80.01, 122.14 55.19, 171.36 0.56 M78.85 106.97 C99.38 84.97, 117.89 63.36, 171.36 0.56 M89.48 106.94 C117.76 74.27, 145.79 38.97, 180.67 2.03 M89.48 106.94 C122.57 68.54, 154.72 30.81, 180.67 2.03 M100.11 106.9 C126.88 72.59, 157.56 43.76, 188.68 5.02 M100.11 106.9 C121.16 83.06, 142.6 57.68, 188.68 5.02 M110.74 106.87 C137.18 75.61, 164.38 44.16, 194.06 11.02 M110.74 106.87 C137.06 74.94, 165.8 42.98, 194.06 11.02 M121.37 106.83 C135.17 87.03, 150.98 68.83, 196.82 20.04 M121.37 106.83 C143.95 80.21, 168.21 53.62, 196.82 20.04 M132 106.8 C157.75 75.16, 181.73 45.8, 197.61 31.33 M132 106.8 C152.16 81.32, 174.12 57.37, 197.61 31.33 M141.98 107.52 C160.33 83.53, 181.06 61.04, 197.74 43.37 M141.98 107.52 C157.04 88.64, 173.91 71.29, 197.74 43.37 M152.61 107.48 C170.06 89.66, 182.98 70.16, 197.87 55.41 M152.61 107.48 C166.9 90.34, 183.05 70.72, 197.87 55.41 M163.24 107.45 C176.76 91.53, 189.77 76.72, 198.01 67.45 M163.24 107.45 C173.24 97.05, 181.91 85.53, 198.01 67.45 M174.52 106.66 C180.34 98.12, 187.62 91.98, 197.48 80.24 M174.52 106.66 C179.55 99.44, 187.35 93.42, 197.48 80.24" fill="none" stroke="#ffffff" stroke-width="1"></path><path d="M26.74 0 C67.63 0.08, 102.98 -0.36, 170.66 0 M26.74 0 C68.9 -0.64, 111.14 0.65, 170.66 0 M170.66 0 C186.56 1.43, 195.96 8.48, 197.39 26.74 M170.66 0 C188.35 0.11, 196.14 11.15, 197.39 26.74 M197.39 26.74 C198.53 46.22, 195.48 61.63, 197.39 80.21 M197.39 26.74 C196.25 41.61, 197.68 58.89, 197.39 80.21 M197.39 80.21 C198.02 99.76, 187.68 108.18, 170.66 106.94 M197.39 80.21 C199.69 97.19, 187.12 108.53, 170.66 106.94 M170.66 106.94 C116.47 103.85, 59.84 107.09, 26.74 106.94 M170.66 106.94 C123.2 105.74, 74.78 106.96, 26.74 106.94 M26.74 106.94 C7.29 108.93, 1.43 99.11, 0 80.21 M26.74 106.94 C10.71 105.25, -2.13 97.9, 0 80.21 M0 80.21 C1.62 66.96, 0.02 56.49, 0 26.74 M0 80.21 C0.35 68.22, -1.17 54.93, 0 26.74 M0 26.74 C-1.88 10.14, 7.59 -1.49, 26.74 0 M0 26.74 C1.78 9.84, 9.24 -1.08, 26.74 0" fill="none" stroke="#1e1e1e" stroke-width="2"></path></g><g transform="translate(553.3612945420425 226.01133532235417) rotate(0 57.4755859375 12.5)"><text direction="ltr" dominant-baseline="text-before-edge" fill="#1e1e1e" font-family="Virgil, Segoe UI Emoji" font-size="20px" style="white-space: pre;" text-anchor="middle" x="57.4755859375" y="0">Query Service</text></g><g stroke-linecap="round"><g transform="translate(720.4273464804926 248.933780770657) rotate(0 45.30548925832454 -23.285791106315628)"><path d="M-0.18 -0.09 C14.88 -7.7, 75.35 -38.87, 90.49 -46.8 M-1.74 -1.18 C13.15 -8.51, 74.2 -37.76, 89.48 -45.38" fill="none" stroke="#1e1e1e" stroke-width="2"></path></g><g transform="translate(720.4273464804926 248.933780770657) rotate(0 45.30548925832454 -23.285791106315628)"><path d="M20.2 -22.1 C13.6 -15.59, 7.12 -8.59, -0.18 -0.09 M20.2 -22.1 C15.01 -16.71, 11.01 -13.06, -0.18 -0.09" fill="none" stroke="#1e1e1e" stroke-width="2"></path></g><g transform="translate(720.4273464804926 248.933780770657) rotate(0 45.30548925832454 -23.285791106315628)"><path d="M29.58 -3.85 C20.28 -2.94, 10.92 -1.54, -0.18 -0.09 M29.58 -3.85 C22.41 -2.23, 16.45 -2.38, -0.18 -0.09" fill="none" stroke="#1e1e1e" stroke-width="2"></path></g><g transform="translate(720.4273464804926 248.933780770657) rotate(0 45.30548925832454 -23.285791106315628)"><path d="M68.64 -23.8 C75.08 -30.59, 81.23 -36.95, 89.48 -45.38 M68.64 -23.8 C71.99 -27.66, 76.58 -33.1, 89.48 -45.38" fill="none" stroke="#1e1e1e" stroke-width="2"></path></g><g transform="translate(720.4273464804926 248.933780770657) rotate(0 45.30548925832454 -23.285791106315628)"><path d="M59.64 -42.24 C68.67 -43.36, 77.58 -44.07, 89.48 -45.38 M59.64 -42.24 C64.9 -42.29, 71.36 -43.88, 89.48 -45.38" fill="none" stroke="#1e1e1e" stroke-width="2"></path></g></g><mask></mask><g stroke-linecap="round" transform="translate(1549.2407658160446 380.66304706340543) rotate(0 72.099609375 68.462890625)"><path d="M7.86 8.16 C7.86 8.16, 7.86 8.16, 7.86 8.16 M7.86 8.16 C7.86 8.16, 7.86 8.16, 7.86 8.16 M1.43 27.75 C9.11 18.63, 13.2 11.1, 24.4 1.33 M1.43 27.75 C5.99 21.59, 13.15 16.1, 24.4 1.33 M0.91 40.54 C13.25 24.42, 27.37 11.41, 36.34 -0.21 M0.91 40.54 C13.43 24.44, 28.68 9.55, 36.34 -0.21 M1.04 52.58 C13.04 39.53, 26.68 27.32, 46.31 0.51 M1.04 52.58 C17.63 32.95, 34.16 14.03, 46.31 0.51 M1.18 64.62 C18.07 46.77, 32.88 29.28, 56.94 0.47 M1.18 64.62 C14.53 49.87, 27.35 35.47, 56.94 0.47 M1.31 76.67 C27.27 47.14, 53.67 17.35, 67.57 0.44 M1.31 76.67 C15.93 59.66, 31.55 40.49, 67.57 0.44 M1.44 88.71 C17.82 67.15, 39.25 45.96, 78.2 0.41 M1.44 88.71 C18.28 69, 36.12 48.28, 78.2 0.41 M0.92 101.5 C21.22 74.68, 46.45 49.69, 88.83 0.37 M0.92 101.5 C24.1 73.76, 49.08 46.16, 88.83 0.37 M1.05 113.54 C39.88 69.61, 77.94 25.53, 99.46 0.34 M1.05 113.54 C36.44 70.58, 73.6 29.09, 99.46 0.34 M3.81 122.56 C43.48 73.44, 84.1 26.05, 110.09 0.3 M3.81 122.56 C25.98 95.02, 49.49 67.61, 110.09 0.3 M8.54 129.32 C34.81 98.84, 61.42 68.48, 120.07 1.02 M8.54 129.32 C35.59 98.47, 61.02 68.33, 120.07 1.02 M15.23 133.82 C52.73 86.93, 96.23 39.52, 128.07 4.01 M15.23 133.82 C45.2 99.36, 74.9 64.7, 128.07 4.01 M23.89 136.05 C56.89 96.32, 90.06 61.24, 135.42 7.75 M23.89 136.05 C65.14 88.05, 107.78 40.12, 135.42 7.75 M33.87 136.77 C62.9 106.44, 88 75.79, 140.15 14.5 M33.87 136.77 C58.98 109.16, 83.75 79.89, 140.15 14.5 M44.5 136.73 C70.64 109, 94.79 79.61, 142.91 23.53 M44.5 136.73 C72.98 104.82, 98.55 74.18, 142.91 23.53 M55.13 136.7 C75.94 113.71, 97.49 87.81, 144.35 34.06 M55.13 136.7 C76.89 111.84, 98.58 86.59, 144.35 34.06 M65.76 136.66 C83.67 117.84, 100.35 95.94, 144.48 46.1 M65.76 136.66 C97.06 100.56, 126.68 66.3, 144.48 46.1 M76.39 136.63 C101.53 106.68, 129.4 76.68, 144.62 58.14 M76.39 136.63 C93.61 117.28, 109.49 98.43, 144.62 58.14 M86.36 137.35 C101.34 118.11, 116.69 102.5, 144.09 70.93 M86.36 137.35 C107.53 113.35, 126.37 90.36, 144.09 70.93 M96.99 137.31 C109.13 123.65, 118.54 114.39, 144.23 82.97 M96.99 137.31 C109.57 123.12, 120.31 108.09, 144.23 82.97 M107.62 137.28 C118.17 125.33, 125.05 115.95, 144.36 95.02 M107.62 137.28 C118.26 123.59, 129.32 111.04, 144.36 95.02 M118.91 136.49 C123.41 128.98, 128.67 124.16, 143.84 107.81 M118.91 136.49 C128.3 126.73, 137.41 114.72, 143.84 107.81 M134.79 130.42 C136.19 128.06, 138.14 126.95, 140.03 124.38 M134.79 130.42 C136.18 129.2, 136.9 127.87, 140.03 124.38" fill="none" stroke="#ffffff" stroke-width="1"></path><path d="M32 0 C54.45 0.13, 75.83 0.35, 112.2 0 M32 0 C58.33 -0.79, 86.04 -0.53, 112.2 0 M112.2 0 C132.44 1.95, 145 9.09, 144.2 32 M112.2 0 C134.34 1.79, 145.7 8.95, 144.2 32 M144.2 32 C144.39 46.71, 142.4 66.1, 144.2 104.93 M144.2 32 C144.03 59.23, 145.42 84.86, 144.2 104.93 M144.2 104.93 C143.01 127.64, 135.18 136.53, 112.2 136.93 M144.2 104.93 C142.27 127.25, 131.36 136.11, 112.2 136.93 M112.2 136.93 C81.39 138.07, 52.73 136.87, 32 136.93 M112.2 136.93 C81.06 138.26, 49.27 136.99, 32 136.93 M32 136.93 C8.82 136.81, -1.37 127.58, 0 104.93 M32 136.93 C10.82 139.2, -1 126.69, 0 104.93 M0 104.93 C-0.03 80.98, 1.95 52.29, 0 32 M0 104.93 C0.03 80.79, 1.46 58.55, 0 32 M0 32 C0.29 9.73, 9.05 -1.08, 32 0 M0 32 C-1.22 12, 8.62 -2.24, 32 0" fill="none" stroke="#1e1e1e" stroke-width="2"></path></g><g transform="translate(1560.7935001910446 424.12593768840543) rotate(0 60.546875 25)"><text direction="ltr" dominant-baseline="text-before-edge" fill="#1e1e1e" font-family="Virgil, Segoe UI Emoji" font-size="20px" style="white-space: pre;" text-anchor="middle" x="60.546875" y="0">worker</text><text direction="ltr" dominant-baseline="text-before-edge" fill="#1e1e1e" font-family="Virgil, Segoe UI Emoji" font-size="20px" style="white-space: pre;" text-anchor="middle" x="60.546875" y="25">- consume jobs</text></g><g stroke-linecap="round"><g transform="translate(1702.4673283160446 433.59273456340543) rotate(0 38.1015625 -51.3203125)"><path d="M0.16 0.45 C12.66 -16.33, 62.52 -84.56, 75.05 -101.78 M-1.22 -0.36 C11.63 -17.38, 63.99 -86.56, 77.15 -103.45" fill="none" stroke="#1e1e1e" stroke-width="2"></path></g><g transform="translate(1702.4673283160446 433.59273456340543) rotate(0 38.1015625 -51.3203125)"><path d="M68.15 -74.83 C71.88 -85.43, 75.29 -93.6, 77.15 -103.45 M68.15 -74.83 C70.13 -81.83, 73.58 -91.56, 77.15 -103.45" fill="none" stroke="#1e1e1e" stroke-width="2"></path></g><g transform="translate(1702.4673283160446 433.59273456340543) rotate(0 38.1015625 -51.3203125)"><path d="M51.86 -87.32 C60.4 -94.16, 68.74 -98.55, 77.15 -103.45 M51.86 -87.32 C58.36 -90.85, 66.35 -97.1, 77.15 -103.45" fill="none" stroke="#1e1e1e" stroke-width="2"></path></g></g><mask></mask><g stroke-linecap="round" transform="translate(1791.6560422318098 244.74995860336549) rotate(0 60.580078125 54.958984375)"><path d="M3.58 11.06 C3.58 11.06, 3.58 11.06, 3.58 11.06 M3.58 11.06 C3.58 11.06, 3.58 11.06, 3.58 11.06 M3.06 23.86 C6.15 16.64, 12.89 14.34, 22.08 1.97 M3.06 23.86 C10.16 15.17, 16.76 7.38, 22.08 1.97 M3.19 35.9 C11.81 21.89, 22.54 13.06, 31.4 3.45 M3.19 35.9 C10.49 26.88, 19.25 18.67, 31.4 3.45 M3.32 47.94 C17.18 30.2, 32.79 11.77, 42.03 3.41 M3.32 47.94 C16.24 34.1, 28.72 19.18, 42.03 3.41 M3.46 59.98 C20.1 39.7, 39.89 18.1, 52.66 3.38 M3.46 59.98 C21.75 38.41, 40.9 16.98, 52.66 3.38 M3.59 72.02 C18.5 55.07, 33.14 39.95, 63.29 3.34 M3.59 72.02 C17.71 53.99, 32.7 38.6, 63.29 3.34 M3.07 84.82 C27.27 57.45, 50.39 32.23, 73.92 3.31 M3.07 84.82 C25.43 58.87, 46.18 35.5, 73.92 3.31 M5.82 93.84 C29.12 64.24, 54.01 37.55, 83.89 4.03 M5.82 93.84 C22.48 74.41, 39.35 54.67, 83.89 4.03 M7.93 103.62 C39.92 65.49, 69.16 30.72, 94.52 3.99 M7.93 103.62 C26.32 81.31, 43.72 59.66, 94.52 3.99 M13.96 108.86 C35.34 84.01, 54.74 60.72, 106.47 2.45 M13.96 108.86 C42.32 77.25, 69.38 45.95, 106.47 2.45 M22.62 111.09 C54.76 77.48, 84.33 40.66, 113.16 6.94 M22.62 111.09 C56.5 70.22, 90.22 32.55, 113.16 6.94 M33.25 111.06 C56.99 86.27, 78.95 60.51, 119.85 11.44 M33.25 111.06 C57.91 83.12, 81.11 55.35, 119.85 11.44 M43.88 111.02 C68.72 80.63, 94.53 52.74, 123.92 18.95 M43.88 111.02 C68.5 84.84, 92.38 56.59, 123.92 18.95 M54.51 110.99 C80.83 79.76, 109.88 48.53, 124.71 30.24 M54.51 110.99 C78.94 83.83, 103.64 55.62, 124.71 30.24 M65.14 110.96 C87.2 89.91, 105.39 64.11, 124.19 43.03 M65.14 110.96 C85.08 87.13, 106.94 63.6, 124.19 43.03 M75.78 110.92 C89.04 94.77, 103.75 78.23, 124.32 55.07 M75.78 110.92 C87.02 99.9, 96.82 88.29, 124.32 55.07 M85.75 111.64 C95.07 100.44, 104.79 85.65, 124.46 67.11 M85.75 111.64 C99.72 95.36, 113.09 80.46, 124.46 67.11 M96.38 111.61 C106.78 102.69, 114.95 90.84, 123.93 79.91 M96.38 111.61 C107 100.6, 114.93 89.77, 123.93 79.91" fill="none" stroke="#ffffff" stroke-width="1"></path><path d="M27.48 0 C49.64 -0.8, 68.51 0.52, 93.68 0 M27.48 0 C48.05 -1.43, 68.17 0.14, 93.68 0 M93.68 0 C113.31 -1.5, 119.69 9.05, 121.16 27.48 M93.68 0 C110.96 0.26, 119.07 7.14, 121.16 27.48 M121.16 27.48 C123.25 46.03, 122.76 68.18, 121.16 82.44 M121.16 27.48 C121.66 41.77, 120 56.88, 121.16 82.44 M121.16 82.44 C119.27 100.05, 113.35 110.56, 93.68 109.92 M121.16 82.44 C122.42 99.24, 112.81 109.34, 93.68 109.92 M93.68 109.92 C77.46 110.81, 58.33 110.95, 27.48 109.92 M93.68 109.92 C78 110.54, 63.76 110.87, 27.48 109.92 M27.48 109.92 C8.29 110.29, 1.03 99.52, 0 82.44 M27.48 109.92 C11.25 109.37, 1.93 102.48, 0 82.44 M0 82.44 C1.11 68.4, -1.61 58.56, 0 27.48 M0 82.44 C-0.88 63.19, -0.61 45.6, 0 27.48 M0 27.48 C-1.78 7.21, 8.49 1.71, 27.48 0 M0 27.48 C2.09 9.73, 8.38 -0.7, 27.48 0" fill="none" stroke="#1e1e1e" stroke-width="2"></path></g><g transform="translate(1806.4255734818098 287.2089429783655) rotate(0 45.810546875 12.5)"><text direction="ltr" dominant-baseline="text-before-edge" fill="#1e1e1e" font-family="Virgil, Segoe UI Emoji" font-size="20px" style="white-space: pre;" text-anchor="middle" x="45.810546875" y="0">execute job</text></g><g stroke-linecap="round" transform="translate(1793.7544376910446 393.94625018840543) rotate(0 60.580078125 54.958984375)"><path d="M3.58 11.06 C3.58 11.06, 3.58 11.06, 3.58 11.06 M3.58 11.06 C3.58 11.06, 3.58 11.06, 3.58 11.06 M1.09 26.12 C7.6 21.67, 10.52 14.68, 22.74 1.22 M1.09 26.12 C7.26 20.88, 12.29 13.07, 22.74 1.22 M1.22 38.16 C8.39 28.79, 14.59 19.78, 34.02 0.43 M1.22 38.16 C11.4 27.98, 20.64 15.99, 34.02 0.43 M1.35 50.2 C15.33 34.71, 26.59 20.34, 44.65 0.39 M1.35 50.2 C15.99 33.46, 29.78 16.98, 44.65 0.39 M0.83 63 C20.59 43.99, 35.28 20.91, 55.28 0.36 M0.83 63 C16.97 42.83, 34.51 24.79, 55.28 0.36 M0.96 75.04 C14.71 56.25, 33.01 37.98, 65.91 0.32 M0.96 75.04 C14.49 58.92, 27.42 44.9, 65.91 0.32 M1.1 87.08 C18 66.33, 36.46 48.13, 76.54 0.29 M1.1 87.08 C17.95 67.48, 34.78 47.94, 76.54 0.29 M3.2 96.86 C25.22 71.86, 50.43 44.88, 87.18 0.25 M3.2 96.86 C31.16 65.56, 58.39 33.3, 87.18 0.25 M7.93 103.62 C28.53 80.53, 52.88 55.48, 97.81 0.22 M7.93 103.62 C32.82 74.42, 59.42 46.74, 97.81 0.22 M15.27 107.35 C36.67 82.03, 59.35 59.33, 106.47 2.45 M15.27 107.35 C44.45 73.02, 73.21 40.83, 106.47 2.45 M23.94 109.58 C56.61 74.95, 88.2 38.27, 113.82 6.19 M23.94 109.58 C41.78 87.66, 60.75 67.47, 113.82 6.19 M34.57 109.55 C64.06 74.23, 95.25 40.09, 118.54 12.95 M34.57 109.55 C64.38 76.78, 92.94 42.96, 118.54 12.95 M45.2 109.51 C65.56 84.77, 84.89 63.22, 120.64 22.72 M45.2 109.51 C73.39 76.94, 100.12 45.07, 120.64 22.72 M55.83 109.48 C72.71 89.96, 87.72 71.66, 121.43 34.01 M55.83 109.48 C77.19 84.71, 97.6 61.27, 121.43 34.01 M65.8 110.2 C87.69 85.23, 105.89 60.43, 121.57 46.05 M65.8 110.2 C77.35 96.42, 89.43 82.55, 121.57 46.05 M76.43 110.17 C89.41 91.6, 107.21 78.27, 121.04 58.85 M76.43 110.17 C92.12 92.06, 108.94 71.88, 121.04 58.85 M87.06 110.13 C100.38 98.37, 110.04 84.25, 121.18 70.89 M87.06 110.13 C95.04 100.53, 102.78 92.72, 121.18 70.89 M98.35 109.34 C107.86 98.63, 116.21 91.36, 121.31 82.93 M98.35 109.34 C105.77 101.5, 111.95 92.83, 121.31 82.93" fill="none" stroke="#ffffff" stroke-width="1"></path><path d="M27.48 0 C42.67 -1.06, 59.62 0.84, 93.68 0 M27.48 0 C42.77 -1.26, 56.03 -0.57, 93.68 0 M93.68 0 C111.1 0.23, 119.35 7.4, 121.16 27.48 M93.68 0 C113.2 1.49, 121.88 11.15, 121.16 27.48 M121.16 27.48 C120.77 40.58, 122.88 57.7, 121.16 82.44 M121.16 27.48 C119.76 42.54, 121.38 58.62, 121.16 82.44 M121.16 82.44 C122.25 99.43, 112.71 109.41, 93.68 109.92 M121.16 82.44 C120.59 102.99, 110.14 112.21, 93.68 109.92 M93.68 109.92 C67.62 108.59, 44.39 109.06, 27.48 109.92 M93.68 109.92 C69.02 110.76, 45.75 109.95, 27.48 109.92 M27.48 109.92 C10.98 109.44, 1.68 102.26, 0 82.44 M27.48 109.92 C7.58 110.4, -2.17 102.17, 0 82.44 M0 82.44 C1.22 69.86, -0.53 55.11, 0 27.48 M0 82.44 C-0.6 67.94, -0.04 56.25, 0 27.48 M0 27.48 C1.82 9.66, 8.48 -0.6, 27.48 0 M0 27.48 C1.34 9.59, 11.44 -1.44, 27.48 0" fill="none" stroke="#1e1e1e" stroke-width="2"></path></g><g transform="translate(1808.5239689410446 436.40523456340543) rotate(0 45.810546875 12.5)"><text direction="ltr" dominant-baseline="text-before-edge" fill="#1e1e1e" font-family="Virgil, Segoe UI Emoji" font-size="20px" style="white-space: pre;" text-anchor="middle" x="45.810546875" y="0">execute job</text></g><g stroke-linecap="round" transform="translate(1797.8677189410446 564.2599641041697) rotate(0 60.580078125 54.958984375)"><path d="M3.58 11.06 C3.58 11.06, 3.58 11.06, 3.58 11.06 M3.58 11.06 C3.58 11.06, 3.58 11.06, 3.58 11.06 M1.09 26.12 C8.2 15.98, 17.14 8.93, 22.74 1.22 M1.09 26.12 C8.43 15.94, 18.42 7.1, 22.74 1.22 M1.22 38.16 C9.82 28.81, 20.18 20.37, 34.02 0.43 M1.22 38.16 C13.26 23.83, 25.12 10.29, 34.02 0.43 M1.35 50.2 C14.58 36.46, 25.86 23.06, 44.65 0.39 M1.35 50.2 C11.79 38.75, 21.65 27.77, 44.65 0.39 M0.83 63 C22.18 38.61, 44.08 14, 55.28 0.36 M0.83 63 C12.74 49.19, 25.62 33.17, 55.28 0.36 M0.96 75.04 C14.53 56.76, 33.04 38.93, 65.91 0.32 M0.96 75.04 C15.1 58.48, 30.27 40.84, 65.91 0.32 M1.1 87.08 C18.29 63.99, 40.32 42.67, 76.54 0.29 M1.1 87.08 C20.95 63.15, 42.53 39.47, 76.54 0.29 M3.2 96.86 C36.42 59.53, 68.82 21.96, 87.18 0.25 M3.2 96.86 C33.3 60.05, 65.16 24.66, 87.18 0.25 M7.93 103.62 C41.41 61.86, 75.7 21.73, 97.81 0.22 M7.93 103.62 C26.57 80.33, 46.43 57.13, 97.81 0.22 M15.27 107.35 C36.82 82.52, 58.6 57.72, 106.47 2.45 M15.27 107.35 C37.49 82.2, 58.08 57.63, 106.47 2.45 M23.94 109.58 C53.41 72.25, 88.69 34.31, 113.82 6.19 M23.94 109.58 C47.92 82.2, 71.58 54.5, 113.82 6.19 M34.57 109.55 C59.62 79.15, 84.73 53.34, 118.54 12.95 M34.57 109.55 C65.55 73.38, 97.88 37.31, 118.54 12.95 M45.2 109.51 C66.21 88.33, 83.49 66.68, 120.64 22.72 M45.2 109.51 C62.89 90.16, 80.38 69.26, 120.64 22.72 M55.83 109.48 C73.43 91.4, 89.2 71.65, 121.43 34.01 M55.83 109.48 C75.07 88.23, 91.64 67.93, 121.43 34.01 M65.8 110.2 C78.16 96.22, 91.62 79.63, 121.57 46.05 M65.8 110.2 C79.51 94.44, 93.08 78.52, 121.57 46.05 M76.43 110.17 C87.16 100.2, 96.42 86.85, 121.04 58.85 M76.43 110.17 C94.38 89.36, 110.59 70.53, 121.04 58.85 M87.06 110.13 C98.92 95.41, 113.74 80.43, 121.18 70.89 M87.06 110.13 C96.05 100.55, 103.61 91.27, 121.18 70.89 M98.35 109.34 C104.45 100.79, 110.77 95.56, 121.31 82.93 M98.35 109.34 C107.09 99.23, 113.86 90.11, 121.31 82.93" fill="none" stroke="#ffffff" stroke-width="1"></path><path d="M27.48 0 C42.14 0.43, 61.51 1.04, 93.68 0 M27.48 0 C41.93 0.15, 56.38 -0.84, 93.68 0 M93.68 0 C113.04 1.3, 121.78 10.89, 121.16 27.48 M93.68 0 C111.08 1.43, 123.46 8.32, 121.16 27.48 M121.16 27.48 C121.15 39.04, 122.4 52.05, 121.16 82.44 M121.16 27.48 C122.08 41.35, 121.88 56.29, 121.16 82.44 M121.16 82.44 C120.66 102.7, 110.38 111.91, 93.68 109.92 M121.16 82.44 C122.8 102, 113.8 108.23, 93.68 109.92 M93.68 109.92 C81.26 109.6, 68.18 108.59, 27.48 109.92 M93.68 109.92 C73.5 109.27, 52.34 110.26, 27.48 109.92 M27.48 109.92 C7.79 110.33, -1.88 101.99, 0 82.44 M27.48 109.92 C7.64 108.2, 1.78 101.69, 0 82.44 M0 82.44 C-0.82 64.11, 1.42 46.12, 0 27.48 M0 82.44 C1.1 71.56, -0.15 59.88, 0 27.48 M0 27.48 C1.16 9.53, 11.14 -1.25, 27.48 0 M0 27.48 C-0.7 8.7, 8.65 -2.18, 27.48 0" fill="none" stroke="#1e1e1e" stroke-width="2"></path></g><g transform="translate(1812.6372501910446 606.7189484791697) rotate(0 45.810546875 12.5)"><text direction="ltr" dominant-baseline="text-before-edge" fill="#1e1e1e" font-family="Virgil, Segoe UI Emoji" font-size="20px" style="white-space: pre;" text-anchor="middle" x="45.810546875" y="0">execute job</text></g><g stroke-linecap="round"><g transform="translate(1702.8696720660446 454.35835956340543) rotate(0 39.7421875 0)"><path d="M0.79 -0.9 C13.82 -1.06, 65.58 -0.24, 78.6 -0.06 M-0.26 1.24 C13.11 1.19, 67.83 1.39, 80.85 1.44" fill="none" stroke="#1e1e1e" stroke-width="2"></path></g><g transform="translate(1702.8696720660446 454.35835956340543) rotate(0 39.7421875 0)"><path d="M52.63 11.6 C60.51 6.55, 71.35 3.71, 80.85 1.44 M52.63 11.6 C62.03 9.33, 70.61 6.39, 80.85 1.44" fill="none" stroke="#1e1e1e" stroke-width="2"></path></g><g transform="translate(1702.8696720660446 454.35835956340543) rotate(0 39.7421875 0)"><path d="M52.7 -8.92 C60.71 -7.1, 71.53 -3.07, 80.85 1.44 M52.7 -8.92 C61.89 -4.8, 70.45 -1.36, 80.85 1.44" fill="none" stroke="#1e1e1e" stroke-width="2"></path></g></g><mask></mask><g stroke-linecap="round"><g transform="translate(1703.9634220660446 483.31148456340543) rotate(0 39.23828125 67.58484139794155)"><path d="M-0.88 -0.06 C11.98 22.64, 64.89 112.94, 77.94 135.31 M0.86 -1.14 C13.44 21.85, 63.56 114.24, 76.7 136.91" fill="none" stroke="#1e1e1e" stroke-width="2"></path></g><g transform="translate(1703.9634220660446 483.31148456340543) rotate(0 39.23828125 67.58484139794155)"><path d="M54.01 117.3 C62.05 123.73, 70.67 129.99, 76.7 136.91 M54.01 117.3 C59.24 122.18, 63.34 126.1, 76.7 136.91" fill="none" stroke="#1e1e1e" stroke-width="2"></path></g><g transform="translate(1703.9634220660446 483.31148456340543) rotate(0 39.23828125 67.58484139794155)"><path d="M71.92 107.3 C73.34 117.25, 75.42 127.16, 76.7 136.91 M71.92 107.3 C73.4 114.42, 73.71 120.46, 76.7 136.91" fill="none" stroke="#1e1e1e" stroke-width="2"></path></g></g><mask></mask><g stroke-linecap="round"><g transform="translate(1835.2447189819936 231.97920918753243) rotate(0 -285.6260318187452 -57.13644433600666)"><path d="M-0.54 0.14 C-29.17 -19.07, -77.64 -96.87, -172.66 -115.33 C-267.67 -133.78, -504.26 -111.44, -570.63 -110.61 M1.38 -0.84 C-26.82 -19.93, -75.11 -95.72, -170.52 -114.34 C-265.92 -132.96, -504.41 -112.87, -571.06 -112.54" fill="none" stroke="#1e1e1e" stroke-width="2"></path></g><g transform="translate(1835.2447189819936 231.97920918753243) rotate(0 -285.6260318187452 -57.13644433600666)"><path d="M-543.32 -123.96 C-549.39 -123.31, -557.66 -117.86, -571.06 -112.54 M-543.32 -123.96 C-553.81 -118.93, -562.54 -115.75, -571.06 -112.54" fill="none" stroke="#1e1e1e" stroke-width="2"></path></g><g transform="translate(1835.2447189819936 231.97920918753243) rotate(0 -285.6260318187452 -57.13644433600666)"><path d="M-542.47 -103.45 C-548.72 -107.46, -557.18 -106.66, -571.06 -112.54 M-542.47 -103.45 C-553.34 -105.9, -562.37 -110.2, -571.06 -112.54" fill="none" stroke="#1e1e1e" stroke-width="2"></path></g></g><mask></mask><g transform="translate(1516.527181161549 58.81934588553577) rotate(0 73.59992980957031 12.5)"><text direction="ltr" dominant-baseline="text-before-edge" fill="#1e1e1e" font-family="Virgil, Segoe UI Emoji" font-size="20px" style="white-space: pre;" text-anchor="start" x="0" y="0">update status</text></g><g stroke-linecap="round" transform="translate(10 121.27111257574688) rotate(0 61.80078125 35.58203125)"><path d="M4.74 4.12 C4.74 4.12, 4.74 4.12, 4.74 4.12 M4.74 4.12 C4.74 4.12, 4.74 4.12, 4.74 4.12 M0.28 21.44 C6.09 11.8, 14.46 5.23, 18.65 0.31 M0.28 21.44 C7.73 12.97, 13.71 5.34, 18.65 0.31 M0.41 33.48 C6.36 25.4, 16.11 16.54, 29.28 0.27 M0.41 33.48 C8.44 23.7, 16.31 15.49, 29.28 0.27 M0.54 45.52 C9.89 31.48, 22.81 18.54, 39.91 0.24 M0.54 45.52 C15.31 29.79, 28.81 13.89, 39.91 0.24 M0.68 57.56 C15.85 41.15, 25.69 26.96, 50.54 0.21 M0.68 57.56 C16.74 39.68, 32.43 21.18, 50.54 0.21 M4.09 65.83 C20.58 49.33, 33.27 30.08, 60.51 0.93 M4.09 65.83 C24.57 42.05, 43.74 19.03, 60.51 0.93 M10.78 70.32 C34.24 45.39, 56.33 19.78, 71.14 0.89 M10.78 70.32 C28.76 49.23, 46.28 26.83, 71.14 0.89 M20.76 71.04 C43.17 48.14, 61.79 22.09, 81.77 0.86 M20.76 71.04 C38.06 53.48, 52.65 34.86, 81.77 0.86 M31.39 71.01 C45.67 57.02, 58.32 41.4, 92.4 0.82 M31.39 71.01 C50.91 49.32, 71.23 26.28, 92.4 0.82 M42.02 70.98 C57.83 54.38, 69.17 36.62, 103.03 0.79 M42.02 70.98 C64.38 46.61, 86.51 21.32, 103.03 0.79 M52.65 70.94 C75.05 46.53, 96.79 19.3, 113 1.51 M52.65 70.94 C74.91 44.74, 96.72 19.14, 113 1.51 M63.28 70.91 C82.47 48.8, 105.16 25.81, 119.7 6 M63.28 70.91 C77.96 52.93, 93.49 36.23, 119.7 6 M73.25 71.63 C83.41 58.95, 95.91 47.32, 123.77 13.51 M73.25 71.63 C86.32 56.67, 101.7 39.73, 123.77 13.51 M83.88 71.59 C91.2 59.2, 100.75 51.22, 123.9 25.55 M83.88 71.59 C92.53 61.31, 101.13 51.68, 123.9 25.55 M94.51 71.56 C105.67 62.6, 115.29 51.42, 123.38 38.35 M94.51 71.56 C104.7 59.46, 114.96 47.63, 123.38 38.35 M105.14 71.52 C107.82 68.05, 111.52 62.77, 123.51 50.39 M105.14 71.52 C111.11 65.53, 117.49 58.41, 123.51 50.39" fill="none" stroke="#ffffff" stroke-width="1"></path><path d="M17.79 0 C37.51 0.16, 56.36 -1.26, 105.81 0 M17.79 0 C49.06 1.01, 82.34 0.12, 105.81 0 M105.81 0 C116 0.86, 121.71 5.22, 123.6 17.79 M105.81 0 C119.23 0.74, 124.86 4.41, 123.6 17.79 M123.6 17.79 C125.46 28.1, 125.5 43.08, 123.6 53.37 M123.6 17.79 C122.95 30.33, 123.19 43.65, 123.6 53.37 M123.6 53.37 C123.73 67.21, 116.8 71.54, 105.81 71.16 M123.6 53.37 C124.79 63.81, 119.76 70.62, 105.81 71.16 M105.81 71.16 C72.42 68.68, 39.43 69.24, 17.79 71.16 M105.81 71.16 C86.13 71.05, 65.35 70.98, 17.79 71.16 M17.79 71.16 C4.87 72.33, -1.78 63.28, 0 53.37 M17.79 71.16 C5.16 73.13, 2.09 65.8, 0 53.37 M0 53.37 C0.48 45.89, -1.14 33.82, 0 17.79 M0 53.37 C-0.49 43.37, 0.82 34.24, 0 17.79 M0 17.79 C1.08 4.81, 4.3 -0.82, 17.79 0 M0 17.79 C-1.41 8.05, 3.68 -1.58, 17.79 0" fill="none" stroke="#1e1e1e" stroke-width="2"></path></g><g transform="translate(49.5888671875 144.35314382574688) rotate(0 22.2119140625 12.5)"><text direction="ltr" dominant-baseline="text-before-edge" fill="#1e1e1e" font-family="Virgil, Segoe UI Emoji" font-size="20px" style="white-space: pre;" text-anchor="middle" x="22.2119140625" y="0">client</text></g><g stroke-linecap="round" transform="translate(223.38525405024757 10) rotate(0 46.47715554850492 143.3449778590912)"><path d="M5.53 6.13 C5.53 6.13, 5.53 6.13, 5.53 6.13 M5.53 6.13 C5.53 6.13, 5.53 6.13, 5.53 6.13 M0.41 24.21 C6.52 20.66, 11.33 15.13, 20.75 0.81 M0.41 24.21 C5.04 18.76, 10.25 11.97, 20.75 0.81 M0.55 36.25 C10.18 25.7, 19.71 13.26, 31.38 0.78 M0.55 36.25 C6.9 29.54, 14.45 20.29, 31.38 0.78 M0.68 48.29 C12.75 34.52, 20.98 23.83, 42.01 0.75 M0.68 48.29 C14.75 31.08, 28.68 16.19, 42.01 0.75 M0.81 60.33 C13.91 47, 23.92 32.59, 52.64 0.71 M0.81 60.33 C18.97 39.28, 36.8 19.08, 52.64 0.71 M0.29 73.13 C23.99 48.35, 44.36 23.82, 63.27 0.68 M0.29 73.13 C14.4 57.63, 27.89 43.58, 63.27 0.68 M0.42 85.17 C26.45 55.99, 53.96 24.75, 73.9 0.64 M0.42 85.17 C26.07 56.56, 51.33 29.62, 73.9 0.64 M0.56 97.21 C29.24 62.46, 57.7 32.01, 82.56 2.87 M0.56 97.21 C27.61 65.71, 55.09 34.88, 82.56 2.87 M0.69 109.25 C31.23 74.88, 59.76 39.38, 88.6 8.12 M0.69 109.25 C31.97 72.42, 65.49 35.2, 88.6 8.12 M0.82 121.29 C33.96 84.79, 63.06 50.51, 92.02 16.39 M0.82 121.29 C32.66 84.17, 63.88 48.03, 92.02 16.39 M0.3 134.09 C30.77 101.49, 60.4 67.37, 92.8 27.67 M0.3 134.09 C27.7 103.7, 53.13 72.74, 92.8 27.67 M0.43 146.13 C31.15 110.42, 62.27 71.32, 92.94 39.71 M0.43 146.13 C24.24 118.06, 48.69 89.51, 92.94 39.71 M0.57 158.17 C27.43 126.59, 55.02 92.73, 93.07 51.76 M0.57 158.17 C35.7 116.46, 72.37 72.95, 93.07 51.76 M0.7 170.21 C19.28 147.34, 39.31 125.35, 93.2 63.8 M0.7 170.21 C21.53 145.89, 41.2 123.56, 93.2 63.8 M0.83 182.25 C37.07 139.46, 74.12 98.84, 93.34 75.84 M0.83 182.25 C23.53 155.86, 49.27 127.05, 93.34 75.84 M0.31 195.05 C35.1 156.61, 67.3 117.72, 93.47 87.88 M0.31 195.05 C33.14 156.66, 66.36 117.85, 93.47 87.88 M0.44 207.09 C37.07 166.33, 73.55 122.77, 92.95 100.67 M0.44 207.09 C27.24 174.83, 55.2 143.49, 92.95 100.67 M0.58 219.13 C20.09 198.08, 39.37 175.37, 93.08 112.71 M0.58 219.13 C31.08 181.3, 63.35 145.47, 93.08 112.71 M0.71 231.17 C35.06 190.43, 72.28 149.7, 93.21 124.76 M0.71 231.17 C19.53 209.67, 38.67 187.95, 93.21 124.76 M0.84 243.21 C36.2 202.69, 74.64 161.94, 93.35 136.8 M0.84 243.21 C21.03 218.48, 40.65 196.38, 93.35 136.8 M0.32 256.01 C36.02 216.85, 66.76 179.97, 93.48 148.84 M0.32 256.01 C28.38 222.42, 57.68 188.42, 93.48 148.84 M0.45 268.05 C26.73 237.59, 50.96 208.94, 93.61 160.88 M0.45 268.05 C34.08 228.15, 69.76 187.41, 93.61 160.88 M3.87 276.31 C38.33 238.94, 74.99 197.18, 93.09 173.67 M3.87 276.31 C23.09 253.58, 42.47 230.94, 93.09 173.67 M8.59 283.07 C29.11 256.97, 51.42 234.34, 93.22 185.71 M8.59 283.07 C39.05 246, 71.41 209.78, 93.22 185.71 M16.6 286.06 C33.21 266.46, 52.24 248.67, 93.36 197.75 M16.6 286.06 C45.73 251.53, 76.4 215.45, 93.36 197.75 M26.57 286.78 C48.11 263.64, 71.35 237.41, 93.49 209.8 M26.57 286.78 C48.07 260.52, 69.35 237.32, 93.49 209.8 M37.2 286.74 C54.84 266.54, 72.76 246.48, 93.62 221.84 M37.2 286.74 C58.13 262.87, 77.59 239.2, 93.62 221.84 M47.83 286.71 C60.39 273.47, 69.34 260.77, 93.1 234.63 M47.83 286.71 C61.7 271.44, 75.16 254.25, 93.1 234.63 M58.46 286.67 C71.33 269.72, 87.26 256.44, 93.23 246.67 M58.46 286.67 C67.43 274.34, 78.33 263.34, 93.23 246.67 M69.09 286.64 C74.54 280.41, 78.5 274.17, 93.37 258.71 M69.09 286.64 C77.61 276.2, 86.73 266.44, 93.37 258.71 M82.35 283.58 C84.61 280.18, 89 277.45, 91.53 273.02 M82.35 283.58 C84.22 281.15, 86.68 279.54, 91.53 273.02" fill="none" stroke="#ffffff" stroke-width="1"></path><path d="M23.24 0 C39.87 2.18, 53.29 -1, 69.72 0 M23.24 0 C39.55 0.52, 56.59 -0.26, 69.72 0 M69.72 0 C86.56 0.64, 94.05 6.42, 92.95 23.24 M69.72 0 C86.02 -0.58, 92.38 9.98, 92.95 23.24 M92.95 23.24 C95.85 77.16, 93.72 126.93, 92.95 263.45 M92.95 23.24 C91.64 94.77, 91.22 164.81, 92.95 263.45 M92.95 263.45 C93.98 277.71, 87.03 286.21, 69.72 286.69 M92.95 263.45 C94.89 280.67, 83.63 287.17, 69.72 286.69 M69.72 286.69 C58.66 287.93, 51.39 286.67, 23.24 286.69 M69.72 286.69 C57.42 287.02, 45.3 285.46, 23.24 286.69 M23.24 286.69 C7.07 288.4, 1.82 279.44, 0 263.45 M23.24 286.69 C6.97 285.99, 1.34 279.37, 0 263.45 M0 263.45 C0.92 167.19, -0.33 70.7, 0 23.24 M0 263.45 C-1.03 191.89, -2.16 120.91, 0 23.24 M0 23.24 C-1.22 9.59, 5.79 -1.37, 23.24 0 M0 23.24 C-0.17 10.03, 9.46 1.75, 23.24 0" fill="none" stroke="#1e1e1e" stroke-width="2"></path></g><g transform="translate(236.5469799112525 128.3449778590912) rotate(0 33.3154296875 25)"><text direction="ltr" dominant-baseline="text-before-edge" fill="#1e1e1e" font-family="Virgil, Segoe UI Emoji" font-size="20px" style="white-space: pre;" text-anchor="middle" x="33.3154296875" y="0">api</text><text direction="ltr" dominant-baseline="text-before-edge" fill="#1e1e1e" font-family="Virgil, Segoe UI Emoji" font-size="20px" style="white-space: pre;" text-anchor="middle" x="33.3154296875" y="25">gateway</text></g><g stroke-linecap="round"><g transform="translate(337.95024823652466 148.8254995576026) rotate(0 80.37115011700234 -32.611960363182334)"><path d="M-0.71 0.83 C26.04 -10.01, 134.99 -54.54, 161.73 -65.46 M1.12 0.22 C27.7 -10.4, 134.47 -52.88, 161.3 -64.04" fill="none" stroke="#1e1e1e" stroke-width="2"></path></g><g transform="translate(337.95024823652466 148.8254995576026) rotate(0 80.37115011700234 -32.611960363182334)"><path d="M139.04 -43.94 C149.39 -50.2, 156.53 -61.56, 161.3 -64.04 M139.04 -43.94 C147.54 -50.44, 155.06 -58.32, 161.3 -64.04" fill="none" stroke="#1e1e1e" stroke-width="2"></path></g><g transform="translate(337.95024823652466 148.8254995576026) rotate(0 80.37115011700234 -32.611960363182334)"><path d="M131.32 -62.96 C144.7 -61.56, 154.91 -65.32, 161.3 -64.04 M131.32 -62.96 C142.3 -62.9, 152.46 -64.26, 161.3 -64.04" fill="none" stroke="#1e1e1e" stroke-width="2"></path></g></g><mask></mask><g stroke-linecap="round"><g transform="translate(140.27197545416084 155.28489391676703) rotate(0 39.47190311800534 0)"><path d="M0.99 -0.24 C14.1 -0.29, 65.14 0.55, 77.94 0.52 M0.05 -1.4 C13.59 -1.89, 66.78 -1.68, 80.12 -1.33" fill="none" stroke="#1e1e1e" stroke-width="2"></path></g><g transform="translate(140.27197545416084 155.28489391676703) rotate(0 39.47190311800534 0)"><path d="M29.29 -10.2 C22.15 -9.24, 16.59 -7.06, 0.99 -0.24 M29.29 -10.2 C22.42 -8.14, 14.74 -5.09, 0.99 -0.24" fill="none" stroke="#1e1e1e" stroke-width="2"></path></g><g transform="translate(140.27197545416084 155.28489391676703) rotate(0 39.47190311800534 0)"><path d="M29.07 10.32 C21.85 6.33, 16.34 3.58, 0.99 -0.24 M29.07 10.32 C22.12 6.96, 14.5 4.57, 0.99 -0.24" fill="none" stroke="#1e1e1e" stroke-width="2"></path></g><g transform="translate(140.27197545416084 155.28489391676703) rotate(0 39.47190311800534 0)"><path d="M51.81 8.57 C58.16 4.28, 66.24 1.68, 80.12 -1.33 M51.81 8.57 C59.77 5.2, 67.07 2.99, 80.12 -1.33" fill="none" stroke="#1e1e1e" stroke-width="2"></path></g><g transform="translate(140.27197545416084 155.28489391676703) rotate(0 39.47190311800534 0)"><path d="M52.06 -11.95 C58.5 -11.3, 66.51 -8.96, 80.12 -1.33 M52.06 -11.95 C60.1 -9.89, 67.33 -6.68, 80.12 -1.33" fill="none" stroke="#1e1e1e" stroke-width="2"></path></g></g><mask></mask><g stroke-linecap="round"><g transform="translate(327.8613771308883 175.46338655069667) rotate(0 81.29092357431307 31.910407413380653)"><path d="M-1 0.52 C25.74 11.12, 134.05 52.78, 161.45 63.39 M0.67 -0.26 C27.68 10.54, 136.5 54.32, 163.57 64.71" fill="none" stroke="#1e1e1e" stroke-width="2"></path></g><g transform="translate(327.8613771308883 175.46338655069667) rotate(0 81.29092357431307 31.910407413380653)"><path d="M28.99 1.13 C18.38 -1.24, 5.33 1.76, -1 0.52 M28.99 1.13 C19.37 0.48, 8.81 1.5, -1 0.52" fill="none" stroke="#1e1e1e" stroke-width="2"></path></g><g transform="translate(327.8613771308883 175.46338655069667) rotate(0 81.29092357431307 31.910407413380653)"><path d="M21.58 20.27 C13.84 10.64, 3.63 6.32, -1 0.52 M21.58 20.27 C14.32 13.3, 6.22 7.97, -1 0.52" fill="none" stroke="#1e1e1e" stroke-width="2"></path></g><g transform="translate(327.8613771308883 175.46338655069667) rotate(0 81.29092357431307 31.910407413380653)"><path d="M133.58 63.91 C145.91 62.58, 155.81 66.12, 163.57 64.71 M133.58 63.91 C143.9 64.12, 153.26 65.61, 163.57 64.71" fill="none" stroke="#1e1e1e" stroke-width="2"></path></g><g transform="translate(327.8613771308883 175.46338655069667) rotate(0 81.29092357431307 31.910407413380653)"><path d="M141.11 44.82 C150.52 50.73, 157.54 61.57, 163.57 64.71 M141.11 44.82 C149.03 51.32, 155.89 59.15, 163.57 64.71" fill="none" stroke="#1e1e1e" stroke-width="2"></path></g></g><mask></mask></svg>