<svg height="853.0422005064656" version="1.1" viewbox="0 0 1310.9326695624572 853.0422005064656" width="1310.9326695624572" xmlns="http://www.w3.org/2000/svg">
<!-- svg-source:excalidraw -->
<!-- payload-type:application/vnd.excalidraw+json --><!-- payload-version:2 -->
<defs>
<style class="style-fonts">
</style>
</defs>
<rect fill="#ffffff" height="853.0422005064656" width="1310.9326695624572" x="0" y="0"></rect><g stroke-linecap="round" transform="translate(46.112518310546875 151.203125) rotate(0 83.921875 108.06640625)"><path d="M32 0 C62.47 0.57, 97.31 -1.87, 135.84 0 M32 0 C60.64 1.04, 89.38 -0.55, 135.84 0 M135.84 0 C156.39 0.01, 168.57 11.14, 167.84 32 M135.84 0 C158.58 -1.77, 167.95 10.39, 167.84 32 M167.84 32 C167.78 92.01, 165.59 151.61, 167.84 184.13 M167.84 32 C169.05 72.37, 169.47 114.47, 167.84 184.13 M167.84 184.13 C167.25 205.95, 158.27 217.32, 135.84 216.13 M167.84 184.13 C166.85 203.49, 159.06 217.81, 135.84 216.13 M135.84 216.13 C110.03 215.85, 85.72 217.68, 32 216.13 M135.84 216.13 C104.86 215.96, 75.45 214.65, 32 216.13 M32 216.13 C10.82 216.98, 0.77 205.42, 0 184.13 M32 216.13 C11.07 216.07, -0.01 203.34, 0 184.13 M0 184.13 C1.05 142.49, -1.24 103.12, 0 32 M0 184.13 C1.54 132.09, 1.07 79.8, 0 32 M0 32 C1.35 12.01, 9.74 1.21, 32 0 M0 32 C-1.88 12.2, 12.44 -1.77, 32 0" fill="none" stroke="#1e1e1e" stroke-width="2"></path></g><g transform="translate(107.69441223144531 246.76953125) rotate(0 22.339981079101562 12.5)"><text direction="ltr" dominant-baseline="text-before-edge" fill="#1e1e1e" font-family="Virgil, Segoe UI Emoji" font-size="20px" style="white-space: pre;" text-anchor="middle" x="22.339981079101562" y="0">User</text></g><g stroke-linecap="round" transform="translate(282.2609558105469 160.05859375) rotate(0 87.310546875 101.091796875)"><path d="M32 0 C70.58 1.96, 109.46 0.77, 142.62 0 M32 0 C72.43 1, 114 1.23, 142.62 0 M142.62 0 C165.18 -1.54, 174.71 10.43, 174.62 32 M142.62 0 C166.13 -1.28, 173.04 11.57, 174.62 32 M174.62 32 C173.05 74.3, 175.64 115.28, 174.62 170.18 M174.62 32 C175.46 64, 176.3 96.12, 174.62 170.18 M174.62 170.18 C173.75 189.8, 165.59 203.64, 142.62 202.18 M174.62 170.18 C173.07 191.93, 164.41 200.28, 142.62 202.18 M142.62 202.18 C112.02 201.07, 80.01 202.28, 32 202.18 M142.62 202.18 C102.28 201.89, 62.17 201.44, 32 202.18 M32 202.18 C11.02 202.13, -0.01 189.67, 0 170.18 M32 202.18 C10.03 201.19, -0.66 191.97, 0 170.18 M0 170.18 C2.22 128.79, 0.95 91.13, 0 32 M0 170.18 C0.64 122.03, -0.5 73.14, 0 32 M0 32 C-1.63 12, 12.21 -1.54, 32 0 M0 32 C-1.91 10.43, 10.89 0.82, 32 0" fill="none" stroke="#1e1e1e" stroke-width="2"></path></g><g transform="translate(302.82154083251953 248.650390625) rotate(0 66.74996185302734 12.5)"><text direction="ltr" dominant-baseline="text-before-edge" fill="#1e1e1e" font-family="Virgil, Segoe UI Emoji" font-size="20px" style="white-space: pre;" text-anchor="middle" x="66.74996185302734" y="0">API Gateway</text></g><g stroke-linecap="round" transform="translate(585.7140808105472 162.91015625) rotate(0 117.64453125000006 97.630859375)"><path d="M32 0 C95.02 0.23, 153.49 -0.8, 203.29 0 M32 0 C84.11 -1.18, 135.04 -0.53, 203.29 0 M203.29 0 C226.52 -1.11, 233.92 11.45, 235.29 32 M203.29 0 C224.59 -1.62, 234.73 9.98, 235.29 32 M235.29 32 C235.19 79.96, 237.23 124.04, 235.29 163.26 M235.29 32 C235.57 73.67, 236.83 117.79, 235.29 163.26 M235.29 163.26 C233.94 184.96, 225.02 193.61, 203.29 195.26 M235.29 163.26 C234.73 182.52, 226.17 195.15, 203.29 195.26 M203.29 195.26 C169.11 196.54, 131.01 194.86, 32 195.26 M203.29 195.26 C144.83 195.2, 86.02 194.3, 32 195.26 M32 195.26 C10.11 194.4, -0.58 184.99, 0 163.26 M32 195.26 C10.43 193.08, 2.14 185.64, 0 163.26 M0 163.26 C1.3 132.96, 1.9 103.89, 0 32 M0 163.26 C-0.21 115.76, 1.38 66.16, 0 32 M0 32 C-1.66 10.46, 10.86 0.71, 32 0 M0 32 C-1.79 9.01, 9.1 -1.87, 32 0" fill="none" stroke="#1e1e1e" stroke-width="2"></path></g><g transform="translate(602.0686874389653 235.541015625) rotate(0 101.289924621582 25)"><text direction="ltr" dominant-baseline="text-before-edge" fill="#1e1e1e" font-family="Virgil, Segoe UI Emoji" font-size="20px" style="white-space: pre;" text-anchor="middle" x="101.28992462158203" y="0">Document Metadata</text><text direction="ltr" dominant-baseline="text-before-edge" fill="#1e1e1e" font-family="Virgil, Segoe UI Emoji" font-size="20px" style="white-space: pre;" text-anchor="middle" x="101.28992462158203" y="25">Service</text></g><g stroke-linecap="round" transform="translate(882.7765808105472 128.52734375) rotate(0 137.23242187499994 134.5)"><path d="M161.18 2.24 C175.39 2.71, 191.34 11.17, 204.32 18.18 C217.31 25.19, 229.12 33.59, 239.09 44.29 C249.06 54.99, 258.42 68.91, 264.15 82.4 C269.88 95.9, 272.58 110.65, 273.45 125.26 C274.33 139.88, 273.01 155.94, 269.42 170.1 C265.83 184.26, 260.3 198.12, 251.92 210.23 C243.53 222.34, 231.08 234.11, 219.1 242.75 C207.13 251.39, 194.02 257.63, 180.06 262.09 C166.09 266.55, 150.11 269.78, 135.31 269.53 C120.51 269.28, 105.38 265.47, 91.23 260.58 C77.08 255.68, 61.94 249.31, 50.39 240.14 C38.83 230.98, 29.66 218.02, 21.9 205.61 C14.15 193.19, 7.54 179.75, 3.86 165.66 C0.19 151.56, -1.44 135.45, -0.16 121.04 C1.12 106.63, 5.23 92.56, 11.54 79.21 C17.85 65.86, 27.45 51.65, 37.7 40.93 C47.94 30.21, 59.74 21.31, 73.03 14.89 C86.32 8.47, 101.45 4.26, 117.43 2.42 C133.41 0.58, 159.03 2.8, 168.9 3.86 C178.78 4.91, 177.11 6.55, 176.68 8.75 M134.82 -0.63 C148.82 -2.67, 165.3 2.56, 179.46 6.96 C193.62 11.36, 207.62 16.91, 219.78 25.75 C231.94 34.58, 244.25 47.72, 252.41 59.99 C260.57 72.25, 264.98 85.24, 268.73 99.31 C272.48 113.39, 275.72 129.67, 274.89 144.45 C274.06 159.23, 269.46 174.52, 263.74 187.97 C258.02 201.42, 250.58 214.35, 240.56 225.15 C230.53 235.94, 216.94 245.64, 203.61 252.75 C190.28 259.87, 174.87 265.57, 160.57 267.83 C146.26 270.09, 132.47 268.7, 117.78 266.32 C103.09 263.94, 85.77 260.01, 72.44 253.55 C59.11 247.09, 47.98 238.28, 37.78 227.56 C27.57 216.84, 17.57 202.78, 11.21 189.24 C4.85 175.7, 1.03 160.82, -0.38 146.34 C-1.78 131.86, -0.76 116.2, 2.77 102.36 C6.29 88.53, 12.92 75.45, 20.78 63.34 C28.65 51.22, 38.32 38.73, 49.95 29.66 C61.58 20.58, 76.57 14.04, 90.58 8.88 C104.59 3.72, 126.58 -0.16, 134.02 -1.32 C141.47 -2.49, 134.98 -0.47, 135.25 1.91" fill="none" stroke="#1e1e1e" stroke-width="2"></path></g><g transform="translate(949.771067777812 237.92148168040933) rotate(0 70.19995880126953 25)"><text direction="ltr" dominant-baseline="text-before-edge" fill="#1e1e1e" font-family="Virgil, Segoe UI Emoji" font-size="20px" style="white-space: pre;" text-anchor="middle" x="70.19995880126953" y="0">Document </text><text direction="ltr" dominant-baseline="text-before-edge" fill="#1e1e1e" font-family="Virgil, Segoe UI Emoji" font-size="20px" style="white-space: pre;" text-anchor="middle" x="70.19995880126953" y="25">Metadata DB</text></g><g stroke-linecap="round"><g transform="translate(214.95626831054688 251.567363967265) rotate(0 29.921875 -0.6869446232170731)"><path d="M0.73 -0.92 C10.64 -1.23, 49.86 -1.33, 59.9 -1.52 M-0.34 1.2 C9.38 1.07, 48.79 0.32, 58.98 -0.06" fill="none" stroke="#1e1e1e" stroke-width="2"></path></g><g transform="translate(214.95626831054688 251.567363967265) rotate(0 29.921875 -0.6869446232170731)"><path d="M31.14 10.93 C38.93 7.16, 49.59 5.27, 58.98 -0.06 M31.14 10.93 C38 7.43, 44.57 5.15, 58.98 -0.06" fill="none" stroke="#1e1e1e" stroke-width="2"></path></g><g transform="translate(214.95626831054688 251.567363967265) rotate(0 29.921875 -0.6869446232170731)"><path d="M30.59 -9.54 C38.61 -6.43, 49.46 -1.44, 58.98 -0.06 M30.59 -9.54 C37.44 -8.04, 44.15 -5.31, 58.98 -0.06" fill="none" stroke="#1e1e1e" stroke-width="2"></path></g></g><mask></mask><g stroke-linecap="round"><g transform="translate(461.74533081054676 265.3392143026449) rotate(0 58.87109375 -2.7621410970089073)"><path d="M0.05 -0.14 C19.74 -1.02, 99.4 -5.37, 118.88 -6.19 M-1.38 -1.26 C18.19 -1.92, 98.4 -4.03, 118.53 -5.01" fill="none" stroke="#1e1e1e" stroke-width="2"></path></g><g transform="translate(461.74533081054676 265.3392143026449) rotate(0 58.87109375 -2.7621410970089073)"><path d="M90.72 6.26 C100.61 4.07, 109.77 -3.26, 118.53 -5.01 M90.72 6.26 C99.91 2.34, 110.11 -0.19, 118.53 -5.01" fill="none" stroke="#1e1e1e" stroke-width="2"></path></g><g transform="translate(461.74533081054676 265.3392143026449) rotate(0 58.87109375 -2.7621410970089073)"><path d="M89.99 -14.25 C99.98 -9.03, 109.41 -8.96, 118.53 -5.01 M89.99 -14.25 C99.42 -11.21, 109.87 -6.78, 118.53 -5.01" fill="none" stroke="#1e1e1e" stroke-width="2"></path></g></g><mask></mask><g transform="translate(468.58908081054676 213.421875) rotate(0 47.73597717285156 10)"><text direction="ltr" dominant-baseline="text-before-edge" fill="#1e1e1e" font-family="Virgil, Segoe UI Emoji" font-size="16px" style="white-space: pre;" text-anchor="start" x="0" y="0">POST /docs</text></g><g stroke-linecap="round"><g transform="translate(826.3390808105472 244.81640625) rotate(0 23.2421875 0.875)"><path d="M-0.38 0.22 C7.28 0.49, 38.69 1.13, 46.48 1.36 M0.43 -0.15 C7.97 0.21, 38.46 1.49, 46.04 1.86" fill="none" stroke="#1e1e1e" stroke-width="2"></path></g><g transform="translate(826.3390808105472 244.81640625) rotate(0 23.2421875 0.875)"><path d="M23.85 8.82 C33.02 6.14, 40.68 3.16, 46.04 1.86 M23.85 8.82 C30.02 6.48, 36.22 5.11, 46.04 1.86" fill="none" stroke="#1e1e1e" stroke-width="2"></path></g><g transform="translate(826.3390808105472 244.81640625) rotate(0 23.2421875 0.875)"><path d="M24.57 -7.07 C33.41 -3.49, 40.79 -0.19, 46.04 1.86 M24.57 -7.07 C30.59 -5.12, 36.6 -2.19, 46.04 1.86" fill="none" stroke="#1e1e1e" stroke-width="2"></path></g></g><mask></mask><g transform="translate(1179.5617370605473 214.6640625) rotate(0 46.15995788574219 37.5)"><text direction="ltr" dominant-baseline="text-before-edge" fill="#1e1e1e" font-family="Virgil, Segoe UI Emoji" font-size="20px" style="white-space: pre;" text-anchor="start" x="0" y="0">Document</text><text direction="ltr" dominant-baseline="text-before-edge" fill="#1e1e1e" font-family="Virgil, Segoe UI Emoji" font-size="20px" style="white-space: pre;" text-anchor="start" x="0" y="25">  id</text><text direction="ltr" dominant-baseline="text-before-edge" fill="#1e1e1e" font-family="Virgil, Segoe UI Emoji" font-size="20px" style="white-space: pre;" text-anchor="start" x="0" y="50">  title</text></g><g stroke-linecap="round" transform="translate(552.0187683105472 494.2265625) rotate(0 128.2890625 85.94921875)"><path d="M32 0 C88.87 1.52, 148.94 1.27, 224.58 0 M32 0 C75.97 -0.37, 121.07 -0.02, 224.58 0 M224.58 0 C245.05 -1.72, 258.22 12.12, 256.58 32 M224.58 0 C244.36 0.41, 257.03 8.76, 256.58 32 M256.58 32 C255.51 59.9, 254 90.86, 256.58 139.9 M256.58 32 C257.64 71.85, 257.95 110.82, 256.58 139.9 M256.58 139.9 C256.93 161.17, 245.9 170.05, 224.58 171.9 M256.58 139.9 C255.94 160.24, 245.25 172.35, 224.58 171.9 M224.58 171.9 C169.71 172.32, 112.67 174.69, 32 171.9 M224.58 171.9 C157.21 174.17, 88.03 174.1, 32 171.9 M32 171.9 C9.04 173.24, 1.54 159.7, 0 139.9 M32 171.9 C8.76 171.66, 0.22 162.05, 0 139.9 M0 139.9 C-0.85 114.65, -0.59 91.31, 0 32 M0 139.9 C0.88 102.75, 0.22 63.46, 0 32 M0 32 C-0.03 9.6, 10.92 -0.68, 32 0 M0 32 C-0.92 11.78, 9.78 1.04, 32 0" fill="none" stroke="#1e1e1e" stroke-width="2"></path></g><g transform="translate(595.3879089355472 567.67578125) rotate(0 84.919921875 12.5)"><text direction="ltr" dominant-baseline="text-before-edge" fill="#1e1e1e" font-family="Virgil, Segoe UI Emoji" font-size="20px" style="white-space: pre;" text-anchor="middle" x="84.919921875" y="0">Document Service</text></g><g stroke-linecap="round"><g transform="translate(452.37814331054676 357.73828125) rotate(0 62.515924629730534 65.05859375)"><path d="M0.48 -0.84 C21.38 20.71, 105.32 108.62, 126.02 130.5 M-0.73 1.33 C20.04 23.01, 104.85 106.82, 125.59 128.58" fill="none" stroke="#1e1e1e" stroke-width="2"></path></g><g transform="translate(452.37814331054676 357.73828125) rotate(0 62.515924629730534 65.05859375)"><path d="M27.39 12.43 C16.36 9.5, 8.9 2.58, 0.48 -0.84 M27.39 12.43 C18.16 7.43, 10.7 4.72, 0.48 -0.84" fill="none" stroke="#1e1e1e" stroke-width="2"></path></g><g transform="translate(452.37814331054676 357.73828125) rotate(0 62.515924629730534 65.05859375)"><path d="M12.56 26.62 C6.62 18.62, 4.4 6.7, 0.48 -0.84 M12.56 26.62 C8.07 16.93, 5.4 9.62, 0.48 -0.84" fill="none" stroke="#1e1e1e" stroke-width="2"></path></g><g transform="translate(452.37814331054676 357.73828125) rotate(0 62.515924629730534 65.05859375)"><path d="M98.49 115.7 C106.78 121.78, 118.38 124.09, 125.59 128.58 M98.49 115.7 C106.91 118.85, 116.94 124.61, 125.59 128.58" fill="none" stroke="#1e1e1e" stroke-width="2"></path></g><g transform="translate(452.37814331054676 357.73828125) rotate(0 62.515924629730534 65.05859375)"><path d="M113.11 101.3 C116.38 112.52, 122.82 119.91, 125.59 128.58 M113.11 101.3 C116.87 109.2, 122.16 119.63, 125.59 128.58" fill="none" stroke="#1e1e1e" stroke-width="2"></path></g></g><mask></mask><g transform="translate(370.73751831054676 416.6015625) rotate(0 49.989952087402344 12.5)"><text direction="ltr" dominant-baseline="text-before-edge" fill="#1e1e1e" font-family="Virgil, Segoe UI Emoji" font-size="20px" style="white-space: pre;" text-anchor="start" x="0" y="0">Websocket</text></g><g stroke-linecap="round" transform="translate(927.6554870605472 460.87109375) rotate(0 114.958984375 106.5625)"><path d="M145.14 4.78 C158.31 6.44, 173.37 13.02, 184.62 20.61 C195.87 28.2, 205.58 39.36, 212.65 50.32 C219.72 61.28, 224.64 73.66, 227.05 86.34 C229.47 99.03, 229.5 113.91, 227.14 126.42 C224.78 138.93, 220.11 150.62, 212.88 161.39 C205.65 172.16, 194.68 182.95, 183.78 191.03 C172.88 199.11, 160.76 206.24, 147.49 209.86 C134.22 213.49, 117.96 214.01, 104.13 212.78 C90.31 211.56, 76.84 208.18, 64.53 202.52 C52.22 196.86, 39.71 188.34, 30.28 178.83 C20.84 169.31, 13.09 157.45, 7.89 145.43 C2.69 133.4, -0.8 119.57, -0.92 106.69 C-1.04 93.81, 2.04 80.11, 7.18 68.15 C12.31 56.2, 20.71 44.28, 29.91 34.97 C39.11 25.65, 49.97 18.14, 62.38 12.28 C74.79 6.42, 89.06 0.69, 104.38 -0.19 C119.69 -1.08, 144.61 5.01, 154.25 6.97 C163.89 8.93, 162.69 9.86, 162.2 11.56 M151.51 6.92 C164.83 9.02, 180.02 16.09, 190.56 24.21 C201.11 32.33, 208.35 44.06, 214.78 55.62 C221.21 67.18, 227.36 81.01, 229.13 93.58 C230.9 106.15, 228.91 118.9, 225.39 131.07 C221.87 143.23, 215.94 156.06, 208.03 166.57 C200.11 177.08, 189.3 186.67, 177.88 194.13 C166.46 201.59, 153.11 208.34, 139.52 211.32 C125.93 214.3, 110 213.89, 96.36 212.01 C82.72 210.12, 69.65 206.61, 57.67 200 C45.69 193.4, 33.17 182.62, 24.48 172.36 C15.79 162.11, 9.54 150.55, 5.53 138.48 C1.51 126.4, -0.32 112.48, 0.38 99.92 C1.08 87.36, 4.13 74.61, 9.74 63.13 C15.34 51.65, 24.1 39.95, 34.03 31.04 C43.95 22.12, 56.25 14.85, 69.29 9.63 C82.33 4.42, 98.19 0.19, 112.28 -0.26 C126.37 -0.7, 147.07 5.69, 153.83 6.94 C160.59 8.18, 153.51 5.57, 152.83 7.22" fill="none" stroke="#1e1e1e" stroke-width="2"></path></g><g transform="translate(990.7162468210765 530.0825273798085) rotate(0 52.109947204589844 37.5)"><text direction="ltr" dominant-baseline="text-before-edge" fill="#1e1e1e" font-family="Virgil, Segoe UI Emoji" font-size="20px" style="white-space: pre;" text-anchor="middle" x="52.109947204589844" y="0">Document </text><text direction="ltr" dominant-baseline="text-before-edge" fill="#1e1e1e" font-family="Virgil, Segoe UI Emoji" font-size="20px" style="white-space: pre;" text-anchor="middle" x="52.109947204589844" y="25">Operations</text><text direction="ltr" dominant-baseline="text-before-edge" fill="#1e1e1e" font-family="Virgil, Segoe UI Emoji" font-size="20px" style="white-space: pre;" text-anchor="middle" x="52.109947204589844" y="50">DB</text></g><g stroke-linecap="round"><g transform="translate(819.6515808105472 547.2708021698891) rotate(0 52.173828125 -1.3912604599437373)"><path d="M-0.52 -1.03 C16.93 -1.47, 87.99 -1.65, 105.33 -1.91 M1.41 1.04 C18.72 0.21, 87.47 -3.21, 104.9 -3.57" fill="none" stroke="#1e1e1e" stroke-width="2"></path></g><g transform="translate(819.6515808105472 547.2708021698891) rotate(0 52.173828125 -1.3912604599437373)"><path d="M77.11 7.73 C85.18 5.48, 98.21 -1.51, 104.9 -3.57 M77.11 7.73 C85.68 3.47, 95.44 0.72, 104.9 -3.57" fill="none" stroke="#1e1e1e" stroke-width="2"></path></g><g transform="translate(819.6515808105472 547.2708021698891) rotate(0 52.173828125 -1.3912604599437373)"><path d="M76.35 -12.77 C84.81 -7.75, 98.11 -7.47, 104.9 -3.57 M76.35 -12.77 C85.2 -10.51, 95.2 -6.73, 104.9 -3.57" fill="none" stroke="#1e1e1e" stroke-width="2"></path></g></g><mask></mask><g stroke-linecap="round"><g transform="translate(148.32736206054756 374.098469607231) rotate(0 195.37068498476026 109.31102694246601)"><path d="M0.98 0.87 C17.81 25.57, 35.41 111.01, 100.41 147.13 C165.41 183.26, 342.64 205.89, 390.98 217.63" fill="none" stroke="#1e1e1e" stroke-dasharray="8 10" stroke-width="2.5"></path></g><g transform="translate(148.32736206054756 374.098469607231) rotate(0 195.37068498476026 109.31102694246601)"><path d="M22.89 21.37 C18.9 14.94, 12.18 11.42, 0.98 0.87" fill="none" stroke="#1e1e1e" stroke-width="2.5"></path></g><g transform="translate(148.32736206054756 374.098469607231) rotate(0 195.37068498476026 109.31102694246601)"><path d="M4.59 30.66 C5.37 21.69, 3.35 15.79, 0.98 0.87" fill="none" stroke="#1e1e1e" stroke-width="2.5"></path></g><g transform="translate(148.32736206054756 374.098469607231) rotate(0 195.37068498476026 109.31102694246601)"><path d="M361.37 222.47 C370.47 219.64, 376.97 220.14, 390.98 217.63" fill="none" stroke="#1e1e1e" stroke-width="2.5"></path></g><g transform="translate(148.32736206054756 374.098469607231) rotate(0 195.37068498476026 109.31102694246601)"><path d="M365.18 202.31 C373.13 204.68, 378.66 210.36, 390.98 217.63" fill="none" stroke="#1e1e1e" stroke-width="2.5"></path></g></g><mask></mask><g transform="translate(58.33909711250749 533.3912842810632) rotate(0 108.58990478515625 25)"><text direction="ltr" dominant-baseline="text-before-edge" fill="#1e1e1e" font-family="Virgil, Segoe UI Emoji" font-size="20px" style="white-space: pre;" text-anchor="middle" x="108.58990478515625" y="0">Write/Receive</text><text direction="ltr" dominant-baseline="text-before-edge" fill="#1e1e1e" font-family="Virgil, Segoe UI Emoji" font-size="20px" style="white-space: pre;" text-anchor="middle" x="108.58990478515625" y="25">Edits, Cursor Changes</text></g><g stroke-linecap="round"><g transform="translate(656.2827274813475 675.69921875) rotate(0 35.84644563870097 32.92556599300451)"><path d="M0.24 -0.99 C5.93 10.68, 21.3 71.02, 33.34 70.26 C45.39 69.5, 66.29 7.24, 72.5 -5.54 M-1.1 1.1 C4.48 12.86, 20.03 72.12, 32.24 71.23 C44.45 70.33, 65.83 8.59, 72.16 -4.26" fill="none" stroke="#1e1e1e" stroke-width="2"></path></g><g transform="translate(656.2827274813475 675.69921875) rotate(0 35.84644563870097 32.92556599300451)"><path d="M70.76 25.71 C69.37 18.25, 69.55 13.11, 72.16 -4.26 M70.76 25.71 C71.13 17.53, 72.78 7.38, 72.16 -4.26" fill="none" stroke="#1e1e1e" stroke-width="2"></path></g><g transform="translate(656.2827274813475 675.69921875) rotate(0 35.84644563870097 32.92556599300451)"><path d="M51.82 17.8 C54.86 12.14, 59.44 8.84, 72.16 -4.26 M51.82 17.8 C57.71 12.1, 64.95 4.29, 72.16 -4.26" fill="none" stroke="#1e1e1e" stroke-width="2"></path></g></g><mask></mask><g transform="translate(614.6320495605472 762.7265625) rotate(0 72.75993347167969 12.5)"><text direction="ltr" dominant-baseline="text-before-edge" fill="#1e1e1e" font-family="Virgil, Segoe UI Emoji" font-size="20px" style="white-space: pre;" text-anchor="start" x="0" y="0">Transform Ops</text></g><g transform="translate(814.5578308105472 496.53125) rotate(0 55.01994323730469 12.5)"><text direction="ltr" dominant-baseline="text-before-edge" fill="#1e1e1e" font-family="Virgil, Segoe UI Emoji" font-size="20px" style="white-space: pre;" text-anchor="start" x="0" y="0">Applied Ops</text></g><g stroke-linecap="round"><g transform="translate(943.0929870605472 630.3359375) rotate(0 -63.373046875 -1.091796875)"><path d="M-1.11 -0.96 C-22.44 -1.18, -106.38 -1.07, -127.14 -1.4 M0.5 1.15 C-21.08 0.59, -107.23 -2.58, -128.29 -3.11" fill="none" stroke="#1e1e1e" stroke-width="2"></path></g><g transform="translate(943.0929870605472 630.3359375) rotate(0 -63.373046875 -1.091796875)"><path d="M-99.78 -12.47 C-111.86 -9.94, -119.42 -4.02, -128.29 -3.11 M-99.78 -12.47 C-106.09 -10.17, -113 -7.98, -128.29 -3.11" fill="none" stroke="#1e1e1e" stroke-width="2"></path></g><g transform="translate(943.0929870605472 630.3359375) rotate(0 -63.373046875 -1.091796875)"><path d="M-100.44 8.04 C-112.26 3.04, -119.58 1.43, -128.29 -3.11 M-100.44 8.04 C-106.61 5.52, -113.36 2.89, -128.29 -3.11" fill="none" stroke="#1e1e1e" stroke-width="2"></path></g></g><mask></mask><g transform="translate(803.7227020263675 656.0625) rotate(0 79.00993347167969 25)"><text direction="ltr" dominant-baseline="text-before-edge" fill="#1e1e1e" font-family="Virgil, Segoe UI Emoji" font-size="20px" style="white-space: pre;" text-anchor="middle" x="79.00993347167969" y="0">On Initialization</text><text direction="ltr" dominant-baseline="text-before-edge" fill="#1e1e1e" font-family="Virgil, Segoe UI Emoji" font-size="20px" style="white-space: pre;" text-anchor="middle" x="79.00993347167969" y="25">Read all Ops</text></g><g stroke-linecap="round"><g transform="translate(698.3312683105472 488.06640625) rotate(0 -116.486328125 -85.177734375)"><path d="M1.1 -0.78 C-5.19 -15.25, 0.76 -57.8, -38.17 -86.06 C-77.11 -114.33, -200.08 -156.33, -232.51 -170.38" fill="none" stroke="#1e1e1e" stroke-dasharray="8 10" stroke-width="2.5"></path></g><g transform="translate(698.3312683105472 488.06640625) rotate(0 -116.486328125 -85.177734375)"><path d="M-202.52 -169.7 C-211.85 -169.46, -217.73 -169.02, -232.51 -170.38" fill="none" stroke="#1e1e1e" stroke-width="2.5"></path></g><g transform="translate(698.3312683105472 488.06640625) rotate(0 -116.486328125 -85.177734375)"><path d="M-209.97 -150.58 C-217.43 -155.52, -221.32 -160.2, -232.51 -170.38" fill="none" stroke="#1e1e1e" stroke-width="2.5"></path></g></g><mask></mask><g transform="translate(680.1973648071292 393.0859375) rotate(0 81.23993682861328 25)"><text direction="ltr" dominant-baseline="text-before-edge" fill="#1e1e1e" font-family="Virgil, Segoe UI Emoji" font-size="20px" style="white-space: pre;" text-anchor="middle" x="81.23993682861328" y="0">Send all Applied </text><text direction="ltr" dominant-baseline="text-before-edge" fill="#1e1e1e" font-family="Virgil, Segoe UI Emoji" font-size="20px" style="white-space: pre;" text-anchor="middle" x="81.23993682861328" y="25">Ops on Connect</text></g><g stroke-linecap="round"><g transform="translate(116.58517456054688 145.33984375) rotate(0 24.068359375 -39.26171875)"><path d="M0.46 -0.03 C2.73 -13.2, 5.74 -77.57, 13.69 -78.56 C21.63 -79.55, 42.44 -18.17, 48.13 -5.97 M-0.75 -1.08 C1.36 -14.11, 4.83 -76.35, 12.85 -77.04 C20.87 -77.73, 41.52 -17.32, 47.36 -5.24" fill="none" stroke="#1e1e1e" stroke-width="2"></path></g><g transform="translate(116.58517456054688 145.33984375) rotate(0 24.068359375 -39.26171875)"><path d="M-6.52 -29.2 C-4.29 -19.9, -2.16 -11.29, 0.46 -0.03 M-6.52 -29.2 C-5.44 -22.92, -3.81 -18, 0.46 -0.03" fill="none" stroke="#1e1e1e" stroke-width="2"></path></g><g transform="translate(116.58517456054688 145.33984375) rotate(0 24.068359375 -39.26171875)"><path d="M13.87 -26.86 C9.81 -18.21, 5.68 -10.31, 0.46 -0.03 M13.87 -26.86 C10.72 -21.15, 8.12 -16.72, 0.46 -0.03" fill="none" stroke="#1e1e1e" stroke-width="2"></path></g><g transform="translate(116.58517456054688 145.33984375) rotate(0 24.068359375 -39.26171875)"><path d="M27.25 -27.5 C33.49 -20.37, 39.66 -13.89, 47.36 -5.24 M27.25 -27.5 C31.08 -22.59, 35.44 -19.11, 47.36 -5.24" fill="none" stroke="#1e1e1e" stroke-width="2"></path></g><g transform="translate(116.58517456054688 145.33984375) rotate(0 24.068359375 -39.26171875)"><path d="M46.26 -35.22 C46.69 -25.65, 47.01 -16.79, 47.36 -5.24 M46.26 -35.22 C46.12 -28.79, 46.53 -23.71, 47.36 -5.24" fill="none" stroke="#1e1e1e" stroke-width="2"></path></g></g><mask></mask><g transform="translate(10 10) rotate(0 101.45991516113281 25)"><text direction="ltr" dominant-baseline="text-before-edge" fill="#1e1e1e" font-family="Virgil, Segoe UI Emoji" font-size="20px" style="white-space: pre;" text-anchor="middle" x="101.45991516113281" y="0">Transform Received </text><text direction="ltr" dominant-baseline="text-before-edge" fill="#1e1e1e" font-family="Virgil, Segoe UI Emoji" font-size="20px" style="white-space: pre;" text-anchor="middle" x="101.45991516113281" y="25">Ops</text></g><g stroke-linecap="round" transform="translate(331.1276484211811 704.1002351273437) rotate(0 88.76647881088672 69.47098268956097)"><path d="M76.74 0.56 C87.79 -1.52, 100.81 1.14, 112.41 3.65 C124.02 6.16, 137.05 9.64, 146.38 15.63 C155.72 21.62, 163.15 31.01, 168.43 39.61 C173.7 48.2, 177.45 57.74, 178.02 67.18 C178.59 76.62, 176.35 87.62, 171.85 96.27 C167.35 104.91, 159.71 112.77, 151 119.05 C142.3 125.34, 130.92 130.56, 119.61 133.97 C108.29 137.39, 95.34 140.21, 83.11 139.54 C70.88 138.86, 56.96 134.48, 46.21 129.93 C35.46 125.39, 25.84 119.68, 18.63 112.26 C11.42 104.83, 5.96 94.67, 2.96 85.4 C-0.04 76.13, -1.26 65.87, 0.65 56.62 C2.57 47.37, 7.69 37.64, 14.44 29.9 C21.19 22.16, 30.34 15.25, 41.16 10.18 C51.97 5.11, 72.62 0.94, 79.31 -0.51 C86 -1.95, 81.1 0.33, 81.29 1.51 M50.67 6.28 C60.31 1.72, 73.87 0.81, 85.77 0.75 C97.68 0.69, 110.94 2.3, 122.09 5.95 C133.24 9.6, 144.06 15.98, 152.67 22.65 C161.27 29.31, 169.46 37.03, 173.74 45.91 C178.02 54.78, 179.38 66.56, 178.36 75.88 C177.35 85.21, 173.45 93.6, 167.67 101.86 C161.88 110.12, 153.17 119.81, 143.68 125.44 C134.18 131.08, 122.44 133.58, 110.71 135.67 C98.99 137.77, 85.61 139.62, 73.33 138.01 C61.06 136.41, 47.29 131.25, 37.05 126.03 C26.81 120.82, 17.89 114.82, 11.9 106.74 C5.91 98.66, 2.26 86.84, 1.11 77.56 C-0.03 68.27, 1.49 59.74, 5.05 51.03 C8.62 42.32, 15.1 32.87, 22.5 25.29 C29.91 17.71, 44.52 8.66, 49.49 5.55 C54.46 2.44, 51.66 5.48, 52.32 6.64" fill="none" stroke="#1e1e1e" stroke-width="2"></path></g><g transform="translate(370.5668039700058 760.9478148614228) rotate(0 49.55994415283204 12.5)"><text direction="ltr" dominant-baseline="text-before-edge" fill="#1e1e1e" font-family="Virgil, Segoe UI Emoji" font-size="20px" style="white-space: pre;" text-anchor="middle" x="49.55994415283203" y="0">Zookeeper</text></g><g stroke-linecap="round"><g transform="translate(553.9654210339771 662.7846777835493) rotate(0 -31.332422117934925 23.588589517551554)"><path d="M-0.35 0.24 C-10.76 8, -52.59 38.13, -62.79 46.04 M1.67 -0.69 C-8.88 7.22, -53.24 39.26, -63.8 46.98" fill="none" stroke="#1e1e1e" stroke-width="2"></path></g><g transform="translate(553.9654210339771 662.7846777835493) rotate(0 -31.332422117934925 23.588589517551554)"><path d="M-17.07 25.14 C-12.01 18.2, -9.74 13.49, -0.35 0.24 M-17.07 25.14 C-10.62 17.1, -5.31 8.79, -0.35 0.24" fill="none" stroke="#1e1e1e" stroke-width="2"></path></g><g transform="translate(553.9654210339771 662.7846777835493) rotate(0 -31.332422117934925 23.588589517551554)"><path d="M-29.17 8.57 C-20.89 6.18, -15.32 5.98, -0.35 0.24 M-29.17 8.57 C-18.65 6.27, -9.16 3.69, -0.35 0.24" fill="none" stroke="#1e1e1e" stroke-width="2"></path></g><g transform="translate(553.9654210339771 662.7846777835493) rotate(0 -31.332422117934925 23.588589517551554)"><path d="M-47.02 22.11 C-51.31 28.63, -58.16 37.48, -63.8 46.98 M-47.02 22.11 C-52.5 31.21, -58.76 40.1, -63.8 46.98" fill="none" stroke="#1e1e1e" stroke-width="2"></path></g><g transform="translate(553.9654210339771 662.7846777835493) rotate(0 -31.332422117934925 23.588589517551554)"><path d="M-34.96 38.72 C-42.46 40.68, -52.6 45, -63.8 46.98 M-34.96 38.72 C-44.49 42.06, -54.93 45.21, -63.8 46.98" fill="none" stroke="#1e1e1e" stroke-width="2"></path></g></g><mask></mask><g transform="translate(316.69179701198925 653.6034886603557) rotate(0 93.76992797851562 12.5)"><text direction="ltr" dominant-baseline="text-before-edge" fill="#1e1e1e" font-family="Virgil, Segoe UI Emoji" font-size="20px" style="white-space: pre;" text-anchor="middle" x="93.76992797851562" y="0">Query Hash Ranges</text></g><g transform="translate(1170.5527714911682 507.4458002805577) rotate(0 65.18994903564453 50)"><text direction="ltr" dominant-baseline="text-before-edge" fill="#1e1e1e" font-family="Virgil, Segoe UI Emoji" font-size="20px" style="white-space: pre;" text-anchor="start" x="0" y="0">Operations</text><text direction="ltr" dominant-baseline="text-before-edge" fill="#1e1e1e" font-family="Virgil, Segoe UI Emoji" font-size="20px" style="white-space: pre;" text-anchor="start" x="0" y="25">  timestamp</text><text direction="ltr" dominant-baseline="text-before-edge" fill="#1e1e1e" font-family="Virgil, Segoe UI Emoji" font-size="20px" style="white-space: pre;" text-anchor="start" x="0" y="50">  documentId</text><text direction="ltr" dominant-baseline="text-before-edge" fill="#1e1e1e" font-family="Virgil, Segoe UI Emoji" font-size="20px" style="white-space: pre;" text-anchor="start" x="0" y="75">  data</text></g></svg>