<svg height="822.7821227605909" version="1.1" viewbox="0 0 1354.4101607554064 822.7821227605909" width="1354.4101607554064" xmlns="http://www.w3.org/2000/svg">
<!-- svg-source:excalidraw -->
<!-- payload-type:application/vnd.excalidraw+json --><!-- payload-version:2 -->
<defs>
<style class="style-fonts">
</style>
</defs>
<rect fill="#ffffff" height="822.7821227605909" width="1354.4101607554064" x="0" y="0"></rect><g stroke-linecap="round" transform="translate(89.14058979422475 176.25868526059094) rotate(0 83.921875 108.06640625)"><path d="M32 0 C60.53 -1.04, 93.53 -1.83, 135.84 0 M32 0 C57.53 -1.15, 82.18 0.46, 135.84 0 M135.84 0 C156.64 -0.23, 167.53 9.26, 167.84 32 M135.84 0 C158.33 2.03, 168.97 9.72, 167.84 32 M167.84 32 C170.28 73.51, 166.69 117.89, 167.84 184.13 M167.84 32 C169.62 89.5, 168.27 146.19, 167.84 184.13 M167.84 184.13 C169.16 204.81, 156.17 216.63, 135.84 216.13 M167.84 184.13 C166.69 204.26, 155.23 217.04, 135.84 216.13 M135.84 216.13 C110.67 214.55, 87.96 216.04, 32 216.13 M135.84 216.13 C107.17 215.71, 78.16 214.76, 32 216.13 M32 216.13 C10.3 216.11, -1.6 204.13, 0 184.13 M32 216.13 C10.24 215.29, -0.97 204.99, 0 184.13 M0 184.13 C-0.03 152.77, 0.8 124.8, 0 32 M0 184.13 C0.43 137.31, 0 88.54, 0 32 M0 32 C0.81 11.6, 9.88 -1.67, 32 0 M0 32 C-1.27 9.6, 10.69 -2.01, 32 0" fill="none" stroke="#1e1e1e" stroke-width="2"></path></g><g transform="translate(150.7224837151232 271.82509151059094) rotate(0 22.339981079101562 12.5)"><text direction="ltr" dominant-baseline="text-before-edge" fill="#1e1e1e" font-family="Virgil, Segoe UI Emoji" font-size="20px" style="white-space: pre;" text-anchor="middle" x="22.339981079101562" y="0">User</text></g><g stroke-linecap="round" transform="translate(325.28902729422475 185.11415401059094) rotate(0 87.310546875 101.091796875)"><path d="M32 0 C59.12 2.92, 89.23 1.99, 142.62 0 M32 0 C55.81 -0.98, 80.01 -1.56, 142.62 0 M142.62 0 C164.96 1.76, 175.6 9.84, 174.62 32 M142.62 0 C163.62 1.14, 173.19 12.6, 174.62 32 M174.62 32 C174.8 61.7, 172.97 90.38, 174.62 170.18 M174.62 32 C174.51 79.67, 173.34 128.24, 174.62 170.18 M174.62 170.18 C173.61 190.47, 162.26 202.97, 142.62 202.18 M174.62 170.18 C173.22 190.39, 163.99 201.79, 142.62 202.18 M142.62 202.18 C117.81 201.23, 92.28 202.29, 32 202.18 M142.62 202.18 C104.55 201.59, 66.05 200.94, 32 202.18 M32 202.18 C10.3 201.45, -0.84 191.1, 0 170.18 M32 202.18 C8.38 203.38, 1.5 192.39, 0 170.18 M0 170.18 C-0.88 134.44, 0.08 99.54, 0 32 M0 170.18 C0.36 122.59, -0.44 73.23, 0 32 M0 32 C-1.11 9.74, 10.68 -1.75, 32 0 M0 32 C-2.06 12.14, 12.41 2.22, 32 0" fill="none" stroke="#1e1e1e" stroke-width="2"></path></g><g transform="translate(345.8496123161974 273.70595088559094) rotate(0 66.74996185302734 12.5)"><text direction="ltr" dominant-baseline="text-before-edge" fill="#1e1e1e" font-family="Virgil, Segoe UI Emoji" font-size="20px" style="white-space: pre;" text-anchor="middle" x="66.74996185302734" y="0">API Gateway</text></g><g stroke-linecap="round" transform="translate(628.7421522942248 187.96571651059094) rotate(0 117.64453125000006 97.630859375)"><path d="M32 0 C98.81 -0.55, 170.47 -1.45, 203.29 0 M32 0 C81.93 2.08, 131.34 0.79, 203.29 0 M203.29 0 C224.33 0.99, 234.05 12.35, 235.29 32 M203.29 0 C222.45 -2.19, 234.24 12.39, 235.29 32 M235.29 32 C236.02 78.79, 235.36 129.13, 235.29 163.26 M235.29 32 C234.12 66.53, 233.78 102.5, 235.29 163.26 M235.29 163.26 C234.07 183.62, 224.65 194.92, 203.29 195.26 M235.29 163.26 C233.45 186.62, 224.5 194.73, 203.29 195.26 M203.29 195.26 C160.43 195.07, 114.82 195.03, 32 195.26 M203.29 195.26 C151.93 193.75, 100.52 193.91, 32 195.26 M32 195.26 C8.68 196.3, 1.31 185.35, 0 163.26 M32 195.26 C9.72 197.09, 2.01 184.85, 0 163.26 M0 163.26 C0.18 123.66, -2.75 84.74, 0 32 M0 163.26 C-0.04 117.32, 0.52 71.42, 0 32 M0 32 C-1.79 11.95, 12.18 1.93, 32 0 M0 32 C1.52 8.86, 12.15 -0.61, 32 0" fill="none" stroke="#1e1e1e" stroke-width="2"></path></g><g transform="translate(645.0967589226427 260.59657588559094) rotate(0 101.28992462158203 25)"><text direction="ltr" dominant-baseline="text-before-edge" fill="#1e1e1e" font-family="Virgil, Segoe UI Emoji" font-size="20px" style="white-space: pre;" text-anchor="middle" x="101.28992462158203" y="0">Document Metadata</text><text direction="ltr" dominant-baseline="text-before-edge" fill="#1e1e1e" font-family="Virgil, Segoe UI Emoji" font-size="20px" style="white-space: pre;" text-anchor="middle" x="101.28992462158203" y="25">Service</text></g><g stroke-linecap="round" transform="translate(925.8046522942248 153.58290401059094) rotate(0 137.23242187499994 134.5)"><path d="M127.47 0.89 C141.42 -2.4, 156.86 0.68, 171.18 4.14 C185.49 7.6, 200.76 13.76, 213.36 21.65 C225.97 29.54, 237.97 39.92, 246.79 51.48 C255.61 63.04, 261.56 76.95, 266.3 91.01 C271.03 105.07, 275.15 121.06, 275.21 135.83 C275.27 150.59, 271.58 166.05, 266.64 179.59 C261.7 193.14, 254.71 205.66, 245.58 217.08 C236.45 228.51, 224.47 240.22, 211.86 248.13 C199.25 256.04, 184.32 261.24, 169.92 264.54 C155.52 267.85, 140.29 269.31, 125.46 267.98 C110.63 266.65, 94.5 262.49, 80.95 256.55 C67.4 250.62, 55.05 242.16, 44.18 232.39 C33.31 222.62, 22.82 210.8, 15.72 197.94 C8.63 185.07, 3.73 169.55, 1.59 155.17 C-0.55 140.79, 0.36 125.93, 2.87 111.64 C5.38 97.35, 9.79 82.19, 16.64 69.44 C23.49 56.7, 32.89 44.93, 43.97 35.17 C55.06 25.41, 68.24 16.78, 83.16 10.89 C98.09 5.01, 123.83 1.34, 133.54 -0.15 C143.26 -1.64, 141.43 -0.28, 141.46 1.96 M110.68 3.04 C124.43 -1.42, 143.48 -0.18, 158.32 2.02 C173.15 4.22, 186.46 9.63, 199.71 16.25 C212.96 22.88, 227.42 31.3, 237.79 41.77 C248.16 52.25, 255.8 65.79, 261.91 79.11 C268.02 92.42, 272.96 107.57, 274.46 121.65 C275.96 135.74, 274.3 149.47, 270.91 163.64 C267.51 177.81, 262.08 194.32, 254.08 206.69 C246.08 219.05, 234.69 228.94, 222.9 237.85 C211.11 246.77, 197.19 255.23, 183.33 260.2 C169.48 265.16, 154.7 267.13, 139.76 267.67 C124.82 268.21, 107.66 267.47, 93.72 263.45 C79.77 259.44, 67.58 252.67, 56.08 243.59 C44.58 234.5, 33.11 221.28, 24.73 208.94 C16.35 196.59, 9.84 183.31, 5.81 169.5 C1.78 155.7, -0.45 140.45, 0.53 126.11 C1.5 111.76, 6.13 96.69, 11.66 83.44 C17.19 70.19, 24.2 57.82, 33.71 46.61 C43.21 35.4, 55.87 23.48, 68.7 16.18 C81.52 8.87, 103.6 4.67, 110.68 2.77 C117.76 0.86, 110.7 2.66, 111.18 4.74" fill="none" stroke="#1e1e1e" stroke-width="2"></path></g><g transform="translate(992.7991392614896 262.97704194100027) rotate(0 70.19995880126953 25)"><text direction="ltr" dominant-baseline="text-before-edge" fill="#1e1e1e" font-family="Virgil, Segoe UI Emoji" font-size="20px" style="white-space: pre;" text-anchor="middle" x="70.19995880126953" y="0">Document </text><text direction="ltr" dominant-baseline="text-before-edge" fill="#1e1e1e" font-family="Virgil, Segoe UI Emoji" font-size="20px" style="white-space: pre;" text-anchor="middle" x="70.19995880126953" y="25">Metadata DB</text></g><g stroke-linecap="round"><g transform="translate(257.52730854422475 276.53212276059094) rotate(0 30.150390625 -0.6415438895845682)"><path d="M0.6 1.06 C10.78 0.9, 50.97 -1.49, 60.89 -1.78 M-0.54 0.57 C9.55 0.65, 50.28 0.05, 60.25 -0.5" fill="none" stroke="#1e1e1e" stroke-width="2"></path></g><g transform="translate(257.52730854422475 276.53212276059094) rotate(0 30.150390625 -0.6415438895845682)"><path d="M32.39 10.63 C42.16 8.3, 47.49 3.86, 60.25 -0.5 M32.39 10.63 C41.25 5.55, 51.48 3.36, 60.25 -0.5" fill="none" stroke="#1e1e1e" stroke-width="2"></path></g><g transform="translate(257.52730854422475 276.53212276059094) rotate(0 30.150390625 -0.6415438895845682)"><path d="M31.75 -9.88 C41.55 -6.38, 47.07 -4.98, 60.25 -0.5 M31.75 -9.88 C40.71 -7.79, 51.16 -2.81, 60.25 -0.5" fill="none" stroke="#1e1e1e" stroke-width="2"></path></g></g><mask></mask><g stroke-linecap="round"><g transform="translate(504.77340229422475 290.39477456323584) rotate(0 58.87109375 -2.7621410970089073)"><path d="M0.59 -0.5 C20.08 -1.49, 98.16 -4.26, 117.57 -4.93 M-0.56 -1.8 C18.7 -2.63, 96.51 -5.98, 116.52 -6.74" fill="none" stroke="#1e1e1e" stroke-width="2"></path></g><g transform="translate(504.77340229422475 290.39477456323584) rotate(0 58.87109375 -2.7621410970089073)"><path d="M88.77 4.66 C97.57 0.24, 109.11 -4.7, 116.52 -6.74 M88.77 4.66 C99.09 1.29, 110.86 -4, 116.52 -6.74" fill="none" stroke="#1e1e1e" stroke-width="2"></path></g><g transform="translate(504.77340229422475 290.39477456323584) rotate(0 58.87109375 -2.7621410970089073)"><path d="M87.94 -15.84 C97.21 -13.09, 109.04 -10.85, 116.52 -6.74 M87.94 -15.84 C98.38 -11.32, 110.47 -8.74, 116.52 -6.74" fill="none" stroke="#1e1e1e" stroke-width="2"></path></g></g><mask></mask><g transform="translate(511.61715229422475 238.47743526059094) rotate(0 47.73597717285156 10)"><text direction="ltr" dominant-baseline="text-before-edge" fill="#1e1e1e" font-family="Virgil, Segoe UI Emoji" font-size="16px" style="white-space: pre;" text-anchor="start" x="0" y="0">POST /docs</text></g><g stroke-linecap="round"><g transform="translate(869.3671522942248 269.87196651059094) rotate(0 23.2421875 0.875)"><path d="M-0.34 0.46 C7.33 0.62, 38.2 0.94, 45.96 1.23 M0.48 0.23 C8.33 0.41, 39.39 1.48, 46.93 1.66" fill="none" stroke="#1e1e1e" stroke-width="2"></path></g><g transform="translate(869.3671522942248 269.87196651059094) rotate(0 23.2421875 0.875)"><path d="M24.85 8.96 C31.97 6, 36.48 4.4, 46.93 1.66 M24.85 8.96 C33.49 6.48, 41.1 3.57, 46.93 1.66" fill="none" stroke="#1e1e1e" stroke-width="2"></path></g><g transform="translate(869.3671522942248 269.87196651059094) rotate(0 23.2421875 0.875)"><path d="M25.32 -6.95 C32.35 -5.37, 36.72 -2.43, 46.93 1.66 M25.32 -6.95 C33.84 -3.47, 41.27 -0.41, 46.93 1.66" fill="none" stroke="#1e1e1e" stroke-width="2"></path></g></g><mask></mask><g transform="translate(1222.5898085442248 239.71962276059094) rotate(0 46.15995788574219 37.5)"><text direction="ltr" dominant-baseline="text-before-edge" fill="#1e1e1e" font-family="Virgil, Segoe UI Emoji" font-size="20px" style="white-space: pre;" text-anchor="start" x="0" y="0">Document</text><text direction="ltr" dominant-baseline="text-before-edge" fill="#1e1e1e" font-family="Virgil, Segoe UI Emoji" font-size="20px" style="white-space: pre;" text-anchor="start" x="0" y="25">  id</text><text direction="ltr" dominant-baseline="text-before-edge" fill="#1e1e1e" font-family="Virgil, Segoe UI Emoji" font-size="20px" style="white-space: pre;" text-anchor="start" x="0" y="50">  title</text></g><g stroke-linecap="round" transform="translate(595.0468397942248 519.2821227605909) rotate(0 128.2890625 85.94921875)"><path d="M32 0 C73.08 2.18, 110.84 2.44, 224.58 0 M32 0 C99.55 -0.61, 165.28 -0.03, 224.58 0 M224.58 0 C244.9 -1.05, 254.89 11.46, 256.58 32 M224.58 0 C244.51 -1.12, 256.61 10.27, 256.58 32 M256.58 32 C257.07 54.85, 255.89 79.66, 256.58 139.9 M256.58 32 C256.21 68.94, 255.6 105.24, 256.58 139.9 M256.58 139.9 C256.21 160.5, 245.07 171.48, 224.58 171.9 M256.58 139.9 C254.3 162.43, 247.41 172.77, 224.58 171.9 M224.58 171.9 C174.92 173.63, 126.01 174.51, 32 171.9 M224.58 171.9 C158.01 170.46, 90.24 169.16, 32 171.9 M32 171.9 C9.56 170.97, 0.02 159.49, 0 139.9 M32 171.9 C8.61 173.37, 1.75 163.46, 0 139.9 M0 139.9 C0.32 100.72, 1.19 62.35, 0 32 M0 139.9 C-0.05 101.67, -0.36 65.42, 0 32 M0 32 C-1.98 10.44, 9.22 -0.39, 32 0 M0 32 C-0.81 9.67, 9.13 0.4, 32 0" fill="none" stroke="#1e1e1e" stroke-width="2"></path></g><g transform="translate(638.4159804192248 592.7313415105909) rotate(0 84.919921875 12.5)"><text direction="ltr" dominant-baseline="text-before-edge" fill="#1e1e1e" font-family="Virgil, Segoe UI Emoji" font-size="20px" style="white-space: pre;" text-anchor="middle" x="84.919921875" y="0">Document Service</text></g><g stroke-linecap="round"><g transform="translate(495.40621479422475 382.79384151059094) rotate(0 62.515924629730534 65.05859375)"><path d="M0.94 0.57 C21.54 22.32, 103.55 108.77, 124.36 130.29 M-0.02 -0.18 C20.9 21.81, 105.8 110.08, 126.72 131.92" fill="none" stroke="#1e1e1e" stroke-width="2"></path></g><g transform="translate(495.40621479422475 382.79384151059094) rotate(0 62.515924629730534 65.05859375)"><path d="M27.79 13.94 C18.96 8.15, 8.5 5.71, 0.94 0.57 M27.79 13.94 C20.19 9.91, 12.67 7.26, 0.94 0.57" fill="none" stroke="#1e1e1e" stroke-width="2"></path></g><g transform="translate(495.40621479422475 382.79384151059094) rotate(0 62.515924629730534 65.05859375)"><path d="M12.91 28.08 C9.54 17.01, 4.51 9.41, 0.94 0.57 M12.91 28.08 C9.35 20.24, 5.81 13.81, 0.94 0.57" fill="none" stroke="#1e1e1e" stroke-width="2"></path></g><g transform="translate(495.40621479422475 382.79384151059094) rotate(0 62.515924629730534 65.05859375)"><path d="M99.79 118.69 C110.55 122.19, 119.72 129.45, 126.72 131.92 M99.79 118.69 C106.41 121.63, 113.26 126.08, 126.72 131.92" fill="none" stroke="#1e1e1e" stroke-width="2"></path></g><g transform="translate(495.40621479422475 382.79384151059094) rotate(0 62.515924629730534 65.05859375)"><path d="M114.6 104.48 C119.92 113.28, 123.69 125.73, 126.72 131.92 M114.6 104.48 C117.19 111.25, 120.09 119.5, 126.72 131.92" fill="none" stroke="#1e1e1e" stroke-width="2"></path></g></g><mask></mask><g transform="translate(413.76558979422475 441.65712276059094) rotate(0 49.989952087402344 12.5)"><text direction="ltr" dominant-baseline="text-before-edge" fill="#1e1e1e" font-family="Virgil, Segoe UI Emoji" font-size="20px" style="white-space: pre;" text-anchor="start" x="0" y="0">Websocket</text></g><g stroke-linecap="round" transform="translate(970.6835585442248 485.92665401059094) rotate(0 114.958984375 106.5625)"><path d="M85.8 2.51 C98.11 -2.14, 115.12 -1.52, 128.87 0.13 C142.62 1.78, 156.18 6.45, 168.31 12.43 C180.45 18.4, 192.39 26.31, 201.69 36 C210.98 45.69, 219.4 58.42, 224.06 70.55 C228.72 82.69, 230.29 95.97, 229.65 108.82 C229.01 121.67, 225.46 135.76, 220.24 147.65 C215.03 159.54, 207.88 170.95, 198.34 180.17 C188.81 189.38, 175.66 197.63, 163.04 202.95 C150.43 208.27, 136.47 211.23, 122.64 212.09 C108.8 212.95, 93.3 211.86, 80.03 208.1 C66.76 204.34, 53.76 197.65, 43 189.52 C32.25 181.4, 22.34 170.24, 15.5 159.35 C8.66 148.45, 4.08 136.7, 1.98 124.13 C-0.12 111.55, -0.02 96.43, 2.91 83.91 C5.85 71.4, 12.05 59.72, 19.59 49.05 C27.13 38.39, 35.66 27.74, 48.15 19.94 C60.64 12.14, 85.49 5.11, 94.53 2.26 C103.57 -0.58, 102.31 1.13, 102.4 2.86 M140.62 2.17 C153.93 3.36, 168.76 9.89, 180.08 17.43 C191.41 24.97, 200.56 36.38, 208.56 47.44 C216.55 58.49, 224.5 71.63, 228.04 83.77 C231.58 95.91, 231.74 107.87, 229.78 120.26 C227.82 132.66, 223.15 146.72, 216.28 158.16 C209.4 169.6, 199.15 180.54, 188.51 188.9 C177.86 197.27, 165.74 204.11, 152.42 208.35 C139.1 212.6, 122.78 215.31, 108.6 214.38 C94.42 213.44, 80.1 208.1, 67.35 202.75 C54.59 197.41, 41.91 191.22, 32.06 182.3 C22.21 173.39, 13.75 161.16, 8.24 149.29 C2.74 137.41, -0.51 123.93, -0.97 111.03 C-1.43 98.13, 1.06 83.96, 5.49 71.89 C9.92 59.82, 16.84 48.57, 25.63 38.62 C34.41 28.67, 45.92 18.25, 58.21 12.18 C70.49 6.1, 85.57 3.55, 99.32 2.18 C113.07 0.81, 134.01 3.38, 140.71 3.96 C147.41 4.54, 139.9 4.06, 139.52 5.63" fill="none" stroke="#1e1e1e" stroke-width="2"></path></g><g transform="translate(1033.744318304754 555.1380876403995) rotate(0 52.109947204589844 37.5)"><text direction="ltr" dominant-baseline="text-before-edge" fill="#1e1e1e" font-family="Virgil, Segoe UI Emoji" font-size="20px" style="white-space: pre;" text-anchor="middle" x="52.109947204589844" y="0">Document </text><text direction="ltr" dominant-baseline="text-before-edge" fill="#1e1e1e" font-family="Virgil, Segoe UI Emoji" font-size="20px" style="white-space: pre;" text-anchor="middle" x="52.109947204589844" y="25">Operations</text><text direction="ltr" dominant-baseline="text-before-edge" fill="#1e1e1e" font-family="Virgil, Segoe UI Emoji" font-size="20px" style="white-space: pre;" text-anchor="middle" x="52.109947204589844" y="50">DB</text></g><g stroke-linecap="round"><g transform="translate(862.6796522942248 572.3263624304782) rotate(0 52.173828125 -1.3912604599437373)"><path d="M-0.6 -0.63 C16.72 -1.06, 85.96 -1.85, 103.33 -2.31 M1.28 1.65 C19.02 0.83, 88.04 -3.51, 105.51 -4.18" fill="none" stroke="#1e1e1e" stroke-width="2"></path></g><g transform="translate(862.6796522942248 572.3263624304782) rotate(0 52.173828125 -1.3912604599437373)"><path d="M77.89 7.53 C83.71 3.06, 92.45 0.6, 105.51 -4.18 M77.89 7.53 C84.03 5.52, 91.71 1.47, 105.51 -4.18" fill="none" stroke="#1e1e1e" stroke-width="2"></path></g><g transform="translate(862.6796522942248 572.3263624304782) rotate(0 52.173828125 -1.3912604599437373)"><path d="M76.83 -12.96 C82.96 -12.32, 91.96 -9.65, 105.51 -4.18 M76.83 -12.96 C83.23 -9.83, 91.18 -8.73, 105.51 -4.18" fill="none" stroke="#1e1e1e" stroke-width="2"></path></g></g><mask></mask><g stroke-linecap="round"><g transform="translate(191.35543354422475 399.59852901059094) rotate(0 194.580078125 108.576171875)"><path d="M-1.01 0.47 C17.62 36.67, 46.15 183.31, 111.19 216.57 C176.22 249.83, 343.01 202.58, 389.18 200.03" fill="none" stroke="#1e1e1e" stroke-dasharray="8 10" stroke-width="2.5"></path></g><g transform="translate(191.35543354422475 399.59852901059094) rotate(0 194.580078125 108.576171875)"><path d="M18.76 23.03 C14.73 16.02, 8.03 11.63, -1.01 0.47" fill="none" stroke="#1e1e1e" stroke-width="2.5"></path></g><g transform="translate(191.35543354422475 399.59852901059094) rotate(0 194.580078125 108.576171875)"><path d="M-0.37 30.47 C0.42 21.76, -1.51 15.52, -1.01 0.47" fill="none" stroke="#1e1e1e" stroke-width="2.5"></path></g><g transform="translate(191.35543354422475 399.59852901059094) rotate(0 194.580078125 108.576171875)"><path d="M362.98 214.65 C370.39 210, 375.16 207.61, 389.18 200.03" fill="none" stroke="#1e1e1e" stroke-width="2.5"></path></g><g transform="translate(191.35543354422475 399.59852901059094) rotate(0 194.580078125 108.576171875)"><path d="M359.71 194.39 C367.83 194.83, 373.42 197.49, 389.18 200.03" fill="none" stroke="#1e1e1e" stroke-width="2.5"></path></g></g><mask></mask><g transform="translate(237.87105854422475 649.9461852605909) rotate(0 83.86992645263672 12.5)"><text direction="ltr" dominant-baseline="text-before-edge" fill="#1e1e1e" font-family="Virgil, Segoe UI Emoji" font-size="20px" style="white-space: pre;" text-anchor="start" x="0" y="0">Write Just Edits</text></g><g stroke-linecap="round"><g transform="translate(699.310798965025 700.7547790105909) rotate(0 35.84644563870097 32.92556599300451)"><path d="M0.02 -0.21 C5.59 11.96, 20.74 73.32, 32.68 72.4 C44.61 71.47, 65.22 7.38, 71.63 -5.76 M-1.43 -1.36 C4.57 10.54, 22.84 71.37, 34.89 70.83 C46.93 70.29, 64.79 8.19, 70.83 -4.59" fill="none" stroke="#1e1e1e" stroke-width="2"></path></g><g transform="translate(699.310798965025 700.7547790105909) rotate(0 35.84644563870097 32.92556599300451)"><path d="M70.58 25.41 C70.44 16.64, 72.61 10.96, 70.83 -4.59 M70.58 25.41 C70.86 17.53, 70.69 8.27, 70.83 -4.59" fill="none" stroke="#1e1e1e" stroke-width="2"></path></g><g transform="translate(699.310798965025 700.7547790105909) rotate(0 35.84644563870097 32.92556599300451)"><path d="M51.36 18.23 C55.78 11.17, 62.54 7.21, 70.83 -4.59 M51.36 18.23 C56.93 12.49, 62.08 5.22, 70.83 -4.59" fill="none" stroke="#1e1e1e" stroke-width="2"></path></g></g><mask></mask><g transform="translate(657.6601210442248 787.7821227605909) rotate(0 72.75993347167969 12.5)"><text direction="ltr" dominant-baseline="text-before-edge" fill="#1e1e1e" font-family="Virgil, Segoe UI Emoji" font-size="20px" style="white-space: pre;" text-anchor="start" x="0" y="0">Transform Ops</text></g><g transform="translate(857.5859022942248 521.5868102605909) rotate(0 55.01994323730469 12.5)"><text direction="ltr" dominant-baseline="text-before-edge" fill="#1e1e1e" font-family="Virgil, Segoe UI Emoji" font-size="20px" style="white-space: pre;" text-anchor="start" x="0" y="0">Applied Ops</text></g><g stroke-linecap="round"><g transform="translate(986.1210585442248 655.3914977605909) rotate(0 -63.373046875 -1.091796875)"><path d="M-0.54 -0.99 C-21.64 -1.22, -105.58 -1.37, -126.65 -1.67 M1.38 1.11 C-19.86 0.54, -106.01 -3.04, -127.55 -3.53" fill="none" stroke="#1e1e1e" stroke-width="2"></path></g><g transform="translate(986.1210585442248 655.3914977605909) rotate(0 -63.373046875 -1.091796875)"><path d="M-99.03 -12.84 C-109.1 -10.07, -115.01 -7.81, -127.55 -3.53 M-99.03 -12.84 C-106.91 -11.21, -113.36 -8.6, -127.55 -3.53" fill="none" stroke="#1e1e1e" stroke-width="2"></path></g><g transform="translate(986.1210585442248 655.3914977605909) rotate(0 -63.373046875 -1.091796875)"><path d="M-99.71 7.67 C-109.53 4.4, -115.24 0.61, -127.55 -3.53 M-99.71 7.67 C-107.38 4.22, -113.66 1.75, -127.55 -3.53" fill="none" stroke="#1e1e1e" stroke-width="2"></path></g></g><mask></mask><g transform="translate(846.7507735100451 681.1180602605909) rotate(0 79.00993347167969 25)"><text direction="ltr" dominant-baseline="text-before-edge" fill="#1e1e1e" font-family="Virgil, Segoe UI Emoji" font-size="20px" style="white-space: pre;" text-anchor="middle" x="79.00993347167969" y="0">On Initialization</text><text direction="ltr" dominant-baseline="text-before-edge" fill="#1e1e1e" font-family="Virgil, Segoe UI Emoji" font-size="20px" style="white-space: pre;" text-anchor="middle" x="79.00993347167969" y="25">Read all Ops</text></g><g stroke-linecap="round"><g transform="translate(741.3593397942248 513.1219665105909) rotate(0 -116.486328125 -85.177734375)"><path d="M-0.2 -0.63 C-6.63 -15.14, 0.47 -58.16, -38.48 -86.59 C-77.44 -115.01, -201.48 -157.12, -233.93 -171.16" fill="none" stroke="#1e1e1e" stroke-dasharray="8 10" stroke-width="2.5"></path></g><g transform="translate(741.3593397942248 513.1219665105909) rotate(0 -116.486328125 -85.177734375)"><path d="M-203.94 -170.52 C-214.23 -171.14, -222.44 -172.56, -233.93 -171.16" fill="none" stroke="#1e1e1e" stroke-width="2.5"></path></g><g transform="translate(741.3593397942248 513.1219665105909) rotate(0 -116.486328125 -85.177734375)"><path d="M-211.36 -151.39 C-219.45 -157.89, -225.38 -165.2, -233.93 -171.16" fill="none" stroke="#1e1e1e" stroke-width="2.5"></path></g></g><mask></mask><g transform="translate(723.2254362908068 418.14149776059094) rotate(0 81.23993682861328 25)"><text direction="ltr" dominant-baseline="text-before-edge" fill="#1e1e1e" font-family="Virgil, Segoe UI Emoji" font-size="20px" style="white-space: pre;" text-anchor="middle" x="81.23993682861328" y="0">Send all Applied </text><text direction="ltr" dominant-baseline="text-before-edge" fill="#1e1e1e" font-family="Virgil, Segoe UI Emoji" font-size="20px" style="white-space: pre;" text-anchor="middle" x="81.23993682861328" y="25">Ops on Connect</text></g><g transform="translate(245.86511834532644 554.3016540105909) rotate(0 116.40995788574219 17.5)"><text direction="ltr" dominant-baseline="text-before-edge" fill="#1e1e1e" font-family="Virgil, Segoe UI Emoji" font-size="28px" style="white-space: pre;" text-anchor="middle" x="116.40995788574219" y="0">Receive All Edits</text></g><g stroke-linecap="round"><g transform="translate(159.61324604422475 170.39540401059094) rotate(0 24.068359375 -39.26171875)"><path d="M-0.22 -0.44 C2.1 -13.44, 5.11 -78.14, 12.97 -78.77 C20.83 -79.41, 40.95 -16.63, 46.95 -4.24 M-1.8 -1.72 C0.4 -14.46, 3.25 -76.61, 11.76 -77.37 C20.26 -78.12, 42.91 -18.64, 49.21 -6.25" fill="none" stroke="#1e1e1e" stroke-width="2"></path></g><g transform="translate(159.61324604422475 170.39540401059094) rotate(0 24.068359375 -39.26171875)"><path d="M-7.2 -29.62 C-6.59 -24.02, -4.74 -18.74, -0.22 -0.44 M-7.2 -29.62 C-4.96 -18.58, -1.22 -8.99, -0.22 -0.44" fill="none" stroke="#1e1e1e" stroke-width="2"></path></g><g transform="translate(159.61324604422475 170.39540401059094) rotate(0 24.068359375 -39.26171875)"><path d="M13.19 -27.27 C9.32 -22.23, 6.69 -17.46, -0.22 -0.44 M13.19 -27.27 C8.23 -16.98, 4.8 -8.22, -0.22 -0.44" fill="none" stroke="#1e1e1e" stroke-width="2"></path></g><g transform="translate(159.61324604422475 170.39540401059094) rotate(0 24.068359375 -39.26171875)"><path d="M28.44 -27.89 C32.13 -23.93, 37.03 -20.31, 49.21 -6.25 M28.44 -27.89 C35.48 -19.55, 44.08 -12.62, 49.21 -6.25" fill="none" stroke="#1e1e1e" stroke-width="2"></path></g><g transform="translate(159.61324604422475 170.39540401059094) rotate(0 24.068359375 -39.26171875)"><path d="M47.21 -36.19 C46.71 -30.43, 47.47 -24.98, 49.21 -6.25 M47.21 -36.19 C47.7 -24.86, 49.69 -15.01, 49.21 -6.25" fill="none" stroke="#1e1e1e" stroke-width="2"></path></g></g><mask></mask><g transform="translate(10 10) rotate(0 142.0439453125 35)"><text direction="ltr" dominant-baseline="text-before-edge" fill="#1e1e1e" font-family="Virgil, Segoe UI Emoji" font-size="28px" style="white-space: pre;" text-anchor="middle" x="142.0439453125" y="0">Transform Received </text><text direction="ltr" dominant-baseline="text-before-edge" fill="#1e1e1e" font-family="Virgil, Segoe UI Emoji" font-size="28px" style="white-space: pre;" text-anchor="middle" x="142.0439453125" y="35">Ops</text></g><g transform="translate(1214.0302626841174 544.622452445652) rotate(0 65.18994903564453 50)"><text direction="ltr" dominant-baseline="text-before-edge" fill="#1e1e1e" font-family="Virgil, Segoe UI Emoji" font-size="20px" style="white-space: pre;" text-anchor="start" x="0" y="0">Operations</text><text direction="ltr" dominant-baseline="text-before-edge" fill="#1e1e1e" font-family="Virgil, Segoe UI Emoji" font-size="20px" style="white-space: pre;" text-anchor="start" x="0" y="25">  timestamp</text><text direction="ltr" dominant-baseline="text-before-edge" fill="#1e1e1e" font-family="Virgil, Segoe UI Emoji" font-size="20px" style="white-space: pre;" text-anchor="start" x="0" y="50">  documentId</text><text direction="ltr" dominant-baseline="text-before-edge" fill="#1e1e1e" font-family="Virgil, Segoe UI Emoji" font-size="20px" style="white-space: pre;" text-anchor="start" x="0" y="75">  data</text></g></svg>