<svg height="520.21484375" version="1.1" viewbox="0 0 1245.7691345214844 520.21484375" width="1245.7691345214844" xmlns="http://www.w3.org/2000/svg">
<!-- svg-source:excalidraw -->
<!-- payload-type:application/vnd.excalidraw+json --><!-- payload-version:2 -->
<defs>
<style class="style-fonts">
</style>
</defs>
<rect fill="#ffffff" height="520.21484375" width="1245.7691345214844" x="0" y="0"></rect><g stroke-linecap="round" transform="translate(10 32.67578125) rotate(0 83.921875 108.06640625)"><path d="M32 0 C60.04 -1.19, 87.02 -0.27, 135.84 0 M32 0 C62 -0.3, 91.72 0.1, 135.84 0 M135.84 0 C155.5 -0.19, 168.41 9.55, 167.84 32 M135.84 0 C158.34 2.1, 168.08 8.39, 167.84 32 M167.84 32 C167.47 69.68, 167.57 108.38, 167.84 184.13 M167.84 32 C167.39 79.24, 167.91 127, 167.84 184.13 M167.84 184.13 C167.29 205.02, 155.66 215.9, 135.84 216.13 M167.84 184.13 C166.65 205.66, 158.35 216.83, 135.84 216.13 M135.84 216.13 C93.96 214.96, 51.32 215.52, 32 216.13 M135.84 216.13 C103.03 216.15, 68.96 215.87, 32 216.13 M32 216.13 C12.48 215.57, -0.48 206.98, 0 184.13 M32 216.13 C12.51 217.39, 1.65 206.45, 0 184.13 M0 184.13 C0.09 149.97, -1.11 117.07, 0 32 M0 184.13 C0.42 142.48, -1.26 98.93, 0 32 M0 32 C1.66 10.36, 12.65 -0.14, 32 0 M0 32 C-0.93 10.6, 12.4 2.14, 32 0" fill="none" stroke="#1e1e1e" stroke-width="2"></path></g><g transform="translate(75.0400390625 128.2421875) rotate(0 18.8818359375 12.5)"><text direction="ltr" dominant-baseline="text-before-edge" fill="#1e1e1e" font-family="Virgil, Segoe UI Emoji" font-size="20px" style="white-space: pre;" text-anchor="middle" x="18.8818359375" y="0">User</text></g><g stroke-linecap="round" transform="translate(246.1484375 41.53125) rotate(0 87.310546875 101.091796875)"><path d="M32 0 C58.18 0.78, 86.28 0.14, 142.62 0 M32 0 C69.56 -1.06, 109.07 -1.52, 142.62 0 M142.62 0 C164.97 1.82, 174.82 8.69, 174.62 32 M142.62 0 C162.78 -1.43, 175.87 11.33, 174.62 32 M174.62 32 C175.35 72.29, 175.05 111.92, 174.62 170.18 M174.62 32 C174.51 67.3, 174.03 102.93, 174.62 170.18 M174.62 170.18 C173.58 191.68, 164.97 202.79, 142.62 202.18 M174.62 170.18 C176.89 191.48, 162.71 201.6, 142.62 202.18 M142.62 202.18 C113.18 202.97, 81.6 202.68, 32 202.18 M142.62 202.18 C102.08 202.42, 59.49 203.46, 32 202.18 M32 202.18 C12.27 203.28, 1.44 192.38, 0 170.18 M32 202.18 C8.85 201.78, 0.72 191.32, 0 170.18 M0 170.18 C0.53 133.17, 0.79 96.75, 0 32 M0 170.18 C2 117.47, 2.16 64.99, 0 32 M0 32 C-0.81 10.61, 12.17 1.86, 32 0 M0 32 C0.06 11.56, 10.11 0.6, 32 0" fill="none" stroke="#1e1e1e" stroke-width="2"></path></g><g transform="translate(279.30859375 130.123046875) rotate(0 54.150390625 12.5)"><text direction="ltr" dominant-baseline="text-before-edge" fill="#1e1e1e" font-family="Virgil, Segoe UI Emoji" font-size="20px" style="white-space: pre;" text-anchor="middle" x="54.150390625" y="0">API Gateway</text></g><g stroke-linecap="round" transform="translate(549.6015625 44.3828125) rotate(0 117.64453125000006 97.630859375)"><path d="M32 0 C89.56 -0.57, 146.96 -1.65, 203.29 0 M32 0 C82.24 1.87, 131.57 -0.03, 203.29 0 M203.29 0 C223.6 -1.24, 236.38 11.24, 235.29 32 M203.29 0 C224.44 0.77, 236.1 10.97, 235.29 32 M235.29 32 C234.41 71.17, 234.59 109.28, 235.29 163.26 M235.29 32 C233.77 68.52, 234.8 105.19, 235.29 163.26 M235.29 163.26 C237.26 184.56, 223.54 194.76, 203.29 195.26 M235.29 163.26 C234.59 182.57, 224.56 195.69, 203.29 195.26 M203.29 195.26 C146.41 194.25, 87.49 197.53, 32 195.26 M203.29 195.26 C157.51 197.11, 110.84 196.99, 32 195.26 M32 195.26 C9.08 194.91, 0.63 184.42, 0 163.26 M32 195.26 C10.02 193.69, 0.15 184.11, 0 163.26 M0 163.26 C1.71 118.63, -0.46 79.05, 0 32 M0 163.26 C-1.7 125.87, -0.55 89.46, 0 32 M0 32 C0.06 11.45, 10.18 0.52, 32 0 M0 32 C0.84 11.73, 9.89 1.41, 32 0" fill="none" stroke="#1e1e1e" stroke-width="2"></path></g><g transform="translate(585.888671875 117.013671875) rotate(0 81.357421875 25)"><text direction="ltr" dominant-baseline="text-before-edge" fill="#1e1e1e" font-family="Virgil, Segoe UI Emoji" font-size="20px" style="white-space: pre;" text-anchor="middle" x="81.357421875" y="0">Document Metadata</text><text direction="ltr" dominant-baseline="text-before-edge" fill="#1e1e1e" font-family="Virgil, Segoe UI Emoji" font-size="20px" style="white-space: pre;" text-anchor="middle" x="81.357421875" y="25">Service</text></g><g stroke-linecap="round" transform="translate(846.6640625 10) rotate(0 137.23242187499994 134.5)"><path d="M157.62 1.46 C171.82 1.16, 185.8 7.55, 198.77 14.26 C211.74 20.97, 224.89 31.15, 235.41 41.7 C245.94 52.25, 255.46 64.42, 261.89 77.58 C268.33 90.74, 272.5 106.18, 274.04 120.67 C275.58 135.15, 274.51 150.41, 271.14 164.48 C267.76 178.55, 261.72 192.67, 253.79 205.06 C245.86 217.45, 235.12 229.61, 223.56 238.84 C212 248.06, 198.32 255.5, 184.42 260.4 C170.52 265.29, 154.97 267.91, 140.16 268.21 C125.35 268.5, 109.65 266.36, 95.55 262.16 C81.44 257.96, 67.39 251.44, 55.54 243.02 C43.68 234.59, 32.83 223.79, 24.41 211.62 C15.98 199.44, 9.06 184.2, 4.99 169.96 C0.92 155.72, -0.75 140.62, -0.01 126.17 C0.73 111.72, 3.72 96.63, 9.44 83.29 C15.17 69.94, 24.51 56.99, 34.34 46.11 C44.18 35.23, 55.47 25.39, 68.46 17.98 C81.45 10.57, 96.54 4.11, 112.29 1.65 C128.04 -0.82, 153.78 2.5, 162.94 3.2 C172.11 3.9, 167.67 3.66, 167.29 5.85 M173.07 4.73 C187.14 6.29, 203.27 15.52, 215.62 23.65 C227.98 31.79, 238.42 41.88, 247.19 53.55 C255.95 65.23, 263.6 79.69, 268.21 93.73 C272.81 107.76, 275.01 122.96, 274.83 137.77 C274.65 152.57, 272.57 168.97, 267.12 182.56 C261.67 196.16, 251.52 208.31, 242.1 219.33 C232.69 230.35, 222.8 240.98, 210.62 248.68 C198.45 256.39, 183.85 262.32, 169.05 265.57 C154.26 268.82, 136.69 269.49, 121.86 268.18 C107.03 266.86, 93.43 263.75, 80.1 257.67 C66.76 251.59, 52.74 242.01, 41.82 231.72 C30.9 221.43, 21.23 208.87, 14.57 195.91 C7.92 182.96, 3.99 168.32, 1.89 153.99 C-0.21 139.67, -0.79 124.44, 1.98 109.96 C4.74 95.47, 10.9 79.92, 18.49 67.1 C26.09 54.28, 36.33 42.6, 47.56 33.04 C58.79 23.48, 72.13 14.97, 85.9 9.74 C99.66 4.5, 115.58 2.27, 130.13 1.63 C144.69 0.99, 165.86 4.89, 173.22 5.9 C180.58 6.91, 174.62 5.66, 174.3 7.69" fill="none" stroke="#1e1e1e" stroke-width="2"></path></g><g transform="translate(900.0010863935344 119.39413793040933) rotate(0 83.857421875 25)"><text direction="ltr" dominant-baseline="text-before-edge" fill="#1e1e1e" font-family="Virgil, Segoe UI Emoji" font-size="20px" style="white-space: pre;" text-anchor="middle" x="83.857421875" y="0">Document Metadata </text><text direction="ltr" dominant-baseline="text-before-edge" fill="#1e1e1e" font-family="Virgil, Segoe UI Emoji" font-size="20px" style="white-space: pre;" text-anchor="middle" x="83.857421875" y="25">DB</text></g><g stroke-linecap="round"><g transform="translate(178.38671875 132.94921875) rotate(0 30.150390625 -0.6415438895845682)"><path d="M0.61 1.09 C10.62 0.8, 50.58 -1.95, 60.42 -2.47 M-0.53 0.62 C9.3 0.48, 49.68 -1.27, 59.54 -1.55" fill="none" stroke="#1e1e1e" stroke-width="2"></path></g><g transform="translate(178.38671875 132.94921875) rotate(0 30.150390625 -0.6415438895845682)"><path d="M31.74 9.74 C42.76 6.09, 48.09 1.15, 59.54 -1.55 M31.74 9.74 C38.21 7.31, 45.25 4.42, 59.54 -1.55" fill="none" stroke="#1e1e1e" stroke-width="2"></path></g><g transform="translate(178.38671875 132.94921875) rotate(0 30.150390625 -0.6415438895845682)"><path d="M30.99 -10.77 C42.14 -7.68, 47.71 -5.89, 59.54 -1.55 M30.99 -10.77 C37.75 -8.32, 44.97 -6.33, 59.54 -1.55" fill="none" stroke="#1e1e1e" stroke-width="2"></path></g></g><mask></mask><g stroke-linecap="round"><g transform="translate(425.6328125 146.81187055264445) rotate(0 58.87109375 -2.7621410970089073)"><path d="M0.12 -1.19 C19.54 -2.41, 97.41 -5.61, 117.13 -6.27 M-1.27 0.81 C18.49 0.23, 99.64 -3.77, 119.52 -5.12" fill="none" stroke="#1e1e1e" stroke-width="2"></path></g><g transform="translate(425.6328125 146.81187055264445) rotate(0 58.87109375 -2.7621410970089073)"><path d="M91.95 6.72 C99.53 1.51, 109.93 -0.53, 119.52 -5.12 M91.95 6.72 C101.37 2.87, 110.05 -1.18, 119.52 -5.12" fill="none" stroke="#1e1e1e" stroke-width="2"></path></g><g transform="translate(425.6328125 146.81187055264445) rotate(0 58.87109375 -2.7621410970089073)"><path d="M90.79 -13.77 C98.96 -11.79, 109.77 -6.65, 119.52 -5.12 M90.79 -13.77 C100.58 -10.89, 109.63 -8.2, 119.52 -5.12" fill="none" stroke="#1e1e1e" stroke-width="2"></path></g></g><mask></mask><g transform="translate(432.4765625 94.89453125) rotate(0 47.73597717285156 10)"><text direction="ltr" dominant-baseline="text-before-edge" fill="#1e1e1e" font-family="Virgil, Segoe UI Emoji" font-size="16px" style="white-space: pre;" text-anchor="start" x="0" y="0">POST /docs</text></g><g stroke-linecap="round"><g transform="translate(790.2265625 126.2890625) rotate(0 23.2421875 0.875)"><path d="M0.3 0.16 C8.09 0.54, 38.71 1.66, 46.44 1.94 M-0.21 -0.24 C7.52 0, 38.21 0.62, 45.99 1.06" fill="none" stroke="#1e1e1e" stroke-width="2"></path></g><g transform="translate(790.2265625 126.2890625) rotate(0 23.2421875 0.875)"><path d="M23.86 8.22 C29.67 6.3, 35.22 4.95, 45.99 1.06 M23.86 8.22 C30.59 5.77, 37.79 3.57, 45.99 1.06" fill="none" stroke="#1e1e1e" stroke-width="2"></path></g><g transform="translate(790.2265625 126.2890625) rotate(0 23.2421875 0.875)"><path d="M24.43 -7.68 C30.06 -5.64, 35.47 -3.04, 45.99 1.06 M24.43 -7.68 C30.99 -5.15, 38 -2.37, 45.99 1.06" fill="none" stroke="#1e1e1e" stroke-width="2"></path></g></g><mask></mask><g transform="translate(1143.44921875 96.13671875) rotate(0 46.15995788574219 37.5)"><text direction="ltr" dominant-baseline="text-before-edge" fill="#1e1e1e" font-family="Virgil, Segoe UI Emoji" font-size="20px" style="white-space: pre;" text-anchor="start" x="0" y="0">Document</text><text direction="ltr" dominant-baseline="text-before-edge" fill="#1e1e1e" font-family="Virgil, Segoe UI Emoji" font-size="20px" style="white-space: pre;" text-anchor="start" x="0" y="25">  id</text><text direction="ltr" dominant-baseline="text-before-edge" fill="#1e1e1e" font-family="Virgil, Segoe UI Emoji" font-size="20px" style="white-space: pre;" text-anchor="start" x="0" y="50">  title</text></g><g stroke-linecap="round" transform="translate(528.80859375 317.91015625) rotate(0 128.2890625 85.94921875)"><path d="M32 0 C88.51 -0.75, 144.45 -1.47, 224.58 0 M32 0 C81.23 0.43, 130.25 0.53, 224.58 0 M224.58 0 C244.87 0.17, 257.6 11.28, 256.58 32 M224.58 0 C248.18 -0.04, 255.34 10.09, 256.58 32 M256.58 32 C256 61.89, 254.22 90.68, 256.58 139.9 M256.58 32 C256.69 72.15, 255.55 113.61, 256.58 139.9 M256.58 139.9 C258.19 162.32, 247.35 172.76, 224.58 171.9 M256.58 139.9 C254.76 160.83, 246.63 171.7, 224.58 171.9 M224.58 171.9 C171.83 172.57, 119.76 173.69, 32 171.9 M224.58 171.9 C152.16 171.21, 79.07 171.29, 32 171.9 M32 171.9 C9.86 171.84, 1.51 163.09, 0 139.9 M32 171.9 C10.73 172.79, -0.56 161.83, 0 139.9 M0 139.9 C0.73 103.97, -1.07 68.26, 0 32 M0 139.9 C0.09 110.23, -1.13 79.29, 0 32 M0 32 C1.05 10.82, 11.67 0.16, 32 0 M0 32 C-1.17 11.98, 12.82 0.86, 32 0" fill="none" stroke="#1e1e1e" stroke-width="2"></path></g><g transform="translate(582.95703125 391.359375) rotate(0 74.140625 12.5)"><text direction="ltr" dominant-baseline="text-before-edge" fill="#1e1e1e" font-family="Virgil, Segoe UI Emoji" font-size="20px" style="white-space: pre;" text-anchor="middle" x="74.140625" y="0">Document Service</text></g><g stroke-linecap="round"><g transform="translate(416.265625 239.2109375) rotate(0 53.0859375 38.96366035566837)"><path d="M-0.48 -0.52 C17.25 12.41, 88.6 64.49, 106.32 77.52 M1.47 1.83 C19.06 14.92, 88.21 66.01, 105.45 78.85" fill="none" stroke="#1e1e1e" stroke-width="2"></path></g><g transform="translate(416.265625 239.2109375) rotate(0 53.0859375 38.96366035566837)"><path d="M76.69 70.3 C84.36 73.19, 93.07 74.93, 105.45 78.85 M76.69 70.3 C84.09 72.79, 93.1 75.38, 105.45 78.85" fill="none" stroke="#1e1e1e" stroke-width="2"></path></g><g transform="translate(416.265625 239.2109375) rotate(0 53.0859375 38.96366035566837)"><path d="M88.91 53.81 C92.95 61.55, 98.04 68.17, 105.45 78.85 M88.91 53.81 C92.79 60.87, 98.41 68.04, 105.45 78.85" fill="none" stroke="#1e1e1e" stroke-width="2"></path></g></g><mask></mask><g transform="translate(438.3641074367159 225.5600597335042) rotate(0 49.989952087402344 12.5)"><text direction="ltr" dominant-baseline="text-before-edge" fill="#1e1e1e" font-family="Virgil, Segoe UI Emoji" font-size="20px" style="white-space: pre;" text-anchor="start" x="0" y="0">Websocket</text></g><g stroke-linecap="round" transform="translate(856.6640625 297.08984375) rotate(0 114.958984375 106.5625)"><path d="M72.46 8.09 C84.08 2.29, 100.31 1.29, 114.13 0.99 C127.96 0.69, 142.55 1.98, 155.41 6.28 C168.27 10.58, 181.14 18.17, 191.31 26.8 C201.49 35.44, 210.11 46.55, 216.47 58.1 C222.84 69.64, 228.06 83.28, 229.5 96.09 C230.95 108.91, 228.69 122.79, 225.13 134.98 C221.57 147.16, 216.16 158.78, 208.12 169.21 C200.09 179.63, 188.78 190.57, 176.91 197.51 C165.04 204.46, 150.45 208.41, 136.92 210.87 C123.38 213.34, 109.2 214.38, 95.71 212.3 C82.22 210.23, 67.85 205.34, 55.95 198.43 C44.06 191.52, 32.91 181.06, 24.34 170.82 C15.77 160.59, 8.54 149.27, 4.53 137.05 C0.52 124.83, -0.75 110.32, 0.3 97.49 C1.36 84.67, 4.84 71.52, 10.87 60.07 C16.89 48.62, 25.23 37.74, 36.47 28.79 C47.71 19.85, 70.06 10.34, 78.29 6.38 C86.53 2.41, 85.31 3.34, 85.89 5.02 M105.55 0.27 C118.46 -2.06, 135.92 2.13, 149.28 5.94 C162.65 9.74, 175.05 15.4, 185.71 23.13 C196.38 30.86, 206.09 41.26, 213.28 52.29 C220.46 63.32, 226.52 76.59, 228.82 89.33 C231.13 102.06, 229.91 116.32, 227.11 128.71 C224.31 141.1, 219.28 153.04, 212.01 163.65 C204.74 174.26, 194.61 184.76, 183.49 192.36 C172.37 199.95, 158.65 205.64, 145.29 209.23 C131.93 212.82, 117.38 215.1, 103.34 213.91 C89.31 212.72, 73.37 208.22, 61.07 202.11 C48.78 195.99, 38.45 186.97, 29.58 177.22 C20.71 167.47, 12.93 155.52, 7.88 143.61 C2.82 131.7, -1.08 118.5, -0.75 105.74 C-0.42 92.98, 4.3 78.88, 9.83 67.07 C15.37 55.26, 22.97 44.37, 32.45 34.88 C41.93 25.39, 54.38 15.72, 66.71 10.13 C79.05 4.53, 99.83 2.41, 106.45 1.33 C113.07 0.25, 106.41 1.85, 106.44 3.63" fill="none" stroke="#1e1e1e" stroke-width="2"></path></g><g transform="translate(909.0564491526192 391.30127737980854) rotate(0 62.7783203125 12.5)"><text direction="ltr" dominant-baseline="text-before-edge" fill="#1e1e1e" font-family="Virgil, Segoe UI Emoji" font-size="20px" style="white-space: pre;" text-anchor="middle" x="62.7783203125" y="0">Blob Store (S3)</text></g><g stroke-linecap="round"><g transform="translate(790.1796875 404.13671875) rotate(0 30.513671875 -1.1328125)"><path d="M-0.62 0.1 C9.8 -0.19, 51.17 -1.5, 61.64 -1.9 M1.25 -0.89 C11.65 -1.55, 50.87 -3.82, 61.01 -3.83" fill="none" stroke="#1e1e1e" stroke-width="2"></path></g><g transform="translate(790.1796875 404.13671875) rotate(0 30.513671875 -1.1328125)"><path d="M33.18 7.37 C39.6 6.02, 46.28 4.47, 61.01 -3.83 M33.18 7.37 C41.24 3.22, 49.81 0.94, 61.01 -3.83" fill="none" stroke="#1e1e1e" stroke-width="2"></path></g><g transform="translate(790.1796875 404.13671875) rotate(0 30.513671875 -1.1328125)"><path d="M32.49 -13.14 C39.04 -9.89, 45.87 -6.85, 61.01 -3.83 M32.49 -13.14 C40.64 -11.17, 49.42 -7.33, 61.01 -3.83" fill="none" stroke="#1e1e1e" stroke-width="2"></path></g></g><mask></mask><g transform="translate(239.50361283409063 283.76218308597424) rotate(0 110.24990844726562 12.5)"><text direction="ltr" dominant-baseline="text-before-edge" fill="#1e1e1e" font-family="Virgil, Segoe UI Emoji" font-size="20px" style="white-space: pre;" text-anchor="start" x="0" y="0">Write Entire Document</text></g></svg>