<svg height="401.3685497775858" version="1.1" viewbox="0 0 867.7202256747149 401.3685497775858" width="867.7202256747149" xmlns="http://www.w3.org/2000/svg">
<!-- svg-source:excalidraw -->
<!-- payload-type:application/vnd.excalidraw+json --><!-- payload-version:2 -->
<defs>
<style class="style-fonts">
</style>
</defs>
<rect fill="#ffffff" height="401.3685497775858" width="867.7202256747149" x="0" y="0"></rect><g stroke-linecap="round" transform="translate(13.830078125 10) rotate(0 42.560546875 43.259765625)"><path d="M21.28 0 C33.51 -0.56, 45.62 -1.31, 63.84 0 M21.28 0 C37.83 -0.61, 53.56 -0.36, 63.84 0 M63.84 0 C76.11 -0.09, 86.22 8.07, 85.12 21.28 M63.84 0 C78.1 -1.56, 86.91 5.19, 85.12 21.28 M85.12 21.28 C84.15 31.2, 86.05 42.26, 85.12 65.24 M85.12 21.28 C84.21 34.18, 85.01 48.73, 85.12 65.24 M85.12 65.24 C85.2 77.62, 77.53 86.88, 63.84 86.52 M85.12 65.24 C87.25 79.76, 78.38 85.17, 63.84 86.52 M63.84 86.52 C52.21 86, 44.02 86.82, 21.28 86.52 M63.84 86.52 C47.68 87.47, 30.48 87.06, 21.28 86.52 M21.28 86.52 C8.27 84.57, 1.48 80.36, 0 65.24 M21.28 86.52 C5.34 85.7, -1.44 78.93, 0 65.24 M0 65.24 C0.85 56.74, 0.43 47.48, 0 21.28 M0 65.24 C0.23 50.35, 0.33 35.79, 0 21.28 M0 21.28 C-0.1 5.85, 8.01 -1.6, 21.28 0 M0 21.28 C0.1 9.22, 5.09 1.56, 21.28 0" fill="none" stroke="#1e1e1e" stroke-width="2"></path></g><g transform="translate(22.490646362304688 40.759765625) rotate(0 33.89997863769531 12.5)"><text direction="ltr" dominant-baseline="text-before-edge" fill="#1e1e1e" font-family="Virgil, Segoe UI Emoji" font-size="20px" style="white-space: pre;" text-anchor="middle" x="33.89997863769531" y="0">User A</text></g><g stroke-linecap="round" transform="translate(12.87890625 141.111328125) rotate(0 42.560546875 43.259765625)"><path d="M21.28 0 C35.32 -1.55, 47.48 0.88, 63.84 0 M21.28 0 C31.71 -0.01, 44.6 0.52, 63.84 0 M63.84 0 C78.09 -1.36, 86.68 5.44, 85.12 21.28 M63.84 0 C76.56 1.18, 85.85 5.72, 85.12 21.28 M85.12 21.28 C85.6 32.71, 86.77 44.09, 85.12 65.24 M85.12 21.28 C85.18 29.21, 84.9 39.13, 85.12 65.24 M85.12 65.24 C86.98 79.71, 78.34 85.35, 63.84 86.52 M85.12 65.24 C84.05 78.15, 78.82 85.56, 63.84 86.52 M63.84 86.52 C54.46 87.13, 40.98 88.14, 21.28 86.52 M63.84 86.52 C47.48 85.79, 30.69 87.23, 21.28 86.52 M21.28 86.52 C5.56 85.81, -1.25 79, 0 65.24 M21.28 86.52 C5.22 85.22, 0.22 80.12, 0 65.24 M0 65.24 C0.68 49.88, -1.31 34.55, 0 21.28 M0 65.24 C-0.22 51.93, 0.28 39.07, 0 21.28 M0 21.28 C0.08 8.95, 5.35 1.36, 21.28 0 M0 21.28 C-2.09 5.21, 6.85 1.37, 21.28 0" fill="none" stroke="#1e1e1e" stroke-width="2"></path></g><g transform="translate(20.82947540283203 171.87109375) rotate(0 34.60997772216797 12.5)"><text direction="ltr" dominant-baseline="text-before-edge" fill="#1e1e1e" font-family="Virgil, Segoe UI Emoji" font-size="20px" style="white-space: pre;" text-anchor="middle" x="34.60997772216797" y="0">User B</text></g><g stroke-linecap="round" transform="translate(10 267.14257812500006) rotate(0 42.560546875 43.259765625)"><path d="M21.28 0 C29.69 -0.42, 39.26 -2.06, 63.84 0 M21.28 0 C33.9 -0.89, 47.23 -1.03, 63.84 0 M63.84 0 C76.75 1.02, 85.75 5.9, 85.12 21.28 M63.84 0 C77.49 0.81, 85.36 7.46, 85.12 21.28 M85.12 21.28 C83.47 32.98, 84.79 44.56, 85.12 65.24 M85.12 21.28 C85.94 30.64, 85.17 39.13, 85.12 65.24 M85.12 65.24 C84.19 78.32, 78.71 85.69, 63.84 86.52 M85.12 65.24 C84.35 81.46, 78.21 88.78, 63.84 86.52 M63.84 86.52 C51.81 87.94, 37 88.03, 21.28 86.52 M63.84 86.52 C54.46 86.36, 45.97 86.5, 21.28 86.52 M21.28 86.52 C5.47 85.39, 0.19 80.03, 0 65.24 M21.28 86.52 C8.38 86.73, 1.69 80.25, 0 65.24 M0 65.24 C0.05 52.22, 0.47 37.53, 0 21.28 M0 65.24 C-0.16 55.7, -1.07 44.99, 0 21.28 M0 21.28 C-1.82 5.45, 6.88 1.2, 21.28 0 M0 21.28 C1.79 7.97, 6.86 0.26, 21.28 0" fill="none" stroke="#1e1e1e" stroke-width="2"></path></g><g transform="translate(18.78057098388672 297.90234375000006) rotate(0 33.77997589111328 12.5)"><text direction="ltr" dominant-baseline="text-before-edge" fill="#1e1e1e" font-family="Virgil, Segoe UI Emoji" font-size="20px" style="white-space: pre;" text-anchor="middle" x="33.77997589111328" y="0">User C</text></g><g stroke-linecap="round" transform="translate(192.716796875 46.06640625) rotate(0 72.84765625 58.009765625)"><path d="M29 0 C54.04 1.94, 80.22 0.9, 116.69 0 M29 0 C48.72 1.24, 70.02 0.13, 116.69 0 M116.69 0 C135.56 0.71, 145.9 9.99, 145.7 29 M116.69 0 C135.19 1.71, 143.97 7.39, 145.7 29 M145.7 29 C143.7 46.22, 145.86 66.28, 145.7 87.01 M145.7 29 C145.32 46.69, 146.13 65.06, 145.7 87.01 M145.7 87.01 C145.03 108.12, 136.18 117.99, 116.69 116.02 M145.7 87.01 C146.36 106.16, 137.85 118.28, 116.69 116.02 M116.69 116.02 C83.69 118.02, 55.52 115, 29 116.02 M116.69 116.02 C92.7 115.27, 70.44 116.13, 29 116.02 M29 116.02 C10.78 116.2, 1.47 107.07, 0 87.01 M29 116.02 C9.99 114.56, 0.68 106.09, 0 87.01 M0 87.01 C-1.29 68.23, -1.65 47.71, 0 29 M0 87.01 C-0.41 63.42, 0.4 42.06, 0 29 M0 29 C1.56 10.43, 9.47 0.22, 29 0 M0 29 C2.24 8.16, 11.89 1.03, 29 0" fill="none" stroke="#1e1e1e" stroke-width="2"></path></g><g transform="translate(227.00448608398438 91.576171875) rotate(0 38.559967041015625 12.5)"><text direction="ltr" dominant-baseline="text-before-edge" fill="#1e1e1e" font-family="Virgil, Segoe UI Emoji" font-size="20px" style="white-space: pre;" text-anchor="middle" x="38.559967041015625" y="0">Server 1</text></g><g stroke-linecap="round" transform="translate(189.080078125 200.408203125) rotate(0 72.84765625 58.009765625)"><path d="M29 0 C58.77 1.53, 89.59 -1.3, 116.69 0 M29 0 C59.57 0.88, 90.7 0.68, 116.69 0 M116.69 0 C135.3 1.49, 144.2 7.69, 145.7 29 M116.69 0 C136.15 -0.76, 145.79 7.59, 145.7 29 M145.7 29 C146.09 45.28, 144.63 60.02, 145.7 87.01 M145.7 29 C145.56 44.08, 145.97 58.38, 145.7 87.01 M145.7 87.01 C146.27 106.18, 137.61 117.98, 116.69 116.02 M145.7 87.01 C146.94 107.67, 137.38 113.78, 116.69 116.02 M116.69 116.02 C83.17 114.1, 50.65 113.72, 29 116.02 M116.69 116.02 C95.88 116.37, 74.69 116.64, 29 116.02 M29 116.02 C9.95 114.75, 0.59 106.12, 0 87.01 M29 116.02 C10.58 116.24, -0.11 104.93, 0 87.01 M0 87.01 C2.32 65.23, 1.82 45.1, 0 29 M0 87.01 C0.84 74.75, -0.04 61.83, 0 29 M0 29 C1.95 8.35, 11.6 0.9, 29 0 M0 29 C1.63 10.73, 11.01 -0.19, 29 0" fill="none" stroke="#1e1e1e" stroke-width="2"></path></g><g transform="translate(218.95777130126953 245.91796875) rotate(0 42.96996307373047 12.5)"><text direction="ltr" dominant-baseline="text-before-edge" fill="#1e1e1e" font-family="Virgil, Segoe UI Emoji" font-size="20px" style="white-space: pre;" text-anchor="middle" x="42.96996307373047" y="0">Server 2</text></g><g stroke-linecap="round"><g transform="translate(102.216796875 55.50390625) rotate(0 38.2109375 12.244140625)"><path d="M-0.76 0.61 C11.88 4.74, 63.98 19.72, 76.8 23.77 M1.04 -0.11 C13.47 4.25, 63.69 21.12, 76.05 24.93" fill="none" stroke="#ffffff" stroke-width="2"></path></g><g transform="translate(102.216796875 55.50390625) rotate(0 38.2109375 12.244140625)"><path d="M29.18 -1.17 C18.88 -0.05, 5.35 -0.48, -0.76 0.61 M29.18 -1.17 C18.78 0.22, 8.35 -0.91, -0.76 0.61" fill="none" stroke="#ffffff" stroke-width="2"></path></g><g transform="translate(102.216796875 55.50390625) rotate(0 38.2109375 12.244140625)"><path d="M23.32 18.5 C15.4 12.22, 4.08 4.37, -0.76 0.61 M23.32 18.5 C14.87 13.29, 6.4 5.55, -0.76 0.61" fill="none" stroke="#ffffff" stroke-width="2"></path></g><g transform="translate(102.216796875 55.50390625) rotate(0 38.2109375 12.244140625)"><path d="M46.07 25.98 C58.43 26.41, 67.53 24.91, 76.05 24.93 M46.07 25.98 C55.76 26.33, 65.43 24.24, 76.05 24.93" fill="none" stroke="#ffffff" stroke-width="2"></path></g><g transform="translate(102.216796875 55.50390625) rotate(0 38.2109375 12.244140625)"><path d="M52.41 6.47 C62.21 14.22, 68.92 20.1, 76.05 24.93 M52.41 6.47 C59.99 13.37, 67.53 17.82, 76.05 24.93" fill="none" stroke="#ffffff" stroke-width="2"></path></g></g><mask></mask><g stroke-linecap="round"><g transform="translate(107.474609375 52.671875) rotate(0 39.236328125 19.974609375)"><path d="M0.38 -0.72 C13.54 5.91, 65.15 33.56, 78.19 40.37 M-0.88 1.52 C12.16 7.72, 63.97 31.8, 77.1 38.47" fill="none" stroke="#1e1e1e" stroke-width="2"></path></g><g transform="translate(107.474609375 52.671875) rotate(0 39.236328125 19.974609375)"><path d="M30.1 3.36 C21.86 2.02, 16.74 1.73, 0.38 -0.72 M30.1 3.36 C19.98 1.31, 11.39 0.67, 0.38 -0.72" fill="none" stroke="#1e1e1e" stroke-width="2"></path></g><g transform="translate(107.474609375 52.671875) rotate(0 39.236328125 19.974609375)"><path d="M20.52 21.51 C14.45 15.85, 11.6 11.28, 0.38 -0.72 M20.52 21.51 C13.49 13.65, 7.93 7.28, 0.38 -0.72" fill="none" stroke="#1e1e1e" stroke-width="2"></path></g><g transform="translate(107.474609375 52.671875) rotate(0 39.236328125 19.974609375)"><path d="M47.25 35.44 C53.12 35.59, 62.08 36.99, 77.1 38.47 M47.25 35.44 C55.92 35.18, 66.15 36.8, 77.1 38.47" fill="none" stroke="#1e1e1e" stroke-width="2"></path></g><g transform="translate(107.474609375 52.671875) rotate(0 39.236328125 19.974609375)"><path d="M56.18 16.96 C60.04 21.51, 66.88 27.27, 77.1 38.47 M56.18 16.96 C61.96 22.61, 69.37 30.07, 77.1 38.47" fill="none" stroke="#1e1e1e" stroke-width="2"></path></g></g><mask></mask><g stroke-linecap="round"><g transform="translate(104.650390625 186.0078125) rotate(0 39.408203125 20.79296875)"><path d="M-0.28 0.42 C12.81 7.51, 65.83 34.77, 78.94 41.78 M1.77 -0.4 C14.68 6.97, 65.45 36.58, 78.06 43.42" fill="none" stroke="#1e1e1e" stroke-width="2"></path></g><g transform="translate(104.650390625 186.0078125) rotate(0 39.408203125 20.79296875)"><path d="M29.46 4.36 C20.33 3.19, 10.08 0.96, -0.28 0.42 M29.46 4.36 C18.4 2.26, 7.25 0.22, -0.28 0.42" fill="none" stroke="#1e1e1e" stroke-width="2"></path></g><g transform="translate(104.650390625 186.0078125) rotate(0 39.408203125 20.79296875)"><path d="M19.97 22.56 C14.09 15.38, 6.99 7.11, -0.28 0.42 M19.97 22.56 C12.6 13.74, 5.01 4.87, -0.28 0.42" fill="none" stroke="#1e1e1e" stroke-width="2"></path></g><g transform="translate(104.650390625 186.0078125) rotate(0 39.408203125 20.79296875)"><path d="M48.47 38.46 C58.96 40.38, 68.38 41.09, 78.06 43.42 M48.47 38.46 C59.57 40.28, 70.64 41.56, 78.06 43.42" fill="none" stroke="#1e1e1e" stroke-width="2"></path></g><g transform="translate(104.650390625 186.0078125) rotate(0 39.408203125 20.79296875)"><path d="M58.57 20.6 C65.6 28.42, 71.68 35.05, 78.06 43.42 M58.57 20.6 C65.75 29.01, 73.04 36.98, 78.06 43.42" fill="none" stroke="#1e1e1e" stroke-width="2"></path></g></g><mask></mask><g stroke-linecap="round"><g transform="translate(101.630859375 316.78515625000006) rotate(0 38.04296875 -15.998046875)"><path d="M0.12 0.19 C12.78 -5.06, 63.14 -25.54, 75.65 -31.1 M-1.27 -0.75 C11.21 -6.37, 61.33 -27.46, 74.48 -32.75" fill="none" stroke="#1e1e1e" stroke-width="2"></path></g><g transform="translate(101.630859375 316.78515625000006) rotate(0 38.04296875 -15.998046875)"><path d="M22.29 -20.02 C16.55 -15.13, 11.59 -10.32, 0.12 0.19 M22.29 -20.02 C17.89 -16.94, 13.14 -11.79, 0.12 0.19" fill="none" stroke="#1e1e1e" stroke-width="2"></path></g><g transform="translate(101.630859375 316.78515625000006) rotate(0 38.04296875 -15.998046875)"><path d="M30.1 -1.04 C22.13 -1.4, 15.02 -1.83, 0.12 0.19 M30.1 -1.04 C24.11 -1.8, 17.8 -0.47, 0.12 0.19" fill="none" stroke="#1e1e1e" stroke-width="2"></path></g><g transform="translate(101.630859375 316.78515625000006) rotate(0 38.04296875 -15.998046875)"><path d="M52.34 -12.5 C58.71 -18.85, 66 -25.22, 74.48 -32.75 M52.34 -12.5 C56.82 -17.4, 60.98 -20.39, 74.48 -32.75" fill="none" stroke="#1e1e1e" stroke-width="2"></path></g><g transform="translate(101.630859375 316.78515625000006) rotate(0 38.04296875 -15.998046875)"><path d="M44.5 -31.47 C53.11 -32.58, 62.57 -33.71, 74.48 -32.75 M44.5 -31.47 C50.57 -32.53, 56.31 -31.71, 74.48 -32.75" fill="none" stroke="#1e1e1e" stroke-width="2"></path></g></g><mask></mask><g stroke-linecap="round"><g transform="translate(856.181640625 183.44140625) rotate(0 -220.859375 1.677734375)"><path d="M-0.43 0.89 C-74.22 1.22, -369.08 1.82, -442.62 2.17 M1.54 0.32 C-71.89 0.73, -366.39 2.46, -440.38 3.08" fill="none" stroke="#1e1e1e" stroke-width="2"></path></g><g transform="translate(856.181640625 183.44140625) rotate(0 -220.859375 1.677734375)"><path d="M-412.26 -7.37 C-419.48 -5.73, -431.67 -0.88, -440.38 3.08 M-412.26 -7.37 C-420 -4.66, -426.33 -1.91, -440.38 3.08" fill="none" stroke="#1e1e1e" stroke-width="2"></path></g><g transform="translate(856.181640625 183.44140625) rotate(0 -220.859375 1.677734375)"><path d="M-412.12 13.15 C-419.41 8.42, -431.65 6.9, -440.38 3.08 M-412.12 13.15 C-419.91 10.38, -426.28 7.66, -440.38 3.08" fill="none" stroke="#1e1e1e" stroke-width="2"></path></g></g><mask></mask><g transform="translate(423.2385406494141 107.84765625) rotate(0 176.54986572265622 25)"><text direction="ltr" dominant-baseline="text-before-edge" fill="#1e1e1e" font-family="Virgil, Segoe UI Emoji" font-size="20px" style="white-space: pre;" text-anchor="middle" x="176.54986572265625" y="0">I need to send message to User C,</text><text direction="ltr" dominant-baseline="text-before-edge" fill="#1e1e1e" font-family="Virgil, Segoe UI Emoji" font-size="20px" style="white-space: pre;" text-anchor="middle" x="176.54986572265625" y="25">which server do I connect to?</text></g><g stroke-linecap="round"><g transform="translate(399.130859375 311.18750000000006) rotate(0 -123.8203125 40.53125)"><path d="M0.06 -0.4 C-34.44 13.13, -166.61 76.16, -207.94 79.98 C-249.27 83.8, -241.51 32.11, -247.94 22.53" fill="none" stroke="#1e1e1e" stroke-dasharray="8 10" stroke-width="2.5"></path></g><g transform="translate(399.130859375 311.18750000000006) rotate(0 -123.8203125 40.53125)"><path d="M-232.08 48 C-236.06 42.35, -240.77 36.05, -247.94 22.53" fill="none" stroke="#1e1e1e" stroke-width="2.5"></path></g><g transform="translate(399.130859375 311.18750000000006) rotate(0 -123.8203125 40.53125)"><path d="M-252.15 52.23 C-251.57 45.63, -251.77 38.37, -247.94 22.53" fill="none" stroke="#1e1e1e" stroke-width="2.5"></path></g></g><mask></mask><g transform="translate(411.552734375 276.06640625000006) rotate(0 110.27989959716797 12.5)"><text direction="ltr" dominant-baseline="text-before-edge" fill="#1e1e1e" font-family="Virgil, Segoe UI Emoji" font-size="20px" style="white-space: pre;" text-anchor="start" x="0" y="0">Websocket Connections</text></g></svg>