<svg height="912.40663684838" version="1.1" viewbox="0 0 1391.7768858626396 912.40663684838" width="1391.7768858626396" xmlns="http://www.w3.org/2000/svg">
<!-- svg-source:excalidraw -->
<!-- payload-type:application/vnd.excalidraw+json --><!-- payload-version:2 -->
<defs>
<style class="style-fonts">
</style>
</defs>
<rect fill="#ffffff" height="912.40663684838" width="1391.7768858626396" x="0" y="0"></rect><g stroke-linecap="round" transform="translate(46.112518310546875 151.203125) rotate(0 83.921875 108.06640625)"><path d="M32 0 C62.06 0.55, 87.61 0.41, 135.84 0 M32 0 C55.82 1.87, 78.61 1.1, 135.84 0 M135.84 0 C155.53 -1.41, 168.41 10.8, 167.84 32 M135.84 0 C156.36 -2.29, 167.33 9.51, 167.84 32 M167.84 32 C167.43 75.68, 167.06 121.96, 167.84 184.13 M167.84 32 C169.09 85.66, 168.98 137.5, 167.84 184.13 M167.84 184.13 C168.34 203.64, 157.39 214.34, 135.84 216.13 M167.84 184.13 C166.44 205.47, 156.43 215.93, 135.84 216.13 M135.84 216.13 C97.09 218.42, 59.35 215.28, 32 216.13 M135.84 216.13 C109.54 215.73, 82.64 216.97, 32 216.13 M32 216.13 C10.25 217.97, -0.87 204.25, 0 184.13 M32 216.13 C9.41 215.86, -1.74 205.74, 0 184.13 M0 184.13 C0.98 133.35, 2.23 86.52, 0 32 M0 184.13 C1.79 132.51, 0.42 81.25, 0 32 M0 32 C0.44 8.82, 10.17 -0.28, 32 0 M0 32 C-0.03 10.26, 10.78 -1.89, 32 0" fill="none" stroke="#1e1e1e" stroke-width="2"></path></g><g transform="translate(107.69441223144531 246.76953125) rotate(0 22.339981079101562 12.5)"><text direction="ltr" dominant-baseline="text-before-edge" fill="#1e1e1e" font-family="Virgil, Segoe UI Emoji" font-size="20px" style="white-space: pre;" text-anchor="middle" x="22.339981079101562" y="0">User</text></g><g stroke-linecap="round" transform="translate(282.2609558105469 160.05859375) rotate(0 87.310546875 101.091796875)"><path d="M32 0 C70.06 -2.54, 109.32 0.92, 142.62 0 M32 0 C74.19 -0.83, 118.3 -0.06, 142.62 0 M142.62 0 C163.25 -2, 174.17 9.66, 174.62 32 M142.62 0 C163.75 -0.84, 175.03 10.82, 174.62 32 M174.62 32 C175.44 70.25, 173.44 106.8, 174.62 170.18 M174.62 32 C175.19 80.13, 175.05 129.2, 174.62 170.18 M174.62 170.18 C173.4 191.52, 163.31 202.01, 142.62 202.18 M174.62 170.18 C176.17 192.14, 164.72 201.51, 142.62 202.18 M142.62 202.18 C97.81 199.66, 54.89 201.83, 32 202.18 M142.62 202.18 C114.15 203.98, 85.66 202.46, 32 202.18 M32 202.18 C9.57 201.95, -1.51 191.75, 0 170.18 M32 202.18 C11.18 201.64, -1.62 192.23, 0 170.18 M0 170.18 C-0.53 139.15, 0.37 112.57, 0 32 M0 170.18 C1.58 130.69, 1.11 92.91, 0 32 M0 32 C-0.03 10.32, 10.76 -1.64, 32 0 M0 32 C-0.16 12.27, 12.08 -0.94, 32 0" fill="none" stroke="#1e1e1e" stroke-width="2"></path></g><g transform="translate(302.82154083251953 248.650390625) rotate(0 66.74996185302734 12.5)"><text direction="ltr" dominant-baseline="text-before-edge" fill="#1e1e1e" font-family="Virgil, Segoe UI Emoji" font-size="20px" style="white-space: pre;" text-anchor="middle" x="66.74996185302734" y="0">API Gateway</text></g><g stroke-linecap="round" transform="translate(585.714080810547 162.91015625) rotate(0 117.64453125000006 97.630859375)"><path d="M32 0 C68.25 -0.35, 101.18 -2.91, 203.29 0 M32 0 C70.94 -1.11, 110.37 -0.61, 203.29 0 M203.29 0 C224.45 -0.73, 235.64 10.8, 235.29 32 M203.29 0 C223.89 -0.27, 236.81 11.8, 235.29 32 M235.29 32 C235.72 79.65, 233.17 126.88, 235.29 163.26 M235.29 32 C234.82 59.37, 235.11 86.65, 235.29 163.26 M235.29 163.26 C236.64 185.14, 225.29 194.68, 203.29 195.26 M235.29 163.26 C237.52 184.41, 223.25 194.22, 203.29 195.26 M203.29 195.26 C166.96 194.94, 134 195.1, 32 195.26 M203.29 195.26 C135.64 194.1, 68.34 194.34, 32 195.26 M32 195.26 C11.11 194.79, -1.41 185.22, 0 163.26 M32 195.26 C8.63 197.41, 0.46 185.47, 0 163.26 M0 163.26 C-1.51 133.98, -1.19 109.07, 0 32 M0 163.26 C0.31 135.85, 0.38 107.97, 0 32 M0 32 C-0.14 12.06, 11.9 -0.81, 32 0 M0 32 C0.5 9.3, 10.87 -0.34, 32 0" fill="none" stroke="#1e1e1e" stroke-width="2"></path></g><g transform="translate(602.0686874389651 235.541015625) rotate(0 101.28992462158203 25)"><text direction="ltr" dominant-baseline="text-before-edge" fill="#1e1e1e" font-family="Virgil, Segoe UI Emoji" font-size="20px" style="white-space: pre;" text-anchor="middle" x="101.28992462158203" y="0">Document Metadata</text><text direction="ltr" dominant-baseline="text-before-edge" fill="#1e1e1e" font-family="Virgil, Segoe UI Emoji" font-size="20px" style="white-space: pre;" text-anchor="middle" x="101.28992462158203" y="25">Service</text></g><g stroke-linecap="round" transform="translate(882.776580810547 128.52734375) rotate(0 137.23242187499994 134.5)"><path d="M155.43 1.1 C169.61 0.98, 185.67 7.89, 199.01 14.56 C212.35 21.23, 225.06 30.72, 235.48 41.14 C245.9 51.56, 255.21 63.83, 261.56 77.09 C267.9 90.35, 271.89 106.08, 273.55 120.71 C275.22 135.33, 274.91 150.7, 271.56 164.84 C268.21 178.99, 261.25 193.24, 253.45 205.56 C245.65 217.89, 236.28 229.56, 224.75 238.77 C213.23 247.98, 198.46 255.78, 184.29 260.83 C170.13 265.88, 154.62 268.85, 139.75 269.07 C124.87 269.29, 109.04 266.61, 95.03 262.15 C81.02 257.7, 67.49 250.79, 55.68 242.35 C43.87 233.91, 32.56 223.41, 24.17 211.53 C15.78 199.66, 9.39 185.07, 5.35 171.1 C1.32 157.13, -0.86 142.4, -0.06 127.72 C0.73 113.03, 4.54 96.76, 10.14 82.97 C15.74 69.18, 23.72 55.8, 33.52 44.98 C43.33 34.15, 56.08 25.14, 68.96 18 C81.85 10.86, 95.55 4.87, 110.82 2.14 C126.1 -0.59, 151.83 1.21, 160.63 1.63 C169.43 2.04, 164.24 2.49, 163.63 4.64 M129.55 -0.12 C143.52 -3, 159.04 1.21, 173.07 5.42 C187.1 9.63, 201.26 16.84, 213.72 25.12 C226.18 33.39, 239.01 43.38, 247.84 55.05 C256.67 66.73, 262.16 81.43, 266.69 95.17 C271.22 108.9, 275.39 123.11, 275.01 137.44 C274.64 151.77, 269.64 167.7, 264.44 181.17 C259.23 194.64, 253.01 207.02, 243.79 218.27 C234.57 229.51, 221.8 240.78, 209.12 248.64 C196.43 256.49, 182.08 262.32, 167.67 265.38 C153.26 268.44, 137.45 268.33, 122.67 267 C107.88 265.66, 92.29 263.44, 78.97 257.37 C65.66 251.31, 53.4 241.05, 42.79 230.61 C32.18 220.17, 22.2 207.64, 15.32 194.74 C8.44 181.84, 3.4 167.28, 1.5 153.2 C-0.4 139.12, 1.36 124.57, 3.9 110.26 C6.44 95.94, 9.54 79.98, 16.74 67.3 C23.93 54.62, 35.66 43.64, 47.08 34.15 C58.49 24.67, 71.52 16.12, 85.2 10.39 C98.88 4.66, 121.92 1.21, 129.14 -0.25 C136.37 -1.71, 128.38 -0.74, 128.55 1.63" fill="none" stroke="#1e1e1e" stroke-width="2"></path></g><g transform="translate(949.7710677778118 237.92148168040936) rotate(0 70.19995880126953 25.000000000000004)"><text direction="ltr" dominant-baseline="text-before-edge" fill="#1e1e1e" font-family="Virgil, Segoe UI Emoji" font-size="20px" style="white-space: pre;" text-anchor="middle" x="70.19995880126953" y="0">Document </text><text direction="ltr" dominant-baseline="text-before-edge" fill="#1e1e1e" font-family="Virgil, Segoe UI Emoji" font-size="20px" style="white-space: pre;" text-anchor="middle" x="70.19995880126953" y="25">Metadata DB</text></g><g stroke-linecap="round"><g transform="translate(214.95626831054688 251.46683773028053) rotate(0 29.921875 -0.6366815047248338)"><path d="M-0.42 -1.2 C9.45 -1.52, 49.55 -1.79, 59.57 -1.88 M1.55 0.79 C11.22 0.61, 48.92 -0.42, 58.48 -0.65" fill="none" stroke="#1e1e1e" stroke-width="2"></path></g><g transform="translate(214.95626831054688 251.46683773028053) rotate(0 29.921875 -0.6366815047248338)"><path d="M30.64 10.31 C37.77 6.36, 47.9 3.04, 58.48 -0.65 M30.64 10.31 C37.64 7.28, 45.96 5, 58.48 -0.65" fill="none" stroke="#1e1e1e" stroke-width="2"></path></g><g transform="translate(214.95626831054688 251.46683773028053) rotate(0 29.921875 -0.6366815047248338)"><path d="M30.1 -10.16 C37.43 -7.39, 47.73 -4, 58.48 -0.65 M30.1 -10.16 C37.29 -7.79, 45.75 -4.67, 58.48 -0.65" fill="none" stroke="#1e1e1e" stroke-width="2"></path></g></g><mask></mask><g stroke-linecap="round"><g transform="translate(461.745330810547 265.3392143026449) rotate(0 58.87109375 -2.7621410970089073)"><path d="M-0.27 -0.6 C19.41 -1.4, 97.93 -5.15, 117.64 -5.96 M1.79 1.7 C21.34 1.17, 97.38 -3.69, 116.63 -4.65" fill="none" stroke="#1e1e1e" stroke-width="2"></path></g><g transform="translate(461.745330810547 265.3392143026449) rotate(0 58.87109375 -2.7621410970089073)"><path d="M89.08 7.21 C95.48 3.96, 103.05 1.35, 116.63 -4.65 M89.08 7.21 C98.23 4.09, 106.62 -0.55, 116.63 -4.65" fill="none" stroke="#1e1e1e" stroke-width="2"></path></g><g transform="translate(461.745330810547 265.3392143026449) rotate(0 58.87109375 -2.7621410970089073)"><path d="M87.9 -13.28 C94.42 -11.11, 102.3 -8.29, 116.63 -4.65 M87.9 -13.28 C97.35 -10.11, 106.1 -8.46, 116.63 -4.65" fill="none" stroke="#1e1e1e" stroke-width="2"></path></g></g><mask></mask><g transform="translate(468.589080810547 213.421875) rotate(0 47.73597717285156 10)"><text direction="ltr" dominant-baseline="text-before-edge" fill="#1e1e1e" font-family="Virgil, Segoe UI Emoji" font-size="16px" style="white-space: pre;" text-anchor="start" x="0" y="0">POST /docs</text></g><g stroke-linecap="round"><g transform="translate(826.339080810547 244.81640625) rotate(0 23.2421875 0.875)"><path d="M0.1 0.04 C7.82 0.35, 38.52 1.36, 46.31 1.69 M-0.52 -0.42 C7.13 0, 37.92 2.1, 45.79 2.35" fill="none" stroke="#1e1e1e" stroke-width="2"></path></g><g transform="translate(826.339080810547 244.81640625) rotate(0 23.2421875 0.875)"><path d="M23.55 9.15 C30.11 6.83, 36.4 5.83, 45.79 2.35 M23.55 9.15 C31.46 7.11, 39.17 4.1, 45.79 2.35" fill="none" stroke="#1e1e1e" stroke-width="2"></path></g><g transform="translate(826.339080810547 244.81640625) rotate(0 23.2421875 0.875)"><path d="M24.38 -6.74 C30.67 -4.43, 36.72 -0.8, 45.79 2.35 M24.38 -6.74 C32.05 -3.23, 39.47 -0.7, 45.79 2.35" fill="none" stroke="#1e1e1e" stroke-width="2"></path></g></g><mask></mask><g transform="translate(1179.5617370605469 214.6640625) rotate(0 97.95991516113276 50)"><text direction="ltr" dominant-baseline="text-before-edge" fill="#1e1e1e" font-family="Virgil, Segoe UI Emoji" font-size="20px" style="white-space: pre;" text-anchor="start" x="0" y="0">Document</text><text direction="ltr" dominant-baseline="text-before-edge" fill="#1e1e1e" font-family="Virgil, Segoe UI Emoji" font-size="20px" style="white-space: pre;" text-anchor="start" x="0" y="25">  id</text><text direction="ltr" dominant-baseline="text-before-edge" fill="#1e1e1e" font-family="Virgil, Segoe UI Emoji" font-size="20px" style="white-space: pre;" text-anchor="start" x="0" y="50">  title</text><text direction="ltr" dominant-baseline="text-before-edge" fill="#1e1e1e" font-family="Virgil, Segoe UI Emoji" font-size="20px" style="white-space: pre;" text-anchor="start" x="0" y="75">  documentVersionId</text></g><g stroke-linecap="round" transform="translate(552.018768310547 494.2265625) rotate(0 128.2890625 85.94921875)"><path d="M32 0 C84.63 -0.08, 134.29 -0.6, 224.58 0 M32 0 C100.61 0.49, 168.82 0.5, 224.58 0 M224.58 0 C244.69 0.01, 255.93 10.49, 256.58 32 M224.58 0 C247.46 0.63, 257.34 10, 256.58 32 M256.58 32 C255.59 72.97, 256.58 117.97, 256.58 139.9 M256.58 32 C256.05 60.49, 255.83 86.53, 256.58 139.9 M256.58 139.9 C255.48 161, 244.4 172.13, 224.58 171.9 M256.58 139.9 C257.09 160.69, 244.29 172.61, 224.58 171.9 M224.58 171.9 C184.65 170.45, 144.86 173.07, 32 171.9 M224.58 171.9 C171.05 170.88, 116.84 171.67, 32 171.9 M32 171.9 C10.64 171.55, 0.1 159.59, 0 139.9 M32 171.9 C10.5 173.5, 1.41 160.3, 0 139.9 M0 139.9 C0.35 107.12, 2.11 68.6, 0 32 M0 139.9 C-0.2 110.21, -0.28 79.75, 0 32 M0 32 C-1.09 8.95, 10.88 0.34, 32 0 M0 32 C-0.62 9.57, 11.89 -2.24, 32 0" fill="none" stroke="#1e1e1e" stroke-width="2"></path></g><g transform="translate(595.387908935547 567.67578125) rotate(0 84.919921875 12.5)"><text direction="ltr" dominant-baseline="text-before-edge" fill="#1e1e1e" font-family="Virgil, Segoe UI Emoji" font-size="20px" style="white-space: pre;" text-anchor="middle" x="84.919921875" y="0">Document Service</text></g><g stroke-linecap="round"><g transform="translate(452.378143310547 357.73828125) rotate(0 62.515924629730534 65.05859375)"><path d="M0.4 0.66 C21.17 22.3, 104.49 107.85, 125.31 129.24 M-0.84 -0.04 C19.73 21.78, 103.58 108.69, 124.51 130.32" fill="none" stroke="#1e1e1e" stroke-width="2"></path></g><g transform="translate(452.378143310547 357.73828125) rotate(0 62.515924629730534 65.05859375)"><path d="M27.4 13.74 C18.86 9.59, 6.6 4.93, 0.4 0.66 M27.4 13.74 C21.15 10.77, 15.81 7.96, 0.4 0.66" fill="none" stroke="#1e1e1e" stroke-width="2"></path></g><g transform="translate(452.378143310547 357.73828125) rotate(0 62.515924629730534 65.05859375)"><path d="M12.68 28.03 C9.5 18.7, 2.54 8.89, 0.4 0.66 M12.68 28.03 C9.48 22.22, 7.21 16.42, 0.4 0.66" fill="none" stroke="#1e1e1e" stroke-width="2"></path></g><g transform="translate(452.378143310547 357.73828125) rotate(0 62.515924629730534 65.05859375)"><path d="M97.54 117.17 C108.27 122.27, 115.41 127.04, 124.51 130.32 M97.54 117.17 C102.57 120.16, 108.48 122.81, 124.51 130.32" fill="none" stroke="#1e1e1e" stroke-width="2"></path></g><g transform="translate(452.378143310547 357.73828125) rotate(0 62.515924629730534 65.05859375)"><path d="M112.31 102.92 C117.65 113.19, 119.49 123.08, 124.51 130.32 M112.31 102.92 C114.27 108.74, 117.1 114.37, 124.51 130.32" fill="none" stroke="#1e1e1e" stroke-width="2"></path></g></g><mask></mask><g transform="translate(370.7375183105469 416.6015625) rotate(0 49.989952087402344 12.5)"><text direction="ltr" dominant-baseline="text-before-edge" fill="#1e1e1e" font-family="Virgil, Segoe UI Emoji" font-size="20px" style="white-space: pre;" text-anchor="start" x="0" y="0">Websocket</text></g><g stroke-linecap="round" transform="translate(927.655487060547 460.87109375) rotate(0 114.958984375 106.5625)"><path d="M121.14 -0.17 C134.5 -0.95, 149.43 4.7, 162.1 10.08 C174.77 15.46, 187.45 22.92, 197.13 32.12 C206.81 41.31, 214.74 53.6, 220.18 65.23 C225.62 76.85, 229.25 89.34, 229.75 101.85 C230.26 114.35, 227.71 128, 223.23 140.26 C218.75 152.52, 211.81 165.49, 202.89 175.41 C193.97 185.33, 181.71 193.66, 169.69 199.76 C157.68 205.85, 144.27 210.35, 130.78 212 C117.28 213.65, 102.4 212.76, 88.71 209.67 C75.03 206.58, 60.2 200.86, 48.67 193.47 C37.14 186.09, 27.13 175.87, 19.51 165.36 C11.9 154.85, 6.06 142.9, 2.98 130.4 C-0.11 117.89, -1.06 103.22, 0.99 90.34 C3.04 77.46, 8.24 64.13, 15.26 53.12 C22.29 42.11, 32.39 32.4, 43.12 24.27 C53.85 16.14, 66.03 8.28, 79.63 4.35 C93.23 0.43, 116.94 1.16, 124.7 0.71 C132.45 0.27, 126.44 -0.06, 126.15 1.68 M63.64 10.93 C74.69 3.84, 90.6 0.2, 104.36 -0.77 C118.13 -1.75, 132.79 1.49, 146.25 5.09 C159.71 8.7, 173.99 13.47, 185.11 20.88 C196.23 28.28, 205.83 38.55, 212.99 49.52 C220.15 60.49, 225.35 73.76, 228.08 86.71 C230.82 99.65, 232.21 114.59, 229.41 127.19 C226.62 139.78, 218.78 151.41, 211.31 162.27 C203.84 173.13, 195.4 184.5, 184.6 192.35 C173.8 200.2, 159.89 206.07, 146.51 209.37 C133.14 212.68, 118.27 213.64, 104.34 212.19 C90.41 210.75, 75.31 206.28, 62.95 200.69 C50.6 195.1, 39.46 188.03, 30.2 178.65 C20.94 169.27, 12.28 156.65, 7.38 144.4 C2.48 132.15, 0.94 118.01, 0.8 105.16 C0.65 92.31, 1.91 78.92, 6.53 67.28 C11.15 55.64, 18.96 44.67, 28.51 35.33 C38.05 25.98, 57.95 15.09, 63.81 11.2 C69.68 7.32, 62.69 10.57, 63.69 12.01" fill="none" stroke="#1e1e1e" stroke-width="2"></path></g><g transform="translate(990.7162468210763 530.0825273798085) rotate(0 52.109947204589844 37.5)"><text direction="ltr" dominant-baseline="text-before-edge" fill="#1e1e1e" font-family="Virgil, Segoe UI Emoji" font-size="20px" style="white-space: pre;" text-anchor="middle" x="52.109947204589844" y="0">Document </text><text direction="ltr" dominant-baseline="text-before-edge" fill="#1e1e1e" font-family="Virgil, Segoe UI Emoji" font-size="20px" style="white-space: pre;" text-anchor="middle" x="52.109947204589844" y="25">Operations</text><text direction="ltr" dominant-baseline="text-before-edge" fill="#1e1e1e" font-family="Virgil, Segoe UI Emoji" font-size="20px" style="white-space: pre;" text-anchor="middle" x="52.109947204589844" y="50">DB</text></g><g stroke-linecap="round"><g transform="translate(819.651580810547 547.2708021698872) rotate(0 52.173828125 -1.3912604599437373)"><path d="M-0.73 0 C16.57 -0.3, 86.31 -2.48, 103.96 -2.89 M1.08 -1.04 C18.18 -1.05, 85.52 -1.42, 102.81 -1.4" fill="none" stroke="#1e1e1e" stroke-width="2"></path></g><g transform="translate(819.651580810547 547.2708021698872) rotate(0 52.173828125 -1.3912604599437373)"><path d="M74.65 8.93 C83.5 5.25, 92.07 4.03, 102.81 -1.4 M74.65 8.93 C84.8 5.55, 92.44 1.8, 102.81 -1.4" fill="none" stroke="#1e1e1e" stroke-width="2"></path></g><g transform="translate(819.651580810547 547.2708021698872) rotate(0 52.173828125 -1.3912604599437373)"><path d="M74.59 -11.59 C83.27 -8.9, 91.86 -3.73, 102.81 -1.4 M74.59 -11.59 C84.83 -8.25, 92.49 -5.29, 102.81 -1.4" fill="none" stroke="#1e1e1e" stroke-width="2"></path></g></g><mask></mask><g stroke-linecap="round"><g transform="translate(148.3273620605471 374.098469607231) rotate(0 198.88266259317987 98.97437362922369)"><path d="M-0.39 -0.1 C19.08 23.16, 49.62 106.61, 116.04 139.56 C182.47 172.52, 351.02 187.88, 398.16 197.6" fill="none" stroke="#1e1e1e" stroke-dasharray="8 10" stroke-width="2.5"></path></g><g transform="translate(148.3273620605471 374.098469607231) rotate(0 198.88266259317987 98.97437362922369)"><path d="M23.72 17.76 C17.78 14.76, 12.74 9.81, -0.39 -0.1" fill="none" stroke="#1e1e1e" stroke-width="2.5"></path></g><g transform="translate(148.3273620605471 374.098469607231) rotate(0 198.88266259317987 98.97437362922369)"><path d="M6.6 29.07 C4.75 23.43, 3.8 15.77, -0.39 -0.1" fill="none" stroke="#1e1e1e" stroke-width="2.5"></path></g><g transform="translate(148.3273620605471 374.098469607231) rotate(0 198.88266259317987 98.97437362922369)"><path d="M368.75 203.47 C375.6 203.52, 383.35 201.43, 398.16 197.6" fill="none" stroke="#1e1e1e" stroke-width="2.5"></path></g><g transform="translate(148.3273620605471 374.098469607231) rotate(0 198.88266259317987 98.97437362922369)"><path d="M371.85 183.19 C377.97 188.07, 384.97 190.82, 398.16 197.6" fill="none" stroke="#1e1e1e" stroke-width="2.5"></path></g></g><mask></mask><g transform="translate(59.693598180727804 509.9091044716324) rotate(0 108.58990478515625 25)"><text direction="ltr" dominant-baseline="text-before-edge" fill="#1e1e1e" font-family="Virgil, Segoe UI Emoji" font-size="20px" style="white-space: pre;" text-anchor="middle" x="108.58990478515625" y="0">Write/Receive</text><text direction="ltr" dominant-baseline="text-before-edge" fill="#1e1e1e" font-family="Virgil, Segoe UI Emoji" font-size="20px" style="white-space: pre;" text-anchor="middle" x="108.58990478515625" y="25">Edits, Cursor Changes</text></g><g stroke-linecap="round"><g transform="translate(656.2827274813473 675.69921875) rotate(0 35.84644563870097 32.92556599300451)"><path d="M0.4 -0.35 C6.06 11.47, 23.04 72.19, 34.8 71.24 C46.56 70.3, 65.01 6.75, 70.98 -6.03 M-0.85 -1.58 C4.69 10.41, 22.07 73.3, 34.46 72.73 C46.85 72.16, 67.53 7.84, 73.49 -5" fill="none" stroke="#1e1e1e" stroke-width="2"></path></g><g transform="translate(656.2827274813473 675.69921875) rotate(0 35.84644563870097 32.92556599300451)"><path d="M72.8 24.99 C72.39 15.91, 73.07 1.75, 73.49 -5 M72.8 24.99 C73.41 16.91, 73.14 10.51, 73.49 -5" fill="none" stroke="#1e1e1e" stroke-width="2"></path></g><g transform="translate(656.2827274813473 675.69921875) rotate(0 35.84644563870097 32.92556599300451)"><path d="M53.69 17.53 C60.32 11.13, 68.03 -0.29, 73.49 -5 M53.69 17.53 C59.1 11.34, 63.7 6.84, 73.49 -5" fill="none" stroke="#1e1e1e" stroke-width="2"></path></g></g><mask></mask><g transform="translate(614.632049560547 762.7265625) rotate(0 72.75993347167969 12.5)"><text direction="ltr" dominant-baseline="text-before-edge" fill="#1e1e1e" font-family="Virgil, Segoe UI Emoji" font-size="20px" style="white-space: pre;" text-anchor="start" x="0" y="0">Transform Ops</text></g><g transform="translate(814.557830810547 496.53125) rotate(0 55.01994323730469 12.5)"><text direction="ltr" dominant-baseline="text-before-edge" fill="#1e1e1e" font-family="Virgil, Segoe UI Emoji" font-size="20px" style="white-space: pre;" text-anchor="start" x="0" y="0">Applied Ops</text></g><g stroke-linecap="round"><g transform="translate(943.092987060547 630.3359375) rotate(0 -63.373046875 -1.091796875)"><path d="M-1.12 0.05 C-22.09 -0.31, -105.57 -2.5, -126.56 -2.72 M0.5 -0.97 C-20.56 -1.12, -105.99 -1.11, -127.41 -1.46" fill="none" stroke="#1e1e1e" stroke-width="2"></path></g><g transform="translate(943.092987060547 630.3359375) rotate(0 -63.373046875 -1.091796875)"><path d="M-99.15 -11.52 C-105.9 -9.06, -113.67 -7.53, -127.41 -1.46 M-99.15 -11.52 C-110.33 -8.05, -121.17 -3.74, -127.41 -1.46" fill="none" stroke="#1e1e1e" stroke-width="2"></path></g><g transform="translate(943.092987060547 630.3359375) rotate(0 -63.373046875 -1.091796875)"><path d="M-99.3 9 C-105.92 6.53, -113.65 3.13, -127.41 -1.46 M-99.3 9 C-110.38 4.68, -121.16 1.2, -127.41 -1.46" fill="none" stroke="#1e1e1e" stroke-width="2"></path></g></g><mask></mask><g transform="translate(803.7227020263673 656.0625) rotate(0 79.00993347167969 25)"><text direction="ltr" dominant-baseline="text-before-edge" fill="#1e1e1e" font-family="Virgil, Segoe UI Emoji" font-size="20px" style="white-space: pre;" text-anchor="middle" x="79.00993347167969" y="0">On Initialization</text><text direction="ltr" dominant-baseline="text-before-edge" fill="#1e1e1e" font-family="Virgil, Segoe UI Emoji" font-size="20px" style="white-space: pre;" text-anchor="middle" x="79.00993347167969" y="25">Read all Ops</text></g><g stroke-linecap="round"><g transform="translate(698.331268310547 488.06640625) rotate(0 -116.486328125 -85.177734375)"><path d="M-0.35 0.95 C-6.8 -13.2, 0.34 -56.8, -38.51 -85.47 C-77.37 -114.14, -200.98 -156.91, -233.5 -171.08" fill="none" stroke="#1e1e1e" stroke-dasharray="8 10" stroke-width="2.5"></path></g><g transform="translate(698.331268310547 488.06640625) rotate(0 -116.486328125 -85.177734375)"><path d="M-203.51 -170.31 C-211.37 -171.06, -220.58 -171.76, -233.5 -171.08" fill="none" stroke="#1e1e1e" stroke-width="2.5"></path></g><g transform="translate(698.331268310547 488.06640625) rotate(0 -116.486328125 -85.177734375)"><path d="M-211.02 -151.21 C-216.43 -157.97, -223.27 -164.68, -233.5 -171.08" fill="none" stroke="#1e1e1e" stroke-width="2.5"></path></g></g><mask></mask><g transform="translate(680.197364807129 393.0859375) rotate(0 81.23993682861328 25)"><text direction="ltr" dominant-baseline="text-before-edge" fill="#1e1e1e" font-family="Virgil, Segoe UI Emoji" font-size="20px" style="white-space: pre;" text-anchor="middle" x="81.23993682861328" y="0">Send all Applied </text><text direction="ltr" dominant-baseline="text-before-edge" fill="#1e1e1e" font-family="Virgil, Segoe UI Emoji" font-size="20px" style="white-space: pre;" text-anchor="middle" x="81.23993682861328" y="25">Ops on Connect</text></g><g stroke-linecap="round"><g transform="translate(116.58517456054688 145.33984375) rotate(0 24.068359375 -39.26171875)"><path d="M-0.52 -0.73 C1.66 -14.02, 4.86 -78, 12.82 -78.66 C20.77 -79.33, 41.3 -16.98, 47.23 -4.72 M1.4 1.5 C4 -11.09, 7.14 -76.39, 15.18 -77.2 C23.22 -78.01, 44.04 -15.5, 49.65 -3.33" fill="none" stroke="#1e1e1e" stroke-width="2"></path></g><g transform="translate(116.58517456054688 145.33984375) rotate(0 24.068359375 -39.26171875)"><path d="M-7.46 -29.92 C-6.47 -22.84, -3.56 -15.12, -0.52 -0.73 M-7.46 -29.92 C-5.94 -20.49, -3.96 -10.77, -0.52 -0.73" fill="none" stroke="#1e1e1e" stroke-width="2"></path></g><g transform="translate(116.58517456054688 145.33984375) rotate(0 24.068359375 -39.26171875)"><path d="M12.92 -27.55 C8.2 -21.22, 5.43 -14.16, -0.52 -0.73 M12.92 -27.55 C8.09 -18.91, 3.71 -9.93, -0.52 -0.73" fill="none" stroke="#1e1e1e" stroke-width="2"></path></g><g transform="translate(116.58517456054688 145.33984375) rotate(0 24.068359375 -39.26171875)"><path d="M29.83 -25.85 C34.35 -20.58, 40.86 -14.72, 49.65 -3.33 M29.83 -25.85 C35.35 -18.47, 41.34 -10.83, 49.65 -3.33" fill="none" stroke="#1e1e1e" stroke-width="2"></path></g><g transform="translate(116.58517456054688 145.33984375) rotate(0 24.068359375 -39.26171875)"><path d="M48.94 -33.32 C48.2 -26.05, 49.37 -18.1, 49.65 -3.33 M48.94 -33.32 C48.52 -23.66, 48.56 -13.69, 49.65 -3.33" fill="none" stroke="#1e1e1e" stroke-width="2"></path></g></g><mask></mask><g transform="translate(10 10) rotate(0 101.45991516113281 25)"><text direction="ltr" dominant-baseline="text-before-edge" fill="#1e1e1e" font-family="Virgil, Segoe UI Emoji" font-size="20px" style="white-space: pre;" text-anchor="middle" x="101.45991516113281" y="0">Transform Received </text><text direction="ltr" dominant-baseline="text-before-edge" fill="#1e1e1e" font-family="Virgil, Segoe UI Emoji" font-size="20px" style="white-space: pre;" text-anchor="middle" x="101.45991516113281" y="25">Ops</text></g><g stroke-linecap="round" transform="translate(270.5933103584872 727.8757861358799) rotate(0 88.76647881088672 69.47098268956097)"><path d="M98.88 -0.46 C110.59 -0.37, 124.15 4.97, 134.54 9.72 C144.94 14.47, 154.27 20.37, 161.27 28.06 C168.27 35.74, 174.2 46.61, 176.53 55.82 C178.87 65.04, 177.99 74.17, 175.27 83.34 C172.55 92.51, 167.47 103.15, 160.22 110.86 C152.97 118.57, 142.24 124.97, 131.76 129.59 C121.29 134.21, 109.23 137.61, 97.38 138.59 C85.53 139.57, 72.19 138.43, 60.66 135.46 C49.12 132.49, 36.9 127, 28.15 120.75 C19.4 114.5, 12.91 106.54, 8.15 97.96 C3.39 89.38, -0.26 78.78, -0.41 69.27 C-0.55 59.77, 2.29 49.38, 7.3 40.93 C12.3 32.47, 20.41 24.96, 29.62 18.53 C38.83 12.1, 50.17 5.2, 62.57 2.33 C74.97 -0.55, 96.12 1.1, 104.02 1.28 C111.91 1.45, 110.14 2.26, 109.95 3.36 M74.73 1.15 C85.87 -1.23, 99.29 -0.53, 111.04 1.59 C122.78 3.71, 135.94 7.99, 145.18 13.87 C154.43 19.75, 161.38 28.17, 166.5 36.87 C171.63 45.58, 175.04 56.56, 175.94 66.1 C176.84 75.65, 176.1 85.61, 171.9 94.14 C167.7 102.68, 159.1 110.79, 150.76 117.32 C142.42 123.86, 133.13 129.76, 121.86 133.35 C110.58 136.95, 95.54 138.98, 83.11 138.9 C70.68 138.81, 57.78 137.12, 47.26 132.84 C36.74 128.56, 27.52 120.55, 19.97 113.22 C12.42 105.9, 5.23 98.14, 1.95 88.88 C-1.33 79.63, -1.57 67.07, 0.3 57.67 C2.17 48.28, 6.73 40.41, 13.16 32.54 C19.59 24.66, 28.81 15.63, 38.86 10.44 C48.92 5.25, 67.43 2.54, 73.51 1.41 C79.59 0.27, 74.67 2.59, 75.33 3.63" fill="none" stroke="#1e1e1e" stroke-width="2"></path></g><g transform="translate(310.0324659073119 784.723365869959) rotate(0 49.55994415283203 12.5)"><text direction="ltr" dominant-baseline="text-before-edge" fill="#1e1e1e" font-family="Virgil, Segoe UI Emoji" font-size="20px" style="white-space: pre;" text-anchor="middle" x="49.55994415283203" y="0">Zookeeper</text></g><g stroke-linecap="round"><g transform="translate(560.43207129516 672.1413464529614) rotate(0 -62.60013490500842 33.52347646795738)"><path d="M-0.85 0.37 C-21.94 11.78, -105.58 56.98, -126.26 68.17 M0.91 -0.48 C-19.84 10.65, -103.03 55.66, -124.11 66.63" fill="none" stroke="#1e1e1e" stroke-width="2"></path></g><g transform="translate(560.43207129516 672.1413464529614) rotate(0 -62.60013490500842 33.52347646795738)"><path d="M-20.77 22.8 C-13.68 13.95, -6.01 8.9, -0.85 0.37 M-20.77 22.8 C-13.44 14.85, -8.08 7.43, -0.85 0.37" fill="none" stroke="#1e1e1e" stroke-width="2"></path></g><g transform="translate(560.43207129516 672.1413464529614) rotate(0 -62.60013490500842 33.52347646795738)"><path d="M-30.53 4.75 C-20.33 1.78, -9.52 2.54, -0.85 0.37 M-30.53 4.75 C-20.06 2.82, -11.41 1.5, -0.85 0.37" fill="none" stroke="#1e1e1e" stroke-width="2"></path></g><g transform="translate(560.43207129516 672.1413464529614) rotate(0 -62.60013490500842 33.52347646795738)"><path d="M-104.05 44.33 C-109.94 49.6, -115.16 58.96, -124.11 66.63 M-104.05 44.33 C-110.64 51.83, -118.8 59.53, -124.11 66.63" fill="none" stroke="#1e1e1e" stroke-width="2"></path></g><g transform="translate(560.43207129516 672.1413464529614) rotate(0 -62.60013490500842 33.52347646795738)"><path d="M-94.41 62.45 C-103.36 61.81, -111.69 65.34, -124.11 66.63 M-94.41 62.45 C-104.09 63.9, -115.51 65.48, -124.11 66.63" fill="none" stroke="#1e1e1e" stroke-width="2"></path></g></g><mask></mask><g transform="translate(186.2789360980014 632.6680205367957) rotate(0 93.76992797851562 12.5)"><text direction="ltr" dominant-baseline="text-before-edge" fill="#1e1e1e" font-family="Virgil, Segoe UI Emoji" font-size="20px" style="white-space: pre;" text-anchor="middle" x="93.76992797851562" y="0">Query Hash Ranges</text></g><g stroke-linecap="round" transform="translate(936.6077395124131 758.0430391257596) rotate(0 102.9233553635546 72.1817988613102)"><path d="M32 0 C62.73 -2.12, 93.6 0.49, 173.85 0 M32 0 C71.81 -0.86, 110.93 -0.07, 173.85 0 M173.85 0 C195.15 -0.35, 205.94 9.02, 205.85 32 M173.85 0 C195.02 1.6, 207.26 9.73, 205.85 32 M205.85 32 C205.08 59.77, 206.83 81.81, 205.85 112.36 M205.85 32 C206.04 54.5, 205.97 76.24, 205.85 112.36 M205.85 112.36 C204.75 131.98, 195.39 144.7, 173.85 144.36 M205.85 112.36 C205.23 132.6, 196.4 142.12, 173.85 144.36 M173.85 144.36 C143.43 143.19, 111.65 141.65, 32 144.36 M173.85 144.36 C140.79 143.55, 108.51 144.43, 32 144.36 M32 144.36 C10.65 144.15, -1.54 135.29, 0 112.36 M32 144.36 C9.52 142.57, -1.52 134.76, 0 112.36 M0 112.36 C1.16 95.82, 2.3 79.96, 0 32 M0 112.36 C-0.1 88.63, 0.37 64.41, 0 32 M0 32 C1.61 9.74, 11.52 0.03, 32 0 M0 32 C0.96 10.37, 12.43 1.74, 32 0" fill="none" stroke="#1e1e1e" stroke-width="2"></path></g><g transform="translate(945.0611775786044 805.2248379870698) rotate(0 94.46991729736328 25)"><text direction="ltr" dominant-baseline="text-before-edge" fill="#1e1e1e" font-family="Virgil, Segoe UI Emoji" font-size="20px" style="white-space: pre;" text-anchor="middle" x="94.46991729736328" y="0">Compaction/Cleanup</text><text direction="ltr" dominant-baseline="text-before-edge" fill="#1e1e1e" font-family="Virgil, Segoe UI Emoji" font-size="20px" style="white-space: pre;" text-anchor="middle" x="94.46991729736328" y="25">Service</text></g><g stroke-linecap="round"><g transform="translate(1001.4240486939976 753.136873966213) rotate(0 3.239567070997964 -38.72811925242149)"><path d="M0.47 -0.25 C1.54 -13.34, 4.25 -64.46, 5.3 -77.51 M-0.74 -1.43 C0.77 -13.79, 6.25 -63.27, 7.39 -76.01" fill="none" stroke="#1e1e1e" stroke-width="2"></path></g><g transform="translate(1001.4240486939976 753.136873966213) rotate(0 3.239567070997964 -38.72811925242149)"><path d="M14.74 -46.92 C12.55 -54.91, 11.35 -58.56, 7.39 -76.01 M14.74 -46.92 C13.28 -53.14, 11.81 -59.82, 7.39 -76.01" fill="none" stroke="#1e1e1e" stroke-width="2"></path></g><g transform="translate(1001.4240486939976 753.136873966213) rotate(0 3.239567070997964 -38.72811925242149)"><path d="M-5.67 -49 C-3.6 -56.64, -0.55 -59.85, 7.39 -76.01 M-5.67 -49 C-2.91 -54.76, -0.13 -61.01, 7.39 -76.01" fill="none" stroke="#1e1e1e" stroke-width="2"></path></g></g><mask></mask><g stroke-linecap="round"><g transform="translate(1082.3820157669134 672.1851488337043) rotate(0 -0.04993552325242945 39.20562769352205)"><path d="M-1.18 -0.06 C-1.23 12.87, 0.03 64.25, 0.16 77.3 M0.4 -1.13 C0.18 11.92, -0.36 64.82, -0.65 78.26" fill="none" stroke="#1e1e1e" stroke-width="2"></path></g><g transform="translate(1082.3820157669134 672.1851488337043) rotate(0 -0.04993552325242945 39.20562769352205)"><path d="M-10.48 49.91 C-7.3 60.06, -5.72 68.73, -0.65 78.26 M-10.48 49.91 C-7.62 57.21, -4.93 66.84, -0.65 78.26" fill="none" stroke="#1e1e1e" stroke-width="2"></path></g><g transform="translate(1082.3820157669134 672.1851488337043) rotate(0 -0.04993552325242945 39.20562769352205)"><path d="M10.04 50.22 C6.26 60.06, 0.88 68.63, -0.65 78.26 M10.04 50.22 C7.03 57.4, 3.85 66.93, -0.65 78.26" fill="none" stroke="#1e1e1e" stroke-width="2"></path></g></g><mask></mask><g stroke-linecap="round"><g transform="translate(933.2433336332841 766.3136101644341) rotate(0 -69.23248201921683 -48.637199647814896)"><path d="M0.26 -1.11 C-13.97 -5.86, -63.48 -12.48, -86.6 -28.54 C-109.72 -44.61, -129.85 -85.87, -138.48 -97.48 M-1.06 0.92 C-15.37 -3.63, -64.67 -10.89, -87.7 -27.09 C-110.74 -43.29, -130.85 -84.51, -139.25 -96.28" fill="none" stroke="#1e1e1e" stroke-width="2"></path></g><g transform="translate(933.2433336332841 766.3136101644341) rotate(0 -69.23248201921683 -48.637199647814896)"><path d="M-115.75 -77.63 C-122.34 -81.84, -125.51 -85.13, -139.25 -96.28 M-115.75 -77.63 C-122.47 -82.4, -128.42 -88.76, -139.25 -96.28" fill="none" stroke="#1e1e1e" stroke-width="2"></path></g><g transform="translate(933.2433336332841 766.3136101644341) rotate(0 -69.23248201921683 -48.637199647814896)"><path d="M-133.24 -66.89 C-136.29 -73.3, -135.93 -78.76, -139.25 -96.28 M-133.24 -66.89 C-135.02 -74.54, -136.04 -83.95, -139.25 -96.28" fill="none" stroke="#1e1e1e" stroke-width="2"></path></g></g><mask></mask><g transform="translate(768.0356929293295 767.8491275044435) rotate(0 66.64994049072266 25)"><text direction="ltr" dominant-baseline="text-before-edge" fill="#1e1e1e" font-family="Virgil, Segoe UI Emoji" font-size="20px" style="white-space: pre;" text-anchor="middle" x="66.64994049072266" y="0">Flip Document</text><text direction="ltr" dominant-baseline="text-before-edge" fill="#1e1e1e" font-family="Virgil, Segoe UI Emoji" font-size="20px" style="white-space: pre;" text-anchor="middle" x="66.64994049072266" y="25">Version</text></g><g transform="translate(1185.857055540374 511.2179896296684) rotate(0 97.95991516113276 50)"><text direction="ltr" dominant-baseline="text-before-edge" fill="#1e1e1e" font-family="Virgil, Segoe UI Emoji" font-size="20px" style="white-space: pre;" text-anchor="start" x="0" y="0">Operations</text><text direction="ltr" dominant-baseline="text-before-edge" fill="#1e1e1e" font-family="Virgil, Segoe UI Emoji" font-size="20px" style="white-space: pre;" text-anchor="start" x="0" y="25">  timestamp</text><text direction="ltr" dominant-baseline="text-before-edge" fill="#1e1e1e" font-family="Virgil, Segoe UI Emoji" font-size="20px" style="white-space: pre;" text-anchor="start" x="0" y="50">  documentVersionId</text><text direction="ltr" dominant-baseline="text-before-edge" fill="#1e1e1e" font-family="Virgil, Segoe UI Emoji" font-size="20px" style="white-space: pre;" text-anchor="start" x="0" y="75">  metadata</text></g><g stroke-linecap="round"><g transform="translate(797.8946337156125 489.64339917272446) rotate(0 67.31620631440694 -56.155616867500726)"><path d="M0.06 -0.99 C22.49 -19.53, 111.99 -92.84, 134.55 -111.48 M-1.37 1.11 C20.89 -17.75, 110.83 -94.35, 133.55 -113.16" fill="none" stroke="#1e1e1e" stroke-width="2"></path></g><g transform="translate(797.8946337156125 489.64339917272446) rotate(0 67.31620631440694 -56.155616867500726)"><path d="M15.33 -26.81 C9.08 -19.23, 7.55 -10.14, 0.06 -0.99 M15.33 -26.81 C11.52 -20.35, 8.43 -12.78, 0.06 -0.99" fill="none" stroke="#1e1e1e" stroke-width="2"></path></g><g transform="translate(797.8946337156125 489.64339917272446) rotate(0 67.31620631440694 -56.155616867500726)"><path d="M28.36 -10.95 C18.24 -8.1, 12.82 -3.75, 0.06 -0.99 M28.36 -10.95 C21.13 -8.68, 14.66 -5.22, 0.06 -0.99" fill="none" stroke="#1e1e1e" stroke-width="2"></path></g><g transform="translate(797.8946337156125 489.64339917272446) rotate(0 67.31620631440694 -56.155616867500726)"><path d="M118.59 -87.16 C121.46 -95.08, 128.96 -101.47, 133.55 -113.16 M118.59 -87.16 C122.5 -93.96, 127.25 -99.82, 133.55 -113.16" fill="none" stroke="#1e1e1e" stroke-width="2"></path></g><g transform="translate(797.8946337156125 489.64339917272446) rotate(0 67.31620631440694 -56.155616867500726)"><path d="M105.38 -102.86 C112.17 -106.1, 123.62 -107.8, 133.55 -113.16 M105.38 -102.86 C112.75 -105.51, 120.93 -107.3, 133.55 -113.16" fill="none" stroke="#1e1e1e" stroke-width="2"></path></g></g><mask></mask></svg>