<svg height="1633.173574019309" version="1.1" viewbox="0 0 3032.7089032774934 1633.173574019309" width="3032.7089032774934" xmlns="http://www.w3.org/2000/svg">
<!-- svg-source:excalidraw -->
<!-- payload-type:application/vnd.excalidraw+json --><!-- payload-version:2 -->
<defs>
<style class="style-fonts">
</style>
</defs>
<rect fill="#ffffff" height="1633.173574019309" width="3032.7089032774934" x="0" y="0"></rect><g stroke-linecap="round" transform="translate(10 362.895537265269) rotate(0 101.90695988861125 75.10347326861086)"><path d="M32 0 C70.51 -0.97, 109.85 0.61, 171.81 0 M32 0 C84.36 -1.57, 136.5 -1.26, 171.81 0 M171.81 0 C193.44 1.11, 204.42 11.55, 203.81 32 M171.81 0 C193.08 -1.5, 203.7 11.24, 203.81 32 M203.81 32 C202.64 61.48, 203.45 86.29, 203.81 118.21 M203.81 32 C204.11 59.74, 204.41 86.81, 203.81 118.21 M203.81 118.21 C202.62 140.23, 192.74 151.31, 171.81 150.21 M203.81 118.21 C205.92 138.93, 195.01 150.08, 171.81 150.21 M171.81 150.21 C141.14 150.48, 114.88 150.48, 32 150.21 M171.81 150.21 C132.66 150.28, 92.69 150.83, 32 150.21 M32 150.21 C11.4 151.92, 0.76 139.81, 0 118.21 M32 150.21 C12.03 149.13, 0.93 139.69, 0 118.21 M0 118.21 C0.83 98.71, 0.98 80.66, 0 32 M0 118.21 C-0.3 91.95, -1.33 66.07, 0 32 M0 32 C0.98 9.18, 8.87 1.17, 32 0 M0 32 C-2.3 8.38, 8.53 0.79, 32 0" fill="none" stroke="#1e1e1e" stroke-width="2"></path></g><g transform="translate(87.46360051361125 425.49901053387987) rotate(0 24.443359375 12.5)"><text direction="ltr" dominant-baseline="text-before-edge" fill="#1e1e1e" font-family="Virgil, Segoe UI Emoji" font-size="20px" style="white-space: pre;" text-anchor="middle" x="24.443359375" y="0">Client</text></g><g stroke-linecap="round"><g transform="translate(236.14916150411955 443.4880517197107) rotate(0 104.61353691157768 0.4828270098806797)"><path d="M0.26 0.85 C35.13 1.1, 173.55 1.79, 208.48 1.65 M-1.06 0.25 C34.25 0.14, 175.73 -0.22, 210.8 -0.11" fill="none" stroke="#1e1e1e" stroke-width="2"></path></g><g transform="translate(236.14916150411955 443.4880517197107) rotate(0 104.61353691157768 0.4828270098806797)"><path d="M182.62 10.15 C190.87 6.36, 197.46 6.12, 210.8 -0.11 M182.62 10.15 C188.98 8.55, 195.42 6.14, 210.8 -0.11" fill="none" stroke="#1e1e1e" stroke-width="2"></path></g><g transform="translate(236.14916150411955 443.4880517197107) rotate(0 104.61353691157768 0.4828270098806797)"><path d="M182.61 -10.37 C190.9 -9.17, 197.48 -4.42, 210.8 -0.11 M182.61 -10.37 C189.14 -7.39, 195.59 -5.21, 210.8 -0.11" fill="none" stroke="#1e1e1e" stroke-width="2"></path></g></g><mask></mask><g transform="translate(272.20008159483405 303.02089503595016) rotate(0 89.23990631103516 62.5)"><text direction="ltr" dominant-baseline="text-before-edge" fill="#1e1e1e" font-family="Virgil, Segoe UI Emoji" font-size="20px" style="white-space: pre;" text-anchor="start" x="0" y="0">/subscribe</text><text direction="ltr" dominant-baseline="text-before-edge" fill="#1e1e1e" font-family="Virgil, Segoe UI Emoji" font-size="20px" style="white-space: pre;" text-anchor="start" x="0" y="25"></text><text direction="ltr" dominant-baseline="text-before-edge" fill="#1e1e1e" font-family="Virgil, Segoe UI Emoji" font-size="20px" style="white-space: pre;" text-anchor="start" x="0" y="50">(gets initial prices</text><text direction="ltr" dominant-baseline="text-before-edge" fill="#1e1e1e" font-family="Virgil, Segoe UI Emoji" font-size="20px" style="white-space: pre;" text-anchor="start" x="0" y="75">and subscribes to</text><text direction="ltr" dominant-baseline="text-before-edge" fill="#1e1e1e" font-family="Virgil, Segoe UI Emoji" font-size="20px" style="white-space: pre;" text-anchor="start" x="0" y="100">feed)</text></g><g stroke-linecap="round" transform="translate(470.3146559194429 260.7945000011241) rotate(0 106.39453125 292.3810662019501)"><path d="M32 0 C65.88 0.84, 101.9 -0.46, 180.79 0 M32 0 C84.83 -1.31, 137.67 -0.41, 180.79 0 M180.79 0 C202.63 -0.29, 211.26 9.61, 212.79 32 M180.79 0 C203.76 -0.27, 210.69 11.14, 212.79 32 M212.79 32 C214.52 213.81, 214.06 394.87, 212.79 552.76 M212.79 32 C212.73 206.12, 212.68 380.44, 212.79 552.76 M212.79 552.76 C210.98 575.28, 202.36 583.38, 180.79 584.76 M212.79 552.76 C212.92 575.99, 202.25 584.37, 180.79 584.76 M180.79 584.76 C146.23 585.33, 112.27 586.09, 32 584.76 M180.79 584.76 C124.01 584.5, 66.44 585.03, 32 584.76 M32 584.76 C9.02 584.17, -1.27 574.67, 0 552.76 M32 584.76 C9.84 585.59, 0.02 574.27, 0 552.76 M0 552.76 C0.1 347.03, 0.61 142.51, 0 32 M0 552.76 C1.47 434.83, 1.5 317.84, 0 32 M0 32 C1.08 8.74, 10.88 1.96, 32 0 M0 32 C-2.21 11.66, 11.47 1.98, 32 0" fill="none" stroke="#1e1e1e" stroke-width="2"></path></g><g transform="translate(505.2384733657782 323.75196205241264) rotate(0 83.77995300292969 62.5)"><text direction="ltr" dominant-baseline="text-before-edge" fill="#1e1e1e" font-family="Virgil, Segoe UI Emoji" font-size="20px" style="white-space: pre;" text-anchor="start" x="0" y="0">API Gateway</text><text direction="ltr" dominant-baseline="text-before-edge" fill="#1e1e1e" font-family="Virgil, Segoe UI Emoji" font-size="20px" style="white-space: pre;" text-anchor="start" x="0" y="25">&amp; Load Balancer</text><text direction="ltr" dominant-baseline="text-before-edge" fill="#1e1e1e" font-family="Virgil, Segoe UI Emoji" font-size="20px" style="white-space: pre;" text-anchor="start" x="0" y="50">- routing</text><text direction="ltr" dominant-baseline="text-before-edge" fill="#1e1e1e" font-family="Virgil, Segoe UI Emoji" font-size="20px" style="white-space: pre;" text-anchor="start" x="0" y="75">- authentication</text><text direction="ltr" dominant-baseline="text-before-edge" fill="#1e1e1e" font-family="Virgil, Segoe UI Emoji" font-size="20px" style="white-space: pre;" text-anchor="start" x="0" y="100">- rate limiting</text></g><g stroke-linecap="round"><g transform="translate(703.1221613313937 432.4914618560124) rotate(0 116.92782630300144 -1.204961730855075)"><path d="M0.18 0.66 C39.05 0.44, 195.28 -1.24, 234.22 -1.88 M-1.19 -0.03 C37.48 -0.57, 194.42 -3.35, 233.46 -3.72" fill="none" stroke="#1e1e1e" stroke-width="2"></path></g><g transform="translate(703.1221613313937 432.4914618560124) rotate(0 116.92782630300144 -1.204961730855075)"><path d="M205.42 6.94 C217.22 3.45, 227.65 -1.26, 233.46 -3.72 M205.42 6.94 C212.26 4.22, 217.82 1.34, 233.46 -3.72" fill="none" stroke="#1e1e1e" stroke-width="2"></path></g><g transform="translate(703.1221613313937 432.4914618560124) rotate(0 116.92782630300144 -1.204961730855075)"><path d="M205.13 -13.58 C216.94 -9.27, 227.48 -6.19, 233.46 -3.72 M205.13 -13.58 C212.02 -11.48, 217.65 -9.55, 233.46 -3.72" fill="none" stroke="#1e1e1e" stroke-width="2"></path></g></g><mask></mask><g stroke-linecap="round" transform="translate(965.1041017541684 308.679429030095) rotate(0 167.23280526761846 116.62194406415028)"><path d="M32 0 C117.81 -0.69, 201.21 -0.72, 302.47 0 M32 0 C119.23 -0.1, 208.22 0.22, 302.47 0 M302.47 0 C321.97 0.41, 335.44 12.26, 334.47 32 M302.47 0 C323.51 0.22, 334.87 9.57, 334.47 32 M334.47 32 C336.16 74.52, 334.52 114.99, 334.47 201.24 M334.47 32 C333.05 81.14, 332.99 132.49, 334.47 201.24 M334.47 201.24 C334.58 222.24, 322.51 233, 302.47 233.24 M334.47 201.24 C335.39 223.14, 323.77 235.06, 302.47 233.24 M302.47 233.24 C211.66 234.98, 119.71 234.69, 32 233.24 M302.47 233.24 C219.11 232.84, 136.46 232.9, 32 233.24 M32 233.24 C10.68 233.4, 1.89 222.69, 0 201.24 M32 233.24 C11.84 233.86, -1.19 224.66, 0 201.24 M0 201.24 C2.43 140.21, -0.73 81.32, 0 32 M0 201.24 C-0.81 145.63, -1.88 88.48, 0 32 M0 32 C0.7 12.39, 10.4 -0.32, 32 0 M0 32 C-1.4 10.47, 10.26 -1.22, 32 0" fill="none" stroke="#1e1e1e" stroke-width="2"></path></g><g transform="translate(1038.2011648342868 375.30137309424526) rotate(0 94.1357421875 50)"><text direction="ltr" dominant-baseline="text-before-edge" fill="#1e1e1e" font-family="Virgil, Segoe UI Emoji" font-size="20px" style="white-space: pre;" text-anchor="middle" x="94.1357421875" y="0">Symbol Service</text><text direction="ltr" dominant-baseline="text-before-edge" fill="#1e1e1e" font-family="Virgil, Segoe UI Emoji" font-size="20px" style="white-space: pre;" text-anchor="middle" x="94.1357421875" y="25"></text><text direction="ltr" dominant-baseline="text-before-edge" fill="#1e1e1e" font-family="Virgil, Segoe UI Emoji" font-size="20px" style="white-space: pre;" text-anchor="middle" x="94.1357421875" y="50">Tracks:</text><text direction="ltr" dominant-baseline="text-before-edge" fill="#1e1e1e" font-family="Virgil, Segoe UI Emoji" font-size="20px" style="white-space: pre;" text-anchor="middle" x="94.1357421875" y="75">Symbol -&gt; Set&lt;userId&gt;</text></g><g stroke-linecap="round"><g transform="translate(946.6217266469357 463.5119609493213) rotate(0 -358.76094557408715 1.0026034003785753)"><path d="M-0.06 0.3 C-119.59 0.73, -597.49 1.65, -717.22 1.83 M-1.55 -0.59 C-121.21 0.1, -598.92 2.78, -718 3.28" fill="none" stroke="#1e1e1e" stroke-width="2"></path></g><g transform="translate(946.6217266469357 463.5119609493213) rotate(0 -358.76094557408715 1.0026034003785753)"><path d="M-689.86 -7.12 C-697.8 -3.54, -706.94 -2.49, -718 3.28 M-689.86 -7.12 C-697.66 -4.38, -703.22 -1.22, -718 3.28" fill="none" stroke="#1e1e1e" stroke-width="2"></path></g><g transform="translate(946.6217266469357 463.5119609493213) rotate(0 -358.76094557408715 1.0026034003785753)"><path d="M-689.76 13.4 C-697.59 10.89, -706.77 5.84, -718 3.28 M-689.76 13.4 C-697.73 11.07, -703.32 9.15, -718 3.28" fill="none" stroke="#1e1e1e" stroke-width="2"></path></g></g><mask></mask><g transform="translate(736.1115373543471 485.18377137678) rotate(0 97.85990905761719 12.5)"><text direction="ltr" dominant-baseline="text-before-edge" fill="#1e1e1e" font-family="Virgil, Segoe UI Emoji" font-size="20px" style="white-space: pre;" text-anchor="start" x="0" y="0">SSE (price updates)</text></g><g stroke-linecap="round" transform="translate(1443.560681971132 73.51642694684779) rotate(0 206.18050859452387 120.60326796357754)"><path d="M258.75 30.25 C290.76 52.14, 324.73 68.58, 360.61 90.75 M258.75 30.25 C291.59 48.94, 324.55 67.77, 360.61 90.75 M360.61 90.75 C411.17 121.69, 411.95 122.11, 360.61 151.25 M360.61 90.75 C414.47 120.39, 414.22 120.87, 360.61 151.25 M360.61 151.25 C338.25 163.99, 319.93 176.5, 258.75 210.96 M360.61 151.25 C331.81 168.26, 302.57 185.7, 258.75 210.96 M258.75 210.96 C207.73 242.92, 207.76 241.48, 155.25 210.96 M258.75 210.96 C208.37 240.13, 207.93 241.35, 155.25 210.96 M155.25 210.96 C133.45 196.58, 111.05 184.3, 51.75 151.25 M155.25 210.96 C123.35 192.91, 90.49 175.18, 51.75 151.25 M51.75 151.25 C0.98 119.51, -1.79 122.17, 51.75 90.75 M51.75 151.25 C-2.3 118.71, -2.13 121.79, 51.75 90.75 M51.75 90.75 C90.95 67.29, 126.52 48.48, 155.25 30.25 M51.75 90.75 C91.17 67.48, 131.54 43.69, 155.25 30.25 M155.25 30.25 C207.52 -0.74, 205.3 -1.8, 258.75 30.25 M155.25 30.25 C205.65 -2.15, 205.94 0.14, 258.75 30.25" fill="none" stroke="#1e1e1e" stroke-width="2"></path></g><g transform="translate(1591.047420643394 181.81806092863656) rotate(0 58.603515625 12.5)"><text direction="ltr" dominant-baseline="text-before-edge" fill="#1e1e1e" font-family="Virgil, Segoe UI Emoji" font-size="20px" style="white-space: pre;" text-anchor="middle" x="58.603515625" y="0">Symbol Cache</text></g><g transform="translate(1452.5082213349597 10) rotate(0 234.70980834960938 25)"><text direction="ltr" dominant-baseline="text-before-edge" fill="#1e1e1e" font-family="Virgil, Segoe UI Emoji" font-size="20px" style="white-space: pre;" text-anchor="start" x="0" y="0">Key: Symbol </text><text direction="ltr" dominant-baseline="text-before-edge" fill="#1e1e1e" font-family="Virgil, Segoe UI Emoji" font-size="20px" style="white-space: pre;" text-anchor="start" x="0" y="25">Value: JSON with symbol details + current price</text></g><g stroke-linecap="round"><g transform="translate(1311.751534629937 378.3645826266529) rotate(0 99.20246400744509 -67.46841604922889)"><path d="M0.59 0.95 C33.81 -21.56, 165.25 -112.08, 198.26 -134.82 M-0.57 0.41 C32.58 -21.91, 164.14 -110.74, 197.23 -133.23" fill="none" stroke="#1e1e1e" stroke-width="2"></path></g><g transform="translate(1311.751534629937 378.3645826266529) rotate(0 99.20246400744509 -67.46841604922889)"><path d="M179.64 -108.93 C184.85 -114.33, 187.12 -118.81, 197.23 -133.23 M179.64 -108.93 C184.01 -114.56, 189.57 -121.51, 197.23 -133.23" fill="none" stroke="#1e1e1e" stroke-width="2"></path></g><g transform="translate(1311.751534629937 378.3645826266529) rotate(0 99.20246400744509 -67.46841604922889)"><path d="M168.13 -125.92 C175.78 -127.84, 180.45 -128.76, 197.23 -133.23 M168.13 -125.92 C175.31 -127.31, 183.77 -129.97, 197.23 -133.23" fill="none" stroke="#1e1e1e" stroke-width="2"></path></g></g><mask></mask><g transform="translate(1266.1467493208256 233.34128963492185) rotate(0 108.26988983154297 25)"><text direction="ltr" dominant-baseline="text-before-edge" fill="#1e1e1e" font-family="Virgil, Segoe UI Emoji" font-size="20px" style="white-space: pre;" text-anchor="start" x="0" y="0">Queries (initial prices </text><text direction="ltr" dominant-baseline="text-before-edge" fill="#1e1e1e" font-family="Virgil, Segoe UI Emoji" font-size="20px" style="white-space: pre;" text-anchor="start" x="0" y="25">on subscription)</text></g><g stroke-linecap="round" transform="translate(2028.4406162861742 357.7581211234592) rotate(0 158.99204359673047 91.78681198910078)"><path d="M32 0 C104.26 -1.33, 178.62 -0.69, 285.98 0 M32 0 C122.92 0.5, 211.8 1.03, 285.98 0 M285.98 0 C307.55 -1.38, 318.1 12.31, 317.98 32 M285.98 0 C307.45 -0.39, 316.5 10.39, 317.98 32 M317.98 32 C319.85 73.41, 319.99 114.12, 317.98 151.57 M317.98 32 C319.1 69.54, 317.87 106.66, 317.98 151.57 M317.98 151.57 C316.72 173.48, 306.6 184.3, 285.98 183.57 M317.98 151.57 C318 173.08, 309.49 183.7, 285.98 183.57 M285.98 183.57 C198.33 183.3, 106.54 181.06, 32 183.57 M285.98 183.57 C194.13 181.81, 104.22 180.74, 32 183.57 M32 183.57 C10.88 185.53, -1.92 173.77, 0 151.57 M32 183.57 C11.47 185.55, -0.31 172.54, 0 151.57 M0 151.57 C-0.95 123.49, -0.64 92.67, 0 32 M0 151.57 C0.24 126.52, 1.45 102.19, 0 32 M0 32 C0.2 9.16, 9.88 -1.76, 32 0 M0 32 C-1.41 8.65, 12.43 -0.79, 32 0" fill="none" stroke="#1e1e1e" stroke-width="2"></path></g><g transform="translate(2091.8857848829048 437.04493311256) rotate(0 95.546875 12.5)"><text direction="ltr" dominant-baseline="text-before-edge" fill="#1e1e1e" font-family="Virgil, Segoe UI Emoji" font-size="20px" style="white-space: pre;" text-anchor="middle" x="95.546875" y="0">Symbol Price Processor</text></g><g stroke-linecap="round" transform="translate(2732.3513664001184 355.40602391187895) rotate(0 145.17876843868748 94.99884226153995)"><path d="M32 0 C87.37 1.97, 140.38 1.78, 258.36 0 M32 0 C98.75 -1.74, 165.35 -0.45, 258.36 0 M258.36 0 C279.8 -0.34, 289.07 10.43, 290.36 32 M258.36 0 C280.62 0.56, 290.33 12.48, 290.36 32 M290.36 32 C291.71 75.59, 290.5 117.61, 290.36 158 M290.36 32 C288.69 70.89, 288.96 109.57, 290.36 158 M290.36 158 C290.37 179.48, 281.58 190.11, 258.36 190 M290.36 158 C291.53 179.95, 278.51 192.08, 258.36 190 M258.36 190 C180.41 186.55, 98.74 186.67, 32 190 M258.36 190 C182.75 188.97, 106.15 188.49, 32 190 M32 190 C11.36 191.72, -0.27 179.01, 0 158 M32 190 C9.27 189.8, -0.41 178.12, 0 158 M0 158 C-1.33 115.76, -1.4 74.94, 0 32 M0 158 C-0.85 118.7, -1.34 80.02, 0 32 M0 32 C-1.22 8.91, 12.2 -0.69, 32 0 M0 32 C-1.38 10, 11.65 -0.57, 32 0" fill="none" stroke="#1e1e1e" stroke-width="2"></path></g><g transform="translate(2838.1063067138057 437.9048661734189) rotate(0 39.423828125 12.5)"><text direction="ltr" dominant-baseline="text-before-edge" fill="#1e1e1e" font-family="Virgil, Segoe UI Emoji" font-size="20px" style="white-space: pre;" text-anchor="middle" x="39.423828125" y="0">Exchange</text></g><g stroke-linecap="round"><g transform="translate(2719.5721130733255 445.74994033678195) rotate(0 -179.97303150410653 0.7409526144458596)"><path d="M0.97 -0.07 C-59.39 0.35, -300.9 2.07, -361.03 2.19 M0.02 -1.15 C-60.07 -1.04, -298.8 0, -358.89 0.45" fill="none" stroke="#1e1e1e" stroke-width="2"></path></g><g transform="translate(2719.5721130733255 445.74994033678195) rotate(0 -179.97303150410653 0.7409526144458596)"><path d="M-330.76 -9.97 C-341.92 -7.48, -351.64 -1.35, -358.89 0.45 M-330.76 -9.97 C-337.19 -7.51, -344.39 -5.05, -358.89 0.45" fill="none" stroke="#1e1e1e" stroke-width="2"></path></g><g transform="translate(2719.5721130733255 445.74994033678195) rotate(0 -179.97303150410653 0.7409526144458596)"><path d="M-330.64 10.55 C-341.79 5.01, -351.56 3.1, -358.89 0.45 M-330.64 10.55 C-337.12 8.27, -344.34 5.99, -358.89 0.45" fill="none" stroke="#1e1e1e" stroke-width="2"></path></g></g><mask></mask><g transform="translate(2479.6742322940117 400.3113031728335) rotate(0 68.10993194580078 12.5)"><text direction="ltr" dominant-baseline="text-before-edge" fill="#1e1e1e" font-family="Virgil, Segoe UI Emoji" font-size="20px" style="white-space: pre;" text-anchor="start" x="0" y="0">Price updates</text></g><g stroke-linecap="round"><g transform="translate(1999.8716072439274 416.9427507265991) rotate(0 -127.29449728811574 -68.9348568564194)"><path d="M0.14 -0.83 C-42.1 -23.76, -212.08 -114.01, -254.52 -136.88 M-1.24 1.35 C-43.54 -21.96, -213.1 -115.45, -255.43 -138.49" fill="none" stroke="#1e1e1e" stroke-width="2"></path></g><g transform="translate(1999.8716072439274 416.9427507265991) rotate(0 -127.29449728811574 -68.9348568564194)"><path d="M-225.78 -133.93 C-233.4 -134.74, -236.59 -135.69, -255.43 -138.49 M-225.78 -133.93 C-233.74 -135.01, -242.55 -135.76, -255.43 -138.49" fill="none" stroke="#1e1e1e" stroke-width="2"></path></g><g transform="translate(1999.8716072439274 416.9427507265991) rotate(0 -127.29449728811574 -68.9348568564194)"><path d="M-235.65 -115.94 C-241.31 -120.53, -242.43 -125.25, -255.43 -138.49 M-235.65 -115.94 C-240.7 -122.1, -246.71 -127.93, -255.43 -138.49" fill="none" stroke="#1e1e1e" stroke-width="2"></path></g></g><mask></mask><g transform="translate(1873.727464352305 294.9396697823995) rotate(0 40.97996520996094 12.5)"><text direction="ltr" dominant-baseline="text-before-edge" fill="#1e1e1e" font-family="Virgil, Segoe UI Emoji" font-size="20px" style="white-space: pre;" text-anchor="start" x="0" y="0">Updates</text></g><g transform="translate(767.3552686012044 389.03279652463425) rotate(0 51.209938049316406 12.5)"><text direction="ltr" dominant-baseline="text-before-edge" fill="#1e1e1e" font-family="Virgil, Segoe UI Emoji" font-size="20px" style="white-space: pre;" text-anchor="start" x="0" y="0">subscribe()</text></g><g stroke-linecap="round"><g transform="translate(707.6795241858126 648.8176410849937) rotate(0 129.87386636088775 44.11267239925246)"><path d="M-0.77 -0.14 C42.59 14.64, 216.81 73.63, 260.23 88.52 M1.02 -1.27 C44.26 13.16, 216.55 71.78, 259.54 86.55" fill="none" stroke="#1e1e1e" stroke-width="2"></path></g><g transform="translate(707.6795241858126 648.8176410849937) rotate(0 129.87386636088775 44.11267239925246)"><path d="M229.54 87.15 C238.47 87.96, 248.37 86.95, 259.54 86.55 M229.54 87.15 C241.28 86.8, 252.86 85.97, 259.54 86.55" fill="none" stroke="#1e1e1e" stroke-width="2"></path></g><g transform="translate(707.6795241858126 648.8176410849937) rotate(0 129.87386636088775 44.11267239925246)"><path d="M236.17 67.73 C243.04 74.44, 250.91 79.36, 259.54 86.55 M236.17 67.73 C245.47 74.79, 254.54 81.32, 259.54 86.55" fill="none" stroke="#1e1e1e" stroke-width="2"></path></g></g><mask></mask><g stroke-linecap="round"><g transform="translate(232.58488405108073 504.2770966832959) rotate(0 109.89263004273954 -0.04744355488583096)"><path d="M0.48 0.29 C37.24 0.46, 183.15 0.74, 219.77 0.85 M-0.72 -0.6 C35.94 -0.74, 182.08 -0.73, 218.81 -0.77" fill="none" stroke="#1e1e1e" stroke-width="2"></path></g><g transform="translate(232.58488405108073 504.2770966832959) rotate(0 109.89263004273954 -0.04744355488583096)"><path d="M190.63 9.5 C197.77 6.94, 205.5 5.28, 218.81 -0.77 M190.63 9.5 C202.05 5.04, 212.73 1.6, 218.81 -0.77" fill="none" stroke="#1e1e1e" stroke-width="2"></path></g><g transform="translate(232.58488405108073 504.2770966832959) rotate(0 109.89263004273954 -0.04744355488583096)"><path d="M190.62 -11.02 C197.73 -8.75, 205.47 -5.58, 218.81 -0.77 M190.62 -11.02 C202.12 -7.57, 212.81 -3.09, 218.81 -0.77" fill="none" stroke="#1e1e1e" stroke-width="2"></path></g></g><mask></mask><g transform="translate(215.39735147524334 523.2235993516533) rotate(0 121.58992767333984 25)"><text direction="ltr" dominant-baseline="text-before-edge" fill="#1e1e1e" font-family="Virgil, Segoe UI Emoji" font-size="20px" style="white-space: pre;" text-anchor="start" x="0" y="0">POST + DELETE /order</text><text direction="ltr" dominant-baseline="text-before-edge" fill="#1e1e1e" font-family="Virgil, Segoe UI Emoji" font-size="20px" style="white-space: pre;" text-anchor="start" x="0" y="25">GET /orders</text></g><g transform="translate(743.360595954684 717.3065861054547) rotate(0 67.12993621826172 37.5)"><text direction="ltr" dominant-baseline="text-before-edge" fill="#1e1e1e" font-family="Virgil, Segoe UI Emoji" font-size="20px" style="white-space: pre;" text-anchor="start" x="0" y="0">createOrder()</text><text direction="ltr" dominant-baseline="text-before-edge" fill="#1e1e1e" font-family="Virgil, Segoe UI Emoji" font-size="20px" style="white-space: pre;" text-anchor="start" x="0" y="25">deleteOrder()</text><text direction="ltr" dominant-baseline="text-before-edge" fill="#1e1e1e" font-family="Virgil, Segoe UI Emoji" font-size="20px" style="white-space: pre;" text-anchor="start" x="0" y="50">getOrders()</text></g><g stroke-linecap="round" transform="translate(979.5545494320868 651.9924933368511) rotate(0 163.9612217241738 114.22912540394009)"><path d="M32 0 C121.02 0.15, 208.88 -0.15, 295.92 0 M32 0 C112.36 0.85, 193.43 0.9, 295.92 0 M295.92 0 C317.27 0.15, 329.81 10.78, 327.92 32 M295.92 0 C318.43 0.61, 326.74 12.75, 327.92 32 M327.92 32 C327.87 87.37, 324.71 144.88, 327.92 196.46 M327.92 32 C328.92 87.98, 327.85 142.42, 327.92 196.46 M327.92 196.46 C328.62 219.51, 316.99 228.14, 295.92 228.46 M327.92 196.46 C326.52 217.59, 316.84 227.24, 295.92 228.46 M295.92 228.46 C208.48 225.75, 122.4 225.95, 32 228.46 M295.92 228.46 C215.25 229.61, 134.12 229.51, 32 228.46 M32 228.46 C9.44 226.71, 1.53 217.1, 0 196.46 M32 228.46 C9.29 227.79, 0.99 217.22, 0 196.46 M0 196.46 C-0.43 155.76, 0.86 110.68, 0 32 M0 196.46 C1.36 152.83, 2.06 109.79, 0 32 M0 32 C1.43 11.62, 12.04 -1.06, 32 0 M0 32 C0.95 12.06, 9.26 0.68, 32 0" fill="none" stroke="#1e1e1e" stroke-width="2"></path></g><g transform="translate(1085.2316056188902 758.5368485958952) rotate(0 65.77993774414062 12.5)"><text direction="ltr" dominant-baseline="text-before-edge" fill="#1e1e1e" font-family="Virgil, Segoe UI Emoji" font-size="20px" style="white-space: pre;" text-anchor="start" x="0" y="0">Order Service</text></g><g stroke-linecap="round"><g transform="translate(1314.115500287222 767.7321839702072) rotate(0 95.79123168866204 0.49291694012663356)"><path d="M0.49 0.08 C32.13 0.28, 158.87 0.42, 190.6 0.63 M-0.72 -0.93 C31.23 -0.51, 160.45 1.97, 192.79 1.98" fill="none" stroke="#1e1e1e" stroke-width="2"></path></g><g transform="translate(1314.115500287222 767.7321839702072) rotate(0 95.79123168866204 0.49291694012663356)"><path d="M164.49 11.93 C174.84 6.6, 184.29 3.4, 192.79 1.98 M164.49 11.93 C173.83 8.63, 184.07 5.34, 192.79 1.98" fill="none" stroke="#1e1e1e" stroke-width="2"></path></g><g transform="translate(1314.115500287222 767.7321839702072) rotate(0 95.79123168866204 0.49291694012663356)"><path d="M164.72 -8.59 C174.89 -6.55, 184.26 -2.37, 192.79 1.98 M164.72 -8.59 C173.91 -5.14, 184.08 -1.68, 192.79 1.98" fill="none" stroke="#1e1e1e" stroke-width="2"></path></g></g><mask></mask><g stroke-linecap="round"><g transform="translate(1854.1541289908491 770.4623689076816) rotate(0 436.4976978411646 -115.58644986493118)"><path d="M-0.99 -0.35 C144.31 -38.84, 726.64 -192.43, 872.24 -230.83 M0.7 -1.59 C146.33 -40.45, 729.4 -194.23, 874.55 -232.77" fill="none" stroke="#1e1e1e" stroke-width="2"></path></g><g transform="translate(1854.1541289908491 770.4623689076816) rotate(0 436.4976978411646 -115.58644986493118)"><path d="M849.92 -215.64 C857.71 -222.54, 867.26 -227.83, 874.55 -232.77 M849.92 -215.64 C859.14 -221.36, 866.98 -226.91, 874.55 -232.77" fill="none" stroke="#1e1e1e" stroke-width="2"></path></g><g transform="translate(1854.1541289908491 770.4623689076816) rotate(0 436.4976978411646 -115.58644986493118)"><path d="M844.67 -235.48 C854.26 -235.58, 865.6 -234.11, 874.55 -232.77 M844.67 -235.48 C855.66 -234.54, 865.26 -233.41, 874.55 -232.77" fill="none" stroke="#1e1e1e" stroke-width="2"></path></g></g><mask></mask><g transform="translate(2226.0241731985443 688.7146847928798) rotate(0 174.79986572265625 12.5)"><text direction="ltr" dominant-baseline="text-before-edge" fill="#1e1e1e" font-family="Virgil, Segoe UI Emoji" font-size="20px" style="white-space: pre;" text-anchor="start" x="0" y="0">Execute order creations / cancels </text></g><g stroke-linecap="round" transform="translate(1519.6693763227377 647.7510283395441) rotate(0 156.69140625 118.0625)"><path d="M32 0 C91.62 0.75, 150.19 2.27, 281.38 0 M32 0 C107.78 0.19, 184.79 -1.15, 281.38 0 M281.38 0 C300.92 1.17, 311.39 8.68, 313.38 32 M281.38 0 C300.58 0.79, 314.63 8.45, 313.38 32 M313.38 32 C315.93 86.13, 316.79 138.59, 313.38 204.13 M313.38 32 C312.16 80.34, 312.6 129.36, 313.38 204.13 M313.38 204.13 C311.69 223.66, 301.54 234.26, 281.38 236.13 M313.38 204.13 C312.32 225.6, 304.44 238.05, 281.38 236.13 M281.38 236.13 C202.65 234.33, 125.37 236.58, 32 236.13 M281.38 236.13 C215.48 235.33, 148.53 236.02, 32 236.13 M32 236.13 C11.17 236.67, 1.51 227.3, 0 204.13 M32 236.13 C9.09 235.31, -1.69 224.08, 0 204.13 M0 204.13 C0.85 151.33, 1.19 97.04, 0 32 M0 204.13 C-1.32 161.91, -0.63 120.03, 0 32 M0 32 C-1.97 10.14, 10.63 -0.64, 32 0 M0 32 C-2.15 11.4, 10.29 1.55, 32 0" fill="none" stroke="#1e1e1e" stroke-width="2"></path></g><g transform="translate(1576.9564856977377 753.3135283395441) rotate(0 99.404296875 12.5)"><text direction="ltr" dominant-baseline="text-before-edge" fill="#1e1e1e" font-family="Virgil, Segoe UI Emoji" font-size="20px" style="white-space: pre;" text-anchor="middle" x="99.404296875" y="0">Order Dispatch Gateway</text></g><g transform="translate(1339.726940104476 788.0088408395441) rotate(0 67.12993621826172 25)"><text direction="ltr" dominant-baseline="text-before-edge" fill="#1e1e1e" font-family="Virgil, Segoe UI Emoji" font-size="20px" style="white-space: pre;" text-anchor="start" x="0" y="0">createOrder()</text><text direction="ltr" dominant-baseline="text-before-edge" fill="#1e1e1e" font-family="Virgil, Segoe UI Emoji" font-size="20px" style="white-space: pre;" text-anchor="start" x="0" y="25">deleteOrder()</text></g><g stroke-linecap="round" transform="translate(913.2889611844239 1086.8096801640804) rotate(0 133.1893516127518 144.91196769801354)"><path d="M98.5 3.89 C111.15 -2.37, 129.15 -1.75, 143.48 -0.61 C157.82 0.52, 171.29 4.3, 184.51 10.72 C197.72 17.13, 212.08 27.21, 222.78 37.89 C233.49 48.57, 241.65 61.34, 248.74 74.81 C255.83 88.28, 262.58 103.23, 265.32 118.71 C268.07 134.2, 267.45 152.09, 265.2 167.72 C262.94 183.35, 258.63 198.8, 251.8 212.51 C244.96 226.21, 234.85 239.23, 224.18 249.96 C213.52 260.69, 200.99 270.28, 187.79 276.87 C174.58 283.45, 159.35 288.13, 144.95 289.47 C130.55 290.8, 115.45 288.72, 101.38 284.88 C87.31 281.04, 72.77 274.79, 60.53 266.4 C48.29 258.02, 36.75 246.63, 27.95 234.57 C19.15 222.51, 12.22 208.74, 7.7 194.04 C3.18 179.35, 1.12 162.29, 0.84 146.42 C0.57 130.55, 1.79 113.8, 6.05 98.8 C10.31 83.8, 17.69 68.69, 26.41 56.41 C35.14 44.13, 44.23 34.32, 58.38 25.14 C72.54 15.95, 100.35 4.89, 111.32 1.31 C122.28 -2.28, 123.79 1.23, 124.17 3.64 M173.28 7.72 C186.75 9.73, 199.07 18.25, 210.36 27.07 C221.66 35.9, 232.56 47.8, 241.06 60.69 C249.56 73.58, 256.94 89.1, 261.35 104.39 C265.75 119.68, 268.06 136.62, 267.5 152.44 C266.93 168.26, 263.36 184.95, 257.98 199.31 C252.59 213.67, 244.68 226.67, 235.21 238.6 C225.73 250.52, 213.89 262.72, 201.13 270.86 C188.37 278.99, 172.85 284.21, 158.63 287.4 C144.42 290.58, 130.22 292.16, 115.84 289.96 C101.46 287.77, 85.25 281.53, 72.33 274.22 C59.4 266.92, 48.38 257.16, 38.28 246.13 C28.17 235.11, 17.96 221.95, 11.7 208.06 C5.43 194.17, 1.99 178.4, 0.66 162.77 C-0.67 147.15, 0.43 129.98, 3.73 114.3 C7.03 98.63, 13.23 81.96, 20.48 68.71 C27.73 55.47, 36.49 44.61, 47.23 34.84 C57.96 25.08, 71.25 16.03, 84.88 10.12 C98.5 4.22, 114.49 -0.07, 128.98 -0.56 C143.48 -1.05, 164.9 5.76, 171.87 7.17 C178.83 8.58, 171.53 5.77, 170.77 7.89" fill="none" stroke="#1e1e1e" stroke-width="2"></path></g><g transform="translate(1002.6957034649595 1219.2534128277425) rotate(0 43.603515625 12.5)"><text direction="ltr" dominant-baseline="text-before-edge" fill="#1e1e1e" font-family="Virgil, Segoe UI Emoji" font-size="20px" style="white-space: pre;" text-anchor="middle" x="43.603515625" y="0">Orders DB</text></g><g stroke-linecap="round"><g transform="translate(1158.294198353542 892.4944483054151) rotate(0 -31.677558095592303 91.97736663118303)"><path d="M0.59 -0.89 C-10.05 29.7, -53.58 154.05, -64.43 184.66 M-0.57 1.25 C-10.79 32.02, -52 152.54, -62.28 182.91" fill="none" stroke="#1e1e1e" stroke-width="2"></path></g><g transform="translate(1158.294198353542 892.4944483054151) rotate(0 -31.677558095592303 91.97736663118303)"><path d="M0.96 29.11 C-0.89 19.86, 1.68 12.2, 0.59 -0.89 M0.96 29.11 C1.71 22.13, 1.19 18.06, 0.59 -0.89" fill="none" stroke="#1e1e1e" stroke-width="2"></path></g><g transform="translate(1158.294198353542 892.4944483054151) rotate(0 -31.677558095592303 91.97736663118303)"><path d="M-18.41 22.33 C-15.39 14.67, -8.01 8.7, 0.59 -0.89 M-18.41 22.33 C-13.84 16.64, -10.47 13.93, 0.59 -0.89" fill="none" stroke="#1e1e1e" stroke-width="2"></path></g><g transform="translate(1158.294198353542 892.4944483054151) rotate(0 -31.677558095592303 91.97736663118303)"><path d="M-62.91 152.91 C-63.97 158.57, -61.16 165.82, -62.28 182.91 M-62.91 152.91 C-62.52 157.96, -62.84 165.92, -62.28 182.91" fill="none" stroke="#1e1e1e" stroke-width="2"></path></g><g transform="translate(1158.294198353542 892.4944483054151) rotate(0 -31.677558095592303 91.97736663118303)"><path d="M-43.49 159.53 C-49.43 163.63, -51.44 169.24, -62.28 182.91 M-43.49 159.53 C-46.93 163.31, -51.14 169.95, -62.28 182.91" fill="none" stroke="#1e1e1e" stroke-width="2"></path></g></g><mask></mask><g transform="translate(951.7038002180343 1398.173574019309) rotate(0 437.099609375 112.5)"><text direction="ltr" dominant-baseline="text-before-edge" fill="#1e1e1e" font-family="Virgil, Segoe UI Emoji" font-size="20px" style="white-space: pre;" text-anchor="start" x="0" y="0">Order</text><text direction="ltr" dominant-baseline="text-before-edge" fill="#1e1e1e" font-family="Virgil, Segoe UI Emoji" font-size="20px" style="white-space: pre;" text-anchor="start" x="0" y="25">- orderId</text><text direction="ltr" dominant-baseline="text-before-edge" fill="#1e1e1e" font-family="Virgil, Segoe UI Emoji" font-size="20px" style="white-space: pre;" text-anchor="start" x="0" y="50">- userId</text><text direction="ltr" dominant-baseline="text-before-edge" fill="#1e1e1e" font-family="Virgil, Segoe UI Emoji" font-size="20px" style="white-space: pre;" text-anchor="start" x="0" y="75">- externalOrderId</text><text direction="ltr" dominant-baseline="text-before-edge" fill="#1e1e1e" font-family="Virgil, Segoe UI Emoji" font-size="20px" style="white-space: pre;" text-anchor="start" x="0" y="100">- symbol</text><text direction="ltr" dominant-baseline="text-before-edge" fill="#1e1e1e" font-family="Virgil, Segoe UI Emoji" font-size="20px" style="white-space: pre;" text-anchor="start" x="0" y="125">- shares</text><text direction="ltr" dominant-baseline="text-before-edge" fill="#1e1e1e" font-family="Virgil, Segoe UI Emoji" font-size="20px" style="white-space: pre;" text-anchor="start" x="0" y="150">- price</text><text direction="ltr" dominant-baseline="text-before-edge" fill="#1e1e1e" font-family="Virgil, Segoe UI Emoji" font-size="20px" style="white-space: pre;" text-anchor="start" x="0" y="175">- state (pending | submitted | filled | partially_filled | pending_cancel | cancelled | failed)</text><text direction="ltr" dominant-baseline="text-before-edge" fill="#1e1e1e" font-family="Virgil, Segoe UI Emoji" font-size="20px" style="white-space: pre;" text-anchor="start" x="0" y="200">... (execution data)</text></g><g transform="translate(886.4908329467917 967.3975011885377) rotate(0 111.87991333007812 12.5)"><text direction="ltr" dominant-baseline="text-before-edge" fill="#1e1e1e" font-family="Virgil, Segoe UI Emoji" font-size="20px" style="white-space: pre;" text-anchor="start" x="0" y="0">Update / query orders</text></g><g stroke-linecap="round" transform="translate(2056.789006723815 1032.502730649181) rotate(0 147.80564180134252 87.84863200912878)"><path d="M32 0 C78.94 2.74, 123.08 2, 263.61 0 M32 0 C124.46 -0.12, 216.22 -0.98, 263.61 0 M263.61 0 C283.73 -0.18, 295.25 9.61, 295.61 32 M263.61 0 C285.54 -0.85, 293.66 8.6, 295.61 32 M295.61 32 C294.69 60.44, 296.24 86.08, 295.61 143.7 M295.61 32 C294.56 56.23, 295.94 81.86, 295.61 143.7 M295.61 143.7 C294.41 164.45, 285.8 175.2, 263.61 175.7 M295.61 143.7 C294.61 166.4, 285.52 176.32, 263.61 175.7 M263.61 175.7 C176.08 173.11, 88.74 174.61, 32 175.7 M263.61 175.7 C197.95 176.7, 131.66 175.84, 32 175.7 M32 175.7 C11.49 176.91, -1.22 165.62, 0 143.7 M32 175.7 C10.84 177.83, -2.26 164.42, 0 143.7 M0 143.7 C0.99 110.09, 1.7 78.06, 0 32 M0 143.7 C-1.32 109.59, -1.44 74.27, 0 32 M0 32 C0.41 9.81, 10.29 1.11, 32 0 M0 32 C-0.91 8.8, 9.18 -0.5, 32 0" fill="none" stroke="#1e1e1e" stroke-width="2"></path></g><g transform="translate(2140.2440625876575 1107.8513626583099) rotate(0 64.3505859375 12.5)"><text direction="ltr" dominant-baseline="text-before-edge" fill="#1e1e1e" font-family="Virgil, Segoe UI Emoji" font-size="20px" style="white-space: pre;" text-anchor="middle" x="64.3505859375" y="0">Trade Processor</text></g><g stroke-linecap="round"><g transform="translate(2132.505481586485 1225.5380236210185) rotate(0 -475.18274614383336 74.66389496341208)"><path d="M0.13 1.18 C-88.16 26.34, -370.71 139.82, -529.05 149.84 C-687.4 159.86, -879.7 76.26, -949.95 61.29 M-1.27 0.75 C-89.26 25.65, -368.74 138.2, -526.95 147.99 C-685.15 157.78, -879.92 73.98, -950.49 59.49" fill="none" stroke="#1e1e1e" stroke-width="2"></path></g><g transform="translate(2132.505481586485 1225.5380236210185) rotate(0 -475.18274614383336 74.66389496341208)"><path d="M-920.55 57.63 C-929.22 56.4, -940.92 59.68, -950.49 59.49 M-920.55 57.63 C-932.72 58.21, -943.84 58.49, -950.49 59.49" fill="none" stroke="#1e1e1e" stroke-width="2"></path></g><g transform="translate(2132.505481586485 1225.5380236210185) rotate(0 -475.18274614383336 74.66389496341208)"><path d="M-926.36 77.31 C-932.78 69.11, -942.42 65.41, -950.49 59.49 M-926.36 77.31 C-936.26 70.31, -945.14 62.99, -950.49 59.49" fill="none" stroke="#1e1e1e" stroke-width="2"></path></g></g><mask></mask><g transform="translate(1927.756013011981 1312.9318260051732) rotate(0 71.27993774414062 12.5)"><text direction="ltr" dominant-baseline="text-before-edge" fill="#1e1e1e" font-family="Virgil, Segoe UI Emoji" font-size="20px" style="white-space: pre;" text-anchor="start" x="0" y="0">Update orders</text></g><g stroke-linecap="round"><g transform="translate(2885.562128099107 558.7145503026077) rotate(0 -260.3818370722224 258.5996814608725)"><path d="M0.42 1.03 C-86.21 87.11, -433.94 431, -520.93 517.01 M-0.82 0.53 C-87.52 86.75, -435.6 432.14, -521.96 518.44" fill="none" stroke="#1e1e1e" stroke-width="2"></path></g><g transform="translate(2885.562128099107 558.7145503026077) rotate(0 -260.3818370722224 258.5996814608725)"><path d="M-509.22 491.28 C-509.98 496.6, -514.62 501.2, -521.96 518.44 M-509.22 491.28 C-512.72 498.76, -517.53 506.14, -521.96 518.44" fill="none" stroke="#1e1e1e" stroke-width="2"></path></g><g transform="translate(2885.562128099107 558.7145503026077) rotate(0 -260.3818370722224 258.5996814608725)"><path d="M-494.74 505.83 C-498.52 508.23, -506.12 509.85, -521.96 518.44 M-494.74 505.83 C-502.43 508.99, -511.46 512.13, -521.96 518.44" fill="none" stroke="#1e1e1e" stroke-width="2"></path></g></g><mask></mask><g transform="translate(2643.680708552227 817.8022025595928) rotate(0 74.68993377685547 12.5)"><text direction="ltr" dominant-baseline="text-before-edge" fill="#1e1e1e" font-family="Virgil, Segoe UI Emoji" font-size="20px" style="white-space: pre;" text-anchor="start" x="0" y="0">Trade updates</text></g><g stroke-linecap="round" transform="translate(1460.6980403703092 485.35910918073387) rotate(0 172.75057718334529 58.1354987660219)"><path d="M29.07 0 C111.27 1.05, 192.94 1.71, 316.43 0 M29.07 0 C104.2 1.25, 179.88 2, 316.43 0 M316.43 0 C337.31 1.67, 345.7 8.18, 345.5 29.07 M316.43 0 C334.91 -2.03, 344.1 7.67, 345.5 29.07 M345.5 29.07 C344.72 51.81, 344.81 71.97, 345.5 87.2 M345.5 29.07 C346.4 50.88, 344.96 70.5, 345.5 87.2 M345.5 87.2 C344.03 105.38, 336.11 115.99, 316.43 116.27 M345.5 87.2 C347.46 107.28, 337.46 117.36, 316.43 116.27 M316.43 116.27 C211.44 116.24, 105.07 117.28, 29.07 116.27 M316.43 116.27 C203.61 115.46, 90.11 115.94, 29.07 116.27 M29.07 116.27 C9.36 117.62, 0.92 106.83, 0 87.2 M29.07 116.27 C11.53 114.59, -0.99 108.44, 0 87.2 M0 87.2 C-1.09 72.59, 0.87 57.93, 0 29.07 M0 87.2 C0.82 74.48, 1.35 61.46, 0 29.07 M0 29.07 C1.71 9.48, 7.69 -0.99, 29.07 0 M0 29.07 C0.89 10.47, 7.89 -0.19, 29.07 0" fill="none" stroke="#1e1e1e" stroke-width="2"></path></g><g transform="translate(1576.5003753661545 530.9946079467558) rotate(0 56.9482421875 12.5)"><text direction="ltr" dominant-baseline="text-before-edge" fill="#1e1e1e" font-family="Virgil, Segoe UI Emoji" font-size="20px" style="white-space: pre;" text-anchor="middle" x="56.9482421875" y="0">Redis pub/sub</text></g><g stroke-linecap="round"><g transform="translate(2023.540701517246 475.81706514501093) rotate(0 -98.41254677175402 29.6945176438104)"><path d="M0.31 -0.44 C-32.63 9.38, -164.87 48.52, -197.84 58.31 M-0.98 -1.72 C-33.54 8.27, -163.33 49.16, -195.66 59.28" fill="none" stroke="#1e1e1e" stroke-width="2"></path></g><g transform="translate(2023.540701517246 475.81706514501093) rotate(0 -98.41254677175402 29.6945176438104)"><path d="M-171.84 41.04 C-179.4 44.56, -187.18 50.22, -195.66 59.28 M-171.84 41.04 C-176.1 45.66, -181.67 47.84, -195.66 59.28" fill="none" stroke="#1e1e1e" stroke-width="2"></path></g><g transform="translate(2023.540701517246 475.81706514501093) rotate(0 -98.41254677175402 29.6945176438104)"><path d="M-165.69 60.62 C-174.88 58.63, -184.4 58.77, -195.66 59.28 M-165.69 60.62 C-171.13 61.2, -177.97 59.33, -195.66 59.28" fill="none" stroke="#1e1e1e" stroke-width="2"></path></g></g><mask></mask><g transform="translate(1899.3552598061287 530.1283685284507) rotate(0 32.559959411621094 12.5)"><text direction="ltr" dominant-baseline="text-before-edge" fill="#1e1e1e" font-family="Virgil, Segoe UI Emoji" font-size="20px" style="white-space: pre;" text-anchor="start" x="0" y="0">Publish</text></g><g stroke-linecap="round"><g transform="translate(1318.441850576506 455.9541973149262) rotate(0 61.60443701403801 23.965880076112285)"><path d="M-0.71 -1.12 C19.91 7.06, 101.85 39.66, 122.66 48 M1.12 0.9 C21.62 9.39, 100.97 41.88, 121.42 49.58" fill="none" stroke="#1e1e1e" stroke-width="2"></path></g><g transform="translate(1318.441850576506 455.9541973149262) rotate(0 61.60443701403801 23.965880076112285)"><path d="M91.43 48.76 C96.01 48.19, 104.45 50.78, 121.42 49.58 M91.43 48.76 C102.54 48.42, 113.82 48.74, 121.42 49.58" fill="none" stroke="#1e1e1e" stroke-width="2"></path></g><g transform="translate(1318.441850576506 455.9541973149262) rotate(0 61.60443701403801 23.965880076112285)"><path d="M98.97 29.67 C101.76 33.17, 108.57 39.87, 121.42 49.58 M98.97 29.67 C107.21 36.6, 115.6 44.24, 121.42 49.58" fill="none" stroke="#1e1e1e" stroke-width="2"></path></g></g><mask></mask><g transform="translate(1352.8340168053073 438.6876658243127) rotate(0 113.3598861694336 12.5)"><text direction="ltr" dominant-baseline="text-before-edge" fill="#1e1e1e" font-family="Virgil, Segoe UI Emoji" font-size="20px" style="white-space: pre;" text-anchor="start" x="0" y="0">Subscribe / unsubscribe</text></g><g stroke-linecap="round"><g transform="translate(1447.1195036296049 545.4306387201559) rotate(0 -67.77379720298222 -26.305063926550474)"><path d="M0.9 1 C-21.58 -7.93, -112.61 -44.4, -135.43 -53.51 M-0.09 0.48 C-22.67 -8.33, -113.49 -43.55, -136.31 -52.45" fill="none" stroke="#1e1e1e" stroke-width="2"></path></g><g transform="translate(1447.1195036296049 545.4306387201559) rotate(0 -67.77379720298222 -26.305063926550474)"><path d="M-106.32 -51.8 C-112.26 -51.54, -123.06 -52.69, -136.31 -52.45 M-106.32 -51.8 C-111.91 -52.54, -119.63 -52.63, -136.31 -52.45" fill="none" stroke="#1e1e1e" stroke-width="2"></path></g><g transform="translate(1447.1195036296049 545.4306387201559) rotate(0 -67.77379720298222 -26.305063926550474)"><path d="M-113.76 -32.67 C-117.82 -37.33, -126.73 -43.33, -136.31 -52.45 M-113.76 -32.67 C-117.65 -37.4, -123.79 -41.54, -136.31 -52.45" fill="none" stroke="#1e1e1e" stroke-width="2"></path></g></g><mask></mask><g transform="translate(1188.7961217332595 547.7830138592362) rotate(0 110.9898910522461 12.5)"><text direction="ltr" dominant-baseline="text-before-edge" fill="#1e1e1e" font-family="Virgil, Segoe UI Emoji" font-size="20px" style="white-space: pre;" text-anchor="start" x="0" y="0">Consume price updates</text></g><g stroke-linecap="round" transform="translate(1416.6724135165814 1022.6791844056315) rotate(0 132.2202920324894 124.03962627353394)"><path d="M92.1 5.15 C104.54 -0.61, 120.93 0.1, 135.25 0.47 C149.57 0.83, 164.47 2.69, 178.03 7.34 C191.59 11.98, 205.46 19.64, 216.62 28.35 C227.78 37.06, 237.39 48.31, 244.96 59.58 C252.54 70.84, 259.03 83.09, 262.09 95.93 C265.15 108.78, 265.11 123.16, 263.32 136.65 C261.52 150.14, 257.37 164.43, 251.33 176.85 C245.29 189.27, 236.88 201.43, 227.08 211.17 C217.28 220.91, 205.16 229.23, 192.51 235.29 C179.86 241.36, 165.49 245.72, 151.18 247.55 C136.87 249.37, 120.69 249.01, 106.66 246.25 C92.63 243.49, 79.27 237.74, 66.99 231 C54.72 224.26, 42.39 215.97, 33.02 205.81 C23.65 195.64, 16.28 182.46, 10.77 170.01 C5.26 157.57, 0.98 144.55, -0.05 131.15 C-1.08 117.76, 0.63 102.59, 4.58 89.64 C8.54 76.69, 15.41 64.27, 23.7 53.45 C31.99 42.63, 42.4 32.68, 54.33 24.73 C66.26 16.79, 88.02 8.86, 95.26 5.78 C102.51 2.69, 97.07 4.47, 97.8 6.23 M158.24 3.31 C171.83 3.83, 186.35 9.25, 198.57 15.86 C210.8 22.47, 222.07 32.55, 231.6 42.94 C241.13 53.33, 250.06 65.75, 255.76 78.2 C261.45 90.66, 264.96 104.3, 265.75 117.68 C266.53 131.06, 264.96 145.67, 260.47 158.51 C255.98 171.35, 247.18 183.64, 238.82 194.72 C230.46 205.81, 221.86 217.06, 210.32 225.03 C198.78 233.01, 183.37 238.65, 169.59 242.57 C155.81 246.49, 141.55 249.17, 127.65 248.54 C113.75 247.9, 99.52 243.51, 86.2 238.75 C72.88 233.99, 58.81 228.58, 47.74 219.99 C36.68 211.41, 27.07 198.62, 19.82 187.25 C12.56 175.88, 7.29 164.81, 4.21 151.77 C1.14 138.73, 0.09 122.72, 1.35 109.01 C2.61 95.3, 5.69 81.72, 11.76 69.51 C17.83 57.29, 27.5 45.32, 37.75 35.71 C48 26.1, 60.41 17.49, 73.25 11.84 C86.08 6.19, 100.72 3.57, 114.77 1.79 C128.81 0.02, 150.07 0.76, 157.51 1.2 C164.95 1.63, 159.91 2.26, 159.39 4.39" fill="none" stroke="#1e1e1e" stroke-width="2"></path></g><g transform="translate(1486.706457629932 1121.5095498053047) rotate(0 62.1923828125 25)"><text direction="ltr" dominant-baseline="text-before-edge" fill="#1e1e1e" font-family="Virgil, Segoe UI Emoji" font-size="20px" style="white-space: pre;" text-anchor="middle" x="62.1923828125" y="0">External Order </text><text direction="ltr" dominant-baseline="text-before-edge" fill="#1e1e1e" font-family="Virgil, Segoe UI Emoji" font-size="20px" style="white-space: pre;" text-anchor="middle" x="62.1923828125" y="25">Metadata DB</text></g><g stroke-linecap="round"><g transform="translate(1300.7208038948465 890.2710901289047) rotate(0 79.36272438455626 77.16168208210092)"><path d="M0.92 -0.41 C27.37 25.43, 131.62 128.24, 158.01 153.98 M-0.06 -1.67 C26.85 24.43, 133.87 129.19, 160.34 155.33" fill="none" stroke="#1e1e1e" stroke-width="2"></path></g><g transform="translate(1300.7208038948465 890.2710901289047) rotate(0 79.36272438455626 77.16168208210092)"><path d="M133.04 142.89 C138.77 144.46, 145.4 149.48, 160.34 155.33 M133.04 142.89 C140.75 146.43, 148.77 150.5, 160.34 155.33" fill="none" stroke="#1e1e1e" stroke-width="2"></path></g><g transform="translate(1300.7208038948465 890.2710901289047) rotate(0 79.36272438455626 77.16168208210092)"><path d="M147.42 128.26 C149.58 133.43, 152.78 141.95, 160.34 155.33 M147.42 128.26 C151.11 135.9, 155.17 144, 160.34 155.33" fill="none" stroke="#1e1e1e" stroke-width="2"></path></g></g><mask></mask><g transform="translate(1399.4647198846424 939.7907858892686) rotate(0 35.54997253417969 12.5)"><text direction="ltr" dominant-baseline="text-before-edge" fill="#1e1e1e" font-family="Virgil, Segoe UI Emoji" font-size="20px" style="white-space: pre;" text-anchor="start" x="0" y="0">Update</text></g><g stroke-linecap="round"><g transform="translate(2042.3193139970426 1106.1485178641651) rotate(0 -178.01148723727283 9.845845657855534)"><path d="M0.51 -0.3 C-58.79 3.16, -297.17 17.02, -356.54 20.4 M-0.68 -1.5 C-60.12 1.65, -298.49 14.82, -357.76 18.66" fill="none" stroke="#1e1e1e" stroke-width="2"></path></g><g transform="translate(2042.3193139970426 1106.1485178641651) rotate(0 -178.01148723727283 9.845845657855534)"><path d="M-27.03 11.58 C-20.88 7.74, -12.58 6.26, 0.51 -0.3 M-27.03 11.58 C-18.8 7.09, -9.83 2.95, 0.51 -0.3" fill="none" stroke="#1e1e1e" stroke-width="2"></path></g><g transform="translate(2042.3193139970426 1106.1485178641651) rotate(0 -178.01148723727283 9.845845657855534)"><path d="M-28.22 -8.91 C-21.85 -7.83, -13.26 -4.4, 0.51 -0.3 M-28.22 -8.91 C-19.44 -6.71, -10.09 -4.14, 0.51 -0.3" fill="none" stroke="#1e1e1e" stroke-width="2"></path></g><g transform="translate(2042.3193139970426 1106.1485178641651) rotate(0 -178.01148723727283 9.845845657855534)"><path d="M-330.23 6.75 C-337.37 8.86, -342.3 13.08, -357.76 18.66 M-330.23 6.75 C-339.83 10.54, -348.89 14.19, -357.76 18.66" fill="none" stroke="#1e1e1e" stroke-width="2"></path></g><g transform="translate(2042.3193139970426 1106.1485178641651) rotate(0 -178.01148723727283 9.845845657855534)"><path d="M-329.02 27.23 C-336.39 24.43, -341.61 23.74, -357.76 18.66 M-329.02 27.23 C-339.17 24.33, -348.63 21.28, -357.76 18.66" fill="none" stroke="#1e1e1e" stroke-width="2"></path></g></g><mask></mask><g transform="translate(1850.7510087557948 1082.0998144821606) rotate(0 27.189971923828125 12.5)"><text direction="ltr" dominant-baseline="text-before-edge" fill="#1e1e1e" font-family="Virgil, Segoe UI Emoji" font-size="20px" style="white-space: pre;" text-anchor="start" x="0" y="0">Query</text></g><g transform="translate(1397.5385364623953 1276.6869032678806) rotate(0 181.15985107421875 25)"><text direction="ltr" dominant-baseline="text-before-edge" fill="#1e1e1e" font-family="Virgil, Segoe UI Emoji" font-size="20px" style="white-space: pre;" text-anchor="start" x="0" y="0">Key-value store, mapping: </text><text direction="ltr" dominant-baseline="text-before-edge" fill="#1e1e1e" font-family="Virgil, Segoe UI Emoji" font-size="20px" style="white-space: pre;" text-anchor="start" x="0" y="25">externalOrderId -&gt; (orderId, userId)</text></g></svg>