<svg height="1029.0176214810647" version="1.1" viewbox="0 0 699.99512191358 1029.0176214810647" width="699.99512191358" xmlns="http://www.w3.org/2000/svg">
<!-- svg-source:excalidraw -->
<!-- payload-type:application/vnd.excalidraw+json --><!-- payload-version:2 -->
<defs>
<style class="style-fonts">
</style>
</defs>
<rect fill="#ffffff" height="1029.0176214810647" width="699.99512191358" x="0" y="0"></rect><g stroke-linecap="round" transform="translate(10 455.8241079311589) rotate(0 46.552734375 44.414062500000014)"><path d="M22.21 0 C32.56 -0.49, 45.42 -0.25, 70.9 0 M22.21 0 C36.49 -0.06, 51.73 1.03, 70.9 0 M70.9 0 C84.25 1.28, 91.82 6.06, 93.11 22.21 M70.9 0 C86.78 -1.1, 93.95 7.9, 93.11 22.21 M93.11 22.21 C92.43 38.59, 94.59 58.63, 93.11 66.62 M93.11 22.21 C93.5 33.84, 92.48 43.3, 93.11 66.62 M93.11 66.62 C92.69 80.93, 86.84 88.05, 70.9 88.83 M93.11 66.62 C94.28 82.77, 86.69 89.98, 70.9 88.83 M70.9 88.83 C57.92 90.85, 45.51 89.91, 22.21 88.83 M70.9 88.83 C53.03 89.03, 35.18 89.75, 22.21 88.83 M22.21 88.83 C7.53 87.64, 0.63 81.55, 0 66.62 M22.21 88.83 C5.61 90.51, -1.37 79.81, 0 66.62 M0 66.62 C-0.77 53.18, -1.82 39.24, 0 22.21 M0 66.62 C0.34 51.17, 1.09 37.67, 0 22.21 M0 22.21 C1.63 7.09, 6.29 -0.61, 22.21 0 M0 22.21 C-0.41 6.17, 5.38 0.84, 22.21 0" fill="none" stroke="#1e1e1e" stroke-width="2"></path></g><g transform="translate(34.3408203125 487.7381704311589) rotate(0 22.2119140625 12.5)"><text direction="ltr" dominant-baseline="text-before-edge" fill="#1e1e1e" font-family="Virgil, Segoe UI Emoji" font-size="20px" style="white-space: pre;" text-anchor="middle" x="22.2119140625" y="0">client</text></g><g stroke-linecap="round" transform="translate(457.7073192017277 316.5963010814334) rotate(0 88.23450257863317 98.93473203061868)"><path d="M32 0 C61 -1.31, 88.6 -1.13, 144.47 0 M32 0 C58.57 0.76, 85.38 0.42, 144.47 0 M144.47 0 C164.08 -0.62, 175.18 12.21, 176.47 32 M144.47 0 C167.04 -1.22, 178.24 12.04, 176.47 32 M176.47 32 C175.67 72.43, 176.86 114.81, 176.47 165.87 M176.47 32 C177.58 67.43, 176.71 102.25, 176.47 165.87 M176.47 165.87 C177.06 186.7, 167.68 197.43, 144.47 197.87 M176.47 165.87 C177.54 188.68, 164.1 199.53, 144.47 197.87 M144.47 197.87 C113.3 197.74, 78.66 198.24, 32 197.87 M144.47 197.87 C109.41 197.99, 75.69 199.31, 32 197.87 M32 197.87 C10.96 197.37, 0.53 185.65, 0 165.87 M32 197.87 C11.31 198.51, -0.85 187.44, 0 165.87 M0 165.87 C1.52 125.02, 0.88 79.8, 0 32 M0 165.87 C-0.64 130.17, -0.33 94.06, 0 32 M0 32 C1.01 9.1, 11.69 0.3, 32 0 M0 32 C1.78 12.2, 11.93 0.1, 32 0" fill="none" stroke="#1e1e1e" stroke-width="2"></path></g><g transform="translate(514.6918446685445 403.03103311205206) rotate(0 31.249977111816406 12.5)"><text direction="ltr" dominant-baseline="text-before-edge" fill="#1e1e1e" font-family="Virgil, Segoe UI Emoji" font-size="20px" style="white-space: pre;" text-anchor="middle" x="31.249977111816406" y="0">Cache1</text></g><g stroke-linecap="round" transform="translate(453.3926864555481 552.907110768365) rotate(0 88.23450257863317 98.93473203061865)"><path d="M32 0 C56.22 1.66, 82.16 1.46, 144.47 0 M32 0 C67.33 -0.18, 103.74 0.9, 144.47 0 M144.47 0 C166.88 -1.06, 178.01 11.86, 176.47 32 M144.47 0 C165.92 1.53, 174.25 8.72, 176.47 32 M176.47 32 C175.36 70.43, 177.31 107.68, 176.47 165.87 M176.47 32 C176.18 78.64, 176.82 125.56, 176.47 165.87 M176.47 165.87 C177.4 188.49, 164.33 199.31, 144.47 197.87 M176.47 165.87 C176.18 186.85, 165.26 199.19, 144.47 197.87 M144.47 197.87 C110.12 196.67, 76.98 197.03, 32 197.87 M144.47 197.87 C118.78 198.31, 93.07 197.79, 32 197.87 M32 197.87 C11.23 198.42, -0.74 187.41, 0 165.87 M32 197.87 C11.06 195.82, 2.12 187.57, 0 165.87 M0 165.87 C-0.4 114.44, -0.86 61.97, 0 32 M0 165.87 C1.27 120.03, 1.27 75.89, 0 32 M0 32 C1.55 12, 11.76 0.09, 32 0 M0 32 C-0.61 11.83, 9.89 1.12, 32 0" fill="none" stroke="#1e1e1e" stroke-width="2"></path></g><g transform="translate(505.96721588965 639.3418427989836) rotate(0 35.65997314453125 12.5)"><text direction="ltr" dominant-baseline="text-before-edge" fill="#1e1e1e" font-family="Virgil, Segoe UI Emoji" font-size="20px" style="white-space: pre;" text-anchor="middle" x="35.65997314453125" y="0">Cache2</text></g><g stroke-linecap="round" transform="translate(449.9061521067001 789.1493346391142) rotate(0 88.23450257863317 98.93473203061865)"><path d="M32 0 C71.46 1.54, 109.82 -2.13, 144.47 0 M32 0 C62.78 -1.4, 93.25 -0.27, 144.47 0 M144.47 0 C165.9 1.33, 174.54 8.97, 176.47 32 M144.47 0 C165.33 -0.57, 177.78 9.77, 176.47 32 M176.47 32 C178.26 78.11, 178.04 126.57, 176.47 165.87 M176.47 32 C178.2 69.46, 176.99 106.36, 176.47 165.87 M176.47 165.87 C176.21 186.9, 165.33 199.02, 144.47 197.87 M176.47 165.87 C176.62 185.83, 166.53 198.02, 144.47 197.87 M144.47 197.87 C118.07 197.49, 95.72 197.49, 32 197.87 M144.47 197.87 C113.82 197.28, 82.24 197.1, 32 197.87 M32 197.87 C11.01 196.08, 1.85 187.53, 0 165.87 M32 197.87 C12.54 197.51, -1.28 186.5, 0 165.87 M0 165.87 C1.45 126.97, 1.36 91.36, 0 32 M0 165.87 C0.09 136.84, -0.13 106.51, 0 32 M0 32 C-0.53 11.68, 9.99 0.98, 32 0 M0 32 C-0.43 10.42, 12.03 -1.53, 32 0" fill="none" stroke="#1e1e1e" stroke-width="2"></path></g><g transform="translate(502.7906790993958 875.5840666697328) rotate(0 35.3499755859375 12.5)"><text direction="ltr" dominant-baseline="text-before-edge" fill="#1e1e1e" font-family="Virgil, Segoe UI Emoji" font-size="20px" style="white-space: pre;" text-anchor="middle" x="35.3499755859375" y="0">Cache3</text></g><g stroke-linecap="round" transform="translate(405.3858404560326 271.75254999381747) rotate(0 142.30464072877368 373.63253574362363)"><path d="M32 0 C97.3 1.86, 166.24 -0.61, 252.61 0 M252.61 0 C274.78 -1.94, 283.37 12.64, 284.61 32 M284.61 32 C287.51 172.57, 286.65 313.55, 284.61 715.27 M284.61 715.27 C285.24 738.18, 273.56 745.86, 252.61 747.27 M252.61 747.27 C175.88 748.45, 102.31 749.19, 32 747.27 M32 747.27 C10.51 747.3, 0.41 735.44, 0 715.27 M0 715.27 C-0.67 526.2, -0.42 336.19, 0 32 M0 32 C-1.17 9.07, 11.05 -0.69, 32 0" fill="none" stroke="#1e1e1e" stroke-dasharray="8 10" stroke-width="2.5"></path></g><g transform="translate(453.2261885292569 227.83819881637072) rotate(0 88.29993438720703 12.5)"><text direction="ltr" dominant-baseline="text-before-edge" fill="#1e1e1e" font-family="Virgil, Segoe UI Emoji" font-size="20px" style="white-space: pre;" text-anchor="start" x="0" y="0">Main Cache Nodes</text></g><g stroke-linecap="round" transform="translate(393.49859197011574 10) rotate(0 145.44398147474806 87.3079068483107)"><path d="M32 0 C117.98 1.76, 206.32 0.42, 258.89 0 M32 0 C113.57 -1.55, 194.87 -2.45, 258.89 0 M258.89 0 C280.64 1.94, 289.97 11.01, 290.89 32 M258.89 0 C279.7 -0.87, 292.05 8.44, 290.89 32 M290.89 32 C289.96 64.9, 289.88 97.5, 290.89 142.62 M290.89 32 C291.13 71.93, 290.98 110.46, 290.89 142.62 M290.89 142.62 C292.37 164.26, 278.53 175.4, 258.89 174.62 M290.89 142.62 C289.24 166.25, 278.59 172.88, 258.89 174.62 M258.89 174.62 C195.63 173.85, 131.72 172.23, 32 174.62 M258.89 174.62 C173.83 173.33, 91.04 173.76, 32 174.62 M32 174.62 C9.42 175.66, -0.19 163.76, 0 142.62 M32 174.62 C9.48 176.07, 0.22 164.6, 0 142.62 M0 142.62 C-0.26 111.35, -1.8 77.93, 0 32 M0 142.62 C-0.43 99.07, -0.01 53.23, 0 32 M0 32 C0.99 10.47, 12.03 -1.67, 32 0 M0 32 C-1.1 10.32, 10.83 1.34, 32 0" fill="none" stroke="#1e1e1e" stroke-width="2"></path></g><g transform="translate(467.41262807132864 84.8079068483107) rotate(0 71.52994537353516 12.5)"><text direction="ltr" dominant-baseline="text-before-edge" fill="#1e1e1e" font-family="Virgil, Segoe UI Emoji" font-size="20px" style="white-space: pre;" text-anchor="middle" x="71.52994537353516" y="0">Hot Key Cache</text></g><g stroke-linecap="round"><g transform="translate(125.42365736491604 480.18729427874285) rotate(0 126.08349956569958 -185.54887740823978)"><path d="M-1.09 0.91 C41.09 -60.64, 209.81 -307.95, 251.93 -369.97 M0.53 0.34 C42.65 -61.46, 209.18 -309.78, 250.86 -371.51" fill="none" stroke="#1e1e1e" stroke-width="2"></path></g><g transform="translate(125.42365736491604 480.18729427874285) rotate(0 126.08349956569958 -185.54887740823978)"><path d="M243.64 -342.39 C246.76 -348.56, 248.57 -354.91, 250.86 -371.51 M243.64 -342.39 C246.42 -349.97, 247.1 -359.32, 250.86 -371.51" fill="none" stroke="#1e1e1e" stroke-width="2"></path></g><g transform="translate(125.42365736491604 480.18729427874285) rotate(0 126.08349956569958 -185.54887740823978)"><path d="M226.61 -353.84 C233.09 -357.56, 238.31 -361.61, 250.86 -371.51 M226.61 -353.84 C234.24 -357.98, 239.83 -364.03, 250.86 -371.51" fill="none" stroke="#1e1e1e" stroke-width="2"></path></g></g><mask></mask><g transform="translate(82.99521224820899 270.7109589806519) rotate(0 71.19994354248047 12.5)"><text direction="ltr" dominant-baseline="text-before-edge" fill="#1e1e1e" font-family="Virgil, Segoe UI Emoji" font-size="20px" style="white-space: pre;" text-anchor="start" x="0" y="0">Read hot keys</text></g><g stroke-linecap="round"><g transform="translate(127.75449040137039 496.7362088375683) rotate(0 126.70991094424659 -0.9031978016259927)"><path d="M0.6 -0.17 C42.91 -0.39, 211.19 -1.66, 253.51 -1.89 M-0.54 -1.3 C41.65 -1.29, 210.13 -0.59, 252.61 -0.39" fill="none" stroke="#1e1e1e" stroke-width="2"></path></g><g transform="translate(127.75449040137039 496.7362088375683) rotate(0 126.70991094424659 -0.9031978016259927)"><path d="M224.37 9.75 C231.75 7.02, 239.51 5.97, 252.61 -0.39 M224.37 9.75 C234.29 6.84, 241.84 3.89, 252.61 -0.39" fill="none" stroke="#1e1e1e" stroke-width="2"></path></g><g transform="translate(127.75449040137039 496.7362088375683) rotate(0 126.70991094424659 -0.9031978016259927)"><path d="M224.46 -10.78 C231.72 -7.97, 239.46 -3.48, 252.61 -0.39 M224.46 -10.78 C234.55 -7.12, 242.08 -3.5, 252.61 -0.39" fill="none" stroke="#1e1e1e" stroke-width="2"></path></g></g><mask></mask><g transform="translate(220.98781185954215 539.0990992751251) rotate(0 80.96993255615234 12.5)"><text direction="ltr" dominant-baseline="text-before-edge" fill="#1e1e1e" font-family="Virgil, Segoe UI Emoji" font-size="20px" style="white-space: pre;" text-anchor="start" x="0" y="0">Read other keys</text></g></svg>