<svg height="366.7446420883832" version="1.1" viewbox="0 0 647.3947680713759 366.7446420883832" width="647.3947680713759" xmlns="http://www.w3.org/2000/svg">
<!-- svg-source:excalidraw -->
<!-- payload-type:application/vnd.excalidraw+json --><!-- payload-version:2 -->
<defs>
<style class="style-fonts">
</style>
</defs>
<rect fill="#ffffff" height="366.7446420883832" width="647.3947680713759" x="0" y="0"></rect><g stroke-linecap="round" transform="translate(10 156.42134896485283) rotate(0 46.552734375 44.4140625)"><path d="M22.21 0 C41.37 1.52, 57.38 -1.47, 70.9 0 M22.21 0 C36.6 -0.1, 48.93 -0.27, 70.9 0 M70.9 0 C86.63 -1.47, 91.53 7.82, 93.11 22.21 M70.9 0 C87.24 0.42, 91.24 8.63, 93.11 22.21 M93.11 22.21 C94.18 32.56, 94.83 39.02, 93.11 66.62 M93.11 22.21 C94.04 30.94, 92.85 41.52, 93.11 66.62 M93.11 66.62 C92.24 81.99, 84.09 88.59, 70.9 88.83 M93.11 66.62 C95.17 79.65, 84.88 86.8, 70.9 88.83 M70.9 88.83 C52.55 87.69, 34.1 89.53, 22.21 88.83 M70.9 88.83 C57.27 88.24, 41.9 89.19, 22.21 88.83 M22.21 88.83 C7.32 90.12, -1.88 82.22, 0 66.62 M22.21 88.83 C5.9 90.87, 1.41 80.6, 0 66.62 M0 66.62 C0.46 50.69, 0.96 32.53, 0 22.21 M0 66.62 C0.3 53.01, -0.55 38.22, 0 22.21 M0 22.21 C0.32 5.84, 6.47 -1.83, 22.21 0 M0 22.21 C0.82 7.51, 8.47 1.48, 22.21 0" fill="none" stroke="#1e1e1e" stroke-width="2"></path></g><g transform="translate(30.922760009765625 188.33541146485283) rotate(0 25.629974365234375 12.5)"><text direction="ltr" dominant-baseline="text-before-edge" fill="#1e1e1e" font-family="Virgil, Segoe UI Emoji" font-size="20px" style="white-space: pre;" text-anchor="middle" x="25.629974365234375" y="0">client</text></g><g stroke-linecap="round"><g transform="translate(112.28125 201.37472259154066) rotate(0 93.26171875 -1.0391868133439175)"><path d="M0.12 -0.27 C31.31 -0.62, 156.36 -1.41, 187.46 -1.84 M-1.28 -1.46 C29.81 -2.22, 155.79 -3.76, 187.01 -3.84" fill="none" stroke="#1e1e1e" stroke-width="2"></path></g><g transform="translate(112.28125 201.37472259154066) rotate(0 93.26171875 -1.0391868133439175)"><path d="M158.9 6.65 C167.63 4.75, 177.68 0.07, 187.01 -3.84 M158.9 6.65 C164.83 3.67, 171.3 2.03, 187.01 -3.84" fill="none" stroke="#1e1e1e" stroke-width="2"></path></g><g transform="translate(112.28125 201.37472259154066) rotate(0 93.26171875 -1.0391868133439175)"><path d="M158.73 -13.87 C167.56 -9.05, 177.66 -7.02, 187.01 -3.84 M158.73 -13.87 C164.52 -12.02, 171.03 -8.84, 187.01 -3.84" fill="none" stroke="#1e1e1e" stroke-width="2"></path></g></g><mask></mask><g transform="translate(133.51583375393386 145.52100743875866) rotate(0 73.05992889404297 12.5)"><text direction="ltr" dominant-baseline="text-before-edge" fill="#1e1e1e" font-family="Virgil, Segoe UI Emoji" font-size="20px" style="white-space: pre;" text-anchor="start" x="0" y="0">get/set/delete</text></g><g stroke-linecap="round" transform="translate(328.2630192657616 54.44344670989864) rotate(0 154.56587440280714 151.1505976892423)"><path d="M32 0 C90.46 -1.7, 145.1 -0.19, 277.13 0 M32 0 C107.83 1.44, 184.37 0.98, 277.13 0 M277.13 0 C296.83 0.35, 308.37 11.87, 309.13 32 M277.13 0 C298.88 1.77, 307.69 12.22, 309.13 32 M309.13 32 C308.89 120.85, 309.36 213.35, 309.13 270.3 M309.13 32 C308.06 106.28, 307.91 179.16, 309.13 270.3 M309.13 270.3 C307.61 293.25, 296.92 304.27, 277.13 302.3 M309.13 270.3 C311.35 290.79, 296.83 302.25, 277.13 302.3 M277.13 302.3 C209.38 303.97, 140.31 303.15, 32 302.3 M277.13 302.3 C212.34 300.93, 146.04 301.16, 32 302.3 M32 302.3 C10.3 300.63, 0.65 290.9, 0 270.3 M32 302.3 C10.37 302.7, 1.87 290.49, 0 270.3 M0 270.3 C-2.55 175.93, -2.37 83.65, 0 32 M0 270.3 C-0.58 203.7, -1.04 137.39, 0 32 M0 32 C-1.13 9.15, 9.91 1.1, 32 0 M0 32 C0.39 11.75, 8.86 1.22, 32 0" fill="none" stroke="#1e1e1e" stroke-width="2"></path></g><g transform="translate(453.9758195334788 10) rotate(0 28.53997802734375 12.5)"><text direction="ltr" dominant-baseline="text-before-edge" fill="#1e1e1e" font-family="Virgil, Segoe UI Emoji" font-size="20px" style="white-space: pre;" text-anchor="start" x="0" y="0">Cache</text></g><g stroke-linecap="round" transform="translate(373.5184775641035 97.94138890406015) rotate(0 108.66760096562274 107.27918615046525)"><path d="M0 0 C81.94 -0.73, 162.5 -0.51, 217.34 0 M0 0 C80.54 -0.64, 161.07 0.03, 217.34 0 M217.34 0 C217.24 81.76, 217.95 164.28, 217.34 214.56 M217.34 0 C218.86 67.52, 218.55 134.07, 217.34 214.56 M217.34 214.56 C137 215.72, 54.31 216.63, 0 214.56 M217.34 214.56 C131.63 212.49, 45.79 212.85, 0 214.56 M0 214.56 C-0.97 160.17, -1.63 107.72, 0 0 M0 214.56 C-1.49 152.9, -0.87 91.43, 0 0" fill="none" stroke="#1e1e1e" stroke-width="2"></path></g><g stroke-linecap="round"><g transform="translate(481.05517496312973 98.57658331717698) rotate(0 0 109.12682935888964)"><path d="M0 0 C-1.21 84.41, -0.86 168.62, 0 218.25 M0 0 C-0.78 74.54, -1.36 148.24, 0 218.25" fill="none" stroke="#1e1e1e" stroke-width="2"></path></g></g><mask></mask><g stroke-linecap="round"><g transform="translate(372.21375390472826 149.73548469793977) rotate(0 110.51095231990445 0)"><path d="M0 0 C85.22 2.55, 172.24 2.41, 221.02 0 M0 0 C80.85 0.83, 162.11 1.85, 221.02 0" fill="none" stroke="#1e1e1e" stroke-width="2"></path></g></g><mask></mask><g stroke-linecap="round"><g transform="translate(373.81032364580585 208.81880951292754) rotate(0 110.51095231990445 0)"><path d="M0 0 C76.78 0.46, 156.08 -2.03, 221.02 0 M0 0 C52.63 1, 104.8 1.28, 221.02 0" fill="none" stroke="#1e1e1e" stroke-width="2"></path></g></g><mask></mask><g stroke-linecap="round"><g transform="translate(371.8532381567429 266.33821695109975) rotate(0 110.51095231990445 0)"><path d="M0 0 C85.01 -1.23, 172.24 -0.62, 221.02 0 M0 0 C53.91 0.56, 107.83 0.45, 221.02 0" fill="none" stroke="#1e1e1e" stroke-width="2"></path></g></g><mask></mask><g transform="translate(441.4206819267026 66.72041824335511) rotate(0 40.47996520996094 12.5)"><text direction="ltr" dominant-baseline="text-before-edge" fill="#1e1e1e" font-family="Virgil, Segoe UI Emoji" font-size="20px" style="white-space: pre;" text-anchor="start" x="0" y="0">Hashmap</text></g><g transform="translate(404.8438552651071 112.86771976986051) rotate(0 18.999984741210938 12.5)"><text direction="ltr" dominant-baseline="text-before-edge" fill="#1e1e1e" font-family="Virgil, Segoe UI Emoji" font-size="20px" style="white-space: pre;" text-anchor="start" x="0" y="0">Key1</text></g><g transform="translate(505.0502860751084 114.46657809114754) rotate(0 28.389976501464844 12.5)"><text direction="ltr" dominant-baseline="text-before-edge" fill="#1e1e1e" font-family="Virgil, Segoe UI Emoji" font-size="20px" style="white-space: pre;" text-anchor="start" x="0" y="0">value1</text></g><g transform="translate(405.45557686956954 168.3392822986379) rotate(0 23.40998077392578 12.5)"><text direction="ltr" dominant-baseline="text-before-edge" fill="#1e1e1e" font-family="Virgil, Segoe UI Emoji" font-size="20px" style="white-space: pre;" text-anchor="start" x="0" y="0">Key2</text></g><g transform="translate(502.6067690156442 168.83448035038623) rotate(0 32.79997253417969 12.5)"><text direction="ltr" dominant-baseline="text-before-edge" fill="#1e1e1e" font-family="Virgil, Segoe UI Emoji" font-size="20px" style="white-space: pre;" text-anchor="start" x="0" y="0">value2</text></g><g transform="translate(406.8540524122757 224.2449758828717) rotate(0 23.09998321533203 12.5)"><text direction="ltr" dominant-baseline="text-before-edge" fill="#1e1e1e" font-family="Virgil, Segoe UI Emoji" font-size="20px" style="white-space: pre;" text-anchor="start" x="0" y="0">Key3</text></g><g transform="translate(409.50174611198827 278.59366079102205) rotate(0 22.689979553222656 12.5)"><text direction="ltr" dominant-baseline="text-before-edge" fill="#1e1e1e" font-family="Virgil, Segoe UI Emoji" font-size="20px" style="white-space: pre;" text-anchor="start" x="0" y="0">Key4</text></g><g transform="translate(504.492551445029 225.4244475679563) rotate(0 32.48997497558594 12.5)"><text direction="ltr" dominant-baseline="text-before-edge" fill="#1e1e1e" font-family="Virgil, Segoe UI Emoji" font-size="20px" style="white-space: pre;" text-anchor="start" x="0" y="0">value3</text></g><g transform="translate(507.2511947247226 277.65399870166044) rotate(0 32.07997131347656 25)"><text direction="ltr" dominant-baseline="text-before-edge" fill="#1e1e1e" font-family="Virgil, Segoe UI Emoji" font-size="20px" style="white-space: pre;" text-anchor="start" x="0" y="0">value4</text><text direction="ltr" dominant-baseline="text-before-edge" fill="#1e1e1e" font-family="Virgil, Segoe UI Emoji" font-size="20px" style="white-space: pre;" text-anchor="start" x="0" y="25"></text></g></svg>