<svg height="550.2177871203214" version="1.1" viewbox="0 0 1543.5986282181052 550.2177871203214" width="1543.5986282181052" xmlns="http://www.w3.org/2000/svg">
<!-- svg-source:excalidraw -->
<!-- payload-type:application/vnd.excalidraw+json --><!-- payload-version:2 -->
<defs>
<style class="style-fonts">
</style>
</defs>
<rect fill="#ffffff" height="550.2177871203214" width="1543.5986282181052" x="0" y="0"></rect><g stroke-linecap="round" transform="translate(10 246.3800823958412) rotate(0 46.552734375 44.4140625)"><path d="M22.21 0 C37.32 -0.86, 48.91 0.91, 70.9 0 M22.21 0 C35.84 -0.57, 47.65 -0.48, 70.9 0 M70.9 0 C86.17 0.73, 94.75 8.12, 93.11 22.21 M70.9 0 C87.75 -1.38, 94.93 7.68, 93.11 22.21 M93.11 22.21 C93.6 35.59, 92.57 46.97, 93.11 66.62 M93.11 22.21 C93.76 34.92, 93.3 44.9, 93.11 66.62 M93.11 66.62 C93.3 81.07, 86 89.83, 70.9 88.83 M93.11 66.62 C92.88 82.36, 84.8 90.62, 70.9 88.83 M70.9 88.83 C56.3 89.4, 44.66 88.88, 22.21 88.83 M70.9 88.83 C56.82 88.5, 41.91 88.72, 22.21 88.83 M22.21 88.83 C6.54 90.65, -1.94 82.4, 0 66.62 M22.21 88.83 C5.85 90.47, -2.25 80.37, 0 66.62 M0 66.62 C-0.74 58.3, -0.87 48.48, 0 22.21 M0 66.62 C0.71 53.04, -0.54 41.13, 0 22.21 M0 22.21 C-0.27 7.45, 7.77 1.18, 22.21 0 M0 22.21 C2.02 8.56, 7.89 -1.1, 22.21 0" fill="none" stroke="#1e1e1e" stroke-width="2"></path></g><g transform="translate(34.3408203125 278.2941448958412) rotate(0 22.2119140625 12.5)"><text direction="ltr" dominant-baseline="text-before-edge" fill="#1e1e1e" font-family="Virgil, Segoe UI Emoji" font-size="20px" style="white-space: pre;" text-anchor="middle" x="22.2119140625" y="0">client</text></g><g stroke-linecap="round"><g transform="translate(112.28894261170413 290.9329319092255) rotate(0 90.42763203146684 -0.8467181547656253)"><path d="M0.48 -0.36 C30.54 -0.5, 149.63 -1.56, 179.8 -1.92 M-0.73 -1.6 C29.74 -1.45, 151.66 -0.5, 181.95 -0.49" fill="none" stroke="#1e1e1e" stroke-width="2"></path></g><g transform="translate(112.28894261170413 290.9329319092255) rotate(0 90.42763203146684 -0.8467181547656253)"><path d="M153.71 9.64 C160.29 5.22, 167.62 5.45, 181.95 -0.49 M153.71 9.64 C160.63 7.8, 167.81 5.42, 181.95 -0.49" fill="none" stroke="#1e1e1e" stroke-width="2"></path></g><g transform="translate(112.28894261170413 290.9329319092255) rotate(0 90.42763203146684 -0.8467181547656253)"><path d="M153.81 -10.88 C160.17 -10.15, 167.47 -4.77, 181.95 -0.49 M153.81 -10.88 C160.53 -7.93, 167.69 -5.51, 181.95 -0.49" fill="none" stroke="#1e1e1e" stroke-width="2"></path></g></g><mask></mask><g transform="translate(127.66944885882299 239.53374723780416) rotate(0 73.05992889404297 12.5)"><text direction="ltr" dominant-baseline="text-before-edge" fill="#1e1e1e" font-family="Virgil, Segoe UI Emoji" font-size="20px" style="white-space: pre;" text-anchor="start" x="0" y="0">get/set/delete</text></g><g stroke-linecap="round" transform="translate(309.81741778819645 46.46048511279963) rotate(0 611.8906052149543 246.87865100376092)"><path d="M32 0 C277.01 -3, 522.62 -2.16, 1191.78 0 M32 0 C422.8 -1.9, 813.2 -1.61, 1191.78 0 M1191.78 0 C1213.04 -0.75, 1224.89 11.33, 1223.78 32 M1191.78 0 C1213.37 -0.43, 1221.99 9.89, 1223.78 32 M1223.78 32 C1223.16 168.02, 1221.25 303.9, 1223.78 461.76 M1223.78 32 C1224.07 153.55, 1223.91 275.08, 1223.78 461.76 M1223.78 461.76 C1223.4 482.34, 1213.12 492.83, 1191.78 493.76 M1223.78 461.76 C1224.44 484.36, 1213.17 493.76, 1191.78 493.76 M1191.78 493.76 C902.93 496.44, 614.27 495.9, 32 493.76 M1191.78 493.76 C738.21 496.3, 284.8 495.84, 32 493.76 M32 493.76 C9.04 495.68, -1.88 482.77, 0 461.76 M32 493.76 C12.27 493.24, 1.48 482.93, 0 461.76 M0 461.76 C-2.53 307.75, -1.39 154.19, 0 32 M0 461.76 C0.04 332.15, -0.3 201.77, 0 32 M0 32 C0.39 10.1, 9.08 -1.34, 32 0 M0 32 C-0.72 9.75, 12.4 1.42, 32 0" fill="none" stroke="#1e1e1e" stroke-width="2"></path></g><g transform="translate(673.6227669499635 10) rotate(0 28.53997802734372 12.5)"><text direction="ltr" dominant-baseline="text-before-edge" fill="#1e1e1e" font-family="Virgil, Segoe UI Emoji" font-size="20px" style="white-space: pre;" text-anchor="start" x="0" y="0">Cache</text></g><g transform="translate(424.0770467378731 62.69282038259783) rotate(0 40.47996520996094 12.5)"><text direction="ltr" dominant-baseline="text-before-edge" fill="#1e1e1e" font-family="Virgil, Segoe UI Emoji" font-size="20px" style="white-space: pre;" text-anchor="start" x="0" y="0">Hashmap</text></g><g stroke-linecap="round" transform="translate(347.08474558285513 100.65258075673631) rotate(0 147.6617284307858 209.2196126463192)"><path d="M0 0 C91.26 3.06, 184.93 1.53, 295.32 0 M0 0 C99.75 1.43, 200.3 1.26, 295.32 0 M295.32 0 C295.59 159.44, 295.87 317.92, 295.32 418.44 M295.32 0 C296.04 149.54, 295.98 299.49, 295.32 418.44 M295.32 418.44 C222.95 419.82, 151.72 419.2, 0 418.44 M295.32 418.44 C223.34 419.35, 151.62 419.15, 0 418.44 M0 418.44 C0.82 260.26, 0.82 101.84, 0 0 M0 418.44 C-1.66 256.42, -1.38 92.98, 0 0" fill="none" stroke="#1e1e1e" stroke-width="2"></path></g><g stroke-linecap="round" transform="translate(482.84445345106815 140.0721289003808) rotate(0 73.04020305775248 25)"><path d="M12.5 0 C62.33 -1.25, 108.44 0.82, 133.58 0 M12.5 0 C48.8 -0.65, 86.14 -1.82, 133.58 0 M133.58 0 C141.82 -1.83, 146.11 5.24, 146.08 12.5 M133.58 0 C142.59 -1.04, 147.56 2.32, 146.08 12.5 M146.08 12.5 C144.58 21.61, 146.49 28.36, 146.08 37.5 M146.08 12.5 C145.75 17.9, 146.25 24.62, 146.08 37.5 M146.08 37.5 C147.04 45.17, 140.44 51.84, 133.58 50 M146.08 37.5 C147.93 45.3, 141.31 51.75, 133.58 50 M133.58 50 C87.94 51.64, 38.01 51.6, 12.5 50 M133.58 50 C96.22 50.72, 57.8 50.95, 12.5 50 M12.5 50 C2.44 49.49, 1.05 47.34, 0 37.5 M12.5 50 C2.27 48.89, -0.94 46.86, 0 37.5 M0 37.5 C0.42 28.24, -1.23 19.3, 0 12.5 M0 37.5 C-0.86 30.8, 0.7 22.77, 0 12.5 M0 12.5 C-1.65 4.39, 3.81 -1.16, 12.5 0 M0 12.5 C-1.76 4.68, 3.9 0.46, 12.5 0" fill="none" stroke="#1e1e1e" stroke-width="2"></path></g><g transform="translate(500.4766898950511 145.0721289003808) rotate(0 55.40796661376953 20)"><text direction="ltr" dominant-baseline="text-before-edge" fill="#1e1e1e" font-family="Virgil, Segoe UI Emoji" font-size="16px" style="white-space: pre;" text-anchor="middle" x="55.40796661376953" y="0">value1 &amp; </text><text direction="ltr" dominant-baseline="text-before-edge" fill="#1e1e1e" font-family="Virgil, Segoe UI Emoji" font-size="16px" style="white-space: pre;" text-anchor="middle" x="55.40796661376953" y="20">expirationTime</text></g><g transform="translate(528.909421025661 113.51229691222017) rotate(0 20.67998504638672 10)"><text direction="ltr" dominant-baseline="text-before-edge" fill="#1e1e1e" font-family="Virgil, Segoe UI Emoji" font-size="16px" style="white-space: pre;" text-anchor="start" x="0" y="0">Node1</text></g><g stroke-linecap="round"><g transform="translate(347.1009029934211 207.91800570004494) rotate(0 147.3455542125635 0)"><path d="M-0.02 -0.14 C49.31 0.06, 246.57 0.9, 295.65 1.1 M-1.49 -1.26 C47.79 -1.36, 246.03 -0.54, 295.2 -0.45" fill="none" stroke="#1e1e1e" stroke-width="2"></path></g></g><mask></mask><g stroke-linecap="round"><g transform="translate(460.2650051805373 104.04823520451401) rotate(0 0 205.7349886050157)"><path d="M-0.95 -0.46 C-0.99 68.16, 0.2 342.25, 0.54 411.08 M0.76 -1.74 C0.53 67.1, -0.14 343.66, -0.13 412.41" fill="none" stroke="#1e1e1e" stroke-width="2"></path></g></g><mask></mask><g transform="translate(383.54432260202975 145.05455795542758) rotate(0 14.191993713378906 10)"><text direction="ltr" dominant-baseline="text-before-edge" fill="#1e1e1e" font-family="Virgil, Segoe UI Emoji" font-size="16px" style="white-space: pre;" text-anchor="start" x="0" y="0">key1</text></g><g stroke-linecap="round" transform="translate(487.253370455613 245.86946922404212) rotate(0 73.04020305775248 25)"><path d="M12.5 0 C57.91 -0.41, 102.8 1.18, 133.58 0 M12.5 0 C48.76 0.5, 86.61 1.85, 133.58 0 M133.58 0 C141.37 1.03, 147.87 3.08, 146.08 12.5 M133.58 0 C143.48 0.45, 143.83 6.45, 146.08 12.5 M146.08 12.5 C147.64 19.71, 144.4 28.92, 146.08 37.5 M146.08 12.5 C145.38 22.66, 145.43 30.96, 146.08 37.5 M146.08 37.5 C147.07 44.35, 143.16 49.27, 133.58 50 M146.08 37.5 C144.4 46.41, 141.11 50.72, 133.58 50 M133.58 50 C88.25 48.36, 45.07 49.51, 12.5 50 M133.58 50 C97.17 49.61, 60.59 48.88, 12.5 50 M12.5 50 C2.74 51.11, 1.41 44.1, 0 37.5 M12.5 50 C4.2 52.29, 1.81 47.48, 0 37.5 M0 37.5 C0.34 28.17, -1.47 19.53, 0 12.5 M0 37.5 C-0.23 31.71, -0.22 26.76, 0 12.5 M0 12.5 C1.67 3.12, 2.48 -1.8, 12.5 0 M0 12.5 C-1.77 2.15, 2.1 2.1, 12.5 0" fill="none" stroke="#1e1e1e" stroke-width="2"></path></g><g transform="translate(504.8856068995959 250.86946922404212) rotate(0 55.40796661376953 20)"><text direction="ltr" dominant-baseline="text-before-edge" fill="#1e1e1e" font-family="Virgil, Segoe UI Emoji" font-size="16px" style="white-space: pre;" text-anchor="middle" x="55.40796661376953" y="0">valu2 &amp; </text><text direction="ltr" dominant-baseline="text-before-edge" fill="#1e1e1e" font-family="Virgil, Segoe UI Emoji" font-size="16px" style="white-space: pre;" text-anchor="middle" x="55.40796661376953" y="20">expirationTime</text></g><g transform="translate(533.2119247662406 219.5525503347676) rotate(0 24.207984924316406 10)"><text direction="ltr" dominant-baseline="text-before-edge" fill="#1e1e1e" font-family="Virgil, Segoe UI Emoji" font-size="16px" style="white-space: pre;" text-anchor="start" x="0" y="0">Node2</text></g><g stroke-linecap="round"><g transform="translate(351.40340673400067 314.1667168166974) rotate(0 147.3455542125635 0)"><path d="M0.49 -1.11 C49.41 -1.24, 245.03 -1.07, 294.23 -0.74 M-0.7 0.92 C47.95 0.93, 243.69 0.73, 293.04 0.41" fill="none" stroke="#1e1e1e" stroke-width="2"></path></g></g><mask></mask><g transform="translate(387.84682634260935 251.30326907208) rotate(0 17.719993591308594 10)"><text direction="ltr" dominant-baseline="text-before-edge" fill="#1e1e1e" font-family="Virgil, Segoe UI Emoji" font-size="16px" style="white-space: pre;" text-anchor="start" x="0" y="0">key2</text></g><g stroke-linecap="round" transform="translate(485.0094616918853 355.4250713453105) rotate(0 73.04020305775248 25)"><path d="M12.5 0 C54.21 -1.28, 93.7 -1.67, 133.58 0 M12.5 0 C55.73 0.15, 98.87 -0.96, 133.58 0 M133.58 0 C143.55 -0.42, 146.38 2.89, 146.08 12.5 M133.58 0 C140.44 0.11, 147.47 4.75, 146.08 12.5 M146.08 12.5 C146.3 19.48, 147.71 24.03, 146.08 37.5 M146.08 12.5 C145.72 18.82, 145.78 24.89, 146.08 37.5 M146.08 37.5 C144.4 45.83, 140.9 49.28, 133.58 50 M146.08 37.5 C145.45 46.22, 141.06 50.23, 133.58 50 M133.58 50 C87.6 49.25, 42.36 51.45, 12.5 50 M133.58 50 C94.34 50.23, 57.13 50.77, 12.5 50 M12.5 50 C2.21 50.18, -0.28 45.59, 0 37.5 M12.5 50 C6.13 51.52, -1.15 46.93, 0 37.5 M0 37.5 C-0.43 28.76, 1.77 19.41, 0 12.5 M0 37.5 C0.19 29.81, -0.7 19.99, 0 12.5 M0 12.5 C-0.18 2.57, 3.39 -1.58, 12.5 0 M0 12.5 C0.04 2.12, 2.83 2.02, 12.5 0" fill="none" stroke="#1e1e1e" stroke-width="2"></path></g><g transform="translate(502.64169813586824 360.4250713453105) rotate(0 55.40796661376953 20)"><text direction="ltr" dominant-baseline="text-before-edge" fill="#1e1e1e" font-family="Virgil, Segoe UI Emoji" font-size="16px" style="white-space: pre;" text-anchor="middle" x="55.40796661376953" y="0">valu3 &amp; </text><text direction="ltr" dominant-baseline="text-before-edge" fill="#1e1e1e" font-family="Virgil, Segoe UI Emoji" font-size="16px" style="white-space: pre;" text-anchor="middle" x="55.40796661376953" y="20">expirationTime</text></g><g transform="translate(531.0744292664781 329.0017391920707) rotate(0 23.959983825683594 10)"><text direction="ltr" dominant-baseline="text-before-edge" fill="#1e1e1e" font-family="Virgil, Segoe UI Emoji" font-size="16px" style="white-space: pre;" text-anchor="start" x="0" y="0">Node3</text></g><g stroke-linecap="round"><g transform="translate(349.2659112342383 423.4253157822473) rotate(0 147.3455542125635 0)"><path d="M1.08 -0.02 C50.4 -0.1, 246.15 0.35, 295.25 0.15 M0.19 -1.08 C49.46 -1, 245.38 1.67, 294.6 1.77" fill="none" stroke="#1e1e1e" stroke-width="2"></path></g></g><mask></mask><g transform="translate(385.70933084284695 360.56186803762995) rotate(0 17.47199249267578 10)"><text direction="ltr" dominant-baseline="text-before-edge" fill="#1e1e1e" font-family="Virgil, Segoe UI Emoji" font-size="16px" style="white-space: pre;" text-anchor="start" x="0" y="0">key3</text></g><g stroke-linecap="round" transform="translate(482.2073712862381 458.7068795103177) rotate(0 73.04020305775248 25)"><path d="M12.5 0 C36.73 0.59, 64.5 -0.92, 133.58 0 M12.5 0 C56.35 0.81, 100.7 0.88, 133.58 0 M133.58 0 C143.05 0.62, 146.46 3.27, 146.08 12.5 M133.58 0 C142.42 -0.02, 146.8 4.06, 146.08 12.5 M146.08 12.5 C146.86 18.33, 147.55 25.66, 146.08 37.5 M146.08 12.5 C146.52 17.74, 146.77 22.62, 146.08 37.5 M146.08 37.5 C146.42 46.24, 140.54 48.26, 133.58 50 M146.08 37.5 C147.15 45.14, 143.29 49.91, 133.58 50 M133.58 50 C94.58 51.31, 58.43 52.85, 12.5 50 M133.58 50 C98 50.72, 64.95 49.51, 12.5 50 M12.5 50 C5.36 50.86, 1.72 44.76, 0 37.5 M12.5 50 C4.5 52.02, 0.27 44.72, 0 37.5 M0 37.5 C0.73 33.76, -1.63 28.2, 0 12.5 M0 37.5 C-1.1 31.11, 0.69 25.67, 0 12.5 M0 12.5 C0.46 3.16, 5.98 -1.41, 12.5 0 M0 12.5 C-1.23 3.04, 5.77 -0.26, 12.5 0" fill="none" stroke="#1e1e1e" stroke-width="2"></path></g><g transform="translate(499.839607730221 463.7068795103177) rotate(0 55.40796661376953 20)"><text direction="ltr" dominant-baseline="text-before-edge" fill="#1e1e1e" font-family="Virgil, Segoe UI Emoji" font-size="16px" style="white-space: pre;" text-anchor="middle" x="55.40796661376953" y="0">valu4 &amp; </text><text direction="ltr" dominant-baseline="text-before-edge" fill="#1e1e1e" font-family="Virgil, Segoe UI Emoji" font-size="16px" style="white-space: pre;" text-anchor="middle" x="55.40796661376953" y="20">expirationTime</text></g><g transform="translate(528.462928752584 432.283547357078) rotate(0 23.631980895996094 10)"><text direction="ltr" dominant-baseline="text-before-edge" fill="#1e1e1e" font-family="Virgil, Segoe UI Emoji" font-size="16px" style="white-space: pre;" text-anchor="start" x="0" y="0">Node4</text></g><g transform="translate(383.0978303289529 464.0342660943904) rotate(0 17.14398956298828 10)"><text direction="ltr" dominant-baseline="text-before-edge" fill="#1e1e1e" font-family="Virgil, Segoe UI Emoji" font-size="16px" style="white-space: pre;" text-anchor="start" x="0" y="0">key4</text></g><g transform="translate(1014.373747611512 61.38706407910385) rotate(0 53.13995361328125 12.5)"><text direction="ltr" dominant-baseline="text-before-edge" fill="#1e1e1e" font-family="Virgil, Segoe UI Emoji" font-size="20px" style="white-space: pre;" text-anchor="start" x="0" y="0">Linked List</text></g><g stroke-linecap="round" transform="translate(672.7049250725559 141.20979666178624) rotate(0 73.04020305775245 25)"><path d="M12.5 0 C39.4 1.73, 68.96 1.82, 133.58 0 M12.5 0 C53.44 -0.94, 94.09 -0.22, 133.58 0 M133.58 0 C142.96 -1.39, 146.07 4.69, 146.08 12.5 M133.58 0 C143.85 -0.46, 145.75 4.67, 146.08 12.5 M146.08 12.5 C145.11 24.15, 144.98 33.84, 146.08 37.5 M146.08 12.5 C146.64 21.35, 146.31 30.79, 146.08 37.5 M146.08 37.5 C146.21 47.33, 140.36 50.29, 133.58 50 M146.08 37.5 C148.06 46.57, 143.31 49.94, 133.58 50 M133.58 50 C91.6 47.82, 50.36 50.52, 12.5 50 M133.58 50 C108.95 48.54, 82.59 49.62, 12.5 50 M12.5 50 C3.13 50.22, -0.39 44.25, 0 37.5 M12.5 50 C5.01 49.33, 1.65 43.81, 0 37.5 M0 37.5 C0.67 33.36, -2.07 25.31, 0 12.5 M0 37.5 C-0.57 28.73, 0.46 20.13, 0 12.5 M0 12.5 C-1.08 3.58, 5.72 -0.43, 12.5 0 M0 12.5 C-0.54 3.69, 4.21 -1.29, 12.5 0" fill="none" stroke="#1e1e1e" stroke-width="2"></path></g><g transform="translate(690.3371615165388 146.20979666178624) rotate(0 55.4079666137695 20)"><text direction="ltr" dominant-baseline="text-before-edge" fill="#1e1e1e" font-family="Virgil, Segoe UI Emoji" font-size="16px" style="white-space: pre;" text-anchor="middle" x="55.40796661376953" y="0">value1 &amp; </text><text direction="ltr" dominant-baseline="text-before-edge" fill="#1e1e1e" font-family="Virgil, Segoe UI Emoji" font-size="16px" style="white-space: pre;" text-anchor="middle" x="55.40796661376953" y="20">expirationTime</text></g><g transform="translate(718.7698926471487 114.64996467362568) rotate(0 20.67998504638672 10)"><text direction="ltr" dominant-baseline="text-before-edge" fill="#1e1e1e" font-family="Virgil, Segoe UI Emoji" font-size="16px" style="white-space: pre;" text-anchor="start" x="0" y="0">Node1</text></g><g stroke-linecap="round" transform="translate(876.1894141896566 139.25986833833622) rotate(0 73.04020305775248 25)"><path d="M12.5 0 C39.93 -1.55, 72.55 -0.97, 133.58 0 M12.5 0 C61.29 0.98, 109.44 0.26, 133.58 0 M133.58 0 C140.99 0.53, 145.8 3.9, 146.08 12.5 M133.58 0 C140.24 -0.72, 146.98 4.98, 146.08 12.5 M146.08 12.5 C146.04 23.42, 145.62 32, 146.08 37.5 M146.08 12.5 C145.67 22.22, 145.13 31.91, 146.08 37.5 M146.08 37.5 C148 46.45, 142.51 49.33, 133.58 50 M146.08 37.5 C144.51 46.87, 142.94 51.18, 133.58 50 M133.58 50 C108.77 50.8, 82.29 48.4, 12.5 50 M133.58 50 C87.26 50.03, 39.17 50.03, 12.5 50 M12.5 50 C4.86 48.12, 1.27 44.87, 0 37.5 M12.5 50 C4.4 48.63, 0.85 47.83, 0 37.5 M0 37.5 C0.13 33.14, -0.92 27.85, 0 12.5 M0 37.5 C-0.07 28.42, -0.52 18.59, 0 12.5 M0 12.5 C0.4 5.52, 3.28 -1.39, 12.5 0 M0 12.5 C2.16 2.26, 3.23 1.88, 12.5 0" fill="none" stroke="#1e1e1e" stroke-width="2"></path></g><g transform="translate(893.8216506336396 144.25986833833622) rotate(0 55.40796661376953 20)"><text direction="ltr" dominant-baseline="text-before-edge" fill="#1e1e1e" font-family="Virgil, Segoe UI Emoji" font-size="16px" style="white-space: pre;" text-anchor="middle" x="55.40796661376953" y="0">valu2 &amp; </text><text direction="ltr" dominant-baseline="text-before-edge" fill="#1e1e1e" font-family="Virgil, Segoe UI Emoji" font-size="16px" style="white-space: pre;" text-anchor="middle" x="55.40796661376953" y="20">expirationTime</text></g><g transform="translate(922.1479685002844 112.94294944906176) rotate(0 24.207984924316406 10)"><text direction="ltr" dominant-baseline="text-before-edge" fill="#1e1e1e" font-family="Virgil, Segoe UI Emoji" font-size="16px" style="white-space: pre;" text-anchor="start" x="0" y="0">Node2</text></g><g stroke-linecap="round" transform="translate(1069.3403576132653 138.64005441506544) rotate(0 73.04020305775248 25)"><path d="M12.5 0 C49.1 0.59, 84.46 -1.34, 133.58 0 M12.5 0 C43.62 0.21, 75.16 -0.57, 133.58 0 M133.58 0 C140.3 0.05, 147.26 2.23, 146.08 12.5 M133.58 0 C142.11 -1.12, 145.43 4.23, 146.08 12.5 M146.08 12.5 C144.96 19.13, 146.29 21.12, 146.08 37.5 M146.08 12.5 C146.64 22.1, 145.39 32.16, 146.08 37.5 M146.08 37.5 C144.73 44.26, 143.16 51.93, 133.58 50 M146.08 37.5 C148.01 48.06, 143.63 47.84, 133.58 50 M133.58 50 C86.53 50.55, 38.52 49.89, 12.5 50 M133.58 50 C95.04 48.78, 58.44 48.07, 12.5 50 M12.5 50 C4.19 50.37, -1.72 47.11, 0 37.5 M12.5 50 C2.36 49.06, -1.97 44.08, 0 37.5 M0 37.5 C-1.33 27.46, 1.15 16.21, 0 12.5 M0 37.5 C-0.92 28.2, -0.03 17.72, 0 12.5 M0 12.5 C1.67 3.27, 2.84 -0.11, 12.5 0 M0 12.5 C1.1 3.18, 3.54 -2.07, 12.5 0" fill="none" stroke="#1e1e1e" stroke-width="2"></path></g><g transform="translate(1086.9725940572482 143.64005441506544) rotate(0 55.40796661376953 20)"><text direction="ltr" dominant-baseline="text-before-edge" fill="#1e1e1e" font-family="Virgil, Segoe UI Emoji" font-size="16px" style="white-space: pre;" text-anchor="middle" x="55.40796661376953" y="0">valu3 &amp; </text><text direction="ltr" dominant-baseline="text-before-edge" fill="#1e1e1e" font-family="Virgil, Segoe UI Emoji" font-size="16px" style="white-space: pre;" text-anchor="middle" x="55.40796661376953" y="20">expirationTime</text></g><g transform="translate(1115.4053251878581 112.21672226182574) rotate(0 23.959983825683594 10)"><text direction="ltr" dominant-baseline="text-before-edge" fill="#1e1e1e" font-family="Virgil, Segoe UI Emoji" font-size="16px" style="white-space: pre;" text-anchor="start" x="0" y="0">Node3</text></g><g stroke-linecap="round" transform="translate(1265.2012510602392 138.32438990684926) rotate(0 73.04020305775248 25)"><path d="M12.5 0 C54.47 2.95, 93.52 1.62, 133.58 0 M12.5 0 C48.73 -0.13, 83.95 -0.86, 133.58 0 M133.58 0 C141.85 -1.03, 148 4.28, 146.08 12.5 M133.58 0 C141.01 -0.67, 147.45 5.39, 146.08 12.5 M146.08 12.5 C144.22 19.11, 147.84 21.75, 146.08 37.5 M146.08 12.5 C146.14 20.66, 146.16 29.33, 146.08 37.5 M146.08 37.5 C146.54 47.8, 142.3 49.72, 133.58 50 M146.08 37.5 C146.27 47.54, 141.69 48.03, 133.58 50 M133.58 50 C91.07 47.35, 49.65 50.24, 12.5 50 M133.58 50 C96.37 50.51, 59.1 49.13, 12.5 50 M12.5 50 C4.87 51.28, 0.89 47.25, 0 37.5 M12.5 50 C3.15 51.07, -2.11 46.45, 0 37.5 M0 37.5 C-0.69 27.84, 2.08 18.45, 0 12.5 M0 37.5 C-0.52 28.59, -0.62 19.48, 0 12.5 M0 12.5 C-1.73 5.05, 3.34 -1.24, 12.5 0 M0 12.5 C2.28 6.31, 2.37 1.6, 12.5 0" fill="none" stroke="#1e1e1e" stroke-width="2"></path></g><g transform="translate(1282.8334875042221 143.32438990684926) rotate(0 55.40796661376953 20)"><text direction="ltr" dominant-baseline="text-before-edge" fill="#1e1e1e" font-family="Virgil, Segoe UI Emoji" font-size="16px" style="white-space: pre;" text-anchor="middle" x="55.40796661376953" y="0">valu4 &amp; </text><text direction="ltr" dominant-baseline="text-before-edge" fill="#1e1e1e" font-family="Virgil, Segoe UI Emoji" font-size="16px" style="white-space: pre;" text-anchor="middle" x="55.40796661376953" y="20">expirationTime</text></g><g transform="translate(1311.456808526585 111.90105775360956) rotate(0 23.631980895996094 10)"><text direction="ltr" dominant-baseline="text-before-edge" fill="#1e1e1e" font-family="Virgil, Segoe UI Emoji" font-size="16px" style="white-space: pre;" text-anchor="start" x="0" y="0">Node4</text></g><g stroke-linecap="round"><g transform="translate(822.5134628806102 163.19336244251684) rotate(0 24.56772687721451 -0.18116461980733334)"><path d="M0.24 -0.03 C8.49 -0.12, 41.3 0.09, 49.43 -0.03 M-0.3 -0.52 C7.91 -0.53, 41 -0.86, 49.15 -0.83" fill="none" stroke="#1e1e1e" stroke-width="1"></path></g><g transform="translate(822.5134628806102 163.19336244251684) rotate(0 24.56772687721451 -0.18116461980733334)"><path d="M0.37 0.04 L13.2 -6.06 L13.73 6.96 L-0.34 -0.31" fill="#1e1e1e" fill-rule="evenodd" stroke="none" stroke-width="0"></path><path d="M0.24 -0.03 C4.14 -1.5, 8.58 -3.94, 13.84 -6.35 M0.24 -0.03 C3.63 -1.46, 6.7 -3.12, 13.84 -6.35 M13.84 -6.35 C13.64 -2.31, 13.58 0.71, 13.83 6.32 M13.84 -6.35 C13.88 -3.78, 13.6 -1.34, 13.83 6.32 M13.83 6.32 C8.97 4.18, 3.82 1.95, 0.24 -0.03 M13.83 6.32 C8.87 3.68, 3.87 1.56, 0.24 -0.03 M0.24 -0.03 C0.24 -0.03, 0.24 -0.03, 0.24 -0.03 M0.24 -0.03 C0.24 -0.03, 0.24 -0.03, 0.24 -0.03" fill="none" stroke="#1e1e1e" stroke-width="1"></path></g><g transform="translate(822.5134628806102 163.19336244251684) rotate(0 24.56772687721451 -0.18116461980733334)"><path d="M49.28 -0.76 L34.93 5.86 L35.43 -6.48 L48.57 -1.11" fill="#1e1e1e" fill-rule="evenodd" stroke="none" stroke-width="0"></path><path d="M49.15 -0.83 C45.19 1.47, 41.73 2.73, 35.58 5.57 M49.15 -0.83 C46.28 0.55, 43.07 1.84, 35.58 5.57 M35.58 5.57 C35.26 2.31, 35.19 -1.96, 35.53 -7.11 M35.58 5.57 C35.62 2.87, 35.33 0.05, 35.53 -7.11 M35.53 -7.11 C40.63 -4.62, 45.48 -2.22, 49.15 -0.83 M35.53 -7.11 C40.29 -5.11, 45.09 -2.69, 49.15 -0.83 M49.15 -0.83 C49.15 -0.83, 49.15 -0.83, 49.15 -0.83 M49.15 -0.83 C49.15 -0.83, 49.15 -0.83, 49.15 -0.83" fill="none" stroke="#1e1e1e" stroke-width="1"></path></g></g><mask></mask><g stroke-linecap="round"><g transform="translate(1024.0566050987632 161.75936545684857) rotate(0 24.56772687721451 -0.18116461980733334)"><path d="M0.24 0.22 C8.49 0.26, 41.16 0.15, 49.33 0.01 M-0.3 -0.14 C7.92 -0.24, 40.79 -0.77, 49.01 -0.76" fill="none" stroke="#1e1e1e" stroke-width="1"></path></g><g transform="translate(1024.0566050987632 161.75936545684857) rotate(0 24.56772687721451 -0.18116461980733334)"><path d="M0.87 0.49 L13.31 -5.86 L14.62 7.02 L1.23 0.8" fill="#1e1e1e" fill-rule="evenodd" stroke="none" stroke-width="0"></path><path d="M0.24 0.22 C4.16 -1.23, 7.96 -3.01, 13.82 -6.15 M0.24 0.22 C3.74 -1.18, 7.67 -2.8, 13.82 -6.15 M13.82 -6.15 C14.12 -1.62, 13.3 3.38, 13.85 6.52 M13.82 -6.15 C13.63 -3.3, 13.86 -0.37, 13.85 6.52 M13.85 6.52 C8.2 4.12, 4.62 2.22, 0.24 0.22 M13.85 6.52 C8.71 4.26, 3.05 1.91, 0.24 0.22 M0.24 0.22 C0.24 0.22, 0.24 0.22, 0.24 0.22 M0.24 0.22 C0.24 0.22, 0.24 0.22, 0.24 0.22" fill="none" stroke="#1e1e1e" stroke-width="1"></path></g><g transform="translate(1024.0566050987632 161.75936545684857) rotate(0 24.56772687721451 -0.18116461980733334)"><path d="M49.64 -0.49 L34.96 5.99 L36.12 -6.49 L50 -0.19" fill="#1e1e1e" fill-rule="evenodd" stroke="none" stroke-width="0"></path><path d="M49.01 -0.76 C45.71 1.25, 42.32 2.88, 35.47 5.7 M49.01 -0.76 C45.41 1.3, 42.29 3.01, 35.47 5.7 M35.47 5.7 C35.72 0.27, 34.85 -4.68, 35.36 -6.98 M35.47 5.7 C35.25 2.9, 35.45 0.17, 35.36 -6.98 M35.36 -6.98 C39.52 -4.88, 45.76 -2.27, 49.01 -0.76 M35.36 -6.98 C40.97 -4.42, 46.03 -1.83, 49.01 -0.76 M49.01 -0.76 C49.01 -0.76, 49.01 -0.76, 49.01 -0.76 M49.01 -0.76 C49.01 -0.76, 49.01 -0.76, 49.01 -0.76" fill="none" stroke="#1e1e1e" stroke-width="1"></path></g></g><mask></mask><g stroke-linecap="round"><g transform="translate(1217.2636975570492 163.43756726987505) rotate(0 24.56772687721451 -0.18116461980733334)"><path d="M-0.05 -0.29 C8.13 -0.35, 40.94 -0.21, 49.08 -0.31 M-0.74 0.75 C7.36 0.78, 40.18 0.64, 48.62 0.42" fill="none" stroke="#1e1e1e" stroke-width="1"></path></g><g transform="translate(1217.2636975570492 163.43756726987505) rotate(0 24.56772687721451 -0.18116461980733334)"><path d="M-0.6 -0.4 L13.82 -6.91 L13.87 6.76 L0.39 0.43" fill="#1e1e1e" fill-rule="evenodd" stroke="none" stroke-width="0"></path><path d="M-0.05 -0.29 C3.6 -2.25, 8.13 -4.57, 13.54 -6.62 M-0.05 -0.29 C2.47 -1.91, 5.2 -2.81, 13.54 -6.62 M13.54 -6.62 C14.08 -3.38, 13.81 0.1, 13.54 6.06 M13.54 -6.62 C13.25 -1.65, 13.49 2.86, 13.54 6.06 M13.54 6.06 C10.62 3.98, 7.48 3.38, -0.05 -0.29 M13.54 6.06 C9.74 4.3, 5.96 2.85, -0.05 -0.29 M-0.05 -0.29 C-0.05 -0.29, -0.05 -0.29, -0.05 -0.29 M-0.05 -0.29 C-0.05 -0.29, -0.05 -0.29, -0.05 -0.29" fill="none" stroke="#1e1e1e" stroke-width="1"></path></g><g transform="translate(1217.2636975570492 163.43756726987505) rotate(0 24.56772687721451 -0.18116461980733334)"><path d="M48.07 0.31 L35.39 6.65 L35.27 -5.04 L49.06 1.14" fill="#1e1e1e" fill-rule="evenodd" stroke="none" stroke-width="0"></path><path d="M48.62 0.42 C44.19 2.28, 40.63 3.79, 35.11 6.94 M48.62 0.42 C45.69 1.45, 42.94 3.15, 35.11 6.94 M35.11 6.94 C35.62 3.75, 35.32 0.81, 34.94 -5.74 M35.11 6.94 C34.81 2.27, 34.98 -2.85, 34.94 -5.74 M34.94 -5.74 C37.61 -5.1, 40.09 -3.13, 48.62 0.42 M34.94 -5.74 C38.9 -4.06, 42.9 -1.94, 48.62 0.42 M48.62 0.42 C48.62 0.42, 48.62 0.42, 48.62 0.42 M48.62 0.42 C48.62 0.42, 48.62 0.42, 48.62 0.42" fill="none" stroke="#1e1e1e" stroke-width="1"></path></g></g><mask></mask><g transform="translate(1403.247773880733 221.70269625749887) rotate(0 40.215980529785156 20)"><text direction="ltr" dominant-baseline="text-before-edge" fill="#868e96" font-family="Virgil, Segoe UI Emoji" font-size="16px" style="white-space: pre;" text-anchor="start" x="0" y="0">Next to </text><text direction="ltr" dominant-baseline="text-before-edge" fill="#868e96" font-family="Virgil, Segoe UI Emoji" font-size="16px" style="white-space: pre;" text-anchor="start" x="0" y="20">be evicted</text></g><g stroke-linecap="round"><g transform="translate(736.4890464860409 207.4648431173784) rotate(0 39.953641247212886 19.164177540854865)"><path d="M-0.87 -0.15 C4.96 6.12, 21.54 32.51, 35 38.75 C48.45 44.99, 72.56 37.54, 79.85 37.28 M0.88 -1.28 C6.52 5.14, 20.93 30.31, 33.96 36.86 C46.99 43.42, 71.65 37.9, 79.06 38.05" fill="none" stroke="#868e96" stroke-width="1"></path></g><g transform="translate(736.4890464860409 207.4648431173784) rotate(0 39.953641247212886 19.164177540854865)"><path d="M18.27 11.43 C12.1 7.5, 7.28 4.17, -0.87 -0.15 M18.27 11.43 C13.88 8.98, 9.89 5.71, -0.87 -0.15" fill="none" stroke="#868e96" stroke-width="1"></path></g><g transform="translate(736.4890464860409 207.4648431173784) rotate(0 39.953641247212886 19.164177540854865)"><path d="M6.35 21.03 C3.71 14.27, 2.5 8.02, -0.87 -0.15 M6.35 21.03 C4.59 16.64, 3.13 11.33, -0.87 -0.15" fill="none" stroke="#868e96" stroke-width="1"></path></g></g><mask></mask><g transform="translate(830.2166638866815 221.1040631957946) rotate(0 93.32794952392578 20)"><text direction="ltr" dominant-baseline="text-before-edge" fill="#868e96" font-family="Virgil, Segoe UI Emoji" font-size="16px" style="white-space: pre;" text-anchor="start" x="0" y="0">When accessed, nodes</text><text direction="ltr" dominant-baseline="text-before-edge" fill="#868e96" font-family="Virgil, Segoe UI Emoji" font-size="16px" style="white-space: pre;" text-anchor="start" x="0" y="20">get moved to the front</text></g><g stroke-linecap="round" transform="translate(1033.2519471040991 377.5459225498466) rotate(0 98.09844655595293 47.58769882225272)"><path d="M23.79 0 C69.67 -1.55, 116.95 0.09, 172.4 0 M23.79 0 C72.11 0.22, 120.38 0.29, 172.4 0 M172.4 0 C187.61 -1.99, 195.28 6.18, 196.2 23.79 M172.4 0 C186.99 1.04, 194.29 9.38, 196.2 23.79 M196.2 23.79 C197.35 37.56, 196.9 53.05, 196.2 71.38 M196.2 23.79 C195.78 34.67, 196.9 44.15, 196.2 71.38 M196.2 71.38 C198 85.29, 188.25 94.28, 172.4 95.18 M196.2 71.38 C195.56 85.96, 190.18 96.53, 172.4 95.18 M172.4 95.18 C115.23 96.05, 59.62 96.94, 23.79 95.18 M172.4 95.18 C122.42 95.13, 72.9 94.23, 23.79 95.18 M23.79 95.18 C7.61 96.91, 1.94 86.36, 0 71.38 M23.79 95.18 C6.47 97.01, -0.41 85.34, 0 71.38 M0 71.38 C-1.41 55.36, 0.48 39.45, 0 23.79 M0 71.38 C-1.1 54.23, 0.09 34.99, 0 23.79 M0 23.79 C-1.07 8.97, 9.75 0.02, 23.79 0 M0 23.79 C-1.58 7.38, 7.04 1.01, 23.79 0" fill="none" stroke="#1e1e1e" stroke-width="2"></path></g><g transform="translate(1095.9904235672786 412.6336213720993) rotate(0 35.35997009277344 12.5)"><text direction="ltr" dominant-baseline="text-before-edge" fill="#1e1e1e" font-family="Virgil, Segoe UI Emoji" font-size="20px" style="white-space: pre;" text-anchor="middle" x="35.35997009277344" y="0">Janitor</text></g><g stroke-linecap="round"><g transform="translate(1015.4197818758785 413.9608161675953) rotate(0 -158.62750317264144 2.6095464987494665)"><path d="M0.41 0.27 C-34.97 0.96, -159.98 4.47, -212.85 4.99 C-265.72 5.52, -299.54 3.66, -316.8 3.41 M-0.84 -0.63 C-36.29 0.17, -160.85 5.53, -213.59 6.41 C-266.34 7.3, -300.31 4.99, -317.32 4.69" fill="none" stroke="#1e1e1e" stroke-width="2"></path></g><g transform="translate(1015.4197818758785 413.9608161675953) rotate(0 -158.62750317264144 2.6095464987494665)"><path d="M-288.8 -4.61 C-295.48 -1.53, -303.49 0.94, -317.32 4.69 M-288.8 -4.61 C-297.45 -2.86, -305.98 -0.01, -317.32 4.69" fill="none" stroke="#1e1e1e" stroke-width="2"></path></g><g transform="translate(1015.4197818758785 413.9608161675953) rotate(0 -158.62750317264144 2.6095464987494665)"><path d="M-289.49 15.9 C-296.14 13.81, -303.98 11.1, -317.32 4.69 M-289.49 15.9 C-298.09 11.61, -306.41 8.43, -317.32 4.69" fill="none" stroke="#1e1e1e" stroke-width="2"></path></g></g><mask></mask><g transform="translate(752.3301366146322 439.7131650986158) rotate(0 97.37992095947266 37.5)"><text direction="ltr" dominant-baseline="text-before-edge" fill="#868e96" font-family="Virgil, Segoe UI Emoji" font-size="20px" style="white-space: pre;" text-anchor="middle" x="97.37992095947266" y="0">Run every n minutes</text><text direction="ltr" dominant-baseline="text-before-edge" fill="#868e96" font-family="Virgil, Segoe UI Emoji" font-size="20px" style="white-space: pre;" text-anchor="middle" x="97.37992095947266" y="25">to remove expired </text><text direction="ltr" dominant-baseline="text-before-edge" fill="#868e96" font-family="Virgil, Segoe UI Emoji" font-size="20px" style="white-space: pre;" text-anchor="middle" x="97.37992095947266" y="50">nodes.</text></g><g stroke-linecap="round"><g transform="translate(1014.1250656508521 413.15955173636) rotate(0 -145.29671218670956 -72.6696252519651)"><path d="M-0.44 -1.12 C-38.69 -14.97, -181.09 -59.5, -229.64 -83.62 C-278.19 -107.73, -281.38 -135.56, -291.72 -145.8 M1.52 0.9 C-36.89 -12.71, -182.21 -57.86, -230.7 -82.13 C-279.19 -106.4, -279.2 -134.44, -289.42 -144.72" fill="none" stroke="#1e1e1e" stroke-width="2"></path></g><g transform="translate(1014.1250656508521 413.15955173636) rotate(0 -145.29671218670956 -72.6696252519651)"><path d="M-266.17 -125.76 C-274.66 -131.67, -279.65 -138.65, -289.42 -144.72 M-266.17 -125.76 C-271.47 -130.61, -278.01 -135.34, -289.42 -144.72" fill="none" stroke="#1e1e1e" stroke-width="2"></path></g><g transform="translate(1014.1250656508521 413.15955173636) rotate(0 -145.29671218670956 -72.6696252519651)"><path d="M-283.8 -115.25 C-287.16 -124.12, -287.07 -134.13, -289.42 -144.72 M-283.8 -115.25 C-284.39 -122.89, -286.32 -130.37, -289.42 -144.72" fill="none" stroke="#1e1e1e" stroke-width="2"></path></g></g><mask></mask><g stroke-linecap="round"><g transform="translate(1393.741433400784 241.12891020109328) rotate(0 -44.196346851897374 -20.38260358511718)"><path d="M-0.45 0.94 C-14.02 0.87, -65.68 6.6, -80.4 -0.47 C-95.11 -7.53, -87.53 -34.69, -88.73 -41.43 M1.52 0.39 C-11.8 0.48, -63.07 7.63, -78.27 0.82 C-93.47 -5.98, -88.23 -33.68, -89.67 -40.46" fill="none" stroke="#868e96" stroke-width="1"></path></g><g transform="translate(1393.741433400784 241.12891020109328) rotate(0 -44.196346851897374 -20.38260358511718)"><path d="M-82.11 -20.99 C-83.47 -30.44, -88.76 -36.71, -89.67 -40.46 M-82.11 -20.99 C-83.62 -25.97, -85.01 -29.57, -89.67 -40.46" fill="none" stroke="#868e96" stroke-width="1"></path></g><g transform="translate(1393.741433400784 241.12891020109328) rotate(0 -44.196346851897374 -20.38260358511718)"><path d="M-96.39 -20.69 C-92.2 -30.2, -91.94 -36.59, -89.67 -40.46 M-96.39 -20.69 C-94.42 -25.72, -92.32 -29.4, -89.67 -40.46" fill="none" stroke="#868e96" stroke-width="1"></path></g></g><mask></mask></svg>