<svg height="723.8406847362485" version="1.1" viewbox="0 0 538.6282529435364 723.8406847362485" width="538.6282529435364" xmlns="http://www.w3.org/2000/svg">
<!-- svg-source:excalidraw -->
<!-- payload-type:application/vnd.excalidraw+json --><!-- payload-version:2 -->
<defs>
<style class="style-fonts">
</style>
</defs>
<rect fill="#ffffff" height="723.8406847362485" width="538.6282529435364" x="0" y="0"></rect><g stroke-linecap="round" transform="translate(10 305.5076688281918) rotate(0 46.552734375 44.41406250000003)"><path d="M22.21 0 C34.47 -0.19, 42.74 0.65, 70.9 0 M22.21 0 C36.14 -0.23, 50.94 -0.2, 70.9 0 M70.9 0 C84.29 -1.55, 91.71 8.42, 93.11 22.21 M70.9 0 C85.68 1.38, 95.27 6.64, 93.11 22.21 M93.11 22.21 C94.13 31.16, 93.07 41.88, 93.11 66.62 M93.11 22.21 C93.15 39.18, 92.87 55.03, 93.11 66.62 M93.11 66.62 C95.03 81.7, 84.99 89.32, 70.9 88.83 M93.11 66.62 C93.99 82.17, 87.39 87.05, 70.9 88.83 M70.9 88.83 C59.08 90.24, 51.36 90.68, 22.21 88.83 M70.9 88.83 C59.02 88.43, 46.11 88.28, 22.21 88.83 M22.21 88.83 C6.79 89.9, 0.25 80.32, 0 66.62 M22.21 88.83 C9.48 90.68, 1.37 81.64, 0 66.62 M0 66.62 C-1.03 55.2, 0.52 40.42, 0 22.21 M0 66.62 C1.03 57, 1.23 47.9, 0 22.21 M0 22.21 C0.78 7.75, 7.47 1.77, 22.21 0 M0 22.21 C2.07 5.44, 6.59 -2.26, 22.21 0" fill="none" stroke="#1e1e1e" stroke-width="2"></path></g><g transform="translate(34.3408203125 337.4217313281918) rotate(0 22.2119140625 12.5)"><text direction="ltr" dominant-baseline="text-before-edge" fill="#1e1e1e" font-family="Virgil, Segoe UI Emoji" font-size="20px" style="white-space: pre;" text-anchor="middle" x="22.2119140625" y="0">client</text></g><g stroke-linecap="round"><g transform="translate(112.61267447310081 351.3851366200695) rotate(0 105.83942795287871 -107.74146205601738)"><path d="M0.22 -0.11 C35.4 -35.98, 175.58 -180.29, 210.78 -216.29 M-1.12 -1.22 C34.45 -36.86, 177.74 -179.52, 213.02 -215.18" fill="none" stroke="#1e1e1e" stroke-width="2"></path></g><g transform="translate(112.61267447310081 351.3851366200695) rotate(0 105.83942795287871 -107.74146205601738)"><path d="M12.54 -27.47 C8.7 -21.39, 4.13 -12.75, 0.22 -0.11 M12.54 -27.47 C8.95 -21.63, 5.95 -13.67, 0.22 -0.11" fill="none" stroke="#1e1e1e" stroke-width="2"></path></g><g transform="translate(112.61267447310081 351.3851366200695) rotate(0 105.83942795287871 -107.74146205601738)"><path d="M27.24 -13.15 C19.46 -11, 10.83 -6.32, 0.22 -0.11 M27.24 -13.15 C20 -10.89, 13.41 -6.42, 0.22 -0.11" fill="none" stroke="#1e1e1e" stroke-width="2"></path></g><g transform="translate(112.61267447310081 351.3851366200695) rotate(0 105.83942795287871 -107.74146205601738)"><path d="M200.37 -187.98 C203.92 -197.03, 206.25 -203.47, 213.02 -215.18 M200.37 -187.98 C202.62 -195.33, 205.72 -200.68, 213.02 -215.18" fill="none" stroke="#1e1e1e" stroke-width="2"></path></g><g transform="translate(112.61267447310081 351.3851366200695) rotate(0 105.83942795287871 -107.74146205601738)"><path d="M185.84 -202.47 C193.28 -207.54, 199.63 -209.98, 213.02 -215.18 M185.84 -202.47 C191.71 -206.21, 198.35 -208.03, 213.02 -215.18" fill="none" stroke="#1e1e1e" stroke-width="2"></path></g></g><mask></mask><g stroke-linecap="round" transform="translate(346.28100402642485 10) rotate(0 88.2345025786332 98.93473203061865)"><path d="M32 0 C66.47 0.42, 102.53 1.75, 144.47 0 M32 0 C59.13 1.38, 87.64 1.47, 144.47 0 M144.47 0 C167.68 -0.66, 175.23 11.07, 176.47 32 M144.47 0 C165.19 1.08, 174.61 10.52, 176.47 32 M176.47 32 C179.41 62.98, 178.38 92.73, 176.47 165.87 M176.47 32 C177.4 70.31, 178.14 108.45, 176.47 165.87 M176.47 165.87 C177.93 185.66, 163.93 197.8, 144.47 197.87 M176.47 165.87 C176.78 185.16, 167.35 198.49, 144.47 197.87 M144.47 197.87 C102.14 198.5, 55.4 196.95, 32 197.87 M144.47 197.87 C120.96 197.92, 98.1 199.28, 32 197.87 M32 197.87 C11.86 198.06, -0.41 188.74, 0 165.87 M32 197.87 C12.18 197.08, 1.14 188.2, 0 165.87 M0 165.87 C-0.53 136.51, 0.06 106.07, 0 32 M0 165.87 C-0.49 136.17, 0.38 103.84, 0 32 M0 32 C-0.71 8.7, 10.94 0.63, 32 0 M0 32 C2.29 10.85, 8.78 -0.04, 32 0" fill="none" stroke="#1e1e1e" stroke-width="2"></path></g><g transform="translate(367.6555517710736 96.43473203061865) rotate(0 66.85995483398438 12.5)"><text direction="ltr" dominant-baseline="text-before-edge" fill="#1e1e1e" font-family="Virgil, Segoe UI Emoji" font-size="20px" style="white-space: pre;" text-anchor="middle" x="66.85995483398438" y="0">cache shard 1</text></g><g stroke-linecap="round" transform="translate(352.15924778627004 265.05136285512634) rotate(0 88.2345025786332 98.93473203061868)"><path d="M32 0 C62.28 -1.92, 93.12 -1.91, 144.47 0 M32 0 C72.41 -1.01, 110.32 -0.47, 144.47 0 M144.47 0 C165.27 0.94, 174.85 10.54, 176.47 32 M144.47 0 C164.11 1.64, 175 12.95, 176.47 32 M176.47 32 C176.8 78.54, 177.38 120.53, 176.47 165.87 M176.47 32 C177.72 74.66, 176.05 118.82, 176.47 165.87 M176.47 165.87 C176.74 185.43, 167.14 198.41, 144.47 197.87 M176.47 165.87 C178.52 186.03, 166.05 199.54, 144.47 197.87 M144.47 197.87 C106.08 196.67, 72.36 197.54, 32 197.87 M144.47 197.87 C117.54 198.87, 89.21 199.54, 32 197.87 M32 197.87 C11.98 197.18, 0.99 188.07, 0 165.87 M32 197.87 C9.06 195.63, -1.49 185.09, 0 165.87 M0 165.87 C-0.6 116.61, 1.18 65.86, 0 32 M0 165.87 C-1.56 112.85, -1.07 62.12, 0 32 M0 32 C1.99 10.83, 9.02 -0.03, 32 0 M0 32 C-1.09 10.15, 11.43 1.68, 32 0" fill="none" stroke="#1e1e1e" stroke-width="2"></path></g><g transform="translate(369.123799498204 351.486094885745) rotate(0 71.26995086669919 12.499999999999972)"><text direction="ltr" dominant-baseline="text-before-edge" fill="#1e1e1e" font-family="Virgil, Segoe UI Emoji" font-size="20px" style="white-space: pre;" text-anchor="middle" x="71.26995086669922" y="0">cache shard 2</text></g><g stroke-linecap="round" transform="translate(349.993618917478 515.9712206750112) rotate(0 88.2345025786332 98.93473203061865)"><path d="M32 0 C58.8 0.76, 84.76 2.67, 144.47 0 M32 0 C61.74 0.24, 91.2 -0.29, 144.47 0 M144.47 0 C164.33 1.43, 175.19 12.65, 176.47 32 M144.47 0 C166.57 1.11, 176.59 10.31, 176.47 32 M176.47 32 C177.14 85.78, 177.29 139.49, 176.47 165.87 M176.47 32 C175.35 60.94, 175.88 91.93, 176.47 165.87 M176.47 165.87 C178.25 186.19, 166.01 199.32, 144.47 197.87 M176.47 165.87 C177.05 185.47, 164.61 195.8, 144.47 197.87 M144.47 197.87 C113.08 199.82, 85.5 199.2, 32 197.87 M144.47 197.87 C110.32 198.39, 75.34 199.16, 32 197.87 M32 197.87 C9.27 195.92, -1.29 185.37, 0 165.87 M32 197.87 C12.36 196.45, 2.16 185.56, 0 165.87 M0 165.87 C1.54 122.31, -1.94 74.44, 0 32 M0 165.87 C0.81 138.97, -1 111.89, 0 32 M0 32 C-0.95 10.22, 11.33 1.46, 32 0 M0 32 C2.06 8.53, 8.62 -1.34, 32 0" fill="none" stroke="#1e1e1e" stroke-width="2"></path></g><g transform="translate(367.2681681880057 602.4059527056298) rotate(0 70.95995330810544 12.5)"><text direction="ltr" dominant-baseline="text-before-edge" fill="#1e1e1e" font-family="Virgil, Segoe UI Emoji" font-size="20px" style="white-space: pre;" text-anchor="middle" x="70.95995330810547" y="0">cache shard 3</text></g><g stroke-linecap="round"><g transform="translate(127.05581079399894 354.4950307632291) rotate(0 103.14104964115737 8.39531911108537)"><path d="M1.13 -0.4 C35.39 2.32, 171.4 14.08, 205.54 17.03 M0.26 -1.65 C34.91 0.62, 173.73 12.21, 207.86 15.04" fill="none" stroke="#1e1e1e" stroke-width="2"></path></g><g transform="translate(127.05581079399894 354.4950307632291) rotate(0 103.14104964115737 8.39531911108537)"><path d="M30.09 -8.24 C20.82 -6.86, 13.23 -3.81, 1.13 -0.4 M30.09 -8.24 C19.24 -4.82, 9.29 -1.83, 1.13 -0.4" fill="none" stroke="#1e1e1e" stroke-width="2"></path></g><g transform="translate(127.05581079399894 354.4950307632291) rotate(0 103.14104964115737 8.39531911108537)"><path d="M28.35 12.21 C19.48 7.46, 12.41 4.4, 1.13 -0.4 M28.35 12.21 C18.27 8.53, 8.93 4.44, 1.13 -0.4" fill="none" stroke="#1e1e1e" stroke-width="2"></path></g><g transform="translate(127.05581079399894 354.4950307632291) rotate(0 103.14104964115737 8.39531911108537)"><path d="M178.92 22.94 C186.86 19.06, 196.57 17.41, 207.86 15.04 M178.92 22.94 C188.29 20.93, 198.42 18.47, 207.86 15.04" fill="none" stroke="#1e1e1e" stroke-width="2"></path></g><g transform="translate(127.05581079399894 354.4950307632291) rotate(0 103.14104964115737 8.39531911108537)"><path d="M180.61 2.48 C188.17 4.74, 197.38 9.2, 207.86 15.04 M180.61 2.48 C189.23 7.57, 198.78 12.2, 207.86 15.04" fill="none" stroke="#1e1e1e" stroke-width="2"></path></g></g><mask></mask><g stroke-linecap="round"><g transform="translate(121.89161887610999 373.0099676854304) rotate(0 104.40234997133302 123.2147633865003)"><path d="M-0.74 0.24 C33.82 41.47, 173.72 205.97, 208.49 246.99 M1.07 -0.67 C35.34 40.24, 172.51 203.78, 207.37 245.17" fill="none" stroke="#1e1e1e" stroke-width="2"></path></g><g transform="translate(121.89161887610999 373.0099676854304) rotate(0 104.40234997133302 123.2147633865003)"><path d="M25.31 15.11 C15.5 8.56, 5.77 1.61, -0.74 0.24 M25.31 15.11 C17.13 11.93, 10.46 7.05, -0.74 0.24" fill="none" stroke="#1e1e1e" stroke-width="2"></path></g><g transform="translate(121.89161887610999 373.0099676854304) rotate(0 104.40234997133302 123.2147633865003)"><path d="M9.66 28.38 C6.06 16.7, 2.49 4.52, -0.74 0.24 M9.66 28.38 C6.17 21.19, 4.09 12.42, -0.74 0.24" fill="none" stroke="#1e1e1e" stroke-width="2"></path></g><g transform="translate(121.89161887610999 373.0099676854304) rotate(0 104.40234997133302 123.2147633865003)"><path d="M181.38 230.18 C191.98 235.72, 202.75 240.53, 207.37 245.17 M181.38 230.18 C188.26 235.39, 196.86 239.27, 207.37 245.17" fill="none" stroke="#1e1e1e" stroke-width="2"></path></g><g transform="translate(121.89161887610999 373.0099676854304) rotate(0 104.40234997133302 123.2147633865003)"><path d="M197.09 216.98 C201.45 227.62, 206.04 237.64, 207.37 245.17 M197.09 216.98 C199.26 226.17, 203.25 233.94, 207.37 245.17" fill="none" stroke="#1e1e1e" stroke-width="2"></path></g></g><mask></mask><g transform="translate(390.4180051557044 126.71910923044521) rotate(0 43.869964599609375 12.5)"><text direction="ltr" dominant-baseline="text-before-edge" fill="#e03131" font-family="Virgil, Segoe UI Emoji" font-size="20px" style="white-space: pre;" text-anchor="start" x="0" y="0">hot key 1</text></g><g transform="translate(395.29918458718095 382.8754588676536) rotate(0 43.869964599609375 12.5)"><text direction="ltr" dominant-baseline="text-before-edge" fill="#e03131" font-family="Virgil, Segoe UI Emoji" font-size="20px" style="white-space: pre;" text-anchor="start" x="0" y="0">hot key 1</text></g><g transform="translate(394.4829833320594 410.3621212014241) rotate(0 48.27996063232422 12.5)"><text direction="ltr" dominant-baseline="text-before-edge" fill="#1971c2" font-family="Virgil, Segoe UI Emoji" font-size="20px" style="white-space: pre;" text-anchor="start" x="0" y="0">hot key 2</text></g><g transform="translate(391.7780605283968 157.36362280458525) rotate(0 48.27996063232422 12.5)"><text direction="ltr" dominant-baseline="text-before-edge" fill="#1971c2" font-family="Virgil, Segoe UI Emoji" font-size="20px" style="white-space: pre;" text-anchor="start" x="0" y="0">hot key 2</text></g><g transform="translate(393.7307980253559 638.9675328640219) rotate(0 48.27996063232422 12.5)"><text direction="ltr" dominant-baseline="text-before-edge" fill="#1971c2" font-family="Virgil, Segoe UI Emoji" font-size="20px" style="white-space: pre;" text-anchor="start" x="0" y="0">hot key 2</text></g></svg>