<svg height="355.7421875" version="1.1" viewbox="0 0 703.6953125 355.7421875" width="703.6953125" xmlns="http://www.w3.org/2000/svg">
<!-- svg-source:excalidraw -->
<!-- payload-type:application/vnd.excalidraw+json --><!-- payload-version:2 -->
<defs>
<style class="style-fonts">
</style>
</defs>
<rect fill="#ffffff" height="355.7421875" width="703.6953125" x="0" y="0"></rect><g stroke-linecap="round" transform="translate(10 118.53125) rotate(0 56.505859375 56.505859375)"><path d="M44.12 0.62 C52.77 -2.12, 65.38 -0.57, 74.24 2.32 C83.09 5.2, 90.85 11.04, 97.24 17.92 C103.63 24.8, 110.38 34.21, 112.58 43.59 C114.77 52.98, 113.27 65.17, 110.41 74.22 C107.56 83.28, 102.4 91.67, 95.44 97.94 C88.47 104.21, 78.04 109.76, 68.62 111.86 C59.2 113.96, 47.81 113.41, 38.94 110.53 C30.06 107.65, 21.59 101.45, 15.37 94.56 C9.15 87.67, 3.82 78.48, 1.63 69.19 C-0.56 59.9, -0.55 47.72, 2.25 38.84 C5.04 29.96, 10.49 22.16, 18.41 15.89 C26.33 9.63, 43.55 3.76, 49.77 1.25 C55.98 -1.25, 55.44 0.2, 55.68 0.86 M79.35 5.39 C87.9 7.73, 96.52 13.36, 102.08 20.78 C107.65 28.21, 111.51 40.6, 112.74 49.94 C113.97 59.27, 113.03 68.47, 109.48 76.81 C105.93 85.15, 99.28 93.87, 91.45 99.95 C83.62 106.04, 71.84 111.77, 62.5 113.32 C53.15 114.87, 43.66 112.98, 35.38 109.25 C27.1 105.53, 18.73 98.41, 12.8 90.98 C6.86 83.55, 1.41 74.01, -0.21 64.65 C-1.83 55.3, -0.41 43.48, 3.08 34.83 C6.57 26.18, 13 18.71, 20.73 12.76 C28.46 6.81, 39.68 0.49, 49.43 -0.87 C59.18 -2.24, 74.32 3.61, 79.24 4.59 C84.15 5.57, 79.45 4.4, 78.91 5" fill="none" stroke="#1e1e1e" stroke-width="2"></path></g><g transform="translate(34.50021049998436 150.0814330341641) rotate(0 32.04997253417968 25)"><text direction="ltr" dominant-baseline="text-before-edge" fill="#1e1e1e" font-family="Virgil, Segoe UI Emoji" font-size="20px" style="white-space: pre;" text-anchor="middle" x="32.04997253417969" y="0">Client/</text><text direction="ltr" dominant-baseline="text-before-edge" fill="#1e1e1e" font-family="Virgil, Segoe UI Emoji" font-size="20px" style="white-space: pre;" text-anchor="middle" x="32.04997253417969" y="25">User</text></g><g stroke-linecap="round" transform="translate(178.3984375 10) rotate(0 63.267578125 167.81640625)"><path d="M31.63 0 C47.99 -1.29, 65.94 -0.19, 94.9 0 M31.63 0 C45.43 -0.67, 61.06 -0.04, 94.9 0 M94.9 0 C115.89 -0.75, 127.02 8.89, 126.54 31.63 M94.9 0 C116.12 0.8, 125.81 11.09, 126.54 31.63 M126.54 31.63 C126.35 120.1, 125.78 207.2, 126.54 304 M126.54 31.63 C125.29 111.21, 126.4 189.91, 126.54 304 M126.54 304 C128.06 326.5, 116.92 333.78, 94.9 335.63 M126.54 304 C126.84 326.2, 117.22 333.5, 94.9 335.63 M94.9 335.63 C74.4 335.85, 52.58 336.64, 31.63 335.63 M94.9 335.63 C74.5 336.01, 54.81 336.75, 31.63 335.63 M31.63 335.63 C10.84 333.84, 1.38 325.43, 0 304 M31.63 335.63 C12.29 335.06, -0.03 323.08, 0 304 M0 304 C-1.98 218, -3.23 129.1, 0 31.63 M0 304 C2.13 214.65, 0.88 125.41, 0 31.63 M0 31.63 C0.11 10.93, 11.45 1.3, 31.63 0 M0 31.63 C1.18 8.65, 10.9 -1.61, 31.63 0" fill="none" stroke="#1e1e1e" stroke-width="2"></path></g><g transform="translate(198.53604125976562 152.81640625) rotate(0 43.129974365234375 25)"><text direction="ltr" dominant-baseline="text-before-edge" fill="#1e1e1e" font-family="Virgil, Segoe UI Emoji" font-size="20px" style="white-space: pre;" text-anchor="middle" x="43.129974365234375" y="0">API </text><text direction="ltr" dominant-baseline="text-before-edge" fill="#1e1e1e" font-family="Virgil, Segoe UI Emoji" font-size="20px" style="white-space: pre;" text-anchor="middle" x="43.129974365234375" y="25">Gateway</text></g><g stroke-linecap="round" transform="translate(345.236328125 10.109375) rotate(0 63.267578125 167.81640625)"><path d="M31.63 0 C44.22 -0.3, 61.74 -0.71, 94.9 0 M31.63 0 C50.18 -0.73, 69.07 -1.18, 94.9 0 M94.9 0 C116.1 0.69, 125.9 11.01, 126.54 31.63 M94.9 0 C116.45 -0.67, 124.41 11.18, 126.54 31.63 M126.54 31.63 C126.18 136.56, 127.44 241.04, 126.54 304 M126.54 31.63 C128.38 135.36, 128.14 237.27, 126.54 304 M126.54 304 C126.8 326.05, 117.06 333.77, 94.9 335.63 M126.54 304 C127.47 322.89, 113.99 336.84, 94.9 335.63 M94.9 335.63 C73.69 335.21, 53.24 334.45, 31.63 335.63 M94.9 335.63 C75.98 335.21, 57.46 336.28, 31.63 335.63 M31.63 335.63 C12.06 335.14, -0.02 323.34, 0 304 M31.63 335.63 C11.02 337.78, -2.07 325.09, 0 304 M0 304 C2.12 197.59, 1.19 94.63, 0 31.63 M0 304 C1.78 237.27, 2.09 170.76, 0 31.63 M0 31.63 C1.03 8.9, 10.85 -1.4, 31.63 0 M0 31.63 C1.59 10.97, 9.46 1.04, 31.63 0" fill="none" stroke="#1e1e1e" stroke-width="2"></path></g><g transform="translate(365.8039321899414 152.92578125) rotate(0 42.699974060058594 25)"><text direction="ltr" dominant-baseline="text-before-edge" fill="#1e1e1e" font-family="Virgil, Segoe UI Emoji" font-size="20px" style="white-space: pre;" text-anchor="middle" x="42.699974060058594" y="0">Load </text><text direction="ltr" dominant-baseline="text-before-edge" fill="#1e1e1e" font-family="Virgil, Segoe UI Emoji" font-size="20px" style="white-space: pre;" text-anchor="middle" x="42.699974060058594" y="25">Balancer</text></g><g stroke-linecap="round" transform="translate(524.96875 79.30078125) rotate(0 84.36328125 90.5234375)"><path d="M32 0 C61.01 2.4, 91.39 0.35, 136.73 0 M32 0 C59.57 1.21, 86.72 1.1, 136.73 0 M136.73 0 C158.46 -0.58, 166.88 11.22, 168.73 32 M136.73 0 C160.06 -0.21, 170.71 10.43, 168.73 32 M168.73 32 C171.13 65.03, 170.46 97.23, 168.73 149.05 M168.73 32 C169.41 75.83, 169.81 117.77, 168.73 149.05 M168.73 149.05 C169.54 168.47, 156.32 182.09, 136.73 181.05 M168.73 149.05 C169.61 171.26, 159.85 181.26, 136.73 181.05 M136.73 181.05 C110.11 178.25, 84.96 180.46, 32 181.05 M136.73 181.05 C115.47 180.98, 92.69 180.35, 32 181.05 M32 181.05 C11.08 182.91, -1.8 170.39, 0 149.05 M32 181.05 C12.66 179.2, -0.31 170.99, 0 149.05 M0 149.05 C-0.71 120.67, -1.49 95.68, 0 32 M0 149.05 C-0.01 110.85, -0.37 73.59, 0 32 M0 32 C1.38 11.03, 9.72 0.91, 32 0 M0 32 C-0.49 8.52, 12.92 -2.01, 32 0" fill="none" stroke="#1e1e1e" stroke-width="2"></path></g><g transform="translate(575.5720672607422 157.32421875) rotate(0 33.75996398925781 12.5)"><text direction="ltr" dominant-baseline="text-before-edge" fill="#1e1e1e" font-family="Virgil, Segoe UI Emoji" font-size="20px" style="white-space: pre;" text-anchor="middle" x="33.75996398925781" y="0">Service</text></g><g stroke-linecap="round"><g transform="translate(474.90234375 176.7578125) rotate(0 21.142578125 0)"><path d="M-0.03 -0.2 C6.95 -0.33, 35.36 -0.52, 42.42 -0.45 M-0.7 -0.79 C6.17 -0.89, 34.94 0.01, 42.06 0.01" fill="none" stroke="#1e1e1e" stroke-width="2"></path></g><g transform="translate(474.90234375 176.7578125) rotate(0 21.142578125 0)"><path d="M22.07 6.9 C29.62 4.41, 37.12 1.48, 42.06 0.01 M22.07 6.9 C28.87 4.42, 35 2.4, 42.06 0.01" fill="none" stroke="#1e1e1e" stroke-width="2"></path></g><g transform="translate(474.90234375 176.7578125) rotate(0 21.142578125 0)"><path d="M22.32 -7.56 C29.82 -4.3, 37.21 -1.48, 42.06 0.01 M22.32 -7.56 C29.01 -5.2, 35.06 -2.38, 42.06 0.01" fill="none" stroke="#1e1e1e" stroke-width="2"></path></g></g><mask></mask><g stroke-linecap="round"><g transform="translate(309.93359375 181.41796875) rotate(0 15.193359375 0)"><path d="M0.13 -0.45 C5.21 -0.39, 25.4 0.09, 30.42 0.19 M-0.46 0.5 C4.55 0.42, 24.96 -0.73, 30 -0.68" fill="none" stroke="#1e1e1e" stroke-width="2"></path></g><g transform="translate(309.93359375 181.41796875) rotate(0 15.193359375 0)"><path d="M15.87 4.91 C19.42 3.29, 24.48 1.36, 30 -0.68 M15.87 4.91 C20.09 3.23, 25.34 1.28, 30 -0.68" fill="none" stroke="#1e1e1e" stroke-width="2"></path></g><g transform="translate(309.93359375 181.41796875) rotate(0 15.193359375 0)"><path d="M15.59 -5.48 C19.2 -4.04, 24.35 -2.9, 30 -0.68 M15.59 -5.48 C19.9 -3.8, 25.25 -2.39, 30 -0.68" fill="none" stroke="#1e1e1e" stroke-width="2"></path></g></g><mask></mask><g stroke-linecap="round"><g transform="translate(130.9375 177.5390625) rotate(0 20.03125 0)"><path d="M0.03 0.19 C6.66 0.29, 33.2 0.19, 39.89 0.13 M-0.62 -0.19 C5.91 -0.22, 32.62 -0.86, 39.37 -0.77" fill="none" stroke="#1e1e1e" stroke-width="2"></path></g><g transform="translate(130.9375 177.5390625) rotate(0 20.03125 0)"><path d="M20.6 6.22 C27.06 3.64, 33.04 1.88, 39.37 -0.77 M20.6 6.22 C26.15 4.26, 31.24 2.36, 39.37 -0.77" fill="none" stroke="#1e1e1e" stroke-width="2"></path></g><g transform="translate(130.9375 177.5390625) rotate(0 20.03125 0)"><path d="M20.49 -7.48 C26.94 -5.62, 32.95 -2.93, 39.37 -0.77 M20.49 -7.48 C26.01 -5.73, 31.12 -3.92, 39.37 -0.77" fill="none" stroke="#1e1e1e" stroke-width="2"></path></g></g><mask></mask></svg>