<svg height="429.70079874381366" version="1.1" viewbox="0 0 924.6398230082814 429.70079874381366" width="924.6398230082814" xmlns="http://www.w3.org/2000/svg">
<!-- svg-source:excalidraw -->
<!-- payload-type:application/vnd.excalidraw+json --><!-- payload-version:2 -->
<defs>
<style class="style-fonts">
</style>
</defs>
<rect fill="#ffffff" height="429.70079874381366" width="924.6398230082814" x="0" y="0"></rect><g stroke-linecap="round" transform="translate(34.09645695848667 275.8321576392298) rotate(0 60.72158669626015 42.31588000214083)"><path d="M21.16 0 C38.27 -2.16, 59.47 -0.21, 100.29 0 M21.16 0 C39.25 0.29, 58.55 -0.16, 100.29 0 M100.29 0 C115.97 -1.09, 121.06 7.28, 121.44 21.16 M100.29 0 C114.75 0.95, 122.95 7.48, 121.44 21.16 M121.44 21.16 C122.31 38.34, 122.4 53.24, 121.44 63.47 M121.44 21.16 C121.95 31.99, 120.66 44.34, 121.44 63.47 M121.44 63.47 C121.33 78.05, 113.74 83.39, 100.29 84.63 M121.44 63.47 C119.94 78.53, 112.29 82.8, 100.29 84.63 M100.29 84.63 C73.48 84.91, 47.24 84.76, 21.16 84.63 M100.29 84.63 C69.02 85.54, 36.99 84.63, 21.16 84.63 M21.16 84.63 C7.71 85.98, 1.4 78.45, 0 63.47 M21.16 84.63 C5.95 83.6, -0.6 79.63, 0 63.47 M0 63.47 C1.54 54.14, 1.97 46.35, 0 21.16 M0 63.47 C0.44 53.38, 0.66 44.57, 0 21.16 M0 21.16 C-0.47 5.26, 8.48 -1.38, 21.16 0 M0 21.16 C0.82 5.24, 9.33 1.5, 21.16 0" fill="none" stroke="#1e1e1e" stroke-width="1"></path></g><g transform="translate(73.17805952388744 308.14803764137065) rotate(0 21.639984130859375 10)"><text direction="ltr" dominant-baseline="text-before-edge" fill="#1e1e1e" font-family="Virgil, Segoe UI Emoji" font-size="16px" style="white-space: pre;" text-anchor="middle" x="21.639984130859375" y="0">Client</text></g><g stroke-linecap="round"><g transform="translate(167.26546237533194 313.987550324958) rotate(0 44.683160133180536 0.9787916507292778)"><path d="M0.23 -0.78 C15.16 -0.41, 73.86 1.81, 88.62 2.38 M-1.1 1.42 C14.29 1.42, 76.13 0.6, 90.93 0.47" fill="none" stroke="#1e1e1e" stroke-width="1"></path></g><g transform="translate(167.26546237533194 313.987550324958) rotate(0 44.683160133180536 0.9787916507292778)"><path d="M28.77 -10.05 C21.14 -9.19, 16.81 -6.84, 0.23 -0.78 M28.77 -10.05 C19.39 -7.25, 8.22 -3.29, 0.23 -0.78" fill="none" stroke="#1e1e1e" stroke-width="1"></path></g><g transform="translate(167.26546237533194 313.987550324958) rotate(0 44.683160133180536 0.9787916507292778)"><path d="M28.05 10.46 C20.56 6.77, 16.39 4.56, 0.23 -0.78 M28.05 10.46 C18.88 5.93, 7.97 2.58, 0.23 -0.78" fill="none" stroke="#1e1e1e" stroke-width="1"></path></g><g transform="translate(167.26546237533194 313.987550324958) rotate(0 44.683160133180536 0.9787916507292778)"><path d="M62.86 11.05 C67.77 7.39, 76.01 5.34, 90.93 0.47 M62.86 11.05 C73.64 6.69, 82.69 3.58, 90.93 0.47" fill="none" stroke="#1e1e1e" stroke-width="1"></path></g><g transform="translate(167.26546237533194 313.987550324958) rotate(0 44.683160133180536 0.9787916507292778)"><path d="M62.63 -9.47 C67.62 -8.57, 75.9 -6.07, 90.93 0.47 M62.63 -9.47 C73.55 -6.5, 82.67 -2.29, 90.93 0.47" fill="none" stroke="#1e1e1e" stroke-width="1"></path></g></g><mask></mask><g stroke-linecap="round" transform="translate(275.90950820253966 214.98017825142784) rotate(0 79.60821868216999 102.36031024619291)"><path d="M32 0 C63.11 -0.36, 93.97 1.08, 127.22 0 M32 0 C61.51 0.63, 91.55 0.93, 127.22 0 M127.22 0 C149.86 0.37, 160.99 11.64, 159.22 32 M127.22 0 C150.8 0.75, 160.06 11.52, 159.22 32 M159.22 32 C157.55 70.24, 157.78 104.09, 159.22 172.72 M159.22 32 C158.81 81.03, 158.49 131.71, 159.22 172.72 M159.22 172.72 C157.39 192.46, 149.27 204.21, 127.22 204.72 M159.22 172.72 C160.99 193.8, 148.17 204.87, 127.22 204.72 M127.22 204.72 C101.65 204.37, 75.96 203.24, 32 204.72 M127.22 204.72 C102.03 205.79, 74.96 204.91, 32 204.72 M32 204.72 C10.15 206.51, -1.51 192.79, 0 172.72 M32 204.72 C12.17 206.19, 0.2 196.01, 0 172.72 M0 172.72 C1.69 118.64, 0.62 63.52, 0 32 M0 172.72 C1.04 115.95, 0.69 59.77, 0 32 M0 32 C1.98 11.97, 11.59 0.83, 32 0 M0 32 C2.12 10.57, 12.13 0.24, 32 0" fill="none" stroke="#1e1e1e" stroke-width="1"></path></g><g transform="translate(330.8377418383229 307.34048849762075) rotate(0 24.67998504638672 10)"><text direction="ltr" dominant-baseline="text-before-edge" fill="#1e1e1e" font-family="Virgil, Segoe UI Emoji" font-size="16px" style="white-space: pre;" text-anchor="middle" x="24.67998504638672" y="0">Server</text></g><g stroke-linecap="round" transform="translate(539.7425543327445 252.17851309013048) rotate(0 68.7420184982766 65.57355985397106)"><path d="M95.25 5.18 C104.53 7.87, 113.85 15.4, 120.48 22.6 C127.1 29.81, 132.26 39.23, 135.01 48.4 C137.76 57.57, 138.64 68.37, 136.98 77.63 C135.33 86.89, 130.86 96.47, 125.08 103.96 C119.29 111.46, 111.1 118.24, 102.28 122.6 C93.46 126.96, 82.26 129.39, 72.17 130.12 C62.08 130.86, 50.95 130.57, 41.74 127.02 C32.53 123.47, 23.35 116.05, 16.93 108.81 C10.5 101.56, 5.8 92.69, 3.19 83.58 C0.57 74.47, -0.27 63.62, 1.22 54.17 C2.71 44.72, 6.32 34.72, 12.12 26.9 C17.91 19.07, 27.31 11.63, 35.99 7.22 C44.67 2.82, 53.27 0.19, 64.19 0.46 C75.11 0.73, 94.36 6.8, 101.51 8.83 C108.67 10.87, 107.62 11.88, 107.12 12.66 M101.27 8.6 C110.19 11.8, 117.64 18.66, 123.57 26.31 C129.49 33.96, 134.7 45.01, 136.8 54.51 C138.9 64.01, 138.95 74.44, 136.15 83.32 C133.36 92.19, 126.78 100.48, 120.04 107.77 C113.3 115.06, 104.91 123.34, 95.72 127.06 C86.53 130.79, 74.62 130.58, 64.91 130.15 C55.21 129.71, 46.06 128.52, 37.49 124.45 C28.92 120.37, 19.3 113.65, 13.48 105.69 C7.67 97.73, 4.27 86.11, 2.6 76.67 C0.93 67.23, 0.92 58.09, 3.46 49.06 C6 40.03, 11.28 29.51, 17.84 22.48 C24.4 15.46, 33.94 10.86, 42.82 6.9 C51.7 2.94, 61.22 -1.25, 71.09 -1.29 C80.96 -1.34, 97.09 5.13, 102.05 6.62 C107.01 8.11, 101.34 6.33, 100.87 7.63" fill="none" stroke="#1e1e1e" stroke-width="1"></path></g><g transform="translate(568.8246463334972 297.88456410481666) rotate(0 39.551979064941406 20)"><text direction="ltr" dominant-baseline="text-before-edge" fill="#1e1e1e" font-family="Virgil, Segoe UI Emoji" font-size="16px" style="white-space: pre;" text-anchor="middle" x="39.551979064941406" y="0">Core </text><text direction="ltr" dominant-baseline="text-before-edge" fill="#1e1e1e" font-family="Virgil, Segoe UI Emoji" font-size="16px" style="white-space: pre;" text-anchor="middle" x="39.551979064941406" y="20">Database</text></g><g stroke-linecap="round"><g transform="translate(448.48575422156864 318.3620336778501) rotate(0 41.47732989490942 0)"><path d="M-0.23 0.14 C13.47 0.33, 69.15 0.48, 83.14 0.5 M-1.81 -0.84 C11.66 -0.95, 68.09 -1.78, 82.29 -1.37" fill="none" stroke="#1e1e1e" stroke-width="1"></path></g><g transform="translate(448.48575422156864 318.3620336778501) rotate(0 41.47732989490942 0)"><path d="M54.06 8.78 C65.03 5.3, 76.33 2.45, 82.29 -1.37 M54.06 8.78 C63.94 5.74, 72.32 2.55, 82.29 -1.37" fill="none" stroke="#1e1e1e" stroke-width="1"></path></g><g transform="translate(448.48575422156864 318.3620336778501) rotate(0 41.47732989490942 0)"><path d="M54.14 -11.74 C64.97 -7.45, 76.24 -2.52, 82.29 -1.37 M54.14 -11.74 C64.18 -8.25, 72.53 -4.9, 82.29 -1.37" fill="none" stroke="#1e1e1e" stroke-width="1"></path></g></g><mask></mask><g transform="translate(681.6438256506417 267.6268785642713) rotate(0 51.479957580566406 50)"><text direction="ltr" dominant-baseline="text-before-edge" fill="#1e1e1e" font-family="Virgil, Segoe UI Emoji" font-size="16px" style="white-space: pre;" text-anchor="start" x="0" y="0">Entity</text><text direction="ltr" dominant-baseline="text-before-edge" fill="#1e1e1e" font-family="Virgil, Segoe UI Emoji" font-size="16px" style="white-space: pre;" text-anchor="start" x="0" y="20">- entityId</text><text direction="ltr" dominant-baseline="text-before-edge" fill="#1e1e1e" font-family="Virgil, Segoe UI Emoji" font-size="16px" style="white-space: pre;" text-anchor="start" x="0" y="40">- name</text><text direction="ltr" dominant-baseline="text-before-edge" fill="#1e1e1e" font-family="Virgil, Segoe UI Emoji" font-size="16px" style="white-space: pre;" text-anchor="start" x="0" y="60">- description</text><text direction="ltr" dominant-baseline="text-before-edge" fill="#1e1e1e" font-family="Virgil, Segoe UI Emoji" font-size="16px" style="white-space: pre;" text-anchor="start" x="0" y="80">- s3ImageUrl</text></g><g stroke-linecap="round" transform="translate(524.0838055265403 47.9955479557602) rotate(0 79.26337765944254 71.33388812070997)"><path d="M113.64 7.28 C123.96 10.29, 134.28 18.36, 141.37 26.18 C148.45 34, 153.69 43.93, 156.13 54.2 C158.57 64.46, 158.55 77.61, 156.02 87.77 C153.49 97.93, 147.9 107.21, 140.98 115.15 C134.06 123.08, 124.71 130.86, 114.53 135.4 C104.34 139.93, 91.54 142.39, 79.88 142.34 C68.23 142.29, 54.92 139.63, 44.6 135.1 C34.28 130.57, 25.17 123.03, 17.95 115.17 C10.73 107.3, 3.99 97.67, 1.28 87.9 C-1.44 78.14, -0.96 66.72, 1.65 56.57 C4.26 46.41, 9.79 35.23, 16.95 26.96 C24.1 18.7, 34.11 11.59, 44.59 6.97 C55.08 2.35, 66.87 -1.53, 79.86 -0.77 C92.85 0, 114.18 8.51, 122.53 11.56 C130.89 14.6, 130.79 16.49, 129.97 17.51 M104.67 3.31 C115.1 5.65, 126.83 14.95, 134.88 22.19 C142.92 29.44, 148.91 37.1, 152.93 46.77 C156.95 56.44, 160.08 69.6, 159.02 80.22 C157.95 90.85, 152.56 102.1, 146.54 110.52 C140.52 118.93, 132.45 125.35, 122.91 130.73 C113.37 136.11, 100.73 141.5, 89.29 142.79 C77.84 144.08, 65.02 141.71, 54.26 138.46 C43.49 135.21, 33.06 130.77, 24.71 123.29 C16.35 115.82, 7.97 103.76, 4.12 93.6 C0.26 83.45, 0.14 72.59, 1.56 62.36 C2.99 52.14, 6.49 40.65, 12.65 32.25 C18.81 23.84, 28.8 17.14, 38.53 11.94 C48.26 6.75, 59.64 2.42, 71.02 1.08 C82.39 -0.26, 100.97 3.18, 106.77 3.92 C112.57 4.66, 106.3 4.16, 105.82 5.49" fill="none" stroke="#1e1e1e" stroke-width="1"></path></g><g transform="translate(552.5075420439243 99.38876005791366) rotate(0 50.791969299316406 20)"><text direction="ltr" dominant-baseline="text-before-edge" fill="#1e1e1e" font-family="Virgil, Segoe UI Emoji" font-size="16px" style="white-space: pre;" text-anchor="middle" x="50.791969299316406" y="0">Blob </text><text direction="ltr" dominant-baseline="text-before-edge" fill="#1e1e1e" font-family="Virgil, Segoe UI Emoji" font-size="16px" style="white-space: pre;" text-anchor="middle" x="50.791969299316406" y="20">Storage (s3)</text></g><g stroke-linecap="round" transform="translate(63.29833183527626 55.4374397042925) rotate(0 55.91059528163669 52.09138825573311)"><path d="M65.74 -0.06 C74.43 0.92, 84.53 7.64, 91.59 13.36 C98.65 19.08, 104.8 26.26, 108.11 34.28 C111.41 42.3, 112.99 52.95, 111.42 61.49 C109.85 70.04, 104.92 79.06, 98.68 85.57 C92.45 92.08, 82.74 97.73, 73.99 100.53 C65.24 103.34, 55.37 103.81, 46.17 102.4 C36.98 101, 26.03 97.44, 18.83 92.08 C11.63 86.73, 5.97 78.55, 2.96 70.28 C-0.04 62.01, -0.92 51.17, 0.82 42.47 C2.57 33.76, 7.21 24.75, 13.44 18.05 C19.66 11.34, 27.73 4.64, 38.19 2.23 C48.64 -0.18, 68.37 2.63, 76.17 3.61 C83.97 4.58, 85.41 7.24, 84.98 8.08 M73.62 2.24 C82 4.36, 91.86 12.89, 97.87 19.42 C103.89 25.95, 107.74 32.95, 109.71 41.42 C111.68 49.88, 112.54 61.65, 109.68 70.21 C106.82 78.78, 99.53 87.48, 92.54 92.83 C85.56 98.17, 76.77 100.79, 67.77 102.29 C58.78 103.8, 47.42 104.59, 38.57 101.85 C29.72 99.12, 20.7 92.3, 14.67 85.88 C8.65 79.45, 4.41 72.01, 2.43 63.29 C0.45 54.58, -0.24 42.2, 2.77 33.58 C5.78 24.96, 13.27 17.24, 20.48 11.6 C27.69 5.95, 36.78 1.02, 46.01 -0.27 C55.23 -1.55, 71.05 3.09, 75.82 3.89 C80.6 4.69, 74.98 3.87, 74.66 4.52" fill="none" stroke="#1e1e1e" stroke-width="1"></path></g><g transform="translate(102.6301825936184 97.69465408297543) rotate(0 16.543983459472656 10)"><text direction="ltr" dominant-baseline="text-before-edge" fill="#1e1e1e" font-family="Virgil, Segoe UI Emoji" font-size="16px" style="white-space: pre;" text-anchor="middle" x="16.543983459472656" y="0">CDN</text></g><g transform="translate(10 10) rotate(0 115.79193115234375 20)"><text direction="ltr" dominant-baseline="text-before-edge" fill="#1e1e1e" font-family="Virgil, Segoe UI Emoji" font-size="16px" style="white-space: pre;" text-anchor="start" x="0" y="0">- caches frequently accessed</text><text direction="ltr" dominant-baseline="text-before-edge" fill="#1e1e1e" font-family="Virgil, Segoe UI Emoji" font-size="16px" style="white-space: pre;" text-anchor="start" x="0" y="20">resources close to user</text></g><g stroke-linecap="round"><g transform="translate(112.07164849500387 170.88045840031043) rotate(0 -5.845274743544728 45.304253258887485)"><path d="M-1.11 -0.72 C-2.8 14.34, -8.77 74.69, -10.61 90.02 M0.5 1.51 C-1.2 16.76, -8.71 76.62, -10.99 91.24" fill="none" stroke="#1e1e1e" stroke-width="1"></path></g><g transform="translate(112.07164849500387 170.88045840031043) rotate(0 -5.845274743544728 45.304253258887485)"><path d="M-17.3 61.92 C-16.97 71.37, -15.11 76.38, -10.99 91.24 M-17.3 61.92 C-15.41 71.63, -13.51 83.01, -10.99 91.24" fill="none" stroke="#1e1e1e" stroke-width="1"></path></g><g transform="translate(112.07164849500387 170.88045840031043) rotate(0 -5.845274743544728 45.304253258887485)"><path d="M3.03 64.72 C-1.89 73.26, -5.3 77.54, -10.99 91.24 M3.03 64.72 C-2.26 73.49, -7.53 83.88, -10.99 91.24" fill="none" stroke="#1e1e1e" stroke-width="1"></path></g></g><mask></mask><g stroke-linecap="round"><g transform="translate(506.7453472225352 121.88051805105425) rotate(0 -160.0859558571301 -7.662515843718012)"><path d="M1.08 -0.59 C-52.17 -2.92, -267.09 -12.28, -320.64 -14.69 M0.19 1.71 C-53.16 -0.9, -268.3 -13.93, -321.84 -16.48" fill="none" stroke="#1e1e1e" stroke-width="1"></path></g><g transform="translate(506.7453472225352 121.88051805105425) rotate(0 -160.0859558571301 -7.662515843718012)"><path d="M-293.13 -25.18 C-300.12 -23.9, -304.03 -21.43, -321.84 -16.48 M-293.13 -25.18 C-303.09 -22.13, -312.64 -20.53, -321.84 -16.48" fill="none" stroke="#1e1e1e" stroke-width="1"></path></g><g transform="translate(506.7453472225352 121.88051805105425) rotate(0 -160.0859558571301 -7.662515843718012)"><path d="M-294.25 -4.69 C-300.89 -7.67, -304.56 -9.44, -321.84 -16.48 M-294.25 -4.69 C-303.79 -8.26, -312.97 -13.29, -321.84 -16.48" fill="none" stroke="#1e1e1e" stroke-width="1"></path></g></g><mask></mask><g stroke-linecap="round"><g transform="translate(450.91169353119767 264.488229633378) rotate(0 46.72420845306988 -35.230170270640116)"><path d="M-0.47 0.63 C14.91 -10.96, 77.79 -58.21, 93.38 -70.18 M1.48 -0.08 C16.61 -12.01, 77.3 -60.45, 92.4 -72.15" fill="none" stroke="#1e1e1e" stroke-width="1"></path></g><g transform="translate(450.91169353119767 264.488229633378) rotate(0 46.72420845306988 -35.230170270640116)"><path d="M15.87 -24.52 C10.43 -14.88, 3.46 -5.6, -0.47 0.63 M15.87 -24.52 C10.91 -19.26, 8.29 -12.73, -0.47 0.63" fill="none" stroke="#1e1e1e" stroke-width="1"></path></g><g transform="translate(450.91169353119767 264.488229633378) rotate(0 46.72420845306988 -35.230170270640116)"><path d="M28.22 -8.13 C18.04 -4.93, 6.25 -2.05, -0.47 0.63 M28.22 -8.13 C20.42 -6.72, 14.87 -4.09, -0.47 0.63" fill="none" stroke="#1e1e1e" stroke-width="1"></path></g><g transform="translate(450.91169353119767 264.488229633378) rotate(0 46.72420845306988 -35.230170270640116)"><path d="M76.61 -46.65 C83.95 -56.65, 89.53 -67.15, 92.4 -72.15 M76.61 -46.65 C79.62 -53.58, 84.65 -59.11, 92.4 -72.15" fill="none" stroke="#1e1e1e" stroke-width="1"></path></g><g transform="translate(450.91169353119767 264.488229633378) rotate(0 46.72420845306988 -35.230170270640116)"><path d="M63.91 -62.76 C76.13 -66.43, 86.66 -70.63, 92.4 -72.15 M63.91 -62.76 C69.83 -65.91, 77.89 -67.61, 92.4 -72.15" fill="none" stroke="#1e1e1e" stroke-width="1"></path></g></g><mask></mask><g mask="url(#mask-qASUWA-vXcxdZT9BMhCWV)" stroke-linecap="round"><g transform="translate(790.2576239057535 358.34910171677217) rotate(0 -26.006877921658088 -111.11870126712228)"><path d="M-0.07 0.28 C8.34 -18.77, 67.19 -76.68, 50 -113.69 C32.81 -150.69, -77.6 -203.49, -103.19 -221.74 M-1.56 -0.62 C6.7 -19.59, 65.37 -75.34, 48.85 -112.54 C32.32 -149.74, -75.26 -205.48, -100.7 -223.82" fill="none" stroke="#1e1e1e" stroke-width="1"></path></g><g transform="translate(790.2576239057535 358.34910171677217) rotate(0 -26.006877921658088 -111.11870126712228)"><path d="M-71.34 -217.66 C-78.56 -219.94, -87.93 -222.19, -100.7 -223.82 M-71.34 -217.66 C-80.95 -220.25, -90.57 -222.21, -100.7 -223.82" fill="none" stroke="#1e1e1e" stroke-width="1"></path></g><g transform="translate(790.2576239057535 358.34910171677217) rotate(0 -26.006877921658088 -111.11870126712228)"><path d="M-82.17 -200.23 C-86.66 -207.04, -93.2 -213.85, -100.7 -223.82 M-82.17 -200.23 C-87.92 -208.69, -93.84 -216.6, -100.7 -223.82" fill="none" stroke="#1e1e1e" stroke-width="1"></path></g></g><mask id="mask-qASUWA-vXcxdZT9BMhCWV"><rect fill="#fff" height="680.5865042510168" width="1043.0518607177974" x="0" y="0"></rect><rect fill="#000" height="40" opacity="1" width="147.98391723632812" x="766.6559057719533" y="225.4077635471209"></rect></mask><g transform="translate(766.6559057719533 225.40776354712102) rotate(0 -1.4276424702090935 21.1715793785836)"><text direction="ltr" dominant-baseline="text-before-edge" fill="#1e1e1e" font-family="Virgil, Segoe UI Emoji" font-size="16px" style="white-space: pre;" text-anchor="middle" x="73.99195861816406" y="0">Points to resource</text><text direction="ltr" dominant-baseline="text-before-edge" fill="#1e1e1e" font-family="Virgil, Segoe UI Emoji" font-size="16px" style="white-space: pre;" text-anchor="middle" x="73.99195861816406" y="20">in s3</text></g><g transform="translate(460.9707590230437 17.45576612657922) rotate(0 140.639892578125 10)"><text direction="ltr" dominant-baseline="text-before-edge" fill="#1e1e1e" font-family="Virgil, Segoe UI Emoji" font-size="16px" style="white-space: pre;" text-anchor="start" x="0" y="0">- stores blobs like media, files, etc.</text></g><g stroke-linecap="round"><g transform="translate(160.73920952665154 268.69129409378775) rotate(0 174.37042911374448 -61.81888486094047)"><path d="M-0.85 0.54 C24.12 -14.37, 92.35 -70.08, 150.45 -90.59 C208.55 -111.1, 314.59 -117.16, 347.75 -122.52 M0.91 -0.23 C25.74 -14.85, 91.79 -68.5, 149.99 -89.17 C208.19 -109.85, 316.79 -118.33, 350.12 -124.28" fill="none" stroke="#1e1e1e" stroke-width="1"></path></g><g transform="translate(160.73920952665154 268.69129409378775) rotate(0 174.37042911374448 -61.81888486094047)"><path d="M323.55 -110.36 C334.02 -113.58, 342.18 -121.73, 350.12 -124.28 M323.55 -110.36 C333.57 -115.3, 344.33 -121.74, 350.12 -124.28" fill="none" stroke="#1e1e1e" stroke-width="1"></path></g><g transform="translate(160.73920952665154 268.69129409378775) rotate(0 174.37042911374448 -61.81888486094047)"><path d="M320.82 -130.7 C332.07 -126.67, 341.2 -127.58, 350.12 -124.28 M320.82 -130.7 C332.02 -127.67, 343.86 -126.12, 350.12 -124.28" fill="none" stroke="#1e1e1e" stroke-width="1"></path></g></g><mask></mask><g transform="translate(192.6324115041407 143.7410243719068) rotate(0 44.83995056152344 25)"><text direction="ltr" dominant-baseline="text-before-edge" fill="#1e1e1e" font-family="Virgil, Segoe UI Emoji" font-size="20px" style="white-space: pre;" text-anchor="middle" x="44.83995056152344" y="0">Presigned</text><text direction="ltr" dominant-baseline="text-before-edge" fill="#1e1e1e" font-family="Virgil, Segoe UI Emoji" font-size="20px" style="white-space: pre;" text-anchor="middle" x="44.83995056152344" y="25">Uploads</text></g></svg>