<svg height="612.71484375" version="1.1" viewbox="0 0 738.6116333007812 612.71484375" width="738.6116333007812" xmlns="http://www.w3.org/2000/svg">
<!-- svg-source:excalidraw -->
<!-- payload-type:application/vnd.excalidraw+json --><!-- payload-version:2 -->
<defs>
<style class="style-fonts">
</style>
</defs>
<rect fill="#ffffff" height="612.71484375" width="738.6116333007812" x="0" y="0"></rect><g stroke-linecap="round" transform="translate(10 91.01171875) rotate(0 60.849609375 67.8359375)"><path d="M30.42 0 C50.36 -0.04, 68.74 -0.3, 91.27 0 M30.42 0 C42.81 1.04, 56.44 1.38, 91.27 0 M91.27 0 C112.46 0.74, 120.66 8.61, 121.7 30.42 M91.27 0 C111.74 1.63, 123.22 11.24, 121.7 30.42 M121.7 30.42 C119.86 57, 122.83 83.25, 121.7 105.25 M121.7 30.42 C121.2 54.43, 122.06 76.62, 121.7 105.25 M121.7 105.25 C122.38 126.89, 112.47 134.32, 91.27 135.67 M121.7 105.25 C122.26 125.55, 111.85 134.05, 91.27 135.67 M91.27 135.67 C74.99 134.78, 59.79 135.11, 30.42 135.67 M91.27 135.67 C66.63 135, 42.1 135.32, 30.42 135.67 M30.42 135.67 C8.94 135.98, 1.26 124.66, 0 105.25 M30.42 135.67 C8.54 136.59, 1.34 124.06, 0 105.25 M0 105.25 C-1.36 90.06, 1.14 74.42, 0 30.42 M0 105.25 C0.37 77.59, 0.81 48.28, 0 30.42 M0 30.42 C-1.6 9.61, 8.38 -1.57, 30.42 0 M0 30.42 C0.4 8.35, 7.87 -0.39, 30.42 0" fill="none" stroke="#1e1e1e" stroke-width="2"></path></g><g transform="translate(36.94963073730469 146.34765625) rotate(0 33.89997863769531 12.5)"><text direction="ltr" dominant-baseline="text-before-edge" fill="#1e1e1e" font-family="Virgil, Segoe UI Emoji" font-size="20px" style="white-space: pre;" text-anchor="middle" x="33.89997863769531" y="0">User A</text></g><g stroke-linecap="round" transform="translate(13.572265625 272.21875) rotate(0 60.849609375 67.8359375)"><path d="M30.42 0 C52.28 0.66, 72.84 1.54, 91.27 0 M30.42 0 C49.85 -0.62, 71.2 -0.62, 91.27 0 M91.27 0 C109.58 -0.34, 121.73 10.18, 121.7 30.42 M91.27 0 C111.62 2.12, 119.7 7.98, 121.7 30.42 M121.7 30.42 C120.7 48.11, 120.19 68.01, 121.7 105.25 M121.7 30.42 C122.45 49.4, 121.93 67.33, 121.7 105.25 M121.7 105.25 C120.68 124.29, 110.75 135.36, 91.27 135.67 M121.7 105.25 C121.81 127.2, 111.35 136.66, 91.27 135.67 M91.27 135.67 C68.49 136.86, 49.05 136.86, 30.42 135.67 M91.27 135.67 C73.33 136.09, 54.88 136.02, 30.42 135.67 M30.42 135.67 C9.02 135.61, -1.82 125.09, 0 105.25 M30.42 135.67 C8.01 137.24, 0.47 126.01, 0 105.25 M0 105.25 C-1.43 85.02, -0.64 65.53, 0 30.42 M0 105.25 C-1.5 75.33, -1.04 47.37, 0 30.42 M0 30.42 C-0.22 11.26, 10.28 0.25, 30.42 0 M0 30.42 C-1.17 10.5, 8.89 1.32, 30.42 0" fill="none" stroke="#1e1e1e" stroke-width="2"></path></g><g transform="translate(39.81189727783203 327.5546875) rotate(0 34.60997772216797 12.5)"><text direction="ltr" dominant-baseline="text-before-edge" fill="#1e1e1e" font-family="Virgil, Segoe UI Emoji" font-size="20px" style="white-space: pre;" text-anchor="middle" x="34.60997772216797" y="0">User B</text></g><g stroke-linecap="round" transform="translate(10.216796875 457.80078125) rotate(0 60.849609375 67.8359375)"><path d="M30.42 0 C51.75 1.79, 71.24 -0.54, 91.27 0 M30.42 0 C48.29 0.02, 66.71 -0.56, 91.27 0 M91.27 0 C109.9 -1.58, 120.74 10.01, 121.7 30.42 M91.27 0 C110.87 0.07, 121.75 11.11, 121.7 30.42 M121.7 30.42 C122.7 49.8, 122.82 68.05, 121.7 105.25 M121.7 30.42 C121.18 53.29, 120.56 78.01, 121.7 105.25 M121.7 105.25 C122.74 123.84, 110 134.81, 91.27 135.67 M121.7 105.25 C123.6 125.97, 113.59 134.72, 91.27 135.67 M91.27 135.67 C74.31 136.56, 56.11 136.81, 30.42 135.67 M91.27 135.67 C74.37 136.76, 55.61 137.12, 30.42 135.67 M30.42 135.67 C10.31 137.23, 0.97 126.88, 0 105.25 M30.42 135.67 C10.77 135.28, 2.28 124.81, 0 105.25 M0 105.25 C-0.3 85.29, 1.37 70.54, 0 30.42 M0 105.25 C-0.12 81.75, -0.26 58.41, 0 30.42 M0 30.42 C0.39 9.41, 11.03 -0.26, 30.42 0 M0 30.42 C0.53 11.01, 9.77 1.68, 30.42 0" fill="none" stroke="#1e1e1e" stroke-width="2"></path></g><g transform="translate(37.28643035888672 513.13671875) rotate(0 33.77997589111328 12.5)"><text direction="ltr" dominant-baseline="text-before-edge" fill="#1e1e1e" font-family="Virgil, Segoe UI Emoji" font-size="20px" style="white-space: pre;" text-anchor="middle" x="33.77997589111328" y="0">User C</text></g><g stroke-linecap="round" transform="translate(225.5625 153.66796875) rotate(0 83.466796875 70.19140625)"><path d="M32 0 C65.6 1.39, 94.66 0.55, 134.93 0 M32 0 C72.78 0.09, 111.71 -1.43, 134.93 0 M134.93 0 C156.82 1.33, 167.59 9.96, 166.93 32 M134.93 0 C154.15 -0.49, 168.27 8.71, 166.93 32 M166.93 32 C165.02 52.21, 165.23 77.53, 166.93 108.38 M166.93 32 C165.95 53.61, 166.56 77.31, 166.93 108.38 M166.93 108.38 C166.98 130.55, 154.34 140.11, 134.93 140.38 M166.93 108.38 C168.63 129.76, 154.34 139.99, 134.93 140.38 M134.93 140.38 C109.21 139.78, 79.94 138.79, 32 140.38 M134.93 140.38 C108.18 140.72, 81.34 141.41, 32 140.38 M32 140.38 C12.13 139.83, -1.28 129.7, 0 108.38 M32 140.38 C11.42 141.51, 0.94 130.36, 0 108.38 M0 108.38 C-1.6 86.15, 2.13 66.58, 0 32 M0 108.38 C0.46 83.44, 0.78 56.79, 0 32 M0 32 C1.69 11.98, 9.26 0.86, 32 0 M0 32 C-0.82 9.87, 11.04 1.79, 32 0" fill="none" stroke="#1e1e1e" stroke-width="2"></path></g><g transform="translate(241.76934814453125 211.359375) rotate(0 67.25994873046875 12.5)"><text direction="ltr" dominant-baseline="text-before-edge" fill="#1e1e1e" font-family="Virgil, Segoe UI Emoji" font-size="20px" style="white-space: pre;" text-anchor="middle" x="67.25994873046875" y="0">Chat Server 1</text></g><g stroke-linecap="round" transform="translate(221.095703125 365.36328125) rotate(0 83.466796875 70.19140625)"><path d="M32 0 C56.65 1.05, 82.98 -0.02, 134.93 0 M32 0 C57.38 -1.22, 82.42 0.22, 134.93 0 M134.93 0 C155.49 0.35, 165.75 11.04, 166.93 32 M134.93 0 C157.91 -1.55, 167.38 12.7, 166.93 32 M166.93 32 C167.63 59, 165.63 84.46, 166.93 108.38 M166.93 32 C166.84 56.51, 167.43 82.66, 166.93 108.38 M166.93 108.38 C165.78 129.34, 157.51 140.2, 134.93 140.38 M166.93 108.38 C165.59 130.18, 156.52 139.14, 134.93 140.38 M134.93 140.38 C96.01 142.09, 58.01 140.27, 32 140.38 M134.93 140.38 C106.26 141.38, 75.56 140.63, 32 140.38 M32 140.38 C11.64 139.51, 1.26 131.23, 0 108.38 M32 140.38 C12.19 138.94, -0.5 130.69, 0 108.38 M0 108.38 C0.38 81.14, 0.34 54.01, 0 32 M0 108.38 C0.25 83.85, 1.26 58.03, 0 32 M0 32 C-0.8 9.29, 9.25 -0.66, 32 0 M0 32 C-1.97 8.57, 11.74 -0.98, 32 0" fill="none" stroke="#1e1e1e" stroke-width="2"></path></g><g transform="translate(232.8925552368164 423.0546875) rotate(0 71.6699447631836 12.5)"><text direction="ltr" dominant-baseline="text-before-edge" fill="#1e1e1e" font-family="Virgil, Segoe UI Emoji" font-size="20px" style="white-space: pre;" text-anchor="middle" x="71.6699447631836" y="0">Chat Server 2</text></g><g stroke-linecap="round"><g transform="translate(139.2421875 517.62890625) rotate(0 34.111328125 -27.982421875)"><path d="M-1.07 -0.64 C10.38 -9.97, 56.28 -47.55, 67.64 -56.67 M0.56 1.63 C12.51 -7.49, 58.57 -45.67, 70.05 -55.5" fill="none" stroke="#1e1e1e" stroke-width="2"></path></g><g transform="translate(139.2421875 517.62890625) rotate(0 34.111328125 -27.982421875)"><path d="M14.27 -26.42 C9.81 -22.09, 6.47 -17.55, -1.07 -0.64 M14.27 -26.42 C8.2 -18.09, 4.18 -8.77, -1.07 -0.64" fill="none" stroke="#1e1e1e" stroke-width="2"></path></g><g transform="translate(139.2421875 517.62890625) rotate(0 34.111328125 -27.982421875)"><path d="M27.25 -10.53 C20.14 -9.67, 14.07 -8.48, -1.07 -0.64 M27.25 -10.53 C16.67 -7.85, 8.09 -4.1, -1.07 -0.64" fill="none" stroke="#1e1e1e" stroke-width="2"></path></g></g><mask></mask><g stroke-linecap="round"><g transform="translate(147.9375 337.60546875) rotate(0 29.267578125 -28.7421875)"><path d="M-0.81 0.74 C9.21 -9.08, 49.41 -48.34, 59.32 -58.08 M0.97 0.08 C10.96 -9.65, 49.29 -47.42, 58.78 -56.86" fill="none" stroke="#1e1e1e" stroke-width="2"></path></g><g transform="translate(147.9375 337.60546875) rotate(0 29.267578125 -28.7421875)"><path d="M12.17 -26.31 C10.54 -18.76, 5.27 -13.57, -0.81 0.74 M12.17 -26.31 C8.97 -17.84, 5.83 -11.63, -0.81 0.74" fill="none" stroke="#1e1e1e" stroke-width="2"></path></g><g transform="translate(147.9375 337.60546875) rotate(0 29.267578125 -28.7421875)"><path d="M26.52 -11.63 C21.43 -7.62, 12.8 -5.87, -0.81 0.74 M26.52 -11.63 C19.36 -7.27, 12.24 -5.13, -0.81 0.74" fill="none" stroke="#1e1e1e" stroke-width="2"></path></g></g><mask></mask><g stroke-linecap="round"><g transform="translate(142.46875 162.21484375) rotate(0 31.830078125 17.96875)"><path d="M0.38 -0.97 C11.07 5.05, 54.11 29.41, 64.58 35.66 M-0.89 1.14 C9.7 7.38, 53.6 31.49, 64.12 37.05" fill="none" stroke="#1e1e1e" stroke-width="2"></path></g><g transform="translate(142.46875 162.21484375) rotate(0 31.830078125 17.96875)"><path d="M34.44 32.65 C42.72 35.57, 53.77 34.77, 64.12 37.05 M34.44 32.65 C44.65 34.46, 55.43 35.05, 64.12 37.05" fill="none" stroke="#1e1e1e" stroke-width="2"></path></g><g transform="translate(142.46875 162.21484375) rotate(0 31.830078125 17.96875)"><path d="M44.21 14.61 C49.16 23.57, 56.95 28.8, 64.12 37.05 M44.21 14.61 C51.1 22.73, 58.48 29.61, 64.12 37.05" fill="none" stroke="#1e1e1e" stroke-width="2"></path></g></g><mask></mask><g transform="translate(91.34765625 10) rotate(0 233.2498779296875 12.5)"><text direction="ltr" dominant-baseline="text-before-edge" fill="#1e1e1e" font-family="Virgil, Segoe UI Emoji" font-size="20px" style="white-space: pre;" text-anchor="start" x="0" y="0">1. User A tries to send a message to B and C</text></g><g stroke-linecap="round"><g transform="translate(227.796875 44.55859375) rotate(0 -31.8203125 48.9296875)"><path d="M-0.88 0.66 C-10.22 5.92, -45.17 15.16, -55.53 31.46 C-65.89 47.76, -61.88 87.38, -63.05 98.47" fill="none" stroke="#1e1e1e" stroke-dasharray="8 10" stroke-width="2.5"></path></g><g transform="translate(227.796875 44.55859375) rotate(0 -31.8203125 48.9296875)"><path d="M-73 70.17 C-68.49 78.36, -64.39 90.71, -63.05 98.47" fill="none" stroke="#1e1e1e" stroke-width="2.5"></path></g><g transform="translate(227.796875 44.55859375) rotate(0 -31.8203125 48.9296875)"><path d="M-52.48 70.39 C-55.03 78.35, -57.99 90.63, -63.05 98.47" fill="none" stroke="#1e1e1e" stroke-width="2.5"></path></g></g><mask></mask><g stroke-linecap="round"><g transform="translate(489.09375 286.41796875) rotate(0 -149.3046875 24.05078125)"><path d="M-0.03 0.86 C-18.01 9.07, -58.66 42.99, -108.32 48.23 C-157.99 53.47, -266.26 34.94, -298.03 32.29" fill="none" stroke="#1e1e1e" stroke-dasharray="8 10" stroke-width="2.5"></path></g><g transform="translate(489.09375 286.41796875) rotate(0 -149.3046875 24.05078125)"><path d="M-268.8 25.55 C-275.11 25.59, -284 30.05, -298.03 32.29" fill="none" stroke="#1e1e1e" stroke-width="2.5"></path></g><g transform="translate(489.09375 286.41796875) rotate(0 -149.3046875 24.05078125)"><path d="M-271.3 45.91 C-276.77 40.61, -285.01 39.72, -298.03 32.29" fill="none" stroke="#1e1e1e" stroke-width="2.5"></path></g></g><mask></mask><g transform="translate(440.171875 246.38671875) rotate(0 144.21987915039062 12.5)"><text direction="ltr" dominant-baseline="text-before-edge" fill="#1e1e1e" font-family="Virgil, Segoe UI Emoji" font-size="20px" style="white-space: pre;" text-anchor="start" x="0" y="0">2. Message is delivered to B</text></g><g transform="translate(252.296875 552.71484375) rotate(0 176.62985229492188 25)"><text direction="ltr" dominant-baseline="text-before-edge" fill="#e03131" font-family="Virgil, Segoe UI Emoji" font-size="20px" style="white-space: pre;" text-anchor="start" x="0" y="0">3. Message can't be delivered to C</text><text direction="ltr" dominant-baseline="text-before-edge" fill="#e03131" font-family="Virgil, Segoe UI Emoji" font-size="20px" style="white-space: pre;" text-anchor="start" x="0" y="25"> because not connected to Server 1</text></g><g stroke-linecap="round"><g transform="translate(241.640625 562.63671875) rotate(0 -29.79296875 -27.783203125)"><path d="M-0.8 -0.96 C-7.71 -1.08, -31.57 7.53, -41.2 -1.38 C-50.83 -10.29, -55.49 -45.46, -58.57 -54.42" fill="none" stroke="#e03131" stroke-dasharray="8 10" stroke-width="2.5"></path></g><g transform="translate(241.640625 562.63671875) rotate(0 -29.79296875 -27.783203125)"><path d="M-43.01 -30.9 C-49.49 -37.32, -51.89 -44.44, -58.57 -54.42" fill="none" stroke="#e03131" stroke-width="2.5"></path></g><g transform="translate(241.640625 562.63671875) rotate(0 -29.79296875 -27.783203125)"><path d="M-61.77 -26.4 C-62.19 -34.14, -58.55 -42.71, -58.57 -54.42" fill="none" stroke="#e03131" stroke-width="2.5"></path></g></g><mask></mask></svg>