<svg height="346.54296875" version="1.1" viewbox="0 0 669.828125 346.54296875" width="669.828125" xmlns="http://www.w3.org/2000/svg">
<!-- svg-source:excalidraw -->
<!-- payload-type:application/vnd.excalidraw+json --><!-- payload-version:2 -->
<defs>
<style class="style-fonts">
</style>
</defs>
<rect fill="#ffffff" height="346.54296875" width="669.828125" x="0" y="0"></rect><g stroke-linecap="round" transform="translate(10 177.1328125) rotate(0 79.794921875 79.705078125)"><path d="M67.35 1.77 C77.46 -1.1, 89.79 0.69, 100.01 3.32 C110.24 5.95, 120.13 10.88, 128.68 17.54 C137.23 24.2, 146.15 33.78, 151.31 43.26 C156.48 52.74, 159.29 63.87, 159.69 74.41 C160.09 84.96, 157.59 96.51, 153.72 106.52 C149.85 116.53, 143.8 126.68, 136.46 134.48 C129.13 142.27, 119.76 149.08, 109.7 153.29 C99.64 157.49, 87.03 160.15, 76.11 159.69 C65.19 159.22, 53.87 155.18, 44.16 150.48 C34.46 145.78, 24.64 139.72, 17.87 131.49 C11.1 123.26, 6.23 111.6, 3.53 101.08 C0.84 90.55, 0.22 78.85, 1.7 68.32 C3.18 57.8, 6.71 46.98, 12.4 37.93 C18.08 28.88, 25.3 20.35, 35.81 14.02 C46.32 7.68, 67.25 1.81, 75.46 -0.07 C83.67 -1.95, 85 1.22, 85.04 2.71 M51.19 6.23 C60.24 1.38, 74.21 -1.86, 85.17 -1.33 C96.12 -0.81, 107.4 4, 116.92 9.38 C126.44 14.77, 135.46 22.38, 142.3 30.99 C149.14 39.59, 155.46 50.66, 157.94 61.02 C160.43 71.38, 159.32 82.46, 157.22 93.15 C155.12 103.85, 151.12 116.11, 145.33 125.18 C139.55 134.25, 131.35 142.19, 122.52 147.56 C113.7 152.94, 102.92 156.05, 92.4 157.44 C81.88 158.84, 70.22 158.75, 59.4 155.91 C48.58 153.07, 35.82 147.02, 27.49 140.42 C19.16 133.82, 13.76 125.97, 9.42 116.31 C5.09 106.65, 2.2 93.33, 1.46 82.44 C0.71 71.54, 1.4 60.79, 4.96 50.96 C8.51 41.13, 15 31.19, 22.8 23.45 C30.59 15.71, 46.63 7.54, 51.71 4.53 C56.78 1.52, 52.67 4.22, 53.23 5.42" fill="none" stroke="#1e1e1e" stroke-width="1"></path></g><g transform="translate(62.82141897875704 244.47788938780894) rotate(0 27.049972534179688 12.5)"><text direction="ltr" dominant-baseline="text-before-edge" fill="#1e1e1e" font-family="Virgil, Segoe UI Emoji" font-size="20px" style="white-space: pre;" text-anchor="middle" x="27.049972534179688" y="0">Client</text></g><g stroke-linecap="round" transform="translate(262.59765625 187.09765625) rotate(0 78.412109375 65.912109375)"><path d="M32 0 C64.55 -0.06, 101.19 0.38, 124.82 0 M32 0 C61.4 0.42, 91.61 1.28, 124.82 0 M124.82 0 C145.18 -0.9, 157.51 10.17, 156.82 32 M124.82 0 C144.63 -1.18, 158.89 11.97, 156.82 32 M156.82 32 C157.47 52.92, 157.93 71.73, 156.82 99.82 M156.82 32 C157.67 51.76, 157.5 71.29, 156.82 99.82 M156.82 99.82 C158.6 120.23, 145.1 133.47, 124.82 131.82 M156.82 99.82 C157.38 118.87, 146.39 132.3, 124.82 131.82 M124.82 131.82 C98.69 130.69, 69.75 131.13, 32 131.82 M124.82 131.82 C89.17 131.43, 52.95 131.79, 32 131.82 M32 131.82 C8.75 130.89, 1.47 122.71, 0 99.82 M32 131.82 C12.8 130.9, -0.99 122.07, 0 99.82 M0 99.82 C-0.94 85.7, -1.75 70.13, 0 32 M0 99.82 C0.69 82.2, 0.14 66.03, 0 32 M0 32 C1.63 11.17, 11.56 0.12, 32 0 M0 32 C0.07 10.87, 10.88 0, 32 0" fill="none" stroke="#1e1e1e" stroke-width="1"></path></g><g transform="translate(281.4598159790039 240.509765625) rotate(0 59.549949645996094 12.5)"><text direction="ltr" dominant-baseline="text-before-edge" fill="#1e1e1e" font-family="Virgil, Segoe UI Emoji" font-size="20px" style="white-space: pre;" text-anchor="middle" x="59.549949645996094" y="0">Chat Server</text></g><g stroke-linecap="round" transform="translate(483.171875 188.8046875) rotate(0 88.328125 62.013671875)"><path d="M31.01 0 C70.08 -1.03, 106.31 -2.4, 145.65 0 M31.01 0 C60.13 -0.95, 90.56 -0.75, 145.65 0 M145.65 0 C164.99 -1.02, 178.45 11.47, 176.66 31.01 M145.65 0 C165.94 1.97, 177.02 10.41, 176.66 31.01 M176.66 31.01 C176.72 54.49, 177.7 80.65, 176.66 93.02 M176.66 31.01 C178.04 47.64, 176.63 66.02, 176.66 93.02 M176.66 93.02 C177.14 111.7, 166.52 124.44, 145.65 124.03 M176.66 93.02 C176.6 114.9, 167.64 125.76, 145.65 124.03 M145.65 124.03 C122.62 123.29, 96.7 124.59, 31.01 124.03 M145.65 124.03 C118.79 123.13, 94.58 124.37, 31.01 124.03 M31.01 124.03 C12.19 123.22, -0.86 114.49, 0 93.02 M31.01 124.03 C8.54 125.09, -0.42 112.98, 0 93.02 M0 93.02 C-0.56 71.16, 1.13 51.19, 0 31.01 M0 93.02 C0.81 78.95, 0.44 64.44, 0 31.01 M0 31.01 C0.06 10.52, 10.52 0, 31.01 0 M0 31.01 C-1.47 10.87, 11.57 1.73, 31.01 0" fill="none" stroke="#1e1e1e" stroke-width="1"></path></g><g transform="translate(522.0600357055664 238.318359375) rotate(0 49.439964294433594 12.5)"><text direction="ltr" dominant-baseline="text-before-edge" fill="#1e1e1e" font-family="Virgil, Segoe UI Emoji" font-size="20px" style="white-space: pre;" text-anchor="middle" x="49.439964294433594" y="0">Database</text></g><g stroke-linecap="round"><g transform="translate(176.4226481908961 257.28799503783785) rotate(0 30.68516027955195 0.060688685384945984)"><path d="M-1.04 -0.5 C9.04 -0.21, 49.96 0.63, 60.27 0.64 M0.61 -1.81 C11.07 -1.79, 52.55 -1.61, 62.4 -1.21" fill="none" stroke="#1e1e1e" stroke-width="1"></path></g><g transform="translate(176.4226481908961 257.28799503783785) rotate(0 30.68516027955195 0.060688685384945984)"><path d="M34.02 8.51 C41.27 4.18, 50.97 2.3, 62.4 -1.21 M34.02 8.51 C40.56 5.59, 49.36 4.19, 62.4 -1.21" fill="none" stroke="#1e1e1e" stroke-width="1"></path></g><g transform="translate(176.4226481908961 257.28799503783785) rotate(0 30.68516027955195 0.060688685384945984)"><path d="M34.41 -12.01 C41.37 -10.56, 50.96 -6.65, 62.4 -1.21 M34.41 -12.01 C40.93 -9.7, 49.63 -5.86, 62.4 -1.21" fill="none" stroke="#1e1e1e" stroke-width="1"></path></g></g><mask></mask><g stroke-linecap="round"><g transform="translate(432.296875 254.17107272181852) rotate(0 15.849609375000057 -0.4425150242687721)"><path d="M-0.27 -0.25 C5.13 -0.46, 26.62 -0.87, 31.89 -1.02 M0.59 0.82 C5.98 0.67, 26.24 -0.14, 31.55 -0.39" fill="none" stroke="#1e1e1e" stroke-width="1"></path></g><g transform="translate(432.296875 254.17107272181852) rotate(0 15.849609375000057 -0.4425150242687721)"><path d="M16.9 5.67 C19.58 4.71, 22.79 2.65, 31.55 -0.39 M16.9 5.67 C20.45 4.46, 24.23 2.62, 31.55 -0.39" fill="none" stroke="#1e1e1e" stroke-width="1"></path></g><g transform="translate(432.296875 254.17107272181852) rotate(0 15.849609375000057 -0.4425150242687721)"><path d="M16.43 -5.17 C19.23 -3.87, 22.54 -3.67, 31.55 -0.39 M16.43 -5.17 C20.15 -3.68, 24.04 -2.82, 31.55 -0.39" fill="none" stroke="#1e1e1e" stroke-width="1"></path></g></g><mask></mask><g stroke-linecap="round" transform="translate(264.5859375 10) rotate(0 76.556640625 38.82421875)"><path d="M19.41 0 C47.63 -1.72, 75.81 1.4, 133.7 0 M19.41 0 C60.32 -0.95, 101.76 -0.72, 133.7 0 M133.7 0 C147.92 -0.1, 152.75 7.36, 153.11 19.41 M133.7 0 C148.88 -0.56, 154.96 4.83, 153.11 19.41 M153.11 19.41 C154.57 34.99, 150.94 49.82, 153.11 58.24 M153.11 19.41 C153.68 32.62, 152.27 44.42, 153.11 58.24 M153.11 58.24 C151.88 73, 146.61 78.4, 133.7 77.65 M153.11 58.24 C154.58 69.47, 148.27 76.78, 133.7 77.65 M133.7 77.65 C111.91 80.34, 86.21 77.63, 19.41 77.65 M133.7 77.65 C94.69 77.87, 56.52 77.46, 19.41 77.65 M19.41 77.65 C6.88 76.64, -0.39 71.86, 0 58.24 M19.41 77.65 C7.75 76.06, 0.03 71.36, 0 58.24 M0 58.24 C0.02 43.49, 0.08 28.8, 0 19.41 M0 58.24 C0.78 47.34, -0.68 35.68, 0 19.41 M0 19.41 C1.95 5.09, 5.57 -1.45, 19.41 0 M0 19.41 C-1.81 6.02, 7.09 0.43, 19.41 0" fill="none" stroke="#1e1e1e" stroke-width="1"></path></g><g transform="translate(276.9026336669922 36.32421875) rotate(0 64.23994445800781 12.5)"><text direction="ltr" dominant-baseline="text-before-edge" fill="#1e1e1e" font-family="Virgil, Segoe UI Emoji" font-size="20px" style="white-space: pre;" text-anchor="middle" x="64.23994445800781" y="0">Blob Storage</text></g><g stroke-linecap="round"><g transform="translate(334.3698334014357 173.20703125) rotate(0 0.9609166007068097 -36.927734375)"><path d="M-0.2 1.03 C-0.03 -11.39, 1.59 -61.39, 2.11 -73.82 M-1.76 0.52 C-1.82 -11.74, 0.52 -60.16, 1.26 -72.26" fill="none" stroke="#1e1e1e" stroke-width="1"></path></g><g transform="translate(334.3698334014357 173.20703125) rotate(0 0.9609166007068097 -36.927734375)"><path d="M10.02 -43.57 C8.16 -54.45, 3.09 -64.25, 1.26 -72.26 M10.02 -43.57 C6.79 -52.49, 5.09 -62.53, 1.26 -72.26" fill="none" stroke="#1e1e1e" stroke-width="1"></path></g><g transform="translate(334.3698334014357 173.20703125) rotate(0 0.9609166007068097 -36.927734375)"><path d="M-10.48 -44.65 C-4.34 -55.08, -1.42 -64.46, 1.26 -72.26 M-10.48 -44.65 C-7.01 -53.21, -2.03 -62.9, 1.26 -72.26" fill="none" stroke="#1e1e1e" stroke-width="1"></path></g></g><mask></mask><g stroke-linecap="round"><g transform="translate(135.8686274082857 171.14290103641878) rotate(0 55.22584254585715 -44.25432041708774)"><path d="M0.19 0.04 C18.8 -14.83, 92.96 -73.43, 111.47 -88.2 M-1.17 -0.99 C17.39 -15.72, 92.38 -75.77, 111.05 -90.15" fill="none" stroke="#1e1e1e" stroke-width="1"></path></g><g transform="translate(135.8686274082857 171.14290103641878) rotate(0 55.22584254585715 -44.25432041708774)"><path d="M95.26 -64.65 C99.58 -70.21, 104.52 -77.85, 111.05 -90.15 M95.26 -64.65 C100.93 -72.48, 105.42 -80.47, 111.05 -90.15" fill="none" stroke="#1e1e1e" stroke-width="1"></path></g><g transform="translate(135.8686274082857 171.14290103641878) rotate(0 55.22584254585715 -44.25432041708774)"><path d="M82.56 -80.77 C90.62 -81.78, 99.15 -84.85, 111.05 -90.15 M82.56 -80.77 C91.95 -83.91, 100.18 -87.14, 111.05 -90.15" fill="none" stroke="#1e1e1e" stroke-width="1"></path></g></g><mask></mask><g transform="translate(81.171875 92.81640625) rotate(0 57.28996276855469 12.5)"><text direction="ltr" dominant-baseline="text-before-edge" fill="#1e1e1e" font-family="Virgil, Segoe UI Emoji" font-size="20px" style="white-space: pre;" text-anchor="start" x="0" y="0">Read Media</text></g><g transform="translate(353.73828125 130.1328125) rotate(0 57.74995422363281 12.5)"><text direction="ltr" dominant-baseline="text-before-edge" fill="#1e1e1e" font-family="Virgil, Segoe UI Emoji" font-size="20px" style="white-space: pre;" text-anchor="start" x="0" y="0">Write Media</text></g></svg>