<svg height="698.82421875" version="1.1" viewbox="0 0 687.5981597900391 698.82421875" width="687.5981597900391" xmlns="http://www.w3.org/2000/svg">
<!-- svg-source:excalidraw -->
<!-- payload-type:application/vnd.excalidraw+json --><!-- payload-version:2 -->
<defs>
<style class="style-fonts">
</style>
</defs>
<rect fill="#ffffff" height="698.82421875" width="687.5981597900391" x="0" y="0"></rect><g stroke-linecap="round" transform="translate(15.115737915039062 89.984375) rotate(0 84.779296875 81.27734375)"><path d="M32 0 C59.04 3.08, 84.6 1.68, 137.56 0 C157.96 2.52, 166.7 10.93, 169.56 32 C170.18 54.9, 170.38 85.55, 169.56 130.55 C171.03 149.73, 161.4 163.39, 137.56 162.55 C98.24 165.51, 63.43 162.84, 32 162.55 C11.48 160.43, -0.39 152.71, 0 130.55 C-0.04 110.77, 1.12 90.15, 0 32 C-2.79 10.51, 7.16 -2.93, 32 0" fill="#ffffff" stroke="none" stroke-width="0"></path><path d="M32 0 C63.93 -1.11, 95.76 2.01, 137.56 0 M32 0 C74.07 -0.52, 115.65 0.68, 137.56 0 M137.56 0 C158.35 -1.06, 170.76 10.69, 169.56 32 M137.56 0 C159.73 -1.31, 169.55 9.41, 169.56 32 M169.56 32 C168.98 59.7, 169.12 91.03, 169.56 130.55 M169.56 32 C169.48 61.71, 170.89 90.17, 169.56 130.55 M169.56 130.55 C171.1 150.92, 157.7 160.85, 137.56 162.55 M169.56 130.55 C167.66 150.16, 157.36 161.42, 137.56 162.55 M137.56 162.55 C108.02 161.84, 77.76 164.41, 32 162.55 M137.56 162.55 C112.27 162.83, 88.17 162.34, 32 162.55 M32 162.55 C11.79 164.31, 0.13 152.05, 0 130.55 M32 162.55 C9.35 164.75, -1.72 150.86, 0 130.55 M0 130.55 C-2.05 110.8, -1.33 88.61, 0 32 M0 130.55 C-1.2 95.2, -0.27 62.32, 0 32 M0 32 C-1.15 11.73, 9.06 1.73, 32 0 M0 32 C-2.22 8.71, 8.39 -1.8, 32 0" fill="none" stroke="#1e1e1e" stroke-width="2"></path></g><g transform="translate(70.22904968261719 153.76171875) rotate(0 29.665985107421875 17.5)"><text direction="ltr" dominant-baseline="text-before-edge" fill="#1e1e1e" font-family="Virgil, Segoe UI Emoji" font-size="28px" style="white-space: pre;" text-anchor="middle" x="29.665985107421875" y="0">Main</text></g><g transform="translate(10 10) rotate(0 95.93995666503906 22.5)"><text direction="ltr" dominant-baseline="text-before-edge" fill="#1e1e1e" font-family="Virgil, Segoe UI Emoji" font-size="36px" style="white-space: pre;" text-anchor="middle" x="95.93995666503906" y="0">Single-Node</text></g><g transform="translate(380.8329772949219 10.12109375) rotate(0 90.89994812011719 22.5)"><text direction="ltr" dominant-baseline="text-before-edge" fill="#1e1e1e" font-family="Virgil, Segoe UI Emoji" font-size="36px" style="white-space: pre;" text-anchor="middle" x="90.89994812011719" y="0">Replicated</text></g><g stroke-linecap="round" transform="translate(303.71925354003906 92.66015625) rotate(0 84.779296875 81.27734375)"><path d="M32 0 C69.79 -2.5, 106.87 1.65, 137.56 0 C155.67 1.98, 170.85 12.14, 169.56 32 C172.98 52.07, 169.87 78.05, 169.56 130.55 C173.01 153.92, 159.66 163.37, 137.56 162.55 C109.33 166.55, 90.17 164.71, 32 162.55 C12.81 165.43, 3.45 149.1, 0 130.55 C-0.72 99.98, 1.46 72.85, 0 32 C-2.93 8.8, 13.68 1.92, 32 0" fill="#ffffff" stroke="none" stroke-width="0"></path><path d="M32 0 C59.32 -1.17, 90.04 -0.47, 137.56 0 M32 0 C58.45 -0.58, 84.16 -0.56, 137.56 0 M137.56 0 C158.71 -1.87, 169.17 11.01, 169.56 32 M137.56 0 C157.78 0.55, 171.51 10.61, 169.56 32 M169.56 32 C170.28 67.51, 168.51 100.9, 169.56 130.55 M169.56 32 C168.14 56.05, 168.3 81.1, 169.56 130.55 M169.56 130.55 C169.26 152.05, 159.41 163.11, 137.56 162.55 M169.56 130.55 C168.42 152.33, 160.71 161.09, 137.56 162.55 M137.56 162.55 C111.63 163.09, 85.1 163.29, 32 162.55 M137.56 162.55 C96.05 163.6, 54.95 162.19, 32 162.55 M32 162.55 C8.99 163.81, -0.76 150.46, 0 130.55 M32 162.55 C12.46 161.74, 0.78 153.02, 0 130.55 M0 130.55 C-1.82 97.55, 1.23 63.02, 0 32 M0 130.55 C-0.17 94.9, -0.2 60.16, 0 32 M0 32 C-1.04 12.28, 10.52 0.49, 32 0 M0 32 C1.88 10.85, 11.65 -0.6, 32 0" fill="none" stroke="#1e1e1e" stroke-width="2"></path></g><g transform="translate(358.8325653076172 156.4375) rotate(0 29.665985107421875 17.5)"><text direction="ltr" dominant-baseline="text-before-edge" fill="#1e1e1e" font-family="Virgil, Segoe UI Emoji" font-size="28px" style="white-space: pre;" text-anchor="middle" x="29.665985107421875" y="0">Main</text></g><g stroke-linecap="round" transform="translate(508.03956604003906 90.8515625) rotate(0 84.779296875 81.27734375)"><path d="M32 0 C53.52 1.04, 82.78 0.53, 137.56 0 C156.73 2.51, 170.4 12.85, 169.56 32 C172.55 53.8, 169.87 72.35, 169.56 130.55 C167.43 151.5, 159.72 159.76, 137.56 162.55 C97.59 166.34, 56.79 160.67, 32 162.55 C10.51 159.04, -2.93 149.44, 0 130.55 C-2.79 103.09, 3.14 81.29, 0 32 C-0.62 11.54, 7.71 0.63, 32 0" fill="#ffffff" stroke="none" stroke-width="0"></path><path d="M32 0 C56.09 1.48, 82.32 1.01, 137.56 0 M32 0 C57.58 -0.36, 83.14 0.75, 137.56 0 M137.56 0 C157.93 0.48, 171.25 10.62, 169.56 32 M137.56 0 C159.85 -0.05, 168.43 11.52, 169.56 32 M169.56 32 C168.09 69.41, 167.35 107.56, 169.56 130.55 M169.56 32 C168.75 54.26, 169.16 76.63, 169.56 130.55 M169.56 130.55 C168.57 152.27, 160.48 161.28, 137.56 162.55 M169.56 130.55 C168.23 152.89, 158.05 162.13, 137.56 162.55 M137.56 162.55 C102.77 163.28, 64.64 162, 32 162.55 M137.56 162.55 C94.97 162.71, 53.68 161.37, 32 162.55 M32 162.55 C12.23 161.84, 0.68 152.87, 0 130.55 M32 162.55 C11.51 162.4, -1.92 149.71, 0 130.55 M0 130.55 C0.49 98.47, 1.15 67.67, 0 32 M0 130.55 C0.45 110.18, 0.9 88.44, 0 32 M0 32 C1.64 10.82, 11.52 -0.52, 32 0 M0 32 C1.61 8.84, 10.84 -0.8, 32 0" fill="none" stroke="#1e1e1e" stroke-width="2"></path></g><g transform="translate(525.436897277832 154.62890625) rotate(0 67.38196563720703 17.5)"><text direction="ltr" dominant-baseline="text-before-edge" fill="#1e1e1e" font-family="Virgil, Segoe UI Emoji" font-size="28px" style="white-space: pre;" text-anchor="middle" x="67.38196563720703" y="0">Secondary</text></g><g stroke-linecap="round"><g transform="translate(474.80714416503906 172.98046875) rotate(0 12.5546875 0.126953125)"><path d="M0.2 -0.31 C4.33 -0.32, 20.96 -0.05, 25.11 -0.05 M-0.36 0.72 C3.67 0.77, 20.5 0.61, 24.67 0.5" fill="none" stroke="#1e1e1e" stroke-width="2"></path></g><g transform="translate(474.80714416503906 172.98046875) rotate(0 12.5546875 0.126953125)"><path d="M12.95 4.98 C16.81 3.35, 21.05 1.68, 24.67 0.5 M12.95 4.98 C15.22 4.12, 18.07 3.11, 24.67 0.5" fill="none" stroke="#1e1e1e" stroke-width="2"></path></g><g transform="translate(474.80714416503906 172.98046875) rotate(0 12.5546875 0.126953125)"><path d="M12.81 -3.6 C16.72 -2.15, 21.01 -0.73, 24.67 0.5 M12.81 -3.6 C15.11 -2.69, 17.98 -1.92, 24.67 0.5" fill="none" stroke="#1e1e1e" stroke-width="2"></path></g></g><mask></mask><g transform="translate(389.8873291015625 293.203125) rotate(0 64.07997131347656 22.5)"><text direction="ltr" dominant-baseline="text-before-edge" fill="#1e1e1e" font-family="Virgil, Segoe UI Emoji" font-size="36px" style="white-space: pre;" text-anchor="middle" x="64.07997131347656" y="0">Cluster</text></g><g stroke-linecap="round" transform="translate(318.95362854003906 357.9609375) rotate(0 49.41622110347478 47.375)"><path d="M23.69 0 C39.14 -1.49, 60.5 2.89, 75.14 0 C92.97 0.77, 99.65 5.77, 98.83 23.69 C102.59 40.87, 100.75 53.22, 98.83 71.06 C101.71 90.3, 88.15 94.59, 75.14 94.75 C63.28 93.85, 54.86 91.19, 23.69 94.75 C6.03 97.76, 1.92 86.23, 0 71.06 C0.06 56.37, -1.3 37.06, 0 23.69 C1.19 8.95, 8.65 1.68, 23.69 0" fill="#ffffff" stroke="none" stroke-width="0"></path><path d="M23.69 0 C37.24 -0.34, 54.85 -0.92, 75.14 0 M23.69 0 C40.77 -0.01, 56.52 0.38, 75.14 0 M75.14 0 C92.77 -1.02, 100.37 6.93, 98.83 23.69 M75.14 0 C89.56 -1.96, 96.93 6.17, 98.83 23.69 M98.83 23.69 C98.76 35.27, 99.16 44.82, 98.83 71.06 M98.83 23.69 C98.63 39.24, 98.84 53.75, 98.83 71.06 M98.83 71.06 C99.76 85.52, 92.06 96.51, 75.14 94.75 M98.83 71.06 C98.98 87.04, 89.62 96.95, 75.14 94.75 M75.14 94.75 C64.8 93.56, 50.53 95.88, 23.69 94.75 M75.14 94.75 C61.9 94.93, 47.09 94.06, 23.69 94.75 M23.69 94.75 C8.08 95.92, -1.15 87.92, 0 71.06 M23.69 94.75 C6.05 96.74, -2.22 84.9, 0 71.06 M0 71.06 C1.99 61.39, 0.86 53.65, 0 23.69 M0 71.06 C0.5 55.68, -0.13 41.54, 0 23.69 M0 23.69 C-1.31 6.1, 8.89 -1.79, 23.69 0 M0 23.69 C1.27 8.72, 8.84 -1.38, 23.69 0" fill="none" stroke="#1e1e1e" stroke-width="2"></path></g><g transform="translate(341.1126551244709 385.850083406082) rotate(0 27.25719451904297 19.485854093917993)"><text direction="ltr" dominant-baseline="text-before-edge" fill="#1e1e1e" font-family="Virgil, Segoe UI Emoji" font-size="15.588683275134402px" style="white-space: pre;" text-anchor="middle" x="27.25719451904297" y="0">Main</text><text direction="ltr" dominant-baseline="text-before-edge" fill="#1e1e1e" font-family="Virgil, Segoe UI Emoji" font-size="15.588683275134402px" style="white-space: pre;" text-anchor="middle" x="27.25719451904297" y="19.485854093918004">(0-100)</text></g><g stroke-linecap="round" transform="translate(320.4104543115643 476.4140625) rotate(0 49.41622110347478 47.375)"><path d="M23.69 0 C39.83 -0.12, 52.72 -3.01, 75.14 0 C90.54 0.83, 96.04 11.46, 98.83 23.69 C102.12 45.94, 96.45 61.14, 98.83 71.06 C95.32 83.92, 88.49 93.3, 75.14 94.75 C58.23 97.01, 46.98 93.37, 23.69 94.75 C8.77 91.79, 0.63 86.21, 0 71.06 C1.67 57.02, 1.23 42.55, 0 23.69 C0.33 5.04, 4.74 -1.18, 23.69 0" fill="#ffffff" stroke="none" stroke-width="0"></path><path d="M23.69 0 C38.6 1.94, 52.52 1.08, 75.14 0 M23.69 0 C39.92 -0.7, 55.1 -0.67, 75.14 0 M75.14 0 C89.74 -1.7, 97.18 6.4, 98.83 23.69 M75.14 0 C89.41 -1.14, 98.49 8.08, 98.83 23.69 M98.83 23.69 C99.35 40.71, 97.69 53.41, 98.83 71.06 M98.83 23.69 C99.12 39.29, 99.22 57.1, 98.83 71.06 M98.83 71.06 C98.96 87.02, 89.79 96.66, 75.14 94.75 M98.83 71.06 C97.11 85.83, 89.01 96.19, 75.14 94.75 M75.14 94.75 C60.96 95.83, 49.17 95.89, 23.69 94.75 M75.14 94.75 C60.15 94.85, 44.4 94.79, 23.69 94.75 M23.69 94.75 C6.29 96.48, -1.93 85.15, 0 71.06 M23.69 94.75 C5.62 92.95, -1.2 88.71, 0 71.06 M0 71.06 C0.04 58.05, -0.64 44.73, 0 23.69 M0 71.06 C-0.69 59.72, 0.46 49.27, 0 23.69 M0 23.69 C1.1 8.62, 8.72 -1.2, 23.69 0 M0 23.69 C1.61 8.43, 9.29 -2.29, 23.69 0" fill="none" stroke="#1e1e1e" stroke-width="2"></path></g><g transform="translate(334.9119186401368 504.303208406082) rotate(0 34.914756774902344 19.485854093917993)"><text direction="ltr" dominant-baseline="text-before-edge" fill="#1e1e1e" font-family="Virgil, Segoe UI Emoji" font-size="15.588683275134402px" style="white-space: pre;" text-anchor="middle" x="34.914756774902344" y="0">Main</text><text direction="ltr" dominant-baseline="text-before-edge" fill="#1e1e1e" font-family="Virgil, Segoe UI Emoji" font-size="15.588683275134402px" style="white-space: pre;" text-anchor="middle" x="34.914756774902344" y="19.485854093918004">(101-200)</text></g><g stroke-linecap="round" transform="translate(321.8245168115643 594.07421875) rotate(0 49.41622110347478 47.375)"><path d="M23.69 0 C39.84 1.37, 53.98 4.11, 75.14 0 C94.43 1.72, 100.97 10.78, 98.83 23.69 C94.66 39.5, 95.72 59.73, 98.83 71.06 C98.56 87.4, 88.01 92.88, 75.14 94.75 C56.28 91.63, 36.29 93.95, 23.69 94.75 C8.57 92.75, -3.28 88.05, 0 71.06 C0.15 52.61, -3.34 38.69, 0 23.69 C1.51 8.81, 7.59 -2.76, 23.69 0" fill="#ffffff" stroke="none" stroke-width="0"></path><path d="M23.69 0 C43.44 -1.19, 64.02 1.62, 75.14 0 M23.69 0 C35.9 -0.6, 48.48 -0.5, 75.14 0 M75.14 0 C89.61 -0.99, 98.53 8.06, 98.83 23.69 M75.14 0 C91.53 0.64, 97.69 8.34, 98.83 23.69 M98.83 23.69 C99.4 40.92, 98.16 60.54, 98.83 71.06 M98.83 23.69 C99.16 34.81, 98.52 46.73, 98.83 71.06 M98.83 71.06 C97.34 85.96, 89.26 96, 75.14 94.75 M98.83 71.06 C97.96 85.21, 92.73 93.93, 75.14 94.75 M75.14 94.75 C57.83 93.27, 38.89 95.12, 23.69 94.75 M75.14 94.75 C55.91 95.89, 37.31 94.17, 23.69 94.75 M23.69 94.75 C5.92 93.18, -1.04 88.47, 0 71.06 M23.69 94.75 C7.73 95.32, 1.88 87.04, 0 71.06 M0 71.06 C-1.47 54.96, -0.58 37.26, 0 23.69 M0 71.06 C0.32 61.46, 0.18 50.53, 0 23.69 M0 23.69 C1.4 8.36, 9.11 -1.99, 23.69 0 M0 23.69 C-0.6 7.1, 10.1 1.3, 23.69 0" fill="none" stroke="#1e1e1e" stroke-width="2"></path></g><g transform="translate(333.13208007812506 621.963364656082) rotate(0 38.10865783691406 19.48585409391802)"><text direction="ltr" dominant-baseline="text-before-edge" fill="#1e1e1e" font-family="Virgil, Segoe UI Emoji" font-size="15.588683275134402px" style="white-space: pre;" text-anchor="middle" x="38.10865783691406" y="0">Main</text><text direction="ltr" dominant-baseline="text-before-edge" fill="#1e1e1e" font-family="Virgil, Segoe UI Emoji" font-size="15.588683275134402px" style="white-space: pre;" text-anchor="middle" x="38.10865783691406" y="19.485854093918004">(201-300)</text></g><g stroke-linecap="round" transform="translate(472.5668070508016 357.892578125) rotate(0 49.41622110347481 47.375)"><path d="M23.69 0 C43.8 0.8, 59.07 1.96, 75.14 0 C94.38 -2.79, 98.67 4.38, 98.83 23.69 C97.98 34.59, 95.32 42.52, 98.83 71.06 C101.84 88.78, 90.31 95.62, 75.14 94.75 C64.61 92.59, 49.45 95.78, 23.69 94.75 C8.95 95.5, 1.68 87.19, 0 71.06 C2.26 61.52, 0.44 47.39, 0 23.69 C0.74 9.43, 5.7 -0.52, 23.69 0" fill="#ffffff" stroke="none" stroke-width="0"></path><path d="M23.69 0 C35.59 1.07, 48.57 -1.67, 75.14 0 M23.69 0 C34.08 -0.11, 45.65 0.47, 75.14 0 M75.14 0 C91.45 0.56, 97.84 8.28, 98.83 23.69 M75.14 0 C92.76 -1.47, 97.5 8.89, 98.83 23.69 M98.83 23.69 C97.41 37.29, 100.5 48.78, 98.83 71.06 M98.83 23.69 C97.81 37.84, 97.72 53.51, 98.83 71.06 M98.83 71.06 C98.07 85.42, 92.5 94.04, 75.14 94.75 M98.83 71.06 C99.61 87.98, 91.78 94.59, 75.14 94.75 M75.14 94.75 C65.17 93.65, 53.93 93.2, 23.69 94.75 M75.14 94.75 C54.27 93.53, 34.85 95.12, 23.69 94.75 M23.69 94.75 C7.75 95.24, 1.64 87.01, 0 71.06 M23.69 94.75 C8.88 94.15, 1.61 85.03, 0 71.06 M0 71.06 C-1.63 57.49, -1.63 43.04, 0 23.69 M0 71.06 C0.5 55.38, 0.41 38.23, 0 23.69 M0 23.69 C-0.52 7.21, 9.81 1.13, 23.69 0 M0 23.69 C0.49 8.42, 6.54 -0.25, 23.69 0" fill="none" stroke="#1e1e1e" stroke-width="2"></path></g><g transform="translate(484.48981068601466 385.781724031082) rotate(0 37.49321746826169 19.485854093917993)"><text direction="ltr" dominant-baseline="text-before-edge" fill="#1e1e1e" font-family="Virgil, Segoe UI Emoji" font-size="15.588683275134402px" style="white-space: pre;" text-anchor="middle" x="37.49321746826172" y="0">Secondary</text><text direction="ltr" dominant-baseline="text-before-edge" fill="#1e1e1e" font-family="Virgil, Segoe UI Emoji" font-size="15.588683275134402px" style="white-space: pre;" text-anchor="middle" x="37.49321746826172" y="19.485854093918004">(0-100)</text></g><g stroke-linecap="round" transform="translate(473.4103515723268 476.345703125) rotate(0 49.41622110347481 47.375)"><path d="M23.69 0 C45.03 -3.53, 59.31 -4.25, 75.14 0 C88 -2.45, 97.38 7.62, 98.83 23.69 C101.15 40.55, 97.51 54.43, 98.83 71.06 C95.87 87.48, 90.3 95.42, 75.14 94.75 C63.61 95.81, 51.67 95.39, 23.69 94.75 C5.04 91.59, -1.18 88.36, 0 71.06 C0.81 57.18, -2.12 39.71, 0 23.69 C3.32 5.7, 9.48 -2.11, 23.69 0" fill="#ffffff" stroke="none" stroke-width="0"></path><path d="M23.69 0 C41.39 -1.34, 60.99 -1.02, 75.14 0 M23.69 0 C36.84 0.24, 48.98 0.15, 75.14 0 M75.14 0 C92.52 -1.28, 97.68 8.76, 98.83 23.69 M75.14 0 C90.1 -0.42, 99.89 6.36, 98.83 23.69 M98.83 23.69 C99.41 39.41, 101.16 55.94, 98.83 71.06 M98.83 23.69 C98.05 35.07, 99.22 47.52, 98.83 71.06 M98.83 71.06 C99.51 87.84, 91.67 94.61, 75.14 94.75 M98.83 71.06 C96.91 84.68, 91.15 96.09, 75.14 94.75 M75.14 94.75 C64.38 92.41, 48.46 92.36, 23.69 94.75 M75.14 94.75 C63.67 95.41, 53.16 95.24, 23.69 94.75 M23.69 94.75 C8.75 94.23, 1.4 85.27, 0 71.06 M23.69 94.75 C8.06 93.95, -1.51 84.79, 0 71.06 M0 71.06 C1.14 55.32, -0.78 39.34, 0 23.69 M0 71.06 C-0.55 55.4, 0.67 40.99, 0 23.69 M0 23.69 C0.43 8.35, 6.72 -0.22, 23.69 0 M0 23.69 C0.53 6.11, 10.17 2.23, 23.69 0" fill="none" stroke="#1e1e1e" stroke-width="2"></path></g><g transform="translate(485.3333552075399 504.234849031082) rotate(0 37.49321746826169 19.485854093917993)"><text direction="ltr" dominant-baseline="text-before-edge" fill="#1e1e1e" font-family="Virgil, Segoe UI Emoji" font-size="15.588683275134402px" style="white-space: pre;" text-anchor="middle" x="37.49321746826172" y="0">Secondary</text><text direction="ltr" dominant-baseline="text-before-edge" fill="#1e1e1e" font-family="Virgil, Segoe UI Emoji" font-size="15.588683275134402px" style="white-space: pre;" text-anchor="middle" x="37.49321746826172" y="19.485854093918004">(101-200)</text></g><g stroke-linecap="round" transform="translate(474.8244140723268 594.005859375) rotate(0 49.41622110347481 47.375)"><path d="M23.69 0 C32.2 -1.55, 45.13 0.63, 75.14 0 C91.49 -2.93, 96.96 10.91, 98.83 23.69 C95.73 41.06, 98.04 57.85, 98.83 71.06 C96.83 83.57, 92.13 95.8, 75.14 94.75 C55.78 91.68, 40.93 96.34, 23.69 94.75 C8.81 94.44, -2.76 87.59, 0 71.06 C3.84 52.63, 2.1 36.49, 0 23.69 C-1.37 9.62, 4.37 -0.14, 23.69 0" fill="#ffffff" stroke="none" stroke-width="0"></path><path d="M23.69 0 C33.89 0.04, 46.23 0.86, 75.14 0 M23.69 0 C41.35 -0.74, 56.86 0.33, 75.14 0 M75.14 0 C90.21 -0.37, 99.76 6.56, 98.83 23.69 M75.14 0 C92.23 2.02, 98.98 8.08, 98.83 23.69 M98.83 23.69 C98.39 33.51, 100.54 45.92, 98.83 71.06 M98.83 23.69 C99.54 35, 99.57 45.27, 98.83 71.06 M98.83 71.06 C97.16 84.96, 91.12 95.92, 75.14 94.75 M98.83 71.06 C97.52 88.08, 89.09 96.74, 75.14 94.75 M75.14 94.75 C63.1 93.2, 55.81 94.09, 23.69 94.75 M75.14 94.75 C58.87 94.53, 42.43 94, 23.69 94.75 M23.69 94.75 C8.04 94.05, -1.31 85.06, 0 71.06 M23.69 94.75 C9.04 92.69, 1.27 87.68, 0 71.06 M0 71.06 C0.75 56.12, -1.7 38.24, 0 23.69 M0 71.06 C-0.24 58.71, -1.04 45.8, 0 23.69 M0 23.69 C0.46 6.35, 9.87 1.94, 23.69 0 M0 23.69 C1.1 9.26, 9.74 2.2, 23.69 0" fill="none" stroke="#1e1e1e" stroke-width="2"></path></g><g transform="translate(486.13197733888757 621.895005281082) rotate(0 38.108657836914034 19.48585409391802)"><text direction="ltr" dominant-baseline="text-before-edge" fill="#1e1e1e" font-family="Virgil, Segoe UI Emoji" font-size="15.588683275134402px" style="white-space: pre;" text-anchor="middle" x="38.10865783691406" y="0">Secondary</text><text direction="ltr" dominant-baseline="text-before-edge" fill="#1e1e1e" font-family="Virgil, Segoe UI Emoji" font-size="15.588683275134402px" style="white-space: pre;" text-anchor="middle" x="38.10865783691406" y="19.485854093918004">(201-300)</text></g><g stroke-linecap="round"><g transform="translate(424.23683166503906 400.02831198603826) rotate(0 20.306640625 -0.486492746160593)"><path d="M0.14 0.15 C6.88 0, 33.52 -0.62, 40.34 -0.87 M-0.45 -0.24 C6.48 -0.57, 34.54 -1.67, 41.44 -1.78" fill="none" stroke="#1e1e1e" stroke-width="2"></path></g><g transform="translate(424.23683166503906 400.02831198603826) rotate(0 20.306640625 -0.486492746160593)"><path d="M22.56 5.73 C28.22 3.07, 33.51 2.22, 41.44 -1.78 M22.56 5.73 C26.86 3.82, 31.73 1.81, 41.44 -1.78" fill="none" stroke="#1e1e1e" stroke-width="2"></path></g><g transform="translate(424.23683166503906 400.02831198603826) rotate(0 20.306640625 -0.486492746160593)"><path d="M22.15 -8.16 C27.93 -6.86, 33.34 -3.75, 41.44 -1.78 M22.15 -8.16 C26.5 -6.79, 31.47 -5.52, 41.44 -1.78" fill="none" stroke="#1e1e1e" stroke-width="2"></path></g></g><mask></mask><g stroke-linecap="round"><g transform="translate(429.17042541503906 527.5546875) rotate(0 18.046875 -0.306640625)"><path d="M-0.27 0.11 C5.79 -0.08, 30.52 -0.88, 36.53 -0.96 M0.59 -0.32 C6.61 -0.45, 30.54 -0.28, 36.32 -0.45" fill="none" stroke="#1e1e1e" stroke-width="2"></path></g><g transform="translate(429.17042541503906 527.5546875) rotate(0 18.046875 -0.306640625)"><path d="M19.41 5.87 C25.09 4.57, 29.85 1.27, 36.32 -0.45 M19.41 5.87 C25.44 3.41, 31.29 1.94, 36.32 -0.45" fill="none" stroke="#1e1e1e" stroke-width="2"></path></g><g transform="translate(429.17042541503906 527.5546875) rotate(0 18.046875 -0.306640625)"><path d="M19.31 -6.48 C25.04 -3.75, 29.83 -3.03, 36.32 -0.45 M19.31 -6.48 C25.35 -4.69, 31.23 -1.92, 36.32 -0.45" fill="none" stroke="#1e1e1e" stroke-width="2"></path></g></g><mask></mask><g stroke-linecap="round"><g transform="translate(431.79542541503906 641.23046875) rotate(0 14.9296875 0)"><path d="M0.44 -0.35 C5.4 -0.33, 24.67 0.2, 29.54 0.24 M0 0.66 C5.17 0.51, 25.74 -0.57, 30.61 -0.6" fill="none" stroke="#1e1e1e" stroke-width="2"></path></g><g transform="translate(431.79542541503906 641.23046875) rotate(0 14.9296875 0)"><path d="M16.76 4.97 C19.75 3.08, 24.02 1.85, 30.61 -0.6 M16.76 4.97 C20.86 3.77, 24.57 1.91, 30.61 -0.6" fill="none" stroke="#1e1e1e" stroke-width="2"></path></g><g transform="translate(431.79542541503906 641.23046875) rotate(0 14.9296875 0)"><path d="M16.42 -5.24 C19.5 -4.57, 23.86 -3.25, 30.61 -0.6 M16.42 -5.24 C20.64 -3.56, 24.45 -2.55, 30.61 -0.6" fill="none" stroke="#1e1e1e" stroke-width="2"></path></g></g><mask></mask><g stroke-linecap="round" transform="translate(90.56105041503906 513.9765625) rotate(0 73.453125 70.37109375)"><path d="M38.63 8.13 C47.19 2.64, 60.15 -0.52, 70.75 -0.76 C81.34 -1, 92.4 2.5, 102.21 6.67 C112.01 10.83, 122.52 16.79, 129.59 24.21 C136.66 31.64, 141.91 41.41, 144.62 51.23 C147.32 61.06, 147.79 73.12, 145.82 83.17 C143.85 93.22, 139.28 103.24, 132.81 111.52 C126.33 119.8, 116.33 127.97, 106.96 132.87 C97.6 137.77, 86.99 140.54, 76.6 140.9 C66.22 141.25, 54.57 139.24, 44.65 135.01 C34.73 130.77, 24.13 123.13, 17.06 115.48 C9.98 107.83, 4.79 98.8, 2.2 89.11 C-0.39 79.41, -0.37 67.35, 1.51 57.31 C3.4 47.27, 6.52 37.48, 13.52 28.87 C20.52 20.27, 37.84 9.35, 43.53 5.68 C49.23 2.01, 47.34 5.61, 47.68 6.85 M50.79 2.93 C60.21 -1.06, 74.23 -1.35, 84.76 0.42 C95.3 2.19, 105.48 7.51, 113.99 13.55 C122.51 19.6, 130.41 28.28, 135.87 36.71 C141.34 45.15, 145.63 54.2, 146.79 64.16 C147.94 74.12, 146.55 86.88, 142.8 96.46 C139.04 106.04, 132.15 114.9, 124.24 121.62 C116.32 128.35, 105.75 133.53, 95.31 136.82 C84.86 140.11, 72.19 142.86, 61.59 141.35 C50.99 139.85, 40.59 134.01, 31.71 127.78 C22.83 121.54, 13.83 112.9, 8.32 103.94 C2.82 94.99, -0.93 83.92, -1.31 74.04 C-1.68 64.16, 2 54.15, 6.08 44.66 C10.15 35.18, 15.58 24.2, 23.13 17.13 C30.68 10.07, 46.65 4.4, 51.38 2.27 C56.12 0.13, 50.94 2.99, 51.52 4.31" fill="#ffffff" stroke="none" stroke-width="0"></path><path d="M59.44 1.73 C69.34 -1.13, 83.28 0.06, 93.65 2.54 C104.02 5.03, 113.65 10.12, 121.69 16.66 C129.72 23.19, 137.74 32.46, 141.86 41.76 C145.98 51.07, 146.89 62.24, 146.39 72.47 C145.9 82.7, 143.92 93.9, 138.87 103.14 C133.82 112.39, 124.84 121.82, 116.1 127.95 C107.36 134.08, 96.69 138.13, 86.44 139.91 C76.19 141.69, 64.83 141.51, 54.63 138.63 C44.42 135.76, 33.49 129.39, 25.23 122.68 C16.97 115.96, 9.15 107.63, 5.06 98.32 C0.96 89.02, -0.04 77.18, 0.65 66.86 C1.34 56.54, 4.14 45.46, 9.19 36.42 C14.24 27.38, 21.51 18.79, 30.96 12.61 C40.4 6.42, 58.94 1.26, 65.88 -0.69 C72.83 -2.65, 72.24 -0.44, 72.62 0.89 M83.12 0.14 C93.25 0.06, 105.42 4.52, 114.26 10.01 C123.11 15.5, 130.97 24.41, 136.18 33.07 C141.4 41.72, 144.37 51.93, 145.55 61.92 C146.73 71.91, 146.57 83.12, 143.26 93 C139.94 102.88, 133.26 114.02, 125.64 121.22 C118.03 128.41, 107.59 132.92, 97.56 136.14 C87.53 139.37, 75.97 141.91, 65.47 140.56 C54.98 139.21, 43.77 133.7, 34.6 128.05 C25.43 122.39, 15.91 114.92, 10.44 106.63 C4.98 98.35, 2.77 88.31, 1.81 78.33 C0.86 68.34, 1.48 56.48, 4.71 46.74 C7.95 37, 13.61 27.27, 21.2 19.9 C28.8 12.54, 39.84 5.52, 50.3 2.53 C60.76 -0.45, 78.51 1.94, 83.96 1.99 C89.42 2.04, 83.21 1.66, 83.02 2.82" fill="none" stroke="#1e1e1e" stroke-width="2"></path></g><g transform="translate(137.02500009401626 572.0877786598608) rotate(0 27.049972534179695 12.5)"><text direction="ltr" dominant-baseline="text-before-edge" fill="#1e1e1e" font-family="Virgil, Segoe UI Emoji" font-size="20px" style="white-space: pre;" text-anchor="middle" x="27.049972534179688" y="0">Client</text></g><g stroke-linecap="round"><g transform="translate(148.13656135792985 412.03125) rotate(0 -3.6340396696313064 44.46875)"><path d="M0.55 -0.8 C-1.64 9.42, -14.71 46.13, -13.62 61.1 C-12.53 76.07, 3.78 84.2, 7.1 89.04 M-0.61 1.39 C-2.87 11.32, -15.38 44.69, -14.21 59.53 C-13.05 74.37, 2.97 85.64, 6.38 90.4" fill="none" stroke="#1e1e1e" stroke-width="2"></path></g><g transform="translate(148.13656135792985 412.03125) rotate(0 -3.6340396696313064 44.46875)"><path d="M-9.73 82.49 C-6.7 85.51, 0.32 86.7, 6.38 90.4 M-9.73 82.49 C-5.48 84.37, -0.6 87.78, 6.38 90.4" fill="none" stroke="#1e1e1e" stroke-width="2"></path></g><g transform="translate(148.13656135792985 412.03125) rotate(0 -3.6340396696313064 44.46875)"><path d="M-0.88 73.98 C-0.2 79.28, 4.49 82.72, 6.38 90.4 M-0.88 73.98 C0.59 78.57, 2.75 84.6, 6.38 90.4" fill="none" stroke="#1e1e1e" stroke-width="2"></path></g></g><mask></mask><g transform="translate(82.49112701416016 352.9765625) rotate(0 84.3199234008789 25)"><text direction="ltr" dominant-baseline="text-before-edge" fill="#1e1e1e" font-family="Virgil, Segoe UI Emoji" font-size="20px" style="white-space: pre;" text-anchor="middle" x="84.3199234008789" y="0">Retrieves map of</text><text direction="ltr" dominant-baseline="text-before-edge" fill="#1e1e1e" font-family="Virgil, Segoe UI Emoji" font-size="20px" style="white-space: pre;" text-anchor="middle" x="84.3199234008789" y="25">keys to nodes</text></g><g stroke-linecap="round"><g transform="translate(223.58318837393153 525.9862748758978) rotate(0 41.486977895553764 -61.000502914210074)"><path d="M0.08 0.1 C13.68 -20.22, 68.62 -100.42, 82.29 -120.85 M-1.34 -0.9 C12.6 -21, 70.33 -102.27, 84.64 -122.38" fill="none" stroke="#1e1e1e" stroke-width="2"></path></g><g transform="translate(223.58318837393153 525.9862748758978) rotate(0 41.486977895553764 -61.000502914210074)"><path d="M7.45 -28.98 C5.25 -19.77, 4.37 -9.76, 0.08 0.1 M7.45 -28.98 C4.95 -22.23, 4.23 -14.44, 0.08 0.1" fill="none" stroke="#1e1e1e" stroke-width="2"></path></g><g transform="translate(223.58318837393153 525.9862748758978) rotate(0 41.486977895553764 -61.000502914210074)"><path d="M24.42 -17.44 C16.07 -12.32, 9.15 -6.43, 0.08 0.1 M24.42 -17.44 C17.68 -13.52, 12.63 -8.69, 0.08 0.1" fill="none" stroke="#1e1e1e" stroke-width="2"></path></g><g transform="translate(223.58318837393153 525.9862748758978) rotate(0 41.486977895553764 -61.000502914210074)"><path d="M76.67 -93.45 C79.42 -104.91, 84 -115.55, 84.64 -122.38 M76.67 -93.45 C78.56 -101.6, 81.76 -108.62, 84.64 -122.38" fill="none" stroke="#1e1e1e" stroke-width="2"></path></g><g transform="translate(223.58318837393153 525.9862748758978) rotate(0 41.486977895553764 -61.000502914210074)"><path d="M59.94 -105.34 C68.75 -112.57, 79.29 -118.98, 84.64 -122.38 M59.94 -105.34 C66.01 -110.56, 73.47 -114.55, 84.64 -122.38" fill="none" stroke="#1e1e1e" stroke-width="2"></path></g></g><mask></mask><g stroke-linecap="round"><g transform="translate(237.85401916503906 555.1328125) rotate(0 36.9375 -13.884765625)"><path d="M-0.69 1.15 C11.46 -3.59, 60.72 -23.61, 72.98 -28.31 M1.15 0.7 C13.67 -3.88, 62.87 -22.11, 75.22 -27.05" fill="none" stroke="#1e1e1e" stroke-width="2"></path></g><g transform="translate(237.85401916503906 555.1328125) rotate(0 36.9375 -13.884765625)"><path d="M21.66 -18.87 C16.73 -14.36, 7.08 -8.4, -0.69 1.15 M21.66 -18.87 C14.26 -12.13, 5.71 -4.02, -0.69 1.15" fill="none" stroke="#1e1e1e" stroke-width="2"></path></g><g transform="translate(237.85401916503906 555.1328125) rotate(0 36.9375 -13.884765625)"><path d="M29.3 0.18 C22.01 -1.19, 10.02 -1.08, -0.69 1.15 M29.3 0.18 C19.2 -0.04, 7.88 1.16, -0.69 1.15" fill="none" stroke="#1e1e1e" stroke-width="2"></path></g><g transform="translate(237.85401916503906 555.1328125) rotate(0 36.9375 -13.884765625)"><path d="M52.57 -7.38 C61.41 -14.78, 65.55 -20.99, 75.22 -27.05 M52.57 -7.38 C61.64 -14.71, 69.41 -21, 75.22 -27.05" fill="none" stroke="#1e1e1e" stroke-width="2"></path></g><g transform="translate(237.85401916503906 555.1328125) rotate(0 36.9375 -13.884765625)"><path d="M45.22 -26.55 C56.33 -28.02, 62.72 -28.36, 75.22 -27.05 M45.22 -26.55 C56.89 -26.87, 67.32 -26.21, 75.22 -27.05" fill="none" stroke="#1e1e1e" stroke-width="2"></path></g></g><mask></mask><g stroke-linecap="round"><g transform="translate(254.01026916503906 606.06640625) rotate(0 27.3828125 16.056640625)"><path d="M-0.9 -0.54 C8.18 4.75, 44.56 27.57, 53.76 32.87 M0.83 1.8 C10.33 7.25, 47.2 26.08, 55.95 31.14" fill="none" stroke="#1e1e1e" stroke-width="2"></path></g><g transform="translate(254.01026916503906 606.06640625) rotate(0 27.3828125 16.056640625)"><path d="M28.5 5.46 C20.41 2.11, 15.43 1.57, -0.9 -0.54 M28.5 5.46 C22.07 4.48, 15.39 2.55, -0.9 -0.54" fill="none" stroke="#1e1e1e" stroke-width="2"></path></g><g transform="translate(254.01026916503906 606.06640625) rotate(0 27.3828125 16.056640625)"><path d="M17.77 22.95 C12.12 15.44, 9.74 10.65, -0.9 -0.54 M17.77 22.95 C13.66 18.01, 9.42 12.08, -0.9 -0.54" fill="none" stroke="#1e1e1e" stroke-width="2"></path></g><g transform="translate(254.01026916503906 606.06640625) rotate(0 27.3828125 16.056640625)"><path d="M26.26 26.78 C32.61 26.38, 41.96 28.36, 55.95 31.14 M26.26 26.78 C33.42 28.37, 40.23 28.81, 55.95 31.14" fill="none" stroke="#1e1e1e" stroke-width="2"></path></g><g transform="translate(254.01026916503906 606.06640625) rotate(0 27.3828125 16.056640625)"><path d="M36.01 8.72 C40.17 12.63, 47.15 18.99, 55.95 31.14 M36.01 8.72 C41.08 14.41, 45.66 18.97, 55.95 31.14" fill="none" stroke="#1e1e1e" stroke-width="2"></path></g></g><mask></mask></svg>