<svg height="665.0430791337103" version="1.1" viewbox="0 0 933.7726843023902 665.0430791337103" width="933.7726843023902" xmlns="http://www.w3.org/2000/svg">
<!-- svg-source:excalidraw -->
<!-- payload-type:application/vnd.excalidraw+json --><!-- payload-version:2 -->
<defs>
<style class="style-fonts">
</style>
</defs>
<rect fill="#ffffff" height="665.0430791337103" width="933.7726843023902" x="0" y="0"></rect><g stroke-linecap="round" transform="translate(10 464.3768649219064) rotate(0 55.986328125 44.6328125)"><path d="M22.32 0 C43.66 0.99, 60.77 0.99, 89.66 0 M22.32 0 C37.66 -0.66, 52.84 0.9, 89.66 0 M89.66 0 C104 1.04, 110.43 8.82, 111.97 22.32 M89.66 0 C105.64 -1.7, 110.65 7.24, 111.97 22.32 M111.97 22.32 C114.09 35.25, 114.18 46.74, 111.97 66.95 M111.97 22.32 C111.7 33.91, 113.26 46.27, 111.97 66.95 M111.97 66.95 C112.94 79.91, 104.83 87.78, 89.66 89.27 M111.97 66.95 C111.27 82.58, 106.5 88.11, 89.66 89.27 M89.66 89.27 C72.38 89.37, 53.3 89.16, 22.32 89.27 M89.66 89.27 C76.37 89.08, 61.77 89.63, 22.32 89.27 M22.32 89.27 C5.69 88.96, 1.43 81.17, 0 66.95 M22.32 89.27 C8.97 89.83, -1.32 82.8, 0 66.95 M0 66.95 C-0.76 50.97, 1.12 34.09, 0 22.32 M0 66.95 C-1 53.7, -1.01 39.1, 0 22.32 M0 22.32 C1.41 6.19, 6.14 -0.8, 22.32 0 M0 22.32 C-1.18 8.78, 5.66 2, 22.32 0" fill="none" stroke="#1e1e1e" stroke-width="1"></path></g><g transform="translate(38.880859375 499.0096774219064) rotate(0 27.10546875 10)"><text direction="ltr" dominant-baseline="text-before-edge" fill="#1e1e1e" font-family="Virgil, Segoe UI Emoji" font-size="16px" style="white-space: pre;" text-anchor="middle" x="27.10546875" y="0">Browser</text></g><g stroke-linecap="round" transform="translate(190.40717210331968 296.4529199834724) rotate(0 65.490234375 47.623046875)"><path d="M23.81 0 C51.46 -1.59, 81.91 -1, 107.17 0 M23.81 0 C43.26 -0.25, 62.47 -0.08, 107.17 0 M107.17 0 C124 -1.48, 129.83 7.77, 130.98 23.81 M107.17 0 C122.17 1.75, 132.49 9.99, 130.98 23.81 M130.98 23.81 C130.68 42.51, 132.21 57.11, 130.98 71.43 M130.98 23.81 C131.92 36.48, 131.59 50.33, 130.98 71.43 M130.98 71.43 C130.37 87.97, 124.75 94.24, 107.17 95.25 M130.98 71.43 C130.46 88.73, 121.81 96.87, 107.17 95.25 M107.17 95.25 C78.38 94.08, 53.92 96.9, 23.81 95.25 M107.17 95.25 C84.75 95.21, 64.79 95.03, 23.81 95.25 M23.81 95.25 C9.27 95.73, -1.14 88.16, 0 71.43 M23.81 95.25 C9.51 94.94, -0.47 86.37, 0 71.43 M0 71.43 C-0.06 56.34, 1.26 38.8, 0 23.81 M0 71.43 C1.16 53.8, -0.2 37.01, 0 23.81 M0 23.81 C-1.03 9.1, 6.39 1.74, 23.81 0 M0 23.81 C1.67 7.91, 9.41 -2.29, 23.81 0" fill="none" stroke="#1e1e1e" stroke-width="1"></path></g><g transform="translate(208.79975022831968 324.0759668584724) rotate(0 47.09765625 20)"><text direction="ltr" dominant-baseline="text-before-edge" fill="#1e1e1e" font-family="Virgil, Segoe UI Emoji" font-size="16px" style="white-space: pre;" text-anchor="middle" x="47.09765625" y="0">Ad Placement </text><text direction="ltr" dominant-baseline="text-before-edge" fill="#1e1e1e" font-family="Virgil, Segoe UI Emoji" font-size="16px" style="white-space: pre;" text-anchor="middle" x="47.09765625" y="20">Service</text></g><g stroke-linecap="round"><g transform="translate(129.9101562500001 466.21489701769406) rotate(0 28.95927198060855 -32.086585136752774)"><path d="M-0.36 -0.76 C9.26 -11.28, 47.34 -52.6, 57 -63.06 M1.65 1.45 C11.71 -9.38, 50.06 -53.43, 59.23 -64.6" fill="none" stroke="#1e1e1e" stroke-width="1"></path></g><g transform="translate(129.9101562500001 466.21489701769406) rotate(0 28.95927198060855 -32.086585136752774)"><path d="M11.18 -28.45 C7.15 -23.36, 7.49 -15.7, -0.36 -0.76 M11.18 -28.45 C7.38 -19.36, 2.26 -8.95, -0.36 -0.76" fill="none" stroke="#1e1e1e" stroke-width="1"></path></g><g transform="translate(129.9101562500001 466.21489701769406) rotate(0 28.95927198060855 -32.086585136752774)"><path d="M26.28 -14.56 C18.61 -12.85, 15.32 -8.53, -0.36 -0.76 M26.28 -14.56 C17.27 -10.25, 6.83 -4.74, -0.36 -0.76" fill="none" stroke="#1e1e1e" stroke-width="1"></path></g><g transform="translate(129.9101562500001 466.21489701769406) rotate(0 28.95927198060855 -32.086585136752774)"><path d="M48.78 -36.48 C50.02 -44.75, 55.65 -50.51, 59.23 -64.6 M48.78 -36.48 C53.16 -47.2, 55.79 -56.45, 59.23 -64.6" fill="none" stroke="#1e1e1e" stroke-width="1"></path></g><g transform="translate(129.9101562500001 466.21489701769406) rotate(0 28.95927198060855 -32.086585136752774)"><path d="M33.15 -49.77 C38.15 -54.79, 47.54 -57.36, 59.23 -64.6 M33.15 -49.77 C42.93 -55.92, 51.06 -60.49, 59.23 -64.6" fill="none" stroke="#1e1e1e" stroke-width="1"></path></g></g><mask></mask><g stroke-linecap="round" transform="translate(229.25572894704658 554.3260836719064) rotate(0 64.1640625 42.67578125)"><path d="M21.34 0 C46.33 0.12, 68.66 -0.89, 106.99 0 M21.34 0 C52.38 0.55, 84.19 1.4, 106.99 0 M106.99 0 C122.53 1.78, 129.57 8.98, 128.33 21.34 M106.99 0 C122.41 -0.85, 130 8.01, 128.33 21.34 M128.33 21.34 C129.23 32.57, 126.35 42.17, 128.33 64.01 M128.33 21.34 C129.05 30.47, 127.97 41.21, 128.33 64.01 M128.33 64.01 C127.26 79.65, 121.68 86.38, 106.99 85.35 M128.33 64.01 C128.62 76.14, 119.76 86.13, 106.99 85.35 M106.99 85.35 C74.92 83.81, 42 86.99, 21.34 85.35 M106.99 85.35 C83.54 85.98, 61.91 85.43, 21.34 85.35 M21.34 85.35 C6.7 84.54, 0.46 79.3, 0 64.01 M21.34 85.35 C7.14 85.57, 0.34 79.97, 0 64.01 M0 64.01 C-0.67 56.63, -1.49 45.11, 0 21.34 M0 64.01 C-0.56 53.79, 0.95 41.81, 0 21.34 M0 21.34 C1.28 5.12, 8.18 -1.8, 21.34 0 M0 21.34 C-1.52 7.39, 6.63 -1.95, 21.34 0" fill="none" stroke="#1e1e1e" stroke-width="1"></path></g><g transform="translate(242.98229144704658 587.0018649219064) rotate(0 50.4375 10)"><text direction="ltr" dominant-baseline="text-before-edge" fill="#1e1e1e" font-family="Virgil, Segoe UI Emoji" font-size="16px" style="white-space: pre;" text-anchor="middle" x="50.4375" y="0">Click Processor</text></g><g stroke-linecap="round"><g transform="translate(131.6445312500001 547.3302102857374) rotate(0 45.82903634852329 22.911542423554977)"><path d="M-0.93 0.83 C14.5 8.21, 76.92 37.45, 92.23 44.94 M0.79 0.22 C16.13 7.68, 76.74 38.21, 91.59 46.01" fill="none" stroke="#1e1e1e" stroke-width="1"></path></g><g transform="translate(131.6445312500001 547.3302102857374) rotate(0 45.82903634852329 22.911542423554977)"><path d="M28.95 3.59 C22.15 3.56, 11.12 0.7, -0.93 0.83 M28.95 3.59 C20.9 3.9, 12.16 3.14, -0.93 0.83" fill="none" stroke="#1e1e1e" stroke-width="1"></path></g><g transform="translate(131.6445312500001 547.3302102857374) rotate(0 45.82903634852329 22.911542423554977)"><path d="M20.18 22.14 C15.68 17.11, 7.05 9.18, -0.93 0.83 M20.18 22.14 C14.77 16.98, 8.58 10.81, -0.93 0.83" fill="none" stroke="#1e1e1e" stroke-width="1"></path></g><g transform="translate(131.6445312500001 547.3302102857374) rotate(0 45.82903634852329 22.911542423554977)"><path d="M61.82 42.28 C71.36 44.49, 76.64 43.4, 91.59 46.01 M61.82 42.28 C71.14 44.03, 79.78 45.16, 91.59 46.01" fill="none" stroke="#1e1e1e" stroke-width="1"></path></g><g transform="translate(131.6445312500001 547.3302102857374) rotate(0 45.82903634852329 22.911542423554977)"><path d="M71.18 24.02 C78.25 31.15, 80.97 35.05, 91.59 46.01 M71.18 24.02 C77.7 31.16, 83.61 37.62, 91.59 46.01" fill="none" stroke="#1e1e1e" stroke-width="1"></path></g></g><mask></mask><g stroke-linecap="round"><g transform="translate(369.67760394704646 597.1421298468631) rotate(0 146.83035354755327 -1.0006386839033894)"><path d="M0.57 -0.89 C49.56 -1.38, 244.2 -2.07, 292.97 -2.1 M-0.58 1.26 C48.87 0.9, 246.53 0.08, 295.32 -0.62" fill="none" stroke="#1e1e1e" stroke-width="1"></path></g><g transform="translate(369.67760394704646 597.1421298468631) rotate(0 146.83035354755327 -1.0006386839033894)"><path d="M267.22 9.88 C271.93 6.26, 279.5 4.31, 295.32 -0.62 M267.22 9.88 C278.35 6.61, 288.82 1.36, 295.32 -0.62" fill="none" stroke="#1e1e1e" stroke-width="1"></path></g><g transform="translate(369.67760394704646 597.1421298468631) rotate(0 146.83035354755327 -1.0006386839033894)"><path d="M267.05 -10.64 C271.93 -9.69, 279.54 -7.07, 295.32 -0.62 M267.05 -10.64 C278.37 -6.19, 288.91 -3.72, 295.32 -0.62" fill="none" stroke="#1e1e1e" stroke-width="1"></path></g></g><mask></mask><g stroke-linecap="round" transform="translate(677.1602151274094 530.3047978837103) rotate(0 69.244140625 62.369140625)"><path d="M57.05 1.74 C66.89 -0.92, 80.13 0.37, 90.19 3.18 C100.25 5.99, 109.84 12.02, 117.4 18.6 C124.96 25.19, 132.24 33.46, 135.56 42.69 C138.88 51.93, 139.15 64.33, 137.32 74.03 C135.5 83.73, 131.29 93.36, 124.61 100.88 C117.93 108.4, 107.21 115.25, 97.26 119.16 C87.32 123.07, 75.43 124.73, 64.93 124.35 C54.44 123.97, 43.47 121.79, 34.28 116.88 C25.09 111.97, 15.39 103.34, 9.81 94.88 C4.22 86.43, 1.33 75.71, 0.78 66.15 C0.24 56.59, 2.26 46.25, 6.56 37.51 C10.85 28.78, 17.64 20.03, 26.57 13.74 C35.5 7.46, 53.5 1.75, 60.14 -0.2 C66.77 -2.14, 66.17 0.91, 66.39 2.09 M75.05 -0.35 C85.67 -0.54, 97.72 4.37, 106.54 9.62 C115.35 14.87, 122.45 22.95, 127.93 31.16 C133.41 39.38, 138.76 49.46, 139.42 58.9 C140.07 68.34, 136.44 78.86, 131.85 87.81 C127.26 96.75, 120.3 106.54, 111.86 112.56 C103.42 118.59, 91.79 122.23, 81.2 123.95 C70.62 125.67, 58.79 125.72, 48.34 122.9 C37.89 120.07, 26.29 114.1, 18.49 106.98 C10.69 99.85, 4.25 89.68, 1.55 80.13 C-1.15 70.59, 0.2 59.24, 2.3 49.7 C4.39 40.17, 7.73 30.17, 14.1 22.92 C20.48 15.66, 30.77 9.75, 40.56 6.17 C50.34 2.59, 67.08 2.25, 72.81 1.45 C78.55 0.65, 74.7 0.8, 74.97 1.37" fill="none" stroke="#1e1e1e" stroke-width="1"></path></g><g transform="translate(702.675729359037 572.5722962359954) rotate(0 43.765625 20)"><text direction="ltr" dominant-baseline="text-before-edge" fill="#1e1e1e" font-family="Virgil, Segoe UI Emoji" font-size="16px" style="white-space: pre;" text-anchor="middle" x="43.765625" y="0">Cassandra</text><text direction="ltr" dominant-baseline="text-before-edge" fill="#1e1e1e" font-family="Virgil, Segoe UI Emoji" font-size="16px" style="white-space: pre;" text-anchor="middle" x="43.765625" y="20">(Raw Events)</text></g><g stroke-linecap="round" transform="translate(614.9875602658119 441.88616382862347) rotate(0 132.1990642903039 17.26150615779403)"><path d="M8.63 0 C74.84 -0.31, 139.65 -0.48, 255.77 0 M8.63 0 C73.13 -0.91, 139.39 -0.4, 255.77 0 M255.77 0 C262.49 -1.92, 264.69 1.39, 264.4 8.63 M255.77 0 C260.82 0.76, 266.37 1.73, 264.4 8.63 M264.4 8.63 C265.72 13.83, 265.39 18.43, 264.4 25.89 M264.4 8.63 C264.96 11.88, 264.5 15.96, 264.4 25.89 M264.4 25.89 C262.65 31.34, 262.95 33.87, 255.77 34.52 M264.4 25.89 C265.93 32.21, 260.21 35.5, 255.77 34.52 M255.77 34.52 C164.06 34.48, 74.57 34.12, 8.63 34.52 M255.77 34.52 C178.49 36.52, 101.97 35.88, 8.63 34.52 M8.63 34.52 C4.29 33.28, -1.3 30.85, 0 25.89 M8.63 34.52 C1.7 35.87, -1.78 33.65, 0 25.89 M0 25.89 C-1.72 20.38, -1.55 11.88, 0 8.63 M0 25.89 C0.77 19.7, 0.18 14.33, 0 8.63 M0 8.63 C0.97 1.66, 3.09 -0.81, 8.63 0 M0 8.63 C-1.55 1.45, 4.82 -2.21, 8.63 0" fill="none" stroke="#1e1e1e" stroke-width="1"></path></g><g transform="translate(728.5225620561158 449.14766998641744) rotate(0 18.6640625 10)"><text direction="ltr" dominant-baseline="text-before-edge" fill="#1e1e1e" font-family="Virgil, Segoe UI Emoji" font-size="16px" style="white-space: pre;" text-anchor="middle" x="18.6640625" y="0">Spark</text></g><g stroke-linecap="round"><g transform="translate(746.757579998922 484.71176811584974) rotate(0 0 20.619649502747052)"><path d="M0.29 -0.2 C0.3 6.62, 0.5 34.56, 0.4 41.45 M-0.23 -0.78 C-0.29 6.11, 0 33.51, 0.17 40.6" fill="none" stroke="#1e1e1e" stroke-width="1"></path></g><g transform="translate(746.757579998922 484.71176811584974) rotate(0 0 20.619649502747052)"><path d="M-7.19 21.34 C-4.81 29.02, -1.38 34.67, 0.17 40.6 M-7.19 21.34 C-4.75 26.36, -2.81 31.98, 0.17 40.6" fill="none" stroke="#1e1e1e" stroke-width="1"></path></g><g transform="translate(746.757579998922 484.71176811584974) rotate(0 0 20.619649502747052)"><path d="M6.91 21.11 C4.19 28.91, 2.51 34.65, 0.17 40.6 M6.91 21.11 C5.32 26.23, 3.22 31.91, 0.17 40.6" fill="none" stroke="#1e1e1e" stroke-width="1"></path></g></g><mask></mask><g stroke-linecap="round"><g transform="translate(666.8814308082608 435.7607556306052) rotate(0 0.13300451709790195 -54.42448957625197)"><path d="M0.87 0.47 C0.69 -17.63, -0.54 -90.89, -0.45 -109.01 M-0.13 -0.33 C0.03 -18.2, 1.66 -89.23, 1.89 -107.56" fill="none" stroke="#1e1e1e" stroke-width="1"></path></g><g transform="translate(666.8814308082608 435.7607556306052) rotate(0 0.13300451709790195 -54.42448957625197)"><path d="M11.64 -79.19 C9.09 -90.29, 4.6 -97.17, 1.89 -107.56 M11.64 -79.19 C8.25 -89.9, 4.41 -98.7, 1.89 -107.56" fill="none" stroke="#1e1e1e" stroke-width="1"></path></g><g transform="translate(666.8814308082608 435.7607556306052) rotate(0 0.13300451709790195 -54.42448957625197)"><path d="M-8.88 -79.57 C-4.2 -90.69, -1.47 -97.43, 1.89 -107.56 M-8.88 -79.57 C-5.12 -89.95, -1.82 -98.62, 1.89 -107.56" fill="none" stroke="#1e1e1e" stroke-width="1"></path></g></g><mask></mask><g stroke-linecap="round" transform="translate(598.0137357861388 199.47781945773477) rotate(0 68.19125898493701 60.80703946728937)"><path d="M98.9 7.1 C108.05 10.33, 117.34 18.08, 123.56 25.94 C129.77 33.81, 134.89 44.95, 136.21 54.31 C137.53 63.68, 135.15 73.55, 131.46 82.13 C127.76 90.7, 121.75 99.45, 114.04 105.77 C106.34 112.1, 95.51 117.71, 85.24 120.08 C74.96 122.44, 62.93 122.38, 52.41 119.98 C41.88 117.58, 30.01 111.84, 22.08 105.7 C14.14 99.56, 8.44 91.82, 4.78 83.16 C1.11 74.5, -1.16 63.36, 0.08 53.74 C1.32 44.11, 6.15 33.08, 12.2 25.4 C18.24 17.73, 27.05 11.81, 36.33 7.69 C45.6 3.57, 56.54 0.54, 67.84 0.67 C79.14 0.79, 97.55 6.38, 104.14 8.43 C110.74 10.48, 108.06 12.04, 107.41 12.97 M54.4 1.4 C64 -1.23, 77.3 0.77, 87.22 3.49 C97.13 6.21, 106.54 11.44, 113.9 17.7 C121.26 23.97, 127.62 32.46, 131.4 41.09 C135.18 49.72, 138.18 60.22, 136.59 69.47 C134.99 78.73, 128.47 88.77, 121.84 96.61 C115.21 104.46, 106.37 112.18, 96.81 116.55 C87.25 120.93, 74.7 123.38, 64.46 122.88 C54.21 122.37, 44.14 118.68, 35.34 113.53 C26.53 108.37, 17.33 100.11, 11.61 91.94 C5.89 83.77, 2.24 73.61, 1.03 64.5 C-0.17 55.4, 0.47 45.96, 4.4 37.3 C8.33 28.64, 16.07 18.77, 24.62 12.53 C33.16 6.29, 50.61 1.76, 55.66 -0.14 C60.71 -2.05, 54.77 0.02, 54.91 1.09" fill="none" stroke="#1e1e1e" stroke-width="1"></path></g><g transform="translate(631.9825868751788 250.2877889738258) rotate(0 34.00390625 10)"><text direction="ltr" dominant-baseline="text-before-edge" fill="#1e1e1e" font-family="Virgil, Segoe UI Emoji" font-size="16px" style="white-space: pre;" text-anchor="middle" x="34.00390625" y="0">OLAP DB</text></g><g stroke-linecap="round" transform="translate(764.0742534390301 343.48683329086043) rotate(0 57.76669424787974 28.148384426612438)"><path d="M14.07 0 C46.81 -0.13, 81.9 -1.03, 101.46 0 M14.07 0 C42.94 1.06, 71.72 1.14, 101.46 0 M101.46 0 C111.31 1.03, 115.79 2.87, 115.53 14.07 M101.46 0 C109.38 0.78, 117.32 3.74, 115.53 14.07 M115.53 14.07 C115.26 24.63, 114.92 33.65, 115.53 42.22 M115.53 14.07 C116.06 23.07, 115.17 31.93, 115.53 42.22 M115.53 42.22 C115.99 52.66, 110.87 56.49, 101.46 56.3 M115.53 42.22 C115.87 53.34, 108.69 57.61, 101.46 56.3 M101.46 56.3 C82.27 55.62, 64.78 55.89, 14.07 56.3 M101.46 56.3 C70.87 57.05, 39.47 56.06, 14.07 56.3 M14.07 56.3 C5.76 54.5, -1.32 51.85, 0 42.22 M14.07 56.3 C4.21 54.35, 1.96 49.46, 0 42.22 M0 42.22 C-0.96 33.53, -0.56 23.06, 0 14.07 M0 42.22 C0.01 35.55, 0.16 28.36, 0 14.07 M0 14.07 C-0.2 2.78, 3.78 1.81, 14.07 0 M0 14.07 C1.65 6.7, 4.39 1.6, 14.07 0" fill="none" stroke="#1e1e1e" stroke-width="1"></path></g><g transform="translate(773.6378226869099 361.63521771747287) rotate(0 48.203125 10)"><text direction="ltr" dominant-baseline="text-before-edge" fill="#1e1e1e" font-family="Virgil, Segoe UI Emoji" font-size="16px" style="white-space: pre;" text-anchor="middle" x="48.203125" y="0">cron Scheduler</text></g><g stroke-linecap="round"><g transform="translate(823.4383049299609 407.10245933386204) rotate(0 0.5835053273318636 15.034132670816916)"><path d="M-0.17 0.18 C0.09 5.21, 1.44 24.75, 1.64 29.79 M0.75 -0.2 C0.97 4.94, 1.47 25.4, 1.45 30.35" fill="none" stroke="#1e1e1e" stroke-width="1"></path></g><g transform="translate(823.4383049299609 407.10245933386204) rotate(0 0.5835053273318636 15.034132670816916)"><path d="M-3.88 16.28 C-2.01 21.36, -0.96 24.97, 1.45 30.35 M-3.88 16.28 C-1.9 21.54, -0.01 26.1, 1.45 30.35" fill="none" stroke="#1e1e1e" stroke-width="1"></path></g><g transform="translate(823.4383049299609 407.10245933386204) rotate(0 0.5835053273318636 15.034132670816916)"><path d="M6.41 16.15 C5.04 21.25, 2.86 24.91, 1.45 30.35 M6.41 16.15 C4.67 21.5, 2.83 26.1, 1.45 30.35" fill="none" stroke="#1e1e1e" stroke-width="1"></path></g></g><mask></mask><g transform="translate(764.3564718004698 315.39408387844196) rotate(0 65.823974609375 10)"><text direction="ltr" dominant-baseline="text-before-edge" fill="#1e1e1e" font-family="Virgil, Segoe UI Emoji" font-size="16px" style="white-space: pre;" text-anchor="start" x="0" y="0">Run every minute</text></g><g stroke-linecap="round" transform="translate(586.080063994076 10) rotate(0 77.5434786312237 35.58840984914019)"><path d="M17.79 0 C65.1 -0.8, 111.34 0.74, 137.29 0 M17.79 0 C59.13 1.43, 102.52 0.67, 137.29 0 M137.29 0 C149.64 0.27, 153.34 5.62, 155.09 17.79 M137.29 0 C150.8 -0.76, 156.62 6.49, 155.09 17.79 M155.09 17.79 C154.97 26.02, 154.42 35.54, 155.09 53.38 M155.09 17.79 C155.24 31.11, 154.15 43.49, 155.09 53.38 M155.09 53.38 C153.19 64.82, 150.57 69.93, 137.29 71.18 M155.09 53.38 C153.6 64.33, 147.98 72.52, 137.29 71.18 M137.29 71.18 C110.67 73.33, 82.1 73.11, 17.79 71.18 M137.29 71.18 C111.99 70.48, 87.95 70.39, 17.79 71.18 M17.79 71.18 C6.26 69.36, 0.97 64.03, 0 53.38 M17.79 71.18 C6.18 70.24, -1.55 63.82, 0 53.38 M0 53.38 C0.39 40.48, -0.59 25.8, 0 17.79 M0 53.38 C0.88 46.98, 0.03 39.52, 0 17.79 M0 17.79 C1.84 7.25, 5.37 0.33, 17.79 0 M0 17.79 C1.13 6.57, 6.49 0.69, 17.79 0" fill="none" stroke="#1e1e1e" stroke-width="1"></path></g><g transform="translate(609.6313551252997 35.58840984914019) rotate(0 53.9921875 10)"><text direction="ltr" dominant-baseline="text-before-edge" fill="#1e1e1e" font-family="Virgil, Segoe UI Emoji" font-size="16px" style="white-space: pre;" text-anchor="middle" x="53.9921875" y="0">Analyst Browser</text></g><g transform="translate(749.6826057092192 210.42282885160876) rotate(0 44.791969299316406 30)"><text direction="ltr" dominant-baseline="text-before-edge" fill="#1e1e1e" font-family="Virgil, Segoe UI Emoji" font-size="16px" style="white-space: pre;" text-anchor="start" x="0" y="0">- Druid</text><text direction="ltr" dominant-baseline="text-before-edge" fill="#1e1e1e" font-family="Virgil, Segoe UI Emoji" font-size="16px" style="white-space: pre;" text-anchor="start" x="0" y="20">- RedShift</text><text direction="ltr" dominant-baseline="text-before-edge" fill="#1e1e1e" font-family="Virgil, Segoe UI Emoji" font-size="16px" style="white-space: pre;" text-anchor="start" x="0" y="40">- Snowflake</text></g><g stroke-linecap="round" transform="translate(613.5325761871857 116.90008943762996) rotate(0 51.13453969928662 25)"><path d="M12.5 0 C35.67 -1.37, 63.16 1.45, 89.77 0 M12.5 0 C31.6 -0.26, 53.16 -0.43, 89.77 0 M89.77 0 C99.44 0.49, 101.13 5.01, 102.27 12.5 M89.77 0 C99.67 -0.3, 101.79 3.23, 102.27 12.5 M102.27 12.5 C102.59 20.87, 103.91 26.78, 102.27 37.5 M102.27 12.5 C102.74 20.81, 101.38 29.96, 102.27 37.5 M102.27 37.5 C101.24 47, 96.55 51.74, 89.77 50 M102.27 37.5 C103.94 45.8, 99.57 47.71, 89.77 50 M89.77 50 C62.71 49.07, 33.47 51.19, 12.5 50 M89.77 50 C74.3 48.69, 57.96 48.89, 12.5 50 M12.5 50 C2.82 48.76, 1.69 43.91, 0 37.5 M12.5 50 C4.73 50.06, 0.91 44.76, 0 37.5 M0 37.5 C2.05 31.69, 1.98 22.74, 0 12.5 M0 37.5 C-0.51 28.43, 0.26 19.31, 0 12.5 M0 12.5 C0.48 4.76, 2.6 0.64, 12.5 0 M0 12.5 C-1.51 3.69, 5.67 0.21, 12.5 0" fill="none" stroke="#1e1e1e" stroke-width="1"></path></g><g transform="translate(632.0069596364723 121.90008943762996) rotate(0 32.66015625 20)"><text direction="ltr" dominant-baseline="text-before-edge" fill="#1e1e1e" font-family="Virgil, Segoe UI Emoji" font-size="16px" style="white-space: pre;" text-anchor="middle" x="32.66015625" y="0">Analytics </text><text direction="ltr" dominant-baseline="text-before-edge" fill="#1e1e1e" font-family="Virgil, Segoe UI Emoji" font-size="16px" style="white-space: pre;" text-anchor="middle" x="32.66015625" y="20">Service</text></g><g stroke-linecap="round"><g transform="translate(665.7569353116107 86.79278662922252) rotate(0 -0.018329159458971844 11.669999486472648)"><path d="M0.43 -0.23 C0.5 3.64, 0.25 19.5, 0.1 23.42 M-0.02 -0.82 C0.03 3.13, -0.36 20.05, -0.27 24.15" fill="none" stroke="#1e1e1e" stroke-width="1"></path></g><g transform="translate(665.7569353116107 86.79278662922252) rotate(0 -0.018329159458971844 11.669999486472648)"><path d="M-4.22 13.17 C-3.51 15.9, -2.25 17.84, -0.27 24.15 M-4.22 13.17 C-2.86 16.38, -2.1 19.55, -0.27 24.15" fill="none" stroke="#1e1e1e" stroke-width="1"></path></g><g transform="translate(665.7569353116107 86.79278662922252) rotate(0 -0.018329159458971844 11.669999486472648)"><path d="M3.76 13.2 C2.58 15.95, 1.95 17.89, -0.27 24.15 M3.76 13.2 C2.85 16.38, 1.34 19.55, -0.27 24.15" fill="none" stroke="#1e1e1e" stroke-width="1"></path></g></g><mask></mask><g stroke-linecap="round"><g transform="translate(663.8498599488087 171.9143736093315) rotate(0 -0.38601381970147486 11.359815943839294)"><path d="M0.13 0.08 C-0.15 3.89, -1.17 18.89, -1.25 22.63 M-0.46 -0.36 C-0.62 3.55, -0.26 19.39, -0.27 23.29" fill="none" stroke="#1e1e1e" stroke-width="1"></path></g><g transform="translate(663.8498599488087 171.9143736093315) rotate(0 -0.38601381970147486 11.359815943839294)"><path d="M-4.27 12.65 C-2.7 16.17, -1.36 21.09, -0.27 23.29 M-4.27 12.65 C-3.33 15.61, -1.9 18.29, -0.27 23.29" fill="none" stroke="#1e1e1e" stroke-width="1"></path></g><g transform="translate(663.8498599488087 171.9143736093315) rotate(0 -0.38601381970147486 11.359815943839294)"><path d="M3.5 12.57 C2.13 16.12, 0.55 21.08, -0.27 23.29 M3.5 12.57 C2.37 15.56, 1.72 18.26, -0.27 23.29" fill="none" stroke="#1e1e1e" stroke-width="1"></path></g></g><mask></mask><g stroke-linecap="round" transform="translate(415.1691977152517 280.0206690210798) rotate(0 72.69127211417481 70.84147595836083)"><path d="M98.41 3.92 C108.28 6.34, 118.4 15.06, 125.61 22.52 C132.82 29.98, 138.55 39.02, 141.67 48.68 C144.79 58.35, 145.62 70.33, 144.33 80.52 C143.03 90.71, 139.62 101.28, 133.92 109.83 C128.22 118.37, 119.11 126.66, 110.13 131.77 C101.15 136.87, 90.42 139.71, 80.03 140.45 C69.64 141.2, 57.79 139.56, 47.78 136.24 C37.78 132.92, 27.46 127.9, 19.99 120.55 C12.51 113.2, 6.24 102.09, 2.95 92.15 C-0.33 82.2, -1.35 71.06, 0.25 60.88 C1.85 50.71, 6.58 39.44, 12.57 31.1 C18.57 22.75, 27.3 15.82, 36.22 10.79 C45.14 5.76, 55.33 1.65, 66.1 0.93 C76.87 0.21, 94.55 5.27, 100.84 6.48 C107.14 7.69, 104.16 7.23, 103.86 8.19 M43.04 4.91 C51.61 0.02, 64.73 -1.27, 75.23 -0.89 C85.72 -0.51, 96.95 2.52, 106.02 7.19 C115.08 11.86, 123.09 19.11, 129.62 27.14 C136.16 35.17, 142.9 45.16, 145.21 55.36 C147.52 65.57, 146.21 78.31, 143.5 88.36 C140.8 98.41, 135.81 108.07, 128.97 115.68 C122.12 123.28, 112.23 129.42, 102.44 133.98 C92.64 138.54, 80.5 142.82, 70.19 143.02 C59.89 143.22, 49.88 139.91, 40.61 135.19 C31.33 130.46, 20.85 122.88, 14.55 114.66 C8.25 106.43, 4.94 96.04, 2.82 85.87 C0.7 75.69, -0.66 63.63, 1.83 53.61 C4.32 43.58, 10.86 33.54, 17.75 25.72 C24.63 17.91, 39.08 9.66, 43.16 6.72 C47.24 3.77, 41.95 7.09, 42.22 8.04" fill="none" stroke="#1e1e1e" stroke-width="1"></path></g><g transform="translate(465.0693533844169 340.7696569400199) rotate(0 22.890625 10)"><text direction="ltr" dominant-baseline="text-before-edge" fill="#1e1e1e" font-family="Virgil, Segoe UI Emoji" font-size="16px" style="white-space: pre;" text-anchor="middle" x="22.890625" y="0">Ad DB</text></g><g transform="translate(423.5880600709942 180.17081215023518) rotate(0 60.903953552246094 40)"><text direction="ltr" dominant-baseline="text-before-edge" fill="#1e1e1e" font-family="Virgil, Segoe UI Emoji" font-size="16px" style="white-space: pre;" text-anchor="start" x="0" y="0">Advertisement:</text><text direction="ltr" dominant-baseline="text-before-edge" fill="#1e1e1e" font-family="Virgil, Segoe UI Emoji" font-size="16px" style="white-space: pre;" text-anchor="start" x="0" y="20">- AdId</text><text direction="ltr" dominant-baseline="text-before-edge" fill="#1e1e1e" font-family="Virgil, Segoe UI Emoji" font-size="16px" style="white-space: pre;" text-anchor="start" x="0" y="40">- RedirectUrl</text><text direction="ltr" dominant-baseline="text-before-edge" fill="#1e1e1e" font-family="Virgil, Segoe UI Emoji" font-size="16px" style="white-space: pre;" text-anchor="start" x="0" y="60">- ... metadata </text></g><g stroke-linecap="round"><g transform="translate(334.08460548117023 355.1749100874408) rotate(0 36.91240173703113 -0.18481720816680536)"><path d="M-0.69 0.51 C11.62 0.37, 62.27 -0.3, 74.65 -0.53 M1.15 -0.27 C13.31 -0.24, 62.21 0.85, 74.13 0.93" fill="none" stroke="#1e1e1e" stroke-width="1"></path></g><g transform="translate(334.08460548117023 355.1749100874408) rotate(0 36.91240173703113 -0.18481720816680536)"><path d="M27.37 -10.12 C17.95 -5.02, 6.55 -2.9, -0.69 0.51 M27.37 -10.12 C20.13 -7.12, 12.99 -3.71, -0.69 0.51" fill="none" stroke="#1e1e1e" stroke-width="1"></path></g><g transform="translate(334.08460548117023 355.1749100874408) rotate(0 36.91240173703113 -0.18481720816680536)"><path d="M27.64 10.4 C18.07 7.97, 6.57 2.57, -0.69 0.51 M27.64 10.4 C20.28 8.08, 13.08 6.17, -0.69 0.51" fill="none" stroke="#1e1e1e" stroke-width="1"></path></g><g transform="translate(334.08460548117023 355.1749100874408) rotate(0 36.91240173703113 -0.18481720816680536)"><path d="M45.78 10.75 C57 8.68, 66.29 3.29, 74.13 0.93 M45.78 10.75 C53.12 8.15, 60.6 6.26, 74.13 0.93" fill="none" stroke="#1e1e1e" stroke-width="1"></path></g><g transform="translate(334.08460548117023 355.1749100874408) rotate(0 36.91240173703113 -0.18481720816680536)"><path d="M46.1 -9.77 C57.25 -4.32, 66.42 -2.17, 74.13 0.93 M46.1 -9.77 C53.4 -7.05, 60.8 -3.62, 74.13 0.93" fill="none" stroke="#1e1e1e" stroke-width="1"></path></g></g><mask></mask><g transform="translate(831.3567602301246 547.7815303868201) rotate(0 46.20796203613281 50)"><text direction="ltr" dominant-baseline="text-before-edge" fill="#1e1e1e" font-family="Virgil, Segoe UI Emoji" font-size="16px" style="white-space: pre;" text-anchor="start" x="0" y="0">Click Event</text><text direction="ltr" dominant-baseline="text-before-edge" fill="#1e1e1e" font-family="Virgil, Segoe UI Emoji" font-size="16px" style="white-space: pre;" text-anchor="start" x="0" y="20">- eventId</text><text direction="ltr" dominant-baseline="text-before-edge" fill="#1e1e1e" font-family="Virgil, Segoe UI Emoji" font-size="16px" style="white-space: pre;" text-anchor="start" x="0" y="40">- adId</text><text direction="ltr" dominant-baseline="text-before-edge" fill="#1e1e1e" font-family="Virgil, Segoe UI Emoji" font-size="16px" style="white-space: pre;" text-anchor="start" x="0" y="60">- userId</text><text direction="ltr" dominant-baseline="text-before-edge" fill="#1e1e1e" font-family="Virgil, Segoe UI Emoji" font-size="16px" style="white-space: pre;" text-anchor="start" x="0" y="80">- timestamp</text></g></svg>