<svg height="341.819613324171" version="1.1" viewbox="0 0 789.3318825123624 341.819613324171" width="789.3318825123624" xmlns="http://www.w3.org/2000/svg">
<!-- svg-source:excalidraw -->
<!-- payload-type:application/vnd.excalidraw+json --><!-- payload-version:2 -->
<defs>
<style class="style-fonts">
</style>
</defs>
<rect fill="#ffffff" height="341.819613324171" width="789.3318825123624" x="0" y="0"></rect><g stroke-linecap="round" transform="translate(10 136.78358978890333) rotate(0 55.986328125 44.6328125)"><path d="M22.32 0 C44.3 -0.15, 63.5 -0.01, 89.66 0 M22.32 0 C42.48 0.15, 64.44 0.18, 89.66 0 M89.66 0 C105 -0.11, 113 8.69, 111.97 22.32 M89.66 0 C103.21 -1.02, 109.7 6.95, 111.97 22.32 M111.97 22.32 C109.95 31.81, 112.43 41.4, 111.97 66.95 M111.97 22.32 C112.16 39.32, 112.26 55.53, 111.97 66.95 M111.97 66.95 C111.71 80.1, 105.39 89.19, 89.66 89.27 M111.97 66.95 C112.25 83.51, 102.9 88.88, 89.66 89.27 M89.66 89.27 C62.68 89.32, 35.95 90.42, 22.32 89.27 M89.66 89.27 C62.59 88.82, 36.35 89.09, 22.32 89.27 M22.32 89.27 C6.65 89.2, -0.67 80.39, 0 66.95 M22.32 89.27 C6.96 88.54, 2 83.29, 0 66.95 M0 66.95 C-0.87 58.57, 1.63 46.54, 0 22.32 M0 66.95 C-0.2 50.34, 0.47 32.14, 0 22.32 M0 22.32 C-0.48 8.39, 5.47 1.56, 22.32 0 M0 22.32 C1.04 7.43, 6.85 1.01, 22.32 0" fill="none" stroke="#1e1e1e" stroke-width="1"></path></g><g transform="translate(38.880859375 171.41640228890333) rotate(0 27.10546875 10)"><text direction="ltr" dominant-baseline="text-before-edge" fill="#1e1e1e" font-family="Virgil, Segoe UI Emoji" font-size="16px" style="white-space: pre;" text-anchor="middle" x="27.10546875" y="0">Browser</text></g><g stroke-linecap="round" transform="translate(261.9480910247312 36.02785242715004) rotate(0 65.490234375 47.623046875)"><path d="M23.81 0 C45.85 -0.97, 66.1 -1.39, 107.17 0 M23.81 0 C46.61 0.17, 69.45 0.85, 107.17 0 M107.17 0 C121.89 -0.89, 129 7.51, 130.98 23.81 M107.17 0 C121.19 -1.44, 131 5.93, 130.98 23.81 M130.98 23.81 C132.51 36.57, 130.43 51.71, 130.98 71.43 M130.98 23.81 C131.07 40.03, 131.63 57.93, 130.98 71.43 M130.98 71.43 C131.23 88.77, 121.62 94.91, 107.17 95.25 M130.98 71.43 C133.01 87.08, 124.73 94.3, 107.17 95.25 M107.17 95.25 C85.9 96.14, 60.24 94.55, 23.81 95.25 M107.17 95.25 C83.85 95.23, 60.98 94.55, 23.81 95.25 M23.81 95.25 C7.52 94.61, 1.74 88.58, 0 71.43 M23.81 95.25 C5.95 93.22, 1.07 85.85, 0 71.43 M0 71.43 C1.46 56.26, 1 37.79, 0 23.81 M0 71.43 C-0.66 54.32, -1.41 37.03, 0 23.81 M0 23.81 C0.9 7.93, 7.42 0.88, 23.81 0 M0 23.81 C1.55 6.02, 6.54 -0.58, 23.81 0" fill="none" stroke="#1e1e1e" stroke-width="1"></path></g><g transform="translate(280.3406691497312 63.65089930215004) rotate(0 47.09765625 20)"><text direction="ltr" dominant-baseline="text-before-edge" fill="#1e1e1e" font-family="Virgil, Segoe UI Emoji" font-size="16px" style="white-space: pre;" text-anchor="middle" x="47.09765625" y="0">Ad Placement </text><text direction="ltr" dominant-baseline="text-before-edge" fill="#1e1e1e" font-family="Virgil, Segoe UI Emoji" font-size="16px" style="white-space: pre;" text-anchor="middle" x="47.09765625" y="20">Service</text></g><g stroke-linecap="round"><g transform="translate(134.0925241049199 163.57533612070142) rotate(0 62.39560422619138 -34.695175134860335)"><path d="M-0.99 -0.35 C19.96 -11.84, 103.95 -58.19, 124.96 -69.71 M0.69 -1.58 C21.56 -12.82, 103.47 -57.24, 124.1 -68.34" fill="none" stroke="#1e1e1e" stroke-width="1"></path></g><g transform="translate(134.0925241049199 163.57533612070142) rotate(0 62.39560422619138 -34.695175134860335)"><path d="M18.75 -22.94 C13.31 -17.44, 8.67 -11.88, -0.99 -0.35 M18.75 -22.94 C12.47 -16.6, 6.24 -9.71, -0.99 -0.35" fill="none" stroke="#1e1e1e" stroke-width="1"></path></g><g transform="translate(134.0925241049199 163.57533612070142) rotate(0 62.39560422619138 -34.695175134860335)"><path d="M28.65 -4.97 C20.97 -3.83, 13.97 -2.55, -0.99 -0.35 M28.65 -4.97 C19.36 -3.86, 10.21 -2.27, -0.99 -0.35" fill="none" stroke="#1e1e1e" stroke-width="1"></path></g><g transform="translate(134.0925241049199 163.57533612070142) rotate(0 62.39560422619138 -34.695175134860335)"><path d="M104.17 -45.91 C108.48 -50.81, 113.28 -55.97, 124.1 -68.34 M104.17 -45.91 C109.36 -53.09, 114.82 -59.47, 124.1 -68.34" fill="none" stroke="#1e1e1e" stroke-width="1"></path></g><g transform="translate(134.0925241049199 163.57533612070142) rotate(0 62.39560422619138 -34.695175134860335)"><path d="M94.42 -63.96 C100.93 -64.48, 108.06 -65.34, 124.1 -68.34 M94.42 -63.96 C102.57 -65.88, 110.9 -66.94, 124.1 -68.34" fill="none" stroke="#1e1e1e" stroke-width="1"></path></g></g><mask></mask><g stroke-linecap="round"><g transform="translate(404.8205866605349 79.50823435819916) rotate(0 47.265762700984396 0.022458893724035534)"><path d="M0.17 -0.32 C16.13 -0.26, 78.98 -0.2, 94.81 -0.02 M-1.2 -1.53 C14.72 -1.25, 78.02 1.42, 94.01 1.49" fill="none" stroke="#1e1e1e" stroke-width="1"></path></g><g transform="translate(404.8205866605349 79.50823435819916) rotate(0 47.265762700984396 0.022458893724035534)"><path d="M28.38 -10.51 C21.69 -7.8, 15.99 -5.01, 0.17 -0.32 M28.38 -10.51 C17.11 -7.15, 7.06 -3.87, 0.17 -0.32" fill="none" stroke="#1e1e1e" stroke-width="1"></path></g><g transform="translate(404.8205866605349 79.50823435819916) rotate(0 47.265762700984396 0.022458893724035534)"><path d="M28.33 10.01 C21.71 8.27, 16.02 6.59, 0.17 -0.32 M28.33 10.01 C17.2 5.93, 7.17 1.77, 0.17 -0.32" fill="none" stroke="#1e1e1e" stroke-width="1"></path></g><g transform="translate(404.8205866605349 79.50823435819916) rotate(0 47.265762700984396 0.022458893724035534)"><path d="M65.56 11.03 C71.24 9.38, 77.85 7.87, 94.01 1.49 M65.56 11.03 C74.94 7.48, 85.43 3.61, 94.01 1.49" fill="none" stroke="#1e1e1e" stroke-width="1"></path></g><g transform="translate(404.8205866605349 79.50823435819916) rotate(0 47.265762700984396 0.022458893724035534)"><path d="M66.09 -9.49 C71.59 -6.68, 78.08 -3.73, 94.01 1.49 M66.09 -9.49 C75.16 -5.6, 85.46 -2.03, 94.01 1.49" fill="none" stroke="#1e1e1e" stroke-width="1"></path></g></g><mask></mask><g stroke-linecap="round" transform="translate(500.8343990482881 10) rotate(0 72.69127211417481 70.84147595836083)"><path d="M90.77 1.35 C100.57 2.77, 111.7 9.33, 119.67 16.15 C127.64 22.97, 134.44 32.77, 138.57 42.25 C142.71 51.74, 144.66 62.86, 144.47 73.05 C144.29 83.25, 142.08 94.4, 137.47 103.44 C132.85 112.47, 125.33 121.04, 116.77 127.26 C108.22 133.48, 96.47 138.67, 86.13 140.76 C75.79 142.86, 64.79 142.51, 54.75 139.81 C44.71 137.12, 34.12 131.25, 25.89 124.59 C17.65 117.94, 9.64 109.2, 5.32 99.86 C1.01 90.53, -0.61 79.03, 0 68.6 C0.62 58.17, 4.16 46.23, 9.02 37.28 C13.87 28.33, 20.82 20.78, 29.12 14.9 C37.41 9.02, 47.42 3.82, 58.79 2.02 C70.15 0.22, 89.98 3.03, 97.3 4.11 C104.61 5.19, 102.84 7.31, 102.65 8.51 M61.78 0.8 C71.52 -1.63, 83.67 0.28, 93.66 3.14 C103.66 5.99, 114 11.01, 121.74 17.93 C129.48 24.84, 135.98 34.73, 140.1 44.61 C144.22 54.5, 147.44 67.15, 146.47 77.23 C145.5 87.3, 139.65 96.52, 134.28 105.06 C128.9 113.61, 122.56 122.37, 114.22 128.5 C105.88 134.63, 94.94 139.96, 84.25 141.84 C73.57 143.73, 60.08 142.84, 50.13 139.81 C40.17 136.78, 32.02 130.68, 24.55 123.65 C17.07 116.62, 9.14 107.39, 5.3 97.64 C1.47 87.88, 0.86 75.37, 1.55 65.1 C2.24 54.83, 4.64 44.63, 9.45 36.01 C14.25 27.4, 21.51 19.27, 30.38 13.4 C39.25 7.52, 57.43 2.53, 62.67 0.77 C67.92 -0.99, 61.59 1.87, 61.83 2.83" fill="none" stroke="#1e1e1e" stroke-width="1"></path></g><g transform="translate(550.7345547174533 70.74898791894009) rotate(0 22.890625 10)"><text direction="ltr" dominant-baseline="text-before-edge" fill="#1e1e1e" font-family="Virgil, Segoe UI Emoji" font-size="16px" style="white-space: pre;" text-anchor="middle" x="22.890625" y="0">Ad DB</text></g><g transform="translate(657.5239754078702 18.709967329693313) rotate(0 60.903953552246094 40)"><text direction="ltr" dominant-baseline="text-before-edge" fill="#1e1e1e" font-family="Virgil, Segoe UI Emoji" font-size="16px" style="white-space: pre;" text-anchor="start" x="0" y="0">Advertisement:</text><text direction="ltr" dominant-baseline="text-before-edge" fill="#1e1e1e" font-family="Virgil, Segoe UI Emoji" font-size="16px" style="white-space: pre;" text-anchor="start" x="0" y="20">- AdId</text><text direction="ltr" dominant-baseline="text-before-edge" fill="#1e1e1e" font-family="Virgil, Segoe UI Emoji" font-size="16px" style="white-space: pre;" text-anchor="start" x="0" y="40">- RedirectUrl</text><text direction="ltr" dominant-baseline="text-before-edge" fill="#1e1e1e" font-family="Virgil, Segoe UI Emoji" font-size="16px" style="white-space: pre;" text-anchor="start" x="0" y="60">- ... metadata </text></g><g stroke-linecap="round" transform="translate(261.55734531268445 229.83990207627608) rotate(0 67.78910812950699 50.98985562394745)"><path d="M25.49 0 C45.59 -0.78, 65.28 0.85, 110.08 0 M25.49 0 C43.26 0.36, 61.1 -0.68, 110.08 0 M110.08 0 C127.82 1.17, 136.51 9.27, 135.58 25.49 M110.08 0 C126.78 -1.99, 136.57 8.41, 135.58 25.49 M135.58 25.49 C135.61 43.19, 135.75 58.81, 135.58 76.48 M135.58 25.49 C135.8 39.64, 135.78 51.59, 135.58 76.48 M135.58 76.48 C134.61 92.98, 126.79 102.02, 110.08 101.98 M135.58 76.48 C134.68 93.4, 126.31 100.33, 110.08 101.98 M110.08 101.98 C87.73 100.99, 61.08 103.64, 25.49 101.98 M110.08 101.98 C89.39 103.38, 70.98 103.15, 25.49 101.98 M25.49 101.98 C8.94 103.37, 1.78 93.07, 0 76.48 M25.49 101.98 C7.95 103.07, -2.27 95.27, 0 76.48 M0 76.48 C0.88 60.23, -1.66 40.07, 0 25.49 M0 76.48 C-0.19 62.26, 0.24 49.14, 0 25.49 M0 25.49 C0.17 8.09, 9.3 -1.05, 25.49 0 M0 25.49 C-2 6.41, 8.51 1.78, 25.49 0" fill="none" stroke="#1e1e1e" stroke-width="1"></path></g><g transform="translate(278.90895344219143 270.8297577002236) rotate(0 50.4375 10)"><text direction="ltr" dominant-baseline="text-before-edge" fill="#1e1e1e" font-family="Virgil, Segoe UI Emoji" font-size="16px" style="white-space: pre;" text-anchor="middle" x="50.4375" y="0">Click Processor</text></g><g stroke-linecap="round"><g transform="translate(130.5561836138795 219.51166857609292) rotate(0 62.281662865861335 30.85117700084629)"><path d="M0.01 -1.05 C20.9 9.44, 103.68 51.55, 124.39 62.15 M-1.45 1.02 C19.36 11.2, 102.55 50.33, 123.34 60.26" fill="none" stroke="#1e1e1e" stroke-width="1"></path></g><g transform="translate(130.5561836138795 219.51166857609292) rotate(0 62.281662865861335 30.85117700084629)"><path d="M29.79 2.56 C21.54 1.48, 17.49 0.48, 0.01 -1.05 M29.79 2.56 C19.22 1.71, 8.37 0.18, 0.01 -1.05" fill="none" stroke="#1e1e1e" stroke-width="1"></path></g><g transform="translate(130.5561836138795 219.51166857609292) rotate(0 62.281662865861335 30.85117700084629)"><path d="M20.5 20.86 C14.4 15.76, 12.39 10.75, 0.01 -1.05 M20.5 20.86 C13.43 13.32, 5.99 5.06, 0.01 -1.05" fill="none" stroke="#1e1e1e" stroke-width="1"></path></g><g transform="translate(130.5561836138795 219.51166857609292) rotate(0 62.281662865861335 30.85117700084629)"><path d="M93.47 57.46 C98.27 57.78, 107.31 58.19, 123.34 60.26 M93.47 57.46 C104.82 59.19, 115.9 60.01, 123.34 60.26" fill="none" stroke="#1e1e1e" stroke-width="1"></path></g><g transform="translate(130.5561836138795 219.51166857609292) rotate(0 62.281662865861335 30.85117700084629)"><path d="M102.26 38.92 C105.01 43.3, 112.12 47.78, 123.34 60.26 M102.26 38.92 C110.3 47.43, 118.15 55.07, 123.34 60.26" fill="none" stroke="#1e1e1e" stroke-width="1"></path></g></g><mask></mask></svg>