<svg height="509.49999999999994" version="1.1" viewbox="0 0 1169.203125 509.49999999999994" width="1169.203125" xmlns="http://www.w3.org/2000/svg">
<!-- svg-source:excalidraw -->
<!-- payload-type:application/vnd.excalidraw+json --><!-- payload-version:2 -->
<defs>
<style class="style-fonts">
</style>
</defs>
<rect fill="#ffffff" height="509.49999999999994" width="1169.203125" x="0" y="0"></rect><g stroke-linecap="round" transform="translate(421.177734375 10) rotate(0 135.65234375 121.24999999999997)"><path d="M0 0 C98.4 2.39, 195.18 1.14, 271.3 0 M0 0 C67.75 0.62, 136.18 0.65, 271.3 0 M271.3 0 C270.97 50.56, 268.89 98.6, 271.3 242.5 M271.3 0 C272.34 96.55, 271.39 192.68, 271.3 242.5 M271.3 242.5 C178.21 242.14, 88.28 242.55, 0 242.5 M271.3 242.5 C203.06 242.38, 133.84 243.29, 0 242.5 M0 242.5 C-1.2 163.16, -0.63 84.76, 0 0 M0 242.5 C-0.42 163.37, -0.95 85.89, 0 0" fill="none" stroke="#1e1e1e" stroke-width="2"></path></g><g stroke-linecap="round" transform="translate(10 339.99999999999994) rotate(0 111.8046875 79.75)"><path d="M0 0 C49.69 -1.5, 101.88 -1.17, 223.61 0 M0 0 C57.29 0.39, 114.53 0, 223.61 0 M223.61 0 C223.68 38.2, 226.67 76.89, 223.61 159.5 M223.61 0 C224.85 63.77, 225.47 126.89, 223.61 159.5 M223.61 159.5 C157.46 159.07, 88.28 160.33, 0 159.5 M223.61 159.5 C155.99 159.77, 87.89 159.55, 0 159.5 M0 159.5 C0.71 110.74, 0.38 60.67, 0 0 M0 159.5 C-1.18 118.46, -2.08 77.26, 0 0" fill="none" stroke="#1e1e1e" stroke-width="2"></path></g><g stroke-linecap="round" transform="translate(283.609375 339.99999999999994) rotate(0 110.3046875 79.75)"><path d="M0 0 C78.11 0.37, 157.17 -0.71, 220.61 0 M0 0 C57.82 -0.06, 116.8 1.22, 220.61 0 M220.61 0 C221.68 59.81, 221.66 120.91, 220.61 159.5 M220.61 0 C220.64 58.62, 220.26 114.87, 220.61 159.5 M220.61 159.5 C158.92 160.84, 98.9 160.98, 0 159.5 M220.61 159.5 C160.44 161.78, 99.92 161.27, 0 159.5 M0 159.5 C-0.17 112.41, -1.46 64.8, 0 0 M0 159.5 C-1.07 126.21, -0.18 93.11, 0 0" fill="none" stroke="#1e1e1e" stroke-width="2"></path></g><g stroke-linecap="round" transform="translate(554.21875 339.99999999999994) rotate(0 165.52734375 79.75)"><path d="M0 0 C91.35 -0.82, 183.37 -0.54, 331.05 0 M0 0 C88.5 2.2, 178.32 1.35, 331.05 0 M331.05 0 C334.49 48.82, 333.83 93.52, 331.05 159.5 M331.05 0 C331.69 59.04, 331.44 120.11, 331.05 159.5 M331.05 159.5 C231.09 162.32, 130.65 161.76, 0 159.5 M331.05 159.5 C201.97 160.98, 72.73 161.21, 0 159.5 M0 159.5 C-1.2 103.56, -2.17 44.53, 0 0 M0 159.5 C1.26 109.07, 1.7 57.46, 0 0" fill="none" stroke="#1e1e1e" stroke-width="2"></path></g><g stroke-linecap="round" transform="translate(935.2734375 339.99999999999994) rotate(0 111.96484375 79.75)"><path d="M0 0 C65.85 0.49, 132.34 -0.39, 223.93 0 M0 0 C50.83 -1.84, 100.35 -0.56, 223.93 0 M223.93 0 C226.69 49.57, 226.94 100.82, 223.93 159.5 M223.93 0 C223.7 61.82, 223.96 121.88, 223.93 159.5 M223.93 159.5 C139.51 161.81, 57.55 161.57, 0 159.5 M223.93 159.5 C142.46 159.94, 61.48 159.8, 0 159.5 M0 159.5 C-1.13 102.88, 1.07 43.89, 0 0 M0 159.5 C0.29 107.91, -0.9 56.8, 0 0" fill="none" stroke="#1e1e1e" stroke-width="2"></path></g><g stroke-linecap="round"><g transform="translate(421.177734375 59.49999999999994) rotate(0 135.65234375 0)"><path d="M0 0 C63.01 -0.55, 125.82 0.03, 271.3 0 M0 0 C100.8 1.88, 201.8 1.88, 271.3 0" fill="none" stroke="#000" stroke-width="1"></path></g></g><mask></mask><g stroke-linecap="round"><g transform="translate(421.177734375 241.49999999999994) rotate(0 135.65234375 0)"><path d="M0 0 C67.9 1.11, 139.29 3.19, 271.3 0 M0 0 C66.99 -1.29, 134.48 -1.55, 271.3 0" fill="none" stroke="#000" stroke-width="1"></path></g></g><mask></mask><g stroke-linecap="round"><g transform="translate(10 389.49999999999994) rotate(0 111.8046875 0)"><path d="M0 0 C46.73 2.41, 90.08 1.06, 223.61 0 M0 0 C89.34 -1.3, 176.9 -1.19, 223.61 0" fill="none" stroke="#000" stroke-width="1"></path></g></g><mask></mask><g stroke-linecap="round"><g transform="translate(10 488.49999999999994) rotate(0 111.8046875 0)"><path d="M0 0 C52.78 -1.5, 109.06 -1.18, 223.61 0 M0 0 C88.17 -0.56, 177.06 -0.48, 223.61 0" fill="none" stroke="#000" stroke-width="1"></path></g></g><mask></mask><g stroke-linecap="round"><g transform="translate(283.609375 389.49999999999994) rotate(0 110.3046875 0)"><path d="M0 0 C84.01 0.34, 166.34 1.7, 220.61 0 M0 0 C80.26 -0.7, 159.85 -2.02, 220.61 0" fill="none" stroke="#000" stroke-width="1"></path></g></g><mask></mask><g stroke-linecap="round"><g transform="translate(283.609375 488.49999999999994) rotate(0 110.3046875 0)"><path d="M0 0 C66.63 1.33, 131.05 -0.65, 220.61 0 M0 0 C82.62 -2.19, 165.03 -1.03, 220.61 0" fill="none" stroke="#000" stroke-width="1"></path></g></g><mask></mask><g stroke-linecap="round"><g transform="translate(554.21875 389.49999999999994) rotate(0 165.52734375 0)"><path d="M0 0 C104.67 -2.38, 208.66 -1.54, 331.05 0 M0 0 C126.8 2, 253.95 1.24, 331.05 0" fill="none" stroke="#000" stroke-width="1"></path></g></g><mask></mask><g stroke-linecap="round"><g transform="translate(554.21875 488.49999999999994) rotate(0 165.52734375 0)"><path d="M0 0 C130.77 1.04, 260.64 0.52, 331.05 0 M0 0 C76.54 -1.78, 153.56 -1.44, 331.05 0" fill="none" stroke="#000" stroke-width="1"></path></g></g><mask></mask><g stroke-linecap="round"><g transform="translate(935.2734375 389.49999999999994) rotate(0 111.96484375 0)"><path d="M0 0 C63.58 -0.74, 123.11 -1.17, 223.93 0 M0 0 C82.37 0.92, 164.17 0.66, 223.93 0" fill="none" stroke="#000" stroke-width="1"></path></g></g><mask></mask><g stroke-linecap="round"><g transform="translate(935.2734375 488.49999999999994) rotate(0 111.96484375 0)"><path d="M0 0 C74.77 -0.43, 153.02 0.02, 223.93 0 M0 0 C57.58 -0.3, 114.08 0.7, 223.93 0" fill="none" stroke="#000" stroke-width="1"></path></g></g><mask></mask><g mask="url(#mask-wMxpPYbUBRI-PCb-KjCCF)" stroke-linecap="round"><g transform="translate(420.6779999999999 183.20099999999996) rotate(0 -149.1865 78.14949999999999)"><path d="M-0.29 0.78 C-50.01 26.88, -248.82 129.82, -298.35 155.75 M1.76 0.14 C-48.12 26.47, -249.36 130.74, -299.28 156.99" fill="none" stroke="#1e1e1e" stroke-width="2"></path></g><g transform="translate(420.6779999999999 183.20099999999996) rotate(0 -149.1865 78.14949999999999)"><path d="M-279.03 134.86 C-283.98 141.51, -292.29 149.63, -299.28 156.99 M-279.03 134.86 C-284.59 142.44, -290.89 148.9, -299.28 156.99" fill="none" stroke="#1e1e1e" stroke-width="2"></path></g><g transform="translate(420.6779999999999 183.20099999999996) rotate(0 -149.1865 78.14949999999999)"><path d="M-269.54 153.05 C-277.22 154.21, -288.38 156.85, -299.28 156.99 M-269.54 153.05 C-278.14 155.07, -287.32 156.01, -299.28 156.99" fill="none" stroke="#1e1e1e" stroke-width="2"></path></g></g><mask id="mask-wMxpPYbUBRI-PCb-KjCCF"><rect fill="#fff" height="440.49999999999994" width="820.0509999999999" x="0" y="0"></rect><rect fill="#000" height="20" opacity="1" width="64.06394958496094" x="239.4595252075194" y="251.3505"></rect></mask><g mask="url(#mask-wbTF8je_AAxDKkwIfuyLj)" stroke-linecap="round"><g transform="translate(436.6109999999999 252.99999999999994) rotate(0 -21.0985 43.25)"><path d="M0.03 -0.55 C-6.81 13.74, -34.43 72.09, -41.3 86.55 M-1.42 1.77 C-8.31 16.21, -35.1 73.85, -41.77 88.11" fill="none" stroke="#1e1e1e" stroke-width="2"></path></g><g transform="translate(436.6109999999999 252.99999999999994) rotate(0 -21.0985 43.25)"><path d="M-39.16 58.22 C-40.61 67.97, -40.33 76.38, -41.77 88.11 M-39.16 58.22 C-39.48 67.07, -40.33 74.67, -41.77 88.11" fill="none" stroke="#1e1e1e" stroke-width="2"></path></g><g transform="translate(436.6109999999999 252.99999999999994) rotate(0 -21.0985 43.25)"><path d="M-20.56 66.9 C-27.2 74.26, -32.05 80.27, -41.77 88.11 M-20.56 66.9 C-26.01 73.54, -31.95 78.76, -41.77 88.11" fill="none" stroke="#1e1e1e" stroke-width="2"></path></g></g><mask id="mask-wbTF8je_AAxDKkwIfuyLj"><rect fill="#fff" height="440.49999999999994" width="579.8079999999999" x="0" y="0"></rect><rect fill="#000" height="20" opacity="1" width="64.06394958496094" x="383.48052520751935" y="286.25"></rect></mask><g mask="url(#mask-UMTe_zLz8Z9AZhs7M--Kc)" stroke-linecap="round"><g transform="translate(677.049 252.99999999999994) rotate(0 21.0985 43.25)"><path d="M0.9 0.05 C8.09 14.5, 36.23 71.6, 43.19 86.19 M-0.09 -0.97 C7.03 13.71, 35.72 73.09, 42.77 87.56" fill="none" stroke="#1e1e1e" stroke-width="2"></path></g><g transform="translate(677.049 252.99999999999994) rotate(0 21.0985 43.25)"><path d="M21.24 66.67 C27.72 74.48, 33.63 79.96, 42.77 87.56 M21.24 66.67 C29.83 74.73, 38.12 83.23, 42.77 87.56" fill="none" stroke="#1e1e1e" stroke-width="2"></path></g><g transform="translate(677.049 252.99999999999994) rotate(0 21.0985 43.25)"><path d="M39.7 57.71 C40.57 68.37, 40.89 76.55, 42.77 87.56 M39.7 57.71 C41.11 69.39, 42.2 81.38, 42.77 87.56" fill="none" stroke="#1e1e1e" stroke-width="2"></path></g></g><mask id="mask-UMTe_zLz8Z9AZhs7M--Kc"><rect fill="#fff" height="440.49999999999994" width="820.246" x="0" y="0"></rect><rect fill="#000" height="20" opacity="1" width="64.06394958496094" x="666.1155252075196" y="286.25"></rect></mask><g mask="url(#mask-6FLrBaobDly5S_1AydQ2i)" stroke-linecap="round"><g transform="translate(692.982 177.39100000000002) rotate(0 176.87800000000004 81.05450000000002)"><path d="M0.99 -0.31 C59.89 26.88, 295.4 135.99, 354.25 163.19 M0.06 -1.53 C58.76 25.35, 294.66 134.56, 353.57 161.64" fill="none" stroke="#1e1e1e" stroke-width="2"></path></g><g transform="translate(692.982 177.39100000000002) rotate(0 176.87800000000004 81.05450000000002)"><path d="M323.67 159.14 C334.36 160.66, 347.89 161.31, 353.57 161.64 M323.67 159.14 C334.58 160.43, 346.05 161.17, 353.57 161.64" fill="none" stroke="#1e1e1e" stroke-width="2"></path></g><g transform="translate(692.982 177.39100000000002) rotate(0 176.87800000000004 81.05450000000002)"><path d="M332.27 140.51 C339.74 149.08, 350.05 156.72, 353.57 161.64 M332.27 140.51 C340.07 148.58, 348.42 156.11, 353.57 161.64" fill="none" stroke="#1e1e1e" stroke-width="2"></path></g></g><mask id="mask-6FLrBaobDly5S_1AydQ2i"><rect fill="#fff" height="440.50000000000006" width="1147.738" x="0" y="0"></rect><rect fill="#000" height="20" opacity="1" width="64.06394958496094" x="837.8280252075194" y="248.44550000000004"></rect></mask><g transform="translate(453.740234375 15) rotate(0 94.22992706298828 12.5)"><text direction="ltr" dominant-baseline="text-before-edge" fill="#1e1e1e" font-family="Virgil, Segoe UI Emoji" font-size="20px" style="white-space: pre;" text-anchor="start" x="0" y="0">NoSQL_Databases</text></g><g transform="translate(428.677734375 68.49999999999994) rotate(0 89.73992156982422 12.5)"><text direction="ltr" dominant-baseline="text-before-edge" fill="#1e1e1e" font-family="Virgil, Segoe UI Emoji" font-size="20px" style="white-space: pre;" text-anchor="start" x="0" y="0">+Key-Value Stores</text></g><g transform="translate(428.677734375 109.99999999999994) rotate(0 89.87992095947266 12.5)"><text direction="ltr" dominant-baseline="text-before-edge" fill="#1e1e1e" font-family="Virgil, Segoe UI Emoji" font-size="20px" style="white-space: pre;" text-anchor="start" x="0" y="0">+Document Stores</text></g><g transform="translate(428.677734375 151.49999999999994) rotate(0 107.36990356445312 12.5)"><text direction="ltr" dominant-baseline="text-before-edge" fill="#1e1e1e" font-family="Virgil, Segoe UI Emoji" font-size="20px" style="white-space: pre;" text-anchor="start" x="0" y="0">+Column-Family Stores</text></g><g transform="translate(428.677734375 192.99999999999994) rotate(0 94.84993743896484 12.5)"><text direction="ltr" dominant-baseline="text-before-edge" fill="#1e1e1e" font-family="Virgil, Segoe UI Emoji" font-size="20px" style="white-space: pre;" text-anchor="start" x="0" y="0">+Graph Databases</text></g><g transform="translate(17.5 344.99999999999994) rotate(0 90.89991760253906 12.5)"><text direction="ltr" dominant-baseline="text-before-edge" fill="#1e1e1e" font-family="Virgil, Segoe UI Emoji" font-size="20px" style="white-space: pre;" text-anchor="start" x="0" y="0">Key_Value_Stores</text></g><g transform="translate(17.5 398.49999999999994) rotate(0 65.52994537353516 12.5)"><text direction="ltr" dominant-baseline="text-before-edge" fill="#1e1e1e" font-family="Virgil, Segoe UI Emoji" font-size="20px" style="white-space: pre;" text-anchor="start" x="0" y="0">-Fast Access</text></g><g transform="translate(17.5 439.99999999999994) rotate(0 63.72993469238281 12.5)"><text direction="ltr" dominant-baseline="text-before-edge" fill="#1e1e1e" font-family="Virgil, Segoe UI Emoji" font-size="20px" style="white-space: pre;" text-anchor="start" x="0" y="0">-Simple Model</text></g><g transform="translate(291.109375 344.99999999999994) rotate(0 86.8899154663086 12.5)"><text direction="ltr" dominant-baseline="text-before-edge" fill="#1e1e1e" font-family="Virgil, Segoe UI Emoji" font-size="20px" style="white-space: pre;" text-anchor="start" x="0" y="0">Document_Stores</text></g><g transform="translate(291.109375 398.49999999999994) rotate(0 38.93995666503906 12.5)"><text direction="ltr" dominant-baseline="text-before-edge" fill="#1e1e1e" font-family="Virgil, Segoe UI Emoji" font-size="20px" style="white-space: pre;" text-anchor="start" x="0" y="0">-Flexible</text></g><g transform="translate(291.109375 439.99999999999994) rotate(0 61.68993377685547 12.5)"><text direction="ltr" dominant-baseline="text-before-edge" fill="#1e1e1e" font-family="Virgil, Segoe UI Emoji" font-size="20px" style="white-space: pre;" text-anchor="start" x="0" y="0">-Schema-less</text></g><g transform="translate(586.65625 344.99999999999994) rotate(0 108.52989959716797 12.5)"><text direction="ltr" dominant-baseline="text-before-edge" fill="#1e1e1e" font-family="Virgil, Segoe UI Emoji" font-size="20px" style="white-space: pre;" text-anchor="start" x="0" y="0">Column_Family_Stores</text></g><g transform="translate(561.71875 398.49999999999994) rotate(0 44.359962463378906 12.5)"><text direction="ltr" dominant-baseline="text-before-edge" fill="#1e1e1e" font-family="Virgil, Segoe UI Emoji" font-size="20px" style="white-space: pre;" text-anchor="start" x="0" y="0">-Scalable</text></g><g transform="translate(561.71875 439.99999999999994) rotate(0 132.71987915039062 12.5)"><text direction="ltr" dominant-baseline="text-before-edge" fill="#1e1e1e" font-family="Virgil, Segoe UI Emoji" font-size="20px" style="white-space: pre;" text-anchor="start" x="0" y="0">-High performance for write</text></g><g transform="translate(947.03515625 344.99999999999994) rotate(0 91.85993194580078 12.5)"><text direction="ltr" dominant-baseline="text-before-edge" fill="#1e1e1e" font-family="Virgil, Segoe UI Emoji" font-size="20px" style="white-space: pre;" text-anchor="start" x="0" y="0">Graph_Databases</text></g><g transform="translate(942.7734375 398.49999999999994) rotate(0 66.62992858886719 12.5)"><text direction="ltr" dominant-baseline="text-before-edge" fill="#1e1e1e" font-family="Virgil, Segoe UI Emoji" font-size="20px" style="white-space: pre;" text-anchor="start" x="0" y="0">-Relationships</text></g><g transform="translate(942.7734375 439.99999999999994) rotate(0 92.66990661621094 12.5)"><text direction="ltr" dominant-baseline="text-before-edge" fill="#1e1e1e" font-family="Virgil, Segoe UI Emoji" font-size="20px" style="white-space: pre;" text-anchor="start" x="0" y="0">-Efficient retrieval</text></g><g transform="translate(239.4595252075194 251.3505) rotate(0 32.45829222764823 10.418912981487836)"><text direction="ltr" dominant-baseline="text-before-edge" fill="#1e1e1e" font-family="Virgil, Segoe UI Emoji" font-size="16px" style="white-space: pre;" text-anchor="middle" x="32.03197479248047" y="0">Includes</text></g><g transform="translate(383.4805252075194 286.25) rotate(0 32.25663491854445 10.528945234026764)"><text direction="ltr" dominant-baseline="text-before-edge" fill="#1e1e1e" font-family="Virgil, Segoe UI Emoji" font-size="16px" style="white-space: pre;" text-anchor="middle" x="32.03197479248047" y="0">Includes</text></g><g transform="translate(666.1155252075196 286.25) rotate(0 32.48565498614681 10.04280728373675)"><text direction="ltr" dominant-baseline="text-before-edge" fill="#1e1e1e" font-family="Virgil, Segoe UI Emoji" font-size="16px" style="white-space: pre;" text-anchor="middle" x="32.03197479248047" y="0">Includes</text></g><g transform="translate(837.8280252075195 248.44550000000004) rotate(0 32.309268997702816 9.778580284621626)"><text direction="ltr" dominant-baseline="text-before-edge" fill="#1e1e1e" font-family="Virgil, Segoe UI Emoji" font-size="16px" style="white-space: pre;" text-anchor="middle" x="32.03197479248047" y="0">Includes</text></g></svg>