<svg height="405.0625" version="1.1" viewbox="0 0 715.3828125 405.0625" width="715.3828125" xmlns="http://www.w3.org/2000/svg">
<!-- svg-source:excalidraw -->
<!-- payload-type:application/vnd.excalidraw+json --><!-- payload-version:2 -->
<defs>
<style class="style-fonts">
</style>
</defs>
<rect fill="#ffffff" height="405.0625" width="715.3828125" x="0" y="0"></rect><g stroke-linecap="round" transform="translate(168.6171875 347.7109375) rotate(0 268.3828125 23.67578125)"><path d="M11.84 0 C153.93 -0.03, 294.75 0.37, 524.93 0 C536.03 2.21, 534.07 2.82, 536.77 11.84 C536.53 21.54, 537.48 30.46, 536.77 35.51 C536.3 40.38, 534.89 48.34, 524.93 47.35 C415.08 43.37, 308.67 44.16, 11.84 47.35 C4.12 49.44, -0.67 40.88, 0 35.51 C2.49 31.47, -0.02 18.28, 0 11.84 C-0.73 3.64, 6.38 2.16, 11.84 0" fill="#ffffff" stroke="none" stroke-width="0"></path><path d="M11.84 0 C165.82 -1.25, 320.1 -1.35, 524.93 0 M11.84 0 C122.79 -0.14, 234.1 -0.44, 524.93 0 M524.93 0 C533.66 0.67, 536.43 2.52, 536.77 11.84 M524.93 0 C534.64 0.21, 535.96 5.58, 536.77 11.84 M536.77 11.84 C535.2 20.51, 537.97 30.84, 536.77 35.51 M536.77 11.84 C536.42 20.42, 537.35 29.49, 536.77 35.51 M536.77 35.51 C537.84 42.32, 531 48.98, 524.93 47.35 M536.77 35.51 C535.95 41.54, 534.16 46.34, 524.93 47.35 M524.93 47.35 C412.11 48.75, 298.34 47.98, 11.84 47.35 M524.93 47.35 C364.1 47.5, 202.62 47.48, 11.84 47.35 M11.84 47.35 C2.87 46.91, 1.4 43.27, 0 35.51 M11.84 47.35 C3.82 46.76, -0.37 44.48, 0 35.51 M0 35.51 C-2.07 27.73, 0.75 25.16, 0 11.84 M0 35.51 C0.4 28.45, 0.41 21.21, 0 11.84 M0 11.84 C-0.42 2.71, 2.74 0.51, 11.84 0 M0 11.84 C-0.07 3.9, 3.13 0.85, 11.84 0" fill="none" stroke="#e03131" stroke-width="1"></path></g><g transform="translate(339.1400375366211 353.88671875) rotate(0 97.8599624633789 17.5)"><text direction="ltr" dominant-baseline="text-before-edge" fill="#e03131" font-family="Virgil, Segoe UI Emoji" font-size="28px" style="white-space: pre;" text-anchor="middle" x="97.8599624633789" y="0">Core Concepts</text></g><g stroke-linecap="round" transform="translate(186.48046875 273.3125) rotate(0 123.13281249999994 31.333984375)"><path d="M15.67 0 C75.48 2.18, 127.32 -0.74, 230.6 0 C243.33 -3.04, 249.74 5.34, 246.27 15.67 C245.97 23, 248.51 37.37, 246.27 47 C243.08 56.28, 237.58 59.39, 230.6 62.67 C172.68 65.34, 113.87 61.31, 15.67 62.67 C5.57 65.23, -1.53 60.24, 0 47 C-0.77 34.43, 2.39 24.63, 0 15.67 C3.57 2.51, 3.48 1.46, 15.67 0" fill="#ffffff" stroke="none" stroke-width="0"></path><path d="M15.67 0 C78.66 1, 144.81 -0.99, 230.6 0 M15.67 0 C88.9 0.99, 161.24 0.08, 230.6 0 M230.6 0 C242.63 0.18, 245.56 6.64, 246.27 15.67 M230.6 0 C243.33 -0.01, 245.45 3.42, 246.27 15.67 M246.27 15.67 C248.18 24.34, 245.89 31.2, 246.27 47 M246.27 15.67 C246.97 22.75, 245.52 31.73, 246.27 47 M246.27 47 C245.55 55.83, 242.21 61.79, 230.6 62.67 M246.27 47 C244.44 56.58, 242.6 63.47, 230.6 62.67 M230.6 62.67 C166.02 61.58, 101.38 61.6, 15.67 62.67 M230.6 62.67 C184.22 60.74, 139.39 60.88, 15.67 62.67 M15.67 62.67 C5.11 62.15, -0.32 58.38, 0 47 M15.67 62.67 C4.29 64.81, 2.21 55.32, 0 47 M0 47 C-0.35 39.12, -0.6 33.87, 0 15.67 M0 47 C-0.3 37.61, -0.69 29.71, 0 15.67 M0 15.67 C-0.06 5.18, 4.51 0.74, 15.67 0 M0 15.67 C-0.53 6.75, 4.93 0.15, 15.67 0" fill="none" stroke="#1971c2" stroke-width="4"></path></g><g transform="translate(195.87733459472656 287.146484375) rotate(0 113.73594665527344 17.5)"><text direction="ltr" dominant-baseline="text-before-edge" fill="#1971c2" font-family="Virgil, Segoe UI Emoji" font-size="28px" style="white-space: pre;" text-anchor="middle" x="113.73594665527344" y="0">Key Technologies</text></g><g stroke-linecap="round" transform="translate(455.15234375 274.125) rotate(0 117.654296875 29.283203125)"><path d="M14.64 0 C91.13 -1.67, 166.65 1.14, 220.67 0 C231.53 1.07, 236.72 4.41, 235.31 14.64 C232.43 19.79, 232.15 24.01, 235.31 43.92 C234.24 55.76, 231.33 58.74, 220.67 58.57 C147.24 58.53, 71.84 58.74, 14.64 58.57 C8.17 58.85, -2.57 52.96, 0 43.92 C3.21 32.68, -2.1 28.32, 0 14.64 C-1.8 7.74, 3.54 -0.6, 14.64 0" fill="#ffffff" stroke="none" stroke-width="0"></path><path d="M14.64 0 C86.25 0.38, 155.82 2.03, 220.67 0 M14.64 0 C84.02 1.39, 151.67 1.94, 220.67 0 M220.67 0 C232.41 -0.01, 234.6 3.31, 235.31 14.64 M220.67 0 C229.53 1.39, 235.42 6.86, 235.31 14.64 M235.31 14.64 C234.09 25.21, 233.95 34.73, 235.31 43.92 M235.31 14.64 C234.69 21.03, 235.63 28.6, 235.31 43.92 M235.31 43.92 C233.72 52.94, 231.78 59.26, 220.67 58.57 M235.31 43.92 C235.35 52.51, 228.25 58.88, 220.67 58.57 M220.67 58.57 C149.17 57.85, 79.12 58.36, 14.64 58.57 M220.67 58.57 C163.33 58.21, 105.94 58.86, 14.64 58.57 M14.64 58.57 C4.07 60.43, 1.93 51.84, 0 43.92 M14.64 58.57 C3 59.68, 2.23 53.45, 0 43.92 M0 43.92 C-0.33 37.23, -1.1 28.98, 0 14.64 M0 43.92 C0.15 36.93, -0.18 30.35, 0 14.64 M0 14.64 C-0.46 6.21, 4.62 0.13, 14.64 0 M0 14.64 C-0.8 3.14, 4.72 2.05, 14.64 0" fill="none" stroke="#2f9e44" stroke-width="1"></path></g><g transform="translate(510.57666778564453 285.908203125) rotate(0 62.22997283935547 17.5)"><text direction="ltr" dominant-baseline="text-before-edge" fill="#2f9e44" font-family="Virgil, Segoe UI Emoji" font-size="28px" style="white-space: pre;" text-anchor="middle" x="62.22997283935547" y="0">Patterns</text></g><g stroke-linecap="round" transform="translate(204.4765625 210.3203125) rotate(0 236.494140625 24.8359375)"><path d="M12.42 0 C109.59 0.39, 206.38 -0.36, 460.57 0 C465.82 2.07, 473.98 0.95, 472.99 12.42 C471.49 21.14, 473.46 25.88, 472.99 37.25 C475.07 44.86, 466.32 50.02, 460.57 49.67 C295.87 52.85, 126.72 52.36, 12.42 49.67 C3.83 52.11, 2.16 49.1, 0 37.25 C-1.58 34.53, -1.13 25.49, 0 12.42 C-0.04 1.17, 0.72 -2.74, 12.42 0" fill="#ffffff" stroke="none" stroke-width="0"></path><path d="M12.42 0 C124.58 -1.08, 235.39 -0.15, 460.57 0 M12.42 0 C151.46 -1.55, 289.37 -1.93, 460.57 0 M460.57 0 C468.07 1.21, 473.08 5.86, 472.99 12.42 M460.57 0 C469.42 -0.65, 472.05 2.84, 472.99 12.42 M472.99 12.42 C471.75 19.36, 474.45 29.24, 472.99 37.25 M472.99 12.42 C472.34 17.48, 473.81 23.65, 472.99 37.25 M472.99 37.25 C473.02 44.51, 466.95 49.95, 460.57 49.67 M472.99 37.25 C473.9 46.09, 469.79 47.69, 460.57 49.67 M460.57 49.67 C362.89 49.18, 265.58 48.45, 12.42 49.67 M460.57 49.67 C337.43 51.14, 215.16 50.24, 12.42 49.67 M12.42 49.67 C2.51 50.64, 1.94 45.33, 0 37.25 M12.42 49.67 C2.95 49.16, 0.63 45.07, 0 37.25 M0 37.25 C-1.09 27.89, 0.66 20.89, 0 12.42 M0 37.25 C-0.14 30.52, -0.04 22.52, 0 12.42 M0 12.42 C-0.7 2.62, 4 1.78, 12.42 0 M0 12.42 C1.41 2.42, 3.42 1.46, 12.42 0" fill="none" stroke="#f08c00" stroke-width="1"></path></g><g transform="translate(312.0447692871094 217.65625) rotate(0 128.92593383789062 17.5)"><text direction="ltr" dominant-baseline="text-before-edge" fill="#f08c00" font-family="Virgil, Segoe UI Emoji" font-size="28px" style="white-space: pre;" text-anchor="middle" x="128.92593383789062" y="0">Delivery Framework</text></g><g stroke-linecap="round" transform="translate(260.548828125 127.65191094888746) rotate(0 36.93997940173807 29.29883692336523)"><path d="M14.65 0 C30.23 -0.54, 49.33 -1.41, 59.23 0 C72.35 3.47, 70.56 1.94, 73.88 14.65 C72.52 24.05, 75.37 34.34, 73.88 43.95 C74.9 51.62, 68.25 56.37, 59.23 58.6 C48.47 57.3, 39.19 57.74, 14.65 58.6 C7.28 58.14, 0.23 52.46, 0 43.95 C2.25 34.68, -1.09 33.09, 0 14.65 C-3.04 8.36, 5 1.1, 14.65 0" fill="#ffffff" stroke="none" stroke-width="0"></path><path d="M14.65 0 C27.47 -1.06, 41.33 1.63, 59.23 0 M59.23 0 C68.99 -0.71, 72.31 4.1, 73.88 14.65 M73.88 14.65 C74.39 24.64, 73.08 34.63, 73.88 43.95 M73.88 43.95 C74.94 52.44, 70.07 57.51, 59.23 58.6 M59.23 58.6 C48.29 59.61, 39.71 56.85, 14.65 58.6 M14.65 58.6 C4.13 59.95, 0.69 53.75, 0 43.95 M0 43.95 C1.07 37.14, 1.1 27.64, 0 14.65 M0 14.65 C-1.65 3.04, 3.81 -0.44, 14.65 0" fill="none" stroke="#1e1e1e" stroke-dasharray="8 9" stroke-width="1.5"></path></g><g transform="translate(275.57578262439426 144.49414566864888) rotate(0 21.91302490234375 12.456602203603808)"><text direction="ltr" dominant-baseline="text-before-edge" fill="#1e1e1e" font-family="Virgil, Segoe UI Emoji" font-size="19.930563525766097px" style="white-space: pre;" text-anchor="middle" x="21.91302490234375" y="0">Uber</text></g><g stroke-linecap="round" transform="translate(348.0469991858431 127.32506165580526) rotate(0 44.13724502673807 29.38672754836523)"><path d="M14.69 0 C34.75 3.89, 44.79 -2.51, 73.58 0 C85.12 3.5, 87.91 3.03, 88.27 14.69 C89.44 20.76, 87.67 28.78, 88.27 44.08 C86.1 54.8, 83.27 58.7, 73.58 58.77 C60.39 58.07, 42.64 57.28, 14.69 58.77 C2.17 58.52, 3.21 56.09, 0 44.08 C-2.87 40.94, 0.29 31.95, 0 14.69 C1.07 6.31, 4.43 -3.03, 14.69 0" fill="#ffffff" stroke="none" stroke-width="0"></path><path d="M14.69 0 C30.27 -1.3, 44.31 -1.37, 73.58 0 M73.58 0 C84.58 0.09, 90 5.39, 88.27 14.69 M88.27 14.69 C89.21 21.4, 89.23 29.57, 88.27 44.08 M88.27 44.08 C86.46 55.5, 82.66 57.15, 73.58 58.77 M73.58 58.77 C51.73 59.66, 32.07 58.34, 14.69 58.77 M14.69 58.77 C3.87 56.88, 0.28 54.67, 0 44.08 M0 44.08 C-1.77 32.71, -1.19 24.59, 0 14.69 M0 14.69 C1.4 4.76, 4.78 -0.51, 14.69 0" fill="none" stroke="#1e1e1e" stroke-dasharray="8 9" stroke-width="1.5"></path></g><g transform="translate(374.0579243273272 144.25518700056668) rotate(0 18.126319885253906 12.456602203603808)"><text direction="ltr" dominant-baseline="text-before-edge" fill="#1e1e1e" font-family="Virgil, Segoe UI Emoji" font-size="19.930563525766097px" style="white-space: pre;" text-anchor="middle" x="18.126319885253906" y="0">Yelp</text></g><g stroke-linecap="round" transform="translate(454.20060608967924 127.61287691748322) rotate(0 44.13724502673807 29.98243067336523)"><path d="M14.99 0 C39.83 4.35, 60.83 -1.01, 73.28 0 C82.47 0.98, 87.55 6.01, 88.27 14.99 C85.99 23.17, 88.06 29.43, 88.27 44.97 C87 56.29, 82.44 62.36, 73.28 59.96 C53.81 59.34, 43.01 61.81, 14.99 59.96 C2.3 58.84, 2.28 51.93, 0 44.97 C1.06 34.5, -0.48 18.17, 0 14.99 C2.07 5.99, 1.81 -1.17, 14.99 0" fill="#ffffff" stroke="none" stroke-width="0"></path><path d="M14.99 0 C31.61 0.32, 47.55 0.72, 73.28 0 M73.28 0 C82.71 -0.81, 87.14 6.06, 88.27 14.99 M88.27 14.99 C86.62 23.7, 87.72 27.54, 88.27 44.97 M88.27 44.97 C89.44 54.09, 81.69 59.22, 73.28 59.96 M73.28 59.96 C50.83 58.08, 30.7 60.77, 14.99 59.96 M14.99 59.96 C5.48 60.78, -1.73 53.32, 0 44.97 M0 44.97 C1.56 38.6, 0.05 31.99, 0 14.99 M0 14.99 C-0.32 5.93, 4.19 1.86, 14.99 0" fill="none" stroke="#1e1e1e" stroke-dasharray="8 9" stroke-width="1.5"></path></g><g transform="translate(461.38765580391737 132.68210318364083) rotate(0 36.9501953125 24.913204407207616)"><text direction="ltr" dominant-baseline="text-before-edge" fill="#1e1e1e" font-family="Virgil, Segoe UI Emoji" font-size="19.930563525766097px" style="white-space: pre;" text-anchor="middle" x="36.9501953125" y="0">Google </text><text direction="ltr" dominant-baseline="text-before-edge" fill="#1e1e1e" font-family="Virgil, Segoe UI Emoji" font-size="19.930563525766097px" style="white-space: pre;" text-anchor="middle" x="36.9501953125" y="24.913204407207623">Docs</text></g><g stroke-linecap="round" transform="translate(559.7352755715237 125.73435740326954) rotate(0 38.61576065173807 31.14649317336523)"><path d="M15.57 0 C33.07 1.41, 51.45 1.45, 61.66 0 C69.95 -0.75, 75 3.02, 77.23 15.57 C75.94 27.04, 76.38 38.26, 77.23 46.72 C76.77 57.33, 70.79 59.56, 61.66 62.29 C45.47 61.67, 36.95 59.77, 15.57 62.29 C8.66 62.41, 1.1 58.18, 0 46.72 C2.14 37.14, -3.11 24.42, 0 15.57 C-3.46 1.91, 4.12 2.07, 15.57 0" fill="#ffffff" stroke="none" stroke-width="0"></path><path d="M15.57 0 C29.05 -0.93, 42.53 0.94, 61.66 0 M61.66 0 C70.77 1.07, 76.15 3.37, 77.23 15.57 M77.23 15.57 C78.29 26.57, 75.53 38.57, 77.23 46.72 M77.23 46.72 C78.58 57.8, 72.07 61.27, 61.66 62.29 M61.66 62.29 C52.69 63.29, 41.02 60.82, 15.57 62.29 M15.57 62.29 C3.35 61.22, -0.44 58.5, 0 46.72 M0 46.72 C-0.31 38.52, -0.79 30.31, 0 15.57 M0 15.57 C1.93 3.34, 3.56 0.97, 15.57 0" fill="none" stroke="#1e1e1e" stroke-dasharray="8 9" stroke-width="1.5"></path></g><g transform="translate(590.1598130787306 144.42424837303096) rotate(0 8.19122314453125 12.456602203603808)"><text direction="ltr" dominant-baseline="text-before-edge" fill="#1e1e1e" font-family="Virgil, Segoe UI Emoji" font-size="19.930563525766097px" style="white-space: pre;" text-anchor="middle" x="8.19122314453125" y="0">...</text></g><g stroke-linecap="round" transform="translate(230.32421875 74.03125) rotate(0 212.62109375 63.2421875)"><path d="M31.62 0 C124.67 -0.53, 218.64 -2.35, 393.62 0 M31.62 0 C169.98 1.57, 307.1 1.61, 393.62 0 M393.62 0 C416.05 0.69, 425.27 9.52, 425.24 31.62 M393.62 0 C412.52 0.32, 426.15 11.1, 425.24 31.62 M425.24 31.62 C422.85 52.11, 424.26 76.14, 425.24 94.86 M425.24 31.62 C425.04 50.63, 424.8 69.65, 425.24 94.86 M425.24 94.86 C427.17 114.1, 413.07 127.45, 393.62 126.48 M425.24 94.86 C427.48 115.71, 413.51 125.97, 393.62 126.48 M393.62 126.48 C274.43 126.87, 155.92 126.37, 31.62 126.48 M393.62 126.48 C275.48 126.67, 157.65 126.86, 31.62 126.48 M31.62 126.48 C10.28 126.61, -0.7 114.43, 0 94.86 M31.62 126.48 C10.38 128.54, 1.41 114.22, 0 94.86 M0 94.86 C1.53 77.94, 0.21 61.48, 0 31.62 M0 94.86 C0.66 73.69, -0.8 51.64, 0 31.62 M0 31.62 C-1.92 8.72, 9.94 1.15, 31.62 0 M0 31.62 C0.58 10.65, 11.87 -0.43, 31.62 0" fill="none" stroke="#1e1e1e" stroke-width="1"></path></g><g transform="translate(306.74609375 87.0625) rotate(0 127.16988372802734 12.5)"><text direction="ltr" dominant-baseline="text-before-edge" fill="#1e1e1e" font-family="Virgil, Segoe UI Emoji" font-size="20px" style="white-space: pre;" text-anchor="start" x="0" y="0">Practice Common Problems</text></g><g stroke-linecap="round"><g transform="translate(51.0390625 53.23046875) rotate(0 58.525390625 121.13671875)"><path d="M0.3 1.18 C5.25 33.76, 11.06 156.35, 30.4 196.38 C49.75 236.42, 101.82 233.79, 116.35 241.37 M-1.01 0.75 C3.73 32.92, 9.53 154.47, 29.51 194.71 C49.49 234.96, 104.11 234.2, 118.88 242.22" fill="none" stroke="#1971c2" stroke-width="2"></path></g><g transform="translate(51.0390625 53.23046875) rotate(0 58.525390625 121.13671875)"><path d="M88.96 244.47 C101.65 243.75, 111.86 241.61, 118.88 242.22 M88.96 244.47 C94.78 243.54, 101.61 243.45, 118.88 242.22" fill="none" stroke="#1971c2" stroke-width="2"></path></g><g transform="translate(51.0390625 53.23046875) rotate(0 58.525390625 121.13671875)"><path d="M94.51 224.72 C105.35 231.1, 113.57 236.06, 118.88 242.22 M94.51 224.72 C99.17 228.21, 104.75 232.57, 118.88 242.22" fill="none" stroke="#1971c2" stroke-width="2"></path></g></g><mask></mask><g transform="translate(10 10) rotate(0 62.99994659423828 12.5)"><text direction="ltr" dominant-baseline="text-before-edge" fill="#1971c2" font-family="Virgil, Segoe UI Emoji" font-size="20px" style="white-space: pre;" text-anchor="start" x="0" y="0">You are here</text></g></svg>