<svg height="441.6385131282856" version="1.1" viewbox="0 0 615.2290728467134 441.6385131282856" width="615.2290728467134" xmlns="http://www.w3.org/2000/svg">
<!-- svg-source:excalidraw -->
<!-- payload-type:application/vnd.excalidraw+json --><!-- payload-version:2 -->
<defs>
<style class="style-fonts">
</style>
</defs>
<rect fill="#ffffff" height="441.6385131282856" width="615.2290728467134" x="0" y="0"></rect><g stroke-linecap="round" transform="translate(10 177.886715214883) rotate(0 66.19516930746317 47.01093044671944)"><path d="M23.51 0 C54.96 -0.95, 90.18 -0.05, 108.88 0 M23.51 0 C41.86 0.54, 60.67 -0.65, 108.88 0 M108.88 0 C123.44 1.29, 133.9 7.58, 132.39 23.51 M108.88 0 C126.04 1.54, 134.23 8.53, 132.39 23.51 M132.39 23.51 C133.99 36.04, 134.75 50.7, 132.39 70.52 M132.39 23.51 C131.3 37.89, 133.07 53.4, 132.39 70.52 M132.39 70.52 C131.96 84.89, 123.61 94.28, 108.88 94.02 M132.39 70.52 C131.15 87.76, 122.72 94.53, 108.88 94.02 M108.88 94.02 C87.06 93.24, 66.44 95.38, 23.51 94.02 M108.88 94.02 C90.05 93.88, 69.4 95.1, 23.51 94.02 M23.51 94.02 C8.67 95.72, -0.6 84.53, 0 70.52 M23.51 94.02 C7.3 92, 2.09 84.13, 0 70.52 M0 70.52 C-0.42 52.08, -0.08 37.39, 0 23.51 M0 70.52 C-1.18 58.74, 0.3 45.81, 0 23.51 M0 23.51 C-1.97 7.83, 9.72 1.49, 23.51 0 M0 23.51 C-1.22 8.68, 8.55 -0.63, 23.51 0" fill="none" stroke="#1e1e1e" stroke-width="1"></path></g><g transform="translate(49.14519677328349 212.39764566160244) rotate(0 27.049972534179688 12.5)"><text direction="ltr" dominant-baseline="text-before-edge" fill="#1e1e1e" font-family="Virgil, Segoe UI Emoji" font-size="20px" style="white-space: pre;" text-anchor="middle" x="27.049972534179688" y="0">Client</text></g><g stroke-linecap="round"><g transform="translate(155.6919009015561 222.46915359052332) rotate(0 29.914092406361988 -0.028522547812201537)"><path d="M0.12 -0.92 C10.22 -1.05, 50.4 -0.38, 60.22 -0.14 M-1.28 1.21 C8.74 1.22, 49.01 1.81, 59.47 1.36" fill="none" stroke="#1e1e1e" stroke-width="1"></path></g><g transform="translate(155.6919009015561 222.46915359052332) rotate(0 29.914092406361988 -0.028522547812201537)"><path d="M31.47 11.89 C37.29 9.72, 46.11 4.91, 59.47 1.36 M31.47 11.89 C40.76 9.07, 51.81 4.63, 59.47 1.36" fill="none" stroke="#1e1e1e" stroke-width="1"></path></g><g transform="translate(155.6919009015561 222.46915359052332) rotate(0 29.914092406361988 -0.028522547812201537)"><path d="M31.25 -8.57 C37.24 -5.32, 46.11 -4.72, 59.47 1.36 M31.25 -8.57 C40.43 -4.27, 51.56 -1.59, 59.47 1.36" fill="none" stroke="#1e1e1e" stroke-width="1"></path></g></g><mask></mask><g stroke-linecap="round" transform="translate(227.7830055827268 93.48694940740143) rotate(0 50.98453447830343 130.97737750904975)"><path d="M25.49 0 C41.15 -1.54, 58.03 -2, 76.48 0 M25.49 0 C37.95 -0.45, 49.55 0.34, 76.48 0 M76.48 0 C95.07 0.61, 101.34 10.26, 101.97 25.49 M76.48 0 C91.87 1.37, 101.87 10.73, 101.97 25.49 M101.97 25.49 C102.24 107.91, 101.63 194.95, 101.97 236.46 M101.97 25.49 C101.15 98.66, 101.09 172.2, 101.97 236.46 M101.97 236.46 C100.37 253.9, 92.26 263.05, 76.48 261.95 M101.97 236.46 C103.05 251.85, 92.12 260.13, 76.48 261.95 M76.48 261.95 C59.34 263.93, 40.23 262.28, 25.49 261.95 M76.48 261.95 C56.69 261.56, 37.27 261.51, 25.49 261.95 M25.49 261.95 C10.31 260.17, 1.39 253.21, 0 236.46 M25.49 261.95 C10.21 261.4, -1.23 253.29, 0 236.46 M0 236.46 C-0.24 155.06, 1.79 77.54, 0 25.49 M0 236.46 C2.66 171.63, 1.37 105.81, 0 25.49 M0 25.49 C0.63 7.95, 9.95 -0.48, 25.49 0 M0 25.49 C0.6 10.21, 7.34 -1.04, 25.49 0" fill="none" stroke="#1e1e1e" stroke-width="1"></path></g><g transform="translate(235.63756569579584 199.46432691645117) rotate(0 43.129974365234375 25.00000000000003)"><text direction="ltr" dominant-baseline="text-before-edge" fill="#1e1e1e" font-family="Virgil, Segoe UI Emoji" font-size="20px" style="white-space: pre;" text-anchor="middle" x="43.129974365234375" y="0">API</text><text direction="ltr" dominant-baseline="text-before-edge" fill="#1e1e1e" font-family="Virgil, Segoe UI Emoji" font-size="20px" style="white-space: pre;" text-anchor="middle" x="43.129974365234375" y="25">Gateway</text></g><g stroke-linecap="round" transform="translate(451.87031822928054 10) rotate(0 74.1504081439274 55.89796028417942)"><path d="M27.95 0 C47.89 -0.26, 71.94 2.36, 120.35 0 M27.95 0 C55.31 -0.32, 80.76 0.26, 120.35 0 M120.35 0 C137.6 1.19, 148.22 11.26, 148.3 27.95 M120.35 0 C141.23 0.3, 147.12 9.36, 148.3 27.95 M148.3 27.95 C149.04 39.54, 146.82 51.05, 148.3 83.85 M148.3 27.95 C147.2 45.67, 147.39 63.5, 148.3 83.85 M148.3 83.85 C149.24 101.08, 137.81 110.21, 120.35 111.8 M148.3 83.85 C149.4 100.92, 138.92 112.47, 120.35 111.8 M120.35 111.8 C85.09 112.78, 48.24 111.35, 27.95 111.8 M120.35 111.8 C101.18 110.09, 80.89 110.86, 27.95 111.8 M27.95 111.8 C10.8 111.31, -1.07 102.34, 0 83.85 M27.95 111.8 C11.15 110.97, 2.25 101.29, 0 83.85 M0 83.85 C-0.14 69.15, -0.36 60.28, 0 27.95 M0 83.85 C0.61 62.64, 1.02 41.74, 0 27.95 M0 27.95 C0.52 10.81, 8.31 -0.9, 27.95 0 M0 27.95 C1.86 11.32, 7.27 1.15, 27.95 0" fill="none" stroke="#1e1e1e" stroke-width="1"></path></g><g transform="translate(463.20078771353985 40.89796028417942) rotate(0 62.81993865966797 25)"><text direction="ltr" dominant-baseline="text-before-edge" fill="#1e1e1e" font-family="Virgil, Segoe UI Emoji" font-size="20px" style="white-space: pre;" text-anchor="middle" x="62.81993865966797" y="0">Microservice </text><text direction="ltr" dominant-baseline="text-before-edge" fill="#1e1e1e" font-family="Virgil, Segoe UI Emoji" font-size="20px" style="white-space: pre;" text-anchor="middle" x="62.81993865966797" y="25">#1</text></g><g stroke-linecap="round" transform="translate(453.92446053047627 162.0710448080149) rotate(0 74.1504081439274 55.89796028417942)"><path d="M27.95 0 C50.29 0.6, 74.47 0.9, 120.35 0 M27.95 0 C57.79 -0.22, 88.97 0.16, 120.35 0 M120.35 0 C140.94 0.26, 147.28 9.35, 148.3 27.95 M120.35 0 C137.03 -0.76, 150.42 10.38, 148.3 27.95 M148.3 27.95 C148.2 42.44, 149.3 57.48, 148.3 83.85 M148.3 27.95 C148.43 45.25, 147.37 63.15, 148.3 83.85 M148.3 83.85 C149.26 101.12, 138.93 112.39, 120.35 111.8 M148.3 83.85 C150.59 101.57, 139.37 113.69, 120.35 111.8 M120.35 111.8 C87.12 111.06, 55.45 113.33, 27.95 111.8 M120.35 111.8 C101.63 111.44, 80.88 111.61, 27.95 111.8 M27.95 111.8 C10.91 111.07, 1.96 101.44, 0 83.85 M27.95 111.8 C7.65 113.25, 1.74 102.72, 0 83.85 M0 83.85 C1.49 71.53, 0.74 61.95, 0 27.95 M0 83.85 C-0.15 69.35, -0.91 52.92, 0 27.95 M0 27.95 C1.62 11.06, 7.53 1, 27.95 0 M0 27.95 C1.38 10.6, 8.23 1.73, 27.95 0" fill="none" stroke="#1e1e1e" stroke-width="1"></path></g><g transform="translate(465.2549300147358 192.96900509219432) rotate(0 62.81993865966797 25)"><text direction="ltr" dominant-baseline="text-before-edge" fill="#1e1e1e" font-family="Virgil, Segoe UI Emoji" font-size="20px" style="white-space: pre;" text-anchor="middle" x="62.81993865966797" y="0">Microservice </text><text direction="ltr" dominant-baseline="text-before-edge" fill="#1e1e1e" font-family="Virgil, Segoe UI Emoji" font-size="20px" style="white-space: pre;" text-anchor="middle" x="62.81993865966797" y="25">#2</text></g><g stroke-linecap="round" transform="translate(456.9282565588586 319.84259255992674) rotate(0 74.1504081439274 55.89796028417942)"><path d="M27.95 0 C62.25 -1.37, 97.09 -2.13, 120.35 0 M27.95 0 C62.14 -0.77, 93.86 -0.88, 120.35 0 M120.35 0 C137.29 -0.66, 150.14 10.24, 148.3 27.95 M120.35 0 C138.49 -1.49, 147.21 9.62, 148.3 27.95 M148.3 27.95 C149.12 40.5, 149.78 56.41, 148.3 83.85 M148.3 27.95 C148.45 40.13, 147.95 53.97, 148.3 83.85 M148.3 83.85 C150.29 101.69, 139.32 113.44, 120.35 111.8 M148.3 83.85 C149.26 104.43, 138.3 109.89, 120.35 111.8 M120.35 111.8 C92.99 114.02, 68.95 114.12, 27.95 111.8 M120.35 111.8 C95.66 111.37, 70.34 111.21, 27.95 111.8 M27.95 111.8 C7.87 113.06, 1.51 102.69, 0 83.85 M27.95 111.8 C7.05 111.79, 2.17 104.19, 0 83.85 M0 83.85 C-0.75 71.49, -0.69 56.75, 0 27.95 M0 83.85 C1.09 63.79, -0.61 42.48, 0 27.95 M0 27.95 C1.2 10.43, 8.37 1.5, 27.95 0 M0 27.95 C2.1 8.45, 7.78 -0.45, 27.95 0" fill="none" stroke="#1e1e1e" stroke-width="1"></path></g><g transform="translate(468.2587260431179 350.7405528441061) rotate(0 62.81993865966797 25)"><text direction="ltr" dominant-baseline="text-before-edge" fill="#1e1e1e" font-family="Virgil, Segoe UI Emoji" font-size="20px" style="white-space: pre;" text-anchor="middle" x="62.81993865966797" y="0">Microservice </text><text direction="ltr" dominant-baseline="text-before-edge" fill="#1e1e1e" font-family="Virgil, Segoe UI Emoji" font-size="20px" style="white-space: pre;" text-anchor="middle" x="62.81993865966797" y="25">#3</text></g><g stroke-linecap="round"><g transform="translate(344.5181577647653 180.62284003828904) rotate(0 48.76007384560137 -46.89431394137432)"><path d="M-0.83 0.71 C15.47 -14.9, 80.88 -76.9, 97.47 -92.62 M0.93 0.04 C17.11 -15.36, 80.23 -78.75, 96.5 -94.13" fill="none" stroke="#1e1e1e" stroke-width="1"></path></g><g transform="translate(344.5181577647653 180.62284003828904) rotate(0 48.76007384560137 -46.89431394137432)"><path d="M83.51 -67.09 C87.95 -74.34, 92.19 -79.56, 96.5 -94.13 M83.51 -67.09 C86.87 -75.88, 92.7 -83.56, 96.5 -94.13" fill="none" stroke="#1e1e1e" stroke-width="1"></path></g><g transform="translate(344.5181577647653 180.62284003828904) rotate(0 48.76007384560137 -46.89431394137432)"><path d="M69.17 -81.76 C77.58 -84.97, 85.68 -86.26, 96.5 -94.13 M69.17 -81.76 C76.93 -85.96, 87.26 -89.05, 96.5 -94.13" fill="none" stroke="#1e1e1e" stroke-width="1"></path></g></g><mask></mask><g stroke-linecap="round"><g transform="translate(346.79939117463607 237.11691448273996) rotate(0 48.029769484748954 -7.57142400968479)"><path d="M-0.05 1.17 C16.29 -1.45, 81.32 -12.27, 97.23 -14.99 M-1.54 0.73 C14.83 -1.73, 80.92 -10.95, 96.9 -13.37" fill="none" stroke="#1e1e1e" stroke-width="1"></path></g><g transform="translate(346.79939117463607 237.11691448273996) rotate(0 48.029769484748954 -7.57142400968479)"><path d="M70.47 0.82 C78.42 -0.48, 82.83 -6.73, 96.9 -13.37 M70.47 0.82 C79.48 -2.91, 86.32 -8.3, 96.9 -13.37" fill="none" stroke="#1e1e1e" stroke-width="1"></path></g><g transform="translate(346.79939117463607 237.11691448273996) rotate(0 48.029769484748954 -7.57142400968479)"><path d="M67.53 -19.49 C76.28 -16.11, 81.37 -17.68, 96.9 -13.37 M67.53 -19.49 C77.26 -17.08, 84.99 -16.35, 96.9 -13.37" fill="none" stroke="#1e1e1e" stroke-width="1"></path></g></g><mask></mask><g stroke-linecap="round"><g transform="translate(348.8225665064673 301.27531384497024) rotate(0 47.69945514485812 33.0391757314228)"><path d="M1.17 0.16 C16.98 10.98, 79.25 55.18, 94.78 66.1 M0.33 -0.81 C16.54 10.73, 81.1 56.38, 97.17 67.65" fill="none" stroke="#1e1e1e" stroke-width="1"></path></g><g transform="translate(348.8225665064673 301.27531384497024) rotate(0 47.69945514485812 33.0391757314228)"><path d="M68.22 59.8 C77.12 60.81, 85.46 62.46, 97.17 67.65 M68.22 59.8 C75.81 61.11, 83.28 63.99, 97.17 67.65" fill="none" stroke="#1e1e1e" stroke-width="1"></path></g><g transform="translate(348.8225665064673 301.27531384497024) rotate(0 47.69945514485812 33.0391757314228)"><path d="M80.04 43.02 C85.61 49.11, 90.45 55.73, 97.17 67.65 M80.04 43.02 C84.63 48.87, 88.94 56.23, 97.17 67.65" fill="none" stroke="#1e1e1e" stroke-width="1"></path></g></g><mask></mask></svg>