<svg height="367.68359375" version="1.1" viewbox="0 0 509.5016987238172 367.68359375" width="509.5016987238172" xmlns="http://www.w3.org/2000/svg">
<!-- svg-source:excalidraw -->
<!-- payload-type:application/vnd.excalidraw+json --><!-- payload-version:2 -->
<defs>
<style class="style-fonts">
</style>
</defs>
<rect fill="#ffffff" height="367.68359375" width="509.5016987238172" x="0" y="0"></rect><g stroke-linecap="round" transform="translate(11.83633477379098 59.43359375) rotate(0 62.55078125 149.125)"><path d="M31.28 0 C48.45 2.35, 72.55 1.05, 93.83 0 C116.96 2.53, 124.34 10.71, 125.1 31.28 C129.95 99.79, 127.19 170.46, 125.1 266.97 C127.93 291.17, 116.34 300.57, 93.83 298.25 C71.38 300.35, 46.83 301.95, 31.28 298.25 C9.87 296.55, -3.31 287.25, 0 266.97 C-0.79 208.8, 0.39 154.54, 0 31.28 C-1.35 13.33, 9.82 3.17, 31.28 0" fill="#ffffff" stroke="none" stroke-width="0"></path><path d="M31.28 0 C55.1 -0.14, 76.83 2.11, 93.83 0 M31.28 0 C54.44 -0.39, 77.35 -0.41, 93.83 0 M93.83 0 C113.86 0.83, 126.88 11.45, 125.1 31.28 M93.83 0 C115.11 -1.99, 125.98 12.3, 125.1 31.28 M125.1 31.28 C126.03 94.17, 125.94 156.3, 125.1 266.97 M125.1 31.28 C123.53 82.6, 124.11 134.88, 125.1 266.97 M125.1 266.97 C125.36 287.9, 114.57 296.31, 93.83 298.25 M125.1 266.97 C124.61 289.18, 112.69 299.89, 93.83 298.25 M93.83 298.25 C77.57 296.87, 58.87 298.84, 31.28 298.25 M93.83 298.25 C71.55 298.01, 49.57 299.2, 31.28 298.25 M31.28 298.25 C12.16 299.6, 1.35 286.23, 0 266.97 M31.28 298.25 C8.65 298.98, 0.52 287.52, 0 266.97 M0 266.97 C-0.4 186.78, -3.32 106.1, 0 31.28 M0 266.97 C-0.02 188.66, 0.31 112.45, 0 31.28 M0 31.28 C1.13 11.49, 12.22 -0.57, 31.28 0 M0 31.28 C-1.68 9.58, 8.66 0.78, 31.28 0" fill="none" stroke="#1e1e1e" stroke-width="2"></path></g><g stroke-linecap="round"><g transform="translate(12.95352227379098 109.64453125) rotate(0 62.11328125 0)"><path d="M-0.29 0.12 C20.7 0.14, 104.72 0.76, 125.29 0.81 M1.76 -0.86 C22.74 -1.24, 104.28 -0.74, 124.89 -0.88" fill="none" stroke="#1e1e1e" stroke-width="2"></path></g></g><mask></mask><g stroke-linecap="round"><g transform="translate(13.038226602971548 173.40726810360206) rotate(0 62.11328125 0)"><path d="M1.06 0.81 C21.63 0.86, 102.57 0.6, 123.13 0.43 M0.16 0.19 C21.11 -0.13, 104.66 -1.61, 125.26 -1.47" fill="none" stroke="#1e1e1e" stroke-width="2"></path></g></g><mask></mask><g stroke-linecap="round"><g transform="translate(11.100726602971548 237.32523685360206) rotate(0 62.11328125 0)"><path d="M-1.1 0.43 C19.46 0.26, 103.51 -0.1, 124.41 -0.21 M0.52 -0.4 C20.85 -0.45, 103.05 1, 123.57 1.22" fill="none" stroke="#1e1e1e" stroke-width="2"></path></g></g><mask></mask><g stroke-linecap="round"><g transform="translate(12.717641392308082 300.1288127309592) rotate(0 62.11328125 0)"><path d="M0.19 -0.21 C21.09 -0.31, 103.72 -0.34, 124.31 -0.23 M-1.17 -1.36 C19.68 -1.32, 102.76 1.23, 123.41 1.19" fill="none" stroke="#1e1e1e" stroke-width="2"></path></g></g><mask></mask><g transform="translate(38.292763301622784 131.4296875) rotate(0 30.60997772216797 12.5)"><text direction="ltr" dominant-baseline="text-before-edge" fill="#1e1e1e" font-family="Virgil, Segoe UI Emoji" font-size="20px" style="white-space: pre;" text-anchor="middle" x="30.60997772216797" y="0">Item 1</text></g><g transform="translate(36.52729851890794 195.69921875) rotate(0 35.01997375488281 12.5)"><text direction="ltr" dominant-baseline="text-before-edge" fill="#1e1e1e" font-family="Virgil, Segoe UI Emoji" font-size="20px" style="white-space: pre;" text-anchor="middle" x="35.01997375488281" y="0">Item 2</text></g><g transform="translate(38.60682732750169 258.96875) rotate(0 34.70997619628906 12.5)"><text direction="ltr" dominant-baseline="text-before-edge" fill="#1e1e1e" font-family="Virgil, Segoe UI Emoji" font-size="20px" style="white-space: pre;" text-anchor="middle" x="34.70997619628906" y="0">Item 3</text></g><g transform="translate(19.377499810242938 10) rotate(0 48.29998016357422 17.5)"><text direction="ltr" dominant-baseline="text-before-edge" fill="#1e1e1e" font-family="Virgil, Segoe UI Emoji" font-size="28px" style="white-space: pre;" text-anchor="middle" x="48.29998016357422" y="0">Stream</text></g><g stroke-linecap="round" transform="translate(229.24388622381716 45.30859375) rotate(0 117.921875 51.251953125)"><path d="M25.63 0 C97.83 1.24, 166 1.89, 210.22 0 C228.44 1.03, 236.02 11.17, 235.84 25.63 C234.83 38.04, 233.15 55.1, 235.84 76.88 C232.25 92, 225.1 103.24, 210.22 102.5 C164.94 101.26, 115.35 100.67, 25.63 102.5 C8.09 103.74, 0.46 95.6, 0 76.88 C1.45 63.23, -4.12 53.5, 0 25.63 C-3.5 5.2, 9.27 2.14, 25.63 0" fill="#ffffff" stroke="none" stroke-width="0"></path><path d="M25.63 0 C86.12 -1.41, 145.35 -0.54, 210.22 0 M25.63 0 C69.8 0.44, 112.86 1, 210.22 0 M210.22 0 C226.71 -0.91, 236.62 9.02, 235.84 25.63 M210.22 0 C227.6 0.08, 235.72 6.32, 235.84 25.63 M235.84 25.63 C237.57 39.21, 235 53.75, 235.84 76.88 M235.84 25.63 C235.89 42.4, 234.84 58.48, 235.84 76.88 M235.84 76.88 C236.05 92.92, 228.33 103.83, 210.22 102.5 M235.84 76.88 C237.84 95.52, 228.86 100.67, 210.22 102.5 M210.22 102.5 C168.84 103.79, 129.68 103.45, 25.63 102.5 M210.22 102.5 C141.42 100.98, 71.34 100.6, 25.63 102.5 M25.63 102.5 C7.77 100.91, 0 95.79, 0 76.88 M25.63 102.5 C9.84 103.73, 2.07 93.31, 0 76.88 M0 76.88 C0.87 65.77, 0.53 54.37, 0 25.63 M0 76.88 C0.02 66.76, 0.31 55.15, 0 25.63 M0 25.63 C0.16 8.32, 9.85 -0.47, 25.63 0 M0 25.63 C1.91 8.84, 8.35 2.24, 25.63 0" fill="none" stroke="#1e1e1e" stroke-width="1"></path></g><g transform="translate(239.08580516912966 79.060546875) rotate(0 108.0799560546875 17.5)"><text direction="ltr" dominant-baseline="text-before-edge" fill="#1e1e1e" font-family="Virgil, Segoe UI Emoji" font-size="28px" style="white-space: pre;" text-anchor="middle" x="108.0799560546875" y="0">Consumer Group</text></g><g stroke-linecap="round"><g transform="translate(219.50951122381716 109.59901578259587) rotate(0 -38.31640625 42.79413835146602)"><path d="M0.1 -0.74 C-12.53 13.19, -63.48 70.55, -76.23 84.78 M-1.31 1.48 C-14.03 16.05, -64.35 71.9, -76.96 85.89" fill="none" stroke="#1e1e1e" stroke-width="2"></path></g><g transform="translate(219.50951122381716 109.59901578259587) rotate(0 -38.31640625 42.79413835146602)"><path d="M-65.72 58.08 C-69.65 66.11, -72.74 73.23, -76.96 85.89 M-65.72 58.08 C-68.67 63.69, -70.45 70.49, -76.96 85.89" fill="none" stroke="#1e1e1e" stroke-width="2"></path></g><g transform="translate(219.50951122381716 109.59901578259587) rotate(0 -38.31640625 42.79413835146602)"><path d="M-50.47 71.81 C-58.58 76.23, -65.7 79.72, -76.96 85.89 M-50.47 71.81 C-56.68 74.38, -61.8 78.16, -76.96 85.89" fill="none" stroke="#1e1e1e" stroke-width="2"></path></g></g><mask></mask><g stroke-linecap="round" transform="translate(187.38060497381716 218.34375) rotate(0 47.48828125 51.85546875)"><path d="M23.74 0 C42.68 2.39, 60.71 -1.94, 71.23 0 C83.75 -0.58, 92.81 5.66, 94.98 23.74 C91.77 41.83, 92.61 61.36, 94.98 79.97 C94.37 98.96, 86.38 105.72, 71.23 103.71 C59.14 105.64, 43.46 106.51, 23.74 103.71 C5.19 105.8, -2.06 92.32, 0 79.97 C1.71 65.54, -0.85 43.95, 0 23.74 C-0.94 7.38, 9.15 -3.09, 23.74 0" fill="#ffffff" stroke="none" stroke-width="0"></path><path d="M23.74 0 C37.03 0.28, 51.41 -1.49, 71.23 0 M23.74 0 C37.22 0.45, 50.04 0.25, 71.23 0 M71.23 0 C86.96 -1.94, 94.55 9.09, 94.98 23.74 M71.23 0 C85.08 1.64, 94.17 6.6, 94.98 23.74 M94.98 23.74 C93.26 40.08, 96.22 53.59, 94.98 79.97 M94.98 23.74 C95.55 43.83, 95.91 63.27, 94.98 79.97 M94.98 79.97 C96.33 94.2, 85.52 104.34, 71.23 103.71 M94.98 79.97 C95.5 95.49, 88.06 105.65, 71.23 103.71 M71.23 103.71 C53.77 105.05, 40.84 103.61, 23.74 103.71 M71.23 103.71 C57.41 104.25, 44.15 103.87, 23.74 103.71 M23.74 103.71 C9.71 103.15, -1.46 95.06, 0 79.97 M23.74 103.71 C6.15 104.49, 0.61 96.18, 0 79.97 M0 79.97 C0.75 61.78, 1.77 43.35, 0 23.74 M0 79.97 C0.61 64.06, 0.78 48.76, 0 23.74 M0 23.74 C-0.16 9.86, 9.49 1.86, 23.74 0 M0 23.74 C1.06 9.4, 9.69 0.39, 23.74 0" fill="none" stroke="#1e1e1e" stroke-width="2"></path></g><g transform="translate(203.14890789129763 260.19921875) rotate(0 31.71997833251953 10)"><text direction="ltr" dominant-baseline="text-before-edge" fill="#1e1e1e" font-family="Virgil, Segoe UI Emoji" font-size="16px" style="white-space: pre;" text-anchor="middle" x="31.71997833251953" y="0">Worker 1</text></g><g stroke-linecap="round" transform="translate(295.3571674738172 215.484375) rotate(0 47.48828125 51.85546875)"><path d="M23.74 0 C38.15 -0.17, 57.02 -1.85, 71.23 0 C87.37 -3.6, 93.01 5.72, 94.98 23.74 C93.99 44.92, 93.91 61.78, 94.98 79.97 C93.7 95.35, 88.3 104.17, 71.23 103.71 C52.1 106.4, 36.36 100.83, 23.74 103.71 C7.73 100.21, -3.34 96.53, 0 79.97 C-0.42 59.22, 1.75 36.46, 0 23.74 C-0.48 10.43, 10.29 1.91, 23.74 0" fill="#ffffff" stroke="none" stroke-width="0"></path><path d="M23.74 0 C38.54 -0.28, 53.41 1.1, 71.23 0 M23.74 0 C39.07 -0.99, 54.28 0.57, 71.23 0 M71.23 0 C85.34 1.42, 94.28 6.77, 94.98 23.74 M71.23 0 C86.54 0.37, 93.55 5.84, 94.98 23.74 M94.98 23.74 C96.21 42.89, 94.26 62.63, 94.98 79.97 M94.98 23.74 C96.14 43.54, 94.69 65.25, 94.98 79.97 M94.98 79.97 C95.43 95.53, 87.93 105.4, 71.23 103.71 M94.98 79.97 C95.58 97.54, 88.05 101.45, 71.23 103.71 M71.23 103.71 C54.12 102.87, 35.77 103.64, 23.74 103.71 M71.23 103.71 C53.56 103.68, 33.35 103.6, 23.74 103.71 M23.74 103.71 C6.38 104.39, 0.53 96.13, 0 79.97 M23.74 103.71 C8.79 101.64, 1.77 96.08, 0 79.97 M0 79.97 C-0.78 60.94, -0.58 42.91, 0 23.74 M0 79.97 C-0.55 65.39, 0.32 49.8, 0 23.74 M0 23.74 C0.93 9.2, 9.46 0.34, 23.74 0 M0 23.74 C2.19 8.64, 8.58 0.11, 23.74 0" fill="none" stroke="#1e1e1e" stroke-width="2"></path></g><g transform="translate(307.59747051336797 257.33984375) rotate(0 35.24797821044922 10)"><text direction="ltr" dominant-baseline="text-before-edge" fill="#1e1e1e" font-family="Virgil, Segoe UI Emoji" font-size="16px" style="white-space: pre;" text-anchor="middle" x="35.24797821044922" y="0">Worker 2</text></g><g stroke-linecap="round" transform="translate(404.5251362238172 212.93359375) rotate(0 47.48828125 51.85546875)"><path d="M23.74 0 C37.54 -3.06, 48.75 -1.66, 71.23 0 C87.8 -1.35, 97.88 7.31, 94.98 23.74 C93.5 45.11, 96.02 67.83, 94.98 79.97 C96.61 93.14, 89.57 100.99, 71.23 103.71 C54.04 99.39, 33.88 103.62, 23.74 103.71 C10.05 101.87, -2.87 94.86, 0 79.97 C-0.83 66.45, 2.02 49.82, 0 23.74 C-1.82 9.44, 8.59 -2.48, 23.74 0" fill="#ffffff" stroke="none" stroke-width="0"></path><path d="M23.74 0 C37.05 0.07, 49.48 -0.29, 71.23 0 M23.74 0 C32.53 0.43, 42.69 -0.85, 71.23 0 M71.23 0 C86.61 0.32, 93.73 6.11, 94.98 23.74 M71.23 0 C87.91 1.33, 93.41 8.96, 94.98 23.74 M94.98 23.74 C96.01 42.94, 96.04 60.02, 94.98 79.97 M94.98 23.74 C94.77 36, 94.97 49.36, 94.98 79.97 M94.98 79.97 C95.5 97.31, 87.92 101.74, 71.23 103.71 M94.98 79.97 C96.28 96.47, 86.71 103.51, 71.23 103.71 M71.23 103.71 C60.64 104.84, 47.48 105.51, 23.74 103.71 M71.23 103.71 C57.56 103.87, 45.69 103.7, 23.74 103.71 M23.74 103.71 C8.68 101.91, 1.54 96.04, 0 79.97 M23.74 103.71 C8.86 105.17, 1.61 95.31, 0 79.97 M0 79.97 C-0.41 64.3, 0.32 45.16, 0 23.74 M0 79.97 C0.02 58.27, 0.33 35.45, 0 23.74 M0 23.74 C1.9 8.55, 8.49 0.1, 23.74 0 M0 23.74 C1.68 7.56, 6.83 -2.12, 23.74 0" fill="none" stroke="#1e1e1e" stroke-width="2"></path></g><g transform="translate(417.0134403620008 254.7890625) rotate(0 34.999977111816406 10)"><text direction="ltr" dominant-baseline="text-before-edge" fill="#1e1e1e" font-family="Virgil, Segoe UI Emoji" font-size="16px" style="white-space: pre;" text-anchor="middle" x="34.999977111816406" y="0">Worker 3</text></g><g stroke-linecap="round"><g transform="translate(232.90794872381716 211.46875) rotate(0 33.755859375 -27.681640625)"><path d="M-0.06 -1.16 C11.12 -10.28, 56.17 -45.77, 67.26 -54.66 M-1.55 0.84 C9.43 -8.62, 54.45 -46.87, 66.18 -56.41" fill="none" stroke="#1e1e1e" stroke-width="2"></path></g><g transform="translate(232.90794872381716 211.46875) rotate(0 33.755859375 -27.681640625)"><path d="M51.1 -30.47 C53.87 -39.01, 61.7 -48.43, 66.18 -56.41 M51.1 -30.47 C56.56 -39.85, 61.76 -50.54, 66.18 -56.41" fill="none" stroke="#1e1e1e" stroke-width="2"></path></g><g transform="translate(232.90794872381716 211.46875) rotate(0 33.755859375 -27.681640625)"><path d="M37.95 -46.23 C44.85 -49.83, 56.79 -54.31, 66.18 -56.41 M37.95 -46.23 C48.24 -49.69, 58.31 -54.53, 66.18 -56.41" fill="none" stroke="#1e1e1e" stroke-width="2"></path></g></g><mask></mask><g stroke-linecap="round"><g transform="translate(340.2204487238172 207.58984375) rotate(0 1.814453125 -24.802734375)"><path d="M-0.12 0.32 C0.41 -7.79, 2.56 -40.84, 3.15 -49.21 M0.82 0.01 C1.52 -8.21, 3.78 -41.73, 4.14 -49.98" fill="none" stroke="#1e1e1e" stroke-width="2"></path></g><g transform="translate(340.2204487238172 207.58984375) rotate(0 1.814453125 -24.802734375)"><path d="M11.29 -26.16 C9.89 -34.05, 7.9 -40.56, 4.14 -49.98 M11.29 -26.16 C9.27 -32.39, 8.03 -37.43, 4.14 -49.98" fill="none" stroke="#1e1e1e" stroke-width="2"></path></g><g transform="translate(340.2204487238172 207.58984375) rotate(0 1.814453125 -24.802734375)"><path d="M-5.7 -27.14 C-2.1 -34.72, 0.93 -40.94, 4.14 -49.98 M-5.7 -27.14 C-3.59 -33.14, -0.71 -37.95, 4.14 -49.98" fill="none" stroke="#1e1e1e" stroke-width="2"></path></g></g><mask></mask><g stroke-linecap="round"><g transform="translate(449.6384174738172 201.2578125) rotate(0 -11.91015625 -21.619140625)"><path d="M-1.04 0.85 C-5.03 -6.59, -20.4 -36.61, -24.24 -43.92 M0.62 0.26 C-3.55 -7.1, -21.14 -35.77, -25.41 -42.75" fill="none" stroke="#1e1e1e" stroke-width="2"></path></g><g transform="translate(449.6384174738172 201.2578125) rotate(0 -11.91015625 -21.619140625)"><path d="M-6.1 -27.37 C-10.15 -32.52, -18.1 -36.56, -25.41 -42.75 M-6.1 -27.37 C-11.74 -31.83, -18.89 -36.81, -25.41 -42.75" fill="none" stroke="#1e1e1e" stroke-width="2"></path></g><g transform="translate(449.6384174738172 201.2578125) rotate(0 -11.91015625 -21.619140625)"><path d="M-20.5 -18.56 C-20.59 -26.04, -24.52 -32.54, -25.41 -42.75 M-20.5 -18.56 C-21.54 -25.67, -24.13 -33.44, -25.41 -42.75" fill="none" stroke="#1e1e1e" stroke-width="2"></path></g></g><mask></mask><g stroke-linecap="round"><g transform="translate(288.6891987238172 200.1875) rotate(0 55.134765625 70.314453125)"><path d="M-0.42 -0.69 C18.09 22.64, 91.68 117.45, 110 140.82 M1.56 1.57 C19.98 24.43, 90.5 115.68, 108.91 138.8" fill="none" stroke="#e03131" stroke-width="2"></path></g></g><mask></mask><g stroke-linecap="round"><g transform="translate(392.8649799738172 208.24609375) rotate(0 -50.970703125 65.619140625)"><path d="M-0.27 0.19 C-17.31 22, -85.82 108.2, -102.69 130.16 M1.79 -0.75 C-14.83 21.23, -83.06 109.34, -100.37 131.13" fill="none" stroke="#e03131" stroke-width="2"></path></g></g><mask></mask></svg>