<svg height="424.62890625" version="1.1" viewbox="0 0 848.10546875 424.62890625" width="848.10546875" xmlns="http://www.w3.org/2000/svg">
<!-- svg-source:excalidraw -->
<!-- payload-type:application/vnd.excalidraw+json --><!-- payload-version:2 -->
<defs>
<style class="style-fonts">
</style>
</defs>
<rect fill="#ffffff" height="424.62890625" width="848.10546875" x="0" y="0"></rect><g stroke-linecap="round" transform="translate(10 97.35546875) rotate(0 241.626953125 60.69140625)"><path d="M30.35 0 C167.49 -0.13, 305.8 -0.89, 452.91 0 M30.35 0 C118.95 0.63, 208.5 0.7, 452.91 0 M452.91 0 C471.87 1.76, 484.99 10.93, 483.25 30.35 M452.91 0 C474.35 2.22, 481.63 8.82, 483.25 30.35 M483.25 30.35 C483.09 48.15, 482.17 63.31, 483.25 91.04 M483.25 30.35 C481.83 51.67, 482.7 72.53, 483.25 91.04 M483.25 91.04 C481.83 110.84, 475.07 121.39, 452.91 121.38 M483.25 91.04 C481.62 111.99, 472.12 122.51, 452.91 121.38 M452.91 121.38 C327.65 123.4, 201.33 123.35, 30.35 121.38 M452.91 121.38 C341.03 119.71, 228.71 119.97, 30.35 121.38 M30.35 121.38 C10.98 119.71, -0.88 111.86, 0 91.04 M30.35 121.38 C12.37 122.53, -1.33 113.25, 0 91.04 M0 91.04 C-0.69 68.19, -1.11 43.73, 0 30.35 M0 91.04 C-0.53 70.84, 0 49.68, 0 30.35 M0 30.35 C1.51 10.77, 11.02 -1.79, 30.35 0 M0 30.35 C0.64 8.58, 11.23 1.86, 30.35 0" fill="none" stroke="#1e1e1e" stroke-width="1"></path></g><g transform="translate(29.128143310546875 121.22265625) rotate(0 37.3515625 16.100000000000023)"><text direction="ltr" dominant-baseline="text-before-edge" fill="#1e1e1e" font-family="Helvetica, Segoe UI Emoji" font-size="28px" style="white-space: pre;" text-anchor="middle" x="37.3515625" y="0">ID: 12</text></g><g transform="translate(24.875335693359375 171.72265625) rotate(0 37.24609375 11.5)"><text direction="ltr" dominant-baseline="text-before-edge" fill="#1e1e1e" font-family="Helvetica, Segoe UI Emoji" font-size="20px" style="white-space: pre;" text-anchor="start" x="0" y="0">lazy dog</text></g><g stroke-linecap="round" transform="translate(11.013671875 237.796875) rotate(0 241.626953125 60.69140625)"><path d="M30.35 0 C127.15 -0.6, 225 0.26, 452.91 0 M30.35 0 C195.85 -1.75, 360.71 -1.45, 452.91 0 M452.91 0 C471.73 -1.13, 482.81 11.67, 483.25 30.35 M452.91 0 C473.23 -0.73, 484.35 8.33, 483.25 30.35 M483.25 30.35 C482.33 44.61, 483.53 62.3, 483.25 91.04 M483.25 30.35 C483.79 45.52, 482.11 60.99, 483.25 91.04 M483.25 91.04 C482.37 112.25, 473.1 120.62, 452.91 121.38 M483.25 91.04 C484.48 112.94, 474.93 122.39, 452.91 121.38 M452.91 121.38 C294.54 122.91, 138.32 122.05, 30.35 121.38 M452.91 121.38 C289.21 119.67, 126.5 119.78, 30.35 121.38 M30.35 121.38 C8.96 123.11, 1.63 111.25, 0 91.04 M30.35 121.38 C10.37 120.59, 0.34 109.98, 0 91.04 M0 91.04 C-0.62 73.97, 0.98 59.9, 0 30.35 M0 91.04 C0 70.28, -0.18 50.65, 0 30.35 M0 30.35 C0.97 11.73, 9.7 0.15, 30.35 0 M0 30.35 C0.58 7.91, 7.97 1.54, 30.35 0" fill="none" stroke="#1e1e1e" stroke-width="1"></path></g><g transform="translate(25.717811584472656 261.6640625) rotate(0 37.3515625 16.100000000000023)"><text direction="ltr" dominant-baseline="text-before-edge" fill="#1e1e1e" font-family="Helvetica, Segoe UI Emoji" font-size="28px" style="white-space: pre;" text-anchor="middle" x="37.3515625" y="0">ID: 53</text></g><g transform="translate(27.018798828125 312.1640625) rotate(0 104.4970703125 11.5)"><text direction="ltr" dominant-baseline="text-before-edge" fill="#1e1e1e" font-family="Helvetica, Segoe UI Emoji" font-size="20px" style="white-space: pre;" text-anchor="start" x="0" y="0">lazy days are best days</text></g><g transform="translate(233.33203125 391.62890625) rotate(0 8.3349609375 11.5)"><text direction="ltr" dominant-baseline="text-before-edge" fill="#1e1e1e" font-family="Helvetica, Segoe UI Emoji" font-size="20px" style="white-space: pre;" text-anchor="start" x="0" y="0">...</text></g><g transform="translate(23.5 14.2109375) rotate(0 91.037109375 20.69999999999999)"><text direction="ltr" dominant-baseline="text-before-edge" fill="#1e1e1e" font-family="Helvetica, Segoe UI Emoji" font-size="36px" style="white-space: pre;" text-anchor="start" x="0" y="0">Documents</text></g><g transform="translate(558.6341247558594 10) rotate(0 44.033203125 20.69999999999999)"><text direction="ltr" dominant-baseline="text-before-edge" fill="#1e1e1e" font-family="Helvetica, Segoe UI Emoji" font-size="36px" style="white-space: pre;" text-anchor="start" x="0" y="0">Index</text></g><g stroke-linecap="round" transform="translate(560.66015625 92.01171875) rotate(0 138.72265625 133.94140625)"><path d="M32 0 C106.24 0.93, 183.82 1.39, 245.45 0 M32 0 C88.93 1.91, 145.68 0.91, 245.45 0 M245.45 0 C265.08 -0.04, 277.49 9.66, 277.45 32 M245.45 0 C265.14 -0.5, 279.67 10.68, 277.45 32 M277.45 32 C278.89 78.62, 277.34 126.25, 277.45 235.88 M277.45 32 C279.52 107.66, 279.47 183.2, 277.45 235.88 M277.45 235.88 C277.51 257.95, 265.21 269.62, 245.45 267.88 M277.45 235.88 C278.44 255.3, 265.76 268.56, 245.45 267.88 M245.45 267.88 C162.02 268.23, 75.55 266.99, 32 267.88 M245.45 267.88 C188.36 267.21, 131.53 266.68, 32 267.88 M32 267.88 C8.73 269.12, -0.88 257.76, 0 235.88 M32 267.88 C12.4 268.64, 1.04 255.16, 0 235.88 M0 235.88 C2.66 168.65, 1.35 102.61, 0 32 M0 235.88 C1.2 193.96, 2.1 152.63, 0 32 M0 32 C-0.36 9.81, 10.37 0.55, 32 0 M0 32 C0.49 10.77, 10.19 2.02, 32 0" fill="none" stroke="#1e1e1e" stroke-width="1"></path></g><g transform="translate(582.0546875 140.11328125) rotate(0 56.69921875 69)"><text direction="ltr" dominant-baseline="text-before-edge" fill="#1e1e1e" font-family="Helvetica, Segoe UI Emoji" font-size="20px" style="white-space: pre;" text-anchor="start" x="0" y="0"></text><text direction="ltr" dominant-baseline="text-before-edge" fill="#1e1e1e" font-family="Helvetica, Segoe UI Emoji" font-size="20px" style="white-space: pre;" text-anchor="start" x="0" y="23">lazy: [12, 53]</text><text direction="ltr" dominant-baseline="text-before-edge" fill="#1e1e1e" font-family="Helvetica, Segoe UI Emoji" font-size="20px" style="white-space: pre;" text-anchor="start" x="0" y="46">dog: [12]</text><text direction="ltr" dominant-baseline="text-before-edge" fill="#1e1e1e" font-family="Helvetica, Segoe UI Emoji" font-size="20px" style="white-space: pre;" text-anchor="start" x="0" y="69">days: [53]</text><text direction="ltr" dominant-baseline="text-before-edge" fill="#1e1e1e" font-family="Helvetica, Segoe UI Emoji" font-size="20px" style="white-space: pre;" text-anchor="start" x="0" y="92">are: [53]</text><text direction="ltr" dominant-baseline="text-before-edge" fill="#1e1e1e" font-family="Helvetica, Segoe UI Emoji" font-size="20px" style="white-space: pre;" text-anchor="start" x="0" y="115">best: [53]</text></g></svg>