<svg height="710.95703125" version="1.1" viewbox="0 0 1018.21484375 710.95703125" width="1018.21484375" xmlns="http://www.w3.org/2000/svg">
<!-- svg-source:excalidraw -->
<!-- payload-type:application/vnd.excalidraw+json --><!-- payload-version:2 -->
<defs>
<style class="style-fonts">
</style>
</defs>
<rect fill="#ffffff" height="710.95703125" width="1018.21484375" x="0" y="0"></rect><g stroke-linecap="round" transform="translate(198.0546875 10) rotate(0 405.080078125 300.322265625)"><path d="M32 0 C190.02 1.67, 345.86 3.01, 778.16 0 M32 0 C325.31 -0.78, 619.32 -0.91, 778.16 0 M778.16 0 C799.33 1.54, 810.48 9.6, 810.16 32 M778.16 0 C798.04 1.7, 808.79 11.95, 810.16 32 M810.16 32 C812.55 215.72, 812.51 400.03, 810.16 568.64 M810.16 32 C811.03 183.27, 811.28 335.08, 810.16 568.64 M810.16 568.64 C810.65 591.77, 799.1 600.45, 778.16 600.64 M810.16 568.64 C808.58 590.19, 797.45 598.45, 778.16 600.64 M778.16 600.64 C487 601.35, 196.54 601.24, 32 600.64 M778.16 600.64 C519.88 602.24, 261.21 601.8, 32 600.64 M32 600.64 C8.98 600.17, 1.97 588.84, 0 568.64 M32 600.64 C10.74 600.58, 0.29 590.05, 0 568.64 M0 568.64 C-0.55 376.86, 0.59 186.2, 0 32 M0 568.64 C-0.81 441.43, -1.24 313.97, 0 32 M0 32 C1.37 12.53, 11.73 -1.47, 32 0 M0 32 C-1.18 11.55, 12.77 1.15, 32 0" fill="none" stroke="#1e1e1e" stroke-width="2"></path></g><g transform="translate(441.375 29.24609375) rotate(0 137.283935546875 17.5)"><text direction="ltr" dominant-baseline="text-before-edge" fill="#1e1e1e" font-family="Virgil, Segoe UI Emoji" font-size="28px" style="white-space: pre;" text-anchor="start" x="0" y="0">Elasticsearch Index</text></g><g stroke-linecap="round" transform="translate(214.33984375 100.80078125) rotate(0 176.076171875 111.966796875)"><path d="M32 0 C97.02 -2.82, 159.77 -2.68, 320.15 0 M32 0 C140.41 -0.37, 249.06 -1.35, 320.15 0 M320.15 0 C340.22 1.48, 350.96 11.78, 352.15 32 M320.15 0 C342.46 1.95, 352.42 12.31, 352.15 32 M352.15 32 C352.86 81.2, 353.51 128.11, 352.15 191.93 M352.15 32 C353 75.42, 352.56 116.94, 352.15 191.93 M352.15 191.93 C350.78 213.45, 339.71 222.02, 320.15 223.93 M352.15 191.93 C354.22 214.88, 341.55 223, 320.15 223.93 M320.15 223.93 C211.92 224.75, 102.91 225.97, 32 223.93 M320.15 223.93 C205.53 223.45, 92.92 223.2, 32 223.93 M32 223.93 C10.73 223.87, 0.25 213.33, 0 191.93 M32 223.93 C11.97 224.05, -1.4 212, 0 191.93 M0 191.93 C-2.64 150.5, -0.03 108.74, 0 32 M0 191.93 C0.92 138.84, 0.77 83.16, 0 32 M0 32 C-1.02 11.44, 12.5 1, 32 0 M0 32 C1.68 10.65, 9.94 -0.79, 32 0" fill="none" stroke="#1e1e1e" stroke-width="2"></path></g><g transform="translate(287.41796875 121.58203125) rotate(0 56.059967041015625 12.5)"><text direction="ltr" dominant-baseline="text-before-edge" fill="#1e1e1e" font-family="Virgil, Segoe UI Emoji" font-size="20px" style="white-space: pre;" text-anchor="start" x="0" y="0">Shard 1 - A</text></g><g transform="translate(10 295.87109375) rotate(0 54.767974853515625 17.5)"><text direction="ltr" dominant-baseline="text-before-edge" fill="#1e1e1e" font-family="Virgil, Segoe UI Emoji" font-size="28px" style="white-space: pre;" text-anchor="start" x="0" y="0">Replicas</text></g><g stroke-linecap="round"><g transform="translate(127.29296875 296.609375) rotate(0 40.796875 -38.96875)"><path d="M0.9 0.52 C2.99 -8.99, -1.53 -42.97, 11.95 -56.15 C25.43 -69.33, 70.31 -75.1, 81.79 -78.58 M-0.08 -0.25 C1.9 -10.16, -2.58 -44.89, 10.95 -57.79 C24.48 -70.68, 69.5 -74.04, 81.12 -77.6" fill="none" stroke="#1e1e1e" stroke-width="2"></path></g><g transform="translate(127.29296875 296.609375) rotate(0 40.796875 -38.96875)"><path d="M55.38 -62.19 C62.56 -66.4, 69.65 -69.75, 81.12 -77.6 M55.38 -62.19 C61.23 -65.62, 68.59 -69.13, 81.12 -77.6" fill="none" stroke="#1e1e1e" stroke-width="2"></path></g><g transform="translate(127.29296875 296.609375) rotate(0 40.796875 -38.96875)"><path d="M51.5 -82.35 C59.8 -81.55, 67.86 -79.88, 81.12 -77.6 M51.5 -82.35 C58.18 -80.84, 66.5 -79.38, 81.12 -77.6" fill="none" stroke="#1e1e1e" stroke-width="2"></path></g></g><mask></mask><g stroke-linecap="round"><g transform="translate(129.17578125 320.6875) rotate(0 40.513671875 61.03411613242514)"><path d="M-0.1 0.92 C1.09 14.88, -5.33 63.9, 8.07 84.24 C21.46 104.58, 68.23 116.54, 80.27 122.96 M-1.61 0.36 C-0.64 14.42, -6.84 65.32, 7.22 85.44 C21.28 105.56, 70.6 115.23, 82.76 121.08" fill="none" stroke="#1e1e1e" stroke-width="2"></path></g><g transform="translate(129.17578125 320.6875) rotate(0 40.513671875 61.03411613242514)"><path d="M52.77 121.71 C65.56 121.82, 74.2 120, 82.76 121.08 M52.77 121.71 C64.41 122.15, 75.32 121.78, 82.76 121.08" fill="none" stroke="#1e1e1e" stroke-width="2"></path></g><g transform="translate(129.17578125 320.6875) rotate(0 40.513671875 61.03411613242514)"><path d="M59.38 102.28 C69.78 109.68, 75.94 115.14, 82.76 121.08 M59.38 102.28 C68.44 110.03, 76.87 116.92, 82.76 121.08" fill="none" stroke="#1e1e1e" stroke-width="2"></path></g></g><mask></mask><g stroke-linecap="round" transform="translate(235.421875 172.49609375) rotate(0 150.84765625 69.716796875)"><path d="M32 0 C100.43 -1.38, 171.9 -1.32, 269.7 0 M32 0 C116.67 -1.09, 201.17 -1.13, 269.7 0 M269.7 0 C292.59 -0.36, 302.6 10.96, 301.7 32 M269.7 0 C290.47 -0.79, 302.56 12.15, 301.7 32 M301.7 32 C302.17 55.09, 302.56 79.15, 301.7 107.43 M301.7 32 C302.4 47.01, 303.15 62.9, 301.7 107.43 M301.7 107.43 C302.99 129.69, 290.25 140.25, 269.7 139.43 M301.7 107.43 C302.66 130.97, 290.77 139.11, 269.7 139.43 M269.7 139.43 C217.45 141.45, 167.05 141.61, 32 139.43 M269.7 139.43 C197.13 139.07, 125.29 140.26, 32 139.43 M32 139.43 C12.13 138.18, 1.11 130.13, 0 107.43 M32 139.43 C12.83 140.3, -0.33 129.08, 0 107.43 M0 107.43 C-2.17 78.61, 0.07 53.66, 0 32 M0 107.43 C-0.87 80.69, 0.1 54.53, 0 32 M0 32 C1.78 12.56, 9.36 0.23, 32 0 M0 32 C2.14 10.59, 10.17 -0.98, 32 0" fill="none" stroke="#1e1e1e" stroke-width="2"></path></g><g transform="translate(332.21875 184.9765625) rotate(0 51.35997772216797 10)"><text direction="ltr" dominant-baseline="text-before-edge" fill="#1e1e1e" font-family="Virgil, Segoe UI Emoji" font-size="16px" style="white-space: pre;" text-anchor="start" x="0" y="0">Lucene Index</text></g><g stroke-linecap="round" transform="translate(254.296875 223.9296875) rotate(0 40.9140625 32.66015625)"><path d="M16.33 0 C29.09 1.14, 41.3 0.52, 65.5 0 M16.33 0 C35.38 -0.51, 53.31 -0.18, 65.5 0 M65.5 0 C75.9 -0.68, 82.58 6.74, 81.83 16.33 M65.5 0 C76.94 2.06, 81.38 5.22, 81.83 16.33 M81.83 16.33 C79.95 25.68, 83.26 31.5, 81.83 48.99 M81.83 16.33 C82.73 25.27, 81.69 33.68, 81.83 48.99 M81.83 48.99 C82.67 61.79, 76.16 65.04, 65.5 65.32 M81.83 48.99 C79.89 59.33, 78.65 64.02, 65.5 65.32 M65.5 65.32 C50.66 66.52, 35.79 64.17, 16.33 65.32 M65.5 65.32 C54.18 65.12, 41.96 66.43, 16.33 65.32 M16.33 65.32 C7.32 66.08, -0.29 60.15, 0 48.99 M16.33 65.32 C7.02 67.46, 1.23 58.19, 0 48.99 M0 48.99 C0.87 42.32, -0.14 32.11, 0 16.33 M0 48.99 C0.68 41.26, -0.86 31.74, 0 16.33 M0 16.33 C1.86 5.38, 5.01 -0.85, 16.33 0 M0 16.33 C-0.98 7.07, 7.23 -2.11, 16.33 0" fill="none" stroke="#1e1e1e" stroke-width="2"></path></g><g transform="translate(261.21484375 246.58984375) rotate(0 33.99609375 10)"><text direction="ltr" dominant-baseline="text-before-edge" fill="#1e1e1e" font-family="Virgil, Segoe UI Emoji" font-size="16px" style="white-space: pre;" text-anchor="middle" x="33.99609375" y="0">Segment 1</text></g><g stroke-linecap="round" transform="translate(349.72265625 224.08203125) rotate(0 40.9140625 32.66015625)"><path d="M16.33 0 C34.59 -0.02, 51.32 1.51, 65.5 0 M16.33 0 C29.96 -0.41, 44.45 0.57, 65.5 0 M65.5 0 C76.87 1.79, 81.44 5.25, 81.83 16.33 M65.5 0 C74.81 0.21, 79.78 3.24, 81.83 16.33 M81.83 16.33 C81.24 30.62, 82.18 43.08, 81.83 48.99 M81.83 16.33 C82.12 28.6, 81.59 38.81, 81.83 48.99 M81.83 48.99 C80.14 59.4, 78.36 64.19, 65.5 65.32 M81.83 48.99 C81.9 59.81, 76.68 65.39, 65.5 65.32 M65.5 65.32 C46.85 64.34, 32.14 66.48, 16.33 65.32 M65.5 65.32 C54.77 66.03, 42.01 65.79, 16.33 65.32 M16.33 65.32 C6.81 67.18, 1.07 58.41, 0 48.99 M16.33 65.32 C4.27 66.21, 2.1 61.03, 0 48.99 M0 48.99 C-0.68 38.11, -0.21 26.41, 0 16.33 M0 48.99 C1.14 36.07, 0 22.78, 0 16.33 M0 16.33 C-0.85 6.86, 7 -1.84, 16.33 0 M0 16.33 C2.17 6.71, 5.45 0.79, 16.33 0" fill="none" stroke="#1e1e1e" stroke-width="2"></path></g><g transform="translate(356.640625 246.7421875) rotate(0 33.99609375 10)"><text direction="ltr" dominant-baseline="text-before-edge" fill="#1e1e1e" font-family="Virgil, Segoe UI Emoji" font-size="16px" style="white-space: pre;" text-anchor="middle" x="33.99609375" y="0">Segment 2</text></g><g stroke-linecap="round" transform="translate(440.81640625 225.140625) rotate(0 40.9140625 32.66015625)"><path d="M16.33 0 C30.82 0.52, 46.32 -0.87, 65.5 0 M16.33 0 C29.65 0.58, 42.28 -0.42, 65.5 0 M65.5 0 C75.01 0.19, 80.05 3.53, 81.83 16.33 M65.5 0 C78.45 1.61, 81.89 4.51, 81.83 16.33 M81.83 16.33 C82.78 27.89, 82.66 41.86, 81.83 48.99 M81.83 16.33 C80.95 29.01, 82.78 41.6, 81.83 48.99 M81.83 48.99 C81.89 59.82, 76.64 65.38, 65.5 65.32 M81.83 48.99 C83.14 59.99, 74.99 64.06, 65.5 65.32 M65.5 65.32 C51.17 66.78, 40.71 67.56, 16.33 65.32 M65.5 65.32 C49.58 66.32, 32.82 64.65, 16.33 65.32 M16.33 65.32 C4.42 66.09, 1.83 60.88, 0 48.99 M16.33 65.32 C7.12 65.31, -0.73 59.09, 0 48.99 M0 48.99 C1.93 35.77, 0.26 27.02, 0 16.33 M0 48.99 C-0.35 40.01, 0.85 28.69, 0 16.33 M0 16.33 C1.89 6.55, 5.45 0.68, 16.33 0 M0 16.33 C1.2 3.76, 3.15 2.17, 16.33 0" fill="none" stroke="#1e1e1e" stroke-width="2"></path></g><g transform="translate(447.734375 247.80078125) rotate(0 33.99609375 10)"><text direction="ltr" dominant-baseline="text-before-edge" fill="#1e1e1e" font-family="Virgil, Segoe UI Emoji" font-size="16px" style="white-space: pre;" text-anchor="middle" x="33.99609375" y="0">Segment 3</text></g><g stroke-linecap="round" transform="translate(221.240234375 343.419921875) rotate(0 176.076171875 111.966796875)"><path d="M32 0 C130.98 1.1, 231.96 0.9, 320.15 0 M32 0 C143.74 0.28, 255.84 -0.51, 320.15 0 M320.15 0 C343.28 1.4, 352.21 9.85, 352.15 32 M320.15 0 C343.28 0.14, 353.64 11.73, 352.15 32 M352.15 32 C354.71 73.5, 352.52 113.76, 352.15 191.93 M352.15 32 C353.76 76.16, 353.86 120.42, 352.15 191.93 M352.15 191.93 C353.29 213.37, 340.27 222.83, 320.15 223.93 M352.15 191.93 C351.37 215.26, 343.17 222.49, 320.15 223.93 M320.15 223.93 C218.35 225.75, 115.62 227.01, 32 223.93 M320.15 223.93 C206.54 222.63, 94.39 222.71, 32 223.93 M32 223.93 C12.13 223.92, -0.63 212.58, 0 191.93 M32 223.93 C12.16 223.69, 2.04 215.44, 0 191.93 M0 191.93 C-0.25 153.96, -1.04 115.99, 0 32 M0 191.93 C-0.3 133.17, -1.24 73.65, 0 32 M0 32 C1.05 9.2, 8.67 1.89, 32 0 M0 32 C0.35 10.71, 11.06 -1.45, 32 0" fill="none" stroke="#1e1e1e" stroke-width="2"></path></g><g transform="translate(294.318359375 364.201171875) rotate(0 56.76996612548828 12.5)"><text direction="ltr" dominant-baseline="text-before-edge" fill="#1e1e1e" font-family="Virgil, Segoe UI Emoji" font-size="20px" style="white-space: pre;" text-anchor="start" x="0" y="0">Shard 1 - B</text></g><g stroke-linecap="round" transform="translate(242.322265625 415.115234375) rotate(0 150.84765625 69.716796875)"><path d="M32 0 C113.76 -0.81, 192.35 -1.63, 269.7 0 M32 0 C106.26 2.49, 179.04 1.56, 269.7 0 M269.7 0 C292.59 0.12, 302.99 11.59, 301.7 32 M269.7 0 C290.13 0.93, 302.66 12.87, 301.7 32 M301.7 32 C301.12 55.77, 300.45 75.65, 301.7 107.43 M301.7 32 C302.36 54.45, 301.18 76.26, 301.7 107.43 M301.7 107.43 C301.01 130.5, 292.49 138.18, 269.7 139.43 M301.7 107.43 C302.97 130.33, 293.19 140.3, 269.7 139.43 M269.7 139.43 C203.4 141.69, 132.76 139.94, 32 139.43 M269.7 139.43 C189.83 140.42, 108.48 140.14, 32 139.43 M32 139.43 C11.96 139.22, 1.78 130.66, 0 107.43 M32 139.43 C9.17 139.7, 2.14 128.69, 0 107.43 M0 107.43 C1.74 87.99, -1.51 67.32, 0 32 M0 107.43 C0.52 79.91, -1 54.8, 0 32 M0 32 C0.3 10.7, 11.01 -1.26, 32 0 M0 32 C-2.23 11.48, 10.12 -0.01, 32 0" fill="none" stroke="#1e1e1e" stroke-width="2"></path></g><g transform="translate(339.119140625 427.595703125) rotate(0 51.35997772216797 10)"><text direction="ltr" dominant-baseline="text-before-edge" fill="#1e1e1e" font-family="Virgil, Segoe UI Emoji" font-size="16px" style="white-space: pre;" text-anchor="start" x="0" y="0">Lucene Index</text></g><g stroke-linecap="round" transform="translate(261.197265625 466.548828125) rotate(0 40.9140625 32.66015625)"><path d="M16.33 0 C30.31 -1.44, 42 2.13, 65.5 0 M16.33 0 C35.31 0.26, 53.37 0.66, 65.5 0 M65.5 0 C75.6 0.81, 82.67 7.35, 81.83 16.33 M65.5 0 C76.13 -0.32, 79.89 4.9, 81.83 16.33 M81.83 16.33 C81.58 29.6, 81.71 43.51, 81.83 48.99 M81.83 16.33 C81.29 27.16, 82.36 35.63, 81.83 48.99 M81.83 48.99 C82.93 61.24, 78.27 66.08, 65.5 65.32 M81.83 48.99 C81.49 60.19, 77.96 67.46, 65.5 65.32 M65.5 65.32 C48.9 66.9, 31.75 66.53, 16.33 65.32 M65.5 65.32 C51.42 65.05, 36.94 66.1, 16.33 65.32 M16.33 65.32 C4.14 65.55, 1.86 59.81, 0 48.99 M16.33 65.32 C4.95 64.34, -0.98 61.51, 0 48.99 M0 48.99 C1.4 36.66, 0.98 25.37, 0 16.33 M0 48.99 C0.48 41.6, 0.5 33.55, 0 16.33 M0 16.33 C-1.94 6.15, 4.97 -0.01, 16.33 0 M0 16.33 C1.67 3.65, 7.5 0.18, 16.33 0" fill="none" stroke="#1e1e1e" stroke-width="2"></path></g><g transform="translate(268.115234375 489.208984375) rotate(0 33.99609375 10)"><text direction="ltr" dominant-baseline="text-before-edge" fill="#1e1e1e" font-family="Virgil, Segoe UI Emoji" font-size="16px" style="white-space: pre;" text-anchor="middle" x="33.99609375" y="0">Segment 1</text></g><g stroke-linecap="round" transform="translate(356.623046875 466.701171875) rotate(0 40.9140625 32.66015625)"><path d="M16.33 0 C28.11 -0.39, 36.27 1.12, 65.5 0 M16.33 0 C30.99 0.18, 46.85 0.73, 65.5 0 M65.5 0 C76.16 -0.28, 80.14 4.97, 81.83 16.33 M65.5 0 C78.65 -1.3, 81.9 5.37, 81.83 16.33 M81.83 16.33 C81.94 25.33, 80.74 36.07, 81.83 48.99 M81.83 16.33 C82.62 29.65, 83.01 41.98, 81.83 48.99 M81.83 48.99 C81.54 60.15, 77.76 67.18, 65.5 65.32 M81.83 48.99 C83.05 58.19, 75.21 66.21, 65.5 65.32 M65.5 65.32 C46.24 65.05, 26.32 66.98, 16.33 65.32 M65.5 65.32 C50.62 65.9, 37.97 65.75, 16.33 65.32 M16.33 65.32 C5.01 64.47, -0.85 61.29, 0 48.99 M16.33 65.32 C7.23 63.21, 2.17 61.15, 0 48.99 M0 48.99 C-1.58 37.19, 1.78 29.67, 0 16.33 M0 48.99 C-1.02 39.49, -0.29 29.28, 0 16.33 M0 16.33 C1.45 3.89, 7.23 0.16, 16.33 0 M0 16.33 C0.34 5.34, 6.69 1.79, 16.33 0" fill="none" stroke="#1e1e1e" stroke-width="2"></path></g><g transform="translate(363.541015625 489.361328125) rotate(0 33.99609375 10)"><text direction="ltr" dominant-baseline="text-before-edge" fill="#1e1e1e" font-family="Virgil, Segoe UI Emoji" font-size="16px" style="white-space: pre;" text-anchor="middle" x="33.99609375" y="0">Segment 2</text></g><g stroke-linecap="round" transform="translate(447.716796875 467.759765625) rotate(0 40.9140625 32.66015625)"><path d="M16.33 0 C31.34 0.91, 47.03 -1.17, 65.5 0 M16.33 0 C32.97 -0.61, 48.99 -0.71, 65.5 0 M65.5 0 C78.36 -1.13, 81.89 5.38, 81.83 16.33 M65.5 0 C76.68 0.07, 83.14 5.56, 81.83 16.33 M81.83 16.33 C83.39 25.61, 80.4 33.07, 81.83 48.99 M81.83 16.33 C81.99 28.49, 82.82 41.31, 81.83 48.99 M81.83 48.99 C82.89 58.41, 75.36 66.09, 65.5 65.32 M81.83 48.99 C83.93 61.03, 78.06 65.31, 65.5 65.32 M65.5 65.32 C52.09 67.42, 40.99 64.33, 16.33 65.32 M65.5 65.32 C49.97 64.88, 34.45 66.01, 16.33 65.32 M16.33 65.32 C7 63.48, 1.89 60.98, 0 48.99 M16.33 65.32 C5.45 66.11, 1.2 58.19, 0 48.99 M0 48.99 C-0.27 42.79, -1.57 33.97, 0 16.33 M0 48.99 C0.8 37.26, 0.97 27.16, 0 16.33 M0 16.33 C0.3 5.35, 6.53 1.56, 16.33 0 M0 16.33 C1.35 3.77, 6.68 0.32, 16.33 0" fill="none" stroke="#1e1e1e" stroke-width="2"></path></g><g transform="translate(454.634765625 490.419921875) rotate(0 33.99609375 10)"><text direction="ltr" dominant-baseline="text-before-edge" fill="#1e1e1e" font-family="Virgil, Segoe UI Emoji" font-size="16px" style="white-space: pre;" text-anchor="middle" x="33.99609375" y="0">Segment 3</text></g><g stroke-linecap="round" transform="translate(603.8606784417711 100.8720703125) rotate(0 176.076171875 111.966796875)"><path d="M32 0 C137.69 1.48, 243.6 0.68, 320.15 0 M32 0 C115.13 0.09, 196.8 0.49, 320.15 0 M320.15 0 C341.74 0.06, 353.29 10.77, 352.15 32 M320.15 0 C340.09 -1.26, 351.37 12.66, 352.15 32 M352.15 32 C352.51 93.54, 351.91 151.03, 352.15 191.93 M352.15 32 C353.78 81.39, 352.74 132.65, 352.15 191.93 M352.15 191.93 C353.98 214.27, 342.94 223.92, 320.15 223.93 M352.15 191.93 C351.43 212.48, 342.98 223.69, 320.15 223.93 M320.15 223.93 C208.27 223.92, 96 222.19, 32 223.93 M320.15 223.93 C246.59 224.78, 172.58 225.89, 32 223.93 M32 223.93 C10.67 224.62, 1.05 211.8, 0 191.93 M32 223.93 C8.37 226.11, 0.35 213.31, 0 191.93 M0 191.93 C1.71 140.75, 1 91.96, 0 32 M0 191.93 C-1.28 156.35, -0.89 121.64, 0 32 M0 32 C1.17 9.21, 11.75 0.28, 32 0 M0 32 C1.55 11.35, 12 0.22, 32 0" fill="none" stroke="#1e1e1e" stroke-width="2"></path></g><g transform="translate(676.9388034417711 121.6533203125) rotate(0 60.46996307373047 12.5)"><text direction="ltr" dominant-baseline="text-before-edge" fill="#1e1e1e" font-family="Virgil, Segoe UI Emoji" font-size="20px" style="white-space: pre;" text-anchor="start" x="0" y="0">Shard 2 - A</text></g><g stroke-linecap="round" transform="translate(624.9427096917711 172.5673828125) rotate(0 150.84765625 69.716796875)"><path d="M32 0 C113.06 -1.19, 194.19 1.87, 269.7 0 M32 0 C89.94 0.09, 148.13 0.1, 269.7 0 M269.7 0 C289.82 -1.1, 301.01 12.4, 301.7 32 M269.7 0 C292.71 -1.44, 302.97 12.23, 301.7 32 M301.7 32 C302.25 63.09, 303.84 92.51, 301.7 107.43 M301.7 32 C302.22 49.58, 302.04 66.16, 301.7 107.43 M301.7 107.43 C301.06 128.08, 292.33 139.22, 269.7 139.43 M301.7 107.43 C303.74 130.94, 289.53 139.7, 269.7 139.43 M269.7 139.43 C175.55 138.29, 84.02 140.3, 32 139.43 M269.7 139.43 C220.21 140.82, 171.15 139.92, 32 139.43 M32 139.43 C8.67 141.32, 0.3 128.8, 0 107.43 M32 139.43 C11.06 137.99, -2.23 129.58, 0 107.43 M0 107.43 C-1.55 88.38, 0.16 66.05, 0 32 M0 107.43 C0.18 84.43, 0.13 63.01, 0 32 M0 32 C1.35 11.26, 11.82 0.19, 32 0 M0 32 C-1.35 9.58, 8.86 -1.22, 32 0" fill="none" stroke="#1e1e1e" stroke-width="2"></path></g><g transform="translate(721.7395846917711 185.0478515625) rotate(0 51.35997772216797 10)"><text direction="ltr" dominant-baseline="text-before-edge" fill="#1e1e1e" font-family="Virgil, Segoe UI Emoji" font-size="16px" style="white-space: pre;" text-anchor="start" x="0" y="0">Lucene Index</text></g><g stroke-linecap="round" transform="translate(643.8177096917711 224.0009765625) rotate(0 40.9140625 32.66015625)"><path d="M16.33 0 C25.81 -0.42, 37.49 -0.23, 65.5 0 M16.33 0 C30.63 -0.57, 45.8 0.84, 65.5 0 M65.5 0 C77.85 -1.25, 82.93 6.81, 81.83 16.33 M65.5 0 C78.55 0.87, 81.49 5.75, 81.83 16.33 M81.83 16.33 C80.66 27.34, 82.9 42.23, 81.83 48.99 M81.83 16.33 C81.75 27.42, 82.72 39.08, 81.83 48.99 M81.83 48.99 C83.61 61.77, 75.08 65.55, 65.5 65.32 M81.83 48.99 C83.97 59.8, 75.89 64.34, 65.5 65.32 M65.5 65.32 C51 67.59, 41.28 65.71, 16.33 65.32 M65.5 65.32 C48.07 65.9, 32.79 64.98, 16.33 65.32 M16.33 65.32 C5.78 64.06, -1.94 60.59, 0 48.99 M16.33 65.32 C4.9 65.31, 1.67 58.09, 0 48.99 M0 48.99 C-0.12 37.35, 1.53 24.72, 0 16.33 M0 48.99 C0.5 41.86, 0.4 34.23, 0 16.33 M0 16.33 C-1.17 4.5, 3.87 -1.06, 16.33 0 M0 16.33 C-1.93 5.14, 7.41 2.26, 16.33 0" fill="none" stroke="#1e1e1e" stroke-width="2"></path></g><g transform="translate(650.7356784417711 246.6611328125) rotate(0 33.99609375 10)"><text direction="ltr" dominant-baseline="text-before-edge" fill="#1e1e1e" font-family="Virgil, Segoe UI Emoji" font-size="16px" style="white-space: pre;" text-anchor="middle" x="33.99609375" y="0">Segment 1</text></g><g stroke-linecap="round" transform="translate(739.2434909417711 224.1533203125) rotate(0 40.9140625 32.66015625)"><path d="M16.33 0 C31.3 1.08, 46.24 -1.28, 65.5 0 M16.33 0 C29.11 -1.05, 40.98 0.25, 65.5 0 M65.5 0 C78.27 0.76, 81.54 5.71, 81.83 16.33 M65.5 0 C77.96 2.14, 83.05 3.75, 81.83 16.33 M81.83 16.33 C82.95 25.92, 81.94 31.95, 81.83 48.99 M81.83 16.33 C82.93 25.96, 81.39 33.8, 81.83 48.99 M81.83 48.99 C83.69 59.81, 75.95 64.47, 65.5 65.32 M81.83 48.99 C80.85 61.51, 78.17 63.21, 65.5 65.32 M65.5 65.32 C46.78 66.37, 25.24 63.33, 16.33 65.32 M65.5 65.32 C46.28 64.7, 25.74 65.68, 16.33 65.32 M16.33 65.32 C4.97 65.31, 1.45 58.32, 0 48.99 M16.33 65.32 C7.5 65.51, 0.34 59.77, 0 48.99 M0 48.99 C-1.71 38.5, 0.02 27.2, 0 16.33 M0 48.99 C-0.78 37.75, -0.98 26.92, 0 16.33 M0 16.33 C-1.68 5.18, 7.16 1.96, 16.33 0 M0 16.33 C1.44 4.51, 7.24 0.55, 16.33 0" fill="none" stroke="#1e1e1e" stroke-width="2"></path></g><g transform="translate(746.1614596917711 246.8134765625) rotate(0 33.99609375 10)"><text direction="ltr" dominant-baseline="text-before-edge" fill="#1e1e1e" font-family="Virgil, Segoe UI Emoji" font-size="16px" style="white-space: pre;" text-anchor="middle" x="33.99609375" y="0">Segment 2</text></g><g stroke-linecap="round" transform="translate(830.3372409417711 225.2119140625) rotate(0 40.9140625 32.66015625)"><path d="M16.33 0 C32.78 -0.38, 53.16 1.76, 65.5 0 M16.33 0 C28.94 0.04, 39.52 -0.2, 65.5 0 M65.5 0 C77.76 1.86, 82.89 3.97, 81.83 16.33 M65.5 0 C75.21 0.89, 83.93 6.59, 81.83 16.33 M81.83 16.33 C81.14 29.81, 81.61 42.47, 81.83 48.99 M81.83 16.33 C82.55 29.19, 81.4 41.68, 81.83 48.99 M81.83 48.99 C80.98 61.29, 77.94 63.48, 65.5 65.32 M81.83 48.99 C84 61.15, 76.39 66.11, 65.5 65.32 M65.5 65.32 C50.06 65.13, 30.88 65.17, 16.33 65.32 M65.5 65.32 C53.6 65.49, 42.91 64.72, 16.33 65.32 M16.33 65.32 C7.23 65.48, 0.3 59.78, 0 48.99 M16.33 65.32 C6.69 67.11, 1.35 58.21, 0 48.99 M0 48.99 C0.55 38.59, 0.14 24.7, 0 16.33 M0 48.99 C-0.58 40.6, 1.11 33.45, 0 16.33 M0 16.33 C1.26 4.64, 7 0.48, 16.33 0 M0 16.33 C-0.24 4.05, 5.71 1.69, 16.33 0" fill="none" stroke="#1e1e1e" stroke-width="2"></path></g><g transform="translate(837.2552096917711 247.8720703125) rotate(0 33.99609375 10)"><text direction="ltr" dominant-baseline="text-before-edge" fill="#1e1e1e" font-family="Virgil, Segoe UI Emoji" font-size="16px" style="white-space: pre;" text-anchor="middle" x="33.99609375" y="0">Segment 3</text></g><g stroke-linecap="round" transform="translate(610.7610690667711 343.4912109375) rotate(0 176.076171875 111.966796875)"><path d="M32 0 C107.7 -0.75, 186.31 -0.17, 320.15 0 M32 0 C129.84 0.41, 227.06 -0.85, 320.15 0 M320.15 0 C340.46 0.77, 353.98 11.67, 352.15 32 M320.15 0 C343.16 -0.01, 351.43 9.88, 352.15 32 M352.15 32 C353.88 89.06, 352.21 150.59, 352.15 191.93 M352.15 32 C351.38 80.17, 352.58 126, 352.15 191.93 M352.15 191.93 C354.04 214.37, 341.49 224.62, 320.15 223.93 M352.15 191.93 C353.36 211.58, 339.19 226.11, 320.15 223.93 M320.15 223.93 C228.38 222.85, 139.04 223.95, 32 223.93 M320.15 223.93 C234.51 222.31, 147.64 222.21, 32 223.93 M32 223.93 C11.75 225.49, 1.17 211.81, 0 191.93 M32 223.93 C11.91 224.25, 1.55 213.95, 0 191.93 M0 191.93 C-1.09 133.13, -1.21 75.78, 0 32 M0 191.93 C-0.74 145.69, -0.59 100.48, 0 32 M0 32 C-0.21 9.46, 10.9 1.47, 32 0 M0 32 C-1.37 9.13, 12.62 1.99, 32 0" fill="none" stroke="#1e1e1e" stroke-width="2"></path></g><g transform="translate(683.8391940667711 364.2724609375) rotate(0 61.179962158203125 12.5)"><text direction="ltr" dominant-baseline="text-before-edge" fill="#1e1e1e" font-family="Virgil, Segoe UI Emoji" font-size="20px" style="white-space: pre;" text-anchor="start" x="0" y="0">Shard 2 - B</text></g><g stroke-linecap="round" transform="translate(631.8431003167711 415.1865234375) rotate(0 150.84765625 69.716796875)"><path d="M32 0 C117.07 -2.11, 201.11 -0.72, 269.7 0 M32 0 C124.97 1.79, 219.57 1.88, 269.7 0 M269.7 0 C292.49 -0.01, 301.06 9.98, 301.7 32 M269.7 0 C292.52 -0.24, 303.74 12.84, 301.7 32 M301.7 32 C301.72 49.28, 300.93 66.57, 301.7 107.43 M301.7 32 C303.23 60.53, 302.29 88.29, 301.7 107.43 M301.7 107.43 C302.74 127.3, 289.03 141.32, 269.7 139.43 M301.7 107.43 C302.04 128.81, 291.42 137.99, 269.7 139.43 M269.7 139.43 C221.39 140.18, 171.79 140.46, 32 139.43 M269.7 139.43 C196.93 139.99, 123.75 138.73, 32 139.43 M32 139.43 C11.75 139.71, 1.35 129.36, 0 107.43 M32 139.43 C12 139.65, -1.35 127.68, 0 107.43 M0 107.43 C0.13 92.45, 2.36 75.29, 0 32 M0 107.43 C-0.69 87.25, -0.47 69.01, 0 32 M0 32 C-1.19 9.33, 12.37 1.73, 32 0 M0 32 C2.16 10.36, 12.59 2.08, 32 0" fill="none" stroke="#1e1e1e" stroke-width="2"></path></g><g transform="translate(728.6399753167711 427.6669921875) rotate(0 51.35997772216797 10)"><text direction="ltr" dominant-baseline="text-before-edge" fill="#1e1e1e" font-family="Virgil, Segoe UI Emoji" font-size="16px" style="white-space: pre;" text-anchor="start" x="0" y="0">Lucene Index</text></g><g stroke-linecap="round" transform="translate(650.7181003167711 466.6201171875) rotate(0 40.9140625 32.66015625)"><path d="M16.33 0 C32.22 0.73, 42.93 -1.36, 65.5 0 M16.33 0 C33.71 -0.25, 49.31 -0.59, 65.5 0 M65.5 0 C77.68 -0.21, 83.61 7.34, 81.83 16.33 M65.5 0 C74.88 0.26, 83.97 5.37, 81.83 16.33 M81.83 16.33 C83.11 26.98, 79.85 36.4, 81.83 48.99 M81.83 16.33 C82.35 27.2, 80.83 40.47, 81.83 48.99 M81.83 48.99 C82.13 59.91, 76.73 64.06, 65.5 65.32 M81.83 48.99 C79.6 60.69, 75.84 65.31, 65.5 65.32 M65.5 65.32 C47.35 66.06, 28.78 66.85, 16.33 65.32 M65.5 65.32 C47.45 65.1, 29 65.26, 16.33 65.32 M16.33 65.32 C6.6 65.51, -1.17 58.93, 0 48.99 M16.33 65.32 C3.64 64.1, -1.93 59.57, 0 48.99 M0 48.99 C-1.13 37.95, 0.16 23.59, 0 16.33 M0 48.99 C-0.63 40.5, 0.81 34.21, 0 16.33 M0 16.33 C1.88 5.17, 7.12 1.81, 16.33 0 M0 16.33 C1.53 7.38, 7.25 0.06, 16.33 0" fill="none" stroke="#1e1e1e" stroke-width="2"></path></g><g transform="translate(657.6360690667711 489.2802734375) rotate(0 33.99609375 10)"><text direction="ltr" dominant-baseline="text-before-edge" fill="#1e1e1e" font-family="Virgil, Segoe UI Emoji" font-size="16px" style="white-space: pre;" text-anchor="middle" x="33.99609375" y="0">Segment 1</text></g><g stroke-linecap="round" transform="translate(746.1438815667711 466.7724609375) rotate(0 40.9140625 32.66015625)"><path d="M16.33 0 C34.47 2.08, 52.07 1.71, 65.5 0 M16.33 0 C31.7 0.06, 46.67 1.12, 65.5 0 M65.5 0 C75.08 0.23, 83.69 5.38, 81.83 16.33 M65.5 0 C75.89 -0.98, 80.85 7.07, 81.83 16.33 M81.83 16.33 C82.63 28.67, 82.21 42.05, 81.83 48.99 M81.83 16.33 C81.65 23.75, 81.67 30.51, 81.83 48.99 M81.83 48.99 C79.89 60.59, 75.91 65.31, 65.5 65.32 M81.83 48.99 C83.49 58.09, 78.44 65.51, 65.5 65.32 M65.5 65.32 C51.57 66.76, 33.07 66.67, 16.33 65.32 M65.5 65.32 C50.64 65.56, 34.04 65, 16.33 65.32 M16.33 65.32 C3.87 64.26, -1.68 59.61, 0 48.99 M16.33 65.32 C7.41 67.58, 1.44 58.95, 0 48.99 M0 48.99 C-1.29 36.87, 1.4 23.1, 0 16.33 M0 48.99 C0.66 41.24, 0.56 34.67, 0 16.33 M0 16.33 C1.33 7.13, 7.01 0.05, 16.33 0 M0 16.33 C0.2 6.61, 3.74 -1.65, 16.33 0" fill="none" stroke="#1e1e1e" stroke-width="2"></path></g><g transform="translate(753.0618503167711 489.4326171875) rotate(0 33.99609375 10)"><text direction="ltr" dominant-baseline="text-before-edge" fill="#1e1e1e" font-family="Virgil, Segoe UI Emoji" font-size="16px" style="white-space: pre;" text-anchor="middle" x="33.99609375" y="0">Segment 2</text></g><g stroke-linecap="round" transform="translate(837.2376315667711 467.8310546875) rotate(0 40.9140625 32.66015625)"><path d="M16.33 0 C35.57 -0.99, 54.14 0.94, 65.5 0 M16.33 0 C29.91 -0.35, 45.72 -0.5, 65.5 0 M65.5 0 C75.95 -0.85, 80.98 6.86, 81.83 16.33 M65.5 0 C78.17 -2.11, 84 6.71, 81.83 16.33 M81.83 16.33 C80.47 24.15, 83.83 36.26, 81.83 48.99 M81.83 16.33 C80.92 26.54, 81.65 36.03, 81.83 48.99 M81.83 48.99 C83.28 58.32, 78.18 65.48, 65.5 65.32 M81.83 48.99 C82.17 59.77, 77.63 67.11, 65.5 65.32 M65.5 65.32 C48.14 66.94, 30.81 66.74, 16.33 65.32 M65.5 65.32 C49.5 64.56, 34.23 64.96, 16.33 65.32 M16.33 65.32 C7.16 67.28, 1.26 59.07, 0 48.99 M16.33 65.32 C7.24 65.87, -0.24 58.49, 0 48.99 M0 48.99 C-1.58 40.52, 1.49 30.53, 0 16.33 M0 48.99 C0.39 40.48, 0.51 30.3, 0 16.33 M0 16.33 C0.17 6.46, 3.97 -1.43, 16.33 0 M0 16.33 C-2.11 6.57, 4.74 1.46, 16.33 0" fill="none" stroke="#1e1e1e" stroke-width="2"></path></g><g transform="translate(844.1556003167711 490.4912109375) rotate(0 33.99609375 10)"><text direction="ltr" dominant-baseline="text-before-edge" fill="#1e1e1e" font-family="Virgil, Segoe UI Emoji" font-size="16px" style="white-space: pre;" text-anchor="middle" x="33.99609375" y="0">Segment 3</text></g><g transform="translate(462.8984375 665.95703125) rotate(0 142.60394287109375 17.5)"><text direction="ltr" dominant-baseline="text-before-edge" fill="#1e1e1e" font-family="Virgil, Segoe UI Emoji" font-size="28px" style="white-space: pre;" text-anchor="start" x="0" y="0">Different Documents</text></g><g stroke-linecap="round"><g transform="translate(572.79296875 654.578125) rotate(0 -34.2734375 -40.14453125)"><path d="M1.07 1.14 C-10.62 -12.2, -57.91 -66.58, -69.33 -80.15 M0.17 0.69 C-11.2 -12.42, -55.73 -65.26, -67.03 -78.54" fill="none" stroke="#1e1e1e" stroke-width="2"></path></g><g transform="translate(572.79296875 654.578125) rotate(0 -34.2734375 -40.14453125)"><path d="M-40.98 -63.65 C-48.58 -70.16, -59.75 -72.43, -67.03 -78.54 M-40.98 -63.65 C-49.11 -67.47, -55.63 -73.52, -67.03 -78.54" fill="none" stroke="#1e1e1e" stroke-width="2"></path></g><g transform="translate(572.79296875 654.578125) rotate(0 -34.2734375 -40.14453125)"><path d="M-56.65 -50.4 C-58.51 -61.88, -63.97 -68.99, -67.03 -78.54 M-56.65 -50.4 C-60.09 -58.08, -61.97 -68.06, -67.03 -78.54" fill="none" stroke="#1e1e1e" stroke-width="2"></path></g></g><mask></mask><g stroke-linecap="round"><g transform="translate(631.2890625 657.60546875) rotate(0 53.095703125 -41.443359375)"><path d="M-0.78 0.14 C16.92 -13.87, 89.52 -69, 107.31 -82.93 M1.01 -0.84 C18.56 -14.14, 89.61 -67.82, 106.95 -81.41" fill="none" stroke="#1e1e1e" stroke-width="2"></path></g><g transform="translate(631.2890625 657.60546875) rotate(0 53.095703125 -41.443359375)"><path d="M90.83 -56.11 C97.08 -63.98, 103.06 -76.11, 106.95 -81.41 M90.83 -56.11 C95.86 -63.65, 100.18 -68.69, 106.95 -81.41" fill="none" stroke="#1e1e1e" stroke-width="2"></path></g><g transform="translate(631.2890625 657.60546875) rotate(0 53.095703125 -41.443359375)"><path d="M78.34 -72.39 C89.6 -73.85, 100.44 -79.65, 106.95 -81.41 M78.34 -72.39 C86.51 -75.83, 94.04 -76.68, 106.95 -81.41" fill="none" stroke="#1e1e1e" stroke-width="2"></path></g></g><mask></mask></svg>