<svg height="620.64453125" version="1.1" viewbox="0 0 830.16015625 620.64453125" width="830.16015625" xmlns="http://www.w3.org/2000/svg">
<!-- svg-source:excalidraw -->
<!-- payload-type:application/vnd.excalidraw+json --><!-- payload-version:2 -->
<defs>
<style class="style-fonts">
</style>
</defs>
<rect fill="#ffffff" height="620.64453125" width="830.16015625" x="0" y="0"></rect><g stroke-linecap="round" transform="translate(10 10) rotate(0 405.080078125 300.322265625)"><path d="M32 0 C306.46 -2.5, 581.67 -2.18, 778.16 0 M32 0 C280.02 -2.87, 528.07 -2.69, 778.16 0 M778.16 0 C800.02 -0.02, 809.11 9.53, 810.16 32 M778.16 0 C798.2 -1.73, 810.4 8.45, 810.16 32 M810.16 32 C808.92 235.39, 809.06 436.55, 810.16 568.64 M810.16 32 C811.18 226.13, 811.2 420.22, 810.16 568.64 M810.16 568.64 C810.1 591.65, 798.9 601.04, 778.16 600.64 M810.16 568.64 C810.09 587.97, 800.09 601.73, 778.16 600.64 M778.16 600.64 C528.11 597.39, 279.59 598.33, 32 600.64 M778.16 600.64 C568.38 598.75, 358.72 598.87, 32 600.64 M32 600.64 C10.46 602.47, 1.58 590.49, 0 568.64 M32 600.64 C11.65 599.56, 0.34 588.84, 0 568.64 M0 568.64 C0.2 380.96, -0.67 193.03, 0 32 M0 568.64 C0.22 450.19, 0.55 330.86, 0 32 M0 32 C0.31 11.58, 12.15 0.97, 32 0 M0 32 C0.35 9.58, 10.38 2.26, 32 0" fill="none" stroke="#1e1e1e" stroke-width="1"></path></g><g transform="translate(253.3203125 29.24609375) rotate(0 137.283935546875 17.5)"><text direction="ltr" dominant-baseline="text-before-edge" fill="#1e1e1e" font-family="Virgil, Segoe UI Emoji" font-size="28px" style="white-space: pre;" text-anchor="start" x="0" y="0">Elasticsearch Index</text></g><g stroke-linecap="round" transform="translate(26.28515625 100.80078125) rotate(0 176.076171875 111.966796875)"><path d="M32 0 C94.64 2.09, 157.7 1.15, 320.15 0 M32 0 C109.72 -0.3, 186.65 -0.72, 320.15 0 M320.15 0 C340.36 -1.51, 352.36 8.74, 352.15 32 M320.15 0 C343.27 -1.4, 354.27 10.87, 352.15 32 M352.15 32 C353.81 96.32, 351.78 160.69, 352.15 191.93 M352.15 32 C353.33 74.19, 353.07 114.92, 352.15 191.93 M352.15 191.93 C352.09 211.52, 342 224.88, 320.15 223.93 M352.15 191.93 C352.94 213.57, 339.41 222.21, 320.15 223.93 M320.15 223.93 C253.51 224.46, 186.6 225.36, 32 223.93 M320.15 223.93 C252.74 223.84, 186.08 223.34, 32 223.93 M32 223.93 C11.53 222.99, 0.3 212.28, 0 191.93 M32 223.93 C11.82 224.14, 0.2 214.39, 0 191.93 M0 191.93 C-0.62 137.98, 1.31 83.72, 0 32 M0 191.93 C-0.24 134.9, 0.34 77.45, 0 32 M0 32 C0.3 9.72, 10.42 1.97, 32 0 M0 32 C-1 9.38, 10.32 1.96, 32 0" fill="none" stroke="#1e1e1e" stroke-width="1"></path></g><g transform="translate(99.36328125 121.58203125) rotate(0 56.059967041015625 12.5)"><text direction="ltr" dominant-baseline="text-before-edge" fill="#1e1e1e" font-family="Virgil, Segoe UI Emoji" font-size="20px" style="white-space: pre;" text-anchor="start" x="0" y="0">Shard 1 - A</text></g><g stroke-linecap="round" transform="translate(47.3671875 172.49609375) rotate(0 150.84765625 69.716796875)"><path d="M32 0 C121.02 0.35, 211.3 0.15, 269.7 0 M32 0 C102.6 0.5, 174.22 0.33, 269.7 0 M269.7 0 C292.58 -1.22, 303.54 10.84, 301.7 32 M269.7 0 C293.28 0.6, 299.8 12.09, 301.7 32 M301.7 32 C300.57 58.73, 299.52 82.37, 301.7 107.43 M301.7 32 C301.44 60.06, 301.73 90.34, 301.7 107.43 M301.7 107.43 C302.38 129.03, 289.22 137.94, 269.7 139.43 M301.7 107.43 C300.09 129.72, 292.12 139, 269.7 139.43 M269.7 139.43 C205.31 141.33, 142.55 139.77, 32 139.43 M269.7 139.43 C177.1 139.55, 83.91 139.53, 32 139.43 M32 139.43 C11.67 139.61, 0.17 129.74, 0 107.43 M32 139.43 C11.46 138.05, 0.89 126.95, 0 107.43 M0 107.43 C1.06 86.89, -2.08 65.67, 0 32 M0 107.43 C-0.41 80.88, -0.68 56.26, 0 32 M0 32 C-0.87 9.55, 10.37 1.71, 32 0 M0 32 C-1.97 12.36, 11.73 0.79, 32 0" fill="none" stroke="#1e1e1e" stroke-width="4"></path></g><g transform="translate(144.1640625 184.9765625) rotate(0 51.35997772216797 10)"><text direction="ltr" dominant-baseline="text-before-edge" fill="#1e1e1e" font-family="Virgil, Segoe UI Emoji" font-size="16px" style="white-space: pre;" text-anchor="start" x="0" y="0">Lucene Index</text></g><g stroke-linecap="round" transform="translate(66.2421875 223.9296875) rotate(0 40.9140625 32.66015625)"><path d="M16.33 0 C32.95 -1.18, 48.47 -1.25, 65.5 0 M16.33 0 C28.15 -0.13, 39.34 0.56, 65.5 0 M65.5 0 C78.34 0.53, 80.18 6.68, 81.83 16.33 M65.5 0 C77.17 -0.91, 83.47 4.49, 81.83 16.33 M81.83 16.33 C83.19 28, 81.92 40.81, 81.83 48.99 M81.83 16.33 C82.26 23.41, 81.01 29.49, 81.83 48.99 M81.83 48.99 C80.43 60.7, 77.34 64.95, 65.5 65.32 M81.83 48.99 C81.05 58.62, 76.98 63.79, 65.5 65.32 M65.5 65.32 C48.52 66.85, 28.41 66.13, 16.33 65.32 M65.5 65.32 C53.57 65.17, 40.72 65.56, 16.33 65.32 M16.33 65.32 C6.14 64.12, 0.77 58.3, 0 48.99 M16.33 65.32 C4.96 65.72, -1.33 61.24, 0 48.99 M0 48.99 C1.23 39.86, 1.29 28.07, 0 16.33 M0 48.99 C-0.39 40.18, -0.11 33.33, 0 16.33 M0 16.33 C-1.71 6.92, 6.37 0.69, 16.33 0 M0 16.33 C0.53 7.42, 3.38 -0.92, 16.33 0" fill="none" stroke="#1e1e1e" stroke-width="4"></path></g><g transform="translate(73.16015625 246.58984375) rotate(0 33.99609375 10)"><text direction="ltr" dominant-baseline="text-before-edge" fill="#1e1e1e" font-family="Virgil, Segoe UI Emoji" font-size="16px" style="white-space: pre;" text-anchor="middle" x="33.99609375" y="0">Segment 1</text></g><g stroke-linecap="round" transform="translate(161.66796875 224.08203125) rotate(0 40.9140625 32.66015625)"><path d="M16.33 0 C27 0.48, 38.75 1.83, 65.5 0 M16.33 0 C29.07 0.22, 39.03 0.58, 65.5 0 M65.5 0 C77.07 -0.79, 83.26 4.62, 81.83 16.33 M65.5 0 C78.12 -2.15, 81.76 7.37, 81.83 16.33 M81.83 16.33 C80.15 25.68, 82.84 34.67, 81.83 48.99 M81.83 16.33 C80.84 26.97, 82.01 36.59, 81.83 48.99 M81.83 48.99 C81.15 58.79, 76.9 63.99, 65.5 65.32 M81.83 48.99 C83.72 59.05, 76.14 67.41, 65.5 65.32 M65.5 65.32 C45.93 65.83, 27.25 66.54, 16.33 65.32 M65.5 65.32 C50.65 64.96, 35.5 64.77, 16.33 65.32 M16.33 65.32 C5.02 65.67, -1.16 61.07, 0 48.99 M16.33 65.32 C6.02 63.08, 0.36 60.93, 0 48.99 M0 48.99 C-1.1 36.52, 1.81 23.68, 0 16.33 M0 48.99 C-0.81 41.76, 0.51 33.39, 0 16.33 M0 16.33 C0.46 7.17, 3.65 -0.8, 16.33 0 M0 16.33 C1.75 5.83, 7.17 1.56, 16.33 0" fill="none" stroke="#1e1e1e" stroke-width="4"></path></g><g transform="translate(168.5859375 246.7421875) rotate(0 33.99609375 10)"><text direction="ltr" dominant-baseline="text-before-edge" fill="#1e1e1e" font-family="Virgil, Segoe UI Emoji" font-size="16px" style="white-space: pre;" text-anchor="middle" x="33.99609375" y="0">Segment 2</text></g><g stroke-linecap="round" transform="translate(252.76171875 225.140625) rotate(0 40.9140625 32.66015625)"><path d="M16.33 0 C30.37 1.46, 47.02 1.58, 65.5 0 M16.33 0 C32.72 -0.7, 49.13 -0.72, 65.5 0 M65.5 0 C77.9 -1.87, 81.77 7.11, 81.83 16.33 M65.5 0 C75.7 0.46, 81.76 3.44, 81.83 16.33 M81.83 16.33 C82.24 25.17, 80.49 36.23, 81.83 48.99 M81.83 16.33 C81.65 26.93, 82.24 37.96, 81.83 48.99 M81.83 48.99 C83.48 59.16, 76.17 67.14, 65.5 65.32 M81.83 48.99 C83.64 60.47, 77.37 64.24, 65.5 65.32 M65.5 65.32 C50.2 65.74, 35.52 66.26, 16.33 65.32 M65.5 65.32 C53.48 65.11, 41.31 65.53, 16.33 65.32 M16.33 65.32 C5.94 63.38, 0.31 60.79, 0 48.99 M16.33 65.32 C7.15 66.44, 0.35 58.79, 0 48.99 M0 48.99 C-1.44 39.3, 1.39 28.5, 0 16.33 M0 48.99 C0.08 37.65, -1.05 24.19, 0 16.33 M0 16.33 C1.52 5.78, 6.94 1.36, 16.33 0 M0 16.33 C-1.69 5.26, 5.41 -1.04, 16.33 0" fill="none" stroke="#1e1e1e" stroke-width="4"></path></g><g transform="translate(259.6796875 247.80078125) rotate(0 33.99609375 10)"><text direction="ltr" dominant-baseline="text-before-edge" fill="#1e1e1e" font-family="Virgil, Segoe UI Emoji" font-size="16px" style="white-space: pre;" text-anchor="middle" x="33.99609375" y="0">Segment 3</text></g><g stroke-linecap="round" transform="translate(33.185546875 343.419921875) rotate(0 176.076171875 111.966796875)"><path d="M32 0 C145.37 -3.36, 258.88 -1.61, 320.15 0 M32 0 C107.58 0.19, 182.01 1.53, 320.15 0 M320.15 0 C340.89 0.4, 352.09 8.92, 352.15 32 M320.15 0 C342.08 1.08, 352.94 10.97, 352.15 32 M352.15 32 C351.78 66.47, 350.58 98.36, 352.15 191.93 M352.15 32 C353.39 70.9, 352.46 111.43, 352.15 191.93 M352.15 191.93 C353.73 213.78, 342.34 222.99, 320.15 223.93 M352.15 191.93 C352.49 212.13, 342.64 224.14, 320.15 223.93 M320.15 223.93 C230.28 225.27, 141.03 224.37, 32 223.93 M320.15 223.93 C228.89 224.49, 137.38 225.57, 32 223.93 M32 223.93 C12.15 224.91, 0.3 212.32, 0 191.93 M32 223.93 C10.38 226.2, -1 211.98, 0 191.93 M0 191.93 C0.11 147.27, -0.68 101.22, 0 32 M0 191.93 C2.2 130.35, 2.19 69.11, 0 32 M0 32 C-1.47 10.5, 10.64 -0.91, 32 0 M0 32 C1.99 11.3, 12.91 0.16, 32 0" fill="none" stroke="#1e1e1e" stroke-width="1"></path></g><g transform="translate(106.263671875 364.201171875) rotate(0 56.76996612548828 12.5)"><text direction="ltr" dominant-baseline="text-before-edge" fill="#1e1e1e" font-family="Virgil, Segoe UI Emoji" font-size="20px" style="white-space: pre;" text-anchor="start" x="0" y="0">Shard 1 - B</text></g><g stroke-linecap="round" transform="translate(54.267578125 415.115234375) rotate(0 150.84765625 69.716796875)"><path d="M32 0 C83.08 0.51, 134.8 0.58, 269.7 0 M32 0 C80.79 -1.5, 130.05 -2.39, 269.7 0 M269.7 0 C291.55 0.94, 302.38 10.93, 301.7 32 M269.7 0 C288.95 -1.72, 300.09 11.62, 301.7 32 M301.7 32 C300.46 58.74, 300.23 86.09, 301.7 107.43 M301.7 32 C302.4 52.17, 302.04 71.34, 301.7 107.43 M301.7 107.43 C301.99 127.78, 292.03 139.61, 269.7 139.43 M301.7 107.43 C301.9 129.89, 291.83 138.05, 269.7 139.43 M269.7 139.43 C189.47 138.04, 109.67 139.43, 32 139.43 M269.7 139.43 C222.13 140.75, 173.44 139.95, 32 139.43 M32 139.43 C10.42 141.4, -0.87 127.65, 0 107.43 M32 139.43 C10.32 141.4, -1.97 130.46, 0 107.43 M0 107.43 C1.46 79.52, -1.06 56.71, 0 32 M0 107.43 C-1.3 83.45, -0.58 59.17, 0 32 M0 32 C1.73 11.22, 12.62 0.13, 32 0 M0 32 C-1.65 11.38, 9.49 0.04, 32 0" fill="none" stroke="#1e1e1e" stroke-width="1"></path></g><g transform="translate(151.064453125 427.595703125) rotate(0 51.35997772216797 10)"><text direction="ltr" dominant-baseline="text-before-edge" fill="#1e1e1e" font-family="Virgil, Segoe UI Emoji" font-size="16px" style="white-space: pre;" text-anchor="start" x="0" y="0">Lucene Index</text></g><g stroke-linecap="round" transform="translate(73.142578125 466.548828125) rotate(0 40.9140625 32.66015625)"><path d="M16.33 0 C32.72 -0.43, 54.53 -0.97, 65.5 0 M16.33 0 C32.32 0.9, 48.13 0.56, 65.5 0 M65.5 0 C74.58 -1.5, 80.43 6.27, 81.83 16.33 M65.5 0 C77.48 -0.43, 81.05 4.19, 81.83 16.33 M81.83 16.33 C80.89 26.76, 83.43 39.19, 81.83 48.99 M81.83 16.33 C82.12 26.47, 82.47 37.7, 81.83 48.99 M81.83 48.99 C82 60.85, 77.08 64.12, 65.5 65.32 M81.83 48.99 C82.72 58.06, 75.9 65.72, 65.5 65.32 M65.5 65.32 C51.65 65.75, 42.61 66.93, 16.33 65.32 M65.5 65.32 C48.23 66.07, 30.77 64.53, 16.33 65.32 M16.33 65.32 C5.14 67.03, -1.71 61.35, 0 48.99 M16.33 65.32 C6.51 66.11, 0.53 61.86, 0 48.99 M0 48.99 C0.47 43.63, 1.49 33.79, 0 16.33 M0 48.99 C0.87 39.73, 0.98 29.99, 0 16.33 M0 16.33 C-1.44 6.07, 4.42 0.04, 16.33 0 M0 16.33 C1.89 5.46, 7.46 -2.11, 16.33 0" fill="none" stroke="#1e1e1e" stroke-width="1"></path></g><g transform="translate(80.060546875 489.208984375) rotate(0 33.99609375 10)"><text direction="ltr" dominant-baseline="text-before-edge" fill="#1e1e1e" font-family="Virgil, Segoe UI Emoji" font-size="16px" style="white-space: pre;" text-anchor="middle" x="33.99609375" y="0">Segment 1</text></g><g stroke-linecap="round" transform="translate(168.568359375 466.701171875) rotate(0 40.9140625 32.66015625)"><path d="M16.33 0 C31.33 0.09, 43.79 0.66, 65.5 0 M16.33 0 C32.5 -0.81, 49.77 0.35, 65.5 0 M65.5 0 C77.34 -0.37, 81.15 4.35, 81.83 16.33 M65.5 0 C76.98 -1.53, 83.72 4.61, 81.83 16.33 M81.83 16.33 C82.64 26.64, 81.18 35.53, 81.83 48.99 M81.83 16.33 C82.08 25, 82.34 32.1, 81.83 48.99 M81.83 48.99 C82.6 58.3, 75.96 65.67, 65.5 65.32 M81.83 48.99 C80.5 61.24, 76.96 63.08, 65.5 65.32 M65.5 65.32 C50.96 65.99, 33.52 65.44, 16.33 65.32 M65.5 65.32 C45.76 65.9, 25.47 65.78, 16.33 65.32 M16.33 65.32 C6.37 66.01, 0.46 61.6, 0 48.99 M16.33 65.32 C3.38 64.4, 1.75 60.27, 0 48.99 M0 48.99 C-0.38 36.71, -1.13 26.23, 0 16.33 M0 48.99 C-1.04 38.6, -0.83 27.61, 0 16.33 M0 16.33 C1.65 5.45, 7.2 -1.84, 16.33 0 M0 16.33 C0.91 6, 5.67 1.94, 16.33 0" fill="none" stroke="#1e1e1e" stroke-width="1"></path></g><g transform="translate(175.486328125 489.361328125) rotate(0 33.99609375 10)"><text direction="ltr" dominant-baseline="text-before-edge" fill="#1e1e1e" font-family="Virgil, Segoe UI Emoji" font-size="16px" style="white-space: pre;" text-anchor="middle" x="33.99609375" y="0">Segment 2</text></g><g stroke-linecap="round" transform="translate(259.662109375 467.759765625) rotate(0 40.9140625 32.66015625)"><path d="M16.33 0 C31.88 0.56, 45.81 -1.94, 65.5 0 M16.33 0 C27.88 -0.39, 38.13 -0.75, 65.5 0 M65.5 0 C76.9 -1.33, 83.48 4.72, 81.83 16.33 M65.5 0 C76.14 2.09, 83.64 6.03, 81.83 16.33 M81.83 16.33 C80.69 28.54, 81.85 38.91, 81.83 48.99 M81.83 16.33 C82.33 26.93, 81.73 39.28, 81.83 48.99 M81.83 48.99 C80.67 61.07, 76.88 63.38, 65.5 65.32 M81.83 48.99 C82.19 60.93, 78.09 66.44, 65.5 65.32 M65.5 65.32 C51.97 64.39, 33.38 64.96, 16.33 65.32 M65.5 65.32 C47.01 66.02, 27.83 66.54, 16.33 65.32 M16.33 65.32 C3.65 64.52, 1.52 60.21, 0 48.99 M16.33 65.32 C7.17 66.88, -1.69 59.69, 0 48.99 M0 48.99 C0.7 41.19, 0.28 28.06, 0 16.33 M0 48.99 C0.99 38.18, 1.04 26.44, 0 16.33 M0 16.33 C0.79 5.92, 5.64 1.69, 16.33 0 M0 16.33 C-1.16 7.3, 4.74 1.83, 16.33 0" fill="none" stroke="#1e1e1e" stroke-width="1"></path></g><g transform="translate(266.580078125 490.419921875) rotate(0 33.99609375 10)"><text direction="ltr" dominant-baseline="text-before-edge" fill="#1e1e1e" font-family="Virgil, Segoe UI Emoji" font-size="16px" style="white-space: pre;" text-anchor="middle" x="33.99609375" y="0">Segment 3</text></g><g stroke-linecap="round" transform="translate(415.80599094177114 100.8720703125) rotate(0 176.076171875 111.966796875)"><path d="M32 0 C127.21 0.91, 225.29 2.68, 320.15 0 M32 0 C113.25 0.68, 194.73 0.91, 320.15 0 M320.15 0 C341.27 1.82, 353.73 11.18, 352.15 32 M320.15 0 C342.47 -1.08, 352.49 9.53, 352.15 32 M352.15 32 C353.27 88.71, 351.1 144.81, 352.15 191.93 M352.15 32 C351.24 67.97, 352.06 101.78, 352.15 191.93 M352.15 191.93 C352.46 214.18, 342.97 224.91, 320.15 223.93 M352.15 191.93 C352.5 212.18, 341.2 226.2, 320.15 223.93 M320.15 223.93 C247.51 222.32, 173.4 224.31, 32 223.93 M320.15 223.93 C223.16 225.5, 128.09 225.93, 32 223.93 M32 223.93 C12.17 225.29, -1.47 213.1, 0 191.93 M32 223.93 C10.63 222.89, 1.99 213.9, 0 191.93 M0 191.93 C0.52 127.33, -0.07 66.43, 0 32 M0 191.93 C-1.01 144.11, -1.31 96.65, 0 32 M0 32 C-1.01 12.28, 10.05 1.59, 32 0 M0 32 C0.49 11.59, 10.22 0.78, 32 0" fill="none" stroke="#1e1e1e" stroke-width="1"></path></g><g transform="translate(488.88411594177114 121.6533203125) rotate(0 60.46996307373047 12.5)"><text direction="ltr" dominant-baseline="text-before-edge" fill="#1e1e1e" font-family="Virgil, Segoe UI Emoji" font-size="20px" style="white-space: pre;" text-anchor="start" x="0" y="0">Shard 2 - A</text></g><g stroke-linecap="round" transform="translate(436.88802219177114 172.5673828125) rotate(0 150.84765625 69.716796875)"><path d="M32 0 C86.43 -1.51, 140.57 -0.51, 269.7 0 M32 0 C87.46 1.48, 143.75 0.93, 269.7 0 M269.7 0 C291.89 -0.94, 301.99 9.68, 301.7 32 M269.7 0 C292.18 0.21, 301.9 11.79, 301.7 32 M301.7 32 C299.67 56.83, 301.59 81.34, 301.7 107.43 M301.7 32 C302.04 59.57, 302.63 86.72, 301.7 107.43 M301.7 107.43 C302 127.82, 290.78 141.4, 269.7 139.43 M301.7 107.43 C300.7 127.48, 290.68 141.4, 269.7 139.43 M269.7 139.43 C219.29 140.74, 169.18 138.85, 32 139.43 M269.7 139.43 C208.55 140.34, 145.53 139.7, 32 139.43 M32 139.43 C10.64 138.53, 1.73 129.32, 0 107.43 M32 139.43 C12.91 139.59, -1.65 129.48, 0 107.43 M0 107.43 C0 90.43, -1.85 70.7, 0 32 M0 107.43 C-0.58 83.8, -0.38 59.35, 0 32 M0 32 C0.43 11.47, 10.27 0.68, 32 0 M0 32 C-1.74 12.12, 11.04 1.8, 32 0" fill="none" stroke="#1e1e1e" stroke-width="1"></path></g><g transform="translate(533.6848971917711 185.0478515625) rotate(0 51.35997772216797 10)"><text direction="ltr" dominant-baseline="text-before-edge" fill="#1e1e1e" font-family="Virgil, Segoe UI Emoji" font-size="16px" style="white-space: pre;" text-anchor="start" x="0" y="0">Lucene Index</text></g><g stroke-linecap="round" transform="translate(455.76302219177114 224.0009765625) rotate(0 40.9140625 32.66015625)"><path d="M16.33 0 C28.09 1.52, 41.78 -0.34, 65.5 0 M16.33 0 C35.99 -0.6, 54.93 -0.62, 65.5 0 M65.5 0 C77.39 0.18, 82 6.42, 81.83 16.33 M65.5 0 C77.18 -1.38, 82.72 3.63, 81.83 16.33 M81.83 16.33 C83.07 25.94, 79.94 34.86, 81.83 48.99 M81.83 16.33 C82.22 27.15, 81.95 39.89, 81.83 48.99 M81.83 48.99 C80.96 58.76, 76.09 67.03, 65.5 65.32 M81.83 48.99 C79.86 61.57, 77.45 66.11, 65.5 65.32 M65.5 65.32 C48.81 66.4, 34.06 66.38, 16.33 65.32 M65.5 65.32 C47.39 64.83, 30.19 65.56, 16.33 65.32 M16.33 65.32 C7.39 65.46, -1.44 60.5, 0 48.99 M16.33 65.32 C4.26 65.36, 1.89 59.89, 0 48.99 M0 48.99 C0.78 36.52, 1.99 22.65, 0 16.33 M0 48.99 C0.31 36.96, -0.1 24.46, 0 16.33 M0 16.33 C-1.52 6.7, 5.77 1.57, 16.33 0 M0 16.33 C-0.33 5.44, 5.66 -1.52, 16.33 0" fill="none" stroke="#1e1e1e" stroke-width="1"></path></g><g transform="translate(462.68099094177114 246.6611328125) rotate(0 33.99609375 10)"><text direction="ltr" dominant-baseline="text-before-edge" fill="#1e1e1e" font-family="Virgil, Segoe UI Emoji" font-size="16px" style="white-space: pre;" text-anchor="middle" x="33.99609375" y="0">Segment 1</text></g><g stroke-linecap="round" transform="translate(551.1888034417711 224.1533203125) rotate(0 40.9140625 32.66015625)"><path d="M16.33 0 C36.96 1.63, 54.45 0.91, 65.5 0 M16.33 0 C29.26 0.33, 41.28 0.73, 65.5 0 M65.5 0 C77.08 -1.2, 82.6 3.87, 81.83 16.33 M65.5 0 C75.9 0.4, 80.5 6.81, 81.83 16.33 M81.83 16.33 C82.42 28.43, 82.48 37.86, 81.83 48.99 M81.83 16.33 C81.35 24.03, 81.64 33.69, 81.83 48.99 M81.83 48.99 C80.12 61.35, 77.31 66.01, 65.5 65.32 M81.83 48.99 C82.36 61.86, 74.32 64.4, 65.5 65.32 M65.5 65.32 C48.36 64.22, 28.34 65.66, 16.33 65.32 M65.5 65.32 C53.96 65.52, 39.75 65.77, 16.33 65.32 M16.33 65.32 C4.42 65.36, 1.65 59.89, 0 48.99 M16.33 65.32 C7.46 63.21, 0.91 60.43, 0 48.99 M0 48.99 C1.34 38.26, 1.32 29.19, 0 16.33 M0 48.99 C-0.69 38.51, 0.23 27.55, 0 16.33 M0 16.33 C-0.29 5.44, 5.63 -1.32, 16.33 0 M0 16.33 C-0.16 5.27, 6.65 -2.02, 16.33 0" fill="none" stroke="#1e1e1e" stroke-width="1"></path></g><g transform="translate(558.1067721917711 246.8134765625) rotate(0 33.99609375 10)"><text direction="ltr" dominant-baseline="text-before-edge" fill="#1e1e1e" font-family="Virgil, Segoe UI Emoji" font-size="16px" style="white-space: pre;" text-anchor="middle" x="33.99609375" y="0">Segment 2</text></g><g stroke-linecap="round" transform="translate(642.2825534417711 225.2119140625) rotate(0 40.9140625 32.66015625)"><path d="M16.33 0 C34.02 0.08, 52.6 0.79, 65.5 0 M16.33 0 C31.87 -0.84, 47.1 -1.03, 65.5 0 M65.5 0 C75.96 0.35, 80.67 6.63, 81.83 16.33 M65.5 0 C76.96 -2.24, 82.19 6.49, 81.83 16.33 M81.83 16.33 C81.04 28.3, 83.95 39.91, 81.83 48.99 M81.83 16.33 C80.92 25.04, 82.24 32.61, 81.83 48.99 M81.83 48.99 C82.29 61.6, 74.59 64.52, 65.5 65.32 M81.83 48.99 C83.58 60.27, 78.11 66.88, 65.5 65.32 M65.5 65.32 C53.45 67.05, 43.77 67.26, 16.33 65.32 M65.5 65.32 C49.9 65.49, 36.16 65.48, 16.33 65.32 M16.33 65.32 C7.2 63.48, 0.79 60.36, 0 48.99 M16.33 65.32 C5.67 67.26, -1.16 61.73, 0 48.99 M0 48.99 C0.55 39.8, 0.42 29.88, 0 16.33 M0 48.99 C-0.2 37.13, 0.04 24.62, 0 16.33 M0 16.33 C-0.14 5.29, 6.49 -1.76, 16.33 0 M0 16.33 C-0.15 7.12, 5.35 -1.93, 16.33 0" fill="none" stroke="#1e1e1e" stroke-width="1"></path></g><g transform="translate(649.2005221917711 247.8720703125) rotate(0 33.99609375 10)"><text direction="ltr" dominant-baseline="text-before-edge" fill="#1e1e1e" font-family="Virgil, Segoe UI Emoji" font-size="16px" style="white-space: pre;" text-anchor="middle" x="33.99609375" y="0">Segment 3</text></g><g stroke-linecap="round" transform="translate(422.70638156677114 343.4912109375) rotate(0 176.076171875 111.966796875)"><path d="M32 0 C122.84 -0.96, 214.15 -0.57, 320.15 0 M32 0 C101.01 1.84, 169.9 2.16, 320.15 0 M320.15 0 C341.98 -1.95, 352.46 11.58, 352.15 32 M320.15 0 C343.19 1.12, 352.5 9.58, 352.15 32 M352.15 32 C352.61 77.69, 355.43 122.26, 352.15 191.93 M352.15 32 C353.12 92.61, 351.99 151.1, 352.15 191.93 M352.15 191.93 C353.68 213.6, 342.99 225.29, 320.15 223.93 M352.15 191.93 C350.46 213.08, 341.45 222.89, 320.15 223.93 M320.15 223.93 C208.82 224.97, 97.76 225.28, 32 223.93 M320.15 223.93 C233.82 223.25, 146.46 224.13, 32 223.93 M32 223.93 C10.86 225.62, -1.01 214.88, 0 191.93 M32 223.93 C9.96 225.76, 0.49 214.19, 0 191.93 M0 191.93 C0.72 147.41, 1.02 101.96, 0 32 M0 191.93 C-0.22 143.89, 0.37 95.13, 0 32 M0 32 C-0.13 12.12, 10.59 -1.68, 32 0 M0 32 C2.13 9.83, 11.85 0.88, 32 0" fill="none" stroke="#1e1e1e" stroke-width="1"></path></g><g transform="translate(495.78450656677114 364.2724609375) rotate(0 61.179962158203125 12.5)"><text direction="ltr" dominant-baseline="text-before-edge" fill="#1e1e1e" font-family="Virgil, Segoe UI Emoji" font-size="20px" style="white-space: pre;" text-anchor="start" x="0" y="0">Shard 2 - B</text></g><g stroke-linecap="round" transform="translate(443.78841281677114 415.1865234375) rotate(0 150.84765625 69.716796875)"><path d="M32 0 C104.38 -0.04, 177.46 -1.04, 269.7 0 M32 0 C107.64 -2, 183 -0.8, 269.7 0 M269.7 0 C292.51 0.97, 302 9.72, 301.7 32 M269.7 0 C290.74 2.26, 300.7 9.38, 301.7 32 M301.7 32 C303.81 54.43, 303.02 75.47, 301.7 107.43 M301.7 32 C301.78 61.3, 301.77 90.93, 301.7 107.43 M301.7 107.43 C300.23 128.6, 291 138.53, 269.7 139.43 M301.7 107.43 C303.69 129.4, 293.27 139.59, 269.7 139.43 M269.7 139.43 C215.47 139.79, 161.2 139.88, 32 139.43 M269.7 139.43 C220.3 140.62, 170.31 140.59, 32 139.43 M32 139.43 C10.05 141.03, 0.43 129.57, 0 107.43 M32 139.43 C10.22 140.22, -1.74 130.22, 0 107.43 M0 107.43 C-0.59 83.77, -1.91 59.59, 0 32 M0 107.43 C-0.46 86.1, -0.44 62.48, 0 32 M0 32 C1.85 9.94, 11.69 0.76, 32 0 M0 32 C1.29 12.48, 10.4 -0.86, 32 0" fill="none" stroke="#1e1e1e" stroke-width="1"></path></g><g transform="translate(540.5852878167711 427.6669921875) rotate(0 51.35997772216797 10)"><text direction="ltr" dominant-baseline="text-before-edge" fill="#1e1e1e" font-family="Virgil, Segoe UI Emoji" font-size="16px" style="white-space: pre;" text-anchor="start" x="0" y="0">Lucene Index</text></g><g stroke-linecap="round" transform="translate(462.66341281677114 466.6201171875) rotate(0 40.9140625 32.66015625)"><path d="M16.33 0 C33.33 -1.05, 50.83 0.6, 65.5 0 M16.33 0 C27.04 0.26, 36.42 -0.7, 65.5 0 M65.5 0 C76.14 1.97, 80.96 4.32, 81.83 16.33 M65.5 0 C76.04 1.96, 79.86 7.14, 81.83 16.33 M81.83 16.33 C83.66 25.84, 81.14 40.47, 81.83 48.99 M81.83 16.33 C81.34 26.6, 82.06 36.58, 81.83 48.99 M81.83 48.99 C83.56 60.43, 78.34 65.46, 65.5 65.32 M81.83 48.99 C80.18 60.59, 75.2 65.36, 65.5 65.32 M65.5 65.32 C44.86 66.54, 28.38 65.95, 16.33 65.32 M65.5 65.32 C46.3 66.51, 27.93 66.12, 16.33 65.32 M16.33 65.32 C5.05 66, -1.52 61.14, 0 48.99 M16.33 65.32 C5.82 67.12, -0.33 59.87, 0 48.99 M0 48.99 C0.06 39.93, -1.54 28.64, 0 16.33 M0 48.99 C0.94 36.45, 0.53 25.02, 0 16.33 M0 16.33 C1.12 7.02, 5.21 -0.75, 16.33 0 M0 16.33 C-2.1 3.65, 3.99 -0.83, 16.33 0" fill="none" stroke="#1e1e1e" stroke-width="1"></path></g><g transform="translate(469.58138156677114 489.2802734375) rotate(0 33.99609375 10)"><text direction="ltr" dominant-baseline="text-before-edge" fill="#1e1e1e" font-family="Virgil, Segoe UI Emoji" font-size="16px" style="white-space: pre;" text-anchor="middle" x="33.99609375" y="0">Segment 1</text></g><g stroke-linecap="round" transform="translate(558.0891940667711 466.7724609375) rotate(0 40.9140625 32.66015625)"><path d="M16.33 0 C26.29 0.19, 41.05 1.36, 65.5 0 M16.33 0 C33.35 1.22, 50.19 -0.33, 65.5 0 M65.5 0 C76.09 1.71, 80.12 6.92, 81.83 16.33 M65.5 0 C77.45 0.79, 82.36 7.42, 81.83 16.33 M81.83 16.33 C82.04 24.69, 83.06 28.59, 81.83 48.99 M81.83 16.33 C82.69 26.14, 82.8 35.46, 81.83 48.99 M81.83 48.99 C80.39 60.5, 75.36 65.36, 65.5 65.32 M81.83 48.99 C83.72 59.89, 78.4 63.21, 65.5 65.32 M65.5 65.32 C50.49 64.36, 33.73 64.75, 16.33 65.32 M65.5 65.32 C46.64 65.86, 27.41 66.15, 16.33 65.32 M16.33 65.32 C5.77 66.89, -0.29 59.87, 0 48.99 M16.33 65.32 C5.66 63.8, -0.16 59.7, 0 48.99 M0 48.99 C1.74 37.4, -1.4 27.83, 0 16.33 M0 48.99 C0.39 41.16, -0.28 31.39, 0 16.33 M0 16.33 C-1.83 3.88, 4.18 -0.72, 16.33 0 M0 16.33 C-1.5 7.47, 5.12 -2.15, 16.33 0" fill="none" stroke="#1e1e1e" stroke-width="1"></path></g><g transform="translate(565.0071628167711 489.4326171875) rotate(0 33.99609375 10)"><text direction="ltr" dominant-baseline="text-before-edge" fill="#1e1e1e" font-family="Virgil, Segoe UI Emoji" font-size="16px" style="white-space: pre;" text-anchor="middle" x="33.99609375" y="0">Segment 2</text></g><g stroke-linecap="round" transform="translate(649.1829440667711 467.8310546875) rotate(0 40.9140625 32.66015625)"><path d="M16.33 0 C32.82 -0.06, 46.41 -0.61, 65.5 0 M16.33 0 C35.77 1.13, 54.65 1.01, 65.5 0 M65.5 0 C77.31 0.69, 82.29 7.17, 81.83 16.33 M65.5 0 C74.32 -0.92, 83.58 5.83, 81.83 16.33 M81.83 16.33 C81.89 28.55, 81.14 42.56, 81.83 48.99 M81.83 16.33 C81.43 27.34, 81.63 37.75, 81.83 48.99 M81.83 48.99 C83.47 59.89, 78.14 63.48, 65.5 65.32 M81.83 48.99 C82.74 60.43, 76.61 67.26, 65.5 65.32 M65.5 65.32 C54.83 65.6, 41.78 64.78, 16.33 65.32 M65.5 65.32 C49.23 66.41, 32.5 65.63, 16.33 65.32 M16.33 65.32 C5.63 64, -0.14 59.73, 0 48.99 M16.33 65.32 C6.65 63.3, -0.15 61.55, 0 48.99 M0 48.99 C-0.45 40.35, 1.04 30.78, 0 16.33 M0 48.99 C-0.88 35.84, -0.59 23.88, 0 16.33 M0 16.33 C-1.3 7.2, 5.16 -1.87, 16.33 0 M0 16.33 C1.79 6.87, 5.06 1.07, 16.33 0" fill="none" stroke="#1e1e1e" stroke-width="1"></path></g><g transform="translate(656.1009128167711 490.4912109375) rotate(0 33.99609375 10)"><text direction="ltr" dominant-baseline="text-before-edge" fill="#1e1e1e" font-family="Virgil, Segoe UI Emoji" font-size="16px" style="white-space: pre;" text-anchor="middle" x="33.99609375" y="0">Segment 3</text></g></svg>