<svg height="535.47265625" version="1.1" viewbox="0 0 708.2461814880371 535.47265625" width="708.2461814880371" xmlns="http://www.w3.org/2000/svg">
<!-- svg-source:excalidraw -->
<!-- payload-type:application/vnd.excalidraw+json --><!-- payload-version:2 -->
<defs>
<style class="style-fonts">
</style>
</defs>
<rect fill="#ffffff" height="535.47265625" width="708.2461814880371" x="0" y="0"></rect><g stroke-linecap="round" transform="translate(151.7696189880371 90.3515625) rotate(0 119.025390625 50.513671875)"><path d="M25.26 0 C72.57 -1.67, 117.13 0.3, 212.79 0 M25.26 0 C75.09 0.95, 125.17 0.83, 212.79 0 M212.79 0 C228.72 -1.06, 239.02 8.82, 238.05 25.26 M212.79 0 C231.12 0.82, 239.42 8.7, 238.05 25.26 M238.05 25.26 C236.53 43.19, 237.12 63.38, 238.05 75.77 M238.05 25.26 C238.44 39.66, 238.77 52.07, 238.05 75.77 M238.05 75.77 C238.96 92.91, 228.73 99.55, 212.79 101.03 M238.05 75.77 C239.63 90.35, 231.55 100.98, 212.79 101.03 M212.79 101.03 C159.04 99.04, 103.43 99.63, 25.26 101.03 M212.79 101.03 C158.62 102.48, 103.35 103.2, 25.26 101.03 M25.26 101.03 C10.11 101.52, 0.49 92.56, 0 75.77 M25.26 101.03 C9.7 98.99, -1.21 90.94, 0 75.77 M0 75.77 C-0.76 56.61, 0.8 41.55, 0 25.26 M0 75.77 C0.02 62.48, 0.17 48.92, 0 25.26 M0 25.26 C1.67 9.55, 9.33 -0.17, 25.26 0 M0 25.26 C-1.49 9.65, 8.99 -0.48, 25.26 0" fill="none" stroke="#1e1e1e" stroke-width="2"></path></g><g transform="translate(196.6993064880371 115.6484375) rotate(0 88.7199478149414 30)"><text direction="ltr" dominant-baseline="text-before-edge" fill="#1e1e1e" font-family="Virgil, Segoe UI Emoji" font-size="16px" style="white-space: pre;" text-anchor="start" x="0" y="0">Doc 1</text><text direction="ltr" dominant-baseline="text-before-edge" fill="#1e1e1e" font-family="Virgil, Segoe UI Emoji" font-size="16px" style="white-space: pre;" text-anchor="start" x="0" y="20">- Title: Great Gatsby</text><text direction="ltr" dominant-baseline="text-before-edge" fill="#1e1e1e" font-family="Virgil, Segoe UI Emoji" font-size="16px" style="white-space: pre;" text-anchor="start" x="0" y="40">- Price: 10.99</text></g><g stroke-linecap="round" transform="translate(153.5332908630371 214.134765625) rotate(0 119.025390625 50.513671875)"><path d="M25.26 0 C70.42 -2.77, 116.27 -0.63, 212.79 0 M25.26 0 C86.61 -0.85, 149.35 -0.12, 212.79 0 M212.79 0 C230.93 0.71, 239.24 8.66, 238.05 25.26 M212.79 0 C231.61 0.1, 239.8 6.65, 238.05 25.26 M238.05 25.26 C237.24 37.19, 237.21 48.08, 238.05 75.77 M238.05 25.26 C238.78 44.02, 237.87 61.75, 238.05 75.77 M238.05 75.77 C239.43 90.65, 231.3 100.98, 212.79 101.03 M238.05 75.77 C237.76 90.59, 228.26 101.14, 212.79 101.03 M212.79 101.03 C164.46 100.63, 118.14 101.58, 25.26 101.03 M212.79 101.03 C159.36 102.43, 104.48 102.16, 25.26 101.03 M25.26 101.03 C9.54 99.26, -1.05 91.16, 0 75.77 M25.26 101.03 C9.64 102.31, -0.17 92.06, 0 75.77 M0 75.77 C-1.06 62.26, 1.58 51.32, 0 25.26 M0 75.77 C0.96 61.78, 0.59 46.58, 0 25.26 M0 25.26 C-1.29 9.49, 8.92 -0.42, 25.26 0 M0 25.26 C1.5 7.48, 7.66 1.39, 25.26 0" fill="none" stroke="#1e1e1e" stroke-width="2"></path></g><g transform="translate(198.4629783630371 239.431640625) rotate(0 50.687965393066406 30)"><text direction="ltr" dominant-baseline="text-before-edge" fill="#1e1e1e" font-family="Virgil, Segoe UI Emoji" font-size="16px" style="white-space: pre;" text-anchor="start" x="0" y="0">Doc 2</text><text direction="ltr" dominant-baseline="text-before-edge" fill="#1e1e1e" font-family="Virgil, Segoe UI Emoji" font-size="16px" style="white-space: pre;" text-anchor="start" x="0" y="20">- Title: 1984</text><text direction="ltr" dominant-baseline="text-before-edge" fill="#1e1e1e" font-family="Virgil, Segoe UI Emoji" font-size="16px" style="white-space: pre;" text-anchor="start" x="0" y="40">- Price: 9.99</text></g><g stroke-linecap="round" transform="translate(55.34774398803711 10) rotate(0 321.44921875 189.58007812499994)"><path d="M32 0 C148.99 0.14, 265.64 -0.57, 610.9 0 M32 0 C175.26 -0.32, 318.24 -0.41, 610.9 0 M610.9 0 C633.95 0.09, 644.42 9.12, 642.9 32 M610.9 0 C630.43 -1.09, 641.9 10.01, 642.9 32 M642.9 32 C643.2 138.83, 641.34 244.79, 642.9 347.16 M642.9 32 C642.38 130.53, 642.49 230.44, 642.9 347.16 M642.9 347.16 C642.64 366.73, 631.04 379.26, 610.9 379.16 M642.9 347.16 C641.9 366.61, 631.91 378.95, 610.9 379.16 M610.9 379.16 C441.16 379.87, 272.07 380.78, 32 379.16 M610.9 379.16 C423.21 378.75, 234.86 378.82, 32 379.16 M32 379.16 C11.73 380.28, -0.14 368.02, 0 347.16 M32 379.16 C9.15 380.4, 1.67 367.59, 0 347.16 M0 347.16 C-2.23 278.88, -2.79 212.52, 0 32 M0 347.16 C-1.47 235.24, -0.84 122.42, 0 32 M0 32 C1.3 9.85, 10.01 1.21, 32 0 M0 32 C1.89 11.65, 12.63 -0.54, 32 0" fill="none" stroke="#1e1e1e" stroke-width="2"></path></g><g transform="translate(91.09383773803711 34.671875) rotate(0 28.64997100830078 12.5)"><text direction="ltr" dominant-baseline="text-before-edge" fill="#1e1e1e" font-family="Virgil, Segoe UI Emoji" font-size="20px" style="white-space: pre;" text-anchor="start" x="0" y="0">Books</text></g><g stroke-linecap="round" transform="translate(433.7539939880371 51.72265625) rotate(0 106.37109375 149.974609375)"><path d="M132.22 4.97 C143.23 6.4, 154.51 15.97, 164.14 24.79 C173.76 33.61, 182.99 45.43, 189.96 57.91 C196.94 70.38, 202.28 84.52, 206 99.64 C209.72 114.77, 212.12 132.22, 212.27 148.64 C212.42 165.06, 210.54 182.69, 206.9 198.18 C203.26 213.67, 197.26 228.69, 190.4 241.58 C183.55 254.48, 175.42 266.57, 165.77 275.57 C156.12 284.57, 143.71 291.68, 132.48 295.59 C121.24 299.51, 109.87 300.26, 98.37 299.06 C86.87 297.85, 74.25 294.58, 63.49 288.37 C52.73 282.15, 42.22 272.82, 33.82 261.76 C25.42 250.7, 18.63 236.49, 13.1 222.02 C7.58 207.55, 2.63 191, 0.68 174.95 C-1.27 158.91, -0.44 141.7, 1.4 125.75 C3.23 109.8, 6.3 93.51, 11.7 79.25 C17.09 64.99, 25.07 51.15, 33.77 40.18 C42.47 29.2, 53.38 20.05, 63.89 13.41 C74.4 6.76, 84.82 1.44, 96.84 0.3 C108.87 -0.85, 129.08 4.88, 136.03 6.54 C142.97 8.21, 139.11 7.94, 138.52 10.3 M61.65 15.26 C70.93 6.65, 83.29 2.38, 94.43 0.57 C105.57 -1.24, 117.07 0.91, 128.51 4.4 C139.95 7.89, 153.28 12.94, 163.05 21.52 C172.82 30.1, 180.08 43.29, 187.13 55.87 C194.17 68.46, 201.13 82.2, 205.33 97.03 C209.53 111.87, 211.67 128.49, 212.31 144.89 C212.95 161.28, 212.43 179.81, 209.18 195.41 C205.94 211.01, 200.02 225.43, 192.84 238.52 C185.67 251.6, 175.63 264.68, 166.12 273.92 C156.62 283.15, 146.57 289.72, 135.82 293.92 C125.07 298.12, 113.26 299.79, 101.62 299.12 C89.98 298.45, 76.6 295.79, 65.97 289.9 C55.34 284.02, 46.24 274.69, 37.85 263.83 C29.45 252.98, 21.44 238.76, 15.6 224.77 C9.76 210.78, 5.37 195.6, 2.82 179.87 C0.27 164.15, -0.91 146.47, 0.3 130.42 C1.5 114.36, 5.01 98.12, 10.07 83.55 C15.13 68.97, 22.11 54.44, 30.67 42.96 C39.23 31.48, 56.18 19, 61.43 14.67 C66.69 10.33, 61.34 14.94, 62.21 16.96" fill="none" stroke="#1e1e1e" stroke-width="2"></path></g><g stroke-linecap="round" transform="translate(469.9961814880371 114.54296875) rotate(0 73.021484375 24.3828125)"><path d="M12.19 0 C43.52 0.71, 74.76 0.6, 133.85 0 M12.19 0 C50.94 -0.83, 87.39 -0.53, 133.85 0 M133.85 0 C141.11 -0.57, 146.77 3.46, 146.04 12.19 M133.85 0 C142.45 1.58, 147.27 2.62, 146.04 12.19 M146.04 12.19 C144.6 21.99, 144.12 30.71, 146.04 36.57 M146.04 12.19 C145.41 19.5, 145.58 25.89, 146.04 36.57 M146.04 36.57 C145.76 44.52, 141.84 50.43, 133.85 48.77 M146.04 36.57 C146.98 44.46, 141.31 50.18, 133.85 48.77 M133.85 48.77 C87.02 50.18, 38.52 48.01, 12.19 48.77 M133.85 48.77 C106.12 49.21, 77.87 49.99, 12.19 48.77 M12.19 48.77 C5.52 47.98, -1.69 46.55, 0 36.57 M12.19 48.77 C3.13 48.49, -0.6 43.53, 0 36.57 M0 36.57 C-0.31 25.93, 0.94 18.38, 0 12.19 M0 36.57 C-0.49 30.38, 0.66 23.4, 0 12.19 M0 12.19 C1.71 3.59, 5.16 1.28, 12.19 0 M0 12.19 C-1.06 5.38, 2.02 1.72, 12.19 0" fill="none" stroke="#1e1e1e" stroke-width="2"></path></g><g transform="translate(509.8653221130371 128.92578125) rotate(0 33.15234375 10)"><text direction="ltr" dominant-baseline="text-before-edge" fill="#1e1e1e" font-family="Virgil, Segoe UI Emoji" font-size="16px" style="white-space: pre;" text-anchor="middle" x="33.15234375" y="0">Title: Text</text></g><g stroke-linecap="round" transform="translate(468.2286033630371 201.40625) rotate(0 73.021484375 24.3828125)"><path d="M12.19 0 C56.83 0.99, 101.06 0.79, 133.85 0 M12.19 0 C38.88 0.29, 66.79 0.28, 133.85 0 M133.85 0 C142.39 1.37, 147.11 2.81, 146.04 12.19 M133.85 0 C143.03 0.34, 145.01 2.36, 146.04 12.19 M146.04 12.19 C145.76 20.93, 144.04 28.98, 146.04 36.57 M146.04 12.19 C145.8 19.54, 145.87 27.9, 146.04 36.57 M146.04 36.57 C146.86 44.49, 141.4 49.99, 133.85 48.77 M146.04 36.57 C147.99 45.27, 142.54 48.71, 133.85 48.77 M133.85 48.77 C89.11 49.19, 48.38 47.98, 12.19 48.77 M133.85 48.77 C100.98 49.03, 65.81 50.35, 12.19 48.77 M12.19 48.77 C3.25 48.53, -0.52 43.68, 0 36.57 M12.19 48.77 C5.98 50.06, 1.05 44.51, 0 36.57 M0 36.57 C-0.55 32.14, -0.95 24.44, 0 12.19 M0 36.57 C0.65 27.55, 0.35 19.63, 0 12.19 M0 12.19 C-0.93 5.21, 2.29 1.5, 12.19 0 M0 12.19 C-2.2 4.61, 4.95 0.37, 12.19 0" fill="none" stroke="#1e1e1e" stroke-width="2"></path></g><g transform="translate(504.1446189880371 215.7890625) rotate(0 37.10546875 10)"><text direction="ltr" dominant-baseline="text-before-edge" fill="#1e1e1e" font-family="Virgil, Segoe UI Emoji" font-size="16px" style="white-space: pre;" text-anchor="middle" x="37.10546875" y="0">Price: Float</text></g><g stroke-linecap="round"><g transform="translate(463.5196189880371 136.60546875) rotate(0 -41.212890625 4.71484375)"><path d="M0.91 -0.93 C-13.15 0.54, -69.39 7.19, -83.36 8.86" fill="none" stroke="#1e1e1e" stroke-dasharray="1.5 8" stroke-width="2.5"></path></g><g transform="translate(463.5196189880371 136.60546875) rotate(0 -41.212890625 4.71484375)"><path d="M-56.58 -4.65 C-68.45 -0.79, -78.19 5.12, -83.36 8.86" fill="none" stroke="#1e1e1e" stroke-dasharray="1.5 6" stroke-width="2.5"></path></g><g transform="translate(463.5196189880371 136.60546875) rotate(0 -41.212890625 4.71484375)"><path d="M-54.16 15.73 C-66.98 11.74, -77.65 9.79, -83.36 8.86" fill="none" stroke="#1e1e1e" stroke-dasharray="1.5 6" stroke-width="2.5"></path></g></g><mask></mask><g stroke-linecap="round"><g transform="translate(468.6641502380371 158.08203125) rotate(0 -79.85546875 51.587890625)"><path d="M-0.94 -0.57 C-27.8 16.72, -133.84 85.6, -160.23 102.83" fill="none" stroke="#1e1e1e" stroke-dasharray="1.5 8" stroke-width="2.5"></path></g><g transform="translate(468.6641502380371 158.08203125) rotate(0 -79.85546875 51.587890625)"><path d="M-142.2 78.86 C-150.11 86.87, -156.51 97.48, -160.23 102.83" fill="none" stroke="#1e1e1e" stroke-dasharray="1.5 6" stroke-width="2.5"></path></g><g transform="translate(468.6641502380371 158.08203125) rotate(0 -79.85546875 51.587890625)"><path d="M-131.01 96.06 C-142.99 97.51, -153.6 101.66, -160.23 102.83" fill="none" stroke="#1e1e1e" stroke-dasharray="1.5 6" stroke-width="2.5"></path></g></g><mask></mask><g stroke-linecap="round"><g transform="translate(463.2813377380371 227.0234375) rotate(0 -81.16015625 30.431640625)"><path d="M-0.52 -0.34 C-27.34 9.84, -134.96 50.17, -161.88 60.5" fill="none" stroke="#1e1e1e" stroke-dasharray="1.5 8" stroke-width="2.5"></path></g><g transform="translate(463.2813377380371 227.0234375) rotate(0 -81.16015625 30.431640625)"><path d="M-139.15 40.92 C-144.86 45.9, -149.93 49.92, -161.88 60.5" fill="none" stroke="#1e1e1e" stroke-dasharray="1.5 6" stroke-width="2.5"></path></g><g transform="translate(463.2813377380371 227.0234375) rotate(0 -81.16015625 30.431640625)"><path d="M-131.88 60.11 C-139.11 60.8, -145.79 60.57, -161.88 60.5" fill="none" stroke="#1e1e1e" stroke-dasharray="1.5 6" stroke-width="2.5"></path></g></g><mask></mask><g stroke-linecap="round"><g transform="translate(458.9649314880371 222.84765625) rotate(0 -73.615234375 -27.046875)"><path d="M0.44 -0.36 C-23.97 -9.18, -122.48 -44.19, -146.98 -53.27" fill="none" stroke="#1e1e1e" stroke-dasharray="1.5 8" stroke-width="2.5"></path></g><g transform="translate(458.9649314880371 222.84765625) rotate(0 -73.615234375 -27.046875)"><path d="M-116.98 -53.33 C-125.29 -52.79, -131.02 -52.12, -146.98 -53.27" fill="none" stroke="#1e1e1e" stroke-dasharray="1.5 6" stroke-width="2.5"></path></g><g transform="translate(458.9649314880371 222.84765625) rotate(0 -73.615234375 -27.046875)"><path d="M-123.97 -34.03 C-130.42 -38.47, -134.36 -42.76, -146.98 -53.27" fill="none" stroke="#1e1e1e" stroke-dasharray="1.5 6" stroke-width="2.5"></path></g></g><mask></mask><g stroke-linecap="round"><g transform="translate(89.9666480346632 469.97265625) rotate(0 93.32921985168696 -73.046875)"><path d="M0.25 0.82 C31.39 -23.59, 156.14 -122.39, 187.3 -146.84 M-1.08 0.21 C29.92 -24.03, 155.39 -121.58, 186.69 -145.7" fill="none" stroke="#1e1e1e" stroke-width="2"></path></g><g transform="translate(89.9666480346632 469.97265625) rotate(0 93.32921985168696 -73.046875)"><path d="M170.69 -120.33 C177.52 -127.83, 180.28 -136.53, 186.69 -145.7 M170.69 -120.33 C176.53 -129.18, 181.71 -136.21, 186.69 -145.7" fill="none" stroke="#1e1e1e" stroke-width="2"></path></g><g transform="translate(89.9666480346632 469.97265625) rotate(0 93.32921985168696 -73.046875)"><path d="M158.12 -136.55 C169.13 -138.62, 176.13 -141.86, 186.69 -145.7 M158.12 -136.55 C167.84 -140.2, 176.99 -142.12, 186.69 -145.7" fill="none" stroke="#1e1e1e" stroke-width="2"></path></g></g><mask></mask><g transform="translate(10 478.1328125) rotate(0 63.862342834472656 17.296875)"><text direction="ltr" dominant-baseline="text-before-edge" fill="#1e1e1e" font-family="Virgil, Segoe UI Emoji" font-size="27.675px" style="white-space: pre;" text-anchor="start" x="0" y="0">Document</text></g><g transform="translate(470.6446189880371 472.7890625) rotate(0 50.483970642089844 17.5)"><text direction="ltr" dominant-baseline="text-before-edge" fill="#1e1e1e" font-family="Virgil, Segoe UI Emoji" font-size="28px" style="white-space: pre;" text-anchor="start" x="0" y="0">Mapping</text></g><g stroke-linecap="round"><g transform="translate(535.1602439880371 466.92578125) rotate(0 0.37890625 -53.533203125)"><path d="M-0.54 -0.89 C-0.37 -18.96, 1.2 -90.54, 1.58 -108.24 M1.38 1.26 C1.42 -16.72, 1.05 -89.48, 1.07 -107.32" fill="none" stroke="#1e1e1e" stroke-width="2"></path></g><g transform="translate(535.1602439880371 466.92578125) rotate(0 0.37890625 -53.533203125)"><path d="M11.39 -79.16 C6.31 -87.56, 2.26 -97, 1.07 -107.32 M11.39 -79.16 C7.76 -87.58, 4.85 -96.84, 1.07 -107.32" fill="none" stroke="#1e1e1e" stroke-width="2"></path></g><g transform="translate(535.1602439880371 466.92578125) rotate(0 0.37890625 -53.533203125)"><path d="M-9.13 -79.11 C-7.12 -87.44, -4.08 -96.89, 1.07 -107.32 M-9.13 -79.11 C-6.65 -87.37, -3.45 -96.64, 1.07 -107.32" fill="none" stroke="#1e1e1e" stroke-width="2"></path></g></g><mask></mask><g transform="translate(270.3477439880371 490.47265625) rotate(0 37.65998077392578 17.5)"><text direction="ltr" dominant-baseline="text-before-edge" fill="#1e1e1e" font-family="Virgil, Segoe UI Emoji" font-size="28px" style="white-space: pre;" text-anchor="start" x="0" y="0">Index</text></g><g stroke-linecap="round"><g transform="translate(321.9493064880371 484.578125) rotate(0 6.001953125 -45.61328125)"><path d="M1 -0.03 C2.84 -15.21, 10.14 -77.09, 11.85 -92.28 M0.07 -1.09 C1.66 -16.06, 8.53 -76.51, 10.82 -91.3" fill="none" stroke="#1e1e1e" stroke-width="2"></path></g><g transform="translate(321.9493064880371 484.578125) rotate(0 6.001953125 -45.61328125)"><path d="M17.34 -62.02 C15.18 -73.02, 11.06 -84.76, 10.82 -91.3 M17.34 -62.02 C15.34 -71.09, 13.42 -79.11, 10.82 -91.3" fill="none" stroke="#1e1e1e" stroke-width="2"></path></g><g transform="translate(321.9493064880371 484.578125) rotate(0 6.001953125 -45.61328125)"><path d="M-3.01 -64.68 C2.31 -74.87, 5.69 -85.62, 10.82 -91.3 M-3.01 -64.68 C1.19 -72.77, 5.48 -79.98, 10.82 -91.3" fill="none" stroke="#1e1e1e" stroke-width="2"></path></g></g><mask></mask><g stroke-linecap="round"><g transform="translate(662.5723094940186 464.408203125) rotate(0 -48.10546875 -104.2890625)"><path d="M-0.15 -1.06 C-16.48 -35.8, -80.83 -173.77, -96.93 -208.52 M-1.69 1 C-17.71 -33.53, -78.58 -171.99, -94.59 -206.95" fill="none" stroke="#1e1e1e" stroke-width="2"></path></g><g transform="translate(662.5723094940186 464.408203125) rotate(0 -48.10546875 -104.2890625)"><path d="M-73.71 -185.41 C-83.47 -194.9, -89.62 -202.82, -94.59 -206.95 M-73.71 -185.41 C-78.3 -189.3, -82.37 -194.92, -94.59 -206.95" fill="none" stroke="#1e1e1e" stroke-width="2"></path></g><g transform="translate(662.5723094940186 464.408203125) rotate(0 -48.10546875 -104.2890625)"><path d="M-92.43 -177.03 C-95.01 -189.7, -93.98 -200.85, -94.59 -206.95 M-92.43 -177.03 C-92.93 -182.72, -92.92 -190.17, -94.59 -206.95" fill="none" stroke="#1e1e1e" stroke-width="2"></path></g></g><mask></mask><g transform="translate(631.5098094940186 473.056640625) rotate(0 30.407981872558594 17.5)"><text direction="ltr" dominant-baseline="text-before-edge" fill="#1e1e1e" font-family="Virgil, Segoe UI Emoji" font-size="28px" style="white-space: pre;" text-anchor="start" x="0" y="0">Field</text></g></svg>