<svg height="1096" version="1.1" viewbox="0 0 571 1096" width="571" xmlns="http://www.w3.org/2000/svg">
<!-- svg-source:excalidraw -->
<!-- payload-type:application/vnd.excalidraw+json --><!-- payload-version:2 -->
<defs>
<style class="style-fonts">
</style>
</defs>
<rect fill="#ffffff" height="1096" width="571" x="0" y="0"></rect><g stroke-linecap="round" transform="translate(10 10) rotate(0 75 32.5)"><path d="M0 0 C56.95 1.59, 109.03 1.08, 150 0 M0 0 C59.78 -0.3, 118.89 0.23, 150 0 M150 0 C151.21 20.26, 148.59 40.24, 150 65 M150 0 C149.35 14.72, 148.51 29.11, 150 65 M150 65 C110.35 62.68, 75.08 64.01, 0 65 M150 65 C107.18 66.63, 65.13 65.6, 0 65 M0 65 C-1.98 44.4, 0.27 23.41, 0 0 M0 65 C-0.2 48.33, -0.67 31.13, 0 0" fill="none" stroke="#1e1e1e" stroke-width="2"></path></g><g stroke-linecap="round" transform="translate(10 1021) rotate(0 75 32.5)"><path d="M0 0 C34.64 -0.32, 75 -0.03, 150 0 M0 0 C51.96 0.34, 103.8 -1.56, 150 0 M150 0 C149.84 20.27, 149.14 38.81, 150 65 M150 0 C149.02 23.83, 149.51 47.77, 150 65 M150 65 C111.68 63.1, 69.13 63.81, 0 65 M150 65 C95.42 65.46, 39.53 65.87, 0 65 M0 65 C0.9 41.09, -0.13 18.29, 0 0 M0 65 C-0.49 45.98, -0.96 26.07, 0 0" fill="none" stroke="#1e1e1e" stroke-width="2"></path></g><g stroke-linecap="round" transform="translate(211 10) rotate(0 75 32.5)"><path d="M0 0 C52.48 0.35, 102.04 0.6, 150 0 M0 0 C50.85 -2.35, 101.63 -0.44, 150 0 M150 0 C148.29 18.21, 151.2 39.75, 150 65 M150 0 C148.96 18.71, 149.08 38.1, 150 65 M150 65 C118.57 64.8, 89.1 64.59, 0 65 M150 65 C96.26 64.33, 42.79 63.36, 0 65 M0 65 C-0.86 45.85, -0.21 25.72, 0 0 M0 65 C-0.66 42.8, -0.2 22.07, 0 0" fill="none" stroke="#1e1e1e" stroke-width="2"></path></g><g stroke-linecap="round" transform="translate(211 1021) rotate(0 75 32.5)"><path d="M0 0 C47.7 0.38, 94.34 -0.18, 150 0 M0 0 C58.82 2.4, 117.46 1.1, 150 0 M150 0 C150.97 19.31, 149.48 37.08, 150 65 M150 0 C149.4 16.49, 148.79 35.17, 150 65 M150 65 C110.26 65.12, 68.96 66.63, 0 65 M150 65 C112.06 63.97, 72.88 65.09, 0 65 M0 65 C0.12 46.46, 0.85 27.11, 0 0 M0 65 C0.11 45.05, 1.21 26.09, 0 0" fill="none" stroke="#1e1e1e" stroke-width="2"></path></g><g stroke-linecap="round" transform="translate(411 10) rotate(0 75 32.5)"><path d="M0 0 C49.73 -0.37, 99.76 -0.39, 150 0 M0 0 C30.29 -1.77, 60.44 -2.12, 150 0 M150 0 C150.42 11.98, 149.73 26.79, 150 65 M150 0 C148.87 16.32, 149.54 30.53, 150 65 M150 65 C104.75 66.47, 56.27 65.33, 0 65 M150 65 C105.35 63.63, 60.51 63.11, 0 65 M0 65 C0.63 43.05, 0.15 21.21, 0 0 M0 65 C0.92 51.37, 0.19 36.79, 0 0" fill="none" stroke="#1e1e1e" stroke-width="2"></path></g><g stroke-linecap="round" transform="translate(411 1021) rotate(0 75 32.5)"><path d="M0 0 C52.67 0.03, 99.73 0.08, 150 0 M0 0 C58.88 -0.16, 116.9 1.3, 150 0 M150 0 C149.24 18.11, 148.7 37.34, 150 65 M150 0 C149.14 15.43, 149.5 31.85, 150 65 M150 65 C104.28 66.46, 60.24 67.37, 0 65 M150 65 C119.82 64.8, 90.19 65.13, 0 65 M0 65 C-0.08 43.9, -1.75 25.72, 0 0 M0 65 C-0.53 46.76, 0.29 27.92, 0 0" fill="none" stroke="#1e1e1e" stroke-width="2"></path></g><g stroke-linecap="round" transform="translate(261 529) rotate(0 125 19.5)"><path d="M0 0 C76.11 0, 156.95 -0.08, 250 0 M250 0 C248.25 11.66, 249.84 20.37, 250 39 M250 39 C197.16 37.6, 145.43 36.6, 0 39 M0 39 C0.29 24.84, 0.08 9.11, 0 0" fill="none" stroke="#1e1e1e" stroke-dasharray="8 10" stroke-width="2.5"></path></g><g stroke-linecap="round" transform="translate(211 712) rotate(0 75 19.5)"><path d="M0 0 C48.29 -0.04, 92.12 -0.19, 150 0 M150 0 C149.5 8.8, 147.8 16.94, 150 39 M150 39 C110.35 36.68, 75.08 38.01, 0 39 M0 39 C-0.06 29.06, 1.45 15.88, 0 0" fill="none" stroke="#1e1e1e" stroke-dasharray="8 10" stroke-width="2.5"></path></g><g stroke-linecap="round"><g transform="translate(85 75) rotate(0 0 473)"><path d="M0 0 C3.2 295.07, 2.92 589.46, 0 946 M0 0 C-0.67 352.11, -0.48 704.26, 0 946" fill="none" stroke="#999" stroke-width="1"></path></g></g><mask></mask><g stroke-linecap="round"><g transform="translate(286 75) rotate(0 0 473)"><path d="M0 0 C-2.03 289.72, -0.87 580.77, 0 946 M0 0 C-3.69 281.39, -3.64 563.06, 0 946" fill="none" stroke="#999" stroke-width="1"></path></g></g><mask></mask><g stroke-linecap="round"><g transform="translate(486 75) rotate(0 0 473)"><path d="M0 0 C-2.19 283.27, -2.79 565.93, 0 946 M0 0 C-1.78 248.49, -2.02 497.85, 0 946" fill="none" stroke="#999" stroke-width="1"></path></g></g><mask></mask><g mask="url(#mask-8N5-2agpxxKbhg59_7SYq)" stroke-linecap="round"><g transform="translate(86.5 117) rotate(0 97.5 0)"><path d="M-0.1 -0.03 C32.39 -0.25, 161.46 -0.32, 193.89 -0.44 M-1.61 -1.09 C31.33 -1.22, 163.51 0.65, 196.01 0.86" fill="none" stroke="#1e1e1e" stroke-width="2"></path></g><g transform="translate(86.5 117) rotate(0 97.5 0)"><path d="M167.72 10.82 C173.62 6.87, 178.95 5.73, 196.01 0.86 M167.72 10.82 C173.5 9.63, 180.84 6.14, 196.01 0.86" fill="none" stroke="#1e1e1e" stroke-width="2"></path></g><g transform="translate(86.5 117) rotate(0 97.5 0)"><path d="M167.93 -9.7 C173.94 -9.29, 179.22 -6.06, 196.01 0.86 M167.93 -9.7 C173.6 -6.05, 180.89 -4.69, 196.01 0.86" fill="none" stroke="#1e1e1e" stroke-width="2"></path></g></g><mask id="mask-8N5-2agpxxKbhg59_7SYq"><rect fill="#fff" height="217" width="381.5" x="0" y="0"></rect><rect fill="#000" height="20" opacity="1" width="88.421875" x="139.7890625" y="107"></rect></mask><g mask="url(#mask-gqT2_0qGep0VS1eJrEP4-)" stroke-linecap="round"><g transform="translate(284.5 215) rotate(0 -97.5 0)"><path d="M-1.11 -0.44 C-33.69 -0.57, -163.15 -0.72, -195.52 -0.77 M0.5 -1.72 C-32.26 -1.71, -163.94 0.04, -196.75 0.37" fill="none" stroke="#1e1e1e" stroke-width="2"></path></g><g transform="translate(284.5 215) rotate(0 -97.5 0)"><path d="M-168.68 -10.22 C-177.62 -8.26, -186.36 -4.93, -196.75 0.37 M-168.68 -10.22 C-175.76 -7.55, -182.14 -4.18, -196.75 0.37" fill="none" stroke="#1e1e1e" stroke-width="2"></path></g><g transform="translate(284.5 215) rotate(0 -97.5 0)"><path d="M-168.44 10.3 C-177.45 6.26, -186.25 3.61, -196.75 0.37 M-168.44 10.3 C-175.39 8.05, -181.82 6.5, -196.75 0.37" fill="none" stroke="#1e1e1e" stroke-width="2"></path></g></g><mask id="mask-gqT2_0qGep0VS1eJrEP4-"><rect fill="#fff" height="315" width="579.5" x="0" y="0"></rect><rect fill="#000" height="20" opacity="1" width="129.7265625" x="122.13671875" y="205"></rect></mask><g mask="url(#mask-yENvaQz_KcEhjyk3AP6nQ)" stroke-linecap="round"><g transform="translate(287.5 313) rotate(0 97 0)"><path d="M-0.52 -0.77 C31.93 -0.81, 161.39 -1.05, 193.62 -0.72 M1.4 1.44 C33.76 1.58, 160.18 0.76, 192.48 0.43" fill="none" stroke="#1e1e1e" stroke-width="2"></path></g><g transform="translate(287.5 313) rotate(0 97 0)"><path d="M164.37 10.92 C168.95 8.24, 174.85 4.85, 192.48 0.43 M164.37 10.92 C175.69 7.47, 186.79 3.2, 192.48 0.43" fill="none" stroke="#1e1e1e" stroke-width="2"></path></g><g transform="translate(287.5 313) rotate(0 97 0)"><path d="M164.21 -9.6 C168.75 -8.03, 174.68 -7.17, 192.48 0.43 M164.21 -9.6 C175.54 -4.88, 186.7 -0.97, 192.48 0.43" fill="none" stroke="#1e1e1e" stroke-width="2"></path></g></g><mask id="mask-yENvaQz_KcEhjyk3AP6nQ"><rect fill="#fff" height="413" width="581.5" x="0" y="0"></rect><rect fill="#000" height="20" opacity="1" width="69.75" x="349.625" y="303"></rect></mask><g mask="url(#mask-NanY2z7gY7Matx9mCz0ld)" stroke-linecap="round"><g transform="translate(484.5 365) rotate(0 -97 0)"><path d="M-0.38 -0.72 C-32.81 -0.4, -162.79 1.09, -195.11 1.18" fill="none" stroke="#1e1e1e" stroke-dasharray="1.5 8" stroke-width="2.5"></path></g><g transform="translate(484.5 365) rotate(0 -97 0)"><path d="M-167 -9.3 C-175.48 -8.55, -179.51 -4.53, -195.11 1.18" fill="none" stroke="#1e1e1e" stroke-dasharray="1.5 6" stroke-width="2.5"></path></g><g transform="translate(484.5 365) rotate(0 -97 0)"><path d="M-166.84 11.22 C-175.23 6.71, -179.3 5.47, -195.11 1.18" fill="none" stroke="#1e1e1e" stroke-dasharray="1.5 6" stroke-width="2.5"></path></g></g><mask id="mask-NanY2z7gY7Matx9mCz0ld"><rect fill="#fff" height="465" width="778.5" x="0" y="0"></rect><rect fill="#000" height="20" opacity="1" width="77.75" x="348.625" y="355"></rect></mask><g mask="url(#mask-G9RY895KCajwl1w2iIifk)" stroke-linecap="round"><g transform="translate(286.5 416.5) rotate(0 33.42582811717165 10.91041299875937)"><path d="M-1.11 1.18 C8.99 -0.31, 49.9 -14.7, 60.19 -9.68 C70.48 -4.65, 70.48 26.09, 60.61 31.33 C50.75 36.56, 10.78 23.52, 0.99 21.71 M0.51 0.76 C10.45 -0.48, 49.18 -13.01, 59.08 -8.23 C68.98 -3.45, 69.55 24.79, 59.91 29.42 C50.27 34.04, 11.07 21, 1.23 19.53" fill="none" stroke="#1e1e1e" stroke-width="2"></path></g><g transform="translate(286.5 416.5) rotate(0 33.42582811717165 10.91041299875937)"><path d="M31.04 16.15 C24.98 16.27, 14.71 17.88, 1.23 19.53 M31.04 16.15 C20.79 17.15, 9.22 18.8, 1.23 19.53" fill="none" stroke="#1e1e1e" stroke-width="2"></path></g><g transform="translate(286.5 416.5) rotate(0 33.42582811717165 10.91041299875937)"><path d="M26.24 36.11 C21.59 30.9, 12.61 27.16, 1.23 19.53 M26.24 36.11 C17.76 29.71, 7.97 24.01, 1.23 19.53" fill="none" stroke="#1e1e1e" stroke-width="2"></path></g></g><mask id="mask-G9RY895KCajwl1w2iIifk"><rect fill="#fff" height="556.5" width="447" x="0" y="0"></rect><rect fill="#000" height="20" opacity="1" width="74.1796875" x="317.37041329230806" y="417.7340344940667"></rect></mask><g mask="url(#mask-NpioxjRAmNli8jVxLoMUH)" stroke-linecap="round"><g transform="translate(284.5 499) rotate(0 -97.5 0)"><path d="M-0.31 -0.18 C-32.61 -0.23, -162.44 0.68, -194.89 0.83 M1.73 -1.31 C-30.62 -1.2, -162.85 -0.87, -195.77 -0.86" fill="none" stroke="#1e1e1e" stroke-width="2"></path></g><g transform="translate(284.5 499) rotate(0 -97.5 0)"><path d="M-167.6 -11.17 C-173.64 -8.91, -177.82 -6.98, -195.77 -0.86 M-167.6 -11.17 C-177.48 -7.61, -187.15 -4.88, -195.77 -0.86" fill="none" stroke="#1e1e1e" stroke-width="2"></path></g><g transform="translate(284.5 499) rotate(0 -97.5 0)"><path d="M-167.57 9.35 C-173.81 7.35, -178 5.02, -195.77 -0.86 M-167.57 9.35 C-177.61 5.54, -187.29 0.89, -195.77 -0.86" fill="none" stroke="#1e1e1e" stroke-width="2"></path></g></g><mask id="mask-NpioxjRAmNli8jVxLoMUH"><rect fill="#fff" height="599" width="579.5" x="0" y="0"></rect><rect fill="#000" height="20" opacity="1" width="77.75" x="148.125" y="489"></rect></mask><g mask="url(#mask-AsSqhX8Iksk-zpEPuas9R)" stroke-linecap="round"><g transform="translate(484.5 610) rotate(0 -97 0)"><path d="M0.11 0.83 C-32.17 0.97, -161.81 0.94, -194.01 0.71 M-1.28 0.21 C-33.7 0.03, -162.95 -1.09, -194.97 -1.03" fill="none" stroke="#1e1e1e" stroke-width="2"></path></g><g transform="translate(484.5 610) rotate(0 -97 0)"><path d="M-166.73 -11.18 C-173.11 -8.39, -181.03 -4.1, -194.97 -1.03 M-166.73 -11.18 C-173.35 -9.57, -181.22 -5.84, -194.97 -1.03" fill="none" stroke="#1e1e1e" stroke-width="2"></path></g><g transform="translate(484.5 610) rotate(0 -97 0)"><path d="M-166.82 9.35 C-173.14 6.51, -181.04 5.17, -194.97 -1.03 M-166.82 9.35 C-173.45 5.67, -181.3 4.13, -194.97 -1.03" fill="none" stroke="#1e1e1e" stroke-width="2"></path></g></g><mask id="mask-AsSqhX8Iksk-zpEPuas9R"><rect fill="#fff" height="710" width="778.5" x="0" y="0"></rect><rect fill="#000" height="20" opacity="1" width="108.8359375" x="333.08203125" y="600"></rect></mask><g mask="url(#mask-thUIK_p8sESUzoRFf6erP)" stroke-linecap="round"><g transform="translate(286.5 661.5) rotate(0 33.55394493918493 10.835985568438218)"><path d="M-0.01 0.71 C10.2 -1.09, 51.27 -14.97, 61.39 -10.01 C71.51 -5.05, 70.65 25.5, 60.71 30.47 C50.77 35.44, 11.7 21.35, 1.75 19.8 M-1.48 0.04 C8.65 -1.68, 50.66 -14.04, 60.91 -8.75 C71.17 -3.46, 69.81 26.94, 60.05 31.78 C50.3 36.61, 12.48 21.97, 2.39 20.28" fill="none" stroke="#1e1e1e" stroke-width="2"></path></g><g transform="translate(286.5 661.5) rotate(0 33.55394493918493 10.835985568438218)"><path d="M32.3 17.86 C24.24 20.1, 12.94 19.7, 2.39 20.28 M32.3 17.86 C23.42 18.41, 14.34 18.61, 2.39 20.28" fill="none" stroke="#1e1e1e" stroke-width="2"></path></g><g transform="translate(286.5 661.5) rotate(0 33.55394493918493 10.835985568438218)"><path d="M26.85 37.65 C20.35 33.76, 10.73 27.24, 2.39 20.28 M26.85 37.65 C19.47 32.36, 12.01 26.67, 2.39 20.28" fill="none" stroke="#1e1e1e" stroke-width="2"></path></g></g><mask id="mask-thUIK_p8sESUzoRFf6erP"><rect fill="#fff" height="801.5" width="447" x="0" y="0"></rect><rect fill="#000" height="20" opacity="1" width="147.4921875" x="281.31053725303457" y="662.3106845412958"></rect></mask><g mask="url(#mask-8nyVakeNFh35MlfymswA2)" stroke-linecap="round"><g transform="translate(286.5 792.5) rotate(0 34.19506726803962 10.295472166790375)"><path d="M0.89 -0.51 C11.01 -2.22, 50.65 -14.5, 60.71 -9.53 C70.77 -4.56, 71.2 24.19, 61.25 29.3 C51.3 34.41, 11.09 22.61, 1.01 21.15 M-0.1 1.83 C9.88 0.26, 49.71 -12.7, 59.87 -8 C70.03 -3.31, 70.65 24.93, 60.88 29.99 C51.11 35.05, 11.55 23.89, 1.27 22.34" fill="none" stroke="#1e1e1e" stroke-width="2"></path></g><g transform="translate(286.5 792.5) rotate(0 34.19506726803962 10.295472166790375)"><path d="M30.97 18.13 C21.26 19.96, 13.19 22.12, 1.27 22.34 M30.97 18.13 C24.86 18.62, 19.3 19.79, 1.27 22.34" fill="none" stroke="#1e1e1e" stroke-width="2"></path></g><g transform="translate(286.5 792.5) rotate(0 34.19506726803962 10.295472166790375)"><path d="M26.73 38.21 C18.16 34, 11.36 30.16, 1.27 22.34 M26.73 38.21 C21.46 34.68, 16.75 31.83, 1.27 22.34" fill="none" stroke="#1e1e1e" stroke-width="2"></path></g></g><mask id="mask-8nyVakeNFh35MlfymswA2"><rect fill="#fff" height="932.5" width="447" x="0" y="0"></rect><rect fill="#000" height="20" opacity="1" width="116.3984375" x="296.15678378915777" y="793.719110295332"></rect></mask><g mask="url(#mask-HV86Ql67rwIt3bNk7Df0P)" stroke-linecap="round"><g transform="translate(286.5 920.5) rotate(0 33.64938909987279 10.692841769495715)"><path d="M0.21 -0.03 C10.27 -1.72, 51.2 -15.81, 61.25 -10.7 C71.3 -5.59, 70.59 25.45, 60.51 30.65 C50.44 35.86, 10.68 22.15, 0.8 20.53 M-1.14 -1.09 C8.75 -2.64, 50.55 -15.31, 60.7 -9.79 C70.85 -4.27, 69.72 26.85, 59.76 32.05 C49.8 37.25, 10.91 23.19, 0.94 21.39" fill="none" stroke="#1e1e1e" stroke-width="2"></path></g><g transform="translate(286.5 920.5) rotate(0 33.64938909987279 10.692841769495715)"><path d="M30.83 18.77 C19.58 21.06, 6.44 20.81, 0.94 21.39 M30.83 18.77 C21.69 19.41, 12.07 20.59, 0.94 21.39" fill="none" stroke="#1e1e1e" stroke-width="2"></path></g><g transform="translate(286.5 920.5) rotate(0 33.64938909987279 10.692841769495715)"><path d="M25.52 38.6 C16.34 33.45, 5.19 25.78, 0.94 21.39 M25.52 38.6 C18.07 33.05, 10.11 28.03, 0.94 21.39" fill="none" stroke="#1e1e1e" stroke-width="2"></path></g></g><mask id="mask-HV86Ql67rwIt3bNk7Df0P"><rect fill="#fff" height="1060.5" width="447" x="0" y="0"></rect><rect fill="#000" height="40" opacity="1" width="174.1640625" x="267.83159758143347" y="911.0857188281216"></rect></mask><g stroke-linecap="round"><g transform="translate(74 137) rotate(0 211.5 0)"><path d="M0 0 C133.18 -1.39, 268.61 -1.58, 423 0" fill="none" stroke="#adb5bd" stroke-dasharray="1.5 8" stroke-width="2.5"></path></g></g><mask></mask><g stroke-linecap="round"><g transform="translate(497 137) rotate(0 0 191)"><path d="M0 0 C-2.13 138.33, -2.74 277.32, 0 382" fill="none" stroke="#adb5bd" stroke-dasharray="1.5 8" stroke-width="2.5"></path></g></g><mask></mask><g stroke-linecap="round"><g transform="translate(74 519) rotate(0 211.5 0)"><path d="M0 0 C127.01 0.6, 254.78 0.31, 423 0" fill="none" stroke="#adb5bd" stroke-dasharray="1.5 8" stroke-width="2.5"></path></g></g><mask></mask><g stroke-linecap="round"><g transform="translate(74 137) rotate(0 0 191)"><path d="M0 0 C-0.97 108.15, -0.54 215.82, 0 382" fill="none" stroke="#adb5bd" stroke-dasharray="1.5 8" stroke-width="2.5"></path></g></g><mask></mask><g stroke-linecap="round"><g transform="translate(74 240) rotate(0 211.5 0)"><path d="M0 0 C136.3 -0.42, 272.03 -0.92, 423 0" fill="none" stroke="#adb5bd" stroke-dasharray="1.5 8" stroke-width="2.5"></path></g></g><mask></mask><g stroke-linecap="round"><g transform="translate(173.5 843) rotate(0 113.5 0)"><path d="M0 0 C66.8 -0.68, 132.08 0.1, 227 0" fill="none" stroke="#adb5bd" stroke-dasharray="1.5 8" stroke-width="2.5"></path></g></g><mask></mask><g stroke-linecap="round"><g transform="translate(400.5 843) rotate(0 0 79)"><path d="M0 0 C-1.47 37.98, -0.09 79.25, 0 158" fill="none" stroke="#adb5bd" stroke-dasharray="1.5 8" stroke-width="2.5"></path></g></g><mask></mask><g stroke-linecap="round"><g transform="translate(173.5 1001) rotate(0 113.5 0)"><path d="M0 0 C45.28 2.01, 92.26 0.77, 227 0" fill="none" stroke="#adb5bd" stroke-dasharray="1.5 8" stroke-width="2.5"></path></g></g><mask></mask><g stroke-linecap="round"><g transform="translate(173.5 843) rotate(0 0 79)"><path d="M0 0 C1.5 38.56, 1.24 79.07, 0 158" fill="none" stroke="#adb5bd" stroke-dasharray="1.5 8" stroke-width="2.5"></path></g></g><mask></mask><g transform="translate(254.984375 145) rotate(0 62.703945964574814 10)"><text direction="ltr" dominant-baseline="text-before-edge" fill="#1e1e1e" font-family="Segoe UI Emoji" font-size="16px" style="white-space: pre;" text-anchor="start" x="0" y="0">[Data in Cache]</text></g><g transform="translate(215 248) rotate(0 80.18393787741661 10)"><text direction="ltr" dominant-baseline="text-before-edge" fill="#1e1e1e" font-family="Segoe UI Emoji" font-size="16px" style="white-space: pre;" text-anchor="start" x="0" y="0">[Data Not in Cache]</text></g><g transform="translate(268.7421875 851) rotate(0 46.33595356345177 10)"><text direction="ltr" dominant-baseline="text-before-edge" fill="#1e1e1e" font-family="Segoe UI Emoji" font-size="16px" style="white-space: pre;" text-anchor="start" x="0" y="0">[Cache Full]</text></g><g stroke-linecap="round" transform="translate(74 137) rotate(0 16 15)"><path d="M-0.22 -0.79 L32.38 -0.42 L31.48 30.96 L-0.07 30.67" fill="#e9ecef" stroke="none" stroke-width="0"></path><path d="M0 0 C6.3 0.21, 15.04 0.83, 32 0 M0 0 C12.85 -0.09, 25.03 0.3, 32 0 M32 0 C31.64 8.35, 32.08 16.23, 32 30 M32 0 C31.96 8.31, 32.2 16.6, 32 30 M32 30 C26.11 30.04, 18.87 30.51, 0 30 M32 30 C21.66 30.32, 12.33 30.17, 0 30 M0 30 C0.35 20.32, -0.43 9.73, 0 0 M0 30 C0.44 19.57, -0.17 9.68, 0 0" fill="none" stroke="#adb5bd" stroke-width="2"></path></g><g stroke-linecap="round" transform="translate(173.5 843) rotate(0 16 15)"><path d="M0.38 -0.42 L31.48 0.96 L31.93 30.67 L0.42 30.97" fill="#e9ecef" stroke="none" stroke-width="0"></path><path d="M0 0 C12.72 0.9, 25.17 0.64, 32 0 M0 0 C9.31 0.32, 18.59 0.28, 32 0 M32 0 C31.94 10.25, 31.62 22.68, 32 30 M32 0 C32.01 11.38, 31.48 21.45, 32 30 M32 30 C23.88 30.59, 15.66 29.3, 0 30 M32 30 C19.79 30.1, 7.63 29.66, 0 30 M0 30 C-0.58 20.47, 0.36 12.09, 0 0 M0 30 C-0.3 20.21, -0.25 9.93, 0 0" fill="none" stroke="#adb5bd" stroke-width="2"></path></g><g transform="translate(47.23046875 32.5) rotate(0 37.76953125 10)"><text direction="ltr" dominant-baseline="text-before-edge" fill="#000" font-family="Segoe UI Emoji" font-size="16px" style="white-space: pre;" text-anchor="middle" x="37.76953125" y="0">Application</text></g><g transform="translate(47.23046875 1043.5) rotate(0 37.76953125 10)"><text direction="ltr" dominant-baseline="text-before-edge" fill="#000" font-family="Segoe UI Emoji" font-size="16px" style="white-space: pre;" text-anchor="middle" x="37.76953125" y="0">Application</text></g><g transform="translate(246.6796875 32.5) rotate(0 39.3203125 10)"><text direction="ltr" dominant-baseline="text-before-edge" fill="#000" font-family="Segoe UI Emoji" font-size="16px" style="white-space: pre;" text-anchor="middle" x="39.3203125" y="0">DAX Cache</text></g><g transform="translate(246.6796875 1043.5) rotate(0 39.3203125 10)"><text direction="ltr" dominant-baseline="text-before-edge" fill="#000" font-family="Segoe UI Emoji" font-size="16px" style="white-space: pre;" text-anchor="middle" x="39.3203125" y="0">DAX Cache</text></g><g transform="translate(447.3359375 32.5) rotate(0 38.6640625 10)"><text direction="ltr" dominant-baseline="text-before-edge" fill="#000" font-family="Segoe UI Emoji" font-size="16px" style="white-space: pre;" text-anchor="middle" x="38.6640625" y="0">DynamoDB</text></g><g transform="translate(447.3359375 1043.5) rotate(0 38.6640625 10)"><text direction="ltr" dominant-baseline="text-before-edge" fill="#000" font-family="Segoe UI Emoji" font-size="16px" style="white-space: pre;" text-anchor="middle" x="38.6640625" y="0">DynamoDB</text></g><g transform="translate(325.35546875 538.5) rotate(0 60.64453125 10)"><text direction="ltr" dominant-baseline="text-before-edge" fill="#000" font-family="Segoe UI Emoji" font-size="16px" style="white-space: pre;" text-anchor="middle" x="60.64453125" y="0">Cache Invalidation</text></g><g transform="translate(230.4609375 721.5) rotate(0 55.5390625 10)"><text direction="ltr" dominant-baseline="text-before-edge" fill="#000" font-family="Segoe UI Emoji" font-size="16px" style="white-space: pre;" text-anchor="middle" x="55.5390625" y="0">Cache Size Limit</text></g><g transform="translate(139.7890625 107) rotate(0 43.91504008503628 9.882675534524836)"><text direction="ltr" dominant-baseline="text-before-edge" fill="#1e1e1e" font-family="Segoe UI Emoji" font-size="16px" style="white-space: pre;" text-anchor="middle" x="44.2109375" y="0">Read Request</text></g><g transform="translate(122.13671875 205) rotate(0 64.24046591224146 9.320831058900808)"><text direction="ltr" dominant-baseline="text-before-edge" fill="#1e1e1e" font-family="Segoe UI Emoji" font-size="16px" style="white-space: pre;" text-anchor="middle" x="64.86328125" y="0">Return Cached Data</text></g><g transform="translate(349.625 303) rotate(0 34.424453167989896 10.281997609847224)"><text direction="ltr" dominant-baseline="text-before-edge" fill="#1e1e1e" font-family="Segoe UI Emoji" font-size="16px" style="white-space: pre;" text-anchor="middle" x="34.875" y="0">Fetch Data</text></g><g transform="translate(348.625 355) rotate(0 38.13214878328148 10.228917778655898)"><text direction="ltr" dominant-baseline="text-before-edge" fill="#1e1e1e" font-family="Segoe UI Emoji" font-size="16px" style="white-space: pre;" text-anchor="middle" x="38.875" y="0">Return Data</text></g><g transform="translate(317.37041329230806 417.73403449406663) rotate(0 2.5554148248635897 9.676378504692735)"><text direction="ltr" dominant-baseline="text-before-edge" fill="#1e1e1e" font-family="Segoe UI Emoji" font-size="16px" style="white-space: pre;" text-anchor="middle" x="37.08984375" y="0">Cache Data</text></g><g transform="translate(148.125 489) rotate(0 39.352011082787044 9.756482317103064)"><text direction="ltr" dominant-baseline="text-before-edge" fill="#1e1e1e" font-family="Segoe UI Emoji" font-size="16px" style="white-space: pre;" text-anchor="middle" x="38.875" y="0">Return Data</text></g><g transform="translate(333.08203125 600) rotate(0 53.992785835908705 9.9389986039684)"><text direction="ltr" dominant-baseline="text-before-edge" fill="#1e1e1e" font-family="Segoe UI Emoji" font-size="16px" style="white-space: pre;" text-anchor="middle" x="54.41796875" y="0">Database Update</text></g><g transform="translate(281.31053725303457 662.3106845412957) rotate(0 38.74340768615036 10.025301027142518)"><text direction="ltr" dominant-baseline="text-before-edge" fill="#1e1e1e" font-family="Segoe UI Emoji" font-size="16px" style="white-space: pre;" text-anchor="middle" x="73.74609375" y="0">Invalidate Cache Entry</text></g><g transform="translate(296.15678378915777 793.7191102953321) rotate(0 24.53828347888185 9.076361871458232)"><text direction="ltr" dominant-baseline="text-before-edge" fill="#1e1e1e" font-family="Segoe UI Emoji" font-size="16px" style="white-space: pre;" text-anchor="middle" x="58.19921875" y="0">Check Cache Size</text></g><g transform="translate(267.83159758143347 911.0857188281216) rotate(0 52.31779151843932 20.107122941374143)"><text direction="ltr" dominant-baseline="text-before-edge" fill="#1e1e1e" font-family="Segoe UI Emoji" font-size="16px" style="white-space: pre;" text-anchor="middle" x="87.08203125" y="0">Evict Least Recently Used </text><text direction="ltr" dominant-baseline="text-before-edge" fill="#1e1e1e" font-family="Segoe UI Emoji" font-size="16px" style="white-space: pre;" text-anchor="middle" x="87.08203125" y="20">Items</text></g><g transform="translate(82.00390625 142) rotate(0 7.99609375 10)"><text direction="ltr" dominant-baseline="text-before-edge" fill="#000" font-family="Segoe UI Emoji" font-size="16px" style="white-space: pre;" text-anchor="middle" x="7.99609375" y="0">alt</text></g><g transform="translate(181.50390625 848) rotate(0 7.99609375 10)"><text direction="ltr" dominant-baseline="text-before-edge" fill="#000" font-family="Segoe UI Emoji" font-size="16px" style="white-space: pre;" text-anchor="middle" x="7.99609375" y="0">alt</text></g></svg>