<svg height="2224.674404730862" version="1.1" viewbox="0 0 1821.812053726004 2224.674404730862" width="1821.812053726004" xmlns="http://www.w3.org/2000/svg">
<!-- svg-source:excalidraw -->
<!-- payload-type:application/vnd.excalidraw+json --><!-- payload-version:2 -->
<defs>
<style class="style-fonts">
</style>
</defs>
<rect fill="#ffffff" height="2224.674404730862" width="1821.812053726004" x="0" y="0"></rect><g stroke-linecap="round" transform="translate(16.94195334315907 226.51943521159774) rotate(0 158.56016012244567 53.710922324456305)"><path d="M6.49 6.97 C6.49 6.97, 6.49 6.97, 6.49 6.97 M6.49 6.97 C6.49 6.97, 6.49 6.97, 6.49 6.97 M0.72 25.8 C7.06 20.3, 14.25 11.38, 21.71 1.65 M0.72 25.8 C7.43 17.87, 15.18 8.73, 21.71 1.65 M0.85 37.84 C10.15 30.32, 15.09 21.43, 33.66 0.11 M0.85 37.84 C10.79 25.99, 21.57 13.28, 33.66 0.11 M0.99 49.88 C16.81 31.87, 32.52 15.18, 44.29 0.07 M0.99 49.88 C12.83 35.5, 25.3 21.87, 44.29 0.07 M1.12 61.92 C16.79 42.03, 34.32 21.73, 54.92 0.04 M1.12 61.92 C18.63 39.86, 38.7 19.16, 54.92 0.04 M0.6 74.72 C22.83 47.28, 46.96 23.08, 65.55 0 M0.6 74.72 C25.35 48.18, 47.26 20.41, 65.55 0 M0.73 86.76 C29.71 53.32, 56.8 23.86, 76.18 -0.03 M0.73 86.76 C21.49 63.65, 41.23 40.72, 76.18 -0.03 M3.49 95.78 C26.95 68.74, 46.52 45.75, 86.81 -0.07 M3.49 95.78 C27.34 68.06, 51.7 41.39, 86.81 -0.07 M8.87 101.79 C41.95 64.34, 70.7 32.67, 97.44 -0.1 M8.87 101.79 C32.08 73.93, 56.62 45.17, 97.44 -0.1 M15.56 106.28 C52.91 66.49, 89.07 22.72, 108.07 -0.13 M15.56 106.28 C34.6 85.17, 53.63 63.44, 108.07 -0.13 M24.88 107.75 C54.01 74.35, 79.95 42.39, 118.7 -0.17 M24.88 107.75 C47.54 83.83, 68.21 59.68, 118.7 -0.17 M35.51 107.72 C75.03 63.63, 108.55 24.28, 129.33 -0.2 M35.51 107.72 C71.89 63.32, 110.5 20.01, 129.33 -0.2 M46.14 107.69 C64.64 83.25, 87.41 59.62, 139.96 -0.24 M46.14 107.69 C78.27 70.48, 110.33 32.71, 139.96 -0.24 M56.77 107.65 C82.26 79.93, 101.74 53.43, 149.93 0.48 M56.77 107.65 C90.91 66.86, 127.02 27.64, 149.93 0.48 M67.4 107.62 C96.75 71.42, 130.02 38.03, 160.56 0.45 M67.4 107.62 C98.91 70.35, 132.23 32.52, 160.56 0.45 M78.03 107.58 C107.58 74.78, 136.92 39.81, 171.19 0.41 M78.03 107.58 C114.6 66.27, 149.17 24.85, 171.19 0.41 M88.66 107.55 C125.88 64.74, 160.27 24.51, 181.82 0.38 M88.66 107.55 C119.18 73.09, 151.95 35.64, 181.82 0.38 M98.64 108.27 C124.11 82.24, 146.46 53.86, 192.45 0.34 M98.64 108.27 C127.86 74.87, 156.16 42.94, 192.45 0.34 M109.27 108.23 C128.66 83.51, 150.39 61.18, 203.08 0.31 M109.27 108.23 C136.74 75.98, 162.41 44.93, 203.08 0.31 M119.9 108.2 C145.61 78.43, 173.34 45.9, 213.71 0.28 M119.9 108.2 C150.68 72.24, 183.54 35.67, 213.71 0.28 M130.53 108.16 C164.62 69.54, 199.49 29.29, 224.34 0.24 M130.53 108.16 C166.91 67.72, 201.48 26.92, 224.34 0.24 M141.16 108.13 C177.01 70.58, 210.49 30.78, 234.97 0.21 M141.16 108.13 C174.37 72.29, 206.96 33.39, 234.97 0.21 M151.79 108.1 C174.75 82.75, 195.32 61.28, 245.6 0.17 M151.79 108.1 C175.19 80.62, 197.84 54.29, 245.6 0.17 M162.42 108.06 C179.33 87.17, 202.21 64.24, 256.23 0.14 M162.42 108.06 C188.77 77.72, 217.33 44.7, 256.23 0.14 M173.05 108.03 C204.17 74.16, 235.64 34.66, 266.86 0.1 M173.05 108.03 C203.98 72.82, 234.77 36.85, 266.86 0.1 M183.68 107.99 C205.99 82.6, 229.18 54.27, 277.49 0.07 M183.68 107.99 C220.96 65.44, 257.11 24.78, 277.49 0.07 M194.31 107.96 C219.44 80.34, 244.82 48.93, 288.12 0.03 M194.31 107.96 C224.38 71.67, 255.49 36.5, 288.12 0.03 M204.94 107.92 C232.46 74.5, 259.68 47.14, 297.44 1.51 M204.94 107.92 C239.4 68.91, 276.35 27.85, 297.44 1.51 M215.57 107.89 C247.77 69.69, 283.3 33.64, 306.1 3.74 M215.57 107.89 C247.28 71.96, 280.23 34.12, 306.1 3.74 M226.2 107.85 C247.38 81.58, 270.46 57.65, 312.14 8.99 M226.2 107.85 C247.54 84.12, 268.51 60.91, 312.14 8.99 M236.83 107.82 C268.75 72.01, 298.01 37.59, 316.21 16.5 M236.83 107.82 C267.72 73.73, 298.01 38.98, 316.21 16.5 M247.46 107.79 C276.12 75.89, 302.7 45.32, 317.66 27.03 M247.46 107.79 C266.49 84.75, 286.43 62.54, 317.66 27.03 M258.09 107.75 C279.62 79.35, 305.39 55.07, 317.79 39.07 M258.09 107.75 C280.49 81.55, 302.93 57.5, 317.79 39.07 M268.72 107.72 C284.38 88.66, 302.75 68.21, 317.92 51.11 M268.72 107.72 C280.84 94.7, 292.18 80.84, 317.92 51.11 M279.35 107.68 C295.74 92.82, 309.23 73.61, 317.4 63.91 M279.35 107.68 C293.71 92.52, 308.4 75.11, 317.4 63.91 M289.98 107.65 C295.52 100.36, 303.93 88.64, 317.53 75.95 M289.98 107.65 C301.43 95.07, 310.7 83.34, 317.53 75.95 M302.58 105.35 C306.3 102.7, 307.48 97.41, 316.35 89.5 M302.58 105.35 C306.29 102.5, 307.71 98.41, 316.35 89.5" fill="none" stroke="#2a9a8d" stroke-width="1"></path><path d="M26.86 0 C97.8 -2.24, 165.87 0.2, 290.26 0 M26.86 0 C97.44 1.47, 169.77 0.76, 290.26 0 M290.26 0 C306.48 -0.3, 316.23 9.74, 317.12 26.86 M290.26 0 C307.02 0.94, 317.74 8.77, 317.12 26.86 M317.12 26.86 C316.15 43.46, 317.82 57.99, 317.12 80.57 M317.12 26.86 C317.09 39.31, 317.13 51.86, 317.12 80.57 M317.12 80.57 C318.45 97.67, 308.38 108.43, 290.26 107.42 M317.12 80.57 C315.6 99.24, 306 107.88, 290.26 107.42 M290.26 107.42 C222.51 107.37, 153.64 106.64, 26.86 107.42 M290.26 107.42 C186.63 108.72, 82.51 108.99, 26.86 107.42 M26.86 107.42 C8.97 106.59, -0.41 97.33, 0 80.57 M26.86 107.42 C6.95 109.68, -0.67 99.19, 0 80.57 M0 80.57 C1.55 61.52, -2.09 42.25, 0 26.86 M0 80.57 C-0.7 64.44, 1.09 47.16, 0 26.86 M0 26.86 C-0.71 7.12, 9.69 1.53, 26.86 0 M0 26.86 C1.02 9.44, 7.02 -1.41, 26.86 0" fill="none" stroke="#1e1e1e" stroke-width="2"></path></g><g transform="translate(166.50211346560474 257.7265006226085) rotate(0 9 22.50385691344553)"><text direction="ltr" dominant-baseline="text-before-edge" fill="#1e1e1e" font-family="Virgil, Segoe UI Emoji" font-size="36.006171061512866px" style="white-space: pre;" text-anchor="middle" x="9" y="0">1</text></g><g stroke-linecap="round" transform="translate(404.53007916685976 228.9738035640603) rotate(0 158.56016012244567 53.710922324456305)"><path d="M26.86 0 C81.81 -0.86, 136.63 -2.63, 290.26 0 M26.86 0 C107.08 1.59, 188.29 2.03, 290.26 0 M290.26 0 C307.17 0.81, 317.66 8.79, 317.12 26.86 M290.26 0 C308.16 -1.05, 317.18 8.12, 317.12 26.86 M317.12 26.86 C316.09 45.76, 319.04 60.99, 317.12 80.57 M317.12 26.86 C317.59 41.47, 317.03 57.39, 317.12 80.57 M317.12 80.57 C315.8 99.14, 306.28 107.82, 290.26 107.42 M317.12 80.57 C316.15 97.31, 308.7 107.65, 290.26 107.42 M290.26 107.42 C221.65 104.5, 151.06 106.37, 26.86 107.42 M290.26 107.42 C213.6 107.6, 136.75 107.48, 26.86 107.42 M26.86 107.42 C7.21 109.38, -0.58 99.1, 0 80.57 M26.86 107.42 C10.43 108.64, 1.91 100.58, 0 80.57 M0 80.57 C0.85 62.11, 2.39 43.59, 0 26.86 M0 80.57 C-0.81 58.28, -0.08 38.6, 0 26.86 M0 26.86 C0.89 9.38, 7.27 -1.23, 26.86 0 M0 26.86 C0.03 11.23, 9.1 1.46, 26.86 0" fill="none" stroke="#1e1e1e" stroke-width="2"></path></g><g transform="translate(493.09023928930543 265.1847258885166) rotate(0 69.99999999999997 17.5)"><text direction="ltr" dominant-baseline="text-before-edge" fill="#1e1e1e" font-family="Virgil, Segoe UI Emoji" font-size="28px" style="white-space: pre;" text-anchor="middle" x="70" y="0">1722973423</text></g><g stroke-linecap="round" transform="translate(757.2875863289106 228.4083376355593) rotate(0 158.56016012244567 53.710922324456305)"><path d="M26.86 0 C113.82 2.59, 199.25 0.36, 290.26 0 M26.86 0 C101.47 -0.5, 177.1 -0.89, 290.26 0 M290.26 0 C308.16 -0.91, 317.17 8.23, 317.12 26.86 M290.26 0 C308.75 1.08, 315.91 7.47, 317.12 26.86 M317.12 26.86 C317.16 46.05, 316.93 68.05, 317.12 80.57 M317.12 26.86 C316.52 41.15, 316.23 54.98, 317.12 80.57 M317.12 80.57 C316.28 97.47, 308.63 107.62, 290.26 107.42 M317.12 80.57 C316.34 97.3, 306.34 109.6, 290.26 107.42 M290.26 107.42 C231.94 108.49, 174.28 108.25, 26.86 107.42 M290.26 107.42 C221.5 107, 153.88 106.48, 26.86 107.42 M26.86 107.42 C10.24 108.48, 1.66 100.31, 0 80.57 M26.86 107.42 C9.56 105.34, 0.95 98.9, 0 80.57 M0 80.57 C1.44 68.61, 1.09 52.59, 0 26.86 M0 80.57 C0.25 69.58, -1.04 57.56, 0 26.86 M0 26.86 C0.03 10.94, 9.08 1.27, 26.86 0 M0 26.86 C0.59 8.89, 10.73 2.05, 26.86 0" fill="none" stroke="#1e1e1e" stroke-width="2"></path></g><g transform="translate(888.8477464513562 259.61540304657007) rotate(0 27 22.50385691344553)"><text direction="ltr" dominant-baseline="text-before-edge" fill="#1e1e1e" font-family="Virgil, Segoe UI Emoji" font-size="36.006171061512866px" style="white-space: pre;" text-anchor="middle" x="27" y="0">123</text></g><g stroke-linecap="round" transform="translate(1110.4128400198463 228.15977519018634) rotate(0 158.56016012244572 53.710922324456305)"><path d="M26.86 0 C120.36 1.05, 214.97 0.97, 290.26 0 M26.86 0 C116.6 -0.19, 206.37 -0.12, 290.26 0 M290.26 0 C308.68 0.94, 316.07 7.67, 317.12 26.86 M290.26 0 C309.81 1.91, 316.16 8.48, 317.12 26.86 M317.12 26.86 C316.15 41.2, 317.95 53.8, 317.12 80.57 M317.12 26.86 C316.19 44.28, 316.84 62.8, 317.12 80.57 M317.12 80.57 C316.44 97.46, 306.58 109.31, 290.26 107.42 M317.12 80.57 C315.3 99.98, 309.06 107.22, 290.26 107.42 M290.26 107.42 C206.3 107.12, 122.74 106.06, 26.86 107.42 M290.26 107.42 C185.95 108.5, 81.26 108.81, 26.86 107.42 M26.86 107.42 C9.48 105.61, 0.83 98.84, 0 80.57 M26.86 107.42 C7.89 109.61, -2.19 100.72, 0 80.57 M0 80.57 C-2.26 60.68, 1.1 40.21, 0 26.86 M0 80.57 C0.47 64.3, 0.52 46.69, 0 26.86 M0 26.86 C0.51 8.9, 10.5 1.79, 26.86 0 M0 26.86 C-1.4 10.41, 10.8 -0.06, 26.86 0" fill="none" stroke="#1e1e1e" stroke-width="2"></path></g><g transform="translate(1250.973000142292 259.3668406011971) rotate(0 18 22.50385691344553)"><text direction="ltr" dominant-baseline="text-before-edge" fill="#1e1e1e" font-family="Virgil, Segoe UI Emoji" font-size="36.006171061512866px" style="white-space: pre;" text-anchor="middle" x="18" y="0">74</text></g><g stroke-linecap="round" transform="translate(1461.15240429747 227.2708385472988) rotate(0 158.56016012244572 53.710922324456305)"><path d="M26.86 0 C94.74 1.47, 161.2 1.04, 290.26 0 M26.86 0 C94.04 1.13, 160.41 0.24, 290.26 0 M290.26 0 C309.59 1.66, 316.29 8.54, 317.12 26.86 M290.26 0 C307.32 -0.73, 318.65 8.03, 317.12 26.86 M317.12 26.86 C318.06 41.64, 317.79 59.37, 317.12 80.57 M317.12 26.86 C316.91 39.76, 316.45 54.63, 317.12 80.57 M317.12 80.57 C315.54 99.78, 308.94 107.24, 290.26 107.42 M317.12 80.57 C317.49 99.03, 308.19 106.47, 290.26 107.42 M290.26 107.42 C218.18 105.14, 143.49 106.63, 26.86 107.42 M290.26 107.42 C197.45 108.62, 104.55 109.49, 26.86 107.42 M26.86 107.42 C8.03 109.33, -1.9 100.43, 0 80.57 M26.86 107.42 C10.88 109.27, -0.82 96.37, 0 80.57 M0 80.57 C0.01 60.79, -1.64 44.4, 0 26.86 M0 80.57 C0.22 59.1, 0.74 38.58, 0 26.86 M0 26.86 C-1.22 10.22, 10.56 -0.05, 26.86 0 M0 26.86 C2.24 9.8, 10.08 0.25, 26.86 0" fill="none" stroke="#1e1e1e" stroke-width="2"></path></g><g transform="translate(1583.9469394199157 263.4817608717551) rotate(0 35.765625 17.5)"><text direction="ltr" dominant-baseline="text-before-edge" fill="#1e1e1e" font-family="Virgil, Segoe UI Emoji" font-size="28px" style="white-space: pre;" text-anchor="middle" x="35.765625" y="0">Hello!</text></g><g stroke-linecap="round" transform="translate(19.837125677696235 376.841425667506) rotate(0 158.56016012244567 53.710922324456305)"><path d="M6.49 6.97 C6.49 6.97, 6.49 6.97, 6.49 6.97 M6.49 6.97 C6.49 6.97, 6.49 6.97, 6.49 6.97 M0.72 25.8 C5.51 16.44, 14.31 8.98, 21.71 1.65 M0.72 25.8 C6.35 19.87, 11.16 13.85, 21.71 1.65 M0.85 37.84 C15.33 22.77, 26.73 8.38, 33.66 0.11 M0.85 37.84 C13.72 22.89, 25.48 8.89, 33.66 0.11 M0.99 49.88 C15.67 32.45, 26.38 20.6, 44.29 0.07 M0.99 49.88 C9.59 38.41, 19.21 27.94, 44.29 0.07 M1.12 61.92 C16.84 44.37, 35.61 21.23, 54.92 0.04 M1.12 61.92 C16.24 44.69, 31.07 26.48, 54.92 0.04 M0.6 74.72 C20.33 52.57, 41.03 28.34, 65.55 0 M0.6 74.72 C19.73 54.5, 36.64 32.37, 65.55 0 M0.73 86.76 C26.62 54.34, 54.86 22.82, 76.18 -0.03 M0.73 86.76 C27.39 58.08, 52.03 27.01, 76.18 -0.03 M3.49 95.78 C32.17 58.93, 63.86 23.69, 86.81 -0.07 M3.49 95.78 C23.81 72.13, 45.75 47.91, 86.81 -0.07 M8.87 101.79 C29.63 77.49, 53.35 52.34, 97.44 -0.1 M8.87 101.79 C44.14 62.95, 77.46 22.37, 97.44 -0.1 M15.56 106.28 C41.73 77.12, 70.42 44.36, 108.07 -0.13 M15.56 106.28 C44.22 73.97, 72.82 38.34, 108.07 -0.13 M24.88 107.75 C61.18 65.16, 94.5 26.08, 118.7 -0.17 M24.88 107.75 C47.61 81.29, 69.01 57.33, 118.7 -0.17 M35.51 107.72 C57.93 81.49, 80.11 55.35, 129.33 -0.2 M35.51 107.72 C61.89 79.03, 87.42 47.28, 129.33 -0.2 M46.14 107.69 C71.47 76.66, 96.44 48.98, 139.96 -0.24 M46.14 107.69 C83.04 65.31, 118.78 24.62, 139.96 -0.24 M56.77 107.65 C85.48 73.95, 114.05 42.88, 149.93 0.48 M56.77 107.65 C81.44 79.65, 106.38 51.32, 149.93 0.48 M67.4 107.62 C100.5 71.62, 132.62 31.8, 160.56 0.45 M67.4 107.62 C100.07 70.23, 131.88 31.6, 160.56 0.45 M78.03 107.58 C106.35 71.85, 139.06 40.75, 171.19 0.41 M78.03 107.58 C101.63 82.52, 125.09 55.51, 171.19 0.41 M88.66 107.55 C113.45 80.04, 137.02 51.08, 181.82 0.38 M88.66 107.55 C116.77 75.96, 143.08 45.55, 181.82 0.38 M98.64 108.27 C126.34 79.78, 150.04 47.12, 192.45 0.34 M98.64 108.27 C129.66 71.71, 161.47 36.35, 192.45 0.34 M109.27 108.23 C131.14 79.86, 156.47 54.51, 203.08 0.31 M109.27 108.23 C142.32 69.56, 176.53 31.01, 203.08 0.31 M119.9 108.2 C142.1 80.6, 167.98 50.01, 213.71 0.28 M119.9 108.2 C142.63 82.07, 167.18 54.6, 213.71 0.28 M130.53 108.16 C160.99 71.54, 196.45 34.54, 224.34 0.24 M130.53 108.16 C150.45 87.39, 168.7 65.4, 224.34 0.24 M141.16 108.13 C178.46 67.4, 212.93 24.76, 234.97 0.21 M141.16 108.13 C166.85 76.75, 193.99 48.73, 234.97 0.21 M151.79 108.1 C185 68.62, 220.3 32.96, 245.6 0.17 M151.79 108.1 C172.56 82.36, 196.17 57.06, 245.6 0.17 M162.42 108.06 C183.26 85.54, 203.09 63.05, 256.23 0.14 M162.42 108.06 C190.6 74.92, 219.57 42.57, 256.23 0.14 M173.05 108.03 C201.47 75.2, 229.24 41.18, 266.86 0.1 M173.05 108.03 C207.21 68.14, 242.51 28.65, 266.86 0.1 M183.68 107.99 C213.8 73.16, 242.23 39.24, 277.49 0.07 M183.68 107.99 C217.63 69.24, 249.99 30.61, 277.49 0.07 M194.31 107.96 C228.78 63.55, 268.87 24.43, 288.12 0.03 M194.31 107.96 C218.51 77.43, 244.94 48.8, 288.12 0.03 M204.94 107.92 C236.31 68.92, 272.38 31.73, 297.44 1.51 M204.94 107.92 C235.98 74.23, 264.03 41.22, 297.44 1.51 M215.57 107.89 C237.31 84.53, 258.7 60.64, 306.1 3.74 M215.57 107.89 C246.48 73.91, 276.03 38.22, 306.1 3.74 M226.2 107.85 C241.28 88.02, 261.17 67.41, 312.14 8.99 M226.2 107.85 C257.89 69.95, 291.05 31.42, 312.14 8.99 M236.83 107.82 C269.38 71.53, 299.01 36.52, 316.21 16.5 M236.83 107.82 C261.47 77.94, 285.26 50.43, 316.21 16.5 M247.46 107.79 C273.18 76.41, 300.41 44.77, 317.66 27.03 M247.46 107.79 C272.59 76.23, 300.07 46.42, 317.66 27.03 M258.09 107.75 C272.92 90.43, 290.75 71.25, 317.79 39.07 M258.09 107.75 C270.52 93.33, 285.43 77.2, 317.79 39.07 M268.72 107.72 C280.3 92.83, 296.77 78.52, 317.92 51.11 M268.72 107.72 C282.95 91.59, 296.01 76.89, 317.92 51.11 M279.35 107.68 C287.27 99.42, 295.36 86.86, 317.4 63.91 M279.35 107.68 C290.97 95.06, 302.9 80.97, 317.4 63.91 M289.98 107.65 C297.82 100.83, 305.99 89.45, 317.53 75.95 M289.98 107.65 C296.14 98.7, 303.68 92.39, 317.53 75.95 M302.58 105.35 C304.87 103.37, 309.78 99.21, 316.35 89.5 M302.58 105.35 C305.34 101.75, 309.91 97.55, 316.35 89.5" fill="none" stroke="#2a9a8d" stroke-width="1"></path><path d="M26.86 0 C112.23 0.05, 198.48 0.41, 290.26 0 M26.86 0 C118.87 2, 209.42 1.18, 290.26 0 M290.26 0 C307.43 -0.64, 318.45 8.15, 317.12 26.86 M290.26 0 C308.41 1.16, 315.6 9.73, 317.12 26.86 M317.12 26.86 C316.22 38.35, 317.43 48.26, 317.12 80.57 M317.12 26.86 C315.9 40.9, 317.08 53.55, 317.12 80.57 M317.12 80.57 C317.45 98.95, 308.19 106.59, 290.26 107.42 M317.12 80.57 C316.65 97.16, 306.17 109.68, 290.26 107.42 M290.26 107.42 C219.78 110.09, 149.06 109.19, 26.86 107.42 M290.26 107.42 C234.68 108.57, 179.07 108.59, 26.86 107.42 M26.86 107.42 C10.63 109.03, -0.71 96.64, 0 80.57 M26.86 107.42 C9.8 109.18, 1.02 98.96, 0 80.57 M0 80.57 C2.31 69.1, 1.6 57.89, 0 26.86 M0 80.57 C-1.02 65.22, 0.39 48.58, 0 26.86 M0 26.86 C1.95 9.69, 9.93 0.22, 26.86 0 M0 26.86 C2.05 7.78, 8.98 2.2, 26.86 0" fill="none" stroke="#1e1e1e" stroke-width="2"></path></g><g transform="translate(169.3972858001419 408.04849107851675) rotate(0 9 22.503856913445546)"><text direction="ltr" dominant-baseline="text-before-edge" fill="#1e1e1e" font-family="Virgil, Segoe UI Emoji" font-size="36.006171061512866px" style="white-space: pre;" text-anchor="middle" x="9" y="0">2</text></g><g stroke-linecap="round" transform="translate(407.6162813151142 379.8569440977626) rotate(0 158.56016012244567 53.710922324456305)"><path d="M26.86 0 C107.32 -1.37, 185.27 0.6, 290.26 0 M26.86 0 C127.47 0.17, 229.2 0.11, 290.26 0 M290.26 0 C308.38 1.01, 315.8 9.63, 317.12 26.86 M290.26 0 C306 0.46, 316.15 7.8, 317.12 26.86 M317.12 26.86 C316.16 42.61, 319.07 59.97, 317.12 80.57 M317.12 26.86 C317.49 46.74, 317.34 65.72, 317.12 80.57 M317.12 80.57 C316.71 97.33, 306.43 109.38, 290.26 107.42 M317.12 80.57 C316.45 99.19, 309.65 108.64, 290.26 107.42 M290.26 107.42 C187.99 108.63, 88.87 107.24, 26.86 107.42 M290.26 107.42 C186.81 110.11, 81.73 108.74, 26.86 107.42 M26.86 107.42 C9.69 108.95, 0.89 98.9, 0 80.57 M26.86 107.42 C7.02 106.01, 0.03 100.75, 0 80.57 M0 80.57 C-0.39 65.65, 1.45 46.43, 0 26.86 M0 80.57 C0.54 61.41, 0.06 41.63, 0 26.86 M0 26.86 C1.78 7.94, 8.97 1.91, 26.86 0 M0 26.86 C0.79 9.52, 9.78 1.34, 26.86 0" fill="none" stroke="#1e1e1e" stroke-width="2"></path></g><g transform="translate(496.17644143755984 416.0678664222189) rotate(0 69.99999999999997 17.5)"><text direction="ltr" dominant-baseline="text-before-edge" fill="#1e1e1e" font-family="Virgil, Segoe UI Emoji" font-size="28px" style="white-space: pre;" text-anchor="middle" x="70" y="0">1722971753</text></g><g stroke-linecap="round" transform="translate(17.887229247823257 521.871423837244) rotate(0 158.56016012244567 53.710922324456305)"><path d="M6.49 6.97 C6.49 6.97, 6.49 6.97, 6.49 6.97 M6.49 6.97 C6.49 6.97, 6.49 6.97, 6.49 6.97 M0.72 25.8 C8.56 17.24, 16.16 9.89, 21.71 1.65 M0.72 25.8 C6.43 18.92, 12.54 12.59, 21.71 1.65 M0.85 37.84 C9.86 25.93, 20.58 13.46, 33.66 0.11 M0.85 37.84 C11.16 24.03, 24.16 11.47, 33.66 0.11 M0.99 49.88 C15.85 31.02, 32.37 15.57, 44.29 0.07 M0.99 49.88 C17.82 32.33, 31.83 13.65, 44.29 0.07 M1.12 61.92 C22.11 37.54, 41.31 17.16, 54.92 0.04 M1.12 61.92 C16.13 45.34, 30.11 29.04, 54.92 0.04 M0.6 74.72 C19.24 53.4, 33.95 36.02, 65.55 0 M0.6 74.72 C19.14 52.96, 38.17 32.43, 65.55 0 M0.73 86.76 C29.19 54.58, 53.44 28.07, 76.18 -0.03 M0.73 86.76 C20.41 63, 41.28 38.47, 76.18 -0.03 M3.49 95.78 C37.29 60.08, 69.89 20.4, 86.81 -0.07 M3.49 95.78 C20.68 76.81, 37.79 57.29, 86.81 -0.07 M8.87 101.79 C36.4 70.23, 60.78 40.07, 97.44 -0.1 M8.87 101.79 C30.31 79.19, 49.79 56.41, 97.44 -0.1 M15.56 106.28 C54.55 62.79, 87.56 24.03, 108.07 -0.13 M15.56 106.28 C51.43 62.5, 89.52 19.79, 108.07 -0.13 M24.88 107.75 C43.38 83.31, 66.15 59.69, 118.7 -0.17 M24.88 107.75 C57.01 70.55, 89.07 32.78, 118.7 -0.17 M35.51 107.72 C61.16 79.81, 80.81 53.12, 129.33 -0.2 M35.51 107.72 C69.89 66.64, 106.25 27.14, 129.33 -0.2 M46.14 107.69 C75.71 71.25, 109.19 37.61, 139.96 -0.24 M46.14 107.69 C77.87 70.15, 111.42 32.06, 139.96 -0.24 M56.77 107.65 C86.32 74.85, 115.66 39.88, 149.93 0.48 M56.77 107.65 C93.34 66.34, 127.91 24.92, 149.93 0.48 M67.4 107.62 C104.62 64.8, 139.01 24.58, 160.56 0.45 M67.4 107.62 C97.92 73.16, 130.69 35.71, 160.56 0.45 M78.03 107.58 C103.33 81.74, 125.53 53.55, 171.19 0.41 M78.03 107.58 C107.05 74.42, 135.15 42.71, 171.19 0.41 M88.66 107.55 C107.92 82.99, 129.51 60.82, 181.82 0.38 M88.66 107.55 C115.95 75.52, 141.43 44.69, 181.82 0.38 M98.64 108.27 C124.35 78.49, 152.08 45.97, 192.45 0.34 M98.64 108.27 C129.42 72.31, 162.28 35.74, 192.45 0.34 M109.27 108.23 C143.36 69.61, 178.23 29.36, 203.08 0.31 M109.27 108.23 C145.65 67.79, 180.22 26.99, 203.08 0.31 M119.9 108.2 C155.75 70.65, 189.23 30.85, 213.71 0.28 M119.9 108.2 C153.11 72.36, 185.7 33.46, 213.71 0.28 M130.53 108.16 C153.49 82.82, 174.06 61.35, 224.34 0.24 M130.53 108.16 C153.93 80.68, 176.58 54.36, 224.34 0.24 M141.16 108.13 C158.07 87.24, 180.95 64.31, 234.97 0.21 M141.16 108.13 C167.51 77.78, 196.07 44.77, 234.97 0.21 M151.79 108.1 C182.91 74.23, 214.38 34.73, 245.6 0.17 M151.79 108.1 C182.72 72.89, 213.51 36.92, 245.6 0.17 M162.42 108.06 C184.73 82.67, 207.92 54.34, 256.23 0.14 M162.42 108.06 C199.7 65.5, 235.85 24.85, 256.23 0.14 M173.05 108.03 C198.18 80.41, 223.56 49, 266.86 0.1 M173.05 108.03 C203.12 71.74, 234.23 36.57, 266.86 0.1 M183.68 107.99 C211.58 74.13, 239.18 46.32, 277.49 0.07 M183.68 107.99 C218.64 68.42, 256.09 26.78, 277.49 0.07 M194.31 107.96 C227.69 68.41, 264.42 30.97, 288.12 0.03 M194.31 107.96 C227.18 70.7, 261.29 31.51, 288.12 0.03 M204.94 107.92 C227.77 79.75, 252.44 53.99, 297.44 1.51 M204.94 107.92 C227.87 82.39, 250.41 57.36, 297.44 1.51 M215.57 107.89 C251.74 67.24, 285.13 28.07, 306.1 3.74 M215.57 107.89 C250.8 68.95, 285.39 29.27, 306.1 3.74 M226.2 107.85 C260.97 68.76, 293.84 30.97, 312.14 8.99 M226.2 107.85 C249.5 79.68, 273.82 52.43, 312.14 8.99 M236.83 107.82 C266 70.36, 299.53 37.15, 316.21 16.5 M236.83 107.82 C266.48 73.28, 296.29 40.75, 316.21 16.5 M247.46 107.79 C270.21 80.52, 295.89 51.65, 317.66 27.03 M247.46 107.79 C264.37 89.29, 280.65 69.75, 317.66 27.03 M258.09 107.75 C282.98 83.41, 304.8 54.61, 317.79 39.07 M258.09 107.75 C280.44 83.49, 303.17 56.83, 317.79 39.07 M268.72 107.72 C280.17 93.43, 294.49 74.92, 317.92 51.11 M268.72 107.72 C288.52 85.61, 306.11 64.32, 317.92 51.11 M279.35 107.68 C288.9 98.55, 295.72 86.78, 317.4 63.91 M279.35 107.68 C288.29 99.14, 294.64 89.36, 317.4 63.91 M289.98 107.65 C294.95 99.4, 305.09 91.23, 317.53 75.95 M289.98 107.65 C297.44 100.61, 303.71 92.44, 317.53 75.95 M302.58 105.35 C306.53 102.93, 309.17 95.21, 316.35 89.5 M302.58 105.35 C307.55 99.63, 313.03 92.74, 316.35 89.5" fill="none" stroke="#2a9a8d" stroke-width="1"></path><path d="M26.86 0 C93.32 -2.15, 156.82 -2.08, 290.26 0 M26.86 0 C97.55 1.24, 167.55 1.11, 290.26 0 M290.26 0 C306.28 0.4, 316.28 7.95, 317.12 26.86 M290.26 0 C308.7 0.23, 316.34 7.79, 317.12 26.86 M317.12 26.86 C318.94 39.47, 317.45 50.87, 317.12 80.57 M317.12 26.86 C316.92 43.7, 316.26 62.67, 317.12 80.57 M317.12 80.57 C316.54 99.1, 309.46 108.48, 290.26 107.42 M317.12 80.57 C319.03 100.58, 308.78 105.34, 290.26 107.42 M290.26 107.42 C201.87 104.94, 112 107.79, 26.86 107.42 M290.26 107.42 C190.42 106.11, 90.33 105.68, 26.86 107.42 M26.86 107.42 C7.27 106.2, 0.03 100.45, 0 80.57 M26.86 107.42 C9.1 108.88, 0.59 98.41, 0 80.57 M0 80.57 C0.79 61.9, -0.53 41.97, 0 26.86 M0 80.57 C0.63 61.97, -0.25 45.34, 0 26.86 M0 26.86 C0.69 9.45, 9.67 1.16, 26.86 0 M0 26.86 C2.01 8.47, 9.8 1.12, 26.86 0" fill="none" stroke="#1e1e1e" stroke-width="2"></path></g><g transform="translate(167.44738937026892 553.0784892482548) rotate(0 9 22.503856913445542)"><text direction="ltr" dominant-baseline="text-before-edge" fill="#1e1e1e" font-family="Virgil, Segoe UI Emoji" font-size="36.006171061512866px" style="white-space: pre;" text-anchor="middle" x="9" y="0">1</text></g><g stroke-linecap="round" transform="translate(405.2444952273071 524.1108836492749) rotate(0 158.56016012244567 53.710922324456305)"><path d="M26.86 0 C94.42 1.83, 162.36 0.94, 290.26 0 M26.86 0 C118.36 -0.55, 211.04 -1.1, 290.26 0 M290.26 0 C308.63 0.2, 316.44 7.94, 317.12 26.86 M290.26 0 C306.34 2.18, 315.3 10.46, 317.12 26.86 M317.12 26.86 C317.56 45.07, 316.24 62.83, 317.12 80.57 M317.12 26.86 C316.36 40.21, 317.3 53.47, 317.12 80.57 M317.12 80.57 C318.78 100.31, 308.7 105.61, 290.26 107.42 M317.12 80.57 C318.07 98.9, 307.11 109.61, 290.26 107.42 M290.26 107.42 C237.6 108.61, 180.94 109.76, 26.86 107.42 M290.26 107.42 C190.42 107.38, 91.93 108.65, 26.86 107.42 M26.86 107.42 C9.08 108.69, 0.51 98.42, 0 80.57 M26.86 107.42 C10.73 109.48, -1.4 99.93, 0 80.57 M0 80.57 C0.75 61.12, 0.24 41.49, 0 26.86 M0 80.57 C0.34 67.43, 0.35 54.37, 0 26.86 M0 26.86 C1.75 8.54, 9.69 0.98, 26.86 0 M0 26.86 C-1.5 7.14, 8.23 1.37, 26.86 0" fill="none" stroke="#1e1e1e" stroke-width="2"></path></g><g transform="translate(493.80465534975275 560.3218059737312) rotate(0 69.99999999999997 17.5)"><text direction="ltr" dominant-baseline="text-before-edge" fill="#1e1e1e" font-family="Virgil, Segoe UI Emoji" font-size="28px" style="white-space: pre;" text-anchor="middle" x="70" y="0">1722974731</text></g><g stroke-linecap="round" transform="translate(757.9960327076793 523.0747385075665) rotate(0 158.56016012244567 53.710922324456305)"><path d="M26.86 0 C124.14 -1.27, 220.36 -1.72, 290.26 0 M26.86 0 C111.33 1.13, 195.17 0.65, 290.26 0 M290.26 0 C306.58 1.89, 315.54 10.26, 317.12 26.86 M290.26 0 C309.06 -0.2, 317.49 9.51, 317.12 26.86 M317.12 26.86 C315.75 41.28, 318.86 58.59, 317.12 80.57 M317.12 26.86 C318.29 45.57, 317.73 61.55, 317.12 80.57 M317.12 80.57 C317.95 98.84, 307.25 109.33, 290.26 107.42 M317.12 80.57 C314.93 100.72, 310.1 109.27, 290.26 107.42 M290.26 107.42 C221.84 108.9, 151.31 106.86, 26.86 107.42 M290.26 107.42 C227.44 110, 164.72 109.48, 26.86 107.42 M26.86 107.42 C10.5 109.21, -1.22 99.74, 0 80.57 M26.86 107.42 C10.8 107.36, 2.24 99.32, 0 80.57 M0 80.57 C-1.07 61.84, 1.85 43.75, 0 26.86 M0 80.57 C0.68 62.92, 0.17 46.18, 0 26.86 M0 26.86 C-1.31 7.38, 8.32 1.19, 26.86 0 M0 26.86 C2.2 10.13, 8.49 0.56, 26.86 0" fill="none" stroke="#1e1e1e" stroke-width="2"></path></g><g transform="translate(889.5561928301249 554.2818039185772) rotate(0 27 22.503856913445542)"><text direction="ltr" dominant-baseline="text-before-edge" fill="#1e1e1e" font-family="Virgil, Segoe UI Emoji" font-size="36.006171061512866px" style="white-space: pre;" text-anchor="middle" x="27" y="0">125</text></g><g stroke-linecap="round" transform="translate(1111.121286398615 523.2670399724066) rotate(0 158.56016012244572 53.710922324456305)"><path d="M26.86 0 C88.84 1.31, 149.38 2.34, 290.26 0 M26.86 0 C107.85 1.81, 189.48 1.58, 290.26 0 M290.26 0 C308.94 -0.18, 317.45 9.44, 317.12 26.86 M290.26 0 C308.19 -0.96, 316.65 7.64, 317.12 26.86 M317.12 26.86 C318.27 39.59, 318.71 51.41, 317.12 80.57 M317.12 26.86 C317.68 48.08, 316.8 69.9, 317.12 80.57 M317.12 80.57 C315.22 100.43, 309.85 109.03, 290.26 107.42 M317.12 80.57 C316.3 96.37, 309.02 109.18, 290.26 107.42 M290.26 107.42 C198.59 105.69, 110.44 105.76, 26.86 107.42 M290.26 107.42 C195.17 108.08, 98.35 107.87, 26.86 107.42 M26.86 107.42 C10.56 107.37, 1.95 99.21, 0 80.57 M26.86 107.42 C10.08 107.68, 2.05 97.3, 0 80.57 M0 80.57 C-0.02 65.12, 0.65 49.97, 0 26.86 M0 80.57 C-0.85 64.78, -0.51 51.16, 0 26.86 M0 26.86 C1.92 9.98, 8.55 0.49, 26.86 0 M0 26.86 C0.53 8.08, 6.69 -1.85, 26.86 0" fill="none" stroke="#1e1e1e" stroke-width="2"></path></g><g transform="translate(1251.6814465210607 554.4741053834173) rotate(0 18 22.503856913445542)"><text direction="ltr" dominant-baseline="text-before-edge" fill="#1e1e1e" font-family="Virgil, Segoe UI Emoji" font-size="36.006171061512866px" style="white-space: pre;" text-anchor="middle" x="18" y="0">54</text></g><g stroke-linecap="round" transform="translate(1462.0459108082762 522.37810332952) rotate(0 158.56016012244572 53.710922324456305)"><path d="M26.86 0 C94.92 -1.02, 161.87 -1.74, 290.26 0 M26.86 0 C131.11 -1.44, 234.87 -1.18, 290.26 0 M290.26 0 C308.19 -0.83, 316.71 7.81, 317.12 26.86 M290.26 0 C306.17 2.25, 316.45 9.67, 317.12 26.86 M317.12 26.86 C319.24 46.96, 315.6 66.83, 317.12 80.57 M317.12 26.86 C315.92 44.94, 317.71 61.87, 317.12 80.57 M317.12 80.57 C316.41 96.64, 308.91 108.95, 290.26 107.42 M317.12 80.57 C318.14 98.96, 306.23 106.01, 290.26 107.42 M290.26 107.42 C211.85 107.96, 131.39 108.79, 26.86 107.42 M290.26 107.42 C188.36 108.73, 85.95 109.04, 26.86 107.42 M26.86 107.42 C9.93 107.64, 1.78 97.45, 0 80.57 M26.86 107.42 C8.98 109.62, 0.79 99.04, 0 80.57 M0 80.57 C-0.73 63.25, 0.67 43.16, 0 26.86 M0 80.57 C1.13 69.19, -0.03 57.04, 0 26.86 M0 26.86 C0.46 8.2, 6.99 -1.61, 26.86 0 M0 26.86 C0.02 7.54, 7.76 1.46, 26.86 0" fill="none" stroke="#1e1e1e" stroke-width="2"></path></g><g transform="translate(1509.816031868222 558.5890256539763) rotate(0 110.7900390625 17.5)"><text direction="ltr" dominant-baseline="text-before-edge" fill="#1e1e1e" font-family="Virgil, Segoe UI Emoji" font-size="28px" style="white-space: pre;" text-anchor="middle" x="110.7900390625" y="0">How are you Evan?</text></g><g stroke-linecap="round" transform="translate(22.70276294103212 669.4582808613759) rotate(0 158.56016012244567 53.710922324456305)"><path d="M6.49 6.97 C6.49 6.97, 6.49 6.97, 6.49 6.97 M6.49 6.97 C6.49 6.97, 6.49 6.97, 6.49 6.97 M0.72 25.8 C8.44 16.36, 12.1 12.63, 21.71 1.65 M0.72 25.8 C4.48 20.27, 9.11 15.53, 21.71 1.65 M0.85 37.84 C10.09 27.91, 22.22 12.41, 33.66 0.11 M0.85 37.84 C10.02 27.56, 18.75 16.37, 33.66 0.11 M0.99 49.88 C13.81 35.59, 27.69 19.21, 44.29 0.07 M0.99 49.88 C13.98 36.67, 24.84 21.5, 44.29 0.07 M1.12 61.92 C19.04 38.67, 39.33 16.29, 54.92 0.04 M1.12 61.92 C20.33 41.74, 37.42 19.36, 54.92 0.04 M0.6 74.72 C22.56 45.7, 47.58 18.14, 65.55 0 M0.6 74.72 C16.43 56.46, 33.69 37.62, 65.55 0 M0.73 86.76 C18.18 66.2, 38.74 44.69, 76.18 -0.03 M0.73 86.76 C30.9 53.72, 59.13 19, 76.18 -0.03 M3.49 95.78 C26.87 69.71, 52.85 40.07, 86.81 -0.07 M3.49 95.78 C29.31 66.77, 54.99 34.51, 86.81 -0.07 M8.87 101.79 C43.22 61.55, 74.53 24.77, 97.44 -0.1 M8.87 101.79 C30.33 76.78, 50.5 54.22, 97.44 -0.1 M15.56 106.28 C37.68 80.4, 59.55 54.63, 108.07 -0.13 M15.56 106.28 C41.58 78.01, 66.74 46.67, 108.07 -0.13 M24.88 107.75 C50.21 76.73, 75.18 49.05, 118.7 -0.17 M24.88 107.75 C61.78 65.37, 97.52 24.69, 118.7 -0.17 M35.51 107.72 C64.42 73.78, 93.19 42.48, 129.33 -0.2 M35.51 107.72 C60.35 79.52, 85.46 51, 129.33 -0.2 M46.14 107.69 C79.46 71.43, 111.81 31.35, 139.96 -0.24 M46.14 107.69 C79.03 70.03, 111.07 31.13, 139.96 -0.24 M56.77 107.65 C85.09 71.92, 117.8 40.82, 149.93 0.48 M56.77 107.65 C80.37 82.59, 103.83 55.58, 149.93 0.48 M67.4 107.62 C92.19 80.11, 115.76 51.15, 160.56 0.45 M67.4 107.62 C95.51 76.03, 121.82 45.62, 160.56 0.45 M78.03 107.58 C105.56 79.3, 129.08 46.85, 171.19 0.41 M78.03 107.58 C108.83 71.28, 140.43 36.17, 171.19 0.41 M88.66 107.55 C110.37 79.37, 135.54 54.21, 181.82 0.38 M88.66 107.55 C121.48 69.14, 155.46 30.86, 181.82 0.38 M98.64 108.27 C120.84 80.67, 146.72 50.08, 192.45 0.34 M98.64 108.27 C121.37 82.14, 145.92 54.67, 192.45 0.34 M109.27 108.23 C139.73 71.61, 175.19 34.61, 203.08 0.31 M109.27 108.23 C129.19 87.46, 147.44 65.47, 203.08 0.31 M119.9 108.2 C157.2 67.47, 191.67 24.83, 213.71 0.28 M119.9 108.2 C145.59 76.82, 172.73 48.79, 213.71 0.28 M130.53 108.16 C163.73 68.69, 199.04 33.03, 224.34 0.24 M130.53 108.16 C151.3 82.43, 174.91 57.13, 224.34 0.24 M141.16 108.13 C162 85.61, 181.83 63.12, 234.97 0.21 M141.16 108.13 C169.34 74.99, 198.31 42.64, 234.97 0.21 M151.79 108.1 C180.21 75.27, 207.98 41.25, 245.6 0.17 M151.79 108.1 C185.95 68.2, 221.25 28.72, 245.6 0.17 M162.42 108.06 C192.54 73.23, 220.97 39.31, 256.23 0.14 M162.42 108.06 C196.37 69.3, 228.73 30.68, 256.23 0.14 M173.05 108.03 C207.52 63.62, 247.61 24.5, 266.86 0.1 M173.05 108.03 C197.25 77.5, 223.68 48.87, 266.86 0.1 M183.68 107.99 C215.51 68.44, 252.05 30.71, 277.49 0.07 M183.68 107.99 C215.15 73.82, 243.62 40.33, 277.49 0.07 M194.31 107.96 C216.85 83.71, 239.01 58.94, 288.12 0.03 M194.31 107.96 C226.31 72.72, 256.99 35.74, 288.12 0.03 M204.94 107.92 C221.29 86.59, 242.51 64.44, 297.44 1.51 M204.94 107.92 C239.07 67.07, 274.74 25.66, 297.44 1.51 M215.57 107.89 C252.52 66.5, 286.52 26.46, 306.1 3.74 M215.57 107.89 C243.59 73.93, 270.87 42.39, 306.1 3.74 M226.2 107.85 C257.99 69.26, 291.43 30.48, 312.14 8.99 M226.2 107.85 C257.18 69.33, 290.59 32.69, 312.14 8.99 M236.83 107.82 C257.17 84.21, 280.37 58.85, 316.21 16.5 M236.83 107.82 C253.52 88.4, 272.89 67.15, 316.21 16.5 M247.46 107.79 C264.59 86.28, 286.77 65.39, 317.66 27.03 M247.46 107.79 C267.37 85.2, 286.05 64.04, 317.66 27.03 M258.09 107.75 C270.72 93.87, 283.73 75.65, 317.79 39.07 M258.09 107.75 C276.35 87.84, 294.75 66.3, 317.79 39.07 M268.72 107.72 C282.68 94.36, 296.72 76.22, 317.92 51.11 M268.72 107.72 C280.47 92.4, 293.46 79.81, 317.92 51.11 M279.35 107.68 C287.83 98.91, 298.74 87.85, 317.4 63.91 M279.35 107.68 C287.84 97.45, 298.04 86.76, 317.4 63.91 M289.98 107.65 C297.27 100.22, 302.48 93.85, 317.53 75.95 M289.98 107.65 C296.64 99.88, 305.18 90.34, 317.53 75.95 M302.58 105.35 C304.47 102.59, 308.17 95.5, 316.35 89.5 M302.58 105.35 C306.41 100.35, 311.99 95.44, 316.35 89.5" fill="none" stroke="#2a9a8d" stroke-width="1"></path><path d="M26.86 0 C98.48 0.41, 168.14 2.28, 290.26 0 M26.86 0 C103.54 -0.84, 180.05 -0.96, 290.26 0 M290.26 0 C306.43 1.96, 316.54 9.58, 317.12 26.86 M290.26 0 C309.65 1.22, 319.03 11.06, 317.12 26.86 M317.12 26.86 C317 43.47, 318.54 60.02, 317.12 80.57 M317.12 26.86 C317.22 47.31, 317.94 70.36, 317.12 80.57 M317.12 80.57 C318.01 98.9, 306.49 106.2, 290.26 107.42 M317.12 80.57 C317.15 100.75, 308.32 108.88, 290.26 107.42 M290.26 107.42 C205.92 108.08, 119.74 110.32, 26.86 107.42 M290.26 107.42 C212.3 108.28, 134.25 107.79, 26.86 107.42 M26.86 107.42 C8.97 109.33, 0.69 98.96, 0 80.57 M26.86 107.42 C9.78 108.76, 2.01 97.99, 0 80.57 M0 80.57 C-1.84 61.85, 0.93 46.32, 0 26.86 M0 80.57 C0.34 61.31, -0.87 42.01, 0 26.86 M0 26.86 C0.02 7.72, 7.92 1.27, 26.86 0 M0 26.86 C1.1 10.28, 9.32 0.39, 26.86 0" fill="none" stroke="#1e1e1e" stroke-width="2"></path></g><g transform="translate(172.26292306347779 700.6653462723866) rotate(0 9 22.50385691344554)"><text direction="ltr" dominant-baseline="text-before-edge" fill="#1e1e1e" font-family="Virgil, Segoe UI Emoji" font-size="36.006171061512866px" style="white-space: pre;" text-anchor="middle" x="9" y="0">1</text></g><g stroke-linecap="round" transform="translate(410.48191857845006 671.6179686616597) rotate(0 158.56016012244567 53.710922324456305)"><path d="M26.86 0 C84.9 -0.55, 143.61 -0.8, 290.26 0 M26.86 0 C94.24 1.97, 162.78 1.44, 290.26 0 M290.26 0 C309.46 1.06, 318.78 10.79, 317.12 26.86 M290.26 0 C308.78 -2.08, 318.07 9.38, 317.12 26.86 M317.12 26.86 C319.59 42.17, 319.24 53.41, 317.12 80.57 M317.12 26.86 C317.76 38.27, 316.48 48.64, 317.12 80.57 M317.12 80.57 C317.15 100.45, 308.3 108.69, 290.26 107.42 M317.12 80.57 C317.71 98.41, 309.95 109.48, 290.26 107.42 M290.26 107.42 C227.23 110.65, 164.85 109.88, 26.86 107.42 M290.26 107.42 C208.33 107.12, 126.65 106.56, 26.86 107.42 M26.86 107.42 C9.67 108.58, 1.75 98.06, 0 80.57 M26.86 107.42 C9.8 108.55, -1.5 96.66, 0 80.57 M0 80.57 C0.71 65.74, 0.17 52.18, 0 26.86 M0 80.57 C0.54 65.87, 0.01 53.04, 0 26.86 M0 26.86 C0.96 10.1, 9.27 0.34, 26.86 0 M0 26.86 C0.33 10.99, 8.6 1.91, 26.86 0" fill="none" stroke="#1e1e1e" stroke-width="2"></path></g><g transform="translate(499.55477401339573 707.828890986116) rotate(0 69.48730468749997 17.5)"><text direction="ltr" dominant-baseline="text-before-edge" fill="#1e1e1e" font-family="Virgil, Segoe UI Emoji" font-size="28px" style="white-space: pre;" text-anchor="middle" x="69.4873046875" y="0">1722932112</text></g><g stroke-linecap="round"><g transform="translate(742.6738500072835 187.69073780208055) rotate(0 0 309.8874874755226)"><path d="M0.01 -0.5 C-0.06 102.63, -0.07 515.51, -0.25 619.09" fill="none" stroke="#74808b" stroke-dasharray="8 10" stroke-width="2.5"></path></g></g><mask></mask><g transform="translate(122.83840800883661 138.73537628796657) rotate(0 60.155982971191406 22.50385691344553)"><text direction="ltr" dominant-baseline="text-before-edge" fill="#1e1e1e" font-family="Virgil, Segoe UI Emoji" font-size="36.006171061512866px" style="white-space: pre;" text-anchor="start" x="0" y="0">chatId</text></g><g transform="translate(473.4209702843392 137.34449262532326) rotate(0 91.7099609375 22.50385691344553)"><text direction="ltr" dominant-baseline="text-before-edge" fill="#1e1e1e" font-family="Virgil, Segoe UI Emoji" font-size="36.006171061512866px" style="white-space: pre;" text-anchor="start" x="0" y="0">messageId</text></g><g transform="translate(859.6914669227386 135.9723735403113) rotate(0 57.63597869873047 22.50385691344553)"><text direction="ltr" dominant-baseline="text-before-edge" fill="#1e1e1e" font-family="Virgil, Segoe UI Emoji" font-size="36.006171061512866px" style="white-space: pre;" text-anchor="start" x="0" y="0">userId</text></g><g transform="translate(1130.6576778793149 140.7801942842416) rotate(0 156.761962890625 22.50385691344553)"><text direction="ltr" dominant-baseline="text-before-edge" fill="#1e1e1e" font-family="Virgil, Segoe UI Emoji" font-size="36.006171061512866px" style="white-space: pre;" text-anchor="start" x="0" y="0">num_attachments</text></g><g transform="translate(1559.0197592289326 136.20964271434332) rotate(0 66.0059814453125 22.50385691344553)"><text direction="ltr" dominant-baseline="text-before-edge" fill="#1e1e1e" font-family="Virgil, Segoe UI Emoji" font-size="36.006171061512866px" style="white-space: pre;" text-anchor="start" x="0" y="0">content</text></g><g stroke-linecap="round"><g transform="translate(170.31247260492276 888.6121567382631) rotate(0 2.30056773968159 -39.52055013235565)"><path d="M0.32 -1.08 C1 -14.4, 4.48 -66.02, 5.1 -78.82 M-0.98 0.96 C-0.49 -12.23, 3.75 -67.39, 4.41 -80.83" fill="none" stroke="#74808b" stroke-width="2"></path></g><g transform="translate(170.31247260492276 888.6121567382631) rotate(0 2.30056773968159 -39.52055013235565)"><path d="M12.83 -52.03 C7.54 -62.21, 6.49 -74.98, 4.41 -80.83 M12.83 -52.03 C10.62 -62.53, 6.09 -75.63, 4.41 -80.83" fill="none" stroke="#74808b" stroke-width="2"></path></g><g transform="translate(170.31247260492276 888.6121567382631) rotate(0 2.30056773968159 -39.52055013235565)"><path d="M-7.65 -53.36 C-5.09 -63.08, 1.7 -75.34, 4.41 -80.83 M-7.65 -53.36 C-1.78 -63.53, 1.79 -76.11, 4.41 -80.83" fill="none" stroke="#74808b" stroke-width="2"></path></g></g><mask></mask><g transform="translate(60.23077409676 896.8051174518639) rotate(0 116.56795501708984 22.5)"><text direction="ltr" dominant-baseline="text-before-edge" fill="#74808b" font-family="Virgil, Segoe UI Emoji" font-size="36px" style="white-space: pre;" text-anchor="start" x="0" y="0">Partition Key</text></g><g stroke-linecap="round"><g transform="translate(562.0820487558886 887.2717277348565) rotate(0 0.9515117498205825 -37.593359416390285)"><path d="M-0.55 1.14 C-0.51 -11.23, 0.18 -61.45, 0.76 -74.01 M1.36 0.7 C1.71 -12, 2.65 -62.73, 2.87 -75.52" fill="none" stroke="#74808b" stroke-width="2"></path></g><g transform="translate(562.0820487558886 887.2717277348565) rotate(0 0.9515117498205825 -37.593359416390285)"><path d="M12.62 -47.15 C11.15 -58.78, 7.87 -64.88, 2.87 -75.52 M12.62 -47.15 C9.38 -57.26, 5.75 -68.6, 2.87 -75.52" fill="none" stroke="#74808b" stroke-width="2"></path></g><g transform="translate(562.0820487558886 887.2717277348565) rotate(0 0.9515117498205825 -37.593359416390285)"><path d="M-7.9 -47.52 C-2.37 -58.93, 1.36 -64.91, 2.87 -75.52 M-7.9 -47.52 C-3.33 -57.3, 0.83 -68.5, 2.87 -75.52" fill="none" stroke="#74808b" stroke-width="2"></path></g></g><mask></mask><g transform="translate(488.90866612615025 895.4646884484555) rotate(0 77.14797973632812 22.5)"><text direction="ltr" dominant-baseline="text-before-edge" fill="#74808b" font-family="Virgil, Segoe UI Emoji" font-size="36px" style="white-space: pre;" text-anchor="start" x="0" y="0">Sort Key</text></g><g stroke-linecap="round" transform="translate(762.6943158858716 378.5161032543938) rotate(0 158.56016012244567 53.710922324456305)"><path d="M26.86 0 C82.06 -2.32, 133.27 -1.17, 290.26 0 M26.86 0 C125.36 -0.93, 225.22 0.34, 290.26 0 M290.26 0 C308.3 1.27, 317.63 8.9, 317.12 26.86 M290.26 0 C309.95 2.05, 315.72 10.41, 317.12 26.86 M317.12 26.86 C317.84 48.26, 317.33 69.49, 317.12 80.57 M317.12 26.86 C317.47 40.49, 317.49 54.21, 317.12 80.57 M317.12 80.57 C318.87 98.06, 308.9 108.4, 290.26 107.42 M317.12 80.57 C315.62 96.66, 307.44 108.79, 290.26 107.42 M290.26 107.42 C186.39 107.36, 81.13 105.44, 26.86 107.42 M290.26 107.42 C232.02 106.64, 174.98 106.59, 26.86 107.42 M26.86 107.42 C9.27 107.76, 0.29 100.24, 0 80.57 M26.86 107.42 C8.6 109.33, 1.93 98.3, 0 80.57 M0 80.57 C0.45 64.7, 1.45 45.13, 0 26.86 M0 80.57 C0.72 62.37, 0.94 44.34, 0 26.86 M0 26.86 C-1.82 10.94, 7.42 1.03, 26.86 0 M0 26.86 C2.16 7.09, 9.08 -1.98, 26.86 0" fill="none" stroke="#1e1e1e" stroke-width="2"></path></g><g transform="translate(894.2544760083172 409.72316866540456) rotate(0 27 22.503856913445546)"><text direction="ltr" dominant-baseline="text-before-edge" fill="#1e1e1e" font-family="Virgil, Segoe UI Emoji" font-size="36.006171061512866px" style="white-space: pre;" text-anchor="middle" x="27" y="0">124</text></g><g stroke-linecap="round" transform="translate(1115.634509444769 378.70840471923384) rotate(0 158.56016012244572 53.710922324456305)"><path d="M26.86 0 C97.71 -0.07, 166.48 -2.11, 290.26 0 M26.86 0 C89.78 -1.57, 152.81 -2.1, 290.26 0 M290.26 0 C309.72 1.79, 315.9 10.22, 317.12 26.86 M290.26 0 C310.02 -0.06, 319.36 9.8, 317.12 26.86 M317.12 26.86 C316.16 45.63, 319.09 65.04, 317.12 80.57 M317.12 26.86 C318.19 44.09, 317.68 62.22, 317.12 80.57 M317.12 80.57 C315.81 96.9, 307.54 108.61, 290.26 107.42 M317.12 80.57 C319.32 99.65, 307.7 107.98, 290.26 107.42 M290.26 107.42 C203.92 105.38, 119.16 104.54, 26.86 107.42 M290.26 107.42 C194.62 108.76, 98.84 109.33, 26.86 107.42 M26.86 107.42 C8.65 109.08, 1.68 98.33, 0 80.57 M26.86 107.42 C9.34 107.57, 1.67 99.02, 0 80.57 M0 80.57 C0.17 60.06, -0.07 42.93, 0 26.86 M0 80.57 C-1.22 68.49, -1.08 54.94, 0 26.86 M0 26.86 C1.88 7.33, 9.07 -1.72, 26.86 0 M0 26.86 C1.64 9.33, 10.44 -0.23, 26.86 0" fill="none" stroke="#1e1e1e" stroke-width="2"></path></g><g transform="translate(1256.1946695672148 409.9154701302446) rotate(0 18 22.503856913445546)"><text direction="ltr" dominant-baseline="text-before-edge" fill="#1e1e1e" font-family="Virgil, Segoe UI Emoji" font-size="36.006171061512866px" style="white-space: pre;" text-anchor="middle" x="18" y="0">54</text></g><g stroke-linecap="round" transform="translate(1466.7441939864686 377.6344079443061) rotate(0 158.56016012244572 53.710922324456305)"><path d="M26.86 0 C116.58 1.78, 209.83 1.86, 290.26 0 M26.86 0 C123.18 0.76, 217.8 0.56, 290.26 0 M290.26 0 C309.77 -0.05, 319.07 9.69, 317.12 26.86 M290.26 0 C309.3 0.25, 319.17 7.78, 317.12 26.86 M317.12 26.86 C318.13 43.75, 318.8 60.95, 317.12 80.57 M317.12 26.86 C316.66 41.07, 317 57.45, 317.12 80.57 M317.12 80.57 C319.04 99.5, 307.76 107.91, 290.26 107.42 M317.12 80.57 C317.65 97.6, 305.91 105.57, 290.26 107.42 M290.26 107.42 C211.98 107.1, 132.6 106.59, 26.86 107.42 M290.26 107.42 C206.62 109.93, 123.88 109.22, 26.86 107.42 M26.86 107.42 C9.29 107.55, 1.45 98.95, 0 80.57 M26.86 107.42 C10.27 109.13, -1.62 99.12, 0 80.57 M0 80.57 C-1.22 69.16, -2.01 53.6, 0 26.86 M0 80.57 C1.35 58.3, 0.47 36.8, 0 26.86 M0 26.86 C1.43 9.28, 10.25 -0.2, 26.86 0 M0 26.86 C-1.03 11.22, 9.93 -1.83, 26.86 0" fill="none" stroke="#1e1e1e" stroke-width="2"></path></g><g transform="translate(1536.2731041089144 413.8453302687624) rotate(0 89.03125 17.5)"><text direction="ltr" dominant-baseline="text-before-edge" fill="#1e1e1e" font-family="Virgil, Segoe UI Emoji" font-size="28px" style="white-space: pre;" text-anchor="middle" x="89.03125" y="0">What time is it?</text></g><g stroke-linecap="round" transform="translate(766.1469971515595 669.4846838250905) rotate(0 158.56016012244567 53.710922324456305)"><path d="M26.86 0 C107.28 0.27, 185.65 1.1, 290.26 0 M26.86 0 C130.04 -1.35, 232.72 -1.04, 290.26 0 M290.26 0 C309.15 0.22, 318.9 7.94, 317.12 26.86 M290.26 0 C308.19 2.2, 317.91 9.52, 317.12 26.86 M317.12 26.86 C317.02 45.64, 318.41 61.65, 317.12 80.57 M317.12 26.86 C317.91 39.26, 316.75 50.87, 317.12 80.57 M317.12 80.57 C317.58 97.71, 306.2 105.81, 290.26 107.42 M317.12 80.57 C317.14 97.06, 306.98 108.88, 290.26 107.42 M290.26 107.42 C198.88 107.99, 108.36 107.52, 26.86 107.42 M290.26 107.42 C189.51 107.32, 89.07 107.46, 26.86 107.42 M26.86 107.42 C10.1 108.91, -1.41 99.04, 0 80.57 M26.86 107.42 C7.44 107.8, 0.85 97.17, 0 80.57 M0 80.57 C2.5 59.79, 1.54 43.95, 0 26.86 M0 80.57 C0.68 68.97, 0.62 56.96, 0 26.86 M0 26.86 C-0.9 10.93, 9.8 -1.59, 26.86 0 M0 26.86 C-0.21 10.44, 8.12 -0.29, 26.86 0" fill="none" stroke="#1e1e1e" stroke-width="2"></path></g><g transform="translate(897.7071572740051 700.6917492361013) rotate(0 27 22.50385691344554)"><text direction="ltr" dominant-baseline="text-before-edge" fill="#1e1e1e" font-family="Virgil, Segoe UI Emoji" font-size="36.006171061512866px" style="white-space: pre;" text-anchor="middle" x="27" y="0">126</text></g><g stroke-linecap="round" transform="translate(1119.2722508424952 669.8680151036478) rotate(0 158.56016012244572 53.710922324456305)"><path d="M26.86 0 C114.04 -2.59, 199.4 -0.35, 290.26 0 M26.86 0 C105.61 -0.68, 184.28 -1.17, 290.26 0 M290.26 0 C308.19 1.91, 317.81 9.45, 317.12 26.86 M290.26 0 C309 1.34, 319.13 8.47, 317.12 26.86 M317.12 26.86 C315.81 44.31, 318.58 64.94, 317.12 80.57 M317.12 26.86 C317.24 45.35, 316.03 63.8, 317.12 80.57 M317.12 80.57 C317.14 97.24, 307.13 108.69, 290.26 107.42 M317.12 80.57 C318.22 99.79, 308.54 107.82, 290.26 107.42 M290.26 107.42 C208.77 108.44, 124.53 107.37, 26.86 107.42 M290.26 107.42 C210.03 108.52, 128.33 108.15, 26.86 107.42 M26.86 107.42 C7.63 107.75, 0.74 97.34, 0 80.57 M26.86 107.42 C10.29 105.22, -2.09 100.76, 0 80.57 M0 80.57 C-1.9 68.68, -2 58, 0 26.86 M0 80.57 C-0.8 64.56, 0.08 45.78, 0 26.86 M0 26.86 C-0.18 10.25, 8.23 -0.26, 26.86 0 M0 26.86 C1.32 6.78, 9.78 0.35, 26.86 0" fill="none" stroke="#1e1e1e" stroke-width="2"></path></g><g transform="translate(1259.832410964941 701.0750805146586) rotate(0 18 22.50385691344554)"><text direction="ltr" dominant-baseline="text-before-edge" fill="#1e1e1e" font-family="Virgil, Segoe UI Emoji" font-size="36.006171061512866px" style="white-space: pre;" text-anchor="middle" x="18" y="0">54</text></g><g stroke-linecap="round" transform="translate(1470.011815120118 668.9790784607594) rotate(0 158.56016012244572 53.710922324456305)"><path d="M26.86 0 C89.82 -0.13, 153.44 -0.9, 290.26 0 M26.86 0 C108.81 1.82, 191.01 1.26, 290.26 0 M290.26 0 C308.89 1.16, 318.87 8.54, 317.12 26.86 M290.26 0 C309.01 1.12, 315.62 7.14, 317.12 26.86 M317.12 26.86 C318.47 40.87, 317.93 56.15, 317.12 80.57 M317.12 26.86 C316.6 40.32, 316.08 55.65, 317.12 80.57 M317.12 80.57 C318.08 99.62, 308.49 107.76, 290.26 107.42 M317.12 80.57 C317.45 100.5, 307.82 109.33, 290.26 107.42 M290.26 107.42 C189.27 108.92, 88.46 108.68, 26.86 107.42 M290.26 107.42 C191.15 108.14, 93.37 107.56, 26.86 107.42 M26.86 107.42 C10.12 105.5, -1.82 100.46, 0 80.57 M26.86 107.42 C7.19 108.6, 2.16 96.6, 0 80.57 M0 80.57 C0.79 65.44, 0.27 46.82, 0 26.86 M0 80.57 C-0.32 59.8, -0.59 37.61, 0 26.86 M0 26.86 C1.15 7.06, 9.67 0.3, 26.86 0 M0 26.86 C-0.78 9.06, 7.81 1.64, 26.86 0" fill="none" stroke="#1e1e1e" stroke-width="2"></path></g><g transform="translate(1551.1959986800637 705.1900007852157) rotate(0 77.3759765625 17.5)"><text direction="ltr" dominant-baseline="text-before-edge" fill="#1e1e1e" font-family="Virgil, Segoe UI Emoji" font-size="28px" style="white-space: pre;" text-anchor="middle" x="77.3759765625" y="0">Lol, now way</text></g><g transform="translate(775.7867761536273 10) rotate(0 130.46795654296875 30.16129486106564)"><text direction="ltr" dominant-baseline="text-before-edge" fill="#1e1e1e" font-family="Virgil, Segoe UI Emoji" font-size="48.258071777705055px" style="white-space: pre;" text-anchor="start" x="0" y="0">Main Table</text></g><g stroke-linecap="round"><g transform="translate(917.1099860795572 937.0178306329963) rotate(0 0 147.54895476492266)"><path d="M1.07 -0.61 C0.97 48.74, 0.12 246.91, 0.01 296.24 M0.17 1.69 C-0.14 50.72, -0.88 245.53, -0.93 294.72" fill="none" stroke="#1e1e1e" stroke-width="4"></path></g><g transform="translate(917.1099860795572 937.0178306329963) rotate(0 0 147.54895476492266)"><path d="M-11.11 266.5 C-8.54 276.29, -2.06 286.8, -0.93 294.72 M-11.11 266.5 C-6.83 275.4, -4.03 285.26, -0.93 294.72" fill="none" stroke="#1e1e1e" stroke-width="4"></path></g><g transform="translate(917.1099860795572 937.0178306329963) rotate(0 0 147.54895476492266)"><path d="M9.41 266.56 C4.82 276.51, 4.13 287, -0.93 294.72 M9.41 266.56 C7.03 275.56, 3.16 285.4, -0.93 294.72" fill="none" stroke="#1e1e1e" stroke-width="4"></path></g></g><mask></mask><g stroke-linecap="round" transform="translate(10 1500.7291514940025) rotate(0 158.56016012244567 53.710922324456305)"><path d="M6.49 6.97 C6.49 6.97, 6.49 6.97, 6.49 6.97 M6.49 6.97 C6.49 6.97, 6.49 6.97, 6.49 6.97 M0.72 25.8 C6.61 15.53, 15.67 6.33, 21.71 1.65 M0.72 25.8 C5.81 20.45, 11.89 14.47, 21.71 1.65 M0.85 37.84 C7.57 29.42, 17.83 19.75, 33.66 0.11 M0.85 37.84 C14.47 23.66, 26.14 7.99, 33.66 0.11 M0.99 49.88 C12.23 37.26, 26.41 21.2, 44.29 0.07 M0.99 49.88 C14.48 35.21, 27.4 17.63, 44.29 0.07 M1.12 61.92 C22.57 37.26, 40.59 15.77, 54.92 0.04 M1.12 61.92 C14.14 46.56, 26.2 33.33, 54.92 0.04 M0.6 74.72 C16.33 56.29, 31.67 38.02, 65.55 0 M0.6 74.72 C18.85 55.16, 36.4 32.58, 65.55 0 M0.73 86.76 C21.16 61.65, 41.08 39.78, 76.18 -0.03 M0.73 86.76 C30.49 52.53, 59.04 20.12, 76.18 -0.03 M3.49 95.78 C29.23 65.65, 54.77 38.07, 86.81 -0.07 M3.49 95.78 C25.59 70.7, 47.94 45.34, 86.81 -0.07 M8.87 101.79 C40.42 67.62, 70.94 29.63, 97.44 -0.1 M8.87 101.79 C39.96 66.29, 70.15 29.52, 97.44 -0.1 M15.56 106.28 C43.68 70.79, 76.17 39.93, 108.07 -0.13 M15.56 106.28 C39 81.4, 62.29 54.57, 108.07 -0.13 M24.88 107.75 C49.85 80.05, 73.59 50.88, 118.7 -0.17 M24.88 107.75 C53.19 75.95, 79.69 45.32, 118.7 -0.17 M35.51 107.72 C63.22 79.23, 86.92 46.57, 129.33 -0.2 M35.51 107.72 C66.53 71.16, 98.35 35.81, 129.33 -0.2 M46.14 107.69 C68.02 79.32, 93.34 53.96, 139.96 -0.24 M46.14 107.69 C79.19 69.01, 113.4 30.46, 139.96 -0.24 M56.77 107.65 C78.81 80.25, 104.52 49.86, 149.93 0.48 M56.77 107.65 C79.34 81.71, 103.73 54.43, 149.93 0.48 M67.4 107.62 C97.65 71.25, 132.87 34.51, 160.56 0.45 M67.4 107.62 C87.19 87, 105.3 65.16, 160.56 0.45 M78.03 107.58 C115.08 67.14, 149.29 24.79, 171.19 0.41 M78.03 107.58 C103.54 76.41, 130.5 48.6, 171.19 0.41 M88.66 107.55 C121.64 68.35, 156.71 32.95, 181.82 0.38 M88.66 107.55 C109.28 81.99, 132.74 56.87, 181.82 0.38 M98.64 108.27 C119.47 85.75, 139.31 63.26, 192.45 0.34 M98.64 108.27 C126.82 75.13, 155.79 42.78, 192.45 0.34 M109.27 108.23 C137.69 75.41, 165.46 41.38, 203.08 0.31 M109.27 108.23 C143.43 68.34, 178.72 28.85, 203.08 0.31 M119.9 108.2 C150.02 73.37, 178.45 39.45, 213.71 0.28 M119.9 108.2 C153.85 69.44, 186.21 30.82, 213.71 0.28 M130.53 108.16 C165 63.76, 205.09 24.64, 224.34 0.24 M130.53 108.16 C154.73 77.64, 181.16 49.01, 224.34 0.24 M141.16 108.13 C172.99 68.57, 209.53 30.85, 234.97 0.21 M141.16 108.13 C172.63 73.96, 201.1 40.47, 234.97 0.21 M151.79 108.1 C174.33 83.85, 196.49 59.08, 245.6 0.17 M151.79 108.1 C183.79 72.86, 214.47 35.88, 245.6 0.17 M162.42 108.06 C179.02 86.42, 200.51 63.97, 256.23 0.14 M162.42 108.06 C197.03 66.62, 233.2 24.63, 256.23 0.14 M173.05 108.03 C211.3 65.13, 246.58 23.62, 266.86 0.1 M173.05 108.03 C202.06 72.86, 230.37 40.15, 266.86 0.1 M183.68 107.99 C218.51 65.79, 255.04 23.44, 277.49 0.07 M183.68 107.99 C217.58 65.98, 253.96 25.93, 277.49 0.07 M194.31 107.96 C218.7 79.73, 245.83 49.85, 288.12 0.03 M194.31 107.96 C214.13 84.88, 236.76 59.87, 288.12 0.03 M204.94 107.92 C227.96 79.38, 256.22 51.5, 297.44 1.51 M204.94 107.92 C230.89 78.47, 255.54 50.45, 297.44 1.51 M215.57 107.89 C234.91 86, 254.93 59.71, 306.1 3.74 M215.57 107.89 C243.28 77.58, 270.9 45.44, 306.1 3.74 M226.2 107.85 C250.53 83.4, 274.54 53.8, 312.14 8.99 M226.2 107.85 C247.43 81.72, 269.68 58.49, 312.14 8.99 M236.83 107.82 C255.84 87.49, 276.96 64.68, 316.21 16.5 M236.83 107.82 C255.06 86.28, 274.86 64.55, 316.21 16.5 M247.46 107.79 C263.55 89.94, 277.95 72.99, 317.66 27.03 M247.46 107.79 C265.03 87.45, 284.65 65.17, 317.66 27.03 M258.09 107.75 C272.62 90.59, 288.53 69.45, 317.79 39.07 M258.09 107.75 C275.8 85.99, 295.62 64.7, 317.79 39.07 M268.72 107.72 C279.5 96.78, 291.04 83.97, 317.92 51.11 M268.72 107.72 C281.41 93.4, 292.88 78.43, 317.92 51.11 M279.35 107.68 C289.44 95.14, 297.63 84.71, 317.4 63.91 M279.35 107.68 C291.77 95.68, 301.5 81.83, 317.4 63.91 M289.98 107.65 C293.95 99.96, 300.94 94.72, 317.53 75.95 M289.98 107.65 C299.82 97.81, 307.49 86.56, 317.53 75.95 M302.58 105.35 C307.38 99.75, 310.8 93.89, 316.35 89.5 M302.58 105.35 C306.52 98.81, 312.28 94.63, 316.35 89.5" fill="none" stroke="#2a9a8d" stroke-width="1"></path><path d="M26.86 0 C130.82 0.52, 232.15 0.55, 290.26 0 M26.86 0 C121.49 0.82, 215.02 -0.19, 290.26 0 M290.26 0 C307.54 1.19, 319.04 9.98, 317.12 26.86 M290.26 0 C307.7 0.56, 317.65 8.08, 317.12 26.86 M317.12 26.86 C315.46 36.66, 317.96 49.49, 317.12 80.57 M317.12 26.86 C317.35 46.94, 317.05 66.09, 317.12 80.57 M317.12 80.57 C318.8 98.33, 308.5 107.55, 290.26 107.42 M317.12 80.57 C318.79 99.02, 309.48 109.13, 290.26 107.42 M290.26 107.42 C230.07 106.63, 168.46 106.97, 26.86 107.42 M290.26 107.42 C235.9 109.91, 183.5 108.86, 26.86 107.42 M26.86 107.42 C9.07 105.7, 1.43 98.8, 0 80.57 M26.86 107.42 C10.44 107.2, -1.03 100.74, 0 80.57 M0 80.57 C1.72 61.45, 0.17 44.93, 0 26.86 M0 80.57 C-0.53 69.57, -0.69 59.2, 0 26.86 M0 26.86 C-0.76 9.7, 8.54 -0.7, 26.86 0 M0 26.86 C0.49 10.6, 10.79 -1.22, 26.86 0" fill="none" stroke="#1e1e1e" stroke-width="2"></path></g><g transform="translate(141.56016012244567 1531.9362169050132) rotate(0 27 22.50385691344553)"><text direction="ltr" dominant-baseline="text-before-edge" fill="#1e1e1e" font-family="Virgil, Segoe UI Emoji" font-size="36.006171061512866px" style="white-space: pre;" text-anchor="middle" x="27" y="0">123</text></g><g stroke-linecap="round" transform="translate(12.89517233453762 1651.0511419499107) rotate(0 158.56016012244567 53.710922324456305)"><path d="M6.49 6.97 C6.49 6.97, 6.49 6.97, 6.49 6.97 M6.49 6.97 C6.49 6.97, 6.49 6.97, 6.49 6.97 M0.72 25.8 C4.77 22.08, 10.76 14.6, 21.71 1.65 M0.72 25.8 C7.96 15.49, 17.24 6.42, 21.71 1.65 M0.85 37.84 C13.8 24.72, 22.53 13.45, 33.66 0.11 M0.85 37.84 C11.79 24.79, 22.46 12.01, 33.66 0.11 M0.99 49.88 C18.67 31.86, 33.79 10.53, 44.29 0.07 M0.99 49.88 C18.81 32.12, 35.42 12.74, 44.29 0.07 M1.12 61.92 C14.7 43.05, 32.44 27.84, 54.92 0.04 M1.12 61.92 C14.6 46.11, 28.82 30.14, 54.92 0.04 M0.6 74.72 C16.57 55.01, 33.44 36.68, 65.55 0 M0.6 74.72 C26.51 46.4, 53.1 16.09, 65.55 0 M0.73 86.76 C22.26 64.38, 38.58 42.36, 76.18 -0.03 M0.73 86.76 C18.27 67.09, 36 47.36, 76.18 -0.03 M3.49 95.78 C27.79 66.28, 52.69 37.65, 86.81 -0.07 M3.49 95.78 C25 71.93, 46.25 46.73, 86.81 -0.07 M8.87 101.79 C40.59 68.08, 71.73 31.66, 97.44 -0.1 M8.87 101.79 C43.47 62.96, 77.19 22.97, 97.44 -0.1 M15.56 106.28 C33.52 81.53, 52.68 59.5, 108.07 -0.13 M15.56 106.28 C47.4 68.77, 80.02 31.14, 108.07 -0.13 M24.88 107.75 C58.36 67.98, 91.34 32.15, 118.7 -0.17 M24.88 107.75 C49.88 79.11, 75.11 52, 118.7 -0.17 M35.51 107.72 C71.01 68.12, 106.23 27.71, 129.33 -0.2 M35.51 107.72 C60.33 78.34, 87.46 47.77, 129.33 -0.2 M46.14 107.69 C72.85 78.65, 96.18 47.36, 139.96 -0.24 M46.14 107.69 C70.61 79.61, 95.45 49.07, 139.96 -0.24 M56.77 107.65 C87.41 73.75, 118.66 36.38, 149.93 0.48 M56.77 107.65 C90.59 68.48, 123.57 27.95, 149.93 0.48 M67.4 107.62 C93.35 72.89, 123.82 41.85, 160.56 0.45 M67.4 107.62 C105.49 64.19, 141.67 22.78, 160.56 0.45 M78.03 107.58 C111.62 67.21, 147.54 28.6, 171.19 0.41 M78.03 107.58 C96.82 85.32, 115.63 63.66, 171.19 0.41 M88.66 107.55 C110.61 79.46, 137.55 49.09, 181.82 0.38 M88.66 107.55 C116.69 73.43, 147.06 39.63, 181.82 0.38 M98.64 108.27 C126.05 74.72, 156.09 42.67, 192.45 0.34 M98.64 108.27 C124.83 78.55, 150.72 46.89, 192.45 0.34 M109.27 108.23 C138.86 76.17, 166.67 44.37, 203.08 0.31 M109.27 108.23 C136.6 76.28, 165.65 43.97, 203.08 0.31 M119.9 108.2 C149.1 75.87, 177.35 44.34, 213.71 0.28 M119.9 108.2 C155.33 69.99, 187.53 29.78, 213.71 0.28 M130.53 108.16 C149.33 85.83, 170.74 59.77, 224.34 0.24 M130.53 108.16 C158.02 77.45, 184.36 45.87, 224.34 0.24 M141.16 108.13 C167.74 75.54, 193.18 47.25, 234.97 0.21 M141.16 108.13 C167.84 76.17, 194.81 46.13, 234.97 0.21 M151.79 108.1 C185.65 70.84, 216.02 32.96, 245.6 0.17 M151.79 108.1 C187.66 66.71, 224.3 23.56, 245.6 0.17 M162.42 108.06 C191.32 78.44, 219.21 44.19, 256.23 0.14 M162.42 108.06 C197.9 67.98, 232.28 28.93, 256.23 0.14 M173.05 108.03 C201.67 77.08, 230.74 43.99, 266.86 0.1 M173.05 108.03 C194.99 84.92, 215.04 59.93, 266.86 0.1 M183.68 107.99 C218.04 71.83, 250.23 32.34, 277.49 0.07 M183.68 107.99 C206.99 79.95, 231.53 52.4, 277.49 0.07 M194.31 107.96 C229.4 67.2, 265.93 22.67, 288.12 0.03 M194.31 107.96 C228.02 68.31, 263.48 26.66, 288.12 0.03 M204.94 107.92 C234.12 71.24, 265.46 38.28, 297.44 1.51 M204.94 107.92 C221.94 87.88, 241.09 65.48, 297.44 1.51 M215.57 107.89 C250.55 67.26, 283.74 28.8, 306.1 3.74 M215.57 107.89 C243.76 74.28, 272.07 41.89, 306.1 3.74 M226.2 107.85 C257.12 70.22, 291.27 32.28, 312.14 8.99 M226.2 107.85 C244.63 85.03, 263.33 63.68, 312.14 8.99 M236.83 107.82 C266.58 70.61, 300.47 34.32, 316.21 16.5 M236.83 107.82 C260.38 79.92, 286.04 50.91, 316.21 16.5 M247.46 107.79 C264.92 87.14, 283.46 64.26, 317.66 27.03 M247.46 107.79 C269.78 80.64, 294.39 53.51, 317.66 27.03 M258.09 107.75 C281.51 83.53, 305.52 55.52, 317.79 39.07 M258.09 107.75 C274.7 87.94, 293.72 66.37, 317.79 39.07 M268.72 107.72 C286.68 85.2, 307.35 63.59, 317.92 51.11 M268.72 107.72 C284.63 88.84, 300.4 71.43, 317.92 51.11 M279.35 107.68 C288.55 96.58, 296.66 89.09, 317.4 63.91 M279.35 107.68 C293.84 89.54, 309.21 71.96, 317.4 63.91 M289.98 107.65 C296.91 100.06, 303.64 94.63, 317.53 75.95 M289.98 107.65 C301.11 94.91, 310.79 83.61, 317.53 75.95 M302.58 105.35 C307.7 102.06, 311.26 94.59, 316.35 89.5 M302.58 105.35 C305.92 101.41, 309.11 98.56, 316.35 89.5" fill="none" stroke="#2a9a8d" stroke-width="1"></path><path d="M26.86 0 C115.83 0.63, 202.62 -0.17, 290.26 0 M26.86 0 C118.51 2.12, 211.42 2.05, 290.26 0 M290.26 0 C307.76 0.49, 317.58 8.2, 317.12 26.86 M290.26 0 C305.91 -1.85, 317.14 7.54, 317.12 26.86 M317.12 26.86 C318.61 40.51, 317.8 53.81, 317.12 80.57 M317.12 26.86 C317.88 47.65, 317.21 68.65, 317.12 80.57 M317.12 80.57 C318.57 98.95, 309.31 108.91, 290.26 107.42 M317.12 80.57 C315.5 99.12, 306.65 107.8, 290.26 107.42 M290.26 107.42 C200.03 107.2, 114.42 107.42, 26.86 107.42 M290.26 107.42 C197.78 105.04, 105.78 105.85, 26.86 107.42 M26.86 107.42 C10.25 107.23, -0.9 100.44, 0 80.57 M26.86 107.42 C9.93 105.59, -0.21 99.96, 0 80.57 M0 80.57 C-1.82 67.13, 0.37 51.57, 0 26.86 M0 80.57 C-0.11 64.58, 0.06 47.49, 0 26.86 M0 26.86 C0.43 10.38, 10.55 -1.06, 26.86 0 M0 26.86 C-1.03 10.49, 8.73 0.25, 26.86 0" fill="none" stroke="#1e1e1e" stroke-width="2"></path></g><g transform="translate(144.45533245698329 1682.2582073609215) rotate(0 27 22.50385691344559)"><text direction="ltr" dominant-baseline="text-before-edge" fill="#1e1e1e" font-family="Virgil, Segoe UI Emoji" font-size="36.006171061512866px" style="white-space: pre;" text-anchor="middle" x="27" y="0">124</text></g><g stroke-linecap="round" transform="translate(10.945275904664413 1796.0811401196497) rotate(0 158.56016012244567 53.710922324456305)"><path d="M6.49 6.97 C6.49 6.97, 6.49 6.97, 6.49 6.97 M6.49 6.97 C6.49 6.97, 6.49 6.97, 6.49 6.97 M3.35 22.78 C11.05 17.16, 17.48 7.59, 19.09 4.67 M3.35 22.78 C6.96 19.52, 9.97 16.22, 19.09 4.67 M3.48 34.82 C12.5 24.76, 18.66 15.55, 31.03 3.13 M3.48 34.82 C10.82 27.63, 16.4 20.84, 31.03 3.13 M2.96 47.62 C20.25 28.57, 32.08 14.16, 41.66 3.09 M2.96 47.62 C17.79 28.99, 34.37 11.04, 41.66 3.09 M3.09 59.66 C12.38 46.34, 25.46 33.85, 52.29 3.06 M3.09 59.66 C19.73 40.3, 36.41 20.22, 52.29 3.06 M3.22 71.7 C20.09 53.81, 31.01 37.15, 62.27 3.78 M3.22 71.7 C24.7 45.75, 47.96 21.33, 62.27 3.78 M0.73 86.76 C23.13 58.47, 49.61 32.89, 72.9 3.74 M0.73 86.76 C25.14 57.94, 51.18 28.5, 72.9 3.74 M4.14 95.03 C29.22 67.34, 54.16 37.42, 83.53 3.71 M4.14 95.03 C35.39 59.93, 64.65 24.61, 83.53 3.71 M8.21 102.54 C42.68 62.98, 74.28 25.97, 94.16 3.67 M8.21 102.54 C36.31 70.83, 66.65 36.16, 94.16 3.67 M15.56 106.28 C39.84 81.56, 61.05 54.51, 104.79 3.64 M15.56 106.28 C43.38 74.48, 70.29 44.14, 104.79 3.64 M24.88 107.75 C43.57 83.84, 64.6 62.32, 115.42 3.6 M24.88 107.75 C51.42 76.63, 76.13 46.68, 115.42 3.6 M32.23 111.49 C57.94 81.72, 85.68 49.2, 126.05 3.57 M32.23 111.49 C63.02 75.53, 95.88 38.96, 126.05 3.57 M42.86 111.46 C76.95 72.83, 111.82 32.58, 136.68 3.54 M42.86 111.46 C79.24 71.01, 113.81 30.21, 136.68 3.54 M52.84 112.18 C88.93 74.36, 122.65 34.28, 147.31 3.5 M52.84 112.18 C86.28 76.09, 119.1 36.93, 147.31 3.5 M63.47 112.15 C86.58 86.63, 107.29 64.99, 157.94 3.47 M63.47 112.15 C87.03 84.48, 109.84 57.96, 157.94 3.47 M74.1 112.11 C91.15 91.07, 114.16 67.98, 168.57 3.43 M74.1 112.11 C100.63 81.55, 129.39 48.31, 168.57 3.43 M84.73 112.08 C116.07 77.96, 147.76 38.21, 179.2 3.4 M84.73 112.08 C115.87 76.62, 146.88 40.4, 179.2 3.4 M95.36 112.04 C117.83 86.46, 141.18 57.95, 189.83 3.36 M95.36 112.04 C132.9 69.19, 169.31 28.24, 189.83 3.36 M105.99 112.01 C131.29 84.18, 156.86 52.56, 200.46 3.33 M105.99 112.01 C136.27 75.47, 167.6 40.04, 200.46 3.33 M116.62 111.97 C144.7 77.88, 172.5 49.86, 211.09 3.29 M116.62 111.97 C151.83 72.12, 189.53 30.2, 211.09 3.29 M127.25 111.94 C160.87 72.12, 197.84 34.41, 221.72 3.26 M127.25 111.94 C160.35 74.41, 194.7 34.95, 221.72 3.26 M137.88 111.9 C161.2 83.16, 186.35 56.85, 232.35 3.23 M137.88 111.9 C161.29 85.83, 184.3 60.26, 232.35 3.23 M148.51 111.87 C186.17 69.51, 221.03 28.66, 242.98 3.19 M148.51 111.87 C185.28 71.21, 221.38 29.79, 242.98 3.19 M159.14 111.83 C197.22 68.84, 233.49 27.14, 253.61 3.16 M159.14 111.83 C184.75 80.88, 211.44 50.9, 253.61 3.16 M169.77 111.8 C204.8 67.4, 244.28 27.34, 264.24 3.12 M169.77 111.8 C204.98 70.86, 240.44 31.83, 264.24 3.12 M180.4 111.77 C211.34 75, 245.47 36.41, 274.87 3.09 M180.4 111.77 C202.86 86.94, 224.84 60.84, 274.87 3.09 M191.03 111.73 C229.57 72.16, 264.78 27.96, 285.5 3.05 M191.03 111.73 C226.21 72.86, 261.85 31.34, 285.5 3.05 M201.66 111.7 C225.11 83.22, 251.42 50.9, 294.82 4.53 M201.66 111.7 C238.43 70.25, 272.9 29.54, 294.82 4.53 M212.29 111.66 C235.08 87.82, 254.71 61.31, 305.45 4.49 M212.29 111.66 C233.08 90.19, 250.66 67.5, 305.45 4.49 M222.92 111.63 C242.91 86.31, 268.4 60.47, 312.8 8.23 M222.92 111.63 C245.15 88.35, 265.87 63.56, 312.8 8.23 M233.55 111.59 C255.67 88.01, 277.01 58.79, 316.87 15.75 M233.55 111.59 C265.36 74.79, 297.38 37.38, 316.87 15.75 M244.18 111.56 C270.7 84.56, 293.55 52.61, 320.28 24.01 M244.18 111.56 C260.84 92.28, 275.98 74.24, 320.28 24.01 M254.81 111.52 C278.41 85.89, 302.6 54.6, 320.41 36.05 M254.81 111.52 C281.69 81.81, 307.73 50.81, 320.41 36.05 M265.44 111.49 C281.93 90.94, 297.02 73.18, 320.55 48.09 M265.44 111.49 C276.85 97.04, 289.11 84.37, 320.55 48.09 M275.41 112.21 C288.74 97.23, 298.47 84.1, 320.68 60.13 M275.41 112.21 C285.47 100.43, 296.48 88.95, 320.68 60.13 M286.04 112.18 C297.06 99.28, 305.18 90.61, 320.81 72.18 M286.04 112.18 C293.93 102.44, 301.6 94.61, 320.81 72.18 M299.3 109.12 C305.23 100.54, 315.85 92.21, 320.95 84.22 M299.3 109.12 C303.68 103.83, 308.57 96.6, 320.95 84.22" fill="none" stroke="#2a9a8d" stroke-width="1"></path><path d="M26.86 0 C129.65 -1.8, 229.65 -1.27, 290.26 0 M26.86 0 C121.42 -0.88, 216.49 -1.38, 290.26 0 M290.26 0 C306.2 -1.61, 317.14 7.72, 317.12 26.86 M290.26 0 C306.98 1.46, 318.22 10.28, 317.12 26.86 M317.12 26.86 C318.98 43.53, 318.87 62.49, 317.12 80.57 M317.12 26.86 C317.94 42.82, 317.78 59.05, 317.12 80.57 M317.12 80.57 C315.71 99.04, 306.85 107.75, 290.26 107.42 M317.12 80.57 C317.97 97.17, 309.51 105.22, 290.26 107.42 M290.26 107.42 C236.01 107.31, 178.84 105.91, 26.86 107.42 M290.26 107.42 C234.43 107.69, 177.22 108.55, 26.86 107.42 M26.86 107.42 C9.8 105.83, -0.18 99.76, 0 80.57 M26.86 107.42 C8.12 107.13, 1.32 96.3, 0 80.57 M0 80.57 C0.01 61.52, 1.35 43.7, 0 26.86 M0 80.57 C0.32 63.16, 0.91 43.79, 0 26.86 M0 26.86 C-0.9 10.29, 8.76 0.22, 26.86 0 M0 26.86 C-2.17 8.4, 7.41 -0.17, 26.86 0" fill="none" stroke="#1e1e1e" stroke-width="2"></path></g><g transform="translate(142.50543602711008 1827.2882055306604) rotate(0 27 22.50385691344559)"><text direction="ltr" dominant-baseline="text-before-edge" fill="#1e1e1e" font-family="Virgil, Segoe UI Emoji" font-size="36.006171061512866px" style="white-space: pre;" text-anchor="middle" x="27" y="0">125</text></g><g stroke-linecap="round" transform="translate(15.760809597873504 1943.3863360746755) rotate(0 158.56016012244567 53.710922324456305)"><path d="M6.49 6.97 C6.49 6.97, 6.49 6.97, 6.49 6.97 M6.49 6.97 C6.49 6.97, 6.49 6.97, 6.49 6.97 M3.35 22.78 C7.16 17.57, 13.25 10.41, 19.09 4.67 M3.35 22.78 C8.65 16.07, 14.88 10.67, 19.09 4.67 M3.48 34.82 C10.03 25.3, 17.36 18.9, 31.03 3.13 M3.48 34.82 C11.94 25.17, 18.77 18.1, 31.03 3.13 M2.96 47.62 C14.1 38.81, 22.37 26.56, 41.66 3.09 M2.96 47.62 C11.35 37.76, 21.72 25.39, 41.66 3.09 M3.09 59.66 C15.7 45.6, 27.64 31.16, 52.29 3.06 M3.09 59.66 C19.36 40.82, 36.15 23.13, 52.29 3.06 M3.22 71.7 C20.53 55.49, 34.44 36.24, 62.27 3.78 M3.22 71.7 C19.25 51.87, 35.64 33.15, 62.27 3.78 M0.73 86.76 C18.59 68.14, 35.78 46.3, 72.9 3.74 M0.73 86.76 C23.33 59.75, 46.78 33.19, 72.9 3.74 M4.14 95.03 C37.12 58.94, 67.83 24.96, 83.53 3.71 M4.14 95.03 C35.07 61.23, 64.27 27.87, 83.53 3.71 M8.21 102.54 C31.29 76.35, 52 49.13, 94.16 3.67 M8.21 102.54 C41.33 62.53, 76.17 24.56, 94.16 3.67 M15.56 106.28 C46.22 70.72, 76.59 37.1, 104.79 3.64 M15.56 106.28 C33.75 84.01, 54.13 61.24, 104.79 3.64 M24.88 107.75 C45.01 85.07, 67.89 61.75, 115.42 3.6 M24.88 107.75 C52.93 76.56, 80.07 44.42, 115.42 3.6 M32.23 111.49 C64.43 77.43, 94.06 38.72, 126.05 3.57 M32.23 111.49 C63.55 74.23, 94.11 38.52, 126.05 3.57 M42.86 111.46 C74.41 76.17, 100.97 43.27, 136.68 3.54 M42.86 111.46 C67.42 84.74, 89.87 59.02, 136.68 3.54 M52.84 112.18 C88.82 69.53, 121.8 30.29, 147.31 3.5 M52.84 112.18 C86.4 73.19, 121.99 34.34, 147.31 3.5 M63.47 112.15 C85.3 84.76, 110.58 58.07, 157.94 3.47 M63.47 112.15 C85.37 87.02, 108.21 58.78, 157.94 3.47 M74.1 112.11 C107.05 73.82, 140.82 33.27, 168.57 3.43 M74.1 112.11 C111.07 70.14, 147.47 26.42, 168.57 3.43 M84.73 112.08 C120.59 71.53, 156.93 31.16, 179.2 3.4 M84.73 112.08 C118.93 72.9, 153.98 31.77, 179.2 3.4 M95.36 112.04 C132.6 69.81, 166.19 31.02, 189.83 3.36 M95.36 112.04 C118.29 85.84, 141.18 58.86, 189.83 3.36 M105.99 112.01 C144.35 70.65, 182.19 25.6, 200.46 3.33 M105.99 112.01 C133.97 79.92, 162.35 47.53, 200.46 3.33 M116.62 111.97 C136.78 88.44, 152.51 65.03, 211.09 3.29 M116.62 111.97 C148.91 75.17, 179.94 36.81, 211.09 3.29 M127.25 111.94 C151.3 84.89, 172.83 55.99, 221.72 3.26 M127.25 111.94 C161.81 70.23, 198.79 29.71, 221.72 3.26 M137.88 111.9 C157.15 87.43, 179.55 64.2, 232.35 3.23 M137.88 111.9 C165.06 79.13, 192.45 49.32, 232.35 3.23 M148.51 111.87 C171.17 86.86, 189.7 62.56, 242.98 3.19 M148.51 111.87 C182.19 74.77, 213.37 37.31, 242.98 3.19 M159.14 111.83 C187.93 78.62, 218.82 43.76, 253.61 3.16 M159.14 111.83 C186.74 81.1, 213.52 48.55, 253.61 3.16 M169.77 111.8 C194.88 84.37, 216.01 56.61, 264.24 3.12 M169.77 111.8 C189.69 89.03, 208.24 64.65, 264.24 3.12 M180.4 111.77 C208.22 79.49, 236.9 46.41, 274.87 3.09 M180.4 111.77 C207.19 81.15, 232.49 51.87, 274.87 3.09 M191.03 111.73 C229.17 70, 263.2 27.8, 285.5 3.05 M191.03 111.73 C225.93 70.46, 263.25 27.92, 285.5 3.05 M201.66 111.7 C239.38 71.24, 272.81 32.41, 294.82 4.53 M201.66 111.7 C225.19 83.78, 249.51 57.42, 294.82 4.53 M212.29 111.66 C243.94 72.31, 278.66 38.16, 305.45 4.49 M212.29 111.66 C243.94 76.33, 275.03 38.8, 305.45 4.49 M222.92 111.63 C244.52 83.78, 268.51 59.12, 312.8 8.23 M222.92 111.63 C250.03 80.36, 278.13 47.37, 312.8 8.23 M233.55 111.59 C267.91 74.27, 300.27 37.08, 316.87 15.75 M233.55 111.59 C262.64 78.55, 290.55 46.38, 316.87 15.75 M244.18 111.56 C273.79 78.42, 303.95 43.4, 320.28 24.01 M244.18 111.56 C261.19 94.17, 275.93 75.26, 320.28 24.01 M254.81 111.52 C282.82 82.42, 307.3 53.82, 320.41 36.05 M254.81 111.52 C276.93 85.94, 299.9 59.66, 320.41 36.05 M265.44 111.49 C275.65 97.35, 288.91 83.45, 320.55 48.09 M265.44 111.49 C276.55 97.91, 289.37 86.02, 320.55 48.09 M275.41 112.21 C283.59 100.1, 292.85 88.89, 320.68 60.13 M275.41 112.21 C287.89 98.09, 301.4 83.8, 320.68 60.13 M286.04 112.18 C292.31 102.51, 301.47 94.01, 320.81 72.18 M286.04 112.18 C294.76 103.11, 301.3 92.73, 320.81 72.18 M299.3 109.12 C304.8 102.95, 312.45 92.18, 320.95 84.22 M299.3 109.12 C307.38 100.48, 315.28 91.1, 320.95 84.22" fill="none" stroke="#2a9a8d" stroke-width="1"></path><path d="M26.86 0 C89.63 2.18, 151.32 0.34, 290.26 0 M26.86 0 C111.53 0.15, 197.77 0.3, 290.26 0 M290.26 0 C307.13 1.27, 318.08 10.1, 317.12 26.86 M290.26 0 C308.54 0.39, 317.45 10.99, 317.12 26.86 M317.12 26.86 C317.42 42.49, 317.69 58.9, 317.12 80.57 M317.12 26.86 C316.72 44.55, 316.77 61.84, 317.12 80.57 M317.12 80.57 C317.86 97.34, 309.33 105.5, 290.26 107.42 M317.12 80.57 C315.03 100.76, 306.41 108.6, 290.26 107.42 M290.26 107.42 C185.15 108.68, 83.04 108.57, 26.86 107.42 M290.26 107.42 C214.17 108.85, 137.32 110, 26.86 107.42 M26.86 107.42 C8.23 107.17, 1.15 96.58, 0 80.57 M26.86 107.42 C9.78 107.77, -0.78 98.58, 0 80.57 M0 80.57 C0.37 66.71, -1.09 54.11, 0 26.86 M0 80.57 C-0.88 61.28, -0.53 40.76, 0 26.86 M0 26.86 C-1.89 8.47, 7.61 -0.14, 26.86 0 M0 26.86 C1.12 9.93, 6.92 1.62, 26.86 0" fill="none" stroke="#1e1e1e" stroke-width="2"></path></g><g transform="translate(147.32096972031917 1974.5934014856862) rotate(0 27 22.50385691344559)"><text direction="ltr" dominant-baseline="text-before-edge" fill="#1e1e1e" font-family="Virgil, Segoe UI Emoji" font-size="36.006171061512866px" style="white-space: pre;" text-anchor="middle" x="27" y="0">126</text></g><g stroke-linecap="round"><g transform="translate(735.7318966641247 1461.9004540844853) rotate(0 0 309.8874874755227)"><path d="M-0.24 0.29 C-0.39 103.41, 0.43 516.23, 0.28 619.32" fill="none" stroke="#74808b" stroke-dasharray="8 10" stroke-width="2.5"></path></g></g><mask></mask><g transform="translate(115.89645466567754 1412.9450925703732) rotate(0 57.63597869873047 22.50385691344553)"><text direction="ltr" dominant-baseline="text-before-edge" fill="#1e1e1e" font-family="Virgil, Segoe UI Emoji" font-size="36.006171061512866px" style="white-space: pre;" text-anchor="start" x="0" y="0">userId</text></g><g transform="translate(466.1879671697692 1411.5542089077298) rotate(0 91.7099609375 22.50385691344553)"><text direction="ltr" dominant-baseline="text-before-edge" fill="#1e1e1e" font-family="Virgil, Segoe UI Emoji" font-size="36.006171061512866px" style="white-space: pre;" text-anchor="start" x="0" y="0">messageId</text></g><g stroke-linecap="round"><g transform="translate(173.12020974864936 2160.7970723200397) rotate(0 -2.574277503761259 -38.50814978204153)"><path d="M0.01 -0.74 C-0.75 -13.29, -5.01 -63.66, -5.77 -76.25 M-1.44 1.49 C-1.7 -11.31, -2.78 -64.68, -3.38 -77.98" fill="none" stroke="#74808b" stroke-width="2"></path></g><g transform="translate(173.12020974864936 2160.7970723200397) rotate(0 -2.574277503761259 -38.50814978204153)"><path d="M7.74 -50.11 C4.49 -56.77, 4.75 -60.39, -3.38 -77.98 M7.74 -50.11 C3.86 -59.17, -0.41 -69.19, -3.38 -77.98" fill="none" stroke="#74808b" stroke-width="2"></path></g><g transform="translate(173.12020974864936 2160.7970723200397) rotate(0 -2.574277503761259 -38.50814978204153)"><path d="M-12.77 -49.48 C-11.88 -56.27, -7.48 -60.02, -3.38 -77.98 M-12.77 -49.48 C-9.32 -58.8, -6.26 -69.04, -3.38 -77.98" fill="none" stroke="#74808b" stroke-width="2"></path></g></g><mask></mask><g transform="translate(66.89067919831223 2168.9900330336404) rotate(0 116.56795501708984 22.5)"><text direction="ltr" dominant-baseline="text-before-edge" fill="#74808b" font-family="Virgil, Segoe UI Emoji" font-size="36px" style="white-space: pre;" text-anchor="start" x="0" y="0">Partition Key</text></g><g stroke-linecap="round"><g transform="translate(555.1400954127301 2161.4814440172613) rotate(0 0.9515117498205825 -37.593359416390285)"><path d="M0.58 0.69 C1.03 -11.93, 1.85 -62.51, 2.1 -74.98 M-0.58 0.01 C-0.22 -13.07, 0.92 -64.34, 1.25 -77" fill="none" stroke="#74808b" stroke-width="2"></path></g><g transform="translate(555.1400954127301 2161.4814440172613) rotate(0 0.9515117498205825 -37.593359416390285)"><path d="M10.83 -48.57 C9.42 -55.26, 6.24 -62.35, 1.25 -77 M10.83 -48.57 C7.99 -59.6, 3.6 -70.51, 1.25 -77" fill="none" stroke="#74808b" stroke-width="2"></path></g><g transform="translate(555.1400954127301 2161.4814440172613) rotate(0 0.9515117498205825 -37.593359416390285)"><path d="M-9.68 -49.06 C-6 -55.73, -4.09 -62.69, 1.25 -77 M-9.68 -49.06 C-4.56 -60.07, -0.98 -70.79, 1.25 -77" fill="none" stroke="#74808b" stroke-width="2"></path></g></g><mask></mask><g transform="translate(481.9667127829915 2169.674404730862) rotate(0 77.14797973632812 22.5)"><text direction="ltr" dominant-baseline="text-before-edge" fill="#74808b" font-family="Virgil, Segoe UI Emoji" font-size="36px" style="white-space: pre;" text-anchor="start" x="0" y="0">Sort Key</text></g><g transform="translate(677.5304149423515 1283.9163893666664) rotate(0 278.5713195800782 30.16129486106564)"><text direction="ltr" dominant-baseline="text-before-edge" fill="#1e1e1e" font-family="Virgil, Segoe UI Emoji" font-size="48.258071777705055px" style="white-space: pre;" text-anchor="start" x="0" y="0">Global Secondary Index</text></g><g stroke-linecap="round" transform="translate(781.8258200680572 1501.5932431955662) rotate(0 158.56016012244567 53.710922324456305)"><path d="M26.86 0 C85.95 1.03, 144.01 -2.71, 290.26 0 C311.32 1.18, 316.47 6.42, 317.12 26.86 C313.03 46.19, 315.57 59.55, 317.12 80.57 C317.8 101.84, 305.12 107.98, 290.26 107.42 C191.44 107.05, 90.18 106.34, 26.86 107.42 C7.91 105.53, 2.88 96.07, 0 80.57 C-2.46 67, 1.88 54.98, 0 26.86 C1.61 8.24, 10.18 -1.55, 26.86 0" fill="#e9ecef" stroke="none" stroke-width="0"></path><path d="M26.86 0 C110.99 1.65, 192.37 0.58, 290.26 0 M26.86 0 C108 0.09, 187.67 -0.28, 290.26 0 M290.26 0 C306.85 0.33, 317.86 7.82, 317.12 26.86 M290.26 0 C309.51 -2.21, 315.03 11.24, 317.12 26.86 M317.12 26.86 C315.77 38.97, 315.67 52.28, 317.12 80.57 M317.12 26.86 C317.02 44.84, 317.89 60.05, 317.12 80.57 M317.12 80.57 C316.94 99.76, 307.44 107.17, 290.26 107.42 M317.12 80.57 C318.44 96.3, 309 107.77, 290.26 107.42 M290.26 107.42 C221.28 105.78, 150.62 106.06, 26.86 107.42 M290.26 107.42 C221.13 108.5, 150.37 109.45, 26.86 107.42 M26.86 107.42 C8.76 107.64, -1.89 97.99, 0 80.57 M26.86 107.42 C7.41 107.26, 1.12 99.44, 0 80.57 M0 80.57 C-2.32 69.49, 0.89 57.43, 0 26.86 M0 80.57 C0.3 58.96, 0.02 39.96, 0 26.86 M0 26.86 C0.17 8.88, 10.57 1.39, 26.86 0 M0 26.86 C2.25 7.6, 6.85 1.59, 26.86 0" fill="none" stroke="transparent" stroke-width="2"></path></g><g stroke-linecap="round" transform="translate(1135.1988836690987 1501.600484528366) rotate(0 158.56016012244572 53.710922324456305)"><path d="M26.86 0 C116.26 -4.53, 208.25 -2.38, 290.26 0 C307.52 -2.53, 316.94 6.35, 317.12 26.86 C315.36 42.37, 316.89 59.21, 317.12 80.57 C314.07 99.03, 311.2 104.77, 290.26 107.42 C236.11 113.34, 176.57 109.69, 26.86 107.42 C11.83 105.02, -2.99 101.74, 0 80.57 C3.18 62.42, 2.03 48.11, 0 26.86 C1.23 7.4, 10.12 -2.59, 26.86 0" fill="#e9ecef" stroke="none" stroke-width="0"></path><path d="M26.86 0 C101.76 -1.49, 176.99 -0.6, 290.26 0 M26.86 0 C111.67 -1.33, 197.08 -1.42, 290.26 0 M290.26 0 C308.9 -1.13, 318.29 7.03, 317.12 26.86 M290.26 0 C306.08 2.29, 315.36 10.13, 317.12 26.86 M317.12 26.86 C314.96 49.44, 317.01 70.46, 317.12 80.57 M317.12 26.86 C317.3 41.65, 316.79 58.67, 317.12 80.57 M317.12 80.57 C316.39 98.21, 309.32 105.53, 290.26 107.42 M317.12 80.57 C317.95 98.82, 307.39 107.53, 290.26 107.42 M290.26 107.42 C224.93 106.3, 157.86 106.96, 26.86 107.42 M290.26 107.42 C192.02 106.84, 94.42 106.4, 26.86 107.42 M26.86 107.42 C7.07 106.94, -1.34 98.33, 0 80.57 M26.86 107.42 C10.08 108.4, -2.03 100.09, 0 80.57 M0 80.57 C1.79 59.05, 2.24 36.56, 0 26.86 M0 80.57 C-0.36 68.86, 0.18 55.38, 0 26.86 M0 26.86 C1.62 10.34, 10.91 -1.17, 26.86 0 M0 26.86 C-2.1 10.54, 7.17 1.05, 26.86 0" fill="none" stroke="transparent" stroke-width="2"></path></g><g stroke-linecap="round" transform="translate(1485.9464418147902 1501.3510573309159) rotate(0 158.56016012244572 53.710922324456305)"><path d="M26.86 0 C131.6 2.54, 230.82 -0.41, 290.26 0 C307.98 -2.6, 316.04 5.56, 317.12 26.86 C317.57 51.54, 313.84 70.06, 317.12 80.57 C320.15 95.82, 305.08 110.39, 290.26 107.42 C184.08 108.75, 81.83 108.34, 26.86 107.42 C5.96 110.69, -0.16 96.89, 0 80.57 C0.87 66.59, 0.49 52.49, 0 26.86 C1.17 6.36, 8.09 -1.77, 26.86 0" fill="#e9ecef" stroke="none" stroke-width="0"></path><path d="M26.86 0 C128.05 0.8, 229.43 0.56, 290.26 0 M26.86 0 C124.93 -0.46, 224.34 -1.04, 290.26 0 M290.26 0 C309.33 -1.92, 315.3 10.94, 317.12 26.86 M290.26 0 C306.41 1.18, 319.28 7.09, 317.12 26.86 M317.12 26.86 C316.99 44.58, 316.46 58.81, 317.12 80.57 M317.12 26.86 C317.26 48.92, 316.99 69.55, 317.12 80.57 M317.12 80.57 C318.27 96.58, 308.89 107.73, 290.26 107.42 M317.12 80.57 C316.34 98.58, 307.02 109.06, 290.26 107.42 M290.26 107.42 C220.74 107.33, 153.47 108.26, 26.86 107.42 M290.26 107.42 C225.15 108.91, 159.44 108.63, 26.86 107.42 M26.86 107.42 C7.61 107.28, 0.98 99.32, 0 80.57 M26.86 107.42 C6.92 109.04, 2.14 96.24, 0 80.57 M0 80.57 C1.38 61.91, -1.66 46.46, 0 26.86 M0 80.57 C0.33 69.09, 1.05 58.39, 0 26.86 M0 26.86 C1.95 7.78, 7.13 1.38, 26.86 0 M0 26.86 C-1.78 10, 9.86 0.4, 26.86 0" fill="none" stroke="transparent" stroke-width="2"></path></g><g stroke-linecap="round" transform="translate(785.0793243717068 1652.4738823114767) rotate(0 158.56016012244567 53.710922324456305)"><path d="M26.86 0 C94.17 -3.25, 162.37 -3.31, 290.26 0 C307.08 -3.39, 320.61 8.1, 317.12 26.86 C314.26 45.05, 320.33 59.47, 317.12 80.57 C314.03 101.43, 311.77 110.3, 290.26 107.42 C193.72 103.54, 90.23 108.05, 26.86 107.42 C8.79 105.84, -1.91 101.22, 0 80.57 C0.8 66.3, 0.73 52.54, 0 26.86 C-0.86 7.18, 8.43 -0.2, 26.86 0" fill="#e9ecef" stroke="none" stroke-width="0"></path><path d="M26.86 0 C110.68 -0.61, 194.92 -2.64, 290.26 0 M26.86 0 C113.62 -0.79, 200.27 -1.1, 290.26 0 M290.26 0 C306.35 1.99, 315.59 9.98, 317.12 26.86 M290.26 0 C310.33 -1.87, 317.25 6.97, 317.12 26.86 M317.12 26.86 C317.01 45.91, 319.18 67.61, 317.12 80.57 M317.12 26.86 C316.71 38.57, 317.64 49.59, 317.12 80.57 M317.12 80.57 C317.84 98.77, 307.49 107.51, 290.26 107.42 M317.12 80.57 C315.98 100.11, 307.29 108.28, 290.26 107.42 M290.26 107.42 C217.78 109.14, 142.18 107.16, 26.86 107.42 M290.26 107.42 C192.83 107.46, 96.35 107.6, 26.86 107.42 M26.86 107.42 C9.93 108.27, -1.77 99.87, 0 80.57 M26.86 107.42 C11.09 105.19, 0.33 99.92, 0 80.57 M0 80.57 C-1.78 65.2, -2.2 49.63, 0 26.86 M0 80.57 C0.76 60.46, 0.93 38.38, 0 26.86 M0 26.86 C-1.82 10.33, 7.4 0.91, 26.86 0 M0 26.86 C0.91 9.35, 10.98 -0.03, 26.86 0" fill="none" stroke="transparent" stroke-width="2"></path></g><g stroke-linecap="round" transform="translate(1138.4523879727483 1652.4811236442765) rotate(0 158.56016012244572 53.710922324456305)"><path d="M26.86 0 C114.39 0.58, 201.36 -0.04, 290.26 0 C311.66 -0.85, 318.14 9.63, 317.12 26.86 C319.33 45.34, 313.21 72.09, 317.12 80.57 C320.72 101.34, 310.88 106.38, 290.26 107.42 C222.68 107.5, 159.7 103.65, 26.86 107.42 C7.04 110.18, -2.27 100.08, 0 80.57 C0.84 62.93, -1.19 48.71, 0 26.86 C-0.53 8.76, 12.47 -1.59, 26.86 0" fill="#e9ecef" stroke="none" stroke-width="0"></path><path d="M26.86 0 C126.15 -2.32, 223.53 -2.24, 290.26 0 M26.86 0 C110.65 0.42, 192.79 1.98, 290.26 0 M290.26 0 C306.64 1.03, 319 7.33, 317.12 26.86 M290.26 0 C308.3 -1.98, 318.77 9.33, 317.12 26.86 M317.12 26.86 C319.04 47.3, 315.48 65.86, 317.12 80.57 M317.12 26.86 C317.5 45.5, 317.29 66.18, 317.12 80.57 M317.12 80.57 C316.44 98.56, 307.17 108.85, 290.26 107.42 M317.12 80.57 C316.24 99.33, 307.7 106.61, 290.26 107.42 M290.26 107.42 C204.74 108.38, 121.97 108.94, 26.86 107.42 M290.26 107.42 C207.81 106.86, 126.81 107.25, 26.86 107.42 M26.86 107.42 C7.18 108.83, 1.86 96.53, 0 80.57 M26.86 107.42 C9.28 108.88, -0.47 100.45, 0 80.57 M0 80.57 C-1.39 68.33, 2.1 58.09, 0 26.86 M0 80.57 C0.54 64.07, -1.35 49.43, 0 26.86 M0 26.86 C-1.55 9.86, 9.74 0.35, 26.86 0 M0 26.86 C2.03 8.92, 7.97 2.01, 26.86 0" fill="none" stroke="transparent" stroke-width="2"></path></g><g stroke-linecap="round" transform="translate(1489.1999461184398 1652.2316964468246) rotate(0 158.56016012244572 53.710922324456305)"><path d="M26.86 0 C86.48 0.03, 150.61 2.05, 290.26 0 C309.19 0.68, 320.49 5.9, 317.12 26.86 C314.85 46.77, 321.53 63.64, 317.12 80.57 C319.83 97.43, 306.28 110.3, 290.26 107.42 C228.7 109.59, 165.88 113.03, 26.86 107.42 C6.68 109.03, -0.72 99.7, 0 80.57 C-1.17 65, -0.84 52.77, 0 26.86 C3.52 7.37, 5.45 -0.89, 26.86 0" fill="#e9ecef" stroke="none" stroke-width="0"></path><path d="M26.86 0 C121.4 0.43, 215.31 2.06, 290.26 0 M26.86 0 C90.22 2.8, 154.42 2.41, 290.26 0 M290.26 0 C310.05 -1.62, 317.24 7.23, 317.12 26.86 M290.26 0 C309.81 0.38, 318.61 8.73, 317.12 26.86 M317.12 26.86 C316.06 40.38, 318.94 53.54, 317.12 80.57 M317.12 26.86 C317.79 42.43, 317.09 57.75, 317.12 80.57 M317.12 80.57 C316.13 99.9, 307.41 108.17, 290.26 107.42 M317.12 80.57 C316.65 97.66, 308.66 109.07, 290.26 107.42 M290.26 107.42 C191.26 106.33, 90.31 104.99, 26.86 107.42 M290.26 107.42 C217.98 107.61, 144.21 107.83, 26.86 107.42 M26.86 107.42 C10.81 105.48, 0.28 99.73, 0 80.57 M26.86 107.42 C8.48 109.4, -2.05 96.95, 0 80.57 M0 80.57 C2.21 65.57, 0.39 51.86, 0 26.86 M0 80.57 C-1.44 61.42, -1.3 41.35, 0 26.86 M0 26.86 C0.79 9.3, 10.71 -0.03, 26.86 0 M0 26.86 C-0.98 10.97, 9.71 -0.41, 26.86 0" fill="none" stroke="transparent" stroke-width="2"></path></g><g stroke-linecap="round" transform="translate(786.8459692147204 1798.5458335168896) rotate(0 158.56016012244567 53.710922324456305)"><path d="M26.86 0 C89.6 2.87, 147.61 4.08, 290.26 0 C311.54 -3.05, 317.68 11.98, 317.12 26.86 C319.89 41.89, 319 50.14, 317.12 80.57 C315.23 101.35, 305.76 104.43, 290.26 107.42 C185.8 107.96, 82.56 107.05, 26.86 107.42 C8.24 108.65, -1.55 99.64, 0 80.57 C-0.3 68.12, 3.75 54.47, 0 26.86 C-3.5 8.06, 11.72 1.85, 26.86 0" fill="#e9ecef" stroke="none" stroke-width="0"></path><path d="M26.86 0 C87.57 1.96, 146.85 2.3, 290.26 0 M26.86 0 C80 -1.67, 135.11 -2.72, 290.26 0 M290.26 0 C308.28 -1.72, 318.55 9.28, 317.12 26.86 M290.26 0 C309.66 -0.23, 316.09 11.22, 317.12 26.86 M317.12 26.86 C317.99 44.52, 316.44 64.79, 317.12 80.57 M317.12 26.86 C316.98 37.94, 316.82 49.65, 317.12 80.57 M317.12 80.57 C316.36 99.22, 307.76 106.72, 290.26 107.42 M317.12 80.57 C317.61 100.12, 310.01 106.2, 290.26 107.42 M290.26 107.42 C223.23 105.72, 155.46 106.15, 26.86 107.42 M290.26 107.42 C212.43 108.87, 136.74 107.54, 26.86 107.42 M26.86 107.42 C9.24 108.69, -0.41 100.19, 0 80.57 M26.86 107.42 C6.9 105.91, -0.41 96.47, 0 80.57 M0 80.57 C-0.54 68.52, 0.92 55.19, 0 26.86 M0 80.57 C-0.29 68.06, 0.89 54.81, 0 26.86 M0 26.86 C1.76 8.92, 8.1 1.75, 26.86 0 M0 26.86 C0.76 8.54, 7.33 -0.12, 26.86 0" fill="none" stroke="transparent" stroke-width="2"></path></g><g stroke-linecap="round" transform="translate(1140.2190328157628 1798.5530748496894) rotate(0 158.56016012244572 53.710922324456305)"><path d="M26.86 0 C81.89 1.43, 137.98 -1.53, 290.26 0 C308.73 3.03, 314.47 5.86, 317.12 26.86 C320.79 46.35, 316.2 70.81, 317.12 80.57 C314.72 95.48, 311.44 107.26, 290.26 107.42 C220.97 111.58, 154.73 111.28, 26.86 107.42 C7.4 108.59, -2.59 97.61, 0 80.57 C3.66 65.5, -3.36 52.72, 0 26.86 C2.77 10.8, 9.55 -1.51, 26.86 0" fill="#e9ecef" stroke="none" stroke-width="0"></path><path d="M26.86 0 C87.62 0.16, 148.67 -2.21, 290.26 0 M26.86 0 C132.8 -1.72, 237.3 -1.76, 290.26 0 M290.26 0 C309.6 0.33, 318.42 8.76, 317.12 26.86 M290.26 0 C307.14 2.27, 318.1 7.12, 317.12 26.86 M317.12 26.86 C317.21 43.63, 315.58 58.82, 317.12 80.57 M317.12 26.86 C316.44 44.5, 316.56 61.09, 317.12 80.57 M317.12 80.57 C316.71 97.77, 308.6 108.85, 290.26 107.42 M317.12 80.57 C318.96 97.25, 307.14 108.96, 290.26 107.42 M290.26 107.42 C213.39 104.38, 137.17 106.23, 26.86 107.42 M290.26 107.42 C200.82 108.12, 110.02 109.39, 26.86 107.42 M26.86 107.42 C8.54 109.14, -1.78 97.15, 0 80.57 M26.86 107.42 C8.55 105.42, -1.05 100.48, 0 80.57 M0 80.57 C1.41 65.95, -1.15 45.6, 0 26.86 M0 80.57 C0.81 60.92, 1.3 40.91, 0 26.86 M0 26.86 C-0.85 10.7, 9.61 -0.36, 26.86 0 M0 26.86 C-1.62 8.83, 7.29 -0.69, 26.86 0" fill="none" stroke="transparent" stroke-width="2"></path></g><g stroke-linecap="round" transform="translate(1490.9665909614534 1798.3036476522393) rotate(0 158.56016012244572 53.710922324456305)"><path d="M26.86 0 C102.31 -3.13, 172.87 1.7, 290.26 0 C305.52 -3.09, 320.09 12.55, 317.12 26.86 C315.96 50.14, 315.44 64.67, 317.12 80.57 C320.39 98.31, 306.59 105.51, 290.26 107.42 C190.52 110.08, 90.68 110.03, 26.86 107.42 C6.36 106.56, -1.77 97.94, 0 80.57 C-4.44 63.85, 1.82 50.78, 0 26.86 C0.6 7.45, 8.03 2.12, 26.86 0" fill="#e9ecef" stroke="none" stroke-width="0"></path><path d="M26.86 0 C114.04 -2.66, 205.86 -2.44, 290.26 0 M26.86 0 C119.43 1.01, 212.48 1.83, 290.26 0 M290.26 0 C309.46 -0.2, 316.22 10.93, 317.12 26.86 M290.26 0 C309.15 -1.83, 316.91 10.44, 317.12 26.86 M317.12 26.86 C315.16 41.74, 317.36 54.5, 317.12 80.57 M317.12 26.86 C316.47 43.59, 316.65 59.23, 317.12 80.57 M317.12 80.57 C317.55 99.9, 309.77 106.36, 290.26 107.42 M317.12 80.57 C316.09 100.01, 307.95 107.67, 290.26 107.42 M290.26 107.42 C235.96 106.79, 182.55 104.61, 26.86 107.42 M290.26 107.42 C192.86 105.89, 95.06 106.07, 26.86 107.42 M26.86 107.42 C7.17 106.1, -0.35 96.73, 0 80.57 M26.86 107.42 C7.9 109.43, 0.2 98.38, 0 80.57 M0 80.57 C-1.54 58.28, 1.01 38.1, 0 26.86 M0 80.57 C0.67 61.99, -0.64 44.31, 0 26.86 M0 26.86 C0.66 8.59, 7.54 -0.1, 26.86 0 M0 26.86 C-1.66 8.26, 6.79 2.23, 26.86 0" fill="none" stroke="transparent" stroke-width="2"></path></g><g stroke-linecap="round" transform="translate(790.5711117343795 1945.8888097451036) rotate(0 158.56016012244567 53.710922324456305)"><path d="M26.86 0 C111.29 5.59, 192.73 0.74, 290.26 0 C311.13 3.6, 319.99 11.66, 317.12 26.86 C314.21 38.43, 319.88 55.82, 317.12 80.57 C315.54 96.56, 310.92 105.15, 290.26 107.42 C198.22 109.63, 106.58 108.03, 26.86 107.42 C7.18 106.9, -0.2 101.99, 0 80.57 C3.71 68.67, 1.54 51.57, 0 26.86 C-0.93 11.08, 12.25 0.85, 26.86 0" fill="#e9ecef" stroke="none" stroke-width="0"></path><path d="M26.86 0 C122.81 0.69, 216.43 3.39, 290.26 0 M26.86 0 C85.08 1.93, 142.68 1.72, 290.26 0 M290.26 0 C307.27 1.97, 317.97 7.36, 317.12 26.86 M290.26 0 C307.96 1.49, 316.28 8.66, 317.12 26.86 M317.12 26.86 C316.92 45.37, 316.71 64.25, 317.12 80.57 M317.12 26.86 C316.71 46.45, 317.13 67.47, 317.12 80.57 M317.12 80.57 C318.72 97.41, 307.27 108.76, 290.26 107.42 M317.12 80.57 C316.9 98.72, 306 106.87, 290.26 107.42 M290.26 107.42 C229.62 107.04, 168.75 109.92, 26.86 107.42 M290.26 107.42 C236.66 109.43, 182.67 108.22, 26.86 107.42 M26.86 107.42 C8.6 105.68, -0.91 100.22, 0 80.57 M26.86 107.42 C9.15 107.34, 1.86 100.06, 0 80.57 M0 80.57 C1.69 57.66, 1.23 38.64, 0 26.86 M0 80.57 C-0.9 64.4, -0.14 46.3, 0 26.86 M0 26.86 C-1.41 8.85, 7.51 -0.6, 26.86 0 M0 26.86 C-2.17 11.18, 8.41 0.65, 26.86 0" fill="none" stroke="transparent" stroke-width="2"></path></g><g stroke-linecap="round" transform="translate(1143.944175335421 1945.8960510779034) rotate(0 158.56016012244572 53.710922324456305)"><path d="M26.86 0 C81.48 -5.62, 142.67 -0.31, 290.26 0 C311.04 2.71, 316.08 7.06, 317.12 26.86 C319.74 47.1, 314.9 65.77, 317.12 80.57 C319.87 96.2, 309.78 106.71, 290.26 107.42 C200.19 107.96, 112.82 108.22, 26.86 107.42 C8.76 110.94, -1.59 94.97, 0 80.57 C-0.14 64.28, -1.67 53.13, 0 26.86 C3.29 9.8, 6.57 1.53, 26.86 0" fill="#e9ecef" stroke="none" stroke-width="0"></path><path d="M26.86 0 C82.74 3.09, 135.7 1.7, 290.26 0 M26.86 0 C83.72 -0.42, 139.19 0.44, 290.26 0 M290.26 0 C309.02 -1.59, 316.94 10.25, 317.12 26.86 M290.26 0 C307.33 -0.29, 318.44 6.78, 317.12 26.86 M317.12 26.86 C317.3 43.91, 318.63 62.2, 317.12 80.57 M317.12 26.86 C317.22 45.7, 317.81 62.57, 317.12 80.57 M317.12 80.57 C316.22 99.81, 307.98 107.64, 290.26 107.42 M317.12 80.57 C314.95 97.92, 306.62 107.26, 290.26 107.42 M290.26 107.42 C199.49 107.05, 104.93 105.8, 26.86 107.42 M290.26 107.42 C193.88 108.7, 98.76 108.53, 26.86 107.42 M26.86 107.42 C8.04 109.17, 0.17 98.4, 0 80.57 M26.86 107.42 C10.81 109.02, 2.25 97.12, 0 80.57 M0 80.57 C0.54 70.14, -0.02 59.9, 0 26.86 M0 80.57 C0.56 64.35, -0.48 48.44, 0 26.86 M0 26.86 C-1.45 8.35, 7.07 1.94, 26.86 0 M0 26.86 C-0.54 9.6, 9.39 2.15, 26.86 0" fill="none" stroke="transparent" stroke-width="2"></path></g><g stroke-linecap="round" transform="translate(1494.6917334811126 1945.6466238804533) rotate(0 158.56016012244572 53.710922324456305)"><path d="M26.86 0 C130.39 6.09, 231.5 5.38, 290.26 0 C307.13 -1.89, 320 6.55, 317.12 26.86 C316.42 36.6, 320.75 47.89, 317.12 80.57 C318.73 97.75, 309.4 105.87, 290.26 107.42 C201.3 106.11, 115 109.32, 26.86 107.42 C7.37 103.92, -0.89 101.24, 0 80.57 C-1.09 63.82, 3.13 43.66, 0 26.86 C-2.38 10.48, 6.25 -2.02, 26.86 0" fill="#e9ecef" stroke="none" stroke-width="0"></path><path d="M26.86 0 C84.4 -1.87, 143.16 -0.83, 290.26 0 M26.86 0 C109.84 0.99, 193.87 -0.43, 290.26 0 M290.26 0 C307.99 1.29, 316.39 8.7, 317.12 26.86 M290.26 0 C309.49 -2.17, 317.95 9.3, 317.12 26.86 M317.12 26.86 C318.57 40.39, 317.89 55.04, 317.12 80.57 M317.12 26.86 C318.03 40.55, 316.79 55.98, 317.12 80.57 M317.12 80.57 C316.93 98.69, 306.28 106.94, 290.26 107.42 M317.12 80.57 C315.57 98.3, 309.29 108.4, 290.26 107.42 M290.26 107.42 C232.99 109.59, 179.81 109.04, 26.86 107.42 M290.26 107.42 C188.41 105.35, 86.47 106.74, 26.86 107.42 M26.86 107.42 C9.12 107.35, 1.62 99.86, 0 80.57 M26.86 107.42 C11.2 106.07, -2.1 100.06, 0 80.57 M0 80.57 C0.1 70.38, -0.27 55.82, 0 26.86 M0 80.57 C-0.88 59.7, -0.9 38.64, 0 26.86 M0 26.86 C-1.88 10.89, 8.48 0.57, 26.86 0 M0 26.86 C0.43 11.1, 7.01 0.36, 26.86 0" fill="none" stroke="transparent" stroke-width="2"></path></g><g stroke-linecap="round"><g transform="translate(1305.1713162801623 2157.001520903752) rotate(0 -0.996226049843699 -38.21260497874232)"><path d="M0.07 -1.03 C-0.31 -13.58, -0.92 -63.64, -1.13 -76.23 M-1.35 1.04 C-1.91 -11.81, -1.6 -65.53, -1.63 -78.25" fill="none" stroke="#74808b" stroke-width="2"></path></g><g transform="translate(1305.1713162801623 2157.001520903752) rotate(0 -0.996226049843699 -38.21260497874232)"><path d="M8.59 -50.04 C3.07 -59.71, 1.09 -70.96, -1.63 -78.25 M8.59 -50.04 C6.17 -58.92, 2.69 -65.66, -1.63 -78.25" fill="none" stroke="#74808b" stroke-width="2"></path></g><g transform="translate(1305.1713162801623 2157.001520903752) rotate(0 -0.996226049843699 -38.21260497874232)"><path d="M-11.93 -50.07 C-9.37 -59.74, -3.26 -70.98, -1.63 -78.25 M-11.93 -50.07 C-8.39 -59.15, -5.92 -65.88, -1.63 -78.25" fill="none" stroke="#74808b" stroke-width="2"></path></g></g><mask></mask><g transform="translate(1140.503365947087 2165.1944816173527) rotate(0 178.00192260742188 22.5)"><text direction="ltr" dominant-baseline="text-before-edge" fill="#74808b" font-family="Virgil, Segoe UI Emoji" font-size="36px" style="white-space: pre;" text-anchor="start" x="0" y="0">Optionally Projected</text></g><g transform="translate(955.7996473690906 1045.5914142392485) rotate(0 363.3278198242188 35)"><text direction="ltr" dominant-baseline="text-before-edge" fill="#1e1e1e" font-family="Virgil, Segoe UI Emoji" font-size="28px" style="white-space: pre;" text-anchor="start" x="0" y="0">GSI created from main table with different primary </text><text direction="ltr" dominant-baseline="text-before-edge" fill="#1e1e1e" font-family="Virgil, Segoe UI Emoji" font-size="28px" style="white-space: pre;" text-anchor="start" x="0" y="35">key and optional sort key</text></g><g stroke-linecap="round" transform="translate(382.2763495208002 1505.2794620740779) rotate(0 158.56016012244567 53.710922324456305)"><path d="M26.86 0 C124.51 1.61, 217.77 0.79, 290.26 0 M26.86 0 C123.38 -0.48, 219.27 0.39, 290.26 0 M290.26 0 C307.49 0.09, 316.13 10.38, 317.12 26.86 M290.26 0 C307.29 0.86, 316.65 8.14, 317.12 26.86 M317.12 26.86 C316.44 43.23, 318.85 61.2, 317.12 80.57 M317.12 26.86 C315.94 43.49, 317.1 60.69, 317.12 80.57 M317.12 80.57 C315.35 99.87, 310.03 105.48, 290.26 107.42 M317.12 80.57 C317.45 99.92, 307.7 109.4, 290.26 107.42 M290.26 107.42 C233.35 106.33, 180.59 107.19, 26.86 107.42 M290.26 107.42 C213 108.41, 133.45 109.42, 26.86 107.42 M26.86 107.42 C7.4 108.33, 0.79 98.82, 0 80.57 M26.86 107.42 C10.98 107.39, -0.98 100.48, 0 80.57 M0 80.57 C-0.01 61.24, -0.51 42.92, 0 26.86 M0 80.57 C0.32 60.18, -0.72 38.08, 0 26.86 M0 26.86 C1.68 7.48, 7.24 1.65, 26.86 0 M0 26.86 C2.3 10.79, 10.68 -0.66, 26.86 0" fill="none" stroke="#1e1e1e" stroke-width="2"></path></g><g transform="translate(470.83650964324585 1541.4903843985342) rotate(0 69.99999999999997 17.5)"><text direction="ltr" dominant-baseline="text-before-edge" fill="#1e1e1e" font-family="Virgil, Segoe UI Emoji" font-size="28px" style="white-space: pre;" text-anchor="middle" x="70" y="0">1722973423</text></g><g stroke-linecap="round" transform="translate(385.3625516690546 1656.1626026077784) rotate(0 158.56016012244567 53.710922324456305)"><path d="M26.86 0 C118.09 -0.39, 207.07 1.1, 290.26 0 M26.86 0 C80.74 -0.28, 134.77 0.25, 290.26 0 M290.26 0 C307.41 0.75, 316.71 8.25, 317.12 26.86 M290.26 0 C308.66 1.65, 318.96 7.73, 317.12 26.86 M317.12 26.86 C317.7 38.67, 317 52.92, 317.12 80.57 M317.12 26.86 C316.5 43.29, 318.31 57.34, 317.12 80.57 M317.12 80.57 C317.4 99.73, 307.76 109.14, 290.26 107.42 M317.12 80.57 C315.07 96.95, 307.76 105.42, 290.26 107.42 M290.26 107.42 C223.18 108.88, 157.32 109.15, 26.86 107.42 M290.26 107.42 C226.07 109.23, 163.42 109, 26.86 107.42 M26.86 107.42 C10.71 107.39, -0.85 100.22, 0 80.57 M26.86 107.42 C9.71 107.01, -1.62 98.35, 0 80.57 M0 80.57 C2.1 67.86, 0.73 56.49, 0 26.86 M0 80.57 C1.3 58.69, -0.4 39.12, 0 26.86 M0 26.86 C2 10.55, 10.46 -0.58, 26.86 0 M0 26.86 C-1.21 10.79, 7.42 -1.91, 26.86 0" fill="none" stroke="#1e1e1e" stroke-width="2"></path></g><g transform="translate(473.92271179150026 1692.3735249322347) rotate(0 69.99999999999997 17.5)"><text direction="ltr" dominant-baseline="text-before-edge" fill="#1e1e1e" font-family="Virgil, Segoe UI Emoji" font-size="28px" style="white-space: pre;" text-anchor="middle" x="70" y="0">1722971753</text></g><g stroke-linecap="round" transform="translate(382.9907655812475 1800.4165421592907) rotate(0 158.56016012244567 53.710922324456305)"><path d="M26.86 0 C94.81 -0.63, 166 -1.74, 290.26 0 M26.86 0 C106.8 -1.2, 187.19 -1.77, 290.26 0 M290.26 0 C308.6 1.43, 318.72 7.89, 317.12 26.86 M290.26 0 C307.14 1.54, 316.9 9.2, 317.12 26.86 M317.12 26.86 C316.85 38.88, 317.84 47.19, 317.12 80.57 M317.12 26.86 C317.76 47.37, 317.41 67.49, 317.12 80.57 M317.12 80.57 C315.34 97.15, 307.81 105.68, 290.26 107.42 M317.12 80.57 C316.07 100.48, 308.36 107.34, 290.26 107.42 M290.26 107.42 C189 108.02, 90.7 108.23, 26.86 107.42 M290.26 107.42 C199.93 107.77, 107.85 108.48, 26.86 107.42 M26.86 107.42 C9.61 107.06, -1.41 98.37, 0 80.57 M26.86 107.42 C7.29 106.73, -2.17 100.7, 0 80.57 M0 80.57 C1.72 64.03, 0.16 52.57, 0 26.86 M0 80.57 C1.46 69.2, 1.21 55.95, 0 26.86 M0 26.86 C-1.05 10.55, 7.62 -1.66, 26.86 0 M0 26.86 C2.09 8.85, 7.94 -1.22, 26.86 0" fill="none" stroke="#1e1e1e" stroke-width="2"></path></g><g transform="translate(471.55092570369317 1836.627464483747) rotate(0 69.99999999999997 17.5)"><text direction="ltr" dominant-baseline="text-before-edge" fill="#1e1e1e" font-family="Virgil, Segoe UI Emoji" font-size="28px" style="white-space: pre;" text-anchor="middle" x="70" y="0">1722974731</text></g><g stroke-linecap="round" transform="translate(388.2281889323905 1947.9236271716754) rotate(0 158.56016012244567 53.710922324456305)"><path d="M26.86 0 C115.46 -0.08, 205.06 0.1, 290.26 0 M26.86 0 C115.91 1.3, 205.25 0.31, 290.26 0 M290.26 0 C307.27 1.34, 316.93 9.17, 317.12 26.86 M290.26 0 C306 -0.55, 315.57 8.79, 317.12 26.86 M317.12 26.86 C318.75 47.45, 315.41 64.61, 317.12 80.57 M317.12 26.86 C316.12 45.71, 316.83 65.01, 317.12 80.57 M317.12 80.57 C316.21 100.22, 308.34 107.35, 290.26 107.42 M317.12 80.57 C318.98 100.06, 310.42 106.07, 290.26 107.42 M290.26 107.42 C235.99 106.43, 180.55 107.2, 26.86 107.42 M290.26 107.42 C211.88 109.11, 132.41 109.21, 26.86 107.42 M26.86 107.42 C7.51 106.82, -1.88 100.41, 0 80.57 M26.86 107.42 C8.41 108.07, 0.43 100.62, 0 80.57 M0 80.57 C-1.55 67.28, 1.56 59.43, 0 26.86 M0 80.57 C-0.93 60.96, -1.07 38.93, 0 26.86 M0 26.86 C1.82 8.86, 8.08 -1.06, 26.86 0 M0 26.86 C1.76 7.5, 9.98 -0.46, 26.86 0" fill="none" stroke="#1e1e1e" stroke-width="2"></path></g><g transform="translate(477.30104436733615 1984.1345494961317) rotate(0 69.48730468749997 17.5)"><text direction="ltr" dominant-baseline="text-before-edge" fill="#1e1e1e" font-family="Virgil, Segoe UI Emoji" font-size="28px" style="white-space: pre;" text-anchor="middle" x="69.4873046875" y="0">1722932112</text></g><g stroke-linecap="round"><g transform="translate(215.29234704432145 1828.7206160246142) rotate(0 -0.7417074819832123 0)"><path d="M-0.14 0.13 C-0.37 0.07, -1.34 -0.15, -1.56 -0.12 M0.44 -0.11 C0.17 -0.14, -1.53 0.3, -1.87 0.26" fill="none" stroke="#1e1e1e" stroke-width="4"></path></g><g transform="translate(215.29234704432145 1828.7206160246142) rotate(0 -0.7417074819832123 0)"><path d="M-1.21 -0.07 C-1.37 0.01, -1.55 0.1, -1.87 0.26 M-1.21 -0.07 C-1.46 0.06, -1.7 0.18, -1.87 0.26" fill="none" stroke="#1e1e1e" stroke-width="4"></path></g><g transform="translate(215.29234704432145 1828.7206160246142) rotate(0 -0.7417074819832123 0)"><path d="M-1.15 0.43 C-1.32 0.38, -1.52 0.35, -1.87 0.26 M-1.15 0.43 C-1.42 0.38, -1.69 0.31, -1.87 0.26" fill="none" stroke="#1e1e1e" stroke-width="4"></path></g></g><mask></mask></svg>