<svg height="1200.438614970716" version="1.1" viewbox="0 0 936.603932148715 1200.438614970716" width="936.603932148715" xmlns="http://www.w3.org/2000/svg">
<!-- svg-source:excalidraw -->
<!-- payload-type:application/vnd.excalidraw+json --><!-- payload-version:2 -->
<defs>
<style class="style-fonts">
</style>
</defs>
<rect fill="#ffffff" height="1200.438614970716" width="936.603932148715" x="0" y="0"></rect><g mask="url(#mask-ecPQZU7thoVCsLNbfruYJ)" stroke-linecap="round"><g transform="translate(449.5480620664546 477.9184338022528) rotate(0 -0.17015593567089127 98.37127756354118)"><path d="M1.05 0.87 C0.91 33.79, -0.99 164.95, -1.05 197.77 M0.15 0.28 C0.41 32.86, 1.23 163.57, 1.29 196.18" fill="none" stroke="#1e1e1e" stroke-width="2"></path></g><g transform="translate(449.5480620664546 477.9184338022528) rotate(0 -0.17015593567089127 98.37127756354118)"><path d="M-9.09 168.04 C-4.61 174.8, -1.39 185.8, 1.29 196.18 M-9.09 168.04 C-4.79 179.51, -0.7 189.9, 1.29 196.18" fill="none" stroke="#1e1e1e" stroke-width="2"></path></g><g transform="translate(449.5480620664546 477.9184338022528) rotate(0 -0.17015593567089127 98.37127756354118)"><path d="M11.43 167.95 C10.05 174.91, 7.42 185.95, 1.29 196.18 M11.43 167.95 C7.87 179.61, 4.1 190.03, 1.29 196.18" fill="none" stroke="#1e1e1e" stroke-width="2"></path></g></g><mask id="mask-ecPQZU7thoVCsLNbfruYJ"><rect fill="#fff" height="774.6609889293352" width="549.8883739377964" x="0" y="0"></rect><rect fill="#000" height="35" opacity="1" width="42" x="428.3779061307837" y="558.7897113657941"></rect></mask><g transform="translate(428.3779061307837 558.789711365794) rotate(0 21.294442718325485 18.152711923485583)"><text direction="ltr" dominant-baseline="text-before-edge" fill="#1e1e1e" font-family="Segoe UI Emoji" font-size="28px" style="white-space: pre;" text-anchor="middle" x="21" y="0">LSI</text></g><g stroke-linecap="round" transform="translate(10 119.12424222779646) rotate(0 79.91318333142017 27.06991957689341)"><path d="M3.6 3.13 C3.6 3.13, 3.6 3.13, 3.6 3.13 M3.6 3.13 C3.6 3.13, 3.6 3.13, 3.6 3.13 M1.11 18.19 C4.72 15.18, 8.83 8.39, 16.86 0.08 M1.11 18.19 C7.12 12.44, 11.79 5.53, 16.86 0.08 M0.59 30.99 C10.44 18.63, 19.13 9.48, 26.83 0.8 M0.59 30.99 C9.38 22.25, 17.7 12.39, 26.83 0.8 M0.72 43.03 C15.18 26.53, 27.62 9.13, 37.46 0.76 M0.72 43.03 C13.67 26.88, 27.45 9.87, 37.46 0.76 M4.79 50.54 C16.42 39.82, 28.09 26.96, 48.09 0.73 M4.79 50.54 C19.98 33.03, 34.42 17.24, 48.09 0.73 M12.8 53.52 C28.04 35.4, 42.71 20.05, 58.72 0.7 M12.8 53.52 C27.53 35.85, 42.22 18.99, 58.72 0.7 M23.43 53.49 C34.89 38.38, 51.39 24.04, 69.35 0.66 M23.43 53.49 C35.23 39.5, 48.09 23.09, 69.35 0.66 M34.06 53.46 C47.92 34.39, 65.57 19.56, 79.98 0.63 M34.06 53.46 C50.46 35.17, 66.79 15.55, 79.98 0.63 M44.69 53.42 C60.85 35.32, 76.91 19.08, 90.61 0.59 M44.69 53.42 C54.11 42.21, 63.34 32.79, 90.61 0.59 M55.32 53.39 C68.12 36.83, 81.96 23, 101.24 0.56 M55.32 53.39 C72.72 33.35, 91.19 11.08, 101.24 0.56 M65.95 53.35 C81.84 33.06, 95.47 17.88, 111.22 1.28 M65.95 53.35 C79.87 37.67, 93.88 21.8, 111.22 1.28 M75.92 54.07 C89.28 41.26, 98.43 25.29, 121.85 1.24 M75.92 54.07 C88.34 39.65, 101.99 24.37, 121.85 1.24 M86.55 54.04 C105.33 35.21, 121.46 14.83, 132.48 1.21 M86.55 54.04 C94.82 43.9, 103.96 33.56, 132.48 1.21 M97.18 54 C112.99 36.04, 128.26 16.17, 143.11 1.17 M97.18 54 C106.51 41.94, 116.14 30.97, 143.11 1.17 M107.81 53.97 C125.4 35.44, 139.88 19.66, 153.08 1.89 M107.81 53.97 C120.52 38.84, 133.03 26.57, 153.08 1.89 M118.44 53.93 C128.17 41.98, 140.04 29.52, 158.46 7.9 M118.44 53.93 C129.47 40.94, 142.16 25.8, 158.46 7.9 M129.07 53.9 C139.25 45.55, 147.66 34.92, 159.91 18.43 M129.07 53.9 C138.39 42.97, 148.8 31.88, 159.91 18.43 M139.7 53.87 C144.06 47.64, 147.11 42.47, 159.38 31.22 M139.7 53.87 C143.89 49.82, 147.04 44.8, 159.38 31.22 M150.33 53.83 C151.93 51.49, 156.45 48.53, 159.52 43.27 M150.33 53.83 C152.13 50.61, 154.84 48.32, 159.52 43.27" fill="none" stroke="#2a9a8d" stroke-width="1"></path><path d="M13.53 0 C47.21 0.12, 79.06 -0.91, 146.29 0 M13.53 0 C63.11 0.07, 113.24 -1.4, 146.29 0 M146.29 0 C154.36 1.31, 160.67 4.81, 159.83 13.53 M146.29 0 C156.85 1.98, 161.27 3.79, 159.83 13.53 M159.83 13.53 C159.12 17.33, 159.3 26.24, 159.83 40.6 M159.83 13.53 C160.46 20.42, 159.55 25.27, 159.83 40.6 M159.83 40.6 C158.31 50.75, 154.48 55.14, 146.29 54.14 M159.83 40.6 C161.18 49.03, 156.39 52.8, 146.29 54.14 M146.29 54.14 C94.54 54.32, 43.34 53.32, 13.53 54.14 M146.29 54.14 C111.87 54.76, 78.89 53.53, 13.53 54.14 M13.53 54.14 C4.59 52.59, 0.09 50.87, 0 40.6 M13.53 54.14 C3.23 52.66, -1.59 50.27, 0 40.6 M0 40.6 C-0.89 33.64, -0.57 23.63, 0 13.53 M0 40.6 C-0.01 35.49, -0.01 29.84, 0 13.53 M0 13.53 C-0.29 3.7, 6.38 1.47, 13.53 0 M0 13.53 C-0.29 5.35, 6.03 -1.15, 13.53 0" fill="none" stroke="#1e1e1e" stroke-width="2"></path></g><g transform="translate(85.37818729870533 134.85237934307108) rotate(0 4.534996032714844 11.341782461618791)"><text direction="ltr" dominant-baseline="text-before-edge" fill="#1e1e1e" font-family="Virgil, Segoe UI Emoji" font-size="18.14685193859006px" style="white-space: pre;" text-anchor="middle" x="4.534996032714844" y="0">1</text></g><g stroke-linecap="round" transform="translate(205.34163520087532 120.36122627197074) rotate(0 79.91318333142017 27.06991957689341)"><path d="M13.53 0 C63.6 0.31, 111.35 -1.04, 146.29 0 M13.53 0 C60.39 1.86, 108.63 1.36, 146.29 0 M146.29 0 C156.65 1.72, 161.08 3.89, 159.83 13.53 M146.29 0 C153.16 -1.43, 160.8 3.9, 159.83 13.53 M159.83 13.53 C158.19 20.38, 160.11 25.91, 159.83 40.6 M159.83 13.53 C158.95 24.69, 159.29 35.22, 159.83 40.6 M159.83 40.6 C161 49.11, 156.25 52.98, 146.29 54.14 M159.83 40.6 C161.93 51.76, 153.96 54.4, 146.29 54.14 M146.29 54.14 C99.15 54.91, 53.36 52.31, 13.53 54.14 M146.29 54.14 C93.39 53.04, 40.46 54.43, 13.53 54.14 M13.53 54.14 C3.4 52.85, -1.39 50.18, 0 40.6 M13.53 54.14 C5.22 53.87, -0.05 48.57, 0 40.6 M0 40.6 C-1.67 30.23, -1.72 19.08, 0 13.53 M0 40.6 C-0.16 30.33, 0.92 21.6, 0 13.53 M0 13.53 C-0.25 5.24, 5.83 -1, 13.53 0 M0 13.53 C-0.1 2.74, 3.1 2.07, 13.53 0" fill="none" stroke="#1e1e1e" stroke-width="2"></path></g><g transform="translate(249.97985515338922 138.6112713783799) rotate(0 35.27496337890624 8.819874470484251)"><text direction="ltr" dominant-baseline="text-before-edge" fill="#1e1e1e" font-family="Virgil, Segoe UI Emoji" font-size="14.111799152774797px" style="white-space: pre;" text-anchor="middle" x="35.27496337890625" y="0">1722973423</text></g><g stroke-linecap="round" transform="translate(383.1288884403166 120.07623550015796) rotate(0 79.91318333142016 27.06991957689341)"><path d="M13.53 0 C57.78 -0.01, 97.95 -0.39, 146.29 0 M13.53 0 C62.75 0.66, 111.26 -0.51, 146.29 0 M146.29 0 C153.44 -1.24, 160.67 3.98, 159.83 13.53 M146.29 0 C153.26 -0.42, 161.59 2.68, 159.83 13.53 M159.83 13.53 C161.7 22.32, 159.48 31.34, 159.83 40.6 M159.83 13.53 C160.3 22.91, 160.18 32.24, 159.83 40.6 M159.83 40.6 C161.66 51.48, 154.14 54.37, 146.29 54.14 M159.83 40.6 C160.93 50.78, 155.27 53.05, 146.29 54.14 M146.29 54.14 C103.18 52.22, 55.62 53.02, 13.53 54.14 M146.29 54.14 C116.17 54.32, 86.48 55.24, 13.53 54.14 M13.53 54.14 C5.13 53.9, -0.05 48.71, 0 40.6 M13.53 54.14 C6.8 53.45, 1.07 47.62, 0 40.6 M0 40.6 C1.54 32, 1.75 22.91, 0 13.53 M0 40.6 C-0.38 33.94, 0.41 26.05, 0 13.53 M0 13.53 C-0.08 2.97, 3.29 1.8, 13.53 0 M0 13.53 C1.87 3.04, 5.95 -1.91, 13.53 0" fill="none" stroke="#1e1e1e" stroke-width="2"></path></g><g transform="translate(449.4370836735922 135.80437261543258) rotate(0 13.604988098144531 11.341782461618791)"><text direction="ltr" dominant-baseline="text-before-edge" fill="#1e1e1e" font-family="Virgil, Segoe UI Emoji" font-size="18.14685193859006px" style="white-space: pre;" text-anchor="middle" x="13.604988098144531" y="0">123</text></g><g stroke-linecap="round" transform="translate(561.1014832924284 119.95096181065674) rotate(0 79.91318333142016 27.06991957689341)"><path d="M13.53 0 C50.82 1.48, 85.78 1.97, 146.29 0 M13.53 0 C63.83 -0.21, 116.41 0.15, 146.29 0 M146.29 0 C153.53 -0.36, 161.36 2.92, 159.83 13.53 M146.29 0 C156.62 0.38, 160.93 6.61, 159.83 13.53 M159.83 13.53 C160.9 19.65, 160.77 28.6, 159.83 40.6 M159.83 13.53 C160.87 21.88, 159.36 28.48, 159.83 40.6 M159.83 40.6 C160.79 50.63, 155.28 53.19, 146.29 54.14 M159.83 40.6 C160.74 49, 153.24 56.41, 146.29 54.14 M146.29 54.14 C109.7 54.28, 77.44 53.07, 13.53 54.14 M146.29 54.14 C115.32 54.39, 83.7 54.05, 13.53 54.14 M13.53 54.14 C6.5 53.54, 0.93 47.88, 0 40.6 M13.53 54.14 C5.01 52.07, 0.11 51.12, 0 40.6 M0 40.6 C-1.01 34.22, 1.27 23.84, 0 13.53 M0 40.6 C-0.22 30.73, -0.79 23.3, 0 13.53 M0 13.53 C1.63 3.23, 5.76 -1.66, 13.53 0 M0 13.53 C-2.27 4.09, 5.09 -0.13, 13.53 0" fill="none" stroke="#1e1e1e" stroke-width="2"></path></g><g transform="translate(636.4796705911338 135.67909892593136) rotate(0 4.534996032714844 11.341782461618791)"><text direction="ltr" dominant-baseline="text-before-edge" fill="#1e1e1e" font-family="Virgil, Segoe UI Emoji" font-size="18.14685193859006px" style="white-space: pre;" text-anchor="middle" x="4.534996032714844" y="0">0</text></g><g stroke-linecap="round" transform="translate(737.871707793056 119.50294411908635) rotate(0 79.91318333142016 27.06991957689341)"><path d="M13.53 0 C60.69 0.37, 103.78 -2.76, 146.29 0 M13.53 0 C44.23 0.17, 77.48 -0.44, 146.29 0 M146.29 0 C156.45 0.33, 160.79 6.34, 159.83 13.53 M146.29 0 C154.32 -0.45, 158.09 5.8, 159.83 13.53 M159.83 13.53 C159.44 21.46, 158.8 29.36, 159.83 40.6 M159.83 13.53 C160.15 24.67, 159.65 34.33, 159.83 40.6 M159.83 40.6 C160.62 49.08, 153.51 56.12, 146.29 54.14 M159.83 40.6 C159 49.05, 155.4 52.36, 146.29 54.14 M146.29 54.14 C104.57 52.01, 65.97 54.01, 13.53 54.14 M146.29 54.14 C109.02 53.23, 70.22 52.66, 13.53 54.14 M13.53 54.14 C4.94 52.34, 0.1 50.92, 0 40.6 M13.53 54.14 C4.63 55.88, -0.33 48.7, 0 40.6 M0 40.6 C0.53 31.28, -1.2 19.22, 0 13.53 M0 40.6 C0.98 33.93, 0.79 27.71, 0 13.53 M0 13.53 C-1.97 4.15, 5.01 -0.11, 13.53 0 M0 13.53 C-0.04 5.79, 3.35 -1.74, 13.53 0" fill="none" stroke="#1e1e1e" stroke-width="2"></path></g><g transform="translate(799.7615985829723 137.75298922549553) rotate(0 18.023292541503906 8.819874470484251)"><text direction="ltr" dominant-baseline="text-before-edge" fill="#1e1e1e" font-family="Virgil, Segoe UI Emoji" font-size="14.111799152774797px" style="white-space: pre;" text-anchor="middle" x="18.023292541503906" y="0">Hello!</text></g><g stroke-linecap="round" transform="translate(11.459146089202477 194.88544714062027) rotate(0 79.91318333142017 27.069919576893398)"><path d="M3.6 3.13 C3.6 3.13, 3.6 3.13, 3.6 3.13 M3.6 3.13 C3.6 3.13, 3.6 3.13, 3.6 3.13 M1.11 18.19 C3.83 14.2, 11.06 9.16, 16.86 0.08 M1.11 18.19 C6.98 11.97, 12.04 4.71, 16.86 0.08 M0.59 30.99 C8.03 21.87, 13.45 14.16, 26.83 0.8 M0.59 30.99 C6.44 25.16, 12.48 19.36, 26.83 0.8 M0.72 43.03 C13.99 28.27, 26.68 11.97, 37.46 0.76 M0.72 43.03 C14.17 28.95, 25.34 14.53, 37.46 0.76 M4.79 50.54 C19.65 34.58, 32.07 18, 48.09 0.73 M4.79 50.54 C19.55 33.55, 33.2 19.03, 48.09 0.73 M12.8 53.52 C28.02 33.76, 45.55 15.74, 58.72 0.7 M12.8 53.52 C23.02 41.48, 32.02 31.21, 58.72 0.7 M23.43 53.49 C39.86 37.06, 54.67 20.04, 69.35 0.66 M23.43 53.49 C35.87 38.68, 49.18 23.88, 69.35 0.66 M34.06 53.46 C50.72 34.67, 67.13 14.98, 79.98 0.63 M34.06 53.46 C50.26 33.02, 67.78 13.24, 79.98 0.63 M44.69 53.42 C60.8 30.78, 81.91 10.2, 90.61 0.59 M44.69 53.42 C54.92 41.6, 63.76 28.83, 90.61 0.59 M55.32 53.39 C71.17 35.49, 87.43 17.71, 101.24 0.56 M55.32 53.39 C66.85 40.08, 80.08 24.73, 101.24 0.56 M65.95 53.35 C76.45 41.24, 86.46 31.69, 111.22 1.28 M65.95 53.35 C80.3 37.81, 94.66 20.81, 111.22 1.28 M75.92 54.07 C92.93 33.1, 111.23 13.31, 121.85 1.24 M75.92 54.07 C92.82 34.82, 109.04 15.45, 121.85 1.24 M86.55 54.04 C99.7 38.53, 111.18 23.28, 132.48 1.21 M86.55 54.04 C98.92 40.77, 111.07 25.8, 132.48 1.21 M97.18 54 C116.32 34.3, 131.92 13.96, 143.11 1.17 M97.18 54 C116.48 32.83, 133.78 12.83, 143.11 1.17 M107.81 53.97 C120.18 39.31, 132.12 27.99, 153.08 1.89 M107.81 53.97 C118.5 41.96, 131.11 28.81, 153.08 1.89 M118.44 53.93 C133.61 35.53, 149.13 19.61, 158.46 7.9 M118.44 53.93 C131.1 39.99, 142.62 25.35, 158.46 7.9 M129.07 53.9 C134.52 46.53, 143.48 37.16, 159.91 18.43 M129.07 53.9 C138.13 41.81, 149.46 31.62, 159.91 18.43 M139.7 53.87 C147.76 43.6, 153.37 35.95, 159.38 31.22 M139.7 53.87 C144.5 46.65, 152.34 40.15, 159.38 31.22 M150.33 53.83 C154.82 48.44, 156.32 45.83, 159.52 43.27 M150.33 53.83 C152.8 51.25, 154.04 48.58, 159.52 43.27" fill="none" stroke="#2a9a8d" stroke-width="1"></path><path d="M13.53 0 C60.44 2.09, 109.28 -0.54, 146.29 0 M13.53 0 C51.53 1.22, 88.86 1.97, 146.29 0 M146.29 0 C154.45 -0.39, 158.31 5.63, 159.83 13.53 M146.29 0 C154.36 1.15, 161.18 3.91, 159.83 13.53 M159.83 13.53 C161.53 21.74, 159.9 33.26, 159.83 40.6 M159.83 13.53 C160.22 22.74, 158.92 33.49, 159.83 40.6 M159.83 40.6 C159.11 49.13, 155.39 52.59, 146.29 54.14 M159.83 40.6 C159.93 51.06, 154.03 52.66, 146.29 54.14 M146.29 54.14 C115.43 54.5, 84.12 56.53, 13.53 54.14 M146.29 54.14 C110.64 52.08, 74.61 53.63, 13.53 54.14 M13.53 54.14 C4.61 55.65, -0.29 48.82, 0 40.6 M13.53 54.14 C6.66 55.83, -0.29 50.46, 0 40.6 M0 40.6 C-1.41 29.47, 1.93 22.41, 0 13.53 M0 40.6 C-1.16 34.04, 0.08 27.78, 0 13.53 M0 13.53 C-0.04 5.62, 3.5 -1.51, 13.53 0 M0 13.53 C-2.29 3.16, 4.39 1.11, 13.53 0" fill="none" stroke="#1e1e1e" stroke-width="2"></path></g><g transform="translate(86.8373333879078 210.61358425589492) rotate(0 4.534996032714844 11.341782461618777)"><text direction="ltr" dominant-baseline="text-before-edge" fill="#1e1e1e" font-family="Virgil, Segoe UI Emoji" font-size="18.14685193859006px" style="white-space: pre;" text-anchor="middle" x="4.534996032714844" y="0">2</text></g><g stroke-linecap="round" transform="translate(206.89705894591134 196.40524679880855) rotate(0 79.91318333142017 27.069919576893398)"><path d="M13.53 0 C58.6 2.72, 102.79 2.32, 146.29 0 M13.53 0 C55.14 -1.41, 96.86 -0.65, 146.29 0 M146.29 0 C154.48 1, 161 3.99, 159.83 13.53 M146.29 0 C156.39 -1.34, 161.93 6.65, 159.83 13.53 M159.83 13.53 C160.86 20.03, 158.91 27.38, 159.83 40.6 M159.83 13.53 C159.22 20.66, 159.62 27.52, 159.83 40.6 M159.83 40.6 C159.92 50.87, 154.2 52.85, 146.29 54.14 M159.83 40.6 C158.23 50.27, 156.02 53.87, 146.29 54.14 M146.29 54.14 C106.18 56.39, 65.52 55.89, 13.53 54.14 M146.29 54.14 C118.46 55.75, 90.39 54.59, 13.53 54.14 M13.53 54.14 C6.38 55.61, -0.25 50.35, 0 40.6 M13.53 54.14 C6.03 52.99, -0.1 47.85, 0 40.6 M0 40.6 C-1.52 35.39, -1.9 25.7, 0 13.53 M0 40.6 C-0.09 33.53, -0.57 24.59, 0 13.53 M0 13.53 C-1.99 3.34, 4.4 0.96, 13.53 0 M0 13.53 C0.54 2.49, 5.8 -1.25, 13.53 0" fill="none" stroke="#1e1e1e" stroke-width="2"></path></g><g transform="translate(251.53527889842525 214.65529190521772) rotate(0 35.27496337890624 8.819874470484251)"><text direction="ltr" dominant-baseline="text-before-edge" fill="#1e1e1e" font-family="Virgil, Segoe UI Emoji" font-size="14.111799152774797px" style="white-space: pre;" text-anchor="middle" x="35.27496337890625" y="0">1722971753</text></g><g stroke-linecap="round" transform="translate(10.476412275378607 267.97952590128716) rotate(0 79.91318333142017 27.069919576893398)"><path d="M3.6 3.13 C3.6 3.13, 3.6 3.13, 3.6 3.13 M3.6 3.13 C3.6 3.13, 3.6 3.13, 3.6 3.13 M1.11 18.19 C7.55 11.13, 11.88 3.05, 16.86 0.08 M1.11 18.19 C6.22 11.31, 12.05 3.44, 16.86 0.08 M0.59 30.99 C8 25.23, 15.4 17.28, 26.83 0.8 M0.59 30.99 C10.01 20.11, 18.66 10.97, 26.83 0.8 M0.72 43.03 C13.01 28.34, 24.77 16.32, 37.46 0.76 M0.72 43.03 C12.54 28.86, 24.23 15.45, 37.46 0.76 M4.79 50.54 C15.5 36.31, 31.25 22.82, 48.09 0.73 M4.79 50.54 C15.87 37.39, 28 21.83, 48.09 0.73 M12.8 53.52 C26.66 34.46, 44.31 19.63, 58.72 0.7 M12.8 53.52 C29.2 35.24, 45.53 15.62, 58.72 0.7 M23.43 53.49 C39.59 35.39, 55.65 19.15, 69.35 0.66 M23.43 53.49 C32.85 42.28, 42.08 32.86, 69.35 0.66 M34.06 53.46 C46.86 36.9, 60.7 23.07, 79.98 0.63 M34.06 53.46 C51.46 33.42, 69.93 11.14, 79.98 0.63 M44.69 53.42 C60.81 32.86, 74.66 17.42, 90.61 0.59 M44.69 53.42 C58.81 37.51, 73.01 21.42, 90.61 0.59 M55.32 53.39 C68.67 40.57, 77.83 24.61, 101.24 0.56 M55.32 53.39 C67.74 38.96, 81.39 23.68, 101.24 0.56 M65.95 53.35 C84.47 34.82, 100.35 14.73, 111.22 1.28 M65.95 53.35 C74.09 43.36, 83.09 33.17, 111.22 1.28 M75.92 54.07 C91.73 36.11, 107 16.24, 121.85 1.24 M75.92 54.07 C85.25 42.01, 94.88 31.04, 121.85 1.24 M86.55 54.04 C104.37 35.25, 119.08 19.21, 132.48 1.21 M86.55 54.04 C99.43 38.7, 112.12 26.23, 132.48 1.21 M97.18 54 C108.35 40.3, 121.7 26.14, 143.11 1.17 M97.18 54 C109.97 38.96, 124.42 21.8, 143.11 1.17 M107.81 53.97 C122.37 40.83, 135 25.34, 153.08 1.89 M107.81 53.97 C121.77 37.88, 136.68 21.62, 153.08 1.89 M118.44 53.93 C127.16 42.74, 134.53 32.6, 158.46 7.9 M118.44 53.93 C126.96 45.17, 134.34 35.27, 158.46 7.9 M129.07 53.9 C136.94 44.46, 148.8 34, 159.91 18.43 M129.07 53.9 C136.32 43.94, 144.79 35.36, 159.91 18.43 M139.7 53.87 C146.62 47.22, 154.84 38.73, 159.38 31.22 M139.7 53.87 C145.1 45.67, 152.45 38.62, 159.38 31.22 M150.33 53.83 C151.77 50.79, 152.99 48.16, 159.52 43.27 M150.33 53.83 C153.09 51.03, 155.42 48.28, 159.52 43.27" fill="none" stroke="#2a9a8d" stroke-width="1"></path><path d="M13.53 0 C63.88 0.21, 115.38 -1.62, 146.29 0 M13.53 0 C50.34 -0.24, 88.56 -1.01, 146.29 0 M146.29 0 C156.25 -1.16, 161.66 6.37, 159.83 13.53 M146.29 0 C153.96 0.26, 160.93 5.67, 159.83 13.53 M159.83 13.53 C159.15 19.8, 161.67 28.96, 159.83 40.6 M159.83 13.53 C159.88 21.6, 159.28 27.78, 159.83 40.6 M159.83 40.6 C158.44 50.18, 155.93 53.9, 146.29 54.14 M159.83 40.6 C159.77 48.57, 157.6 53.45, 146.29 54.14 M146.29 54.14 C98.47 54.52, 55.55 54.52, 13.53 54.14 M146.29 54.14 C97.37 54.34, 46.46 53.97, 13.53 54.14 M13.53 54.14 C5.83 53.14, -0.08 48.08, 0 40.6 M13.53 54.14 C3.1 56.21, 1.87 48.15, 0 40.6 M0 40.6 C-0.14 31.29, 0.11 20.93, 0 13.53 M0 40.6 C-0.86 30.39, 0.08 21.84, 0 13.53 M0 13.53 C0.47 2.75, 5.63 -1.08, 13.53 0 M0 13.53 C-0.75 5.21, 6 -1.46, 13.53 0" fill="none" stroke="#1e1e1e" stroke-width="2"></path></g><g transform="translate(85.85459957408393 283.7076630165618) rotate(0 4.534996032714844 11.341782461618777)"><text direction="ltr" dominant-baseline="text-before-edge" fill="#1e1e1e" font-family="Virgil, Segoe UI Emoji" font-size="18.14685193859006px" style="white-space: pre;" text-anchor="middle" x="4.534996032714844" y="0">1</text></g><g stroke-linecap="round" transform="translate(205.70169577075103 269.1081975826464) rotate(0 79.91318333142017 27.069919576893398)"><path d="M13.53 0 C59.36 -0.94, 107.1 -0.25, 146.29 0 M13.53 0 C60.47 -0.23, 107.39 1.28, 146.29 0 M146.29 0 C154.14 0.23, 160.79 5.52, 159.83 13.53 M146.29 0 C155.27 -1.09, 160.74 3.88, 159.83 13.53 M159.83 13.53 C159.59 19.29, 158.55 24.98, 159.83 40.6 M159.83 13.53 C158.98 23.62, 159.98 33.03, 159.83 40.6 M159.83 40.6 C159.78 48.71, 157.3 53.54, 146.29 54.14 M159.83 40.6 C160.9 47.62, 155.81 52.07, 146.29 54.14 M146.29 54.14 C107.33 53.92, 64.54 56.07, 13.53 54.14 M146.29 54.14 C97.35 54.12, 47.05 53.85, 13.53 54.14 M13.53 54.14 C3.29 55.94, 1.63 48.35, 0 40.6 M13.53 54.14 C5.95 52.23, -2.27 49.21, 0 40.6 M0 40.6 C1.13 30.79, -1.5 21.02, 0 13.53 M0 40.6 C0.25 33.2, 0.58 27, 0 13.53 M0 13.53 C-0.65 5.12, 5.81 -1.27, 13.53 0 M0 13.53 C0.43 5.61, 6.53 -0.48, 13.53 0" fill="none" stroke="#1e1e1e" stroke-width="2"></path></g><g transform="translate(250.33991572326494 287.3582426890556) rotate(0 35.27496337890624 8.819874470484251)"><text direction="ltr" dominant-baseline="text-before-edge" fill="#1e1e1e" font-family="Virgil, Segoe UI Emoji" font-size="14.111799152774797px" style="white-space: pre;" text-anchor="middle" x="35.27496337890625" y="0">1722974731</text></g><g stroke-linecap="round" transform="translate(383.4859403334485 268.5859878636156) rotate(0 79.91318333142016 27.069919576893398)"><path d="M13.53 0 C44.31 1.73, 72.56 1.48, 146.29 0 M13.53 0 C45.07 -1.12, 78.26 -0.73, 146.29 0 M146.29 0 C155.28 -0.95, 160.62 3.96, 159.83 13.53 M146.29 0 C153.24 2.27, 159 3.94, 159.83 13.53 M159.83 13.53 C160.86 20.64, 158.33 28.6, 159.83 40.6 M159.83 13.53 C159.89 21.95, 160.9 30.98, 159.83 40.6 M159.83 40.6 C160.76 47.88, 155.74 52.34, 146.29 54.14 M159.83 40.6 C159.94 51.12, 155.43 55.88, 146.29 54.14 M146.29 54.14 C109.87 55.13, 71.23 56.7, 13.53 54.14 M146.29 54.14 C112.48 54.01, 80.71 52.47, 13.53 54.14 M13.53 54.14 C5.76 52.48, -1.97 49.26, 0 40.6 M13.53 54.14 C5.09 54.01, -0.04 50.91, 0 40.6 M0 40.6 C-0.97 33.75, 1.17 27.57, 0 13.53 M0 40.6 C-0.48 35.17, 0.5 28.49, 0 13.53 M0 13.53 C0.37 5.46, 6.27 -0.41, 13.53 0 M0 13.53 C1.15 2.3, 5.16 -0.67, 13.53 0" fill="none" stroke="#1e1e1e" stroke-width="2"></path></g><g transform="translate(449.79413556672415 284.3141249788903) rotate(0 13.604988098144531 11.341782461618777)"><text direction="ltr" dominant-baseline="text-before-edge" fill="#1e1e1e" font-family="Virgil, Segoe UI Emoji" font-size="18.14685193859006px" style="white-space: pre;" text-anchor="middle" x="13.604988098144531" y="0">125</text></g><g stroke-linecap="round" transform="translate(561.4585351855603 268.68290642249394) rotate(0 79.91318333142016 27.069919576893398)"><path d="M13.53 0 C60.02 1.21, 110.68 -1.8, 146.29 0 M13.53 0 C54.85 -1.14, 96.59 -0.94, 146.29 0 M146.29 0 C153.51 1.98, 159.11 4.01, 159.83 13.53 M146.29 0 C155.4 -1.78, 159.93 5.94, 159.83 13.53 M159.83 13.53 C160.21 20.76, 159.42 26.71, 159.83 40.6 M159.83 13.53 C160.56 19.54, 160.31 26.38, 159.83 40.6 M159.83 40.6 C159.92 50.92, 155.41 55.65, 146.29 54.14 M159.83 40.6 C159.49 48.7, 157.46 55.83, 146.29 54.14 M146.29 54.14 C107.13 54.93, 68.43 53.79, 13.53 54.14 M146.29 54.14 C95.16 52.46, 41.8 53.11, 13.53 54.14 M13.53 54.14 C5.01 54.03, -0.04 50.74, 0 40.6 M13.53 54.14 C3.35 52.4, -2.29 48.28, 0 40.6 M0 40.6 C-1.89 33.75, -1.21 24, 0 13.53 M0 40.6 C0.01 32.14, 0.7 22.51, 0 13.53 M0 13.53 C1 2.59, 5.08 -0.58, 13.53 0 M0 13.53 C0.46 5.18, 2.78 1.11, 13.53 0" fill="none" stroke="#1e1e1e" stroke-width="2"></path></g><g transform="translate(636.8367224842657 284.4110435377686) rotate(0 4.534996032714844 11.341782461618777)"><text direction="ltr" dominant-baseline="text-before-edge" fill="#1e1e1e" font-family="Virgil, Segoe UI Emoji" font-size="18.14685193859006px" style="white-space: pre;" text-anchor="middle" x="4.534996032714844" y="0">3</text></g><g stroke-linecap="round" transform="translate(738.3220286652777 268.23488873092447) rotate(0 79.91318333142016 27.069919576893398)"><path d="M13.53 0 C65.74 1.74, 118.5 0.75, 146.29 0 M13.53 0 C46.15 1.35, 80.21 0.11, 146.29 0 M146.29 0 C155.39 -1.55, 159.92 5.76, 159.83 13.53 M146.29 0 C154.03 -1.48, 158.23 5.15, 159.83 13.53 M159.83 13.53 C158.87 24.47, 159.2 32.37, 159.83 40.6 M159.83 13.53 C159.93 19.94, 159.93 25.81, 159.83 40.6 M159.83 40.6 C159.54 48.82, 157.18 55.61, 146.29 54.14 M159.83 40.6 C159.54 50.46, 156.84 52.99, 146.29 54.14 M146.29 54.14 C108.82 54.96, 66.47 54.58, 13.53 54.14 M146.29 54.14 C117.74 53.84, 88.67 54.45, 13.53 54.14 M13.53 54.14 C3.5 52.63, -1.99 48.45, 0 40.6 M13.53 54.14 C4.39 55.25, 0.54 47.61, 0 40.6 M0 40.6 C0.75 32.26, -1.12 21.7, 0 13.53 M0 40.6 C0.26 30.24, 0.04 21.5, 0 13.53 M0 13.53 C0.4 5.09, 3 0.96, 13.53 0 M0 13.53 C1.67 5.46, 5.71 1.99, 13.53 0" fill="none" stroke="#1e1e1e" stroke-width="2"></path></g><g transform="translate(762.4050041719909 286.48493383733364) rotate(0 55.83020782470703 8.819874470484251)"><text direction="ltr" dominant-baseline="text-before-edge" fill="#1e1e1e" font-family="Virgil, Segoe UI Emoji" font-size="14.111799152774797px" style="white-space: pre;" text-anchor="middle" x="55.83020782470703" y="0">How are you Evan?</text></g><g stroke-linecap="round" transform="translate(12.903406714376615 342.3622431839258) rotate(0 79.91318333142017 27.069919576893398)"><path d="M3.6 3.13 C3.6 3.13, 3.6 3.13, 3.6 3.13 M3.6 3.13 C3.6 3.13, 3.6 3.13, 3.6 3.13 M1.11 18.19 C6.62 12.48, 11.46 5.21, 16.86 0.08 M1.11 18.19 C7.41 12.29, 11.39 6.15, 16.86 0.08 M0.59 30.99 C10.04 21.45, 17.01 11.15, 26.83 0.8 M0.59 30.99 C9.75 20.35, 17.83 12.23, 26.83 0.8 M0.72 43.03 C12.81 26.9, 27.23 12.47, 37.46 0.76 M0.72 43.03 C8.95 33.25, 15.92 25.31, 37.46 0.76 M4.79 50.54 C20.38 35.12, 34.34 19.08, 48.09 0.73 M4.79 50.54 C16.5 36.6, 29.07 22.65, 48.09 0.73 M12.8 53.52 C29.46 34.74, 45.87 15.05, 58.72 0.7 M12.8 53.52 C29 33.09, 46.52 13.31, 58.72 0.7 M23.43 53.49 C39.54 30.85, 60.65 10.27, 69.35 0.66 M23.43 53.49 C33.66 41.67, 42.5 28.9, 69.35 0.66 M34.06 53.46 C49.91 35.56, 66.17 17.78, 79.98 0.63 M34.06 53.46 C45.59 40.15, 58.82 24.8, 79.98 0.63 M44.69 53.42 C55.33 41.15, 65.49 31.44, 90.61 0.59 M44.69 53.42 C59.24 37.64, 73.8 20.42, 90.61 0.59 M55.32 53.39 C72.33 32.41, 90.62 12.62, 101.24 0.56 M55.32 53.39 C72.22 34.13, 88.44 14.77, 101.24 0.56 M65.95 53.35 C78.9 38.06, 90.21 23.02, 111.22 1.28 M65.95 53.35 C78.14 40.28, 90.11 25.52, 111.22 1.28 M75.92 54.07 C95.06 34.37, 110.66 14.02, 121.85 1.24 M75.92 54.07 C95.22 32.9, 112.52 12.9, 121.85 1.24 M86.55 54.04 C99.09 39.19, 111.18 27.69, 132.48 1.21 M86.55 54.04 C97.4 41.85, 110.18 28.51, 132.48 1.21 M97.18 54 C114.59 33.06, 132.36 14.55, 143.11 1.17 M97.18 54 C111.71 38, 125.04 21.27, 143.11 1.17 M107.81 53.97 C116.46 43.16, 128.47 30.28, 153.08 1.89 M107.81 53.97 C121.51 36.65, 137.48 21.12, 153.08 1.89 M118.44 53.93 C134.27 34.9, 147.55 18.42, 158.46 7.9 M118.44 53.93 C129.21 39.47, 143.2 25.89, 158.46 7.9 M129.07 53.9 C142.49 38.14, 151.67 26.31, 159.91 18.43 M129.07 53.9 C136.62 45.63, 142.24 37.4, 159.91 18.43 M139.7 53.87 C144.13 49.18, 149.18 43.22, 159.38 31.22 M139.7 53.87 C147.42 44.57, 155.07 37.25, 159.38 31.22 M150.33 53.83 C151.76 51.83, 155.8 47.73, 159.52 43.27 M150.33 53.83 C154.56 49.53, 157.33 45.74, 159.52 43.27" fill="none" stroke="#2a9a8d" stroke-width="1"></path><path d="M13.53 0 C58.78 0.82, 105.37 -1.78, 146.29 0 M13.53 0 C66.51 -0.44, 119.46 0.95, 146.29 0 M146.29 0 C154.2 -1.29, 158.44 5.07, 159.83 13.53 M146.29 0 C156.02 -0.27, 159.77 3.45, 159.83 13.53 M159.83 13.53 C158 24.77, 157.95 35.25, 159.83 40.6 M159.83 13.53 C159.69 23, 160.77 34.01, 159.83 40.6 M159.83 40.6 C159.58 50.35, 156.64 53.14, 146.29 54.14 M159.83 40.6 C159.73 47.85, 153.91 56.21, 146.29 54.14 M146.29 54.14 C93.99 53, 44.64 55.47, 13.53 54.14 M146.29 54.14 C106.69 54.12, 67.12 54.29, 13.53 54.14 M13.53 54.14 C4.4 55.1, 0.47 47.87, 0 40.6 M13.53 54.14 C5.8 52.89, -0.75 50.33, 0 40.6 M0 40.6 C1.12 32.49, -0.24 21.85, 0 13.53 M0 40.6 C0.12 35.37, -0.83 30.05, 0 13.53 M0 13.53 C1.45 5.34, 5.55 1.73, 13.53 0 M0 13.53 C0.88 5.62, 5 0.01, 13.53 0" fill="none" stroke="#1e1e1e" stroke-width="2"></path></g><g transform="translate(88.28159401308194 358.09038029920043) rotate(0 4.534996032714844 11.341782461618777)"><text direction="ltr" dominant-baseline="text-before-edge" fill="#1e1e1e" font-family="Virgil, Segoe UI Emoji" font-size="18.14685193859006px" style="white-space: pre;" text-anchor="middle" x="4.534996032714844" y="0">1</text></g><g stroke-linecap="round" transform="translate(208.34131957108548 343.45071034357807) rotate(0 79.91318333142017 27.069919576893398)"><path d="M13.53 0 C60.59 0.48, 103.2 1.27, 146.29 0 M13.53 0 C42.54 -1.47, 71.96 -0.55, 146.29 0 M146.29 0 C155.93 -0.23, 159.78 3.59, 159.83 13.53 M146.29 0 C157.6 -0.69, 160.9 2.5, 159.83 13.53 M159.83 13.53 C160.88 22.34, 161.09 30.65, 159.83 40.6 M159.83 13.53 C159.95 20.92, 160.74 27.09, 159.83 40.6 M159.83 40.6 C159.74 48.08, 154.09 55.94, 146.29 54.14 M159.83 40.6 C161.7 48.15, 156.76 52.23, 146.29 54.14 M146.29 54.14 C119.46 54.43, 93.95 53.46, 13.53 54.14 M146.29 54.14 C116.44 53.84, 86.93 52.48, 13.53 54.14 M13.53 54.14 C5.63 53.06, -0.65 50.24, 0 40.6 M13.53 54.14 C6 52.68, 0.43 50.72, 0 40.6 M0 40.6 C-1.87 30.67, -0.53 20, 0 13.53 M0 40.6 C0.93 32.11, 0.72 23.66, 0 13.53 M0 13.53 C0.76 5.48, 4.93 0.01, 13.53 0 M0 13.53 C-1.54 3.29, 6.32 1.01, 13.53 0" fill="none" stroke="#1e1e1e" stroke-width="2"></path></g><g transform="translate(253.23790134000564 361.70075544998724) rotate(0 35.01660156249999 8.819874470484251)"><text direction="ltr" dominant-baseline="text-before-edge" fill="#1e1e1e" font-family="Virgil, Segoe UI Emoji" font-size="14.111799152774797px" style="white-space: pre;" text-anchor="middle" x="35.0166015625" y="0">1722932112</text></g><g stroke-linecap="round"><g transform="translate(375.7636701602314 99.55485725611834) rotate(0 0 156.18107082902108)"><path d="M0.05 -0.93 C0.13 51.31, 0.17 261.02, 0.06 313.11" fill="none" stroke="#74808b" stroke-dasharray="8 10" stroke-width="2.5"></path></g></g><mask></mask><g transform="translate(63.37105354403502 74.88170621545214) rotate(0 30.311920166015625 11.341782461618791)"><text direction="ltr" dominant-baseline="text-before-edge" fill="#1e1e1e" font-family="Virgil, Segoe UI Emoji" font-size="18.14685193859006px" style="white-space: pre;" text-anchor="start" x="0" y="0">chatId</text></g><g transform="translate(240.06215016178612 74.18071082644929) rotate(0 46.21160888671875 11.341782461618791)"><text direction="ltr" dominant-baseline="text-before-edge" fill="#1e1e1e" font-family="Virgil, Segoe UI Emoji" font-size="18.14685193859006px" style="white-space: pre;" text-anchor="start" x="0" y="0">messageId</text></g><g transform="translate(434.73970970477603 73.4891726499709) rotate(0 29.0421142578125 11.341782461618791)"><text direction="ltr" dominant-baseline="text-before-edge" fill="#1e1e1e" font-family="Virgil, Segoe UI Emoji" font-size="18.14685193859006px" style="white-space: pre;" text-anchor="start" x="0" y="0">userId</text></g><g transform="translate(787.1961526647028 73.60875461172418) rotate(0 33.259674072265625 11.341782461618791)"><text direction="ltr" dominant-baseline="text-before-edge" fill="#1e1e1e" font-family="Virgil, Segoe UI Emoji" font-size="18.14685193859006px" style="white-space: pre;" text-anchor="start" x="0" y="0">content</text></g><g stroke-linecap="round"><g transform="translate(89.69805719477199 451.7937395808922) rotate(0 -0.040738177059409963 -19.407831266754954)"><path d="M-0.01 -0.25 C0.04 -6.74, 0.43 -32.47, 0.46 -38.98 M-0.68 0.81 C-0.67 -5.6, 0.21 -31.74, 0.31 -38.36" fill="none" stroke="#74808b" stroke-width="2"></path></g><g transform="translate(89.69805719477199 451.7937395808922) rotate(0 -0.040738177059409963 -19.407831266754954)"><path d="M6.48 -19.96 C4.01 -25.09, 2.12 -31.68, 0.31 -38.36 M6.48 -19.96 C5.17 -23.59, 3.86 -27.45, 0.31 -38.36" fill="none" stroke="#74808b" stroke-width="2"></path></g><g transform="translate(89.69805719477199 451.7937395808922) rotate(0 -0.040738177059409963 -19.407831266754954)"><path d="M-6.79 -20.3 C-4.88 -25.31, -2.37 -31.8, 0.31 -38.36 M-6.79 -20.3 C-5.27 -23.8, -3.76 -27.59, 0.31 -38.36" fill="none" stroke="#74808b" stroke-width="2"></path></g></g><mask></mask><g transform="translate(30.377653172123246 455.92293301149493) rotate(0 63.66228485107422 11.339838604908323)"><text direction="ltr" dominant-baseline="text-before-edge" fill="#74808b" font-family="Virgil, Segoe UI Emoji" font-size="18.14374176785331px" style="white-space: pre;" text-anchor="start" x="0" y="0">Partition Keys</text></g><g stroke-linecap="round"><g transform="translate(284.7466977353197 452.1386580072149) rotate(0 0.479555096606191 -18.94678348436338)"><path d="M0.26 -0.48 C0.35 -6.85, 0.96 -32.21, 1.08 -38.39 M-0.28 0.46 C-0.3 -5.84, 0.55 -31.46, 0.71 -37.94" fill="none" stroke="#74808b" stroke-width="2"></path></g><g transform="translate(284.7466977353197 452.1386580072149) rotate(0 0.479555096606191 -18.94678348436338)"><path d="M6.68 -19.96 C3.49 -26.92, 1.08 -34.26, 0.71 -37.94 M6.68 -19.96 C4.43 -26.68, 2.76 -32.7, 0.71 -37.94" fill="none" stroke="#74808b" stroke-width="2"></path></g><g transform="translate(284.7466977353197 452.1386580072149) rotate(0 0.479555096606191 -18.94678348436338)"><path d="M-6.28 -20.33 C-4.29 -27.17, -1.53 -34.37, 0.71 -37.94 M-6.28 -20.33 C-3.81 -26.97, -0.75 -32.85, 0.71 -37.94" fill="none" stroke="#74808b" stroke-width="2"></path></g></g><mask></mask><g transform="translate(247.867837771033 456.2678514378176) rotate(0 38.873992919921875 11.339838604908323)"><text direction="ltr" dominant-baseline="text-before-edge" fill="#74808b" font-family="Virgil, Segoe UI Emoji" font-size="18.14374176785331px" style="white-space: pre;" text-anchor="start" x="0" y="0">Sort Key</text></g><g stroke-linecap="round" transform="translate(385.8538413539318 195.72947263175683) rotate(0 79.91318333142016 27.069919576893398)"><path d="M13.53 0 C57.51 0.04, 100.41 -0.36, 146.29 0 M13.53 0 C47.87 -0.61, 83.11 -1.48, 146.29 0 M146.29 0 C155.23 -1.54, 158.6 6.31, 159.83 13.53 M146.29 0 C157.19 -1.47, 161.27 2.6, 159.83 13.53 M159.83 13.53 C159.67 18.95, 160.89 23.42, 159.83 40.6 M159.83 13.53 C159.5 20.09, 159.79 24.81, 159.83 40.6 M159.83 40.6 C160.95 48.54, 154.66 54.75, 146.29 54.14 M159.83 40.6 C161.32 48.17, 155.74 55.23, 146.29 54.14 M146.29 54.14 C92.87 55.37, 42.71 55.2, 13.53 54.14 M146.29 54.14 C103.34 55.19, 59.46 55.64, 13.53 54.14 M13.53 54.14 C5.28 55.11, 0.42 49.64, 0 40.6 M13.53 54.14 C2.98 52.92, 1.81 50.64, 0 40.6 M0 40.6 C-1.6 28.98, -0.78 21.63, 0 13.53 M0 40.6 C0.75 32.43, 0.27 22.83, 0 13.53 M0 13.53 C-0.31 5.58, 3.16 0.58, 13.53 0 M0 13.53 C0.98 4.89, 3.52 2.15, 13.53 0" fill="none" stroke="#1e1e1e" stroke-width="2"></path></g><g transform="translate(452.1620365872074 211.45760974703148) rotate(0 13.604988098144531 11.341782461618777)"><text direction="ltr" dominant-baseline="text-before-edge" fill="#1e1e1e" font-family="Virgil, Segoe UI Emoji" font-size="18.14685193859006px" style="white-space: pre;" text-anchor="middle" x="13.604988098144531" y="0">124</text></g><g stroke-linecap="round" transform="translate(563.7331672269538 196.02888822203113) rotate(0 79.91318333142016 27.069919576893398)"><path d="M13.53 0 C53.22 2.06, 95.99 -0.06, 146.29 0 M13.53 0 C58.14 -0.11, 102.22 1.56, 146.29 0 M146.29 0 C156.94 -1.28, 161.08 2.85, 159.83 13.53 M146.29 0 C153.04 -0.42, 160.4 4.38, 159.83 13.53 M159.83 13.53 C158.47 19.62, 158.8 29.57, 159.83 40.6 M159.83 13.53 C160.45 22.42, 159.56 32.69, 159.83 40.6 M159.83 40.6 C161.12 48.36, 155.69 55.09, 146.29 54.14 M159.83 40.6 C161.85 49.15, 156.47 51.93, 146.29 54.14 M146.29 54.14 C103.3 52.9, 60.11 55.85, 13.53 54.14 M146.29 54.14 C101.37 55.77, 55.9 55.29, 13.53 54.14 M13.53 54.14 C3.18 53.08, 1.57 50.51, 0 40.6 M13.53 54.14 C5.89 52.36, 0.16 47.55, 0 40.6 M0 40.6 C0.72 35.95, 2.01 31.21, 0 13.53 M0 40.6 C-0.26 31.02, -0.78 20.65, 0 13.53 M0 13.53 C0.85 4.84, 3.65 1.87, 13.53 0 M0 13.53 C0.55 3.4, 5.21 0.46, 13.53 0" fill="none" stroke="#1e1e1e" stroke-width="2"></path></g><g transform="translate(639.1113545256592 211.75702533730578) rotate(0 4.534996032714844 11.341782461618777)"><text direction="ltr" dominant-baseline="text-before-edge" fill="#1e1e1e" font-family="Virgil, Segoe UI Emoji" font-size="18.14685193859006px" style="white-space: pre;" text-anchor="middle" x="4.534996032714844" y="0">1</text></g><g stroke-linecap="round" transform="translate(740.6899296857591 195.2851045199759) rotate(0 79.91318333142016 27.069919576893398)"><path d="M13.53 0 C66.48 1.49, 116.98 0.08, 146.29 0 M13.53 0 C43.92 -1.83, 73.31 -2.02, 146.29 0 M146.29 0 C153.34 -0.36, 160.33 4.4, 159.83 13.53 M146.29 0 C155.27 1.28, 158.66 2.77, 159.83 13.53 M159.83 13.53 C160.63 19.43, 157.91 25.52, 159.83 40.6 M159.83 13.53 C160.39 19.56, 159.92 27.32, 159.83 40.6 M159.83 40.6 C161.59 49.21, 156.32 52.22, 146.29 54.14 M159.83 40.6 C160.48 48.96, 155.77 54.81, 146.29 54.14 M146.29 54.14 C117.3 56.14, 88.38 55.87, 13.53 54.14 M146.29 54.14 C99.38 53.61, 54.59 54.59, 13.53 54.14 M13.53 54.14 C5.71 52.59, 0.14 47.82, 0 40.6 M13.53 54.14 C2.35 53, 0.58 50.3, 0 40.6 M0 40.6 C1.23 32.03, -0.13 21.58, 0 13.53 M0 40.6 C0.61 31.21, -0.25 22.41, 0 13.53 M0 13.53 C0.48 3.54, 5.12 0.4, 13.53 0 M0 13.53 C0.62 6.48, 5.82 0.4, 13.53 0" fill="none" stroke="#1e1e1e" stroke-width="2"></path></g><g transform="translate(775.7377947188395 213.53514962638508) rotate(0 44.865318298339844 8.819874470484251)"><text direction="ltr" dominant-baseline="text-before-edge" fill="#1e1e1e" font-family="Virgil, Segoe UI Emoji" font-size="14.111799152774797px" style="white-space: pre;" text-anchor="middle" x="44.865318298339844" y="0">What time is it?</text></g><g stroke-linecap="round" transform="translate(387.5939679453568 342.3755500882444) rotate(0 79.91318333142016 27.069919576893398)"><path d="M13.53 0 C60.6 -1.17, 112.55 1.69, 146.29 0 M13.53 0 C43.87 0.92, 76.43 1.05, 146.29 0 M146.29 0 C155.28 1.11, 158.81 3, 159.83 13.53 M146.29 0 C153.03 -1.35, 159.7 5.62, 159.83 13.53 M159.83 13.53 C158.5 21.64, 160.2 32.34, 159.83 40.6 M159.83 13.53 C160.76 19.74, 160.38 25.39, 159.83 40.6 M159.83 40.6 C160.39 49.05, 155.71 54.72, 146.29 54.14 M159.83 40.6 C158.09 50.73, 156.98 55.09, 146.29 54.14 M146.29 54.14 C100.53 55.07, 52.85 53.31, 13.53 54.14 M146.29 54.14 C114.12 53.95, 80.81 53.82, 13.53 54.14 M13.53 54.14 C2.63 53.15, 0.51 50.22, 0 40.6 M13.53 54.14 C5.56 56.3, 2.02 51.33, 0 40.6 M0 40.6 C1.05 30.07, 0.56 23.09, 0 13.53 M0 40.6 C0.36 31.55, 0.42 23.67, 0 13.53 M0 13.53 C0.54 6.23, 5.65 0.34, 13.53 0 M0 13.53 C-0.33 4.17, 5.12 -0.37, 13.53 0" fill="none" stroke="#1e1e1e" stroke-width="2"></path></g><g transform="translate(453.9021631786324 358.10368720351903) rotate(0 13.604988098144531 11.341782461618777)"><text direction="ltr" dominant-baseline="text-before-edge" fill="#1e1e1e" font-family="Virgil, Segoe UI Emoji" font-size="18.14685193859006px" style="white-space: pre;" text-anchor="middle" x="13.604988098144531" y="0">126</text></g><g stroke-linecap="round" transform="translate(565.5665627974686 342.7585872698901) rotate(0 79.91318333142016 27.069919576893398)"><path d="M13.53 0 C43.95 0.17, 75.27 -3.06, 146.29 0 M13.53 0 C50.93 0.63, 87.86 -0.68, 146.29 0 M146.29 0 C153.33 -1.18, 159.72 5.47, 159.83 13.53 M146.29 0 C155.85 -2.02, 161.12 3.27, 159.83 13.53 M159.83 13.53 C158.64 21.14, 160.86 29.76, 159.83 40.6 M159.83 13.53 C160.24 20.8, 160.16 28.95, 159.83 40.6 M159.83 40.6 C158.32 50.59, 156.76 54.96, 146.29 54.14 M159.83 40.6 C161.02 51.62, 156.19 55.25, 146.29 54.14 M146.29 54.14 C102.61 54.82, 61.94 54.45, 13.53 54.14 M146.29 54.14 C115.8 52.44, 87.44 53.23, 13.53 54.14 M13.53 54.14 C5.43 56.02, 1.75 51.11, 0 40.6 M13.53 54.14 C5.41 54.28, -0.35 50.86, 0 40.6 M0 40.6 C0.25 33.45, 1.79 28.51, 0 13.53 M0 40.6 C0.19 34.65, 0.49 27.15, 0 13.53 M0 13.53 C-0.29 4.21, 5.04 -0.33, 13.53 0 M0 13.53 C-0.68 5.77, 2.53 0.15, 13.53 0" fill="none" stroke="#1e1e1e" stroke-width="2"></path></g><g transform="translate(640.944750096174 358.48672438516473) rotate(0 4.534996032714844 11.341782461618777)"><text direction="ltr" dominant-baseline="text-before-edge" fill="#1e1e1e" font-family="Virgil, Segoe UI Emoji" font-size="18.14685193859006px" style="white-space: pre;" text-anchor="middle" x="4.534996032714844" y="0">2</text></g><g stroke-linecap="round" transform="translate(742.3367872980962 342.12072861138677) rotate(0 79.91318333142016 27.069919576893398)"><path d="M13.53 0 C61.31 1.81, 109.71 1.27, 146.29 0 M13.53 0 C59.74 0.41, 107.88 1.48, 146.29 0 M146.29 0 C155.78 -1.76, 160.95 3.43, 159.83 13.53 M146.29 0 C154.56 0.7, 161.32 3.06, 159.83 13.53 M159.83 13.53 C159.54 23.16, 158.03 31.35, 159.83 40.6 M159.83 13.53 C159.13 21.35, 160.6 28.61, 159.83 40.6 M159.83 40.6 C160.87 51.36, 156.08 55.11, 146.29 54.14 M159.83 40.6 C160.31 49.64, 153.78 52.92, 146.29 54.14 M146.29 54.14 C94.49 55.07, 43.99 53.05, 13.53 54.14 M146.29 54.14 C113.52 55.47, 80.71 55.27, 13.53 54.14 M13.53 54.14 C5.3 54.26, -0.31 50.7, 0 40.6 M13.53 54.14 C2.95 54.8, 0.98 50.01, 0 40.6 M0 40.6 C-1.22 34.26, 0.14 27.24, 0 13.53 M0 40.6 C-0.3 30.01, 0.11 19.56, 0 13.53 M0 13.53 C-0.59 5.6, 2.79 0.13, 13.53 0 M0 13.53 C2 5.41, 4.08 1.44, 13.53 0" fill="none" stroke="#1e1e1e" stroke-width="2"></path></g><g transform="translate(783.2580425289304 360.37077371779594) rotate(0 38.99192810058594 8.819874470484251)"><text direction="ltr" dominant-baseline="text-before-edge" fill="#1e1e1e" font-family="Virgil, Segoe UI Emoji" font-size="14.111799152774797px" style="white-space: pre;" text-anchor="middle" x="38.99192810058594" y="0">Lol, now way</text></g><g transform="translate(392.4523474151538 10) rotate(0 65.76124572753906 15.2010762595349)"><text direction="ltr" dominant-baseline="text-before-edge" fill="#1e1e1e" font-family="Virgil, Segoe UI Emoji" font-size="24.32172201525584px" style="white-space: pre;" text-anchor="start" x="0" y="0">Main Table</text></g><g stroke-linecap="round" transform="translate(18.503581676210615 830.6153285508763) rotate(0 79.91318333142017 27.069919576893426)"><path d="M3.6 3.13 C3.6 3.13, 3.6 3.13, 3.6 3.13 M3.6 3.13 C3.6 3.13, 3.6 3.13, 3.6 3.13 M1.11 18.19 C6.28 14.9, 7.26 10.6, 16.86 0.08 M1.11 18.19 C5.56 14.24, 9.38 9.5, 16.86 0.08 M0.59 30.99 C5.17 26.32, 14.38 17.91, 26.83 0.8 M0.59 30.99 C5.95 23.59, 12.55 18.82, 26.83 0.8 M0.72 43.03 C11.25 30.33, 25.13 15.33, 37.46 0.76 M0.72 43.03 C11.77 30.73, 20.99 19.38, 37.46 0.76 M4.79 50.54 C12.64 37.86, 22.84 28.45, 48.09 0.73 M4.79 50.54 C19.93 33.56, 35.19 15.94, 48.09 0.73 M12.8 53.52 C28.67 35.46, 43.81 16.74, 58.72 0.7 M12.8 53.52 C24.95 39.64, 38.46 25.51, 58.72 0.7 M23.43 53.49 C39.66 33.29, 55.72 15.3, 69.35 0.66 M23.43 53.49 C36.6 37.93, 51.15 21.87, 69.35 0.66 M34.06 53.46 C48.33 38.88, 61.89 21.27, 79.98 0.63 M34.06 53.46 C50.34 36.75, 64.59 18.19, 79.98 0.63 M44.69 53.42 C64.14 32.09, 79.96 12.78, 90.61 0.59 M44.69 53.42 C61.45 33.62, 77.85 14.39, 90.61 0.59 M55.32 53.39 C66.74 41.43, 78.19 24.83, 101.24 0.56 M55.32 53.39 C69.52 37.67, 82.11 21.69, 101.24 0.56 M65.95 53.35 C78.57 36.19, 91.37 21.43, 111.22 1.28 M65.95 53.35 C75.45 41.31, 86.9 28.29, 111.22 1.28 M75.92 54.07 C86.94 43.91, 95.51 30.37, 121.85 1.24 M75.92 54.07 C90.98 37.1, 107.27 20.57, 121.85 1.24 M86.55 54.04 C96.26 44.87, 105.58 31.8, 132.48 1.21 M86.55 54.04 C103.86 34.56, 119.29 17.18, 132.48 1.21 M97.18 54 C111.96 33.91, 129.73 17.93, 143.11 1.17 M97.18 54 C110.77 38.6, 124.97 21.25, 143.11 1.17 M107.81 53.97 C123.74 37.42, 137.43 23.71, 153.08 1.89 M107.81 53.97 C117.58 42.88, 127.79 29.23, 153.08 1.89 M118.44 53.93 C134.34 34.77, 150.07 18.64, 158.46 7.9 M118.44 53.93 C130.4 40.42, 141.87 27.56, 158.46 7.9 M129.07 53.9 C137.91 43.16, 144.84 34.58, 159.91 18.43 M129.07 53.9 C136.86 45.52, 144.49 36.32, 159.91 18.43 M139.7 53.87 C146.83 46.89, 152.57 40.06, 159.38 31.22 M139.7 53.87 C143.36 49.08, 147.74 43.13, 159.38 31.22 M150.33 53.83 C152.26 51.57, 155.78 48.03, 159.52 43.27 M150.33 53.83 C152.5 50.75, 155.43 48.72, 159.52 43.27" fill="none" stroke="#2a9a8d" stroke-width="1"></path><path d="M13.53 0 C51.6 -1.32, 91.51 0.57, 146.29 0 M13.53 0 C60.32 0.63, 105.65 1.47, 146.29 0 M146.29 0 C156.61 -1.27, 160.2 5.46, 159.83 13.53 M146.29 0 C157.34 -0.48, 160.98 2.3, 159.83 13.53 M159.83 13.53 C160.33 20.91, 160.71 32.75, 159.83 40.6 M159.83 13.53 C160.35 23.26, 160.18 32.01, 159.83 40.6 M159.83 40.6 C158.49 48.57, 156.88 55.02, 146.29 54.14 M159.83 40.6 C161.2 47.85, 155.48 52.06, 146.29 54.14 M146.29 54.14 C119.54 55.39, 93.49 56.23, 13.53 54.14 M146.29 54.14 C96.49 54.75, 46.32 54.51, 13.53 54.14 M13.53 54.14 C5.36 54.47, -0.87 51.5, 0 40.6 M13.53 54.14 C5.06 53.03, 0.7 50.09, 0 40.6 M0 40.6 C0.11 31.47, -0.53 23.44, 0 13.53 M0 40.6 C-0.78 32.99, 0.95 25.63, 0 13.53 M0 13.53 C-0.38 5.76, 4.07 -1.57, 13.53 0 M0 13.53 C1.74 2.59, 2.68 0.57, 13.53 0" fill="none" stroke="#1e1e1e" stroke-width="2"></path></g><g transform="translate(93.88176897491599 846.3434656661509) rotate(0 4.534996032714844 11.341782461618777)"><text direction="ltr" dominant-baseline="text-before-edge" fill="#1e1e1e" font-family="Virgil, Segoe UI Emoji" font-size="18.14685193859006px" style="white-space: pre;" text-anchor="middle" x="4.534996032714844" y="0">1</text></g><g stroke-linecap="round" transform="translate(19.96272776541491 906.3765334637019) rotate(0 79.91318333142017 27.069919576893426)"><path d="M3.6 3.13 C3.6 3.13, 3.6 3.13, 3.6 3.13 M3.6 3.13 C3.6 3.13, 3.6 3.13, 3.6 3.13 M4.39 14.42 C7.99 10.5, 11.67 5.57, 15.54 1.59 M4.39 14.42 C7.86 9.14, 12.42 4.22, 15.54 1.59 M4.53 26.46 C11.21 15.01, 22.64 5.58, 26.18 1.55 M4.53 26.46 C9.53 21.04, 13 14.44, 26.18 1.55 M4.66 38.5 C15.65 26.2, 27.06 14, 36.81 1.52 M4.66 38.5 C12.48 29.42, 22.07 18.27, 36.81 1.52 M4.14 51.3 C14.07 39.82, 23.53 30.91, 46.78 2.24 M4.14 51.3 C17.69 36.68, 31.23 20.63, 46.78 2.24 M10.83 55.79 C28.09 34.53, 46.63 14.46, 57.41 2.2 M10.83 55.79 C27.96 36.26, 44.41 16.62, 57.41 2.2 M21.46 55.75 C34.79 40.03, 46.46 24.58, 68.04 2.17 M21.46 55.75 C34 42.28, 46.33 27.11, 68.04 2.17 M32.09 55.72 C51.49 35.71, 67.35 15.07, 78.67 2.14 M32.09 55.72 C51.65 34.24, 69.21 13.95, 78.67 2.14 M42.06 56.44 C54.92 41.22, 67.35 29.34, 89.3 2.1 M42.06 56.44 C53.24 43.89, 66.34 30.18, 89.3 2.1 M52.69 56.41 C70.6 34.9, 88.87 15.81, 99.93 2.07 M52.69 56.41 C67.63 39.94, 81.36 22.75, 99.93 2.07 M63.32 56.37 C72.41 45.09, 84.83 31.73, 110.56 2.03 M63.32 56.37 C77.65 38.34, 94.25 22.08, 110.56 2.03 M73.95 56.34 C92.54 34.19, 108.54 14.57, 121.19 2 M73.95 56.34 C86.84 39.31, 103.02 23.21, 121.19 2 M84.58 56.3 C104.23 33.38, 119.67 14.35, 131.16 2.72 M84.58 56.3 C95.71 43.97, 104.75 31.81, 131.16 2.72 M95.21 56.27 C105.57 44.64, 116.52 31.89, 141.79 2.68 M95.21 56.27 C113.39 35.08, 131.46 15.77, 141.79 2.68 M105.84 56.23 C116.98 42.26, 132.15 25.61, 153.08 1.89 M105.84 56.23 C125.24 35.12, 142.49 14.43, 153.08 1.89 M115.82 56.95 C125.8 46.82, 134.45 34.78, 159.77 6.39 M115.82 56.95 C126.1 43.53, 137.27 32.03, 159.77 6.39 M126.45 56.92 C135.09 44.57, 145.69 35.18, 163.84 13.9 M126.45 56.92 C139.14 42.27, 151.07 28.76, 163.84 13.9 M137.08 56.88 C144.48 47.22, 155.97 35.02, 163.32 26.7 M137.08 56.88 C146.66 45.97, 156.85 34.98, 163.32 26.7 M148.36 56.1 C153.33 51.06, 160.95 42.49, 163.45 38.74 M148.36 56.1 C151.38 51.69, 156.37 46.23, 163.45 38.74" fill="none" stroke="#2a9a8d" stroke-width="1"></path><path d="M13.53 0 C41.13 0.54, 65.03 1.19, 146.29 0 M13.53 0 C46.82 -1.04, 78.99 0.07, 146.29 0 M146.29 0 C157.07 -0.41, 160.83 2.59, 159.83 13.53 M146.29 0 C155.96 -0.67, 160.28 5.18, 159.83 13.53 M159.83 13.53 C160.78 20.65, 161.68 26.46, 159.83 40.6 M159.83 13.53 C159.22 22.43, 160.67 32.83, 159.83 40.6 M159.83 40.6 C161.02 48.08, 155.46 52.33, 146.29 54.14 M159.83 40.6 C157.66 48.48, 155.9 54.82, 146.29 54.14 M146.29 54.14 C101.87 56.09, 54.61 55, 13.53 54.14 M146.29 54.14 C99.81 54.69, 52.04 55.46, 13.53 54.14 M13.53 54.14 C4.99 53.17, 0.61 50.03, 0 40.6 M13.53 54.14 C5.13 56.11, 1.31 50.02, 0 40.6 M0 40.6 C-0.28 32.28, 1.13 23.42, 0 13.53 M0 40.6 C-0.42 32.93, -0.46 23.22, 0 13.53 M0 13.53 C1.52 2.84, 2.92 0.49, 13.53 0 M0 13.53 C-1.58 5.04, 2.88 -2.07, 13.53 0" fill="none" stroke="#1e1e1e" stroke-width="2"></path></g><g transform="translate(95.34091506412028 922.1046705789765) rotate(0 4.534996032714844 11.341782461618777)"><text direction="ltr" dominant-baseline="text-before-edge" fill="#1e1e1e" font-family="Virgil, Segoe UI Emoji" font-size="18.14685193859006px" style="white-space: pre;" text-anchor="middle" x="4.534996032714844" y="0">2</text></g><g stroke-linecap="round" transform="translate(18.979993951587403 979.4706122243688) rotate(0 79.91318333142017 27.069919576893426)"><path d="M3.6 3.13 C3.6 3.13, 3.6 3.13, 3.6 3.13 M3.6 3.13 C3.6 3.13, 3.6 3.13, 3.6 3.13 M4.39 14.42 C9.61 10, 13.58 4, 15.54 1.59 M4.39 14.42 C8.04 12.13, 10.1 7.4, 15.54 1.59 M4.53 26.46 C7.72 21.91, 16.01 15.97, 26.18 1.55 M4.53 26.46 C12.4 18.46, 19.06 10.12, 26.18 1.55 M4.66 38.5 C14.85 24.94, 26.96 11.61, 36.81 1.52 M4.66 38.5 C15.88 24.47, 28.78 11.03, 36.81 1.52 M4.14 51.3 C14.54 40.84, 23.43 28.43, 46.78 2.24 M4.14 51.3 C19.15 33.5, 34.05 17.29, 46.78 2.24 M10.83 55.79 C23.64 43.47, 35.86 30.26, 57.41 2.2 M10.83 55.79 C24.59 38.76, 39.59 23.21, 57.41 2.2 M21.46 55.75 C34.01 42.29, 45.81 26.97, 68.04 2.17 M21.46 55.75 C39.95 35.35, 56.86 16.01, 68.04 2.17 M32.09 55.72 C51.64 34.53, 67.79 17.46, 78.67 2.14 M32.09 55.72 C45.38 39.42, 59.66 24.16, 78.67 2.14 M42.06 56.44 C50.52 44.8, 59.79 32.4, 89.3 2.1 M42.06 56.44 C58.5 37.94, 72.92 19.24, 89.3 2.1 M52.69 56.41 C64.05 41.55, 74.87 30.34, 99.93 2.07 M52.69 56.41 C66.68 39.05, 81.64 22.61, 99.93 2.07 M63.32 56.37 C77.62 40.66, 89.78 22.59, 110.56 2.03 M63.32 56.37 C73.6 44.54, 82.37 33.91, 110.56 2.03 M73.95 56.34 C84.33 46.7, 95.82 31.64, 121.19 2 M73.95 56.34 C87.62 41.25, 99.63 26.53, 121.19 2 M84.58 56.3 C93.36 43, 106.67 34.39, 131.16 2.72 M84.58 56.3 C96.63 42.15, 110.57 27.82, 131.16 2.72 M95.21 56.27 C111.63 39.11, 124 22.31, 141.79 2.68 M95.21 56.27 C106.11 43.73, 118.46 29.37, 141.79 2.68 M105.84 56.23 C124.94 35.75, 138.78 17.83, 153.08 1.89 M105.84 56.23 C117.6 42.2, 130.79 27.82, 153.08 1.89 M115.82 56.95 C132.25 38.27, 150.27 16.91, 159.77 6.39 M115.82 56.95 C124.25 45.88, 133.8 35.79, 159.77 6.39 M126.45 56.92 C135.52 47.34, 142.95 38.18, 163.84 13.9 M126.45 56.92 C136.07 45.92, 145.75 34.82, 163.84 13.9 M137.08 56.88 C146.58 45.34, 153.67 37.3, 163.32 26.7 M137.08 56.88 C144.57 48.83, 151.38 40.5, 163.32 26.7 M148.36 56.1 C153.31 50.48, 161.21 41.14, 163.45 38.74 M148.36 56.1 C153.68 49.8, 159.04 43.99, 163.45 38.74" fill="none" stroke="#2a9a8d" stroke-width="1"></path><path d="M13.53 0 C55.39 -1.4, 100.02 0.55, 146.29 0 M13.53 0 C45.84 -0.84, 76.89 -1.59, 146.29 0 M146.29 0 C155.88 -0.58, 160.22 5.09, 159.83 13.53 M146.29 0 C153.58 1.11, 161.49 5.46, 159.83 13.53 M159.83 13.53 C161.03 23.48, 160.07 31.25, 159.83 40.6 M159.83 13.53 C160.64 19.44, 160.11 26, 159.83 40.6 M159.83 40.6 C157.94 48.63, 155.82 54.73, 146.29 54.14 M159.83 40.6 C160.88 51.79, 157.33 55.84, 146.29 54.14 M146.29 54.14 C102.33 52.58, 56.81 54.79, 13.53 54.14 M146.29 54.14 C104.51 54.9, 62.55 55.58, 13.53 54.14 M13.53 54.14 C5.05 55.85, 1.14 49.97, 0 40.6 M13.53 54.14 C4.18 53.79, 0.61 49.25, 0 40.6 M0 40.6 C-0.01 35.03, 0.63 25.6, 0 13.53 M0 40.6 C0.82 29.96, -0.73 21.23, 0 13.53 M0 13.53 C-1.38 4.97, 3.09 -1.8, 13.53 0 M0 13.53 C1.53 5.11, 5.74 1.79, 13.53 0" fill="none" stroke="#1e1e1e" stroke-width="2"></path></g><g transform="translate(94.35818125029277 995.1987493396434) rotate(0 4.534996032714844 11.341782461618777)"><text direction="ltr" dominant-baseline="text-before-edge" fill="#1e1e1e" font-family="Virgil, Segoe UI Emoji" font-size="18.14685193859006px" style="white-space: pre;" text-anchor="middle" x="4.534996032714844" y="0">1</text></g><g stroke-linecap="round" transform="translate(21.406988390590868 1053.8533295070056) rotate(0 79.91318333142017 27.069919576893426)"><path d="M3.6 3.13 C3.6 3.13, 3.6 3.13, 3.6 3.13 M3.6 3.13 C3.6 3.13, 3.6 3.13, 3.6 3.13 M1.11 18.19 C4.82 12.15, 9.31 9.08, 16.86 0.08 M1.11 18.19 C6.59 11.67, 13.1 3.17, 16.86 0.08 M0.59 30.99 C10.04 18.4, 17.03 10.86, 26.83 0.8 M0.59 30.99 C8.82 21.84, 17.11 12.55, 26.83 0.8 M0.72 43.03 C11.72 32.88, 18.5 19.66, 37.46 0.76 M0.72 43.03 C10.55 31.6, 21.62 19.29, 37.46 0.76 M4.79 50.54 C22.55 32.89, 37.67 13.66, 48.09 0.73 M4.79 50.54 C12.56 41, 21.17 31.26, 48.09 0.73 M12.8 53.52 C28.6 35.57, 43.87 15.69, 58.72 0.7 M12.8 53.52 C22.13 41.46, 31.76 30.49, 58.72 0.7 M23.43 53.49 C41.25 34.7, 55.96 18.66, 69.35 0.66 M23.43 53.49 C36.31 38.15, 48.99 25.68, 69.35 0.66 M34.06 53.46 C45.23 39.75, 58.58 25.59, 79.98 0.63 M34.06 53.46 C46.84 38.41, 61.29 21.25, 79.98 0.63 M44.69 53.42 C59.44 40.07, 72.26 24.36, 90.61 0.59 M44.69 53.42 C58.86 37.1, 73.97 20.6, 90.61 0.59 M55.32 53.39 C65.3 40.75, 73.93 29.16, 101.24 0.56 M55.32 53.39 C65.09 43.25, 73.7 31.94, 101.24 0.56 M65.95 53.35 C78.36 38.96, 94.63 23.42, 111.22 1.28 M65.95 53.35 C77 39.03, 89.23 26.13, 111.22 1.28 M75.92 54.07 C92.62 36.17, 110.85 16.15, 121.85 1.24 M75.92 54.07 C89.67 36.19, 105.3 19.61, 121.85 1.24 M86.55 54.04 C95.27 41.48, 103.99 29.69, 132.48 1.21 M86.55 54.04 C99.84 39.02, 112.74 24.08, 132.48 1.21 M97.18 54 C109.56 38.79, 125.82 22.72, 143.11 1.17 M97.18 54 C114.59 34.93, 130.93 15.7, 143.11 1.17 M107.81 53.97 C120.12 38.55, 133.67 23.19, 153.08 1.89 M107.81 53.97 C122.78 36.77, 136.87 20.79, 153.08 1.89 M118.44 53.93 C131.07 37.48, 147.54 19.64, 158.46 7.9 M118.44 53.93 C126.59 43.92, 136.24 33.91, 158.46 7.9 M129.07 53.9 C137.61 42.75, 148.52 32.58, 159.91 18.43 M129.07 53.9 C137.51 45.11, 144.84 35.31, 159.91 18.43 M139.7 53.87 C143.24 51.04, 146.71 45.88, 159.38 31.22 M139.7 53.87 C146.04 48.04, 150.68 40.55, 159.38 31.22 M150.33 53.83 C153.93 50.25, 155.97 46.96, 159.52 43.27 M150.33 53.83 C152.19 51.71, 155.53 48.37, 159.52 43.27" fill="none" stroke="#2a9a8d" stroke-width="1"></path><path d="M13.53 0 C47.75 -0.49, 85.45 0.9, 146.29 0 M13.53 0 C50.89 0.98, 87.89 1.57, 146.29 0 M146.29 0 C153.81 0.96, 161.28 5.34, 159.83 13.53 M146.29 0 C156.51 1.99, 160.7 5.62, 159.83 13.53 M159.83 13.53 C158.77 23.8, 160.71 32.11, 159.83 40.6 M159.83 13.53 C158.9 19.06, 160.1 25.88, 159.83 40.6 M159.83 40.6 C160.74 51.5, 157.07 55.62, 146.29 54.14 M159.83 40.6 C160.73 49.77, 154.96 55.37, 146.29 54.14 M146.29 54.14 C115.79 53.84, 86.5 55.18, 13.53 54.14 M146.29 54.14 C113.15 55.26, 80.05 54.58, 13.53 54.14 M13.53 54.14 C4.22 53.84, 0.53 49.3, 0 40.6 M13.53 54.14 C3.83 55.4, -1.98 49.78, 0 40.6 M0 40.6 C1.14 29.68, -1.67 21.17, 0 13.53 M0 40.6 C-0.47 34.98, -0.49 27.98, 0 13.53 M0 13.53 C1.33 5.03, 5.58 1.55, 13.53 0 M0 13.53 C2.01 5.84, 6.34 1.56, 13.53 0" fill="none" stroke="#1e1e1e" stroke-width="2"></path></g><g transform="translate(96.78517568929624 1069.5814666222802) rotate(0 4.534996032714844 11.341782461618777)"><text direction="ltr" dominant-baseline="text-before-edge" fill="#1e1e1e" font-family="Virgil, Segoe UI Emoji" font-size="18.14685193859006px" style="white-space: pre;" text-anchor="middle" x="4.534996032714844" y="0">1</text></g><g stroke-linecap="round"><g transform="translate(384.26725183644203 811.045943579199) rotate(0 0 156.1810708290211)"><path d="M1.06 -0.25 C1.12 51.52, 0.72 259.17, 0.6 311.21" fill="none" stroke="#74808b" stroke-dasharray="8 10" stroke-width="2.5"></path></g></g><mask></mask><g transform="translate(71.87463522024746 786.3727925385328) rotate(0 30.311920166015625 11.341782461618777)"><text direction="ltr" dominant-baseline="text-before-edge" fill="#1e1e1e" font-family="Virgil, Segoe UI Emoji" font-size="18.14685193859006px" style="white-space: pre;" text-anchor="start" x="0" y="0">chatId</text></g><g stroke-linecap="round"><g transform="translate(99.6693746698354 1163.284825903972) rotate(0 -0.7746060764848508 -19.407831266754897)"><path d="M0.16 -0.16 C-0.13 -6.51, -1.09 -32.26, -1.44 -38.66 M-0.43 -0.72 C-0.8 -7.2, -1.74 -33.08, -1.82 -39.54" fill="none" stroke="#74808b" stroke-width="2"></path></g><g transform="translate(99.6693746698354 1163.284825903972) rotate(0 -0.7746060764848508 -19.407831266754897)"><path d="M5.3 -21.47 C2.61 -27.59, 0.69 -34.84, -1.82 -39.54 M5.3 -21.47 C3.01 -27.32, 0.47 -33.8, -1.82 -39.54" fill="none" stroke="#74808b" stroke-width="2"></path></g><g transform="translate(99.6693746698354 1163.284825903972) rotate(0 -0.7746060764848508 -19.407831266754897)"><path d="M-7.98 -21.12 C-6.02 -27.38, -3.29 -34.76, -1.82 -39.54 M-7.98 -21.12 C-5.65 -27.13, -3.57 -33.72, -1.82 -39.54" fill="none" stroke="#74808b" stroke-width="2"></path></g></g><mask></mask><g transform="translate(40.96399458639371 1167.4140193345766) rotate(0 63.66228485107422 11.339838604908323)"><text direction="ltr" dominant-baseline="text-before-edge" fill="#74808b" font-family="Virgil, Segoe UI Emoji" font-size="18.14374176785331px" style="white-space: pre;" text-anchor="start" x="0" y="0">Partition Keys</text></g><g stroke-linecap="round"><g transform="translate(293.2502794115321 1163.6297443302947) rotate(0 0.479555096606191 -18.946783484363436)"><path d="M-0.41 0.26 C-0.21 -6.04, 1.08 -31.39, 1.36 -37.67 M0.37 -0.08 C0.53 -6.56, 1.02 -32.16, 1.13 -38.52" fill="none" stroke="#74808b" stroke-width="2"></path></g><g transform="translate(293.2502794115321 1163.6297443302947) rotate(0 0.479555096606191 -18.946783484363436)"><path d="M7.28 -20.59 C5.75 -25.66, 3.71 -31.59, 1.13 -38.52 M7.28 -20.59 C4.97 -27.5, 2.18 -34.68, 1.13 -38.52" fill="none" stroke="#74808b" stroke-width="2"></path></g><g transform="translate(293.2502794115321 1163.6297443302947) rotate(0 0.479555096606191 -18.946783484363436)"><path d="M-5.68 -20.83 C-3.07 -25.77, -0.96 -31.63, 1.13 -38.52 M-5.68 -20.83 C-2.98 -27.68, -0.77 -34.77, 1.13 -38.52" fill="none" stroke="#74808b" stroke-width="2"></path></g></g><mask></mask><g transform="translate(256.37141944724544 1167.7589377608992) rotate(0 38.873992919921875 11.339838604908323)"><text direction="ltr" dominant-baseline="text-before-edge" fill="#74808b" font-family="Virgil, Segoe UI Emoji" font-size="18.14374176785331px" style="white-space: pre;" text-anchor="start" x="0" y="0">Sort Key</text></g><g transform="translate(354.9341225346002 721.3432516616149) rotate(0 134.83001708984375 15.201076259534887)"><text direction="ltr" dominant-baseline="text-before-edge" fill="#1e1e1e" font-family="Virgil, Segoe UI Emoji" font-size="24.32172201525584px" style="white-space: pre;" text-anchor="start" x="0" y="0">Local Secondary Index</text></g><g stroke-linecap="round" transform="translate(201.36267500316217 832.5009448313858) rotate(0 79.91318333142017 27.069919576893426)"><path d="M13.53 0 C61.23 -0.09, 106.99 -1.84, 146.29 0 M13.53 0 C46.91 -1.36, 79.15 -1.49, 146.29 0 M146.29 0 C153.43 -0.99, 160.33 5.1, 159.83 13.53 M146.29 0 C156.37 2.16, 161.84 6.21, 159.83 13.53 M159.83 13.53 C160.91 21.36, 160.42 32.75, 159.83 40.6 M159.83 13.53 C159.95 21.62, 160.01 30.87, 159.83 40.6 M159.83 40.6 C160.36 51.34, 156.46 54.48, 146.29 54.14 M159.83 40.6 C159.5 49.28, 155.92 53.77, 146.29 54.14 M146.29 54.14 C110.54 54.74, 75.31 52.62, 13.53 54.14 M146.29 54.14 C98.93 52.26, 49.25 53.35, 13.53 54.14 M13.53 54.14 C3.13 54.6, -1.42 47.83, 0 40.6 M13.53 54.14 C6.04 54.74, 1.23 51.41, 0 40.6 M0 40.6 C1.2 29.81, 0.64 20.21, 0 13.53 M0 40.6 C0.49 34.29, -1.06 27.48, 0 13.53 M0 13.53 C-0.75 5.58, 3.26 0.82, 13.53 0 M0 13.53 C1.63 4.73, 6.18 -1.77, 13.53 0" fill="none" stroke="#1e1e1e" stroke-width="2"></path></g><g transform="translate(274.39586108116436 847.0708644082792) rotate(0 6.879997253417962 12.5)"><text direction="ltr" dominant-baseline="text-before-edge" fill="#1e1e1e" font-family="Virgil, Segoe UI Emoji" font-size="20px" style="white-space: pre;" text-anchor="middle" x="6.879997253417969" y="0">0</text></g><g stroke-linecap="round" transform="translate(201.51722986489858 981.4631001774005) rotate(0 79.91318333142017 27.069919576893426)"><path d="M13.53 0 C58.44 -1.61, 102.26 1.29, 146.29 0 M13.53 0 C59.27 0.12, 103.93 0.53, 146.29 0 M146.29 0 C155.82 0.59, 160.74 6.39, 159.83 13.53 M146.29 0 C157.33 1.7, 160.73 4.65, 159.83 13.53 M159.83 13.53 C160.55 22.09, 160.3 28.08, 159.83 40.6 M159.83 13.53 C160.2 24.38, 160.16 35.69, 159.83 40.6 M159.83 40.6 C160.97 49.97, 155.03 53.84, 146.29 54.14 M159.83 40.6 C160.43 49.25, 154.63 55.4, 146.29 54.14 M146.29 54.14 C118.68 54.92, 90.76 54.85, 13.53 54.14 M146.29 54.14 C116.08 53.28, 86.76 53.26, 13.53 54.14 M13.53 54.14 C3.09 52.34, 1.33 50.15, 0 40.6 M13.53 54.14 C5.74 55.93, 2.01 50.95, 0 40.6 M0 40.6 C0.61 30.9, -1.01 20.78, 0 13.53 M0 40.6 C-1.12 33.82, -0.53 25.82, 0 13.53 M0 13.53 C-1.25 5.34, 5.93 0.19, 13.53 0 M0 13.53 C1.66 2.74, 3.32 -0.63, 13.53 0" fill="none" stroke="#1e1e1e" stroke-width="2"></path></g><g transform="translate(276.89541716360395 997.1912372926752) rotate(0 4.534996032714844 11.341782461618777)"><text direction="ltr" dominant-baseline="text-before-edge" fill="#1e1e1e" font-family="Virgil, Segoe UI Emoji" font-size="18.14685193859006px" style="white-space: pre;" text-anchor="middle" x="4.534996032714844" y="0">3</text></g><g stroke-linecap="round" transform="translate(204.08762791677555 908.4186295408354) rotate(0 79.91318333142017 27.069919576893426)"><path d="M13.53 0 C45.38 0.15, 73.91 -0.9, 146.29 0 M13.53 0 C41.63 0.95, 69.67 1.6, 146.29 0 M146.29 0 C157.07 1.48, 160.61 4.63, 159.83 13.53 M146.29 0 C154.96 1.23, 158.27 5.18, 159.83 13.53 M159.83 13.53 C161.74 23.29, 158.9 32.69, 159.83 40.6 M159.83 13.53 C160.47 22.37, 159.76 30.7, 159.83 40.6 M159.83 40.6 C160.35 49.3, 154.72 55.23, 146.29 54.14 M159.83 40.6 C157.85 49.78, 157.32 55.04, 146.29 54.14 M146.29 54.14 C107.39 55.36, 69.96 52.25, 13.53 54.14 M146.29 54.14 C102.48 53.55, 60.74 54.71, 13.53 54.14 M13.53 54.14 C5.58 55.69, 1.74 50.78, 0 40.6 M13.53 54.14 C6.34 55.7, -0.36 50.54, 0 40.6 M0 40.6 C-0.23 32.88, 1.48 20.9, 0 13.53 M0 40.6 C-0.52 30.54, 0.81 19.74, 0 13.53 M0 13.53 C1.45 2.97, 3.48 -0.55, 13.53 0 M0 13.53 C-1.63 6.79, 6.74 0.36, 13.53 0" fill="none" stroke="#1e1e1e" stroke-width="2"></path></g><g transform="translate(279.4658152154809 924.14676665611) rotate(0 4.534996032714844 11.341782461618777)"><text direction="ltr" dominant-baseline="text-before-edge" fill="#1e1e1e" font-family="Virgil, Segoe UI Emoji" font-size="18.14685193859006px" style="white-space: pre;" text-anchor="middle" x="4.534996032714844" y="0">1</text></g><g stroke-linecap="round" transform="translate(205.82775450820236 1054.9315989857414) rotate(0 79.91318333142017 27.069919576893426)"><path d="M13.53 0 C59.49 -1.98, 108.06 0.41, 146.29 0 M13.53 0 C58.14 -0.51, 101.38 -1.19, 146.29 0 M146.29 0 C155.01 1.07, 158.47 5.09, 159.83 13.53 M146.29 0 C156.29 0.38, 158.83 6.66, 159.83 13.53 M159.83 13.53 C160.09 22.84, 161.41 32.21, 159.83 40.6 M159.83 13.53 C160.05 21.96, 159.49 31.26, 159.83 40.6 M159.83 40.6 C158.1 49.76, 157.05 54.92, 146.29 54.14 M159.83 40.6 C159.39 51.07, 154.8 52.34, 146.29 54.14 M146.29 54.14 C96.9 51.71, 46.97 51.67, 13.53 54.14 M146.29 54.14 C118.97 55.26, 91.45 55.06, 13.53 54.14 M13.53 54.14 C6.1 55.49, -0.31 50.42, 0 40.6 M13.53 54.14 C5.16 53.19, 0.82 49.24, 0 40.6 M0 40.6 C1.56 30.16, 0.88 19.96, 0 13.53 M0 40.6 C0.53 30.6, -0.71 21.86, 0 13.53 M0 13.53 C-1.42 6.5, 6.45 0.31, 13.53 0 M0 13.53 C-1.97 2.82, 5.73 -1.11, 13.53 0" fill="none" stroke="#1e1e1e" stroke-width="2"></path></g><g transform="translate(281.20594180690773 1070.659736101016) rotate(0 4.534996032714844 11.341782461618777)"><text direction="ltr" dominant-baseline="text-before-edge" fill="#1e1e1e" font-family="Virgil, Segoe UI Emoji" font-size="18.14685193859006px" style="white-space: pre;" text-anchor="middle" x="4.534996032714844" y="0">2</text></g><g stroke-linecap="round" transform="translate(407.4982585950024 831.0508245702349) rotate(0 79.91318333142016 27.069919576893426)"><path d="M13.53 0 C58.99 1.93, 100.97 1.33, 146.29 0 C156.67 -0.44, 162.68 3.23, 159.83 13.53 C162.81 21.48, 157.85 24.44, 159.83 40.6 C159.13 49.05, 156.7 52.15, 146.29 54.14 C101.74 52.12, 53.52 56.06, 13.53 54.14 C7.46 53.22, 2.58 46.05, 0 40.6 C1.31 28.06, 2.25 21.25, 0 13.53 C2.83 7.04, 4.7 1.63, 13.53 0" fill="#e9ecef" stroke="none" stroke-width="0"></path><path d="M13.53 0 C41.46 0.58, 70.08 1.42, 146.29 0 M13.53 0 C63.03 0.45, 112.15 0.21, 146.29 0 M146.29 0 C156.17 0.33, 158.96 6.38, 159.83 13.53 M146.29 0 C155.87 -1.11, 160.53 4.97, 159.83 13.53 M159.83 13.53 C160.4 22.1, 159.76 31.76, 159.83 40.6 M159.83 13.53 C158.88 21.28, 160.62 29.29, 159.83 40.6 M159.83 40.6 C159.45 50.88, 154.87 52.57, 146.29 54.14 M159.83 40.6 C161.57 47.71, 153.49 54.71, 146.29 54.14 M146.29 54.14 C113.81 54.53, 85.45 54.27, 13.53 54.14 M146.29 54.14 C96.95 55.58, 45.87 55.3, 13.53 54.14 M13.53 54.14 C5.08 53.31, 0.71 49.29, 0 40.6 M13.53 54.14 C5.85 55.71, -2.22 51.63, 0 40.6 M0 40.6 C0.68 34.91, 0.05 27.84, 0 13.53 M0 40.6 C-0.57 35.56, 1.11 28.69, 0 13.53 M0 13.53 C-1.71 3.04, 5.58 -0.96, 13.53 0 M0 13.53 C-1.81 5.64, 6.61 0.78, 13.53 0" fill="none" stroke="transparent" stroke-width="2"></path></g><g stroke-linecap="round" transform="translate(585.5957478642381 831.0544741500235) rotate(0 79.91318333142016 27.069919576893426)"><path d="M13.53 0 C42.95 -0.6, 73.15 -0.45, 146.29 0 C158.17 -1.28, 158.37 5.49, 159.83 13.53 C158.1 16.28, 159.52 24.73, 159.83 40.6 C161.21 47.64, 157.4 54.89, 146.29 54.14 C107 54.21, 66.2 51.67, 13.53 54.14 C7.09 50.56, 3.29 48.59, 0 40.6 C1.95 35.57, 2.67 29.4, 0 13.53 C0.19 6.14, 3.17 -0.77, 13.53 0" fill="#e9ecef" stroke="none" stroke-width="0"></path><path d="M13.53 0 C58.59 1.15, 101.38 0.18, 146.29 0 M13.53 0 C53.48 -0.42, 95.21 -0.54, 146.29 0 M146.29 0 C154.45 1.87, 160.31 3.54, 159.83 13.53 M146.29 0 C156.01 0.46, 160.44 6.48, 159.83 13.53 M159.83 13.53 C159.57 23.73, 159.55 32.27, 159.83 40.6 M159.83 13.53 C160.46 23.53, 159.41 33.36, 159.83 40.6 M159.83 40.6 C159.38 48.06, 156.83 52.47, 146.29 54.14 M159.83 40.6 C158 50.2, 153.73 54.67, 146.29 54.14 M146.29 54.14 C116.39 56.09, 87 56.77, 13.53 54.14 M146.29 54.14 C98.66 55.43, 51.62 54.62, 13.53 54.14 M13.53 54.14 C5.22 53.8, 1.17 50.99, 0 40.6 M13.53 54.14 C2.3 56.15, -0.86 50.85, 0 40.6 M0 40.6 C0.08 35.62, -1.65 26.71, 0 13.53 M0 40.6 C1.16 33.38, -0.66 25.12, 0 13.53 M0 13.53 C1.06 3.55, 2.94 0.98, 13.53 0 M0 13.53 C2.09 5.29, 5.16 -2.26, 13.53 0" fill="none" stroke="transparent" stroke-width="2"></path></g><g stroke-linecap="round" transform="translate(762.3700012170307 830.928764631678) rotate(0 79.91318333142016 27.069919576893426)"><path d="M13.53 0 C54.75 -0.05, 96.1 -0.89, 146.29 0 C153.85 0.98, 156.85 7.36, 159.83 13.53 C158.84 21.78, 160.92 29.18, 159.83 40.6 C161.91 50.38, 155.77 57.09, 146.29 54.14 C117.98 54.29, 86.35 51.63, 13.53 54.14 C7.8 53.1, -1.67 50.8, 0 40.6 C2.54 36.48, -0.1 28.92, 0 13.53 C-1.34 3.74, 1.47 2.06, 13.53 0" fill="#e9ecef" stroke="none" stroke-width="0"></path><path d="M13.53 0 C60.91 -0.38, 105.45 -1.47, 146.29 0 M13.53 0 C60.87 -0.22, 106.92 0.55, 146.29 0 M146.29 0 C155.79 -0.97, 160.43 4.91, 159.83 13.53 M146.29 0 C155.93 1.97, 161.14 4.91, 159.83 13.53 M159.83 13.53 C159.46 20.67, 160.88 27.27, 159.83 40.6 M159.83 13.53 C159.87 22.46, 159.84 29.36, 159.83 40.6 M159.83 40.6 C161.34 47.96, 153.72 54.63, 146.29 54.14 M159.83 40.6 C158.24 50.16, 153.69 52.07, 146.29 54.14 M146.29 54.14 C99.19 56.59, 50.14 56.44, 13.53 54.14 M146.29 54.14 C97.77 54.25, 49.04 54.5, 13.53 54.14 M13.53 54.14 C5.68 55.5, -1.93 51.37, 0 40.6 M13.53 54.14 C3.65 55.36, -1.44 50.58, 0 40.6 M0 40.6 C-1.57 29.54, -0.58 19.11, 0 13.53 M0 40.6 C-1.12 29.06, 0.27 18.51, 0 13.53 M0 13.53 C-1.58 5.49, 6.33 0.68, 13.53 0 M0 13.53 C0.65 2.26, 2.66 1.2, 13.53 0" fill="none" stroke="transparent" stroke-width="2"></path></g><g stroke-linecap="round" transform="translate(409.1380014262836 907.0935844004498) rotate(0 79.91318333142016 27.069919576893426)"><path d="M13.53 0 C54.03 -0.99, 87.36 1.27, 146.29 0 C152.34 2.85, 160.75 2.4, 159.83 13.53 C161.11 17.3, 161.81 25.81, 159.83 40.6 C160.29 52.58, 152.99 56.37, 146.29 54.14 C103.1 49.95, 58.04 52.49, 13.53 54.14 C2.84 55.31, -1.95 51.74, 0 40.6 C-0.2 32.73, -1.72 20.83, 0 13.53 C-3.04 6.57, 4.34 -0.95, 13.53 0" fill="#e9ecef" stroke="none" stroke-width="0"></path><path d="M13.53 0 C65.12 -0.83, 117.53 -1.88, 146.29 0 M13.53 0 C56.76 0.71, 101.09 -0.7, 146.29 0 M146.29 0 C155.92 0.4, 160.36 6.23, 159.83 13.53 M146.29 0 C156.63 0.4, 159.5 4.17, 159.83 13.53 M159.83 13.53 C160.87 20.65, 159.92 32.94, 159.83 40.6 M159.83 13.53 C159.55 21.93, 160.53 31.06, 159.83 40.6 M159.83 40.6 C158.24 50.12, 153.94 54.6, 146.29 54.14 M159.83 40.6 C158.2 47.55, 156.84 54.74, 146.29 54.14 M146.29 54.14 C100.51 56.88, 53.78 54.99, 13.53 54.14 M146.29 54.14 C101.55 53.42, 56.67 54.27, 13.53 54.14 M13.53 54.14 C2.58 55.88, -0.75 50.69, 0 40.6 M13.53 54.14 C3.07 55.09, 1.63 49.85, 0 40.6 M0 40.6 C-0.34 29.11, 2.19 22.38, 0 13.53 M0 40.6 C0.76 31.58, -0.56 24.02, 0 13.53 M0 13.53 C1.82 5.19, 5.08 -1.96, 13.53 0 M0 13.53 C-1.85 5.71, 4.52 0.18, 13.53 0" fill="none" stroke="transparent" stroke-width="2"></path></g><g stroke-linecap="round" transform="translate(587.2354906955156 907.0972339802383) rotate(0 79.91318333142016 27.069919576893426)"><path d="M13.53 0 C50.27 1.83, 86.95 3.7, 146.29 0 C156.24 -2.11, 156.68 3.82, 159.83 13.53 C162.09 21.98, 160.47 31.86, 159.83 40.6 C157.5 51.86, 156.93 57.09, 146.29 54.14 C113.16 50.73, 71.79 52.94, 13.53 54.14 C2.56 56.25, 1.83 52.46, 0 40.6 C-1.36 29.81, -3.07 22.62, 0 13.53 C-0.17 3.56, 1.99 -1.9, 13.53 0" fill="#e9ecef" stroke="none" stroke-width="0"></path><path d="M13.53 0 C59.63 -1.15, 104.17 1.06, 146.29 0 M13.53 0 C55.8 -1.72, 97.89 -1.04, 146.29 0 M146.29 0 C155.85 1.71, 160.97 4.86, 159.83 13.53 M146.29 0 C154.98 -0.35, 160.43 4.14, 159.83 13.53 M159.83 13.53 C160.11 22.59, 160.76 27.79, 159.83 40.6 M159.83 13.53 C160.52 22.51, 158.97 33.41, 159.83 40.6 M159.83 40.6 C158.45 50.09, 153.9 52.34, 146.29 54.14 M159.83 40.6 C161.36 50.23, 156.55 55.93, 146.29 54.14 M146.29 54.14 C96.24 54.88, 44.27 55.76, 13.53 54.14 M146.29 54.14 C112.55 54.6, 76.68 54.79, 13.53 54.14 M13.53 54.14 C3.76 55.2, -1.25 50.45, 0 40.6 M13.53 54.14 C6.14 54.36, 1.66 47.85, 0 40.6 M0 40.6 C2.06 35.82, 0.38 25.45, 0 13.53 M0 40.6 C-0.93 34.97, 0.77 28.69, 0 13.53 M0 13.53 C0.56 2.55, 2.9 1.05, 13.53 0 M0 13.53 C0 4.69, 4.13 0.87, 13.53 0" fill="none" stroke="transparent" stroke-width="2"></path></g><g stroke-linecap="round" transform="translate(764.0097440483082 906.9715244618919) rotate(0 79.91318333142016 27.069919576893426)"><path d="M13.53 0 C45.67 2.2, 84.68 -2.76, 146.29 0 C152.17 -0.7, 159.25 5.89, 159.83 13.53 C160.57 23.11, 157.78 29.01, 159.83 40.6 C161.44 52.58, 154.39 56.72, 146.29 54.14 C117.99 54.62, 91.07 55.56, 13.53 54.14 C6.35 56.97, 2.53 49.82, 0 40.6 C-2.86 33.32, 0.01 20.96, 0 13.53 C-2.52 2.61, 3.49 1.69, 13.53 0" fill="#e9ecef" stroke="none" stroke-width="0"></path><path d="M13.53 0 C51.9 1.75, 89.44 0.03, 146.29 0 M13.53 0 C66.07 0.84, 118.27 1.5, 146.29 0 M146.29 0 C156.46 0.34, 159.54 4.21, 159.83 13.53 M146.29 0 C155.92 -0.37, 159.14 5.77, 159.83 13.53 M159.83 13.53 C160.63 18.95, 161.09 24.67, 159.83 40.6 M159.83 13.53 C159.24 19.78, 159.34 25.76, 159.83 40.6 M159.83 40.6 C158.41 47.83, 156.64 54.66, 146.29 54.14 M159.83 40.6 C161.06 51.41, 157.32 55.47, 146.29 54.14 M146.29 54.14 C96.72 54.5, 44.74 54.65, 13.53 54.14 M146.29 54.14 C107.76 55.92, 70.78 55.58, 13.53 54.14 M13.53 54.14 C3.26 54.96, 1.42 49.82, 0 40.6 M13.53 54.14 C6.18 52.37, -1.19 48.99, 0 40.6 M0 40.6 C0.04 32.69, -1.74 29.27, 0 13.53 M0 40.6 C1.12 34.12, 0.5 25.99, 0 13.53 M0 13.53 C-1.61 5.56, 4.52 0.16, 13.53 0 M0 13.53 C-0.38 5.38, 4.23 1.82, 13.53 0" fill="none" stroke="transparent" stroke-width="2"></path></g><g stroke-linecap="round" transform="translate(410.02837775481066 980.7128000170478) rotate(0 79.91318333142016 27.069919576893426)"><path d="M13.53 0 C57.9 -4, 97.28 -2.59, 146.29 0 C154.74 1.38, 157.84 6.59, 159.83 13.53 C157.56 24.45, 161.5 33.86, 159.83 40.6 C158.9 52.21, 151.74 57.43, 146.29 54.14 C108.34 57.03, 76.13 57.75, 13.53 54.14 C7.04 54.33, 1.63 48.29, 0 40.6 C0.24 32.11, -2.11 23.62, 0 13.53 C-1.02 6.21, 1.81 0.49, 13.53 0" fill="#e9ecef" stroke="none" stroke-width="0"></path><path d="M13.53 0 C44.7 -1.43, 77.07 -0.09, 146.29 0 M13.53 0 C47.21 0.59, 80.92 -0.09, 146.29 0 M146.29 0 C155.03 -0.3, 160.35 4.19, 159.83 13.53 M146.29 0 C154.63 1.26, 157.85 4.67, 159.83 13.53 M159.83 13.53 C161.18 23.57, 158.36 36, 159.83 40.6 M159.83 13.53 C158.92 19.63, 158.9 24.35, 159.83 40.6 M159.83 40.6 C161.16 50.15, 156.38 55.69, 146.29 54.14 M159.83 40.6 C161.83 50.95, 157.14 55.7, 146.29 54.14 M146.29 54.14 C107.69 55.23, 70.4 55.68, 13.53 54.14 M146.29 54.14 C97.04 55.83, 47.92 55.71, 13.53 54.14 M13.53 54.14 C5.93 54.33, 1.45 48.09, 0 40.6 M13.53 54.14 C3.32 53.51, -1.63 51.91, 0 40.6 M0 40.6 C-1.52 30.93, -1 17.55, 0 13.53 M0 40.6 C0.04 30.17, -1.05 22.23, 0 13.53 M0 13.53 C0 4.67, 4.18 0.76, 13.53 0 M0 13.53 C-0.28 6.33, 3.69 -0.93, 13.53 0" fill="none" stroke="transparent" stroke-width="2"></path></g><g stroke-linecap="round" transform="translate(588.12586702405 980.7164495968345) rotate(0 79.91318333142016 27.069919576893426)"><path d="M13.53 0 C60.73 0.71, 113.64 2.78, 146.29 0 C153.33 2.08, 160.58 4.97, 159.83 13.53 C161.12 26.82, 158.59 36.79, 159.83 40.6 C156.25 52.91, 154.28 52.47, 146.29 54.14 C103.98 58.37, 60.53 55.73, 13.53 54.14 C6.14 52.8, -0.77 46.59, 0 40.6 C-2.5 29.03, -0.99 22.96, 0 13.53 C-2.7 5.01, 7.18 -0.71, 13.53 0" fill="#e9ecef" stroke="none" stroke-width="0"></path><path d="M13.53 0 C60.89 1.05, 103.53 1.18, 146.29 0 M13.53 0 C56.57 -0.97, 98.32 -1.29, 146.29 0 M146.29 0 C155.84 -0.33, 159.23 5.6, 159.83 13.53 M146.29 0 C153.33 0.15, 161.83 5.41, 159.83 13.53 M159.83 13.53 C158.43 22.66, 158.33 27.17, 159.83 40.6 M159.83 13.53 C158.93 21.42, 160.3 31.37, 159.83 40.6 M159.83 40.6 C160.9 51.18, 157.06 55.29, 146.29 54.14 M159.83 40.6 C161.65 51.18, 154.96 55.05, 146.29 54.14 M146.29 54.14 C102.35 55.78, 60.46 52.69, 13.53 54.14 M146.29 54.14 C94.26 55.26, 44.19 54.94, 13.53 54.14 M13.53 54.14 C5.96 52.6, -1.03 49.08, 0 40.6 M13.53 54.14 C2.88 56.42, 2.22 49.98, 0 40.6 M0 40.6 C-0.76 33.23, 1.18 30.82, 0 13.53 M0 40.6 C-0.88 32.09, -0.07 22.61, 0 13.53 M0 13.53 C-0.33 5.27, 4.27 1.58, 13.53 0 M0 13.53 C-0.82 3.58, 5.14 -1.9, 13.53 0" fill="none" stroke="transparent" stroke-width="2"></path></g><g stroke-linecap="round" transform="translate(764.9001203768426 980.59074007849) rotate(0 79.91318333142016 27.069919576893426)"><path d="M13.53 0 C45 1.84, 75.62 2.54, 146.29 0 C156.07 0.46, 162.78 2.19, 159.83 13.53 C159.12 25.91, 156.47 36.41, 159.83 40.6 C158.79 47.96, 156.49 52.19, 146.29 54.14 C101.22 56.2, 52.71 54.68, 13.53 54.14 C3.74 51.1, 2.06 49.46, 0 40.6 C-0.68 34.9, -2.36 26.29, 0 13.53 C2.67 3.8, 4.97 3.43, 13.53 0" fill="#e9ecef" stroke="none" stroke-width="0"></path><path d="M13.53 0 C46.65 0.29, 82.09 0.22, 146.29 0 M13.53 0 C64.59 -0.38, 116.21 -0.39, 146.29 0 M146.29 0 C154.72 1.09, 158.1 4.65, 159.83 13.53 M146.29 0 C157.32 0.9, 159.39 5.95, 159.83 13.53 M159.83 13.53 C157.94 19.46, 160.11 27.19, 159.83 40.6 M159.83 13.53 C160.3 22.54, 160.17 31.81, 159.83 40.6 M159.83 40.6 C161.57 50.78, 156.9 55.49, 146.29 54.14 M159.83 40.6 C159.47 50.54, 155.97 53.19, 146.29 54.14 M146.29 54.14 C103.1 52.99, 58.92 54.16, 13.53 54.14 M146.29 54.14 C100.1 54.78, 53.22 53.92, 13.53 54.14 M13.53 54.14 C3.48 53.59, -1.42 51.61, 0 40.6 M13.53 54.14 C6.74 54.5, -1.97 47.93, 0 40.6 M0 40.6 C1.11 32.86, 0.81 22.05, 0 13.53 M0 40.6 C0.22 35.22, 0.05 30.05, 0 13.53 M0 13.53 C-0.25 6.1, 3.8 -0.81, 13.53 0 M0 13.53 C0.63 2.61, 6.33 0.59, 13.53 0" fill="none" stroke="transparent" stroke-width="2"></path></g><g stroke-linecap="round" transform="translate(411.6136441744479 1054.972603127927) rotate(0 79.91318333142016 27.069919576893426)"><path d="M13.53 0 C48.81 1.16, 88.81 -0.46, 146.29 0 C158.26 -2.32, 162.05 6.12, 159.83 13.53 C156.12 27.16, 158.66 32.54, 159.83 40.6 C161 47.68, 157.42 55.97, 146.29 54.14 C97.66 52.93, 45 51.22, 13.53 54.14 C6.57 53.97, -0.95 47.11, 0 40.6 C-2.56 34.41, 2.81 26.52, 0 13.53 C0.46 7.94, 3.45 1.56, 13.53 0" fill="#e9ecef" stroke="none" stroke-width="0"></path><path d="M13.53 0 C56.94 0.13, 101.26 0.74, 146.29 0 M13.53 0 C55.91 0.04, 97.46 0.75, 146.29 0 M146.29 0 C153.59 0.13, 161.57 5.29, 159.83 13.53 M146.29 0 C154.88 1.44, 159.31 2.71, 159.83 13.53 M159.83 13.53 C160.09 22.33, 160.06 32.46, 159.83 40.6 M159.83 13.53 C160.54 19.99, 160.88 25.47, 159.83 40.6 M159.83 40.6 C161.41 50.98, 155.01 54.93, 146.29 54.14 M159.83 40.6 C160.48 48.67, 156.13 53.75, 146.29 54.14 M146.29 54.14 C100.47 52.11, 52.23 51.61, 13.53 54.14 M146.29 54.14 C101.72 53.5, 55.18 53.99, 13.53 54.14 M13.53 54.14 C3.09 56.12, 1.93 49.94, 0 40.6 M13.53 54.14 C2.54 52.44, 1.22 48.52, 0 40.6 M0 40.6 C0.54 35.18, -2.09 27.02, 0 13.53 M0 40.6 C-0.17 31.45, -0.12 22.32, 0 13.53 M0 13.53 C-0.71 3.7, 5.06 -1.65, 13.53 0 M0 13.53 C1.82 5.1, 3.16 -2.01, 13.53 0" fill="none" stroke="transparent" stroke-width="2"></path></g><g stroke-linecap="round" transform="translate(590.0033121330785 1054.9762527077137) rotate(0 79.91318333142016 27.069919576893426)"><path d="M13.53 0 C59.21 -0.92, 106.33 -3.71, 146.29 0 C157.54 1.61, 162.77 3.59, 159.83 13.53 C158.3 21.93, 160.51 31.7, 159.83 40.6 C161.94 51.46, 158.14 56.67, 146.29 54.14 C105 50.21, 67.32 53.08, 13.53 54.14 C3.56 51.62, -1.9 48.61, 0 40.6 C3.04 30.5, 0.83 25.24, 0 13.53 C-1.06 6.07, 6.02 2.47, 13.53 0" fill="#e9ecef" stroke="none" stroke-width="0"></path><path d="M13.53 0 C59.11 0.78, 101.6 -0.64, 146.29 0 M13.53 0 C51.07 0.76, 88.33 0.28, 146.29 0 M146.29 0 C157.05 0.78, 159.45 5.76, 159.83 13.53 M146.29 0 C154.8 -1.8, 161.57 2.59, 159.83 13.53 M159.83 13.53 C160.36 18.09, 158.09 26.8, 159.83 40.6 M159.83 13.53 C160.84 22.94, 160.76 31.86, 159.83 40.6 M159.83 40.6 C159.52 50.42, 155.88 53.31, 146.29 54.14 M159.83 40.6 C160.65 49.24, 156.65 55.71, 146.29 54.14 M146.29 54.14 C120.32 52.39, 93.05 55.06, 13.53 54.14 M146.29 54.14 C104.66 52.84, 63.35 54.11, 13.53 54.14 M13.53 54.14 C6.45 54.45, -1.71 48.15, 0 40.6 M13.53 54.14 C5.73 53.03, -1.81 50.76, 0 40.6 M0 40.6 C-2.05 28.41, 0.95 19.44, 0 13.53 M0 40.6 C-0.08 33.06, -0.31 23.53, 0 13.53 M0 13.53 C0.54 2.86, 6.1 0.51, 13.53 0 M0 13.53 C-1.35 2.5, 4.07 -0.37, 13.53 0" fill="none" stroke="transparent" stroke-width="2"></path></g><g stroke-linecap="round" transform="translate(766.7775654858747 1054.850543189371) rotate(0 79.91318333142016 27.069919576893426)"><path d="M13.53 0 C63.99 -2.63, 110.77 1.31, 146.29 0 C158.26 -0.92, 162.4 0.93, 159.83 13.53 C160.86 22.18, 161.8 36.55, 159.83 40.6 C162.66 52.16, 155.5 55.77, 146.29 54.14 C113.46 51.95, 75.56 49.6, 13.53 54.14 C2.61 53.12, 1.69 46.93, 0 40.6 C0.1 35.54, -1.42 25.18, 0 13.53 C1.5 6.98, 1.42 3.43, 13.53 0" fill="#e9ecef" stroke="none" stroke-width="0"></path><path d="M13.53 0 C57.27 -1.05, 100.02 -0.23, 146.29 0 M13.53 0 C50.34 -0.66, 89.74 -0.33, 146.29 0 M146.29 0 C154.94 1.25, 159.38 2.94, 159.83 13.53 M146.29 0 C157.06 -1.92, 158 5.08, 159.83 13.53 M159.83 13.53 C158.09 21.12, 160.41 27.12, 159.83 40.6 M159.83 13.53 C160.86 24.43, 159.91 34.38, 159.83 40.6 M159.83 40.6 C160.39 48.8, 156.03 53.8, 146.29 54.14 M159.83 40.6 C161.17 51.2, 153.1 56.15, 146.29 54.14 M146.29 54.14 C112.26 54.73, 76.77 54.76, 13.53 54.14 M146.29 54.14 C115.99 54.77, 88.08 53.93, 13.53 54.14 M13.53 54.14 C2.8 52.67, 1.06 48.67, 0 40.6 M13.53 54.14 C2.7 55.27, 2.09 50.4, 0 40.6 M0 40.6 C1.31 31.72, 0.42 22.5, 0 13.53 M0 40.6 C-0.32 31.06, 0.31 21.49, 0 13.53 M0 13.53 C1.58 5.03, 3.34 -1.75, 13.53 0 M0 13.53 C-0.44 4.15, 5.39 -1.27, 13.53 0" fill="none" stroke="transparent" stroke-width="2"></path></g><g stroke-linecap="round"><g transform="translate(671.2606346683756 1161.3718952160916) rotate(0 -0.5020907830770511 -19.258878805869017)"><path d="M-0.08 -0.08 C-0.27 -6.53, -0.68 -32.25, -0.86 -38.61 M-0.78 -0.6 C-1.07 -6.97, -1.08 -31.53, -1.22 -37.95" fill="none" stroke="#74808b" stroke-width="2"></path></g><g transform="translate(671.2606346683756 1161.3718952160916) rotate(0 -0.5020907830770511 -19.258878805869017)"><path d="M5.56 -19.92 C2.98 -26.11, 0.55 -33.09, -1.22 -37.95 M5.56 -19.92 C3.65 -26.12, 0.74 -32.41, -1.22 -37.95" fill="none" stroke="#74808b" stroke-width="2"></path></g><g transform="translate(671.2606346683756 1161.3718952160916) rotate(0 -0.5020907830770511 -19.258878805869017)"><path d="M-7.62 -19.78 C-5.49 -26.01, -3.22 -33.04, -1.22 -37.95 M-7.62 -19.78 C-4.85 -26.04, -3.09 -32.37, -1.22 -37.95" fill="none" stroke="#74808b" stroke-width="2"></path></g></g><mask></mask><g transform="translate(588.2691688826822 1165.5010886466944) rotate(0 89.69316101074219 11.339838604908323)"><text direction="ltr" dominant-baseline="text-before-edge" fill="#74808b" font-family="Virgil, Segoe UI Emoji" font-size="18.14374176785331px" style="white-space: pre;" text-anchor="start" x="0" y="0">Optionally Projected</text></g><g transform="translate(589.4709445527387 78.82605750819948) rotate(0 53.85389709472656 11.308534539685056)"><text direction="ltr" dominant-baseline="text-before-edge" fill="#1e1e1e" font-family="Virgil, Segoe UI Emoji" font-size="18.093655263496082px" style="white-space: pre;" text-anchor="start" x="0" y="0">num_attach</text></g><g transform="translate(221.77868467139206 783.9184614546921) rotate(0 53.85389709472656 11.30853453968507)"><text direction="ltr" dominant-baseline="text-before-edge" fill="#1e1e1e" font-family="Virgil, Segoe UI Emoji" font-size="18.093655263496082px" style="white-space: pre;" text-anchor="start" x="0" y="0">num_attach</text></g></svg>