<svg height="736.2109375" version="1.1" viewbox="0 0 1023.890625 736.2109375" width="1023.890625" xmlns="http://www.w3.org/2000/svg">
<!-- svg-source:excalidraw -->
<!-- payload-type:application/vnd.excalidraw+json --><!-- payload-version:2 -->
<defs>
<style class="style-fonts">
</style>
</defs>
<rect fill="#ffffff" height="736.2109375" width="1023.890625" x="0" y="0"></rect><g stroke-linecap="round" transform="translate(10 10) rotate(0 125.103515625 135)"><path d="M157.5 34 C177.51 58.01, 197.51 80.21, 218.71 102 M157.5 34 C172.9 50.15, 187.24 68.06, 218.71 102 M218.71 102 C251.36 134.72, 250.93 137.47, 218.71 170 M218.71 102 C248.71 137.64, 250.59 136.46, 218.71 170 M218.71 170 C196.6 195.03, 174.75 216.22, 157.5 236 M218.71 170 C202.4 187.18, 188.06 202.44, 157.5 236 M157.5 236 C127.83 270.3, 127.22 271.85, 94.5 236 M157.5 236 C127.35 271.11, 126.86 271.19, 94.5 236 M94.5 236 C73.31 216.06, 52.94 192.48, 31.5 170 M94.5 236 C71.73 211.45, 46.58 186.23, 31.5 170 M31.5 170 C1.36 135.27, -1.69 135.21, 31.5 102 M31.5 170 C0.31 135.91, -0.23 134.45, 31.5 102 M31.5 102 C44.24 87.73, 58.31 71.2, 94.5 34 M31.5 102 C50.21 82.16, 68.16 63.01, 94.5 34 M94.5 34 C127.99 1.98, 127.34 1.18, 157.5 34 M94.5 34 C127.91 2.28, 126.87 -0.32, 157.5 34" fill="none" stroke="#1e1e1e" stroke-width="2"></path></g><g transform="translate(88.01181030273438 120) rotate(0 47.039947509765625 25)"><text direction="ltr" dominant-baseline="text-before-edge" fill="#1e1e1e" font-family="Virgil, Segoe UI Emoji" font-size="20px" style="white-space: pre;" text-anchor="middle" x="47.039947509765625" y="0">Latency </text><text direction="ltr" dominant-baseline="text-before-edge" fill="#1e1e1e" font-family="Virgil, Segoe UI Emoji" font-size="20px" style="white-space: pre;" text-anchor="middle" x="47.039947509765625" y="25">Sensitive?</text></g><g mask="url(#mask-LvEjC0lJjITeFggg3caQu)" stroke-linecap="round"><g transform="translate(139.41015625 280.8828125) rotate(0 -0.22265625 60.04296875)"><path d="M-0.78 -0.48 C-0.97 19.55, -0.72 98.83, -0.75 119.08 M1.01 -1.78 C0.61 18.47, -1.36 99.93, -1.86 120.08" fill="none" stroke="#1e1e1e" stroke-width="2"></path></g><g transform="translate(139.41015625 280.8828125) rotate(0 -0.22265625 60.04296875)"><path d="M-11.43 91.65 C-9.36 100.57, -7.08 109.58, -1.86 120.08 M-11.43 91.65 C-8.44 103.23, -4.3 113.48, -1.86 120.08" fill="none" stroke="#1e1e1e" stroke-width="2"></path></g><g transform="translate(139.41015625 280.8828125) rotate(0 -0.22265625 60.04296875)"><path d="M9.08 92.15 C4.41 100.77, -0.07 109.62, -1.86 120.08 M9.08 92.15 C4.32 103.42, 0.71 113.48, -1.86 120.08" fill="none" stroke="#1e1e1e" stroke-width="2"></path></g></g><mask id="mask-LvEjC0lJjITeFggg3caQu"><rect fill="#fff" height="500.96875" width="239.85546875" x="0" y="0"></rect><rect fill="#000" height="25" opacity="1" width="23.959976196289062" x="127.20751190185547" y="328.42578125"></rect></mask><g transform="translate(127.20751190185547 328.42578125) rotate(0 11.774188930513333 11.608379274634672)"><text direction="ltr" dominant-baseline="text-before-edge" fill="#1e1e1e" font-family="Virgil, Segoe UI Emoji" font-size="20px" style="white-space: pre;" text-anchor="middle" x="11.979988098144531" y="0">No</text></g><g stroke-linecap="round" transform="translate(43.53125 412.546875) rotate(0 92.2890625 45.0703125)"><path d="M58.28 3.66 C69.69 0.81, 86.32 0.58, 99.78 0.93 C113.24 1.27, 127.55 2.41, 139.03 5.73 C150.52 9.05, 161.41 15.48, 168.7 20.85 C176 26.21, 180.75 31.58, 182.8 37.92 C184.85 44.27, 184.74 52.62, 180.99 58.91 C177.24 65.2, 169.45 70.89, 160.31 75.67 C151.16 80.46, 138.76 85.36, 126.13 87.64 C113.5 89.92, 97.88 89.99, 84.52 89.35 C71.15 88.71, 57.55 87.12, 45.96 83.79 C34.37 80.46, 22.36 74.9, 14.96 69.36 C7.56 63.82, 3.5 56.73, 1.57 50.53 C-0.36 44.34, -0.7 38.32, 3.37 32.17 C7.45 26.03, 14.91 18.81, 26.02 13.67 C37.14 8.52, 60.72 3.55, 70.06 1.3 C79.41 -0.95, 81.51 -0.53, 82.08 0.19 M80.83 -0.9 C93.22 -2.13, 109.7 1.04, 122.19 3.52 C134.68 6, 146.22 9.38, 155.77 13.98 C165.32 18.58, 174.61 25.17, 179.48 31.11 C184.35 37.05, 186.26 43.19, 185.01 49.62 C183.77 56.04, 179.42 63.88, 172.01 69.67 C164.61 75.46, 151.9 80.79, 140.59 84.35 C129.27 87.92, 117.14 90.49, 104.11 91.07 C91.08 91.65, 75 89.98, 62.39 87.84 C49.79 85.69, 38.16 82.7, 28.49 78.21 C18.83 73.72, 9.32 67.25, 4.41 60.89 C-0.5 54.53, -2.5 46.81, -0.97 40.02 C0.56 33.24, 6.29 25.64, 13.58 20.19 C20.86 14.75, 31.26 10.59, 42.74 7.34 C54.22 4.1, 75.78 1.64, 82.46 0.72 C89.14 -0.2, 82.85 1.18, 82.81 1.82" fill="none" stroke="#1e1e1e" stroke-width="2"></path></g><g transform="translate(103.43212384106107 432.7476639010532) rotate(0 32.629966735839844 25)"><text direction="ltr" dominant-baseline="text-before-edge" fill="#1e1e1e" font-family="Virgil, Segoe UI Emoji" font-size="20px" style="white-space: pre;" text-anchor="middle" x="32.629966735839844" y="0">Simple </text><text direction="ltr" dominant-baseline="text-before-edge" fill="#1e1e1e" font-family="Virgil, Segoe UI Emoji" font-size="20px" style="white-space: pre;" text-anchor="middle" x="32.629966735839844" y="25">Polling</text></g><g mask="url(#mask-gWrBfE9CR1eD3cWDUd6wa)" stroke-linecap="round"><g transform="translate(224.85208225333076 193.5594637637937) rotate(0 36.12423022166223 19.04693539462764)"><path d="M-0.62 -0.83 C11.47 5.61, 59.54 31.31, 71.51 37.95 M1.26 1.35 C13.82 8.04, 61.79 33.45, 73.84 39.41" fill="none" stroke="#1e1e1e" stroke-width="2"></path></g><g transform="translate(224.85208225333076 193.5594637637937) rotate(0 36.12423022166223 19.04693539462764)"><path d="M44.08 35.63 C49.16 35.38, 56.79 35.68, 73.84 39.41 M44.08 35.63 C54.88 37.9, 66.46 39.61, 73.84 39.41" fill="none" stroke="#1e1e1e" stroke-width="2"></path></g><g transform="translate(224.85208225333076 193.5594637637937) rotate(0 36.12423022166223 19.04693539462764)"><path d="M53.47 17.38 C56.41 21.06, 61.99 25.34, 73.84 39.41 M53.47 17.38 C60.83 26.41, 68.89 34.96, 73.84 39.41" fill="none" stroke="#1e1e1e" stroke-width="2"></path></g></g><mask id="mask-gWrBfE9CR1eD3cWDUd6wa"><rect fill="#fff" height="331.653334553049" width="397.1005426966552" x="0" y="0"></rect><rect fill="#000" height="25" opacity="1" width="32.119964599609375" x="244.91633017518825" y="200.10639915842137"></rect></mask><g transform="translate(244.91633017518825 200.10639915842137) rotate(0 16.545389391877734 12.745741455829688)"><text direction="ltr" dominant-baseline="text-before-edge" fill="#1e1e1e" font-family="Virgil, Segoe UI Emoji" font-size="20px" style="white-space: pre;" text-anchor="middle" x="16.059982299804688" y="0">Yes</text></g><g stroke-linecap="round" transform="translate(240.671875 158.20703125) rotate(0 155.83593749999994 134.140625)"><path d="M195 33.75 C217.24 53.61, 238.77 73.67, 272.67 101.25 M195 33.75 C212.73 49.46, 231.75 65.63, 272.67 101.25 M272.67 101.25 C309.67 134.56, 310.86 134.03, 272.67 168.75 M272.67 101.25 C313.37 133.45, 312.87 134.29, 272.67 168.75 M272.67 168.75 C256.01 182.27, 241.45 198.69, 195 234.53 M272.67 168.75 C255.15 183.7, 236.95 198.3, 195 234.53 M195 234.53 C154.92 268.15, 154.02 268.96, 117 234.53 M195 234.53 C156.03 269.87, 156.23 266.53, 117 234.53 M117 234.53 C97.9 218.09, 81.07 202.43, 39 168.75 M117 234.53 C95.03 214.56, 71.39 194.56, 39 168.75 M39 168.75 C-1.13 133.95, 1.96 135.38, 39 101.25 M39 168.75 C1.27 133.81, -1.22 133.22, 39 101.25 M39 101.25 C61.02 80.52, 86.21 61.24, 117 33.75 M39 101.25 C54.49 86.86, 70.71 74.06, 117 33.75 M117 33.75 C155.02 -1.41, 154.96 -1.25, 195 33.75 M117 33.75 C153.96 0.09, 154.92 1.57, 195 33.75" fill="none" stroke="#1e1e1e" stroke-width="2"></path></g><g transform="translate(325.0099105834961 254.77734375) rotate(0 71.5799331665039 37.5)"><text direction="ltr" dominant-baseline="text-before-edge" fill="#1e1e1e" font-family="Virgil, Segoe UI Emoji" font-size="20px" style="white-space: pre;" text-anchor="middle" x="71.5799331665039" y="0">Frequent,</text><text direction="ltr" dominant-baseline="text-before-edge" fill="#1e1e1e" font-family="Virgil, Segoe UI Emoji" font-size="20px" style="white-space: pre;" text-anchor="middle" x="71.5799331665039" y="25">Bi-Directional </text><text direction="ltr" dominant-baseline="text-before-edge" fill="#1e1e1e" font-family="Virgil, Segoe UI Emoji" font-size="20px" style="white-space: pre;" text-anchor="middle" x="71.5799331665039" y="50">Communication?</text></g><g mask="url(#mask-6VxyAY6Fi6sKnJn5SI7Cs)" stroke-linecap="round"><g transform="translate(398.6846672936472 435.1119376049137) rotate(0 -0.35165974889912377 38.74750104609927)"><path d="M0.34 -0.87 C0.05 12.11, -1.53 64.63, -1.79 77.86 M-0.94 1.29 C-0.88 13.89, 0.57 63.36, 0.35 75.92" fill="none" stroke="#1e1e1e" stroke-width="2"></path></g><g transform="translate(398.6846672936472 435.1119376049137) rotate(0 -0.35165974889912377 38.74750104609927)"><path d="M-10.16 47.83 C-8.49 54.35, -3.31 63.68, 0.35 75.92 M-10.16 47.83 C-5.66 57.74, -1.48 69.93, 0.35 75.92" fill="none" stroke="#1e1e1e" stroke-width="2"></path></g><g transform="translate(398.6846672936472 435.1119376049137) rotate(0 -0.35165974889912377 38.74750104609927)"><path d="M10.36 47.64 C5.93 54.28, 5 63.66, 0.35 75.92 M10.36 47.64 C6.99 57.46, 3.31 69.72, 0.35 75.92" fill="none" stroke="#1e1e1e" stroke-width="2"></path></g></g><mask id="mask-6VxyAY6Fi6sKnJn5SI7Cs"><rect fill="#fff" height="612.6069396971122" width="499.3879867914454" x="0" y="0"></rect><rect fill="#000" height="25" opacity="1" width="23.959976196289062" x="386.3530194466034" y="461.3594386510131"></rect></mask><g transform="translate(386.3530194466034 461.35943865101297) rotate(0 11.62577342758459 12.24537107199427)"><text direction="ltr" dominant-baseline="text-before-edge" fill="#1e1e1e" font-family="Virgil, Segoe UI Emoji" font-size="20px" style="white-space: pre;" text-anchor="middle" x="11.979988098144531" y="0">No</text></g><g stroke-linecap="round" transform="translate(306.45703125 517.1875) rotate(0 92.2890625 45.0703125)"><path d="M69.24 1.31 C80.99 -0.78, 96.25 0.53, 109.37 1.77 C122.5 3, 137.15 4.99, 147.98 8.7 C158.8 12.41, 168.21 18.05, 174.32 24.02 C180.43 29.98, 184.35 37.9, 184.63 44.47 C184.91 51.04, 181.49 57.71, 176.01 63.41 C170.52 69.11, 161.76 74.5, 151.71 78.67 C141.65 82.84, 128.55 86.71, 115.7 88.44 C102.85 90.17, 87.7 90.38, 74.59 89.04 C61.48 87.7, 47.63 84.37, 37.04 80.4 C26.45 76.43, 17.33 71, 11.06 65.23 C4.78 59.46, 0.01 52.25, -0.61 45.78 C-1.23 39.31, 1.69 32.39, 7.34 26.42 C12.99 20.44, 21.45 14.16, 33.27 9.94 C45.1 5.73, 69.55 2.5, 78.29 1.11 C87.03 -0.28, 85.62 0.9, 85.72 1.61 M63.26 0.89 C75.13 -1.64, 91.67 0.26, 105.07 1.22 C118.47 2.17, 132.44 3.39, 143.65 6.61 C154.86 9.83, 165.57 14.8, 172.32 20.56 C179.08 26.33, 183.25 34.6, 184.17 41.2 C185.09 47.8, 182.41 54.25, 177.85 60.16 C173.3 66.07, 166.17 72.08, 156.81 76.65 C147.46 81.22, 134.47 85.43, 121.73 87.56 C108.98 89.68, 93.67 90.14, 80.33 89.39 C67 88.63, 52.88 86.4, 41.74 83.01 C30.6 79.62, 20.16 74.73, 13.5 69.04 C6.85 63.35, 3.05 55.64, 1.8 48.88 C0.55 42.11, 1.49 34.46, 5.99 28.44 C10.5 22.42, 19.28 16.92, 28.84 12.76 C38.4 8.59, 57.48 5.22, 63.35 3.47 C69.22 1.73, 63.6 1.82, 64.07 2.28" fill="none" stroke="#1e1e1e" stroke-width="2"></path></g><g transform="translate(380.08788555981107 549.8882889010532) rotate(0 18.899986267089844 12.5)"><text direction="ltr" dominant-baseline="text-before-edge" fill="#1e1e1e" font-family="Virgil, Segoe UI Emoji" font-size="20px" style="white-space: pre;" text-anchor="middle" x="18.899986267089844" y="0">SSE</text></g><g stroke-linecap="round" transform="translate(518.1328125 343.3359375) rotate(0 158.107421875 123.248046875)"><path d="M198.75 31 C225.17 54.41, 251.71 74.13, 276.46 93 M198.75 31 C217.12 46.39, 234.54 59.88, 276.46 93 M276.46 93 C314.59 125.06, 315.7 123.96, 276.46 155 M276.46 93 C317.79 124.54, 315.84 125.31, 276.46 155 M276.46 155 C252.6 172.54, 229.12 191, 198.75 215.5 M276.46 155 C246.96 179.06, 218.62 200.28, 198.75 215.5 M198.75 215.5 C160.41 245.71, 157.29 245.88, 119.25 215.5 M198.75 215.5 C157.39 245.82, 160.13 244.44, 119.25 215.5 M119.25 215.5 C91.86 194.17, 62.12 169.69, 39.75 155 M119.25 215.5 C101.28 202.82, 85.22 188.68, 39.75 155 M39.75 155 C-1.45 124.81, -1.21 122.12, 39.75 93 M39.75 155 C1.26 122.48, -1.26 126.27, 39.75 93 M39.75 93 C56.99 78.91, 73.06 65.66, 119.25 31 M39.75 93 C56.13 79.04, 72.16 67.37, 119.25 31 M119.25 31 C159.35 -0.73, 160.85 -0.33, 198.75 31 M119.25 31 C160.54 -1.68, 157.56 0.28, 198.75 31" fill="none" stroke="#1e1e1e" stroke-width="2"></path></g><g transform="translate(606.636589050293 441.4599609375) rotate(0 69.54993438720703 25)"><text direction="ltr" dominant-baseline="text-before-edge" fill="#1e1e1e" font-family="Virgil, Segoe UI Emoji" font-size="20px" style="white-space: pre;" text-anchor="middle" x="69.54993438720703" y="0">Peer to Peer?</text><text direction="ltr" dominant-baseline="text-before-edge" fill="#1e1e1e" font-family="Virgil, Segoe UI Emoji" font-size="20px" style="white-space: pre;" text-anchor="middle" x="69.54993438720703" y="25">Audio/Video?</text></g><g mask="url(#mask-CDzoVFz20zuXaZdGjqWla)" stroke-linecap="round"><g transform="translate(629.960000942817 558.4351654719471) rotate(0 -19.948586000607634 37.08259659899977)"><path d="M-0.4 1.04 C-7.04 13.74, -34.11 63.05, -40.8 75.36 M1.58 0.54 C-4.6 13.01, -31.36 61.8, -38.57 73.87" fill="none" stroke="#1e1e1e" stroke-width="2"></path></g><g transform="translate(629.960000942817 558.4351654719471) rotate(0 -19.948586000607634 37.08259659899977)"><path d="M-33.57 44.29 C-33.14 49.28, -33.97 56.21, -38.57 73.87 M-33.57 44.29 C-34.36 55.73, -37.36 65.92, -38.57 73.87" fill="none" stroke="#1e1e1e" stroke-width="2"></path></g><g transform="translate(629.960000942817 558.4351654719471) rotate(0 -19.948586000607634 37.08259659899977)"><path d="M-15.72 54.43 C-19.15 57.12, -23.91 61.83, -38.57 73.87 M-15.72 54.43 C-23.03 62.22, -32.51 68.73, -38.57 73.87" fill="none" stroke="#1e1e1e" stroke-width="2"></path></g></g><mask id="mask-CDzoVFz20zuXaZdGjqWla"><rect fill="#fff" height="732.6003586699467" width="769.8571729440323" x="0" y="0"></rect><rect fill="#000" height="25" opacity="1" width="23.959976196289062" x="598.0314268440648" y="583.0177620709469"></rect></mask><g transform="translate(598.0314268440648 583.0177620709469) rotate(0 12.3198393323878 13.368928155987533)"><text direction="ltr" dominant-baseline="text-before-edge" fill="#1e1e1e" font-family="Virgil, Segoe UI Emoji" font-size="20px" style="white-space: pre;" text-anchor="middle" x="11.979988098144531" y="0">No</text></g><g stroke-linecap="round" transform="translate(473.33203125 636.0703125) rotate(0 92.2890625 45.0703125)"><path d="M65.63 2.94 C77.3 0.41, 92.12 -0.14, 105.27 0.77 C118.42 1.67, 133.34 4.57, 144.51 8.37 C155.69 12.16, 165.67 18.09, 172.31 23.53 C178.94 28.97, 183.22 34.57, 184.31 41.01 C185.4 47.46, 183.86 55.87, 178.86 62.2 C173.86 68.53, 164.17 74.74, 154.29 79.01 C144.42 83.27, 132.26 86.1, 119.62 87.78 C106.99 89.45, 91.65 89.83, 78.47 89.05 C65.29 88.27, 51.47 86.76, 40.55 83.09 C29.63 79.43, 19.79 72.94, 12.95 67.06 C6.1 61.19, 0.56 54.26, -0.52 47.85 C-1.59 41.45, 1.53 34.75, 6.5 28.65 C11.46 22.56, 17.78 15.83, 29.26 11.29 C40.74 6.74, 65.73 3.02, 75.36 1.37 C85 -0.27, 86.72 0.62, 87.05 1.4 M134.38 5.77 C146.18 8.08, 157.2 12.74, 165.37 17.91 C173.55 23.08, 180.95 30.31, 183.43 36.79 C185.91 43.28, 183.97 50.62, 180.25 56.81 C176.52 63, 169.73 68.76, 161.08 73.93 C152.42 79.11, 140.42 85.35, 128.32 87.86 C116.22 90.37, 101.6 89.61, 88.47 89 C75.33 88.39, 61.25 87.16, 49.5 84.22 C37.76 81.28, 25.87 76.68, 17.99 71.36 C10.1 66.04, 4.59 58.56, 2.2 52.3 C-0.2 46.03, -0.01 39.82, 3.6 33.76 C7.22 27.7, 15.37 20.74, 23.9 15.93 C32.43 11.13, 42.87 7.34, 54.78 4.94 C66.68 2.54, 82.11 1.53, 95.33 1.51 C108.55 1.48, 127.43 3.84, 134.09 4.79 C140.76 5.74, 135.64 6.5, 135.33 7.21" fill="none" stroke="#1e1e1e" stroke-width="2"></path></g><g transform="translate(515.8729197394985 668.7711014010532) rotate(0 49.989952087402344 12.5)"><text direction="ltr" dominant-baseline="text-before-edge" fill="#1e1e1e" font-family="Virgil, Segoe UI Emoji" font-size="20px" style="white-space: pre;" text-anchor="middle" x="49.989952087402344" y="0">Websocket</text></g><g mask="url(#mask-HYHT4CHx6mqSQmhDJ67Sc)" stroke-linecap="round"><g transform="translate(493.9464085009747 354.10217692231976) rotate(0 40.48647989053097 26.875209243345893)"><path d="M0.98 -0.87 C14.6 8.02, 68.39 43.62, 81.85 52.74 M0.03 1.29 C13.57 10.35, 67.81 44.76, 81.37 53.74" fill="none" stroke="#1e1e1e" stroke-width="2"></path></g><g transform="translate(493.9464085009747 354.10217692231976) rotate(0 40.48647989053097 26.875209243345893)"><path d="M52.12 47.04 C59.67 50.34, 68.44 52.2, 81.37 53.74 M52.12 47.04 C60.39 49.22, 70.21 51.22, 81.37 53.74" fill="none" stroke="#1e1e1e" stroke-width="2"></path></g><g transform="translate(493.9464085009747 354.10217692231976) rotate(0 40.48647989053097 26.875209243345893)"><path d="M63.27 29.81 C67.29 38.51, 72.63 45.69, 81.37 53.74 M63.27 29.81 C67.97 37.3, 74.36 44.58, 81.37 53.74" fill="none" stroke="#1e1e1e" stroke-width="2"></path></g></g><mask id="mask-HYHT4CHx6mqSQmhDJ67Sc"><rect fill="#fff" height="507.85259540901154" width="674.9193682820367" x="0" y="0"></rect><rect fill="#000" height="25" opacity="1" width="32.119964599609375" x="518.372906091701" y="368.4773861656657"></rect></mask><g transform="translate(518.372906091701 368.4773861656656) rotate(0 16.516265987404665 12.062022270238998)"><text direction="ltr" dominant-baseline="text-before-edge" fill="#1e1e1e" font-family="Virgil, Segoe UI Emoji" font-size="20px" style="white-space: pre;" text-anchor="middle" x="16.059982299804688" y="0">Yes</text></g><g stroke-linecap="round" transform="translate(831.41015625 599.2421875) rotate(0 91.240234375 53.91015625)"><path d="M117.37 2.92 C129.79 4.27, 143.91 8.83, 153.78 13.94 C163.64 19.04, 171.81 26.1, 176.56 33.53 C181.31 40.96, 183.31 50.69, 182.29 58.5 C181.26 66.32, 177.05 73.9, 170.38 80.42 C163.71 86.94, 153.04 93.15, 142.26 97.64 C131.49 102.13, 118.65 106.06, 105.73 107.35 C92.81 108.64, 77.56 107.66, 64.77 105.38 C51.97 103.11, 38.62 99.03, 28.94 93.71 C19.25 88.38, 11.37 80.8, 6.67 73.44 C1.97 66.08, -0.19 57.26, 0.75 49.55 C1.68 41.83, 5.85 33.79, 12.29 27.17 C18.73 20.55, 28.69 14.41, 39.38 9.82 C50.07 5.23, 61.35 0.54, 76.41 -0.37 C91.46 -1.28, 119.13 2.6, 129.72 4.37 C140.32 6.15, 140.78 9.42, 139.96 10.27 M112.08 1.33 C124.7 1.8, 138.58 5.35, 148.82 10.28 C159.07 15.22, 168.07 23.74, 173.56 30.94 C179.05 38.13, 181.55 45.89, 181.76 53.45 C181.97 61.01, 180.6 69.13, 174.81 76.3 C169.01 83.48, 157.64 91.58, 146.99 96.51 C136.33 101.43, 123.54 103.95, 110.88 105.86 C98.22 107.77, 83.97 109.62, 71.02 107.99 C58.07 106.36, 43.27 101.05, 33.17 96.07 C23.06 91.1, 16.04 85.15, 10.4 78.15 C4.77 71.14, -0.22 61.9, -0.62 54.03 C-1.03 46.15, 2.43 37.95, 7.99 30.88 C13.55 23.81, 22.45 16.55, 32.74 11.62 C43.03 6.68, 56.63 2.95, 69.74 1.29 C82.85 -0.37, 104.78 1.41, 111.41 1.67 C118.05 1.92, 109.99 1.92, 109.55 2.84" fill="none" stroke="#1e1e1e" stroke-width="2"></path></g><g transform="translate(883.3638284265048 640.5321066907986) rotate(0 39.26997375488281 12.5)"><text direction="ltr" dominant-baseline="text-before-edge" fill="#1e1e1e" font-family="Virgil, Segoe UI Emoji" font-size="20px" style="white-space: pre;" text-anchor="middle" x="39.26997375488281" y="0">WebRTC</text></g><g mask="url(#mask-cof_IKOiGS1-Sx4DEnMo9)" stroke-linecap="round"><g transform="translate(759.4624020379765 528.1596928289653) rotate(0 51.744604511200805 37.71794011939119)"><path d="M-0.96 -0.61 C16.31 11.73, 85.75 62.26, 103.06 74.9 M0.74 1.69 C17.86 14.11, 85.04 63.7, 101.89 76.16" fill="none" stroke="#1e1e1e" stroke-width="2"></path></g><g transform="translate(759.4624020379765 528.1596928289653) rotate(0 51.744604511200805 37.71794011939119)"><path d="M73.12 67.66 C79.49 69.34, 86.92 71.26, 101.89 76.16 M73.12 67.66 C81.29 70.93, 88.65 72.07, 101.89 76.16" fill="none" stroke="#1e1e1e" stroke-width="2"></path></g><g transform="translate(759.4624020379765 528.1596928289653) rotate(0 51.744604511200805 37.71794011939119)"><path d="M85.31 51.16 C88.7 56.93, 93.03 63.04, 101.89 76.16 M85.31 51.16 C89.96 59, 93.85 64.83, 101.89 76.16" fill="none" stroke="#1e1e1e" stroke-width="2"></path></g></g><mask id="mask-cof_IKOiGS1-Sx4DEnMo9"><rect fill="#fff" height="703.5955730677476" width="962.9516110603781" x="0" y="0"></rect><rect fill="#000" height="25" opacity="1" width="32.119964599609375" x="795.1470242493726" y="553.3776329483564"></rect></mask><g transform="translate(795.1470242493724 553.3776329483564) rotate(0 15.366634948551678 12.558350282548929)"><text direction="ltr" dominant-baseline="text-before-edge" fill="#1e1e1e" font-family="Virgil, Segoe UI Emoji" font-size="20px" style="white-space: pre;" text-anchor="middle" x="16.059982299804688" y="0">Yes</text></g></svg>