<svg height="590.41796875" version="1.1" viewbox="0 0 787.2079207913821 590.41796875" width="787.2079207913821" xmlns="http://www.w3.org/2000/svg">
<!-- svg-source:excalidraw -->
<!-- payload-type:application/vnd.excalidraw+json --><!-- payload-version:2 -->
<defs>
<style class="style-fonts">
</style>
</defs>
<rect fill="#ffffff" height="590.41796875" width="787.2079207913821" x="0" y="0"></rect><g stroke-linecap="round" transform="translate(13.830078125 121.31235634991765) rotate(0 42.560546875 43.259765625)"><path d="M21.28 0 C34.17 0.42, 51.14 -1.01, 63.84 0 M21.28 0 C30.76 0.69, 40.52 0.02, 63.84 0 M63.84 0 C78.99 -0.17, 83.74 6.34, 85.12 21.28 M63.84 0 C79.8 -1.84, 84.74 6.55, 85.12 21.28 M85.12 21.28 C83.13 33.07, 83.38 46.57, 85.12 65.24 M85.12 21.28 C85.09 33.45, 85.86 44.47, 85.12 65.24 M85.12 65.24 C86.52 78.52, 77.44 85.23, 63.84 86.52 M85.12 65.24 C84.31 77.17, 76.07 84.34, 63.84 86.52 M63.84 86.52 C51.77 85.86, 36.92 87.1, 21.28 86.52 M63.84 86.52 C50.97 86.2, 36.74 86.3, 21.28 86.52 M21.28 86.52 C7.18 86.22, 0.42 80.02, 0 65.24 M21.28 86.52 C7.08 86.23, -1.58 81.44, 0 65.24 M0 65.24 C0.71 52.48, -0.37 35.22, 0 21.28 M0 65.24 C1.22 56, 1.23 44.61, 0 21.28 M0 21.28 C1.38 7.24, 8.34 1.23, 21.28 0 M0 21.28 C-2.01 9.39, 4.84 -0.77, 21.28 0" fill="none" stroke="#1e1e1e" stroke-width="2"></path></g><g transform="translate(22.490646362304688 152.07212197491765) rotate(0 33.89997863769531 12.5)"><text direction="ltr" dominant-baseline="text-before-edge" fill="#1e1e1e" font-family="Virgil, Segoe UI Emoji" font-size="20px" style="white-space: pre;" text-anchor="middle" x="33.89997863769531" y="0">User A</text></g><g stroke-linecap="round" transform="translate(12.87890625 252.42368447491765) rotate(0 42.560546875 43.259765625)"><path d="M21.28 0 C34.57 0.25, 51.74 -0.99, 63.84 0 M21.28 0 C38.65 -0.21, 54.37 -0.51, 63.84 0 M63.84 0 C79.57 -1.6, 84.79 6.62, 85.12 21.28 M63.84 0 C77.94 -2, 84.46 5.24, 85.12 21.28 M85.12 21.28 C84.2 31.9, 86.23 42.14, 85.12 65.24 M85.12 21.28 C86.13 35.51, 85.14 50.01, 85.12 65.24 M85.12 65.24 C84.41 77.47, 76.32 84.62, 63.84 86.52 M85.12 65.24 C85.6 78.95, 79.87 88.35, 63.84 86.52 M63.84 86.52 C53.36 87.22, 42.32 87.09, 21.28 86.52 M63.84 86.52 C52.26 86.3, 40.81 86.74, 21.28 86.52 M21.28 86.52 C7.08 86.27, -1.37 81.18, 0 65.24 M21.28 86.52 C7.84 87.79, 0.07 80.52, 0 65.24 M0 65.24 C-1.36 46.75, -1.17 32.63, 0 21.28 M0 65.24 C0.27 48.21, 0.2 31.65, 0 21.28 M0 21.28 C-1.75 9.09, 5.13 -0.67, 21.28 0 M0 21.28 C0.56 5.11, 8.18 -1.38, 21.28 0" fill="none" stroke="#1e1e1e" stroke-width="2"></path></g><g transform="translate(20.82947540283203 283.18345009991765) rotate(0 34.60997772216797 12.5)"><text direction="ltr" dominant-baseline="text-before-edge" fill="#1e1e1e" font-family="Virgil, Segoe UI Emoji" font-size="20px" style="white-space: pre;" text-anchor="middle" x="34.60997772216797" y="0">User B</text></g><g stroke-linecap="round" transform="translate(10 378.4549344749177) rotate(0 42.560546875 43.259765625)"><path d="M21.28 0 C36.25 -1.46, 47.96 1.2, 63.84 0 M21.28 0 C34.47 -0.64, 45.95 -0.08, 63.84 0 M63.84 0 C77.95 -1.74, 84.55 5.48, 85.12 21.28 M63.84 0 C76.62 -1.57, 84.26 6.38, 85.12 21.28 M85.12 21.28 C86.11 36.18, 84.49 49.63, 85.12 65.24 M85.12 21.28 C84.64 31.49, 84.14 42.71, 85.12 65.24 M85.12 65.24 C85.54 79.01, 79.63 88.11, 63.84 86.52 M85.12 65.24 C83.98 79.88, 78.31 86.72, 63.84 86.52 M63.84 86.52 C49.15 84.97, 35.19 86.71, 21.28 86.52 M63.84 86.52 C51.71 86.52, 38.9 87.52, 21.28 86.52 M21.28 86.52 C7.74 87.62, 0.06 80.38, 0 65.24 M21.28 86.52 C9.22 86.38, -0.92 77.83, 0 65.24 M0 65.24 C2.04 56.7, -0.48 45.69, 0 21.28 M0 65.24 C-1.15 52.74, -1.26 37.9, 0 21.28 M0 21.28 C0.49 5.37, 8.04 -1.2, 21.28 0 M0 21.28 C-0.63 5.4, 4.82 -0.57, 21.28 0" fill="none" stroke="#1e1e1e" stroke-width="2"></path></g><g transform="translate(18.78057098388672 409.2147000999177) rotate(0 33.77997589111328 12.5)"><text direction="ltr" dominant-baseline="text-before-edge" fill="#1e1e1e" font-family="Virgil, Segoe UI Emoji" font-size="20px" style="white-space: pre;" text-anchor="middle" x="33.77997589111328" y="0">User C</text></g><g stroke-linecap="round" transform="translate(266.29577138136506 192.96239920835058) rotate(0 72.84765625000001 58.009765625)"><path d="M29 0 C47.73 -1.8, 66.03 1.12, 116.69 0 M29 0 C48.27 -0.66, 67.33 -0.6, 116.69 0 M116.69 0 C134.8 -1.36, 144.95 9.05, 145.7 29 M116.69 0 C136.18 1.62, 145.55 10.45, 145.7 29 M145.7 29 C144.52 49.93, 144.14 71.32, 145.7 87.01 M145.7 29 C145.41 40.52, 146 53.24, 145.7 87.01 M145.7 87.01 C144.7 106.74, 136.27 116.19, 116.69 116.02 M145.7 87.01 C146.44 106.09, 136.62 115.4, 116.69 116.02 M116.69 116.02 C97.36 116.48, 79.23 116.05, 29 116.02 M116.69 116.02 C91.81 117.34, 66.31 117.26, 29 116.02 M29 116.02 C11.52 115.89, -0.8 104.96, 0 87.01 M29 116.02 C8.24 114.65, 2.18 108.4, 0 87.01 M0 87.01 C0.36 65.29, 1.45 39.31, 0 29 M0 87.01 C0.81 62.95, 1.04 40.01, 0 29 M0 29 C-0.54 8.2, 7.69 -0.5, 29 0 M0 29 C2.15 8.44, 10.45 -0.08, 29 0" fill="none" stroke="#1e1e1e" stroke-width="2"></path></g><g transform="translate(299.063463947283 225.97216483335058) rotate(0 40.079963684082045 25)"><text direction="ltr" dominant-baseline="text-before-edge" fill="#1e1e1e" font-family="Virgil, Segoe UI Emoji" font-size="20px" style="white-space: pre;" text-anchor="middle" x="40.07996368408203" y="0">Endpoint</text><text direction="ltr" dominant-baseline="text-before-edge" fill="#1e1e1e" font-family="Virgil, Segoe UI Emoji" font-size="20px" style="white-space: pre;" text-anchor="middle" x="40.07996368408203" y="25">Server 1</text></g><g stroke-linecap="round" transform="translate(262.65905263136506 347.3041960833506) rotate(0 72.84765625000001 58.009765625)"><path d="M29 0 C47.67 -1.01, 69.05 -0.75, 116.69 0 M29 0 C47.06 0.03, 65.97 0.4, 116.69 0 M116.69 0 C136.16 1.41, 145.57 10.35, 145.7 29 M116.69 0 C137.66 -1.08, 147.3 8.62, 145.7 29 M145.7 29 C143.36 43.01, 143.42 60.84, 145.7 87.01 M145.7 29 C145.66 45.39, 146.28 61.47, 145.7 87.01 M145.7 87.01 C146.35 106.13, 136.54 115.48, 116.69 116.02 M145.7 87.01 C143.79 105.96, 136.12 115.67, 116.69 116.02 M116.69 116.02 C88.28 114.64, 62.13 116.66, 29 116.02 M116.69 116.02 C86.48 116.37, 54.01 115.74, 29 116.02 M29 116.02 C8.43 114.83, 1.89 108.13, 0 87.01 M29 116.02 C11.88 115.17, 1.58 106.52, 0 87.01 M0 87.01 C1.64 64.02, -1.03 45.45, 0 29 M0 87.01 C-0.55 73.88, -1.26 61.96, 0 29 M0 29 C1.87 8.6, 10.35 -0.07, 29 0 M0 29 C2.12 7.7, 9.33 1.38, 29 0" fill="none" stroke="#1e1e1e" stroke-width="2"></path></g><g transform="translate(292.5367458076346 380.3139617083506) rotate(0 42.96996307373048 25)"><text direction="ltr" dominant-baseline="text-before-edge" fill="#1e1e1e" font-family="Virgil, Segoe UI Emoji" font-size="20px" style="white-space: pre;" text-anchor="middle" x="42.96996307373047" y="0">Endpoint</text><text direction="ltr" dominant-baseline="text-before-edge" fill="#1e1e1e" font-family="Virgil, Segoe UI Emoji" font-size="20px" style="white-space: pre;" text-anchor="middle" x="42.96996307373047" y="25">Server 2</text></g><g stroke-linecap="round"><g transform="translate(102.216796875 168.5092156706454) rotate(0 75.00042475318256 27.34474347812572)"><path d="M-0.05 -1.05 C24.93 7.96, 124.77 44.57, 149.66 53.72 M-1.53 1.02 C23.28 10.17, 122.98 45.8, 148.53 54.75" fill="none" stroke="#ffffff" stroke-width="2"></path></g><g transform="translate(102.216796875 168.5092156706454) rotate(0 75.00042475318256 27.34474347812572)"><path d="M29.95 -1.01 C19.71 -1.6, 11.34 -2.27, -0.05 -1.05 M29.95 -1.01 C23.06 -0.4, 15.98 -0.78, -0.05 -1.05" fill="none" stroke="#ffffff" stroke-width="2"></path></g><g transform="translate(102.216796875 168.5092156706454) rotate(0 75.00042475318256 27.34474347812572)"><path d="M22.91 18.27 C14.71 12.21, 8.33 6.08, -0.05 -1.05 M22.91 18.27 C17.72 14.42, 12.27 9.58, -0.05 -1.05" fill="none" stroke="#ffffff" stroke-width="2"></path></g><g transform="translate(102.216796875 168.5092156706454) rotate(0 75.00042475318256 27.34474347812572)"><path d="M118.53 55 C125.29 54.37, 133.93 53.65, 148.53 54.75 M118.53 55 C125.56 55.74, 132.38 55.32, 148.53 54.75" fill="none" stroke="#ffffff" stroke-width="2"></path></g><g transform="translate(102.216796875 168.5092156706454) rotate(0 75.00042475318256 27.34474347812572)"><path d="M125.39 35.66 C130.16 40.51, 136.85 45.27, 148.53 54.75 M125.39 35.66 C130.75 40.87, 135.99 44.93, 148.53 54.75" fill="none" stroke="#ffffff" stroke-width="2"></path></g></g><mask></mask><g stroke-linecap="round"><g transform="translate(109.29109875076631 204.40675257759324) rotate(0 68.2763176758937 23.506619182639724)"><path d="M-1.04 0.85 C21.76 8.52, 114.14 38.72, 137.23 46.31 M0.61 0.25 C23.27 8.04, 113.88 39.63, 136.64 47.47" fill="none" stroke="#1e1e1e" stroke-width="2"></path></g><g transform="translate(109.29109875076631 204.40675257759324) rotate(0 68.2763176758937 23.506619182639724)"><path d="M28.94 -0.09 C20.26 1.11, 7.57 1.85, -1.04 0.85 M28.94 -0.09 C21.38 0.51, 14.68 -0.15, -1.04 0.85" fill="none" stroke="#1e1e1e" stroke-width="2"></path></g><g transform="translate(109.29109875076631 204.40675257759324) rotate(0 68.2763176758937 23.506619182639724)"><path d="M22.53 19.41 C15.96 14.09, 5.43 8.27, -1.04 0.85 M22.53 19.41 C16.51 15.18, 11.38 9.74, -1.04 0.85" fill="none" stroke="#1e1e1e" stroke-width="2"></path></g><g transform="translate(109.29109875076631 204.40675257759324) rotate(0 68.2763176758937 23.506619182639724)"><path d="M106.65 47.93 C118.16 49.17, 125.67 49.45, 136.64 47.47 M106.65 47.93 C113.77 47.66, 121.77 46.65, 136.64 47.47" fill="none" stroke="#1e1e1e" stroke-width="2"></path></g><g transform="translate(109.29109875076631 204.40675257759324) rotate(0 68.2763176758937 23.506619182639724)"><path d="M113.37 28.54 C122.67 36.25, 127.91 43.06, 136.64 47.47 M113.37 28.54 C118.87 33.08, 125.22 36.82, 136.64 47.47" fill="none" stroke="#1e1e1e" stroke-width="2"></path></g></g><mask></mask><g stroke-linecap="round" transform="translate(501.2775168549595 117.8312286389392) rotate(0 83.02038752157426 81.81011984149606)"><path d="M32 0 C69.21 -2.56, 110.41 -2.58, 134.04 0 M32 0 C66.28 0.56, 101.94 0.92, 134.04 0 M134.04 0 C155.96 -0.21, 164.49 8.91, 166.04 32 M134.04 0 C155.26 2.29, 167.4 8.59, 166.04 32 M166.04 32 C165.71 59.66, 167.5 85.24, 166.04 131.62 M166.04 32 C165.76 59.78, 164.76 87.83, 166.04 131.62 M166.04 131.62 C167.82 154.84, 153.87 163.25, 134.04 163.62 M166.04 131.62 C167.68 153.73, 155.51 162.17, 134.04 163.62 M134.04 163.62 C107.44 162.55, 78.79 164.24, 32 163.62 M134.04 163.62 C93.14 163.11, 53.07 163.88, 32 163.62 M32 163.62 C11.44 163.35, 0.28 153.83, 0 131.62 M32 163.62 C9.21 163.43, -0.29 153.12, 0 131.62 M0 131.62 C-0.48 99.91, 1.5 69.15, 0 32 M0 131.62 C-0.24 95.19, -1.81 58.42, 0 32 M0 32 C0.34 10.08, 9.62 0.54, 32 0 M0 32 C-0.45 8.7, 11.48 1.44, 32 0" fill="none" stroke="#1e1e1e" stroke-width="2"></path></g><g transform="translate(545.0879434390338 174.64134848043525) rotate(0 39.20996093749997 25)"><text direction="ltr" dominant-baseline="text-before-edge" fill="#1e1e1e" font-family="Virgil, Segoe UI Emoji" font-size="20px" style="white-space: pre;" text-anchor="middle" x="39.2099609375" y="0">Pub/Sub</text><text direction="ltr" dominant-baseline="text-before-edge" fill="#1e1e1e" font-family="Virgil, Segoe UI Emoji" font-size="20px" style="white-space: pre;" text-anchor="middle" x="39.2099609375" y="25">(Redis)</text></g><g stroke-linecap="round"><g transform="translate(416.528077661894 236.74270779091967) rotate(0 35.15507535168621 -9.741174993732272)"><path d="M-0.14 -0.98 C11.58 -4.5, 59.22 -17.18, 71.08 -20.13 M-1.68 1.12 C9.89 -2.34, 58.49 -15.31, 70.54 -18.93" fill="none" stroke="#1e1e1e" stroke-width="2"></path></g><g transform="translate(416.528077661894 236.74270779091967) rotate(0 35.15507535168621 -9.741174993732272)"><path d="M24.36 -18.29 C14.01 -10.78, 5.71 -4.65, -0.14 -0.98 M24.36 -18.29 C15.72 -12.83, 5.74 -5.74, -0.14 -0.98" fill="none" stroke="#1e1e1e" stroke-width="2"></path></g><g transform="translate(416.528077661894 236.74270779091967) rotate(0 35.15507535168621 -9.741174993732272)"><path d="M29.75 1.52 C17.29 1.86, 7.04 0.83, -0.14 -0.98 M29.75 1.52 C19.17 -0.33, 7.21 -0.51, -0.14 -0.98" fill="none" stroke="#1e1e1e" stroke-width="2"></path></g><g transform="translate(416.528077661894 236.74270779091967) rotate(0 35.15507535168621 -9.741174993732272)"><path d="M46.18 -1.41 C53.2 -6.43, 62.56 -12.89, 70.54 -18.93 M46.18 -1.41 C55.51 -8.32, 63.44 -14, 70.54 -18.93" fill="none" stroke="#1e1e1e" stroke-width="2"></path></g><g transform="translate(416.528077661894 236.74270779091967) rotate(0 35.15507535168621 -9.741174993732272)"><path d="M40.62 -21.17 C49.81 -19.04, 61.18 -18.36, 70.54 -18.93 M40.62 -21.17 C51.96 -20.79, 61.92 -19.22, 70.54 -18.93" fill="none" stroke="#1e1e1e" stroke-width="2"></path></g></g><mask></mask><g stroke-linecap="round" transform="translate(509.3756895131848 383.21228746669414) rotate(0 74.859375 60.775390625)"><path d="M30.39 0 C64.12 0.12, 98.47 -1.51, 119.33 0 M30.39 0 C56.12 -1.14, 82.98 -1.49, 119.33 0 M119.33 0 C139.68 1.76, 151.28 8.43, 149.72 30.39 M119.33 0 C140.17 2.16, 149.85 11.61, 149.72 30.39 M149.72 30.39 C147.47 44.3, 148.4 61.96, 149.72 91.16 M149.72 30.39 C149.94 45.73, 149.86 61.61, 149.72 91.16 M149.72 91.16 C150.59 109.42, 137.99 121.51, 119.33 121.55 M149.72 91.16 C150.27 109.85, 141.84 120.78, 119.33 121.55 M119.33 121.55 C93.96 120.39, 65.86 120.62, 30.39 121.55 M119.33 121.55 C88.52 121.3, 58.73 121.36, 30.39 121.55 M30.39 121.55 C8.55 123.17, 0.6 112.34, 0 91.16 M30.39 121.55 C9.11 123.78, 1.55 111.02, 0 91.16 M0 91.16 C-2.05 73.46, 0.27 57.12, 0 30.39 M0 91.16 C-1.21 75.93, 0.21 62.2, 0 30.39 M0 30.39 C-0.76 11.17, 8.85 0.2, 30.39 0 M0 30.39 C0.76 12.23, 12.3 -0.41, 30.39 0" fill="none" stroke="#1e1e1e" stroke-width="2"></path></g><g transform="translate(543.6850919790052 418.98767809169414) rotate(0 40.54997253417969 25)"><text direction="ltr" dominant-baseline="text-before-edge" fill="#1e1e1e" font-family="Virgil, Segoe UI Emoji" font-size="20px" style="white-space: pre;" text-anchor="middle" x="40.54997253417969" y="0">Update </text><text direction="ltr" dominant-baseline="text-before-edge" fill="#1e1e1e" font-family="Virgil, Segoe UI Emoji" font-size="20px" style="white-space: pre;" text-anchor="middle" x="40.54997253417969" y="25">Server</text></g><g stroke-linecap="round"><g transform="translate(581.4616099022137 362.2174000333059) rotate(0 -2.3249900846509206 -34.572265625)"><path d="M0.56 0.77 C-0.13 -10.78, -3.92 -57.85, -4.9 -69.54 M-0.6 0.12 C-1.42 -11.23, -5.01 -56.82, -5.99 -68.21" fill="none" stroke="#1e1e1e" stroke-width="2"></path></g><g transform="translate(581.4616099022137 362.2174000333059) rotate(0 -2.3249900846509206 -34.572265625)"><path d="M6.53 -40.94 C4.85 -47.88, -0.1 -55.14, -5.99 -68.21 M6.53 -40.94 C3.86 -49.29, -0.1 -55.26, -5.99 -68.21" fill="none" stroke="#1e1e1e" stroke-width="2"></path></g><g transform="translate(581.4616099022137 362.2174000333059) rotate(0 -2.3249900846509206 -34.572265625)"><path d="M-13.92 -39.27 C-10.67 -46.71, -10.68 -54.38, -5.99 -68.21 M-13.92 -39.27 C-10.85 -48.23, -9.07 -54.68, -5.99 -68.21" fill="none" stroke="#1e1e1e" stroke-width="2"></path></g></g><mask></mask><g stroke-linecap="round"><g transform="translate(415.1226546781009 526.93359375) rotate(0 64.796875 -103.48242187500003)"><path d="M-0.56 0.23 C7.5 -20.35, 26.76 -89.43, 48.6 -123.79 C70.44 -158.15, 116.93 -191.99, 130.48 -205.93" fill="none" stroke="#1e1e1e" stroke-dasharray="8 10" stroke-width="2.5"></path></g><g transform="translate(415.1226546781009 526.93359375) rotate(0 64.796875 -103.48242187500003)"><path d="M116.25 -179.51 C121.3 -189.86, 127.24 -195.04, 130.48 -205.93" fill="none" stroke="#1e1e1e" stroke-width="2.5"></path></g><g transform="translate(415.1226546781009 526.93359375) rotate(0 64.796875 -103.48242187500003)"><path d="M102.6 -194.84 C112.02 -200.17, 122.36 -200.4, 130.48 -205.93" fill="none" stroke="#1e1e1e" stroke-width="2.5"></path></g></g><mask></mask><g transform="translate(356.8882796781009 555.41796875) rotate(0 210.15982055664062 12.5)"><text direction="ltr" dominant-baseline="text-before-edge" fill="#1e1e1e" font-family="Virgil, Segoe UI Emoji" font-size="20px" style="white-space: pre;" text-anchor="start" x="0" y="0">1. Publish a message to the relevant topic</text></g><g stroke-linecap="round"><g transform="translate(463.4312484281009 45.375) rotate(0 -19.626953125 79.716796875)"><path d="M-0.83 -1.2 C-7.54 12.3, -38.9 54.8, -40.22 81.72 C-41.54 108.64, -13.96 147.58, -8.74 160.33" fill="none" stroke="#1e1e1e" stroke-dasharray="8 10" stroke-width="2.5"></path></g><g transform="translate(463.4312484281009 45.375) rotate(0 -19.626953125 79.716796875)"><path d="M-31.07 140.29 C-26.14 144.94, -15.42 152.81, -8.74 160.33" fill="none" stroke="#1e1e1e" stroke-width="2.5"></path></g><g transform="translate(463.4312484281009 45.375) rotate(0 -19.626953125 79.716796875)"><path d="M-12.96 130.63 C-13.49 138.1, -8.28 148.9, -8.74 160.33" fill="none" stroke="#1e1e1e" stroke-width="2.5"></path></g></g><mask></mask><g transform="translate(223.0210921781009 10) rotate(0 212.26979064941406 12.5)"><text direction="ltr" dominant-baseline="text-before-edge" fill="#1e1e1e" font-family="Virgil, Segoe UI Emoji" font-size="20px" style="white-space: pre;" text-anchor="start" x="0" y="0">2. Subscribed servers receive the message.</text></g><g transform="translate(72.9390609281009 69.8203125) rotate(0 147.9898681640625 25)"><text direction="ltr" dominant-baseline="text-before-edge" fill="#1e1e1e" font-family="Virgil, Segoe UI Emoji" font-size="20px" style="white-space: pre;" text-anchor="middle" x="147.9898681640625" y="0">3. Message is passed through</text><text direction="ltr" dominant-baseline="text-before-edge" fill="#1e1e1e" font-family="Virgil, Segoe UI Emoji" font-size="20px" style="white-space: pre;" text-anchor="middle" x="147.9898681640625" y="25">existing connection</text></g><g stroke-linecap="round"><g transform="translate(219.2007796781009 125.57421875) rotate(0 -18.28125 45.98828125)"><path d="M-0.35 -0.69 C-6.61 14.69, -30.62 77.2, -36.64 92.73" fill="none" stroke="#1e1e1e" stroke-dasharray="8 10" stroke-width="2.5"></path></g><g transform="translate(219.2007796781009 125.57421875) rotate(0 -18.28125 45.98828125)"><path d="M-36.06 62.74 C-37.32 73.98, -35.12 85.67, -36.64 92.73" fill="none" stroke="#1e1e1e" stroke-width="2.5"></path></g><g transform="translate(219.2007796781009 125.57421875) rotate(0 -18.28125 45.98828125)"><path d="M-16.92 70.13 C-25.46 78.51, -30.52 87.4, -36.64 92.73" fill="none" stroke="#1e1e1e" stroke-width="2.5"></path></g></g><mask></mask></svg>