<svg height="587.859375" version="1.1" viewbox="0 0 916.986686706543 587.859375" width="916.986686706543" xmlns="http://www.w3.org/2000/svg">
<!-- svg-source:excalidraw -->
<!-- payload-type:application/vnd.excalidraw+json --><!-- payload-version:2 -->
<defs>
<style class="style-fonts">
</style>
</defs>
<rect fill="#ffffff" height="587.859375" width="916.986686706543" x="0" y="0"></rect><g stroke-linecap="round" transform="translate(235.51012420654297 110.1875) rotate(0 20.947265625 24.5)"><path d="M24.23 0.19 C28.48 0.62, 33.64 4.85, 36.53 8.74 C39.43 12.63, 41.52 18.42, 41.59 23.55 C41.66 28.68, 39.69 35.41, 36.93 39.51 C34.18 43.6, 29.39 47.08, 25.04 48.15 C20.7 49.21, 14.84 48.39, 10.86 45.91 C6.87 43.43, 2.81 38.1, 1.14 33.28 C-0.53 28.46, -0.64 21.95, 0.86 16.99 C2.37 12.02, 6.12 6.25, 10.16 3.47 C14.21 0.68, 22.33 0.67, 25.12 0.28 C27.92 -0.11, 26.92 0.66, 26.92 1.12 M23.31 -0.47 C27.59 -0.32, 32.5 3.75, 35.51 7.49 C38.52 11.23, 40.93 16.75, 41.38 21.97 C41.84 27.19, 40.63 34.55, 38.24 38.79 C35.84 43.04, 31.42 46.01, 27.02 47.42 C22.62 48.83, 16.09 49.36, 11.84 47.25 C7.59 45.14, 3.36 39.73, 1.52 34.78 C-0.32 29.82, -0.48 22.66, 0.8 17.55 C2.09 12.44, 5.59 7.1, 9.25 4.11 C12.92 1.12, 20.66 0.17, 22.8 -0.38 C24.95 -0.92, 22.27 0.3, 22.11 0.83" fill="#a5d8ff" stroke="none" stroke-width="0"></path><path d="M21.24 0.49 C25.49 0.34, 31.35 2.83, 34.75 6.18 C38.14 9.53, 40.9 15.43, 41.6 20.59 C42.29 25.76, 41.3 32.63, 38.91 37.16 C36.52 41.7, 31.49 46.13, 27.27 47.81 C23.05 49.5, 17.69 49.31, 13.59 47.28 C9.5 45.24, 4.85 40.19, 2.69 35.62 C0.52 31.04, -0.33 24.83, 0.62 19.84 C1.58 14.84, 4.92 9.02, 8.43 5.67 C11.94 2.32, 19.38 0.53, 21.68 -0.28 C23.97 -1.1, 22.04 0.32, 22.18 0.77 M17.72 0.08 C21.89 -0.93, 27.62 1.19, 31.46 3.87 C35.31 6.55, 39.15 11.37, 40.79 16.17 C42.43 20.98, 42.93 27.86, 41.33 32.7 C39.73 37.55, 35.18 42.5, 31.19 45.24 C27.2 47.97, 21.85 49.98, 17.38 49.11 C12.92 48.24, 7.21 44.12, 4.39 40.01 C1.58 35.9, 0.29 29.63, 0.47 24.46 C0.66 19.29, 2.62 12.99, 5.49 9.01 C8.36 5.04, 15.72 1.97, 17.68 0.6 C19.65 -0.77, 17.44 0.38, 17.29 0.79" fill="none" stroke="#1e1e1e" stroke-width="2"></path></g><g transform="translate(253.9354371763169 122.36338386092956) rotate(0 2.7099990844726562 12.5)"><text direction="ltr" dominant-baseline="text-before-edge" fill="#1e1e1e" font-family="Virgil, Segoe UI Emoji" font-size="20px" style="white-space: pre;" text-anchor="middle" x="2.7099990844726562" y="0">1</text></g><g stroke-linecap="round" transform="translate(318.71910858154297 116.619140625) rotate(0 20.947265625 24.5)"><path d="M24.24 0.24 C28.37 0.8, 33.46 4.36, 36.48 8.46 C39.5 12.55, 42.32 19.53, 42.34 24.83 C42.36 30.12, 39.5 36.22, 36.59 40.22 C33.68 44.23, 29.28 47.99, 24.9 48.88 C20.52 49.76, 14.2 48.26, 10.3 45.53 C6.4 42.81, 3.01 37.48, 1.5 32.56 C0 27.63, -0.22 20.92, 1.28 16 C2.78 11.08, 6.4 5.65, 10.5 3.05 C14.6 0.45, 23.18 0.59, 25.88 0.4 C28.57 0.22, 26.73 1.43, 26.68 1.95 M21.81 0.2 C26.17 0.14, 31.9 2.64, 35.24 6.33 C38.58 10.01, 41.27 17.12, 41.87 22.32 C42.46 27.53, 41.19 33.22, 38.81 37.55 C36.44 41.88, 32.02 46.7, 27.61 48.3 C23.19 49.9, 16.48 49.26, 12.32 47.15 C8.16 45.04, 4.6 40.35, 2.66 35.66 C0.71 30.96, -0.33 24.12, 0.65 18.98 C1.62 13.84, 4.85 7.89, 8.5 4.84 C12.16 1.78, 20.41 1.48, 22.57 0.67 C24.74 -0.14, 21.63 -0.33, 21.47 -0.03" fill="#a5d8ff" stroke="none" stroke-width="0"></path><path d="M19.88 -0.26 C24.07 -0.88, 29.81 1.73, 33.39 4.94 C36.96 8.15, 40.33 13.85, 41.32 19 C42.31 24.15, 41.48 31.16, 39.35 35.82 C37.21 40.49, 32.68 44.94, 28.51 46.97 C24.33 49.01, 18.49 49.65, 14.3 48.05 C10.12 46.45, 5.78 41.9, 3.39 37.37 C1 32.84, -0.69 26.08, -0.06 20.86 C0.58 15.64, 3.58 9.49, 7.21 6.03 C10.84 2.56, 19.08 1.02, 21.71 0.08 C24.35 -0.85, 23.04 -0.03, 23.01 0.43 M16.63 0.12 C20.82 -1.13, 27.21 0.95, 31.29 3.45 C35.37 5.95, 39.6 10.18, 41.12 15.12 C42.64 20.06, 42.06 28.06, 40.4 33.11 C38.74 38.15, 34.95 42.93, 31.17 45.41 C27.38 47.89, 21.96 48.86, 17.67 47.98 C13.38 47.1, 8.38 44.04, 5.45 40.1 C2.52 36.16, 0.32 29.48, 0.11 24.34 C-0.1 19.19, 1.47 13.17, 4.19 9.24 C6.9 5.3, 14.32 2.11, 16.41 0.72 C18.5 -0.68, 16.44 0.4, 16.73 0.86" fill="none" stroke="#1e1e1e" stroke-width="2"></path></g><g transform="translate(332.73442551860205 128.79502448592956) rotate(0 7.1199951171875 12.5)"><text direction="ltr" dominant-baseline="text-before-edge" fill="#1e1e1e" font-family="Virgil, Segoe UI Emoji" font-size="20px" style="white-space: pre;" text-anchor="middle" x="7.1199951171875" y="0">2</text></g><g stroke-linecap="round" transform="translate(159.38903045654297 323.484375) rotate(0 45.392578125 20.203125)"><path d="M10.1 0 C34.31 2.96, 65.35 -1.33, 80.68 0 C86.35 2.56, 88.83 2.39, 90.79 10.1 C92.43 14.66, 93.87 16.67, 90.79 30.3 C90.16 35, 85.78 36.92, 80.68 40.41 C63.51 39.14, 52.93 38.74, 10.1 40.41 C3.65 42.32, -1.32 38.87, 0 30.3 C-3.42 25.82, 3.22 20.3, 0 10.1 C3.47 3.65, 4.22 -1.57, 10.1 0" fill="#ffc9c9" stroke="none" stroke-width="0"></path><path d="M10.1 0 C23.26 -1.93, 40.45 -0.87, 80.68 0 M10.1 0 C36.22 0.02, 63.23 0.69, 80.68 0 M80.68 0 C87.81 0.05, 91.34 5.04, 90.79 10.1 M80.68 0 C88 -0.17, 89.98 2.09, 90.79 10.1 M90.79 10.1 C91.82 13.84, 92.29 23.05, 90.79 30.3 M90.79 10.1 C90.58 17.49, 91.61 24.59, 90.79 30.3 M90.79 30.3 C89.12 36.34, 85.59 40.95, 80.68 40.41 M90.79 30.3 C88.66 35.58, 88.84 40.61, 80.68 40.41 M80.68 40.41 C59.14 39.04, 35.01 42.96, 10.1 40.41 M80.68 40.41 C54.73 40.22, 29.13 40.22, 10.1 40.41 M10.1 40.41 C4.34 40.37, -0.84 35.31, 0 30.3 M10.1 40.41 C1.89 39.27, -2.18 36.95, 0 30.3 M0 30.3 C-1.58 26.85, 1.44 19.79, 0 10.1 M0 30.3 C-0.86 24.47, -0.81 19.06, 0 10.1 M0 10.1 C-1.62 1.99, 4.66 0.4, 10.1 0 M0 10.1 C1.03 4.5, 4.15 1.12, 10.1 0" fill="none" stroke="#1e1e1e" stroke-width="2"></path></g><g transform="translate(170.94163513183594 331.1875) rotate(0 33.83997344970703 12.5)"><text direction="ltr" dominant-baseline="text-before-edge" fill="#1e1e1e" font-family="Virgil, Segoe UI Emoji" font-size="20px" style="white-space: pre;" text-anchor="middle" x="33.83997344970703" y="0">Waiting</text></g><g stroke-linecap="round"><g transform="translate(151.59215545654297 284.515625) rotate(0 368.2265625 -0.4140625)"><path d="M0.72 -0.48 C0.92 -0.38, -120.2 0.06, 2.25 -0.17 C124.69 -0.4, 612.88 -1.83, 735.37 -1.86 M-0.36 -1.77 C-0.4 -1.95, -121.6 -2.06, 1.41 -1.95 C124.42 -1.84, 614.95 -1.58, 737.7 -1.09" fill="none" stroke="#1e1e1e" stroke-width="2"></path></g><g transform="translate(151.59215545654297 284.515625) rotate(0 368.2265625 -0.4140625)"><path d="M709.48 9.11 C719.75 5.32, 732.63 -0.82, 737.7 -1.09 M709.48 9.11 C715.35 6.58, 722.38 5.43, 737.7 -1.09" fill="none" stroke="#1e1e1e" stroke-width="2"></path></g><g transform="translate(151.59215545654297 284.515625) rotate(0 368.2265625 -0.4140625)"><path d="M709.53 -11.41 C719.65 -7.2, 732.51 -5.34, 737.7 -1.09 M709.53 -11.41 C715.51 -9.56, 722.53 -6.32, 737.7 -1.09" fill="none" stroke="#1e1e1e" stroke-width="2"></path></g></g><mask></mask><g transform="translate(749.994499206543 242.5703125) rotate(0 22.02997589111328 12.5)"><text direction="ltr" dominant-baseline="text-before-edge" fill="#1e1e1e" font-family="Virgil, Segoe UI Emoji" font-size="20px" style="white-space: pre;" text-anchor="start" x="0" y="0">Time</text></g><g stroke-linecap="round"><g transform="translate(241.82653045654297 269.671875) rotate(0 0 14.507812500000057)"><path d="M-0.03 -0.24 C-0.02 4.64, 0.48 23.93, 0.54 28.8 M-0.71 0.82 C-0.77 5.83, 0.24 24.6, 0.39 29.39" fill="none" stroke="#1e1e1e" stroke-width="1"></path></g></g><mask></mask><g stroke-linecap="round"><g transform="translate(391.12880059940437 271.389567135009) rotate(0 0 14.507812500000057)"><path d="M-0.47 0.54 C-0.4 5.46, 0.14 24.7, 0.22 29.4 M0.29 0.34 C0.32 5.11, 0 23.83, -0.09 28.64" fill="none" stroke="#1e1e1e" stroke-width="1"></path></g></g><mask></mask><g stroke-linecap="round"><g transform="translate(546.8553630994044 268.877848385009) rotate(0 0 14.507812500000057)"><path d="M0.22 -0.49 C0.22 4.3, 0.31 23.54, 0.25 28.51 M-0.34 0.45 C-0.4 5.31, -0.01 24.28, -0.05 28.95" fill="none" stroke="#1e1e1e" stroke-width="1"></path></g></g><mask></mask><g stroke-linecap="round"><g transform="translate(698.9881755994044 270.432535885009) rotate(0 0 14.507812500000057)"><path d="M0.1 -0.38 C0.1 4.38, -0.34 23.69, -0.34 28.59 M-0.52 0.62 C-0.31 5.42, 0.67 24.23, 0.72 29.06" fill="none" stroke="#1e1e1e" stroke-width="1"></path></g></g><mask></mask><g transform="translate(55.87340545654297 10) rotate(0 40.97996520996094 12.5)"><text direction="ltr" dominant-baseline="text-before-edge" fill="#1e1e1e" font-family="Virgil, Segoe UI Emoji" font-size="20px" style="white-space: pre;" text-anchor="start" x="0" y="0">Updates</text></g><g stroke-linecap="round"><g transform="translate(144.74840545654297 22.484375) rotate(0 56.30634646003284 39.21322168085226)"><path d="M-0.35 -0.67 C14.37 3.72, 68.99 12.19, 87.77 25.33 C106.56 38.48, 108.33 69.26, 112.37 78.18" fill="none" stroke="#1e1e1e" stroke-dasharray="8 10" stroke-width="2.5"></path></g><g transform="translate(144.74840545654297 22.484375) rotate(0 56.30634646003284 39.21322168085226)"><path d="M95.17 53.98 C98.18 60.19, 104.99 65.81, 112.37 78.18" fill="none" stroke="#1e1e1e" stroke-width="2.5"></path></g><g transform="translate(144.74840545654297 22.484375) rotate(0 56.30634646003284 39.21322168085226)"><path d="M114.76 48.59 C112.79 56.1, 114.67 63.07, 112.37 78.18" fill="none" stroke="#1e1e1e" stroke-width="2.5"></path></g></g><mask></mask><g stroke-linecap="round"><g transform="translate(100.09215545654297 451.94921875) rotate(0 25.1484375 -54.97172706746335)"><path d="M-1.04 0.66 C7.49 -17.7, 42.74 -91.21, 51.35 -109.63 M0.61 -0.04 C9.06 -18.82, 42.72 -93.51, 50.96 -111.59" fill="none" stroke="#1e1e1e" stroke-width="2"></path></g><g transform="translate(100.09215545654297 451.94921875) rotate(0 25.1484375 -54.97172706746335)"><path d="M48.68 -81.68 C50.37 -89.25, 50.51 -99.78, 50.96 -111.59 M48.68 -81.68 C49.32 -90.83, 50.33 -100.79, 50.96 -111.59" fill="none" stroke="#1e1e1e" stroke-width="2"></path></g><g transform="translate(100.09215545654297 451.94921875) rotate(0 25.1484375 -54.97172706746335)"><path d="M29.98 -90.14 C37.55 -94.9, 43.53 -102.79, 50.96 -111.59 M29.98 -90.14 C36.32 -96.75, 43.08 -104.11, 50.96 -111.59" fill="none" stroke="#1e1e1e" stroke-width="2"></path></g></g><mask></mask><g transform="translate(13.865592956542969 329.46875) rotate(0 30.84996795654297 12.5)"><text direction="ltr" dominant-baseline="text-before-edge" fill="#1e1e1e" font-family="Virgil, Segoe UI Emoji" font-size="20px" style="white-space: pre;" text-anchor="start" x="0" y="0">Server</text></g><g transform="translate(10 439.16015625) rotate(0 27.049972534179688 12.5)"><text direction="ltr" dominant-baseline="text-before-edge" fill="#1e1e1e" font-family="Virgil, Segoe UI Emoji" font-size="20px" style="white-space: pre;" text-anchor="start" x="0" y="0">Client</text></g><g mask="url(#mask-K78xx3i0s5qzY4BfhgbhZ)" stroke-linecap="round"><g transform="translate(256.57262420654297 337.95309737919183) rotate(0 34.76953125 64.33204506040408)"><path d="M-0.01 0.78 C11.71 22.22, 58.78 106.45, 70.42 127.74 M-1.48 0.14 C10.16 21.79, 58.16 107.19, 69.93 128.79" fill="none" stroke="#1e1e1e" stroke-width="2"></path></g><g transform="translate(256.57262420654297 337.95309737919183) rotate(0 34.76953125 64.33204506040408)"><path d="M47.29 109.11 C55.34 116.59, 59.42 121.54, 69.93 128.79 M47.29 109.11 C54.12 115.5, 60.72 120.32, 69.93 128.79" fill="none" stroke="#1e1e1e" stroke-width="2"></path></g><g transform="translate(256.57262420654297 337.95309737919183) rotate(0 34.76953125 64.33204506040408)"><path d="M65.24 99.16 C67.73 109.67, 66.33 117.66, 69.93 128.79 M65.24 99.16 C66.9 108.3, 68.36 115.97, 69.93 128.79" fill="none" stroke="#1e1e1e" stroke-width="2"></path></g></g><mask id="mask-K78xx3i0s5qzY4BfhgbhZ"><rect fill="#fff" height="566.6171875" width="426.11168670654297" x="0" y="0"></rect><rect fill="#000" height="45" opacity="1" width="9.755996704101562" x="286.4641571044922" y="379.7851424395959"></rect></mask><g transform="translate(286.4641571044922 379.7851424395959) rotate(0 4.576736038522824 22.63295370368286)"><text direction="ltr" dominant-baseline="text-before-edge" fill="#1e1e1e" font-family="Virgil, Segoe UI Emoji" font-size="36px" style="white-space: pre;" text-anchor="middle" x="4.877998352050781" y="0">1</text></g><g stroke-linecap="round"><g transform="translate(325.90465545654297 467.109375) rotate(0 37.302734375 -63.716796875)"><path d="M-1.2 -0.02 C11.43 -21.55, 62.32 -106.61, 74.81 -128.02 M0.38 -1.08 C12.95 -21.94, 61.33 -105.68, 73.98 -126.79" fill="none" stroke="#1e1e1e" stroke-width="2"></path></g><g transform="translate(325.90465545654297 467.109375) rotate(0 37.302734375 -63.716796875)"><path d="M68.55 -97.29 C69.42 -103.36, 69.68 -111.59, 73.98 -126.79 M68.55 -97.29 C69.81 -104.11, 70.62 -109.84, 73.98 -126.79" fill="none" stroke="#1e1e1e" stroke-width="2"></path></g><g transform="translate(325.90465545654297 467.109375) rotate(0 37.302734375 -63.716796875)"><path d="M50.85 -107.68 C55.71 -111.3, 59.85 -117.24, 73.98 -126.79 M50.85 -107.68 C55.84 -112.15, 60.36 -115.7, 73.98 -126.79" fill="none" stroke="#1e1e1e" stroke-width="2"></path></g></g><mask></mask><g stroke-linecap="round" transform="translate(405.63903045654297 320.0625) rotate(0 1.728515625 21.0078125)"><path d="M0.86 0 C1.43 0, 1.68 -0.01, 2.59 0 C3.93 -1.24, 1.81 1.62, 3.46 0.86 C1.34 12.84, 1.84 26.64, 3.46 41.15 C0.98 40.26, 4.68 40.81, 2.59 42.02 C1.93 42.08, 1.42 42.18, 0.86 42.02 C0.75 44.31, -1.92 40.88, 0 41.15 C-1.89 29.11, 0.24 21.34, 0 0.86 C1.91 -0.13, -0.43 -0.22, 0.86 0" fill="#ffc9c9" stroke="none" stroke-width="0"></path><path d="M0.86 0 C1.5 0.05, 2.1 0.05, 2.59 0 M0.86 0 C1.51 -0.01, 2.24 0.01, 2.59 0 M2.59 0 C3.89 0.76, 2.59 0.23, 3.46 0.86 M2.59 0 C3.67 -0.05, 3.68 0.29, 3.46 0.86 M3.46 0.86 C3.75 15.77, 2.71 30.56, 3.46 41.15 M3.46 0.86 C3.04 11.73, 3.68 23.35, 3.46 41.15 M3.46 41.15 C3.43 42.15, 2.43 42.35, 2.59 42.02 M3.46 41.15 C2.4 41.91, 3.16 41.54, 2.59 42.02 M2.59 42.02 C2.1 41.98, 1.67 42.06, 0.86 42.02 M2.59 42.02 C2.22 42, 1.82 42.05, 0.86 42.02 M0.86 42.02 C0.16 42.3, -0.76 40.96, 0 41.15 M0.86 42.02 C-0.21 43.04, -0.95 40.72, 0 41.15 M0 41.15 C0.22 25.39, -0.05 9.59, 0 0.86 M0 41.15 C0.09 30, 0.08 18.28, 0 0.86 M0 0.86 C-0.13 1, -0.56 -0.79, 0.86 0 M0 0.86 C0.23 1.22, 1.33 0.31, 0.86 0" fill="none" stroke="#1e1e1e" stroke-width="2"></path></g><g mask="url(#mask-wD9ToLqla1phL2u8eoy8p)" stroke-linecap="round"><g transform="translate(417.07653045654297 342.90625) rotate(0 36.28125 61.431640625)"><path d="M-0.07 -0.6 C11.95 19.96, 59.58 102.61, 71.7 123.14 M-1.57 1.69 C10.87 21.9, 61.7 100.82, 73.97 121.16" fill="none" stroke="#1e1e1e" stroke-width="2"></path></g><g transform="translate(417.07653045654297 342.90625) rotate(0 36.28125 61.431640625)"><path d="M50.31 102.71 C55.53 106.17, 63.25 112.72, 73.97 121.16 M50.31 102.71 C56.52 107.01, 63.59 112.96, 73.97 121.16" fill="none" stroke="#1e1e1e" stroke-width="2"></path></g><g transform="translate(417.07653045654297 342.90625) rotate(0 36.28125 61.431640625)"><path d="M67.71 91.82 C68.3 98.16, 71.42 107.58, 73.97 121.16 M67.71 91.82 C69.09 99.11, 71.37 108.06, 73.97 121.16" fill="none" stroke="#1e1e1e" stroke-width="2"></path></g></g><mask id="mask-wD9ToLqla1phL2u8eoy8p"><rect fill="#fff" height="565.76953125" width="589.639030456543" x="0" y="0"></rect><rect fill="#000" height="45" opacity="1" width="25.631988525390625" x="440.54178619384766" y="381.837890625"></rect></mask><g transform="translate(440.54178619384766 381.837890625) rotate(0 12.732665894348202 22.336341549083556)"><text direction="ltr" dominant-baseline="text-before-edge" fill="#1e1e1e" font-family="Virgil, Segoe UI Emoji" font-size="36px" style="white-space: pre;" text-anchor="middle" x="12.815994262695312" y="0">2</text></g><g stroke-linecap="round"><g transform="translate(491.26403045654297 462.921875) rotate(0 30.925781249999886 -63.47467844328844)"><path d="M-0.98 0.83 C9.19 -19.97, 51.24 -104.33, 61.66 -125.79 M0.71 0.21 C10.65 -20.8, 50.63 -106.07, 60.62 -127.31" fill="none" stroke="#1e1e1e" stroke-width="2"></path></g><g transform="translate(491.26403045654297 462.921875) rotate(0 30.925781249999886 -63.47467844328844)"><path d="M57.92 -97.43 C60.51 -108.33, 62.01 -119.12, 60.62 -127.31 M57.92 -97.43 C57.76 -104.13, 58.26 -109.54, 60.62 -127.31" fill="none" stroke="#1e1e1e" stroke-width="2"></path></g><g transform="translate(491.26403045654297 462.921875) rotate(0 30.925781249999886 -63.47467844328844)"><path d="M39.35 -106.15 C48.45 -113.8, 56.54 -121.5, 60.62 -127.31 M39.35 -106.15 C43.11 -110.96, 47.57 -114.51, 60.62 -127.31" fill="none" stroke="#1e1e1e" stroke-width="2"></path></g></g><mask></mask><g stroke-linecap="round" transform="translate(560.224967956543 327.2109375) rotate(0 173.380859375 20.203125)"><path d="M10.1 0 C105.25 -4.44, 200.96 -2.35, 336.66 0 C343.36 -0.68, 349.99 0.99, 346.76 10.1 C349.23 18.46, 349.38 21.88, 346.76 30.3 C343.67 34.19, 346.26 40.3, 336.66 40.41 C206.97 37.99, 75.73 35.31, 10.1 40.41 C1.58 39.85, 2.18 35, 0 30.3 C-2.47 26.7, 0.23 23.32, 0 10.1 C3.24 2.67, 3.28 -2.71, 10.1 0" fill="#ffc9c9" stroke="none" stroke-width="0"></path><path d="M10.1 0 C105.75 2.85, 201.56 2.64, 336.66 0 M10.1 0 C77.61 0.66, 145.64 0.77, 336.66 0 M336.66 0 C341.97 0.83, 345.14 3.95, 346.76 10.1 M336.66 0 C345.3 -1.63, 347.58 3.81, 346.76 10.1 M346.76 10.1 C347.41 15.36, 346.39 21.62, 346.76 30.3 M346.76 10.1 C346.92 18.19, 347.46 25.88, 346.76 30.3 M346.76 30.3 C346.25 36.28, 341.88 41.92, 336.66 40.41 M346.76 30.3 C347.65 35.36, 343.17 38.47, 336.66 40.41 M336.66 40.41 C253.17 41.24, 170.06 41.61, 10.1 40.41 M336.66 40.41 C221.9 39.46, 106.39 39.54, 10.1 40.41 M10.1 40.41 C1.57 39.93, 0.56 35.41, 0 30.3 M10.1 40.41 C3.56 41.42, -1.06 38.23, 0 30.3 M0 30.3 C-1.85 22.56, 1.08 15.77, 0 10.1 M0 30.3 C-0.34 25.22, -0.13 18.35, 0 10.1 M0 10.1 C1.63 4.91, 1.53 1.23, 10.1 0 M0 10.1 C-0.18 2.31, 1.97 0.69, 10.1 0" fill="none" stroke="#1e1e1e" stroke-width="2"></path></g><g transform="translate(699.7658538818359 334.9140625) rotate(0 33.83997344970703 12.5)"><text direction="ltr" dominant-baseline="text-before-edge" fill="#1e1e1e" font-family="Virgil, Segoe UI Emoji" font-size="20px" style="white-space: pre;" text-anchor="middle" x="33.83997344970703" y="0">Waiting</text></g><g stroke-linecap="round"><g transform="translate(253.18981170654297 229.9765625) rotate(0 5.684341886080802e-14 13.47265625)"><path d="M-0.1 -0.5 C-0.03 4.06, 0.19 22.76, 0.27 27.32 M-0.81 0.43 C-0.78 4.84, -0.19 22.05, -0.03 26.54" fill="none" stroke="#1e1e1e" stroke-width="2"></path></g></g><mask></mask><g stroke-linecap="round"><g transform="translate(325.66303695999534 227.8511328218039) rotate(0 5.684341886080802e-14 13.472656250000028)"><path d="M0.12 -0.45 C-0.03 3.91, -0.47 22.06, -0.49 26.58 M-0.48 0.5 C-0.5 4.89, 0.47 22.65, 0.49 27.09" fill="none" stroke="#1e1e1e" stroke-width="2"></path></g></g><mask></mask><g stroke-linecap="round"><g transform="translate(254.59215545654297 243.328125) rotate(0 35.166015625 -0.193359375)"><path d="M-0.19 -0.26 C11.5 -0.45, 58.65 0.14, 70.32 0.05 M-1.75 -1.45 C9.76 -1.5, 57.61 -2.14, 69.37 -1.85" fill="none" stroke="#1e1e1e" stroke-width="2"></path></g></g><mask></mask><g stroke-linecap="round"><g transform="translate(99.91637420654297 192.7421875) rotate(0 71.064453125 24.98046875)"><path d="M0.99 1.19 C3.53 5.71, -7.69 19.66, 15.94 27.82 C39.57 35.97, 121.82 46.24, 142.79 50.1" fill="none" stroke="#1e1e1e" stroke-dasharray="8 10" stroke-width="2.5"></path></g><g transform="translate(99.91637420654297 192.7421875) rotate(0 71.064453125 24.98046875)"><path d="M113.36 55.94 C125.84 54.96, 132.38 52.63, 142.79 50.1" fill="none" stroke="#1e1e1e" stroke-width="2.5"></path></g><g transform="translate(99.91637420654297 192.7421875) rotate(0 71.064453125 24.98046875)"><path d="M116.5 35.65 C127.97 41.95, 133.4 46.87, 142.79 50.1" fill="none" stroke="#1e1e1e" stroke-width="2.5"></path></g></g><mask></mask><g transform="translate(22.43590545654297 131.1953125) rotate(0 70.5799331665039 25)"><text direction="ltr" dominant-baseline="text-before-edge" fill="#1e1e1e" font-family="Virgil, Segoe UI Emoji" font-size="20px" style="white-space: pre;" text-anchor="middle" x="70.5799331665039" y="0">Latency for 1 </text><text direction="ltr" dominant-baseline="text-before-edge" fill="#1e1e1e" font-family="Virgil, Segoe UI Emoji" font-size="20px" style="white-space: pre;" text-anchor="middle" x="70.5799331665039" y="25">to be received</text></g><g stroke-linecap="round"><g transform="translate(338.06260289297177 182.58026234518036) rotate(0 5.684341886080802e-14 13.47265625)"><path d="M-0.3 0.42 C-0.4 4.85, -0.51 22.67, -0.41 27.14 M0.55 0.16 C0.6 4.66, 0.69 21.92, 0.61 26.27" fill="none" stroke="#1e1e1e" stroke-width="2"></path></g></g><mask></mask><g stroke-linecap="round"><g transform="translate(483.02883985159065 180.66062850269725) rotate(0 5.684341886080802e-14 13.47265625)"><path d="M-0.49 -0.42 C-0.43 4.1, 0.19 22.41, 0.22 26.99 M0.26 0.56 C0.28 5.18, 0.08 23.18, -0.1 27.71" fill="none" stroke="#1e1e1e" stroke-width="2"></path></g></g><mask></mask><g stroke-linecap="round"><g transform="translate(337.24840545654297 197.890625) rotate(0 71.80078125 -1.23828125)"><path d="M-1.09 -0.8 C22.94 -1, 119.01 -2.21, 143.17 -2.31 M0.54 1.4 C24.46 1.5, 118.21 0.08, 142 -0.68" fill="none" stroke="#1e1e1e" stroke-width="2"></path></g></g><mask></mask><g transform="translate(550.623405456543 118.046875) rotate(0 70.5799331665039 25)"><text direction="ltr" dominant-baseline="text-before-edge" fill="#1e1e1e" font-family="Virgil, Segoe UI Emoji" font-size="20px" style="white-space: pre;" text-anchor="middle" x="70.5799331665039" y="0">Latency for 2</text><text direction="ltr" dominant-baseline="text-before-edge" fill="#1e1e1e" font-family="Virgil, Segoe UI Emoji" font-size="20px" style="white-space: pre;" text-anchor="middle" x="70.5799331665039" y="25">to be received</text></g><g stroke-linecap="round"><g transform="translate(614.670280456543 176.046875) rotate(0 -55.3515625 10.861328125)"><path d="M0.48 -0.99 C-3.16 1.98, -2.84 14.95, -21.25 18.78 C-39.67 22.62, -94.99 21.32, -110.01 22" fill="none" stroke="#1e1e1e" stroke-dasharray="8 10" stroke-width="2.5"></path></g><g transform="translate(614.670280456543 176.046875) rotate(0 -55.3515625 10.861328125)"><path d="M-81.94 11.4 C-93.32 15.24, -100.77 20.09, -110.01 22" fill="none" stroke="#1e1e1e" stroke-width="2.5"></path></g><g transform="translate(614.670280456543 176.046875) rotate(0 -55.3515625 10.861328125)"><path d="M-81.69 31.92 C-93.33 28.58, -100.87 26.26, -110.01 22" fill="none" stroke="#1e1e1e" stroke-width="2.5"></path></g></g><mask></mask><g stroke-linecap="round"><g transform="translate(194.10778045654297 518.1875) rotate(0 -29.638671875 -54.205078125)"><path d="M-0.94 -0.97 C-7.64 -8.16, -31.26 -25.16, -40.8 -42.97 C-50.34 -60.77, -55.09 -96.89, -58.18 -107.81" fill="none" stroke="#1e1e1e" stroke-dasharray="8 10" stroke-width="2.5"></path></g><g transform="translate(194.10778045654297 518.1875) rotate(0 -29.638671875 -54.205078125)"><path d="M-42.23 -82.39 C-47.87 -90.58, -48.98 -93.37, -58.18 -107.81" fill="none" stroke="#1e1e1e" stroke-width="2.5"></path></g><g transform="translate(194.10778045654297 518.1875) rotate(0 -29.638671875 -54.205078125)"><path d="M-62.3 -78.09 C-62.94 -87.2, -59.03 -91.06, -58.18 -107.81" fill="none" stroke="#1e1e1e" stroke-width="2.5"></path></g></g><mask></mask><g transform="translate(172.70657348632812 521.125) rotate(0 45.369956970214844 12.5)"><text direction="ltr" dominant-baseline="text-before-edge" fill="#1e1e1e" font-family="Virgil, Segoe UI Emoji" font-size="20px" style="white-space: pre;" text-anchor="middle" x="45.369956970214844" y="0">Requests</text></g><g stroke-linecap="round"><g transform="translate(414.6384032264922 540.078125) rotate(0 2.299141740025391 -58.44140625)"><path d="M-0.99 0.52 C-0.21 -19.18, 4.01 -98.45, 5.06 -118.07" fill="none" stroke="#1e1e1e" stroke-dasharray="8 10" stroke-width="2.5"></path></g><g transform="translate(414.6384032264922 540.078125) rotate(0 2.299141740025391 -58.44140625)"><path d="M13.81 -89.37 C11.74 -98.24, 5.98 -107.37, 5.06 -118.07" fill="none" stroke="#1e1e1e" stroke-width="2.5"></path></g><g transform="translate(414.6384032264922 540.078125) rotate(0 2.299141740025391 -58.44140625)"><path d="M-6.68 -90.46 C-1.92 -98.8, -0.85 -107.56, 5.06 -118.07" fill="none" stroke="#1e1e1e" stroke-width="2.5"></path></g></g><mask></mask><g transform="translate(368.3406448364258 552.859375) rotate(0 49.14994812011719 12.5)"><text direction="ltr" dominant-baseline="text-before-edge" fill="#1e1e1e" font-family="Virgil, Segoe UI Emoji" font-size="20px" style="white-space: pre;" text-anchor="middle" x="49.14994812011719" y="0">Responses</text></g></svg>