<svg height="941.9131466712527" version="1.1" viewbox="0 0 931.9914695225887 941.9131466712527" width="931.9914695225887" xmlns="http://www.w3.org/2000/svg">
<!-- svg-source:excalidraw -->
<!-- payload-type:application/vnd.excalidraw+json --><!-- payload-version:2 -->
<defs>
<style class="style-fonts">
</style>
</defs>
<rect fill="#ffffff" height="941.9131466712527" width="931.9914695225887" x="0" y="0"></rect><g stroke-linecap="round" transform="translate(156.28168396164256 159.57470032999117) rotate(0 311.15629960823435 313.5150513542821)"><path d="M344.23 1.42 C365.93 -1.26, 389.58 9.75, 410.63 16.91 C431.67 24.08, 451.51 33.11, 470.52 44.42 C489.53 55.73, 508.44 69.39, 524.66 84.78 C540.88 100.17, 555.38 118.02, 567.82 136.76 C580.27 155.49, 590.87 176.28, 599.32 197.19 C607.77 218.1, 614.86 240.16, 618.53 262.22 C622.2 284.28, 622.49 306.98, 621.33 329.53 C620.18 352.09, 617.56 375.85, 611.61 397.55 C605.65 419.24, 595.98 440.02, 585.6 459.71 C575.22 479.39, 563.77 498.36, 549.33 515.68 C534.88 533, 516.82 550.01, 498.93 563.62 C481.04 577.24, 462.17 588.2, 441.99 597.38 C421.81 606.55, 399.7 613.85, 377.83 618.66 C355.97 623.48, 333.02 626.02, 310.81 626.27 C288.59 626.52, 266.15 624.77, 244.55 620.17 C222.96 615.57, 201.37 608.29, 181.26 598.66 C161.16 589.03, 141.87 575.93, 123.93 562.41 C106 548.89, 88.33 534.34, 73.65 517.53 C58.96 500.72, 46.17 481.4, 35.83 461.57 C25.49 441.74, 17.56 420.32, 11.58 398.53 C5.6 376.74, 1.33 353.54, -0.03 330.82 C-1.4 308.09, -0.27 284.38, 3.4 262.21 C7.06 240.03, 13.72 218.67, 21.98 197.79 C30.25 176.91, 40.44 155.7, 52.98 136.93 C65.51 118.17, 80.94 100.46, 97.19 85.19 C113.45 69.92, 131.31 56.65, 150.5 45.32 C169.69 33.98, 191.22 24.6, 212.33 17.2 C233.44 9.8, 254.2 3.23, 277.16 0.91 C300.13 -1.41, 337.5 1.93, 350.12 3.27 C362.73 4.62, 353.63 4.1, 352.85 8.99 M232.16 9.04 C251.5 -1.55, 277.33 0.58, 299.98 -0.29 C322.62 -1.17, 346.31 -0.39, 368.03 3.78 C389.75 7.94, 410.1 15.83, 430.3 24.7 C450.51 33.57, 471.04 44.13, 489.28 56.98 C507.51 69.84, 524.44 85.1, 539.73 101.83 C555.01 118.56, 569.82 137.79, 580.99 157.36 C592.15 176.93, 600.19 197.81, 606.71 219.26 C613.22 240.71, 617.77 263.63, 620.07 286.06 C622.36 308.49, 623.2 331.77, 620.49 353.86 C617.78 375.94, 611.24 397.6, 603.8 418.57 C596.37 439.55, 587.89 460.54, 575.89 479.71 C563.88 498.88, 547.55 517.36, 531.76 533.61 C515.98 549.86, 499.53 564.93, 481.18 577.19 C462.84 589.45, 442.7 599.41, 421.69 607.18 C400.67 614.95, 377.46 620.51, 355.11 623.81 C332.76 627.12, 309.76 628.64, 287.6 627 C265.43 625.37, 243.15 620.58, 222.12 614 C201.1 607.42, 180.69 598.13, 161.45 587.5 C142.2 576.87, 123.54 565.15, 106.65 550.23 C89.76 535.31, 73.38 516.16, 60.11 497.98 C46.84 479.81, 35.96 461.37, 27.02 441.18 C18.09 420.99, 11.15 399.19, 6.48 376.83 C1.8 354.47, -1.54 329.68, -1.03 307.03 C-0.52 284.38, 4.15 262.57, 9.55 240.94 C14.96 219.3, 21.83 197.7, 31.43 177.22 C41.02 156.73, 53.16 135.49, 67.1 118.02 C81.05 100.56, 97.93 86.36, 115.12 72.44 C132.3 58.52, 150.38 44.8, 170.22 34.5 C190.06 24.21, 223.21 13.63, 234.14 10.66 C245.07 7.7, 234.61 11.76, 235.81 16.69" fill="none" stroke="#343a40" stroke-width="2"></path></g><g stroke-linecap="round" transform="translate(403.06963772891777 10) rotate(0 65.94913579124659 61.686331430918244)"><path d="M11.06 26.84 C11.06 26.84, 11.06 26.84, 11.06 26.84 M11.06 26.84 C11.06 26.84, 11.06 26.84, 11.06 26.84 M2.01 49.45 C14.88 33.13, 30.35 17.68, 40.06 5.67 M2.01 49.45 C10.4 40.83, 17.75 30.89, 40.06 5.67 M1.49 62.24 C17.1 43.8, 34.67 25.33, 53.31 2.62 M1.49 62.24 C19.93 40.16, 40.72 17.57, 53.31 2.62 M3.59 72.02 C29.78 44.8, 53.09 17.01, 65.26 1.08 M3.59 72.02 C24.7 49.03, 43.6 27.25, 65.26 1.08 M5.69 81.8 C29.42 53.97, 51.88 27.72, 74.57 2.55 M5.69 81.8 C27.23 57.26, 48.64 32.87, 74.57 2.55 M9.76 89.31 C31.34 65.64, 51.07 37.61, 83.89 4.03 M9.76 89.31 C27.35 68.43, 45.94 46.38, 83.89 4.03 M14.48 96.07 C34.26 74.77, 55.72 49.44, 92.55 6.26 M14.48 96.07 C39.54 65.32, 66.09 35.93, 92.55 6.26 M19.21 102.82 C48.45 71.07, 77.47 35.74, 99.9 9.99 M19.21 102.82 C37.6 83.5, 52.56 64.08, 99.9 9.99 M24.59 108.83 C46.73 79.66, 69.47 53.74, 105.94 15.24 M24.59 108.83 C45.63 83.7, 69.03 58.11, 105.94 15.24 M31.94 112.57 C51.21 88.5, 74.89 63.08, 112.64 19.74 M31.94 112.57 C63.45 77.38, 95.57 40.41, 112.64 19.74 M39.29 116.31 C70.63 81.76, 96.54 51.61, 118.67 24.99 M39.29 116.31 C57.2 95.53, 74.46 75.83, 118.67 24.99 M46.64 120.04 C66.2 96.29, 87.15 74.05, 122.74 32.5 M46.64 120.04 C69.64 93.62, 90.7 69.64, 122.74 32.5 M55.3 122.27 C84.21 91.31, 110.12 60.47, 126.16 40.77 M55.3 122.27 C82.23 91.95, 110.07 59.59, 126.16 40.77 M65.93 122.24 C87.87 94.02, 115.63 66.34, 129.57 49.03 M65.93 122.24 C90.78 94.3, 115.33 65.21, 129.57 49.03 M77.22 121.45 C95.9 99.75, 112.63 82.58, 130.36 60.32 M77.22 121.45 C92.11 105.32, 105.24 89.28, 130.36 60.32 M91.78 116.89 C99.51 107.25, 107.83 97.68, 128.52 74.62 M91.78 116.89 C102.39 104.91, 113.48 92.22, 128.52 74.62" fill="none" stroke="#ffc9c9" stroke-width="1"></path><path d="M65.34 0.59 C74.94 -0.44, 85.89 2.27, 94.9 6.33 C103.91 10.39, 113.43 17.22, 119.38 24.96 C125.32 32.69, 129.27 43.13, 130.57 52.75 C131.86 62.36, 130.46 73.63, 127.16 82.67 C123.86 91.7, 118.27 100.6, 110.77 106.94 C103.26 113.27, 91.99 118.12, 82.14 120.66 C72.3 123.21, 61.65 124.31, 51.68 122.21 C41.72 120.11, 30.06 114.44, 22.36 108.04 C14.66 101.64, 9.27 92.52, 5.49 83.82 C1.7 75.12, -1.3 65.34, -0.37 55.85 C0.56 46.35, 5.34 35.06, 11.06 26.84 C16.79 18.62, 24.08 11.09, 33.96 6.52 C43.85 1.95, 63.23 0.09, 70.37 -0.58 C77.5 -1.25, 76.65 1.26, 76.76 2.49 M95.02 4.94 C104.68 8.11, 113.59 16.89, 119.8 24.49 C126.02 32.09, 130.79 41.34, 132.28 50.55 C133.77 59.77, 132.35 70.56, 128.76 79.76 C125.17 88.97, 118.04 99.09, 110.73 105.81 C103.42 112.52, 94.7 117.27, 84.91 120.06 C75.12 122.85, 62.24 124.26, 51.98 122.54 C41.71 120.82, 30.98 115.61, 23.3 109.77 C15.63 103.93, 9.61 96.26, 5.93 87.48 C2.26 78.7, 0.8 66.66, 1.23 57.08 C1.66 47.5, 3.06 38.29, 8.49 29.99 C13.93 21.69, 24.87 12.32, 33.84 7.27 C42.82 2.23, 52.59 0.12, 62.35 -0.26 C72.1 -0.64, 87.33 3.58, 92.38 4.99 C97.43 6.4, 93.07 7.29, 92.65 8.19" fill="none" stroke="#1e1e1e" stroke-width="2"></path></g><g transform="translate(455.6016958067502 49.0675081695951) rotate(0 13.28399658203125 22.5)"><text direction="ltr" dominant-baseline="text-before-edge" fill="#1e1e1e" font-family="Virgil, Segoe UI Emoji" font-size="36px" style="white-space: pre;" text-anchor="middle" x="13.28399658203125" y="0">n1</text></g><g stroke-linecap="round" transform="translate(706.8619428046843 153.02774329991735) rotate(0 65.94913579124659 61.686331430918244)"><path d="M24.02 12.93 C24.02 12.93, 24.02 12.93, 24.02 12.93 M24.02 12.93 C24.02 12.93, 24.02 12.93, 24.02 12.93 M3.16 49.12 C11.12 38.09, 23.25 27.25, 39.9 6.86 M3.16 49.12 C15.47 34.32, 28.35 20.55, 39.9 6.86 M0.67 64.18 C17.96 47.64, 32.56 26.13, 55.12 1.54 M0.67 64.18 C19.51 42.2, 36.36 22.47, 55.12 1.54 M2.77 73.96 C23.08 48.87, 44.38 29.44, 65.75 1.51 M2.77 73.96 C21.28 53.16, 39.58 31.64, 65.75 1.51 M5.53 82.98 C27.15 58.52, 46 34.01, 76.38 1.47 M5.53 82.98 C26.65 59.64, 47.71 35.31, 76.38 1.47 M8.28 92 C36.5 60.67, 66.1 25.64, 86.36 2.19 M8.28 92 C34.4 62.05, 60.01 31.8, 86.36 2.19 M13.67 98.01 C43.05 65.55, 72.11 29.87, 93.05 6.69 M13.67 98.01 C37.09 71.09, 57.69 45.98, 93.05 6.69 M19.7 103.25 C48.67 67.19, 80.99 35.93, 100.4 10.42 M19.7 103.25 C45.82 74.7, 72.16 44.42, 100.4 10.42 M25.74 108.5 C44.86 88.64, 63.47 64.21, 107.09 14.92 M25.74 108.5 C51.58 78.41, 78.3 46.09, 107.09 14.92 M32.44 113 C59.01 83.25, 81.78 54.35, 113.13 20.17 M32.44 113 C62.58 77.77, 91.44 45.33, 113.13 20.17 M39.79 116.74 C54.59 97.41, 73.08 80.61, 117.86 26.93 M39.79 116.74 C55.56 98.43, 73.23 78.5, 117.86 26.93 M48.45 118.97 C70.41 92.53, 94.41 69.1, 122.58 33.68 M48.45 118.97 C66.7 97.98, 82.92 79.14, 122.58 33.68 M56.45 121.95 C77.01 101.28, 93.03 78.1, 126.65 41.2 M56.45 121.95 C82.13 93.25, 106.75 62.84, 126.65 41.2 M66.43 122.67 C84.85 102.46, 99.26 82.56, 129.41 50.22 M66.43 122.67 C88.92 96.84, 110.19 73.11, 129.41 50.22 M79.03 120.37 C88.63 107.99, 101.71 97.98, 130.85 60.75 M79.03 120.37 C95.44 100.81, 112.67 80.29, 130.85 60.75 M90.97 118.83 C103.23 103.28, 116.5 90.11, 131.64 72.04 M90.97 118.83 C104.54 103.37, 117.22 89.65, 131.64 72.04" fill="none" stroke="#a5d8ff" stroke-width="1"></path><path d="M84.78 1.71 C94.37 3.42, 104.28 10.27, 111.48 17.12 C118.68 23.97, 124.66 33.68, 127.96 42.82 C131.26 51.97, 132.99 62.7, 131.27 72.01 C129.55 81.31, 123.85 90.96, 117.65 98.65 C111.45 106.34, 103.36 114.11, 94.06 118.15 C84.77 122.19, 72.06 123.53, 61.9 122.86 C51.75 122.19, 41.94 118.83, 33.13 114.14 C24.32 109.45, 14.55 102.84, 9.04 94.71 C3.54 86.58, 0.75 75.15, 0.09 65.34 C-0.56 55.53, 1.09 44.62, 5.12 35.84 C9.15 27.06, 16.17 18.39, 24.24 12.67 C32.32 6.95, 42.27 2.74, 53.57 1.51 C64.86 0.29, 84.63 4.26, 92.02 5.31 C99.41 6.37, 98.51 6.83, 97.91 7.84 M49.65 1.49 C58.52 -2.02, 70.42 -1.74, 79.97 0.4 C89.52 2.54, 99.12 8.16, 106.96 14.33 C114.8 20.5, 123.13 28.53, 127.02 37.42 C130.91 46.31, 131.5 58.03, 130.32 67.67 C129.14 77.31, 125.2 87.08, 119.94 95.24 C114.67 103.4, 107.22 111.96, 98.72 116.63 C90.21 121.29, 79.43 122.99, 68.91 123.21 C58.38 123.44, 44.69 122.35, 35.56 117.97 C26.42 113.59, 19.97 104.84, 14.1 96.94 C8.22 89.04, 2.29 79.92, 0.31 70.55 C-1.66 61.18, -1.06 49.48, 2.27 40.72 C5.59 31.97, 12.78 24.61, 20.27 18.04 C27.76 11.47, 42.43 3.83, 47.18 1.31 C51.94 -1.21, 48.12 2, 48.78 2.93" fill="none" stroke="#343a40" stroke-width="2"></path></g><g transform="translate(751.4560049718722 192.09525146951245) rotate(0 21.221992492675724 22.5)"><text direction="ltr" dominant-baseline="text-before-edge" fill="#343a40" font-family="Virgil, Segoe UI Emoji" font-size="36px" style="white-space: pre;" text-anchor="middle" x="21.22199249267578" y="0">n2</text></g><g stroke-linecap="round" transform="translate(790.0931979400955 409.5419956826745) rotate(0 65.94913579124659 61.686331430918244)"><path d="M13.3 24.81 C13.3 24.81, 13.3 24.81, 13.3 24.81 M13.3 24.81 C13.3 24.81, 13.3 24.81, 13.3 24.81 M3.6 48.18 C16.44 34.49, 26.64 20.11, 40.33 5.91 M3.6 48.18 C11.55 39.47, 19.57 30.17, 40.33 5.91 M1.76 62.48 C23.02 40.67, 43.25 17.44, 53.59 2.86 M1.76 62.48 C14.12 48.71, 26.03 35.08, 53.59 2.86 M3.21 73.01 C15.97 57.62, 30.77 42.27, 66.84 -0.19 M3.21 73.01 C26 45.76, 49.74 19.77, 66.84 -0.19 M4.65 83.54 C26.31 58.19, 48.75 34.97, 75.51 2.04 M4.65 83.54 C32.72 50.97, 58.73 19.24, 75.51 2.04 M9.38 90.3 C36.3 59.78, 60.95 29.66, 84.17 4.26 M9.38 90.3 C32.01 66.46, 52.18 42.21, 84.17 4.26 M14.1 97.06 C38.88 67.04, 66.09 40.25, 92.83 6.49 M14.1 97.06 C31.82 78.1, 47.29 59.39, 92.83 6.49 M18.83 103.82 C37.38 80.04, 55.61 60.41, 100.18 10.23 M18.83 103.82 C47.29 68.89, 77.83 35.01, 100.18 10.23 M24.87 109.07 C57.6 74, 89.66 35.57, 106.87 14.73 M24.87 109.07 C57.92 72.6, 90.12 35.46, 106.87 14.73 M32.21 112.8 C54.6 89.98, 73.66 66.78, 112.91 19.98 M32.21 112.8 C47.87 92.91, 65.53 73.84, 112.91 19.98 M39.56 116.54 C59.54 92.36, 81.41 64.8, 118.95 25.22 M39.56 116.54 C65.6 86.33, 92.66 55.63, 118.95 25.22 M47.57 119.53 C66.8 94.6, 90.42 71.75, 123.02 32.74 M47.57 119.53 C67.45 96.66, 87.13 74.38, 123.02 32.74 M56.89 121 C83.92 93.1, 107.32 64.5, 126.43 41 M56.89 121 C79.36 96.38, 102.12 70.22, 126.43 41 M67.52 120.97 C85.56 100.43, 101.55 83.03, 129.19 50.03 M67.52 120.97 C80.27 105.26, 95.19 89.05, 129.19 50.03 M77.49 121.69 C93.22 103.62, 108.73 83.89, 130.63 60.56 M77.49 121.69 C95.78 100.8, 113.83 80.62, 130.63 60.56 M92.06 117.13 C101.11 107.98, 108.62 98.37, 129.45 74.11 M92.06 117.13 C100.6 106.97, 110.89 95.15, 129.45 74.11" fill="none" stroke="#ffec99" stroke-width="1"></path><path d="M35.4 6.6 C43.8 1.74, 57.05 -0.34, 67.31 -0.3 C77.56 -0.27, 87.93 2.13, 96.94 6.82 C105.95 11.51, 115.69 19.85, 121.35 27.84 C127.02 35.83, 129.81 45.42, 130.94 54.76 C132.06 64.09, 131.89 74.77, 128.1 83.84 C124.3 92.91, 116.08 102.93, 108.18 109.16 C100.28 115.39, 90.61 119.36, 80.7 121.23 C70.79 123.1, 58.7 122.83, 48.72 120.37 C38.75 117.91, 28.32 112.68, 20.86 106.47 C13.4 100.26, 7.25 91.87, 3.97 83.1 C0.68 74.32, -0.4 63.5, 1.13 53.82 C2.65 44.14, 6.69 33.04, 13.12 25.03 C19.55 17.01, 34.52 8.98, 39.72 5.72 C44.92 2.47, 43.77 4.56, 44.32 5.51 M48.24 1.92 C57.4 -1.18, 71.25 -1.34, 81.19 0.91 C91.14 3.16, 100.41 9.04, 107.89 15.42 C115.36 21.81, 122.02 30.18, 126.03 39.22 C130.04 48.27, 132.67 60.2, 131.94 69.67 C131.21 79.15, 127.69 88.22, 121.65 96.08 C115.62 103.95, 104.7 112.53, 95.75 116.87 C86.79 121.22, 77.98 122.23, 67.93 122.13 C57.89 122.03, 45.01 120.54, 35.47 116.26 C25.93 111.99, 16.59 104.01, 10.68 96.48 C4.78 88.95, 1.32 80.57, 0.02 71.06 C-1.27 61.56, -0.72 48.73, 2.91 39.46 C6.54 30.19, 13.88 21.9, 21.82 15.43 C29.76 8.96, 46.09 2.63, 50.57 0.63 C55.04 -1.36, 48.75 2.27, 48.67 3.45" fill="none" stroke="#343a40" stroke-width="2"></path></g><g transform="translate(835.24525876451 448.60950385226954) rotate(0 20.66399383544922 22.5)"><text direction="ltr" dominant-baseline="text-before-edge" fill="#343a40" font-family="Virgil, Segoe UI Emoji" font-size="36px" style="white-space: pre;" text-anchor="middle" x="20.66399383544922" y="0">n3</text></g><g stroke-linecap="round" transform="translate(682.8481449081621 692.0096219459065) rotate(0 65.94913579124659 61.686331430918244)"><path d="M10.19 28.74 C10.19 28.74, 10.19 28.74, 10.19 28.74 M10.19 28.74 C10.19 28.74, 10.19 28.74, 10.19 28.74 M3.11 49.08 C13.57 36.59, 26.28 21.95, 39.19 7.57 M3.11 49.08 C17.25 33.74, 28.88 19.05, 39.19 7.57 M2.59 61.87 C20.25 38.1, 42.31 17.51, 53.76 3.01 M2.59 61.87 C17.85 43.77, 36.02 24.17, 53.76 3.01 M4.03 72.4 C26.18 48.5, 46.58 23.06, 67.01 -0.05 M4.03 72.4 C19.43 53.25, 35.01 35.85, 67.01 -0.05 M5.48 82.94 C23.49 64.33, 39.16 45.95, 75.67 2.18 M5.48 82.94 C23.98 63.37, 40.25 43.94, 75.67 2.18 M9.55 90.45 C29.05 66.41, 48.23 47.19, 84.34 4.41 M9.55 90.45 C34.53 62.53, 57.73 33.78, 84.34 4.41 M14.27 97.21 C30.21 73.74, 49.34 55.86, 93 6.64 M14.27 97.21 C30.78 78.28, 49.7 58.36, 93 6.64 M19 103.96 C37.43 86.06, 52.38 63.33, 100.35 10.38 M19 103.96 C37.75 83.33, 54.18 63.52, 100.35 10.38 M24.38 109.97 C55.18 75.93, 81.24 43.26, 106.39 15.63 M24.38 109.97 C53.2 75.51, 82.29 43.21, 106.39 15.63 M32.38 112.95 C57.37 80.83, 87.98 48.78, 113.08 20.12 M32.38 112.95 C52.09 90.56, 73.3 65.93, 113.08 20.12 M39.73 116.69 C71.43 83.26, 100.48 47.51, 119.12 25.37 M39.73 116.69 C63.53 89.33, 89.15 59.75, 119.12 25.37 M47.74 119.68 C69.18 91.92, 94.5 66.27, 122.53 33.64 M47.74 119.68 C74.6 88.39, 100.06 59.84, 122.53 33.64 M57.06 121.15 C82.72 92.05, 105.15 62.83, 126.6 41.15 M57.06 121.15 C84.12 88.82, 111.2 58.57, 126.6 41.15 M67.69 121.12 C80.47 103.95, 97.42 85.83, 130.67 48.66 M67.69 121.12 C87.49 99.11, 108.65 75.38, 130.67 48.66 M78.32 121.08 C95.99 100.49, 111.63 82.12, 131.46 59.95 M78.32 121.08 C90.7 106.36, 104.35 91.1, 131.46 59.95 M94.2 115.01 C105.22 101.5, 119.88 86.13, 128.97 75.01 M94.2 115.01 C107.22 100.81, 120.98 85.21, 128.97 75.01" fill="none" stroke="#ffc9c9" stroke-width="1"></path><path d="M64.24 -0.68 C73.96 -1.63, 87 2.65, 96.12 6.98 C105.24 11.31, 112.96 17.72, 118.96 25.32 C124.95 32.92, 130.72 42.92, 132.11 52.57 C133.5 62.22, 130.88 74.22, 127.28 83.21 C123.67 92.21, 117.97 100.37, 110.49 106.56 C103.01 112.74, 92.36 117.91, 82.4 120.33 C72.43 122.75, 60.57 122.96, 50.69 121.07 C40.82 119.18, 30.71 114.99, 23.13 108.99 C15.55 102.99, 8.88 94.16, 5.23 85.08 C1.58 76, 0.34 63.94, 1.22 54.49 C2.1 45.04, 5.07 36.06, 10.48 28.4 C15.9 20.74, 24.27 13.14, 33.72 8.55 C43.18 3.97, 61.39 2.09, 67.23 0.89 C73.07 -0.31, 68.93 0.63, 68.78 1.37 M64.06 0.32 C73.51 -0.55, 85.35 2.3, 94.73 6.8 C104.1 11.31, 114.06 19.56, 120.33 27.36 C126.61 35.15, 131.39 44.14, 132.4 53.57 C133.41 62.99, 129.88 75.12, 126.38 83.9 C122.89 92.68, 118.86 100.05, 111.44 106.25 C104.03 112.45, 92.23 118.66, 81.88 121.11 C71.54 123.56, 59.33 122.88, 49.37 120.95 C39.41 119.02, 29.79 115.85, 22.12 109.55 C14.45 103.25, 6.96 92.35, 3.36 83.14 C-0.25 73.93, -1 63.86, 0.51 54.3 C2.01 44.74, 6.87 33.57, 12.38 25.79 C17.9 18.01, 24.95 11.97, 33.59 7.63 C42.24 3.3, 59.17 0.87, 64.27 -0.23 C69.38 -1.33, 63.99 -0.13, 64.24 1.05" fill="none" stroke="#343a40" stroke-width="2"></path></g><g transform="translate(728.7382046949789 731.0771301155015) rotate(0 19.925994873046875 22.5)"><text direction="ltr" dominant-baseline="text-before-edge" fill="#343a40" font-family="Virgil, Segoe UI Emoji" font-size="36px" style="white-space: pre;" text-anchor="middle" x="19.925994873046875" y="0">n4</text></g><g stroke-linecap="round" transform="translate(415.7195096681853 808.5404838094162) rotate(0 65.94913579124659 61.686331430918244)"><path d="M16.9 19.99 C16.9 19.99, 16.9 19.99, 16.9 19.99 M16.9 19.99 C16.9 19.99, 16.9 19.99, 16.9 19.99 M3.25 47.88 C17.81 32.29, 31.27 19.49, 40.65 4.86 M3.25 47.88 C15.44 35.08, 26.82 21.24, 40.65 4.86 M2.73 60.67 C13.86 48.36, 24.93 33.25, 48.66 7.85 M2.73 60.67 C19.79 41.49, 37.08 21.78, 48.66 7.85 M2.21 73.47 C20.91 51.78, 42.02 27.88, 59.94 7.06 M2.21 73.47 C14.1 59.91, 26.97 46.02, 59.94 7.06 M6.28 80.98 C27.84 52.25, 50.87 28.69, 76.48 0.23 M6.28 80.98 C26.85 56.66, 47.42 33.23, 76.48 0.23 M10.35 88.5 C26.16 70.05, 41.36 54, 83.83 3.97 M10.35 88.5 C35.79 60.15, 62.4 29.51, 83.83 3.97 M14.42 96.01 C29.51 76.86, 45.49 56.71, 91.83 6.95 M14.42 96.01 C37.5 67.39, 63.11 39.49, 91.83 6.95 M17.83 104.28 C47.87 68.66, 80.29 34.59, 99.18 10.69 M17.83 104.28 C40.21 79.88, 60.65 55.89, 99.18 10.69 M24.52 108.77 C47.94 83.07, 70.43 57.69, 106.53 14.43 M24.52 108.77 C46.8 83.23, 68.69 57.48, 106.53 14.43 M31.87 112.51 C51.18 89.94, 71.52 64.3, 111.91 20.43 M31.87 112.51 C58.97 81.38, 84.7 51.72, 111.91 20.43 M38.57 117 C66.86 86.02, 94.36 52.39, 117.95 25.68 M38.57 117 C67.51 83.92, 97.97 48.73, 117.95 25.68 M45.92 120.74 C65.32 98.22, 85.34 77.89, 123.33 31.69 M45.92 120.74 C63.89 99.87, 81.57 80.33, 123.33 31.69 M54.58 122.97 C79.9 96.51, 102.65 70.38, 129.37 36.93 M54.58 122.97 C72.87 101.14, 92.56 78.74, 129.37 36.93 M63.9 124.45 C82.78 104.16, 100.46 81.62, 131.47 46.71 M63.9 124.45 C89.74 94.13, 115.26 63.89, 131.47 46.71 M74.53 124.41 C87.71 108.72, 102.45 90.91, 133.57 56.49 M74.53 124.41 C94.81 101.17, 114.78 78.34, 133.57 56.49 M89.75 119.09 C105.87 103, 118.49 84.92, 136.33 65.51 M89.75 119.09 C108.1 99.09, 124.11 77.55, 136.33 65.51" fill="none" stroke="#b2f2bb" stroke-width="1"></path><path d="M43.06 3.21 C51.92 -0.89, 65.81 -1.51, 75.9 0 C85.99 1.5, 95.47 6.66, 103.62 12.23 C111.77 17.8, 120.18 25.16, 124.82 33.42 C129.45 41.68, 131.69 52.28, 131.41 61.8 C131.14 71.32, 128 81.94, 123.18 90.55 C118.35 99.16, 110.8 107.98, 102.48 113.48 C94.15 118.97, 83.28 122.77, 73.26 123.54 C63.24 124.31, 52.01 121.6, 42.35 118.12 C32.69 114.63, 22.16 109.58, 15.29 102.62 C8.41 95.66, 3.26 85.67, 1.11 76.35 C-1.05 67.04, -0.25 56.14, 2.37 46.75 C5 37.36, 9.54 27.53, 16.86 20.03 C24.18 12.53, 40.67 4.59, 46.29 1.76 C51.91 -1.07, 50.24 2.05, 50.59 3.03 M73.36 1.51 C83.52 1.54, 95.47 5.01, 103.65 10.27 C111.83 15.52, 117.51 24.85, 122.44 33.06 C127.37 41.27, 132.89 50.16, 133.21 59.52 C133.53 68.88, 129.44 80.59, 124.38 89.2 C119.32 97.8, 111.2 105.34, 102.86 111.16 C94.52 116.98, 84.42 122.87, 74.34 124.13 C64.26 125.4, 51.85 122.31, 42.35 118.75 C32.85 115.19, 23.87 109.9, 17.34 102.78 C10.82 95.66, 6.01 85.15, 3.2 76.04 C0.4 66.93, -1.44 57.27, 0.5 48.13 C2.44 39, 8.18 28.57, 14.85 21.24 C21.52 13.91, 30.77 7.53, 40.51 4.15 C50.25 0.78, 68.09 1.33, 73.3 0.98 C78.5 0.64, 72.06 1.03, 71.72 2.08" fill="none" stroke="#343a40" stroke-width="2"></path></g><g transform="translate(462.0055731781466 847.6079919790112) rotate(0 19.529991149902344 22.5)"><text direction="ltr" dominant-baseline="text-before-edge" fill="#343a40" font-family="Virgil, Segoe UI Emoji" font-size="36px" style="white-space: pre;" text-anchor="middle" x="19.529991149902344" y="0">n5</text></g><g stroke-linecap="round" transform="translate(91.55455208701642 165.26909648799938) rotate(0 65.94913579124659 61.686331430918244)"><path d="M23.89 14.14 C23.89 14.14, 23.89 14.14, 23.89 14.14 M23.89 14.14 C23.89 14.14, 23.89 14.14, 23.89 14.14 M10.25 42.03 C18.53 30.87, 27.85 23.56, 41.08 6.56 M10.25 42.03 C19.3 31.47, 30.05 19.5, 41.08 6.56 M7.76 57.09 C24.23 42.13, 37.63 23.58, 53.68 4.26 M7.76 57.09 C24.3 38.18, 40.18 18.67, 53.68 4.26 M5.26 72.15 C24.31 47.64, 46.75 22.89, 64.31 4.23 M5.26 72.15 C26.79 47.63, 48.39 22.33, 64.31 4.23 M8.68 80.42 C22.68 63.3, 37.27 47.66, 74.94 4.19 M8.68 80.42 C25.21 60.45, 43.98 41.27, 74.94 4.19 M11.44 89.44 C31.76 64.6, 50.22 42.47, 86.23 3.4 M11.44 89.44 C36.89 58.61, 65.44 27.4, 86.23 3.4 M14.19 98.46 C39.26 73.49, 62.96 42.44, 92.92 7.9 M14.19 98.46 C39.07 69.99, 61.48 42.04, 92.92 7.9 M19.57 104.47 C42.57 75.74, 67.4 50.8, 100.27 11.64 M19.57 104.47 C47.02 71.47, 74.98 41.01, 100.27 11.64 M25.61 109.72 C46.4 83.67, 70.87 59.3, 107.62 15.38 M25.61 109.72 C48.42 84.09, 71.6 55.4, 107.62 15.38 M31.65 114.96 C62.07 83.16, 88.56 50.29, 114.97 19.12 M31.65 114.96 C49.93 94.39, 66.86 74.64, 114.97 19.12 M37.69 120.21 C68.53 88.55, 95 53.18, 119.7 25.87 M37.69 120.21 C65.98 87.46, 95.77 53.04, 119.7 25.87 M46.35 122.44 C65.13 97.95, 88.87 74.73, 123.76 33.39 M46.35 122.44 C66.68 97.13, 87.38 74.83, 123.76 33.39 M55.01 124.67 C73.13 101.39, 94.9 77.72, 127.83 40.9 M55.01 124.67 C76.83 100.14, 98.3 74.28, 127.83 40.9 M64.99 125.39 C88.75 102.45, 109.25 76.01, 129.28 51.43 M64.99 125.39 C85.77 100.71, 107.36 76.47, 129.28 51.43 M78.24 122.34 C95.61 103.25, 111.97 85.35, 130.07 62.72 M78.24 122.34 C91.54 107.95, 104.19 92.4, 130.07 62.72 M92.15 118.53 C107.73 103.91, 120.6 88.59, 132.17 72.49 M92.15 118.53 C106.77 102.64, 121.88 85.59, 132.17 72.49" fill="none" stroke="#b2f2bb" stroke-width="1"></path><path d="M51.3 2.07 C60.43 -0.73, 73.64 -0.6, 83.53 1.68 C93.42 3.96, 103.28 9.24, 110.63 15.75 C117.98 22.26, 124.23 31.48, 127.65 40.74 C131.08 50, 132.52 61.66, 131.19 71.32 C129.85 80.98, 125.53 91.2, 119.62 98.69 C113.72 106.18, 105.11 112.02, 95.75 116.27 C86.4 120.52, 73.94 124.17, 63.49 124.19 C53.05 124.22, 41.86 121.09, 33.07 116.41 C24.28 111.73, 16.32 104.28, 10.77 96.11 C5.22 87.94, 0.85 77.2, -0.23 67.39 C-1.3 57.59, 0.35 46.11, 4.33 37.28 C8.31 28.46, 15.14 20.65, 23.66 14.41 C32.17 8.17, 49.34 2.16, 55.43 -0.15 C61.51 -2.45, 59.92 -0.61, 60.17 0.6 M89.53 5.47 C98.92 7.89, 111.04 13.67, 117.78 20.79 C124.52 27.91, 128.23 38.78, 129.96 48.19 C131.69 57.61, 130.9 67.79, 128.17 77.28 C125.44 86.77, 120.53 98.18, 113.59 105.13 C106.65 112.09, 96.08 116.15, 86.54 118.99 C77 121.84, 66.1 123.67, 56.36 122.2 C46.61 120.74, 36.56 115.69, 28.1 110.19 C19.63 104.69, 10.44 97.59, 5.58 89.2 C0.72 80.8, -1.34 69.44, -1.06 59.81 C-0.78 50.17, 2.03 39.58, 7.26 31.38 C12.5 23.19, 21.75 15.74, 30.33 10.64 C38.9 5.54, 48.75 1.65, 58.69 0.79 C68.64 -0.08, 84.59 4.49, 89.99 5.46 C95.4 6.44, 91.44 5.87, 91.12 6.62" fill="none" stroke="#343a40" stroke-width="2"></path></g><g transform="translate(135.1946118738332 204.33660465759448) rotate(0 22.175994873046875 22.5)"><text direction="ltr" dominant-baseline="text-before-edge" fill="#343a40" font-family="Virgil, Segoe UI Emoji" font-size="36px" style="white-space: pre;" text-anchor="middle" x="22.175994873046875" y="0">n8</text></g><g stroke-linecap="round" transform="translate(10 428.60383584728424) rotate(0 65.94913579124659 61.686331430918244)"><path d="M27.22 10.41 C27.22 10.41, 27.22 10.41, 27.22 10.41 M27.22 10.41 C27.22 10.41, 27.22 10.41, 27.22 10.41 M3.08 50.38 C13.19 40.68, 21.09 26.35, 42.44 5.1 M3.08 50.38 C17.79 33.76, 31.15 17.65, 42.44 5.1 M0.59 65.44 C24.51 39.99, 47.39 13.79, 57.67 -0.22 M0.59 65.44 C19.41 44.89, 37.1 22.87, 57.67 -0.22 M3.35 74.46 C22.05 54.58, 40.14 35.2, 66.99 1.25 M3.35 74.46 C23.46 49.53, 46.41 25.19, 66.99 1.25 M5.45 84.24 C22.31 63.04, 40.76 41.26, 76.96 1.97 M5.45 84.24 C23.69 62.41, 43.43 40.48, 76.96 1.97 M8.86 92.5 C26.15 76.05, 38.95 54.63, 86.93 2.69 M8.86 92.5 C27.21 70.38, 45.43 49.68, 86.93 2.69 M14.24 98.51 C45.64 62.84, 78.38 28.55, 94.28 6.43 M14.24 98.51 C35.62 74.94, 57.42 50.85, 94.28 6.43 M20.28 103.76 C41.1 79.28, 62.52 55.96, 100.98 10.93 M20.28 103.76 C39.16 82.04, 58.28 58.6, 100.98 10.93 M25.66 109.76 C46.56 85.67, 66.56 58.68, 107.67 15.42 M25.66 109.76 C58.94 72.58, 90.15 37.07, 107.67 15.42 M31.7 115.01 C60.59 79.28, 92.99 46.58, 114.36 19.91 M31.7 115.01 C55.18 88.45, 77.33 62.96, 114.36 19.91 M39.71 117.99 C72.48 83.87, 101.48 45.65, 119.09 26.67 M39.71 117.99 C70.68 82.79, 102.6 45.51, 119.09 26.67 M48.37 120.22 C70.39 94.74, 94.65 66.65, 123.16 34.19 M48.37 120.22 C63.63 102.87, 78.92 83.85, 123.16 34.19 M56.37 123.21 C75.19 102.27, 92.56 79.41, 127.23 41.7 M56.37 123.21 C82.1 94.43, 106.22 67.47, 127.23 41.7 M67 123.17 C92.32 92.93, 117.58 64.16, 129.99 50.72 M67 123.17 C83.75 104.31, 99.44 85.75, 129.99 50.72 M78.95 121.63 C92.69 105.84, 107.1 88.09, 130.78 62.01 M78.95 121.63 C99.64 97.93, 119.12 76.27, 130.78 62.01 M90.89 120.08 C106.48 101.24, 118.82 85.52, 130.91 74.05 M90.89 120.08 C106.3 102.33, 122.1 83.06, 130.91 74.05" fill="none" stroke="#ffec99" stroke-width="1"></path><path d="M87.62 2.6 C97 4.76, 106.8 11.84, 113.81 19.1 C120.82 26.36, 126.85 36.7, 129.68 46.14 C132.51 55.58, 132.91 66.63, 130.8 75.74 C128.7 84.85, 123.84 93.47, 117.05 100.81 C110.25 108.14, 99.75 115.89, 90.03 119.76 C80.32 123.63, 68.82 124.98, 58.77 124.03 C48.72 123.07, 38.26 119.45, 29.75 114.03 C21.23 108.61, 12.74 100.16, 7.68 91.5 C2.61 82.84, -0.52 71.62, -0.65 62.07 C-0.77 52.52, 2.34 42.74, 6.93 34.19 C11.53 25.64, 18.59 16.51, 26.92 10.77 C35.24 5.02, 46.32 0.73, 56.9 -0.29 C67.48 -1.3, 84.39 3.46, 90.39 4.69 C96.39 5.93, 93.32 6.37, 92.9 7.12 M84.13 2.17 C93.27 3.94, 103.14 9.69, 110.46 16.61 C117.77 23.53, 124.81 34.67, 128.04 43.71 C131.28 52.76, 131.43 61.77, 129.86 70.89 C128.29 80.01, 124.41 90.89, 118.61 98.44 C112.8 106, 104.49 112.02, 95.03 116.21 C85.56 120.41, 72.41 123.86, 61.85 123.62 C51.29 123.38, 40.48 119.64, 31.66 114.75 C22.85 109.85, 14.12 102.21, 8.94 94.25 C3.76 86.3, 1.34 76.45, 0.58 67.04 C-0.19 57.63, 0.51 46.53, 4.33 37.79 C8.15 29.05, 15.25 20.56, 23.47 14.6 C31.69 8.65, 43.56 4.14, 53.67 2.07 C63.79 -0.01, 78.9 1.92, 84.16 2.15 C89.42 2.38, 85.69 2.34, 85.21 3.46" fill="none" stroke="#343a40" stroke-width="2"></path></g><g transform="translate(57.72605832197303 467.6713440168793) rotate(0 18.089996337890625 22.5)"><text direction="ltr" dominant-baseline="text-before-edge" fill="#343a40" font-family="Virgil, Segoe UI Emoji" font-size="36px" style="white-space: pre;" text-anchor="middle" x="18.089996337890625" y="0">n7</text></g><g stroke-linecap="round" transform="translate(110.7300670345594 675.8180700505936) rotate(0 65.94913579124659 61.686331430918244)"><path d="M12.13 27.77 C12.13 27.77, 12.13 27.77, 12.13 27.77 M12.13 27.77 C12.13 27.77, 12.13 27.77, 12.13 27.77 M1.77 51.89 C18.72 34.95, 32.98 17.57, 40.48 7.36 M1.77 51.89 C15.38 37.43, 27.02 24, 40.48 7.36 M2.56 63.17 C20.29 42.48, 36.62 23.28, 53.73 4.31 M2.56 63.17 C18.49 44.93, 34.31 26.98, 53.73 4.31 M4 73.71 C22.64 53.58, 39.31 29.06, 67.64 0.5 M4 73.71 C19.03 55.83, 35.01 36.8, 67.64 0.5 M5.45 84.24 C23.34 65.03, 42.92 41.86, 76.3 2.73 M5.45 84.24 C28.1 56.31, 52.22 29.72, 76.3 2.73 M10.17 90.99 C37.44 61.4, 64.54 28.27, 85.62 4.2 M10.17 90.99 C27.43 72.93, 41.3 54.78, 85.62 4.2 M14.9 97.75 C36.67 69.04, 59.02 43.55, 94.94 5.68 M14.9 97.75 C35.59 73.04, 58.64 47.86, 94.94 5.68 M19.62 104.51 C39.22 80.05, 63.26 54.23, 101.63 10.17 M19.62 104.51 C51.65 68.74, 84.28 31.18, 101.63 10.17 M26.32 109 C58.39 73.65, 85.01 42.69, 107.67 15.42 M26.32 109 C44.65 87.74, 62.34 67.54, 107.67 15.42 M33.67 112.74 C54.09 87.97, 75.91 64.71, 113.05 21.42 M33.67 112.74 C57.62 85.2, 79.63 60.14, 113.05 21.42 M41.02 116.48 C72.68 82.42, 101.32 48.44, 119.09 26.67 M41.02 116.48 C70.68 83.01, 101.3 47.44, 119.09 26.67 M48.37 120.22 C74.24 87.44, 105.97 55.19, 122.5 34.94 M48.37 120.22 C77.36 87.6, 106.03 53.77, 122.5 34.94 M57.69 121.7 C81.41 94.39, 103.04 71.58, 125.92 43.21 M57.69 121.7 C76.53 100.89, 93.6 80.32, 125.92 43.21 M68.32 121.66 C81.64 105.62, 95.66 89.5, 129.33 51.47 M68.32 121.66 C86.04 101.63, 104.07 80.95, 129.33 51.47 M79.6 120.87 C100.31 98, 118.94 78.55, 130.77 62.01 M79.6 120.87 C93.51 105.52, 107.07 90.49, 130.77 62.01 M95.48 114.8 C104.36 106.71, 111.07 98.53, 129.6 75.56 M95.48 114.8 C108.3 101.33, 119.36 86.8, 129.6 75.56" fill="none" stroke="#a5d8ff" stroke-width="1"></path><path d="M34.93 7.68 C43.22 2.81, 55.66 0.77, 66.01 0.5 C76.37 0.22, 88.16 1.58, 97.07 6.02 C105.97 10.46, 113.81 19.01, 119.43 27.14 C125.06 35.27, 129.4 45.31, 130.82 54.8 C132.24 64.28, 131.49 75.24, 127.94 84.05 C124.39 92.85, 117.25 101.54, 109.52 107.64 C101.78 113.73, 91.33 118.27, 81.51 120.62 C71.69 122.98, 60.5 123.98, 50.59 121.75 C40.68 119.53, 29.72 113.72, 22.06 107.27 C14.41 100.83, 8.27 91.78, 4.66 83.06 C1.05 74.34, -0.83 64.2, 0.42 54.97 C1.68 45.74, 5.96 36.05, 12.2 27.7 C18.43 19.35, 32.86 8.4, 37.85 4.88 C42.84 1.36, 41.78 5.54, 42.12 6.59 M58.15 1.7 C67.72 -0.23, 79.22 0.13, 88.84 3.31 C98.46 6.48, 108.81 13.61, 115.87 20.77 C122.92 27.92, 129.06 36.81, 131.19 46.24 C133.32 55.68, 131.53 67.95, 128.63 77.38 C125.73 86.82, 120.61 95.84, 113.77 102.84 C106.92 109.84, 96.9 115.96, 87.56 119.4 C78.21 122.84, 67.81 124.61, 57.69 123.48 C47.58 122.35, 35.44 118.07, 26.87 112.59 C18.29 107.12, 10.63 99.08, 6.26 90.63 C1.89 82.18, 0.45 71.66, 0.66 61.91 C0.86 52.15, 2.58 40.69, 7.49 32.09 C12.39 23.5, 21.79 15.54, 30.09 10.33 C38.39 5.12, 52.47 2.1, 57.27 0.82 C62.06 -0.45, 58.44 1.66, 58.89 2.67" fill="none" stroke="#343a40" stroke-width="2"></path></g><g transform="translate(156.62012682137618 714.8855782201887) rotate(0 19.925994873046875 22.5)"><text direction="ltr" dominant-baseline="text-before-edge" fill="#343a40" font-family="Virgil, Segoe UI Emoji" font-size="36px" style="white-space: pre;" text-anchor="middle" x="19.925994873046875" y="0">n6</text></g><g transform="translate(451.2393270006214 179.11383723393556) rotate(0 12.383995056152344 22.5)"><text direction="ltr" dominant-baseline="text-before-edge" fill="#343a40" font-family="Virgil, Segoe UI Emoji" font-size="36px" style="white-space: pre;" text-anchor="start" x="0" y="0">0</text></g><g transform="translate(660.6137707030459 270.12392908977654) rotate(0 17.693992614746094 22.5)"><text direction="ltr" dominant-baseline="text-before-edge" fill="#343a40" font-family="Virgil, Segoe UI Emoji" font-size="36px" style="white-space: pre;" text-anchor="start" x="0" y="0">12</text></g><g transform="translate(719.4120521798416 450.86683396769877) rotate(0 23.939987182617188 22.5)"><text direction="ltr" dominant-baseline="text-before-edge" fill="#343a40" font-family="Virgil, Segoe UI Emoji" font-size="36px" style="white-space: pre;" text-anchor="start" x="0" y="0">25</text></g><g transform="translate(648.0456025140113 634.5581785281811) rotate(0 21.941993713378906 22.5)"><text direction="ltr" dominant-baseline="text-before-edge" fill="#343a40" font-family="Virgil, Segoe UI Emoji" font-size="36px" style="white-space: pre;" text-anchor="start" x="0" y="0">37</text></g><g transform="translate(459.9990928320585 725.9669133614898) rotate(0 23.50798797607422 22.5)"><text direction="ltr" dominant-baseline="text-before-edge" fill="#343a40" font-family="Virgil, Segoe UI Emoji" font-size="36px" style="white-space: pre;" text-anchor="start" x="0" y="0">50</text></g><g transform="translate(249.19631253988882 639.1833212591373) rotate(0 24.33599090576172 22.5)"><text direction="ltr" dominant-baseline="text-before-edge" fill="#343a40" font-family="Virgil, Segoe UI Emoji" font-size="36px" style="white-space: pre;" text-anchor="start" x="0" y="0">62</text></g><g transform="translate(174.69670166921605 459.3226795347855) rotate(0 20.80799102783203 22.5)"><text direction="ltr" dominant-baseline="text-before-edge" fill="#343a40" font-family="Virgil, Segoe UI Emoji" font-size="36px" style="white-space: pre;" text-anchor="start" x="0" y="0">75</text></g><g transform="translate(236.2729106541592 272.3974247486185) rotate(0 23.453994750976562 22.5)"><text direction="ltr" dominant-baseline="text-before-edge" fill="#343a40" font-family="Virgil, Segoe UI Emoji" font-size="36px" style="white-space: pre;" text-anchor="start" x="0" y="0">87</text></g><g transform="translate(572.0179897051421 206.47610458562644) rotate(0 11.519996643066406 22.5)"><text direction="ltr" dominant-baseline="text-before-edge" fill="#343a40" font-family="Virgil, Segoe UI Emoji" font-size="36px" style="white-space: pre;" text-anchor="start" x="0" y="0">6</text></g><g transform="translate(706.4945522051421 351.71438583562644) rotate(0 18.647994995117188 22.5)"><text direction="ltr" dominant-baseline="text-before-edge" fill="#343a40" font-family="Virgil, Segoe UI Emoji" font-size="36px" style="white-space: pre;" text-anchor="start" x="0" y="0">18</text></g><g transform="translate(694.6368022661773 535.0386045856264) rotate(0 17.13599395751953 22.5)"><text direction="ltr" dominant-baseline="text-before-edge" fill="#343a40" font-family="Virgil, Segoe UI Emoji" font-size="36px" style="white-space: pre;" text-anchor="start" x="0" y="0">31</text></g><g transform="translate(562.3909908037749 684.5112608356264) rotate(0 23.777992248535156 22.5)"><text direction="ltr" dominant-baseline="text-before-edge" fill="#343a40" font-family="Virgil, Segoe UI Emoji" font-size="36px" style="white-space: pre;" text-anchor="start" x="0" y="0">43</text></g><g transform="translate(348.6122737627593 695.2534483356264) rotate(0 22.64398956298828 22.5)"><text direction="ltr" dominant-baseline="text-before-edge" fill="#343a40" font-family="Virgil, Segoe UI Emoji" font-size="36px" style="white-space: pre;" text-anchor="start" x="0" y="0">56</text></g><g transform="translate(200.39080769830616 548.1792295856264) rotate(0 25.289993286132812 22.5)"><text direction="ltr" dominant-baseline="text-before-edge" fill="#343a40" font-family="Virgil, Segoe UI Emoji" font-size="36px" style="white-space: pre;" text-anchor="start" x="0" y="0">68</text></g><g transform="translate(195.39080769830616 363.95266708562644) rotate(0 18.647994995117188 22.5)"><text direction="ltr" dominant-baseline="text-before-edge" fill="#343a40" font-family="Virgil, Segoe UI Emoji" font-size="36px" style="white-space: pre;" text-anchor="start" x="0" y="0">81</text></g><g transform="translate(337.05477101617726 204.14797958562644) rotate(0 23.219993591308594 22.5)"><text direction="ltr" dominant-baseline="text-before-edge" fill="#343a40" font-family="Virgil, Segoe UI Emoji" font-size="36px" style="white-space: pre;" text-anchor="start" x="0" y="0">93</text></g></svg>