<svg height="852.81640625" version="1.1" viewbox="0 0 1074.7138671875 852.81640625" width="1074.7138671875" xmlns="http://www.w3.org/2000/svg">
<!-- svg-source:excalidraw -->
<!-- payload-type:application/vnd.excalidraw+json --><!-- payload-version:2 -->
<defs>
<style class="style-fonts">
</style>
</defs>
<rect fill="#ffffff" height="852.81640625" width="1074.7138671875" x="0" y="0"></rect><g stroke-linecap="round" transform="translate(612.0076904296875 238.8125) rotate(0 60.556640625 59.0546875)"><path d="M29.53 0 C42.69 0.75, 56.33 1.3, 91.59 0 M29.53 0 C44.07 1.04, 60.17 0.63, 91.59 0 M91.59 0 C109.89 0.16, 121.22 9.32, 121.11 29.53 M91.59 0 C111.59 1.95, 121.88 10.43, 121.11 29.53 M121.11 29.53 C120.29 51.98, 122.13 72.93, 121.11 88.58 M121.11 29.53 C121.93 52.61, 122.46 75, 121.11 88.58 M121.11 88.58 C121.91 109.28, 109.86 116.31, 91.59 118.11 M121.11 88.58 C123.27 109.86, 110.63 117.97, 91.59 118.11 M91.59 118.11 C75.35 117.19, 60.61 118.67, 29.53 118.11 M91.59 118.11 C75.57 117.81, 60.22 118.93, 29.53 118.11 M29.53 118.11 C8.68 119.39, -0.47 109.15, 0 88.58 M29.53 118.11 C12.07 117.85, 0.99 108.46, 0 88.58 M0 88.58 C-0.07 77.36, 0.17 61.27, 0 29.53 M0 88.58 C-0.96 65.16, 0.12 44.23, 0 29.53 M0 29.53 C0.83 8.6, 11.65 -1.62, 29.53 0 M0 29.53 C0.47 8.18, 10.04 -0.44, 29.53 0" fill="none" stroke="#1e1e1e" stroke-width="2"></path></g><g transform="translate(628.4443664550781 272.8671875) rotate(0 44.119964599609375 25)"><text direction="ltr" dominant-baseline="text-before-edge" fill="#1e1e1e" font-family="Virgil, Segoe UI Emoji" font-size="20px" style="white-space: pre;" text-anchor="middle" x="44.119964599609375" y="0">Signaling </text><text direction="ltr" dominant-baseline="text-before-edge" fill="#1e1e1e" font-family="Virgil, Segoe UI Emoji" font-size="20px" style="white-space: pre;" text-anchor="middle" x="44.119964599609375" y="25">Server</text></g><g stroke-linecap="round" transform="translate(611.1287841796875 385.48046875) rotate(0 59.56640625 66.759765625)"><path d="M29.78 0 C52.72 -2.13, 75.79 -0.85, 89.35 0 M29.78 0 C49.65 0.12, 70.71 0.62, 89.35 0 M89.35 0 C107.41 1.83, 119.98 10.06, 119.13 29.78 M89.35 0 C108.35 0.14, 118.63 9.07, 119.13 29.78 M119.13 29.78 C118.3 53.01, 118.38 74.89, 119.13 103.74 M119.13 29.78 C119.88 50.61, 118.94 69.84, 119.13 103.74 M119.13 103.74 C117.36 124.31, 108.85 135.05, 89.35 133.52 M119.13 103.74 C117.8 123.65, 107.99 133.08, 89.35 133.52 M89.35 133.52 C74.01 133.57, 57.18 132.44, 29.78 133.52 M89.35 133.52 C67.67 132.64, 45.26 134.43, 29.78 133.52 M29.78 133.52 C11.79 133.98, 0.05 121.9, 0 103.74 M29.78 133.52 C8.43 134.48, 0.77 121.89, 0 103.74 M0 103.74 C2.03 75.62, 1.81 49.33, 0 29.78 M0 103.74 C-1.15 80.89, -0.97 60.6, 0 29.78 M0 29.78 C1.32 11.79, 10.76 0.57, 29.78 0 M0 29.78 C-1.85 9.54, 9.2 2.28, 29.78 0" fill="none" stroke="#1e1e1e" stroke-width="2"></path></g><g transform="translate(637.9952087402344 427.240234375) rotate(0 32.699981689453125 25)"><text direction="ltr" dominant-baseline="text-before-edge" fill="#1e1e1e" font-family="Virgil, Segoe UI Emoji" font-size="20px" style="white-space: pre;" text-anchor="middle" x="32.699981689453125" y="0">STUN </text><text direction="ltr" dominant-baseline="text-before-edge" fill="#1e1e1e" font-family="Virgil, Segoe UI Emoji" font-size="20px" style="white-space: pre;" text-anchor="middle" x="32.699981689453125" y="25">Server</text></g><g stroke-linecap="round" transform="translate(617.5858154296875 545.708984375) rotate(0 59.56640625 66.759765625)"><path d="M29.78 0 C51.2 -0.31, 73.43 0.68, 89.35 0 M29.78 0 C44.44 -0.59, 59.05 -0.45, 89.35 0 M89.35 0 C107.53 1.7, 121.06 11.11, 119.13 29.78 M89.35 0 C107.65 -0.66, 117.98 10.21, 119.13 29.78 M119.13 29.78 C120.54 55.97, 118.03 80.19, 119.13 103.74 M119.13 29.78 C119.72 49.83, 118.74 69.42, 119.13 103.74 M119.13 103.74 C117.35 122.92, 109.42 131.68, 89.35 133.52 M119.13 103.74 C119.54 123.58, 107.53 131.66, 89.35 133.52 M89.35 133.52 C67.03 132.34, 42.44 132.37, 29.78 133.52 M89.35 133.52 C73.41 133.06, 59.02 133.37, 29.78 133.52 M29.78 133.52 C8.89 134.58, 1.53 122.57, 0 103.74 M29.78 133.52 C10.78 134.72, -0.99 125.12, 0 103.74 M0 103.74 C-1.1 76.46, 1.16 45.42, 0 29.78 M0 103.74 C0.96 77.75, 0.63 52.9, 0 29.78 M0 29.78 C-0.78 9.96, 11.3 -1.93, 29.78 0 M0 29.78 C2.17 10.6, 8.95 1.01, 29.78 0" fill="none" stroke="#1e1e1e" stroke-width="2"></path></g><g transform="translate(643.7522354125977 587.46875) rotate(0 33.399986267089844 25)"><text direction="ltr" dominant-baseline="text-before-edge" fill="#1e1e1e" font-family="Virgil, Segoe UI Emoji" font-size="20px" style="white-space: pre;" text-anchor="middle" x="33.399986267089844" y="0">TURN </text><text direction="ltr" dominant-baseline="text-before-edge" fill="#1e1e1e" font-family="Virgil, Segoe UI Emoji" font-size="20px" style="white-space: pre;" text-anchor="middle" x="33.399986267089844" y="25">Server</text></g><g stroke-linecap="round"><g transform="translate(920.3785939371357 455.1400238681882) rotate(0 -82.74927600115768 44.94089382317776)"><path d="M-0.2 -0.97 C-27.77 13.81, -138.56 73.69, -166.3 88.79" fill="none" stroke="#1e1e1e" stroke-dasharray="8 10" stroke-width="2.5"></path></g><g transform="translate(920.3785939371357 455.1400238681882) rotate(0 -82.74927600115768 44.94089382317776)"><path d="M-146.4 66.33 C-152.51 70.06, -157.23 74.61, -166.3 88.79" fill="none" stroke="#1e1e1e" stroke-width="2.5"></path></g><g transform="translate(920.3785939371357 455.1400238681882) rotate(0 -82.74927600115768 44.94089382317776)"><path d="M-136.62 84.38 C-144.97 84, -151.9 84.45, -166.3 88.79" fill="none" stroke="#1e1e1e" stroke-width="2.5"></path></g></g><mask></mask><g transform="translate(775.0740966796875 390.38671875) rotate(0 144.81988525390625 37.5)"><text direction="ltr" dominant-baseline="text-before-edge" fill="#1e1e1e" font-family="Virgil, Segoe UI Emoji" font-size="20px" style="white-space: pre;" text-anchor="middle" x="144.81988525390625" y="0">Fallback for clients that</text><text direction="ltr" dominant-baseline="text-before-edge" fill="#1e1e1e" font-family="Virgil, Segoe UI Emoji" font-size="20px" style="white-space: pre;" text-anchor="middle" x="144.81988525390625" y="25">can't connect to one another</text><text direction="ltr" dominant-baseline="text-before-edge" fill="#1e1e1e" font-family="Virgil, Segoe UI Emoji" font-size="20px" style="white-space: pre;" text-anchor="middle" x="144.81988525390625" y="50"></text></g><g stroke-linecap="round" transform="translate(284.1912841796875 252.98046875) rotate(0 64.953125 78.3828125)"><path d="M32 0 C54.5 -1.54, 78.95 1.08, 97.91 0 M32 0 C53.95 -0.19, 76.75 0.32, 97.91 0 M97.91 0 C118.43 -0.94, 131.3 10.33, 129.91 32 M97.91 0 C118.29 0.15, 131.7 9.84, 129.91 32 M129.91 32 C132.31 64.07, 132.17 96.74, 129.91 124.77 M129.91 32 C129.44 57.33, 130.48 84.74, 129.91 124.77 M129.91 124.77 C130.06 146.38, 118.83 157.37, 97.91 156.77 M129.91 124.77 C130.96 145.25, 119.99 154.98, 97.91 156.77 M97.91 156.77 C80.26 157.03, 62.88 157.45, 32 156.77 M97.91 156.77 C76.39 156.51, 54.71 157.36, 32 156.77 M32 156.77 C11.28 154.8, 0.04 144.18, 0 124.77 M32 156.77 C10.48 154.91, -1.42 148.16, 0 124.77 M0 124.77 C-0.13 97.09, 0.35 73.15, 0 32 M0 124.77 C-0.44 106.14, -1.02 85.01, 0 32 M0 32 C1.7 11.61, 11.61 -0.47, 32 0 M0 32 C1.66 12.41, 9.46 -0.42, 32 0" fill="none" stroke="#1e1e1e" stroke-width="2"></path></g><g transform="translate(310.53443908691406 318.86328125) rotate(0 38.60997009277344 12.5)"><text direction="ltr" dominant-baseline="text-before-edge" fill="#1e1e1e" font-family="Virgil, Segoe UI Emoji" font-size="20px" style="white-space: pre;" text-anchor="middle" x="38.60997009277344" y="0">Client A</text></g><g stroke-linecap="round" transform="translate(279.9686279296875 525.34375) rotate(0 64.953125 78.3828125)"><path d="M32 0 C47.07 1.84, 61.01 -0.6, 97.91 0 M32 0 C53.62 -1.2, 74.33 -0.58, 97.91 0 M97.91 0 C120.72 -1.59, 129.02 8.99, 129.91 32 M97.91 0 C121.41 -0.61, 129.22 8.63, 129.91 32 M129.91 32 C127.47 52.09, 127.55 73.16, 129.91 124.77 M129.91 32 C130.3 60, 129.84 88.07, 129.91 124.77 M129.91 124.77 C131.57 144.66, 121.06 154.82, 97.91 156.77 M129.91 124.77 C129.84 143.93, 119.68 155.88, 97.91 156.77 M97.91 156.77 C76.65 159.05, 52.8 156.99, 32 156.77 M97.91 156.77 C81.13 156.69, 65 157.12, 32 156.77 M32 156.77 C9.14 157.11, -1.59 144.14, 0 124.77 M32 156.77 C11.89 155.99, 0.33 143.91, 0 124.77 M0 124.77 C1.8 96.73, 1.62 72.23, 0 32 M0 124.77 C-0.83 98.19, 0.22 73.87, 0 32 M0 32 C-1.13 9.57, 8.83 -1.01, 32 0 M0 32 C-1.04 9.7, 10.37 -0.07, 32 0" fill="none" stroke="#1e1e1e" stroke-width="2"></path></g><g transform="translate(305.6017837524414 591.2265625) rotate(0 39.319969177246094 12.5)"><text direction="ltr" dominant-baseline="text-before-edge" fill="#1e1e1e" font-family="Virgil, Segoe UI Emoji" font-size="20px" style="white-space: pre;" text-anchor="middle" x="39.319969177246094" y="0">Client B</text></g><g stroke-linecap="round"><g transform="translate(427.0975341796875 299.48046875) rotate(0 81.9921875 6.12109375)"><path d="M0.88 -1.17 C28.35 0.76, 137.78 8.92, 165.05 11.18 M-0.12 0.83 C27.27 2.91, 137.31 10, 164.67 12.16" fill="none" stroke="#e03131" stroke-width="2"></path></g><g transform="translate(427.0975341796875 299.48046875) rotate(0 81.9921875 6.12109375)"><path d="M29.75 -9.31 C18.59 -4.73, 9.58 -3.04, 0.88 -1.17 M29.75 -9.31 C19.84 -5.83, 10.74 -4.94, 0.88 -1.17" fill="none" stroke="#e03131" stroke-width="2"></path></g><g transform="translate(427.0975341796875 299.48046875) rotate(0 81.9921875 6.12109375)"><path d="M28.23 11.15 C17.62 9.21, 9.09 4.39, 0.88 -1.17 M28.23 11.15 C18.78 8.19, 10.15 2.64, 0.88 -1.17" fill="none" stroke="#e03131" stroke-width="2"></path></g><g transform="translate(427.0975341796875 299.48046875) rotate(0 81.9921875 6.12109375)"><path d="M135.82 20.41 C143.08 19.36, 152.44 15.83, 164.67 12.16 M135.82 20.41 C144.07 18.7, 153.12 14.43, 164.67 12.16" fill="none" stroke="#e03131" stroke-width="2"></path></g><g transform="translate(427.0975341796875 299.48046875) rotate(0 81.9921875 6.12109375)"><path d="M137.27 -0.06 C144 5.41, 152.9 8.4, 164.67 12.16 M137.27 -0.06 C145.08 4.67, 153.68 6.85, 164.67 12.16" fill="none" stroke="#e03131" stroke-width="2"></path></g></g><mask></mask><g stroke-linecap="round"><g transform="translate(421.41877376418887 514.2819415451729) rotate(0 87.31500822358944 -76.16245455175482)"><path d="M0.44 0.58 C29.7 -24.63, 146.63 -126.22, 175.71 -151.81 M-0.79 -0.17 C28.39 -25.69, 146.15 -128.35, 175.32 -153.66" fill="none" stroke="#e03131" stroke-width="2"></path></g><g transform="translate(421.41877376418887 514.2819415451729) rotate(0 87.31500822358944 -76.16245455175482)"><path d="M15 -25.65 C11.27 -15.56, 6.59 -8.66, 0.44 0.58 M15 -25.65 C11.29 -19.52, 7.14 -12.07, 0.44 0.58" fill="none" stroke="#e03131" stroke-width="2"></path></g><g transform="translate(421.41877376418887 514.2819415451729) rotate(0 87.31500822358944 -76.16245455175482)"><path d="M28.46 -10.16 C20.56 -4.88, 11.66 -2.86, 0.44 0.58 M28.46 -10.16 C21.54 -7.92, 14.07 -4.28, 0.44 0.58" fill="none" stroke="#e03131" stroke-width="2"></path></g><g transform="translate(421.41877376418887 514.2819415451729) rotate(0 87.31500822358944 -76.16245455175482)"><path d="M160.79 -127.41 C166.44 -133.92, 170.91 -143.52, 175.32 -153.66 M160.79 -127.41 C164.6 -134.05, 167.61 -139.52, 175.32 -153.66" fill="none" stroke="#e03131" stroke-width="2"></path></g><g transform="translate(421.41877376418887 514.2819415451729) rotate(0 87.31500822358944 -76.16245455175482)"><path d="M147.32 -142.89 C157.13 -144.59, 165.84 -149.32, 175.32 -153.66 M147.32 -142.89 C154.34 -145.65, 160.67 -147.3, 175.32 -153.66" fill="none" stroke="#e03131" stroke-width="2"></path></g></g><mask></mask><g stroke-linecap="round"><g transform="translate(424.2225341796875 155.77734375) rotate(0 29.517578125 58.376953125)"><path d="M0.33 -0.77 C10.19 18.65, 49.51 96.32, 59.15 116.11" fill="none" stroke="#e03131" stroke-dasharray="8 10" stroke-width="2.5"></path></g><g transform="translate(424.2225341796875 155.77734375) rotate(0 29.517578125 58.376953125)"><path d="M37.39 95.45 C42.53 101.73, 49.22 106.27, 59.15 116.11" fill="none" stroke="#e03131" stroke-width="2.5"></path></g><g transform="translate(424.2225341796875 155.77734375) rotate(0 29.517578125 58.376953125)"><path d="M55.76 86.3 C55.39 95.36, 56.61 102.63, 59.15 116.11" fill="none" stroke="#e03131" stroke-width="2.5"></path></g></g><mask></mask><g transform="translate(205.8319091796875 87.1640625) rotate(0 136.18988037109375 25)"><text direction="ltr" dominant-baseline="text-before-edge" fill="#e03131" font-family="Virgil, Segoe UI Emoji" font-size="20px" style="white-space: pre;" text-anchor="middle" x="136.18988037109375" y="0">Connect to Signaling Server,</text><text direction="ltr" dominant-baseline="text-before-edge" fill="#e03131" font-family="Virgil, Segoe UI Emoji" font-size="20px" style="white-space: pre;" text-anchor="middle" x="136.18988037109375" y="25">Learn About Peers</text></g><g stroke-linecap="round"><g transform="translate(427.0037841796875 347.55859375) rotate(0 81.599609375 49.251953125)"><path d="M0.66 -1.09 C27.54 15.27, 135.04 82.69, 162.29 99.35 M-0.45 0.95 C26.71 17.49, 137.14 81.71, 164.52 97.67" fill="none" stroke="#1971c2" stroke-width="2"></path></g><g transform="translate(427.0037841796875 347.55859375) rotate(0 81.599609375 49.251953125)"><path d="M30.02 5.08 C16.9 1.36, 8.89 2.04, 0.66 -1.09 M30.02 5.08 C20.72 3.55, 10.31 0.77, 0.66 -1.09" fill="none" stroke="#1971c2" stroke-width="2"></path></g><g transform="translate(427.0037841796875 347.55859375) rotate(0 81.599609375 49.251953125)"><path d="M19.18 22.51 C10.04 12.05, 6.18 6.06, 0.66 -1.09 M19.18 22.51 C13.61 15.12, 6.78 6.58, 0.66 -1.09" fill="none" stroke="#1971c2" stroke-width="2"></path></g><g transform="translate(427.0037841796875 347.55859375) rotate(0 81.599609375 49.251953125)"><path d="M135 92.34 C144.52 92.7, 159.06 97.78, 164.52 97.67 M135 92.34 C145.07 94.1, 154.13 95.13, 164.52 97.67" fill="none" stroke="#1971c2" stroke-width="2"></path></g><g transform="translate(427.0037841796875 347.55859375) rotate(0 81.599609375 49.251953125)"><path d="M145.33 74.61 C151.07 81.81, 161.65 93.68, 164.52 97.67 M145.33 74.61 C151.84 82.32, 157.48 89.21, 164.52 97.67" fill="none" stroke="#1971c2" stroke-width="2"></path></g></g><mask></mask><g stroke-linecap="round"><g transform="translate(427.0731720647495 579.2861838713287) rotate(0 82.07617187500003 -52.736328125)"><path d="M-0.9 0.45 C26.51 -16.99, 135.79 -87.4, 163.35 -104.95 M0.83 -0.35 C28.72 -18.13, 138.47 -89.05, 165.64 -106.79" fill="none" stroke="#1971c2" stroke-width="2"></path></g><g transform="translate(427.0731720647495 579.2861838713287) rotate(0 82.07617187500003 -52.736328125)"><path d="M17.28 -23.41 C14.18 -19.9, 10.5 -13.06, -0.9 0.45 M17.28 -23.41 C9.86 -14.86, 5.19 -5.97, -0.9 0.45" fill="none" stroke="#1971c2" stroke-width="2"></path></g><g transform="translate(427.0731720647495 579.2861838713287) rotate(0 82.07617187500003 -52.736328125)"><path d="M28.37 -6.14 C22.99 -6.32, 16.99 -3.1, -0.9 0.45 M28.37 -6.14 C17.1 -3.82, 8.49 -1.07, -0.9 0.45" fill="none" stroke="#1971c2" stroke-width="2"></path></g><g transform="translate(427.0731720647495 579.2861838713287) rotate(0 82.07617187500003 -52.736328125)"><path d="M147.58 -82.84 C152.17 -89.05, 156.06 -92.21, 165.64 -106.79 M147.58 -82.84 C153.31 -91, 161.53 -99.12, 165.64 -106.79" fill="none" stroke="#1971c2" stroke-width="2"></path></g><g transform="translate(427.0731720647495 579.2861838713287) rotate(0 82.07617187500003 -52.736328125)"><path d="M136.4 -100.06 C143.29 -102.59, 149.51 -102.15, 165.64 -106.79 M136.4 -100.06 C146.02 -102, 158.21 -103.99, 165.64 -106.79" fill="none" stroke="#1971c2" stroke-width="2"></path></g></g><mask></mask><g transform="translate(302.2078170776367 21.5) rotate(0 4.877998352050781 22.5)"><text direction="ltr" dominant-baseline="text-before-edge" fill="#e03131" font-family="Virgil, Segoe UI Emoji" font-size="36px" style="white-space: pre;" text-anchor="middle" x="4.877998352050781" y="0">1</text></g><g stroke-linecap="round"><g transform="translate(542.6834716796875 704.6484375) rotate(0 -18.927734375 -80.07421875)"><path d="M-0.21 0.8 C-6.45 -26.07, -31.94 -133.93, -38.39 -160.82" fill="none" stroke="#1971c2" stroke-dasharray="8 10" stroke-width="2.5"></path></g><g transform="translate(542.6834716796875 704.6484375) rotate(0 -18.927734375 -80.07421875)"><path d="M-21.89 -135.77 C-24.28 -142.21, -30.36 -148.63, -38.39 -160.82" fill="none" stroke="#1971c2" stroke-width="2.5"></path></g><g transform="translate(542.6834716796875 704.6484375) rotate(0 -18.927734375 -80.07421875)"><path d="M-41.85 -131.02 C-39.86 -138.47, -41.54 -145.94, -38.39 -160.82" fill="none" stroke="#1971c2" stroke-width="2.5"></path></g></g><mask></mask><g transform="translate(397.5073547363281 731.15234375) rotate(0 134.51986694335938 25)"><text direction="ltr" dominant-baseline="text-before-edge" fill="#1971c2" font-family="Virgil, Segoe UI Emoji" font-size="20px" style="white-space: pre;" text-anchor="middle" x="134.51986694335938" y="0">Find Publically </text><text direction="ltr" dominant-baseline="text-before-edge" fill="#1971c2" font-family="Virgil, Segoe UI Emoji" font-size="20px" style="white-space: pre;" text-anchor="middle" x="134.51986694335938" y="25">Addressable Address/Ports</text></g><g transform="translate(519.8909149169922 797.81640625) rotate(0 12.815994262695312 22.5)"><text direction="ltr" dominant-baseline="text-before-edge" fill="#1971c2" font-family="Virgil, Segoe UI Emoji" font-size="36px" style="white-space: pre;" text-anchor="middle" x="12.815994262695312" y="0">2</text></g><g stroke-linecap="round"><g transform="translate(616.6912841796875 131.73046875) rotate(0 -32.556640625 68.177734375)"><path d="M1.05 0.01 C-9.87 22.55, -54.91 113.42, -66.06 136.2" fill="none" stroke="#e03131" stroke-dasharray="8 10" stroke-width="2.5"></path></g><g transform="translate(616.6912841796875 131.73046875) rotate(0 -32.556640625 68.177734375)"><path d="M-62.8 106.38 C-63.38 112.35, -64.46 120.16, -66.06 136.2" fill="none" stroke="#e03131" stroke-width="2.5"></path></g><g transform="translate(616.6912841796875 131.73046875) rotate(0 -32.556640625 68.177734375)"><path d="M-44.4 115.45 C-49.68 119.29, -55.41 124.81, -66.06 136.2" fill="none" stroke="#e03131" stroke-width="2.5"></path></g></g><mask></mask><g transform="translate(503.38108825683594 67.74609375) rotate(0 133.23988342285156 25)"><text direction="ltr" dominant-baseline="text-before-edge" fill="#e03131" font-family="Virgil, Segoe UI Emoji" font-size="20px" style="white-space: pre;" text-anchor="middle" x="133.23988342285156" y="0">Share Connection</text><text direction="ltr" dominant-baseline="text-before-edge" fill="#e03131" font-family="Virgil, Segoe UI Emoji" font-size="20px" style="white-space: pre;" text-anchor="middle" x="133.23988342285156" y="25">Information Between Peers</text></g><g transform="translate(632.0817260742188 10) rotate(0 12.25799560546875 22.5)"><text direction="ltr" dominant-baseline="text-before-edge" fill="#e03131" font-family="Virgil, Segoe UI Emoji" font-size="36px" style="white-space: pre;" text-anchor="middle" x="12.25799560546875" y="0">3</text></g><g stroke-linecap="round"><g transform="translate(352.0506591796875 416.85546875) rotate(0 -0.033203125 48.9609375)"><path d="M-0.89 0.54 C-0.99 16.8, -0.59 81.55, -0.31 97.84 M0.84 -0.22 C0.54 16.21, -1.33 82.67, -1.38 99.33" fill="none" stroke="#2f9e44" stroke-width="2"></path></g><g transform="translate(352.0506591796875 416.85546875) rotate(0 -0.033203125 48.9609375)"><path d="M9.49 28.69 C6.99 19.17, 2.61 12.01, -0.89 0.54 M9.49 28.69 C5.78 20.47, 1.91 10.88, -0.89 0.54" fill="none" stroke="#2f9e44" stroke-width="2"></path></g><g transform="translate(352.0506591796875 416.85546875) rotate(0 -0.033203125 48.9609375)"><path d="M-11.03 28.78 C-6.93 19.38, -4.72 12.19, -0.89 0.54 M-11.03 28.78 C-8.05 20.59, -5.24 10.97, -0.89 0.54" fill="none" stroke="#2f9e44" stroke-width="2"></path></g><g transform="translate(352.0506591796875 416.85546875) rotate(0 -0.033203125 48.9609375)"><path d="M-11.15 70.96 C-7.04 79.75, -4.95 90.75, -1.38 99.33 M-11.15 70.96 C-7.96 81.22, -5.26 90.05, -1.38 99.33" fill="none" stroke="#2f9e44" stroke-width="2"></path></g><g transform="translate(352.0506591796875 416.85546875) rotate(0 -0.033203125 48.9609375)"><path d="M9.37 71.32 C6.88 79.84, 2.38 90.73, -1.38 99.33 M9.37 71.32 C5.87 81.41, 1.88 90.12, -1.38 99.33" fill="none" stroke="#2f9e44" stroke-width="2"></path></g></g><mask></mask><g transform="translate(10 428.23046875) rotate(0 152.7498779296875 37.5)"><text direction="ltr" dominant-baseline="text-before-edge" fill="#2f9e44" font-family="Virgil, Segoe UI Emoji" font-size="20px" style="white-space: pre;" text-anchor="middle" x="152.7498779296875" y="0">Connect to Peers, Share Data</text><text direction="ltr" dominant-baseline="text-before-edge" fill="#2f9e44" font-family="Virgil, Segoe UI Emoji" font-size="20px" style="white-space: pre;" text-anchor="middle" x="152.7498779296875" y="25">Periodically Refresh Connection</text><text direction="ltr" dominant-baseline="text-before-edge" fill="#2f9e44" font-family="Virgil, Segoe UI Emoji" font-size="20px" style="white-space: pre;" text-anchor="middle" x="152.7498779296875" y="50">Information</text></g><g transform="translate(146.1791000366211 367.0703125) rotate(0 11.519996643066406 22.5)"><text direction="ltr" dominant-baseline="text-before-edge" fill="#2f9e44" font-family="Virgil, Segoe UI Emoji" font-size="36px" style="white-space: pre;" text-anchor="middle" x="11.519996643066406" y="0">4</text></g></svg>