<svg height="797.0434770683614" version="1.1" viewbox="0 0 1849.5423110409486 797.0434770683614" width="1849.5423110409486" xmlns="http://www.w3.org/2000/svg">
<!-- svg-source:excalidraw -->
<!-- payload-type:application/vnd.excalidraw+json --><!-- payload-version:2 -->
<defs>
<style class="style-fonts">
</style>
</defs>
<rect fill="#ffffff" height="797.0434770683614" width="1849.5423110409486" x="0" y="0"></rect><g stroke-linecap="round" transform="translate(10 251.4469017486408) rotate(0 128.0182913190058 84.77455315625434)"><path d="M32 0 C96.07 0.7, 163.2 -1.16, 224.04 0 M32 0 C78.57 2.39, 124.93 2.24, 224.04 0 M224.04 0 C245.26 1.5, 254.6 11.6, 256.04 32 M224.04 0 C243.55 1.32, 257.12 12.14, 256.04 32 M256.04 32 C254.92 73.04, 257.67 115.2, 256.04 137.55 M256.04 32 C254.53 72.92, 254.59 111.2, 256.04 137.55 M256.04 137.55 C257.36 159.11, 243.41 171.3, 224.04 169.55 M256.04 137.55 C256.88 158.81, 243.13 169, 224.04 169.55 M224.04 169.55 C169.34 169.83, 112.68 169.54, 32 169.55 M224.04 169.55 C154.13 168.96, 86.08 169.59, 32 169.55 M32 169.55 C10.16 168.69, 1.4 159.77, 0 137.55 M32 169.55 C11.11 167.76, -1.66 159.89, 0 137.55 M0 137.55 C0.27 104.92, 1.06 70.82, 0 32 M0 137.55 C0.13 100.4, -0.6 64.68, 0 32 M0 32 C1.2 8.67, 12.62 0.1, 32 0 M0 32 C0.72 10.69, 11.94 -0.21, 32 0" fill="none" stroke="#1e1e1e" stroke-width="1"></path></g><g transform="translate(63.86301788150581 323.72145490489515) rotate(0 74.1552734375 12.5)"><text direction="ltr" dominant-baseline="text-before-edge" fill="#1e1e1e" font-family="Virgil, Segoe UI Emoji" font-size="20px" style="white-space: pre;" text-anchor="middle" x="74.1552734375" y="0">Commenter Client</text></g><g mask="url(#mask-kKeg6MHn2XD--uVSqapw8)" stroke-linecap="round"><g transform="translate(289.95865210060197 289.478283542172) rotate(0 123.1463414244705 1.931271818146115)"><path d="M-0.27 -0.7 C40.67 -0.16, 205.37 2.03, 246.5 2.98 M1.79 1.54 C42.51 2.24, 204.98 3.76, 245.66 4.06" fill="none" stroke="#1e1e1e" stroke-width="1"></path></g><g transform="translate(289.95865210060197 289.478283542172) rotate(0 123.1463414244705 1.931271818146115)"><path d="M28.06 -10.57 C16.37 -6.63, 5.57 -2.95, -0.27 -0.7 M28.06 -10.57 C16.73 -5.65, 4.77 -2, -0.27 -0.7" fill="none" stroke="#1e1e1e" stroke-width="1"></path></g><g transform="translate(289.95865210060197 289.478283542172) rotate(0 123.1463414244705 1.931271818146115)"><path d="M27.77 9.95 C16.24 6.29, 5.55 2.36, -0.27 -0.7 M27.77 9.95 C16.52 6.69, 4.68 2.16, -0.27 -0.7" fill="none" stroke="#1e1e1e" stroke-width="1"></path></g><g transform="translate(289.95865210060197 289.478283542172) rotate(0 123.1463414244705 1.931271818146115)"><path d="M217.38 14.08 C226.72 10.78, 236.91 7.08, 245.66 4.06 M217.38 14.08 C228.59 10.6, 239.2 6.32, 245.66 4.06" fill="none" stroke="#1e1e1e" stroke-width="1"></path></g><g transform="translate(289.95865210060197 289.478283542172) rotate(0 123.1463414244705 1.931271818146115)"><path d="M217.56 -6.44 C226.78 -2.14, 236.9 1.77, 245.66 4.06 M217.56 -6.44 C228.73 -1.74, 239.27 2.16, 245.66 4.06" fill="none" stroke="#1e1e1e" stroke-width="1"></path></g></g><mask id="mask-kKeg6MHn2XD--uVSqapw8"><rect fill="#fff" height="393.3408271784642" width="636.251334949543" x="0" y="0"></rect><rect fill="#000" height="25" opacity="1" width="61.123046875" x="382.5434700875725" y="278.9095553603181"></rect></mask><g transform="translate(382.5434700875725 278.9095553603181) rotate(0 30.529661873355536 12.24878224303015)"><text direction="ltr" dominant-baseline="text-before-edge" fill="#1e1e1e" font-family="Virgil, Segoe UI Emoji" font-size="20px" style="white-space: pre;" text-anchor="middle" x="30.5615234375" y="0">HTTPS</text></g><g stroke-linecap="round" transform="translate(563.0339881173547 10.629021465669211) rotate(0 52.987237405710914 314.61157847145796)"><path d="M26.49 0 C45.28 0.22, 61.79 -0.21, 79.48 0 M26.49 0 C45.57 0.33, 66.7 0.4, 79.48 0 M79.48 0 C98.99 0.58, 105.85 7.41, 105.97 26.49 M79.48 0 C96.74 1.53, 106.44 10.64, 105.97 26.49 M105.97 26.49 C107.77 166.96, 106.43 309.34, 105.97 602.73 M105.97 26.49 C103.87 205.84, 103.33 385.11, 105.97 602.73 M105.97 602.73 C105.78 621.84, 96.91 630.22, 79.48 629.22 M105.97 602.73 C106.56 620.45, 97.39 630.58, 79.48 629.22 M79.48 629.22 C58.68 628.54, 40.17 628.2, 26.49 629.22 M79.48 629.22 C66.06 628.68, 51.52 629.89, 26.49 629.22 M26.49 629.22 C8.97 628.7, 0.26 620.39, 0 602.73 M26.49 629.22 C8.56 630.12, -2.23 621.53, 0 602.73 M0 602.73 C1.2 432.84, 2.13 264.49, 0 26.49 M0 602.73 C-2.13 487.33, -2.03 371.88, 0 26.49 M0 26.49 C0.34 8.7, 7.94 1.02, 26.49 0 M0 26.49 C-1.3 9.78, 9.45 -0.38, 26.49 0" fill="none" stroke="#1e1e1e" stroke-width="1"></path></g><g transform="translate(568.5456395855656 275.2405999371272) rotate(0 47.4755859375 50)"><text direction="ltr" dominant-baseline="text-before-edge" fill="#1e1e1e" font-family="Virgil, Segoe UI Emoji" font-size="20px" style="white-space: pre;" text-anchor="middle" x="47.4755859375" y="0">Load </text><text direction="ltr" dominant-baseline="text-before-edge" fill="#1e1e1e" font-family="Virgil, Segoe UI Emoji" font-size="20px" style="white-space: pre;" text-anchor="middle" x="47.4755859375" y="25">Balancer</text><text direction="ltr" dominant-baseline="text-before-edge" fill="#1e1e1e" font-family="Virgil, Segoe UI Emoji" font-size="20px" style="white-space: pre;" text-anchor="middle" x="47.4755859375" y="50">- layer 7 for</text><text direction="ltr" dominant-baseline="text-before-edge" fill="#1e1e1e" font-family="Virgil, Segoe UI Emoji" font-size="20px" style="white-space: pre;" text-anchor="middle" x="47.4755859375" y="75">SSE</text></g><g stroke-linecap="round" transform="translate(829.0716441099037 73.28495701370775) rotate(0 170.30904558041385 102.57951969389615)"><path d="M32 0 C120.5 -0.99, 207.4 -1.1, 308.62 0 M32 0 C131.59 -1.15, 229.7 -1.92, 308.62 0 M308.62 0 C329.6 1.33, 341.02 12.24, 340.62 32 M308.62 0 C328.69 1.02, 338.49 12.89, 340.62 32 M340.62 32 C339.85 60.23, 341.38 93.11, 340.62 173.16 M340.62 32 C339.14 74.62, 339.13 116.29, 340.62 173.16 M340.62 173.16 C341.13 194.54, 330.17 206.34, 308.62 205.16 M340.62 173.16 C342.29 194.42, 327.71 203.96, 308.62 205.16 M308.62 205.16 C227.33 205.71, 148.06 204.92, 32 205.16 M308.62 205.16 C247.23 205.89, 185.84 206.09, 32 205.16 M32 205.16 C10.43 205.94, -1.94 195.48, 0 173.16 M32 205.16 C10.53 203.75, 0.14 193.89, 0 173.16 M0 173.16 C-3.27 142.11, -1.17 107.78, 0 32 M0 173.16 C-0.61 130.61, -1.23 88.71, 0 32 M0 32 C-1.13 11.49, 11.2 -0.33, 32 0 M0 32 C1.54 11.86, 12.47 1.87, 32 0" fill="none" stroke="#1e1e1e" stroke-width="1"></path></g><g transform="translate(872.7498303153175 163.3644767076039) rotate(0 126.630859375 12.5)"><text direction="ltr" dominant-baseline="text-before-edge" fill="#1e1e1e" font-family="Virgil, Segoe UI Emoji" font-size="20px" style="white-space: pre;" text-anchor="middle" x="126.630859375" y="0">Comment Management Service</text></g><g stroke-linecap="round"><g transform="translate(685.6557271785293 192.13573834723866) rotate(0 60.622670454105105 0.2147864390281029)"><path d="M-0.95 0.69 C19.5 0.8, 101.26 1.18, 121.81 1.2 M0.76 0.01 C21.17 -0.27, 100.92 -0.29, 121.16 -0.52" fill="none" stroke="#1e1e1e" stroke-width="1"></path></g><g transform="translate(685.6557271785293 192.13573834723866) rotate(0 60.622670454105105 0.2147864390281029)"><path d="M27.29 -9.44 C22.04 -6.41, 15.73 -3.2, -0.95 0.69 M27.29 -9.44 C17.82 -5.65, 8.92 -2.2, -0.95 0.69" fill="none" stroke="#1e1e1e" stroke-width="1"></path></g><g transform="translate(685.6557271785293 192.13573834723866) rotate(0 60.622670454105105 0.2147864390281029)"><path d="M27.2 11.08 C21.87 9.43, 15.58 7.96, -0.95 0.69 M27.2 11.08 C17.77 8.13, 8.9 4.83, -0.95 0.69" fill="none" stroke="#1e1e1e" stroke-width="1"></path></g><g transform="translate(685.6557271785293 192.13573834723866) rotate(0 60.622670454105105 0.2147864390281029)"><path d="M93.02 9.89 C100.55 8.68, 107.1 7.2, 121.16 -0.52 M93.02 9.89 C102.1 7.33, 111.73 4.03, 121.16 -0.52" fill="none" stroke="#1e1e1e" stroke-width="1"></path></g><g transform="translate(685.6557271785293 192.13573834723866) rotate(0 60.622670454105105 0.2147864390281029)"><path d="M92.92 -10.63 C100.56 -7.16, 107.14 -3.95, 121.16 -0.52 M92.92 -10.63 C102.02 -6.44, 111.68 -3, 121.16 -0.52" fill="none" stroke="#1e1e1e" stroke-width="1"></path></g></g><mask></mask><g stroke-linecap="round" transform="translate(1371.6416783284237 49.68229322763) rotate(0 133.62108660928106 133.6788415220053)"><path d="M192.37 13.79 C205.67 18.06, 218.97 29.73, 229.38 39.97 C239.79 50.2, 248.59 62.34, 254.82 75.19 C261.06 88.04, 265.04 102.75, 266.76 117.07 C268.49 131.39, 268.43 146.68, 265.18 161.09 C261.93 175.5, 254.89 191.14, 247.27 203.5 C239.64 215.87, 230.27 226.03, 219.44 235.26 C208.6 244.49, 195.8 253.72, 182.27 258.89 C168.74 264.06, 152.89 265.88, 138.25 266.3 C123.61 266.73, 108.14 265.53, 94.43 261.45 C80.73 257.38, 67.6 250.28, 56 241.85 C44.41 233.43, 33.32 222.7, 24.88 210.91 C16.43 199.12, 9.36 184.92, 5.34 171.11 C1.31 157.29, 0.06 142.66, 0.74 128.03 C1.42 113.39, 4.26 96.89, 9.42 83.31 C14.58 69.73, 22.25 57.4, 31.69 46.54 C41.13 35.68, 53.58 25.35, 66.07 18.15 C78.55 10.96, 92.38 6.18, 106.61 3.37 C120.84 0.57, 134.9 -1.61, 151.44 1.33 C167.99 4.27, 194.79 15.71, 205.87 21.01 C216.96 26.32, 219.08 31.15, 217.95 33.16 M132.15 0.74 C145.9 -1.62, 162.96 1.81, 176.9 6.32 C190.84 10.83, 204.51 18.52, 215.77 27.78 C227.03 37.05, 236.43 49.97, 244.48 61.9 C252.53 73.82, 260.08 85.54, 264.05 99.35 C268.01 113.16, 269.52 130.1, 268.25 144.77 C266.99 159.44, 262.38 174.16, 256.46 187.37 C250.55 200.59, 242.6 213.44, 232.77 224.07 C222.94 234.7, 210.45 244.1, 197.49 251.14 C184.52 258.18, 169.41 263.8, 154.96 266.3 C140.51 268.8, 124.88 268.7, 110.8 266.15 C96.71 263.61, 82.86 257.87, 70.45 251.01 C58.03 244.15, 46 235.41, 36.33 225.01 C26.66 214.61, 18.24 202.05, 12.44 188.61 C6.65 175.18, 2.95 158.96, 1.56 144.43 C0.16 129.89, 0.75 115.55, 4.06 101.38 C7.37 87.22, 13.37 71.55, 21.42 59.42 C29.47 47.28, 40.82 37.19, 52.35 28.56 C63.88 19.93, 77.09 12.31, 90.62 7.63 C104.14 2.95, 126.36 1.36, 133.51 0.48 C140.66 -0.4, 133.63 0.36, 133.51 2.34" fill="none" stroke="#1e1e1e" stroke-width="1"></path></g><g transform="translate(1443.0518259867672 158.33591940826352) rotate(0 62.2265625 25)"><text direction="ltr" dominant-baseline="text-before-edge" fill="#1e1e1e" font-family="Virgil, Segoe UI Emoji" font-size="20px" style="white-space: pre;" text-anchor="middle" x="62.2265625" y="0">Comments DB </text><text direction="ltr" dominant-baseline="text-before-edge" fill="#1e1e1e" font-family="Virgil, Segoe UI Emoji" font-size="20px" style="white-space: pre;" text-anchor="middle" x="62.2265625" y="25">(DynamoDB)</text></g><g stroke-linecap="round"><g transform="translate(1191.765701322627 183.78760920704008) rotate(0 80.12992170582652 -0.03953793054711241)"><path d="M-0.07 -0.85 C26.42 -0.79, 133.28 0.43, 160.05 0.72 M-1.57 1.31 C24.65 1.01, 132.08 -0.6, 158.99 -0.98" fill="none" stroke="#1e1e1e" stroke-width="1"></path></g><g transform="translate(1191.765701322627 183.78760920704008) rotate(0 80.12992170582652 -0.03953793054711241)"><path d="M28.21 -10.85 C15.72 -7.3, 7.39 -2.62, -0.07 -0.85 M28.21 -10.85 C16.53 -5.98, 5.88 -3.86, -0.07 -0.85" fill="none" stroke="#1e1e1e" stroke-width="1"></path></g><g transform="translate(1191.765701322627 183.78760920704008) rotate(0 80.12992170582652 -0.03953793054711241)"><path d="M28.02 9.67 C15.55 5.17, 7.29 1.8, -0.07 -0.85 M28.02 9.67 C16.52 6.78, 5.95 1.13, -0.07 -0.85" fill="none" stroke="#1e1e1e" stroke-width="1"></path></g><g transform="translate(1191.765701322627 183.78760920704008) rotate(0 80.12992170582652 -0.03953793054711241)"><path d="M130.95 9.69 C140.49 5.17, 154.25 1.74, 158.99 -0.98 M130.95 9.69 C140.69 6.49, 151.37 0.79, 158.99 -0.98" fill="none" stroke="#1e1e1e" stroke-width="1"></path></g><g transform="translate(1191.765701322627 183.78760920704008) rotate(0 80.12992170582652 -0.03953793054711241)"><path d="M130.65 -10.83 C140.37 -7.31, 154.24 -2.68, 158.99 -0.98 M130.65 -10.83 C140.4 -6.26, 151.19 -4.2, 158.99 -0.98" fill="none" stroke="#1e1e1e" stroke-width="1"></path></g></g><mask></mask><g transform="translate(346.4042316370312 246.18504761431905) rotate(0 66.38994598388672 12.5)"><text direction="ltr" dominant-baseline="text-before-edge" fill="#1e1e1e" font-family="Virgil, Segoe UI Emoji" font-size="20px" style="white-space: pre;" text-anchor="start" x="0" y="0">- for /create</text></g><g transform="translate(786.302229101251 10) rotate(0 231.78981018066406 25)"><text direction="ltr" dominant-baseline="text-before-edge" fill="#1e1e1e" font-family="Virgil, Segoe UI Emoji" font-size="20px" style="white-space: pre;" text-anchor="start" x="0" y="0">- When a new comment is posted, persist in DB</text><text direction="ltr" dominant-baseline="text-before-edge" fill="#1e1e1e" font-family="Virgil, Segoe UI Emoji" font-size="20px" style="white-space: pre;" text-anchor="start" x="0" y="25">and send to dispatcher</text></g><g stroke-linecap="round" transform="translate(816.6794355356983 548.5749169946866) rotate(0 170.30904558041385 102.57951969389615)"><path d="M32 0 C101.25 0.65, 166.44 3, 308.62 0 M32 0 C118.38 -1.9, 203.45 -2.06, 308.62 0 M308.62 0 C329.75 1.45, 340.38 11.67, 340.62 32 M308.62 0 C330.54 0.05, 340.86 12.02, 340.62 32 M340.62 32 C339.53 84.46, 340.78 136.77, 340.62 173.16 M340.62 32 C341.8 67.5, 340.89 105, 340.62 173.16 M340.62 173.16 C340.76 193.97, 330.21 205.16, 308.62 205.16 M340.62 173.16 C340.35 195.39, 327.72 206.3, 308.62 205.16 M308.62 205.16 C226.92 204.27, 147.41 206.22, 32 205.16 M308.62 205.16 C253.46 205.27, 198.25 205.2, 32 205.16 M32 205.16 C11 205.03, -0.89 195.52, 0 173.16 M32 205.16 C9.36 206.1, 0.62 194.11, 0 173.16 M0 173.16 C0.9 122.85, -1.15 69.57, 0 32 M0 173.16 C0.85 126.33, 0.58 79.27, 0 32 M0 32 C-0.12 11.31, 10.55 -0.44, 32 0 M0 32 C-1.27 9.12, 12.61 -1.97, 32 0" fill="none" stroke="#1e1e1e" stroke-width="1"></path></g><g stroke-linecap="round" transform="translate(835.5280406571615 562.8246796659487) rotate(0 170.30904558041385 102.57951969389615)"><path d="M32 0 C88.29 2.86, 146.92 0.33, 308.62 0 M32 0 C138.47 -0.12, 246.37 0.63, 308.62 0 M308.62 0 C329.71 1, 341.13 10.71, 340.62 32 M308.62 0 C330.2 1.36, 342.29 10.59, 340.62 32 M340.62 32 C340.09 60.06, 339.02 90.54, 340.62 173.16 M340.62 32 C340.17 81.02, 340.96 128.92, 340.62 173.16 M340.62 173.16 C340.87 194.49, 329.72 205.94, 308.62 205.16 M340.62 173.16 C338.39 195.63, 329.81 203.75, 308.62 205.16 M308.62 205.16 C225.31 204.67, 137.67 205.25, 32 205.16 M308.62 205.16 C224.69 205.11, 140.04 205.13, 32 205.16 M32 205.16 C9.77 206.18, -1.13 195.31, 0 173.16 M32 205.16 C11.29 204.78, 1.54 195.68, 0 173.16 M0 173.16 C-1.56 119.69, -0.48 65.86, 0 32 M0 173.16 C-0.5 142.02, -0.83 110.7, 0 32 M0 32 C-0.12 10.22, 9.56 -1.34, 32 0 M0 32 C1.94 8.7, 8.67 -0.09, 32 0" fill="none" stroke="#1e1e1e" stroke-width="1"></path></g><g stroke-linecap="round" transform="translate(857.7622670767046 581.8844376805691) rotate(0 170.30904558041385 102.57951969389615)"><path d="M32 0 C91.33 -2.92, 151.66 -0.84, 308.62 0 M32 0 C114.02 1.07, 196.11 0.9, 308.62 0 M308.62 0 C330.46 0.05, 340.83 11.85, 340.62 32 M308.62 0 C331.63 -0.08, 338.37 9.47, 340.62 32 M340.62 32 C339.91 74.55, 341.65 114.67, 340.62 173.16 M340.62 32 C339.67 63.09, 339.73 94.71, 340.62 173.16 M340.62 173.16 C340.38 195.27, 328.01 206.15, 308.62 205.16 M340.62 173.16 C340.48 193.08, 330.09 204.56, 308.62 205.16 M308.62 205.16 C242.41 207.95, 179.35 206.92, 32 205.16 M308.62 205.16 C225.5 204.92, 141.78 205.36, 32 205.16 M32 205.16 C9.53 205.98, 0.54 194.16, 0 173.16 M32 205.16 C12.2 206.35, 1.81 196.36, 0 173.16 M0 173.16 C0.96 120.03, -1.26 68.87, 0 32 M0 173.16 C-0.44 127.75, -0.44 81.47, 0 32 M0 32 C-1.11 9.32, 12.36 -1.71, 32 0 M0 32 C-2 10.57, 11.41 -1.94, 32 0" fill="none" stroke="#1e1e1e" stroke-width="1"></path></g><g transform="translate(946.1426017196184 659.4639573744653) rotate(0 81.9287109375 25)"><text direction="ltr" dominant-baseline="text-before-edge" fill="#1e1e1e" font-family="Virgil, Segoe UI Emoji" font-size="20px" style="white-space: pre;" text-anchor="middle" x="81.9287109375" y="0">Realtime Messaging</text><text direction="ltr" dominant-baseline="text-before-edge" fill="#1e1e1e" font-family="Virgil, Segoe UI Emoji" font-size="20px" style="white-space: pre;" text-anchor="middle" x="81.9287109375" y="25"> Service</text></g><g mask="url(#mask-_VbW9xOjU3t7yqdDfAkrE)" stroke-linecap="round"><g transform="translate(283.59127920140213 372.86882311313093) rotate(0 259.26183029533263 139.98272095370612)"><path d="M0 0 C105.76 55.05, 210.41 112.33, 518.52 279.97 M0 0 C193.02 103.2, 386.01 207.66, 518.52 279.97" fill="none" stroke="#1e1e1e" stroke-width="1"></path></g><g transform="translate(283.59127920140213 372.86882311313093) rotate(0 259.26183029533263 139.98272095370612)"><path d="M29.69 4.29 C23.59 1.59, 17.17 2.47, 0 0 M29.69 4.29 C18.9 2.86, 7.69 1.83, 0 0" fill="none" stroke="#1e1e1e" stroke-width="1"></path></g><g transform="translate(283.59127920140213 372.86882311313093) rotate(0 259.26183029533263 139.98272095370612)"><path d="M19.99 22.37 C15.69 15.98, 11.24 13.2, 0 0 M19.99 22.37 C12.83 14.17, 5.24 6.4, 0 0" fill="none" stroke="#1e1e1e" stroke-width="1"></path></g></g><mask id="mask-_VbW9xOjU3t7yqdDfAkrE"><rect fill="#fff" height="752.8342650205432" width="902.1149397920674" x="0" y="0"></rect><rect fill="#000" height="50" opacity="1" width="255.380859375" x="415.16267980923476" y="487.85154406683705"></rect></mask><g transform="translate(415.16267980923476 487.85154406683705) rotate(0 127.6904296875 25)"><text direction="ltr" dominant-baseline="text-before-edge" fill="#1e1e1e" font-family="Virgil, Segoe UI Emoji" font-size="20px" style="white-space: pre;" text-anchor="middle" x="127.6904296875" y="0">SSE</text><text direction="ltr" dominant-baseline="text-before-edge" fill="#1e1e1e" font-family="Virgil, Segoe UI Emoji" font-size="20px" style="white-space: pre;" text-anchor="middle" x="127.6904296875" y="25">- connect based on LiveVideoId</text></g><g stroke-linecap="round"><g transform="translate(996.6938264309986 293.1552376740765) rotate(0 -0.1515113488744646 15.718536290923112)"><path d="M-0.05 0.4 C-0.03 5.7, -0.35 26.54, -0.37 31.71 M-0.75 0.13 C-0.75 5.28, -0.88 25.57, -0.83 30.89" fill="none" stroke="#1e1e1e" stroke-width="1"></path></g><g transform="translate(996.6938264309986 293.1552376740765) rotate(0 -0.1515113488744646 15.718536290923112)"><path d="M-6.22 16.12 C-4.58 19.02, -3.66 22.31, -0.83 30.89 M-6.22 16.12 C-4.3 20.56, -3.34 24.83, -0.83 30.89" fill="none" stroke="#1e1e1e" stroke-width="1"></path></g><g transform="translate(996.6938264309986 293.1552376740765) rotate(0 -0.1515113488744646 15.718536290923112)"><path d="M4.53 16.11 C4 19.01, 2.73 22.3, -0.83 30.89 M4.53 16.11 C3.21 20.58, 0.91 24.86, -0.83 30.89" fill="none" stroke="#1e1e1e" stroke-width="1"></path></g></g><mask></mask><g mask="url(#mask-wX6G0pwRdt-ST2D44H2uq)" stroke-linecap="round"><g transform="translate(995.9190917586873 468.4725026183078) rotate(0 -0.05581749773227784 35.86438597959386)"><path d="M-0.14 0.6 C-0.09 12.42, 0.17 59.78, 0.19 71.76 M-1.68 -0.13 C-1.74 11.82, -0.76 61.54, -0.59 73.31" fill="none" stroke="#1e1e1e" stroke-width="1"></path></g><g transform="translate(995.9190917586873 468.4725026183078) rotate(0 -0.05581749773227784 35.86438597959386)"><path d="M-11.33 45.3 C-7.01 53.94, -4.85 61.77, -0.59 73.31 M-11.33 45.3 C-8.25 54.83, -3.5 65.52, -0.59 73.31" fill="none" stroke="#1e1e1e" stroke-width="1"></path></g><g transform="translate(995.9190917586873 468.4725026183078) rotate(0 -0.05581749773227784 35.86438597959386)"><path d="M9.19 44.95 C7.56 53.67, 3.76 61.6, -0.59 73.31 M9.19 44.95 C4.91 54.6, 2.29 65.41, -0.59 73.31" fill="none" stroke="#1e1e1e" stroke-width="1"></path></g></g><mask id="mask-wX6G0pwRdt-ST2D44H2uq"><rect fill="#fff" height="640.2012745774955" width="1096.0307267541518" x="0" y="0"></rect><rect fill="#000" height="25" opacity="1" width="173.33984375" x="909.193352385955" y="491.83688859790163"></rect></mask><g transform="translate(909.193352385955 491.83688859790163) rotate(0 85.98308262729904 13.225301619637747)"><text direction="ltr" dominant-baseline="text-before-edge" fill="#1e1e1e" font-family="Virgil, Segoe UI Emoji" font-size="20px" style="white-space: pre;" text-anchor="middle" x="86.669921875" y="0">HTTPS (not pub/sub)</text></g><g stroke-linecap="round" transform="translate(839.0626549933211 340.1215670212987) rotate(0 157.18401199848017 58.059136783904705)"><path d="M7.07 7.47 C7.07 7.47, 7.07 7.47, 7.07 7.47 M7.07 7.47 C7.07 7.47, 7.07 7.47, 7.07 7.47 M2.22 19.15 C5.15 14.17, 11.05 10.74, 16.65 2.55 M2.22 19.15 C7.87 12.79, 13.88 6.06, 16.65 2.55 M0.64 27.06 C8.67 19.64, 15.23 7.08, 22.95 1.4 M0.64 27.06 C5.71 21.45, 11.35 15.09, 22.95 1.4 M0.38 33.46 C11.62 21.44, 24.53 6.39, 29.25 0.25 M0.38 33.46 C10.64 22.81, 21.23 10.64, 29.25 0.25 M0.78 39.1 C10.85 27.54, 22.33 15.41, 34.89 -0.14 M0.78 39.1 C13.6 23.21, 27.31 9.65, 34.89 -0.14 M0.52 45.5 C15.49 29.18, 28.57 15.5, 39.88 0.22 M0.52 45.5 C11.19 34.39, 20.01 22.48, 39.88 0.22 M0.91 51.14 C19 32.2, 35.04 13.46, 44.87 0.58 M0.91 51.14 C9.96 41.41, 18.62 31.36, 44.87 0.58 M0.65 57.54 C13.23 42.81, 24.16 30.23, 50.51 0.18 M0.65 57.54 C14.67 41.43, 28.35 25.36, 50.51 0.18 M0.39 63.94 C12.91 48.08, 26.53 31.62, 55.5 0.54 M0.39 63.94 C19.62 42.98, 37.24 22.61, 55.5 0.54 M0.78 69.58 C16.35 52.05, 34.13 34.77, 61.14 0.15 M0.78 69.58 C12.67 56.03, 25.18 42.11, 61.14 0.15 M0.52 75.98 C23.01 49.47, 45.62 25.69, 66.13 0.51 M0.52 75.98 C17.27 56.89, 36.51 35.45, 66.13 0.51 M0.91 81.62 C18.62 61.37, 35.68 42.49, 71.77 0.11 M0.91 81.62 C26.91 52.45, 52.65 21.58, 71.77 0.11 M0.65 88.02 C18.29 68.84, 32.07 48.57, 76.76 0.47 M0.65 88.02 C24.3 59.81, 49.6 32.66, 76.76 0.47 M0.39 94.42 C17.5 74.73, 32.06 55.04, 82.4 0.08 M0.39 94.42 C24.03 67.82, 48.19 39.42, 82.4 0.08 M2.1 98.55 C20.82 73.25, 41.26 53.76, 87.39 0.44 M2.1 98.55 C24.73 72.28, 48.57 47.53, 87.39 0.44 M3.81 102.68 C33.5 66.78, 63.21 32.11, 93.03 0.04 M3.81 102.68 C29.47 74.69, 55.12 45.52, 93.03 0.04 M5.51 106.82 C28.9 80.41, 51.58 55.82, 98.02 0.4 M5.51 106.82 C29.56 80.22, 53.67 53.39, 98.02 0.4 M8.53 109.44 C34.74 82.83, 58.98 53.89, 103.66 0.01 M8.53 109.44 C28.77 86.13, 48.59 63.42, 103.66 0.01 M11.55 112.07 C36.94 86.09, 60.71 57.96, 108.65 0.37 M11.55 112.07 C41.45 78.18, 73.03 41.09, 108.65 0.37 M15.22 113.94 C49.89 70.52, 84.95 32.59, 114.29 -0.03 M15.22 113.94 C48.86 73.13, 83.04 32.79, 114.29 -0.03 M19.56 115.05 C44.56 85.89, 67.11 61.17, 119.28 0.33 M19.56 115.05 C47.79 84.23, 75.19 52.57, 119.28 0.33 M23.89 116.17 C46.51 90.09, 70.42 60.3, 124.92 -0.06 M23.89 116.17 C57.31 78.42, 90.6 39.79, 124.92 -0.06 M28.87 116.53 C60.04 83.59, 86.1 47.48, 129.91 0.3 M28.87 116.53 C49.81 92.07, 72.66 65.28, 129.91 0.3 M34.52 116.13 C64.06 85.3, 88.66 51.95, 135.55 -0.09 M34.52 116.13 C71.53 70.95, 111.78 27, 135.55 -0.09 M39.5 116.49 C65.71 89.03, 93.49 59.16, 140.54 0.27 M39.5 116.49 C62 90.77, 85.33 64.14, 140.54 0.27 M45.15 116.1 C70.9 86.56, 98.07 54.73, 146.18 -0.13 M45.15 116.1 C75.47 81.28, 105.13 48.08, 146.18 -0.13 M50.13 116.46 C86.57 77.71, 120.87 36.94, 151.17 0.23 M50.13 116.46 C72.08 89.2, 95.88 62.09, 151.17 0.23 M55.78 116.06 C94.4 70.4, 133.08 26.29, 156.15 0.59 M55.78 116.06 C84.06 83.28, 112.23 51.54, 156.15 0.59 M60.76 116.42 C89.2 82.11, 119.16 48.6, 161.8 0.2 M60.76 116.42 C99.85 70.71, 140.34 24.6, 161.8 0.2 M66.41 116.03 C87.86 92.33, 109.79 69.32, 166.78 0.56 M66.41 116.03 C91.41 88.13, 116.6 58.43, 166.78 0.56 M71.39 116.39 C108.72 70.04, 148.94 26.96, 172.43 0.16 M71.39 116.39 C102.76 81.66, 133.36 45.1, 172.43 0.16 M77.04 115.99 C111.28 78.73, 144.39 40.28, 177.41 0.52 M77.04 115.99 C116.18 71.57, 154.32 29.01, 177.41 0.52 M82.02 116.35 C106.33 90.59, 130.67 59.11, 183.06 0.13 M82.02 116.35 C119.02 74.26, 156.57 30.79, 183.06 0.13 M87.67 115.96 C114.52 87.5, 142.29 55.73, 188.04 0.49 M87.67 115.96 C126.7 71.9, 163.62 28.65, 188.04 0.49 M92.65 116.32 C119.32 86.86, 146.27 56.68, 193.69 0.09 M92.65 116.32 C117.58 88.94, 143.1 59.3, 193.69 0.09 M98.3 115.92 C119.18 90.99, 142.36 63.14, 198.67 0.45 M98.3 115.92 C134.13 76.36, 168.23 36.55, 198.67 0.45 M103.28 116.28 C135.9 76.14, 170.59 39.14, 204.32 0.06 M103.28 116.28 C123.62 91.27, 144.38 68.48, 204.32 0.06 M108.93 115.89 C143.85 79.8, 175.99 37.58, 209.3 0.42 M108.93 115.89 C144.51 74.76, 179.14 35.09, 209.3 0.42 M113.91 116.25 C152.21 72.62, 186.92 30.42, 214.95 0.02 M113.91 116.25 C151.35 73.32, 188.19 31.23, 214.95 0.02 M119.56 115.85 C154.9 74.45, 191.77 32, 219.93 0.38 M119.56 115.85 C147.87 85.1, 175.79 53.04, 219.93 0.38 M124.54 116.21 C158.64 76.96, 191.44 40.82, 225.58 -0.01 M124.54 116.21 C147.65 87.7, 171.84 61.54, 225.58 -0.01 M129.53 116.57 C155.92 87.2, 179.24 57.08, 230.56 0.35 M129.53 116.57 C162.19 78.32, 194.35 42.24, 230.56 0.35 M135.17 116.18 C158.14 88.74, 181.4 67.15, 236.21 -0.05 M135.17 116.18 C154.44 91.35, 176.03 68.01, 236.21 -0.05 M140.16 116.54 C176.74 78.09, 211.44 35.38, 241.19 0.32 M140.16 116.54 C175.96 77.06, 209.22 36.25, 241.19 0.32 M145.8 116.15 C173.79 82.73, 205.05 46.02, 246.84 -0.08 M145.8 116.15 C170.2 86.5, 197.06 55.88, 246.84 -0.08 M150.79 116.51 C190.32 70.54, 228.17 27.09, 251.82 0.28 M150.79 116.51 C181.97 79.1, 214.16 42.63, 251.82 0.28 M156.43 116.11 C183.6 84.38, 209.45 58.08, 257.47 -0.11 M156.43 116.11 C181.08 87.88, 204.24 61.35, 257.47 -0.11 M161.42 116.47 C190.19 84.05, 219.31 47.21, 262.45 0.25 M161.42 116.47 C186.52 88.72, 210.81 60.68, 262.45 0.25 M167.06 116.08 C192.6 87.06, 215.73 57.26, 268.1 -0.15 M167.06 116.08 C204.28 74.62, 239.81 33.43, 268.1 -0.15 M172.05 116.44 C210.86 67.83, 251.63 23.32, 273.08 0.21 M172.05 116.44 C195.66 87.64, 219.11 60.59, 273.08 0.21 M177.69 116.04 C201.66 88.56, 229.02 60.93, 278.07 0.57 M177.69 116.04 C212.68 75.05, 248.4 35.52, 278.07 0.57 M182.68 116.4 C206.98 87.82, 232.81 58.48, 283.71 0.18 M182.68 116.4 C211.25 85.87, 239.13 53.11, 283.71 0.18 M188.32 116.01 C216.85 80.77, 246.53 48.17, 288.05 1.29 M188.32 116.01 C217.11 81.28, 246.93 48.6, 288.05 1.29 M193.31 116.37 C224.09 80.5, 257.45 39.88, 293.03 1.65 M193.31 116.37 C219.7 88.42, 243.56 59.06, 293.03 1.65 M198.95 115.97 C225.3 81.72, 254.91 50.93, 298.02 2.01 M198.95 115.97 C233.38 73.28, 270.37 33.34, 298.02 2.01 M203.94 116.33 C240.97 72.5, 278.64 31.03, 301.69 3.88 M203.94 116.33 C231.12 85.72, 257.89 54, 301.69 3.88 M209.58 115.94 C239.34 78.04, 271.61 43.87, 305.37 5.75 M209.58 115.94 C236.41 82.48, 265.67 51.39, 305.37 5.75 M214.57 116.3 C240.83 83.19, 269.88 53.98, 308.39 8.38 M214.57 116.3 C234.12 93.88, 252.47 70.94, 308.39 8.38 M220.22 115.9 C253.83 75.31, 289.87 38.27, 310.75 11.75 M220.22 115.9 C250.78 81.29, 279.28 48.3, 310.75 11.75 M225.2 116.26 C260.54 74.36, 293.56 35.58, 312.46 15.89 M225.2 116.26 C251.72 84.56, 280.37 51.92, 312.46 15.89 M230.85 115.87 C255.03 86.65, 279.04 61.55, 313.51 20.78 M230.85 115.87 C254 89.25, 275.62 63.73, 313.51 20.78 M235.83 116.23 C263.22 83.12, 294.79 50.68, 314.56 25.66 M235.83 116.23 C255.12 95.68, 273.54 73.75, 314.56 25.66 M240.82 116.59 C261.99 90.81, 281.8 68.8, 314.3 32.06 M240.82 116.59 C270.53 84.31, 299.51 50.07, 314.3 32.06 M246.46 116.2 C269.38 90.26, 290.55 65.03, 314.69 37.71 M246.46 116.2 C272.27 87.04, 298.79 56.35, 314.69 37.71 M251.45 116.56 C269.39 96.7, 289.2 72.85, 314.43 44.1 M251.45 116.56 C275.61 88.37, 299.24 60.56, 314.43 44.1 M257.09 116.16 C275.42 95.92, 295.9 74.62, 314.83 49.75 M257.09 116.16 C276.29 95.58, 296.22 72.82, 314.83 49.75 M262.08 116.52 C277.34 98.95, 289.32 84.22, 314.56 56.14 M262.08 116.52 C281.77 93.28, 301.17 71.72, 314.56 56.14 M267.72 116.13 C279.67 99.22, 293.91 85.94, 314.96 61.79 M267.72 116.13 C280.68 100.18, 293 84.39, 314.96 61.79 M272.71 116.49 C288.05 98.78, 304.48 77.59, 314.7 68.19 M272.71 116.49 C285.9 102.02, 297.73 87.83, 314.7 68.19 M278.35 116.09 C289.74 103.56, 299.06 94.27, 315.09 73.83 M278.35 116.09 C292.48 100.76, 306.39 86.45, 315.09 73.83 M283.34 116.45 C293.6 106.3, 303.53 96.18, 314.83 80.23 M283.34 116.45 C294.13 103.06, 306.03 89.5, 314.83 80.23 M288.98 116.06 C298.62 104.32, 306.96 95.33, 315.22 85.87 M288.98 116.06 C298.8 106.83, 306.1 95.86, 315.22 85.87 M294.63 115.66 C302.61 110.08, 307.14 101.81, 314.31 93.02 M294.63 115.66 C301.01 108.07, 309.11 99.65, 314.31 93.02 M302.89 112.25 C304.67 109.98, 306.95 107.45, 313.39 100.17 M302.89 112.25 C305.55 108.21, 309.67 106.08, 313.39 100.17" fill="none" stroke="#ffffff" stroke-width="0.5"></path><path d="M29.03 0 C113.41 0.95, 195.84 -1.8, 285.34 0 M29.03 0 C92.35 -0.56, 156.65 0.14, 285.34 0 M285.34 0 C305.08 -1.56, 312.93 10.55, 314.37 29.03 M285.34 0 C304.85 -0.6, 314.66 9.68, 314.37 29.03 M314.37 29.03 C315.58 45.65, 313.37 62.63, 314.37 87.09 M314.37 29.03 C314.58 43.93, 314.96 60.88, 314.37 87.09 M314.37 87.09 C314.99 106.46, 305.8 115.94, 285.34 116.12 M314.37 87.09 C314.75 106.29, 303.66 117.3, 285.34 116.12 M285.34 116.12 C222.72 117.75, 161.47 117.94, 29.03 116.12 M285.34 116.12 C187.59 115.96, 89.68 115.06, 29.03 116.12 M29.03 116.12 C10.76 116.6, 0.53 106.95, 0 87.09 M29.03 116.12 C9.54 116.86, -0.14 105.93, 0 87.09 M0 87.09 C-1.32 71.15, 0.31 59.33, 0 29.03 M0 87.09 C-0.48 73.63, -1.2 62.71, 0 29.03 M0 29.03 C1.73 8.84, 11.5 1.79, 29.03 0 M0 29.03 C0.23 9.37, 11.86 -2.11, 29.03 0" fill="none" stroke="#1e1e1e" stroke-width="1"></path></g><g transform="translate(854.0689326168012 360.6807038052034) rotate(0 142.177734375 37.5)"><text direction="ltr" dominant-baseline="text-before-edge" fill="#1e1e1e" font-family="Virgil, Segoe UI Emoji" font-size="20px" style="white-space: pre;" text-anchor="middle" x="142.177734375" y="0">Dispatcher</text><text direction="ltr" dominant-baseline="text-before-edge" fill="#1e1e1e" font-family="Virgil, Segoe UI Emoji" font-size="20px" style="white-space: pre;" text-anchor="middle" x="142.177734375" y="25">- responsible for sending to correct </text><text direction="ltr" dominant-baseline="text-before-edge" fill="#1e1e1e" font-family="Virgil, Segoe UI Emoji" font-size="20px" style="white-space: pre;" text-anchor="middle" x="142.177734375" y="50">messaging servers</text></g><g transform="translate(1670.4824508114564 97.90624941825877) rotate(0 84.5299301147461 75)"><text direction="ltr" dominant-baseline="text-before-edge" fill="#1e1e1e" font-family="Virgil, Segoe UI Emoji" font-size="20px" style="white-space: pre;" text-anchor="start" x="0" y="0">Comment</text><text direction="ltr" dominant-baseline="text-before-edge" fill="#1e1e1e" font-family="Virgil, Segoe UI Emoji" font-size="20px" style="white-space: pre;" text-anchor="start" x="0" y="25">- commentId (PK)</text><text direction="ltr" dominant-baseline="text-before-edge" fill="#1e1e1e" font-family="Virgil, Segoe UI Emoji" font-size="20px" style="white-space: pre;" text-anchor="start" x="0" y="50">- videoId (shard)</text><text direction="ltr" dominant-baseline="text-before-edge" fill="#1e1e1e" font-family="Virgil, Segoe UI Emoji" font-size="20px" style="white-space: pre;" text-anchor="start" x="0" y="75">- content</text><text direction="ltr" dominant-baseline="text-before-edge" fill="#1e1e1e" font-family="Virgil, Segoe UI Emoji" font-size="20px" style="white-space: pre;" text-anchor="start" x="0" y="100">- author</text><text direction="ltr" dominant-baseline="text-before-edge" fill="#1e1e1e" font-family="Virgil, Segoe UI Emoji" font-size="20px" style="white-space: pre;" text-anchor="start" x="0" y="125">- createdAt (SK)</text></g></svg>