<svg height="473" version="1.1" viewbox="0 0 596 473" width="596" xmlns="http://www.w3.org/2000/svg">
<!-- svg-source:excalidraw -->
<!-- payload-type:application/vnd.excalidraw+json --><!-- payload-version:2 -->
<defs>
<style class="style-fonts">
</style>
</defs>
<rect fill="#ffffff" height="473" width="596" x="0" y="0"></rect><g stroke-linecap="round" transform="translate(10 10) rotate(0 75 32.5)"><path d="M0 0 C44.59 1.25, 90.03 0.04, 150 0 M0 0 C46.76 -1.74, 94.11 -1.59, 150 0 M150 0 C151.97 22.11, 150.71 47.46, 150 65 M150 0 C150.68 26.01, 150.76 50.77, 150 65 M150 65 C119.38 65.57, 86.56 64.43, 0 65 M150 65 C114.05 65.48, 78.29 66.04, 0 65 M0 65 C0.82 44.46, -2.05 25.27, 0 0 M0 65 C-0.5 44.02, 0.39 25.26, 0 0" fill="none" stroke="#1e1e1e" stroke-width="2"></path></g><g stroke-linecap="round" transform="translate(10 398) rotate(0 75 32.5)"><path d="M0 0 C32.37 -1.22, 64.63 1.28, 150 0 M0 0 C57.18 0.42, 114.59 1.33, 150 0 M150 0 C150.91 18.55, 152.36 39.71, 150 65 M150 0 C150.46 16.5, 149.27 33.85, 150 65 M150 65 C114.5 66.47, 77.31 66.72, 0 65 M150 65 C100.25 65.63, 51.09 65.58, 0 65 M0 65 C-2.08 46.71, -0.21 27.58, 0 0 M0 65 C0.89 44.37, -0.54 22.76, 0 0" fill="none" stroke="#1e1e1e" stroke-width="2"></path></g><g stroke-linecap="round" transform="translate(210 10) rotate(0 75 32.5)"><path d="M0 0 C45.02 2.19, 91.12 0.58, 150 0 M0 0 C37.54 1.1, 73.64 1.41, 150 0 M150 0 C151.95 14.63, 149.24 26.96, 150 65 M150 0 C149.33 23.75, 149.59 46.89, 150 65 M150 65 C92.55 65.86, 38.16 64.85, 0 65 M150 65 C104.78 66.43, 59.26 66.47, 0 65 M0 65 C0.72 47.31, 1 26.59, 0 0 M0 65 C-1.12 51.28, -1.07 38.43, 0 0" fill="none" stroke="#1e1e1e" stroke-width="2"></path></g><g stroke-linecap="round" transform="translate(210 398) rotate(0 75 32.5)"><path d="M0 0 C37.29 -1.29, 70.3 -0.46, 150 0 M0 0 C39.07 0.05, 77.29 -0.58, 150 0 M150 0 C149.71 17.97, 151.71 35.65, 150 65 M150 0 C148.81 19.33, 150.18 37.56, 150 65 M150 65 C102.96 65.04, 54.76 64.99, 0 65 M150 65 C96.15 66.41, 42.26 64.97, 0 65 M0 65 C0.4 41.68, -1.92 20.18, 0 0 M0 65 C-0.14 43.53, -0.6 21.86, 0 0" fill="none" stroke="#1e1e1e" stroke-width="2"></path></g><g stroke-linecap="round" transform="translate(436 10) rotate(0 75 32.5)"><path d="M0 0 C53.32 0.74, 108.03 1.66, 150 0 M0 0 C51.74 -1.04, 105.1 -0.32, 150 0 M150 0 C150.83 24.62, 149.47 46.23, 150 65 M150 0 C150.35 23.59, 149.77 46.34, 150 65 M150 65 C100.58 64.24, 52.25 64.98, 0 65 M150 65 C96.74 65.03, 44.16 65.96, 0 65 M0 65 C-2.02 42.4, 0.54 15.18, 0 0 M0 65 C-0.64 47.8, 0.92 30.87, 0 0" fill="none" stroke="#1e1e1e" stroke-width="2"></path></g><g stroke-linecap="round" transform="translate(436 398) rotate(0 75 32.5)"><path d="M0 0 C41.56 1.04, 85.72 -0.46, 150 0 M0 0 C57 0.63, 115.31 -0.73, 150 0 M150 0 C150.12 19.24, 151.59 40.76, 150 65 M150 0 C150.66 22.85, 150.78 47.23, 150 65 M150 65 C109.26 64.95, 67.26 64.65, 0 65 M150 65 C96.8 63.81, 43.18 63.95, 0 65 M0 65 C1.3 44.51, 0 25.23, 0 0 M0 65 C1.22 44.7, 0.26 22.02, 0 0" fill="none" stroke="#1e1e1e" stroke-width="2"></path></g><g stroke-linecap="round" transform="translate(60 85) rotate(0 238 19.5)"><path d="M0 0 C154.64 -1.51, 309.09 -2.31, 476 0 M476 0 C477.26 11.55, 476.34 25.99, 476 39 M476 39 C318.75 36.62, 160.96 37.82, 0 39 M0 39 C0.53 27.45, -0.48 14.75, 0 0" fill="none" stroke="#1e1e1e" stroke-dasharray="8 10" stroke-width="2.5"></path></g><g stroke-linecap="round" transform="translate(210 186) rotate(0 75 25)"><path d="M0 0 C57.11 -1.85, 111.32 -0.53, 150 0 M150 0 C150.81 20.69, 150.98 38.91, 150 50 M150 50 C119.38 50.57, 86.56 49.43, 0 50 M0 50 C-0.56 38.13, -0.6 27.35, 0 0" fill="none" stroke="#1e1e1e" stroke-dasharray="8 10" stroke-width="2.5"></path></g><g stroke-linecap="round" transform="translate(210 339) rotate(0 75 25)"><path d="M0 0 C44.6 0.83, 90.27 2.82, 150 0 M150 0 C150.74 12.54, 148.36 26.79, 150 50 M150 50 C114.5 51.47, 77.31 51.72, 0 50 M0 50 C-0.35 34.67, 0.39 18.08, 0 0" fill="none" stroke="#1e1e1e" stroke-dasharray="8 10" stroke-width="2.5"></path></g><g stroke-linecap="round"><g transform="translate(85 75) rotate(0 0 161.5)"><path d="M0 0 C1.7 66.8, -0.19 132, 0 323 M0 0 C0.1 115.41, 0.28 230.39, 0 323" fill="none" stroke="#999" stroke-width="1"></path></g></g><mask></mask><g stroke-linecap="round"><g transform="translate(285 75) rotate(0 0 161.5)"><path d="M0 0 C1.44 87.34, 2.83 174.48, 0 323 M0 0 C-2.4 93.46, -1.45 186.16, 0 323" fill="none" stroke="#999" stroke-width="1"></path></g></g><mask></mask><g stroke-linecap="round"><g transform="translate(511 75) rotate(0 0 161.5)"><path d="M0 0 C-0.22 119.65, -1.16 237.21, 0 323 M0 0 C-0.87 116.75, -1.26 232.91, 0 323" fill="none" stroke="#999" stroke-width="1"></path></g></g><mask></mask><g mask="url(#mask-usYXikHGOE8XoExkkFY5n)" stroke-linecap="round"><g transform="translate(85.5 166) rotate(0 99.5 0)"><path d="M0.38 -0.14 C33.32 -0.13, 164.97 0.59, 197.95 0.73 M-0.88 -1.26 C32.4 -1.65, 166.5 -1.01, 200.11 -1" fill="none" stroke="#1e1e1e" stroke-width="2"></path></g><g transform="translate(85.5 166) rotate(0 99.5 0)"><path d="M171.89 9.19 C180.71 4.05, 191.29 1.28, 200.11 -1 M171.89 9.19 C182.18 4.86, 192.48 2.1, 200.11 -1" fill="none" stroke="#1e1e1e" stroke-width="2"></path></g><g transform="translate(85.5 166) rotate(0 99.5 0)"><path d="M171.94 -11.34 C180.86 -9.84, 191.42 -5.98, 200.11 -1 M171.94 -11.34 C182.36 -8.25, 192.65 -3.61, 200.11 -1" fill="none" stroke="#1e1e1e" stroke-width="2"></path></g></g><mask id="mask-usYXikHGOE8XoExkkFY5n"><rect fill="#fff" height="266" width="385.5" x="0" y="0"></rect><rect fill="#000" height="20" opacity="1" width="125.59992980957031" x="122.20003509521484" y="156"></rect></mask><g mask="url(#mask-GLuo5FbRFZavW6a6xhbOb)" stroke-linecap="round"><g transform="translate(285.5 267) rotate(0 112.5 0)"><path d="M-1.05 0.73 C36.26 0.88, 186.43 0.83, 224.26 0.73" fill="none" stroke="#1e1e1e" stroke-dasharray="1.5 8" stroke-width="2.5"></path></g><g transform="translate(285.5 267) rotate(0 112.5 0)"><path d="M196.08 11.03 C206.66 6.63, 215.99 5.95, 224.26 0.73" fill="none" stroke="#1e1e1e" stroke-dasharray="1.5 6" stroke-width="2.5"></path></g><g transform="translate(285.5 267) rotate(0 112.5 0)"><path d="M196.05 -9.49 C206.62 -7.09, 215.96 -0.97, 224.26 0.73" fill="none" stroke="#1e1e1e" stroke-dasharray="1.5 6" stroke-width="2.5"></path></g></g><mask id="mask-GLuo5FbRFZavW6a6xhbOb"><rect fill="#fff" height="367" width="611.5" x="0" y="0"></rect><rect fill="#000" height="20" opacity="1" width="165.3118896484375" x="315.34405517578125" y="257"></rect></mask><g mask="url(#mask-AXzA8YCgYwCrrDO9SSUlG)" stroke-linecap="round"><g transform="translate(510.5 319) rotate(0 -112.5 0)"><path d="M-0.74 0.73 C-37.92 0.63, -186.76 0.38, -224.1 0.14 M1.07 0.07 C-36.09 0.12, -186.83 1.73, -224.58 1.75" fill="none" stroke="#1e1e1e" stroke-width="2"></path></g><g transform="translate(510.5 319) rotate(0 -112.5 0)"><path d="M-196.45 -8.69 C-201.14 -5.15, -208.1 -4.08, -224.58 1.75 M-196.45 -8.69 C-203.33 -6.09, -210.05 -3.04, -224.58 1.75" fill="none" stroke="#1e1e1e" stroke-width="2"></path></g><g transform="translate(510.5 319) rotate(0 -112.5 0)"><path d="M-196.33 11.84 C-201.16 11.02, -208.15 7.73, -224.58 1.75 M-196.33 11.84 C-203.29 9.54, -210.05 7.7, -224.58 1.75" fill="none" stroke="#1e1e1e" stroke-width="2"></path></g></g><mask id="mask-AXzA8YCgYwCrrDO9SSUlG"><rect fill="#fff" height="419" width="836.5" x="0" y="0"></rect><rect fill="#000" height="40" opacity="1" width="121.85591125488281" x="337.0720443725586" y="299"></rect></mask><g transform="translate(50.912025451660156 32.5) rotate(0 34.087974548339844 10)"><text direction="ltr" dominant-baseline="text-before-edge" fill="#000" font-family="Virgil, Segoe UI Emoji" font-size="16px" style="white-space: pre;" text-anchor="middle" x="34.087974548339844" y="0">Producer</text></g><g transform="translate(50.912025451660156 420.5) rotate(0 34.087974548339844 10)"><text direction="ltr" dominant-baseline="text-before-edge" fill="#000" font-family="Virgil, Segoe UI Emoji" font-size="16px" style="white-space: pre;" text-anchor="middle" x="34.087974548339844" y="0">Producer</text></g><g transform="translate(261.52000427246094 32.5) rotate(0 23.479995727539062 10)"><text direction="ltr" dominant-baseline="text-before-edge" fill="#000" font-family="Virgil, Segoe UI Emoji" font-size="16px" style="white-space: pre;" text-anchor="middle" x="23.479995727539062" y="0">Queue</text></g><g transform="translate(261.52000427246094 420.5) rotate(0 23.479995727539062 10)"><text direction="ltr" dominant-baseline="text-before-edge" fill="#000" font-family="Virgil, Segoe UI Emoji" font-size="16px" style="white-space: pre;" text-anchor="middle" x="23.479995727539062" y="0">Queue</text></g><g transform="translate(475.91202545166016 32.5) rotate(0 35.087974548339844 10)"><text direction="ltr" dominant-baseline="text-before-edge" fill="#000" font-family="Virgil, Segoe UI Emoji" font-size="16px" style="white-space: pre;" text-anchor="middle" x="35.087974548339844" y="0">Consumer</text></g><g transform="translate(475.91202545166016 420.5) rotate(0 35.087974548339844 10)"><text direction="ltr" dominant-baseline="text-before-edge" fill="#000" font-family="Virgil, Segoe UI Emoji" font-size="16px" style="white-space: pre;" text-anchor="middle" x="35.087974548339844" y="0">Consumer</text></g><g transform="translate(206.68804168701172 94.5) rotate(0 91.31195831298828 10)"><text direction="ltr" dominant-baseline="text-before-edge" fill="#000" font-family="Virgil, Segoe UI Emoji" font-size="16px" style="white-space: pre;" text-anchor="middle" x="91.31195831298828" y="0">Message Queue System</text></g><g transform="translate(247.48001861572266 191) rotate(0 37.519981384277344 20)"><text direction="ltr" dominant-baseline="text-before-edge" fill="#000" font-family="Virgil, Segoe UI Emoji" font-size="16px" style="white-space: pre;" text-anchor="middle" x="37.519981384277344" y="0">2. Store </text><text direction="ltr" dominant-baseline="text-before-edge" fill="#000" font-family="Virgil, Segoe UI Emoji" font-size="16px" style="white-space: pre;" text-anchor="middle" x="37.519981384277344" y="20">Messages</text></g><g transform="translate(242.00802612304688 344) rotate(0 42.991973876953125 20)"><text direction="ltr" dominant-baseline="text-before-edge" fill="#000" font-family="Virgil, Segoe UI Emoji" font-size="16px" style="white-space: pre;" text-anchor="middle" x="42.991973876953125" y="0">5. Remove </text><text direction="ltr" dominant-baseline="text-before-edge" fill="#000" font-family="Virgil, Segoe UI Emoji" font-size="16px" style="white-space: pre;" text-anchor="middle" x="42.991973876953125" y="20">Message</text></g><g transform="translate(122.20003509521484 156) rotate(0 62.91151338328609 9.672579182065533)"><text direction="ltr" dominant-baseline="text-before-edge" fill="#1e1e1e" font-family="Virgil, Segoe UI Emoji" font-size="16px" style="white-space: pre;" text-anchor="middle" x="62.799964904785156" y="0">1. Send Message</text></g><g transform="translate(315.34405517578125 257) rotate(0 81.75855163186782 10.779026327574115)"><text direction="ltr" dominant-baseline="text-before-edge" fill="#1e1e1e" font-family="Virgil, Segoe UI Emoji" font-size="16px" style="white-space: pre;" text-anchor="middle" x="82.65594482421875" y="0">3. Dispatch Message</text></g><g transform="translate(337.0720443725586 299) rotate(0 61.6732660578657 20.909787010802006)"><text direction="ltr" dominant-baseline="text-before-edge" fill="#1e1e1e" font-family="Virgil, Segoe UI Emoji" font-size="16px" style="white-space: pre;" text-anchor="middle" x="60.927955627441406" y="0">4. Acknowledge </text><text direction="ltr" dominant-baseline="text-before-edge" fill="#1e1e1e" font-family="Virgil, Segoe UI Emoji" font-size="16px" style="white-space: pre;" text-anchor="middle" x="60.927955627441406" y="20">Receipt</text></g></svg>