<svg height="289" version="1.1" viewbox="0 0 1245.7691345214844 289" width="1245.7691345214844" xmlns="http://www.w3.org/2000/svg">
<!-- svg-source:excalidraw -->
<!-- payload-type:application/vnd.excalidraw+json --><!-- payload-version:2 -->
<defs>
<style class="style-fonts">
</style>
</defs>
<rect fill="#ffffff" height="289" width="1245.7691345214844" x="0" y="0"></rect><g stroke-linecap="round" transform="translate(10 32.67578125) rotate(0 83.921875 108.06640625)"><path d="M32 0 C65.77 -2.17, 94.51 1.33, 135.84 0 M32 0 C68.75 0.25, 105.82 -0.88, 135.84 0 M135.84 0 C157.87 -0.66, 167.96 10.09, 167.84 32 M135.84 0 C158.65 1.36, 168.45 8.58, 167.84 32 M167.84 32 C165.84 88.27, 169.23 143.85, 167.84 184.13 M167.84 32 C168.52 81.15, 167.79 131.34, 167.84 184.13 M167.84 184.13 C168.72 207.02, 155.82 216.44, 135.84 216.13 M167.84 184.13 C169.28 206.36, 155.38 214.7, 135.84 216.13 M135.84 216.13 C93.21 215.25, 52.87 215.71, 32 216.13 M135.84 216.13 C107.62 215.57, 79.01 216.37, 32 216.13 M32 216.13 C12.64 216.84, -0.34 203.9, 0 184.13 M32 216.13 C10.78 214.96, 0.79 203.29, 0 184.13 M0 184.13 C0.26 143.8, -2.23 99.28, 0 32 M0 184.13 C-1.24 130.11, 0.07 77.72, 0 32 M0 32 C-1.1 10.33, 11.38 0.68, 32 0 M0 32 C-1.47 12.91, 10.95 1.07, 32 0" fill="none" stroke="#1e1e1e" stroke-width="2"></path></g><g transform="translate(75.0400390625 128.2421875) rotate(0 18.8818359375 12.5)"><text direction="ltr" dominant-baseline="text-before-edge" fill="#1e1e1e" font-family="Virgil, Segoe UI Emoji" font-size="20px" style="white-space: pre;" text-anchor="middle" x="18.8818359375" y="0">User</text></g><g stroke-linecap="round" transform="translate(246.1484375 41.53125) rotate(0 87.310546875 101.091796875)"><path d="M32 0 C55.65 0.24, 78.18 -0.34, 142.62 0 M32 0 C73.72 0.1, 114.79 0.15, 142.62 0 M142.62 0 C165.24 1.18, 175.14 8.85, 174.62 32 M142.62 0 C165.56 -0.38, 173.42 8.65, 174.62 32 M174.62 32 C176.22 73.45, 175.75 116.4, 174.62 170.18 M174.62 32 C175.04 73.3, 173.92 113.2, 174.62 170.18 M174.62 170.18 C175.87 192.3, 162.39 200.94, 142.62 202.18 M174.62 170.18 C176.85 190.27, 165.93 200.56, 142.62 202.18 M142.62 202.18 C118.61 202.73, 95.89 200.9, 32 202.18 M142.62 202.18 C116.96 202.77, 89.16 201.63, 32 202.18 M32 202.18 C10.77 201.17, 0.68 189.63, 0 170.18 M32 202.18 C10.16 204.15, -0.17 193.31, 0 170.18 M0 170.18 C1.67 116.05, 0.02 59.09, 0 32 M0 170.18 C-1.4 136.17, -0.5 102.82, 0 32 M0 32 C-1.28 12.61, 10.91 0.93, 32 0 M0 32 C0.1 8.94, 11.59 -1.58, 32 0" fill="none" stroke="#1e1e1e" stroke-width="2"></path></g><g transform="translate(279.30859375 130.123046875) rotate(0 54.150390625 12.5)"><text direction="ltr" dominant-baseline="text-before-edge" fill="#1e1e1e" font-family="Virgil, Segoe UI Emoji" font-size="20px" style="white-space: pre;" text-anchor="middle" x="54.150390625" y="0">API Gateway</text></g><g stroke-linecap="round" transform="translate(549.6015625 44.3828125) rotate(0 117.64453125000006 97.630859375)"><path d="M32 0 C94.45 1.24, 153.16 0.24, 203.29 0 M32 0 C78.4 1.08, 123.78 -0.42, 203.29 0 M203.29 0 C226.02 -0.33, 234.25 8.91, 235.29 32 M203.29 0 C224.63 1.88, 234.52 11.21, 235.29 32 M235.29 32 C235.15 71.06, 237.12 111.05, 235.29 163.26 M235.29 32 C235.02 81.95, 233.62 130.5, 235.29 163.26 M235.29 163.26 C237.23 183.51, 226.34 193.85, 203.29 195.26 M235.29 163.26 C233.25 183.98, 223.11 194.55, 203.29 195.26 M203.29 195.26 C139.77 192.91, 79.04 196.76, 32 195.26 M203.29 195.26 C145.91 193.41, 88.77 192.98, 32 195.26 M32 195.26 C10.22 196.97, -0.15 186.15, 0 163.26 M32 195.26 C12.9 194.19, -0.36 185.78, 0 163.26 M0 163.26 C-0.69 120.42, 1.47 74.01, 0 32 M0 163.26 C-1.11 127.06, -0.34 89.38, 0 32 M0 32 C0.09 9.16, 11.47 -1.38, 32 0 M0 32 C1.07 10.88, 9.79 0.79, 32 0" fill="none" stroke="#1e1e1e" stroke-width="2"></path></g><g transform="translate(585.888671875 117.013671875) rotate(0 81.35742187499997 25)"><text direction="ltr" dominant-baseline="text-before-edge" fill="#1e1e1e" font-family="Virgil, Segoe UI Emoji" font-size="20px" style="white-space: pre;" text-anchor="middle" x="81.357421875" y="0">Document Metadata</text><text direction="ltr" dominant-baseline="text-before-edge" fill="#1e1e1e" font-family="Virgil, Segoe UI Emoji" font-size="20px" style="white-space: pre;" text-anchor="middle" x="81.357421875" y="25">Service</text></g><g stroke-linecap="round" transform="translate(846.6640625 10) rotate(0 137.23242187499994 134.5)"><path d="M141.75 0.32 C155.82 -1.4, 170.81 4.3, 184.58 9.29 C198.36 14.28, 212.97 21.1, 224.43 30.25 C235.89 39.4, 245.42 51.75, 253.34 64.19 C261.27 76.63, 268.58 90.69, 271.99 104.89 C275.41 119.1, 275.64 134.78, 273.85 149.42 C272.06 164.06, 267.68 179.58, 261.28 192.74 C254.87 205.9, 245.64 218, 235.43 228.38 C225.21 238.75, 213.1 248.56, 199.98 255.01 C186.86 261.46, 171.55 265.05, 156.71 267.07 C141.87 269.08, 125.57 269.92, 110.93 267.1 C96.29 264.28, 81.86 257.36, 68.88 250.13 C55.89 242.89, 42.92 234.41, 33.02 223.69 C23.12 212.98, 15.08 199.64, 9.49 185.84 C3.9 172.03, 0.25 155.67, -0.51 140.88 C-1.26 126.09, 0.83 110.85, 4.95 97.1 C9.08 83.35, 15.71 70.27, 24.23 58.38 C32.76 46.49, 44.17 34.63, 56.1 25.76 C68.03 16.89, 80.34 9.2, 95.82 5.15 C111.3 1.1, 138.91 1.69, 148.99 1.46 C159.08 1.24, 156.7 1.73, 156.34 3.81 M102.36 5.61 C115.36 0.51, 132.46 0.78, 147.57 1.56 C162.68 2.34, 179.38 4.59, 193 10.28 C206.62 15.98, 218.45 25.9, 229.29 35.73 C240.13 45.56, 251.02 56.76, 258.04 69.25 C265.06 81.75, 268.8 96.13, 271.41 110.68 C274.01 125.24, 275.97 142.11, 273.66 156.58 C271.35 171.05, 264.57 184.7, 257.52 197.5 C250.47 210.3, 242.24 223.16, 231.36 233.38 C220.47 243.59, 205.83 252.82, 192.2 258.78 C178.58 264.75, 164.25 268.3, 149.63 269.17 C135.01 270.03, 118.82 267.74, 104.47 263.97 C90.12 260.19, 75.9 254.21, 63.52 246.54 C51.14 238.86, 39.57 229.1, 30.18 217.93 C20.78 206.76, 12.31 193.26, 7.16 179.5 C2 165.74, -0.77 149.99, -0.74 135.37 C-0.7 120.75, 2.5 105.44, 7.35 91.78 C12.21 78.12, 19.33 64.93, 28.4 53.39 C37.48 41.86, 49.24 30.69, 61.8 22.6 C74.36 14.51, 96.8 7.67, 103.77 4.85 C110.75 2.03, 103.17 3.83, 103.65 5.69" fill="none" stroke="#1e1e1e" stroke-width="2"></path></g><g transform="translate(900.0010863935344 119.39413793040933) rotate(0 83.857421875 25)"><text direction="ltr" dominant-baseline="text-before-edge" fill="#1e1e1e" font-family="Virgil, Segoe UI Emoji" font-size="20px" style="white-space: pre;" text-anchor="middle" x="83.857421875" y="0">Document Metadata </text><text direction="ltr" dominant-baseline="text-before-edge" fill="#1e1e1e" font-family="Virgil, Segoe UI Emoji" font-size="20px" style="white-space: pre;" text-anchor="middle" x="83.857421875" y="25">DB</text></g><g stroke-linecap="round"><g transform="translate(178.38671875 132.94921875) rotate(0 30.150390625 -0.6415438895845682)"><path d="M0.77 0.71 C10.86 0.37, 50.55 -2.01, 60.61 -2.37 M-0.28 0.03 C9.67 -0.17, 49.65 -1.36, 59.83 -1.4" fill="none" stroke="#1e1e1e" stroke-width="2"></path></g><g transform="translate(178.38671875 132.94921875) rotate(0 30.150390625 -0.6415438895845682)"><path d="M31.84 9.39 C41.61 6.43, 47.17 4, 59.83 -1.4 M31.84 9.39 C39.84 7.39, 47.44 3.75, 59.83 -1.4" fill="none" stroke="#1e1e1e" stroke-width="2"></path></g><g transform="translate(178.38671875 132.94921875) rotate(0 30.150390625 -0.6415438895845682)"><path d="M31.45 -11.13 C41.28 -7.82, 46.96 -3.97, 59.83 -1.4 M31.45 -11.13 C39.45 -7.31, 47.16 -5.13, 59.83 -1.4" fill="none" stroke="#1e1e1e" stroke-width="2"></path></g></g><mask></mask><g stroke-linecap="round"><g transform="translate(425.6328125 146.81187055264445) rotate(0 58.87109375 -2.7621410970089073)"><path d="M0.31 -1.09 C19.95 -2.16, 99.11 -4.81, 118.58 -5.72 M-0.98 0.96 C18.5 0.01, 98.57 -3.16, 118.07 -4.29" fill="none" stroke="#1e1e1e" stroke-width="2"></path></g><g transform="translate(425.6328125 146.81187055264445) rotate(0 58.87109375 -2.7621410970089073)"><path d="M90.4 7.3 C98.59 4.4, 110.16 -2.25, 118.07 -4.29 M90.4 7.3 C95.93 4.85, 102.12 2.16, 118.07 -4.29" fill="none" stroke="#1e1e1e" stroke-width="2"></path></g><g transform="translate(425.6328125 146.81187055264445) rotate(0 58.87109375 -2.7621410970089073)"><path d="M89.43 -13.2 C98.1 -8.63, 110.02 -7.83, 118.07 -4.29 M89.43 -13.2 C95.17 -11.31, 101.56 -9.65, 118.07 -4.29" fill="none" stroke="#1e1e1e" stroke-width="2"></path></g></g><mask></mask><g transform="translate(432.4765625 94.89453125) rotate(0 47.73597717285156 10)"><text direction="ltr" dominant-baseline="text-before-edge" fill="#1e1e1e" font-family="Virgil, Segoe UI Emoji" font-size="16px" style="white-space: pre;" text-anchor="start" x="0" y="0">POST /docs</text></g><g stroke-linecap="round"><g transform="translate(790.2265625 126.2890625) rotate(0 23.2421875 0.875)"><path d="M-0.29 -0.48 C7.4 -0.1, 38.72 1.81, 46.49 2.2 M0.57 0.46 C8.15 0.7, 38.51 1.12, 46.06 1.46" fill="none" stroke="#1e1e1e" stroke-width="2"></path></g><g transform="translate(790.2265625 126.2890625) rotate(0 23.2421875 0.875)"><path d="M23.99 8.81 C31.28 6.15, 41.13 3.1, 46.06 1.46 M23.99 8.81 C31.48 6.4, 38.26 4.52, 46.06 1.46" fill="none" stroke="#1e1e1e" stroke-width="2"></path></g><g transform="translate(790.2265625 126.2890625) rotate(0 23.2421875 0.875)"><path d="M24.43 -7.09 C31.54 -3.87, 41.23 -1.04, 46.06 1.46 M24.43 -7.09 C31.78 -4.36, 38.41 -1.1, 46.06 1.46" fill="none" stroke="#1e1e1e" stroke-width="2"></path></g></g><mask></mask><g transform="translate(1143.44921875 96.13671875) rotate(0 46.15995788574219 37.5)"><text direction="ltr" dominant-baseline="text-before-edge" fill="#1e1e1e" font-family="Virgil, Segoe UI Emoji" font-size="20px" style="white-space: pre;" text-anchor="start" x="0" y="0">Document</text><text direction="ltr" dominant-baseline="text-before-edge" fill="#1e1e1e" font-family="Virgil, Segoe UI Emoji" font-size="20px" style="white-space: pre;" text-anchor="start" x="0" y="25">  id</text><text direction="ltr" dominant-baseline="text-before-edge" fill="#1e1e1e" font-family="Virgil, Segoe UI Emoji" font-size="20px" style="white-space: pre;" text-anchor="start" x="0" y="50">  title</text></g></svg>