<svg height="876.8177515150019" version="1.1" viewbox="0 0 1391.7768858626396 876.8177515150019" width="1391.7768858626396" xmlns="http://www.w3.org/2000/svg">
<!-- svg-source:excalidraw -->
<!-- payload-type:application/vnd.excalidraw+json --><!-- payload-version:2 -->
<defs>
<style class="style-fonts">
</style>
</defs>
<rect fill="#ffffff" height="876.8177515150019" width="1391.7768858626396" x="0" y="0"></rect><g stroke-linecap="round" transform="translate(46.112518310546875 151.203125) rotate(0 83.921875 108.06640625)"><path d="M32 0 C57.73 0.06, 86.4 1.05, 135.84 0 M32 0 C61.45 -0.73, 90.74 0.14, 135.84 0 M135.84 0 C157.85 -1.65, 168.25 9.3, 167.84 32 M135.84 0 C154.89 -1.94, 166.14 9.7, 167.84 32 M167.84 32 C167.77 75.61, 168.63 119.44, 167.84 184.13 M167.84 32 C170.03 91.99, 169.77 151.93, 167.84 184.13 M167.84 184.13 C166.56 205.65, 157.29 217.75, 135.84 216.13 M167.84 184.13 C167.3 206.66, 154.91 214.94, 135.84 216.13 M135.84 216.13 C102.69 213.56, 70.23 216.96, 32 216.13 M135.84 216.13 C113.25 215.85, 89.41 216.01, 32 216.13 M32 216.13 C12.51 214.97, 1 204.76, 0 184.13 M32 216.13 C8.64 216.11, 1.13 204.14, 0 184.13 M0 184.13 C-0.36 126.22, -0.08 71.77, 0 32 M0 184.13 C0.21 123.83, 0.19 64.27, 0 32 M0 32 C0.64 10.49, 8.71 -0.7, 32 0 M0 32 C1.11 11.21, 10.07 -0.65, 32 0" fill="none" stroke="#1e1e1e" stroke-width="2"></path></g><g transform="translate(107.69441223144531 246.76953125) rotate(0 22.339981079101562 12.5)"><text direction="ltr" dominant-baseline="text-before-edge" fill="#1e1e1e" font-family="Virgil, Segoe UI Emoji" font-size="20px" style="white-space: pre;" text-anchor="middle" x="22.339981079101562" y="0">User</text></g><g stroke-linecap="round" transform="translate(282.2609558105469 160.05859375) rotate(0 87.310546875 101.091796875)"><path d="M32 0 C59.77 -1.96, 88.93 0.04, 142.62 0 M32 0 C61.5 -1.38, 90.53 -1.25, 142.62 0 M142.62 0 C161.97 -1.69, 173.14 9.83, 174.62 32 M142.62 0 C163.74 -1.79, 176.27 11.94, 174.62 32 M174.62 32 C177.88 71.06, 173.99 108.46, 174.62 170.18 M174.62 32 C174.84 72.47, 175.54 113.57, 174.62 170.18 M174.62 170.18 C174.15 192.55, 161.98 201.14, 142.62 202.18 M174.62 170.18 C175.14 190.89, 161.96 202.59, 142.62 202.18 M142.62 202.18 C117.13 203.73, 94.44 204.03, 32 202.18 M142.62 202.18 C111.58 201.65, 79.2 201.88, 32 202.18 M32 202.18 C8.91 202.16, 0.98 190.37, 0 170.18 M32 202.18 C12.23 201.58, 1.19 190.65, 0 170.18 M0 170.18 C2.19 142.98, -1.48 115.83, 0 32 M0 170.18 C-0.75 135.62, -2.05 100.88, 0 32 M0 32 C0.97 11.14, 10.15 -0.56, 32 0 M0 32 C-0.78 12.9, 11.46 1.86, 32 0" fill="none" stroke="#1e1e1e" stroke-width="2"></path></g><g transform="translate(302.82154083251953 248.650390625) rotate(0 66.74996185302734 12.5)"><text direction="ltr" dominant-baseline="text-before-edge" fill="#1e1e1e" font-family="Virgil, Segoe UI Emoji" font-size="20px" style="white-space: pre;" text-anchor="middle" x="66.74996185302734" y="0">API Gateway</text></g><g stroke-linecap="round" transform="translate(585.714080810547 162.91015625) rotate(0 117.64453125000006 97.630859375)"><path d="M32 0 C66.21 -0.24, 102.88 0.61, 203.29 0 M32 0 C68.3 0.33, 105.85 0.75, 203.29 0 M203.29 0 C224.43 -1.56, 236.72 11.78, 235.29 32 M203.29 0 C223.94 2.27, 234.17 12.85, 235.29 32 M235.29 32 C233.83 83.86, 233.56 131.95, 235.29 163.26 M235.29 32 C235.13 73.08, 234.38 112.6, 235.29 163.26 M235.29 163.26 C235.74 184.05, 222.89 195.61, 203.29 195.26 M235.29 163.26 C233.36 186.19, 226.61 193.46, 203.29 195.26 M203.29 195.26 C146.62 195.3, 90.49 197.87, 32 195.26 M203.29 195.26 C161 194.64, 120.96 194.08, 32 195.26 M32 195.26 C12.02 194.74, 1.04 183.84, 0 163.26 M32 195.26 C8.42 194.71, -0.5 186.74, 0 163.26 M0 163.26 C0.18 120.43, 0.67 75.14, 0 32 M0 163.26 C1.77 125.25, 1.03 86.49, 0 32 M0 32 C-0.68 12.61, 11.36 1.62, 32 0 M0 32 C-1.05 10.84, 10.77 1.68, 32 0" fill="none" stroke="#1e1e1e" stroke-width="2"></path></g><g transform="translate(602.0686874389651 235.541015625) rotate(0 101.28992462158206 25)"><text direction="ltr" dominant-baseline="text-before-edge" fill="#1e1e1e" font-family="Virgil, Segoe UI Emoji" font-size="20px" style="white-space: pre;" text-anchor="middle" x="101.28992462158203" y="0">Document Metadata</text><text direction="ltr" dominant-baseline="text-before-edge" fill="#1e1e1e" font-family="Virgil, Segoe UI Emoji" font-size="20px" style="white-space: pre;" text-anchor="middle" x="101.28992462158203" y="25">Service</text></g><g stroke-linecap="round" transform="translate(882.776580810547 128.52734375) rotate(0 137.23242187499994 134.5)"><path d="M150.37 -0.04 C164.67 -0.59, 180.87 5.96, 194.36 12.3 C207.86 18.65, 220.44 28.01, 231.34 38.05 C242.23 48.08, 252.61 59.76, 259.72 72.49 C266.83 85.22, 271.76 99.86, 273.99 114.45 C276.22 129.04, 276.14 145.52, 273.08 160.06 C270.02 174.6, 263.13 189.05, 255.64 201.68 C248.15 214.31, 239.12 226.43, 228.13 235.82 C217.14 245.22, 203.39 252.56, 189.7 258.05 C176.02 263.55, 160.66 267.8, 146 268.79 C131.35 269.78, 116.04 268.01, 101.78 263.99 C87.53 259.96, 72.98 252.79, 60.48 244.67 C47.98 236.55, 35.83 226.91, 26.8 215.27 C17.78 203.63, 10.76 188.87, 6.33 174.83 C1.89 160.8, -0.25 145.32, 0.2 131.06 C0.65 116.79, 4.08 102.72, 9.02 89.24 C13.95 75.75, 20.6 61.53, 29.81 50.14 C39.01 38.76, 51.55 28.78, 64.25 20.94 C76.95 13.11, 90.91 6.29, 106.02 3.14 C121.13 -0.01, 146.33 1.76, 154.91 2.04 C163.49 2.31, 157.86 2.86, 157.5 4.78 M137.47 -0.39 C151.57 -2.54, 168.17 1.82, 181.83 6.47 C195.49 11.13, 207.85 18.33, 219.44 27.53 C231.03 36.73, 242.83 49.71, 251.36 61.69 C259.9 73.66, 266.66 85.65, 270.64 99.38 C274.62 113.11, 276.28 129.41, 275.24 144.08 C274.2 158.76, 270.39 173.97, 264.38 187.44 C258.38 200.91, 249.65 214.15, 239.21 224.9 C228.78 235.64, 214.75 244.81, 201.77 251.89 C188.79 258.98, 175.78 264.9, 161.32 267.39 C146.86 269.89, 129.9 269, 115.03 266.87 C100.16 264.74, 85.05 261.19, 72.1 254.61 C59.15 248.03, 47.47 238.25, 37.32 227.37 C27.17 216.5, 17.31 202.66, 11.19 189.34 C5.07 176.03, 1.77 162, 0.61 147.47 C-0.56 132.94, 0.41 116.67, 4.17 102.16 C7.94 87.66, 15 72.55, 23.19 60.44 C31.38 48.34, 41.7 38.61, 53.29 29.56 C64.89 20.51, 78.73 11.07, 92.77 6.13 C106.81 1.2, 130.31 0.31, 137.53 -0.05 C144.76 -0.41, 136.48 1.69, 136.12 3.98" fill="none" stroke="#1e1e1e" stroke-width="2"></path></g><g transform="translate(949.7710677778118 237.92148168040936) rotate(0 70.19995880126953 25)"><text direction="ltr" dominant-baseline="text-before-edge" fill="#1e1e1e" font-family="Virgil, Segoe UI Emoji" font-size="20px" style="white-space: pre;" text-anchor="middle" x="70.19995880126953" y="0">Document </text><text direction="ltr" dominant-baseline="text-before-edge" fill="#1e1e1e" font-family="Virgil, Segoe UI Emoji" font-size="20px" style="white-space: pre;" text-anchor="middle" x="70.19995880126953" y="25">Metadata DB</text></g><g stroke-linecap="round"><g transform="translate(214.95626831054688 251.46683773028053) rotate(0 29.921875 -0.6366815047248338)"><path d="M-1.19 -1.01 C8.59 -1.17, 48.8 -1.58, 58.95 -1.78 M0.38 1.07 C10.52 1.14, 51.45 -0.1, 61.2 -0.51" fill="none" stroke="#1e1e1e" stroke-width="2"></path></g><g transform="translate(214.95626831054688 251.46683773028053) rotate(0 29.921875 -0.6366815047248338)"><path d="M33.44 10.69 C40.72 5.9, 50.47 3.6, 61.2 -0.51 M33.44 10.69 C39.23 9.03, 45.21 6.51, 61.2 -0.51" fill="none" stroke="#1e1e1e" stroke-width="2"></path></g><g transform="translate(214.95626831054688 251.46683773028053) rotate(0 29.921875 -0.6366815047248338)"><path d="M32.74 -9.77 C40.11 -8, 50.07 -3.74, 61.2 -0.51 M32.74 -9.77 C38.83 -6.88, 44.97 -4.86, 61.2 -0.51" fill="none" stroke="#1e1e1e" stroke-width="2"></path></g></g><mask></mask><g stroke-linecap="round"><g transform="translate(461.745330810547 265.3392143026449) rotate(0 58.87109375 -2.7621410970089073)"><path d="M-0.89 -0.5 C18.91 -1.41, 97.71 -5.73, 117.63 -6.46 M0.85 -1.82 C20.59 -2.51, 97.05 -4.57, 116.62 -5.41" fill="none" stroke="#1e1e1e" stroke-width="2"></path></g><g transform="translate(461.745330810547 265.3392143026449) rotate(0 58.87109375 -2.7621410970089073)"><path d="M88.8 5.8 C93.63 3.57, 98.5 2.94, 116.62 -5.41 M88.8 5.8 C98.23 2.49, 109.47 -3.44, 116.62 -5.41" fill="none" stroke="#1e1e1e" stroke-width="2"></path></g><g transform="translate(461.745330810547 265.3392143026449) rotate(0 58.87109375 -2.7621410970089073)"><path d="M88.1 -14.71 C92.9 -12.82, 97.91 -9.33, 116.62 -5.41 M88.1 -14.71 C97.72 -10.74, 109.2 -9.38, 116.62 -5.41" fill="none" stroke="#1e1e1e" stroke-width="2"></path></g></g><mask></mask><g transform="translate(468.589080810547 213.421875) rotate(0 47.73597717285156 10)"><text direction="ltr" dominant-baseline="text-before-edge" fill="#1e1e1e" font-family="Virgil, Segoe UI Emoji" font-size="16px" style="white-space: pre;" text-anchor="start" x="0" y="0">POST /docs</text></g><g stroke-linecap="round"><g transform="translate(826.339080810547 244.81640625) rotate(0 23.2421875 0.875)"><path d="M0.39 0.31 C8.12 0.76, 38.68 1.96, 46.32 2.29 M-0.07 -0.01 C7.58 0.34, 38.17 1.36, 45.81 1.6" fill="none" stroke="#1e1e1e" stroke-width="2"></path></g><g transform="translate(826.339080810547 244.81640625) rotate(0 23.2421875 0.875)"><path d="M23.7 8.83 C30.7 6.35, 37.56 4.07, 45.81 1.6 M23.7 8.83 C32.84 6.05, 41.44 3.13, 45.81 1.6" fill="none" stroke="#1e1e1e" stroke-width="2"></path></g><g transform="translate(826.339080810547 244.81640625) rotate(0 23.2421875 0.875)"><path d="M24.23 -7.07 C31.02 -4.92, 37.72 -2.59, 45.81 1.6 M24.23 -7.07 C33.23 -3.58, 41.62 -0.22, 45.81 1.6" fill="none" stroke="#1e1e1e" stroke-width="2"></path></g></g><mask></mask><g transform="translate(1179.5617370605469 214.6640625) rotate(0 97.95991516113276 50)"><text direction="ltr" dominant-baseline="text-before-edge" fill="#1e1e1e" font-family="Virgil, Segoe UI Emoji" font-size="20px" style="white-space: pre;" text-anchor="start" x="0" y="0">Document</text><text direction="ltr" dominant-baseline="text-before-edge" fill="#1e1e1e" font-family="Virgil, Segoe UI Emoji" font-size="20px" style="white-space: pre;" text-anchor="start" x="0" y="25">  id</text><text direction="ltr" dominant-baseline="text-before-edge" fill="#1e1e1e" font-family="Virgil, Segoe UI Emoji" font-size="20px" style="white-space: pre;" text-anchor="start" x="0" y="50">  title</text><text direction="ltr" dominant-baseline="text-before-edge" fill="#1e1e1e" font-family="Virgil, Segoe UI Emoji" font-size="20px" style="white-space: pre;" text-anchor="start" x="0" y="75">  documentVersionId</text></g><g stroke-linecap="round" transform="translate(552.018768310547 494.2265625) rotate(0 128.2890625 85.94921875)"><path d="M32 0 C85.94 2.65, 134.09 2.71, 224.58 0 M32 0 C87.64 0.5, 144.62 1.21, 224.58 0 M224.58 0 C245.44 1.04, 254.6 9.63, 256.58 32 M224.58 0 C246.43 -0.62, 254.58 11.07, 256.58 32 M256.58 32 C255.76 55.93, 257 79.58, 256.58 139.9 M256.58 32 C257.11 62.59, 256.68 93.99, 256.58 139.9 M256.58 139.9 C254.82 161.21, 246.89 170.75, 224.58 171.9 M256.58 139.9 C258.14 160.63, 247.11 171.03, 224.58 171.9 M224.58 171.9 C187.47 172.25, 144.83 173.06, 32 171.9 M224.58 171.9 C176.85 171.31, 127.5 171.05, 32 171.9 M32 171.9 C11.64 172.37, -0.52 160.67, 0 139.9 M32 171.9 C9.89 174.14, 0.8 163.1, 0 139.9 M0 139.9 C1.38 112.68, -0.17 86.72, 0 32 M0 139.9 C-0.14 114.76, 0.03 91.45, 0 32 M0 32 C-0.46 12.39, 9.11 0.37, 32 0 M0 32 C2.05 11.25, 9.07 -1.49, 32 0" fill="none" stroke="#1e1e1e" stroke-width="2"></path></g><g transform="translate(595.387908935547 567.67578125) rotate(0 84.919921875 12.5)"><text direction="ltr" dominant-baseline="text-before-edge" fill="#1e1e1e" font-family="Virgil, Segoe UI Emoji" font-size="20px" style="white-space: pre;" text-anchor="middle" x="84.919921875" y="0">Document Service</text></g><g stroke-linecap="round"><g transform="translate(452.378143310547 357.73828125) rotate(0 62.515924629730534 65.05859375)"><path d="M1.06 -0.09 C21.85 21.75, 105.25 108.14, 125.78 129.86 M0.16 -1.19 C20.77 20.94, 104.13 109.14, 125.22 131.27" fill="none" stroke="#1e1e1e" stroke-width="2"></path></g><g transform="translate(452.378143310547 357.73828125) rotate(0 62.515924629730534 65.05859375)"><path d="M27.99 13.13 C17.58 9.51, 6.93 1.89, 1.06 -0.09 M27.99 13.13 C19.43 9.78, 10.35 4.65, 1.06 -0.09" fill="none" stroke="#1e1e1e" stroke-width="2"></path></g><g transform="translate(452.378143310547 357.73828125) rotate(0 62.515924629730534 65.05859375)"><path d="M13.19 27.34 C8.63 18.12, 3.69 5.01, 1.06 -0.09 M13.19 27.34 C9.19 19.48, 4.69 9.97, 1.06 -0.09" fill="none" stroke="#1e1e1e" stroke-width="2"></path></g><g transform="translate(452.378143310547 357.73828125) rotate(0 62.515924629730534 65.05859375)"><path d="M98.38 117.87 C108.44 124.05, 118.53 126.69, 125.22 131.27 M98.38 117.87 C106.45 122.32, 113.99 125.42, 125.22 131.27" fill="none" stroke="#1e1e1e" stroke-width="2"></path></g><g transform="translate(452.378143310547 357.73828125) rotate(0 62.515924629730534 65.05859375)"><path d="M113.27 103.75 C117.45 115.5, 121.79 123.59, 125.22 131.27 M113.27 103.75 C116.75 112.68, 119.69 120.14, 125.22 131.27" fill="none" stroke="#1e1e1e" stroke-width="2"></path></g></g><mask></mask><g transform="translate(370.7375183105469 416.6015625) rotate(0 49.989952087402344 12.5)"><text direction="ltr" dominant-baseline="text-before-edge" fill="#1e1e1e" font-family="Virgil, Segoe UI Emoji" font-size="20px" style="white-space: pre;" text-anchor="start" x="0" y="0">Websocket</text></g><g stroke-linecap="round" transform="translate(927.655487060547 460.87109375) rotate(0 114.958984375 106.5625)"><path d="M118.84 -0.94 C131.81 -2.16, 146.46 3.59, 159.08 8.59 C171.71 13.59, 184.51 20.33, 194.58 29.08 C204.65 37.82, 213.53 49.1, 219.49 61.03 C225.46 72.97, 229.67 87.7, 230.38 100.7 C231.1 113.69, 228.1 126.84, 223.78 139 C219.46 151.17, 213.02 163.78, 204.47 173.68 C195.92 183.58, 184.43 191.89, 172.48 198.4 C160.54 204.91, 146.57 210.63, 132.82 212.76 C119.06 214.89, 103.55 214.22, 89.96 211.19 C76.37 208.17, 62.71 201.68, 51.26 194.61 C39.8 187.53, 29.28 178.96, 21.22 168.76 C13.17 158.56, 6.38 145.83, 2.94 133.4 C-0.5 120.96, -1.12 107.17, 0.59 94.15 C2.3 81.14, 6.68 66.76, 13.22 55.32 C19.75 43.88, 29.07 33.67, 39.79 25.53 C50.5 17.39, 63.43 10.55, 77.51 6.49 C91.59 2.44, 115.32 1.61, 124.25 1.21 C133.18 0.8, 131.17 2.36, 131.11 4.05 M110.72 0.46 C123.96 -1.71, 138.53 0.91, 151.43 5.21 C164.34 9.5, 177.39 17.75, 188.16 26.24 C198.93 34.74, 209.41 45.2, 216.08 56.21 C222.75 67.21, 226.38 79.58, 228.18 92.27 C229.97 104.97, 229.92 119.92, 226.85 132.37 C223.79 144.82, 217.43 156.79, 209.77 166.99 C202.11 177.18, 192.22 186.17, 180.91 193.52 C169.6 200.87, 155.46 208.24, 141.91 211.09 C128.35 213.95, 113.25 212.59, 99.57 210.65 C85.88 208.71, 72.07 205.28, 59.8 199.45 C47.53 193.62, 35.14 185.52, 25.95 175.68 C16.76 165.84, 8.76 152.73, 4.68 140.4 C0.6 128.07, 0.77 114.72, 1.47 101.7 C2.18 88.68, 3.71 73.83, 8.9 62.25 C14.08 50.67, 22.72 41.31, 32.58 32.21 C42.43 23.12, 55.26 13.26, 68.02 7.68 C80.78 2.1, 102 -0.29, 109.12 -1.27 C116.24 -2.25, 110.59 -0.09, 110.72 1.8" fill="none" stroke="#1e1e1e" stroke-width="2"></path></g><g transform="translate(990.7162468210763 530.0825273798085) rotate(0 52.109947204589844 37.5)"><text direction="ltr" dominant-baseline="text-before-edge" fill="#1e1e1e" font-family="Virgil, Segoe UI Emoji" font-size="20px" style="white-space: pre;" text-anchor="middle" x="52.109947204589844" y="0">Document </text><text direction="ltr" dominant-baseline="text-before-edge" fill="#1e1e1e" font-family="Virgil, Segoe UI Emoji" font-size="20px" style="white-space: pre;" text-anchor="middle" x="52.109947204589844" y="25">Operations</text><text direction="ltr" dominant-baseline="text-before-edge" fill="#1e1e1e" font-family="Virgil, Segoe UI Emoji" font-size="20px" style="white-space: pre;" text-anchor="middle" x="52.109947204589844" y="50">DB</text></g><g stroke-linecap="round"><g transform="translate(819.651580810547 547.2708021698872) rotate(0 52.173828125 -1.3912604599437373)"><path d="M-0.28 0.62 C16.9 -0.11, 85.68 -2.79, 103.16 -3.41 M1.77 -0.1 C19.3 -0.76, 88.21 -1.89, 105.25 -2.2" fill="none" stroke="#1e1e1e" stroke-width="2"></path></g><g transform="translate(819.651580810547 547.2708021698872) rotate(0 52.173828125 -1.3912604599437373)"><path d="M77.25 8.56 C86.76 3.36, 93.25 2.5, 105.25 -2.2 M77.25 8.56 C84.14 6.27, 93.49 1.86, 105.25 -2.2" fill="none" stroke="#1e1e1e" stroke-width="2"></path></g><g transform="translate(819.651580810547 547.2708021698872) rotate(0 52.173828125 -1.3912604599437373)"><path d="M76.89 -11.96 C86.68 -10.88, 93.28 -5.47, 105.25 -2.2 M76.89 -11.96 C83.7 -8.65, 93.14 -7.46, 105.25 -2.2" fill="none" stroke="#1e1e1e" stroke-width="2"></path></g></g><mask></mask><g stroke-linecap="round"><g transform="translate(148.3273620605471 374.098469607231) rotate(0 198.88266259317987 98.97437362922369)"><path d="M-1.19 -0.62 C18.11 22.42, 49.19 105.78, 115.51 138.91 C181.82 172.04, 349.85 188.18, 396.72 198.16" fill="none" stroke="#1e1e1e" stroke-dasharray="8 10" stroke-width="2.5"></path></g><g transform="translate(148.3273620605471 374.098469607231) rotate(0 198.88266259317987 98.97437362922369)"><path d="M22.96 17.18 C15.15 12.47, 8.97 5.36, -1.19 -0.62" fill="none" stroke="#1e1e1e" stroke-width="2.5"></path></g><g transform="translate(148.3273620605471 374.098469607231) rotate(0 198.88266259317987 98.97437362922369)"><path d="M5.87 28.53 C2.73 20.85, 1.28 10.6, -1.19 -0.62" fill="none" stroke="#1e1e1e" stroke-width="2.5"></path></g><g transform="translate(148.3273620605471 374.098469607231) rotate(0 198.88266259317987 98.97437362922369)"><path d="M367.27 203.87 C374.35 203.03, 382.99 199.27, 396.72 198.16" fill="none" stroke="#1e1e1e" stroke-width="2.5"></path></g><g transform="translate(148.3273620605471 374.098469607231) rotate(0 198.88266259317987 98.97437362922369)"><path d="M370.49 183.6 C376.78 188.34, 384.53 190.18, 396.72 198.16" fill="none" stroke="#1e1e1e" stroke-width="2.5"></path></g></g><mask></mask><g transform="translate(59.693598180727804 509.90910447163196) rotate(0 108.58990478515625 25)"><text direction="ltr" dominant-baseline="text-before-edge" fill="#1e1e1e" font-family="Virgil, Segoe UI Emoji" font-size="20px" style="white-space: pre;" text-anchor="middle" x="108.58990478515625" y="0">Write/Receive</text><text direction="ltr" dominant-baseline="text-before-edge" fill="#1e1e1e" font-family="Virgil, Segoe UI Emoji" font-size="20px" style="white-space: pre;" text-anchor="middle" x="108.58990478515625" y="25">Edits, Cursor Changes</text></g><g stroke-linecap="round"><g transform="translate(656.2827274813473 675.69921875) rotate(0 35.84644563870097 32.92556599300451)"><path d="M-1.04 0.21 C4.35 12.29, 20.34 73.28, 32.63 72.17 C44.93 71.06, 66.16 6.55, 72.73 -6.43 M0.61 -0.73 C6.35 11.05, 22.83 71.3, 34.82 70.48 C46.8 69.67, 66.23 6.93, 72.51 -5.6" fill="none" stroke="#1e1e1e" stroke-width="2"></path></g><g transform="translate(656.2827274813473 675.69921875) rotate(0 35.84644563870097 32.92556599300451)"><path d="M71.66 24.39 C72.36 13.05, 73.67 6.77, 72.51 -5.6 M71.66 24.39 C72.2 17.63, 71.58 11.13, 72.51 -5.6" fill="none" stroke="#1e1e1e" stroke-width="2"></path></g><g transform="translate(656.2827274813473 675.69921875) rotate(0 35.84644563870097 32.92556599300451)"><path d="M52.58 16.82 C59.42 8.09, 66.88 4.26, 72.51 -5.6 M52.58 16.82 C57.38 11.77, 60.99 6.95, 72.51 -5.6" fill="none" stroke="#1e1e1e" stroke-width="2"></path></g></g><mask></mask><g transform="translate(614.632049560547 762.7265625) rotate(0 72.75993347167969 12.5)"><text direction="ltr" dominant-baseline="text-before-edge" fill="#1e1e1e" font-family="Virgil, Segoe UI Emoji" font-size="20px" style="white-space: pre;" text-anchor="start" x="0" y="0">Transform Ops</text></g><g transform="translate(814.557830810547 496.53125) rotate(0 55.01994323730469 12.5)"><text direction="ltr" dominant-baseline="text-before-edge" fill="#1e1e1e" font-family="Virgil, Segoe UI Emoji" font-size="20px" style="white-space: pre;" text-anchor="start" x="0" y="0">Applied Ops</text></g><g stroke-linecap="round"><g transform="translate(943.092987060547 630.3359375) rotate(0 -63.373046875 -1.091796875)"><path d="M0.35 -0.19 C-20.85 -0.42, -104.95 -1.99, -126.21 -2.32 M-0.92 -1.34 C-22.33 -1.3, -105.67 -0.94, -126.88 -0.85" fill="none" stroke="#1e1e1e" stroke-width="2"></path></g><g transform="translate(943.092987060547 630.3359375) rotate(0 -63.373046875 -1.091796875)"><path d="M-98.73 -11.23 C-110.01 -6.24, -120.78 -3.85, -126.88 -0.85 M-98.73 -11.23 C-106.71 -8.59, -116.66 -5.08, -126.88 -0.85" fill="none" stroke="#1e1e1e" stroke-width="2"></path></g><g transform="translate(943.092987060547 630.3359375) rotate(0 -63.373046875 -1.091796875)"><path d="M-98.64 9.29 C-109.79 6.35, -120.6 0.81, -126.88 -0.85 M-98.64 9.29 C-106.83 5.68, -116.81 2.94, -126.88 -0.85" fill="none" stroke="#1e1e1e" stroke-width="2"></path></g></g><mask></mask><g transform="translate(803.7227020263673 656.0625) rotate(0 79.00993347167969 25)"><text direction="ltr" dominant-baseline="text-before-edge" fill="#1e1e1e" font-family="Virgil, Segoe UI Emoji" font-size="20px" style="white-space: pre;" text-anchor="middle" x="79.00993347167969" y="0">On Initialization</text><text direction="ltr" dominant-baseline="text-before-edge" fill="#1e1e1e" font-family="Virgil, Segoe UI Emoji" font-size="20px" style="white-space: pre;" text-anchor="middle" x="79.00993347167969" y="25">Read all Ops</text></g><g stroke-linecap="round"><g transform="translate(698.331268310547 488.06640625) rotate(0 -116.486328125 -85.177734375)"><path d="M-0.44 0.05 C-6.72 -14.47, 1.5 -58.8, -37.16 -87.27 C-75.81 -115.74, -199.56 -156.93, -232.37 -170.78" fill="none" stroke="#1e1e1e" stroke-dasharray="8 10" stroke-width="2.5"></path></g><g transform="translate(698.331268310547 488.06640625) rotate(0 -116.486328125 -85.177734375)"><path d="M-202.38 -170.35 C-212.63 -168.77, -224.22 -169.76, -232.37 -170.78" fill="none" stroke="#1e1e1e" stroke-width="2.5"></path></g><g transform="translate(698.331268310547 488.06640625) rotate(0 -116.486328125 -85.177734375)"><path d="M-209.67 -151.17 C-217.39 -156.17, -226.46 -163.77, -232.37 -170.78" fill="none" stroke="#1e1e1e" stroke-width="2.5"></path></g></g><mask></mask><g transform="translate(680.197364807129 393.0859375) rotate(0 81.23993682861328 25)"><text direction="ltr" dominant-baseline="text-before-edge" fill="#1e1e1e" font-family="Virgil, Segoe UI Emoji" font-size="20px" style="white-space: pre;" text-anchor="middle" x="81.23993682861328" y="0">Send all Applied </text><text direction="ltr" dominant-baseline="text-before-edge" fill="#1e1e1e" font-family="Virgil, Segoe UI Emoji" font-size="20px" style="white-space: pre;" text-anchor="middle" x="81.23993682861328" y="25">Ops on Connect</text></g><g stroke-linecap="round"><g transform="translate(116.58517456054688 145.33984375) rotate(0 24.068359375 -39.26171875)"><path d="M0.6 -0.43 C2.48 -13.4, 4.4 -77.68, 12.42 -78.54 C20.44 -79.39, 42.64 -17.78, 48.73 -5.55 M-0.55 -1.69 C1.6 -14.4, 6.44 -76.52, 14.58 -77.01 C22.71 -77.49, 42.43 -16.73, 48.27 -4.6" fill="none" stroke="#1e1e1e" stroke-width="2"></path></g><g transform="translate(116.58517456054688 145.33984375) rotate(0 24.068359375 -39.26171875)"><path d="M-6.92 -29.47 C-4.85 -19.88, -1.22 -5.75, 0.6 -0.43 M-6.92 -29.47 C-4.38 -22.79, -4.05 -15.61, 0.6 -0.43" fill="none" stroke="#1e1e1e" stroke-width="2"></path></g><g transform="translate(116.58517456054688 145.33984375) rotate(0 24.068359375 -39.26171875)"><path d="M13.51 -27.51 C7.58 -18.58, 3.21 -5.22, 0.6 -0.43 M13.51 -27.51 C11.08 -21.35, 6.46 -14.65, 0.6 -0.43" fill="none" stroke="#1e1e1e" stroke-width="2"></path></g><g transform="translate(116.58517456054688 145.33984375) rotate(0 24.068359375 -39.26171875)"><path d="M28.38 -27.06 C35.34 -20.11, 43.82 -8.56, 48.27 -4.6 M28.38 -27.06 C33.87 -21.94, 37.2 -16.35, 48.27 -4.6" fill="none" stroke="#1e1e1e" stroke-width="2"></path></g><g transform="translate(116.58517456054688 145.33984375) rotate(0 24.068359375 -39.26171875)"><path d="M47.47 -34.59 C46.9 -24.59, 47.9 -10.09, 48.27 -4.6 M47.47 -34.59 C48.39 -27.69, 47.08 -20.28, 48.27 -4.6" fill="none" stroke="#1e1e1e" stroke-width="2"></path></g></g><mask></mask><g transform="translate(10 10) rotate(0 101.45991516113281 25)"><text direction="ltr" dominant-baseline="text-before-edge" fill="#1e1e1e" font-family="Virgil, Segoe UI Emoji" font-size="20px" style="white-space: pre;" text-anchor="middle" x="101.45991516113281" y="0">Transform Received </text><text direction="ltr" dominant-baseline="text-before-edge" fill="#1e1e1e" font-family="Virgil, Segoe UI Emoji" font-size="20px" style="white-space: pre;" text-anchor="middle" x="101.45991516113281" y="25">Ops</text></g><g stroke-linecap="round" transform="translate(270.5933103584872 727.8757861358799) rotate(0 88.76647881088672 69.47098268956097)"><path d="M117.93 2.98 C129.17 4.84, 140.61 12.11, 149.56 18.81 C158.52 25.52, 167.17 34.34, 171.67 43.2 C176.18 52.07, 177.14 62.52, 176.6 72 C176.06 81.49, 173.48 91.66, 168.42 100.09 C163.36 108.52, 155.3 116.74, 146.23 122.57 C137.15 128.41, 125.53 132.37, 113.98 135.08 C102.43 137.79, 88.8 139.94, 76.92 138.84 C65.04 137.74, 52.96 133.53, 42.7 128.48 C32.45 123.43, 22.09 116.2, 15.38 108.54 C8.68 100.88, 4.5 91.83, 2.48 82.55 C0.45 73.27, 0.59 62.08, 3.24 52.87 C5.89 43.65, 11.06 34.67, 18.36 27.28 C25.67 19.9, 36.51 12.93, 47.06 8.56 C57.61 4.19, 69.17 1.5, 81.67 1.07 C94.17 0.63, 114.5 4.69, 122.04 5.95 C129.58 7.22, 127.5 7.57, 126.9 8.65 M86.14 0.28 C97.83 -1.07, 113.78 2.45, 124.87 5.93 C135.97 9.41, 144.96 14.14, 152.71 21.17 C160.46 28.21, 167.45 39.29, 171.39 48.15 C175.33 57.01, 177.35 65.38, 176.36 74.33 C175.38 83.28, 171.09 93.48, 165.48 101.85 C159.88 110.22, 152.31 118.79, 142.74 124.56 C133.17 130.34, 119.82 134.15, 108.05 136.49 C96.28 138.82, 84.04 140.36, 72.14 138.57 C60.24 136.78, 46.74 131.33, 36.66 125.74 C26.58 120.15, 17.49 112.84, 11.68 105.03 C5.87 97.22, 3.24 88.44, 1.78 78.88 C0.33 69.32, -0.47 57.06, 2.95 47.66 C6.36 38.25, 14.14 29.34, 22.26 22.48 C30.37 15.61, 40.6 10.44, 51.64 6.48 C62.69 2.52, 82.78 -0.47, 88.52 -1.27 C94.26 -2.08, 86.47 0.26, 86.06 1.65" fill="none" stroke="#1e1e1e" stroke-width="2"></path></g><g transform="translate(310.0324659073119 784.723365869959) rotate(0 49.55994415283203 12.5)"><text direction="ltr" dominant-baseline="text-before-edge" fill="#1e1e1e" font-family="Virgil, Segoe UI Emoji" font-size="20px" style="white-space: pre;" text-anchor="middle" x="49.55994415283203" y="0">Zookeeper</text></g><g stroke-linecap="round"><g transform="translate(560.43207129516 672.141346452961) rotate(0 -62.60013490500842 33.52347646795738)"><path d="M0.62 -0.45 C-20.57 10.73, -105.36 55.32, -126.37 66.76 M-0.51 -1.74 C-21.43 9.65, -103.3 56.79, -124.28 68.15" fill="none" stroke="#1e1e1e" stroke-width="2"></path></g><g transform="translate(560.43207129516 672.141346452961) rotate(0 -62.60013490500842 33.52347646795738)"><path d="M-19.52 21.78 C-12.81 11.54, -5.12 4.89, 0.62 -0.45 M-19.52 21.78 C-10.9 12.72, -3 4.22, 0.62 -0.45" fill="none" stroke="#1e1e1e" stroke-width="2"></path></g><g transform="translate(560.43207129516 672.141346452961) rotate(0 -62.60013490500842 33.52347646795738)"><path d="M-29.1 3.63 C-18.91 0.02, -7.7 0.04, 0.62 -0.45 M-29.1 3.63 C-16.64 1.79, -4.97 0.43, 0.62 -0.45" fill="none" stroke="#1e1e1e" stroke-width="2"></path></g><g transform="translate(560.43207129516 672.141346452961) rotate(0 -62.60013490500842 33.52347646795738)"><path d="M-104.7 45.41 C-112.72 51.92, -119.64 61.81, -124.28 68.15 M-104.7 45.41 C-111.52 53.67, -119.23 62.85, -124.28 68.15" fill="none" stroke="#1e1e1e" stroke-width="2"></path></g><g transform="translate(560.43207129516 672.141346452961) rotate(0 -62.60013490500842 33.52347646795738)"><path d="M-94.67 63.31 C-106.33 63.29, -116.94 66.59, -124.28 68.15 M-94.67 63.31 C-105.5 64.44, -117.15 66.59, -124.28 68.15" fill="none" stroke="#1e1e1e" stroke-width="2"></path></g></g><mask></mask><g transform="translate(186.2789360980014 632.6680205367957) rotate(0 93.76992797851562 12.5)"><text direction="ltr" dominant-baseline="text-before-edge" fill="#1e1e1e" font-family="Virgil, Segoe UI Emoji" font-size="20px" style="white-space: pre;" text-anchor="middle" x="93.76992797851562" y="0">Query Hash Ranges</text></g><g transform="translate(1185.857055540374 511.2179896296684) rotate(0 97.95991516113276 50)"><text direction="ltr" dominant-baseline="text-before-edge" fill="#1e1e1e" font-family="Virgil, Segoe UI Emoji" font-size="20px" style="white-space: pre;" text-anchor="start" x="0" y="0">Operations</text><text direction="ltr" dominant-baseline="text-before-edge" fill="#1e1e1e" font-family="Virgil, Segoe UI Emoji" font-size="20px" style="white-space: pre;" text-anchor="start" x="0" y="25">  timestamp</text><text direction="ltr" dominant-baseline="text-before-edge" fill="#1e1e1e" font-family="Virgil, Segoe UI Emoji" font-size="20px" style="white-space: pre;" text-anchor="start" x="0" y="50">  documentVersionId</text><text direction="ltr" dominant-baseline="text-before-edge" fill="#1e1e1e" font-family="Virgil, Segoe UI Emoji" font-size="20px" style="white-space: pre;" text-anchor="start" x="0" y="75">  metadata</text></g><g stroke-linecap="round"><g transform="translate(797.8946337156125 489.64339917272446) rotate(0 67.31620631440694 -56.155616867500726)"><path d="M0.46 -1.09 C23.1 -20.09, 113.06 -94.33, 135.58 -112.92 M-0.76 0.96 C21.82 -17.38, 112.45 -92.96, 135.12 -111.7" fill="none" stroke="#1e1e1e" stroke-width="2"></path></g><g transform="translate(797.8946337156125 489.64339917272446) rotate(0 67.31620631440694 -56.155616867500726)"><path d="M15.62 -26.97 C9.83 -18.13, 6.41 -10.95, 0.46 -1.09 M15.62 -26.97 C10.57 -20.24, 7.87 -12.55, 0.46 -1.09" fill="none" stroke="#1e1e1e" stroke-width="2"></path></g><g transform="translate(797.8946337156125 489.64339917272446) rotate(0 67.31620631440694 -56.155616867500726)"><path d="M28.71 -11.17 C19.13 -6.68, 12.06 -3.9, 0.46 -1.09 M28.71 -11.17 C20.02 -8.78, 13.74 -5.43, 0.46 -1.09" fill="none" stroke="#1e1e1e" stroke-width="2"></path></g><g transform="translate(797.8946337156125 489.64339917272446) rotate(0 67.31620631440694 -56.155616867500726)"><path d="M119.99 -85.79 C122.15 -91.49, 127.17 -98.73, 135.12 -111.7 M119.99 -85.79 C123.08 -93.23, 128.69 -99.75, 135.12 -111.7" fill="none" stroke="#1e1e1e" stroke-width="2"></path></g><g transform="translate(797.8946337156125 489.64339917272446) rotate(0 67.31620631440694 -56.155616867500726)"><path d="M106.88 -101.58 C112.84 -102.93, 121.51 -105.77, 135.12 -111.7 M106.88 -101.58 C113.61 -104.68, 122.82 -106.87, 135.12 -111.7" fill="none" stroke="#1e1e1e" stroke-width="2"></path></g></g><mask></mask></svg>