<svg height="616.9716325835602" version="1.1" viewbox="0 0 811 616.9716325835602" width="811" xmlns="http://www.w3.org/2000/svg">
<!-- svg-source:excalidraw -->
<!-- payload-type:application/vnd.excalidraw+json --><!-- payload-version:2 -->
<defs>
<style class="style-fonts">
</style>
</defs>
<rect fill="#ffffff" height="616.9716325835602" width="811" x="0" y="0"></rect><g stroke-linecap="round" transform="translate(10 10) rotate(0 75 32.5)"><path d="M0 0 C58.01 0.75, 114.89 0.35, 150 0 M0 0 C43.52 0.45, 87.14 0.55, 150 0 M150 0 C150.99 17.97, 149.76 35.38, 150 65 M150 0 C150.48 15.95, 149.53 34.52, 150 65 M150 65 C112.39 62.32, 76.34 64.64, 0 65 M150 65 C93.27 62.82, 35.95 64.25, 0 65 M0 65 C0.62 45.14, 2.06 27.04, 0 0 M0 65 C-0.27 48.17, -1.4 30.5, 0 0" fill="none" stroke="#1e1e1e" stroke-width="2"></path></g><g stroke-linecap="round" transform="translate(10 457) rotate(0 75 32.5)"><path d="M0 0 C32.48 -0.57, 61.23 2.22, 150 0 M0 0 C34.9 0.39, 69.11 0.1, 150 0 M150 0 C150.75 15.9, 149.68 27.6, 150 65 M150 0 C150.63 25.35, 150.04 48.67, 150 65 M150 65 C116.75 64.9, 87.5 65.51, 0 65 M150 65 C119.45 64.63, 89.18 63.64, 0 65 M0 65 C1.73 49.91, -0.8 35.18, 0 0 M0 65 C-1.02 41.83, 0.68 18.82, 0 0" fill="none" stroke="#1e1e1e" stroke-width="2"></path></g><g stroke-linecap="round" transform="translate(268 10) rotate(0 75 32.5)"><path d="M0 0 C39.71 2.52, 78.45 0.87, 150 0 M0 0 C35.93 -0.05, 71.85 1.46, 150 0 M150 0 C149.29 21.15, 151.66 47.14, 150 65 M150 0 C149.42 12.73, 149.14 25.94, 150 65 M150 65 C116.96 67.25, 78.79 66.13, 0 65 M150 65 C115.77 65.79, 81.01 66.29, 0 65 M0 65 C-1.26 48.98, 0.6 30.06, 0 0 M0 65 C1.41 42.6, 0.32 19.11, 0 0" fill="none" stroke="#1e1e1e" stroke-width="2"></path></g><g stroke-linecap="round" transform="translate(268 457) rotate(0 75 32.5)"><path d="M0 0 C35.55 -1.23, 72.67 -0.98, 150 0 M0 0 C37.05 1.9, 76.11 1.29, 150 0 M150 0 C151.32 25.84, 147.84 47.87, 150 65 M150 0 C148.76 23.49, 148.93 47.76, 150 65 M150 65 C96.01 66.59, 44.48 65.84, 0 65 M150 65 C93.73 64.8, 38.33 65.52, 0 65 M0 65 C1.42 43.84, 1.32 19.83, 0 0 M0 65 C-0.78 44.08, -0.01 21.86, 0 0" fill="none" stroke="#1e1e1e" stroke-width="2"></path></g><g stroke-linecap="round" transform="translate(651 10) rotate(0 75 32.5)"><path d="M0 0 C56.69 0.26, 114.73 -0.81, 150 0 M0 0 C33.94 -0.99, 67.6 -1.52, 150 0 M150 0 C148.61 14.73, 151.95 28.26, 150 65 M150 0 C148.75 15.12, 149.91 32.24, 150 65 M150 65 C91.95 65, 38.2 65.27, 0 65 M150 65 C108.92 66.27, 68.71 65.01, 0 65 M0 65 C0.71 38.15, 0.14 16.35, 0 0 M0 65 C0.69 40.26, 0.41 15.87, 0 0" fill="none" stroke="#1e1e1e" stroke-width="2"></path></g><g stroke-linecap="round" transform="translate(651 457) rotate(0 75 32.5)"><path d="M0 0 C44.47 -1, 89.33 -1.76, 150 0 M0 0 C56.88 -0.6, 111.66 0.59, 150 0 M150 0 C150.82 24.54, 148.22 49.69, 150 65 M150 0 C150.02 15.81, 150.32 29.05, 150 65 M150 65 C103.2 64.71, 52.98 63.62, 0 65 M150 65 C102.02 66.08, 54.22 67.01, 0 65 M0 65 C0.17 45.31, 1.04 21.7, 0 0 M0 65 C-0.09 42.47, -0.65 21.9, 0 0" fill="none" stroke="#1e1e1e" stroke-width="2"></path></g><g stroke-linecap="round" transform="translate(60 85) rotate(0 154 19.5)"><path d="M0 0 C96.01 -0.25, 195.31 1.54, 308 0 M308 0 C306.79 13.79, 310.18 22.53, 308 39 M308 39 C214.54 36.46, 121.76 36.71, 0 39 M0 39 C1.37 27.71, 0.25 18.87, 0 0" fill="none" stroke="#1e1e1e" stroke-dasharray="8 10" stroke-width="2.5"></path></g><g stroke-linecap="round" transform="translate(368 398) rotate(0 166.5 25)"><path d="M0 0 C88.14 2.38, 174.44 2.65, 333 0 M333 0 C334.54 11.1, 332.65 27.44, 333 50 M333 50 C251.64 47.11, 171.33 48.69, 0 50 M0 50 C0.04 29.58, -0.71 13.46, 0 0" fill="none" stroke="#1e1e1e" stroke-dasharray="8 10" stroke-width="2.5"></path></g><g stroke-linecap="round"><g transform="translate(85 75) rotate(0 0 191)"><path d="M0 0 C1.86 86.24, 1.22 169.97, 0 382 M0 0 C2.18 145.15, 1.83 289.1, 0 382" fill="none" stroke="#999" stroke-width="1"></path></g></g><mask></mask><g stroke-linecap="round"><g transform="translate(343 75) rotate(0 0 191)"><path d="M0 0 C-0.18 132.04, 1.24 266.97, 0 382 M0 0 C-0.33 77.9, -0.5 156.09, 0 382" fill="none" stroke="#999" stroke-width="1"></path></g></g><mask></mask><g stroke-linecap="round"><g transform="translate(726 75) rotate(0 0 191)"><path d="M0 0 C0.03 141.77, -2.05 281.27, 0 382 M0 0 C-1.85 141.71, -1.75 283.89, 0 382" fill="none" stroke="#999" stroke-width="1"></path></g></g><mask></mask><g mask="url(#mask-6XC6kYRinxDNb3lHchqzX)" stroke-linecap="round"><g transform="translate(85.5 212) rotate(0 128.5 0)"><path d="M1.15 -1.14 C44.13 -1.16, 214.48 0.79, 257.01 0.86 M0.29 0.87 C43.19 0.45, 212.98 -0.7, 256.07 -0.8" fill="none" stroke="#1e1e1e" stroke-width="2"></path></g><g transform="translate(85.5 212) rotate(0 128.5 0)"><path d="M227.93 9.6 C232.31 6.99, 242.03 3.45, 256.07 -0.8 M227.93 9.6 C234.13 6.67, 242.1 5.56, 256.07 -0.8" fill="none" stroke="#1e1e1e" stroke-width="2"></path></g><g transform="translate(85.5 212) rotate(0 128.5 0)"><path d="M227.82 -10.92 C232.39 -8.89, 242.13 -7.78, 256.07 -0.8 M227.82 -10.92 C233.88 -8.89, 241.87 -5.04, 256.07 -0.8" fill="none" stroke="#1e1e1e" stroke-width="2"></path></g></g><mask id="mask-6XC6kYRinxDNb3lHchqzX"><rect fill="#fff" height="312" width="443.5" x="0" y="0"></rect><rect fill="#000" height="40" opacity="1" width="154.5703125" x="136.71484375" y="192"></rect></mask><g mask="url(#mask-ZpFz86Z_VwzaFTk5bxa8Y)" stroke-linecap="round"><g transform="translate(348.5 264) rotate(0 188.5 0)"><path d="M0.01 0.86 C62.53 0.94, 313.64 -0.42, 376.3 -0.7 M-1.45 0.27 C61.37 0.59, 315.35 0.51, 378.64 0.47" fill="none" stroke="#1e1e1e" stroke-width="2"></path></g><g transform="translate(348.5 264) rotate(0 188.5 0)"><path d="M350.45 10.74 C363.14 5.51, 371.69 0.89, 378.64 0.47 M350.45 10.74 C357.51 9.34, 364.32 5.2, 378.64 0.47" fill="none" stroke="#1e1e1e" stroke-width="2"></path></g><g transform="translate(348.5 264) rotate(0 188.5 0)"><path d="M350.45 -9.78 C362.94 -6.89, 371.49 -3.4, 378.64 0.47 M350.45 -9.78 C357.36 -6.44, 364.17 -5.85, 378.64 0.47" fill="none" stroke="#1e1e1e" stroke-width="2"></path></g></g><mask id="mask-ZpFz86Z_VwzaFTk5bxa8Y"><rect fill="#fff" height="364" width="826.5" x="0" y="0"></rect><rect fill="#000" height="20" opacity="1" width="163.0625" x="455.46875" y="254"></rect></mask><g mask="url(#mask-pqD9FFv_iR1-PHWlgNAF-)" stroke-linecap="round"><g transform="translate(720.5 316) rotate(0 -186 0)"><path d="M-0.7 -0.7 C-62.88 -0.98, -311.02 -0.82, -373.04 -0.83" fill="none" stroke="#1e1e1e" stroke-dasharray="1.5 8" stroke-width="2.5"></path></g><g transform="translate(720.5 316) rotate(0 -186 0)"><path d="M-344.85 -11.1 C-354.41 -9.9, -363.11 -6.47, -373.04 -0.83" fill="none" stroke="#1e1e1e" stroke-dasharray="1.5 6" stroke-width="2.5"></path></g><g transform="translate(720.5 316) rotate(0 -186 0)"><path d="M-344.84 9.43 C-354.56 4.45, -363.25 1.71, -373.04 -0.83" fill="none" stroke="#1e1e1e" stroke-dasharray="1.5 6" stroke-width="2.5"></path></g></g><mask id="mask-pqD9FFv_iR1-PHWlgNAF-"><rect fill="#fff" height="416" width="1193.5" x="0" y="0"></rect><rect fill="#000" height="20" opacity="1" width="113.3125" x="477.84375" y="306"></rect></mask><g mask="url(#mask-HaiWKe_Nr7SW8oONbU-yf)" stroke-linecap="round"><g transform="translate(337.5 368) rotate(0 -126 0)"><path d="M-1.04 -0.83 C-43.06 -0.83, -211.1 -1.02, -252.83 -0.72" fill="none" stroke="#1e1e1e" stroke-dasharray="1.5 8" stroke-width="2.5"></path></g><g transform="translate(337.5 368) rotate(0 -126 0)"><path d="M-224.66 -11.05 C-232.91 -10.18, -239.54 -5.37, -252.83 -0.72" fill="none" stroke="#1e1e1e" stroke-dasharray="1.5 6" stroke-width="2.5"></path></g><g transform="translate(337.5 368) rotate(0 -126 0)"><path d="M-224.61 9.47 C-232.75 5.38, -239.39 5.24, -252.83 -0.72" fill="none" stroke="#1e1e1e" stroke-dasharray="1.5 6" stroke-width="2.5"></path></g></g><mask id="mask-HaiWKe_Nr7SW8oONbU-yf"><rect fill="#fff" height="468" width="690.5" x="0" y="0"></rect><rect fill="#000" height="20" opacity="1" width="142.640625" x="140.1796875" y="358"></rect></mask><g stroke-linecap="round" transform="translate(338 222) rotate(0 5 78)"><path d="M0.55 -0.72 L10.81 -0.79 L10.39 155.83 L-0.43 155.97" fill="#e9ecef" stroke="none" stroke-width="0"></path><path d="M0 0 C1.83 0.27, 4.67 0.42, 10 0 M0 0 C1.99 0.21, 4.05 -0.03, 10 0 M10 0 C11.11 38.23, 9.85 76.65, 10 156 M10 0 C9.82 56.39, 10.67 112.87, 10 156 M10 156 C6.87 156.16, 3.93 155.88, 0 156 M10 156 C6.93 155.87, 4.31 156.13, 0 156 M0 156 C0.85 117.56, 0.57 80.42, 0 0 M0 156 C-0.4 102.58, -1.06 49.68, 0 0" fill="none" stroke="#1e1e1e" stroke-width="2"></path></g><g stroke-linecap="round" transform="translate(721 276) rotate(0 5 25)"><path d="M0.81 -0.79 L10.39 -0.17 L9.57 49.97 L0.59 50.02" fill="#e9ecef" stroke="none" stroke-width="0"></path><path d="M0 0 C2.71 0.36, 4.13 0.08, 10 0 M0 0 C2.27 -0.11, 4.42 0.02, 10 0 M10 0 C9.91 14.55, 10.84 27.64, 10 50 M10 0 C10.23 18.12, 9.69 35.69, 10 50 M10 50 C5.95 49.87, 2.88 49.79, 0 50 M10 50 C7.8 50.14, 4.95 49.83, 0 50 M0 50 C0.01 38.06, 0.3 27.69, 0 0 M0 50 C-0.56 31.35, 0.18 12.86, 0 0" fill="none" stroke="#1e1e1e" stroke-width="2"></path></g><g stroke-linecap="round"><g transform="translate(75 134) rotate(0 333 0)"><path d="M0 0 C230.28 -1.89, 461.55 -2.19, 666 0" fill="none" stroke="#adb5bd" stroke-dasharray="1.5 8" stroke-width="2.5"></path></g></g><mask></mask><g stroke-linecap="round"><g transform="translate(741 134) rotate(0 0 127)"><path d="M0 0 C-3.17 95.61, -0.85 191.69, 0 254" fill="none" stroke="#adb5bd" stroke-dasharray="1.5 8" stroke-width="2.5"></path></g></g><mask></mask><g stroke-linecap="round"><g transform="translate(75 388) rotate(0 333 0)"><path d="M0 0 C214.71 0.4, 428.06 -0.03, 666 0" fill="none" stroke="#adb5bd" stroke-dasharray="1.5 8" stroke-width="2.5"></path></g></g><mask></mask><g stroke-linecap="round"><g transform="translate(75 134) rotate(0 0 127)"><path d="M0 0 C1.02 71.23, 1.83 143.89, 0 254" fill="none" stroke="#adb5bd" stroke-dasharray="1.5 8" stroke-width="2.5"></path></g></g><mask></mask><g transform="translate(362.1640625 142) rotate(0 77.1679458618164 10)"><text direction="ltr" dominant-baseline="text-before-edge" fill="#1e1e1e" font-family="Virgil, Segoe UI Emoji" font-size="16px" style="white-space: pre;" text-anchor="start" x="0" y="0">[Poll for comments]</text></g><g stroke-linecap="round" transform="translate(75 134) rotate(0 20 15)"><path d="M-0.95 -0.35 L40.69 -0.91 L40.44 30.52 L0.9 30.54" fill="#e9ecef" stroke="none" stroke-width="0"></path><path d="M0 0 C10.65 0.4, 19.1 0.93, 40 0 M0 0 C14.01 0.02, 29.29 0.24, 40 0 M40 0 C39.37 8.63, 39.05 16.43, 40 30 M40 0 C39.74 8.7, 40.43 18.15, 40 30 M40 30 C30.75 29.01, 20.83 29.46, 0 30 M40 30 C26.59 29.75, 12.34 29.87, 0 30 M0 30 C-0.68 19.74, -0.06 8.27, 0 0 M0 30 C0.34 21.18, -0.49 12.08, 0 0" fill="none" stroke="#adb5bd" stroke-width="2"></path></g><g transform="translate(61.93359375 32.5) rotate(0 23.06640625 10)"><text direction="ltr" dominant-baseline="text-before-edge" fill="#000" font-family="Virgil, Segoe UI Emoji" font-size="16px" style="white-space: pre;" text-anchor="middle" x="23.06640625" y="0">Viewer</text></g><g transform="translate(61.93359375 479.5) rotate(0 23.06640625 10)"><text direction="ltr" dominant-baseline="text-before-edge" fill="#000" font-family="Virgil, Segoe UI Emoji" font-size="16px" style="white-space: pre;" text-anchor="middle" x="23.06640625" y="0">Viewer</text></g><g transform="translate(322.12109375 32.5) rotate(0 20.87890625 10)"><text direction="ltr" dominant-baseline="text-before-edge" fill="#000" font-family="Virgil, Segoe UI Emoji" font-size="16px" style="white-space: pre;" text-anchor="middle" x="20.87890625" y="0">Server</text></g><g transform="translate(322.12109375 479.5) rotate(0 20.87890625 10)"><text direction="ltr" dominant-baseline="text-before-edge" fill="#000" font-family="Virgil, Segoe UI Emoji" font-size="16px" style="white-space: pre;" text-anchor="middle" x="20.87890625" y="0">Server</text></g><g transform="translate(696.68359375 32.5) rotate(0 29.31640625 10)"><text direction="ltr" dominant-baseline="text-before-edge" fill="#000" font-family="Virgil, Segoe UI Emoji" font-size="16px" style="white-space: pre;" text-anchor="middle" x="29.31640625" y="0">Database</text></g><g transform="translate(696.68359375 479.5) rotate(0 29.31640625 10)"><text direction="ltr" dominant-baseline="text-before-edge" fill="#000" font-family="Virgil, Segoe UI Emoji" font-size="16px" style="white-space: pre;" text-anchor="middle" x="29.31640625" y="0">Database</text></g><g transform="translate(112.2890625 94.5) rotate(0 101.7109375 10)"><text direction="ltr" dominant-baseline="text-before-edge" fill="#000" font-family="Virgil, Segoe UI Emoji" font-size="16px" style="white-space: pre;" text-anchor="middle" x="101.7109375" y="0">Viewer polls every few seconds</text></g><g transform="translate(379.6640625 413) rotate(0 154.8359375 10)"><text direction="ltr" dominant-baseline="text-before-edge" fill="#000" font-family="Virgil, Segoe UI Emoji" font-size="16px" style="white-space: pre;" text-anchor="middle" x="154.8359375" y="0">This can lead to a heavy load with more viewers</text></g><g transform="translate(136.71484375 192) rotate(0 77.43405432231722 19.865510298718988)"><text direction="ltr" dominant-baseline="text-before-edge" fill="#1e1e1e" font-family="Virgil, Segoe UI Emoji" font-size="16px" style="white-space: pre;" text-anchor="middle" x="77.28515625" y="0">GET </text><text direction="ltr" dominant-baseline="text-before-edge" fill="#1e1e1e" font-family="Virgil, Segoe UI Emoji" font-size="16px" style="white-space: pre;" text-anchor="middle" x="77.28515625" y="20">/comments/:liveVideoId</text></g><g transform="translate(455.46875 254) rotate(0 81.62910592310129 10.084972113376324)"><text direction="ltr" dominant-baseline="text-before-edge" fill="#1e1e1e" font-family="Virgil, Segoe UI Emoji" font-size="16px" style="white-space: pre;" text-anchor="middle" x="81.53125" y="0">Query for new comments</text></g><g transform="translate(477.84375 306) rotate(0 55.78709122948351 9.217481253617535)"><text direction="ltr" dominant-baseline="text-before-edge" fill="#1e1e1e" font-family="Virgil, Segoe UI Emoji" font-size="16px" style="white-space: pre;" text-anchor="middle" x="56.65625" y="0">Return comments</text></g><g transform="translate(140.1796875 358) rotate(0 70.38723929934207 9.191840746324203)"><text direction="ltr" dominant-baseline="text-before-edge" fill="#1e1e1e" font-family="Virgil, Segoe UI Emoji" font-size="16px" style="white-space: pre;" text-anchor="middle" x="71.3203125" y="0">List of new comments</text></g><g transform="translate(80.77734375 139) rotate(0 14.22265625 10)"><text direction="ltr" dominant-baseline="text-before-edge" fill="#000" font-family="Virgil, Segoe UI Emoji" font-size="16px" style="white-space: pre;" text-anchor="middle" x="14.22265625" y="0">loop</text></g><g transform="translate(16.57015305709774 556.9716325835602) rotate(0 253.56979370117188 25)"><text direction="ltr" dominant-baseline="text-before-edge" fill="#1e1e1e" font-family="Virgil, Segoe UI Emoji" font-size="20px" style="white-space: pre;" text-anchor="start" x="0" y="0">Note: This diagram is illustrative, you would never </text><text direction="ltr" dominant-baseline="text-before-edge" fill="#1e1e1e" font-family="Virgil, Segoe UI Emoji" font-size="20px" style="white-space: pre;" text-anchor="start" x="0" y="25">draw this in a real interview</text></g></svg>