<svg height="653.8546914575481" version="1.1" viewbox="0 0 527.1395874023438 653.8546914575481" width="527.1395874023438" xmlns="http://www.w3.org/2000/svg">
<!-- svg-source:excalidraw -->
<!-- payload-type:application/vnd.excalidraw+json --><!-- payload-version:2 -->
<defs>
<style class="style-fonts">
</style>
</defs>
<rect fill="#ffffff" height="653.8546914575481" width="527.1395874023438" x="0" y="0"></rect><g stroke-linecap="round" transform="translate(13.546791687099358 10) rotate(0 75 32.5)"><path d="M0 0 C39.79 -0.86, 80.27 0.78, 150 0 M0 0 C45.44 -1.12, 91.78 -1.41, 150 0 M150 0 C149.06 15.04, 150.41 33.1, 150 65 M150 0 C149.3 16.56, 150.16 34.35, 150 65 M150 65 C110.43 65.31, 76.43 65.85, 0 65 M150 65 C90.8 63.78, 29.51 63.74, 0 65 M0 65 C0.56 41.86, -1.29 19.34, 0 0 M0 65 C0.12 44.9, 0.24 24.21, 0 0" fill="none" stroke="#1e1e1e" stroke-width="2"></path></g><g stroke-linecap="round" transform="translate(13.546791687099358 503) rotate(0 75 32.5)"><path d="M0 0 C35.56 1.22, 74.22 1.53, 150 0 M0 0 C55.54 -0.3, 112.01 -0.94, 150 0 M150 0 C150.9 27.23, 149.13 51.22, 150 65 M150 0 C150.02 19.2, 149.18 38.68, 150 65 M150 65 C116.62 67.8, 81.63 65.28, 0 65 M150 65 C109.02 63.12, 70.12 64.34, 0 65 M0 65 C-1.28 40.06, -0.15 16.49, 0 0 M0 65 C0.13 39.47, 0.09 15.13, 0 0" fill="none" stroke="#1e1e1e" stroke-width="2"></path></g><g stroke-linecap="round" transform="translate(341.54679168709936 10) rotate(0 75 32.5)"><path d="M0 0 C32.72 0.3, 66.6 -1.63, 150 0 M0 0 C44.62 -0.51, 91.34 0.25, 150 0 M150 0 C149.57 16.18, 150.14 32.48, 150 65 M150 0 C149.74 17.32, 149.57 31.94, 150 65 M150 65 C97.32 65.69, 40.03 67.65, 0 65 M150 65 C116.51 64.28, 82.84 64.26, 0 65 M0 65 C0.45 47.57, 1.87 30.71, 0 0 M0 65 C0.01 46.01, -0.24 28.94, 0 0" fill="none" stroke="#1e1e1e" stroke-width="2"></path></g><g stroke-linecap="round" transform="translate(341.54679168709936 503) rotate(0 75 32.5)"><path d="M0 0 C46.35 -1.86, 89.71 -1.7, 150 0 M0 0 C41.81 1.21, 81.23 1.89, 150 0 M150 0 C149.57 22.8, 148.81 48.34, 150 65 M150 0 C149.03 20.47, 150.33 43.72, 150 65 M150 65 C90.62 65.76, 31.05 62.85, 0 65 M150 65 C117.34 66.1, 82.89 65.17, 0 65 M0 65 C1.51 48.21, -0.44 31.59, 0 0 M0 65 C-0.21 52.28, 0.67 39.62, 0 0" fill="none" stroke="#1e1e1e" stroke-width="2"></path></g><g stroke-linecap="round" transform="translate(63.54679168709936 85) rotate(0 189 19.5)"><path d="M0 0 C118.76 0.98, 237.16 1.21, 378 0 M378 0 C377.54 9.11, 379.71 15.44, 378 39 M378 39 C274.88 38.26, 173.26 37.25, 0 39 M0 39 C1.54 25.65, 2.09 10.7, 0 0" fill="none" stroke="#1e1e1e" stroke-dasharray="8 10" stroke-width="2.5"></path></g><g stroke-linecap="round" transform="translate(326.54679168709936 238) rotate(0 90 25)"><path d="M0 0 C38.59 0.23, 76.44 3.31, 180 0 M180 0 C181.12 13.39, 179.21 28.11, 180 50 M180 50 C135.77 49.65, 92.13 49.32, 0 50 M0 50 C1.51 41.68, -1.01 28.77, 0 0" fill="none" stroke="#1e1e1e" stroke-dasharray="8 10" stroke-width="2.5"></path></g><g stroke-linecap="round" transform="translate(113.54679168709936 395) rotate(0 139 25)"><path d="M0 0 C61.26 2.71, 125.1 0.54, 278 0 M278 0 C277.76 17.34, 277.31 34.1, 278 50 M278 50 C186.24 47.95, 90.31 49.95, 0 50 M0 50 C-1.14 29.88, 0.82 9.57, 0 0" fill="none" stroke="#1e1e1e" stroke-dasharray="8 10" stroke-width="2.5"></path></g><g stroke-linecap="round" transform="translate(63.54679168709936 444) rotate(0 189 25)"><path d="M0 0 C92.18 -2.76, 185.38 -1.44, 378 0 M378 0 C376.84 12.16, 378.56 26.79, 378 50 M378 50 C281.9 49.28, 189.16 49.61, 0 50 M0 50 C1.45 28.58, -1.46 8.56, 0 0" fill="none" stroke="#1e1e1e" stroke-dasharray="8 10" stroke-width="2.5"></path></g><g stroke-linecap="round"><g transform="translate(88.54679168709936 75) rotate(0 0 214)"><path d="M0 0 C0.14 171.23, -0.77 340.77, 0 428 M0 0 C-0.95 124.61, -1.39 249.37, 0 428" fill="none" stroke="#999" stroke-width="1"></path></g></g><mask></mask><g stroke-linecap="round"><g transform="translate(416.54679168709936 75) rotate(0 0 214)"><path d="M0 0 C0.73 110.01, 1.03 220.08, 0 428 M0 0 C0.52 108.7, 0.44 215.99, 0 428" fill="none" stroke="#999" stroke-width="1"></path></g></g><mask></mask><g mask="url(#mask-Qem2omyseohqmc2jNsqDL)" stroke-linecap="round"><g transform="translate(89.04679168709936 166) rotate(0 163.5 0)"><path d="M-0.34 -0.11 C53.92 -0.13, 271.76 -0.64, 326.39 -0.57 M1.68 -1.21 C56.27 -1.04, 274.58 0.77, 328.78 0.68" fill="none" stroke="#1e1e1e" stroke-width="2"></path></g><g transform="translate(89.04679168709936 166) rotate(0 163.5 0)"><path d="M300.55 10.83 C310.75 6.17, 320.34 4.17, 328.78 0.68 M300.55 10.83 C309.24 6.29, 319.84 4.79, 328.78 0.68" fill="none" stroke="#1e1e1e" stroke-width="2"></path></g><g transform="translate(89.04679168709936 166) rotate(0 163.5 0)"><path d="M300.63 -9.7 C310.72 -6.83, 320.28 -1.31, 328.78 0.68 M300.63 -9.7 C309.2 -7.47, 319.77 -2.22, 328.78 0.68" fill="none" stroke="#1e1e1e" stroke-width="2"></path></g></g><mask id="mask-Qem2omyseohqmc2jNsqDL"><rect fill="#fff" height="266" width="517.0467916870994" x="0" y="0"></rect><rect fill="#000" height="20" opacity="1" width="212.90625" x="146.09366668709936" y="156"></rect></mask><g mask="url(#mask-MzgKZQ0h6u1Xpv2IB7BJY)" stroke-linecap="round"><g transform="translate(411.04679168709936 218) rotate(0 -161 0)"><path d="M-0.61 -0.57 C-54.15 -0.49, -267.92 0.08, -321.58 0.35" fill="none" stroke="#1e1e1e" stroke-dasharray="1.5 8" stroke-width="2.5"></path></g><g transform="translate(411.04679168709936 218) rotate(0 -161 0)"><path d="M-293.43 -10.01 C-302.02 -6.64, -308.12 -5.51, -321.58 0.35" fill="none" stroke="#1e1e1e" stroke-dasharray="1.5 6" stroke-width="2.5"></path></g><g transform="translate(411.04679168709936 218) rotate(0 -161 0)"><path d="M-293.35 10.51 C-301.94 8.31, -308.07 3.88, -321.58 0.35" fill="none" stroke="#1e1e1e" stroke-dasharray="1.5 6" stroke-width="2.5"></path></g></g><mask id="mask-MzgKZQ0h6u1Xpv2IB7BJY"><rect fill="#fff" height="318" width="834.0467916870994" x="0" y="0"></rect><rect fill="#000" height="20" opacity="1" width="166.625" x="166.73429168709936" y="208"></rect></mask><g mask="url(#mask-AtDSKx3JlpK08c5kUrMqh)" stroke-linecap="round"><g transform="translate(416.04679168709936 365) rotate(0 -163.5 0)"><path d="M0.42 0.35 C-54.08 0.62, -272.88 1.31, -327.59 1.06 M-0.82 -0.51 C-54.86 -0.5, -271.1 -0.53, -325.18 -0.51" fill="none" stroke="#1e1e1e" stroke-width="2"></path></g><g transform="translate(416.04679168709936 365) rotate(0 -163.5 0)"><path d="M-296.99 -10.77 C-303.47 -9.09, -309.31 -6.87, -325.18 -0.51 M-296.99 -10.77 C-301.81 -7.42, -308.87 -6.62, -325.18 -0.51" fill="none" stroke="#1e1e1e" stroke-width="2"></path></g><g transform="translate(416.04679168709936 365) rotate(0 -163.5 0)"><path d="M-296.99 9.75 C-303.37 6.32, -309.22 3.43, -325.18 -0.51 M-296.99 9.75 C-301.94 8.88, -309.01 5.46, -325.18 -0.51" fill="none" stroke="#1e1e1e" stroke-width="2"></path></g></g><mask id="mask-AtDSKx3JlpK08c5kUrMqh"><rect fill="#fff" height="465" width="844.0467916870994" x="0" y="0"></rect><rect fill="#000" height="20" opacity="1" width="155.96875" x="174.56241668709936" y="355"></rect></mask><g stroke-linecap="round" transform="translate(411.54679168709936 176) rotate(0 5 26)"><path d="M0.22 -0.32 L10.53 -0.33 L10.54 51.1 L-0.76 51.42" fill="#e9ecef" stroke="none" stroke-width="0"></path><path d="M0 0 C3.79 -0.3, 6.23 0.35, 10 0 M0 0 C3.81 -0.13, 7.95 -0.23, 10 0 M10 0 C10.25 12.07, 10.23 22.35, 10 52 M10 0 C9.83 13.39, 9.91 25.91, 10 52 M10 52 C6.44 51.94, 3.85 52.38, 0 52 M10 52 C6.47 52.13, 2.78 51.89, 0 52 M0 52 C-0.09 37.14, 0.72 24.93, 0 0 M0 52 C0.63 37.03, 0.59 22.93, 0 0" fill="none" stroke="#1e1e1e" stroke-width="2"></path></g><g stroke-linecap="round"><g transform="translate(78.54679168709936 287) rotate(0 174 0)"><path d="M0 0 C86.19 2.33, 176.02 2.69, 348 0" fill="none" stroke="#adb5bd" stroke-dasharray="1.5 8" stroke-width="2.5"></path></g></g><mask></mask><g stroke-linecap="round"><g transform="translate(426.54679168709936 287) rotate(0 0 49)"><path d="M0 0 C0.87 24.81, 1.06 45.28, 0 98" fill="none" stroke="#adb5bd" stroke-dasharray="1.5 8" stroke-width="2.5"></path></g></g><mask></mask><g stroke-linecap="round"><g transform="translate(78.54679168709936 385) rotate(0 174 0)"><path d="M0 0 C128.11 -2.53, 253.21 -1.25, 348 0" fill="none" stroke="#adb5bd" stroke-dasharray="1.5 8" stroke-width="2.5"></path></g></g><mask></mask><g stroke-linecap="round"><g transform="translate(78.54679168709936 287) rotate(0 0 49)"><path d="M0 0 C0.32 39.65, -0.51 75.12, 0 98" fill="none" stroke="#adb5bd" stroke-dasharray="1.5 8" stroke-width="2.5"></path></g></g><mask></mask><g transform="translate(155.08585418709936 295) rotate(0 129.81591796875 10)"><text direction="ltr" dominant-baseline="text-before-edge" fill="#1e1e1e" font-family="Virgil, Segoe UI Emoji" font-size="16px" style="white-space: pre;" text-anchor="start" x="0" y="0">[When new comments are posted]</text></g><g stroke-linecap="round" transform="translate(78.54679168709936 287) rotate(0 20 15)"><path d="M0.83 0.18 L39.09 -0.25 L40.38 30.53 L0.42 30.14" fill="#e9ecef" stroke="none" stroke-width="0"></path><path d="M0 0 C13.78 0.61, 29.56 0.88, 40 0 M0 0 C13.5 0.13, 27.35 0.49, 40 0 M40 0 C38.98 9.23, 39.17 18.1, 40 30 M40 0 C39.98 9.62, 40.47 20.32, 40 30 M40 30 C24.96 29.6, 9.24 29.11, 0 30 M40 30 C24.5 30.01, 9.99 29.56, 0 30 M0 30 C-0.34 18.74, -0.35 6.97, 0 0 M0 30 C0.22 24.05, 0.55 17.85, 0 0" fill="none" stroke="#adb5bd" stroke-width="2"></path></g><g transform="translate(65.48038543709936 32.5) rotate(0 23.06640625 10)"><text direction="ltr" dominant-baseline="text-before-edge" fill="#000" font-family="Virgil, Segoe UI Emoji" font-size="16px" style="white-space: pre;" text-anchor="middle" x="23.06640625" y="0">Viewer</text></g><g transform="translate(65.48038543709936 525.5) rotate(0 23.06640625 10)"><text direction="ltr" dominant-baseline="text-before-edge" fill="#000" font-family="Virgil, Segoe UI Emoji" font-size="16px" style="white-space: pre;" text-anchor="middle" x="23.06640625" y="0">Viewer</text></g><g transform="translate(395.66788543709936 32.5) rotate(0 20.87890625 10)"><text direction="ltr" dominant-baseline="text-before-edge" fill="#000" font-family="Virgil, Segoe UI Emoji" font-size="16px" style="white-space: pre;" text-anchor="middle" x="20.87890625" y="0">Server</text></g><g transform="translate(395.66788543709936 525.5) rotate(0 20.87890625 10)"><text direction="ltr" dominant-baseline="text-before-edge" fill="#000" font-family="Virgil, Segoe UI Emoji" font-size="16px" style="white-space: pre;" text-anchor="middle" x="20.87890625" y="0">Server</text></g><g transform="translate(135.87101043709936 94.5) rotate(0 116.67578125 10)"><text direction="ltr" dominant-baseline="text-before-edge" fill="#000" font-family="Virgil, Segoe UI Emoji" font-size="16px" style="white-space: pre;" text-anchor="middle" x="116.67578125" y="0">Establishing WebSocket Connection</text></g><g transform="translate(339.00382293709936 253) rotate(0 77.54296875 10)"><text direction="ltr" dominant-baseline="text-before-edge" fill="#000" font-family="Virgil, Segoe UI Emoji" font-size="16px" style="white-space: pre;" text-anchor="middle" x="77.54296875" y="0">Connection is kept open</text></g><g transform="translate(127.69522918709936 410) rotate(0 124.8515625 10)"><text direction="ltr" dominant-baseline="text-before-edge" fill="#000" font-family="Virgil, Segoe UI Emoji" font-size="16px" style="white-space: pre;" text-anchor="middle" x="124.8515625" y="0">Client processes new data immediately</text></g><g transform="translate(89.47647918709936 449) rotate(0 163.0703125 20)"><text direction="ltr" dominant-baseline="text-before-edge" fill="#000" font-family="Virgil, Segoe UI Emoji" font-size="16px" style="white-space: pre;" text-anchor="middle" x="163.0703125" y="0">No need for polling, server pushes updates as they </text><text direction="ltr" dominant-baseline="text-before-edge" fill="#000" font-family="Virgil, Segoe UI Emoji" font-size="16px" style="white-space: pre;" text-anchor="middle" x="163.0703125" y="20">happen</text></g><g transform="translate(146.09366668709936 156) rotate(0 107.17014272161761 9.732553535970553)"><text direction="ltr" dominant-baseline="text-before-edge" fill="#1e1e1e" font-family="Virgil, Segoe UI Emoji" font-size="16px" style="white-space: pre;" text-anchor="middle" x="106.453125" y="0">Establish WebSocket Connection</text></g><g transform="translate(166.73429168709936 208) rotate(0 83.21624124832454 9.893797872588038)"><text direction="ltr" dominant-baseline="text-before-edge" fill="#1e1e1e" font-family="Virgil, Segoe UI Emoji" font-size="16px" style="white-space: pre;" text-anchor="middle" x="83.3125" y="0">Acknowledge Connection</text></g><g transform="translate(174.56241668709936 355) rotate(0 77.90148269720376 10.298458633626268)"><text direction="ltr" dominant-baseline="text-before-edge" fill="#1e1e1e" font-family="Virgil, Segoe UI Emoji" font-size="16px" style="white-space: pre;" text-anchor="middle" x="77.984375" y="0">Push new comment data</text></g><g transform="translate(84.32413543709936 292) rotate(0 14.22265625 10)"><text direction="ltr" dominant-baseline="text-before-edge" fill="#000" font-family="Virgil, Segoe UI Emoji" font-size="16px" style="white-space: pre;" text-anchor="middle" x="14.22265625" y="0">loop</text></g><g transform="translate(10 593.8546914575481) rotate(0 253.56979370117188 25)"><text direction="ltr" dominant-baseline="text-before-edge" fill="#1e1e1e" font-family="Virgil, Segoe UI Emoji" font-size="20px" style="white-space: pre;" text-anchor="start" x="0" y="0">Note: This diagram is illustrative, you would never </text><text direction="ltr" dominant-baseline="text-before-edge" fill="#1e1e1e" font-family="Virgil, Segoe UI Emoji" font-size="20px" style="white-space: pre;" text-anchor="start" x="0" y="25">draw this in a real interview</text></g></svg>