<svg height="394.86411550045017" version="1.1" viewbox="0 0 805.037109375 394.86411550045017" width="805.037109375" xmlns="http://www.w3.org/2000/svg">
<!-- svg-source:excalidraw -->
<!-- payload-type:application/vnd.excalidraw+json --><!-- payload-version:2 -->
<defs>
<style class="style-fonts">
</style>
</defs>
<rect fill="#ffffff" height="394.86411550045017" width="805.037109375" x="0" y="0"></rect><g stroke-linecap="round"><g transform="translate(297.46875 9.413930117338907) rotate(0 -1.296875 187.88671875)"><path d="M-0.84 0.59 C-1.43 63.08, -3.5 312.84, -3.61 375.45" fill="none" stroke="#1e1e1e" stroke-dasharray="8 9" stroke-width="1.5"></path></g></g><mask></mask><g stroke-linecap="round" transform="translate(10 111.69518011733891) rotate(0 69.46484375 92.4453125)"><path d="M32 0 C56.07 1.58, 82.34 0.41, 106.93 0 M32 0 C50.03 0.92, 66.7 -0.06, 106.93 0 M106.93 0 C129.72 1.71, 139.68 9.83, 138.93 32 M106.93 0 C127.7 1.58, 140.17 12.56, 138.93 32 M138.93 32 C139.15 72.29, 138.8 109.06, 138.93 152.89 M138.93 32 C138.78 58.15, 139.1 85.42, 138.93 152.89 M138.93 152.89 C138.67 172.53, 129.57 184.64, 106.93 184.89 M138.93 152.89 C137.65 174.24, 126.94 186.41, 106.93 184.89 M106.93 184.89 C90.99 185.75, 74.87 185.61, 32 184.89 M106.93 184.89 C88.12 185.63, 69.39 184.64, 32 184.89 M32 184.89 C10.85 184.56, 0.24 174.55, 0 152.89 M32 184.89 C8.41 182.62, 1.55 173.66, 0 152.89 M0 152.89 C-1.58 119.73, -1.36 81.1, 0 32 M0 152.89 C-1.03 113.99, -1.82 73.15, 0 32 M0 32 C1.77 9.71, 10.75 -0.96, 32 0 M0 32 C1.36 8.71, 11.36 -0.32, 32 0" fill="none" stroke="#1e1e1e" stroke-width="2"></path></g><g transform="translate(57.12486267089844 191.6404926173389) rotate(0 22.339981079101562 12.5)"><text direction="ltr" dominant-baseline="text-before-edge" fill="#1e1e1e" font-family="Virgil, Segoe UI Emoji" font-size="20px" style="white-space: pre;" text-anchor="middle" x="22.339981079101562" y="0">User</text></g><g stroke-linecap="round" transform="translate(233.09375 117.96080511733891) rotate(0 64.90234375 89.08984375)"><path d="M32 0 C42.2 1.82, 58.93 -2.72, 97.8 0 C119.72 1.1, 126.98 8.24, 129.8 32 C134.25 63.32, 130.17 100.45, 129.8 146.18 C131.86 168.24, 118.58 179.27, 97.8 178.18 C78 176.94, 54.05 182.14, 32 178.18 C10.55 177.3, -1.36 167.96, 0 146.18 C1.15 103.24, -3.49 62.77, 0 32 C1.26 7.11, 7.26 2.59, 32 0" fill="#ffffff" stroke="none" stroke-width="0"></path><path d="M32 0 C45.33 -1, 59.02 -2.05, 97.8 0 M32 0 C58.29 -0.12, 84.28 0.08, 97.8 0 M97.8 0 C118.03 -0.96, 129.13 11.17, 129.8 32 M97.8 0 C117.36 0.14, 129.53 9.22, 129.8 32 M129.8 32 C127.73 77.03, 129.63 123.74, 129.8 146.18 M129.8 32 C131.36 69.35, 131.54 107.16, 129.8 146.18 M129.8 146.18 C128.35 165.69, 117.63 176.33, 97.8 178.18 M129.8 146.18 C128.18 167.56, 120.51 177.86, 97.8 178.18 M97.8 178.18 C81.35 177.36, 63.15 177, 32 178.18 M97.8 178.18 C82.01 177.21, 65.35 177.26, 32 178.18 M32 178.18 C12.61 179.33, 0.44 165.79, 0 146.18 M32 178.18 C11.02 178.85, 1.38 165.92, 0 146.18 M0 146.18 C-1.16 111.28, 1.99 75.01, 0 32 M0 146.18 C0.78 109.05, -0.28 72.4, 0 32 M0 32 C-0.84 10.87, 10.32 -0.88, 32 0 M0 32 C0.77 12.81, 12.42 1.46, 32 0" fill="none" stroke="#1e1e1e" stroke-width="2"></path></g><g transform="translate(251.71611785888672 182.0506488673389) rotate(0 46.27997589111328 25)"><text direction="ltr" dominant-baseline="text-before-edge" fill="#1e1e1e" font-family="Virgil, Segoe UI Emoji" font-size="20px" style="white-space: pre;" text-anchor="middle" x="46.27997589111328" y="0">L4 Load </text><text direction="ltr" dominant-baseline="text-before-edge" fill="#1e1e1e" font-family="Virgil, Segoe UI Emoji" font-size="20px" style="white-space: pre;" text-anchor="middle" x="46.27997589111328" y="25">Balancer</text></g><g stroke-linecap="round" transform="translate(454.33203125 119.07408636733891) rotate(0 61.236328125 83.09375)"><path d="M30.62 0 C44.82 1.79, 62.9 -1.24, 91.85 0 M30.62 0 C50.39 0.46, 68.42 -0.69, 91.85 0 M91.85 0 C114.04 -1.46, 121.55 12.18, 122.47 30.62 M91.85 0 C114.49 1.49, 123.97 12.35, 122.47 30.62 M122.47 30.62 C124.11 54.51, 123.42 72.82, 122.47 135.57 M122.47 30.62 C122.95 65.16, 122.94 100.48, 122.47 135.57 M122.47 135.57 C123.16 154.09, 112.77 167.49, 91.85 166.19 M122.47 135.57 C121.12 154.19, 110.89 168.24, 91.85 166.19 M91.85 166.19 C73.21 167.37, 51.1 168, 30.62 166.19 M91.85 166.19 C71.85 166.85, 50.78 166.26, 30.62 166.19 M30.62 166.19 C9.94 164.53, -0.07 155.16, 0 135.57 M30.62 166.19 C9.61 165.99, 1.53 158.07, 0 135.57 M0 135.57 C0.5 105.07, 1.1 69.2, 0 30.62 M0 135.57 C-0.99 96.18, -0.82 57.59, 0 30.62 M0 30.62 C-0.61 11.14, 10.16 1.74, 30.62 0 M0 30.62 C0.57 8.07, 9.48 -0.78, 30.62 0" fill="none" stroke="#1e1e1e" stroke-width="2"></path></g><g stroke-linecap="round" transform="translate(469.634765625 135.8006488673389) rotate(0 61.236328125 83.09375)"><path d="M30.62 0 C53.33 2.37, 80.77 1.31, 91.85 0 M30.62 0 C47.4 0.3, 64.47 0.45, 91.85 0 M91.85 0 C111.89 -0.99, 124.19 10.02, 122.47 30.62 M91.85 0 C114.4 -2.1, 122.58 12.04, 122.47 30.62 M122.47 30.62 C121.71 62.07, 121.37 91.78, 122.47 135.57 M122.47 30.62 C121.88 67.62, 122.9 102.74, 122.47 135.57 M122.47 135.57 C121.94 155.88, 112.61 164.77, 91.85 166.19 M122.47 135.57 C120.83 153.98, 111.01 167.16, 91.85 166.19 M91.85 166.19 C72.21 165.39, 50.63 165.89, 30.62 166.19 M91.85 166.19 C71.83 165.77, 51.17 165.72, 30.62 166.19 M30.62 166.19 C8.88 164.87, 1.65 156.91, 0 135.57 M30.62 166.19 C8.71 168.38, -1.33 156.36, 0 135.57 M0 135.57 C2.06 100.58, -0.57 68.05, 0 30.62 M0 135.57 C0.39 94.86, 0.58 54.98, 0 30.62 M0 30.62 C0.21 10.53, 9.43 -0.26, 30.62 0 M0 30.62 C-1.95 10.29, 8.33 -0.95, 30.62 0" fill="none" stroke="#1e1e1e" stroke-width="2"></path></g><g transform="translate(475.23114013671875 193.8943988673389) rotate(0 55.63995361328125 25)"><text direction="ltr" dominant-baseline="text-before-edge" fill="#1e1e1e" font-family="Virgil, Segoe UI Emoji" font-size="20px" style="white-space: pre;" text-anchor="middle" x="55.63995361328125" y="0">WebSocket </text><text direction="ltr" dominant-baseline="text-before-edge" fill="#1e1e1e" font-family="Virgil, Segoe UI Emoji" font-size="20px" style="white-space: pre;" text-anchor="middle" x="55.63995361328125" y="25">Service</text></g><g stroke-linecap="round"><g transform="translate(152.890625 200.79526230423863) rotate(0 36.302734375 2.347945188208598)"><path d="M1.01 0.68 C13.15 1.54, 60.03 4.65, 71.89 5.48 M0.08 0 C12.7 0.49, 62.38 3.14, 74.22 3.76" fill="none" stroke="#1e1e1e" stroke-width="1"></path></g><g transform="translate(152.890625 200.79526230423863) rotate(0 36.302734375 2.347945188208598)"><path d="M29.83 -7.65 C24.67 -6.78, 18.52 -4.51, 1.01 0.68 M29.83 -7.65 C19.28 -3.71, 7.73 -1.42, 1.01 0.68" fill="none" stroke="#1e1e1e" stroke-width="1"></path></g><g transform="translate(152.890625 200.79526230423863) rotate(0 36.302734375 2.347945188208598)"><path d="M28.44 12.82 C23.54 9.19, 17.68 6.98, 1.01 0.68 M28.44 12.82 C18.61 9.05, 7.58 3.62, 1.01 0.68" fill="none" stroke="#1e1e1e" stroke-width="1"></path></g><g transform="translate(152.890625 200.79526230423863) rotate(0 36.302734375 2.347945188208598)"><path d="M45.53 12.52 C52.93 9.16, 59.39 7.69, 74.22 3.76 M45.53 12.52 C56.82 10.03, 66.96 5.88, 74.22 3.76" fill="none" stroke="#1e1e1e" stroke-width="1"></path></g><g transform="translate(152.890625 200.79526230423863) rotate(0 36.302734375 2.347945188208598)"><path d="M46.61 -7.97 C53.84 -6.83, 60.05 -3.81, 74.22 3.76 M46.61 -7.97 C57.31 -2.73, 67.04 0.84, 74.22 3.76" fill="none" stroke="#1e1e1e" stroke-width="1"></path></g></g><mask></mask><g stroke-linecap="round"><g transform="translate(371.42187500000006 200.97254996869748) rotate(0 39.07617187499997 -0.4386597417325788)"><path d="M-0.31 0.55 C12.98 0.64, 65.85 -0.13, 78.86 -0.56 M1.74 -0.21 C15 -0.4, 65.77 -2.33, 78.29 -2.52" fill="none" stroke="#1e1e1e" stroke-width="1"></path></g><g transform="translate(371.42187500000006 200.97254996869748) rotate(0 39.07617187499997 -0.4386597417325788)"><path d="M27.77 -10.03 C22.18 -6.51, 15.39 -5.89, -0.31 0.55 M27.77 -10.03 C22.46 -7.3, 16.38 -6.76, -0.31 0.55" fill="none" stroke="#1e1e1e" stroke-width="1"></path></g><g transform="translate(371.42187500000006 200.97254996869748) rotate(0 39.07617187499997 -0.4386597417325788)"><path d="M28 10.49 C22.55 9.33, 15.71 5.27, -0.31 0.55 M28 10.49 C22.64 9.07, 16.51 5.46, -0.31 0.55" fill="none" stroke="#1e1e1e" stroke-width="1"></path></g><g transform="translate(371.42187500000006 200.97254996869748) rotate(0 39.07617187499997 -0.4386597417325788)"><path d="M50.39 8.53 C57.77 7.26, 63.74 2.94, 78.29 -2.52 M50.39 8.53 C56.4 7.41, 61.63 3.58, 78.29 -2.52" fill="none" stroke="#1e1e1e" stroke-width="1"></path></g><g transform="translate(371.42187500000006 200.97254996869748) rotate(0 39.07617187499997 -0.4386597417325788)"><path d="M49.82 -11.98 C57.14 -8.57, 63.24 -8.21, 78.29 -2.52 M49.82 -11.98 C55.94 -8.95, 61.29 -8.63, 78.29 -2.52" fill="none" stroke="#1e1e1e" stroke-width="1"></path></g></g><mask></mask><g stroke-linecap="round" transform="translate(665.91796875 124.52721136733891) rotate(0 57.896484375 78.3671875)"><path d="M28.95 0 C47.54 1.96, 70.78 -0.5, 86.84 0 M28.95 0 C41.21 -1.13, 52.38 -1.18, 86.84 0 M86.84 0 C104.89 0.11, 115.58 9.17, 115.79 28.95 M86.84 0 C104.2 1.19, 117.24 11.4, 115.79 28.95 M115.79 28.95 C115.16 50.38, 114.78 72.31, 115.79 127.79 M115.79 28.95 C116.78 62.58, 115.79 96.79, 115.79 127.79 M115.79 127.79 C115.95 148.36, 104.46 158.62, 86.84 156.73 M115.79 127.79 C117.59 145.36, 106.18 156.61, 86.84 156.73 M86.84 156.73 C64.71 156.61, 43.01 155.67, 28.95 156.73 M86.84 156.73 C69.44 157.41, 50.61 156.31, 28.95 156.73 M28.95 156.73 C9.1 156.11, -1.21 147.45, 0 127.79 M28.95 156.73 C9.37 154.49, -0.88 146.51, 0 127.79 M0 127.79 C1.45 104.27, -0.05 78.78, 0 28.95 M0 127.79 C-0.84 94.38, 0.47 58.9, 0 28.95 M0 28.95 C0.49 8.85, 7.9 1.16, 28.95 0 M0 28.95 C-1.27 11.33, 11.67 -0.24, 28.95 0" fill="none" stroke="#1e1e1e" stroke-width="2"></path></g><g stroke-linecap="round" transform="translate(679.244140625 140.2029926173389) rotate(0 57.896484375 78.3671875)"><path d="M28.95 0 C48.78 -0.35, 66.06 0.57, 86.84 0 M28.95 0 C52.58 0.86, 74.38 0.97, 86.84 0 M86.84 0 C107.44 1.38, 116.06 8.5, 115.79 28.95 M86.84 0 C107.62 -1.9, 116.53 9.39, 115.79 28.95 M115.79 28.95 C114.06 51.86, 117.23 77.53, 115.79 127.79 M115.79 28.95 C113.95 65.16, 115.03 103.44, 115.79 127.79 M115.79 127.79 C115.9 148.88, 104.31 157.23, 86.84 156.73 M115.79 127.79 C117.32 146.85, 104.78 158.76, 86.84 156.73 M86.84 156.73 C72.33 156.84, 60.12 159.17, 28.95 156.73 M86.84 156.73 C64.38 156.88, 44.44 156.23, 28.95 156.73 M28.95 156.73 C10.36 156.79, 0.08 145.47, 0 127.79 M28.95 156.73 C9.39 156.09, 1.76 149.18, 0 127.79 M0 127.79 C-1.3 90.91, -0.42 56.38, 0 28.95 M0 127.79 C0.7 89.22, -0.24 52.8, 0 28.95 M0 28.95 C1.37 11.35, 10.82 -0.27, 28.95 0 M0 28.95 C0.59 10, 11.15 1.05, 28.95 0" fill="none" stroke="#1e1e1e" stroke-width="2"></path></g><g transform="translate(702.8506546020508 193.5701801173389) rotate(0 34.28997039794922 25)"><text direction="ltr" dominant-baseline="text-before-edge" fill="#1e1e1e" font-family="Virgil, Segoe UI Emoji" font-size="20px" style="white-space: pre;" text-anchor="middle" x="34.28997039794922" y="0">Driver </text><text direction="ltr" dominant-baseline="text-before-edge" fill="#1e1e1e" font-family="Virgil, Segoe UI Emoji" font-size="20px" style="white-space: pre;" text-anchor="middle" x="34.28997039794922" y="25">Service</text></g><g stroke-linecap="round"><g transform="translate(604.01171875 207.0272113673389) rotate(0 24.494140625 -0.03125)"><path d="M-0.16 0.39 C7.89 0.34, 40.56 -0.32, 48.67 -0.47 M0.76 0.12 C8.95 0.14, 41.61 0.06, 49.74 0.02" fill="none" stroke="#1e1e1e" stroke-width="1"></path></g><g transform="translate(604.01171875 207.0272113673389) rotate(0 24.494140625 -0.03125)"><path d="M22.71 -8.38 C14.84 -5.69, 4.8 -2.72, -0.16 0.39 M22.71 -8.38 C17.61 -6.86, 12.18 -3.96, -0.16 0.39" fill="none" stroke="#1e1e1e" stroke-width="1"></path></g><g transform="translate(604.01171875 207.0272113673389) rotate(0 24.494140625 -0.03125)"><path d="M23 8.38 C15.04 4.77, 4.89 1.46, -0.16 0.39 M23 8.38 C17.87 6.17, 12.36 5.35, -0.16 0.39" fill="none" stroke="#1e1e1e" stroke-width="1"></path></g><g transform="translate(604.01171875 207.0272113673389) rotate(0 24.494140625 -0.03125)"><path d="M26.76 8.48 C36.11 4.76, 43.28 1.28, 49.74 0.02 M26.76 8.48 C31.88 6.08, 36.63 5.16, 49.74 0.02" fill="none" stroke="#1e1e1e" stroke-width="1"></path></g><g transform="translate(604.01171875 207.0272113673389) rotate(0 24.494140625 -0.03125)"><path d="M26.7 -8.28 C36.05 -5.7, 43.25 -2.9, 49.74 0.02 M26.7 -8.28 C31.81 -6.95, 36.58 -4.15, 49.74 0.02" fill="none" stroke="#1e1e1e" stroke-width="1"></path></g></g><mask></mask></svg>