<svg height="735.349365234375" version="1.1" viewbox="0 0 1151.0788955688477 735.349365234375" width="1151.0788955688477" xmlns="http://www.w3.org/2000/svg">
<!-- svg-source:excalidraw -->
<!-- payload-type:application/vnd.excalidraw+json --><!-- payload-version:2 -->
<defs>
<style class="style-fonts">
</style>
</defs>
<rect fill="#ffffff" height="735.349365234375" width="1151.0788955688477" x="0" y="0"></rect><g stroke-linecap="round" transform="translate(104.27343750000006 114.152099609375) rotate(0 70.79687499999999 299.783203125)"><path d="M32 0 C58 -0.49, 77.69 -0.07, 109.59 0 C131.51 1.38, 143.64 12.22, 141.59 32 C143.71 176.31, 144.54 317.94, 141.59 567.57 C143.11 588.04, 130.06 602.85, 109.59 599.57 C84.59 602.45, 54.76 602.53, 32 599.57 C14.03 597.6, 2.7 590.78, 0 567.57 C2.16 435.1, 2.08 304.38, 0 32 C1.84 8, 10.02 -1.65, 32 0" fill="#ffc9c9" stroke="none" stroke-width="0"></path><path d="M32 0 C59.61 -1.51, 85.72 -0.8, 109.59 0 M109.59 0 C130.19 -1.19, 141.44 12.17, 141.59 32 M141.59 32 C139.18 226.09, 139.58 418.76, 141.59 567.57 M141.59 567.57 C141.3 589.9, 130.35 599.47, 109.59 599.57 M109.59 599.57 C85.76 598.47, 63.76 598.81, 32 599.57 M32 599.57 C10.6 598.28, 1.93 588.12, 0 567.57 M0 567.57 C0.63 402.35, 1.8 238.57, 0 32 M0 32 C1.17 10.82, 12.61 -0.9, 32 0" fill="none" stroke="#1e1e1e" stroke-dasharray="1.5 8" stroke-width="2.5"></path></g><g transform="translate(164.81250000000006 77.343505859375) rotate(0 12.059989929199219 12.5)"><text direction="ltr" dominant-baseline="text-before-edge" fill="#1e1e1e" font-family="Virgil, Segoe UI Emoji" font-size="20px" style="white-space: pre;" text-anchor="start" x="0" y="0">IP</text></g><g stroke-linecap="round" transform="translate(247.16406250000006 176.407958984375) rotate(0 70.79687499999999 236.99609375)"><path d="M32 0 C54.8 1.41, 78.48 1.58, 109.59 0 C129.75 1.99, 144.68 10.63, 141.59 32 C144.74 187.49, 143.43 345.74, 141.59 441.99 C143.8 461.96, 133.01 477.02, 109.59 473.99 C85.2 472.86, 56.78 476.71, 32 473.99 C8.73 472.22, 1.99 463.96, 0 441.99 C0.51 335.42, -0.86 230.88, 0 32 C-1.43 8.65, 11.51 1.84, 32 0" fill="#b2f2bb" stroke="none" stroke-width="0"></path><path d="M32 0 C50.52 -1.06, 70.37 1.64, 109.59 0 M109.59 0 C132.15 -1.98, 140.86 9.93, 141.59 32 M141.59 32 C141.73 184.71, 141.57 336.26, 141.59 441.99 M141.59 441.99 C141.46 462.21, 130.59 472.94, 109.59 473.99 M109.59 473.99 C90 472.47, 72.47 472.97, 32 473.99 M32 473.99 C10.82 472.7, 1.66 461.43, 0 441.99 M0 441.99 C-0.5 347.21, -0.08 251.76, 0 32 M0 32 C-0.17 9.93, 10.66 1.88, 32 0" fill="none" stroke="#1e1e1e" stroke-dasharray="1.5 8" stroke-width="2.5"></path></g><g transform="translate(287.67968750000006 140.823974609375) rotate(0 21.089981079101562 12.5)"><text direction="ltr" dominant-baseline="text-before-edge" fill="#1e1e1e" font-family="Virgil, Segoe UI Emoji" font-size="20px" style="white-space: pre;" text-anchor="start" x="0" y="0">TCP</text></g><g stroke-linecap="round" transform="translate(918.70703125 306.585693359375) rotate(0 70.796875 91.265625)"><path d="M32 0 C57.08 1.38, 87.59 -0.64, 109.59 0 C133.82 2.05, 140.72 12.18, 141.59 32 C143.29 63.35, 143.16 100.46, 141.59 150.53 C143.67 173.09, 133.08 185.9, 109.59 182.53 C88.62 181.49, 73.51 183.9, 32 182.53 C9.1 182.98, 1.2 173.71, 0 150.53 C-1.04 121.74, 1.22 98.83, 0 32 C2.35 10.21, 11.13 1.6, 32 0" fill="#a5d8ff" stroke="none" stroke-width="0"></path><path d="M32 0 C51.89 -2.56, 68.59 -1.32, 109.59 0 M109.59 0 C132.35 0.26, 140.87 10.37, 141.59 32 M141.59 32 C141.12 72.4, 140.91 113.98, 141.59 150.53 M141.59 150.53 C140.63 171.59, 130.3 182.47, 109.59 182.53 M109.59 182.53 C91.44 180.93, 74.65 180.34, 32 182.53 M32 182.53 C9.29 183.55, 0.83 173.04, 0 150.53 M0 150.53 C-1.32 113.32, -1.16 79.44, 0 32 M0 32 C-0.27 10.92, 10.63 0.32, 32 0" fill="none" stroke="#1e1e1e" stroke-dasharray="1.5 8" stroke-width="2.5"></path></g><g mask="url(#mask-gVfnSgMNC17Z0hi4l0tW0)" stroke-linecap="round"><g transform="translate(85.59375000000006 208.042724609375) rotate(0 155.197265625 0.0546875)"><path d="M-1.19 -0.44 C50.32 -0.4, 258 0.94, 309.95 0.96 M0.39 -1.72 C51.63 -2.08, 257.19 -1.13, 308.77 -0.71" fill="none" stroke="#1e1e1e" stroke-width="2"></path></g><g transform="translate(85.59375000000006 208.042724609375) rotate(0 155.197265625 0.0546875)"><path d="M280.52 9.38 C290.33 5.13, 303.09 2.34, 308.77 -0.71 M280.52 9.38 C287.7 6.53, 295.37 3.36, 308.77 -0.71" fill="none" stroke="#1e1e1e" stroke-width="2"></path></g><g transform="translate(85.59375000000006 208.042724609375) rotate(0 155.197265625 0.0546875)"><path d="M280.64 -11.14 C290.53 -7.68, 303.25 -2.77, 308.77 -0.71 M280.64 -11.14 C287.75 -8.58, 295.4 -6.34, 308.77 -0.71" fill="none" stroke="#1e1e1e" stroke-width="2"></path></g></g><mask id="mask-gVfnSgMNC17Z0hi4l0tW0"><rect fill="#fff" height="308.152099609375" width="495.98828125000006" x="0" y="0"></rect><rect fill="#000" height="20" opacity="1" width="28.287979125976562" x="226.64702606201178" y="198.097412109375"></rect></mask><g transform="translate(226.64702606201178 198.097412109375) rotate(0 13.329765829443915 9.528126192807235)"><text direction="ltr" dominant-baseline="text-before-edge" fill="#1e1e1e" font-family="Virgil, Segoe UI Emoji" font-size="16px" style="white-space: pre;" text-anchor="middle" x="14.143989562988281" y="0">SYN</text></g><g transform="translate(430.7349700927735 185.72628021240234) rotate(0 78.33597564697266 67.5)"><text direction="ltr" dominant-baseline="text-before-edge" fill="#1e1e1e" font-family="Virgil, Segoe UI Emoji" font-size="36px" style="white-space: pre;" text-anchor="middle" x="78.33597564697266" y="0">Layer 4 </text><text direction="ltr" dominant-baseline="text-before-edge" fill="#1e1e1e" font-family="Virgil, Segoe UI Emoji" font-size="36px" style="white-space: pre;" text-anchor="middle" x="78.33597564697266" y="45">Load</text><text direction="ltr" dominant-baseline="text-before-edge" fill="#1e1e1e" font-family="Virgil, Segoe UI Emoji" font-size="36px" style="white-space: pre;" text-anchor="middle" x="78.33597564697266" y="90">Balancer</text></g><g transform="translate(-16.189971923828125 376.55428314208984) rotate(270 48.689971923828125 22.5)"><text direction="ltr" dominant-baseline="text-before-edge" fill="#1e1e1e" font-family="Virgil, Segoe UI Emoji" font-size="36px" style="white-space: pre;" text-anchor="start" x="0" y="0">Client</text></g><g mask="url(#mask-ScPW4rj1Zl3mc6phpqoFu)" stroke-linecap="round"><g transform="translate(403.48437500000006 247.273193359375) rotate(0 -158.927734375 -0.052734375)"><path d="M-0.35 -0.06 C-53.31 -0.29, -264.98 -0.66, -317.93 -0.77 M1.67 -1.13 C-51.44 -1.27, -265.49 0.18, -318.92 0.41" fill="none" stroke="#1e1e1e" stroke-width="2"></path></g><g transform="translate(403.48437500000006 247.273193359375) rotate(0 -158.927734375 -0.052734375)"><path d="M-290.79 -10.01 C-298.86 -7.24, -307.91 -4.48, -318.92 0.41 M-290.79 -10.01 C-298.11 -7.5, -305.4 -3.93, -318.92 0.41" fill="none" stroke="#1e1e1e" stroke-width="2"></path></g><g transform="translate(403.48437500000006 247.273193359375) rotate(0 -158.927734375 -0.052734375)"><path d="M-290.67 10.52 C-298.88 7.42, -307.96 4.33, -318.92 0.41 M-290.67 10.52 C-297.93 7.94, -305.25 6.44, -318.92 0.41" fill="none" stroke="#1e1e1e" stroke-width="2"></path></g></g><mask id="mask-ScPW4rj1Zl3mc6phpqoFu"><rect fill="#fff" height="347.378662109375" width="821.33984375" x="0" y="0"></rect><rect fill="#000" height="20" opacity="1" width="65.47193908691406" x="211.82067108154303" y="237.220458984375"></rect></mask><g transform="translate(211.82067108154303 237.220458984375) rotate(0 33.03890968204476 9.68890015179818)"><text direction="ltr" dominant-baseline="text-before-edge" fill="#1e1e1e" font-family="Virgil, Segoe UI Emoji" font-size="16px" style="white-space: pre;" text-anchor="middle" x="32.73596954345703" y="0">SYN-ACK</text></g><g mask="url(#mask-dGVKHop0ApA5jHoYebEQF)" stroke-linecap="round"><g transform="translate(83.57031250000006 283.433349609375) rotate(0 160.66015625 0.015625)"><path d="M-0.2 -0.63 C53.27 -0.54, 267.21 -0.24, 320.74 -0.14 M-1.77 1.65 C52.11 1.99, 269.52 1.38, 323.15 1.31" fill="none" stroke="#1e1e1e" stroke-width="2"></path></g><g transform="translate(83.57031250000006 283.433349609375) rotate(0 160.66015625 0.015625)"><path d="M294.98 11.63 C302.25 7.68, 311.3 5, 323.15 1.31 M294.98 11.63 C303.01 8.37, 311.11 6.07, 323.15 1.31" fill="none" stroke="#1e1e1e" stroke-width="2"></path></g><g transform="translate(83.57031250000006 283.433349609375) rotate(0 160.66015625 0.015625)"><path d="M294.94 -8.89 C302.11 -6.81, 311.16 -3.48, 323.15 1.31 M294.94 -8.89 C302.85 -6.06, 310.96 -2.28, 323.15 1.31" fill="none" stroke="#1e1e1e" stroke-width="2"></path></g></g><mask id="mask-dGVKHop0ApA5jHoYebEQF"><rect fill="#fff" height="383.464599609375" width="504.89062500000006" x="0" y="0"></rect><rect fill="#000" height="20" opacity="1" width="30.60797119140625" x="228.92648315429693" y="273.448974609375"></rect></mask><g transform="translate(228.92648315429693 273.448974609375) rotate(0 15.331842654952766 10.54585526520475)"><text direction="ltr" dominant-baseline="text-before-edge" fill="#1e1e1e" font-family="Virgil, Segoe UI Emoji" font-size="16px" style="white-space: pre;" text-anchor="middle" x="15.303985595703125" y="0">ACK</text></g><g mask="url(#mask-KtM7yOEaHlltNgXkvtTv3)" stroke-linecap="round"><g transform="translate(75.58593750000006 513.964599609375) rotate(0 165.345703125 0.41015625)"><path d="M-0.37 -0.04 C54.71 0.32, 274.82 1.82, 329.92 1.98 M1.63 -1.11 C57.15 -1.04, 277.63 -0.1, 332.23 0.46" fill="none" stroke="#1e1e1e" stroke-width="2"></path></g><g transform="translate(75.58593750000006 513.964599609375) rotate(0 165.345703125 0.41015625)"><path d="M303.97 10.53 C311.03 6.8, 320.13 4.78, 332.23 0.46 M303.97 10.53 C311.78 6.51, 321.92 4.52, 332.23 0.46" fill="none" stroke="#1e1e1e" stroke-width="2"></path></g><g transform="translate(75.58593750000006 513.964599609375) rotate(0 165.345703125 0.41015625)"><path d="M304.11 -9.99 C311.1 -8.55, 320.17 -5.42, 332.23 0.46 M304.11 -9.99 C311.74 -7.7, 321.84 -3.38, 332.23 0.46" fill="none" stroke="#1e1e1e" stroke-width="2"></path></g></g><mask id="mask-KtM7yOEaHlltNgXkvtTv3"><rect fill="#fff" height="614.784912109375" width="506.27734375000006" x="0" y="0"></rect><rect fill="#000" height="20" opacity="1" width="28.207962036132812" x="226.82765960693365" y="504.374755859375"></rect></mask><g transform="translate(226.82765960693365 504.374755859375) rotate(0 14.685997152556666 10.025505923326136)"><text direction="ltr" dominant-baseline="text-before-edge" fill="#1e1e1e" font-family="Virgil, Segoe UI Emoji" font-size="16px" style="white-space: pre;" text-anchor="middle" x="14.103981018066406" y="0">FIN</text></g><g mask="url(#mask-icGwl7ItUxAyPom7No8xA)" stroke-linecap="round"><g transform="translate(77.33193904784054 545.937255859375) rotate(0 161.5234375 -0.220703125)"><path d="M-0.47 0.09 C53.37 -0.01, 268.54 0.78, 322.27 0.55 M1.49 -0.91 C55.78 -0.82, 270.79 -1.13, 324.57 -1.05" fill="none" stroke="#1e1e1e" stroke-width="2"></path></g><g transform="translate(77.33193904784054 545.937255859375) rotate(0 161.5234375 -0.220703125)"><path d="M27.74 -10.12 C21.34 -9.12, 16.19 -7.31, -0.47 0.09 M27.74 -10.12 C21.86 -7.56, 15.71 -5.73, -0.47 0.09" fill="none" stroke="#1e1e1e" stroke-width="2"></path></g><g transform="translate(77.33193904784054 545.937255859375) rotate(0 161.5234375 -0.220703125)"><path d="M27.71 10.4 C21.11 6.56, 15.98 3.53, -0.47 0.09 M27.71 10.4 C21.72 8.21, 15.59 5.3, -0.47 0.09" fill="none" stroke="#1e1e1e" stroke-width="2"></path></g></g><mask id="mask-icGwl7ItUxAyPom7No8xA"><rect fill="#fff" height="646.378662109375" width="500.37881404784054" x="0" y="0"></rect><rect fill="#000" height="20" opacity="1" width="30.60797119140625" x="223.5513909521374" y="535.716552734375"></rect></mask><g transform="translate(223.5513909521374 535.716552734375) rotate(0 15.834228451480186 9.987855951840515)"><text direction="ltr" dominant-baseline="text-before-edge" fill="#1e1e1e" font-family="Virgil, Segoe UI Emoji" font-size="16px" style="white-space: pre;" text-anchor="middle" x="15.303985595703125" y="0">ACK</text></g><g mask="url(#mask-ULwyHcq210t10EVp--iLU)" stroke-linecap="round"><g transform="translate(78.5142467103899 579.077880859375) rotate(0 162.119140625 -1.017578125)"><path d="M-1.14 -0.82 C53.13 -1.25, 270.5 -1.35, 324.85 -1.54 M0.47 1.36 C54.7 1.1, 270.21 -3.08, 324.22 -3.4" fill="none" stroke="#1e1e1e" stroke-width="2"></path></g><g transform="translate(78.5142467103899 579.077880859375) rotate(0 162.119140625 -1.017578125)"><path d="M27.03 -11.15 C19.12 -7.97, 14.7 -5.38, -1.14 -0.82 M27.03 -11.15 C18.38 -8.46, 9.79 -3.98, -1.14 -0.82" fill="none" stroke="#1e1e1e" stroke-width="2"></path></g><g transform="translate(78.5142467103899 579.077880859375) rotate(0 162.119140625 -1.017578125)"><path d="M27.08 9.37 C18.99 7.73, 14.55 5.48, -1.14 -0.82 M27.08 9.37 C18.21 5.74, 9.61 3.91, -1.14 -0.82" fill="none" stroke="#1e1e1e" stroke-width="2"></path></g></g><mask id="mask-ULwyHcq210t10EVp--iLU"><rect fill="#fff" height="681.113037109375" width="502.7525279603899" x="0" y="0"></rect><rect fill="#000" height="20" opacity="1" width="28.207962036132812" x="226.5294063173235" y="568.060302734375"></rect></mask><g transform="translate(226.5294063173235 568.060302734375) rotate(0 13.841459783911688 9.99810748352661)"><text direction="ltr" dominant-baseline="text-before-edge" fill="#1e1e1e" font-family="Virgil, Segoe UI Emoji" font-size="16px" style="white-space: pre;" text-anchor="middle" x="14.103981018066406" y="0">FIN</text></g><g mask="url(#mask-Tu7AzKNBdXtFfoDF7frzj)" stroke-linecap="round"><g transform="translate(76.91805253401407 617.1926921558281) rotate(0 165.263671875 -0.708984375)"><path d="M0.7 0.09 C55.88 -0.32, 276.74 -1.63, 331.69 -1.96 M-0.39 -0.9 C54.69 -1.2, 276.36 -0.73, 331.35 -0.7" fill="none" stroke="#1e1e1e" stroke-width="2"></path></g><g transform="translate(76.91805253401407 617.1926921558281) rotate(0 165.263671875 -0.708984375)"><path d="M303.15 9.52 C313.16 7.71, 322 2.01, 331.35 -0.7 M303.15 9.52 C310.44 6.69, 317.99 4.03, 331.35 -0.7" fill="none" stroke="#1e1e1e" stroke-width="2"></path></g><g transform="translate(76.91805253401407 617.1926921558281) rotate(0 165.263671875 -0.708984375)"><path d="M303.18 -11 C313.26 -5.61, 322.1 -4.11, 331.35 -0.7 M303.18 -11 C310.46 -8.43, 318 -5.68, 331.35 -0.7" fill="none" stroke="#1e1e1e" stroke-width="2"></path></g></g><mask id="mask-Tu7AzKNBdXtFfoDF7frzj"><rect fill="#fff" height="718.6106609058281" width="507.44539628401407" x="0" y="0"></rect><rect fill="#000" height="20" opacity="1" width="30.60797119140625" x="226.87773881331094" y="606.4837077808281"></rect></mask><g transform="translate(226.87773881331094 606.4837077808281) rotate(0 15.693471584697278 9.776473060250282)"><text direction="ltr" dominant-baseline="text-before-edge" fill="#1e1e1e" font-family="Virgil, Segoe UI Emoji" font-size="16px" style="white-space: pre;" text-anchor="middle" x="15.303985595703125" y="0">ACK</text></g><g transform="translate(1063.0489196777344 376.91971588134766) rotate(89.99999999999994 55.52997589111328 22.5)"><text direction="ltr" dominant-baseline="text-before-edge" fill="#1e1e1e" font-family="Virgil, Segoe UI Emoji" font-size="36px" style="white-space: pre;" text-anchor="start" x="0" y="0">Server</text></g><g stroke-linecap="round" transform="translate(630.2497474058393 125.782958984375) rotate(0 70.79687499999997 299.783203125)"><path d="M32 0 C54.04 2.03, 71.94 0.13, 109.59 0 C132.53 -0.04, 138.72 8.47, 141.59 32 C136.58 162.4, 138.6 290.92, 141.59 567.57 C138.73 586.07, 130.34 599.98, 109.59 599.57 C96.28 597.09, 76.16 596.4, 32 599.57 C7.16 596.33, 0.18 588.85, 0 567.57 C4.28 393.97, 2.16 222.37, 0 32 C-2.53 10.46, 13.14 -2.73, 32 0" fill="#ffc9c9" stroke="none" stroke-width="0"></path><path d="M32 0 C56.5 -0.27, 77.49 -0.04, 109.59 0 M109.59 0 C131.25 0.77, 142.73 11.53, 141.59 32 M141.59 32 C142.77 175.79, 143.23 318.1, 141.59 567.57 M141.59 567.57 C142.44 588.42, 130.45 601.39, 109.59 599.57 M109.59 599.57 C83.25 601.17, 54.21 601.21, 32 599.57 M32 599.57 C12.54 598.47, 1.5 589.95, 0 567.57 M0 567.57 C1.2 435.38, 1.16 304.17, 0 32 M0 32 C1.02 9.18, 10.31 -0.92, 32 0" fill="none" stroke="#1e1e1e" stroke-dasharray="1.5 8" stroke-width="2.5"></path></g><g transform="translate(690.7888099058393 88.974365234375) rotate(0 12.059989929199219 12.5)"><text direction="ltr" dominant-baseline="text-before-edge" fill="#1e1e1e" font-family="Virgil, Segoe UI Emoji" font-size="20px" style="white-space: pre;" text-anchor="start" x="0" y="0">IP</text></g><g stroke-linecap="round" transform="translate(773.1403724058391 188.038818359375) rotate(0 70.79687499999997 236.99609375)"><path d="M32 0 C61.95 -0.22, 85.83 -2.37, 109.59 0 C128.85 -3.39, 145 7.2, 141.59 32 C141.81 169.98, 143.06 311.3, 141.59 441.99 C138.56 465.33, 131.18 477.42, 109.59 473.99 C88.34 469.49, 74.29 472.67, 32 473.99 C11.47 471.27, -0.07 466.72, 0 441.99 C0.74 346.98, 3.49 250.69, 0 32 C-1.82 12.91, 13.87 -1.42, 32 0" fill="#b2f2bb" stroke="none" stroke-width="0"></path><path d="M32 0 C54.54 0.78, 77.58 0.88, 109.59 0 M109.59 0 C130.27 1.1, 143.31 10.65, 141.59 32 M141.59 32 C143.34 187.7, 142.61 344.94, 141.59 441.99 M141.59 441.99 C142.82 462.57, 132.08 475.67, 109.59 473.99 M109.59 473.99 C83.71 473.36, 55.58 475.5, 32 473.99 M32 473.99 C9.59 473.01, 1.11 463.68, 0 441.99 M0 441.99 C0.28 336.07, -0.48 231.28, 0 32 M0 32 C-0.79 9.54, 11.13 1.02, 32 0" fill="none" stroke="#1e1e1e" stroke-dasharray="1.5 8" stroke-width="2.5"></path></g><g transform="translate(813.6559974058391 152.454833984375) rotate(0 21.089981079101534 12.5)"><text direction="ltr" dominant-baseline="text-before-edge" fill="#1e1e1e" font-family="Virgil, Segoe UI Emoji" font-size="20px" style="white-space: pre;" text-anchor="start" x="0" y="0">TCP</text></g><g mask="url(#mask-T2nlZbt3JRGQgWG2EYTiw)" stroke-linecap="round"><g transform="translate(610.1481849058391 214.87878535308482) rotate(0 144.48437500000009 2.754821190645089)"><path d="M0.52 -0.39 C48.71 0.58, 241.56 5.39, 289.63 6.54 M-0.67 -1.64 C47.39 -1.04, 240.89 3.91, 289.03 4.95" fill="none" stroke="#1e1e1e" stroke-width="2"></path></g><g transform="translate(610.1481849058391 214.87878535308482) rotate(0 144.48437500000009 2.754821190645089)"><path d="M260.6 14.54 C269.51 12.28, 281.5 7.91, 289.03 4.95 M260.6 14.54 C271.78 10.72, 281.94 8.23, 289.03 4.95" fill="none" stroke="#1e1e1e" stroke-width="2"></path></g><g transform="translate(610.1481849058391 214.87878535308482) rotate(0 144.48437500000009 2.754821190645089)"><path d="M261.09 -5.97 C269.95 -1.29, 281.77 1.28, 289.03 4.95 M261.09 -5.97 C272.2 -1.99, 282.17 3.32, 289.03 4.95" fill="none" stroke="#1e1e1e" stroke-width="2"></path></g></g><mask id="mask-T2nlZbt3JRGQgWG2EYTiw"><rect fill="#fff" height="320.3884277343749" width="999.1169349058392" x="0" y="0"></rect><rect fill="#000" height="20" opacity="1" width="28.287979125976562" x="740.4885703428508" y="207.6336065437299"></rect></mask><g transform="translate(740.488570342851 207.6336065437299) rotate(0 14.140325698037628 9.691574967200722)"><text direction="ltr" dominant-baseline="text-before-edge" fill="#1e1e1e" font-family="Virgil, Segoe UI Emoji" font-size="16px" style="white-space: pre;" text-anchor="middle" x="14.143989562988281" y="0">SYN</text></g><g mask="url(#mask-vcNMb1GfnVYHwZQGDePZ0)" stroke-linecap="round"><g transform="translate(864.8591224058391 258.798583984375) rotate(0 -126.626953125 0)"><path d="M-0.01 0.96 C-42.22 0.75, -210.45 -0.08, -252.57 -0.29 M-1.48 0.43 C-43.84 0.91, -211.2 1.02, -253.16 1.09" fill="none" stroke="#1e1e1e" stroke-width="2"></path></g><g transform="translate(864.8591224058391 258.798583984375) rotate(0 -126.626953125 0)"><path d="M-224.98 -9.21 C-233.3 -4.41, -245.4 -1.05, -253.16 1.09 M-224.98 -9.21 C-232.17 -6.49, -239.98 -2.42, -253.16 1.09" fill="none" stroke="#1e1e1e" stroke-width="2"></path></g><g transform="translate(864.8591224058391 258.798583984375) rotate(0 -126.626953125 0)"><path d="M-224.96 11.32 C-233.45 8.82, -245.56 4.9, -253.16 1.09 M-224.96 11.32 C-232.1 8.37, -239.92 6.77, -253.16 1.09" fill="none" stroke="#1e1e1e" stroke-width="2"></path></g></g><mask id="mask-vcNMb1GfnVYHwZQGDePZ0"><rect fill="#fff" height="358.798583984375" width="1218.1130286558391" x="0" y="0"></rect><rect fill="#000" height="20" opacity="1" width="65.47193908691406" x="705.4961997373821" y="248.798583984375"></rect></mask><g transform="translate(705.4961997373821 248.798583984375) rotate(0 32.77654439829752 10.400513477767845)"><text direction="ltr" dominant-baseline="text-before-edge" fill="#1e1e1e" font-family="Virgil, Segoe UI Emoji" font-size="16px" style="white-space: pre;" text-anchor="middle" x="32.73596954345703" y="0">SYN-ACK</text></g><g mask="url(#mask-F9ZO9BQ5_oGhX3SRPrAmk)" stroke-linecap="round"><g transform="translate(612.3513099058391 296.0694284189133) rotate(0 144.45117187500009 -0.11198471726913795)"><path d="M0.51 -0.29 C48.49 -0.09, 240.43 0.94, 288.61 0.87 M-0.69 -1.49 C47.06 -1.58, 239.19 -0.99, 287.52 -0.68" fill="none" stroke="#1e1e1e" stroke-width="2"></path></g><g transform="translate(612.3513099058391 296.0694284189133) rotate(0 144.45117187500009 -0.11198471726913795)"><path d="M259.28 9.46 C268.9 5.24, 281.28 3.33, 287.52 -0.68 M259.28 9.46 C267.2 6.91, 274.62 4.85, 287.52 -0.68" fill="none" stroke="#1e1e1e" stroke-width="2"></path></g><g transform="translate(612.3513099058391 296.0694284189133) rotate(0 144.45117187500009 -0.11198471726913795)"><path d="M259.37 -11.06 C268.91 -7.95, 281.26 -2.54, 287.52 -0.68 M259.37 -11.06 C267.38 -8.24, 274.78 -4.92, 287.52 -0.68" fill="none" stroke="#1e1e1e" stroke-width="2"></path></g></g><mask id="mask-F9ZO9BQ5_oGhX3SRPrAmk"><rect fill="#fff" height="396.29339785345155" width="1001.2536536558392" x="0" y="0"></rect><rect fill="#000" height="20" opacity="1" width="30.60797119140625" x="741.498496185136" y="285.957443701644"></rect></mask><g transform="translate(741.4984961851361 285.957443701644) rotate(0 14.81638134398034 9.801957904110964)"><text direction="ltr" dominant-baseline="text-before-edge" fill="#1e1e1e" font-family="Virgil, Segoe UI Emoji" font-size="16px" style="white-space: pre;" text-anchor="middle" x="15.303985595703125" y="0">ACK</text></g><g mask="url(#mask-JFJe1s9RJAGlNnAVeGB1e)" stroke-linecap="round"><g transform="translate(600.2731849058391 526.5089479425974) rotate(0 148.54101562500009 1.3362242708888061)"><path d="M0.73 -0.46 C50.41 -0.02, 248.27 3.09, 297.78 3.68 M-0.34 -1.74 C49.27 -1.11, 247.57 1.64, 297.19 2.09" fill="none" stroke="#1e1e1e" stroke-width="2"></path></g><g transform="translate(600.2731849058391 526.5089479425974) rotate(0 148.54101562500009 1.3362242708888061)"><path d="M268.88 12.02 C275.85 10.26, 286.1 7.52, 297.19 2.09 M268.88 12.02 C277.73 9.19, 288.26 4.58, 297.19 2.09" fill="none" stroke="#1e1e1e" stroke-width="2"></path></g><g transform="translate(600.2731849058391 526.5089479425974) rotate(0 148.54101562500009 1.3362242708888061)"><path d="M269.12 -8.5 C276.21 -4.6, 286.4 -1.67, 297.19 2.09 M269.12 -8.5 C278.02 -4.48, 288.46 -2.23, 297.19 2.09" fill="none" stroke="#1e1e1e" stroke-width="2"></path></g></g><mask id="mask-JFJe1s9RJAGlNnAVeGB1e"><rect fill="#fff" height="629.181396484375" width="997.3552161558392" x="0" y="0"></rect><rect fill="#000" height="20" opacity="1" width="28.207962036132812" x="734.7102195127727" y="517.8451722134862"></rect></mask><g transform="translate(734.7102195127728 517.8451722134862) rotate(0 14.281769014974117 9.634398732478758)"><text direction="ltr" dominant-baseline="text-before-edge" fill="#1e1e1e" font-family="Virgil, Segoe UI Emoji" font-size="16px" style="white-space: pre;" text-anchor="middle" x="14.103981018066406" y="0">FIN</text></g><g mask="url(#mask-7_1goELSTTuzocRgEx4Fr)" stroke-linecap="round"><g transform="translate(600.0428083579986 562.1706907868513) rotate(0 149.52920467284056 -0.508319026238155)"><path d="M0.69 0.41 C50.54 0.26, 250.16 0.19, 299.78 0.11 M-0.4 -0.42 C49.29 -0.36, 249.59 -1.17, 299.21 -1.43" fill="none" stroke="#1e1e1e" stroke-width="2"></path></g><g transform="translate(600.0428083579986 562.1706907868513) rotate(0 149.52920467284056 -0.508319026238155)"><path d="M28.87 -9.88 C19.56 -4.84, 10.66 -3.45, 0.69 0.41 M28.87 -9.88 C17.87 -5.62, 7.97 -2.75, 0.69 0.41" fill="none" stroke="#1e1e1e" stroke-width="2"></path></g><g transform="translate(600.0428083579986 562.1706907868513) rotate(0 149.52920467284056 -0.508319026238155)"><path d="M28.89 10.64 C19.4 8.34, 10.5 2.39, 0.69 0.41 M28.89 10.64 C17.77 7.21, 7.87 2.38, 0.69 0.41" fill="none" stroke="#1e1e1e" stroke-width="2"></path></g></g><mask id="mask-7_1goELSTTuzocRgEx4Fr"><rect fill="#fff" height="663.1873288393276" width="999.1012177036797" x="0" y="0"></rect><rect fill="#000" height="20" opacity="1" width="30.60797119140625" x="734.268027435136" y="551.6623717606133"></rect></mask><g transform="translate(734.2680274351361 551.662371760613) rotate(0 15.461566323419106 9.998244631732973)"><text direction="ltr" dominant-baseline="text-before-edge" fill="#1e1e1e" font-family="Virgil, Segoe UI Emoji" font-size="16px" style="white-space: pre;" text-anchor="middle" x="15.303985595703125" y="0">ACK</text></g><g mask="url(#mask-9j3OxWVdDH2NcIIZxzkxo)" stroke-linecap="round"><g transform="translate(608.3019069454492 590.2061596296976) rotate(0 145.99080921038998 2.0442590523387025)"><path d="M-0.66 0.9 C47.99 1.29, 243.93 2.8, 292.61 3.44 M1.2 0.33 C49.68 1.37, 243.81 4.24, 291.99 4.64" fill="none" stroke="#1e1e1e" stroke-width="2"></path></g><g transform="translate(608.3019069454492 590.2061596296976) rotate(0 145.99080921038998 2.0442590523387025)"><path d="M27.62 -9.13 C19.04 -4.63, 6.29 -3.05, -0.66 0.9 M27.62 -9.13 C17.71 -5.36, 8.05 -2.87, -0.66 0.9" fill="none" stroke="#1e1e1e" stroke-width="2"></path></g><g transform="translate(608.3019069454492 590.2061596296976) rotate(0 145.99080921038998 2.0442590523387025)"><path d="M27.45 11.39 C18.74 8.51, 6.05 2.7, -0.66 0.9 M27.45 11.39 C17.57 7.87, 7.97 3.07, -0.66 0.9" fill="none" stroke="#1e1e1e" stroke-width="2"></path></g></g><mask id="mask-9j3OxWVdDH2NcIIZxzkxo"><rect fill="#fff" height="694.2946777343751" width="1000.2835253662291" x="0" y="0"></rect><rect fill="#000" height="20" opacity="1" width="28.207962036132812" x="740.1887351377727" y="582.2504186820365"></rect></mask><g transform="translate(740.1887351377728 582.2504186820363) rotate(0 14.089962801337236 10.43906755938201)"><text direction="ltr" dominant-baseline="text-before-edge" fill="#1e1e1e" font-family="Virgil, Segoe UI Emoji" font-size="16px" style="white-space: pre;" text-anchor="middle" x="14.103981018066406" y="0">FIN</text></g><g mask="url(#mask-Eld8NuTbG7y--lBR_oL3V)" stroke-linecap="round"><g transform="translate(603.1285698718254 632.1876030338356) rotate(0 147.77938065901387 0.11094299849628442)"><path d="M-0.59 0.66 C48.6 0.72, 246.39 -0.29, 295.77 -0.3 M1.3 -0.03 C50.29 0.24, 245.98 1.21, 294.93 0.96" fill="none" stroke="#1e1e1e" stroke-width="2"></path></g><g transform="translate(603.1285698718254 632.1876030338356) rotate(0 147.77938065901387 0.11094299849628442)"><path d="M266.74 11.2 C277.83 8.09, 285.79 4.37, 294.93 0.96 M266.74 11.2 C275.9 7.54, 285.08 4.02, 294.93 0.96" fill="none" stroke="#1e1e1e" stroke-width="2"></path></g><g transform="translate(603.1285698718254 632.1876030338356) rotate(0 147.77938065901387 0.11094299849628442)"><path d="M266.75 -9.32 C277.73 -5.21, 285.68 -1.69, 294.93 0.96 M266.75 -9.32 C276.02 -6.14, 285.19 -2.82, 294.93 0.96" fill="none" stroke="#1e1e1e" stroke-width="2"></path></g></g><mask id="mask-Eld8NuTbG7y--lBR_oL3V"><rect fill="#fff" height="732.4094890308281" width="998.6873311898531" x="0" y="0"></rect><rect fill="#000" height="20" opacity="1" width="30.60797119140625" x="735.6039649351362" y="622.2985460323318"></rect></mask><g transform="translate(735.6039649351362 622.2985460323318) rotate(0 15.114034494757647 10.23836337849366)"><text direction="ltr" dominant-baseline="text-before-edge" fill="#1e1e1e" font-family="Virgil, Segoe UI Emoji" font-size="16px" style="white-space: pre;" text-anchor="middle" x="15.303985595703125" y="0">ACK</text></g><g mask="url(#mask-znQR1Mv8h3sNtUxjW-ltT)" stroke-linecap="round"><g transform="translate(275.3203125 352.41071536528034) rotate(0 408.97070312500006 4.017078074283518)"><path d="M0.15 0.4 C136.54 1.68, 682.29 5.96, 818.56 7.14 M-1.23 -0.44 C135.04 1.01, 681.58 6.72, 817.93 8.21" fill="none" stroke="#1e1e1e" stroke-width="2"></path></g><g transform="translate(275.3203125 352.41071536528034) rotate(0 408.97070312500006 4.017078074283518)"><path d="M789.63 18.17 C799.33 16, 806.17 11.45, 817.93 8.21 M789.63 18.17 C797.1 16.31, 804.71 13.14, 817.93 8.21" fill="none" stroke="#1e1e1e" stroke-width="2"></path></g><g transform="translate(275.3203125 352.41071536528034) rotate(0 408.97070312500006 4.017078074283518)"><path d="M789.85 -2.35 C799.39 2, 806.16 3.97, 817.93 8.21 M789.85 -2.35 C797.18 1.01, 804.74 3.05, 817.93 8.21" fill="none" stroke="#1e1e1e" stroke-width="2"></path></g></g><mask id="mask-znQR1Mv8h3sNtUxjW-ltT"><rect fill="#fff" height="460.4448715138474" width="1193.26171875" x="0" y="0"></rect><rect fill="#000" height="20" opacity="1" width="89.3919677734375" x="639.5950317382812" y="346.42779343956386"></rect></mask><g transform="translate(639.5950317382812 346.42779343956386) rotate(0 44.38709960617592 9.872039046427176)"><text direction="ltr" dominant-baseline="text-before-edge" fill="#1e1e1e" font-family="Virgil, Segoe UI Emoji" font-size="16px" style="white-space: pre;" text-anchor="middle" x="44.69598388671875" y="0">HTTP GET</text></g><g mask="url(#mask-rwi0sA7McaEz286ekENe_)" stroke-linecap="round"><g transform="translate(1087.0820312500002 424.80548936137507) rotate(0 -508.1210937500001 3.2311272423975197)"><path d="M-0.22 -0.55 C-169.77 0.56, -847.43 4.52, -1016.72 5.79 M-1.79 1.78 C-171.6 3.11, -848.78 6.43, -1017.92 6.97" fill="none" stroke="#1e1e1e" stroke-width="2"></path></g><g transform="translate(1087.0820312500002 424.80548936137507) rotate(0 -508.1210937500001 3.2311272423975197)"><path d="M-989.77 -3.41 C-1000.65 -0.61, -1010.74 4.3, -1017.92 6.97 M-989.77 -3.41 C-999.46 0.65, -1009.48 3.05, -1017.92 6.97" fill="none" stroke="#1e1e1e" stroke-width="2"></path></g><g transform="translate(1087.0820312500002 424.80548936137507) rotate(0 -508.1210937500001 3.2311272423975197)"><path d="M-989.68 17.11 C-1000.44 12.71, -1010.56 10.41, -1017.92 6.97 M-989.68 17.11 C-999.53 13.96, -1009.58 9.16, -1017.92 6.97" fill="none" stroke="#1e1e1e" stroke-width="2"></path></g></g><mask id="mask-rwi0sA7McaEz286ekENe_"><rect fill="#fff" height="531.2677438461701" width="2203.3242187500005" x="0" y="0"></rect><rect fill="#000" height="20" opacity="1" width="123.07192993164062" x="517.4249725341799" y="418.0366166037725"></rect></mask><g transform="translate(517.4249725341798 418.0366166037725) rotate(0 60.59131353043489 9.9805625085487)"><text direction="ltr" dominant-baseline="text-before-edge" fill="#1e1e1e" font-family="Virgil, Segoe UI Emoji" font-size="16px" style="white-space: pre;" text-anchor="middle" x="61.53596496582031" y="0">HTTP Response</text></g><g stroke-linecap="round"><g transform="translate(335.0453071594238 41.921875) rotate(0 65.02535718225434 64.1953125)"><path d="M-0.62 -0.03 C19.19 4.45, 98.13 5.37, 119.79 26.82 C141.45 48.27, 127.6 111.87, 129.34 128.68" fill="none" stroke="#1e1e1e" stroke-dasharray="8 10" stroke-width="2.5"></path></g><g transform="translate(335.0453071594238 41.921875) rotate(0 65.02535718225434 64.1953125)"><path d="M120.5 100.01 C123.81 112.51, 128.33 120.68, 129.34 128.68" fill="none" stroke="#1e1e1e" stroke-width="2.5"></path></g><g transform="translate(335.0453071594238 41.921875) rotate(0 65.02535718225434 64.1953125)"><path d="M140.99 101.03 C136.51 113.04, 133.24 120.82, 129.34 128.68" fill="none" stroke="#1e1e1e" stroke-width="2.5"></path></g></g><mask></mask><g transform="translate(145.42421340942383 10) rotate(0 201.15988159179688 10)"><text direction="ltr" dominant-baseline="text-before-edge" fill="#1e1e1e" font-family="Virgil, Segoe UI Emoji" font-size="16px" style="white-space: pre;" text-anchor="start" x="0" y="0">AWS's Network Load Balancer (NLB) is an example</text></g></svg>