<svg height="517.03515625" version="1.1" viewbox="0 0 662.96875 517.03515625" width="662.96875" xmlns="http://www.w3.org/2000/svg">
<!-- svg-source:excalidraw -->
<!-- payload-type:application/vnd.excalidraw+json --><!-- payload-version:2 -->
<defs>
<style class="style-fonts">
</style>
</defs>
<rect fill="#ffffff" height="517.03515625" width="662.96875" x="0" y="0"></rect><g stroke-linecap="round" transform="translate(10 86.888671875) rotate(0 64.42578125 73.314453125)"><path d="M32 0 C54.94 -0.54, 74.03 2.34, 96.85 0 M32 0 C45.63 0.14, 59.86 -0.24, 96.85 0 M96.85 0 C117.93 -0.22, 128.3 12.05, 128.85 32 M96.85 0 C120.24 -1.91, 130.62 11.43, 128.85 32 M128.85 32 C130.02 54.96, 129.29 79.76, 128.85 114.63 M128.85 32 C128.36 55.54, 128.01 77.36, 128.85 114.63 M128.85 114.63 C127.99 136.12, 116.24 145.54, 96.85 146.63 M128.85 114.63 C128.52 137.51, 117.41 145.94, 96.85 146.63 M96.85 146.63 C78.07 145.41, 60.17 145.9, 32 146.63 M96.85 146.63 C83.78 146.64, 71.04 145.89, 32 146.63 M32 146.63 C10.39 145.33, -1.5 137.22, 0 114.63 M32 146.63 C12.9 146.79, -0.61 135.32, 0 114.63 M0 114.63 C-1.44 82.66, -0.59 54.18, 0 32 M0 114.63 C-0.06 95.39, -0.72 76.7, 0 32 M0 32 C1.48 11.35, 11.72 0.82, 32 0 M0 32 C0.3 9.48, 11.25 1.89, 32 0" fill="none" stroke="#1e1e1e" stroke-width="2"></path></g><g transform="translate(47.37580871582031 147.703125) rotate(0 27.049972534179688 12.5)"><text direction="ltr" dominant-baseline="text-before-edge" fill="#1e1e1e" font-family="Virgil, Segoe UI Emoji" font-size="20px" style="white-space: pre;" text-anchor="middle" x="27.049972534179688" y="0">Client</text></g><g stroke-linecap="round" transform="translate(276.234375 91.724609375) rotate(0 63.974609375 74.046875)"><path d="M31.99 0 C45.95 1.43, 63.84 -1.87, 95.96 0 M31.99 0 C53.46 -0.11, 74.9 0.69, 95.96 0 M95.96 0 C119.08 -1.66, 129.48 11.33, 127.95 31.99 M95.96 0 C117.07 -0.99, 127.83 12.41, 127.95 31.99 M127.95 31.99 C127.75 51.19, 130.05 73.87, 127.95 116.11 M127.95 31.99 C127.36 65.37, 126.82 98.05, 127.95 116.11 M127.95 116.11 C127.66 138.78, 116.61 147.5, 95.96 148.09 M127.95 116.11 C127.65 138.02, 116.36 147.91, 95.96 148.09 M95.96 148.09 C77.92 147.48, 64 148.27, 31.99 148.09 M95.96 148.09 C77.16 146.91, 57.9 148.19, 31.99 148.09 M31.99 148.09 C12.61 148.24, -0.53 136.88, 0 116.11 M31.99 148.09 C12.25 149.84, -1.58 136.49, 0 116.11 M0 116.11 C-1.38 97.08, 0.79 77.95, 0 31.99 M0 116.11 C1.35 91.91, 1.14 67.44, 0 31.99 M0 31.99 C0.26 9.63, 11.17 1.65, 31.99 0 M0 31.99 C1.49 11.07, 10.7 -0.18, 31.99 0" fill="none" stroke="#1e1e1e" stroke-width="2"></path></g><g transform="translate(309.35901641845703 153.271484375) rotate(0 30.84996795654297 12.5)"><text direction="ltr" dominant-baseline="text-before-edge" fill="#1e1e1e" font-family="Virgil, Segoe UI Emoji" font-size="20px" style="white-space: pre;" text-anchor="middle" x="30.84996795654297" y="0">Server</text></g><g stroke-linecap="round" transform="translate(516.73828125 216.232421875) rotate(0 68.115234375 68.724609375)"><path d="M44.25 4.04 C52.78 -0.05, 65.41 0.1, 75.1 1.19 C84.79 2.28, 94 5.64, 102.38 10.59 C110.76 15.55, 119.93 22.76, 125.4 30.93 C130.87 39.1, 133.84 49.86, 135.21 59.64 C136.58 69.42, 136.53 80.18, 133.6 89.61 C130.67 99.04, 124.61 109.1, 117.62 116.22 C110.62 123.34, 100.76 128.83, 91.61 132.34 C82.45 135.86, 72.31 138.14, 62.7 137.32 C53.1 136.5, 42.53 132.66, 33.98 127.44 C25.42 122.22, 16.91 114.43, 11.36 105.99 C5.81 97.55, 2.09 86.59, 0.67 76.79 C-0.75 66.98, -0.32 56.5, 2.85 47.16 C6.02 37.82, 11.9 28.22, 19.68 20.76 C27.47 13.3, 43.5 5.49, 49.54 2.39 C55.59 -0.71, 55.62 1.1, 55.97 2.14 M77.36 0.9 C86.87 1.43, 97.86 6.21, 106.26 11.49 C114.67 16.78, 122.87 24.2, 127.79 32.62 C132.71 41.05, 135.32 51.77, 135.78 62.04 C136.25 72.31, 133.85 84.78, 130.61 94.24 C127.36 103.7, 123.36 112.22, 116.32 118.82 C109.27 125.41, 97.8 130.63, 88.34 133.81 C78.88 136.99, 69.42 139.33, 59.56 137.9 C49.7 136.47, 37.73 130.93, 29.18 125.22 C20.64 119.5, 13.06 112.24, 8.3 103.61 C3.55 94.98, 1.27 83.22, 0.64 73.41 C0 63.6, 1.06 53.89, 4.5 44.75 C7.94 35.62, 14.3 25.44, 21.28 18.61 C28.27 11.79, 36.82 6.71, 46.41 3.81 C55.99 0.91, 73.5 1.39, 78.81 1.2 C84.13 1.01, 78.61 1.74, 78.3 2.66" fill="none" stroke="#1e1e1e" stroke-width="2"></path></g><g transform="translate(569.6187794308968 272.3613939265409) rotate(0 15.069992065429688 12.5)"><text direction="ltr" dominant-baseline="text-before-edge" fill="#1e1e1e" font-family="Virgil, Segoe UI Emoji" font-size="20px" style="white-space: pre;" text-anchor="middle" x="15.069992065429688" y="0">DB</text></g><g stroke-linecap="round"><g transform="translate(516.8607525184518 247.5303434162671) rotate(0 -50.43818875922585 -25.245914196290585)"><path d="M-0.15 -0.13 C-16.88 -8.41, -84.6 -41.1, -101.21 -49.66 M-1.69 -1.25 C-18.53 -9.86, -85.95 -43.11, -102.33 -51.35" fill="none" stroke="#1e1e1e" stroke-width="2"></path></g><g transform="translate(516.8607525184518 247.5303434162671) rotate(0 -50.43818875922585 -25.245914196290585)"><path d="M-29.99 -3.27 C-23.38 -3.07, -14.96 -0.01, -0.15 -0.13 M-29.99 -3.27 C-23.59 -3.12, -17.08 -1.25, -0.15 -0.13" fill="none" stroke="#1e1e1e" stroke-width="2"></path></g><g transform="translate(516.8607525184518 247.5303434162671) rotate(0 -50.43818875922585 -25.245914196290585)"><path d="M-20.99 -21.72 C-16.44 -17.31, -10.08 -10.03, -0.15 -0.13 M-20.99 -21.72 C-16.4 -17.53, -11.84 -11.67, -0.15 -0.13" fill="none" stroke="#1e1e1e" stroke-width="2"></path></g></g><mask></mask><g stroke-linecap="round"><g transform="translate(263.234375 162.04078587627578) rotate(0 -53.98828125 -1.4827504557827638)"><path d="M-0.33 0.83 C-18.12 0.19, -89.12 -3.4, -106.9 -3.96 M1.69 0.22 C-16.15 -0.29, -89.11 -2.13, -107.29 -2.95" fill="none" stroke="#1e1e1e" stroke-width="2"></path></g><g transform="translate(263.234375 162.04078587627578) rotate(0 -53.98828125 -1.4827504557827638)"><path d="M-28.96 9.79 C-19.34 9.08, -14.16 6.25, -0.33 0.83 M-28.96 9.79 C-19.46 7.68, -10.39 4.33, -0.33 0.83" fill="none" stroke="#1e1e1e" stroke-width="2"></path></g><g transform="translate(263.234375 162.04078587627578) rotate(0 -53.98828125 -1.4827504557827638)"><path d="M-28.02 -10.71 C-18.7 -5.53, -13.78 -2.47, -0.33 0.83 M-28.02 -10.71 C-18.85 -5.99, -10.1 -2.5, -0.33 0.83" fill="none" stroke="#1e1e1e" stroke-width="2"></path></g></g><mask></mask><g stroke-linecap="round"><g transform="translate(348.8994118942164 358.9072066781255) rotate(0 73.78268008818941 -25.839886283097997)"><path d="M1.07 -1 C25.88 -9.68, 124.09 -42.75, 148.49 -51.28 M0.18 1.09 C24.93 -8.04, 123.61 -44.48, 148.02 -53.19" fill="none" stroke="#1e1e1e" stroke-width="2"></path></g><g transform="translate(348.8994118942164 358.9072066781255) rotate(0 73.78268008818941 -25.839886283097997)"><path d="M125.04 -33.91 C129.5 -37.83, 138.09 -44.8, 148.02 -53.19 M125.04 -33.91 C130.43 -38.64, 136.73 -44.27, 148.02 -53.19" fill="none" stroke="#1e1e1e" stroke-width="2"></path></g><g transform="translate(348.8994118942164 358.9072066781255) rotate(0 73.78268008818941 -25.839886283097997)"><path d="M118.02 -53.19 C124.53 -51.93, 135.03 -53.65, 148.02 -53.19 M118.02 -53.19 C125.21 -53.02, 133.31 -53.69, 148.02 -53.19" fill="none" stroke="#1e1e1e" stroke-width="2"></path></g></g><mask></mask><g stroke-linecap="round" transform="translate(139.58505249023438 258.3515625) rotate(0 96.40625 110)"><path d="M121.25 27.75 C139.88 48.82, 156.79 70.52, 168.56 83.25 M121.25 27.75 C138.6 48.16, 155.74 70.17, 168.56 83.25 M168.56 83.25 C193.14 112.92, 192.44 111.4, 168.56 138.75 M168.56 83.25 C191.82 111.18, 190.57 109.75, 168.56 138.75 M168.56 138.75 C154.81 153.61, 142.41 168.34, 121.25 192.25 M168.56 138.75 C154.25 153.56, 140.43 170.29, 121.25 192.25 M121.25 192.25 C97.33 219.83, 98.3 218.34, 72.75 192.25 M121.25 192.25 C96.68 218.5, 95.28 221.45, 72.75 192.25 M72.75 192.25 C52.89 172.25, 35.69 148.24, 24.25 138.75 M72.75 192.25 C60.84 177.71, 47.99 164.92, 24.25 138.75 M24.25 138.75 C-0.12 110.83, -1.45 111.78, 24.25 83.25 M24.25 138.75 C1.7 111.79, 1.21 111.95, 24.25 83.25 M24.25 83.25 C41.37 67.04, 55.27 48.39, 72.75 27.75 M24.25 83.25 C38.93 67.37, 53.14 50.41, 72.75 27.75 M72.75 27.75 C95.42 -1.87, 97.33 1.77, 121.25 27.75 M72.75 27.75 C94.87 -1.4, 96.37 1.86, 121.25 27.75" fill="none" stroke="#1e1e1e" stroke-width="2"></path></g><g transform="translate(195.2382049560547 343.3515625) rotate(0 40.54997253417969 25)"><text direction="ltr" dominant-baseline="text-before-edge" fill="#1e1e1e" font-family="Virgil, Segoe UI Emoji" font-size="20px" style="white-space: pre;" text-anchor="middle" x="40.54997253417969" y="0">Update </text><text direction="ltr" dominant-baseline="text-before-edge" fill="#1e1e1e" font-family="Virgil, Segoe UI Emoji" font-size="20px" style="white-space: pre;" text-anchor="middle" x="40.54997253417969" y="25">Source</text></g><g stroke-linecap="round"><g transform="translate(454.0889587402344 444.625) rotate(0 35.53515625 -45.1484375)"><path d="M-0.06 0.91 C5.54 -8.92, 21.68 -44.26, 33.5 -59.52 C45.33 -74.77, 64.8 -85.66, 70.91 -90.62" fill="none" stroke="#1e1e1e" stroke-dasharray="8 10" stroke-width="2.5"></path></g><g transform="translate(454.0889587402344 444.625) rotate(0 35.53515625 -45.1484375)"><path d="M57.27 -71.01 C62.84 -77.76, 66.08 -82.67, 70.91 -90.62" fill="none" stroke="#1e1e1e" stroke-width="2.5"></path></g><g transform="translate(454.0889587402344 444.625) rotate(0 35.53515625 -45.1484375)"><path d="M47.86 -84.36 C56.1 -87.23, 62.08 -88.26, 70.91 -90.62" fill="none" stroke="#1e1e1e" stroke-width="2.5"></path></g></g><mask></mask><g transform="translate(364.32191467285156 457.03515625) rotate(0 105.84991455078125 25)"><text direction="ltr" dominant-baseline="text-before-edge" fill="#1e1e1e" font-family="Virgil, Segoe UI Emoji" font-size="20px" style="white-space: pre;" text-anchor="middle" x="105.84991455078125" y="0">Write updates to DB</text><text direction="ltr" dominant-baseline="text-before-edge" fill="#1e1e1e" font-family="Virgil, Segoe UI Emoji" font-size="20px" style="white-space: pre;" text-anchor="middle" x="105.84991455078125" y="25">as they happen</text></g><g stroke-linecap="round"><g transform="translate(316.7764587402344 22.7734375) rotate(0 -56.60546875 55.095703125)"><path d="M-0.16 -0.32 C-14.36 5.92, -67 19.3, -85.81 37.91 C-104.62 56.52, -108.41 99.26, -113.02 111.34" fill="none" stroke="#1e1e1e" stroke-dasharray="8 10" stroke-width="2.5"></path></g><g transform="translate(316.7764587402344 22.7734375) rotate(0 -56.60546875 55.095703125)"><path d="M-116.24 81.52 C-115.86 87.31, -112.76 96.58, -113.02 111.34" fill="none" stroke="#1e1e1e" stroke-width="2.5"></path></g><g transform="translate(316.7764587402344 22.7734375) rotate(0 -56.60546875 55.095703125)"><path d="M-96.31 86.42 C-100.87 90.98, -102.7 99.04, -113.02 111.34" fill="none" stroke="#1e1e1e" stroke-width="2.5"></path></g></g><mask></mask><g transform="translate(334.4851837158203 10) rotate(0 137.59986877441406 12.5)"><text direction="ltr" dominant-baseline="text-before-edge" fill="#1e1e1e" font-family="Virgil, Segoe UI Emoji" font-size="20px" style="white-space: pre;" text-anchor="middle" x="137.59986877441406" y="0">Poll repeatedly for updates</text></g></svg>