<svg height="732.279052734375" version="1.1" viewbox="0 0 1289.4968643188477 732.279052734375" width="1289.4968643188477" xmlns="http://www.w3.org/2000/svg">
<!-- svg-source:excalidraw -->
<!-- payload-type:application/vnd.excalidraw+json --><!-- payload-version:2 -->
<defs>
<style class="style-fonts">
</style>
</defs>
<rect fill="#ffffff" height="732.279052734375" width="1289.4968643188477" x="0" y="0"></rect><g stroke-linecap="round" transform="translate(247.16406250000006 172.122802734375) rotate(0 70.79687499999999 236.99609375)"><path d="M32 0 C54.8 1.41, 78.48 1.58, 109.59 0 C129.75 1.99, 144.68 10.63, 141.59 32 C144.74 187.49, 143.43 345.74, 141.59 441.99 C143.8 461.96, 133.01 477.02, 109.59 473.99 C85.2 472.86, 56.78 476.71, 32 473.99 C8.73 472.22, 1.99 463.96, 0 441.99 C0.51 335.42, -0.86 230.88, 0 32 C-1.43 8.65, 11.51 1.84, 32 0" fill="#b2f2bb" stroke="none" stroke-width="0"></path><path d="M32 0 C50.52 -1.06, 70.37 1.64, 109.59 0 M109.59 0 C132.15 -1.98, 140.86 9.93, 141.59 32 M141.59 32 C141.73 184.71, 141.57 336.26, 141.59 441.99 M141.59 441.99 C141.46 462.21, 130.59 472.94, 109.59 473.99 M109.59 473.99 C90 472.47, 72.47 472.97, 32 473.99 M32 473.99 C10.82 472.7, 1.66 461.43, 0 441.99 M0 441.99 C-0.5 347.21, -0.08 251.76, 0 32 M0 32 C-0.17 9.93, 10.66 1.88, 32 0" fill="none" stroke="#1e1e1e" stroke-dasharray="1.5 8" stroke-width="2.5"></path></g><g stroke-linecap="round" transform="translate(387.2210884094238 299.6551513671875) rotate(0 47.777343749999986 91.265625)"><path d="M23.89 0 C44.66 -2.45, 60.43 -2.9, 71.67 0 C90.72 1.2, 95.88 8.06, 95.55 23.89 C97.51 53.91, 97.21 88.25, 95.55 158.64 C98.34 171.2, 84.3 181.38, 71.67 182.53 C58.39 185.62, 43.24 183.4, 23.89 182.53 C5.04 180.71, 0.89 175.51, 0 158.64 C0.91 126.64, 0.24 88.84, 0 23.89 C0.36 9.24, 5.1 -1.94, 23.89 0" fill="#a5d8ff" stroke="none" stroke-width="0"></path><path d="M23.89 0 C35.55 -0.25, 47.85 -0.76, 71.67 0 M71.67 0 C86.05 -1.47, 95.46 6.05, 95.55 23.89 M95.55 23.89 C95.27 72.89, 95.48 119.65, 95.55 158.64 M95.55 158.64 C95.62 172.58, 86.38 184.31, 71.67 182.53 M71.67 182.53 C54.44 181.1, 37.33 180.69, 23.89 182.53 M23.89 182.53 C9.92 184.44, -1.97 173.86, 0 158.64 M0 158.64 C-0.52 131, -2.27 103.36, 0 23.89 M0 23.89 C-1.3 6.4, 6.04 0.25, 23.89 0" fill="none" stroke="#1e1e1e" stroke-dasharray="1.5 8" stroke-width="2.5"></path></g><g stroke-linecap="round" transform="translate(104.27343750000006 109.866943359375) rotate(0 70.79687499999999 299.783203125)"><path d="M32 0 C58 -0.49, 77.69 -0.07, 109.59 0 C131.51 1.38, 143.64 12.22, 141.59 32 C143.71 176.31, 144.54 317.94, 141.59 567.57 C143.11 588.04, 130.06 602.85, 109.59 599.57 C84.59 602.45, 54.76 602.53, 32 599.57 C14.03 597.6, 2.7 590.78, 0 567.57 C2.16 435.1, 2.08 304.38, 0 32 C1.84 8, 10.02 -1.65, 32 0" fill="#ffc9c9" stroke="none" stroke-width="0"></path><path d="M32 0 C59.61 -1.51, 85.72 -0.8, 109.59 0 M109.59 0 C130.19 -1.19, 141.44 12.17, 141.59 32 M141.59 32 C139.18 226.09, 139.58 418.76, 141.59 567.57 M141.59 567.57 C141.3 589.9, 130.35 599.47, 109.59 599.57 M109.59 599.57 C85.76 598.47, 63.76 598.81, 32 599.57 M32 599.57 C10.6 598.28, 1.93 588.12, 0 567.57 M0 567.57 C0.63 402.35, 1.8 238.57, 0 32 M0 32 C1.17 10.82, 12.61 -0.9, 32 0" fill="none" stroke="#1e1e1e" stroke-dasharray="1.5 8" stroke-width="2.5"></path></g><g transform="translate(254.75000000000006 77.343505859375) rotate(0 12.059989929199219 12.5)"><text direction="ltr" dominant-baseline="text-before-edge" fill="#1e1e1e" font-family="Virgil, Segoe UI Emoji" font-size="20px" style="white-space: pre;" text-anchor="start" x="0" y="0">IP</text></g><g transform="translate(287.67968750000006 136.538818359375) rotate(0 21.089981079101562 12.5)"><text direction="ltr" dominant-baseline="text-before-edge" fill="#1e1e1e" font-family="Virgil, Segoe UI Emoji" font-size="20px" style="white-space: pre;" text-anchor="start" x="0" y="0">TCP</text></g><g stroke-linecap="round" transform="translate(1062.9609375 303.515380859375) rotate(0 70.796875 91.265625)"><path d="M32 0 C57.08 1.38, 87.59 -0.64, 109.59 0 C133.82 2.05, 140.72 12.18, 141.59 32 C143.29 63.35, 143.16 100.46, 141.59 150.53 C143.67 173.09, 133.08 185.9, 109.59 182.53 C88.62 181.49, 73.51 183.9, 32 182.53 C9.1 182.98, 1.2 173.71, 0 150.53 C-1.04 121.74, 1.22 98.83, 0 32 C2.35 10.21, 11.13 1.6, 32 0" fill="#a5d8ff" stroke="none" stroke-width="0"></path><path d="M32 0 C51.89 -2.56, 68.59 -1.32, 109.59 0 M109.59 0 C132.35 0.26, 140.87 10.37, 141.59 32 M141.59 32 C141.12 72.4, 140.91 113.98, 141.59 150.53 M141.59 150.53 C140.63 171.59, 130.3 182.47, 109.59 182.53 M109.59 182.53 C91.44 180.93, 74.65 180.34, 32 182.53 M32 182.53 C9.29 183.55, 0.83 173.04, 0 150.53 M0 150.53 C-1.32 113.32, -1.16 79.44, 0 32 M0 32 C-0.27 10.92, 10.63 0.32, 32 0" fill="none" stroke="#1e1e1e" stroke-dasharray="1.5 8" stroke-width="2.5"></path></g><g mask="url(#mask-gVfnSgMNC17Z0hi4l0tW0)" stroke-linecap="round"><g transform="translate(85.59375000000006 203.757568359375) rotate(0 124.58203125 -1.435546875)"><path d="M-1.19 -0.44 C40.12 -0.9, 206.97 -1.54, 248.72 -2.02 M0.39 -1.72 C41.42 -2.57, 206.17 -3.61, 247.54 -3.69" fill="none" stroke="#1e1e1e" stroke-width="2"></path></g><g transform="translate(85.59375000000006 203.757568359375) rotate(0 124.58203125 -1.435546875)"><path d="M219.4 6.7 C229.16 2.34, 241.89 -0.56, 247.54 -3.69 M219.4 6.7 C226.55 3.77, 234.19 0.52, 247.54 -3.69" fill="none" stroke="#1e1e1e" stroke-width="2"></path></g><g transform="translate(85.59375000000006 203.757568359375) rotate(0 124.58203125 -1.435546875)"><path d="M219.3 -13.82 C229.23 -10.48, 241.99 -5.68, 247.54 -3.69 M219.3 -13.82 C226.44 -11.34, 234.12 -9.18, 247.54 -3.69" fill="none" stroke="#1e1e1e" stroke-width="2"></path></g></g><mask id="mask-gVfnSgMNC17Z0hi4l0tW0"><rect fill="#fff" height="306.628662109375" width="434.75781250000006" x="0" y="0"></rect><rect fill="#000" height="20" opacity="1" width="28.287979125976562" x="196.03179168701178" y="192.322021484375"></rect></mask><g transform="translate(196.03179168701178 192.322021484375) rotate(0 13.329765829443943 9.368897370542413)"><text direction="ltr" dominant-baseline="text-before-edge" fill="#1e1e1e" font-family="Virgil, Segoe UI Emoji" font-size="16px" style="white-space: pre;" text-anchor="middle" x="14.143989562988281" y="0">SYN</text></g><g transform="translate(533.3398818969727 319.33956146240234) rotate(0 76.85997009277344 67.5)"><text direction="ltr" dominant-baseline="text-before-edge" fill="#1e1e1e" font-family="Virgil, Segoe UI Emoji" font-size="36px" style="white-space: pre;" text-anchor="middle" x="76.85997009277344" y="0">Layer 7 </text><text direction="ltr" dominant-baseline="text-before-edge" fill="#1e1e1e" font-family="Virgil, Segoe UI Emoji" font-size="36px" style="white-space: pre;" text-anchor="middle" x="76.85997009277344" y="45">Load</text><text direction="ltr" dominant-baseline="text-before-edge" fill="#1e1e1e" font-family="Virgil, Segoe UI Emoji" font-size="36px" style="white-space: pre;" text-anchor="middle" x="76.85997009277344" y="90">Balancer</text></g><g transform="translate(-16.189971923828125 372.26912689208984) rotate(270 48.689971923828125 22.5)"><text direction="ltr" dominant-baseline="text-before-edge" fill="#1e1e1e" font-family="Virgil, Segoe UI Emoji" font-size="36px" style="white-space: pre;" text-anchor="start" x="0" y="0">Client</text></g><g mask="url(#mask-ScPW4rj1Zl3mc6phpqoFu)" stroke-linecap="round"><g transform="translate(338.88281250000006 242.882568359375) rotate(0 -126.626953125 0)"><path d="M-0.35 -0.06 C-42.54 -0.27, -211.15 -0.57, -253.33 -0.67 M1.67 -1.13 C-40.67 -1.25, -211.65 0.27, -254.32 0.52" fill="none" stroke="#1e1e1e" stroke-width="2"></path></g><g transform="translate(338.88281250000006 242.882568359375) rotate(0 -126.626953125 0)"><path d="M-226.21 -9.95 C-234.27 -7.17, -243.31 -4.4, -254.32 0.52 M-226.21 -9.95 C-233.53 -7.43, -240.81 -3.85, -254.32 0.52" fill="none" stroke="#1e1e1e" stroke-width="2"></path></g><g transform="translate(338.88281250000006 242.882568359375) rotate(0 -126.626953125 0)"><path d="M-226.05 10.57 C-234.26 7.49, -243.35 4.41, -254.32 0.52 M-226.05 10.57 C-233.31 8.01, -240.64 6.52, -254.32 0.52" fill="none" stroke="#1e1e1e" stroke-width="2"></path></g></g><mask id="mask-ScPW4rj1Zl3mc6phpqoFu"><rect fill="#fff" height="342.882568359375" width="692.13671875" x="0" y="0"></rect><rect fill="#000" height="20" opacity="1" width="65.47193908691406" x="179.51988983154303" y="232.882568359375"></rect></mask><g transform="translate(179.51988983154303 232.882568359375) rotate(0 33.03890968204476 9.690116286803118)"><text direction="ltr" dominant-baseline="text-before-edge" fill="#1e1e1e" font-family="Virgil, Segoe UI Emoji" font-size="16px" style="white-space: pre;" text-anchor="middle" x="32.73596954345703" y="0">SYN-ACK</text></g><g mask="url(#mask-dGVKHop0ApA5jHoYebEQF)" stroke-linecap="round"><g transform="translate(83.57031250000006 279.148193359375) rotate(0 126.662109375 -1.40234375)"><path d="M-0.2 -0.63 C41.93 -1.01, 210.55 -2.6, 252.74 -2.97 M-1.77 1.65 C40.77 1.52, 212.86 -0.99, 255.15 -1.52" fill="none" stroke="#1e1e1e" stroke-width="2"></path></g><g transform="translate(83.57031250000006 279.148193359375) rotate(0 126.662109375 -1.40234375)"><path d="M227.1 9.12 C234.34 5.08, 243.35 2.3, 255.15 -1.52 M227.1 9.12 C235.11 5.77, 243.17 3.36, 255.15 -1.52" fill="none" stroke="#1e1e1e" stroke-width="2"></path></g><g transform="translate(83.57031250000006 279.148193359375) rotate(0 126.662109375 -1.40234375)"><path d="M226.82 -11.4 C234.03 -9.42, 243.12 -6.18, 255.15 -1.52 M226.82 -11.4 C234.78 -8.67, 242.92 -4.98, 255.15 -1.52" fill="none" stroke="#1e1e1e" stroke-width="2"></path></g></g><mask id="mask-dGVKHop0ApA5jHoYebEQF"><rect fill="#fff" height="381.952880859375" width="436.89453125000006" x="0" y="0"></rect><rect fill="#000" height="20" opacity="1" width="30.60797119140625" x="194.92843627929693" y="267.745849609375"></rect></mask><g transform="translate(194.92843627929693 267.745849609375) rotate(0 15.331842654952766 10.743144456441541)"><text direction="ltr" dominant-baseline="text-before-edge" fill="#1e1e1e" font-family="Virgil, Segoe UI Emoji" font-size="16px" style="white-space: pre;" text-anchor="middle" x="15.303985595703125" y="0">ACK</text></g><g mask="url(#mask-KtM7yOEaHlltNgXkvtTv3)" stroke-linecap="round"><g transform="translate(75.58593750000006 509.679443359375) rotate(0 128.705078125 0)"><path d="M-0.37 -0.04 C42.5 0.18, 213.75 1.13, 256.64 1.16 M1.63 -1.11 C44.94 -1.17, 216.56 -0.79, 258.95 -0.36" fill="none" stroke="#1e1e1e" stroke-width="2"></path></g><g transform="translate(75.58593750000006 509.679443359375) rotate(0 128.705078125 0)"><path d="M230.7 9.75 C237.76 6.01, 246.86 3.97, 258.95 -0.36 M230.7 9.75 C238.51 5.72, 248.65 3.71, 258.95 -0.36" fill="none" stroke="#1e1e1e" stroke-width="2"></path></g><g transform="translate(75.58593750000006 509.679443359375) rotate(0 128.705078125 0)"><path d="M230.81 -10.77 C237.81 -9.35, 246.89 -6.22, 258.95 -0.36 M230.81 -10.77 C238.45 -8.49, 248.56 -4.19, 258.95 -0.36" fill="none" stroke="#1e1e1e" stroke-width="2"></path></g></g><mask id="mask-KtM7yOEaHlltNgXkvtTv3"><rect fill="#fff" height="609.679443359375" width="432.99609375000006" x="0" y="0"></rect><rect fill="#000" height="20" opacity="1" width="28.207962036132812" x="190.18703460693365" y="499.679443359375"></rect></mask><g transform="translate(190.18703460693365 499.679443359375) rotate(0 14.685997152556666 10.021471477761224)"><text direction="ltr" dominant-baseline="text-before-edge" fill="#1e1e1e" font-family="Virgil, Segoe UI Emoji" font-size="16px" style="white-space: pre;" text-anchor="middle" x="14.103981018066406" y="0">FIN</text></g><g mask="url(#mask-icGwl7ItUxAyPom7No8xA)" stroke-linecap="round"><g transform="translate(77.33193904784054 541.652099609375) rotate(0 128.705078125 0)"><path d="M-0.47 0.09 C42.43 0.06, 213.84 1.15, 256.63 1 M1.49 -0.91 C44.84 -0.75, 216.09 -0.77, 258.94 -0.6" fill="none" stroke="#1e1e1e" stroke-width="2"></path></g><g transform="translate(77.33193904784054 541.652099609375) rotate(0 128.705078125 0)"><path d="M27.77 -10.06 C21.35 -9.07, 16.21 -7.27, -0.47 0.09 M27.77 -10.06 C21.87 -7.51, 15.72 -5.69, -0.47 0.09" fill="none" stroke="#1e1e1e" stroke-width="2"></path></g><g transform="translate(77.33193904784054 541.652099609375) rotate(0 128.705078125 0)"><path d="M27.68 10.46 C21.09 6.61, 15.96 3.57, -0.47 0.09 M27.68 10.46 C21.7 8.26, 15.57 5.33, -0.47 0.09" fill="none" stroke="#1e1e1e" stroke-width="2"></path></g></g><mask id="mask-icGwl7ItUxAyPom7No8xA"><rect fill="#fff" height="641.652099609375" width="434.74209529784054" x="0" y="0"></rect><rect fill="#000" height="20" opacity="1" width="30.60797119140625" x="190.7330315771374" y="531.652099609375"></rect></mask><g transform="translate(190.7330315771374 531.652099609375) rotate(0 15.834228451480158 10.050754976636654)"><text direction="ltr" dominant-baseline="text-before-edge" fill="#1e1e1e" font-family="Virgil, Segoe UI Emoji" font-size="16px" style="white-space: pre;" text-anchor="middle" x="15.303985595703125" y="0">ACK</text></g><g mask="url(#mask-ULwyHcq210t10EVp--iLU)" stroke-linecap="round"><g transform="translate(78.5142467103899 574.792724609375) rotate(0 128.705078125 0)"><path d="M-1.14 -0.82 C42 -0.91, 214.81 0.35, 258.02 0.5 M0.47 1.36 C43.56 1.44, 214.52 -1.38, 257.39 -1.36" fill="none" stroke="#1e1e1e" stroke-width="2"></path></g><g transform="translate(78.5142467103899 574.792724609375) rotate(0 128.705078125 0)"><path d="M27.1 -10.94 C19.17 -7.81, 14.73 -5.28, -1.14 -0.82 M27.1 -10.94 C18.43 -8.32, 9.82 -3.9, -1.14 -0.82" fill="none" stroke="#1e1e1e" stroke-width="2"></path></g><g transform="translate(78.5142467103899 574.792724609375) rotate(0 128.705078125 0)"><path d="M27 9.58 C18.93 7.88, 14.51 5.59, -1.14 -0.82 M27 9.58 C18.16 5.88, 9.58 3.99, -1.14 -0.82" fill="none" stroke="#1e1e1e" stroke-width="2"></path></g></g><mask id="mask-ULwyHcq210t10EVp--iLU"><rect fill="#fff" height="674.792724609375" width="435.9244029603899" x="0" y="0"></rect><rect fill="#000" height="20" opacity="1" width="28.207962036132812" x="193.1153438173235" y="564.792724609375"></rect></mask><g transform="translate(193.1153438173235 564.792724609375) rotate(0 13.841459783911688 9.998863199498714)"><text direction="ltr" dominant-baseline="text-before-edge" fill="#1e1e1e" font-family="Virgil, Segoe UI Emoji" font-size="16px" style="white-space: pre;" text-anchor="middle" x="14.103981018066406" y="0">FIN</text></g><g mask="url(#mask-Tu7AzKNBdXtFfoDF7frzj)" stroke-linecap="round"><g transform="translate(76.91805253401407 612.9075359058281) rotate(0 128.705078125 0)"><path d="M0.7 0.09 C43.7 -0.08, 215.81 -0.45, 258.57 -0.54 M-0.39 -0.9 C42.5 -0.96, 215.43 0.45, 258.24 0.71" fill="none" stroke="#1e1e1e" stroke-width="2"></path></g><g transform="translate(76.91805253401407 612.9075359058281) rotate(0 128.705078125 0)"><path d="M229.97 10.77 C240.01 9.02, 248.87 3.38, 258.24 0.71 M229.97 10.77 C237.28 7.98, 244.84 5.37, 258.24 0.71" fill="none" stroke="#1e1e1e" stroke-width="2"></path></g><g transform="translate(76.91805253401407 612.9075359058281) rotate(0 128.705078125 0)"><path d="M230.12 -9.75 C240.19 -4.3, 249 -2.74, 258.24 0.71 M230.12 -9.75 C237.39 -7.13, 244.91 -4.34, 258.24 0.71" fill="none" stroke="#1e1e1e" stroke-width="2"></path></g></g><mask id="mask-Tu7AzKNBdXtFfoDF7frzj"><rect fill="#fff" height="712.9075359058281" width="434.32820878401407" x="0" y="0"></rect><rect fill="#000" height="20" opacity="1" width="30.60797119140625" x="190.31914506331094" y="602.9075359058281"></rect></mask><g transform="translate(190.31914506331094 602.9075359058281) rotate(0 15.693471584697278 9.904117828579274)"><text direction="ltr" dominant-baseline="text-before-edge" fill="#1e1e1e" font-family="Virgil, Segoe UI Emoji" font-size="16px" style="white-space: pre;" text-anchor="middle" x="15.303985595703125" y="0">ACK</text></g><g transform="translate(1201.4668884277344 373.97049713134766) rotate(89.99999999999994 55.52997589111328 22.5)"><text direction="ltr" dominant-baseline="text-before-edge" fill="#1e1e1e" font-family="Virgil, Segoe UI Emoji" font-size="36px" style="white-space: pre;" text-anchor="start" x="0" y="0">Server</text></g><g stroke-linecap="round" transform="translate(774.5036536558393 122.712646484375) rotate(0 70.79687499999997 299.783203125)"><path d="M32 0 C54.04 2.03, 71.94 0.13, 109.59 0 C132.53 -0.04, 138.72 8.47, 141.59 32 C136.58 162.4, 138.6 290.92, 141.59 567.57 C138.73 586.07, 130.34 599.98, 109.59 599.57 C96.28 597.09, 76.16 596.4, 32 599.57 C7.16 596.33, 0.18 588.85, 0 567.57 C4.28 393.97, 2.16 222.37, 0 32 C-2.53 10.46, 13.14 -2.73, 32 0" fill="#ffc9c9" stroke="none" stroke-width="0"></path><path d="M32 0 C56.5 -0.27, 77.49 -0.04, 109.59 0 M109.59 0 C131.25 0.77, 142.73 11.53, 141.59 32 M141.59 32 C142.77 175.79, 143.23 318.1, 141.59 567.57 M141.59 567.57 C142.44 588.42, 130.45 601.39, 109.59 599.57 M109.59 599.57 C83.25 601.17, 54.21 601.21, 32 599.57 M32 599.57 C12.54 598.47, 1.5 589.95, 0 567.57 M0 567.57 C1.2 435.38, 1.16 304.17, 0 32 M0 32 C1.02 9.18, 10.31 -0.92, 32 0" fill="none" stroke="#1e1e1e" stroke-dasharray="1.5 8" stroke-width="2.5"></path></g><g transform="translate(835.0427161558393 85.904052734375) rotate(0 12.059989929199219 12.5)"><text direction="ltr" dominant-baseline="text-before-edge" fill="#1e1e1e" font-family="Virgil, Segoe UI Emoji" font-size="20px" style="white-space: pre;" text-anchor="start" x="0" y="0">IP</text></g><g stroke-linecap="round" transform="translate(917.3942786558391 184.968505859375) rotate(0 70.79687499999997 236.99609375)"><path d="M32 0 C61.95 -0.22, 85.83 -2.37, 109.59 0 C128.85 -3.39, 145 7.2, 141.59 32 C141.81 169.98, 143.06 311.3, 141.59 441.99 C138.56 465.33, 131.18 477.42, 109.59 473.99 C88.34 469.49, 74.29 472.67, 32 473.99 C11.47 471.27, -0.07 466.72, 0 441.99 C0.74 346.98, 3.49 250.69, 0 32 C-1.82 12.91, 13.87 -1.42, 32 0" fill="#b2f2bb" stroke="none" stroke-width="0"></path><path d="M32 0 C54.54 0.78, 77.58 0.88, 109.59 0 M109.59 0 C130.27 1.1, 143.31 10.65, 141.59 32 M141.59 32 C143.34 187.7, 142.61 344.94, 141.59 441.99 M141.59 441.99 C142.82 462.57, 132.08 475.67, 109.59 473.99 M109.59 473.99 C83.71 473.36, 55.58 475.5, 32 473.99 M32 473.99 C9.59 473.01, 1.11 463.68, 0 441.99 M0 441.99 C0.28 336.07, -0.48 231.28, 0 32 M0 32 C-0.79 9.54, 11.13 1.02, 32 0" fill="none" stroke="#1e1e1e" stroke-dasharray="1.5 8" stroke-width="2.5"></path></g><g transform="translate(957.9099036558391 149.384521484375) rotate(0 21.089981079101562 12.5)"><text direction="ltr" dominant-baseline="text-before-edge" fill="#1e1e1e" font-family="Virgil, Segoe UI Emoji" font-size="20px" style="white-space: pre;" text-anchor="start" x="0" y="0">TCP</text></g><g mask="url(#mask-T2nlZbt3JRGQgWG2EYTiw)" stroke-linecap="round"><g transform="translate(754.4020911558391 211.80847285308482) rotate(0 144.48437500000009 2.754821190645089)"><path d="M0.52 -0.39 C48.71 0.58, 241.56 5.39, 289.63 6.54 M-0.67 -1.64 C47.39 -1.04, 240.89 3.91, 289.03 4.95" fill="none" stroke="#1e1e1e" stroke-width="2"></path></g><g transform="translate(754.4020911558391 211.80847285308482) rotate(0 144.48437500000009 2.754821190645089)"><path d="M260.6 14.54 C269.51 12.28, 281.5 7.91, 289.03 4.95 M260.6 14.54 C271.78 10.72, 281.94 8.23, 289.03 4.95" fill="none" stroke="#1e1e1e" stroke-width="2"></path></g><g transform="translate(754.4020911558391 211.80847285308482) rotate(0 144.48437500000009 2.754821190645089)"><path d="M261.09 -5.97 C269.95 -1.29, 281.77 1.28, 289.03 4.95 M261.09 -5.97 C272.2 -1.99, 282.17 3.32, 289.03 4.95" fill="none" stroke="#1e1e1e" stroke-width="2"></path></g></g><mask id="mask-T2nlZbt3JRGQgWG2EYTiw"><rect fill="#fff" height="317.3181152343749" width="1143.3708411558391" x="0" y="0"></rect><rect fill="#000" height="20" opacity="1" width="28.287979125976562" x="884.7424765928508" y="204.5632940437299"></rect></mask><g transform="translate(884.742476592851 204.5632940437299) rotate(0 14.140325698037628 9.691574967200722)"><text direction="ltr" dominant-baseline="text-before-edge" fill="#1e1e1e" font-family="Virgil, Segoe UI Emoji" font-size="16px" style="white-space: pre;" text-anchor="middle" x="14.143989562988281" y="0">SYN</text></g><g mask="url(#mask-vcNMb1GfnVYHwZQGDePZ0)" stroke-linecap="round"><g transform="translate(1009.1130286558391 255.728271484375) rotate(0 -126.626953125 0)"><path d="M-0.01 0.96 C-42.22 0.75, -210.45 -0.08, -252.57 -0.29 M-1.48 0.43 C-43.84 0.91, -211.2 1.02, -253.16 1.09" fill="none" stroke="#1e1e1e" stroke-width="2"></path></g><g transform="translate(1009.1130286558391 255.728271484375) rotate(0 -126.626953125 0)"><path d="M-224.98 -9.21 C-233.3 -4.41, -245.4 -1.05, -253.16 1.09 M-224.98 -9.21 C-232.17 -6.49, -239.98 -2.42, -253.16 1.09" fill="none" stroke="#1e1e1e" stroke-width="2"></path></g><g transform="translate(1009.1130286558391 255.728271484375) rotate(0 -126.626953125 0)"><path d="M-224.96 11.32 C-233.45 8.82, -245.56 4.9, -253.16 1.09 M-224.96 11.32 C-232.1 8.37, -239.92 6.77, -253.16 1.09" fill="none" stroke="#1e1e1e" stroke-width="2"></path></g></g><mask id="mask-vcNMb1GfnVYHwZQGDePZ0"><rect fill="#fff" height="355.728271484375" width="1362.3669349058391" x="0" y="0"></rect><rect fill="#000" height="20" opacity="1" width="65.47193908691406" x="849.7501059873821" y="245.728271484375"></rect></mask><g transform="translate(849.7501059873821 245.728271484375) rotate(0 32.77654439829752 10.400513477767845)"><text direction="ltr" dominant-baseline="text-before-edge" fill="#1e1e1e" font-family="Virgil, Segoe UI Emoji" font-size="16px" style="white-space: pre;" text-anchor="middle" x="32.73596954345703" y="0">SYN-ACK</text></g><g mask="url(#mask-F9ZO9BQ5_oGhX3SRPrAmk)" stroke-linecap="round"><g transform="translate(752.3825599058391 290.9014596689133) rotate(0 146.56250000000006 0.936843407730862)"><path d="M0.51 -0.29 C49.2 0.26, 243.94 2.68, 292.84 2.97 M-0.69 -1.49 C47.76 -1.23, 242.71 0.76, 291.74 1.42" fill="none" stroke="#1e1e1e" stroke-width="2"></path></g><g transform="translate(752.3825599058391 290.9014596689133) rotate(0 146.56250000000006 0.936843407730862)"><path d="M263.43 11.36 C273.08 7.21, 285.48 5.37, 291.74 1.42 M263.43 11.36 C271.37 8.86, 278.81 6.85, 291.74 1.42" fill="none" stroke="#1e1e1e" stroke-width="2"></path></g><g transform="translate(752.3825599058391 290.9014596689133) rotate(0 146.56250000000006 0.936843407730862)"><path d="M263.67 -9.16 C273.18 -5.98, 285.5 -0.5, 291.74 1.42 M263.67 -9.16 C271.66 -6.29, 279.04 -2.92, 291.74 1.42" fill="none" stroke="#1e1e1e" stroke-width="2"></path></g></g><mask id="mask-F9ZO9BQ5_oGhX3SRPrAmk"><rect fill="#fff" height="392.775146484375" width="1145.5075599058391" x="0" y="0"></rect><rect fill="#000" height="20" opacity="1" width="30.60797119140625" x="883.641074310136" y="281.838303076644"></rect></mask><g transform="translate(883.6410743101361 281.838303076644) rotate(0 14.816381343980368 9.805165088470176)"><text direction="ltr" dominant-baseline="text-before-edge" fill="#1e1e1e" font-family="Virgil, Segoe UI Emoji" font-size="16px" style="white-space: pre;" text-anchor="middle" x="15.303985595703125" y="0">ACK</text></g><g mask="url(#mask-JFJe1s9RJAGlNnAVeGB1e)" stroke-linecap="round"><g transform="translate(744.5270911558391 523.4386354425974) rotate(0 148.54101562500009 1.3362242708888061)"><path d="M0.73 -0.46 C50.41 -0.02, 248.27 3.09, 297.78 3.68 M-0.34 -1.74 C49.27 -1.11, 247.57 1.64, 297.19 2.09" fill="none" stroke="#1e1e1e" stroke-width="2"></path></g><g transform="translate(744.5270911558391 523.4386354425974) rotate(0 148.54101562500009 1.3362242708888061)"><path d="M268.88 12.02 C275.85 10.26, 286.1 7.52, 297.19 2.09 M268.88 12.02 C277.73 9.19, 288.26 4.58, 297.19 2.09" fill="none" stroke="#1e1e1e" stroke-width="2"></path></g><g transform="translate(744.5270911558391 523.4386354425974) rotate(0 148.54101562500009 1.3362242708888061)"><path d="M269.12 -8.5 C276.21 -4.6, 286.4 -1.67, 297.19 2.09 M269.12 -8.5 C278.02 -4.48, 288.46 -2.23, 297.19 2.09" fill="none" stroke="#1e1e1e" stroke-width="2"></path></g></g><mask id="mask-JFJe1s9RJAGlNnAVeGB1e"><rect fill="#fff" height="626.111083984375" width="1141.6091224058391" x="0" y="0"></rect><rect fill="#000" height="20" opacity="1" width="28.207962036132812" x="878.9641257627727" y="514.7748597134862"></rect></mask><g transform="translate(878.9641257627728 514.7748597134862) rotate(0 14.281769014974117 9.634398732478758)"><text direction="ltr" dominant-baseline="text-before-edge" fill="#1e1e1e" font-family="Virgil, Segoe UI Emoji" font-size="16px" style="white-space: pre;" text-anchor="middle" x="14.103981018066406" y="0">FIN</text></g><g mask="url(#mask-7_1goELSTTuzocRgEx4Fr)" stroke-linecap="round"><g transform="translate(744.2967146079986 559.1003782868513) rotate(0 149.52920467284056 -0.508319026238155)"><path d="M0.69 0.41 C50.54 0.26, 250.16 0.19, 299.78 0.11 M-0.4 -0.42 C49.29 -0.36, 249.59 -1.17, 299.21 -1.43" fill="none" stroke="#1e1e1e" stroke-width="2"></path></g><g transform="translate(744.2967146079986 559.1003782868513) rotate(0 149.52920467284056 -0.508319026238155)"><path d="M28.87 -9.88 C19.56 -4.84, 10.66 -3.45, 0.69 0.41 M28.87 -9.88 C17.87 -5.62, 7.97 -2.75, 0.69 0.41" fill="none" stroke="#1e1e1e" stroke-width="2"></path></g><g transform="translate(744.2967146079986 559.1003782868513) rotate(0 149.52920467284056 -0.508319026238155)"><path d="M28.89 10.64 C19.4 8.34, 10.5 2.39, 0.69 0.41 M28.89 10.64 C17.77 7.21, 7.87 2.38, 0.69 0.41" fill="none" stroke="#1e1e1e" stroke-width="2"></path></g></g><mask id="mask-7_1goELSTTuzocRgEx4Fr"><rect fill="#fff" height="660.1170163393276" width="1143.3551239536796" x="0" y="0"></rect><rect fill="#000" height="20" opacity="1" width="30.60797119140625" x="878.521933685136" y="548.5920592606133"></rect></mask><g transform="translate(878.5219336851361 548.592059260613) rotate(0 15.461566323419106 9.998244631732973)"><text direction="ltr" dominant-baseline="text-before-edge" fill="#1e1e1e" font-family="Virgil, Segoe UI Emoji" font-size="16px" style="white-space: pre;" text-anchor="middle" x="15.303985595703125" y="0">ACK</text></g><g mask="url(#mask-9j3OxWVdDH2NcIIZxzkxo)" stroke-linecap="round"><g transform="translate(752.5558131954492 587.1358471296976) rotate(0 145.99080921038998 2.0442590523387025)"><path d="M-0.66 0.9 C47.99 1.29, 243.93 2.8, 292.61 3.44 M1.2 0.33 C49.68 1.37, 243.81 4.24, 291.99 4.64" fill="none" stroke="#1e1e1e" stroke-width="2"></path></g><g transform="translate(752.5558131954492 587.1358471296976) rotate(0 145.99080921038998 2.0442590523387025)"><path d="M27.62 -9.13 C19.04 -4.63, 6.29 -3.05, -0.66 0.9 M27.62 -9.13 C17.71 -5.36, 8.05 -2.87, -0.66 0.9" fill="none" stroke="#1e1e1e" stroke-width="2"></path></g><g transform="translate(752.5558131954492 587.1358471296976) rotate(0 145.99080921038998 2.0442590523387025)"><path d="M27.45 11.39 C18.74 8.51, 6.05 2.7, -0.66 0.9 M27.45 11.39 C17.57 7.87, 7.97 3.07, -0.66 0.9" fill="none" stroke="#1e1e1e" stroke-width="2"></path></g></g><mask id="mask-9j3OxWVdDH2NcIIZxzkxo"><rect fill="#fff" height="691.2243652343751" width="1144.5374316162292" x="0" y="0"></rect><rect fill="#000" height="20" opacity="1" width="28.207962036132812" x="884.4426413877729" y="579.1801061820365"></rect></mask><g transform="translate(884.4426413877728 579.1801061820363) rotate(0 14.089962801337236 10.43906755938201)"><text direction="ltr" dominant-baseline="text-before-edge" fill="#1e1e1e" font-family="Virgil, Segoe UI Emoji" font-size="16px" style="white-space: pre;" text-anchor="middle" x="14.103981018066406" y="0">FIN</text></g><g mask="url(#mask-Eld8NuTbG7y--lBR_oL3V)" stroke-linecap="round"><g transform="translate(747.3824761218254 629.1172905338356) rotate(0 147.77938065901387 0.11094299849628442)"><path d="M-0.59 0.66 C48.6 0.72, 246.39 -0.29, 295.77 -0.3 M1.3 -0.03 C50.29 0.24, 245.98 1.21, 294.93 0.96" fill="none" stroke="#1e1e1e" stroke-width="2"></path></g><g transform="translate(747.3824761218254 629.1172905338356) rotate(0 147.77938065901387 0.11094299849628442)"><path d="M266.74 11.2 C277.83 8.09, 285.79 4.37, 294.93 0.96 M266.74 11.2 C275.9 7.54, 285.08 4.02, 294.93 0.96" fill="none" stroke="#1e1e1e" stroke-width="2"></path></g><g transform="translate(747.3824761218254 629.1172905338356) rotate(0 147.77938065901387 0.11094299849628442)"><path d="M266.75 -9.32 C277.73 -5.21, 285.68 -1.69, 294.93 0.96 M266.75 -9.32 C276.02 -6.14, 285.19 -2.82, 294.93 0.96" fill="none" stroke="#1e1e1e" stroke-width="2"></path></g></g><mask id="mask-Eld8NuTbG7y--lBR_oL3V"><rect fill="#fff" height="729.3391765308281" width="1142.941237439853" x="0" y="0"></rect><rect fill="#000" height="20" opacity="1" width="30.60797119140625" x="879.8578711851362" y="619.2282335323318"></rect></mask><g transform="translate(879.8578711851362 619.2282335323318) rotate(0 15.114034494757647 10.23836337849366)"><text direction="ltr" dominant-baseline="text-before-edge" fill="#1e1e1e" font-family="Virgil, Segoe UI Emoji" font-size="16px" style="white-space: pre;" text-anchor="middle" x="15.303985595703125" y="0">ACK</text></g><g stroke-linecap="round"><g transform="translate(428.34243481832357 41.921875) rotate(0 69.69329571516668 131.001953125)"><path d="M-0.62 -0.03 C18.63 4.45, 93.22 -16.9, 116.43 26.82 C139.65 70.54, 134.82 223.22, 138.68 262.29" fill="none" stroke="#1e1e1e" stroke-dasharray="8 10" stroke-width="2.5"></path></g><g transform="translate(428.34243481832357 41.921875) rotate(0 69.69329571516668 131.001953125)"><path d="M127.43 234.48 C131.65 246.67, 137.09 254.51, 138.68 262.29" fill="none" stroke="#1e1e1e" stroke-width="2.5"></path></g><g transform="translate(428.34243481832357 41.921875) rotate(0 69.69329571516668 131.001953125)"><path d="M147.93 233.75 C144.36 246.11, 142 254.23, 138.68 262.29" fill="none" stroke="#1e1e1e" stroke-width="2.5"></path></g></g><mask></mask><g transform="translate(235.36171340942383 10) rotate(0 211.35186767578125 10)"><text direction="ltr" dominant-baseline="text-before-edge" fill="#1e1e1e" font-family="Virgil, Segoe UI Emoji" font-size="16px" style="white-space: pre;" text-anchor="start" x="0" y="0">AWS's Application Load Balancer (ALB) is an example</text></g><g mask="url(#mask-N3PgYySZRnfK7HaaLkk3t)" stroke-linecap="round"><g transform="translate(704.8304634094238 357.20227702868306) rotate(0 260.744140625 2.3117207518993155)"><path d="M-0.33 0.03 C86.76 0.94, 434.46 3.32, 521.31 4.28 M1.7 -1 C88.72 0.19, 433.34 4.8, 520.27 5.64" fill="none" stroke="#1e1e1e" stroke-width="2"></path></g><g transform="translate(704.8304634094238 357.20227702868306) rotate(0 260.744140625 2.3117207518993155)"><path d="M491.96 15.56 C497.78 13.35, 502.83 10.41, 520.27 5.64 M491.96 15.56 C503.19 12.04, 515.02 6.58, 520.27 5.64" fill="none" stroke="#1e1e1e" stroke-width="2"></path></g><g transform="translate(704.8304634094238 357.20227702868306) rotate(0 260.744140625 2.3117207518993155)"><path d="M492.2 -4.96 C497.78 -3.05, 502.78 -1.88, 520.27 5.64 M492.2 -4.96 C503.19 -0.36, 514.92 2.31, 520.27 5.64" fill="none" stroke="#1e1e1e" stroke-width="2"></path></g></g><mask id="mask-N3PgYySZRnfK7HaaLkk3t"><rect fill="#fff" height="461.8257185324817" width="1326.3187446594238" x="0" y="0"></rect><rect fill="#000" height="25" opacity="1" width="111.73992919921875" x="909.7046394348145" y="347.0139977805825"></rect></mask><g transform="translate(909.7046394348145 347.0139977805825) rotate(0 55.61651727296413 12.508156300950759)"><text direction="ltr" dominant-baseline="text-before-edge" fill="#1e1e1e" font-family="Virgil, Segoe UI Emoji" font-size="20px" style="white-space: pre;" text-anchor="middle" x="55.869964599609375" y="0">HTTP GET</text></g><g mask="url(#mask--GQgDT9WIYcX4JEfSKdvD)" stroke-linecap="round"><g transform="translate(1224.8968696594238 416.11636842879875) rotate(0 -260.11328125000006 0.7587063333387505)"><path d="M-0.79 0.98 C-87.44 1.43, -434.03 1.58, -520.52 1.83 M1 0.44 C-85.78 0.59, -434.75 -0.16, -521.63 -0.14" fill="none" stroke="#1e1e1e" stroke-width="2"></path></g><g transform="translate(1224.8968696594238 416.11636842879875) rotate(0 -260.11328125000006 0.7587063333387505)"><path d="M-493.42 -10.37 C-498.84 -8.52, -506.92 -4.72, -521.63 -0.14 M-493.42 -10.37 C-504.06 -6.2, -513.97 -1.63, -521.63 -0.14" fill="none" stroke="#1e1e1e" stroke-width="2"></path></g><g transform="translate(1224.8968696594238 416.11636842879875) rotate(0 -260.11328125000006 0.7587063333387505)"><path d="M-493.45 10.16 C-498.7 6.94, -506.78 5.66, -521.63 -0.14 M-493.45 10.16 C-503.89 6.59, -513.79 3.43, -521.63 -0.14" fill="none" stroke="#1e1e1e" stroke-width="2"></path></g></g><mask id="mask--GQgDT9WIYcX4JEfSKdvD"><rect fill="#fff" height="517.6337810954763" width="1845.1234321594238" x="0" y="0"></rect><rect fill="#000" height="25" opacity="1" width="153.83985900878906" x="887.8636589050292" y="404.3750747621375"></rect></mask><g transform="translate(887.8636589050293 404.3750747621375) rotate(0 76.71940590519466 12.586170796317447)"><text direction="ltr" dominant-baseline="text-before-edge" fill="#1e1e1e" font-family="Virgil, Segoe UI Emoji" font-size="20px" style="white-space: pre;" text-anchor="middle" x="76.91992950439453" y="0">HTTP Response</text></g><g mask="url(#mask-znQR1Mv8h3sNtUxjW-ltT)" stroke-linecap="round"><g transform="translate(79.17187500000006 356.2383754164059) rotate(0 219.65429687499997 -0.7872785285154578)"><path d="M0.15 0.4 C73.43 0.08, 366.77 -2.04, 439.92 -2.46 M-1.23 -0.44 C71.93 -0.59, 366.06 -1.28, 439.3 -1.39" fill="none" stroke="#1e1e1e" stroke-width="2"></path></g><g transform="translate(79.17187500000006 356.2383754164059) rotate(0 219.65429687499997 -0.7872785285154578)"><path d="M411.13 8.92 C420.79 6.63, 427.59 1.97, 439.3 -1.39 M411.13 8.92 C418.56 6.97, 426.14 3.71, 439.3 -1.39" fill="none" stroke="#1e1e1e" stroke-width="2"></path></g><g transform="translate(79.17187500000006 356.2383754164059) rotate(0 219.65429687499997 -0.7872785285154578)"><path d="M411.09 -11.6 C420.67 -7.37, 427.48 -5.51, 439.3 -1.39 M411.09 -11.6 C418.45 -8.34, 426.04 -6.38, 439.3 -1.39" fill="none" stroke="#1e1e1e" stroke-width="2"></path></g></g><mask id="mask-znQR1Mv8h3sNtUxjW-ltT"><rect fill="#fff" height="457.81293247343683" width="618.48046875" x="0" y="0"></rect><rect fill="#000" height="20" opacity="1" width="89.3919677734375" x="254.13018798828128" y="345.45109688789034"></rect></mask><g transform="translate(254.13018798828128 345.45109688789034) rotate(0 44.387099606175894 9.754838290810653)"><text direction="ltr" dominant-baseline="text-before-edge" fill="#1e1e1e" font-family="Virgil, Segoe UI Emoji" font-size="16px" style="white-space: pre;" text-anchor="middle" x="44.69598388671875" y="0">HTTP GET</text></g><g mask="url(#mask-rwi0sA7McaEz286ekENe_)" stroke-linecap="round"><g transform="translate(515.20703125 426.425537109375) rotate(0 -217.62890625 0.802734375)"><path d="M-0.22 -0.55 C-72.94 -0.25, -363.27 0.47, -435.73 0.93 M-1.79 1.78 C-74.77 2.3, -364.63 2.38, -436.93 2.12" fill="none" stroke="#1e1e1e" stroke-width="2"></path></g><g transform="translate(515.20703125 426.425537109375) rotate(0 -217.62890625 0.802734375)"><path d="M-408.73 -8.11 C-419.62 -5.36, -429.73 -0.51, -436.93 2.12 M-408.73 -8.11 C-418.44 -4.11, -428.48 -1.76, -436.93 2.12" fill="none" stroke="#1e1e1e" stroke-width="2"></path></g><g transform="translate(515.20703125 426.425537109375) rotate(0 -217.62890625 0.802734375)"><path d="M-408.75 12.41 C-419.49 7.95, -429.59 5.6, -436.93 2.12 M-408.75 12.41 C-418.59 9.21, -428.62 4.35, -436.93 2.12" fill="none" stroke="#1e1e1e" stroke-width="2"></path></g></g><mask id="mask-rwi0sA7McaEz286ekENe_"><rect fill="#fff" height="528.031005859375" width="1050.46484375" x="0" y="0"></rect><rect fill="#000" height="20" opacity="1" width="123.07192993164062" x="236.0421600341797" y="417.228271484375"></rect></mask><g transform="translate(236.0421600341797 417.228271484375) rotate(0 60.59131353043486 10.054046433844519)"><text direction="ltr" dominant-baseline="text-before-edge" fill="#1e1e1e" font-family="Virgil, Segoe UI Emoji" font-size="16px" style="white-space: pre;" text-anchor="middle" x="61.53596496582031" y="0">HTTP Response</text></g></svg>