<svg height="409.30027894016496" version="1.1" viewbox="0 0 489.1484375 409.30027894016496" width="489.1484375" xmlns="http://www.w3.org/2000/svg">
<!-- svg-source:excalidraw -->
<!-- payload-type:application/vnd.excalidraw+json --><!-- payload-version:2 -->
<defs>
<style class="style-fonts">
</style>
</defs>
<rect fill="#ffffff" height="409.30027894016496" width="489.1484375" x="0" y="0"></rect><g stroke-linecap="round" transform="translate(10 95.67544637677656) rotate(0 75.259765625 69.61328125)"><path d="M32 0 C52.43 3.76, 68.92 0.41, 118.52 0 C139.48 -2.34, 153.16 14.04, 150.52 32 C149.16 53.23, 151 83.44, 150.52 107.23 C151.78 125.28, 138.89 140.83, 118.52 139.23 C89.17 137.05, 61.25 138.52, 32 139.23 C14.09 136.04, -3.09 126.95, 0 107.23 C1.95 77.64, 1.9 53.28, 0 32 C-3.46 11.42, 8.15 0.44, 32 0" fill="#ffffff" stroke="none" stroke-width="0"></path><path d="M32 0 C64.26 -1.66, 95.97 -2.42, 118.52 0 M32 0 C59.56 -0.35, 86.69 -0.58, 118.52 0 M118.52 0 C141.29 -0.32, 151.45 12.13, 150.52 32 M118.52 0 C137.87 -0.88, 149.91 8.49, 150.52 32 M150.52 32 C150.72 49.22, 150.63 65.34, 150.52 107.23 M150.52 32 C149.27 61.13, 149.7 89.89, 150.52 107.23 M150.52 107.23 C151.69 128.74, 139.76 139.99, 118.52 139.23 M150.52 107.23 C150.3 128.62, 137.76 138.18, 118.52 139.23 M118.52 139.23 C86.08 137.29, 52.9 139.68, 32 139.23 M118.52 139.23 C92.73 139.26, 67.35 139.83, 32 139.23 M32 139.23 C9.06 140.47, -0.76 127.32, 0 107.23 M32 139.23 C10.3 137.33, 0.94 129.09, 0 107.23 M0 107.23 C-0.76 88.76, 0.73 73.22, 0 32 M0 107.23 C-0.27 79.99, -0.63 53.31, 0 32 M0 32 C-1.8 9.76, 12.41 -0.77, 32 0 M0 32 C-0.12 10.6, 8.48 0.69, 32 0" fill="none" stroke="#1e1e1e" stroke-width="2"></path></g><g transform="translate(51.49980163574219 152.78872762677656) rotate(0 33.75996398925781 12.5)"><text direction="ltr" dominant-baseline="text-before-edge" fill="#1e1e1e" font-family="Virgil, Segoe UI Emoji" font-size="20px" style="white-space: pre;" text-anchor="middle" x="33.75996398925781" y="0">Service</text></g><g stroke-linecap="round" transform="translate(349.28218703092944 10) rotate(0 64.93312523453528 22.650148081903666)"><path d="M74.09 -0.72 C84.3 -0.43, 95.39 3.07, 103.78 5.49 C112.17 7.92, 120.17 10.66, 124.43 13.84 C128.68 17.01, 130.57 20.94, 129.32 24.55 C128.07 28.17, 123.32 32.39, 116.92 35.5 C110.53 38.62, 100.91 41.48, 90.97 43.24 C81.02 44.99, 68.16 46.46, 57.26 46.03 C46.37 45.61, 34.3 43.21, 25.58 40.67 C16.86 38.12, 9.01 34.08, 4.95 30.76 C0.9 27.44, -0.16 24.3, 1.25 20.73 C2.66 17.16, 7.15 12.61, 13.42 9.36 C19.7 6.11, 26.62 2.55, 38.92 1.23 C51.22 -0.09, 76.73 0.87, 87.21 1.45 C97.69 2.02, 102.19 4.35, 101.78 4.66 M78.24 0.06 C88.33 0.5, 100.45 2.73, 108.6 5.62 C116.75 8.5, 124.07 13.91, 127.13 17.37 C130.18 20.83, 129.46 22.75, 126.93 26.37 C124.39 30, 118.86 36.02, 111.92 39.15 C104.98 42.28, 95.32 44.32, 85.3 45.15 C75.28 45.98, 62.35 44.95, 51.81 44.14 C41.27 43.32, 30.44 42.67, 22.05 40.25 C13.66 37.84, 5.05 33.41, 1.47 29.67 C-2.12 25.93, -1.86 21.71, 0.56 17.82 C2.98 13.93, 8.44 9.17, 16 6.34 C23.56 3.5, 35.35 1.75, 45.9 0.8 C56.45 -0.15, 74.03 0.39, 79.31 0.64 C84.6 0.88, 77.78 2.11, 77.62 2.28" fill="#ffffff" stroke="none" stroke-width="0"></path><path d="M60.39 0.71 C70.48 0.18, 83.4 1.41, 93.13 3.05 C102.85 4.68, 112.51 7.64, 118.73 10.51 C124.95 13.39, 129.77 16.64, 130.45 20.29 C131.14 23.93, 127.87 28.98, 122.81 32.38 C117.76 35.78, 108.96 38.41, 100.11 40.69 C91.26 42.98, 80.36 45.65, 69.7 46.07 C59.05 46.5, 46 45.03, 36.19 43.22 C26.38 41.41, 16.71 38.49, 10.86 35.2 C5 31.92, 1.84 27.42, 1.05 23.53 C0.27 19.64, 1.58 15.21, 6.16 11.87 C10.73 8.52, 18.78 5.35, 28.51 3.47 C38.23 1.59, 57.54 1.08, 64.5 0.59 C71.47 0.09, 70.08 0.22, 70.3 0.48 M67.19 -0.64 C77.64 -0.64, 88.89 1.89, 97.75 4.15 C106.61 6.42, 114.91 9.84, 120.35 12.96 C125.79 16.07, 130.29 19.2, 130.39 22.84 C130.48 26.47, 126.71 31.56, 120.94 34.76 C115.16 37.96, 105.41 40.2, 95.73 42.03 C86.06 43.87, 73.75 45.6, 62.87 45.76 C52 45.93, 39.67 45.2, 30.47 43.04 C21.27 40.87, 12.8 36.42, 7.68 32.77 C2.56 29.11, -0.58 24.66, -0.23 21.09 C0.11 17.53, 4.35 14.39, 9.77 11.4 C15.2 8.4, 22.85 5.08, 32.34 3.1 C41.83 1.12, 61.18 -0.15, 66.7 -0.49 C72.21 -0.82, 65.36 0.47, 65.44 1.09" fill="none" stroke="#1e1e1e" stroke-width="2"></path></g><g stroke-linecap="round"><g transform="translate(349.2161691112419 31.85493223112144) rotate(0 -0.030008145312535817 63.93835521742466)"><path d="M-0.16 0.15 C0.12 21.39, 0.45 106.39, 0.6 127.59 M-1.7 -0.81 C-1.43 20.6, -0.35 107.45, 0 128.97" fill="none" stroke="#1e1e1e" stroke-width="2"></path></g></g><mask></mask><g stroke-linecap="round" transform="translate(349.12464426803854 133.85561896296917) rotate(0 64.93312523453528 22.650148081903666)"><path d="M36.25 2.21 C45.16 0.05, 58.71 -1.03, 69.61 -0.89 C80.52 -0.75, 92.58 0.83, 101.69 3.05 C110.81 5.28, 119.54 8.79, 124.29 12.48 C129.04 16.17, 131.16 21.39, 130.21 25.21 C129.27 29.02, 124.79 32.49, 118.61 35.35 C112.43 38.22, 102.74 40.58, 93.13 42.38 C83.52 44.19, 71.7 46.27, 60.96 46.18 C50.21 46.08, 37.88 44.18, 28.66 41.81 C19.43 39.45, 10.47 35.46, 5.6 31.99 C0.72 28.52, -1.68 24.6, -0.58 20.98 C0.52 17.36, 4.4 13.68, 12.19 10.28 C19.98 6.89, 38.42 2.18, 46.16 0.61 C53.9 -0.97, 58.2 0.54, 58.62 0.83 M54.22 1.75 C64.05 0.68, 76.18 -1.14, 86.19 0.13 C96.19 1.39, 106.94 6.04, 114.26 9.31 C121.58 12.58, 127.96 16.28, 130.1 19.72 C132.23 23.15, 130.81 26.37, 127.06 29.93 C123.31 33.49, 116.37 38.51, 107.59 41.07 C98.81 43.63, 85.42 44.79, 74.37 45.29 C63.33 45.79, 51.42 45.59, 41.3 44.07 C31.18 42.55, 20.36 39.15, 13.66 36.17 C6.96 33.2, 2.7 29.78, 1.1 26.23 C-0.5 22.68, 0.56 18.14, 4.06 14.85 C7.56 11.56, 13.69 9.09, 22.11 6.49 C30.52 3.89, 49.24 0.13, 54.55 -0.76 C59.86 -1.66, 53.69 0.5, 53.97 1.11" fill="#ffffff" stroke="none" stroke-width="0"></path><path d="M85.94 1.7 C96.17 2.3, 107.63 4.21, 114.69 6.94 C121.75 9.67, 126.52 14.35, 128.3 18.07 C130.08 21.79, 128.76 25.51, 125.37 29.26 C121.99 33.01, 116 37.93, 107.98 40.57 C99.95 43.22, 87.94 44.56, 77.22 45.14 C66.5 45.71, 53.71 45.39, 43.65 44.02 C33.58 42.64, 23.98 39.85, 16.82 36.88 C9.66 33.91, 2.94 29.84, 0.67 26.18 C-1.59 22.52, -0.21 18.25, 3.24 14.91 C6.7 11.57, 13.15 8.56, 21.38 6.13 C29.62 3.71, 40.79 1.06, 52.66 0.37 C64.54 -0.32, 85.16 1.62, 92.62 2.01 C100.09 2.39, 98.06 2.15, 97.46 2.66 M49.85 1.88 C59.85 0.61, 74.66 -0.06, 85.21 0.94 C95.77 1.95, 106.15 5.17, 113.2 7.92 C120.25 10.67, 125.43 13.76, 127.51 17.44 C129.58 21.12, 128.99 26.19, 125.64 30.01 C122.29 33.82, 115.32 38.03, 107.42 40.34 C99.51 42.64, 88.6 43.41, 78.19 43.85 C67.77 44.29, 55.05 43.92, 44.94 42.99 C34.82 42.05, 24.91 40.78, 17.51 38.24 C10.11 35.69, 2.83 31.52, 0.57 27.7 C-1.7 23.87, 0.55 18.8, 3.93 15.27 C7.31 11.74, 12.75 8.82, 20.85 6.53 C28.95 4.23, 47.26 2.17, 52.53 1.49 C57.79 0.81, 52.37 2.18, 52.42 2.44" fill="none" stroke="#1e1e1e" stroke-width="2"></path></g><g stroke-linecap="round" transform="translate(349.27418427637053 124.7239409427682) rotate(0 63.82132345070579 17.02812205759966)"><path d="M8.51 0 C48.84 -2.77, 92.91 -0.93, 119.13 0 C128.36 1.26, 124.37 1.87, 127.64 8.51 C125.54 13.35, 126.81 19.41, 127.64 25.54 C128.05 34.64, 121.62 30.96, 119.13 34.06 C92.96 38.57, 61.2 38.52, 8.51 34.06 C5.19 30.59, 0.75 28.7, 0 25.54 C0.64 19.78, 0.28 15.06, 0 8.51 C-3.34 5.9, 4.04 -2.6, 8.51 0" fill="#ffffff" stroke="none" stroke-width="0"></path><path d="M8.51 0 C46.83 0.7, 86.73 0.19, 119.13 0 M8.51 0 C49.52 -0.53, 90.29 0.89, 119.13 0 M119.13 0 C126.45 -0.15, 128.14 2.6, 127.64 8.51 M119.13 0 C124.7 2.1, 126.21 1.65, 127.64 8.51 M127.64 8.51 C125.93 13.28, 127.74 15.98, 127.64 25.54 M127.64 8.51 C126.85 13.88, 128.39 19.66, 127.64 25.54 M127.64 25.54 C127.06 32.49, 123.12 35.87, 119.13 34.06 M127.64 25.54 C128.45 31.02, 125.16 34.84, 119.13 34.06 M119.13 34.06 C93.01 31.6, 66.88 32.45, 8.51 34.06 M119.13 34.06 C93.22 33.37, 65.88 33.29, 8.51 34.06 M8.51 34.06 C3.97 33.41, -0.52 32.06, 0 25.54 M8.51 34.06 C5 35.55, 1.59 33.49, 0 25.54 M0 25.54 C1.61 18.47, -0.8 15.95, 0 8.51 M0 25.54 C-0.8 21.34, -0.72 17.41, 0 8.51 M0 8.51 C-0.6 3.88, 4.67 -0.12, 8.51 0 M0 8.51 C-0.03 2.6, 1.34 1.69, 8.51 0" fill="none" stroke="transparent" stroke-width="2"></path></g><g stroke-linecap="round"><g transform="translate(478.10231590706417 33.71581584277578) rotate(0 -0.030008145312535817 63.93835521742466)"><path d="M0.86 -0.19 C0.81 21.36, 0.82 107.49, 0.5 128.75 M-0.14 -1.34 C-0.37 19.94, -0.4 105.45, -0.16 127.09" fill="none" stroke="#1e1e1e" stroke-width="2"></path></g></g><mask></mask><g transform="translate(384.1278031182703 104.16382330617375) rotate(0 25.10021209716797 12.159236614609313)"><text direction="ltr" dominant-baseline="text-before-edge" fill="transparent" font-family="Virgil, Segoe UI Emoji" font-size="19.45477858337489px" style="white-space: pre;" text-anchor="start" x="0" y="0">dDat</text></g><g transform="translate(365.60776584964356 89.26495869183509) rotate(0 48.08037567138672 12.159236614609313)"><text direction="ltr" dominant-baseline="text-before-edge" fill="#1e1e1e" font-family="Virgil, Segoe UI Emoji" font-size="19.45477858337489px" style="white-space: pre;" text-anchor="start" x="0" y="0">Database</text></g><g stroke-linecap="round" transform="translate(289.1092723474542 230.14436381338828) rotate(0 64.93312523453528 22.650148081903666)"><path d="M55.17 0.24 C65.09 -0.88, 78.32 -0.63, 88.52 0.91 C98.73 2.45, 109.62 6.33, 116.41 9.46 C123.21 12.59, 127.97 16.2, 129.32 19.68 C130.67 23.17, 128.6 26.94, 124.49 30.38 C120.39 33.82, 112.83 37.82, 104.69 40.33 C96.55 42.83, 86.36 44.87, 75.63 45.4 C64.9 45.92, 50.5 44.86, 40.33 43.47 C30.16 42.08, 21.26 40.06, 14.63 37.03 C8 34.01, 2.31 29.15, 0.56 25.32 C-1.18 21.5, 0.21 17.47, 4.14 14.09 C8.07 10.71, 14.27 7.55, 24.15 5.06 C34.03 2.57, 55.99 -0.04, 63.43 -0.87 C70.88 -1.7, 68.81 -0.58, 68.82 0.07 M84.6 1.91 C94.27 2.77, 103.52 4.77, 110.59 7.37 C117.66 9.98, 124.47 14.08, 127.02 17.55 C129.58 21.01, 128.78 24.6, 125.92 28.15 C123.05 31.71, 117.45 36.1, 109.82 38.86 C102.18 41.63, 90.89 43.62, 80.1 44.75 C69.32 45.88, 55.4 46.91, 45.1 45.64 C34.81 44.38, 25.6 40.05, 18.33 37.16 C11.07 34.27, 3.93 31.71, 1.5 28.29 C-0.93 24.86, 0.68 20.46, 3.76 16.59 C6.85 12.72, 12.42 7.68, 20.01 5.09 C27.59 2.5, 38.54 1.91, 49.25 1.04 C59.97 0.16, 78.81 -0.42, 84.3 -0.17 C89.79 0.08, 82.81 2.06, 82.19 2.55" fill="#ffffff" stroke="none" stroke-width="0"></path><path d="M40.25 1.94 C49.31 0.13, 62.66 -0.2, 73.55 0.16 C84.43 0.52, 97.09 1.93, 105.58 4.11 C114.07 6.3, 120.61 9.74, 124.51 13.28 C128.41 16.82, 130.5 21.37, 128.97 25.34 C127.44 29.31, 121.87 34.06, 115.32 37.1 C108.76 40.13, 99.42 42.25, 89.63 43.56 C79.84 44.88, 67.32 45.65, 56.58 45 C45.85 44.35, 33.93 41.8, 25.23 39.65 C16.53 37.51, 8.57 35.52, 4.39 32.13 C0.21 28.74, -1.48 23.35, 0.16 19.32 C1.8 15.28, 7.07 10.87, 14.21 7.95 C21.36 5.03, 38.02 2.82, 43.03 1.79 C48.04 0.77, 43.99 1.6, 44.27 1.8 M55.35 1.12 C65.52 0.1, 79.16 -0.28, 89.31 0.81 C99.46 1.89, 109.5 4.44, 116.27 7.65 C123.04 10.86, 128.65 16.09, 129.94 20.07 C131.22 24.06, 128.08 28.23, 123.96 31.58 C119.85 34.92, 113.74 37.79, 105.23 40.15 C96.72 42.51, 83.56 45.01, 72.92 45.74 C62.28 46.48, 51.16 45.84, 41.4 44.53 C31.65 43.23, 21.14 41, 14.39 37.89 C7.64 34.78, 2.52 29.64, 0.92 25.89 C-0.67 22.14, 0.95 19.05, 4.81 15.4 C8.68 11.75, 15.29 6.61, 24.13 3.98 C32.97 1.35, 52.45 0.18, 57.87 -0.39 C63.29 -0.95, 56.96 0.05, 56.65 0.6" fill="none" stroke="#1e1e1e" stroke-width="2"></path></g><g stroke-linecap="round"><g transform="translate(289.04325442776667 251.99929604450972) rotate(0 -0.030008145312535817 63.93835521742466)"><path d="M-0.93 0.56 C-0.72 22.05, 0.73 106.59, 0.93 127.79 M0.78 -0.19 C0.94 21.59, 0.69 107.75, 0.5 129.28" fill="none" stroke="#1e1e1e" stroke-width="2"></path></g></g><mask></mask><g stroke-linecap="round" transform="translate(288.9517295845633 353.9999827763577) rotate(0 64.93312523453528 22.650148081903666)"><path d="M65.18 0.94 C75.5 0.76, 88.02 1.75, 97.16 3.37 C106.3 4.99, 114.7 7.46, 120.03 10.64 C125.35 13.82, 128.72 18.53, 129.11 22.46 C129.51 26.38, 127.76 30.94, 122.4 34.18 C117.03 37.42, 106.33 40.02, 96.91 41.91 C87.49 43.81, 76.56 45.6, 65.87 45.55 C55.17 45.51, 42.27 43.59, 32.72 41.64 C23.18 39.68, 14.11 36.94, 8.61 33.83 C3.11 30.71, -0.41 26.81, -0.27 22.93 C-0.14 19.06, 4.16 13.96, 9.41 10.59 C14.65 7.21, 20.45 4.28, 31.19 2.67 C41.93 1.07, 65.41 1.05, 73.87 0.95 C82.32 0.84, 82.22 1.65, 81.89 2.03 M84.73 1.38 C94.79 2.02, 105.11 4.01, 112.46 6.78 C119.8 9.55, 126.47 14.14, 128.8 18.01 C131.13 21.88, 130.18 26.17, 126.44 30 C122.7 33.82, 114.43 38.65, 106.37 40.95 C98.32 43.25, 88.56 43.2, 78.13 43.78 C67.7 44.36, 53.94 45.42, 43.79 44.45 C33.64 43.48, 24.35 41.05, 17.22 37.96 C10.09 34.88, 3.41 29.64, 1.02 25.95 C-1.36 22.25, -0.75 19.36, 2.92 15.79 C6.58 12.22, 14.94 6.89, 23.02 4.53 C31.11 2.16, 41.12 2.23, 51.43 1.62 C61.74 1.01, 79.12 1.05, 84.87 0.89 C90.62 0.72, 86.28 0.14, 85.92 0.66" fill="#ffffff" stroke="none" stroke-width="0"></path><path d="M73.92 -0.45 C84.18 -0.45, 95.21 1.49, 103.63 3.81 C112.05 6.14, 120.34 9.79, 124.47 13.5 C128.59 17.2, 129.67 22.26, 128.39 26.05 C127.11 29.85, 123.09 33.39, 116.78 36.28 C110.47 39.18, 100.51 42.11, 90.53 43.43 C80.55 44.75, 67.76 44.52, 56.88 44.21 C46 43.91, 33.97 43.78, 25.27 41.6 C16.56 39.43, 8.69 34.93, 4.67 31.16 C0.65 27.39, -0.43 22.63, 1.14 18.99 C2.71 15.35, 7.67 12.17, 14.08 9.32 C20.5 6.48, 28.38 3.46, 39.63 1.93 C50.88 0.4, 73.43 0.25, 81.56 0.14 C89.7 0.04, 88.7 0.96, 88.42 1.29 M84.53 -0.16 C94.8 0.84, 106.48 4.74, 113.64 7.78 C120.8 10.82, 125.15 14.53, 127.47 18.08 C129.8 21.63, 130.83 25.42, 127.61 29.08 C124.4 32.74, 116.1 37.28, 108.17 40.06 C100.25 42.84, 90.42 44.82, 80.08 45.76 C69.74 46.7, 56.61 46.96, 46.13 45.7 C35.66 44.44, 24.69 40.99, 17.22 38.19 C9.75 35.38, 3.88 32.75, 1.3 28.9 C-1.28 25.04, -1.8 18.99, 1.75 15.05 C5.3 11.12, 14.39 7.73, 22.61 5.3 C30.84 2.87, 40.99 1.1, 51.12 0.47 C61.24 -0.16, 78.01 1.13, 83.34 1.53 C88.67 1.93, 83.26 2.47, 83.09 2.89" fill="none" stroke="#1e1e1e" stroke-width="2"></path></g><g stroke-linecap="round" transform="translate(289.1012695928955 344.86830475615625) rotate(0 63.82132345070576 17.02812205759966)"><path d="M8.51 0 C32.83 0.99, 62.54 -2.6, 119.13 0 C121.71 -1.61, 130.31 5.59, 127.64 8.51 C130.4 16.61, 124.95 21.33, 127.64 25.54 C125.12 31.66, 121.74 31.83, 119.13 34.06 C84.76 30.73, 53.09 35.27, 8.51 34.06 C0.24 33.34, 0.83 33.83, 0 25.54 C-1.02 20.85, 1.94 12.23, 0 8.51 C-1.95 5.68, 0.65 -0.75, 8.51 0" fill="#ffffff" stroke="none" stroke-width="0"></path><path d="M8.51 0 C50.57 -0.37, 94.93 -1.52, 119.13 0 M8.51 0 C35.65 -0.64, 64.07 0.43, 119.13 0 M119.13 0 C124.71 0.76, 127.45 2.89, 127.64 8.51 M119.13 0 C122.71 -1.05, 129.71 1.85, 127.64 8.51 M127.64 8.51 C129.29 13.73, 127.6 18.01, 127.64 25.54 M127.64 8.51 C126.89 14.46, 126.86 20.41, 127.64 25.54 M127.64 25.54 C126.89 29.98, 124.48 32.41, 119.13 34.06 M127.64 25.54 C128.58 31.75, 123.39 34.4, 119.13 34.06 M119.13 34.06 C80.52 35.65, 41.53 35.15, 8.51 34.06 M119.13 34.06 C74.91 35.26, 30.01 33.84, 8.51 34.06 M8.51 34.06 C4.58 33.29, -0.11 31.16, 0 25.54 M8.51 34.06 C0.65 34.75, -1.97 33.32, 0 25.54 M0 25.54 C-0.19 20.92, -0.26 15.24, 0 8.51 M0 25.54 C0.2 18.42, -0.62 12.18, 0 8.51 M0 8.51 C-0.05 4.82, 3.54 -1.82, 8.51 0 M0 8.51 C-0.62 3.86, 3.42 -0.38, 8.51 0" fill="none" stroke="transparent" stroke-width="2"></path></g><g stroke-linecap="round"><g transform="translate(417.9294012235889 253.8601796561643) rotate(0 -0.030008145312535817 63.93835521742466)"><path d="M-0.06 1.09 C-0.24 22.33, -0.65 106.19, -0.81 127.26 M-1.55 0.62 C-1.37 22.02, 1.02 107.14, 1.52 128.47" fill="none" stroke="#1e1e1e" stroke-width="2"></path></g></g><mask></mask><g transform="translate(323.95488843479484 324.3081871195618) rotate(0 25.10021209716797 12.159236614609313)"><text direction="ltr" dominant-baseline="text-before-edge" fill="transparent" font-family="Virgil, Segoe UI Emoji" font-size="19.45477858337489px" style="white-space: pre;" text-anchor="start" x="0" y="0">dDat</text></g><g transform="translate(327.3645386661681 312.4444787552234) rotate(0 24.857078552246094 12.159236614609313)"><text direction="ltr" dominant-baseline="text-before-edge" fill="#1e1e1e" font-family="Virgil, Segoe UI Emoji" font-size="19.45477858337489px" style="white-space: pre;" text-anchor="start" x="0" y="0">Redis</text></g><g stroke-linecap="round"><g transform="translate(170.44140625 180.30435262677656) rotate(0 56.60546875 56.6015625)"><path d="M-0.43 -1.17 C18.72 17.78, 94.98 94.17, 113.91 113.31 M1.55 0.83 C20.68 20.03, 94.87 96.45, 113.33 114.91" fill="none" stroke="#343a40" stroke-width="2"></path></g><g transform="translate(170.44140625 180.30435262677656) rotate(0 56.60546875 56.6015625)"><path d="M26.76 11.51 C18.83 9.77, 14.93 5.7, -0.43 -1.17 M26.76 11.51 C16.67 6.77, 9.29 2.52, -0.43 -1.17" fill="none" stroke="#343a40" stroke-width="2"></path></g><g transform="translate(170.44140625 180.30435262677656) rotate(0 56.60546875 56.6015625)"><path d="M12.25 26.02 C7.58 21.12, 6.9 13.83, -0.43 -1.17 M12.25 26.02 C7.08 16.38, 4.6 7.21, -0.43 -1.17" fill="none" stroke="#343a40" stroke-width="2"></path></g><g transform="translate(170.44140625 180.30435262677656) rotate(0 56.60546875 56.6015625)"><path d="M86.25 102 C90.27 106.13, 98.39 107.72, 113.33 114.91 M86.25 102 C94.48 105.9, 105.45 110.29, 113.33 114.91" fill="none" stroke="#343a40" stroke-width="2"></path></g><g transform="translate(170.44140625 180.30435262677656) rotate(0 56.60546875 56.6015625)"><path d="M100.88 87.61 C101.61 94.88, 106.5 99.66, 113.33 114.91 M100.88 87.61 C104.15 96.38, 110.17 105.63, 113.33 114.91" fill="none" stroke="#343a40" stroke-width="2"></path></g></g><mask></mask><g stroke-linecap="round"><g transform="translate(170.21484375 147.12857137677656) rotate(0 83.423828125 -24.67578125)"><path d="M0.7 0.11 C28.57 -7.85, 139.12 -40.66, 166.79 -48.89 M-0.39 -0.88 C27.36 -9.1, 138.1 -42.93, 165.81 -50.78" fill="none" stroke="#343a40" stroke-width="2"></path></g><g transform="translate(170.21484375 147.12857137677656) rotate(0 83.423828125 -24.67578125)"><path d="M24.85 -17.7 C18.47 -12.94, 12.67 -8.33, 0.7 0.11 M24.85 -17.7 C18.27 -12.84, 9.77 -6.39, 0.7 0.11" fill="none" stroke="#343a40" stroke-width="2"></path></g><g transform="translate(170.21484375 147.12857137677656) rotate(0 83.423828125 -24.67578125)"><path d="M30.64 1.99 C22.92 1.57, 15.59 0.98, 0.7 0.11 M30.64 1.99 C22.49 0.85, 12.24 1.35, 0.7 0.11" fill="none" stroke="#343a40" stroke-width="2"></path></g><g transform="translate(170.21484375 147.12857137677656) rotate(0 83.423828125 -24.67578125)"><path d="M141.69 -32.94 C148.42 -37.89, 155.38 -42.7, 165.81 -50.78 M141.69 -32.94 C150.06 -38.66, 156.17 -42.99, 165.81 -50.78" fill="none" stroke="#343a40" stroke-width="2"></path></g><g transform="translate(170.21484375 147.12857137677656) rotate(0 83.423828125 -24.67578125)"><path d="M135.87 -52.62 C143.95 -52.4, 152.45 -52.01, 165.81 -50.78 M135.87 -52.62 C145.82 -52.35, 153.7 -50.73, 165.81 -50.78" fill="none" stroke="#343a40" stroke-width="2"></path></g></g><mask></mask><g transform="translate(171.5546875 246.78872762677656) rotate(0 28.53997802734375 25)"><text direction="ltr" dominant-baseline="text-before-edge" fill="#343a40" font-family="Virgil, Segoe UI Emoji" font-size="20px" style="white-space: pre;" text-anchor="middle" x="28.53997802734375" y="0">Check</text><text direction="ltr" dominant-baseline="text-before-edge" fill="#343a40" font-family="Virgil, Segoe UI Emoji" font-size="20px" style="white-space: pre;" text-anchor="middle" x="28.53997802734375" y="25">Cache</text></g><g transform="translate(223.68112182617188 48.87857137677656) rotate(0 27.189971923828125 25)"><text direction="ltr" dominant-baseline="text-before-edge" fill="#343a40" font-family="Virgil, Segoe UI Emoji" font-size="20px" style="white-space: pre;" text-anchor="middle" x="27.189971923828125" y="0">Query</text><text direction="ltr" dominant-baseline="text-before-edge" fill="#343a40" font-family="Virgil, Segoe UI Emoji" font-size="20px" style="white-space: pre;" text-anchor="middle" x="27.189971923828125" y="25">DB</text></g></svg>