<svg height="350.86328125" version="1.1" viewbox="0 0 346.44747110347487 350.86328125" width="346.44747110347487" xmlns="http://www.w3.org/2000/svg">
<!-- svg-source:excalidraw -->
<!-- payload-type:application/vnd.excalidraw+json --><!-- payload-version:2 -->
<defs>
<style class="style-fonts">
</style>
</defs>
<rect fill="#ffffff" height="350.86328125" width="346.44747110347487" x="0" y="0"></rect><g stroke-linecap="round" transform="translate(234.744140625 10) rotate(0 49.41622110347481 47.375)"><path d="M23.69 0 C33.58 -0.11, 50.37 1.66, 75.14 0 C91.25 3.03, 100.68 10.44, 98.83 23.69 C100.63 37.12, 99.14 54.9, 98.83 71.06 C101.36 84.29, 91.67 96.65, 75.14 94.75 C63.04 93.58, 48.55 98.01, 23.69 94.75 C6.72 97.66, -1.88 86.06, 0 71.06 C0.56 60.36, 0.26 44.54, 0 23.69 C2.3 5.84, 5.36 -2.58, 23.69 0" fill="#ffffff" stroke="none" stroke-width="0"></path><path d="M23.69 0 C33.97 -1.56, 44.12 0.97, 75.14 0 M23.69 0 C35.4 -0.79, 45.15 -0.96, 75.14 0 M75.14 0 C90.13 -0.25, 98.01 7.94, 98.83 23.69 M75.14 0 C91.55 -1.36, 97.23 7.36, 98.83 23.69 M98.83 23.69 C97.82 36.6, 98.97 44.93, 98.83 71.06 M98.83 23.69 C99.36 41.42, 98.64 58.59, 98.83 71.06 M98.83 71.06 C97.58 86.45, 92.91 93.76, 75.14 94.75 M98.83 71.06 C98.41 87.89, 89.56 95.94, 75.14 94.75 M75.14 94.75 C57.49 97.07, 38.42 94.68, 23.69 94.75 M75.14 94.75 C57.5 94.41, 38.52 94.61, 23.69 94.75 M23.69 94.75 C9.01 94.91, 0.93 88.6, 0 71.06 M23.69 94.75 C7.19 94.75, -2.15 88.19, 0 71.06 M0 71.06 C-0.99 56.45, -0.6 43.64, 0 23.69 M0 71.06 C-1.18 57.58, -0.34 46.35, 0 23.69 M0 23.69 C-1.02 7.91, 8.07 1.16, 23.69 0 M0 23.69 C0.4 9.49, 8.45 1.87, 23.69 0" fill="none" stroke="#1e1e1e" stroke-width="2"></path></g><g transform="translate(256.90316720943184 37.88914590608201) rotate(0 27.25719451904297 19.485854093918007)"><text direction="ltr" dominant-baseline="text-before-edge" fill="#1e1e1e" font-family="Virgil, Segoe UI Emoji" font-size="15.588683275134402px" style="white-space: pre;" text-anchor="middle" x="27.25719451904297" y="0">Main</text><text direction="ltr" dominant-baseline="text-before-edge" fill="#1e1e1e" font-family="Virgil, Segoe UI Emoji" font-size="15.588683275134402px" style="white-space: pre;" text-anchor="middle" x="27.25719451904297" y="19.485854093918004">(0-100)</text></g><g stroke-linecap="round" transform="translate(236.20096639652525 128.453125) rotate(0 49.41622110347481 47.375)"><path d="M23.69 0 C38.13 2.81, 53.79 2.33, 75.14 0 C92.21 2.03, 99.42 9.21, 98.83 23.69 C101.32 32.1, 99.52 47.55, 98.83 71.06 C98.42 89.19, 89.85 97.49, 75.14 94.75 C59.81 98.57, 44.95 94.86, 23.69 94.75 C7.79 92, -3.22 86.77, 0 71.06 C2.4 50.37, -2.44 31.2, 0 23.69 C-3.58 11.12, 10.22 -1.93, 23.69 0" fill="#ffffff" stroke="none" stroke-width="0"></path><path d="M23.69 0 C34.06 -0.41, 49.7 1.59, 75.14 0 M23.69 0 C36.83 0.16, 50.36 0.3, 75.14 0 M75.14 0 C91.47 -1.18, 97.44 7.43, 98.83 23.69 M75.14 0 C89.44 -0.23, 100.41 6.79, 98.83 23.69 M98.83 23.69 C100.25 41.42, 100.5 61.99, 98.83 71.06 M98.83 23.69 C98.19 38.93, 99.81 54.08, 98.83 71.06 M98.83 71.06 C98.46 87.76, 89.74 95.79, 75.14 94.75 M98.83 71.06 C99.94 86.71, 92.42 95.05, 75.14 94.75 M75.14 94.75 C55.69 92.96, 32.39 95.9, 23.69 94.75 M75.14 94.75 C59.86 94.97, 43.93 95.77, 23.69 94.75 M23.69 94.75 C7.29 94.75, -1.87 88.02, 0 71.06 M23.69 94.75 C7.46 95.6, 0.53 85.91, 0 71.06 M0 71.06 C-0.56 60.8, -0.01 46.81, 0 23.69 M0 71.06 C-0.45 60.79, 0.15 51.09, 0 23.69 M0 23.69 C0.35 9.28, 8.38 1.62, 23.69 0 M0 23.69 C-1.34 6.29, 5.9 -1.63, 23.69 0" fill="none" stroke="#1e1e1e" stroke-width="2"></path></g><g transform="translate(250.7024307250977 156.34227090608198) rotate(0 34.914756774902315 19.485854093917993)"><text direction="ltr" dominant-baseline="text-before-edge" fill="#1e1e1e" font-family="Virgil, Segoe UI Emoji" font-size="15.588683275134402px" style="white-space: pre;" text-anchor="middle" x="34.914756774902344" y="0">Main</text><text direction="ltr" dominant-baseline="text-before-edge" fill="#1e1e1e" font-family="Virgil, Segoe UI Emoji" font-size="15.588683275134402px" style="white-space: pre;" text-anchor="middle" x="34.914756774902344" y="19.485854093918004">(101-200)</text></g><g stroke-linecap="round" transform="translate(237.61502889652525 246.11328125) rotate(0 49.41622110347481 47.375)"><path d="M23.69 0 C44.72 1.38, 63.8 0.66, 75.14 0 C88.48 -0.18, 98.28 10.43, 98.83 23.69 C98.6 36.86, 97.92 48.1, 98.83 71.06 C97.94 89.97, 94.48 93.58, 75.14 94.75 C55.44 91.8, 32.74 94.46, 23.69 94.75 C11.26 94.36, 1.62 89.16, 0 71.06 C-2.98 62.77, 2.93 46.11, 0 23.69 C-1.87 9.15, 10.81 -0.29, 23.69 0" fill="#ffffff" stroke="none" stroke-width="0"></path><path d="M23.69 0 C38.18 -0.6, 53.06 -1.3, 75.14 0 M23.69 0 C38.75 -0.6, 52.58 -0.24, 75.14 0 M75.14 0 C89.63 -0.2, 100.2 6.94, 98.83 23.69 M75.14 0 C93 0.22, 97.69 9.48, 98.83 23.69 M98.83 23.69 C99.74 36.15, 99.13 47.44, 98.83 71.06 M98.83 23.69 C99.12 37.4, 98.7 50.73, 98.83 71.06 M98.83 71.06 C99.8 86.73, 92.23 95.01, 75.14 94.75 M98.83 71.06 C101.12 85.83, 90.48 96.02, 75.14 94.75 M75.14 94.75 C64.21 94.93, 53.53 96.19, 23.69 94.75 M75.14 94.75 C59 95.2, 42.53 95.78, 23.69 94.75 M23.69 94.75 C7.52 95.49, 0.46 86.04, 0 71.06 M23.69 94.75 C6.41 94.27, -0.91 86.1, 0 71.06 M0 71.06 C-1.64 54.49, 1.22 37.43, 0 23.69 M0 71.06 C0.13 57.5, 0.2 43.36, 0 23.69 M0 23.69 C-1.16 6.5, 6.16 -1.42, 23.69 0 M0 23.69 C-0.59 9.04, 8.44 0.2, 23.69 0" fill="none" stroke="#1e1e1e" stroke-width="2"></path></g><g transform="translate(248.922592163086 274.002427156082) rotate(0 38.108657836914034 19.485854093917993)"><text direction="ltr" dominant-baseline="text-before-edge" fill="#1e1e1e" font-family="Virgil, Segoe UI Emoji" font-size="15.588683275134402px" style="white-space: pre;" text-anchor="middle" x="38.10865783691406" y="0">Main</text><text direction="ltr" dominant-baseline="text-before-edge" fill="#1e1e1e" font-family="Virgil, Segoe UI Emoji" font-size="15.588683275134402px" style="white-space: pre;" text-anchor="middle" x="38.10865783691406" y="19.485854093918004">(201-300)</text></g><g stroke-linecap="round" transform="translate(10 99.265625) rotate(0 73.453125 70.37109375)"><path d="M64.22 1.41 C74.09 -0.79, 87.06 1.14, 97.18 4.31 C107.3 7.49, 117.39 13.4, 124.96 20.43 C132.52 27.46, 139.09 37.04, 142.58 46.5 C146.06 55.95, 146.96 66.96, 145.88 77.15 C144.79 87.33, 141.6 98.87, 136.07 107.61 C130.55 116.35, 121.55 124.18, 112.75 129.59 C103.96 135, 93.61 138.85, 83.3 140.06 C72.99 141.27, 60.93 140.07, 50.89 136.83 C40.85 133.59, 30.65 127.5, 23.06 120.63 C15.48 113.75, 9.2 104.97, 5.36 95.59 C1.52 86.21, -0.78 74.68, 0.02 64.35 C0.82 54.02, 4.59 42.57, 10.15 33.61 C15.72 24.65, 24.16 16.15, 33.41 10.59 C42.67 5.04, 59.58 1.81, 65.68 0.29 C71.79 -1.24, 69.72 0.15, 70.05 1.42 M51.3 4.18 C61.01 0.49, 75.79 -1.39, 86.39 0.14 C96.99 1.66, 106.17 7.35, 114.9 13.32 C123.63 19.28, 133.32 27.28, 138.79 35.93 C144.26 44.57, 147.46 55.09, 147.73 65.18 C148.01 75.28, 144.56 87.12, 140.44 96.5 C136.32 105.87, 130.88 114.31, 123.02 121.41 C115.15 128.5, 103.44 136.14, 93.24 139.08 C83.04 142.02, 71.9 141.04, 61.8 139.05 C51.7 137.06, 41.5 132.93, 32.66 127.12 C23.82 121.31, 14.32 112.7, 8.78 104.18 C3.23 95.65, 0 86.17, -0.61 75.99 C-1.22 65.81, 1.17 52.61, 5.13 43.08 C9.1 33.55, 15.46 25.34, 23.18 18.81 C30.9 12.28, 46.37 6.2, 51.43 3.9 C56.48 1.6, 52.89 4.26, 53.5 5" fill="#ffffff" stroke="none" stroke-width="0"></path><path d="M57.89 0.78 C67.5 -2.38, 80.54 -1.26, 90.93 1.42 C101.32 4.11, 112.1 10.13, 120.24 16.88 C128.37 23.64, 135.29 32.89, 139.75 41.95 C144.21 51, 146.99 61.25, 146.99 71.22 C146.98 81.18, 144.37 92.46, 139.7 101.75 C135.03 111.03, 127.46 120.66, 118.96 126.91 C110.46 133.16, 99.23 137.39, 88.69 139.24 C78.15 141.1, 66.09 140.32, 55.7 138.04 C45.32 135.75, 34.62 131.95, 26.37 125.53 C18.12 119.11, 10.5 109.02, 6.18 99.51 C1.87 89.99, 0.09 78.5, 0.46 68.43 C0.84 58.37, 3.71 47.99, 8.41 39.12 C13.12 30.24, 19.49 21.42, 28.7 15.17 C37.9 8.93, 57.05 3.94, 63.64 1.64 C70.23 -0.66, 68.01 0.5, 68.24 1.36 M44.18 6.2 C52.99 1.39, 66.51 -0.39, 77.26 0.17 C88.01 0.73, 99.5 4.8, 108.67 9.56 C117.83 14.33, 126.29 20.62, 132.23 28.75 C138.16 36.89, 142.3 48.27, 144.27 58.37 C146.24 68.47, 146.55 79.77, 144.06 89.34 C141.57 98.92, 136.39 108.27, 129.33 115.82 C122.26 123.37, 111.56 130.58, 101.65 134.64 C91.75 138.7, 80.23 140.56, 69.89 140.19 C59.55 139.82, 49.12 137.31, 39.6 132.41 C30.08 127.5, 19.18 118.79, 12.76 110.74 C6.33 102.7, 2.87 93.93, 1.04 84.14 C-0.79 74.34, -1.04 61.79, 1.8 51.97 C4.63 42.14, 10.93 32.7, 18.05 25.18 C25.18 17.65, 40.01 9.64, 44.54 6.83 C49.07 4.01, 44.93 7.57, 45.23 8.3" fill="none" stroke="#1e1e1e" stroke-width="2"></path></g><g transform="translate(56.4639496789772 157.37684115986076) rotate(0 27.049972534179688 12.5)"><text direction="ltr" dominant-baseline="text-before-edge" fill="#1e1e1e" font-family="Virgil, Segoe UI Emoji" font-size="20px" style="white-space: pre;" text-anchor="middle" x="27.049972534179688" y="0">Client</text></g><g stroke-linecap="round"><g transform="translate(151.6883985656225 121.60883828929877) rotate(0 35.32962884218881 -37.43528570544356)"><path d="M0.32 -0.71 C12.04 -13.24, 58.23 -62.77, 69.82 -75.15 M-0.97 1.53 C11.17 -10.82, 59.87 -61.21, 72.1 -73.76" fill="none" stroke="#1e1e1e" stroke-width="4"></path></g><g transform="translate(151.6883985656225 121.60883828929877) rotate(0 35.32962884218881 -37.43528570544356)"><path d="M12.06 -28.32 C7.84 -22.53, 5.52 -15.29, 0.32 -0.71 M12.06 -28.32 C9.74 -20.27, 4.94 -11.67, 0.32 -0.71" fill="none" stroke="#1e1e1e" stroke-width="4"></path></g><g transform="translate(151.6883985656225 121.60883828929877) rotate(0 35.32962884218881 -37.43528570544356)"><path d="M27.06 -14.31 C18.96 -12.11, 12.75 -8.5, 0.32 -0.71 M27.06 -14.31 C20.29 -10.4, 11.14 -5.86, 0.32 -0.71" fill="none" stroke="#1e1e1e" stroke-width="4"></path></g><g transform="translate(151.6883985656225 121.60883828929877) rotate(0 35.32962884218881 -37.43528570544356)"><path d="M59.83 -46.38 C61.82 -54.89, 65.71 -61.9, 72.1 -73.76 M59.83 -46.38 C64.1 -54.17, 66.26 -61.51, 72.1 -73.76" fill="none" stroke="#1e1e1e" stroke-width="4"></path></g><g transform="translate(151.6883985656225 121.60883828929877) rotate(0 35.32962884218881 -37.43528570544356)"><path d="M45.1 -60.67 C50.91 -65.52, 58.61 -68.82, 72.1 -73.76 M45.1 -60.67 C53.74 -64.24, 60.17 -67.44, 72.1 -73.76" fill="none" stroke="#1e1e1e" stroke-width="4"></path></g></g><mask></mask><g stroke-linecap="round"><g transform="translate(163.21115068075483 166.00282146810014) rotate(0 32.15419028462264 -0.9744817594130382)"><path d="M-0.84 -0.28 C9.7 -0.51, 52.53 -1.69, 63.53 -2.07 M0.93 -1.47 C11.81 -1.44, 55.18 -0.59, 65.83 -0.59" fill="none" stroke="#1e1e1e" stroke-width="1"></path></g><g transform="translate(163.21115068075483 166.00282146810014) rotate(0 32.15419028462264 -0.9744817594130382)"><path d="M27.07 -11.29 C17.42 -9.2, 8.57 -2.92, -0.84 -0.28 M27.07 -11.29 C19.64 -7.8, 12.74 -4.9, -0.84 -0.28" fill="none" stroke="#1e1e1e" stroke-width="1"></path></g><g transform="translate(163.21115068075483 166.00282146810014) rotate(0 32.15419028462264 -0.9744817594130382)"><path d="M27.62 9.22 C17.91 4.61, 8.88 4.19, -0.84 -0.28 M27.62 9.22 C19.87 7.54, 12.83 5.27, -0.84 -0.28" fill="none" stroke="#1e1e1e" stroke-width="1"></path></g><g transform="translate(163.21115068075483 166.00282146810014) rotate(0 32.15419028462264 -0.9744817594130382)"><path d="M37.53 9.36 C46.37 5, 55.88 4.42, 65.83 -0.59 M37.53 9.36 C44.07 7.51, 51.34 5.13, 65.83 -0.59" fill="none" stroke="#1e1e1e" stroke-width="1"></path></g><g transform="translate(163.21115068075483 166.00282146810014) rotate(0 32.15419028462264 -0.9744817594130382)"><path d="M37.75 -11.16 C46.39 -8.82, 55.83 -2.69, 65.83 -0.59 M37.75 -11.16 C44.42 -7.84, 51.63 -5.05, 65.83 -0.59" fill="none" stroke="#1e1e1e" stroke-width="1"></path></g></g><mask></mask><g stroke-linecap="round"><g transform="translate(164.62928868988524 213.02604044558552) rotate(0 29.96855878005738 30.072273991596262)"><path d="M-0.78 -0.12 C9.48 9.85, 50.46 49.51, 60.76 59.57 M1.01 -1.23 C11.26 8.92, 50.28 50.33, 60.24 60.8" fill="none" stroke="#1e1e1e" stroke-width="1"></path></g><g transform="translate(164.62928868988524 213.02604044558552) rotate(0 29.96855878005738 30.072273991596262)"><path d="M26.6 12.13 C20.12 10.5, 13.06 8.1, -0.78 -0.12 M26.6 12.13 C17.83 9.34, 10.41 5, -0.78 -0.12" fill="none" stroke="#1e1e1e" stroke-width="1"></path></g><g transform="translate(164.62928868988524 213.02604044558552) rotate(0 29.96855878005738 30.072273991596262)"><path d="M12.32 26.87 C9.16 21.94, 5.39 16.14, -0.78 -0.12 M12.32 26.87 C8.04 19.42, 5.04 10.52, -0.78 -0.12" fill="none" stroke="#1e1e1e" stroke-width="1"></path></g><g transform="translate(164.62928868988524 213.02604044558552) rotate(0 29.96855878005738 30.072273991596262)"><path d="M33.41 47.39 C39.36 52.03, 44.78 55.54, 60.24 60.8 M33.41 47.39 C41.28 52.17, 50.64 55.77, 60.24 60.8" fill="none" stroke="#1e1e1e" stroke-width="1"></path></g><g transform="translate(164.62928868988524 213.02604044558552) rotate(0 29.96855878005738 30.072273991596262)"><path d="M48.3 33.28 C50.79 41.07, 52.78 47.83, 60.24 60.8 M48.3 33.28 C51.5 42.52, 56.25 50.49, 60.24 60.8" fill="none" stroke="#1e1e1e" stroke-width="1"></path></g></g><mask></mask></svg>