<svg height="415.31640625" version="1.1" viewbox="0 0 557.1328125 415.31640625" width="557.1328125" xmlns="http://www.w3.org/2000/svg">
<!-- svg-source:excalidraw -->
<!-- payload-type:application/vnd.excalidraw+json --><!-- payload-version:2 -->
<defs>
<style class="style-fonts">
</style>
</defs>
<rect fill="#ffffff" height="415.31640625" width="557.1328125" x="0" y="0"></rect><g stroke-linecap="round" transform="translate(10 60.72265625) rotate(0 268.56640625 172.296875)"><path d="M32 0 C175.41 5.19, 317.88 4.26, 505.13 0 C525.46 -3.54, 534.37 14.04, 537.13 32 C539.93 142.3, 535.51 255.13, 537.13 312.59 C533.81 333.38, 523.05 346.44, 505.13 344.59 C318.84 348.28, 130.51 346.02, 32 344.59 C13.72 345.75, 2.43 332.68, 0 312.59 C-0.98 213.61, -6.13 117.52, 0 32 C-2.76 9.76, 7.59 -1.74, 32 0" fill="#ffffff" stroke="none" stroke-width="0"></path><path d="M32 0 C179.95 1.79, 327.73 1.98, 505.13 0 M32 0 C213.39 1.96, 394.16 1.83, 505.13 0 M505.13 0 C525.38 -1.96, 535.85 11.69, 537.13 32 M505.13 0 C528.67 -1.65, 538.19 11.87, 537.13 32 M537.13 32 C536.92 107.78, 538.99 181.55, 537.13 312.59 M537.13 32 C538.43 112.83, 537.29 193.16, 537.13 312.59 M537.13 312.59 C536.37 335.68, 526.18 343.68, 505.13 344.59 M537.13 312.59 C538.72 332, 527.2 344.08, 505.13 344.59 M505.13 344.59 C334.77 345.16, 165.7 345.41, 32 344.59 M505.13 344.59 C336.4 344.44, 167.37 344.35, 32 344.59 M32 344.59 C12.52 344.96, 0.92 332.05, 0 312.59 M32 344.59 C11.12 346.46, -0.75 335.05, 0 312.59 M0 312.59 C-0.48 252.7, 0.77 194.57, 0 32 M0 312.59 C-1.12 240.5, -0.97 167.48, 0 32 M0 32 C1.27 9.9, 8.93 0.07, 32 0 M0 32 C-0.19 11.14, 11.19 -1.49, 32 0" fill="none" stroke="#1e1e1e" stroke-width="2"></path></g><g stroke-linecap="round" transform="translate(69.6015625 81.90234375) rotate(0 62.55078125 149.125)"><path d="M31.28 0 C47.2 0.12, 55.39 -4.54, 93.83 0 C111.91 3.37, 128.61 11.43, 125.1 31.28 C124.37 84.44, 124.53 136.81, 125.1 266.97 C121.68 289.67, 118.09 299.87, 93.83 298.25 C68.73 297.15, 51.63 300.35, 31.28 298.25 C12.86 297.01, 1.59 291.04, 0 266.97 C-6.14 192.7, -5.53 121.9, 0 31.28 C-3.08 8.68, 11.06 3.45, 31.28 0" fill="#ffffff" stroke="none" stroke-width="0"></path><path d="M31.28 0 C46.94 0.59, 60.42 0.51, 93.83 0 M31.28 0 C44.4 -0.12, 57.83 -1.28, 93.83 0 M93.83 0 C113.39 1.02, 127.02 8.99, 125.1 31.28 M93.83 0 C115.74 1.2, 124.38 11.28, 125.1 31.28 M125.1 31.28 C124.95 104.78, 123.59 181.37, 125.1 266.97 M125.1 31.28 C126.2 123.5, 126.43 217.92, 125.1 266.97 M125.1 266.97 C124.82 286.91, 116.06 296.57, 93.83 298.25 M125.1 266.97 C125.83 287.31, 116.05 300.24, 93.83 298.25 M93.83 298.25 C76.09 299.72, 55.9 299.23, 31.28 298.25 M93.83 298.25 C74.88 297.71, 57.59 298.3, 31.28 298.25 M31.28 298.25 C11.35 296.38, 0.39 289.45, 0 266.97 M31.28 298.25 C9.68 299.37, -2.01 287.95, 0 266.97 M0 266.97 C1.45 208.21, -0.23 147.38, 0 31.28 M0 266.97 C0.59 187.49, 1.27 108.25, 0 31.28 M0 31.28 C-1.74 10.5, 10.26 0.41, 31.28 0 M0 31.28 C0.52 8.94, 10.44 0.19, 31.28 0" fill="none" stroke="#1e1e1e" stroke-width="2"></path></g><g stroke-linecap="round"><g transform="translate(70.71875 132.11328125) rotate(0 62.11328125 0)"><path d="M0.39 1 C21.13 0.64, 103.84 -0.93, 124.57 -1 M-0.86 0.47 C19.74 0.74, 102.94 0.34, 123.81 0.01" fill="none" stroke="#1e1e1e" stroke-width="2"></path></g></g><mask></mask><g stroke-linecap="round"><g transform="translate(70.80345432918057 195.87601810360206) rotate(0 62.11328125 0)"><path d="M0.35 -1 C21.08 -1.07, 104.25 0.37, 124.81 0.57 M-0.93 1.09 C19.66 0.57, 103.57 -1.35, 124.17 -1.26" fill="none" stroke="#1e1e1e" stroke-width="2"></path></g></g><mask></mask><g stroke-linecap="round"><g transform="translate(68.86595432918057 259.79398685360206) rotate(0 62.11328125 0)"><path d="M0.59 0.57 C21.15 0.77, 103.22 0.5, 123.72 0.2 M-0.57 -0.18 C19.76 -0.28, 102 -1.76, 122.51 -1.81" fill="none" stroke="#1e1e1e" stroke-width="2"></path></g></g><mask></mask><g stroke-linecap="round"><g transform="translate(70.48286911851721 322.5975627309592) rotate(0 62.11328125 0)"><path d="M-0.51 0.2 C19.99 -0.09, 102.91 -1.25, 123.57 -1.18 M1.43 -0.73 C22.27 -0.97, 105.19 -0.15, 125.94 -0.26" fill="none" stroke="#1e1e1e" stroke-width="2"></path></g></g><mask></mask><g transform="translate(102.66798400878906 153.8984375) rotate(0 23.999984741210938 12.5)"><text direction="ltr" dominant-baseline="text-before-edge" fill="#1e1e1e" font-family="Virgil, Segoe UI Emoji" font-size="20px" style="white-space: pre;" text-anchor="middle" x="23.999984741210938" y="0">Key 1</text></g><g transform="translate(100.90251922607422 217.55859375) rotate(0 28.40998077392578 12.5)"><text direction="ltr" dominant-baseline="text-before-edge" fill="#1e1e1e" font-family="Virgil, Segoe UI Emoji" font-size="20px" style="white-space: pre;" text-anchor="middle" x="28.40998077392578" y="0">Key 2</text></g><g transform="translate(102.37267303466797 281.4375) rotate(0 28.09998321533203 12.5)"><text direction="ltr" dominant-baseline="text-before-edge" fill="#1e1e1e" font-family="Virgil, Segoe UI Emoji" font-size="20px" style="white-space: pre;" text-anchor="middle" x="28.09998321533203" y="0">Key 3</text></g><g stroke-linecap="round" transform="translate(260.15625 93.4140625) rotate(0 118.76953125 33.771484375)"><path d="M16.89 0 C60.86 6.16, 102.97 5.1, 220.65 0 C232.96 3.03, 235.07 3.58, 237.54 16.89 C236.49 31.47, 240.95 43.1, 237.54 50.66 C240.78 58.76, 228.42 65.02, 220.65 67.54 C173.6 65.3, 132.74 66.71, 16.89 67.54 C6.1 66.47, 0.73 64.64, 0 50.66 C-0.06 40, 2.84 33.32, 0 16.89 C0.5 5.73, 3.13 -1.69, 16.89 0" fill="#ffffff" stroke="none" stroke-width="0"></path><path d="M16.89 0 C98.5 -1.4, 178.91 -0.53, 220.65 0 M16.89 0 C63.82 -1.36, 112.39 -0.42, 220.65 0 M220.65 0 C233.58 -0.22, 236.21 3.89, 237.54 16.89 M220.65 0 C231.04 2.01, 237.21 4.58, 237.54 16.89 M237.54 16.89 C236.81 30.54, 238.98 42.05, 237.54 50.66 M237.54 16.89 C238.28 26.65, 238.04 35.25, 237.54 50.66 M237.54 50.66 C237.82 61.5, 231.18 66.73, 220.65 67.54 M237.54 50.66 C239.67 62.33, 232.97 65.39, 220.65 67.54 M220.65 67.54 C156.38 65.39, 90.45 66.15, 16.89 67.54 M220.65 67.54 C165.09 68.22, 108.43 68.92, 16.89 67.54 M16.89 67.54 C4.88 68.42, -0.34 61.23, 0 50.66 M16.89 67.54 C7.09 66.66, -2 62, 0 50.66 M0 50.66 C-1.36 40.82, 0.1 28.97, 0 16.89 M0 50.66 C0.01 37.67, -1.28 24.47, 0 16.89 M0 16.89 C1.87 7.58, 6.18 -1.5, 16.89 0 M0 16.89 C1.44 4.63, 3.38 0.12, 16.89 0" fill="none" stroke="#1e1e1e" stroke-width="2"></path></g><g transform="translate(353.30580139160156 114.685546875) rotate(0 25.619979858398438 12.5)"><text direction="ltr" dominant-baseline="text-before-edge" fill="#1e1e1e" font-family="Virgil, Segoe UI Emoji" font-size="20px" style="white-space: pre;" text-anchor="middle" x="25.619979858398438" y="0">Value</text></g><g stroke-linecap="round"><g transform="translate(199.13671875 179.16919639583068) rotate(0 25.052734375 -19.29388527548852)"><path d="M0.21 -0.8 C8.68 -7.16, 42.27 -31.44, 50.43 -37.76 M-1.14 1.4 C7.23 -5.34, 40.86 -32.96, 49.65 -39.45" fill="none" stroke="#1e1e1e" stroke-width="2"></path></g><g transform="translate(199.13671875 179.16919639583068) rotate(0 25.052734375 -19.29388527548852)"><path d="M33.81 -13.97 C36.64 -20.3, 43.61 -29.22, 49.65 -39.45 M33.81 -13.97 C39.13 -21.58, 42.21 -29.68, 49.65 -39.45" fill="none" stroke="#1e1e1e" stroke-width="2"></path></g><g transform="translate(199.13671875 179.16919639583068) rotate(0 25.052734375 -19.29388527548852)"><path d="M21.14 -30.12 C27.44 -32.13, 37.81 -36.71, 49.65 -39.45 M21.14 -30.12 C30.17 -33.19, 36.89 -36.64, 49.65 -39.45" fill="none" stroke="#1e1e1e" stroke-width="2"></path></g></g><mask></mask><g stroke-linecap="round" transform="translate(257.6171875 190.29296875) rotate(0 124.0703125 30.666015625)"><path d="M15.33 0 C91.86 -4.65, 175.33 -1.87, 232.81 0 C245.46 -1.24, 249.73 8.33, 248.14 15.33 C245.14 22.2, 245.88 33.2, 248.14 46 C245.06 54.48, 243.66 64.78, 232.81 61.33 C154.9 62.68, 75.28 57.92, 15.33 61.33 C7.7 60.81, -1 58.6, 0 46 C-2.57 33.42, 2.79 22.01, 0 15.33 C3.45 6.15, 8.56 -1.08, 15.33 0" fill="#ffffff" stroke="none" stroke-width="0"></path><path d="M15.33 0 C85.54 -1.85, 153.15 0.02, 232.81 0 M15.33 0 C100.52 -0.55, 186.54 0.97, 232.81 0 M232.81 0 C242.74 -0.92, 249.52 3.43, 248.14 15.33 M232.81 0 C243.76 -0.51, 249.51 7.1, 248.14 15.33 M248.14 15.33 C249.85 26.16, 249.19 35.25, 248.14 46 M248.14 15.33 C247.82 24.03, 249.11 33.73, 248.14 46 M248.14 46 C249.06 54.35, 243.42 62.95, 232.81 61.33 M248.14 46 C247.4 57.34, 241.02 61.45, 232.81 61.33 M232.81 61.33 C178.34 62.42, 121.13 61.69, 15.33 61.33 M232.81 61.33 C159.58 61.86, 87.2 61.82, 15.33 61.33 M15.33 61.33 C3.37 61.41, -0.17 56.63, 0 46 M15.33 61.33 C5.63 59.85, 0.01 56.42, 0 46 M0 46 C1.64 40.47, -0.79 31.72, 0 15.33 M0 46 C-0.01 38.4, 0.34 31.88, 0 15.33 M0 15.33 C-1.96 5.22, 3.26 -0.31, 15.33 0 M0 15.33 C-2.19 6.29, 7.29 1.04, 15.33 0" fill="none" stroke="#1e1e1e" stroke-width="2"></path></g><g transform="translate(374.4175033569336 208.458984375) rotate(0 7.269996643066406 12.5)"><text direction="ltr" dominant-baseline="text-before-edge" fill="#1e1e1e" font-family="Virgil, Segoe UI Emoji" font-size="20px" style="white-space: pre;" text-anchor="middle" x="7.269996643066406" y="0">B</text></g><g stroke-linecap="round"><g transform="translate(330.7890625 191.4765625) rotate(0 0 31.095703125)"><path d="M0.37 1.13 C0.69 11.5, 1.19 52.06, 1 62.06 M-0.9 0.68 C-0.57 11.25, 0.15 53.32, 0.58 63.53" fill="none" stroke="#1e1e1e" stroke-width="2"></path></g></g><mask></mask><g stroke-linecap="round"><g transform="translate(425.2767792235852 190.17407004874667) rotate(0 0 31.095703125)"><path d="M1 -0.13 C0.81 9.87, -0.55 50.58, -0.8 61.15 M0.07 -1.25 C0.22 9.38, 1.75 51.68, 1.5 62.13" fill="none" stroke="#1e1e1e" stroke-width="2"></path></g></g><mask></mask><g transform="translate(290.12750244140625 206.62109375) rotate(0 6.55999755859375 12.5)"><text direction="ltr" dominant-baseline="text-before-edge" fill="#1e1e1e" font-family="Virgil, Segoe UI Emoji" font-size="20px" style="white-space: pre;" text-anchor="middle" x="6.55999755859375" y="0">A</text></g><g transform="translate(456.5053176879883 207.34375) rotate(0 6.439994812011719 12.5)"><text direction="ltr" dominant-baseline="text-before-edge" fill="#1e1e1e" font-family="Virgil, Segoe UI Emoji" font-size="20px" style="white-space: pre;" text-anchor="middle" x="6.439994812011719" y="0">C</text></g><g stroke-linecap="round"><g transform="translate(208.0390625 245.83630084121023) rotate(0 18.0703125 -8.4337713082042)"><path d="M-0.17 -0.55 C6.07 -3.7, 30.85 -15.11, 36.97 -17.87 M-1.72 1.78 C4.47 -0.74, 30.18 -13.91, 36.46 -16.87" fill="none" stroke="#1e1e1e" stroke-width="2"></path></g><g transform="translate(208.0390625 245.83630084121023) rotate(0 18.0703125 -8.4337713082042)"><path d="M22.66 -2.46 C25.24 -4.84, 28.09 -9.36, 36.46 -16.87 M22.66 -2.46 C26.53 -6.86, 30.58 -9.69, 36.46 -16.87" fill="none" stroke="#1e1e1e" stroke-width="2"></path></g><g transform="translate(208.0390625 245.83630084121023) rotate(0 18.0703125 -8.4337713082042)"><path d="M16.63 -14.7 C20.89 -13.86, 25.33 -15.17, 36.46 -16.87 M16.63 -14.7 C22.25 -15.75, 27.97 -15.18, 36.46 -16.87" fill="none" stroke="#1e1e1e" stroke-width="2"></path></g></g><mask></mask><g stroke-linecap="round" transform="translate(250.9375 294.13671875) rotate(0 129.390625 31.560546875)"><path d="M15.78 0 C61.11 0.05, 106.5 3.22, 243 0 C256.97 2.2, 259.25 4.19, 258.78 15.78 C256.46 28.48, 258.69 35, 258.78 47.34 C261.16 59.84, 254.03 63.22, 243 63.12 C188.7 68.85, 139.08 68.85, 15.78 63.12 C4.18 66.21, -2.68 60.46, 0 47.34 C0.06 37.98, -1.76 35.48, 0 15.78 C0.61 4.88, 2.47 -1.25, 15.78 0" fill="#ffffff" stroke="none" stroke-width="0"></path><path d="M15.78 0 C79.27 -0.8, 145.25 -0.32, 243 0 M15.78 0 C103.86 1.3, 191.89 1.02, 243 0 M243 0 C254.29 -0.06, 259.06 4.85, 258.78 15.78 M243 0 C252.69 -0.94, 260.91 5.68, 258.78 15.78 M258.78 15.78 C260.11 26.06, 259.46 35.88, 258.78 47.34 M258.78 15.78 C258.47 25.99, 259.45 34.63, 258.78 47.34 M258.78 47.34 C259.56 58.58, 252.78 63.99, 243 63.12 M258.78 47.34 C258.39 57.08, 254.98 62.24, 243 63.12 M243 63.12 C194.97 63.35, 145.13 62.97, 15.78 63.12 M243 63.12 C173.68 65.4, 103.1 64.37, 15.78 63.12 M15.78 63.12 C3.29 61.59, 1.87 59.81, 0 47.34 M15.78 63.12 C5.9 61.39, 1.44 56.87, 0 47.34 M0 47.34 C-0.32 39.06, 1.01 36.48, 0 15.78 M0 47.34 C0.65 35.77, -0.76 26.41, 0 15.78 M0 15.78 C0.64 6.61, 4.57 0.88, 15.78 0 M0 15.78 C2.06 5.4, 7.33 -2.01, 15.78 0" fill="none" stroke="#1e1e1e" stroke-width="2"></path></g><g transform="translate(294.9281768798828 313.197265625) rotate(0 85.39994812011719 12.5)"><text direction="ltr" dominant-baseline="text-before-edge" fill="#1e1e1e" font-family="Virgil, Segoe UI Emoji" font-size="20px" style="white-space: pre;" text-anchor="middle" x="85.39994812011719" y="0">{ foo: bar, x: y }</text></g><g stroke-linecap="round"><g transform="translate(212.03125 304.14453125) rotate(0 15.484375 8.49609375)"><path d="M0.71 1.04 C5.84 3.86, 26.01 13.82, 31.12 16.66 M-0.37 0.53 C4.57 3.55, 25.05 15.4, 30.25 18.02" fill="none" stroke="#1e1e1e" stroke-width="2"></path></g><g transform="translate(212.03125 304.14453125) rotate(0 15.484375 8.49609375)"><path d="M12.79 15.35 C20.1 16.35, 23.88 17.62, 30.25 18.02 M12.79 15.35 C19.95 16.27, 26.53 17.15, 30.25 18.02" fill="none" stroke="#1e1e1e" stroke-width="2"></path></g><g transform="translate(212.03125 304.14453125) rotate(0 15.484375 8.49609375)"><path d="M18.59 4.75 C23.95 9.3, 25.81 14.09, 30.25 18.02 M18.59 4.75 C23.55 9.83, 27.88 14.85, 30.25 18.02" fill="none" stroke="#1e1e1e" stroke-width="2"></path></g></g><mask></mask><g transform="translate(15.531089782714844 10) rotate(0 46.007972717285156 22.5)"><text direction="ltr" dominant-baseline="text-before-edge" fill="#1e1e1e" font-family="Virgil, Segoe UI Emoji" font-size="36px" style="white-space: pre;" text-anchor="middle" x="46.007972717285156" y="0">Redis</text></g></svg>