<svg height="350.21484375" version="1.1" viewbox="0 0 726.088623046875 350.21484375" width="726.088623046875" xmlns="http://www.w3.org/2000/svg">
<!-- svg-source:excalidraw -->
<!-- payload-type:application/vnd.excalidraw+json --><!-- payload-version:2 -->
<defs>
<style class="style-fonts">
</style>
</defs>
<rect fill="#ffffff" height="350.21484375" width="726.088623046875" x="0" y="0"></rect><g transform="translate(531.0212478637695 108.30322265625) rotate(0 18 72.9)"><text direction="ltr" dominant-baseline="text-before-edge" fill="#1e1e1e" font-family="Segoe UI Emoji" font-size="36px" style="white-space: pre;" text-anchor="middle" x="18" y="0">10</text><text direction="ltr" dominant-baseline="text-before-edge" fill="#1e1e1e" font-family="Segoe UI Emoji" font-size="36px" style="white-space: pre;" text-anchor="middle" x="18" y="48.6">11</text><text direction="ltr" dominant-baseline="text-before-edge" fill="#1e1e1e" font-family="Segoe UI Emoji" font-size="36px" style="white-space: pre;" text-anchor="middle" x="18" y="97.2">...</text></g><g stroke-linecap="round" transform="translate(470.284423828125 104.79443359375) rotate(0 85 77.82470703125)"><path d="M32 0 C63.33 2.01, 94.77 1.91, 138 0 M32 0 C58.75 -0.15, 85.94 0.32, 138 0 M138 0 C159.34 -1.25, 168.63 8.95, 170 32 M138 0 C159.94 0.72, 169.75 8.8, 170 32 M170 32 C170.72 56.59, 169.03 81.86, 170 123.65 M170 32 C170.03 65.2, 170.47 98.15, 170 123.65 M170 123.65 C171.52 146.05, 157.34 156, 138 155.65 M170 123.65 C168.26 142.92, 158.8 157.16, 138 155.65 M138 155.65 C111.78 155.64, 89.99 156.98, 32 155.65 M138 155.65 C108.41 154.53, 79.56 155.09, 32 155.65 M32 155.65 C9.26 156.64, 1.87 146.34, 0 123.65 M32 155.65 C8.95 155.19, -2.05 144.76, 0 123.65 M0 123.65 C2.01 96.68, 1.89 74.33, 0 32 M0 123.65 C-0.68 92.99, 0.38 61.22, 0 32 M0 32 C-0.9 10.34, 12.46 -1.2, 32 0 M0 32 C0.87 10.36, 12.37 -0.71, 32 0" fill="none" stroke="#1e1e1e" stroke-width="2"></path></g><g transform="translate(417.020751953125 16.27490234375) rotate(0 149.533935546875 35)"><text direction="ltr" dominant-baseline="text-before-edge" fill="#1e1e1e" font-family="Virgil, Segoe UI Emoji" font-size="28px" style="white-space: pre;" text-anchor="middle" x="149.533935546875" y="0">New </text><text direction="ltr" dominant-baseline="text-before-edge" fill="#1e1e1e" font-family="Virgil, Segoe UI Emoji" font-size="28px" style="white-space: pre;" text-anchor="middle" x="149.533935546875" y="35">Bloom Filter Contents</text></g><g transform="translate(81.6796875 105.81874999999991) rotate(0 18 72.9)"><text direction="ltr" dominant-baseline="text-before-edge" fill="#1e1e1e" font-family="Segoe UI Emoji" font-size="36px" style="white-space: pre;" text-anchor="middle" x="18" y="0">10</text><text direction="ltr" dominant-baseline="text-before-edge" fill="#1e1e1e" font-family="Segoe UI Emoji" font-size="36px" style="white-space: pre;" text-anchor="middle" x="18" y="48.6">01</text><text direction="ltr" dominant-baseline="text-before-edge" fill="#1e1e1e" font-family="Segoe UI Emoji" font-size="36px" style="white-space: pre;" text-anchor="middle" x="18" y="97.2">...</text></g><g transform="translate(209.70703125 139.703125) rotate(0 25.271987915039062 22.5)"><text direction="ltr" dominant-baseline="text-before-edge" fill="#1e1e1e" font-family="Virgil, Segoe UI Emoji" font-size="36px" style="white-space: pre;" text-anchor="start" x="0" y="0">OR</text></g><g transform="translate(308.2578125 106.27187499999991) rotate(0 18 72.9)"><text direction="ltr" dominant-baseline="text-before-edge" fill="#1e1e1e" font-family="Segoe UI Emoji" font-size="36px" style="white-space: pre;" text-anchor="middle" x="18" y="0">10</text><text direction="ltr" dominant-baseline="text-before-edge" fill="#1e1e1e" font-family="Segoe UI Emoji" font-size="36px" style="white-space: pre;" text-anchor="middle" x="18" y="48.6">10</text><text direction="ltr" dominant-baseline="text-before-edge" fill="#1e1e1e" font-family="Segoe UI Emoji" font-size="36px" style="white-space: pre;" text-anchor="middle" x="18" y="97.2">...</text></g><g transform="translate(391.98973083496094 140.296875) rotate(0 11.105995178222656 22.5)"><text direction="ltr" dominant-baseline="text-before-edge" fill="#1e1e1e" font-family="Virgil, Segoe UI Emoji" font-size="36px" style="white-space: pre;" text-anchor="start" x="0" y="0">=</text></g><g transform="translate(20.571212768554688 10) rotate(0 67.04597473144531 35)"><text direction="ltr" dominant-baseline="text-before-edge" fill="#1e1e1e" font-family="Virgil, Segoe UI Emoji" font-size="28px" style="white-space: pre;" text-anchor="middle" x="67.04597473144531" y="0">Old Bloom</text><text direction="ltr" dominant-baseline="text-before-edge" fill="#1e1e1e" font-family="Virgil, Segoe UI Emoji" font-size="28px" style="white-space: pre;" text-anchor="middle" x="67.04597473144531" y="35">Filter</text></g><g stroke-linecap="round" transform="translate(10 95.46826171875) rotate(0 85 77.82470703125)"><path d="M32 0 C62.13 1.25, 96.31 0.5, 138 0 M32 0 C54.89 -0.27, 78.14 -1.12, 138 0 M138 0 C158.93 1.32, 169.2 10.78, 170 32 M138 0 C160.25 -0.8, 171.93 8.5, 170 32 M170 32 C170.84 64.93, 168.7 100.41, 170 123.65 M170 32 C170.25 64.69, 168.9 99.59, 170 123.65 M170 123.65 C170.39 144.5, 158.38 153.71, 138 155.65 M170 123.65 C169.21 144.78, 159.45 156.73, 138 155.65 M138 155.65 C115.02 155.14, 88.91 154.86, 32 155.65 M138 155.65 C107.82 155.91, 75.55 155.85, 32 155.65 M32 155.65 C11.69 156.36, -0.56 144.84, 0 123.65 M32 155.65 C8.51 155.85, 0.27 142.8, 0 123.65 M0 123.65 C-1.05 101.02, -0.12 78.36, 0 32 M0 123.65 C1.33 99.04, 0.99 74.21, 0 32 M0 32 C1.78 10.7, 9.19 0.85, 32 0 M0 32 C-2.19 11.88, 9.01 0.89, 32 0" fill="none" stroke="#1e1e1e" stroke-width="2"></path></g><g stroke-linecap="round" transform="translate(290.34765625 100.57421875) rotate(0 37.224609375 82.33203125)"><path d="M18.61 0 C27.86 -0.32, 34.23 -0.61, 55.84 0 M18.61 0 C31.06 -0.74, 43.86 0.6, 55.84 0 M55.84 0 C67.45 0.11, 75.25 5.51, 74.45 18.61 M55.84 0 C70.17 -2.17, 76.19 7.43, 74.45 18.61 M74.45 18.61 C72.88 43.7, 75.99 68.35, 74.45 146.05 M74.45 18.61 C75.1 51.91, 75.77 83.88, 74.45 146.05 M74.45 146.05 C73.5 156.52, 67.56 164.48, 55.84 164.66 M74.45 146.05 C74.56 159.54, 66.63 165.81, 55.84 164.66 M55.84 164.66 C40.79 162.6, 26.35 163.88, 18.61 164.66 M55.84 164.66 C45.6 165.67, 37.68 165.31, 18.61 164.66 M18.61 164.66 C5.65 164.52, -1.88 158.63, 0 146.05 M18.61 164.66 C6.48 162.48, -1.03 158.08, 0 146.05 M0 146.05 C0.5 97.9, 0.15 44.85, 0 18.61 M0 146.05 C-0.47 96.81, 0.32 47.83, 0 18.61 M0 18.61 C-1.48 7.06, 4.3 1.05, 18.61 0 M0 18.61 C-1.66 7.1, 6.18 -0.18, 18.61 0" fill="none" stroke="#1e1e1e" stroke-width="2"></path></g><g stroke-linecap="round"><g transform="translate(371.28515625 332.27734375) rotate(0 -18.017578125 -28.056640625)"><path d="M-0.13 -0.97 C-6.24 -1.72, -30.81 5.06, -36.34 -4.09 C-41.88 -13.25, -33.85 -47.11, -33.34 -55.91 M-1.66 1.13 C-7.98 -0.01, -32.01 3.32, -37.45 -5.95 C-42.89 -15.22, -35.01 -46.1, -34.3 -54.49" fill="none" stroke="#1e1e1e" stroke-width="2"></path></g><g transform="translate(371.28515625 332.27734375) rotate(0 -18.017578125 -28.056640625)"><path d="M-29.48 -29.14 C-32.75 -37.93, -31.87 -46.31, -34.3 -54.49 M-29.48 -29.14 C-31.14 -36.54, -32.86 -45.18, -34.3 -54.49" fill="none" stroke="#1e1e1e" stroke-width="2"></path></g><g transform="translate(371.28515625 332.27734375) rotate(0 -18.017578125 -28.056640625)"><path d="M-46.9 -31.97 C-44.48 -39.82, -37.91 -47.28, -34.3 -54.49 M-46.9 -31.97 C-43.05 -38.36, -39.25 -46.1, -34.3 -54.49" fill="none" stroke="#1e1e1e" stroke-width="2"></path></g></g><mask></mask><g transform="translate(383.36365509033203 315.21484375) rotate(0 73.56993865966797 12.5)"><text direction="ltr" dominant-baseline="text-before-edge" fill="#1e1e1e" font-family="Virgil, Segoe UI Emoji" font-size="20px" style="white-space: pre;" text-anchor="middle" x="73.56993865966797" y="0">Bryan's hashes</text></g></svg>