<svg height="404.587890625" version="1.1" viewbox="0 0 658.23046875 404.587890625" width="658.23046875" xmlns="http://www.w3.org/2000/svg">
<!-- svg-source:excalidraw -->
<!-- payload-type:application/vnd.excalidraw+json --><!-- payload-version:2 -->
<defs>
<style class="style-fonts">
</style>
</defs>
<rect fill="#ffffff" height="404.587890625" width="658.23046875" x="0" y="0"></rect><g stroke-linecap="round" transform="translate(37.96875 271.18359375) rotate(0 85.859375 59.333984375)"><path d="M29.67 0 C72.28 0.9, 112.04 -0.88, 142.05 0 M29.67 0 C53.38 -0.45, 76.85 -0.34, 142.05 0 M142.05 0 C161.12 -1.29, 169.87 9.12, 171.72 29.67 M142.05 0 C162.43 -0.19, 170.94 8.69, 171.72 29.67 M171.72 29.67 C172.88 55.29, 173.46 75.97, 171.72 89 M171.72 29.67 C172.33 46.88, 171.52 66.06, 171.72 89 M171.72 89 C171.45 107.15, 161.15 119.82, 142.05 118.67 M171.72 89 C171.02 110.26, 161.99 118.93, 142.05 118.67 M142.05 118.67 C108.01 119.3, 73.47 116.46, 29.67 118.67 M142.05 118.67 C101.61 119.38, 60.91 118.75, 29.67 118.67 M29.67 118.67 C7.95 117.46, 1.7 110.42, 0 89 M29.67 118.67 C11.21 117.35, 1.31 107.19, 0 89 M0 89 C1.52 73.09, -1.45 61.18, 0 29.67 M0 89 C1.26 66.13, -0.38 42.53, 0 29.67 M0 29.67 C-0.18 8.82, 8.6 1.8, 29.67 0 M0 29.67 C-0.58 8.04, 8.49 1.46, 29.67 0" fill="none" stroke="#1e1e1e" stroke-width="2"></path></g><g transform="translate(73.30816650390625 305.517578125) rotate(0 50.51995849609375 25)"><text direction="ltr" dominant-baseline="text-before-edge" fill="#1e1e1e" font-family="Virgil, Segoe UI Emoji" font-size="20px" style="white-space: pre;" text-anchor="middle" x="50.51995849609375" y="0">Albert</text><text direction="ltr" dominant-baseline="text-before-edge" fill="#1e1e1e" font-family="Virgil, Segoe UI Emoji" font-size="20px" style="white-space: pre;" text-anchor="middle" x="50.51995849609375" y="25">Holes: 2 4</text></g><g stroke-linecap="round" transform="translate(237.88671875 272.744140625) rotate(0 85.859375 59.333984375)"><path d="M29.67 0 C65.93 -1.23, 99.19 2.1, 142.05 0 M29.67 0 C72.39 -0.79, 115.68 0.73, 142.05 0 M142.05 0 C161.91 1.29, 170.78 9.37, 171.72 29.67 M142.05 0 C161.99 -0.6, 171.17 10.57, 171.72 29.67 M171.72 29.67 C173.61 49.79, 172.26 71.35, 171.72 89 M171.72 29.67 C172.33 44.36, 171.85 59.2, 171.72 89 M171.72 89 C169.95 107.35, 163.02 118.77, 142.05 118.67 M171.72 89 C172.11 106.53, 161.82 117.34, 142.05 118.67 M142.05 118.67 C101.4 116.47, 61.57 118.66, 29.67 118.67 M142.05 118.67 C111.03 119.47, 78.88 118.94, 29.67 118.67 M29.67 118.67 C11.41 118.1, -0.06 107.46, 0 89 M29.67 118.67 C7.71 120.87, -2.19 108.78, 0 89 M0 89 C0.12 68.01, 1.11 42.22, 0 29.67 M0 89 C-0.89 68.66, 0.71 50.8, 0 29.67 M0 29.67 C-1.65 9.19, 8.35 -0.63, 29.67 0 M0 29.67 C-0.15 10.33, 7.75 1.12, 29.67 0" fill="none" stroke="#1e1e1e" stroke-width="2"></path></g><g transform="translate(272.8161315917969 307.078125) rotate(0 50.929962158203125 25)"><text direction="ltr" dominant-baseline="text-before-edge" fill="#1e1e1e" font-family="Virgil, Segoe UI Emoji" font-size="20px" style="white-space: pre;" text-anchor="middle" x="50.929962158203125" y="0">Bryan</text><text direction="ltr" dominant-baseline="text-before-edge" fill="#1e1e1e" font-family="Virgil, Segoe UI Emoji" font-size="20px" style="white-space: pre;" text-anchor="middle" x="50.929962158203125" y="25">Holes: 2 3</text></g><g stroke-linecap="round" transform="translate(448 275.919921875) rotate(0 85.859375 59.333984375)"><path d="M29.67 0 C71.01 1.51, 110.89 -1.36, 142.05 0 M29.67 0 C57.1 -1.35, 83.69 -0.41, 142.05 0 M142.05 0 C163.14 -1.37, 172.24 8.37, 171.72 29.67 M142.05 0 C163.44 1.34, 169.93 8.15, 171.72 29.67 M171.72 29.67 C172.89 50.73, 169.93 67.94, 171.72 89 M171.72 29.67 C171.44 44.34, 171.63 58.7, 171.72 89 M171.72 89 C172.35 110.27, 163.22 120.36, 142.05 118.67 M171.72 89 C170.1 106.77, 163.15 119.58, 142.05 118.67 M142.05 118.67 C110.11 120.84, 79.98 120.03, 29.67 118.67 M142.05 118.67 C99.14 118.22, 55.33 118.73, 29.67 118.67 M29.67 118.67 C11.07 117.51, -0.38 108.43, 0 89 M29.67 118.67 C7.77 117.36, -0.22 107.9, 0 89 M0 89 C0.68 77.9, 0.7 63.13, 0 29.67 M0 89 C1.23 66.76, 0.21 44.09, 0 29.67 M0 29.67 C1.51 10.68, 10.19 0.39, 29.67 0 M0 29.67 C-1.95 9.21, 7.95 -1.13, 29.67 0" fill="none" stroke="#1e1e1e" stroke-width="2"></path></g><g transform="translate(487.3394088745117 310.25390625) rotate(0 46.51996612548828 25)"><text direction="ltr" dominant-baseline="text-before-edge" fill="#1e1e1e" font-family="Virgil, Segoe UI Emoji" font-size="20px" style="white-space: pre;" text-anchor="middle" x="46.51996612548828" y="0">Christina</text><text direction="ltr" dominant-baseline="text-before-edge" fill="#1e1e1e" font-family="Virgil, Segoe UI Emoji" font-size="20px" style="white-space: pre;" text-anchor="middle" x="46.51996612548828" y="25">Holes: 1 3</text></g><g stroke-linecap="round" transform="translate(10 42.34375) rotate(0 70.88671875 70.6796875)"><path d="M76.21 -0.51 C85.94 -0.94, 97.35 4.34, 106.28 9.6 C115.22 14.86, 124.1 22.52, 129.82 31.05 C135.54 39.59, 139 50.75, 140.59 60.8 C142.18 70.85, 142.47 81.52, 139.37 91.37 C136.27 101.22, 129.25 112.42, 121.99 119.92 C114.73 127.43, 105.36 132.97, 95.81 136.4 C86.27 139.83, 74.91 141.36, 64.72 140.5 C54.52 139.64, 43.43 136.14, 34.64 131.23 C25.85 126.33, 17.59 119.53, 11.98 111.06 C6.37 102.58, 2.57 90.79, 0.98 80.38 C-0.61 69.98, -0.71 58.36, 2.44 48.63 C5.58 38.9, 12.73 29.42, 19.84 22 C26.94 14.59, 33.87 7.58, 45.07 4.15 C56.27 0.71, 78.68 1.27, 87.04 1.4 C95.4 1.53, 95.64 3.63, 95.22 4.92 M88.57 1.4 C98.16 2.9, 109.45 9.27, 117.28 16.13 C125.1 23, 131.5 32.87, 135.52 42.6 C139.53 52.32, 141.77 64.19, 141.37 74.49 C140.98 84.79, 137.97 95.34, 133.14 104.4 C128.32 113.47, 120.92 122.94, 112.43 128.89 C103.93 134.84, 92.28 138.32, 82.15 140.09 C72.01 141.86, 61.18 142.38, 51.61 139.53 C42.04 136.67, 32.55 129.68, 24.71 122.97 C16.87 116.27, 8.72 108.42, 4.56 99.32 C0.41 90.21, -0.9 78.45, -0.23 68.34 C0.44 58.22, 3.7 47.73, 8.56 38.62 C13.42 29.52, 20.55 20.02, 28.91 13.73 C37.28 7.44, 48.72 2.6, 58.75 0.88 C68.79 -0.83, 84.08 2.8, 89.13 3.46 C94.17 4.11, 89.12 4.07, 89.03 4.82" fill="none" stroke="#1e1e1e" stroke-width="2"></path></g><g stroke-linecap="round" transform="translate(168.78515625 45.890625) rotate(0 70.88671875 70.6796875)"><path d="M103.85 8.74 C112.83 12.58, 121.42 21.28, 127.46 29.52 C133.5 37.76, 138.28 48.3, 140.09 58.21 C141.9 68.12, 140.94 79.1, 138.34 88.98 C135.75 98.86, 131.33 109.7, 124.53 117.47 C117.73 125.24, 106.94 131.63, 97.53 135.61 C88.13 139.58, 78.23 141.78, 68.09 141.3 C57.95 140.83, 45.99 137.76, 36.69 132.75 C27.4 127.74, 18.42 119.63, 12.33 111.24 C6.23 102.86, 1.78 92.29, 0.12 82.42 C-1.54 72.55, -0.44 61.71, 2.36 52.05 C5.16 42.4, 10.11 32.16, 16.91 24.5 C23.72 16.83, 33.73 10.23, 43.18 6.06 C52.64 1.9, 62.36 -1.43, 73.63 -0.49 C84.9 0.45, 103.73 8.53, 110.81 11.71 C117.89 14.88, 116.58 17.6, 116.09 18.55 M95.61 5.79 C104.7 8.14, 114.35 13.59, 121.54 20.75 C128.74 27.91, 135.29 38.79, 138.77 48.78 C142.25 58.77, 143.92 70.28, 142.4 80.7 C140.89 91.12, 135.84 102.85, 129.67 111.29 C123.5 119.74, 114.26 126.2, 105.38 131.35 C96.51 136.51, 86.62 141.54, 76.41 142.23 C66.21 142.93, 53.69 139.43, 44.18 135.53 C34.66 131.62, 26.37 126.18, 19.33 118.83 C12.29 111.47, 5.27 101.22, 1.95 91.39 C-1.37 81.56, -2.46 69.91, -0.61 59.83 C1.24 49.74, 6.93 39.43, 13.06 30.89 C19.19 22.34, 27.41 13.91, 36.17 8.58 C44.93 3.25, 55.85 -0.39, 65.61 -1.09 C75.37 -1.8, 89.64 2.97, 94.73 4.36 C99.82 5.74, 96.14 6.12, 96.14 7.22" fill="none" stroke="#1e1e1e" stroke-width="2"></path></g><g stroke-linecap="round" transform="translate(342.01953125 49.58984375) rotate(0 70.88671875 70.6796875)"><path d="M42.42 5.86 C50.92 0.84, 62.94 -1.2, 73.19 -0.81 C83.44 -0.43, 94.93 3.57, 103.91 8.18 C112.89 12.79, 120.9 18.93, 127.07 26.84 C133.23 34.74, 138.7 45.28, 140.9 55.6 C143.1 65.91, 142.74 78.82, 140.27 88.73 C137.8 98.64, 132.59 107.21, 126.07 115.05 C119.55 122.88, 110.73 131.4, 101.14 135.73 C91.56 140.07, 78.99 141.4, 68.56 141.05 C58.14 140.7, 47.63 138.08, 38.6 133.65 C29.58 129.22, 20.73 122.58, 14.42 114.46 C8.12 106.34, 2.86 95.03, 0.78 84.94 C-1.31 74.85, -0.79 63.9, 1.94 53.91 C4.67 43.92, 9.49 33.25, 17.16 25.01 C24.83 16.78, 41.66 8.2, 47.97 4.5 C54.28 0.81, 54.53 1.85, 55.01 2.84 M96.86 5.36 C106.25 7.87, 114.45 14.8, 121.42 21.86 C128.39 28.92, 135.45 38.15, 138.66 47.71 C141.88 57.26, 142.28 69.09, 140.7 79.19 C139.11 89.28, 134.73 99.6, 129.16 108.28 C123.59 116.96, 115.67 125.86, 107.27 131.27 C98.86 136.68, 88.65 139.82, 78.74 140.75 C68.84 141.68, 57.53 140.56, 47.83 136.85 C38.13 133.15, 27.79 125.71, 20.52 118.5 C13.25 111.28, 7.61 103.3, 4.19 93.57 C0.77 83.84, -1.32 70.6, -0.01 60.12 C1.3 49.64, 6.26 39.06, 12.06 30.69 C17.87 22.33, 26.28 14.91, 34.82 9.91 C43.36 4.91, 53.03 1.8, 63.29 0.7 C73.55 -0.4, 91.25 2.36, 96.36 3.3 C101.47 4.25, 94.35 5.12, 93.95 6.38" fill="none" stroke="#1e1e1e" stroke-width="2"></path></g><g stroke-linecap="round" transform="translate(506.45703125 48.10546875) rotate(0 70.88671875 70.6796875)"><path d="M48.17 3.74 C56.85 -0.35, 68.78 -0.07, 78.89 1.31 C89.01 2.68, 100.07 6.59, 108.84 11.96 C117.61 17.33, 125.96 24.82, 131.5 33.53 C137.04 42.24, 141.12 53.95, 142.09 64.2 C143.06 74.45, 141.06 85.44, 137.34 95.01 C133.62 104.57, 126.91 114.59, 119.77 121.6 C112.62 128.61, 104.04 133.74, 94.46 137.06 C84.88 140.38, 72.73 142.63, 62.27 141.52 C51.82 140.41, 40.5 136.14, 31.72 130.42 C22.95 124.69, 14.77 115.85, 9.63 107.19 C4.49 98.53, 1.9 88.71, 0.87 78.48 C-0.17 68.25, 0.09 55.55, 3.42 45.81 C6.76 36.07, 12.82 27.4, 20.88 20.04 C28.94 12.69, 46.2 4.5, 51.77 1.7 C57.34 -1.09, 54.16 1.9, 54.31 3.27 M45.97 4.51 C54.7 0.09, 68.19 0.06, 78.22 0.94 C88.26 1.81, 97.47 4.69, 106.17 9.78 C114.87 14.87, 124.53 22.81, 130.45 31.47 C136.37 40.13, 140.3 51.59, 141.69 61.72 C143.08 71.84, 142.2 82.64, 138.81 92.2 C135.41 101.76, 128.18 111.43, 121.33 119.09 C114.48 126.75, 107.17 134.47, 97.7 138.14 C88.23 141.81, 74.97 142.24, 64.51 141.1 C54.04 139.95, 43.78 136.44, 34.88 131.26 C25.99 126.08, 16.8 118.68, 11.16 110.02 C5.52 101.36, 2.46 89.62, 1.05 79.3 C-0.36 68.99, -0.22 57.63, 2.69 48.14 C5.61 38.64, 11.59 29.59, 18.55 22.33 C25.5 15.08, 40.05 7.47, 44.42 4.61 C48.79 1.75, 43.92 3.91, 44.75 5.14" fill="none" stroke="#1e1e1e" stroke-width="2"></path></g><g transform="translate(47.43359375 11.66796875) rotate(0 26.85997772216797 12.5)"><text direction="ltr" dominant-baseline="text-before-edge" fill="#1e1e1e" font-family="Virgil, Segoe UI Emoji" font-size="20px" style="white-space: pre;" text-anchor="start" x="0" y="0">Hole 1</text></g><g transform="translate(207.99158477783203 12.2578125) rotate(0 31.269973754882812 12.5)"><text direction="ltr" dominant-baseline="text-before-edge" fill="#1e1e1e" font-family="Virgil, Segoe UI Emoji" font-size="20px" style="white-space: pre;" text-anchor="start" x="0" y="0">Hole 2</text></g><g transform="translate(383.0972137451172 13.9140625) rotate(0 30.959976196289062 12.5)"><text direction="ltr" dominant-baseline="text-before-edge" fill="#1e1e1e" font-family="Virgil, Segoe UI Emoji" font-size="20px" style="white-space: pre;" text-anchor="start" x="0" y="0">Hole 3</text></g><g transform="translate(546.3837738037109 10) rotate(0 30.549972534179688 12.5)"><text direction="ltr" dominant-baseline="text-before-edge" fill="#1e1e1e" font-family="Virgil, Segoe UI Emoji" font-size="20px" style="white-space: pre;" text-anchor="start" x="0" y="0">Hole 4</text></g></svg>