<svg height="200.94921875" version="1.1" viewbox="0 0 658.23046875 200.94921875" width="658.23046875" xmlns="http://www.w3.org/2000/svg">
<!-- svg-source:excalidraw -->
<!-- payload-type:application/vnd.excalidraw+json --><!-- payload-version:2 -->
<defs>
<style class="style-fonts">
</style>
</defs>
<rect fill="#ffffff" height="200.94921875" width="658.23046875" x="0" y="0"></rect><g stroke-linecap="round" transform="translate(10 42.34375) rotate(0 70.88671875 70.6796875)"><path d="M101.55 6.7 C110.76 10.08, 120.3 18.62, 126.8 26.65 C133.31 34.68, 138.45 45.04, 140.59 54.88 C142.74 64.71, 141.92 75.53, 139.68 85.65 C137.45 95.78, 133.65 107.61, 127.16 115.61 C120.68 123.6, 110.19 129.45, 100.76 133.64 C91.33 137.83, 80.64 140.78, 70.61 140.75 C60.59 140.72, 49.8 137.79, 40.63 133.47 C31.46 129.14, 21.98 122.6, 15.58 114.81 C9.17 107.02, 4.37 96.87, 2.2 86.74 C0.03 76.6, 0.29 64.16, 2.56 54.01 C4.83 43.86, 9.48 33.63, 15.81 25.83 C22.13 18.04, 31.23 11.42, 40.51 7.24 C49.78 3.06, 60.84 0.64, 71.46 0.74 C82.08 0.83, 98.24 5.9, 104.25 7.82 C110.26 9.73, 107.98 11.2, 107.52 12.22 M47.31 5.15 C56.02 0.82, 68.29 0.64, 78.48 1.34 C88.68 2.04, 100.01 4.13, 108.5 9.34 C116.99 14.56, 124.2 23.75, 129.43 32.63 C134.65 41.51, 138.46 52.73, 139.82 62.62 C141.19 72.52, 140.65 82.55, 137.62 92.01 C134.58 101.47, 128.64 112.06, 121.59 119.38 C114.54 126.71, 104.82 132.18, 95.3 135.95 C85.77 139.72, 74.68 142.98, 64.44 142.02 C54.21 141.06, 42.89 135.53, 33.9 130.19 C24.9 124.85, 16.15 118.19, 10.48 109.96 C4.8 101.72, 0.98 90.82, -0.17 80.8 C-1.33 70.77, 0.22 59.61, 3.55 49.8 C6.88 39.99, 12.48 29.35, 19.79 21.95 C27.1 14.55, 42.73 8.34, 47.41 5.4 C52.08 2.46, 47.69 3.49, 47.84 4.32" fill="none" stroke="#1e1e1e" stroke-width="2"></path></g><g stroke-linecap="round" transform="translate(168.78515625 45.890625) rotate(0 70.88671875 70.6796875)"><path d="M47.93 4.07 C56.87 -0.11, 69.31 -0.59, 79.35 0.41 C89.4 1.41, 99.49 4.5, 108.21 10.09 C116.94 15.67, 126.33 25.26, 131.69 33.91 C137.06 42.56, 139.42 52.09, 140.39 61.99 C141.36 71.9, 140.64 83.73, 137.5 93.34 C134.35 102.96, 128.69 112.35, 121.52 119.69 C114.35 127.03, 104.13 133.81, 94.45 137.39 C84.77 140.98, 73.51 142.51, 63.44 141.2 C53.37 139.9, 42.72 135.19, 34.03 129.58 C25.34 123.97, 16.81 115.98, 11.28 107.53 C5.76 99.08, 1.99 88.79, 0.87 78.89 C-0.24 68.99, 1.37 57.97, 4.57 48.15 C7.78 38.32, 10.76 27.74, 20.12 19.94 C29.47 12.14, 51.74 4.56, 60.69 1.33 C69.64 -1.9, 73.8 -0.67, 73.81 0.56 M89.06 3.13 C98.76 4.2, 109.65 9.05, 117.24 15.53 C124.84 22.01, 130.75 32.36, 134.61 41.99 C138.48 51.62, 140.61 63.32, 140.42 73.3 C140.24 83.28, 137.98 93.02, 133.51 101.89 C129.04 110.76, 121.68 120.34, 113.59 126.51 C105.51 132.68, 94.94 136.62, 84.99 138.91 C75.04 141.19, 63.84 142.71, 53.87 140.23 C43.89 137.74, 33.24 130.61, 25.15 124 C17.05 117.39, 9.61 109.57, 5.29 100.59 C0.97 91.61, -1.17 80.23, -0.77 70.12 C-0.38 60, 2.89 49.13, 7.65 39.92 C12.42 30.7, 19.45 21.07, 27.79 14.82 C36.14 8.58, 47.48 4.8, 57.72 2.44 C67.95 0.08, 84.26 0.6, 89.2 0.65 C94.14 0.7, 87.83 1.4, 87.35 2.75" fill="none" stroke="#1e1e1e" stroke-width="2"></path></g><g stroke-linecap="round" transform="translate(342.01953125 49.58984375) rotate(0 70.88671875 70.6796875)"><path d="M61.71 0.65 C71.07 -1.87, 82.41 -0.6, 92.21 2.67 C102.01 5.95, 113.17 13.27, 120.5 20.3 C127.84 27.34, 132.78 35.59, 136.23 44.9 C139.68 54.2, 141.84 65.99, 141.19 76.14 C140.54 86.29, 137.49 96.88, 132.33 105.79 C127.17 114.69, 118.79 123.68, 110.24 129.55 C101.7 135.41, 91.12 139.72, 81.08 140.96 C71.05 142.2, 59.8 140.3, 50.03 137 C40.26 133.69, 29.97 127.97, 22.47 121.13 C14.97 114.3, 8.63 105.29, 5.04 95.99 C1.44 86.69, 0.17 75.71, 0.88 65.35 C1.59 54.99, 4.14 42.67, 9.31 33.84 C14.47 25.02, 22.48 18.16, 31.88 12.4 C41.28 6.64, 59.45 0.96, 65.73 -0.72 C72.01 -2.4, 69.41 0.87, 69.57 2.32 M88.71 1.24 C98.13 2.45, 107.6 9.95, 115.13 16.77 C122.65 23.59, 129.51 33.11, 133.84 42.14 C138.18 51.18, 141.13 61, 141.14 70.97 C141.15 80.94, 138.45 92.85, 133.92 101.96 C129.4 111.06, 122.01 119.11, 113.99 125.58 C105.97 132.05, 95.85 138.64, 85.8 140.76 C75.75 142.88, 63.85 140.79, 53.68 138.3 C43.51 135.81, 32.75 131.99, 24.77 125.82 C16.8 119.65, 9.93 110.44, 5.81 101.28 C1.68 92.11, -0.25 81.15, 0.03 70.83 C0.3 60.52, 2.68 48.56, 7.46 39.38 C12.25 30.2, 20.42 22.31, 28.72 15.77 C37.02 9.22, 47.5 2.53, 57.27 0.11 C67.03 -2.3, 82.3 0.77, 87.3 1.28 C92.31 1.8, 87.37 1.98, 87.3 3.19" fill="none" stroke="#1e1e1e" stroke-width="2"></path></g><g stroke-linecap="round" transform="translate(506.45703125 48.10546875) rotate(0 70.88671875 70.6796875)"><path d="M73.28 -0.65 C83.09 -1.19, 95.94 4.33, 104.89 9.12 C113.85 13.9, 121.14 20.09, 127.03 28.07 C132.92 36.05, 138.1 46.99, 140.23 57 C142.35 67.01, 142.39 78.15, 139.79 88.12 C137.2 98.1, 131.36 108.92, 124.65 116.86 C117.95 124.8, 108.87 131.86, 99.58 135.77 C90.3 139.68, 79.21 140.89, 68.96 140.32 C58.71 139.74, 47.2 136.9, 38.08 132.32 C28.96 127.73, 20.27 120.79, 14.23 112.82 C8.19 104.85, 3.91 94.71, 1.85 84.49 C-0.22 74.27, -0.76 61.41, 1.84 51.51 C4.45 41.61, 10.67 32.84, 17.47 25.08 C24.27 17.33, 32.11 8.85, 42.65 4.96 C53.2 1.06, 72.95 1.76, 80.71 1.69 C88.48 1.62, 89.22 3.38, 89.24 4.51 M94.12 4.89 C103.25 7.5, 112.88 15.3, 120.09 22.35 C127.29 29.4, 133.9 37.77, 137.36 47.19 C140.82 56.61, 142.04 68.79, 140.87 78.89 C139.69 89, 135.73 98.99, 130.28 107.81 C124.84 116.62, 116.96 126.45, 108.21 131.8 C99.46 137.15, 88.18 138.93, 77.77 139.91 C67.37 140.9, 55.48 140.84, 45.78 137.7 C36.08 134.56, 26.56 128.25, 19.56 121.07 C12.57 113.89, 6.98 104.39, 3.8 94.62 C0.63 84.84, -0.92 72.62, 0.52 62.44 C1.96 52.26, 6.7 42.44, 12.43 33.54 C18.15 24.65, 26.39 14.73, 34.86 9.08 C43.32 3.43, 53.21 0.52, 63.21 -0.33 C73.21 -1.18, 89.51 3.06, 94.86 3.98 C100.21 4.91, 95.58 4.25, 95.3 5.21" fill="none" stroke="#1e1e1e" stroke-width="2"></path></g><g transform="translate(47.43359375 11.66796875) rotate(0 26.85997772216797 12.5)"><text direction="ltr" dominant-baseline="text-before-edge" fill="#1e1e1e" font-family="Virgil, Segoe UI Emoji" font-size="20px" style="white-space: pre;" text-anchor="start" x="0" y="0">Hole 1</text></g><g transform="translate(207.99158477783203 12.2578125) rotate(0 31.269973754882812 12.5)"><text direction="ltr" dominant-baseline="text-before-edge" fill="#1e1e1e" font-family="Virgil, Segoe UI Emoji" font-size="20px" style="white-space: pre;" text-anchor="start" x="0" y="0">Hole 2</text></g><g transform="translate(383.0972137451172 13.9140625) rotate(0 30.959976196289062 12.5)"><text direction="ltr" dominant-baseline="text-before-edge" fill="#1e1e1e" font-family="Virgil, Segoe UI Emoji" font-size="20px" style="white-space: pre;" text-anchor="start" x="0" y="0">Hole 3</text></g><g transform="translate(546.3837738037109 10) rotate(0 30.549972534179688 12.5)"><text direction="ltr" dominant-baseline="text-before-edge" fill="#1e1e1e" font-family="Virgil, Segoe UI Emoji" font-size="20px" style="white-space: pre;" text-anchor="start" x="0" y="0">Hole 4</text></g><g stroke-linecap="round" transform="translate(577.251953125 115.423828125) rotate(0 9.0234375 10.732421875)"><path d="M7.22 -0.01 C8.88 -0.57, 11.39 0.51, 13.08 1.61 C14.76 2.71, 16.54 4.48, 17.35 6.58 C18.15 8.68, 18.56 11.97, 17.9 14.21 C17.23 16.45, 15.09 18.81, 13.34 20.04 C11.58 21.27, 9.22 21.97, 7.38 21.61 C5.54 21.24, 3.54 19.69, 2.32 17.85 C1.11 16, 0.08 12.9, 0.07 10.54 C0.06 8.18, 1.01 5.43, 2.27 3.68 C3.53 1.92, 6.62 0.63, 7.65 0.02 C8.68 -0.59, 8.44 -0.19, 8.46 0.01 M8.39 0.69 C10.18 0.49, 12.7 0.36, 14.22 1.72 C15.74 3.07, 17.12 6.54, 17.51 8.82 C17.91 11.1, 17.53 13.29, 16.59 15.39 C15.64 17.49, 13.65 20.55, 11.84 21.43 C10.03 22.31, 7.61 21.63, 5.73 20.67 C3.85 19.71, 1.46 17.57, 0.54 15.66 C-0.38 13.76, -0.29 11.43, 0.22 9.26 C0.73 7.08, 2.16 4.14, 3.6 2.63 C5.04 1.12, 8.02 0.56, 8.85 0.22 C9.69 -0.11, 8.65 0.42, 8.6 0.62" fill="#e9ecef" stroke="none" stroke-width="0"></path><path d="M10.39 0.42 C12.31 0.74, 14.84 2.63, 16.18 4.34 C17.52 6.05, 18.55 8.42, 18.41 10.69 C18.28 12.96, 16.68 16.18, 15.39 17.96 C14.1 19.74, 12.58 21.11, 10.66 21.37 C8.74 21.63, 5.49 20.7, 3.87 19.54 C2.25 18.38, 1.4 16.49, 0.93 14.41 C0.45 12.33, 0.31 9.19, 1 7.06 C1.69 4.94, 3.28 2.82, 5.05 1.66 C6.82 0.49, 10.56 0.2, 11.62 0.08 C12.68 -0.04, 11.59 0.65, 11.42 0.93 M7.94 -0.1 C9.73 -0.42, 11.88 0.62, 13.58 1.89 C15.29 3.16, 17.65 5.44, 18.18 7.54 C18.7 9.65, 17.56 12.46, 16.73 14.53 C15.91 16.6, 14.81 18.88, 13.23 19.99 C11.65 21.09, 9.07 21.65, 7.25 21.15 C5.43 20.66, 3.48 18.8, 2.3 17.04 C1.11 15.28, 0.03 12.8, 0.15 10.6 C0.27 8.41, 1.81 5.65, 3.01 3.87 C4.22 2.08, 6.57 0.49, 7.36 -0.1 C8.15 -0.7, 7.62 -0.01, 7.74 0.27" fill="none" stroke="#1e1e1e" stroke-width="2"></path></g><g stroke-linecap="round" transform="translate(214.669921875 80.0390625) rotate(0 9.0234375 10.732421875)"><path d="M10.5 -0.15 C12.4 0.09, 15.26 1.73, 16.48 3.69 C17.7 5.65, 17.97 9.15, 17.83 11.61 C17.7 14.06, 16.89 16.71, 15.69 18.41 C14.49 20.11, 12.52 21.5, 10.63 21.81 C8.75 22.12, 6.04 21.55, 4.38 20.25 C2.72 18.95, 1.39 16.19, 0.7 14 C0.01 11.81, -0.45 9.2, 0.27 7.13 C0.99 5.07, 3.13 2.79, 5 1.62 C6.87 0.44, 10.46 0.34, 11.48 0.1 C12.5 -0.14, 11.22 -0.03, 11.11 0.16 M7.25 -0.54 C8.85 -1.1, 11.3 0.12, 13.14 1.38 C14.98 2.64, 17.67 4.93, 18.29 7.02 C18.92 9.11, 17.8 11.77, 16.91 13.91 C16.02 16.06, 14.57 18.56, 12.94 19.88 C11.31 21.2, 8.85 22.28, 7.11 21.85 C5.38 21.42, 3.82 19.15, 2.52 17.31 C1.23 15.46, -0.51 12.96, -0.66 10.77 C-0.8 8.58, 0.37 5.95, 1.65 4.18 C2.94 2.4, 6.05 0.68, 7.05 0.11 C8.04 -0.45, 7.54 0.54, 7.62 0.79" fill="#e9ecef" stroke="none" stroke-width="0"></path><path d="M10.28 -0.14 C12.19 -0.03, 14.65 1.93, 15.91 3.7 C17.18 5.46, 17.76 8.2, 17.88 10.45 C17.99 12.69, 17.82 15.41, 16.61 17.16 C15.4 18.9, 12.52 20.32, 10.64 20.91 C8.77 21.51, 6.96 21.76, 5.36 20.74 C3.76 19.72, 1.83 17, 1.04 14.81 C0.26 12.61, 0.14 9.72, 0.64 7.59 C1.15 5.46, 2.44 3.25, 4.06 2.04 C5.68 0.84, 9.24 0.56, 10.35 0.36 C11.46 0.16, 10.82 0.66, 10.71 0.83 M9.72 -0.13 C11.64 -0.1, 13.7 1.15, 15.05 2.81 C16.39 4.47, 17.46 7.45, 17.81 9.83 C18.15 12.21, 18.09 15.24, 17.12 17.09 C16.16 18.94, 13.85 20.25, 12.03 20.92 C10.21 21.58, 7.98 21.89, 6.22 21.06 C4.47 20.22, 2.55 17.97, 1.5 15.93 C0.46 13.89, -0.37 11.06, -0.05 8.81 C0.27 6.56, 1.85 4.04, 3.42 2.45 C5 0.86, 8.39 -0.43, 9.39 -0.74 C10.4 -1.05, 9.42 0.38, 9.46 0.61" fill="none" stroke="#1e1e1e" stroke-width="2"></path></g></svg>