<svg height="580.537109375" version="1.1" viewbox="0 0 615.9809350967406 580.537109375" width="615.9809350967406" xmlns="http://www.w3.org/2000/svg">
<!-- svg-source:excalidraw -->
<!-- payload-type:application/vnd.excalidraw+json --><!-- payload-version:2 -->
<defs>
<style class="style-fonts">
</style>
</defs>
<rect fill="#ffffff" height="580.537109375" width="615.9809350967406" x="0" y="0"></rect><g stroke-linecap="round" transform="translate(10 209.6240234375) rotate(0 97.4267578125 103.3251953125)"><path d="M32 0 C67.32 2.33, 103.01 -0.06, 162.85 0 M32 0 C67.92 0.82, 102.67 1.21, 162.85 0 M162.85 0 C183.76 0.05, 193.02 8.95, 194.85 32 M162.85 0 C183.4 -1.35, 193.5 10.68, 194.85 32 M194.85 32 C196.16 90.19, 194.37 146.81, 194.85 174.65 M194.85 32 C195.28 70.48, 195.39 110.46, 194.85 174.65 M194.85 174.65 C195.2 196.54, 182.69 206.32, 162.85 206.65 M194.85 174.65 C196.18 194.73, 183.24 206.21, 162.85 206.65 M162.85 206.65 C133.36 209.09, 106.8 206.6, 32 206.65 M162.85 206.65 C120 206.17, 75.71 206.99, 32 206.65 M32 206.65 C11.21 206.76, 1.69 194.04, 0 174.65 M32 206.65 C12.25 206.49, 2.29 196.5, 0 174.65 M0 174.65 C-1.18 130.33, 0.08 89.02, 0 32 M0 174.65 C-0.45 141.44, -0.04 109.06, 0 32 M0 32 C0.13 11.26, 9.65 -0.63, 32 0 M0 32 C1.53 12.81, 10.13 1.28, 32 0" fill="none" stroke="#1e1e1e" stroke-width="2"></path></g><g transform="translate(60.16278076171875 295.44921875) rotate(0 47.26397705078125 17.5)"><text direction="ltr" dominant-baseline="text-before-edge" fill="#1e1e1e" font-family="Virgil, Segoe UI Emoji" font-size="28px" style="white-space: pre;" text-anchor="middle" x="47.26397705078125" y="0">Service</text></g><g stroke-linecap="round" transform="translate(330.0634765625 10) rotate(0 137.9587292671203 150.22216796875)"><path d="M172.5 37.75 C197.59 67.84, 223.63 96.15, 241.42 113.25 M172.5 37.75 C195.22 62.66, 217.71 87.18, 241.42 113.25 M241.42 113.25 C275.24 149.82, 274.74 151.02, 241.42 188.75 M241.42 113.25 C278.17 152.11, 275.29 151.71, 241.42 188.75 M241.42 188.75 C214.86 218.29, 189.13 242.54, 172.5 262.69 M241.42 188.75 C222.76 209.28, 203.49 228.51, 172.5 262.69 M172.5 262.69 C139.16 299.35, 137.17 300.06, 103.5 262.69 M172.5 262.69 C135.97 300, 138.9 298.39, 103.5 262.69 M103.5 262.69 C77.02 234.81, 49.37 205.16, 34.5 188.75 M103.5 262.69 C88.1 245.92, 72.9 227.99, 34.5 188.75 M34.5 188.75 C1.38 150.86, 1.99 151.45, 34.5 113.25 M34.5 188.75 C0.06 152.01, -2.15 150.37, 34.5 113.25 M34.5 113.25 C49.44 94.83, 68.85 75.73, 103.5 37.75 M34.5 113.25 C51.15 95.68, 67.14 76.95, 103.5 37.75 M103.5 37.75 C139.33 1.86, 137.54 1.11, 172.5 37.75 M103.5 37.75 C139.59 0.01, 138.03 0.4, 172.5 37.75" fill="none" stroke="#1e1e1e" stroke-width="2"></path></g><g transform="translate(411.20286774635315 132.111083984375) rotate(0 56.83997344970703 28)"><text direction="ltr" dominant-baseline="text-before-edge" fill="#1e1e1e" font-family="Virgil, Segoe UI Emoji" font-size="22.399999999999995px" style="white-space: pre;" text-anchor="middle" x="56.83997344970703" y="0">Expensive </text><text direction="ltr" dominant-baseline="text-before-edge" fill="#1e1e1e" font-family="Virgil, Segoe UI Emoji" font-size="22.399999999999995px" style="white-space: pre;" text-anchor="middle" x="56.83997344970703" y="27.999999999999993">Operation</text></g><g stroke-linecap="round" transform="translate(291.328125 407.5732421875) rotate(0 86.96533203125 81.48193359375)"><path d="M72.37 0.24 C82.91 -2.77, 96.29 -0.6, 107.61 2.19 C118.94 4.98, 130.9 9.89, 140.3 16.96 C149.69 24.03, 158.33 34.77, 163.98 44.61 C169.64 54.44, 173.42 65, 174.23 75.98 C175.04 86.96, 173.1 99.98, 168.83 110.49 C164.56 121, 156.94 131.12, 148.6 139.04 C140.27 146.97, 129.73 154.18, 118.82 158.03 C107.9 161.88, 94.88 162.83, 83.09 162.14 C71.3 161.44, 58.44 158.6, 48.07 153.86 C37.7 149.12, 28.28 142.2, 20.86 133.68 C13.43 125.16, 6.87 113.33, 3.52 102.76 C0.16 92.19, -0.82 81.15, 0.75 70.27 C2.32 59.4, 6.63 47.09, 12.93 37.51 C19.22 27.93, 26.88 18.97, 38.55 12.8 C50.21 6.62, 73.84 2.13, 82.89 0.47 C91.94 -1.19, 92.82 1.6, 92.86 2.85 M102 0 C113.03 0.45, 124.75 7.28, 134.51 13.54 C144.27 19.8, 153.94 28.52, 160.56 37.55 C167.17 46.57, 172.31 56.81, 174.2 67.7 C176.09 78.59, 174.96 91.92, 171.88 102.88 C168.81 113.83, 163.39 124.75, 155.76 133.43 C148.12 142.1, 137.09 150.1, 126.08 154.94 C115.06 159.78, 101.59 161.96, 89.66 162.46 C77.73 162.96, 65.16 162.05, 54.49 157.93 C43.82 153.81, 33.78 145.5, 25.64 137.72 C17.49 129.95, 9.98 121.6, 5.62 111.29 C1.26 100.99, -1.19 87.18, -0.52 75.89 C0.15 64.6, 4.11 53.14, 9.64 43.55 C15.18 33.96, 23.61 25.23, 32.69 18.33 C41.77 11.44, 52.58 4.84, 64.13 2.2 C75.69 -0.45, 95.98 2.25, 102.02 2.47 C108.06 2.69, 100.62 2.4, 100.39 3.51" fill="none" stroke="#1e1e1e" stroke-width="2"></path></g><g transform="translate(338.3436950008642 471.43874799291746) rotate(0 39.95598602294922 17.5)"><text direction="ltr" dominant-baseline="text-before-edge" fill="#1e1e1e" font-family="Virgil, Segoe UI Emoji" font-size="28px" style="white-space: pre;" text-anchor="middle" x="39.95598602294922" y="0">Cache</text></g><g stroke-linecap="round"><g transform="translate(209.98046875 369.7802734375) rotate(0 48.88671875 27.8271484375)"><path d="M-0.26 0.03 C15.92 8.98, 80.4 45.47, 96.67 54.62 M1.81 -1 C18.38 7.99, 83.04 46.14, 98.81 55.62" fill="none" stroke="#1e1e1e" stroke-width="2"></path></g><g transform="translate(209.98046875 369.7802734375) rotate(0 48.88671875 27.8271484375)"><path d="M29.34 4.92 C21.48 1.72, 11.83 1.57, -0.26 0.03 M29.34 4.92 C23.21 4.22, 14.82 2.87, -0.26 0.03" fill="none" stroke="#1e1e1e" stroke-width="2"></path></g><g transform="translate(209.98046875 369.7802734375) rotate(0 48.88671875 27.8271484375)"><path d="M19.28 22.8 C13.95 14.86, 6.99 9.95, -0.26 0.03 M19.28 22.8 C15.68 17.79, 9.72 12.12, -0.26 0.03" fill="none" stroke="#1e1e1e" stroke-width="2"></path></g><g transform="translate(209.98046875 369.7802734375) rotate(0 48.88671875 27.8271484375)"><path d="M69.33 50.04 C77.27 49.76, 83.35 52.39, 98.81 55.62 M69.33 50.04 C77.39 51.87, 83.25 53.04, 98.81 55.62" fill="none" stroke="#1e1e1e" stroke-width="2"></path></g><g transform="translate(209.98046875 369.7802734375) rotate(0 48.88671875 27.8271484375)"><path d="M79.81 32.4 C85.09 36.79, 88.38 44.12, 98.81 55.62 M79.81 32.4 C85.24 38.48, 88.57 43.91, 98.81 55.62" fill="none" stroke="#1e1e1e" stroke-width="2"></path></g></g><mask></mask><g transform="translate(252.7001953125 363.3935546875) rotate(0 3.7939987182617188 17.5)"><text direction="ltr" dominant-baseline="text-before-edge" fill="#1e1e1e" font-family="Virgil, Segoe UI Emoji" font-size="28px" style="white-space: pre;" text-anchor="start" x="0" y="0">1</text></g><g stroke-linecap="round"><g transform="translate(211.767578125 276.083984375) rotate(0 78.22509765625 -30.76904296875)"><path d="M-0.41 -0.71 C25.73 -10.79, 129.4 -51.49, 155.74 -61.53 M1.58 1.54 C28.21 -8.25, 132.1 -49.23, 158.08 -59.99" fill="none" stroke="#1e1e1e" stroke-width="2"></path></g><g transform="translate(211.767578125 276.083984375) rotate(0 78.22509765625 -30.76904296875)"><path d="M22.12 -20.51 C16.09 -17.64, 12.58 -10.38, -0.41 -0.71 M22.12 -20.51 C14.94 -14.13, 7.02 -6.93, -0.41 -0.71" fill="none" stroke="#1e1e1e" stroke-width="2"></path></g><g transform="translate(211.767578125 276.083984375) rotate(0 78.22509765625 -30.76904296875)"><path d="M29.58 -1.39 C22.16 -2.53, 17.1 0.75, -0.41 -0.71 M29.58 -1.39 C19.85 -1.64, 9.34 -1.1, -0.41 -0.71" fill="none" stroke="#1e1e1e" stroke-width="2"></path></g><g transform="translate(211.767578125 276.083984375) rotate(0 78.22509765625 -30.76904296875)"><path d="M135.76 -39.95 C139.41 -45.22, 145.25 -46.26, 158.08 -59.99 M135.76 -39.95 C144.3 -47.57, 151.99 -54.25, 158.08 -59.99" fill="none" stroke="#1e1e1e" stroke-width="2"></path></g><g transform="translate(211.767578125 276.083984375) rotate(0 78.22509765625 -30.76904296875)"><path d="M128.1 -58.99 C133.18 -60.27, 140.61 -57.34, 158.08 -59.99 M128.1 -58.99 C139.25 -60.01, 149.61 -60.05, 158.08 -59.99" fill="none" stroke="#1e1e1e" stroke-width="2"></path></g></g><mask></mask><g transform="translate(273.1494140625 209.2578125) rotate(0 9.967994689941406 17.5)"><text direction="ltr" dominant-baseline="text-before-edge" fill="#1e1e1e" font-family="Virgil, Segoe UI Emoji" font-size="28px" style="white-space: pre;" text-anchor="start" x="0" y="0">2</text></g></svg>