<svg height="397.3828125" version="1.1" viewbox="0 0 726.088623046875 397.3828125" width="726.088623046875" xmlns="http://www.w3.org/2000/svg">
<!-- svg-source:excalidraw -->
<!-- payload-type:application/vnd.excalidraw+json --><!-- payload-version:2 -->
<defs>
<style class="style-fonts">
</style>
</defs>
<rect fill="#ffffff" height="397.3828125" width="726.088623046875" x="0" y="0"></rect><g transform="translate(531.0212478637695 155.06494140625) rotate(0 18 72.89999999999998)"><text direction="ltr" dominant-baseline="text-before-edge" fill="#1e1e1e" font-family="Segoe UI Emoji" font-size="36px" style="white-space: pre;" text-anchor="middle" x="18" y="0">10</text><text direction="ltr" dominant-baseline="text-before-edge" fill="#1e1e1e" font-family="Segoe UI Emoji" font-size="36px" style="white-space: pre;" text-anchor="middle" x="18" y="48.6">01</text><text direction="ltr" dominant-baseline="text-before-edge" fill="#1e1e1e" font-family="Segoe UI Emoji" font-size="36px" style="white-space: pre;" text-anchor="middle" x="18" y="97.2">...</text></g><g stroke-linecap="round" transform="translate(470.284423828125 151.96240234375) rotate(0 85 77.82470703125)"><path d="M32 0 C71.98 -0.42, 115.44 -0.09, 138 0 M32 0 C57.58 0.31, 83.23 -0.17, 138 0 M138 0 C157.39 -1.19, 169.66 8.67, 170 32 M138 0 C157.36 1.03, 168.64 9.7, 170 32 M170 32 C171.42 50.1, 171.71 71.12, 170 123.65 M170 32 C170.54 68.18, 169.13 102.47, 170 123.65 M170 123.65 C168.82 144.74, 158.93 153.75, 138 155.65 M170 123.65 C172.23 146.51, 158.2 155.1, 138 155.65 M138 155.65 C113.98 155.82, 92.22 155.41, 32 155.65 M138 155.65 C111.9 157.4, 86.69 155.7, 32 155.65 M32 155.65 C10.36 155.33, -1.1 144.43, 0 123.65 M32 155.65 C9.58 154.88, -1.91 142.87, 0 123.65 M0 123.65 C0.61 88.98, 1.71 56.36, 0 32 M0 123.65 C1 92.63, 0.83 60.62, 0 32 M0 32 C-1.11 8.75, 9.66 1.3, 32 0 M0 32 C-0.19 12.26, 9.87 -2.09, 32 0" fill="none" stroke="#1e1e1e" stroke-width="2"></path></g><g transform="translate(417.020751953125 63.44287109375) rotate(0 149.533935546875 35)"><text direction="ltr" dominant-baseline="text-before-edge" fill="#1e1e1e" font-family="Virgil, Segoe UI Emoji" font-size="28px" style="white-space: pre;" text-anchor="middle" x="149.533935546875" y="0">New </text><text direction="ltr" dominant-baseline="text-before-edge" fill="#1e1e1e" font-family="Virgil, Segoe UI Emoji" font-size="28px" style="white-space: pre;" text-anchor="middle" x="149.533935546875" y="35">Bloom Filter Contents</text></g><g transform="translate(81.6796875 152.9867187499999) rotate(0 18 72.89999999999998)"><text direction="ltr" dominant-baseline="text-before-edge" fill="#1e1e1e" font-family="Segoe UI Emoji" font-size="36px" style="white-space: pre;" text-anchor="middle" x="18" y="0">00</text><text direction="ltr" dominant-baseline="text-before-edge" fill="#1e1e1e" font-family="Segoe UI Emoji" font-size="36px" style="white-space: pre;" text-anchor="middle" x="18" y="48.6">00</text><text direction="ltr" dominant-baseline="text-before-edge" fill="#1e1e1e" font-family="Segoe UI Emoji" font-size="36px" style="white-space: pre;" text-anchor="middle" x="18" y="97.2">...</text></g><g transform="translate(209.70703125 186.87109375) rotate(0 25.271987915039062 22.5)"><text direction="ltr" dominant-baseline="text-before-edge" fill="#1e1e1e" font-family="Virgil, Segoe UI Emoji" font-size="36px" style="white-space: pre;" text-anchor="start" x="0" y="0">OR</text></g><g transform="translate(308.2578125 153.4398437499999) rotate(0 18 72.89999999999998)"><text direction="ltr" dominant-baseline="text-before-edge" fill="#1e1e1e" font-family="Segoe UI Emoji" font-size="36px" style="white-space: pre;" text-anchor="middle" x="18" y="0">10</text><text direction="ltr" dominant-baseline="text-before-edge" fill="#1e1e1e" font-family="Segoe UI Emoji" font-size="36px" style="white-space: pre;" text-anchor="middle" x="18" y="48.6">01</text><text direction="ltr" dominant-baseline="text-before-edge" fill="#1e1e1e" font-family="Segoe UI Emoji" font-size="36px" style="white-space: pre;" text-anchor="middle" x="18" y="97.2">...</text></g><g transform="translate(391.98973083496094 187.46484375) rotate(0 11.105995178222656 22.5)"><text direction="ltr" dominant-baseline="text-before-edge" fill="#1e1e1e" font-family="Virgil, Segoe UI Emoji" font-size="36px" style="white-space: pre;" text-anchor="start" x="0" y="0">=</text></g><g transform="translate(20.571212768554688 57.16796875) rotate(0 67.04597473144531 35)"><text direction="ltr" dominant-baseline="text-before-edge" fill="#1e1e1e" font-family="Virgil, Segoe UI Emoji" font-size="28px" style="white-space: pre;" text-anchor="middle" x="67.04597473144531" y="0">Old Bloom</text><text direction="ltr" dominant-baseline="text-before-edge" fill="#1e1e1e" font-family="Virgil, Segoe UI Emoji" font-size="28px" style="white-space: pre;" text-anchor="middle" x="67.04597473144531" y="35">Filter</text></g><g stroke-linecap="round" transform="translate(10 142.63623046875) rotate(0 85 77.82470703125)"><path d="M32 0 C65.52 0.52, 93.73 1.18, 138 0 M32 0 C71.29 -0.25, 111.65 -0.26, 138 0 M138 0 C161.22 -0.55, 169.35 9.12, 170 32 M138 0 C159.71 -1.49, 170.31 12.37, 170 32 M170 32 C170.77 51.4, 171.67 69.71, 170 123.65 M170 32 C168.91 60.49, 169.28 88.1, 170 123.65 M170 123.65 C169.04 145.3, 159.93 156.07, 138 155.65 M170 123.65 C167.94 147.22, 158.09 153.72, 138 155.65 M138 155.65 C114.53 156.22, 91.34 157.42, 32 155.65 M138 155.65 C102.45 155.65, 65.42 154.42, 32 155.65 M32 155.65 C11.93 157.1, 1.23 143.93, 0 123.65 M32 155.65 C9.4 155.08, 1.4 146.65, 0 123.65 M0 123.65 C-1.88 102.44, -1.64 82.44, 0 32 M0 123.65 C0.01 91.43, 1.27 60.97, 0 32 M0 32 C-1.18 11.56, 9.62 0.17, 32 0 M0 32 C1.14 9.74, 8.49 -0.19, 32 0" fill="none" stroke="#1e1e1e" stroke-width="2"></path></g><g stroke-linecap="round" transform="translate(290.34765625 147.7421875) rotate(0 37.224609375 82.33203125)"><path d="M18.61 0 C27.04 -0.02, 35.48 1.33, 55.84 0 M18.61 0 C32.16 0.25, 46.2 0.85, 55.84 0 M55.84 0 C66.72 -0.84, 73.68 7.75, 74.45 18.61 M55.84 0 C69.02 0.85, 73.13 6.29, 74.45 18.61 M74.45 18.61 C75.55 47.23, 74.41 76.13, 74.45 146.05 M74.45 18.61 C72.7 57.55, 72.46 94.51, 74.45 146.05 M74.45 146.05 C75.73 158.7, 67.56 164.33, 55.84 164.66 M74.45 146.05 C74.86 159.04, 67.2 164.9, 55.84 164.66 M55.84 164.66 C41.8 163.18, 25.9 163.08, 18.61 164.66 M55.84 164.66 C46.47 164.52, 36.21 165.17, 18.61 164.66 M18.61 164.66 C7.47 165.46, 0.9 157.42, 0 146.05 M18.61 164.66 C4.64 164.59, -2.11 160.73, 0 146.05 M0 146.05 C1.8 109.42, 1.01 72.31, 0 18.61 M0 146.05 C1.05 113.13, 0.74 82.33, 0 18.61 M0 18.61 C-0.4 4.66, 5.36 -0.42, 18.61 0 M0 18.61 C0.21 7.64, 5.78 -0.88, 18.61 0" fill="none" stroke="#1e1e1e" stroke-width="2"></path></g><g stroke-linecap="round"><g transform="translate(369.1951675415039 379.2727857427441) rotate(0 -16.972583770751953 -27.97037724637204)"><path d="M-0.23 0.4 C-6.02 -0.15, -29.02 5.4, -34.15 -4.18 C-39.29 -13.77, -31.47 -48.69, -31.05 -57.12 M-1.81 -0.44 C-7.82 -1.29, -30.2 3.15, -35.21 -6.18 C-40.23 -15.51, -32.49 -48, -31.9 -56.41" fill="none" stroke="#1e1e1e" stroke-width="2"></path></g><g transform="translate(369.1951675415039 379.2727857427441) rotate(0 -16.972583770751953 -27.97037724637204)"><path d="M-26.77 -31.12 C-27.69 -40.24, -29.74 -48.93, -31.9 -56.41 M-26.77 -31.12 C-27.07 -35.8, -29.24 -40.64, -31.9 -56.41" fill="none" stroke="#1e1e1e" stroke-width="2"></path></g><g transform="translate(369.1951675415039 379.2727857427441) rotate(0 -16.972583770751953 -27.97037724637204)"><path d="M-44.23 -33.74 C-39.12 -41.92, -35.12 -49.7, -31.9 -56.41 M-44.23 -33.74 C-41.02 -38.06, -39.66 -42.37, -31.9 -56.41" fill="none" stroke="#1e1e1e" stroke-width="2"></path></g></g><mask></mask><g transform="translate(381.27366638183594 362.3828125) rotate(0 75.65992736816406 12.5)"><text direction="ltr" dominant-baseline="text-before-edge" fill="#1e1e1e" font-family="Virgil, Segoe UI Emoji" font-size="20px" style="white-space: pre;" text-anchor="middle" x="75.65992736816406" y="0">Albert's hashes</text></g><g stroke-linecap="round"><g transform="translate(313.08203125 25.9921875) rotate(0 -42.232421875 75.296875)"><path d="M-0.87 -0.19 C-14.87 9.4, -70.77 33.24, -84.51 58.27 C-98.25 83.31, -83.43 134.83, -83.31 150.02 M0.88 -1.33 C-13.24 8.34, -71.35 34.09, -85.48 59.49 C-99.61 84.88, -84.21 135.97, -83.91 151.04" fill="none" stroke="#1e1e1e" stroke-width="2"></path></g><g transform="translate(313.08203125 25.9921875) rotate(0 -42.232421875 75.296875)"><path d="M-98.12 124.62 C-94.61 131.45, -91.66 138.85, -83.91 151.04 M-98.12 124.62 C-94.75 131.77, -90.78 138.14, -83.91 151.04" fill="none" stroke="#1e1e1e" stroke-width="2"></path></g><g transform="translate(313.08203125 25.9921875) rotate(0 -42.232421875 75.296875)"><path d="M-77.81 121.67 C-79.51 129.11, -81.79 137.27, -83.91 151.04 M-77.81 121.67 C-79.57 129.37, -80.73 136.48, -83.91 151.04" fill="none" stroke="#1e1e1e" stroke-width="2"></path></g></g><mask></mask><g transform="translate(337.1739501953125 10) rotate(0 53.3299560546875 12.5)"><text direction="ltr" dominant-baseline="text-before-edge" fill="#1e1e1e" font-family="Virgil, Segoe UI Emoji" font-size="20px" style="white-space: pre;" text-anchor="middle" x="53.3299560546875" y="0">Bitwise OR</text></g></svg>