<svg height="192.03515625" version="1.1" viewbox="0 0 161.7734375 192.03515625" width="161.7734375" xmlns="http://www.w3.org/2000/svg">
<!-- svg-source:excalidraw -->
<!-- payload-type:application/vnd.excalidraw+json --><!-- payload-version:2 -->
<defs>
<style class="style-fonts">
</style>
</defs>
<rect fill="#ffffff" height="192.03515625" width="161.7734375" x="0" y="0"></rect><g stroke-linecap="round" transform="translate(10 40.67578125) rotate(0 70.88671875 70.6796875)"><path d="M100.38 6.19 C109.52 9.29, 118.45 18.2, 124.92 26.32 C131.39 34.44, 136.8 44.93, 139.19 54.9 C141.58 64.86, 141.21 76.28, 139.28 86.13 C137.35 95.99, 133.63 105.91, 127.6 114.01 C121.58 122.12, 112.38 130.05, 103.12 134.77 C93.85 139.49, 82.37 142.4, 72.03 142.32 C61.68 142.24, 50.49 138.91, 41.05 134.3 C31.62 129.68, 21.94 122.59, 15.42 114.64 C8.89 106.69, 4.29 96.33, 1.89 86.59 C-0.51 76.86, -1.13 66.22, 1.01 56.24 C3.15 46.25, 8.3 34.86, 14.75 26.66 C21.21 18.46, 30.54 11.35, 39.75 7.01 C48.96 2.68, 58.72 0.15, 70.03 0.66 C81.34 1.18, 100.5 7.53, 107.59 10.1 C114.67 12.68, 113.15 15.09, 112.54 16.13 M76.59 0.23 C86.49 0.52, 99.18 6.3, 108.06 11.37 C116.95 16.45, 124.23 22.1, 129.91 30.66 C135.59 39.23, 140.65 52.21, 142.12 62.77 C143.59 73.33, 142.06 84.59, 138.72 94.02 C135.38 103.44, 129.49 112.03, 122.09 119.34 C114.69 126.66, 103.92 134.31, 94.29 137.9 C84.67 141.49, 74.13 142.11, 64.34 140.9 C54.56 139.69, 44.25 135.71, 35.59 130.64 C26.94 125.57, 18.44 119.12, 12.43 110.47 C6.42 101.83, 1.11 89.2, -0.49 78.76 C-2.08 68.31, -0.69 57.26, 2.83 47.82 C6.35 38.38, 13.53 29.29, 20.66 22.13 C27.8 14.98, 36.11 8.54, 45.64 4.91 C55.16 1.28, 72.67 1.12, 77.81 0.37 C82.95 -0.38, 76.62 -0.94, 76.51 0.42" fill="none" stroke="#1e1e1e" stroke-width="2"></path></g><g transform="translate(47.43359375 10) rotate(0 26.85997772216797 12.5)"><text direction="ltr" dominant-baseline="text-before-edge" fill="#1e1e1e" font-family="Virgil, Segoe UI Emoji" font-size="20px" style="white-space: pre;" text-anchor="start" x="0" y="0">Hole 1</text></g><g stroke-linecap="round" transform="translate(67.826171875 100.48046875) rotate(0 9.0234375 10.732421875)"><path d="M8.85 0.03 C10.7 -0.16, 13.83 0.81, 15.27 2.23 C16.7 3.64, 17.19 6.22, 17.45 8.52 C17.71 10.82, 17.78 14.02, 16.83 16.01 C15.88 17.99, 13.6 19.54, 11.75 20.41 C9.9 21.29, 7.55 21.93, 5.72 21.27 C3.88 20.62, 1.62 18.55, 0.74 16.48 C-0.13 14.42, 0 11.17, 0.47 8.88 C0.94 6.6, 2.12 4.27, 3.57 2.78 C5.03 1.29, 8.2 0.33, 9.19 -0.07 C10.17 -0.46, 9.56 0.18, 9.5 0.4 M9.16 0.68 C11.14 0.79, 14.44 2.25, 15.81 3.77 C17.18 5.29, 17.26 7.7, 17.36 9.8 C17.45 11.9, 17.27 14.5, 16.36 16.37 C15.46 18.25, 13.88 20.36, 11.91 21.07 C9.95 21.78, 6.45 21.56, 4.58 20.64 C2.71 19.72, 1.48 17.73, 0.68 15.56 C-0.12 13.39, -0.71 9.81, -0.24 7.6 C0.23 5.39, 1.73 3.48, 3.5 2.31 C5.28 1.14, 9.27 1.03, 10.41 0.57 C11.55 0.11, 10.51 -0.63, 10.36 -0.43" fill="#e9ecef" stroke="none" stroke-width="0"></path><path d="M7.11 -0.08 C8.91 -0.69, 11.66 0.41, 13.35 1.46 C15.04 2.51, 16.52 4.15, 17.23 6.22 C17.95 8.3, 18.18 11.69, 17.63 13.92 C17.08 16.15, 15.61 18.28, 13.95 19.61 C12.3 20.93, 9.51 22.02, 7.68 21.85 C5.86 21.68, 4.29 20.38, 3.01 18.58 C1.73 16.78, 0.2 13.37, -0.02 11.06 C-0.24 8.74, 0.4 6.53, 1.68 4.71 C2.96 2.88, 6.58 0.91, 7.65 0.1 C8.73 -0.71, 8.17 -0.44, 8.12 -0.18 M9.99 -0.61 C11.92 -0.32, 14.4 1.59, 15.84 3.51 C17.27 5.42, 18.64 8.67, 18.6 10.88 C18.55 13.1, 16.76 15.15, 15.56 16.81 C14.37 18.46, 13.16 20.3, 11.42 20.8 C9.68 21.31, 7.02 20.92, 5.15 19.82 C3.28 18.71, 0.89 16.39, 0.22 14.19 C-0.46 11.99, 0.43 8.72, 1.09 6.61 C1.75 4.49, 2.58 2.66, 4.18 1.5 C5.77 0.34, 9.56 -0.14, 10.64 -0.35 C11.72 -0.56, 10.85 0.02, 10.66 0.23" fill="none" stroke="#1e1e1e" stroke-width="2"></path></g><g stroke-linecap="round" transform="translate(97.548828125 73.30859375) rotate(0 9.0234375 10.732421875)"><path d="M9.18 -0.22 C11 -0.23, 13.45 1.48, 14.98 3.16 C16.52 4.84, 18.06 7.66, 18.39 9.83 C18.72 12, 18.1 14.23, 16.95 16.17 C15.79 18.11, 13.41 20.67, 11.46 21.46 C9.51 22.24, 7.05 21.8, 5.24 20.88 C3.43 19.95, 1.46 17.94, 0.59 15.91 C-0.28 13.88, -0.52 10.96, 0.01 8.69 C0.55 6.42, 2.2 3.81, 3.79 2.32 C5.39 0.83, 8.64 0.11, 9.58 -0.26 C10.53 -0.63, 9.41 -0.07, 9.47 0.1 M7.08 0.28 C8.9 -0.27, 12.1 -0.19, 13.75 1 C15.4 2.19, 16.32 5.24, 16.98 7.41 C17.65 9.59, 18.46 12.04, 17.74 14.06 C17.02 16.08, 14.5 18.3, 12.65 19.51 C10.79 20.71, 8.37 21.55, 6.61 21.28 C4.85 21.01, 3.2 19.79, 2.08 17.91 C0.96 16.03, -0.05 12.45, -0.11 10.02 C-0.17 7.59, 0.48 4.91, 1.72 3.32 C2.97 1.72, 6.27 0.9, 7.38 0.43 C8.49 -0.04, 8.41 0.43, 8.37 0.5" fill="#e9ecef" stroke="none" stroke-width="0"></path><path d="M8.43 -0.4 C10.27 -0.73, 12.34 0.45, 13.91 1.75 C15.48 3.04, 17.26 5.18, 17.86 7.38 C18.45 9.59, 18.39 12.83, 17.5 14.96 C16.62 17.09, 14.36 19.16, 12.54 20.17 C10.72 21.19, 8.37 21.49, 6.58 21.04 C4.78 20.59, 2.86 19.32, 1.77 17.46 C0.68 15.6, -0.09 12.15, 0.04 9.87 C0.16 7.58, 1.18 5.48, 2.51 3.76 C3.85 2.05, 7.1 0.16, 8.07 -0.43 C9.05 -1.02, 8.32 0.02, 8.37 0.22 M6.5 0.83 C8.41 0.14, 11.89 0.27, 13.79 1.33 C15.69 2.39, 17.3 5.07, 17.91 7.18 C18.52 9.29, 18.14 11.83, 17.44 13.99 C16.74 16.14, 15.46 18.84, 13.73 20.11 C12.01 21.39, 8.95 22.08, 7.08 21.63 C5.22 21.19, 3.68 19.31, 2.55 17.44 C1.42 15.57, 0.3 12.57, 0.3 10.42 C0.31 8.26, 1.32 6.31, 2.57 4.5 C3.83 2.7, 7.05 0.26, 7.82 -0.43 C8.6 -1.12, 7.4 0, 7.24 0.38" fill="none" stroke="#1e1e1e" stroke-width="2"></path></g><g stroke-linecap="round" transform="translate(102.701171875 112.9140625) rotate(0 9.0234375 10.732421875)"><path d="M7.19 0.21 C8.95 -0.23, 11.31 0.79, 13.06 1.86 C14.82 2.94, 16.95 4.53, 17.73 6.66 C18.51 8.79, 18.48 12.47, 17.72 14.64 C16.97 16.82, 14.9 18.54, 13.21 19.71 C11.51 20.88, 9.41 21.96, 7.56 21.65 C5.71 21.33, 3.31 19.61, 2.09 17.82 C0.88 16.03, 0.27 13.29, 0.27 10.91 C0.26 8.52, 0.88 5.32, 2.08 3.52 C3.27 1.72, 6.41 0.68, 7.44 0.09 C8.48 -0.49, 8.21 -0.2, 8.3 0 M10.23 0.43 C12.06 0.38, 13.4 0.74, 14.63 2.37 C15.86 4, 17.19 7.93, 17.61 10.19 C18.04 12.44, 18.05 14.05, 17.17 15.89 C16.29 17.73, 14.36 20.44, 12.31 21.2 C10.27 21.96, 6.83 21.34, 4.9 20.47 C2.96 19.61, 1.56 18.03, 0.71 16 C-0.14 13.97, -0.69 10.66, -0.22 8.29 C0.25 5.91, 1.95 3.21, 3.53 1.76 C5.12 0.3, 8.38 -0.21, 9.3 -0.46 C10.21 -0.7, 8.96 0.13, 9 0.3" fill="#e9ecef" stroke="none" stroke-width="0"></path><path d="M7.98 -0.01 C9.75 -0.33, 12.56 0.23, 14.21 1.57 C15.85 2.91, 17.42 5.79, 17.86 8.01 C18.29 10.24, 17.63 12.8, 16.8 14.92 C15.97 17.03, 14.62 19.74, 12.86 20.7 C11.1 21.65, 8.19 21.34, 6.24 20.63 C4.3 19.92, 2.2 18.24, 1.17 16.44 C0.14 14.63, -0.25 12.06, 0.06 9.83 C0.36 7.59, 1.65 4.73, 3 3.03 C4.35 1.34, 7.26 0.16, 8.17 -0.34 C9.07 -0.84, 8.34 -0.29, 8.44 0.02 M10.23 0.24 C12.27 0.38, 14.53 2.1, 15.7 3.51 C16.87 4.92, 17.1 6.59, 17.26 8.72 C17.42 10.84, 17.57 14.11, 16.67 16.28 C15.76 18.44, 13.59 20.92, 11.83 21.72 C10.07 22.52, 8.01 22.09, 6.11 21.09 C4.22 20.09, 1.45 17.81, 0.45 15.72 C-0.55 13.63, -0.46 10.79, 0.12 8.55 C0.7 6.32, 2.41 3.69, 3.93 2.32 C5.44 0.95, 8.36 0.67, 9.21 0.32 C10.07 -0.03, 8.99 0.12, 9.05 0.23" fill="none" stroke="#1e1e1e" stroke-width="2"></path></g></svg>