<svg height="505.1857607841492" version="1.1" viewbox="0 0 603.5734710693359 505.1857607841492" width="603.5734710693359" xmlns="http://www.w3.org/2000/svg">
<!-- svg-source:excalidraw -->
<!-- payload-type:application/vnd.excalidraw+json --><!-- payload-version:2 -->
<defs>
<style class="style-fonts">
</style>
</defs>
<rect fill="#ffffff" height="505.1857607841492" width="603.5734710693359" x="0" y="0"></rect><g stroke-linecap="round" transform="translate(10 224.39669828414918) rotate(0 128.50000000000003 135.39453125)"><path d="M161.25 34 C176.76 48.49, 189.66 64.57, 224.75 102 M161.25 34 C181.69 55.55, 199.85 77.73, 224.75 102 M224.75 102 C257.17 134.17, 256.14 135.17, 224.75 170 M224.75 102 C257.19 137.79, 257.56 138.13, 224.75 170 M224.75 170 C199.64 196.65, 174.9 222.6, 161.25 236.79 M224.75 170 C209.53 186.78, 193.93 202.18, 161.25 236.79 M161.25 236.79 C127.57 272.48, 127.54 270.63, 96.75 236.79 M161.25 236.79 C130.89 272.57, 127.4 272.9, 96.75 236.79 M96.75 236.79 C75.17 213.91, 54.74 193.38, 32.25 170 M96.75 236.79 C79.24 218.09, 61.54 199.83, 32.25 170 M32.25 170 C-1.27 137.82, -1.94 134.51, 32.25 102 M32.25 170 C-2.19 136.5, -1.05 137.28, 32.25 102 M32.25 102 C54.98 77.43, 80.97 48.2, 96.75 34 M32.25 102 C51.99 81.67, 71.79 61.05, 96.75 34 M96.75 34 C127.13 -1.64, 129.67 1.49, 161.25 34 M96.75 34 C126.7 -1.13, 128.84 -1.19, 161.25 34" fill="none" stroke="#1e1e1e" stroke-width="2"></path></g><g transform="translate(80.77005767822266 347.0939639091492) rotate(0 57.979942321777344 12.5)"><text direction="ltr" dominant-baseline="text-before-edge" fill="#1e1e1e" font-family="Virgil, Segoe UI Emoji" font-size="20px" style="white-space: pre;" text-anchor="middle" x="57.979942321777344" y="0">HyperLogLog</text></g><g stroke-linecap="round"><g transform="translate(129.6875 10.631073284149181) rotate(0 -0.19921875 100.162109375)"><path d="M0.42 -0.63 C0.61 32.62, 0.3 166.1, 0.26 199.63 M-0.81 1.65 C-0.66 35.04, -0.44 167.41, -0.34 200.8" fill="none" stroke="#1e1e1e" stroke-width="2"></path></g><g transform="translate(129.6875 10.631073284149181) rotate(0 -0.19921875 100.162109375)"><path d="M-10.66 172.64 C-9.3 180.21, -7.02 186.65, -0.34 200.8 M-10.66 172.64 C-8.13 181.68, -3.35 191, -0.34 200.8" fill="none" stroke="#1e1e1e" stroke-width="2"></path></g><g transform="translate(129.6875 10.631073284149181) rotate(0 -0.19921875 100.162109375)"><path d="M9.86 172.59 C6.48 180.25, 4.02 186.7, -0.34 200.8 M9.86 172.59 C5.83 181.61, 4.05 190.94, -0.34 200.8" fill="none" stroke="#1e1e1e" stroke-width="2"></path></g></g><mask></mask><g transform="translate(157.890625 77.42794828414918) rotate(0 86.26992797851562 25)"><text direction="ltr" dominant-baseline="text-before-edge" fill="#1e1e1e" font-family="Virgil, Segoe UI Emoji" font-size="20px" style="white-space: pre;" text-anchor="middle" x="86.26992797851562" y="0">Millions of </text><text direction="ltr" dominant-baseline="text-before-edge" fill="#1e1e1e" font-family="Virgil, Segoe UI Emoji" font-size="20px" style="white-space: pre;" text-anchor="middle" x="86.26992797851562" y="25">Incoming Elements</text></g><g stroke-linecap="round"><g transform="translate(286.28125 356.2091982841492) rotate(0 104.810546875 1.859375)"><path d="M-0.17 -0.71 C34.83 -0.18, 174.97 2.39, 210.09 3.15 M-1.72 1.53 C33.15 2.21, 174.05 3.77, 209.39 4.39" fill="none" stroke="#1e1e1e" stroke-width="2"></path></g><g transform="translate(286.28125 356.2091982841492) rotate(0 104.810546875 1.859375)"><path d="M181.06 14.25 C188.61 12.04, 197.57 9.84, 209.39 4.39 M181.06 14.25 C190.82 11.46, 198.89 8.43, 209.39 4.39" fill="none" stroke="#1e1e1e" stroke-width="2"></path></g><g transform="translate(286.28125 356.2091982841492) rotate(0 104.810546875 1.859375)"><path d="M181.35 -6.27 C188.81 -2.16, 197.68 1.96, 209.39 4.39 M181.35 -6.27 C191.12 -2.68, 199.1 0.67, 209.39 4.39" fill="none" stroke="#1e1e1e" stroke-width="2"></path></g></g><mask></mask><g transform="translate(276 298.1701357841492) rotate(0 106.60990905761719 12.5)"><text direction="ltr" dominant-baseline="text-before-edge" fill="#1e1e1e" font-family="Virgil, Segoe UI Emoji" font-size="20px" style="white-space: pre;" text-anchor="start" x="0" y="0">Estimated Cardinality</text></g><g transform="translate(535.9375 331.5060732841492) rotate(0 28.81798553466797 22.5)"><text direction="ltr" dominant-baseline="text-before-edge" fill="#1e1e1e" font-family="Virgil, Segoe UI Emoji" font-size="36px" style="white-space: pre;" text-anchor="start" x="0" y="0">512</text></g></svg>