<svg height="621.41015625" version="1.1" viewbox="0 0 1258.8200243083375 621.41015625" width="1258.8200243083375" xmlns="http://www.w3.org/2000/svg">
<!-- svg-source:excalidraw -->
<!-- payload-type:application/vnd.excalidraw+json --><!-- payload-version:2 -->
<defs>
<style class="style-fonts">
</style>
</defs>
<rect fill="#ffffff" height="621.41015625" width="1258.8200243083375" x="0" y="0"></rect><g stroke-linecap="round" transform="translate(10 32.67578125) rotate(0 83.921875 108.06640625)"><path d="M32 0 C61.22 1.37, 93.08 -0.99, 135.84 0 M32 0 C59.68 0.8, 87.23 -0.66, 135.84 0 M135.84 0 C157.79 -1.7, 167.37 9.47, 167.84 32 M135.84 0 C158.84 1.92, 168.62 12.54, 167.84 32 M167.84 32 C169.82 67.45, 170.2 101.81, 167.84 184.13 M167.84 32 C166.47 80.04, 166.41 127.94, 167.84 184.13 M167.84 184.13 C167.51 207.35, 157.8 214.29, 135.84 216.13 M167.84 184.13 C169.49 204.75, 157.81 214.46, 135.84 216.13 M135.84 216.13 C95.19 216.43, 57.99 216.65, 32 216.13 M135.84 216.13 C109.17 215.23, 80.95 215.56, 32 216.13 M32 216.13 C9.17 216.32, -0.63 205.56, 0 184.13 M32 216.13 C10.45 217.81, 2.13 203.35, 0 184.13 M0 184.13 C0.66 149.14, 0.8 110.92, 0 32 M0 184.13 C0.91 136.79, 0.18 90.91, 0 32 M0 32 C1.61 9.04, 12.38 -0.74, 32 0 M0 32 C1.29 11.72, 11.59 0.81, 32 0" fill="none" stroke="#1e1e1e" stroke-width="2"></path></g><g transform="translate(71.58189392089844 128.2421875) rotate(0 22.339981079101562 12.5)"><text direction="ltr" dominant-baseline="text-before-edge" fill="#1e1e1e" font-family="Virgil, Segoe UI Emoji" font-size="20px" style="white-space: pre;" text-anchor="middle" x="22.339981079101562" y="0">User</text></g><g stroke-linecap="round" transform="translate(246.1484375 41.53125) rotate(0 87.310546875 101.091796875)"><path d="M32 0 C72.56 -0.55, 113.81 0.17, 142.62 0 M32 0 C70.98 0.22, 109.12 0.48, 142.62 0 M142.62 0 C165.4 1.67, 175.29 12.29, 174.62 32 M142.62 0 C162.26 1.93, 176.67 11.47, 174.62 32 M174.62 32 C175.74 79.26, 174.21 127.81, 174.62 170.18 M174.62 32 C173.67 68.79, 174.15 102.77, 174.62 170.18 M174.62 170.18 C176.06 190.9, 164.51 200.73, 142.62 202.18 M174.62 170.18 C176.49 192.41, 163.8 200.99, 142.62 202.18 M142.62 202.18 C106.66 203.12, 70.76 204.09, 32 202.18 M142.62 202.18 C110.84 202.42, 80.24 202.37, 32 202.18 M32 202.18 C10.48 203.64, 1.85 189.68, 0 170.18 M32 202.18 C9.3 202.27, 1.95 192.34, 0 170.18 M0 170.18 C-0.43 116.85, 0.22 65.81, 0 32 M0 170.18 C1.56 133.98, 1.61 99.04, 0 32 M0 32 C1.12 11.58, 11.47 0.71, 32 0 M0 32 C-0.97 10.55, 8.77 -0.86, 32 0" fill="none" stroke="#1e1e1e" stroke-width="2"></path></g><g transform="translate(266.70902252197266 130.123046875) rotate(0 66.74996185302734 12.5)"><text direction="ltr" dominant-baseline="text-before-edge" fill="#1e1e1e" font-family="Virgil, Segoe UI Emoji" font-size="20px" style="white-space: pre;" text-anchor="middle" x="66.74996185302734" y="0">API Gateway</text></g><g stroke-linecap="round" transform="translate(549.6015625 44.3828125) rotate(0 117.64453125000006 97.630859375)"><path d="M32 0 C75.39 -0.62, 114.85 0.89, 203.29 0 M32 0 C69.54 1.86, 105.97 1.84, 203.29 0 M203.29 0 C223.15 1.68, 237.07 11.36, 235.29 32 M203.29 0 C225.78 1.25, 236.36 11.09, 235.29 32 M235.29 32 C233.72 62.75, 232.62 95.42, 235.29 163.26 M235.29 32 C236.42 83.44, 235.98 134.77, 235.29 163.26 M235.29 163.26 C236.92 185.37, 224.48 194.22, 203.29 195.26 M235.29 163.26 C235.72 186.17, 225.3 194.45, 203.29 195.26 M203.29 195.26 C146.3 196.7, 90.35 195.12, 32 195.26 M203.29 195.26 C150.23 196.07, 98.29 194.42, 32 195.26 M32 195.26 C9.47 195.34, 1.7 185.31, 0 163.26 M32 195.26 C12.48 196.25, -0.08 184.79, 0 163.26 M0 163.26 C-1.41 129.11, 0.62 98.75, 0 32 M0 163.26 C-0.56 134.99, -0.72 106.16, 0 32 M0 32 C-0.85 10.56, 9.02 -0.74, 32 0 M0 32 C-1.42 9.16, 12.18 0.99, 32 0" fill="none" stroke="#1e1e1e" stroke-width="2"></path></g><g transform="translate(565.956169128418 117.013671875) rotate(0 101.28992462158203 25)"><text direction="ltr" dominant-baseline="text-before-edge" fill="#1e1e1e" font-family="Virgil, Segoe UI Emoji" font-size="20px" style="white-space: pre;" text-anchor="middle" x="101.28992462158203" y="0">Document Metadata</text><text direction="ltr" dominant-baseline="text-before-edge" fill="#1e1e1e" font-family="Virgil, Segoe UI Emoji" font-size="20px" style="white-space: pre;" text-anchor="middle" x="101.28992462158203" y="25">Service</text></g><g stroke-linecap="round" transform="translate(846.6640625 10) rotate(0 137.23242187499994 134.5)"><path d="M121.88 1.27 C135.87 -2.71, 152.46 -0.87, 166.98 2.29 C181.5 5.45, 196.36 12.52, 209 20.25 C221.64 27.98, 233.33 37.58, 242.81 48.67 C252.3 59.76, 260.61 73.39, 265.91 86.8 C271.2 100.21, 274.22 114.76, 274.56 129.15 C274.9 143.53, 272.37 159.19, 267.95 173.12 C263.53 187.05, 256.81 200.86, 248.05 212.72 C239.29 224.57, 227.29 235.71, 215.37 244.24 C203.46 252.78, 190.83 259.72, 176.57 263.94 C162.32 268.16, 144.89 270.26, 129.85 269.57 C114.8 268.88, 100.07 265.14, 86.3 259.79 C72.53 254.44, 58.37 246.98, 47.21 237.45 C36.05 227.92, 26.82 215.26, 19.33 202.61 C11.83 189.96, 5.15 175.73, 2.24 161.53 C-0.67 147.32, -0.11 131.8, 1.84 117.39 C3.79 102.97, 7.57 87.99, 13.94 75.04 C20.31 62.08, 29.49 49.92, 40.08 39.64 C50.67 29.36, 63.39 20, 77.48 13.37 C91.57 6.74, 116.15 1.61, 124.6 -0.17 C133.05 -1.95, 127.98 0.34, 128.18 2.68 M185.31 8.91 C199.24 12.18, 214.7 22.35, 226.45 31.78 C238.2 41.21, 248.33 53.08, 255.8 65.47 C263.27 77.85, 268.45 91.86, 271.29 106.08 C274.12 120.3, 274.49 136.47, 272.81 150.79 C271.13 165.12, 267.66 178.88, 261.22 192.05 C254.77 205.21, 244.41 219.51, 234.14 229.79 C223.87 240.06, 212.54 247.44, 199.59 253.69 C186.65 259.94, 171.25 265.07, 156.46 267.29 C141.68 269.51, 125.55 269.72, 110.87 267.02 C96.2 264.31, 81.5 258.55, 68.44 251.06 C55.38 243.57, 42.5 233.3, 32.52 222.08 C22.53 210.86, 14.06 197.4, 8.51 183.73 C2.96 170.06, -0.41 154.38, -0.76 140.04 C-1.11 125.7, 1.89 111.66, 6.41 97.69 C10.93 83.73, 17.79 68.31, 26.36 56.25 C34.92 44.19, 45.87 33.73, 57.8 25.34 C69.73 16.95, 83.98 9.87, 97.93 5.91 C111.88 1.94, 126.8 1.03, 141.51 1.55 C156.21 2.08, 178.79 7.63, 186.16 9.06 C193.52 10.48, 186.4 8.09, 185.69 10.1" fill="none" stroke="#1e1e1e" stroke-width="2"></path></g><g transform="translate(913.6585494672648 119.39413793040936) rotate(0 70.19995880126953 25)"><text direction="ltr" dominant-baseline="text-before-edge" fill="#1e1e1e" font-family="Virgil, Segoe UI Emoji" font-size="20px" style="white-space: pre;" text-anchor="middle" x="70.19995880126953" y="0">Document </text><text direction="ltr" dominant-baseline="text-before-edge" fill="#1e1e1e" font-family="Virgil, Segoe UI Emoji" font-size="20px" style="white-space: pre;" text-anchor="middle" x="70.19995880126953" y="25">Metadata DB</text></g><g stroke-linecap="round"><g transform="translate(178.38671875 132.94921875) rotate(0 30.150390625 -0.6415438895845682)"><path d="M0.87 1 C11.03 1.07, 50.95 -0.09, 60.7 -0.31 M-0.13 0.48 C9.93 0.29, 49.64 -1.49, 59.97 -1.92" fill="none" stroke="#1e1e1e" stroke-width="2"></path></g><g transform="translate(178.38671875 132.94921875) rotate(0 30.150390625 -0.6415438895845682)"><path d="M32.24 9.54 C41.64 6.85, 49.26 1.54, 59.97 -1.92 M32.24 9.54 C43.28 5.59, 53.89 0.83, 59.97 -1.92" fill="none" stroke="#1e1e1e" stroke-width="2"></path></g><g transform="translate(178.38671875 132.94921875) rotate(0 30.150390625 -0.6415438895845682)"><path d="M31.36 -10.96 C40.88 -8, 48.74 -7.64, 59.97 -1.92 M31.36 -10.96 C42.92 -7.05, 53.87 -3.93, 59.97 -1.92" fill="none" stroke="#1e1e1e" stroke-width="2"></path></g></g><mask></mask><g stroke-linecap="round"><g transform="translate(425.6328125 146.811870552644) rotate(0 58.87109375 -2.7621410970089073)"><path d="M0.4 0.98 C19.73 0.06, 97.12 -3.51, 116.86 -4.52 M-0.85 0.44 C18.78 -0.27, 99.2 -4.83, 119.11 -6.11" fill="none" stroke="#1e1e1e" stroke-width="2"></path></g><g transform="translate(425.6328125 146.811870552644) rotate(0 58.87109375 -2.7621410970089073)"><path d="M91.58 5.8 C103.36 -0.2, 113.66 -1.38, 119.11 -6.11 M91.58 5.8 C101.2 1.85, 109.38 -2.9, 119.11 -6.11" fill="none" stroke="#1e1e1e" stroke-width="2"></path></g><g transform="translate(425.6328125 146.811870552644) rotate(0 58.87109375 -2.7621410970089073)"><path d="M90.36 -14.68 C102.76 -13.06, 113.52 -6.61, 119.11 -6.11 M90.36 -14.68 C100.49 -11.78, 109.08 -9.68, 119.11 -6.11" fill="none" stroke="#1e1e1e" stroke-width="2"></path></g></g><mask></mask><g transform="translate(432.4765625 94.89453125) rotate(0 47.73597717285156 10)"><text direction="ltr" dominant-baseline="text-before-edge" fill="#1e1e1e" font-family="Virgil, Segoe UI Emoji" font-size="16px" style="white-space: pre;" text-anchor="start" x="0" y="0">POST /docs</text></g><g stroke-linecap="round"><g transform="translate(790.2265625 126.2890625) rotate(0 23.2421875 0.875)"><path d="M0.49 0.19 C8.35 0.46, 39.05 1.77, 46.76 2.05 M0.08 -0.19 C7.93 0.16, 38.73 0.79, 46.47 1.24" fill="none" stroke="#1e1e1e" stroke-width="2"></path></g><g transform="translate(790.2265625 126.2890625) rotate(0 23.2421875 0.875)"><path d="M24.34 8.38 C29.67 7.17, 34.87 5.51, 46.47 1.24 M24.34 8.38 C31.16 5.97, 38.17 3.42, 46.47 1.24" fill="none" stroke="#1e1e1e" stroke-width="2"></path></g><g transform="translate(790.2265625 126.2890625) rotate(0 23.2421875 0.875)"><path d="M24.92 -7.52 C30.19 -5.13, 35.26 -3.18, 46.47 1.24 M24.92 -7.52 C31.51 -4.87, 38.34 -2.36, 46.47 1.24" fill="none" stroke="#1e1e1e" stroke-width="2"></path></g></g><mask></mask><g transform="translate(1143.44921875 96.13671875) rotate(0 46.15995788574219 37.5)"><text direction="ltr" dominant-baseline="text-before-edge" fill="#1e1e1e" font-family="Virgil, Segoe UI Emoji" font-size="20px" style="white-space: pre;" text-anchor="start" x="0" y="0">Document</text><text direction="ltr" dominant-baseline="text-before-edge" fill="#1e1e1e" font-family="Virgil, Segoe UI Emoji" font-size="20px" style="white-space: pre;" text-anchor="start" x="0" y="25">  id</text><text direction="ltr" dominant-baseline="text-before-edge" fill="#1e1e1e" font-family="Virgil, Segoe UI Emoji" font-size="20px" style="white-space: pre;" text-anchor="start" x="0" y="50">  title</text></g><g stroke-linecap="round" transform="translate(528.80859375 317.91015625) rotate(0 128.2890625 85.94921875)"><path d="M32 0 C99.83 -2.04, 165.77 -1.9, 224.58 0 M32 0 C81.78 2.78, 132.22 0.91, 224.58 0 M224.58 0 C247.35 -0.62, 257.13 9.21, 256.58 32 M224.58 0 C247.78 0.89, 256.42 9.47, 256.58 32 M256.58 32 C256.61 66.99, 255.96 102.35, 256.58 139.9 M256.58 32 C255.88 62.36, 256.31 92.59, 256.58 139.9 M256.58 139.9 C256.39 162.69, 247.76 170.06, 224.58 171.9 M256.58 139.9 C255.21 161.32, 247.87 172.72, 224.58 171.9 M224.58 171.9 C151.76 170.87, 79.43 172.19, 32 171.9 M224.58 171.9 C176.06 172.2, 126.8 172.64, 32 171.9 M32 171.9 C11.79 172.81, 0.81 161.94, 0 139.9 M32 171.9 C9.69 171.78, -1.9 160.38, 0 139.9 M0 139.9 C1.57 116.03, -0.46 89.96, 0 32 M0 139.9 C-0.85 110.37, -0.6 79.01, 0 32 M0 32 C0.63 8.98, 11.45 -0.4, 32 0 M0 32 C-0.88 9.96, 11.51 0.37, 32 0" fill="none" stroke="#1e1e1e" stroke-width="2"></path></g><g transform="translate(572.177734375 391.359375) rotate(0 84.919921875 12.5)"><text direction="ltr" dominant-baseline="text-before-edge" fill="#1e1e1e" font-family="Virgil, Segoe UI Emoji" font-size="20px" style="white-space: pre;" text-anchor="middle" x="84.919921875" y="0">Document Service</text></g><g stroke-linecap="round"><g transform="translate(416.265625 239.2109375) rotate(0 53.0859375 38.96366035566837)"><path d="M-0.6 -0.49 C17.09 12.43, 87.73 63.53, 105.49 76.78 M1.28 -1.79 C19.43 11.29, 90.54 64.54, 107.85 77.72" fill="none" stroke="#1e1e1e" stroke-width="2"></path></g><g transform="translate(416.265625 239.2109375) rotate(0 53.0859375 38.96366035566837)"><path d="M79.16 68.94 C85.26 70.09, 91.13 73.01, 107.85 77.72 M79.16 68.94 C91.21 72.36, 102.08 75.4, 107.85 77.72" fill="none" stroke="#1e1e1e" stroke-width="2"></path></g><g transform="translate(416.265625 239.2109375) rotate(0 53.0859375 38.96366035566837)"><path d="M91.51 52.56 C94.52 57.62, 97.39 64.52, 107.85 77.72 M91.51 52.56 C98.75 62.32, 104.75 71.82, 107.85 77.72" fill="none" stroke="#1e1e1e" stroke-width="2"></path></g></g><mask></mask><g transform="translate(365.76953125 282.12109375) rotate(0 49.989952087402344 12.5)"><text direction="ltr" dominant-baseline="text-before-edge" fill="#1e1e1e" font-family="Virgil, Segoe UI Emoji" font-size="20px" style="white-space: pre;" text-anchor="start" x="0" y="0">Websocket</text></g><g stroke-linecap="round" transform="translate(856.6640625 297.08984375) rotate(0 114.958984375 106.5625)"><path d="M132.61 1.59 C145.91 1.87, 159.91 8.86, 172 15.25 C184.08 21.64, 196.44 30.01, 205.12 39.93 C213.8 49.84, 219.88 62.44, 224.09 74.74 C228.3 87.04, 231.23 100.9, 230.36 113.73 C229.5 126.55, 224.95 139.96, 218.9 151.69 C212.85 163.41, 204.01 175.21, 194.07 184.07 C184.13 192.93, 171.9 200.15, 159.27 204.86 C146.64 209.57, 132.09 212.03, 118.3 212.33 C104.51 212.63, 89.59 210.84, 76.53 206.65 C63.47 202.46, 50.34 195.36, 39.96 187.19 C29.58 179.02, 20.93 169.03, 14.25 157.63 C7.58 146.22, 1.69 131.51, -0.09 118.76 C-1.86 106, -0.04 93.32, 3.59 81.12 C7.22 68.92, 13.58 56.13, 21.68 45.53 C29.78 34.93, 40.65 24.8, 52.17 17.53 C63.68 10.26, 75.06 4.15, 90.77 1.92 C106.49 -0.31, 135.35 2.9, 146.47 4.15 C157.58 5.41, 157.95 7.65, 157.46 9.46 M70.42 9.34 C81.69 3.18, 97.82 1.19, 111.4 0.6 C124.99 0.01, 139.17 1.77, 151.95 5.79 C164.72 9.81, 177.53 16.56, 188.05 24.71 C198.56 32.85, 208.03 43.19, 215.02 54.66 C222 66.13, 227.8 80.8, 229.95 93.54 C232.11 106.29, 231.26 118.81, 227.97 131.12 C224.69 143.43, 218.29 156.74, 210.26 167.4 C202.22 178.07, 191.52 187.68, 179.77 195.11 C168.02 202.55, 153.39 209.17, 139.74 212.01 C126.1 214.85, 111.43 214.51, 97.89 212.15 C84.35 209.79, 70.41 204.31, 58.49 197.87 C46.57 191.43, 35.29 183.33, 26.38 173.51 C17.47 163.69, 9.3 151.07, 5.03 138.95 C0.75 126.84, 0.07 113.54, 0.73 100.82 C1.39 88.09, 3.41 74.46, 9 62.6 C14.59 50.74, 23.96 38.72, 34.27 29.66 C44.58 20.6, 64.76 11.66, 70.85 8.25 C76.95 4.83, 70.55 7.38, 70.85 9.18" fill="none" stroke="#1e1e1e" stroke-width="2"></path></g><g transform="translate(919.7248222605293 366.30127737980854) rotate(0 52.109947204589844 37.5)"><text direction="ltr" dominant-baseline="text-before-edge" fill="#1e1e1e" font-family="Virgil, Segoe UI Emoji" font-size="20px" style="white-space: pre;" text-anchor="middle" x="52.109947204589844" y="0">Document </text><text direction="ltr" dominant-baseline="text-before-edge" fill="#1e1e1e" font-family="Virgil, Segoe UI Emoji" font-size="20px" style="white-space: pre;" text-anchor="middle" x="52.109947204589844" y="25">Operations</text><text direction="ltr" dominant-baseline="text-before-edge" fill="#1e1e1e" font-family="Virgil, Segoe UI Emoji" font-size="20px" style="white-space: pre;" text-anchor="middle" x="52.109947204589844" y="50">DB</text></g><g stroke-linecap="round"><g transform="translate(790.1796875 404.13671875) rotate(0 30.513671875 -1.1328125)"><path d="M0.86 -0.37 C11.02 -0.71, 51.17 -2.9, 61.36 -3.14 M-0.15 -1.61 C9.85 -1.73, 50.27 -1.68, 60.58 -2.06" fill="none" stroke="#1e1e1e" stroke-width="2"></path></g><g transform="translate(790.1796875 404.13671875) rotate(0 30.513671875 -1.1328125)"><path d="M32.56 8.63 C41.32 5.44, 49.77 2.97, 60.58 -2.06 M32.56 8.63 C42.24 5.84, 51.85 1.18, 60.58 -2.06" fill="none" stroke="#1e1e1e" stroke-width="2"></path></g><g transform="translate(790.1796875 404.13671875) rotate(0 30.513671875 -1.1328125)"><path d="M32.24 -11.89 C40.92 -8.28, 49.48 -3.95, 60.58 -2.06 M32.24 -11.89 C42.02 -7.73, 51.73 -5.44, 60.58 -2.06" fill="none" stroke="#1e1e1e" stroke-width="2"></path></g></g><mask></mask><g stroke-linecap="round"><g transform="translate(112.21484375 256.015625) rotate(0 201.03125 108.576171875)"><path d="M0.33 -0.87 C19 35.46, 45.95 191, 112.9 217.62 C179.84 244.24, 353.75 168.4, 401.98 158.85" fill="none" stroke="#1e1e1e" stroke-dasharray="8 10" stroke-width="2.5"></path></g><g transform="translate(112.21484375 256.015625) rotate(0 201.03125 108.576171875)"><path d="M378.07 176.97 C385.56 171.8, 396.68 163.29, 401.98 158.85" fill="none" stroke="#1e1e1e" stroke-width="2.5"></path></g><g transform="translate(112.21484375 256.015625) rotate(0 201.03125 108.576171875)"><path d="M372.02 157.36 C381.69 159.46, 395.06 158.25, 401.98 158.85" fill="none" stroke="#1e1e1e" stroke-width="2.5"></path></g></g><mask></mask><g transform="translate(158.73046875 506.36328125) rotate(0 83.86992645263672 12.5)"><text direction="ltr" dominant-baseline="text-before-edge" fill="#1e1e1e" font-family="Virgil, Segoe UI Emoji" font-size="20px" style="white-space: pre;" text-anchor="start" x="0" y="0">Write Just Edits</text></g><g stroke-linecap="round"><g transform="translate(633.0725529208003 499.3828125) rotate(0 35.84644563870097 32.92556599300451)"><path d="M-0.08 -0.62 C5.4 11.33, 21.84 73.04, 33.86 72.16 C45.88 71.28, 65.68 7.16, 72.05 -5.91 M-1.59 1.66 C3.67 13.24, 20.85 71.55, 33.03 70.47 C45.2 69.39, 64.89 7.86, 71.47 -4.82" fill="none" stroke="#1e1e1e" stroke-width="2"></path></g><g transform="translate(633.0725529208003 499.3828125) rotate(0 35.84644563870097 32.92556599300451)"><path d="M70.24 25.16 C69.55 14.1, 72.43 2.88, 71.47 -4.82 M70.24 25.16 C71.26 17.04, 70.84 9.44, 71.47 -4.82" fill="none" stroke="#1e1e1e" stroke-width="2"></path></g><g transform="translate(633.0725529208003 499.3828125) rotate(0 35.84644563870097 32.92556599300451)"><path d="M51.26 17.35 C57.84 9.28, 67.96 1.04, 71.47 -4.82 M51.26 17.35 C57.33 11.43, 61.92 5.89, 71.47 -4.82" fill="none" stroke="#1e1e1e" stroke-width="2"></path></g></g><mask></mask><g transform="translate(591.421875 586.41015625) rotate(0 72.75993347167969 12.5)"><text direction="ltr" dominant-baseline="text-before-edge" fill="#1e1e1e" font-family="Virgil, Segoe UI Emoji" font-size="20px" style="white-space: pre;" text-anchor="start" x="0" y="0">Transform Ops</text></g><g transform="translate(1118.4401262370484 349.07222846048717) rotate(0 65.18994903564453 50)"><text direction="ltr" dominant-baseline="text-before-edge" fill="#1e1e1e" font-family="Virgil, Segoe UI Emoji" font-size="20px" style="white-space: pre;" text-anchor="start" x="0" y="0">Operations</text><text direction="ltr" dominant-baseline="text-before-edge" fill="#1e1e1e" font-family="Virgil, Segoe UI Emoji" font-size="20px" style="white-space: pre;" text-anchor="start" x="0" y="25">  timestamp</text><text direction="ltr" dominant-baseline="text-before-edge" fill="#1e1e1e" font-family="Virgil, Segoe UI Emoji" font-size="20px" style="white-space: pre;" text-anchor="start" x="0" y="50">  documentId</text><text direction="ltr" dominant-baseline="text-before-edge" fill="#1e1e1e" font-family="Virgil, Segoe UI Emoji" font-size="20px" style="white-space: pre;" text-anchor="start" x="0" y="75">  data</text></g></svg>