<svg height="679.19921875" version="1.1" viewbox="0 0 1289.7892072521038 679.19921875" width="1289.7892072521038" xmlns="http://www.w3.org/2000/svg">
<!-- svg-source:excalidraw -->
<!-- payload-type:application/vnd.excalidraw+json --><!-- payload-version:2 -->
<defs>
<style class="style-fonts">
</style>
</defs>
<rect fill="#ffffff" height="679.19921875" width="1289.7892072521038" x="0" y="0"></rect><g stroke-linecap="round" transform="translate(10 32.67578125) rotate(0 83.921875 108.06640625)"><path d="M32 0 C62.39 -1.44, 93.6 -1.81, 135.84 0 M32 0 C61.45 -0.68, 92.1 0.01, 135.84 0 M135.84 0 C158.93 0.29, 169.08 9.17, 167.84 32 M135.84 0 C155.02 0.91, 166.65 10.79, 167.84 32 M167.84 32 C166.5 83.86, 169.9 132.49, 167.84 184.13 M167.84 32 C167.05 86.91, 167.79 140.92, 167.84 184.13 M167.84 184.13 C169.45 205.46, 158.78 216.28, 135.84 216.13 M167.84 184.13 C166.57 204.39, 156.36 216.26, 135.84 216.13 M135.84 216.13 C111.52 215.48, 91.04 215.5, 32 216.13 M135.84 216.13 C112.03 214.56, 86.72 214.87, 32 216.13 M32 216.13 C10.16 216.72, 0.31 206.94, 0 184.13 M32 216.13 C12.47 217.42, 0.24 204.82, 0 184.13 M0 184.13 C0.6 150.42, 1.3 114.01, 0 32 M0 184.13 C1.07 147.46, -0.19 111.73, 0 32 M0 32 C1.17 10.08, 10.71 -0.9, 32 0 M0 32 C0.44 8.63, 8.52 -0.73, 32 0" fill="none" stroke="#1e1e1e" stroke-width="2"></path></g><g transform="translate(75.0400390625 128.2421875) rotate(0 18.8818359375 12.5)"><text direction="ltr" dominant-baseline="text-before-edge" fill="#1e1e1e" font-family="Virgil, Segoe UI Emoji" font-size="20px" style="white-space: pre;" text-anchor="middle" x="18.8818359375" y="0">User</text></g><g stroke-linecap="round" transform="translate(246.1484375 41.53125) rotate(0 87.310546875 101.091796875)"><path d="M32 0 C57.88 1.31, 85.07 0, 142.62 0 M32 0 C63.36 -0.34, 93.58 -1.24, 142.62 0 M142.62 0 C162.08 0.79, 173.58 10.77, 174.62 32 M142.62 0 C164.6 0.17, 175.64 9, 174.62 32 M174.62 32 C177.08 86.86, 174.12 140.75, 174.62 170.18 M174.62 32 C175.54 84.12, 175.54 136.32, 174.62 170.18 M174.62 170.18 C173.52 190.58, 163.24 202.29, 142.62 202.18 M174.62 170.18 C172.87 191.28, 165.05 200.94, 142.62 202.18 M142.62 202.18 C114.54 202.67, 87.51 203.48, 32 202.18 M142.62 202.18 C118.57 201.89, 95.17 202.33, 32 202.18 M32 202.18 C12.24 203.3, 0.21 190.95, 0 170.18 M32 202.18 C9.16 202.03, -0.13 192.08, 0 170.18 M0 170.18 C-2.09 114.26, 1.11 60.94, 0 32 M0 170.18 C1.88 137.29, 1.32 104.55, 0 32 M0 32 C0.38 8.89, 8.8 -0.63, 32 0 M0 32 C-1.84 9.54, 8.72 -1.49, 32 0" fill="none" stroke="#1e1e1e" stroke-width="2"></path></g><g transform="translate(279.30859375 130.123046875) rotate(0 54.150390625 12.5)"><text direction="ltr" dominant-baseline="text-before-edge" fill="#1e1e1e" font-family="Virgil, Segoe UI Emoji" font-size="20px" style="white-space: pre;" text-anchor="middle" x="54.150390625" y="0">API Gateway</text></g><g stroke-linecap="round" transform="translate(549.6015625000002 44.3828125) rotate(0 117.64453125000006 97.630859375)"><path d="M32 0 C86.33 1.35, 142.52 2.53, 203.29 0 M32 0 C84.93 1.68, 139.22 1.34, 203.29 0 M203.29 0 C225.18 0.15, 236.18 9.21, 235.29 32 M203.29 0 C226.88 2.23, 236.1 11.95, 235.29 32 M235.29 32 C235.63 70.39, 235.35 110.05, 235.29 163.26 M235.29 32 C235.79 70.85, 235.98 110.7, 235.29 163.26 M235.29 163.26 C233.76 184.39, 225.57 194.18, 203.29 195.26 M235.29 163.26 C233.97 186.51, 223.33 193.85, 203.29 195.26 M203.29 195.26 C140.74 197.76, 80.51 196.4, 32 195.26 M203.29 195.26 C147.69 197.08, 90.63 196.24, 32 195.26 M32 195.26 C9.36 195.12, -0.12 185.09, 0 163.26 M32 195.26 C12.91 196.63, 1.39 183.14, 0 163.26 M0 163.26 C-2.55 128.43, -1.93 98.53, 0 32 M0 163.26 C0.16 126.87, -0.96 91.95, 0 32 M0 32 C-1.6 9.69, 8.98 -1.29, 32 0 M0 32 C2.2 10.77, 9.57 0.14, 32 0" fill="none" stroke="#1e1e1e" stroke-width="2"></path></g><g transform="translate(585.8886718750002 117.013671875) rotate(0 81.357421875 25)"><text direction="ltr" dominant-baseline="text-before-edge" fill="#1e1e1e" font-family="Virgil, Segoe UI Emoji" font-size="20px" style="white-space: pre;" text-anchor="middle" x="81.357421875" y="0">Document Metadata</text><text direction="ltr" dominant-baseline="text-before-edge" fill="#1e1e1e" font-family="Virgil, Segoe UI Emoji" font-size="20px" style="white-space: pre;" text-anchor="middle" x="81.357421875" y="25">Service</text></g><g stroke-linecap="round" transform="translate(846.6640625000002 10) rotate(0 137.23242187499994 134.5)"><path d="M179.26 5.82 C193.49 8.2, 207.25 17.97, 219.12 26.81 C230.99 35.65, 242.21 46.75, 250.48 58.87 C258.75 70.99, 264.63 85.53, 268.75 99.54 C272.87 113.56, 275.86 128.59, 275.18 142.94 C274.51 157.3, 270.65 172.37, 264.67 185.66 C258.7 198.95, 249.12 211.73, 239.34 222.68 C229.57 233.64, 218.66 243.94, 206.02 251.4 C193.38 258.86, 178.21 264.6, 163.49 267.44 C148.77 270.28, 132.48 270.73, 117.69 268.43 C102.89 266.13, 88.01 260.48, 74.72 253.65 C61.42 246.81, 48.22 237.96, 37.91 227.44 C27.61 216.92, 19.09 203.58, 12.88 190.52 C6.67 177.46, 2.31 163.54, 0.66 149.09 C-1 134.65, -0.54 118.21, 2.93 103.85 C6.41 89.49, 13.69 75.1, 21.52 62.92 C29.35 50.75, 38.66 39.74, 49.92 30.8 C61.17 21.85, 75.17 14.32, 89.07 9.26 C102.96 4.21, 116.32 0.22, 133.3 0.46 C150.28 0.7, 179.41 7.57, 190.95 10.7 C202.5 13.84, 203.24 17.04, 202.55 19.28 M174.21 5.14 C188.33 7.06, 203.29 16.18, 215.87 24.7 C228.44 33.21, 240.75 44.69, 249.65 56.25 C258.56 67.8, 265.31 80, 269.31 94 C273.31 108.01, 274.21 125.73, 273.66 140.28 C273.11 154.83, 271.39 168, 266.01 181.29 C260.62 194.57, 250.78 208.71, 241.35 219.99 C231.92 231.27, 221.88 241.43, 209.43 248.97 C196.98 256.5, 181.26 262.24, 166.65 265.21 C152.04 268.18, 136.78 268.42, 121.79 266.78 C106.79 265.15, 90.34 261.57, 76.69 255.39 C63.04 249.22, 50.46 240.02, 39.88 229.73 C29.3 219.45, 19.44 206.58, 13.23 193.7 C7.02 180.81, 4.53 166.67, 2.65 152.42 C0.77 138.17, -0.75 122.7, 1.95 108.19 C4.65 93.67, 11.32 78.02, 18.85 65.32 C26.38 52.61, 35.77 41.18, 47.12 31.95 C58.47 22.72, 73.24 15.3, 86.97 9.93 C100.69 4.56, 114.93 0.46, 129.49 -0.28 C144.05 -1.01, 166.61 3.98, 174.33 5.52 C182.04 7.05, 176.45 7.06, 175.78 8.94" fill="none" stroke="#1e1e1e" stroke-width="2"></path></g><g transform="translate(900.0010863935346 119.39413793040936) rotate(0 83.857421875 25)"><text direction="ltr" dominant-baseline="text-before-edge" fill="#1e1e1e" font-family="Virgil, Segoe UI Emoji" font-size="20px" style="white-space: pre;" text-anchor="middle" x="83.857421875" y="0">Document Metadata </text><text direction="ltr" dominant-baseline="text-before-edge" fill="#1e1e1e" font-family="Virgil, Segoe UI Emoji" font-size="20px" style="white-space: pre;" text-anchor="middle" x="83.857421875" y="25">DB</text></g><g stroke-linecap="round"><g transform="translate(178.38671875 132.94921875) rotate(0 30.150390625 -0.6415438895845682)"><path d="M-1.12 0.47 C8.7 0.42, 49.38 -0.94, 59.68 -1.22 M0.49 -0.32 C10.64 -0.09, 52.14 0.27, 62.06 0.35" fill="none" stroke="#1e1e1e" stroke-width="2"></path></g><g transform="translate(178.38671875 132.94921875) rotate(0 30.150390625 -0.6415438895845682)"><path d="M33.78 10.37 C44.88 5.97, 54.42 3.94, 62.06 0.35 M33.78 10.37 C43.42 8.46, 51.49 4.97, 62.06 0.35" fill="none" stroke="#1e1e1e" stroke-width="2"></path></g><g transform="translate(178.38671875 132.94921875) rotate(0 30.150390625 -0.6415438895845682)"><path d="M33.96 -10.16 C44.84 -7.13, 54.31 -1.74, 62.06 0.35 M33.96 -10.16 C43.63 -5.75, 51.65 -2.93, 62.06 0.35" fill="none" stroke="#1e1e1e" stroke-width="2"></path></g></g><mask></mask><g stroke-linecap="round"><g transform="translate(425.6328125 146.811870552644) rotate(0 58.87109375 -2.7621410970089073)"><path d="M-0.62 0.06 C19.24 -0.92, 98.26 -4.36, 118.08 -5.43 M1.25 -0.95 C21.09 -1.76, 97.88 -3.09, 117.31 -3.85" fill="none" stroke="#1e1e1e" stroke-width="2"></path></g><g transform="translate(425.6328125 146.811870552644) rotate(0 58.87109375 -2.7621410970089073)"><path d="M89.4 7.17 C95.22 5.6, 101.02 3.66, 117.31 -3.85 M89.4 7.17 C95.99 4.95, 101.89 0.97, 117.31 -3.85" fill="none" stroke="#1e1e1e" stroke-width="2"></path></g><g transform="translate(425.6328125 146.811870552644) rotate(0 58.87109375 -2.7621410970089073)"><path d="M88.85 -13.34 C94.86 -10.68, 100.78 -8.39, 117.31 -3.85 M88.85 -13.34 C95.76 -10.9, 101.79 -10.22, 117.31 -3.85" fill="none" stroke="#1e1e1e" stroke-width="2"></path></g></g><mask></mask><g transform="translate(432.4765625 94.89453125) rotate(0 47.73597717285156 10)"><text direction="ltr" dominant-baseline="text-before-edge" fill="#1e1e1e" font-family="Virgil, Segoe UI Emoji" font-size="16px" style="white-space: pre;" text-anchor="start" x="0" y="0">POST /docs</text></g><g stroke-linecap="round"><g transform="translate(790.2265625000002 126.2890625) rotate(0 23.2421875 0.875)"><path d="M0.24 -0.4 C8.06 -0.03, 39.29 1.87, 47.03 2.28 M-0.29 0.58 C7.48 0.82, 39.08 1.5, 46.87 1.59" fill="none" stroke="#1e1e1e" stroke-width="2"></path></g><g transform="translate(790.2265625000002 126.2890625) rotate(0 23.2421875 0.875)"><path d="M24.88 9.16 C31.36 7.61, 40.27 4.5, 46.87 1.59 M24.88 9.16 C32.38 6.95, 40.58 4.19, 46.87 1.59" fill="none" stroke="#1e1e1e" stroke-width="2"></path></g><g transform="translate(790.2265625000002 126.2890625) rotate(0 23.2421875 0.875)"><path d="M25.16 -6.75 C31.56 -3.08, 40.37 -0.97, 46.87 1.59 M25.16 -6.75 C32.55 -3.3, 40.65 -0.4, 46.87 1.59" fill="none" stroke="#1e1e1e" stroke-width="2"></path></g></g><mask></mask><g transform="translate(1143.4492187500002 96.13671875) rotate(0 46.15995788574219 37.5)"><text direction="ltr" dominant-baseline="text-before-edge" fill="#1e1e1e" font-family="Virgil, Segoe UI Emoji" font-size="20px" style="white-space: pre;" text-anchor="start" x="0" y="0">Document</text><text direction="ltr" dominant-baseline="text-before-edge" fill="#1e1e1e" font-family="Virgil, Segoe UI Emoji" font-size="20px" style="white-space: pre;" text-anchor="start" x="0" y="25">  id</text><text direction="ltr" dominant-baseline="text-before-edge" fill="#1e1e1e" font-family="Virgil, Segoe UI Emoji" font-size="20px" style="white-space: pre;" text-anchor="start" x="0" y="50">  title</text></g><g stroke-linecap="round" transform="translate(515.9062500000002 375.69921875) rotate(0 128.2890625 85.94921875)"><path d="M32 0 C109.82 -0.86, 183.57 -2.01, 224.58 0 M32 0 C105.45 -1.23, 178.09 -1.15, 224.58 0 M224.58 0 C244.81 -0.94, 255.86 10.77, 256.58 32 M224.58 0 C244.16 -0.24, 257.67 9.42, 256.58 32 M256.58 32 C256.25 59.3, 256.08 86.31, 256.58 139.9 M256.58 32 C256.79 55.51, 257.19 79.17, 256.58 139.9 M256.58 139.9 C258.15 162.35, 246.12 171.34, 224.58 171.9 M256.58 139.9 C255.07 161.07, 245.78 172.46, 224.58 171.9 M224.58 171.9 C146.75 172.09, 73.37 173.71, 32 171.9 M224.58 171.9 C179.74 170.96, 133.75 170.81, 32 171.9 M32 171.9 C11.05 170.13, -1.87 160.6, 0 139.9 M32 171.9 C8.82 170.77, -1.94 159.74, 0 139.9 M0 139.9 C0.07 97.39, -1.9 53.88, 0 32 M0 139.9 C-1.11 112.32, -1.14 85.52, 0 32 M0 32 C1.8 12.14, 9.23 -1.85, 32 0 M0 32 C0.89 8.41, 10.31 0.25, 32 0" fill="none" stroke="#1e1e1e" stroke-width="2"></path></g><g transform="translate(570.0546875000002 449.1484375) rotate(0 74.140625 12.5)"><text direction="ltr" dominant-baseline="text-before-edge" fill="#1e1e1e" font-family="Virgil, Segoe UI Emoji" font-size="20px" style="white-space: pre;" text-anchor="middle" x="74.140625" y="0">Document Service</text></g><g stroke-linecap="round"><g transform="translate(416.265625 239.2109375) rotate(0 62.515924629730534 65.05859375)"><path d="M-0.79 0.93 C20.08 22.92, 104 109.35, 125.13 130.88 M0.99 0.37 C21.72 22.12, 103.45 107.31, 124.24 129.16" fill="none" stroke="#1e1e1e" stroke-width="2"></path></g><g transform="translate(416.265625 239.2109375) rotate(0 62.515924629730534 65.05859375)"><path d="M97.34 115.87 C106.59 120.08, 114.15 125.4, 124.24 129.16 M97.34 115.87 C104.95 119.36, 113.21 123.86, 124.24 129.16" fill="none" stroke="#1e1e1e" stroke-width="2"></path></g><g transform="translate(416.265625 239.2109375) rotate(0 62.515924629730534 65.05859375)"><path d="M112.17 101.69 C116.98 109.93, 120.22 119.37, 124.24 129.16 M112.17 101.69 C115.46 109.44, 119.27 118.19, 124.24 129.16" fill="none" stroke="#1e1e1e" stroke-width="2"></path></g></g><mask></mask><g transform="translate(334.625 298.07421875) rotate(0 49.989952087402344 12.5)"><text direction="ltr" dominant-baseline="text-before-edge" fill="#1e1e1e" font-family="Virgil, Segoe UI Emoji" font-size="20px" style="white-space: pre;" text-anchor="start" x="0" y="0">Websocket</text></g><g stroke-linecap="round" transform="translate(891.5429687500002 342.34375) rotate(0 114.958984375 106.5625)"><path d="M159.3 8.07 C172.1 11.26, 185.04 20.23, 195.04 29.3 C205.04 38.37, 213.61 50.81, 219.29 62.5 C224.98 74.19, 228.15 86.8, 229.16 99.43 C230.17 112.07, 229.55 125.89, 225.34 138.31 C221.13 150.72, 212.84 163.67, 203.91 173.92 C194.97 184.17, 183.76 193.41, 171.74 199.81 C159.71 206.2, 145.39 210.53, 131.74 212.29 C118.09 214.06, 103.17 213.2, 89.83 210.4 C76.5 207.61, 63.08 202.46, 51.75 195.55 C40.42 188.63, 29.82 179.4, 21.87 168.92 C13.91 158.43, 7.58 145.34, 4.03 132.66 C0.49 119.97, -1.01 105.57, 0.59 92.81 C2.19 80.05, 6.97 67.12, 13.61 56.09 C20.25 45.06, 29.79 34.85, 40.41 26.61 C51.03 18.38, 64.44 11.17, 77.35 6.66 C90.26 2.15, 102.32 -1.52, 117.87 -0.44 C133.42 0.65, 160.78 9.94, 170.67 13.18 C180.56 16.41, 178.34 17.37, 177.21 18.98 M98.33 -0.17 C110.83 -3.57, 125.6 -0.78, 138.86 2.14 C152.11 5.06, 166.34 10.3, 177.86 17.37 C189.37 24.44, 199.57 33.92, 207.93 44.57 C216.3 55.22, 224.67 68.64, 228.06 81.28 C231.44 93.92, 230.24 107.93, 228.24 120.41 C226.24 132.89, 222.62 145.04, 216.04 156.18 C209.45 167.31, 199.2 178.65, 188.74 187.21 C178.27 195.78, 166.41 203.33, 153.27 207.57 C140.12 211.8, 123.98 213.08, 109.88 212.6 C95.77 212.13, 80.98 209.52, 68.62 204.7 C56.27 199.89, 45.68 192.97, 35.76 183.7 C25.85 174.44, 14.98 161.22, 9.15 149.1 C3.31 136.98, 1.38 123.54, 0.76 110.98 C0.13 98.43, 1.07 85.96, 5.4 73.79 C9.72 61.61, 17.87 47.99, 26.69 37.95 C35.51 27.91, 46.35 19.71, 58.33 13.56 C70.3 7.41, 91.76 2.85, 98.56 1.05 C105.37 -0.75, 98.7 0.87, 99.13 2.75" fill="none" stroke="#1e1e1e" stroke-width="2"></path></g><g transform="translate(962.5584022776194 411.55518362980854) rotate(0 44.1552734375 37.5)"><text direction="ltr" dominant-baseline="text-before-edge" fill="#1e1e1e" font-family="Virgil, Segoe UI Emoji" font-size="20px" style="white-space: pre;" text-anchor="middle" x="44.1552734375" y="0">Document </text><text direction="ltr" dominant-baseline="text-before-edge" fill="#1e1e1e" font-family="Virgil, Segoe UI Emoji" font-size="20px" style="white-space: pre;" text-anchor="middle" x="44.1552734375" y="25">Operations</text><text direction="ltr" dominant-baseline="text-before-edge" fill="#1e1e1e" font-family="Virgil, Segoe UI Emoji" font-size="20px" style="white-space: pre;" text-anchor="middle" x="44.1552734375" y="50">DB</text></g><g stroke-linecap="round"><g transform="translate(783.5390625000002 428.74345841988725) rotate(0 52.173828125 -1.3912604599437373)"><path d="M-0.66 -0.56 C16.5 -1.03, 86.57 -2.33, 103.92 -2.72 M1.19 1.76 C18.07 1.49, 85.3 -0.58, 102.75 -1.15" fill="none" stroke="#1e1e1e" stroke-width="2"></path></g><g transform="translate(783.5390625000002 428.74345841988725) rotate(0 52.173828125 -1.3912604599437373)"><path d="M74.89 9.99 C84.53 5.2, 96.17 0.15, 102.75 -1.15 M74.89 9.99 C82.34 7.75, 90.42 3.07, 102.75 -1.15" fill="none" stroke="#1e1e1e" stroke-width="2"></path></g><g transform="translate(783.5390625000002 428.74345841988725) rotate(0 52.173828125 -1.3912604599437373)"><path d="M74.25 -10.52 C84.15 -7.51, 96.03 -4.76, 102.75 -1.15 M74.25 -10.52 C81.98 -6.82, 90.25 -5.55, 102.75 -1.15" fill="none" stroke="#1e1e1e" stroke-width="2"></path></g></g><mask></mask><g stroke-linecap="round"><g transform="translate(112.21484375 256.015625) rotate(0 194.580078125 108.576171875)"><path d="M-0.43 0.06 C18.18 36.33, 45.98 183.77, 111 217.03 C176.03 250.28, 343.48 202.22, 389.73 199.59" fill="none" stroke="#1e1e1e" stroke-dasharray="8 10" stroke-width="2.5"></path></g><g transform="translate(112.21484375 256.015625) rotate(0 194.580078125 108.576171875)"><path d="M363.57 214.28 C370.15 209.25, 376.24 208.13, 389.73 199.59" fill="none" stroke="#1e1e1e" stroke-width="2.5"></path></g><g transform="translate(112.21484375 256.015625) rotate(0 194.580078125 108.576171875)"><path d="M360.25 194.03 C367.55 193.97, 374.45 197.81, 389.73 199.59" fill="none" stroke="#1e1e1e" stroke-width="2.5"></path></g></g><mask></mask><g transform="translate(158.73046875 506.36328125) rotate(0 83.86992645263672 12.5)"><text direction="ltr" dominant-baseline="text-before-edge" fill="#1e1e1e" font-family="Virgil, Segoe UI Emoji" font-size="20px" style="white-space: pre;" text-anchor="start" x="0" y="0">Write Just Edits</text></g><g stroke-linecap="round"><g transform="translate(620.1702091708005 557.171875) rotate(0 35.84644563870097 32.92556599300451)"><path d="M0.57 -0.65 C6.21 11.43, 21.21 73.27, 32.95 72.34 C44.69 71.41, 64.45 6.89, 71.02 -6.22 M-0.59 1.62 C5.53 13.39, 23.55 71.9, 35.3 70.74 C47.05 69.59, 63.62 7.44, 69.9 -5.29" fill="none" stroke="#1e1e1e" stroke-width="2"></path></g><g transform="translate(620.1702091708005 557.171875) rotate(0 35.84644563870097 32.92556599300451)"><path d="M69.81 24.71 C68.77 16.85, 71.55 10.16, 69.9 -5.29 M69.81 24.71 C70.62 16.7, 70.11 9.86, 69.9 -5.29" fill="none" stroke="#1e1e1e" stroke-width="2"></path></g><g transform="translate(620.1702091708005 557.171875) rotate(0 35.84644563870097 32.92556599300451)"><path d="M50.54 17.63 C53.82 11.26, 60.9 6.15, 69.9 -5.29 M50.54 17.63 C56 11.45, 60.08 6.29, 69.9 -5.29" fill="none" stroke="#1e1e1e" stroke-width="2"></path></g></g><mask></mask><g transform="translate(578.5195312500002 644.19921875) rotate(0 72.75993347167969 12.5)"><text direction="ltr" dominant-baseline="text-before-edge" fill="#1e1e1e" font-family="Virgil, Segoe UI Emoji" font-size="20px" style="white-space: pre;" text-anchor="start" x="0" y="0">Transform Ops</text></g><g transform="translate(778.4453125000002 378.00390625) rotate(0 55.01994323730469 12.5)"><text direction="ltr" dominant-baseline="text-before-edge" fill="#1e1e1e" font-family="Virgil, Segoe UI Emoji" font-size="20px" style="white-space: pre;" text-anchor="start" x="0" y="0">Applied Ops</text></g><g stroke-linecap="round"><g transform="translate(906.9804687500002 511.80859375) rotate(0 -63.373046875 -1.091796875)"><path d="M0.66 -0.84 C-20.16 -1.25, -104.44 -2.87, -125.59 -3.2 M-0.45 1.33 C-21.27 1.1, -104.89 -1.67, -125.94 -2.2" fill="none" stroke="#1e1e1e" stroke-width="4"></path></g><g transform="translate(906.9804687500002 511.80859375) rotate(0 -63.373046875 -1.091796875)"><path d="M-97.46 -11.63 C-105.86 -7.25, -113.1 -6.01, -125.94 -2.2 M-97.46 -11.63 C-104.36 -8.48, -110.76 -6.33, -125.94 -2.2" fill="none" stroke="#1e1e1e" stroke-width="4"></path></g><g transform="translate(906.9804687500002 511.80859375) rotate(0 -63.373046875 -1.091796875)"><path d="M-98.06 8.88 C-106.19 8.26, -113.28 4.49, -125.94 -2.2 M-98.06 8.88 C-104.76 6.97, -111.01 4.05, -125.94 -2.2" fill="none" stroke="#1e1e1e" stroke-width="4"></path></g></g><mask></mask><g transform="translate(728.8632125854494 554.54296875) rotate(0 110.61392974853516 35)"><text direction="ltr" dominant-baseline="text-before-edge" fill="#1e1e1e" font-family="Virgil, Segoe UI Emoji" font-size="28px" style="white-space: pre;" text-anchor="middle" x="110.61392974853516" y="0">On Initialization</text><text direction="ltr" dominant-baseline="text-before-edge" fill="#1e1e1e" font-family="Virgil, Segoe UI Emoji" font-size="28px" style="white-space: pre;" text-anchor="middle" x="110.61392974853516" y="35">Read all Ops</text></g><g stroke-linecap="round"><g transform="translate(662.2187500000002 369.5390625) rotate(0 -116.486328125 -85.177734375)"><path d="M0.51 -0.64 C-6.1 -14.84, 0.32 -58.08, -38.57 -86.22 C-77.45 -114.36, -200.54 -155.56, -232.79 -169.47" fill="none" stroke="#1e1e1e" stroke-dasharray="8 12" stroke-width="4.5"></path></g><g transform="translate(662.2187500000002 369.5390625) rotate(0 -116.486328125 -85.177734375)"><path d="M-202.79 -168.92 C-215.73 -169.51, -225.96 -168.92, -232.79 -169.47" fill="none" stroke="#1e1e1e" stroke-width="4.5"></path></g><g transform="translate(662.2187500000002 369.5390625) rotate(0 -116.486328125 -85.177734375)"><path d="M-210.17 -149.77 C-220.02 -157.98, -227.33 -164.97, -232.79 -169.47" fill="none" stroke="#1e1e1e" stroke-width="4.5"></path></g></g><mask></mask><g transform="translate(647.4577941894534 261.26171875) rotate(0 113.73594665527344 35)"><text direction="ltr" dominant-baseline="text-before-edge" fill="#1e1e1e" font-family="Virgil, Segoe UI Emoji" font-size="28px" style="white-space: pre;" text-anchor="middle" x="113.73594665527344" y="0">Send all Applied </text><text direction="ltr" dominant-baseline="text-before-edge" fill="#1e1e1e" font-family="Virgil, Segoe UI Emoji" font-size="28px" style="white-space: pre;" text-anchor="middle" x="113.73594665527344" y="35">Ops on Connect</text></g><g transform="translate(1149.4093091808147 398.0470819983502) rotate(0 65.18994903564453 50)"><text direction="ltr" dominant-baseline="text-before-edge" fill="#1e1e1e" font-family="Virgil, Segoe UI Emoji" font-size="20px" style="white-space: pre;" text-anchor="start" x="0" y="0">Operations</text><text direction="ltr" dominant-baseline="text-before-edge" fill="#1e1e1e" font-family="Virgil, Segoe UI Emoji" font-size="20px" style="white-space: pre;" text-anchor="start" x="0" y="25">  timestamp</text><text direction="ltr" dominant-baseline="text-before-edge" fill="#1e1e1e" font-family="Virgil, Segoe UI Emoji" font-size="20px" style="white-space: pre;" text-anchor="start" x="0" y="50">  documentId</text><text direction="ltr" dominant-baseline="text-before-edge" fill="#1e1e1e" font-family="Virgil, Segoe UI Emoji" font-size="20px" style="white-space: pre;" text-anchor="start" x="0" y="75">  data</text></g></svg>