<svg height="509.0913373667765" version="1.1" viewbox="0 0 682.8991270131849 509.0913373667765" width="682.8991270131849" xmlns="http://www.w3.org/2000/svg">
<!-- svg-source:excalidraw -->
<!-- payload-type:application/vnd.excalidraw+json --><!-- payload-version:2 -->
<defs>
<style class="style-fonts">
</style>
</defs>
<rect fill="#ffffff" height="509.0913373667765" width="682.8991270131849" x="0" y="0"></rect><g stroke-linecap="round" transform="translate(13.830078125 10) rotate(0 42.560546875 43.259765625)"><path d="M21.28 0 C34.17 0.42, 51.14 -1.01, 63.84 0 M21.28 0 C30.76 0.69, 40.52 0.02, 63.84 0 M63.84 0 C78.99 -0.17, 83.74 6.34, 85.12 21.28 M63.84 0 C79.8 -1.84, 84.74 6.55, 85.12 21.28 M85.12 21.28 C83.13 33.07, 83.38 46.57, 85.12 65.24 M85.12 21.28 C85.09 33.45, 85.86 44.47, 85.12 65.24 M85.12 65.24 C86.52 78.52, 77.44 85.23, 63.84 86.52 M85.12 65.24 C84.31 77.17, 76.07 84.34, 63.84 86.52 M63.84 86.52 C51.77 85.86, 36.92 87.1, 21.28 86.52 M63.84 86.52 C50.97 86.2, 36.74 86.3, 21.28 86.52 M21.28 86.52 C7.18 86.22, 0.42 80.02, 0 65.24 M21.28 86.52 C7.08 86.23, -1.58 81.44, 0 65.24 M0 65.24 C0.71 52.48, -0.37 35.22, 0 21.28 M0 65.24 C1.22 56, 1.23 44.61, 0 21.28 M0 21.28 C1.38 7.24, 8.34 1.23, 21.28 0 M0 21.28 C-2.01 9.39, 4.84 -0.77, 21.28 0" fill="none" stroke="#1e1e1e" stroke-width="2"></path></g><g transform="translate(22.490646362304688 40.759765625) rotate(0 33.89997863769531 12.5)"><text direction="ltr" dominant-baseline="text-before-edge" fill="#1e1e1e" font-family="Virgil, Segoe UI Emoji" font-size="20px" style="white-space: pre;" text-anchor="middle" x="33.89997863769531" y="0">User A</text></g><g stroke-linecap="round" transform="translate(12.87890625 141.111328125) rotate(0 42.560546875 43.259765625)"><path d="M21.28 0 C34.57 0.25, 51.74 -0.99, 63.84 0 M21.28 0 C38.65 -0.21, 54.37 -0.51, 63.84 0 M63.84 0 C79.57 -1.6, 84.79 6.62, 85.12 21.28 M63.84 0 C77.94 -2, 84.46 5.24, 85.12 21.28 M85.12 21.28 C84.2 31.9, 86.23 42.14, 85.12 65.24 M85.12 21.28 C86.13 35.51, 85.14 50.01, 85.12 65.24 M85.12 65.24 C84.41 77.47, 76.32 84.62, 63.84 86.52 M85.12 65.24 C85.6 78.95, 79.87 88.35, 63.84 86.52 M63.84 86.52 C53.36 87.22, 42.32 87.09, 21.28 86.52 M63.84 86.52 C52.26 86.3, 40.81 86.74, 21.28 86.52 M21.28 86.52 C7.08 86.27, -1.37 81.18, 0 65.24 M21.28 86.52 C7.84 87.79, 0.07 80.52, 0 65.24 M0 65.24 C-1.36 46.75, -1.17 32.63, 0 21.28 M0 65.24 C0.27 48.21, 0.2 31.65, 0 21.28 M0 21.28 C-1.75 9.09, 5.13 -0.67, 21.28 0 M0 21.28 C0.56 5.11, 8.18 -1.38, 21.28 0" fill="none" stroke="#1e1e1e" stroke-width="2"></path></g><g transform="translate(20.82947540283203 171.87109375) rotate(0 34.60997772216797 12.5)"><text direction="ltr" dominant-baseline="text-before-edge" fill="#1e1e1e" font-family="Virgil, Segoe UI Emoji" font-size="20px" style="white-space: pre;" text-anchor="middle" x="34.60997772216797" y="0">User B</text></g><g stroke-linecap="round" transform="translate(10 267.14257812500006) rotate(0 42.560546875 43.259765625)"><path d="M21.28 0 C36.25 -1.46, 47.96 1.2, 63.84 0 M21.28 0 C34.47 -0.64, 45.95 -0.08, 63.84 0 M63.84 0 C77.95 -1.74, 84.55 5.48, 85.12 21.28 M63.84 0 C76.62 -1.57, 84.26 6.38, 85.12 21.28 M85.12 21.28 C86.11 36.18, 84.49 49.63, 85.12 65.24 M85.12 21.28 C84.64 31.49, 84.14 42.71, 85.12 65.24 M85.12 65.24 C85.54 79.01, 79.63 88.11, 63.84 86.52 M85.12 65.24 C83.98 79.88, 78.31 86.72, 63.84 86.52 M63.84 86.52 C49.15 84.97, 35.19 86.71, 21.28 86.52 M63.84 86.52 C51.71 86.52, 38.9 87.52, 21.28 86.52 M21.28 86.52 C7.74 87.62, 0.06 80.38, 0 65.24 M21.28 86.52 C9.22 86.38, -0.92 77.83, 0 65.24 M0 65.24 C2.04 56.7, -0.48 45.69, 0 21.28 M0 65.24 C-1.15 52.74, -1.26 37.9, 0 21.28 M0 21.28 C0.49 5.37, 8.04 -1.2, 21.28 0 M0 21.28 C-0.63 5.4, 4.82 -0.57, 21.28 0" fill="none" stroke="#1e1e1e" stroke-width="2"></path></g><g transform="translate(18.78057098388672 297.90234375000006) rotate(0 33.77997589111328 12.5)"><text direction="ltr" dominant-baseline="text-before-edge" fill="#1e1e1e" font-family="Virgil, Segoe UI Emoji" font-size="20px" style="white-space: pre;" text-anchor="middle" x="33.77997589111328" y="0">User C</text></g><g stroke-linecap="round" transform="translate(266.29577138136506 81.65004285843293) rotate(0 72.84765625000001 58.009765625)"><path d="M29 0 C47.73 -1.8, 66.03 1.12, 116.69 0 M29 0 C48.27 -0.66, 67.33 -0.6, 116.69 0 M116.69 0 C134.8 -1.36, 144.95 9.05, 145.7 29 M116.69 0 C136.18 1.62, 145.55 10.45, 145.7 29 M145.7 29 C144.52 49.93, 144.14 71.32, 145.7 87.01 M145.7 29 C145.41 40.52, 146 53.24, 145.7 87.01 M145.7 87.01 C144.7 106.74, 136.27 116.19, 116.69 116.02 M145.7 87.01 C146.44 106.09, 136.62 115.4, 116.69 116.02 M116.69 116.02 C97.36 116.48, 79.23 116.05, 29 116.02 M116.69 116.02 C91.81 117.34, 66.31 117.26, 29 116.02 M29 116.02 C11.52 115.89, -0.8 104.96, 0 87.01 M29 116.02 C8.24 114.65, 2.18 108.4, 0 87.01 M0 87.01 C0.36 65.29, 1.45 39.31, 0 29 M0 87.01 C0.81 62.95, 1.04 40.01, 0 29 M0 29 C-0.54 8.2, 7.69 -0.5, 29 0 M0 29 C2.15 8.44, 10.45 -0.08, 29 0" fill="none" stroke="#1e1e1e" stroke-width="2"></path></g><g transform="translate(300.58346059034943 127.15980848343293) rotate(0 38.55996704101564 12.5)"><text direction="ltr" dominant-baseline="text-before-edge" fill="#1e1e1e" font-family="Virgil, Segoe UI Emoji" font-size="20px" style="white-space: pre;" text-anchor="middle" x="38.559967041015625" y="0">Server 1</text></g><g stroke-linecap="round" transform="translate(262.65905263136506 235.99183973343293) rotate(0 72.84765625000001 58.009765625)"><path d="M29 0 C47.67 -1.01, 69.05 -0.75, 116.69 0 M29 0 C47.06 0.03, 65.97 0.4, 116.69 0 M116.69 0 C136.16 1.41, 145.57 10.35, 145.7 29 M116.69 0 C137.66 -1.08, 147.3 8.62, 145.7 29 M145.7 29 C143.36 43.01, 143.42 60.84, 145.7 87.01 M145.7 29 C145.66 45.39, 146.28 61.47, 145.7 87.01 M145.7 87.01 C146.35 106.13, 136.54 115.48, 116.69 116.02 M145.7 87.01 C143.79 105.96, 136.12 115.67, 116.69 116.02 M116.69 116.02 C88.28 114.64, 62.13 116.66, 29 116.02 M116.69 116.02 C86.48 116.37, 54.01 115.74, 29 116.02 M29 116.02 C8.43 114.83, 1.89 108.13, 0 87.01 M29 116.02 C11.88 115.17, 1.58 106.52, 0 87.01 M0 87.01 C1.64 64.02, -1.03 45.45, 0 29 M0 87.01 C-0.55 73.88, -1.26 61.96, 0 29 M0 29 C1.87 8.6, 10.35 -0.07, 29 0 M0 29 C2.12 7.7, 9.33 1.38, 29 0" fill="none" stroke="#1e1e1e" stroke-width="2"></path></g><g transform="translate(292.5367458076346 281.5016053584329) rotate(0 42.96996307373048 12.5)"><text direction="ltr" dominant-baseline="text-before-edge" fill="#1e1e1e" font-family="Virgil, Segoe UI Emoji" font-size="20px" style="white-space: pre;" text-anchor="middle" x="42.96996307373047" y="0">Server 2</text></g><g stroke-linecap="round"><g transform="translate(102.216796875 57.196859320727754) rotate(0 75.00042475318256 27.34474347812572)"><path d="M-0.05 -1.05 C24.93 7.96, 124.77 44.57, 149.66 53.72 M-1.53 1.02 C23.28 10.17, 122.98 45.8, 148.53 54.75" fill="none" stroke="#ffffff" stroke-width="2"></path></g><g transform="translate(102.216796875 57.196859320727754) rotate(0 75.00042475318256 27.34474347812572)"><path d="M29.95 -1.01 C19.71 -1.6, 11.34 -2.27, -0.05 -1.05 M29.95 -1.01 C23.06 -0.4, 15.98 -0.78, -0.05 -1.05" fill="none" stroke="#ffffff" stroke-width="2"></path></g><g transform="translate(102.216796875 57.196859320727754) rotate(0 75.00042475318256 27.34474347812572)"><path d="M22.91 18.27 C14.71 12.21, 8.33 6.08, -0.05 -1.05 M22.91 18.27 C17.72 14.42, 12.27 9.58, -0.05 -1.05" fill="none" stroke="#ffffff" stroke-width="2"></path></g><g transform="translate(102.216796875 57.196859320727754) rotate(0 75.00042475318256 27.34474347812572)"><path d="M118.53 55 C125.29 54.37, 133.93 53.65, 148.53 54.75 M118.53 55 C125.56 55.74, 132.38 55.32, 148.53 54.75" fill="none" stroke="#ffffff" stroke-width="2"></path></g><g transform="translate(102.216796875 57.196859320727754) rotate(0 75.00042475318256 27.34474347812572)"><path d="M125.39 35.66 C130.16 40.51, 136.85 45.27, 148.53 54.75 M125.39 35.66 C130.75 40.87, 135.99 44.93, 148.53 54.75" fill="none" stroke="#ffffff" stroke-width="2"></path></g></g><mask></mask><g stroke-linecap="round"><g transform="translate(95.53328625076631 108.00455247767559) rotate(0 75.3192864258937 79.74294730763972)"><path d="M-1.04 0.85 C24.11 27.26, 125.88 132.45, 151.32 158.78 M0.61 0.25 C25.62 26.78, 125.61 133.35, 150.73 159.94" fill="none" stroke="#1e1e1e" stroke-width="2"></path></g><g transform="translate(95.53328625076631 108.00455247767559) rotate(0 75.3192864258937 79.74294730763972)"><path d="M25.91 14.02 C18.22 10.49, 6.55 6.49, -1.04 0.85 M25.91 14.02 C19.07 11.14, 13.12 7.02, -1.04 0.85" fill="none" stroke="#1e1e1e" stroke-width="2"></path></g><g transform="translate(95.53328625076631 108.00455247767559) rotate(0 75.3192864258937 79.74294730763972)"><path d="M11.14 28.27 C8.39 20.06, 1.69 11.27, -1.04 0.85 M11.14 28.27 C7.9 21.76, 5.56 14.16, -1.04 0.85" fill="none" stroke="#1e1e1e" stroke-width="2"></path></g><g transform="translate(95.53328625076631 108.00455247767559) rotate(0 75.3192864258937 79.74294730763972)"><path d="M123.94 146.45 C134.41 152.36, 140.83 157.34, 150.73 159.94 M123.94 146.45 C130.29 149.62, 137.5 152.04, 150.73 159.94" fill="none" stroke="#1e1e1e" stroke-width="2"></path></g><g transform="translate(95.53328625076631 108.00455247767559) rotate(0 75.3192864258937 79.74294730763972)"><path d="M138.88 132.38 C144.35 142.9, 145.75 152.61, 150.73 159.94 M138.88 132.38 C141.59 139.13, 145.14 144.99, 150.73 159.94" fill="none" stroke="#1e1e1e" stroke-width="2"></path></g></g><mask></mask><g stroke-linecap="round" transform="translate(502.2892356049595 47.561841039021544) rotate(0 83.02038752157426 81.81011984149606)"><path d="M32 0 C69.21 -2.56, 110.41 -2.58, 134.04 0 M32 0 C66.28 0.56, 101.94 0.92, 134.04 0 M134.04 0 C155.96 -0.21, 164.49 8.91, 166.04 32 M134.04 0 C155.26 2.29, 167.4 8.59, 166.04 32 M166.04 32 C165.71 59.66, 167.5 85.24, 166.04 131.62 M166.04 32 C165.76 59.78, 164.76 87.83, 166.04 131.62 M166.04 131.62 C167.82 154.84, 153.87 163.25, 134.04 163.62 M166.04 131.62 C167.68 153.73, 155.51 162.17, 134.04 163.62 M134.04 163.62 C107.44 162.55, 78.79 164.24, 32 163.62 M134.04 163.62 C93.14 163.11, 53.07 163.88, 32 163.62 M32 163.62 C11.44 163.35, 0.28 153.83, 0 131.62 M32 163.62 C9.21 163.43, -0.29 153.12, 0 131.62 M0 131.62 C-0.48 99.91, 1.5 69.15, 0 32 M0 131.62 C-0.24 95.19, -1.81 58.42, 0 32 M0 32 C0.34 10.08, 9.62 0.54, 32 0 M0 32 C-0.45 8.7, 11.48 1.44, 32 0" fill="none" stroke="#1e1e1e" stroke-width="2"></path></g><g transform="translate(535.7496789737017 116.8719608805176) rotate(0 49.559944152832 12.5)"><text direction="ltr" dominant-baseline="text-before-edge" fill="#1e1e1e" font-family="Virgil, Segoe UI Emoji" font-size="20px" style="white-space: pre;" text-anchor="middle" x="49.55994415283203" y="0">Zookeeper</text></g><g stroke-linecap="round"><g transform="translate(416.528077661894 137.863711300045) rotate(0 35.66093472668621 -3.4960834627079294)"><path d="M-0.14 -0.98 C11.75 -2.42, 60.06 -6.77, 72.09 -7.64 M-1.68 1.12 C10.06 -0.26, 59.33 -4.91, 71.55 -6.44" fill="none" stroke="#1e1e1e" stroke-width="2"></path></g><g transform="translate(416.528077661894 137.863711300045) rotate(0 35.66093472668621 -3.4960834627079294)"><path d="M26.95 -13.87 C15.62 -7.96, 6.39 -3.43, -0.14 -0.98 M26.95 -13.87 C17.37 -10.06, 6.44 -4.59, -0.14 -0.98" fill="none" stroke="#1e1e1e" stroke-width="2"></path></g><g transform="translate(416.528077661894 137.863711300045) rotate(0 35.66093472668621 -3.4960834627079294)"><path d="M28.89 6.56 C16.7 5.08, 6.76 2.23, -0.14 -0.98 M28.89 6.56 C18.63 2.87, 6.99 0.85, -0.14 -0.98" fill="none" stroke="#1e1e1e" stroke-width="2"></path></g><g transform="translate(416.528077661894 137.863711300045) rotate(0 35.66093472668621 -3.4960834627079294)"><path d="M44.62 6.79 C52.61 3.32, 62.89 -1.58, 71.55 -6.44 M44.62 6.79 C54.89 1.47, 63.76 -2.63, 71.55 -6.44" fill="none" stroke="#1e1e1e" stroke-width="2"></path></g><g transform="translate(416.528077661894 137.863711300045) rotate(0 35.66093472668621 -3.4960834627079294)"><path d="M42.42 -13.62 C51.37 -9.71, 62.45 -7.24, 71.55 -6.44 M42.42 -13.62 C53.46 -11.43, 63.14 -8.06, 71.55 -6.44" fill="none" stroke="#1e1e1e" stroke-width="2"></path></g></g><mask></mask><g stroke-linecap="round"><g transform="translate(419.1252944352007 270.07441276027544) rotate(0 34.90783020313381 -27.334823131987037)"><path d="M1.18 -0.31 C12.75 -9.73, 58.3 -46.77, 69.67 -55.68 M0.34 -1.52 C11.71 -10.89, 57.29 -45.66, 68.64 -54.68" fill="none" stroke="#1e1e1e" stroke-width="2"></path></g><g transform="translate(419.1252944352007 270.07441276027544) rotate(0 34.90783020313381 -27.334823131987037)"><path d="M16.61 -26.04 C11.3 -17.83, 5.14 -9.97, 1.18 -0.31 M16.61 -26.04 C11.96 -16.7, 5.13 -6.01, 1.18 -0.31" fill="none" stroke="#1e1e1e" stroke-width="2"></path></g><g transform="translate(419.1252944352007 270.07441276027544) rotate(0 34.90783020313381 -27.334823131987037)"><path d="M29.54 -10.1 C19.95 -6.91, 9.62 -4.18, 1.18 -0.31 M29.54 -10.1 C19.95 -6.72, 8.28 -2, 1.18 -0.31" fill="none" stroke="#1e1e1e" stroke-width="2"></path></g><g transform="translate(419.1252944352007 270.07441276027544) rotate(0 34.90783020313381 -27.334823131987037)"><path d="M52.69 -29.28 C57.14 -37.87, 61.11 -46.49, 68.64 -54.68 M52.69 -29.28 C59.49 -39.1, 64.41 -47.56, 68.64 -54.68" fill="none" stroke="#1e1e1e" stroke-width="2"></path></g><g transform="translate(419.1252944352007 270.07441276027544) rotate(0 34.90783020313381 -27.334823131987037)"><path d="M40.09 -45.48 C48.72 -48.97, 56.75 -52.37, 68.64 -54.68 M40.09 -45.48 C51.71 -49.24, 61.35 -51.64, 68.64 -54.68" fill="none" stroke="#1e1e1e" stroke-width="2"></path></g></g><mask></mask><g stroke-linecap="round" transform="translate(523.1803770131849 319.0249311167765) rotate(0 74.859375 60.775390625)"><path d="M30.39 0 C64.12 0.12, 98.47 -1.51, 119.33 0 M30.39 0 C56.12 -1.14, 82.98 -1.49, 119.33 0 M119.33 0 C139.68 1.76, 151.28 8.43, 149.72 30.39 M119.33 0 C140.17 2.16, 149.85 11.61, 149.72 30.39 M149.72 30.39 C147.47 44.3, 148.4 61.96, 149.72 91.16 M149.72 30.39 C149.94 45.73, 149.86 61.61, 149.72 91.16 M149.72 91.16 C150.59 109.42, 137.99 121.51, 119.33 121.55 M149.72 91.16 C150.27 109.85, 141.84 120.78, 119.33 121.55 M119.33 121.55 C93.96 120.39, 65.86 120.62, 30.39 121.55 M119.33 121.55 C88.52 121.3, 58.73 121.36, 30.39 121.55 M30.39 121.55 C8.55 123.17, 0.6 112.34, 0 91.16 M30.39 121.55 C9.11 123.78, 1.55 111.02, 0 91.16 M0 91.16 C-2.05 73.46, 0.27 57.12, 0 30.39 M0 91.16 C-1.21 75.93, 0.21 62.2, 0 30.39 M0 30.39 C-0.76 11.17, 8.85 0.2, 30.39 0 M0 30.39 C0.76 12.23, 12.3 -0.41, 30.39 0" fill="none" stroke="#1e1e1e" stroke-width="2"></path></g><g transform="translate(557.4897794790052 354.8003217417765) rotate(0 40.54997253417969 25)"><text direction="ltr" dominant-baseline="text-before-edge" fill="#1e1e1e" font-family="Virgil, Segoe UI Emoji" font-size="20px" style="white-space: pre;" text-anchor="middle" x="40.54997253417969" y="0">Update </text><text direction="ltr" dominant-baseline="text-before-edge" fill="#1e1e1e" font-family="Virgil, Segoe UI Emoji" font-size="20px" style="white-space: pre;" text-anchor="middle" x="40.54997253417969" y="25">Server</text></g><g stroke-linecap="round"><g transform="translate(590.3073629602857 304.1499311167765) rotate(0 -0.21896817904541876 -39.845703125)"><path d="M0.82 1.15 C0.68 -11.89, -1.53 -65.94, -1.57 -79.23 M-0.21 0.71 C0.07 -12.62, 0.45 -67.6, 0.54 -81.11" fill="none" stroke="#1e1e1e" stroke-width="2"></path></g><g transform="translate(590.3073629602857 304.1499311167765) rotate(0 -0.21896817904541876 -39.845703125)"><path d="M-10.33 -26.7 C-5.99 -22.07, -4.5 -11.88, 0.82 1.15 M-10.33 -26.7 C-5.7 -14.96, -1.66 -5.87, 0.82 1.15" fill="none" stroke="#1e1e1e" stroke-width="2"></path></g><g transform="translate(590.3073629602857 304.1499311167765) rotate(0 -0.21896817904541876 -39.845703125)"><path d="M10.18 -27.35 C9.66 -22.43, 6.29 -12.08, 0.82 1.15 M10.18 -27.35 C6.81 -15.2, 2.85 -5.85, 0.82 1.15" fill="none" stroke="#1e1e1e" stroke-width="2"></path></g><g transform="translate(590.3073629602857 304.1499311167765) rotate(0 -0.21896817904541876 -39.845703125)"><path d="M10.6 -52.85 C10.36 -61.37, 6.83 -64.46, 0.54 -81.11 M10.6 -52.85 C7.04 -62.84, 2.8 -75.64, 0.54 -81.11" fill="none" stroke="#1e1e1e" stroke-width="2"></path></g><g transform="translate(590.3073629602857 304.1499311167765) rotate(0 -0.21896817904541876 -39.845703125)"><path d="M-9.92 -53 C-5.3 -61.62, -3.97 -64.68, 0.54 -81.11 M-9.92 -53 C-5.48 -63.09, -1.71 -75.83, 0.54 -81.11" fill="none" stroke="#1e1e1e" stroke-width="2"></path></g></g><mask></mask><g stroke-linecap="round"><g transform="translate(508.4733457631848 357.5913373667765) rotate(0 -44.99609375 -19.669921875)"><path d="M0.24 0.02 C-14.97 -6.63, -75.83 -33.66, -90.75 -40.31 M-1.1 -1.01 C-15.96 -7.5, -73.68 -32.98, -88.44 -39.29" fill="none" stroke="#1e1e1e" stroke-width="2"></path></g><g transform="translate(508.4733457631848 357.5913373667765) rotate(0 -44.99609375 -19.669921875)"><path d="M-58.49 -37.45 C-68.63 -39.28, -80.49 -37.43, -88.44 -39.29 M-58.49 -37.45 C-66.33 -37.3, -73.68 -38.95, -88.44 -39.29" fill="none" stroke="#1e1e1e" stroke-width="2"></path></g><g transform="translate(508.4733457631848 357.5913373667765) rotate(0 -44.99609375 -19.669921875)"><path d="M-66.68 -18.63 C-73.97 -26.88, -83.04 -31.43, -88.44 -39.29 M-66.68 -18.63 C-72.42 -23.24, -77.68 -29.7, -88.44 -39.29" fill="none" stroke="#1e1e1e" stroke-width="2"></path></g></g><mask></mask><g transform="translate(143.4460020131848 379.7475873667765) rotate(0 158.5198974609375 25)"><text direction="ltr" dominant-baseline="text-before-edge" fill="#1e1e1e" font-family="Virgil, Segoe UI Emoji" font-size="20px" style="white-space: pre;" text-anchor="middle" x="158.5198974609375" y="0">1) I know user A is on Server 2,</text><text direction="ltr" dominant-baseline="text-before-edge" fill="#1e1e1e" font-family="Virgil, Segoe UI Emoji" font-size="20px" style="white-space: pre;" text-anchor="middle" x="158.5198974609375" y="25">I'll send the message there.</text></g><g stroke-linecap="round"><g transform="translate(461.31314356543874 425.8841301857921) rotate(0 15.308616723873172 -30.48029281901563)"><path d="M-0.34 -0.52 C4.03 -0.56, 20.38 11.1, 25.7 0.84 C31.01 -9.41, 30.81 -51.59, 31.54 -62.05" fill="none" stroke="#1e1e1e" stroke-dasharray="8 10" stroke-width="2.5"></path></g><g transform="translate(461.31314356543874 425.8841301857921) rotate(0 15.308616723873172 -30.48029281901563)"><path d="M40.79 -33.52 C37.3 -42.28, 36.44 -46.67, 31.54 -62.05" fill="none" stroke="#1e1e1e" stroke-width="2.5"></path></g><g transform="translate(461.31314356543874 425.8841301857921) rotate(0 15.308616723873172 -30.48029281901563)"><path d="M20.28 -34.25 C22.07 -42.77, 26.48 -46.97, 31.54 -62.05" fill="none" stroke="#1e1e1e" stroke-width="2.5"></path></g></g><mask></mask><g transform="translate(100.51677227685667 449.0913373667765) rotate(0 173.06985473632812 25)"><text direction="ltr" dominant-baseline="text-before-edge" fill="#1e1e1e" font-family="Virgil, Segoe UI Emoji" font-size="20px" style="white-space: pre;" text-anchor="middle" x="173.06985473632812" y="0">2) I know user A is connected on</text><text direction="ltr" dominant-baseline="text-before-edge" fill="#1e1e1e" font-family="Virgil, Segoe UI Emoji" font-size="20px" style="white-space: pre;" text-anchor="middle" x="173.06985473632812" y="25">WebSocket connection 432, sending!</text></g><g stroke-linecap="round"><g transform="translate(98.7154056417111 439.8512263826113) rotate(0 27.525454435736847 -124.3252570079174)"><path d="M0.92 -0.95 C4.5 -23.74, 11.63 -95.64, 20.48 -136.93 C29.34 -178.21, 48.33 -230.24, 54.05 -248.67" fill="none" stroke="#1e1e1e" stroke-dasharray="8 10" stroke-width="2.5"></path></g><g transform="translate(98.7154056417111 439.8512263826113) rotate(0 27.525454435736847 -124.3252570079174)"><path d="M54.93 -218.68 C53.2 -224.42, 56.13 -233.42, 54.05 -248.67" fill="none" stroke="#1e1e1e" stroke-width="2.5"></path></g><g transform="translate(98.7154056417111 439.8512263826113) rotate(0 27.525454435736847 -124.3252570079174)"><path d="M35.45 -225.13 C37.95 -229.61, 45.14 -237.21, 54.05 -248.67" fill="none" stroke="#1e1e1e" stroke-width="2.5"></path></g></g><mask></mask></svg>