<svg height="682.44921875" version="1.1" viewbox="0 0 722.5796661376953 682.44921875" width="722.5796661376953" xmlns="http://www.w3.org/2000/svg">
<!-- svg-source:excalidraw -->
<!-- payload-type:application/vnd.excalidraw+json --><!-- payload-version:2 -->
<defs>
<style class="style-fonts">
</style>
</defs>
<rect fill="#ffffff" height="682.44921875" width="722.5796661376953" x="0" y="0"></rect><g stroke-linecap="round" transform="translate(113.63281250000006 46.80859375) rotate(0 70.79687499999997 299.783203125)"><path d="M32 0 C50.82 1.1, 73.27 0.86, 109.59 0 C132.45 -3.09, 141.08 13.34, 141.59 32 C137.7 201.82, 137.42 370.41, 141.59 567.57 C141.2 592.21, 131.91 598.86, 109.59 599.57 C86.63 601.2, 65.49 598.88, 32 599.57 C11.18 599.22, 2.57 588.57, 0 567.57 C-1.34 396.32, -4.17 226.33, 0 32 C0.93 12.13, 13.61 -1.34, 32 0" fill="#ffc9c9" stroke="none" stroke-width="0"></path><path d="M32 0 C54.59 -0.91, 77.63 2.19, 109.59 0 M109.59 0 C129.62 0.61, 140.65 10.98, 141.59 32 M141.59 32 C141.57 232.15, 140.8 431.4, 141.59 567.57 M141.59 567.57 C142.83 587.9, 130.8 600.48, 109.59 599.57 M109.59 599.57 C92.38 599.55, 73.1 600.66, 32 599.57 M32 599.57 C11.03 599, 0.69 587.88, 0 567.57 M0 567.57 C-0.43 375.74, -0.27 183.01, 0 32 M0 32 C-0.19 11.93, 11.19 -0.09, 32 0" fill="none" stroke="#1e1e1e" stroke-dasharray="1.5 8" stroke-width="2.5"></path></g><g transform="translate(174.17187500000006 10) rotate(0 12.059989929199219 12.5)"><text direction="ltr" dominant-baseline="text-before-edge" fill="#1e1e1e" font-family="Virgil, Segoe UI Emoji" font-size="20px" style="white-space: pre;" text-anchor="start" x="0" y="0">IP</text></g><g stroke-linecap="round" transform="translate(256.52343750000006 109.064453125) rotate(0 70.79687499999997 236.99609375)"><path d="M32 0 C59.6 -3.5, 83.64 2.26, 109.59 0 C131.49 -3.32, 145.06 9.82, 141.59 32 C139.63 178.09, 140.39 320.16, 141.59 441.99 C141.22 465.2, 127.64 473.5, 109.59 473.99 C80.56 473.87, 53.08 473.9, 32 473.99 C11.31 476.55, 1.35 466.83, 0 441.99 C4.54 350.38, 5.65 256.42, 0 32 C3.3 12.19, 12.19 2.84, 32 0" fill="#b2f2bb" stroke="none" stroke-width="0"></path><path d="M32 0 C47.55 0.05, 64.77 -0.25, 109.59 0 M109.59 0 C132.38 -0.67, 140.95 12.39, 141.59 32 M141.59 32 C142.07 184.15, 141.32 337.9, 141.59 441.99 M141.59 441.99 C140.5 465.25, 132.72 475.8, 109.59 473.99 M109.59 473.99 C89.46 473.58, 69.28 473.12, 32 473.99 M32 473.99 C11.83 474.89, 1.67 464.67, 0 441.99 M0 441.99 C-2.08 314.02, -1.68 184.6, 0 32 M0 32 C-0.83 9.87, 10.95 -0.68, 32 0" fill="none" stroke="#1e1e1e" stroke-dasharray="1.5 8" stroke-width="2.5"></path></g><g transform="translate(297.03906250000006 73.48046875) rotate(0 21.089981079101562 12.5)"><text direction="ltr" dominant-baseline="text-before-edge" fill="#1e1e1e" font-family="Virgil, Segoe UI Emoji" font-size="20px" style="white-space: pre;" text-anchor="start" x="0" y="0">TCP</text></g><g stroke-linecap="round" transform="translate(396.52734375 242.15234375) rotate(0 70.796875 91.265625)"><path d="M32 0 C49.18 -4.36, 68.7 -1.88, 109.59 0 C132.8 -1.55, 142.25 10.27, 141.59 32 C141.8 80.35, 138.88 124.44, 141.59 150.53 C144.5 172.7, 131.52 183.04, 109.59 182.53 C87.71 184.96, 65.89 185.91, 32 182.53 C7.98 178.95, -2.25 172.8, 0 150.53 C1.56 111.66, -0.22 72.59, 0 32 C1.27 10.07, 11.93 0.98, 32 0" fill="#a5d8ff" stroke="none" stroke-width="0"></path><path d="M32 0 C59.09 -0.79, 82.64 1.6, 109.59 0 M109.59 0 C132.38 -0.18, 142.22 11.9, 141.59 32 M141.59 32 C140.42 63.56, 143.31 93.08, 141.59 150.53 M141.59 150.53 C140.88 173.42, 131.32 182.9, 109.59 182.53 M109.59 182.53 C89.69 183.04, 69.11 183.48, 32 182.53 M32 182.53 C10.94 184.28, -1.7 171.67, 0 150.53 M0 150.53 C-1.15 106.68, -0.02 63.73, 0 32 M0 32 C0.72 11.33, 11.25 0.85, 32 0" fill="none" stroke="#1e1e1e" stroke-dasharray="1.5 8" stroke-width="2.5"></path></g><g transform="translate(440.890625 199.2265625) rotate(0 28.199974060058594 12.5)"><text direction="ltr" dominant-baseline="text-before-edge" fill="#1e1e1e" font-family="Virgil, Segoe UI Emoji" font-size="20px" style="white-space: pre;" text-anchor="start" x="0" y="0">HTTP</text></g><g mask="url(#mask-CwnNRLpbDERwNQMj8qPcB)" stroke-linecap="round"><g transform="translate(94.95312500000006 140.69921875) rotate(0 124.58203125 -1.435546875)"><path d="M1.03 0.87 C42.61 0.52, 207.58 -1.77, 249.05 -2.5 M0.12 0.28 C41.56 -0.41, 206.48 -3.97, 248.05 -4.42" fill="none" stroke="#1e1e1e" stroke-width="2"></path></g><g transform="translate(94.95312500000006 140.69921875) rotate(0 124.58203125 -1.435546875)"><path d="M220.04 6.31 C228.99 3.03, 235.63 1.58, 248.05 -4.42 M220.04 6.31 C226.5 4.47, 234.95 1.72, 248.05 -4.42" fill="none" stroke="#1e1e1e" stroke-width="2"></path></g><g transform="translate(94.95312500000006 140.69921875) rotate(0 124.58203125 -1.435546875)"><path d="M219.69 -14.2 C228.67 -12.02, 235.4 -8, 248.05 -4.42 M219.69 -14.2 C226.22 -10.93, 234.76 -8.54, 248.05 -4.42" fill="none" stroke="#1e1e1e" stroke-width="2"></path></g></g><mask id="mask-CwnNRLpbDERwNQMj8qPcB"><rect fill="#fff" height="243.5703125" width="444.11718750000006" x="0" y="0"></rect><rect fill="#000" height="20" opacity="1" width="28.287979125976562" x="205.39116668701178" y="129.263671875"></rect></mask><g transform="translate(205.39116668701178 129.263671875) rotate(0 14.146947798174793 9.658472715201782)"><text direction="ltr" dominant-baseline="text-before-edge" fill="#1e1e1e" font-family="Virgil, Segoe UI Emoji" font-size="16px" style="white-space: pre;" text-anchor="middle" x="14.143989562988281" y="0">SYN</text></g><g transform="translate(551.5859375 320.52734375) rotate(89.99999999999994 55.52997589111328 22.5)"><text direction="ltr" dominant-baseline="text-before-edge" fill="#1e1e1e" font-family="Virgil, Segoe UI Emoji" font-size="36px" style="white-space: pre;" text-anchor="start" x="0" y="0">Server</text></g><g transform="translate(-16.189971923828125 324.94124603271484) rotate(270 48.689971923828125 22.5)"><text direction="ltr" dominant-baseline="text-before-edge" fill="#1e1e1e" font-family="Virgil, Segoe UI Emoji" font-size="36px" style="white-space: pre;" text-anchor="start" x="0" y="0">Client</text></g><g mask="url(#mask-vr5e46buHrWxzzNaY0-BO)" stroke-linecap="round"><g transform="translate(348.24218750000006 179.82421875) rotate(0 -126.626953125 0)"><path d="M-0.66 1.16 C-42.67 1.25, -210.01 1.12, -252.18 1.08 M1.2 0.72 C-40.88 0.45, -209.92 -0.19, -252.56 -0.47" fill="none" stroke="#1e1e1e" stroke-width="2"></path></g><g transform="translate(348.24218750000006 179.82421875) rotate(0 -126.626953125 0)"><path d="M-224.32 -10.59 C-230.63 -5.98, -239.04 -5.52, -252.56 -0.47 M-224.32 -10.59 C-235.25 -6.37, -246.13 -2.31, -252.56 -0.47" fill="none" stroke="#1e1e1e" stroke-width="2"></path></g><g transform="translate(348.24218750000006 179.82421875) rotate(0 -126.626953125 0)"><path d="M-224.42 9.93 C-230.8 8.52, -239.18 2.96, -252.56 -0.47 M-224.42 9.93 C-235.35 6.4, -246.2 2.71, -252.56 -0.47" fill="none" stroke="#1e1e1e" stroke-width="2"></path></g></g><mask id="mask-vr5e46buHrWxzzNaY0-BO"><rect fill="#fff" height="279.82421875" width="701.49609375" x="0" y="0"></rect><rect fill="#000" height="20" opacity="1" width="65.47193908691406" x="188.87926483154303" y="169.82421875"></rect></mask><g transform="translate(188.87926483154303 169.82421875) rotate(0 33.68120612018741 10.35988825200937)"><text direction="ltr" dominant-baseline="text-before-edge" fill="#1e1e1e" font-family="Virgil, Segoe UI Emoji" font-size="16px" style="white-space: pre;" text-anchor="middle" x="32.73596954345703" y="0">SYN-ACK</text></g><g mask="url(#mask-Fk9N-8TnAhbIxmqDh9XD_)" stroke-linecap="round"><g transform="translate(92.92968750000006 216.08984375) rotate(0 126.662109375 -1.40234375)"><path d="M-0.43 0.93 C41.65 0.32, 211.33 -2.03, 253.56 -2.58 M1.55 0.37 C43.4 -0.11, 210.99 -3.78, 252.74 -4.59" fill="none" stroke="#1e1e1e" stroke-width="2"></path></g><g transform="translate(92.92968750000006 216.08984375) rotate(0 126.662109375 -1.40234375)"><path d="M224.77 6.25 C237.12 2.52, 246.84 -2.67, 252.74 -4.59 M224.77 6.25 C234.63 3.29, 244.21 -1.03, 252.74 -4.59" fill="none" stroke="#1e1e1e" stroke-width="2"></path></g><g transform="translate(92.92968750000006 216.08984375) rotate(0 126.662109375 -1.40234375)"><path d="M224.34 -14.27 C237.05 -10, 246.93 -7.19, 252.74 -4.59 M224.34 -14.27 C234.24 -10.36, 243.97 -7.82, 252.74 -4.59" fill="none" stroke="#1e1e1e" stroke-width="2"></path></g></g><mask id="mask-Fk9N-8TnAhbIxmqDh9XD_"><rect fill="#fff" height="318.89453125" width="446.25390625000006" x="0" y="0"></rect><rect fill="#000" height="20" opacity="1" width="30.60797119140625" x="204.28781127929693" y="204.6875"></rect></mask><g transform="translate(204.28781127929693 204.6875) rotate(0 15.20798956751824 9.572434302153994)"><text direction="ltr" dominant-baseline="text-before-edge" fill="#1e1e1e" font-family="Virgil, Segoe UI Emoji" font-size="16px" style="white-space: pre;" text-anchor="middle" x="15.303985595703125" y="0">ACK</text></g><g stroke-linecap="round"><g transform="translate(452.19921875 77.40625) rotate(0 -47.943359375 63.552734375)"><path d="M-0.34 0.41 C-10.73 6.85, -46.28 17.58, -62.11 38.86 C-77.95 60.14, -89.85 113.37, -95.35 128.11" fill="none" stroke="#1e1e1e" stroke-dasharray="8 9" stroke-width="1.5"></path></g><g transform="translate(452.19921875 77.40625) rotate(0 -47.943359375 63.552734375)"><path d="M-96.97 98.15 C-95.7 106.71, -94.71 118.22, -95.35 128.11" fill="none" stroke="#1e1e1e" stroke-width="1.5"></path></g><g transform="translate(452.19921875 77.40625) rotate(0 -47.943359375 63.552734375)"><path d="M-77.33 104.12 C-82.36 110.71, -87.64 120.31, -95.35 128.11" fill="none" stroke="#1e1e1e" stroke-width="1.5"></path></g></g><mask></mask><g transform="translate(459.5078125 66.79296875) rotate(0 126.53592681884766 10)"><text direction="ltr" dominant-baseline="text-before-edge" fill="#1e1e1e" font-family="Virgil, Segoe UI Emoji" font-size="16px" style="white-space: pre;" text-anchor="start" x="0" y="0">TCP Connection now Established</text></g><g mask="url(#mask-QAklTNBTsw2xmsje6MnZP)" stroke-linecap="round"><g transform="translate(84.17968750000006 282.98828125) rotate(0 243.07031249999997 4.5078125)"><path d="M0.54 1 C81.8 2.41, 405.84 8.02, 486.95 9.18 M-0.63 0.48 C80.59 2.05, 405.16 9.42, 486.43 10.81" fill="none" stroke="#1e1e1e" stroke-width="2"></path></g><g transform="translate(84.17968750000006 282.98828125) rotate(0 243.07031249999997 4.5078125)"><path d="M458.03 20.49 C466.71 19.3, 472.39 17.29, 486.43 10.81 M458.03 20.49 C464.41 18.19, 469.84 15.75, 486.43 10.81" fill="none" stroke="#1e1e1e" stroke-width="2"></path></g><g transform="translate(84.17968750000006 282.98828125) rotate(0 243.07031249999997 4.5078125)"><path d="M458.45 -0.02 C467.14 3.9, 472.72 6.99, 486.43 10.81 M458.45 -0.02 C464.72 2.09, 470.06 4.06, 486.43 10.81" fill="none" stroke="#1e1e1e" stroke-width="2"></path></g></g><mask id="mask-QAklTNBTsw2xmsje6MnZP"><rect fill="#fff" height="392.00390625" width="670.3203125" x="0" y="0"></rect><rect fill="#000" height="20" opacity="1" width="89.3919677734375" x="282.55401611328125" y="277.49609375"></rect></mask><g transform="translate(282.55401611328125 277.49609375) rotate(0 44.78362083379645 11.135369054293221)"><text direction="ltr" dominant-baseline="text-before-edge" fill="#1e1e1e" font-family="Virgil, Segoe UI Emoji" font-size="16px" style="white-space: pre;" text-anchor="middle" x="44.69598388671875" y="0">HTTP GET</text></g><g mask="url(#mask-LxDEeCKZi4ouVrMnl0sPX)" stroke-linecap="round"><g transform="translate(572.05078125 370.08984375) rotate(0 -245.927734375 -3.07421875)"><path d="M1.05 -1.02 C-81.08 -1.95, -409.87 -4.53, -491.97 -5.39 M0.14 1.06 C-82.23 -0.22, -410.93 -6.12, -492.98 -7.11" fill="none" stroke="#1e1e1e" stroke-width="2"></path></g><g transform="translate(572.05078125 370.08984375) rotate(0 -245.927734375 -3.07421875)"><path d="M-464.63 -16.94 C-476.73 -13.27, -484.18 -8.95, -492.98 -7.11 M-464.63 -16.94 C-472.91 -14.49, -481.07 -10.91, -492.98 -7.11" fill="none" stroke="#1e1e1e" stroke-width="2"></path></g><g transform="translate(572.05078125 370.08984375) rotate(0 -245.927734375 -3.07421875)"><path d="M-464.95 3.58 C-476.96 -0.29, -484.3 -3.51, -492.98 -7.11 M-464.95 3.58 C-473.05 -0.03, -481.12 -2.52, -492.98 -7.11" fill="none" stroke="#1e1e1e" stroke-width="2"></path></g></g><mask id="mask-LxDEeCKZi4ouVrMnl0sPX"><rect fill="#fff" height="476.23828125" width="1163.90625" x="0" y="0"></rect><rect fill="#000" height="20" opacity="1" width="123.07192993164062" x="264.5870819091797" y="357.015625"></rect></mask><g transform="translate(264.5870819091797 357.015625) rotate(0 61.498848851216025 10.047677394365849)"><text direction="ltr" dominant-baseline="text-before-edge" fill="#1e1e1e" font-family="Virgil, Segoe UI Emoji" font-size="16px" style="white-space: pre;" text-anchor="middle" x="61.53596496582031" y="0">HTTP Response</text></g><g mask="url(#mask-PLbvdsMGOjPJ45lXTSK0h)" stroke-linecap="round"><g transform="translate(84.94531250000006 446.62109375) rotate(0 128.705078125 0)"><path d="M0.31 -0.05 C43.15 -0.26, 214.03 -0.42, 256.91 -0.48 M-0.98 -1.13 C41.67 -1.24, 212.72 0.51, 255.7 0.81" fill="none" stroke="#1e1e1e" stroke-width="2"></path></g><g transform="translate(84.94531250000006 446.62109375) rotate(0 128.705078125 0)"><path d="M227.42 10.83 C235.48 7.01, 242.99 5.22, 255.7 0.81 M227.42 10.83 C235.2 8.49, 241.57 5.26, 255.7 0.81" fill="none" stroke="#1e1e1e" stroke-width="2"></path></g><g transform="translate(84.94531250000006 446.62109375) rotate(0 128.705078125 0)"><path d="M227.6 -9.69 C235.74 -7.55, 243.19 -3.38, 255.7 0.81 M227.6 -9.69 C235.41 -6.57, 241.73 -4.34, 255.7 0.81" fill="none" stroke="#1e1e1e" stroke-width="2"></path></g></g><mask id="mask-PLbvdsMGOjPJ45lXTSK0h"><rect fill="#fff" height="546.62109375" width="442.35546875000006" x="0" y="0"></rect><rect fill="#000" height="20" opacity="1" width="28.207962036132812" x="199.54640960693365" y="436.62109375"></rect></mask><g transform="translate(199.54640960693365 436.62109375) rotate(0 13.36369385663886 9.839318083971932)"><text direction="ltr" dominant-baseline="text-before-edge" fill="#1e1e1e" font-family="Virgil, Segoe UI Emoji" font-size="16px" style="white-space: pre;" text-anchor="middle" x="14.103981018066406" y="0">FIN</text></g><g mask="url(#mask-W1adbq8jqdtxy8FBx37pn)" stroke-linecap="round"><g transform="translate(86.69131404784054 478.59375) rotate(0 128.705078125 0)"><path d="M0.17 -0.41 C43.23 -0.26, 214.91 0.25, 257.84 0.4 M-1.2 -1.67 C41.78 -1.85, 214.06 -1.53, 257.12 -1.52" fill="none" stroke="#1e1e1e" stroke-width="2"></path></g><g transform="translate(86.69131404784054 478.59375) rotate(0 128.705078125 0)"><path d="M28.39 -10.58 C20.39 -7.19, 14.44 -4.7, 0.17 -0.41 M28.39 -10.58 C19.39 -6.98, 8.06 -2.69, 0.17 -0.41" fill="none" stroke="#1e1e1e" stroke-width="2"></path></g><g transform="translate(86.69131404784054 478.59375) rotate(0 128.705078125 0)"><path d="M28.33 9.94 C20.42 8.03, 14.49 5.22, 0.17 -0.41 M28.33 9.94 C19.52 6.51, 8.21 3.78, 0.17 -0.41" fill="none" stroke="#1e1e1e" stroke-width="2"></path></g></g><mask id="mask-W1adbq8jqdtxy8FBx37pn"><rect fill="#fff" height="578.59375" width="444.10147029784054" x="0" y="0"></rect><rect fill="#000" height="20" opacity="1" width="30.60797119140625" x="200.0924065771374" y="468.59375"></rect></mask><g transform="translate(200.0924065771374 468.59375) rotate(0 14.921697592181147 9.337421948815745)"><text direction="ltr" dominant-baseline="text-before-edge" fill="#1e1e1e" font-family="Virgil, Segoe UI Emoji" font-size="16px" style="white-space: pre;" text-anchor="middle" x="15.303985595703125" y="0">ACK</text></g><g mask="url(#mask-EskaT6Bb4V9333wxAq_cm)" stroke-linecap="round"><g transform="translate(87.8736217103899 511.734375) rotate(0 128.705078125 0)"><path d="M0.35 0.51 C43.01 0.41, 213.39 -0.12, 256.38 -0.17 M-0.92 -0.27 C42.06 -0.21, 215.4 0.96, 258.55 1.28" fill="none" stroke="#1e1e1e" stroke-width="2"></path></g><g transform="translate(87.8736217103899 511.734375) rotate(0 128.705078125 0)"><path d="M28.51 -9.83 C19.93 -7.99, 9.33 -1.31, 0.35 0.51 M28.51 -9.83 C19.29 -5.78, 10.21 -2.85, 0.35 0.51" fill="none" stroke="#1e1e1e" stroke-width="2"></path></g><g transform="translate(87.8736217103899 511.734375) rotate(0 128.705078125 0)"><path d="M28.57 10.69 C19.9 5.64, 9.28 5.42, 0.35 0.51 M28.57 10.69 C19.52 8.27, 10.42 4.72, 0.35 0.51" fill="none" stroke="#1e1e1e" stroke-width="2"></path></g></g><mask id="mask-EskaT6Bb4V9333wxAq_cm"><rect fill="#fff" height="611.734375" width="445.2837779603899" x="0" y="0"></rect><rect fill="#000" height="20" opacity="1" width="28.207962036132812" x="202.4747188173235" y="501.734375"></rect></mask><g transform="translate(202.4747188173235 501.734375) rotate(0 14.213857401544232 10.502906857943174)"><text direction="ltr" dominant-baseline="text-before-edge" fill="#1e1e1e" font-family="Virgil, Segoe UI Emoji" font-size="16px" style="white-space: pre;" text-anchor="middle" x="14.103981018066406" y="0">FIN</text></g><g mask="url(#mask-fIOQQdaFarlK1-NcLq7x8)" stroke-linecap="round"><g transform="translate(86.27742753401407 549.8491862964531) rotate(0 128.705078125 0)"><path d="M0.89 0.19 C43.78 0.41, 213.6 1.08, 256.3 1.15 M-0.1 -0.76 C43.23 -0.83, 215.71 -0.26, 258.43 -0.36" fill="none" stroke="#1e1e1e" stroke-width="2"></path></g><g transform="translate(86.27742753401407 549.8491862964531) rotate(0 128.705078125 0)"><path d="M230.23 9.88 C236.6 5.63, 244.25 4.81, 258.43 -0.36 M230.23 9.88 C240.09 7.14, 250.4 2.42, 258.43 -0.36" fill="none" stroke="#1e1e1e" stroke-width="2"></path></g><g transform="translate(86.27742753401407 549.8491862964531) rotate(0 128.705078125 0)"><path d="M230.25 -10.64 C236.58 -10.5, 244.23 -6.92, 258.43 -0.36 M230.25 -10.64 C240.01 -6.16, 250.31 -3.65, 258.43 -0.36" fill="none" stroke="#1e1e1e" stroke-width="2"></path></g></g><mask id="mask-fIOQQdaFarlK1-NcLq7x8"><rect fill="#fff" height="649.8491862964531" width="443.68758378401407" x="0" y="0"></rect><rect fill="#000" height="20" opacity="1" width="30.60797119140625" x="199.67852006331094" y="539.8491862964531"></rect></mask><g transform="translate(199.67852006331094 539.8491862964531) rotate(0 15.765236653024317 10.195151597063273)"><text direction="ltr" dominant-baseline="text-before-edge" fill="#1e1e1e" font-family="Virgil, Segoe UI Emoji" font-size="16px" style="white-space: pre;" text-anchor="middle" x="15.303985595703125" y="0">ACK</text></g><g transform="translate(421.09688568115234 652.44921875) rotate(0 97.56795501708984 10)"><text direction="ltr" dominant-baseline="text-before-edge" fill="#1e1e1e" font-family="Virgil, Segoe UI Emoji" font-size="16px" style="white-space: pre;" text-anchor="start" x="0" y="0">Connection is Terminated</text></g><g stroke-linecap="round"><g transform="translate(469.86257723058816 642.48046875) rotate(0 -55.48792924029408 -47.607421875)"><path d="M-0.52 0.22 C-4.33 -10.3, -4.8 -46.55, -23.15 -62.49 C-41.51 -78.44, -95.99 -90.1, -110.65 -95.45" fill="none" stroke="#1e1e1e" stroke-dasharray="8 10" stroke-width="2.5"></path></g><g transform="translate(469.86257723058816 642.48046875) rotate(0 -55.48792924029408 -47.607421875)"><path d="M-80.71 -97.31 C-88.61 -97.14, -95.42 -95.86, -110.65 -95.45" fill="none" stroke="#1e1e1e" stroke-width="2.5"></path></g><g transform="translate(469.86257723058816 642.48046875) rotate(0 -55.48792924029408 -47.607421875)"><path d="M-86.52 -77.63 C-92.92 -82.88, -98.12 -87.04, -110.65 -95.45" fill="none" stroke="#1e1e1e" stroke-width="2.5"></path></g></g><mask></mask></svg>