<svg height="402.60753982227664" version="1.1" viewbox="0 0 842.6483486391603 402.60753982227664" width="842.6483486391603" xmlns="http://www.w3.org/2000/svg">
<!-- svg-source:excalidraw -->
<!-- payload-type:application/vnd.excalidraw+json --><!-- payload-version:2 -->
<defs>
<style class="style-fonts">
</style>
</defs>
<rect fill="#ffffff" height="402.60753982227664" width="842.6483486391603" x="0" y="0"></rect><g stroke-linecap="round" transform="translate(13.830078125 10) rotate(0 42.560546875 43.259765625)"><path d="M21.28 0 C32.82 1.12, 46.41 -0.73, 63.84 0 M21.28 0 C33.97 0.64, 44.99 0.74, 63.84 0 M63.84 0 C77.78 0.74, 84.04 7.72, 85.12 21.28 M63.84 0 C80.17 -0.33, 85.28 5.41, 85.12 21.28 M85.12 21.28 C85.25 31.2, 84.55 41.76, 85.12 65.24 M85.12 21.28 C84.52 34.02, 84.37 45.36, 85.12 65.24 M85.12 65.24 C86.66 79.71, 78.72 85.14, 63.84 86.52 M85.12 65.24 C83.55 78.38, 79.03 84.32, 63.84 86.52 M63.84 86.52 C50.39 84.4, 39.59 87.61, 21.28 86.52 M63.84 86.52 C52.81 85.36, 43.01 86.37, 21.28 86.52 M21.28 86.52 C8.43 85.08, 0.08 78.22, 0 65.24 M21.28 86.52 C9.15 87.54, 1.18 79.37, 0 65.24 M0 65.24 C1.87 51.3, 1.15 36.5, 0 21.28 M0 65.24 C0.59 47.81, 0.71 30.54, 0 21.28 M0 21.28 C1.88 6.18, 7.48 -0.56, 21.28 0 M0 21.28 C1.77 9.13, 7.24 -1.36, 21.28 0" fill="none" stroke="#1e1e1e" stroke-width="2"></path></g><g transform="translate(22.490646362304688 40.759765625) rotate(0 33.89997863769531 12.5)"><text direction="ltr" dominant-baseline="text-before-edge" fill="#1e1e1e" font-family="Virgil, Segoe UI Emoji" font-size="20px" style="white-space: pre;" text-anchor="middle" x="33.89997863769531" y="0">User A</text></g><g stroke-linecap="round" transform="translate(12.87890625 141.111328125) rotate(0 42.560546875 43.259765625)"><path d="M21.28 0 C35.83 -0.32, 51.33 0.91, 63.84 0 M21.28 0 C37.14 0.01, 52.71 -0.05, 63.84 0 M63.84 0 C79.89 -0.29, 85.26 5.63, 85.12 21.28 M63.84 0 C76.48 1.96, 84.92 6.81, 85.12 21.28 M85.12 21.28 C84.56 34.2, 86.08 44.87, 85.12 65.24 M85.12 21.28 C85.52 36.06, 85.09 49.86, 85.12 65.24 M85.12 65.24 C83.75 78.52, 78.9 84.61, 63.84 86.52 M85.12 65.24 C84.72 80.23, 75.82 84.87, 63.84 86.52 M63.84 86.52 C53.48 87.04, 43.7 85.08, 21.28 86.52 M63.84 86.52 C54.96 85.9, 44.78 86.02, 21.28 86.52 M21.28 86.52 C8.88 87.4, 1.03 79.38, 0 65.24 M21.28 86.52 C7.68 87.02, -0.94 81.69, 0 65.24 M0 65.24 C1.63 49.4, 0.13 37.64, 0 21.28 M0 65.24 C0.81 51.86, 0.06 39.11, 0 21.28 M0 21.28 C1.54 8.87, 7.22 -1.18, 21.28 0 M0 21.28 C0.5 8.53, 7.51 -0.52, 21.28 0" fill="none" stroke="#1e1e1e" stroke-width="2"></path></g><g transform="translate(20.82947540283203 171.87109375) rotate(0 34.60997772216797 12.5)"><text direction="ltr" dominant-baseline="text-before-edge" fill="#1e1e1e" font-family="Virgil, Segoe UI Emoji" font-size="20px" style="white-space: pre;" text-anchor="middle" x="34.60997772216797" y="0">User B</text></g><g stroke-linecap="round" transform="translate(10 267.14257812500006) rotate(0 42.560546875 43.259765625)"><path d="M21.28 0 C34.46 -2.07, 46.34 -0.4, 63.84 0 M21.28 0 C36.56 -0.28, 50.05 -0.86, 63.84 0 M63.84 0 C76.69 1.7, 84.95 6.85, 85.12 21.28 M63.84 0 C77.66 -1.09, 85.12 6.69, 85.12 21.28 M85.12 21.28 C86.04 33.71, 83.89 51.07, 85.12 65.24 M85.12 21.28 C84.59 34.64, 85.71 47.96, 85.12 65.24 M85.12 65.24 C84.77 80.12, 76.11 85.08, 63.84 86.52 M85.12 65.24 C83.15 79.18, 79.76 85.11, 63.84 86.52 M63.84 86.52 C49.13 85.11, 37.94 87.48, 21.28 86.52 M63.84 86.52 C55.04 86.7, 44.96 86.24, 21.28 86.52 M21.28 86.52 C7.6 86.95, -0.82 81.39, 0 65.24 M21.28 86.52 C7.51 87.95, -0.15 81.61, 0 65.24 M0 65.24 C-0.21 56.72, -0.03 48.88, 0 21.28 M0 65.24 C0.69 54.94, -0.02 42.29, 0 21.28 M0 21.28 C0.43 8.34, 7.46 -0.45, 21.28 0 M0 21.28 C-0.49 9.27, 6.62 0.03, 21.28 0" fill="none" stroke="#1e1e1e" stroke-width="2"></path></g><g transform="translate(18.78057098388672 297.90234375000006) rotate(0 33.77997589111328 12.5)"><text direction="ltr" dominant-baseline="text-before-edge" fill="#1e1e1e" font-family="Virgil, Segoe UI Emoji" font-size="20px" style="white-space: pre;" text-anchor="middle" x="33.77997589111328" y="0">User C</text></g><g stroke-linecap="round" transform="translate(192.716796875 46.06640625) rotate(0 72.84765625 58.009765625)"><path d="M29 0 C47.63 -0.98, 65.4 1.97, 116.69 0 M29 0 C53.39 1.49, 79.03 0.52, 116.69 0 M116.69 0 C135.71 -0.95, 145.7 9.32, 145.7 29 M116.69 0 C136.52 1.34, 144.09 10.43, 145.7 29 M145.7 29 C145.55 42.19, 143.88 52.63, 145.7 87.01 M145.7 29 C145.77 44.12, 144.99 57.81, 145.7 87.01 M145.7 87.01 C143.99 106.14, 137.53 114.79, 116.69 116.02 M145.7 87.01 C145.93 104.19, 134 114.28, 116.69 116.02 M116.69 116.02 C93.5 116.69, 71.99 118.39, 29 116.02 M116.69 116.02 C86.77 116.22, 55.93 116.98, 29 116.02 M29 116.02 C10.03 117.26, -0.13 108.25, 0 87.01 M29 116.02 C7.54 116.48, 0.43 106.21, 0 87.01 M0 87.01 C-0.93 68.26, -0.58 50.27, 0 29 M0 87.01 C0.18 65.09, 0.15 41.69, 0 29 M0 29 C-0.43 11.56, 9.25 0.03, 29 0 M0 29 C-0.1 8.67, 7.61 -0.32, 29 0" fill="none" stroke="#1e1e1e" stroke-width="2"></path></g><g transform="translate(227.00448608398438 91.576171875) rotate(0 38.559967041015625 12.5)"><text direction="ltr" dominant-baseline="text-before-edge" fill="#1e1e1e" font-family="Virgil, Segoe UI Emoji" font-size="20px" style="white-space: pre;" text-anchor="middle" x="38.559967041015625" y="0">Server 1</text></g><g stroke-linecap="round" transform="translate(189.080078125 200.408203125) rotate(0 72.84765625 58.009765625)"><path d="M29 0 C50.27 -0.68, 70.65 -2.16, 116.69 0 M29 0 C62.62 -0.37, 96.55 -0.07, 116.69 0 M116.69 0 C136.45 1.16, 144.3 10.33, 145.7 29 M116.69 0 C134.08 -1.71, 147.47 10, 145.7 29 M145.7 29 C144.39 49.28, 143.38 67.46, 145.7 87.01 M145.7 29 C144.28 48.32, 145.89 67.23, 145.7 87.01 M145.7 87.01 C145.9 104.47, 134.27 114.51, 116.69 116.02 M145.7 87.01 C144.5 106.92, 137.57 114.36, 116.69 116.02 M116.69 116.02 C90.9 117.83, 63.29 117.31, 29 116.02 M116.69 116.02 C88.66 117.5, 60.2 117.83, 29 116.02 M29 116.02 C7.82 116.42, 0.37 106.23, 0 87.01 M29 116.02 C10.36 116.09, 2.16 105.3, 0 87.01 M0 87.01 C1.94 68.61, -1.02 50.38, 0 29 M0 87.01 C-0.32 66.93, -0.31 44.97, 0 29 M0 29 C-0.08 8.8, 7.88 -0.28, 29 0 M0 29 C-1.9 9.07, 8.06 -0.96, 29 0" fill="none" stroke="#1e1e1e" stroke-width="2"></path></g><g transform="translate(218.95777130126953 245.91796875) rotate(0 42.96996307373047 12.5)"><text direction="ltr" dominant-baseline="text-before-edge" fill="#1e1e1e" font-family="Virgil, Segoe UI Emoji" font-size="20px" style="white-space: pre;" text-anchor="middle" x="42.96996307373047" y="0">Server 2</text></g><g stroke-linecap="round"><g transform="translate(102.216796875 55.50390625) rotate(0 38.2109375 12.244140625)"><path d="M-0.81 1.02 C11.9 5.22, 63.48 20.52, 76.32 24.34 M0.97 0.51 C13.5 4.98, 62.92 21.73, 75.32 25.8" fill="none" stroke="#ffffff" stroke-width="2"></path></g><g transform="translate(102.216796875 55.50390625) rotate(0 38.2109375 12.244140625)"><path d="M29.15 -0.59 C21.65 -0.47, 10.5 -0.12, -0.81 1.02 M29.15 -0.59 C21.8 0.34, 13.32 0.5, -0.81 1.02" fill="none" stroke="#ffffff" stroke-width="2"></path></g><g transform="translate(102.216796875 55.50390625) rotate(0 38.2109375 12.244140625)"><path d="M23.18 19.04 C17.65 13.18, 8.34 7.5, -0.81 1.02 M23.18 19.04 C17.34 15.03, 10.37 10.23, -0.81 1.02" fill="none" stroke="#ffffff" stroke-width="2"></path></g><g transform="translate(102.216796875 55.50390625) rotate(0 38.2109375 12.244140625)"><path d="M45.33 26.58 C56.24 26.37, 63.5 25.99, 75.32 25.8 M45.33 26.58 C53.11 27.02, 59.78 26.57, 75.32 25.8" fill="none" stroke="#ffffff" stroke-width="2"></path></g><g transform="translate(102.216796875 55.50390625) rotate(0 38.2109375 12.244140625)"><path d="M51.84 7.12 C60.61 12.84, 65.87 18.43, 75.32 25.8 M51.84 7.12 C57.98 12.46, 63 16.93, 75.32 25.8" fill="none" stroke="#ffffff" stroke-width="2"></path></g></g><mask></mask><g stroke-linecap="round"><g transform="translate(107.474609375 52.671875) rotate(0 39.236328125 19.974609375)"><path d="M-0.1 -0.15 C13.08 6.24, 65.19 32.73, 78.28 39.38 M-1.62 -1.27 C11.46 5.8, 64.01 33.58, 77.24 40.62" fill="none" stroke="#1e1e1e" stroke-width="2"></path></g><g transform="translate(107.474609375 52.671875) rotate(0 39.236328125 19.974609375)"><path d="M29.69 3.36 C22.48 2.2, 14.83 1.7, -0.1 -0.15 M29.69 3.36 C20.57 2.87, 12.01 0.81, -0.1 -0.15" fill="none" stroke="#1e1e1e" stroke-width="2"></path></g><g transform="translate(107.474609375 52.671875) rotate(0 39.236328125 19.974609375)"><path d="M20.47 21.69 C15.25 16.27, 9.75 11.5, -0.1 -0.15 M20.47 21.69 C13.92 15.97, 7.96 8.73, -0.1 -0.15" fill="none" stroke="#1e1e1e" stroke-width="2"></path></g><g transform="translate(107.474609375 52.671875) rotate(0 39.236328125 19.974609375)"><path d="M47.52 36.47 C54.23 37.15, 60.45 38.43, 77.24 40.62 M47.52 36.47 C55.23 37.8, 63.47 37.9, 77.24 40.62" fill="none" stroke="#1e1e1e" stroke-width="2"></path></g><g transform="translate(107.474609375 52.671875) rotate(0 39.236328125 19.974609375)"><path d="M57.14 18.34 C61.76 23.23, 65.74 28.74, 77.24 40.62 M57.14 18.34 C62.17 24.85, 67.69 30.06, 77.24 40.62" fill="none" stroke="#1e1e1e" stroke-width="2"></path></g></g><mask></mask><g stroke-linecap="round"><g transform="translate(104.650390625 186.0078125) rotate(0 39.408203125 20.79296875)"><path d="M-0.19 -0.57 C12.96 6.35, 65.61 34.23, 78.82 41.37 M-1.75 1.75 C11.26 8.87, 64.5 36.37, 77.87 42.8" fill="none" stroke="#1e1e1e" stroke-width="2"></path></g><g transform="translate(104.650390625 186.0078125) rotate(0 39.408203125 20.79296875)"><path d="M29.52 3.56 C19.92 2.31, 11.86 1.53, -0.19 -0.57 M29.52 3.56 C18.06 1.43, 9.04 0.84, -0.19 -0.57" fill="none" stroke="#1e1e1e" stroke-width="2"></path></g><g transform="translate(104.650390625 186.0078125) rotate(0 39.408203125 20.79296875)"><path d="M19.92 21.69 C13.14 15.17, 7.87 9.11, -0.19 -0.57 M19.92 21.69 C12.02 13.04, 6.44 5.95, -0.19 -0.57" fill="none" stroke="#1e1e1e" stroke-width="2"></path></g><g transform="translate(104.650390625 186.0078125) rotate(0 39.408203125 20.79296875)"><path d="M48.07 39.33 C55.8 40.39, 65.08 41.82, 77.87 42.8 M48.07 39.33 C57.87 39.73, 70.16 41.86, 77.87 42.8" fill="none" stroke="#1e1e1e" stroke-width="2"></path></g><g transform="translate(104.650390625 186.0078125) rotate(0 39.408203125 20.79296875)"><path d="M57.28 20.98 C62.3 27.38, 68.9 34.16, 77.87 42.8 M57.28 20.98 C63.65 27.99, 72.65 36.69, 77.87 42.8" fill="none" stroke="#1e1e1e" stroke-width="2"></path></g></g><mask></mask><g stroke-linecap="round"><g transform="translate(101.630859375 316.78515625000006) rotate(0 38.04296875 -15.998046875)"><path d="M0 -0.21 C12.76 -5.33, 63.8 -26.07, 76.34 -31.3 M-1.46 -1.37 C11.18 -6.78, 62.33 -27.66, 75.53 -33.05" fill="none" stroke="#1e1e1e" stroke-width="2"></path></g><g transform="translate(101.630859375 316.78515625000006) rotate(0 38.04296875 -15.998046875)"><path d="M22.26 -20.32 C15.49 -14.18, 10.68 -10.28, 0 -0.21 M22.26 -20.32 C15.45 -13.65, 7.61 -7.79, 0 -0.21" fill="none" stroke="#1e1e1e" stroke-width="2"></path></g><g transform="translate(101.630859375 316.78515625000006) rotate(0 38.04296875 -15.998046875)"><path d="M29.98 -1.31 C21.1 -0.57, 14.1 -2.08, 0 -0.21 M29.98 -1.31 C20.76 -1.02, 10.35 -1.49, 0 -0.21" fill="none" stroke="#1e1e1e" stroke-width="2"></path></g><g transform="translate(101.630859375 316.78515625000006) rotate(0 38.04296875 -15.998046875)"><path d="M53.32 -12.89 C59.37 -18.19, 67.2 -25.74, 75.53 -33.05 M53.32 -12.89 C61.65 -19.29, 68.62 -26.84, 75.53 -33.05" fill="none" stroke="#1e1e1e" stroke-width="2"></path></g><g transform="translate(101.630859375 316.78515625000006) rotate(0 38.04296875 -15.998046875)"><path d="M45.55 -31.88 C53.72 -31.79, 63.76 -33.94, 75.53 -33.05 M45.55 -31.88 C56.31 -31.91, 65.87 -33.13, 75.53 -33.05" fill="none" stroke="#1e1e1e" stroke-width="2"></path></g></g><mask></mask><g stroke-linecap="round"><g transform="translate(832.392578125 143.71484375) rotate(0 -220.859375 1.677734375)"><path d="M0.26 0.7 C-73.5 1.36, -368.72 3.46, -442.55 3.75 M-1.07 0.02 C-74.45 0.33, -367.06 1.29, -440.28 1.84" fill="none" stroke="#1e1e1e" stroke-width="2"></path></g><g transform="translate(832.392578125 143.71484375) rotate(0 -220.859375 1.677734375)"><path d="M-412.14 -8.57 C-419.44 -6.78, -428.39 -3.96, -440.28 1.84 M-412.14 -8.57 C-418.06 -6.87, -425.44 -4.29, -440.28 1.84" fill="none" stroke="#1e1e1e" stroke-width="2"></path></g><g transform="translate(832.392578125 143.71484375) rotate(0 -220.859375 1.677734375)"><path d="M-412.04 11.95 C-419.33 7.59, -428.31 4.25, -440.28 1.84 M-412.04 11.95 C-418.14 9.02, -425.54 6.98, -440.28 1.84" fill="none" stroke="#1e1e1e" stroke-width="2"></path></g></g><mask></mask><g transform="translate(392.8968048095703 66.046875) rotate(0 179.69987487792966 25)"><text direction="ltr" dominant-baseline="text-before-edge" fill="#1e1e1e" font-family="Virgil, Segoe UI Emoji" font-size="20px" style="white-space: pre;" text-anchor="middle" x="179.6998748779297" y="0">I Want to send message to User C,</text><text direction="ltr" dominant-baseline="text-before-edge" fill="#1e1e1e" font-family="Virgil, Segoe UI Emoji" font-size="20px" style="white-space: pre;" text-anchor="middle" x="179.6998748779297" y="25">which server do I connect to?</text></g><g stroke-linecap="round"><g transform="translate(399.130859375 311.18750000000006) rotate(0 -123.8203125 40.53125)"><path d="M-1.01 -0.89 C-35.39 12.58, -166.03 77.5, -207.06 81.23 C-248.1 84.96, -240.33 31.4, -247.23 21.49" fill="none" stroke="#1e1e1e" stroke-dasharray="8 10" stroke-width="2.5"></path></g><g transform="translate(399.130859375 311.18750000000006) rotate(0 -123.8203125 40.53125)"><path d="M-231.14 46.81 C-236.42 42.38, -238.35 35.7, -247.23 21.49" fill="none" stroke="#1e1e1e" stroke-width="2.5"></path></g><g transform="translate(399.130859375 311.18750000000006) rotate(0 -123.8203125 40.53125)"><path d="M-251.18 51.23 C-251.86 45.95, -249.17 38.25, -247.23 21.49" fill="none" stroke="#1e1e1e" stroke-width="2.5"></path></g></g><mask></mask><g transform="translate(411.552734375 276.06640625000006) rotate(0 110.27989959716794 12.5)"><text direction="ltr" dominant-baseline="text-before-edge" fill="#1e1e1e" font-family="Virgil, Segoe UI Emoji" font-size="20px" style="white-space: pre;" text-anchor="start" x="0" y="0">Websocket Connections</text></g></svg>