<svg height="435.45703125" version="1.1" viewbox="0 0 692.1779174804688 435.45703125" width="692.1779174804688" xmlns="http://www.w3.org/2000/svg">
<!-- svg-source:excalidraw -->
<!-- payload-type:application/vnd.excalidraw+json --><!-- payload-version:2 -->
<defs>
<style class="style-fonts">
</style>
</defs>
<rect fill="#ffffff" height="435.45703125" width="692.1779174804688" x="0" y="0"></rect><g stroke-linecap="round" transform="translate(10 166.125) rotate(0 64.42578125 73.314453125)"><path d="M32 0 C53.94 0.72, 74.99 0.14, 96.85 0 M32 0 C48.43 -0.77, 64.59 -0.3, 96.85 0 M96.85 0 C119.35 -0.25, 128.71 11.22, 128.85 32 M96.85 0 C117.53 -0.09, 126.6 11.36, 128.85 32 M128.85 32 C127.37 56.86, 126.68 82.31, 128.85 114.63 M128.85 32 C129.5 56.29, 129.91 81.09, 128.85 114.63 M128.85 114.63 C126.91 134.92, 117.43 144.92, 96.85 146.63 M128.85 114.63 C128.75 138.23, 116.87 146.41, 96.85 146.63 M96.85 146.63 C73.94 147.51, 52.63 147.25, 32 146.63 M96.85 146.63 C75.65 146.6, 56 146.35, 32 146.63 M32 146.63 C9.24 146.02, -0.03 136.54, 0 114.63 M32 146.63 C12.77 146.73, -0.63 137, 0 114.63 M0 114.63 C0.74 80.47, 0.99 50.28, 0 32 M0 114.63 C-0.1 91.2, -1.09 69, 0 32 M0 32 C-0.2 9.07, 9.09 -0.33, 32 0 M0 32 C-0.6 11.58, 9.13 0.05, 32 0" fill="none" stroke="#1e1e1e" stroke-width="2"></path></g><g transform="translate(47.37580871582031 226.939453125) rotate(0 27.049972534179688 12.5)"><text direction="ltr" dominant-baseline="text-before-edge" fill="#1e1e1e" font-family="Virgil, Segoe UI Emoji" font-size="20px" style="white-space: pre;" text-anchor="middle" x="27.049972534179688" y="0">Client</text></g><g stroke-linecap="round" transform="translate(276.234375 170.9609375) rotate(0 63.974609375 74.046875)"><path d="M31.99 0 C50.84 -1.93, 71.31 -0.02, 95.96 0 M31.99 0 C51.42 -0.51, 71.74 1, 95.96 0 M95.96 0 C115.98 1.63, 126.81 9.48, 127.95 31.99 M95.96 0 C118.61 1.41, 129.43 12.15, 127.95 31.99 M127.95 31.99 C126.35 54.65, 129.09 73.48, 127.95 116.11 M127.95 31.99 C127.85 50.97, 127.95 71.38, 127.95 116.11 M127.95 116.11 C127 137.95, 118.85 146.11, 95.96 148.09 M127.95 116.11 C128.71 135.61, 118.66 148.9, 95.96 148.09 M95.96 148.09 C79.74 146.03, 58.62 146.82, 31.99 148.09 M95.96 148.09 C78.41 147.05, 62.46 147.47, 31.99 148.09 M31.99 148.09 C10.8 147.85, 0.67 137.61, 0 116.11 M31.99 148.09 C10.79 147.96, 0.39 135.72, 0 116.11 M0 116.11 C1.93 98.82, 1.89 80.82, 0 31.99 M0 116.11 C-0.59 85.45, 0.42 53.44, 0 31.99 M0 31.99 C-0.99 9.11, 11.67 -1.16, 31.99 0 M0 31.99 C-1.42 11.72, 9.55 -0.99, 31.99 0" fill="none" stroke="#1e1e1e" stroke-width="2"></path></g><g transform="translate(309.35901641845703 232.5078125) rotate(0 30.84996795654297 12.5)"><text direction="ltr" dominant-baseline="text-before-edge" fill="#1e1e1e" font-family="Virgil, Segoe UI Emoji" font-size="20px" style="white-space: pre;" text-anchor="middle" x="30.84996795654297" y="0">Server</text></g><g stroke-linecap="round" transform="translate(534.3359375 176.09375) rotate(0 68.115234375 68.724609375)"><path d="M47.11 3.13 C55.69 -0.66, 66.44 0.21, 76.19 1.45 C85.94 2.7, 97.15 5.35, 105.6 10.6 C114.05 15.85, 121.93 24.23, 126.88 32.95 C131.83 41.67, 134.43 52.85, 135.31 62.91 C136.18 72.98, 135.62 84.12, 132.15 93.32 C128.68 102.53, 121.77 111.5, 114.49 118.16 C107.21 124.82, 97.53 130.14, 88.47 133.29 C79.41 136.43, 69.91 138.19, 60.13 137.03 C50.35 135.88, 38.09 131.78, 29.78 126.37 C21.47 120.95, 15.35 113.23, 10.28 104.56 C5.21 95.89, 0.36 84.34, -0.66 74.35 C-1.68 64.36, 0.63 53.87, 4.15 44.61 C7.68 35.36, 11.63 26.13, 20.47 18.81 C29.3 11.5, 49 3.69, 57.15 0.71 C65.31 -2.27, 69.22 -0.26, 69.4 0.92 M71.88 -0.94 C80.97 -1.56, 90.52 4.73, 98.92 9.44 C107.31 14.15, 116.26 19.75, 122.23 27.31 C128.2 34.88, 132.6 45.07, 134.75 54.83 C136.9 64.59, 137.83 76.29, 135.13 85.9 C132.44 95.5, 125.41 104.97, 118.58 112.45 C111.76 119.94, 103 126.91, 94.17 130.82 C85.33 134.73, 75.35 136.04, 65.58 135.92 C55.81 135.81, 44.31 134.35, 35.54 130.15 C26.77 125.95, 18.53 119, 12.97 110.74 C7.42 102.48, 4.13 90.78, 2.19 80.61 C0.25 70.45, -1.01 59.14, 1.34 49.75 C3.7 40.36, 9.52 31.84, 16.29 24.27 C23.07 16.71, 32.81 8.34, 41.99 4.35 C51.17 0.36, 66.82 0.96, 71.39 0.33 C75.96 -0.29, 69.55 -0.39, 69.42 0.62" fill="none" stroke="#1e1e1e" stroke-width="2"></path></g><g transform="translate(561.3064625363655 232.22272205154093) rotate(0 40.97996520996088 12.5)"><text direction="ltr" dominant-baseline="text-before-edge" fill="#1e1e1e" font-family="Virgil, Segoe UI Emoji" font-size="20px" style="white-space: pre;" text-anchor="middle" x="40.97996520996094" y="0">Updates</text></g><g stroke-linecap="round"><g transform="translate(525.0536795255614 241.3823761930161) rotate(0 -54.534652262780696 -0.309009336160301)"><path d="M-0.35 0.54 C-18.61 0.64, -90.51 -0.36, -108.74 -0.5 M1.67 -0.23 C-16.8 0.19, -90.76 0.87, -109.52 1.1" fill="none" stroke="#1e1e1e" stroke-width="2"></path></g><g transform="translate(525.0536795255614 241.3823761930161) rotate(0 -54.534652262780696 -0.309009336160301)"><path d="M-81.44 -9.46 C-91.04 -5.09, -102.14 -2.85, -109.52 1.1 M-81.44 -9.46 C-89.94 -6.43, -99.26 -3.81, -109.52 1.1" fill="none" stroke="#1e1e1e" stroke-width="2"></path></g><g transform="translate(525.0536795255614 241.3823761930161) rotate(0 -54.534652262780696 -0.309009336160301)"><path d="M-81.22 11.06 C-90.71 7.83, -101.89 2.47, -109.52 1.1 M-81.22 11.06 C-89.65 7.43, -99.05 3.4, -109.52 1.1" fill="none" stroke="#1e1e1e" stroke-width="2"></path></g></g><mask></mask><g stroke-linecap="round"><g transform="translate(263.234375 241.27711400127578) rotate(0 -53.98828125 -1.4827504557827638)"><path d="M-0.25 -0.27 C-18.18 -0.75, -89.81 -3.41, -107.65 -3.83 M1.82 -1.46 C-16.23 -1.73, -90.18 -2.76, -108.43 -2.75" fill="none" stroke="#1e1e1e" stroke-width="2"></path></g><g transform="translate(263.234375 241.27711400127578) rotate(0 -53.98828125 -1.4827504557827638)"><path d="M-80.16 -12.79 C-89.01 -9.35, -98.31 -5.79, -108.43 -2.75 M-80.16 -12.79 C-89.22 -8.9, -98 -7.18, -108.43 -2.75" fill="none" stroke="#1e1e1e" stroke-width="2"></path></g><g transform="translate(263.234375 241.27711400127578) rotate(0 -53.98828125 -1.4827504557827638)"><path d="M-80.32 7.73 C-88.96 5.13, -98.22 2.66, -108.43 -2.75 M-80.32 7.73 C-89.19 5.2, -97.92 0.5, -108.43 -2.75" fill="none" stroke="#1e1e1e" stroke-width="2"></path></g></g><mask></mask><g stroke-linecap="round"><g transform="translate(291.87890625 110.77401666235528) rotate(0 -52.583984375 44.18721041882236)"><path d="M-0.23 -1.2 C-14.38 1.26, -67.18 0.54, -84.79 15.43 C-102.4 30.32, -102.6 76.01, -105.87 88.15" fill="none" stroke="#1e1e1e" stroke-dasharray="8 10" stroke-width="2.5"></path></g><g transform="translate(291.87890625 110.77401666235528) rotate(0 -52.583984375 44.18721041882236)"><path d="M-111.94 58.77 C-111.87 67.36, -106.45 75.88, -105.87 88.15" fill="none" stroke="#1e1e1e" stroke-width="2.5"></path></g><g transform="translate(291.87890625 110.77401666235528) rotate(0 -52.583984375 44.18721041882236)"><path d="M-91.64 61.74 C-97.9 69.37, -98.8 76.97, -105.87 88.15" fill="none" stroke="#1e1e1e" stroke-width="2.5"></path></g></g><mask></mask><g transform="translate(304.23828125 86.3359375) rotate(0 188.96981811523438 25)"><text direction="ltr" dominant-baseline="text-before-edge" fill="#1e1e1e" font-family="Virgil, Segoe UI Emoji" font-size="20px" style="white-space: pre;" text-anchor="start" x="0" y="0">Step 1</text><text direction="ltr" dominant-baseline="text-before-edge" fill="#1e1e1e" font-family="Virgil, Segoe UI Emoji" font-size="20px" style="white-space: pre;" text-anchor="start" x="0" y="25">How do updates propagate to clients?</text></g><g stroke-linecap="round"><g transform="translate(373.9453125 374.22301762502184) rotate(0 52.7109375 -59.79705568751092)"><path d="M0.09 0.67 C14.42 -3.35, 68.8 -3.72, 86.43 -23.8 C104.06 -43.88, 102.89 -103.69, 105.87 -119.81" fill="none" stroke="#1e1e1e" stroke-dasharray="8 10" stroke-width="2.5"></path></g><g transform="translate(373.9453125 374.22301762502184) rotate(0 52.7109375 -59.79705568751092)"><path d="M113.54 -90.8 C111.97 -102.52, 109.21 -109.76, 105.87 -119.81" fill="none" stroke="#1e1e1e" stroke-width="2.5"></path></g><g transform="translate(373.9453125 374.22301762502184) rotate(0 52.7109375 -59.79705568751092)"><path d="M93.1 -92.66 C98.49 -103.76, 102.67 -110.37, 105.87 -119.81" fill="none" stroke="#1e1e1e" stroke-width="2.5"></path></g></g><mask></mask><g transform="translate(23.5390625 350.45703125) rotate(0 169.2098388671875 37.5)"><text direction="ltr" dominant-baseline="text-before-edge" fill="#1e1e1e" font-family="Virgil, Segoe UI Emoji" font-size="20px" style="white-space: pre;" text-anchor="start" x="0" y="0">Step 2</text><text direction="ltr" dominant-baseline="text-before-edge" fill="#1e1e1e" font-family="Virgil, Segoe UI Emoji" font-size="20px" style="white-space: pre;" text-anchor="start" x="0" y="25">How does our server get triggered</text><text direction="ltr" dominant-baseline="text-before-edge" fill="#1e1e1e" font-family="Virgil, Segoe UI Emoji" font-size="20px" style="white-space: pre;" text-anchor="start" x="0" y="50">when updates happen?</text></g><g transform="translate(155.578125 10) rotate(0 156.9059295654297 22.5)"><text direction="ltr" dominant-baseline="text-before-edge" fill="#1e1e1e" font-family="Virgil, Segoe UI Emoji" font-size="36px" style="white-space: pre;" text-anchor="start" x="0" y="0">Realtime Updates</text></g></svg>