<svg height="1132.7810387922777" version="1.1" viewbox="0 0 1933.6724247487214 1132.7810387922777" width="1933.6724247487214" xmlns="http://www.w3.org/2000/svg">
<!-- svg-source:excalidraw -->
<!-- payload-type:application/vnd.excalidraw+json --><!-- payload-version:2 -->
<defs>
<style class="style-fonts">
</style>
</defs>
<rect fill="#ffffff" height="1132.7810387922777" width="1933.6724247487214" x="0" y="0"></rect><g stroke-linecap="round" transform="translate(156.28168396164256 350.44259245101637) rotate(0 311.15629960823435 313.5150513542821)"><path d="M344.23 1.42 C365.93 -1.26, 389.58 9.75, 410.63 16.91 C431.67 24.08, 451.51 33.11, 470.52 44.42 C489.53 55.73, 508.44 69.39, 524.66 84.78 C540.88 100.17, 555.38 118.02, 567.82 136.76 C580.27 155.49, 590.87 176.28, 599.32 197.19 C607.77 218.1, 614.86 240.16, 618.53 262.22 C622.2 284.28, 622.49 306.98, 621.33 329.53 C620.18 352.09, 617.56 375.85, 611.61 397.55 C605.65 419.24, 595.98 440.02, 585.6 459.71 C575.22 479.39, 563.77 498.36, 549.33 515.68 C534.88 533, 516.82 550.01, 498.93 563.62 C481.04 577.24, 462.17 588.2, 441.99 597.38 C421.81 606.55, 399.7 613.85, 377.83 618.66 C355.97 623.48, 333.02 626.02, 310.81 626.27 C288.59 626.52, 266.15 624.77, 244.55 620.17 C222.96 615.57, 201.37 608.29, 181.26 598.66 C161.16 589.03, 141.87 575.93, 123.93 562.41 C106 548.89, 88.33 534.34, 73.65 517.53 C58.96 500.72, 46.17 481.4, 35.83 461.57 C25.49 441.74, 17.56 420.32, 11.58 398.53 C5.6 376.74, 1.33 353.54, -0.03 330.82 C-1.4 308.09, -0.27 284.38, 3.4 262.21 C7.06 240.03, 13.72 218.67, 21.98 197.79 C30.25 176.91, 40.44 155.7, 52.98 136.93 C65.51 118.17, 80.94 100.46, 97.19 85.19 C113.45 69.92, 131.31 56.65, 150.5 45.32 C169.69 33.98, 191.22 24.6, 212.33 17.2 C233.44 9.8, 254.2 3.23, 277.16 0.91 C300.13 -1.41, 337.5 1.93, 350.12 3.27 C362.73 4.62, 353.63 4.1, 352.85 8.99 M232.16 9.04 C251.5 -1.55, 277.33 0.58, 299.98 -0.29 C322.62 -1.17, 346.31 -0.39, 368.03 3.78 C389.75 7.94, 410.1 15.83, 430.3 24.7 C450.51 33.57, 471.04 44.13, 489.28 56.98 C507.51 69.84, 524.44 85.1, 539.73 101.83 C555.01 118.56, 569.82 137.79, 580.99 157.36 C592.15 176.93, 600.19 197.81, 606.71 219.26 C613.22 240.71, 617.77 263.63, 620.07 286.06 C622.36 308.49, 623.2 331.77, 620.49 353.86 C617.78 375.94, 611.24 397.6, 603.8 418.57 C596.37 439.55, 587.89 460.54, 575.89 479.71 C563.88 498.88, 547.55 517.36, 531.76 533.61 C515.98 549.86, 499.53 564.93, 481.18 577.19 C462.84 589.45, 442.7 599.41, 421.69 607.18 C400.67 614.95, 377.46 620.51, 355.11 623.81 C332.76 627.12, 309.76 628.64, 287.6 627 C265.43 625.37, 243.15 620.58, 222.12 614 C201.1 607.42, 180.69 598.13, 161.45 587.5 C142.2 576.87, 123.54 565.15, 106.65 550.23 C89.76 535.31, 73.38 516.16, 60.11 497.98 C46.84 479.81, 35.96 461.37, 27.02 441.18 C18.09 420.99, 11.15 399.19, 6.48 376.83 C1.8 354.47, -1.54 329.68, -1.03 307.03 C-0.52 284.38, 4.15 262.57, 9.55 240.94 C14.96 219.3, 21.83 197.7, 31.43 177.22 C41.02 156.73, 53.16 135.49, 67.1 118.02 C81.05 100.56, 97.93 86.36, 115.12 72.44 C132.3 58.52, 150.38 44.8, 170.22 34.5 C190.06 24.21, 223.21 13.63, 234.14 10.66 C245.07 7.7, 234.61 11.76, 235.81 16.69" fill="none" stroke="#343a40" stroke-width="2"></path></g><g stroke-linecap="round" transform="translate(402.2603738953154 200.8678921210252) rotate(0 65.94913579124659 61.686331430918244)"><path d="M11.06 26.84 C11.06 26.84, 11.06 26.84, 11.06 26.84 M11.06 26.84 C11.06 26.84, 11.06 26.84, 11.06 26.84 M2.01 49.45 C14.88 33.13, 30.35 17.68, 40.06 5.67 M2.01 49.45 C10.4 40.83, 17.75 30.89, 40.06 5.67 M1.49 62.24 C17.1 43.8, 34.67 25.33, 53.31 2.62 M1.49 62.24 C19.93 40.16, 40.72 17.57, 53.31 2.62 M3.59 72.02 C29.78 44.8, 53.09 17.01, 65.26 1.08 M3.59 72.02 C24.7 49.03, 43.6 27.25, 65.26 1.08 M5.69 81.8 C29.42 53.97, 51.88 27.72, 74.57 2.55 M5.69 81.8 C27.23 57.26, 48.64 32.87, 74.57 2.55 M9.76 89.31 C31.34 65.64, 51.07 37.61, 83.89 4.03 M9.76 89.31 C27.35 68.43, 45.94 46.38, 83.89 4.03 M14.48 96.07 C34.26 74.77, 55.72 49.44, 92.55 6.26 M14.48 96.07 C39.54 65.32, 66.09 35.93, 92.55 6.26 M19.21 102.82 C48.45 71.07, 77.47 35.74, 99.9 9.99 M19.21 102.82 C37.6 83.5, 52.56 64.08, 99.9 9.99 M24.59 108.83 C46.73 79.66, 69.47 53.74, 105.94 15.24 M24.59 108.83 C45.63 83.7, 69.03 58.11, 105.94 15.24 M31.94 112.57 C51.21 88.5, 74.89 63.08, 112.64 19.74 M31.94 112.57 C63.45 77.38, 95.57 40.41, 112.64 19.74 M39.29 116.31 C70.63 81.76, 96.54 51.61, 118.67 24.99 M39.29 116.31 C57.2 95.53, 74.46 75.83, 118.67 24.99 M46.64 120.04 C66.2 96.29, 87.15 74.05, 122.74 32.5 M46.64 120.04 C69.64 93.62, 90.7 69.64, 122.74 32.5 M55.3 122.27 C84.21 91.31, 110.12 60.47, 126.16 40.77 M55.3 122.27 C82.23 91.95, 110.07 59.59, 126.16 40.77 M65.93 122.24 C87.87 94.02, 115.63 66.34, 129.57 49.03 M65.93 122.24 C90.78 94.3, 115.33 65.21, 129.57 49.03 M77.22 121.45 C95.9 99.75, 112.63 82.58, 130.36 60.32 M77.22 121.45 C92.11 105.32, 105.24 89.28, 130.36 60.32 M91.78 116.89 C99.51 107.25, 107.83 97.68, 128.52 74.62 M91.78 116.89 C102.39 104.91, 113.48 92.22, 128.52 74.62" fill="none" stroke="#e03131" stroke-width="1"></path><path d="M65.34 0.59 C74.94 -0.44, 85.89 2.27, 94.9 6.33 C103.91 10.39, 113.43 17.22, 119.38 24.96 C125.32 32.69, 129.27 43.13, 130.57 52.75 C131.86 62.36, 130.46 73.63, 127.16 82.67 C123.86 91.7, 118.27 100.6, 110.77 106.94 C103.26 113.27, 91.99 118.12, 82.14 120.66 C72.3 123.21, 61.65 124.31, 51.68 122.21 C41.72 120.11, 30.06 114.44, 22.36 108.04 C14.66 101.64, 9.27 92.52, 5.49 83.82 C1.7 75.12, -1.3 65.34, -0.37 55.85 C0.56 46.35, 5.34 35.06, 11.06 26.84 C16.79 18.62, 24.08 11.09, 33.96 6.52 C43.85 1.95, 63.23 0.09, 70.37 -0.58 C77.5 -1.25, 76.65 1.26, 76.76 2.49 M95.02 4.94 C104.68 8.11, 113.59 16.89, 119.8 24.49 C126.02 32.09, 130.79 41.34, 132.28 50.55 C133.77 59.77, 132.35 70.56, 128.76 79.76 C125.17 88.97, 118.04 99.09, 110.73 105.81 C103.42 112.52, 94.7 117.27, 84.91 120.06 C75.12 122.85, 62.24 124.26, 51.98 122.54 C41.71 120.82, 30.98 115.61, 23.3 109.77 C15.63 103.93, 9.61 96.26, 5.93 87.48 C2.26 78.7, 0.8 66.66, 1.23 57.08 C1.66 47.5, 3.06 38.29, 8.49 29.99 C13.93 21.69, 24.87 12.32, 33.84 7.27 C42.82 2.23, 52.59 0.12, 62.35 -0.26 C72.1 -0.64, 87.33 3.58, 92.38 4.99 C97.43 6.4, 93.07 7.29, 92.65 8.19" fill="none" stroke="#1e1e1e" stroke-width="2"></path></g><g transform="translate(454.7924319731478 239.9354002906203) rotate(0 13.28399658203125 22.5)"><text direction="ltr" dominant-baseline="text-before-edge" fill="#1e1e1e" font-family="Virgil, Segoe UI Emoji" font-size="36px" style="white-space: pre;" text-anchor="middle" x="13.28399658203125" y="0">n1</text></g><g stroke-linecap="round" transform="translate(706.8619428046843 343.89563542094254) rotate(0 65.94913579124659 61.686331430918244)"><path d="M24.02 12.93 C24.02 12.93, 24.02 12.93, 24.02 12.93 M24.02 12.93 C24.02 12.93, 24.02 12.93, 24.02 12.93 M3.16 49.12 C11.12 38.09, 23.25 27.25, 39.9 6.86 M3.16 49.12 C15.47 34.32, 28.35 20.55, 39.9 6.86 M0.67 64.18 C17.96 47.64, 32.56 26.13, 55.12 1.54 M0.67 64.18 C19.51 42.2, 36.36 22.47, 55.12 1.54 M2.77 73.96 C23.08 48.87, 44.38 29.44, 65.75 1.51 M2.77 73.96 C21.28 53.16, 39.58 31.64, 65.75 1.51 M5.53 82.98 C27.15 58.52, 46 34.01, 76.38 1.47 M5.53 82.98 C26.65 59.64, 47.71 35.31, 76.38 1.47 M8.28 92 C36.5 60.67, 66.1 25.64, 86.36 2.19 M8.28 92 C34.4 62.05, 60.01 31.8, 86.36 2.19 M13.67 98.01 C43.05 65.55, 72.11 29.87, 93.05 6.69 M13.67 98.01 C37.09 71.09, 57.69 45.98, 93.05 6.69 M19.7 103.25 C48.67 67.19, 80.99 35.93, 100.4 10.42 M19.7 103.25 C45.82 74.7, 72.16 44.42, 100.4 10.42 M25.74 108.5 C44.86 88.64, 63.47 64.21, 107.09 14.92 M25.74 108.5 C51.58 78.41, 78.3 46.09, 107.09 14.92 M32.44 113 C59.01 83.25, 81.78 54.35, 113.13 20.17 M32.44 113 C62.58 77.77, 91.44 45.33, 113.13 20.17 M39.79 116.74 C54.59 97.41, 73.08 80.61, 117.86 26.93 M39.79 116.74 C55.56 98.43, 73.23 78.5, 117.86 26.93 M48.45 118.97 C70.41 92.53, 94.41 69.1, 122.58 33.68 M48.45 118.97 C66.7 97.98, 82.92 79.14, 122.58 33.68 M56.45 121.95 C77.01 101.28, 93.03 78.1, 126.65 41.2 M56.45 121.95 C82.13 93.25, 106.75 62.84, 126.65 41.2 M66.43 122.67 C84.85 102.46, 99.26 82.56, 129.41 50.22 M66.43 122.67 C88.92 96.84, 110.19 73.11, 129.41 50.22 M79.03 120.37 C88.63 107.99, 101.71 97.98, 130.85 60.75 M79.03 120.37 C95.44 100.81, 112.67 80.29, 130.85 60.75 M90.97 118.83 C103.23 103.28, 116.5 90.11, 131.64 72.04 M90.97 118.83 C104.54 103.37, 117.22 89.65, 131.64 72.04" fill="none" stroke="#1971c2" stroke-width="1"></path><path d="M84.78 1.71 C94.37 3.42, 104.28 10.27, 111.48 17.12 C118.68 23.97, 124.66 33.68, 127.96 42.82 C131.26 51.97, 132.99 62.7, 131.27 72.01 C129.55 81.31, 123.85 90.96, 117.65 98.65 C111.45 106.34, 103.36 114.11, 94.06 118.15 C84.77 122.19, 72.06 123.53, 61.9 122.86 C51.75 122.19, 41.94 118.83, 33.13 114.14 C24.32 109.45, 14.55 102.84, 9.04 94.71 C3.54 86.58, 0.75 75.15, 0.09 65.34 C-0.56 55.53, 1.09 44.62, 5.12 35.84 C9.15 27.06, 16.17 18.39, 24.24 12.67 C32.32 6.95, 42.27 2.74, 53.57 1.51 C64.86 0.29, 84.63 4.26, 92.02 5.31 C99.41 6.37, 98.51 6.83, 97.91 7.84 M49.65 1.49 C58.52 -2.02, 70.42 -1.74, 79.97 0.4 C89.52 2.54, 99.12 8.16, 106.96 14.33 C114.8 20.5, 123.13 28.53, 127.02 37.42 C130.91 46.31, 131.5 58.03, 130.32 67.67 C129.14 77.31, 125.2 87.08, 119.94 95.24 C114.67 103.4, 107.22 111.96, 98.72 116.63 C90.21 121.29, 79.43 122.99, 68.91 123.21 C58.38 123.44, 44.69 122.35, 35.56 117.97 C26.42 113.59, 19.97 104.84, 14.1 96.94 C8.22 89.04, 2.29 79.92, 0.31 70.55 C-1.66 61.18, -1.06 49.48, 2.27 40.72 C5.59 31.97, 12.78 24.61, 20.27 18.04 C27.76 11.47, 42.43 3.83, 47.18 1.31 C51.94 -1.21, 48.12 2, 48.78 2.93" fill="none" stroke="#343a40" stroke-width="2"></path></g><g transform="translate(751.4560049718722 382.96314359053764) rotate(0 21.221992492675724 22.5)"><text direction="ltr" dominant-baseline="text-before-edge" fill="#343a40" font-family="Virgil, Segoe UI Emoji" font-size="36px" style="white-space: pre;" text-anchor="middle" x="21.22199249267578" y="0">n2</text></g><g stroke-linecap="round" transform="translate(790.0931979400955 600.4098878036997) rotate(0 65.94913579124659 61.686331430918244)"><path d="M13.3 24.81 C13.3 24.81, 13.3 24.81, 13.3 24.81 M13.3 24.81 C13.3 24.81, 13.3 24.81, 13.3 24.81 M3.6 48.18 C16.44 34.49, 26.64 20.11, 40.33 5.91 M3.6 48.18 C11.55 39.47, 19.57 30.17, 40.33 5.91 M1.76 62.48 C23.02 40.67, 43.25 17.44, 53.59 2.86 M1.76 62.48 C14.12 48.71, 26.03 35.08, 53.59 2.86 M3.21 73.01 C15.97 57.62, 30.77 42.27, 66.84 -0.19 M3.21 73.01 C26 45.76, 49.74 19.77, 66.84 -0.19 M4.65 83.54 C26.31 58.19, 48.75 34.97, 75.51 2.04 M4.65 83.54 C32.72 50.97, 58.73 19.24, 75.51 2.04 M9.38 90.3 C36.3 59.78, 60.95 29.66, 84.17 4.26 M9.38 90.3 C32.01 66.46, 52.18 42.21, 84.17 4.26 M14.1 97.06 C38.88 67.04, 66.09 40.25, 92.83 6.49 M14.1 97.06 C31.82 78.1, 47.29 59.39, 92.83 6.49 M18.83 103.82 C37.38 80.04, 55.61 60.41, 100.18 10.23 M18.83 103.82 C47.29 68.89, 77.83 35.01, 100.18 10.23 M24.87 109.07 C57.6 74, 89.66 35.57, 106.87 14.73 M24.87 109.07 C57.92 72.6, 90.12 35.46, 106.87 14.73 M32.21 112.8 C54.6 89.98, 73.66 66.78, 112.91 19.98 M32.21 112.8 C47.87 92.91, 65.53 73.84, 112.91 19.98 M39.56 116.54 C59.54 92.36, 81.41 64.8, 118.95 25.22 M39.56 116.54 C65.6 86.33, 92.66 55.63, 118.95 25.22 M47.57 119.53 C66.8 94.6, 90.42 71.75, 123.02 32.74 M47.57 119.53 C67.45 96.66, 87.13 74.38, 123.02 32.74 M56.89 121 C83.92 93.1, 107.32 64.5, 126.43 41 M56.89 121 C79.36 96.38, 102.12 70.22, 126.43 41 M67.52 120.97 C85.56 100.43, 101.55 83.03, 129.19 50.03 M67.52 120.97 C80.27 105.26, 95.19 89.05, 129.19 50.03 M77.49 121.69 C93.22 103.62, 108.73 83.89, 130.63 60.56 M77.49 121.69 C95.78 100.8, 113.83 80.62, 130.63 60.56 M92.06 117.13 C101.11 107.98, 108.62 98.37, 129.45 74.11 M92.06 117.13 C100.6 106.97, 110.89 95.15, 129.45 74.11" fill="none" stroke="#f08c00" stroke-width="1"></path><path d="M35.4 6.6 C43.8 1.74, 57.05 -0.34, 67.31 -0.3 C77.56 -0.27, 87.93 2.13, 96.94 6.82 C105.95 11.51, 115.69 19.85, 121.35 27.84 C127.02 35.83, 129.81 45.42, 130.94 54.76 C132.06 64.09, 131.89 74.77, 128.1 83.84 C124.3 92.91, 116.08 102.93, 108.18 109.16 C100.28 115.39, 90.61 119.36, 80.7 121.23 C70.79 123.1, 58.7 122.83, 48.72 120.37 C38.75 117.91, 28.32 112.68, 20.86 106.47 C13.4 100.26, 7.25 91.87, 3.97 83.1 C0.68 74.32, -0.4 63.5, 1.13 53.82 C2.65 44.14, 6.69 33.04, 13.12 25.03 C19.55 17.01, 34.52 8.98, 39.72 5.72 C44.92 2.47, 43.77 4.56, 44.32 5.51 M48.24 1.92 C57.4 -1.18, 71.25 -1.34, 81.19 0.91 C91.14 3.16, 100.41 9.04, 107.89 15.42 C115.36 21.81, 122.02 30.18, 126.03 39.22 C130.04 48.27, 132.67 60.2, 131.94 69.67 C131.21 79.15, 127.69 88.22, 121.65 96.08 C115.62 103.95, 104.7 112.53, 95.75 116.87 C86.79 121.22, 77.98 122.23, 67.93 122.13 C57.89 122.03, 45.01 120.54, 35.47 116.26 C25.93 111.99, 16.59 104.01, 10.68 96.48 C4.78 88.95, 1.32 80.57, 0.02 71.06 C-1.27 61.56, -0.72 48.73, 2.91 39.46 C6.54 30.19, 13.88 21.9, 21.82 15.43 C29.76 8.96, 46.09 2.63, 50.57 0.63 C55.04 -1.36, 48.75 2.27, 48.67 3.45" fill="none" stroke="#343a40" stroke-width="2"></path></g><g transform="translate(835.24525876451 639.4773959732947) rotate(0 20.66399383544922 22.5)"><text direction="ltr" dominant-baseline="text-before-edge" fill="#343a40" font-family="Virgil, Segoe UI Emoji" font-size="36px" style="white-space: pre;" text-anchor="middle" x="20.66399383544922" y="0">n3</text></g><g stroke-linecap="round" transform="translate(682.8481449081621 882.8775140669317) rotate(0 65.94913579124659 61.686331430918244)"><path d="M10.19 28.74 C10.19 28.74, 10.19 28.74, 10.19 28.74 M10.19 28.74 C10.19 28.74, 10.19 28.74, 10.19 28.74 M3.11 49.08 C13.57 36.59, 26.28 21.95, 39.19 7.57 M3.11 49.08 C17.25 33.74, 28.88 19.05, 39.19 7.57 M2.59 61.87 C20.25 38.1, 42.31 17.51, 53.76 3.01 M2.59 61.87 C17.85 43.77, 36.02 24.17, 53.76 3.01 M4.03 72.4 C26.18 48.5, 46.58 23.06, 67.01 -0.05 M4.03 72.4 C19.43 53.25, 35.01 35.85, 67.01 -0.05 M5.48 82.94 C23.49 64.33, 39.16 45.95, 75.67 2.18 M5.48 82.94 C23.98 63.37, 40.25 43.94, 75.67 2.18 M9.55 90.45 C29.05 66.41, 48.23 47.19, 84.34 4.41 M9.55 90.45 C34.53 62.53, 57.73 33.78, 84.34 4.41 M14.27 97.21 C30.21 73.74, 49.34 55.86, 93 6.64 M14.27 97.21 C30.78 78.28, 49.7 58.36, 93 6.64 M19 103.96 C37.43 86.06, 52.38 63.33, 100.35 10.38 M19 103.96 C37.75 83.33, 54.18 63.52, 100.35 10.38 M24.38 109.97 C55.18 75.93, 81.24 43.26, 106.39 15.63 M24.38 109.97 C53.2 75.51, 82.29 43.21, 106.39 15.63 M32.38 112.95 C57.37 80.83, 87.98 48.78, 113.08 20.12 M32.38 112.95 C52.09 90.56, 73.3 65.93, 113.08 20.12 M39.73 116.69 C71.43 83.26, 100.48 47.51, 119.12 25.37 M39.73 116.69 C63.53 89.33, 89.15 59.75, 119.12 25.37 M47.74 119.68 C69.18 91.92, 94.5 66.27, 122.53 33.64 M47.74 119.68 C74.6 88.39, 100.06 59.84, 122.53 33.64 M57.06 121.15 C82.72 92.05, 105.15 62.83, 126.6 41.15 M57.06 121.15 C84.12 88.82, 111.2 58.57, 126.6 41.15 M67.69 121.12 C80.47 103.95, 97.42 85.83, 130.67 48.66 M67.69 121.12 C87.49 99.11, 108.65 75.38, 130.67 48.66 M78.32 121.08 C95.99 100.49, 111.63 82.12, 131.46 59.95 M78.32 121.08 C90.7 106.36, 104.35 91.1, 131.46 59.95 M94.2 115.01 C105.22 101.5, 119.88 86.13, 128.97 75.01 M94.2 115.01 C107.22 100.81, 120.98 85.21, 128.97 75.01" fill="none" stroke="#e03131" stroke-width="1"></path><path d="M64.24 -0.68 C73.96 -1.63, 87 2.65, 96.12 6.98 C105.24 11.31, 112.96 17.72, 118.96 25.32 C124.95 32.92, 130.72 42.92, 132.11 52.57 C133.5 62.22, 130.88 74.22, 127.28 83.21 C123.67 92.21, 117.97 100.37, 110.49 106.56 C103.01 112.74, 92.36 117.91, 82.4 120.33 C72.43 122.75, 60.57 122.96, 50.69 121.07 C40.82 119.18, 30.71 114.99, 23.13 108.99 C15.55 102.99, 8.88 94.16, 5.23 85.08 C1.58 76, 0.34 63.94, 1.22 54.49 C2.1 45.04, 5.07 36.06, 10.48 28.4 C15.9 20.74, 24.27 13.14, 33.72 8.55 C43.18 3.97, 61.39 2.09, 67.23 0.89 C73.07 -0.31, 68.93 0.63, 68.78 1.37 M64.06 0.32 C73.51 -0.55, 85.35 2.3, 94.73 6.8 C104.1 11.31, 114.06 19.56, 120.33 27.36 C126.61 35.15, 131.39 44.14, 132.4 53.57 C133.41 62.99, 129.88 75.12, 126.38 83.9 C122.89 92.68, 118.86 100.05, 111.44 106.25 C104.03 112.45, 92.23 118.66, 81.88 121.11 C71.54 123.56, 59.33 122.88, 49.37 120.95 C39.41 119.02, 29.79 115.85, 22.12 109.55 C14.45 103.25, 6.96 92.35, 3.36 83.14 C-0.25 73.93, -1 63.86, 0.51 54.3 C2.01 44.74, 6.87 33.57, 12.38 25.79 C17.9 18.01, 24.95 11.97, 33.59 7.63 C42.24 3.3, 59.17 0.87, 64.27 -0.23 C69.38 -1.33, 63.99 -0.13, 64.24 1.05" fill="none" stroke="#343a40" stroke-width="2"></path></g><g transform="translate(728.7382046949789 921.9450222365267) rotate(0 19.925994873046875 22.5)"><text direction="ltr" dominant-baseline="text-before-edge" fill="#343a40" font-family="Virgil, Segoe UI Emoji" font-size="36px" style="white-space: pre;" text-anchor="middle" x="19.925994873046875" y="0">n4</text></g><g stroke-linecap="round" transform="translate(415.7195096681853 999.4083759304414) rotate(0 65.94913579124659 61.686331430918244)"><path d="M16.9 19.99 C16.9 19.99, 16.9 19.99, 16.9 19.99 M16.9 19.99 C16.9 19.99, 16.9 19.99, 16.9 19.99 M3.25 47.88 C17.81 32.29, 31.27 19.49, 40.65 4.86 M3.25 47.88 C15.44 35.08, 26.82 21.24, 40.65 4.86 M2.73 60.67 C13.86 48.36, 24.93 33.25, 48.66 7.85 M2.73 60.67 C19.79 41.49, 37.08 21.78, 48.66 7.85 M2.21 73.47 C20.91 51.78, 42.02 27.88, 59.94 7.06 M2.21 73.47 C14.1 59.91, 26.97 46.02, 59.94 7.06 M6.28 80.98 C27.84 52.25, 50.87 28.69, 76.48 0.23 M6.28 80.98 C26.85 56.66, 47.42 33.23, 76.48 0.23 M10.35 88.5 C26.16 70.05, 41.36 54, 83.83 3.97 M10.35 88.5 C35.79 60.15, 62.4 29.51, 83.83 3.97 M14.42 96.01 C29.51 76.86, 45.49 56.71, 91.83 6.95 M14.42 96.01 C37.5 67.39, 63.11 39.49, 91.83 6.95 M17.83 104.28 C47.87 68.66, 80.29 34.59, 99.18 10.69 M17.83 104.28 C40.21 79.88, 60.65 55.89, 99.18 10.69 M24.52 108.77 C47.94 83.07, 70.43 57.69, 106.53 14.43 M24.52 108.77 C46.8 83.23, 68.69 57.48, 106.53 14.43 M31.87 112.51 C51.18 89.94, 71.52 64.3, 111.91 20.43 M31.87 112.51 C58.97 81.38, 84.7 51.72, 111.91 20.43 M38.57 117 C66.86 86.02, 94.36 52.39, 117.95 25.68 M38.57 117 C67.51 83.92, 97.97 48.73, 117.95 25.68 M45.92 120.74 C65.32 98.22, 85.34 77.89, 123.33 31.69 M45.92 120.74 C63.89 99.87, 81.57 80.33, 123.33 31.69 M54.58 122.97 C79.9 96.51, 102.65 70.38, 129.37 36.93 M54.58 122.97 C72.87 101.14, 92.56 78.74, 129.37 36.93 M63.9 124.45 C82.78 104.16, 100.46 81.62, 131.47 46.71 M63.9 124.45 C89.74 94.13, 115.26 63.89, 131.47 46.71 M74.53 124.41 C87.71 108.72, 102.45 90.91, 133.57 56.49 M74.53 124.41 C94.81 101.17, 114.78 78.34, 133.57 56.49 M89.75 119.09 C105.87 103, 118.49 84.92, 136.33 65.51 M89.75 119.09 C108.1 99.09, 124.11 77.55, 136.33 65.51" fill="none" stroke="#2f9e44" stroke-width="1"></path><path d="M43.06 3.21 C51.92 -0.89, 65.81 -1.51, 75.9 0 C85.99 1.5, 95.47 6.66, 103.62 12.23 C111.77 17.8, 120.18 25.16, 124.82 33.42 C129.45 41.68, 131.69 52.28, 131.41 61.8 C131.14 71.32, 128 81.94, 123.18 90.55 C118.35 99.16, 110.8 107.98, 102.48 113.48 C94.15 118.97, 83.28 122.77, 73.26 123.54 C63.24 124.31, 52.01 121.6, 42.35 118.12 C32.69 114.63, 22.16 109.58, 15.29 102.62 C8.41 95.66, 3.26 85.67, 1.11 76.35 C-1.05 67.04, -0.25 56.14, 2.37 46.75 C5 37.36, 9.54 27.53, 16.86 20.03 C24.18 12.53, 40.67 4.59, 46.29 1.76 C51.91 -1.07, 50.24 2.05, 50.59 3.03 M73.36 1.51 C83.52 1.54, 95.47 5.01, 103.65 10.27 C111.83 15.52, 117.51 24.85, 122.44 33.06 C127.37 41.27, 132.89 50.16, 133.21 59.52 C133.53 68.88, 129.44 80.59, 124.38 89.2 C119.32 97.8, 111.2 105.34, 102.86 111.16 C94.52 116.98, 84.42 122.87, 74.34 124.13 C64.26 125.4, 51.85 122.31, 42.35 118.75 C32.85 115.19, 23.87 109.9, 17.34 102.78 C10.82 95.66, 6.01 85.15, 3.2 76.04 C0.4 66.93, -1.44 57.27, 0.5 48.13 C2.44 39, 8.18 28.57, 14.85 21.24 C21.52 13.91, 30.77 7.53, 40.51 4.15 C50.25 0.78, 68.09 1.33, 73.3 0.98 C78.5 0.64, 72.06 1.03, 71.72 2.08" fill="none" stroke="#343a40" stroke-width="2"></path></g><g transform="translate(462.0055731781466 1038.4758841000364) rotate(0 19.529991149902344 22.5)"><text direction="ltr" dominant-baseline="text-before-edge" fill="#343a40" font-family="Virgil, Segoe UI Emoji" font-size="36px" style="white-space: pre;" text-anchor="middle" x="19.529991149902344" y="0">n5</text></g><g stroke-linecap="round" transform="translate(91.55455208701642 356.13698860902457) rotate(0 65.94913579124659 61.686331430918244)"><path d="M23.89 14.14 C23.89 14.14, 23.89 14.14, 23.89 14.14 M23.89 14.14 C23.89 14.14, 23.89 14.14, 23.89 14.14 M10.25 42.03 C18.53 30.87, 27.85 23.56, 41.08 6.56 M10.25 42.03 C19.3 31.47, 30.05 19.5, 41.08 6.56 M7.76 57.09 C24.23 42.13, 37.63 23.58, 53.68 4.26 M7.76 57.09 C24.3 38.18, 40.18 18.67, 53.68 4.26 M5.26 72.15 C24.31 47.64, 46.75 22.89, 64.31 4.23 M5.26 72.15 C26.79 47.63, 48.39 22.33, 64.31 4.23 M8.68 80.42 C22.68 63.3, 37.27 47.66, 74.94 4.19 M8.68 80.42 C25.21 60.45, 43.98 41.27, 74.94 4.19 M11.44 89.44 C31.76 64.6, 50.22 42.47, 86.23 3.4 M11.44 89.44 C36.89 58.61, 65.44 27.4, 86.23 3.4 M14.19 98.46 C39.26 73.49, 62.96 42.44, 92.92 7.9 M14.19 98.46 C39.07 69.99, 61.48 42.04, 92.92 7.9 M19.57 104.47 C42.57 75.74, 67.4 50.8, 100.27 11.64 M19.57 104.47 C47.02 71.47, 74.98 41.01, 100.27 11.64 M25.61 109.72 C46.4 83.67, 70.87 59.3, 107.62 15.38 M25.61 109.72 C48.42 84.09, 71.6 55.4, 107.62 15.38 M31.65 114.96 C62.07 83.16, 88.56 50.29, 114.97 19.12 M31.65 114.96 C49.93 94.39, 66.86 74.64, 114.97 19.12 M37.69 120.21 C68.53 88.55, 95 53.18, 119.7 25.87 M37.69 120.21 C65.98 87.46, 95.77 53.04, 119.7 25.87 M46.35 122.44 C65.13 97.95, 88.87 74.73, 123.76 33.39 M46.35 122.44 C66.68 97.13, 87.38 74.83, 123.76 33.39 M55.01 124.67 C73.13 101.39, 94.9 77.72, 127.83 40.9 M55.01 124.67 C76.83 100.14, 98.3 74.28, 127.83 40.9 M64.99 125.39 C88.75 102.45, 109.25 76.01, 129.28 51.43 M64.99 125.39 C85.77 100.71, 107.36 76.47, 129.28 51.43 M78.24 122.34 C95.61 103.25, 111.97 85.35, 130.07 62.72 M78.24 122.34 C91.54 107.95, 104.19 92.4, 130.07 62.72 M92.15 118.53 C107.73 103.91, 120.6 88.59, 132.17 72.49 M92.15 118.53 C106.77 102.64, 121.88 85.59, 132.17 72.49" fill="none" stroke="#2f9e44" stroke-width="1"></path><path d="M51.3 2.07 C60.43 -0.73, 73.64 -0.6, 83.53 1.68 C93.42 3.96, 103.28 9.24, 110.63 15.75 C117.98 22.26, 124.23 31.48, 127.65 40.74 C131.08 50, 132.52 61.66, 131.19 71.32 C129.85 80.98, 125.53 91.2, 119.62 98.69 C113.72 106.18, 105.11 112.02, 95.75 116.27 C86.4 120.52, 73.94 124.17, 63.49 124.19 C53.05 124.22, 41.86 121.09, 33.07 116.41 C24.28 111.73, 16.32 104.28, 10.77 96.11 C5.22 87.94, 0.85 77.2, -0.23 67.39 C-1.3 57.59, 0.35 46.11, 4.33 37.28 C8.31 28.46, 15.14 20.65, 23.66 14.41 C32.17 8.17, 49.34 2.16, 55.43 -0.15 C61.51 -2.45, 59.92 -0.61, 60.17 0.6 M89.53 5.47 C98.92 7.89, 111.04 13.67, 117.78 20.79 C124.52 27.91, 128.23 38.78, 129.96 48.19 C131.69 57.61, 130.9 67.79, 128.17 77.28 C125.44 86.77, 120.53 98.18, 113.59 105.13 C106.65 112.09, 96.08 116.15, 86.54 118.99 C77 121.84, 66.1 123.67, 56.36 122.2 C46.61 120.74, 36.56 115.69, 28.1 110.19 C19.63 104.69, 10.44 97.59, 5.58 89.2 C0.72 80.8, -1.34 69.44, -1.06 59.81 C-0.78 50.17, 2.03 39.58, 7.26 31.38 C12.5 23.19, 21.75 15.74, 30.33 10.64 C38.9 5.54, 48.75 1.65, 58.69 0.79 C68.64 -0.08, 84.59 4.49, 89.99 5.46 C95.4 6.44, 91.44 5.87, 91.12 6.62" fill="none" stroke="#343a40" stroke-width="2"></path></g><g transform="translate(135.1946118738332 395.20449677861967) rotate(0 22.175994873046875 22.5)"><text direction="ltr" dominant-baseline="text-before-edge" fill="#343a40" font-family="Virgil, Segoe UI Emoji" font-size="36px" style="white-space: pre;" text-anchor="middle" x="22.175994873046875" y="0">n8</text></g><g stroke-linecap="round" transform="translate(10 619.4717279683094) rotate(0 65.94913579124659 61.686331430918244)"><path d="M27.22 10.41 C27.22 10.41, 27.22 10.41, 27.22 10.41 M27.22 10.41 C27.22 10.41, 27.22 10.41, 27.22 10.41 M3.08 50.38 C13.19 40.68, 21.09 26.35, 42.44 5.1 M3.08 50.38 C17.79 33.76, 31.15 17.65, 42.44 5.1 M0.59 65.44 C24.51 39.99, 47.39 13.79, 57.67 -0.22 M0.59 65.44 C19.41 44.89, 37.1 22.87, 57.67 -0.22 M3.35 74.46 C22.05 54.58, 40.14 35.2, 66.99 1.25 M3.35 74.46 C23.46 49.53, 46.41 25.19, 66.99 1.25 M5.45 84.24 C22.31 63.04, 40.76 41.26, 76.96 1.97 M5.45 84.24 C23.69 62.41, 43.43 40.48, 76.96 1.97 M8.86 92.5 C26.15 76.05, 38.95 54.63, 86.93 2.69 M8.86 92.5 C27.21 70.38, 45.43 49.68, 86.93 2.69 M14.24 98.51 C45.64 62.84, 78.38 28.55, 94.28 6.43 M14.24 98.51 C35.62 74.94, 57.42 50.85, 94.28 6.43 M20.28 103.76 C41.1 79.28, 62.52 55.96, 100.98 10.93 M20.28 103.76 C39.16 82.04, 58.28 58.6, 100.98 10.93 M25.66 109.76 C46.56 85.67, 66.56 58.68, 107.67 15.42 M25.66 109.76 C58.94 72.58, 90.15 37.07, 107.67 15.42 M31.7 115.01 C60.59 79.28, 92.99 46.58, 114.36 19.91 M31.7 115.01 C55.18 88.45, 77.33 62.96, 114.36 19.91 M39.71 117.99 C72.48 83.87, 101.48 45.65, 119.09 26.67 M39.71 117.99 C70.68 82.79, 102.6 45.51, 119.09 26.67 M48.37 120.22 C70.39 94.74, 94.65 66.65, 123.16 34.19 M48.37 120.22 C63.63 102.87, 78.92 83.85, 123.16 34.19 M56.37 123.21 C75.19 102.27, 92.56 79.41, 127.23 41.7 M56.37 123.21 C82.1 94.43, 106.22 67.47, 127.23 41.7 M67 123.17 C92.32 92.93, 117.58 64.16, 129.99 50.72 M67 123.17 C83.75 104.31, 99.44 85.75, 129.99 50.72 M78.95 121.63 C92.69 105.84, 107.1 88.09, 130.78 62.01 M78.95 121.63 C99.64 97.93, 119.12 76.27, 130.78 62.01 M90.89 120.08 C106.48 101.24, 118.82 85.52, 130.91 74.05 M90.89 120.08 C106.3 102.33, 122.1 83.06, 130.91 74.05" fill="none" stroke="#f08c00" stroke-width="1"></path><path d="M87.62 2.6 C97 4.76, 106.8 11.84, 113.81 19.1 C120.82 26.36, 126.85 36.7, 129.68 46.14 C132.51 55.58, 132.91 66.63, 130.8 75.74 C128.7 84.85, 123.84 93.47, 117.05 100.81 C110.25 108.14, 99.75 115.89, 90.03 119.76 C80.32 123.63, 68.82 124.98, 58.77 124.03 C48.72 123.07, 38.26 119.45, 29.75 114.03 C21.23 108.61, 12.74 100.16, 7.68 91.5 C2.61 82.84, -0.52 71.62, -0.65 62.07 C-0.77 52.52, 2.34 42.74, 6.93 34.19 C11.53 25.64, 18.59 16.51, 26.92 10.77 C35.24 5.02, 46.32 0.73, 56.9 -0.29 C67.48 -1.3, 84.39 3.46, 90.39 4.69 C96.39 5.93, 93.32 6.37, 92.9 7.12 M84.13 2.17 C93.27 3.94, 103.14 9.69, 110.46 16.61 C117.77 23.53, 124.81 34.67, 128.04 43.71 C131.28 52.76, 131.43 61.77, 129.86 70.89 C128.29 80.01, 124.41 90.89, 118.61 98.44 C112.8 106, 104.49 112.02, 95.03 116.21 C85.56 120.41, 72.41 123.86, 61.85 123.62 C51.29 123.38, 40.48 119.64, 31.66 114.75 C22.85 109.85, 14.12 102.21, 8.94 94.25 C3.76 86.3, 1.34 76.45, 0.58 67.04 C-0.19 57.63, 0.51 46.53, 4.33 37.79 C8.15 29.05, 15.25 20.56, 23.47 14.6 C31.69 8.65, 43.56 4.14, 53.67 2.07 C63.79 -0.01, 78.9 1.92, 84.16 2.15 C89.42 2.38, 85.69 2.34, 85.21 3.46" fill="none" stroke="#343a40" stroke-width="2"></path></g><g transform="translate(57.72605832197303 658.5392361379045) rotate(0 18.089996337890625 22.5)"><text direction="ltr" dominant-baseline="text-before-edge" fill="#343a40" font-family="Virgil, Segoe UI Emoji" font-size="36px" style="white-space: pre;" text-anchor="middle" x="18.089996337890625" y="0">n7</text></g><g stroke-linecap="round" transform="translate(110.7300670345594 866.6859621716188) rotate(0 65.94913579124659 61.686331430918244)"><path d="M12.13 27.77 C12.13 27.77, 12.13 27.77, 12.13 27.77 M12.13 27.77 C12.13 27.77, 12.13 27.77, 12.13 27.77 M1.77 51.89 C18.72 34.95, 32.98 17.57, 40.48 7.36 M1.77 51.89 C15.38 37.43, 27.02 24, 40.48 7.36 M2.56 63.17 C20.29 42.48, 36.62 23.28, 53.73 4.31 M2.56 63.17 C18.49 44.93, 34.31 26.98, 53.73 4.31 M4 73.71 C22.64 53.58, 39.31 29.06, 67.64 0.5 M4 73.71 C19.03 55.83, 35.01 36.8, 67.64 0.5 M5.45 84.24 C23.34 65.03, 42.92 41.86, 76.3 2.73 M5.45 84.24 C28.1 56.31, 52.22 29.72, 76.3 2.73 M10.17 90.99 C37.44 61.4, 64.54 28.27, 85.62 4.2 M10.17 90.99 C27.43 72.93, 41.3 54.78, 85.62 4.2 M14.9 97.75 C36.67 69.04, 59.02 43.55, 94.94 5.68 M14.9 97.75 C35.59 73.04, 58.64 47.86, 94.94 5.68 M19.62 104.51 C39.22 80.05, 63.26 54.23, 101.63 10.17 M19.62 104.51 C51.65 68.74, 84.28 31.18, 101.63 10.17 M26.32 109 C58.39 73.65, 85.01 42.69, 107.67 15.42 M26.32 109 C44.65 87.74, 62.34 67.54, 107.67 15.42 M33.67 112.74 C54.09 87.97, 75.91 64.71, 113.05 21.42 M33.67 112.74 C57.62 85.2, 79.63 60.14, 113.05 21.42 M41.02 116.48 C72.68 82.42, 101.32 48.44, 119.09 26.67 M41.02 116.48 C70.68 83.01, 101.3 47.44, 119.09 26.67 M48.37 120.22 C74.24 87.44, 105.97 55.19, 122.5 34.94 M48.37 120.22 C77.36 87.6, 106.03 53.77, 122.5 34.94 M57.69 121.7 C81.41 94.39, 103.04 71.58, 125.92 43.21 M57.69 121.7 C76.53 100.89, 93.6 80.32, 125.92 43.21 M68.32 121.66 C81.64 105.62, 95.66 89.5, 129.33 51.47 M68.32 121.66 C86.04 101.63, 104.07 80.95, 129.33 51.47 M79.6 120.87 C100.31 98, 118.94 78.55, 130.77 62.01 M79.6 120.87 C93.51 105.52, 107.07 90.49, 130.77 62.01 M95.48 114.8 C104.36 106.71, 111.07 98.53, 129.6 75.56 M95.48 114.8 C108.3 101.33, 119.36 86.8, 129.6 75.56" fill="none" stroke="#1971c2" stroke-width="1"></path><path d="M34.93 7.68 C43.22 2.81, 55.66 0.77, 66.01 0.5 C76.37 0.22, 88.16 1.58, 97.07 6.02 C105.97 10.46, 113.81 19.01, 119.43 27.14 C125.06 35.27, 129.4 45.31, 130.82 54.8 C132.24 64.28, 131.49 75.24, 127.94 84.05 C124.39 92.85, 117.25 101.54, 109.52 107.64 C101.78 113.73, 91.33 118.27, 81.51 120.62 C71.69 122.98, 60.5 123.98, 50.59 121.75 C40.68 119.53, 29.72 113.72, 22.06 107.27 C14.41 100.83, 8.27 91.78, 4.66 83.06 C1.05 74.34, -0.83 64.2, 0.42 54.97 C1.68 45.74, 5.96 36.05, 12.2 27.7 C18.43 19.35, 32.86 8.4, 37.85 4.88 C42.84 1.36, 41.78 5.54, 42.12 6.59 M58.15 1.7 C67.72 -0.23, 79.22 0.13, 88.84 3.31 C98.46 6.48, 108.81 13.61, 115.87 20.77 C122.92 27.92, 129.06 36.81, 131.19 46.24 C133.32 55.68, 131.53 67.95, 128.63 77.38 C125.73 86.82, 120.61 95.84, 113.77 102.84 C106.92 109.84, 96.9 115.96, 87.56 119.4 C78.21 122.84, 67.81 124.61, 57.69 123.48 C47.58 122.35, 35.44 118.07, 26.87 112.59 C18.29 107.12, 10.63 99.08, 6.26 90.63 C1.89 82.18, 0.45 71.66, 0.66 61.91 C0.86 52.15, 2.58 40.69, 7.49 32.09 C12.39 23.5, 21.79 15.54, 30.09 10.33 C38.39 5.12, 52.47 2.1, 57.27 0.82 C62.06 -0.45, 58.44 1.66, 58.89 2.67" fill="none" stroke="#343a40" stroke-width="2"></path></g><g transform="translate(156.62012682137618 905.7534703412139) rotate(0 19.925994873046875 22.5)"><text direction="ltr" dominant-baseline="text-before-edge" fill="#343a40" font-family="Virgil, Segoe UI Emoji" font-size="36px" style="white-space: pre;" text-anchor="middle" x="19.925994873046875" y="0">n6</text></g><g transform="translate(451.2393270006214 369.98172935496075) rotate(0 12.383995056152344 22.5)"><text direction="ltr" dominant-baseline="text-before-edge" fill="#e03131" font-family="Virgil, Segoe UI Emoji" font-size="36px" style="white-space: pre;" text-anchor="start" x="0" y="0">0</text></g><g transform="translate(660.6137707030459 460.99182121080173) rotate(0 17.693992614746094 22.5)"><text direction="ltr" dominant-baseline="text-before-edge" fill="#1971c2" font-family="Virgil, Segoe UI Emoji" font-size="36px" style="white-space: pre;" text-anchor="start" x="0" y="0">12</text></g><g transform="translate(719.4120521798416 641.734726088724) rotate(0 23.939987182617188 22.5)"><text direction="ltr" dominant-baseline="text-before-edge" fill="#f08c00" font-family="Virgil, Segoe UI Emoji" font-size="36px" style="white-space: pre;" text-anchor="start" x="0" y="0">25</text></g><g transform="translate(648.0456025140113 825.4260706492063) rotate(0 21.941993713378906 22.5)"><text direction="ltr" dominant-baseline="text-before-edge" fill="#e03131" font-family="Virgil, Segoe UI Emoji" font-size="36px" style="white-space: pre;" text-anchor="start" x="0" y="0">37</text></g><g transform="translate(459.9990928320585 916.834805482515) rotate(0 23.50798797607422 22.5)"><text direction="ltr" dominant-baseline="text-before-edge" fill="#2f9e44" font-family="Virgil, Segoe UI Emoji" font-size="36px" style="white-space: pre;" text-anchor="start" x="0" y="0">50</text></g><g transform="translate(249.19631253988882 830.0512133801625) rotate(0 24.33599090576172 22.5)"><text direction="ltr" dominant-baseline="text-before-edge" fill="#1971c2" font-family="Virgil, Segoe UI Emoji" font-size="36px" style="white-space: pre;" text-anchor="start" x="0" y="0">62</text></g><g transform="translate(174.69670166921605 650.1905716558107) rotate(0 20.80799102783203 22.5)"><text direction="ltr" dominant-baseline="text-before-edge" fill="#f08c00" font-family="Virgil, Segoe UI Emoji" font-size="36px" style="white-space: pre;" text-anchor="start" x="0" y="0">75</text></g><g transform="translate(236.2729106541592 463.2653168696437) rotate(0 23.453994750976562 22.5)"><text direction="ltr" dominant-baseline="text-before-edge" fill="#2f9e44" font-family="Virgil, Segoe UI Emoji" font-size="36px" style="white-space: pre;" text-anchor="start" x="0" y="0">87</text></g><g transform="translate(572.0179897051421 397.34399670665164) rotate(0 11.519996643066406 22.5)"><text direction="ltr" dominant-baseline="text-before-edge" fill="#e03131" font-family="Virgil, Segoe UI Emoji" font-size="36px" style="white-space: pre;" text-anchor="start" x="0" y="0">6</text></g><g transform="translate(706.4945522051421 542.5822779566516) rotate(0 18.647994995117188 22.5)"><text direction="ltr" dominant-baseline="text-before-edge" fill="#1971c2" font-family="Virgil, Segoe UI Emoji" font-size="36px" style="white-space: pre;" text-anchor="start" x="0" y="0">18</text></g><g transform="translate(694.6368022661773 725.9064967066516) rotate(0 17.13599395751953 22.5)"><text direction="ltr" dominant-baseline="text-before-edge" fill="#f08c00" font-family="Virgil, Segoe UI Emoji" font-size="36px" style="white-space: pre;" text-anchor="start" x="0" y="0">31</text></g><g transform="translate(562.3909908037749 876.1807095156483) rotate(0 23.777992248535156 22.5)"><text direction="ltr" dominant-baseline="text-before-edge" fill="#e03131" font-family="Virgil, Segoe UI Emoji" font-size="36px" style="white-space: pre;" text-anchor="start" x="0" y="0">43</text></g><g transform="translate(348.6122737627593 886.1213404566516) rotate(0 22.64398956298828 22.5)"><text direction="ltr" dominant-baseline="text-before-edge" fill="#2f9e44" font-family="Virgil, Segoe UI Emoji" font-size="36px" style="white-space: pre;" text-anchor="start" x="0" y="0">56</text></g><g transform="translate(200.39080769830616 739.0471217066516) rotate(0 25.289993286132812 22.5)"><text direction="ltr" dominant-baseline="text-before-edge" fill="#1971c2" font-family="Virgil, Segoe UI Emoji" font-size="36px" style="white-space: pre;" text-anchor="start" x="0" y="0">68</text></g><g transform="translate(195.39080769830616 554.8205592066516) rotate(0 18.647994995117188 22.5)"><text direction="ltr" dominant-baseline="text-before-edge" fill="#f08c00" font-family="Virgil, Segoe UI Emoji" font-size="36px" style="white-space: pre;" text-anchor="start" x="0" y="0">81</text></g><g transform="translate(337.05477101617726 395.01587170665164) rotate(0 23.219993591308594 22.5)"><text direction="ltr" dominant-baseline="text-before-edge" fill="#2f9e44" font-family="Virgil, Segoe UI Emoji" font-size="36px" style="white-space: pre;" text-anchor="start" x="0" y="0">93</text></g><g stroke-linecap="round"><g transform="translate(677.2108991484318 263.54217026668414) rotate(0 302.57218647202393 -87.8783450546135)"><path d="M-0.38 1 C46.14 -28.24, 179.46 -174.01, 280.23 -176.18 C381 -178.35, 550.1 -39.4, 604.25 -12.04" fill="none" stroke="#1e1e1e" stroke-dasharray="8 10" stroke-width="2.5"></path></g><g transform="translate(677.2108991484318 263.54217026668414) rotate(0 302.57218647202393 -87.8783450546135)"><path d="M574.98 -18.6 C588.2 -14.05, 597.41 -14.8, 604.25 -12.04" fill="none" stroke="#1e1e1e" stroke-width="2.5"></path></g><g transform="translate(677.2108991484318 263.54217026668414) rotate(0 302.57218647202393 -87.8783450546135)"><path d="M586.05 -35.88 C594.79 -24.52, 599.62 -18.43, 604.25 -12.04" fill="none" stroke="#1e1e1e" stroke-width="2.5"></path></g></g><mask></mask><g transform="translate(805.6834595514624 10) rotate(0 161.49594116210938 22.5)"><text direction="ltr" dominant-baseline="text-before-edge" fill="#1e1e1e" font-family="Virgil, Segoe UI Emoji" font-size="36px" style="white-space: pre;" text-anchor="start" x="0" y="0">Removing Server 8</text></g><g stroke-linecap="round" transform="translate(1164.930015431361 329.16163460067537) rotate(0 311.15629960823435 313.5150513542821)"><path d="M164.71 36.06 C181.18 21.34, 205.95 17.35, 227.35 11.36 C248.75 5.37, 270.89 1.31, 293.11 0.13 C315.33 -1.04, 338.52 0.57, 360.65 4.31 C382.79 8.06, 405.28 14.54, 425.93 22.59 C446.58 30.65, 466.33 40.34, 484.56 52.63 C502.79 64.92, 519.99 80.08, 535.3 96.33 C550.62 112.57, 564.79 130.78, 576.43 150.08 C588.07 169.38, 597.89 190.66, 605.14 212.14 C612.38 233.61, 617.45 256.54, 619.91 278.91 C622.37 301.27, 622.01 324.11, 619.87 346.33 C617.74 368.55, 614.09 391, 607.09 412.21 C600.09 433.43, 589.56 454.13, 577.88 473.64 C566.2 493.15, 552.16 512.76, 537.01 529.29 C521.85 545.82, 505.11 560.17, 486.96 572.82 C468.81 585.47, 448.96 596.99, 428.11 605.19 C407.27 613.39, 384.09 618.57, 361.91 621.99 C339.72 625.41, 317.25 626.88, 294.99 625.72 C272.73 624.56, 249.95 620.82, 228.37 615.03 C206.8 609.24, 185.33 601.45, 165.54 590.99 C145.75 580.52, 126.63 566.87, 109.62 552.24 C92.61 537.62, 76.93 521.05, 63.49 503.21 C50.04 485.37, 38.38 465.31, 28.96 445.19 C19.54 425.06, 11.67 404.09, 6.96 382.48 C2.26 360.86, 0.55 338.1, 0.73 315.48 C0.91 292.86, 3.41 268.99, 8.03 246.77 C12.65 224.55, 19.18 202.49, 28.47 182.17 C37.75 161.84, 50.31 142.47, 63.73 124.81 C77.14 107.15, 89.96 92.03, 108.95 76.23 C127.94 60.42, 163.9 37.73, 177.69 30 C191.48 22.27, 189.45 24.89, 191.69 29.86 M399.65 12.33 C421.64 13.37, 444.07 27.72, 463.4 38.62 C482.74 49.52, 499.06 62.89, 515.67 77.72 C532.29 92.56, 549.75 109.15, 563.08 127.63 C576.41 146.12, 586.88 167.93, 595.67 188.63 C604.47 209.33, 611.67 230.07, 615.86 251.83 C620.04 273.58, 621.22 296.8, 620.78 319.18 C620.34 341.56, 618.37 364.38, 613.23 386.09 C608.09 407.8, 599.58 429.1, 589.95 449.46 C580.32 469.82, 569.23 490.4, 555.46 508.26 C541.7 526.11, 524.43 542.42, 507.35 556.58 C490.27 570.73, 472.75 583.02, 452.99 593.19 C433.23 603.36, 410.47 611.88, 388.79 617.59 C367.11 623.3, 345.3 626.94, 322.91 627.45 C300.51 627.97, 276.56 624.95, 254.41 620.66 C232.25 616.36, 210.36 610.37, 189.97 601.69 C169.58 593.02, 150.29 581.32, 132.06 568.59 C113.84 555.86, 95.59 541.98, 80.63 525.3 C65.67 508.63, 53.38 487.91, 42.29 468.54 C31.19 449.17, 20.84 430.41, 14.05 409.1 C7.26 387.79, 3.42 363.34, 1.56 340.68 C-0.31 318.02, 0.17 295.37, 2.86 273.15 C5.56 250.92, 10.46 228.31, 17.72 207.33 C24.98 186.35, 34.35 166.32, 46.42 147.27 C58.49 128.23, 74.4 109.26, 90.14 93.04 C105.87 76.83, 122.08 61.9, 140.84 49.99 C159.61 38.08, 181.68 29.29, 202.72 21.56 C223.77 13.84, 245.24 7, 267.1 3.64 C288.97 0.28, 311.99 0.06, 333.92 1.39 C355.85 2.72, 387.98 8.62, 398.69 11.64 C409.41 14.66, 399.55 14.12, 398.2 19.51" fill="none" stroke="#343a40" stroke-width="2"></path></g><g stroke-linecap="round" transform="translate(1410.9087053650337 179.5869342706842) rotate(0 65.94913579124659 61.686331430918244)"><path d="M23.36 13.68 C23.36 13.68, 23.36 13.68, 23.36 13.68 M23.36 13.68 C23.36 13.68, 23.36 13.68, 23.36 13.68 M9.71 41.57 C15.56 34.05, 25.08 25.78, 39.89 6.85 M9.71 41.57 C19.38 30.28, 27.51 19.54, 39.89 6.85 M6.56 57.38 C17.16 45.23, 30.46 29.3, 53.14 3.8 M6.56 57.38 C18.39 42.83, 31.32 27.58, 53.14 3.8 M4.73 71.69 C22.38 52.23, 36.63 33.48, 63.77 3.76 M4.73 71.69 C26.7 45.79, 49.14 19.14, 63.77 3.76 M8.14 79.95 C20.79 65.39, 34.69 48.9, 74.41 3.73 M8.14 79.95 C30.42 54.82, 52.53 28.74, 74.41 3.73 M10.9 88.98 C38.23 55.93, 68.39 24.91, 85.69 2.94 M10.9 88.98 C33.14 63.54, 55.11 36.8, 85.69 2.94 M13.66 98 C42.8 62.53, 74.54 30.77, 93.04 6.68 M13.66 98 C40.89 67.6, 67.51 36.73, 93.04 6.68 M19.7 103.25 C44.08 74.35, 69.17 45.98, 99.73 11.17 M19.7 103.25 C47.57 70.29, 78.84 34.91, 99.73 11.17 M25.73 108.5 C43.72 90.55, 61.17 70.47, 107.08 14.91 M25.73 108.5 C44.11 87.01, 61.85 68.71, 107.08 14.91 M31.77 113.74 C61.54 79.99, 90.81 45.08, 113.78 19.41 M31.77 113.74 C62.27 80.74, 92.3 45.62, 113.78 19.41 M37.81 118.99 C56.28 96.41, 76.39 77.01, 118.5 26.16 M37.81 118.99 C55.66 99.23, 72.97 78.47, 118.5 26.16 M46.47 121.22 C66.91 99.4, 88.22 75.18, 123.23 32.92 M46.47 121.22 C66.87 99.14, 87.13 74.9, 123.23 32.92 M55.13 123.45 C79.63 93.81, 106.86 63.68, 127.95 39.68 M55.13 123.45 C73.78 102.2, 94.04 79.55, 127.95 39.68 M65.11 124.17 C84.47 101.03, 104.34 76.41, 133.34 45.68 M65.11 124.17 C87.23 99.42, 107.23 74.44, 133.34 45.68 M77.7 121.87 C89.34 107.67, 102.69 94.91, 134.13 56.97 M77.7 121.87 C100.85 96.69, 122 71.23, 134.13 56.97 M90.96 118.82 C105.21 101.83, 122.1 81.74, 131.63 72.03 M90.96 118.82 C106.38 100.1, 121.37 83.05, 131.63 72.03" fill="none" stroke="#e03131" stroke-width="1"></path><path d="M84.29 1.93 C93.84 3.61, 103.77 9.78, 111.15 16.47 C118.54 23.15, 125.15 32.82, 128.58 42.05 C132.02 51.27, 133.4 62.57, 131.76 71.83 C130.11 81.09, 125.03 90.15, 118.69 97.58 C112.35 105.02, 102.98 112.27, 93.71 116.43 C84.44 120.58, 73.19 122.71, 63.05 122.49 C52.92 122.28, 41.74 119.64, 32.9 115.14 C24.07 110.63, 15.6 103.47, 10.04 95.47 C4.47 87.48, 0.23 76.81, -0.48 67.17 C-1.18 57.53, 1.82 46.53, 5.79 37.61 C9.76 28.7, 15.76 19.55, 23.37 13.67 C30.97 7.78, 40.88 4.02, 51.43 2.33 C61.98 0.63, 80.38 2.89, 86.69 3.48 C93.01 4.08, 89.82 5.11, 89.32 5.89 M50.72 0.12 C60.22 -2.77, 73.69 -1.78, 83.52 0.83 C93.34 3.43, 102.46 9.06, 109.68 15.77 C116.91 22.48, 123.55 32.05, 126.88 41.1 C130.22 50.15, 130.86 60.37, 129.69 70.07 C128.51 79.77, 125.42 91.19, 119.83 99.27 C114.24 107.36, 105.57 114.55, 96.16 118.6 C86.76 122.66, 73.98 123.89, 63.38 123.6 C52.77 123.31, 41.3 121.58, 32.54 116.87 C23.78 112.17, 15.96 103.45, 10.81 95.35 C5.67 87.25, 2.8 77.99, 1.68 68.28 C0.56 58.57, 0.58 45.92, 4.08 37.1 C7.57 28.29, 14.44 21.2, 22.66 15.39 C30.88 9.58, 48.49 4.35, 53.4 2.26 C58.31 0.17, 52.19 2.14, 52.11 2.88" fill="none" stroke="#1e1e1e" stroke-width="2"></path></g><g transform="translate(1463.4407634428662 218.6544424402793) rotate(0 13.28399658203125 22.5)"><text direction="ltr" dominant-baseline="text-before-edge" fill="#1e1e1e" font-family="Virgil, Segoe UI Emoji" font-size="36px" style="white-space: pre;" text-anchor="middle" x="13.28399658203125" y="0">n1</text></g><g stroke-linecap="round" transform="translate(1753.7537708680698 352.5420248646784) rotate(0 65.94913579124659 61.686331430918244)"><path d="M5.96 36.98 C5.96 36.98, 5.96 36.98, 5.96 36.98 M5.96 36.98 C5.96 36.98, 5.96 36.98, 5.96 36.98 M2.16 53.55 C11.43 43.36, 21.76 32.8, 31.68 19.59 M2.16 53.55 C9.71 44.96, 17.38 35.31, 31.68 19.59 M0.32 67.86 C18.6 47.98, 38.67 23.38, 56.74 2.95 M0.32 67.86 C18.47 46.29, 37.28 26.68, 56.74 2.95 M3.74 76.12 C22.23 59.28, 37.78 38.79, 66.72 3.67 M3.74 76.12 C21.26 55.05, 41.26 33.13, 66.72 3.67 M7.15 84.39 C32.69 57.92, 55.14 29.31, 76.69 4.39 M7.15 84.39 C27.07 61.53, 45.98 38.64, 76.69 4.39 M9.91 93.41 C30.84 69.69, 52.56 44.8, 87.32 4.36 M9.91 93.41 C39.69 60.46, 68.24 27.2, 87.32 4.36 M15.95 98.66 C37.33 74.73, 55.71 50.85, 94.67 8.1 M15.95 98.66 C38.39 72.1, 61.58 46.1, 94.67 8.1 M21.33 104.67 C45.58 80.24, 66.29 50.34, 102.02 11.84 M21.33 104.67 C49.75 70.76, 79.88 36.52, 102.02 11.84 M27.36 109.91 C53.41 75.95, 84.55 45.01, 108.72 16.33 M27.36 109.91 C44.29 88.81, 60.35 70.13, 108.72 16.33 M33.4 115.16 C57.58 89.26, 77.47 63.99, 116.07 20.07 M33.4 115.16 C64.31 77.82, 96.67 41.18, 116.07 20.07 M42.06 117.39 C60.5 94.98, 80.81 71.37, 120.14 27.58 M42.06 117.39 C69.77 85.54, 97.63 53.56, 120.14 27.58 M50.07 120.38 C75.46 87.48, 102.67 57.38, 124.86 34.34 M50.07 120.38 C79.18 88.82, 105.89 54.83, 124.86 34.34 M58.73 122.61 C81.79 96.88, 104.13 68.2, 128.27 42.61 M58.73 122.61 C84.94 92.4, 110.41 61.07, 128.27 42.61 M65.43 127.1 C84.32 106.67, 102.56 87.02, 129.06 53.89 M65.43 127.1 C84.68 105.76, 105.97 82.44, 129.06 53.89 M78.02 124.8 C95.17 104.63, 110.8 89.12, 129.85 65.18 M78.02 124.8 C98.44 102.23, 117.62 79.38, 129.85 65.18 M93.9 118.73 C108.26 104.5, 121.51 89.61, 132.61 74.2 M93.9 118.73 C103.04 109.13, 110.21 98.18, 132.61 74.2" fill="none" stroke="#1971c2" stroke-width="1"></path><path d="M54.21 1.39 C63.7 -0.97, 76.43 0.86, 86.1 3.5 C95.77 6.14, 105.25 10.74, 112.21 17.23 C119.18 23.73, 124.92 33.36, 127.89 42.46 C130.87 51.57, 131.82 62.37, 130.07 71.86 C128.32 81.36, 123.63 91.7, 117.4 99.44 C111.16 107.17, 102 114.32, 92.65 118.3 C83.31 122.27, 71.34 123.98, 61.34 123.29 C51.33 122.6, 41.34 119.2, 32.64 114.18 C23.93 109.15, 14.65 101.08, 9.1 93.13 C3.55 85.18, -0.17 75.86, -0.68 66.49 C-1.19 57.12, 1.6 45.64, 6.04 36.89 C10.48 28.15, 17.21 20.25, 25.95 14.03 C34.69 7.81, 52.13 1.88, 58.47 -0.4 C64.81 -2.68, 63.87 -0.66, 64 0.34 M37.44 4.5 C45.67 0.11, 58.33 -0.88, 68.52 -0.28 C78.7 0.31, 89.47 2.87, 98.57 8.05 C107.66 13.24, 117.34 22.27, 123.08 30.84 C128.83 39.4, 132.66 50.02, 133.05 59.42 C133.44 68.82, 130.02 78.52, 125.44 87.23 C120.86 95.93, 113.46 105.77, 105.57 111.65 C97.67 117.52, 87.71 120.82, 78.07 122.47 C68.44 124.11, 57.71 124.56, 47.77 121.53 C37.83 118.5, 26.06 111.02, 18.43 104.28 C10.8 97.54, 4.66 89.91, 1.99 81.11 C-0.67 72.31, 0.48 61, 2.45 51.47 C4.42 41.94, 7.83 31.75, 13.81 23.95 C19.8 16.15, 33.9 7.71, 38.37 4.69 C42.84 1.66, 40.36 4.87, 40.65 5.81" fill="none" stroke="#343a40" stroke-width="2"></path></g><g transform="translate(1798.3478330352577 391.6095330342735) rotate(0 21.22199249267578 22.5)"><text direction="ltr" dominant-baseline="text-before-edge" fill="#343a40" font-family="Virgil, Segoe UI Emoji" font-size="36px" style="white-space: pre;" text-anchor="middle" x="21.22199249267578" y="0">n2</text></g><g stroke-linecap="round" transform="translate(1791.7741531662282 746.2843016025834) rotate(0 65.94913579124659 61.686331430918244)"><path d="M18.54 17.44 C18.54 17.44, 18.54 17.44, 18.54 17.44 M18.54 17.44 C18.54 17.44, 18.54 17.44, 18.54 17.44 M4.24 46.09 C14.95 30.91, 26.66 18.06, 39.67 5.33 M4.24 46.09 C16.54 33.35, 26.83 19.19, 39.67 5.33 M3.06 59.64 C22.31 37.46, 40.07 15.83, 52.92 2.28 M3.06 59.64 C13.33 46.5, 24.05 35.27, 52.92 2.28 M1.88 73.19 C26.43 45.23, 49.34 14.06, 64.21 1.49 M1.88 73.19 C20.32 52.45, 37.89 32.21, 64.21 1.49 M5.3 81.46 C33.51 50.37, 60.23 18.23, 75.5 0.7 M5.3 81.46 C21.83 62.9, 39.34 43.48, 75.5 0.7 M8.71 89.72 C35.84 58.89, 60.14 31.3, 84.16 2.93 M8.71 89.72 C29.72 65.4, 52.88 40.06, 84.16 2.93 M12.12 97.99 C40.92 65.76, 69.43 32.76, 91.51 6.67 M12.12 97.99 C32.36 74.23, 53.14 50.83, 91.51 6.67 M17.51 103.99 C51.16 69.76, 80.23 29.75, 99.51 9.66 M17.51 103.99 C44.88 74.29, 70.72 42.7, 99.51 9.66 M24.2 108.49 C42.4 85.75, 66.64 62.07, 106.86 13.39 M24.2 108.49 C41.79 88.35, 58.64 68.86, 106.86 13.39 M30.89 112.98 C56.11 87.21, 77.67 59.1, 112.25 19.4 M30.89 112.98 C51.12 89.85, 72.85 65.4, 112.25 19.4 M37.59 117.48 C68 83.26, 96.86 50.31, 116.97 26.16 M37.59 117.48 C65.91 86.45, 92.93 53.46, 116.97 26.16 M46.91 118.95 C64.49 100.64, 77.93 84.29, 122.35 32.16 M46.91 118.95 C75.15 87.62, 102.73 56.75, 122.35 32.16 M56.22 120.43 C84.05 91.69, 109.52 61.62, 126.42 39.67 M56.22 120.43 C82.57 90.47, 107.75 61.58, 126.42 39.67 M65.54 121.9 C84.59 97.95, 103.1 75.92, 128.52 49.45 M65.54 121.9 C90.1 93.69, 115.79 64.84, 128.52 49.45 M76.17 121.87 C88.81 107.16, 100.46 96.21, 130.62 59.22 M76.17 121.87 C93.06 103.1, 108.63 84.07, 130.62 59.22 M90.74 117.3 C101.12 102.87, 114.53 89.91, 129.45 72.78 M90.74 117.3 C104.2 103.85, 115.78 89.37, 129.45 72.78 M118.43 97.65 C120.02 97.01, 120.08 95.23, 123.02 92.36 M118.43 97.65 C119.4 96.34, 121.01 95.28, 123.02 92.36" fill="none" stroke="#f08c00" stroke-width="1"></path><path d="M77.52 0.24 C86.97 0.73, 97.65 6.46, 105.61 12.34 C113.58 18.21, 121.04 26.69, 125.31 35.5 C129.58 44.31, 131.81 55.42, 131.25 65.17 C130.69 74.92, 127.26 85.76, 121.94 93.98 C116.63 102.2, 107.9 109.67, 99.35 114.49 C90.81 119.31, 80.83 122.43, 70.67 122.91 C60.52 123.39, 48.01 121.09, 38.44 117.39 C28.87 113.7, 19.42 108.08, 13.24 100.73 C7.06 93.37, 2.94 82.69, 1.36 73.27 C-0.23 63.84, 0.86 53.52, 3.74 44.2 C6.61 34.88, 11.59 24.41, 18.62 17.36 C25.64 10.31, 35.08 4.53, 45.88 1.89 C56.68 -0.76, 76.29 0.91, 83.44 1.5 C90.59 2.08, 89.14 4.42, 88.78 5.39 M43.96 2.24 C53.23 -1.21, 67.09 -0.03, 77.63 1.95 C88.16 3.92, 99.25 8.43, 107.15 14.08 C115.05 19.73, 121.11 27.18, 125.04 35.82 C128.97 44.47, 131.08 56.43, 130.75 65.95 C130.42 75.48, 127.82 84.79, 123.07 92.95 C118.32 101.12, 111.12 110.09, 102.27 114.95 C93.42 119.82, 80.55 121.42, 69.96 122.15 C59.37 122.88, 47.73 122.81, 38.74 119.34 C29.74 115.86, 22.27 108.85, 15.99 101.29 C9.71 93.72, 3.35 83.6, 1.06 73.95 C-1.24 64.31, -0.91 52.75, 2.23 43.42 C5.37 34.08, 12.95 24.79, 19.92 17.93 C26.88 11.08, 39.58 4.73, 44.01 2.29 C48.44 -0.16, 45.97 1.95, 46.5 3.27" fill="none" stroke="#343a40" stroke-width="2"></path></g><g transform="translate(1836.9262139906427 785.3518097721784) rotate(0 20.66399383544922 22.5)"><text direction="ltr" dominant-baseline="text-before-edge" fill="#343a40" font-family="Virgil, Segoe UI Emoji" font-size="36px" style="white-space: pre;" text-anchor="middle" x="20.66399383544922" y="0">n3</text></g><g stroke-linecap="round" transform="translate(1573.5674676354986 973.2055997822683) rotate(0 65.94913579124659 61.686331430918244)"><path d="M14.61 21.97 C14.61 21.97, 14.61 21.97, 14.61 21.97 M14.61 21.97 C14.61 21.97, 14.61 21.97, 14.61 21.97 M1.62 49.11 C10.96 38.07, 18.26 30.26, 40.98 3.83 M1.62 49.11 C16.68 33.51, 29.22 17.61, 40.98 3.83 M1.75 61.15 C13.93 46.29, 30.19 29.21, 52.93 2.28 M1.75 61.15 C16.11 45.94, 28.51 30.59, 52.93 2.28 M2.54 72.44 C23.77 49.72, 43.83 26.4, 64.21 1.49 M2.54 72.44 C20.63 51.73, 37.66 32.63, 64.21 1.49 M5.3 81.46 C31.15 50.26, 57.37 19.43, 74.84 1.46 M5.3 81.46 C27.46 56.36, 49.24 31.31, 74.84 1.46 M9.37 88.97 C28.35 67.79, 46.82 43.95, 82.85 4.44 M9.37 88.97 C35.29 57.6, 61.66 28.33, 82.85 4.44 M13.44 96.48 C38.72 67.48, 65.1 36.11, 90.85 7.43 M13.44 96.48 C38.4 68.09, 60.48 41.8, 90.85 7.43 M18.16 103.24 C49.88 66.89, 81.38 34.18, 98.86 10.41 M18.16 103.24 C47.62 69.67, 78.72 33.49, 98.86 10.41 M24.86 107.74 C51.18 73.38, 81.69 40.21, 105.55 14.91 M24.86 107.74 C49.47 78.85, 73.91 52.97, 105.55 14.91 M31.55 112.23 C56.94 81.88, 83.52 50.74, 111.59 20.15 M31.55 112.23 C56.21 83.74, 80.68 56.43, 111.59 20.15 M38.25 116.72 C58.83 93.39, 78.78 71.77, 116.97 26.16 M38.25 116.72 C68.18 81.19, 99.56 46.67, 116.97 26.16 M44.94 121.22 C68.17 94.13, 86.76 71.52, 123.01 31.41 M44.94 121.22 C62.69 100.39, 79.34 81.5, 123.01 31.41 M54.91 121.94 C78.79 93.46, 100.02 68.49, 125.77 40.43 M54.91 121.94 C72.8 102.1, 90.75 82.09, 125.77 40.43 M64.89 122.66 C81.07 108.85, 93.41 91, 129.18 48.7 M64.89 122.66 C88.2 94.62, 114.12 66.23, 129.18 48.7 M74.86 123.38 C88.84 107.63, 101.99 90.88, 131.94 57.72 M74.86 123.38 C94.97 101.61, 114.32 77.74, 131.94 57.72 M89.43 118.81 C101.77 103.19, 111.49 92.95, 130.1 72.02 M89.43 118.81 C101.81 104.33, 114.94 89.64, 130.1 72.02" fill="none" stroke="#e03131" stroke-width="1"></path><path d="M40.58 3.6 C49.3 -0.53, 61.86 -1.07, 72.07 0.1 C82.29 1.27, 93.39 5.32, 101.88 10.64 C110.36 15.95, 117.87 23.72, 122.99 31.97 C128.11 40.22, 132.36 50.66, 132.6 60.12 C132.85 69.58, 129.3 79.95, 124.47 88.72 C119.65 97.49, 111.84 106.98, 103.67 112.73 C95.5 118.48, 85.31 121.89, 75.46 123.2 C65.61 124.52, 54.32 124.03, 44.54 120.63 C34.76 117.22, 23.9 110.09, 16.78 102.77 C9.66 95.45, 4.44 85.97, 1.81 76.72 C-0.81 67.46, -1.17 56.41, 1.01 47.24 C3.19 38.06, 7.34 29.26, 14.89 21.66 C22.43 14.05, 39.94 4.97, 46.27 1.6 C52.6 -1.77, 52.44 0.47, 52.87 1.44 M49.31 3.81 C58.16 0.33, 69.32 -0.38, 78.93 1.59 C88.53 3.55, 98.92 9.53, 106.93 15.6 C114.94 21.67, 122.65 29.27, 127 38.01 C131.35 46.74, 134.13 58.69, 133.05 68.01 C131.97 77.34, 126.45 85.91, 120.53 93.97 C114.61 102.02, 106.03 111.32, 97.53 116.36 C89.02 121.4, 79.6 124.02, 69.52 124.21 C59.45 124.4, 46.58 121.94, 37.07 117.52 C27.56 113.09, 18.31 105.5, 12.47 97.64 C6.64 89.79, 3.77 79.84, 2.04 70.4 C0.32 60.95, -1.09 50.05, 2.11 40.98 C5.31 31.9, 13.65 22.17, 21.25 15.94 C28.85 9.71, 43.25 5.7, 47.71 3.6 C52.16 1.5, 47.88 2.62, 47.99 3.33" fill="none" stroke="#343a40" stroke-width="2"></path></g><g transform="translate(1619.4575274223155 1012.2731079518634) rotate(0 19.925994873046875 22.5)"><text direction="ltr" dominant-baseline="text-before-edge" fill="#343a40" font-family="Virgil, Segoe UI Emoji" font-size="36px" style="white-space: pre;" text-anchor="middle" x="19.925994873046875" y="0">n4</text></g><g stroke-linecap="round" transform="translate(1158.7597436749945 914.2341115985405) rotate(0 65.94913579124659 61.686331430918244)"><path d="M13.64 22.45 C13.64 22.45, 13.64 22.45, 13.64 22.45 M13.64 22.45 C13.64 22.45, 13.64 22.45, 13.64 22.45 M0.65 49.59 C10.73 37.31, 18.07 30.58, 38.7 5.82 M0.65 49.59 C12.76 35.09, 25.05 20.55, 38.7 5.82 M1.44 60.88 C16.93 40.95, 36.03 24.7, 51.3 3.52 M1.44 60.88 C17.9 41.22, 32.84 23.37, 51.3 3.52 M1.57 72.92 C21.86 49.18, 43.4 27.56, 63.9 1.22 M1.57 72.92 C15.65 56.29, 29.52 40.44, 63.9 1.22 M3.67 82.69 C25.04 60.39, 45.1 36.84, 73.87 1.94 M3.67 82.69 C26.56 55.13, 51.13 28.27, 73.87 1.94 M8.4 89.45 C36.89 60.51, 63.59 28.59, 82.53 4.17 M8.4 89.45 C23.25 72.22, 38.05 54.4, 82.53 4.17 M13.12 96.21 C40.99 64.17, 69.73 34.8, 91.19 6.4 M13.12 96.21 C34.88 71.82, 53.32 49.46, 91.19 6.4 M17.85 102.97 C36.47 82.78, 50.93 60.92, 99.86 8.63 M17.85 102.97 C46.83 71.59, 75.54 36.71, 99.86 8.63 M24.54 107.46 C46.52 80.53, 69.86 56.73, 105.89 13.88 M24.54 107.46 C42.4 86.53, 59.24 65.31, 105.89 13.88 M31.24 111.95 C54.9 87.37, 76.23 60.56, 111.93 19.13 M31.24 111.95 C49.72 90, 69 67.74, 111.93 19.13 M38.59 115.69 C62.16 90.04, 81.57 62.71, 117.31 25.13 M38.59 115.69 C60.27 89.92, 82.7 66.2, 117.31 25.13 M45.94 119.43 C61.98 101.38, 79.52 82.1, 122.69 31.13 M45.94 119.43 C64.33 99.05, 81.85 78.57, 122.69 31.13 M55.25 120.91 C68.75 103.06, 84.56 87.93, 125.45 40.15 M55.25 120.91 C76.19 95.02, 98.43 70.57, 125.45 40.15 M65.23 121.63 C91.3 94.51, 116.02 63.45, 128.21 49.18 M65.23 121.63 C88.58 94.05, 114.02 65.59, 128.21 49.18 M75.2 122.35 C96 97.57, 116.49 77.11, 130.97 58.2 M75.2 122.35 C96.59 97.68, 118.81 73.23, 130.97 58.2 M89.11 118.54 C98.57 108.84, 106.27 97.34, 129.13 72.5 M89.11 118.54 C103.79 101.81, 116.68 86.65, 129.13 72.5 M104.33 113.22 C109.49 108.86, 116.04 103.15, 126.64 87.56 M104.33 113.22 C111.87 103.56, 119.8 95.16, 126.64 87.56" fill="none" stroke="#2f9e44" stroke-width="1"></path><path d="M38.36 5.86 C46.77 1.34, 58.73 -0.31, 69.13 0.13 C79.52 0.58, 91.93 3.68, 100.72 8.51 C109.52 13.35, 116.85 20.77, 121.89 29.16 C126.93 37.56, 130.21 49.17, 130.96 58.88 C131.71 68.58, 130.31 78.69, 126.39 87.38 C122.47 96.08, 115.63 105.34, 107.43 111.05 C99.24 116.75, 87.47 120.18, 77.22 121.62 C66.98 123.06, 55.72 122.54, 45.97 119.69 C36.23 116.83, 26.06 111.08, 18.76 104.48 C11.45 97.87, 5.27 89.19, 2.16 80.06 C-0.95 70.93, -1.75 59.24, 0.12 49.69 C1.99 40.14, 6.61 30.45, 13.36 22.77 C20.11 15.1, 35.71 6.52, 40.64 3.64 C45.57 0.76, 42.34 4.23, 42.92 5.48 M96.28 8.87 C105.42 12.37, 114.81 19.57, 120.91 27.42 C127.02 35.28, 132.01 46.69, 132.92 55.99 C133.83 65.3, 130.54 74.36, 126.39 83.27 C122.24 92.17, 115.38 102.87, 108.03 109.43 C100.67 116, 92.08 120.6, 82.26 122.64 C72.45 124.68, 59.32 124.34, 49.13 121.66 C38.93 118.98, 28.41 113.16, 21.09 106.56 C13.78 99.95, 8.9 91.02, 5.24 82.04 C1.59 73.06, -2.1 62.18, -0.84 52.67 C0.43 43.17, 6.73 32.46, 12.82 25.01 C18.92 17.56, 26.81 12.18, 35.74 7.98 C44.67 3.78, 56.38 -0.02, 66.41 -0.17 C76.43 -0.31, 90.91 5.77, 95.89 7.1 C100.86 8.44, 96.72 7.08, 96.26 7.86" fill="none" stroke="#343a40" stroke-width="2"></path></g><g transform="translate(1205.0458071849557 953.3016197681354) rotate(0 19.529991149902344 22.5)"><text direction="ltr" dominant-baseline="text-before-edge" fill="#343a40" font-family="Virgil, Segoe UI Emoji" font-size="36px" style="white-space: pre;" text-anchor="middle" x="19.529991149902344" y="0">n5</text></g><g stroke-linecap="round" transform="translate(1062.911209530466 319.1180639188366) rotate(0 65.94913579124659 61.686331430918244)"><path d="M26.57 12.5 C26.57 12.5, 26.57 12.5, 26.57 12.5 M26.57 12.5 C26.57 12.5, 26.57 12.5, 26.57 12.5 M12.27 41.14 C19.03 32.03, 25.6 24.59, 42.45 6.42 M12.27 41.14 C22.46 29.94, 34.45 17.29, 42.45 6.42 M0.59 66.77 C16.79 43.81, 36.6 25.48, 55.7 3.37 M0.59 66.77 C14.37 51.03, 29.38 33.72, 55.7 3.37 M4.01 75.03 C26.44 48.71, 50.52 19.56, 65.68 4.09 M4.01 75.03 C18.58 58.96, 32.43 43.31, 65.68 4.09 M6.76 84.06 C27.43 61.09, 49.07 36.1, 75.65 4.81 M6.76 84.06 C25.96 63.38, 43.53 41.33, 75.65 4.81 M9.52 93.08 C38.71 59.6, 66.8 27.21, 86.94 4.02 M9.52 93.08 C30.91 68.97, 53.55 43.12, 86.94 4.02 M15.56 98.33 C30.28 76.72, 48.57 57.67, 94.29 7.76 M15.56 98.33 C43.32 64.75, 70.48 33.95, 94.29 7.76 M20.94 104.33 C50.62 73.96, 73.95 41.24, 100.98 12.25 M20.94 104.33 C43.45 78.29, 67.41 50.1, 100.98 12.25 M26.98 109.58 C53.49 77.2, 78.81 47.38, 108.33 15.99 M26.98 109.58 C48.7 85.12, 69.07 61.64, 108.33 15.99 M33.02 114.83 C61.07 82.96, 88.17 51.82, 115.02 20.49 M33.02 114.83 C59.98 82.1, 86.44 50.64, 115.02 20.49 M41.02 117.81 C59.62 96.2, 81.8 70.02, 119.75 27.25 M41.02 117.81 C57.79 99.26, 74.1 80.07, 119.75 27.25 M49.68 120.04 C69.66 97.66, 88.88 73.6, 123.82 34.76 M49.68 120.04 C69.33 97.35, 90.26 74.12, 123.82 34.76 M57.69 123.02 C83.2 91.99, 111.55 65.66, 128.54 41.52 M57.69 123.02 C80.49 97.74, 101.35 72.03, 128.54 41.52 M65.04 126.76 C89.81 101.09, 112.46 73.19, 133.93 47.52 M65.04 126.76 C81.35 107.09, 100.01 87.04, 133.93 47.52 M77.64 124.47 C96.08 104.39, 115.34 80.38, 134.71 58.81 M77.64 124.47 C89.02 110.65, 99.92 97.85, 134.71 58.81 M92.86 119.15 C101.1 107.5, 112.27 93.47, 132.22 73.87 M92.86 119.15 C102.4 110.02, 111.03 99.82, 132.22 73.87" fill="none" stroke="#f08c00" stroke-width="1"></path><path d="M53.7 1.91 C63.21 -0.39, 76.28 0.48, 86.27 3.36 C96.27 6.24, 106.65 12.6, 113.66 19.21 C120.68 25.82, 125.59 34.16, 128.36 43.01 C131.14 51.86, 132.21 62.95, 130.31 72.31 C128.41 81.67, 123.4 91.57, 116.97 99.19 C110.55 106.82, 101.15 114.22, 91.75 118.07 C82.35 121.92, 70.72 123.08, 60.57 122.29 C50.41 121.5, 39.4 118.34, 30.81 113.33 C22.22 108.33, 14.22 100.23, 9.01 92.25 C3.8 84.28, -0.07 74.7, -0.46 65.46 C-0.84 56.23, 2.21 45.67, 6.72 36.83 C11.24 27.99, 16.99 18.68, 26.63 12.43 C36.26 6.17, 56.46 1.06, 64.53 -0.7 C72.59 -2.46, 75.01 0.55, 75.02 1.85 M85.22 4.03 C95.14 6.28, 107.16 12.7, 114.44 19.4 C121.72 26.1, 126.29 35.35, 128.91 44.23 C131.54 53.12, 131.91 63.47, 130.21 72.68 C128.51 81.89, 125.24 92.02, 118.69 99.47 C112.15 106.93, 100.42 113.63, 90.96 117.43 C81.5 121.22, 71.94 122.58, 61.93 122.25 C51.92 121.92, 39.77 120.32, 30.91 115.42 C22.05 110.53, 14.13 101.37, 8.75 92.87 C3.37 84.37, -0.87 74.05, -1.39 64.42 C-1.91 54.79, 1.27 43.91, 5.63 35.11 C9.99 26.3, 16.55 17.27, 24.77 11.61 C33 5.95, 44.86 2.55, 54.99 1.16 C65.12 -0.23, 80.19 2.77, 85.56 3.26 C90.93 3.74, 87.4 3.08, 87.2 4.08" fill="none" stroke="#343a40" stroke-width="2"></path></g><g transform="translate(1110.6372678524392 358.1855720884316) rotate(0 18.089996337890625 22.5)"><text direction="ltr" dominant-baseline="text-before-edge" fill="#343a40" font-family="Virgil, Segoe UI Emoji" font-size="36px" style="white-space: pre;" text-anchor="middle" x="18.089996337890625" y="0">n7</text></g><g stroke-linecap="round" transform="translate(1014.212636508996 653.6017684829064) rotate(0 65.94913579124659 61.686331430918244)"><path d="M12.95 25.83 C12.95 25.83, 12.95 25.83, 12.95 25.83 M12.95 25.83 C12.95 25.83, 12.95 25.83, 12.95 25.83 M3.9 48.44 C15.44 35.85, 23.78 23.89, 41.29 5.42 M3.9 48.44 C17.92 32.03, 32.16 14.81, 41.29 5.42 M2.72 61.99 C12.28 50.99, 23.12 38.02, 53.89 3.12 M2.72 61.99 C20.12 42.54, 37.18 22.27, 53.89 3.12 M3.51 73.28 C26.29 45.36, 51.97 19.48, 66.49 0.82 M3.51 73.28 C22.26 51.97, 40.68 29.32, 66.49 0.82 M4.3 84.56 C30.47 52.55, 59.25 24.19, 75.81 2.3 M4.3 84.56 C28.91 57.16, 52.85 29.37, 75.81 2.3 M9.02 91.32 C31.78 64.29, 55.26 37.77, 83.81 5.28 M9.02 91.32 C35.01 60.58, 64.34 27.43, 83.81 5.28 M14.4 97.32 C31.71 80.15, 48.47 60.85, 92.48 7.51 M14.4 97.32 C32.05 76.67, 49.09 59.18, 92.48 7.51 M19.13 104.08 C48.66 70.6, 77.7 35.95, 100.48 10.5 M19.13 104.08 C49.38 71.35, 79.18 36.5, 100.48 10.5 M25.82 108.57 C44.29 85.99, 64.41 66.59, 106.52 15.75 M25.82 108.57 C43.67 88.81, 60.99 68.06, 106.52 15.75 M33.17 112.31 C54.45 89.51, 76.63 64.3, 113.21 20.24 M33.17 112.31 C54.46 89.26, 75.58 64.03, 113.21 20.24 M40.52 116.05 C67.16 83.95, 96.57 51.32, 119.25 25.49 M40.52 116.05 C60.72 93.02, 82.56 68.54, 119.25 25.49 M47.87 119.79 C69.16 94.45, 90.99 67.58, 122.66 33.75 M47.87 119.79 C72.06 92.65, 94.12 65.3, 122.66 33.75 M57.19 121.27 C71.33 103.9, 87.33 88.1, 126.08 42.02 M57.19 121.27 C85.35 90.35, 111.39 59.27, 126.08 42.02 M67.82 121.23 C89.9 95.1, 114.63 65.98, 129.49 50.29 M67.82 121.23 C91.09 93.25, 113.96 67.13, 129.49 50.29 M78.45 121.2 C94.86 102.26, 115.56 79.88, 130.28 61.58 M78.45 121.2 C92.57 105.33, 108.1 87.45, 130.28 61.58 M94.33 115.13 C104.14 101.11, 117.01 90.7, 128.45 75.88 M94.33 115.13 C107.87 100.51, 119.91 84.59, 128.45 75.88" fill="none" stroke="#1971c2" stroke-width="1"></path><path d="M97.73 8.09 C106.6 11.37, 114.23 18.64, 119.78 26.25 C125.34 33.85, 129.86 44.27, 131.04 53.74 C132.22 63.2, 130.6 74, 126.85 83.06 C123.1 92.12, 116.26 101.8, 108.51 108.08 C100.77 114.36, 90.27 118.65, 80.37 120.73 C70.47 122.81, 58.91 122.92, 49.12 120.56 C39.33 118.21, 29.22 112.76, 21.63 106.61 C14.05 100.46, 6.98 92.31, 3.59 83.66 C0.19 75.01, -0.29 64.33, 1.26 54.7 C2.81 45.07, 7.15 33.97, 12.91 25.88 C18.68 17.79, 26.78 10.45, 35.85 6.16 C44.92 1.87, 56.8 -0.37, 67.32 0.14 C77.85 0.65, 93.44 7.6, 99.02 9.21 C104.6 10.82, 101.48 9.18, 100.8 9.8 M88.22 3.97 C97.37 5.94, 107.05 12.46, 114.18 19.34 C121.31 26.22, 128.57 36.03, 131 45.28 C133.43 54.52, 131.18 65.51, 128.78 74.79 C126.38 84.06, 123.09 93.35, 116.61 100.94 C110.13 108.52, 99.59 116.66, 89.92 120.32 C80.24 123.97, 68.91 124.14, 58.56 122.85 C48.22 121.57, 36.32 118.02, 27.82 112.62 C19.32 107.23, 12.36 99.01, 7.55 90.49 C2.73 81.96, -1.01 70.88, -1.04 61.48 C-1.07 52.08, 2.68 42.39, 7.36 34.1 C12.03 25.8, 18.51 17.31, 27.02 11.71 C35.53 6.11, 48.15 1.75, 58.41 0.49 C68.66 -0.78, 83.5 3.3, 88.57 4.13 C93.64 4.96, 89.32 4.78, 88.83 5.47" fill="none" stroke="#343a40" stroke-width="2"></path></g><g transform="translate(1060.1026962958128 692.6692766525015) rotate(0 19.925994873046875 22.5)"><text direction="ltr" dominant-baseline="text-before-edge" fill="#343a40" font-family="Virgil, Segoe UI Emoji" font-size="36px" style="white-space: pre;" text-anchor="middle" x="19.925994873046875" y="0">n6</text></g><g transform="translate(1459.8876584703398 348.70077150461975) rotate(0 12.383995056152344 22.5)"><text direction="ltr" dominant-baseline="text-before-edge" fill="#e03131" font-family="Virgil, Segoe UI Emoji" font-size="36px" style="white-space: pre;" text-anchor="start" x="0" y="0">0</text></g><g transform="translate(1669.2621021727646 439.71086336046073) rotate(0 17.693992614746094 22.5)"><text direction="ltr" dominant-baseline="text-before-edge" fill="#1971c2" font-family="Virgil, Segoe UI Emoji" font-size="36px" style="white-space: pre;" text-anchor="start" x="0" y="0">12</text></g><g transform="translate(1728.0603836495602 620.453768238383) rotate(0 23.939987182617188 22.5)"><text direction="ltr" dominant-baseline="text-before-edge" fill="#f08c00" font-family="Virgil, Segoe UI Emoji" font-size="36px" style="white-space: pre;" text-anchor="start" x="0" y="0">25</text></g><g transform="translate(1656.69393398373 804.1451127988653) rotate(0 21.941993713378906 22.5)"><text direction="ltr" dominant-baseline="text-before-edge" fill="#e03131" font-family="Virgil, Segoe UI Emoji" font-size="36px" style="white-space: pre;" text-anchor="start" x="0" y="0">37</text></g><g transform="translate(1468.647424301777 895.553847632174) rotate(0 23.50798797607422 22.5)"><text direction="ltr" dominant-baseline="text-before-edge" fill="#e03131" font-family="Virgil, Segoe UI Emoji" font-size="36px" style="white-space: pre;" text-anchor="start" x="0" y="0">50</text></g><g transform="translate(1257.8446440096072 808.7702555298215) rotate(0 24.33599090576172 22.5)"><text direction="ltr" dominant-baseline="text-before-edge" fill="#2f9e44" font-family="Virgil, Segoe UI Emoji" font-size="36px" style="white-space: pre;" text-anchor="start" x="0" y="0">62</text></g><g transform="translate(1183.3450331389345 628.9096138054697) rotate(0 20.80799102783203 22.5)"><text direction="ltr" dominant-baseline="text-before-edge" fill="#1971c2" font-family="Virgil, Segoe UI Emoji" font-size="36px" style="white-space: pre;" text-anchor="start" x="0" y="0">75</text></g><g transform="translate(1244.9212421238776 441.9843590193027) rotate(0 23.453994750976562 22.5)"><text direction="ltr" dominant-baseline="text-before-edge" fill="#f08c00" font-family="Virgil, Segoe UI Emoji" font-size="36px" style="white-space: pre;" text-anchor="start" x="0" y="0">87</text></g><g transform="translate(1580.6663211748605 376.06303885631064) rotate(0 11.519996643066406 22.5)"><text direction="ltr" dominant-baseline="text-before-edge" fill="#e03131" font-family="Virgil, Segoe UI Emoji" font-size="36px" style="white-space: pre;" text-anchor="start" x="0" y="0">6</text></g><g transform="translate(1715.1428836748605 521.3013201063106) rotate(0 18.647994995117188 22.5)"><text direction="ltr" dominant-baseline="text-before-edge" fill="#1971c2" font-family="Virgil, Segoe UI Emoji" font-size="36px" style="white-space: pre;" text-anchor="start" x="0" y="0">18</text></g><g transform="translate(1703.2851337358957 704.6255388563106) rotate(0 17.13599395751953 22.5)"><text direction="ltr" dominant-baseline="text-before-edge" fill="#f08c00" font-family="Virgil, Segoe UI Emoji" font-size="36px" style="white-space: pre;" text-anchor="start" x="0" y="0">31</text></g><g transform="translate(1571.0393222734933 854.8997516653073) rotate(0 23.777992248535156 22.5)"><text direction="ltr" dominant-baseline="text-before-edge" fill="#e03131" font-family="Virgil, Segoe UI Emoji" font-size="36px" style="white-space: pre;" text-anchor="start" x="0" y="0">43</text></g><g transform="translate(1357.2606052324777 864.8403826063106) rotate(0 22.64398956298828 22.5)"><text direction="ltr" dominant-baseline="text-before-edge" fill="#2f9e44" font-family="Virgil, Segoe UI Emoji" font-size="36px" style="white-space: pre;" text-anchor="start" x="0" y="0">56</text></g><g transform="translate(1209.0391391680246 717.7661638563106) rotate(0 25.289993286132812 22.5)"><text direction="ltr" dominant-baseline="text-before-edge" fill="#1971c2" font-family="Virgil, Segoe UI Emoji" font-size="36px" style="white-space: pre;" text-anchor="start" x="0" y="0">68</text></g><g transform="translate(1204.0391391680246 533.5396013563106) rotate(0 18.647994995117188 22.5)"><text direction="ltr" dominant-baseline="text-before-edge" fill="#1971c2" font-family="Virgil, Segoe UI Emoji" font-size="36px" style="white-space: pre;" text-anchor="start" x="0" y="0">81</text></g><g transform="translate(1345.7031024858957 373.73491385631064) rotate(0 23.219993591308594 22.5)"><text direction="ltr" dominant-baseline="text-before-edge" fill="#f08c00" font-family="Virgil, Segoe UI Emoji" font-size="36px" style="white-space: pre;" text-anchor="start" x="0" y="0">93</text></g></svg>