<svg height="287.3576830440106" version="1.1" viewbox="0 0 1579.9942165232303 287.3576830440106" width="1579.9942165232303" xmlns="http://www.w3.org/2000/svg">
<!-- svg-source:excalidraw -->
<!-- payload-type:application/vnd.excalidraw+json --><!-- payload-version:2 -->
<defs>
<style class="style-fonts">
</style>
</defs>
<rect fill="#ffffff" height="287.3576830440106" width="1579.9942165232303" x="0" y="0"></rect><g stroke-linecap="round" transform="translate(10 54.807721954248905) rotate(0 128.0182913190058 84.77455315625434)"><path d="M32 0 C101.43 -0.49, 167.81 0.79, 224.04 0 M32 0 C82.41 1.24, 132.92 1.62, 224.04 0 M224.04 0 C247.14 -0.97, 256.84 9.3, 256.04 32 M224.04 0 C246.81 1.86, 255.77 12.33, 256.04 32 M256.04 32 C254.36 67.11, 255.69 104.56, 256.04 137.55 M256.04 32 C256.09 59.67, 256.12 86.01, 256.04 137.55 M256.04 137.55 C257.42 159.76, 245.47 170.73, 224.04 169.55 M256.04 137.55 C256.39 157.69, 247.34 171.42, 224.04 169.55 M224.04 169.55 C183.93 168.56, 141.91 170.19, 32 169.55 M224.04 169.55 C160.27 170.07, 98.85 170.58, 32 169.55 M32 169.55 C12.01 170.93, -1.51 157.96, 0 137.55 M32 169.55 C9.3 168.46, 2.16 157.62, 0 137.55 M0 137.55 C2.66 114.93, 1.33 96.47, 0 32 M0 137.55 C0.78 109.01, 0.92 79.26, 0 32 M0 32 C-1.99 12.45, 11.31 0.02, 32 0 M0 32 C0.76 10.86, 11.03 0.2, 32 0" fill="none" stroke="#1e1e1e" stroke-width="1"></path></g><g transform="translate(63.86301788150581 127.08227511050325) rotate(0 74.1552734375 12.5)"><text direction="ltr" dominant-baseline="text-before-edge" fill="#1e1e1e" font-family="Virgil, Segoe UI Emoji" font-size="20px" style="white-space: pre;" text-anchor="middle" x="74.1552734375" y="0">Commenter Client</text></g><g mask="url(#mask-fTL370NXE7NBtkAFS3EmB)" stroke-linecap="round"><g transform="translate(289.9586521006023 128.96102819440523) rotate(0 123.1463414244705 1.931271818146115)"><path d="M0.94 -0.42 C41.91 0.01, 205.21 2.41, 245.99 3.14 M-0.02 -1.68 C40.75 -1.16, 204.13 3.13, 244.89 4.29" fill="none" stroke="#1e1e1e" stroke-width="1"></path></g><g transform="translate(289.9586521006023 128.96102819440523) rotate(0 123.1463414244705 1.931271818146115)"><path d="M29.28 -10.28 C19.72 -7.45, 10.29 -4.91, 0.94 -0.42 M29.28 -10.28 C21.36 -7.6, 12.16 -4.77, 0.94 -0.42" fill="none" stroke="#1e1e1e" stroke-width="1"></path></g><g transform="translate(289.9586521006023 128.96102819440523) rotate(0 123.1463414244705 1.931271818146115)"><path d="M28.99 10.24 C19.42 6.61, 10.08 2.7, 0.94 -0.42 M28.99 10.24 C21.35 6.61, 12.25 3.13, 0.94 -0.42" fill="none" stroke="#1e1e1e" stroke-width="1"></path></g><g transform="translate(289.9586521006023 128.96102819440523) rotate(0 123.1463414244705 1.931271818146115)"><path d="M216.43 13.79 C224.64 10.08, 233.08 6.53, 244.89 4.29 M216.43 13.79 C226.16 10.26, 234.42 7.13, 244.89 4.29" fill="none" stroke="#1e1e1e" stroke-width="1"></path></g><g transform="translate(289.9586521006023 128.96102819440523) rotate(0 123.1463414244705 1.931271818146115)"><path d="M216.99 -6.73 C225.12 -3.98, 233.38 -1.07, 244.89 4.29 M216.99 -6.73 C226.35 -3.95, 234.44 -0.76, 244.89 4.29" fill="none" stroke="#1e1e1e" stroke-width="1"></path></g></g><mask id="mask-fTL370NXE7NBtkAFS3EmB"><rect fill="#fff" height="232.82357183069746" width="636.2513349495433" x="0" y="0"></rect><rect fill="#000" height="25" opacity="1" width="61.123046875" x="382.5434700875728" y="118.39230001255135"></rect></mask><g transform="translate(382.5434700875728 118.39230001255135) rotate(0 30.402632924159988 11.873981726262713)"><text direction="ltr" dominant-baseline="text-before-edge" fill="#1e1e1e" font-family="Virgil, Segoe UI Emoji" font-size="20px" style="white-space: pre;" text-anchor="middle" x="30.5615234375" y="0">HTTPS</text></g><g stroke-linecap="round" transform="translate(560.4601073348726 33.31260065375636) rotate(0 170.30904558041385 102.57951969389615)"><path d="M32 0 C87.74 -1.27, 143.92 -0.93, 308.62 0 M32 0 C137.76 -2.03, 242.98 -1.93, 308.62 0 M308.62 0 C328.59 0.33, 340.23 9.75, 340.62 32 M308.62 0 C330.69 1.79, 339.97 12.59, 340.62 32 M340.62 32 C341.98 70.86, 342.29 109.82, 340.62 173.16 M340.62 32 C341.01 67.19, 341.8 102.91, 340.62 173.16 M340.62 173.16 C339.69 196.14, 330.65 205.71, 308.62 205.16 M340.62 173.16 C342.12 196.31, 327.99 202.87, 308.62 205.16 M308.62 205.16 C209.26 205.42, 107.06 205.67, 32 205.16 M308.62 205.16 C238 203.43, 168.78 204.72, 32 205.16 M32 205.16 C9.31 205.72, 1.46 194.05, 0 173.16 M32 205.16 C9.13 206.25, 0.17 196.3, 0 173.16 M0 173.16 C1.28 128.4, -0.49 83.02, 0 32 M0 173.16 C-0.7 130.08, -0.8 86.96, 0 32 M0 32 C-0.51 8.87, 10.61 -1.89, 32 0 M0 32 C1.86 9.08, 12.6 -1.95, 32 0" fill="none" stroke="#1e1e1e" stroke-width="1"></path></g><g transform="translate(604.1382935402864 123.39212034765251) rotate(0 126.630859375 12.5)"><text direction="ltr" dominant-baseline="text-before-edge" fill="#1e1e1e" font-family="Virgil, Segoe UI Emoji" font-size="20px" style="white-space: pre;" text-anchor="middle" x="126.630859375" y="0">Comment Management Service</text></g><g stroke-linecap="round" transform="translate(1103.030141553393 10) rotate(0 133.62108660928106 133.6788415220053)"><path d="M163.31 2.77 C177.3 3.76, 192.33 12.29, 204.6 20.13 C216.87 27.96, 227.72 38.56, 236.94 49.78 C246.15 61.01, 254.69 73.96, 259.88 87.45 C265.07 100.95, 267.83 116.11, 268.05 130.73 C268.27 145.36, 265.68 161.4, 261.2 175.23 C256.71 189.05, 249.75 202.19, 241.13 213.7 C232.52 225.2, 221.64 235.96, 209.53 244.25 C197.43 252.54, 182.41 259.77, 168.5 263.44 C154.6 267.11, 140.4 267.33, 126.08 266.28 C111.76 265.22, 95.94 262.61, 82.6 257.12 C69.25 251.64, 56.74 242.89, 46.01 233.37 C35.28 223.85, 25.47 212.4, 18.23 200.01 C10.99 187.61, 5.24 173.4, 2.57 158.98 C-0.11 144.56, 0.31 127.8, 2.19 113.48 C4.08 99.16, 7.44 85.67, 13.86 73.06 C20.27 60.46, 29.96 48.08, 40.68 37.84 C51.4 27.6, 65.06 17.9, 78.19 11.61 C91.31 5.32, 103.18 0.73, 119.45 0.11 C135.71 -0.5, 164.59 5.76, 175.8 7.93 C187.01 10.11, 187.45 11.25, 186.69 13.17 M195.59 14.35 C208.78 18.78, 218.95 30.95, 228.82 41.61 C238.69 52.28, 248.5 65.28, 254.83 78.36 C261.16 91.44, 265.56 105.7, 266.82 120.11 C268.08 134.53, 265.58 150.82, 262.38 164.84 C259.18 178.86, 254.91 192.12, 247.62 204.21 C240.32 216.3, 229.84 228.21, 218.59 237.38 C207.35 246.54, 193.91 254.11, 180.14 259.21 C166.37 264.31, 150.63 267.46, 135.99 267.98 C121.35 268.5, 106.02 267.04, 92.29 262.33 C78.56 257.61, 65.09 248.75, 53.62 239.69 C42.14 230.62, 31.35 219.81, 23.43 207.93 C15.51 196.06, 9.74 182.35, 6.09 168.44 C2.44 154.52, 0.79 138.87, 1.5 124.44 C2.21 110.01, 5.26 95.01, 10.36 81.87 C15.46 68.72, 22.58 56.37, 32.1 45.57 C41.63 34.78, 54.87 24.19, 67.5 17.1 C80.12 10.01, 93.62 5.73, 107.88 3.02 C122.15 0.3, 138.59 -0.93, 153.09 0.83 C167.59 2.6, 188.33 10.69, 194.88 13.62 C201.44 16.55, 193.71 16.39, 192.42 18.39" fill="none" stroke="#1e1e1e" stroke-width="1"></path></g><g transform="translate(1174.4402892117364 118.65362618063352) rotate(0 62.2265625 25)"><text direction="ltr" dominant-baseline="text-before-edge" fill="#1e1e1e" font-family="Virgil, Segoe UI Emoji" font-size="20px" style="white-space: pre;" text-anchor="middle" x="62.2265625" y="0">Comments DB </text><text direction="ltr" dominant-baseline="text-before-edge" fill="#1e1e1e" font-family="Virgil, Segoe UI Emoji" font-size="20px" style="white-space: pre;" text-anchor="middle" x="62.2265625" y="25">(DynamoDB)</text></g><g stroke-linecap="round"><g transform="translate(923.1541645475963 143.95062934659063) rotate(0 80.12984538319643 0)"><path d="M0.26 -0.6 C26.75 -0.44, 132.81 0.19, 159.44 0.2 M-1.06 1.69 C25.76 1.53, 135.02 -1.62, 161.72 -1.82" fill="none" stroke="#1e1e1e" stroke-width="1"></path></g><g transform="translate(923.1541645475963 143.95062934659063) rotate(0 80.12984538319643 0)"><path d="M28.51 -10.71 C17.68 -8.52, 9.25 -4.05, 0.26 -0.6 M28.51 -10.71 C21.08 -7.08, 13.93 -5.01, 0.26 -0.6" fill="none" stroke="#1e1e1e" stroke-width="1"></path></g><g transform="translate(923.1541645475963 143.95062934659063) rotate(0 80.12984538319643 0)"><path d="M28.4 9.81 C17.73 4.91, 9.35 2.29, 0.26 -0.6 M28.4 9.81 C20.93 8.22, 13.81 5.08, 0.26 -0.6" fill="none" stroke="#1e1e1e" stroke-width="1"></path></g><g transform="translate(923.1541645475963 143.95062934659063) rotate(0 80.12984538319643 0)"><path d="M133.74 8.99 C142.47 3.83, 153.48 1.07, 161.72 -1.82 M133.74 8.99 C140.53 6.86, 147.68 3.62, 161.72 -1.82" fill="none" stroke="#1e1e1e" stroke-width="1"></path></g><g transform="translate(923.1541645475963 143.95062934659063) rotate(0 80.12984538319643 0)"><path d="M133.34 -11.53 C142.08 -9.6, 153.22 -5.27, 161.72 -1.82 M133.34 -11.53 C140.3 -8.45, 147.54 -6.47, 161.72 -1.82" fill="none" stroke="#1e1e1e" stroke-width="1"></path></g></g><mask></mask><g transform="translate(1400.9343562937381 63.9952919683202) rotate(0 84.5299301147461 75)"><text direction="ltr" dominant-baseline="text-before-edge" fill="#1e1e1e" font-family="Virgil, Segoe UI Emoji" font-size="20px" style="white-space: pre;" text-anchor="start" x="0" y="0">Comment</text><text direction="ltr" dominant-baseline="text-before-edge" fill="#1e1e1e" font-family="Virgil, Segoe UI Emoji" font-size="20px" style="white-space: pre;" text-anchor="start" x="0" y="25">- commentId (PK)</text><text direction="ltr" dominant-baseline="text-before-edge" fill="#1e1e1e" font-family="Virgil, Segoe UI Emoji" font-size="20px" style="white-space: pre;" text-anchor="start" x="0" y="50">- videoId (shard)</text><text direction="ltr" dominant-baseline="text-before-edge" fill="#1e1e1e" font-family="Virgil, Segoe UI Emoji" font-size="20px" style="white-space: pre;" text-anchor="start" x="0" y="75">- content</text><text direction="ltr" dominant-baseline="text-before-edge" fill="#1e1e1e" font-family="Virgil, Segoe UI Emoji" font-size="20px" style="white-space: pre;" text-anchor="start" x="0" y="100">- author</text><text direction="ltr" dominant-baseline="text-before-edge" fill="#1e1e1e" font-family="Virgil, Segoe UI Emoji" font-size="20px" style="white-space: pre;" text-anchor="start" x="0" y="125">- createdAt (SK)</text></g></svg>