<svg height="729.353515625" version="1.1" viewbox="0 0 1264.8235931396484 729.353515625" width="1264.8235931396484" xmlns="http://www.w3.org/2000/svg">
<!-- svg-source:excalidraw -->
<!-- payload-type:application/vnd.excalidraw+json --><!-- payload-version:2 -->
<defs>
<style class="style-fonts">
</style>
</defs>
<rect fill="#ffffff" height="729.353515625" width="1264.8235931396484" x="0" y="0"></rect><g stroke-linecap="round" transform="translate(496.6611328125 243.7724609375) rotate(0 78.412109375 65.912109375)"><path d="M32 0 C66.25 1.13, 105.15 -0.1, 124.82 0 M32 0 C61.28 -0.02, 89.41 0.21, 124.82 0 M124.82 0 C145.35 0.23, 155.05 10.36, 156.82 32 M124.82 0 C147.46 -1.38, 156.1 8.38, 156.82 32 M156.82 32 C157.81 48.31, 158.08 66.14, 156.82 99.82 M156.82 32 C156.18 51.02, 155.88 69.17, 156.82 99.82 M156.82 99.82 C158.5 120.09, 148.1 130.05, 124.82 131.82 M156.82 99.82 C156.91 122.57, 147.96 132.46, 124.82 131.82 M124.82 131.82 C92.75 130.53, 59.07 131.68, 32 131.82 M124.82 131.82 C89.36 133.53, 54.51 133.64, 32 131.82 M32 131.82 C9.23 132.82, -0.55 122.83, 0 99.82 M32 131.82 C9.56 133.36, 2.01 123.3, 0 99.82 M0 99.82 C0.64 78.11, 0.49 61.26, 0 32 M0 99.82 C-0.47 76.07, -1.32 53.35, 0 32 M0 32 C0.11 12.56, 11.12 -1.27, 32 0 M0 32 C0.93 12.32, 12.27 -1.99, 32 0" fill="none" stroke="#1e1e1e" stroke-width="1"></path></g><g transform="translate(515.5232925415039 297.1845703125) rotate(0 59.549949645996094 12.5)"><text direction="ltr" dominant-baseline="text-before-edge" fill="#1e1e1e" font-family="Virgil, Segoe UI Emoji" font-size="20px" style="white-space: pre;" text-anchor="middle" x="59.549949645996094" y="0">Chat Server</text></g><g stroke-linecap="round" transform="translate(778.0048828125 254.1044921875) rotate(0 88.328125 62.013671875)"><path d="M31.01 0 C70.58 1.01, 111.15 1.01, 145.65 0 M31.01 0 C72.44 -0.89, 113.79 -1.16, 145.65 0 M145.65 0 C167.45 -1.2, 176.02 8.35, 176.66 31.01 M145.65 0 C165.19 1.99, 177.43 10.8, 176.66 31.01 M176.66 31.01 C176.35 45.9, 175.09 63.59, 176.66 93.02 M176.66 31.01 C177.23 51.65, 177.37 72.47, 176.66 93.02 M176.66 93.02 C176.73 114.92, 167.89 124.58, 145.65 124.03 M176.66 93.02 C178.01 113.81, 164.92 125.45, 145.65 124.03 M145.65 124.03 C116.99 125, 86.94 123.63, 31.01 124.03 M145.65 124.03 C100.38 125.67, 56.27 126, 31.01 124.03 M31.01 124.03 C9.38 125.36, 1.75 115.56, 0 93.02 M31.01 124.03 C10.19 123.82, 1.68 114.36, 0 93.02 M0 93.02 C0.61 81.23, -2.07 66.88, 0 31.01 M0 93.02 C0.61 80.8, 0.79 66.05, 0 31.01 M0 31.01 C0.81 11.77, 11.73 -1.73, 31.01 0 M0 31.01 C1.04 9.83, 10.86 -0.19, 31.01 0" fill="none" stroke="#1e1e1e" stroke-width="1"></path></g><g transform="translate(808.0330505371094 291.1181640625) rotate(0 58.299957275390625 25)"><text direction="ltr" dominant-baseline="text-before-edge" fill="#1e1e1e" font-family="Virgil, Segoe UI Emoji" font-size="20px" style="white-space: pre;" text-anchor="middle" x="58.299957275390625" y="0">Database</text><text direction="ltr" dominant-baseline="text-before-edge" fill="#1e1e1e" font-family="Virgil, Segoe UI Emoji" font-size="20px" style="white-space: pre;" text-anchor="middle" x="58.299957275390625" y="25">(DynamoDB)</text></g><g stroke-linecap="round"><g transform="translate(666.3603515625 314.4453248125696) rotate(0 46.234375 0.267096791421487)"><path d="M-0.41 1.05 C14.85 1.04, 76.68 0.79, 91.98 0.67 M1.58 0.56 C16.59 0.69, 75.42 2.11, 90.78 2.28" fill="none" stroke="#1e1e1e" stroke-width="1"></path></g><g transform="translate(666.3603515625 314.4453248125696) rotate(0 46.234375 0.267096791421487)"><path d="M62.41 12.03 C73.75 8, 81.87 3.72, 90.78 2.28 M62.41 12.03 C70.12 8.43, 78.02 7.51, 90.78 2.28" fill="none" stroke="#1e1e1e" stroke-width="1"></path></g><g transform="translate(666.3603515625 314.4453248125696) rotate(0 46.234375 0.267096791421487)"><path d="M62.78 -8.49 C74.13 -5.54, 82.13 -2.84, 90.78 2.28 M62.78 -8.49 C70.5 -6.25, 78.3 -1.32, 90.78 2.28" fill="none" stroke="#1e1e1e" stroke-width="1"></path></g></g><mask></mask><g transform="translate(1054.8447265625 87.3251953125) rotate(0 58.799964904785156 50)"><text direction="ltr" dominant-baseline="text-before-edge" fill="#1e1e1e" font-family="Virgil, Segoe UI Emoji" font-size="20px" style="white-space: pre;" text-anchor="start" x="0" y="0">Chat</text><text direction="ltr" dominant-baseline="text-before-edge" fill="#1e1e1e" font-family="Virgil, Segoe UI Emoji" font-size="20px" style="white-space: pre;" text-anchor="start" x="0" y="25">  id</text><text direction="ltr" dominant-baseline="text-before-edge" fill="#1e1e1e" font-family="Virgil, Segoe UI Emoji" font-size="20px" style="white-space: pre;" text-anchor="start" x="0" y="50">  name</text><text direction="ltr" dominant-baseline="text-before-edge" fill="#1e1e1e" font-family="Virgil, Segoe UI Emoji" font-size="20px" style="white-space: pre;" text-anchor="start" x="0" y="75">  metadata</text></g><g transform="translate(1053.4080657958984 243.8642578125) rotate(0 78.24993133544922 37.5)"><text direction="ltr" dominant-baseline="text-before-edge" fill="#1e1e1e" font-family="Virgil, Segoe UI Emoji" font-size="20px" style="white-space: pre;" text-anchor="start" x="0" y="0">ChatParticipant</text><text direction="ltr" dominant-baseline="text-before-edge" fill="#1e1e1e" font-family="Virgil, Segoe UI Emoji" font-size="20px" style="white-space: pre;" text-anchor="start" x="0" y="25">  chatId</text><text direction="ltr" dominant-baseline="text-before-edge" fill="#1e1e1e" font-family="Virgil, Segoe UI Emoji" font-size="20px" style="white-space: pre;" text-anchor="start" x="0" y="50">  participantId</text></g><g stroke-linecap="round" transform="translate(1007.3587493896484 10) rotate(0 123.732421875 159.720703125)"><path d="M32 0 C101.66 -1.28, 172.25 -1.12, 215.46 0 M215.46 0 C238.12 1.9, 247.77 11.29, 247.46 32 M247.46 32 C249.61 99.43, 248.92 168.2, 247.46 287.44 M247.46 287.44 C245.8 308.06, 235.13 319.36, 215.46 319.44 M215.46 319.44 C176 319.36, 133.54 320.93, 32 319.44 M32 319.44 C12.59 319.02, 0.91 310.57, 0 287.44 M0 287.44 C-3.07 211.05, -0.62 132.18, 0 32 M0 32 C1.72 11.91, 11.42 1.95, 32 0" fill="none" stroke="#1e1e1e" stroke-dasharray="8 10" stroke-width="2.5"></path></g><g transform="translate(1103.7532806396484 31.7109375) rotate(0 33.17998504638672 17.5)"><text direction="ltr" dominant-baseline="text-before-edge" fill="#1e1e1e" font-family="Virgil, Segoe UI Emoji" font-size="28px" style="white-space: pre;" text-anchor="start" x="0" y="0">Chat</text></g><g transform="translate(1045.6865234375 437.8623046875) rotate(0 61.029945373535156 37.5)"><text direction="ltr" dominant-baseline="text-before-edge" fill="#1e1e1e" font-family="Virgil, Segoe UI Emoji" font-size="20px" style="white-space: pre;" text-anchor="start" x="0" y="0">Inbox</text><text direction="ltr" dominant-baseline="text-before-edge" fill="#1e1e1e" font-family="Virgil, Segoe UI Emoji" font-size="20px" style="white-space: pre;" text-anchor="start" x="0" y="25">  recipientId</text><text direction="ltr" dominant-baseline="text-before-edge" fill="#1e1e1e" font-family="Virgil, Segoe UI Emoji" font-size="20px" style="white-space: pre;" text-anchor="start" x="0" y="50">  messageId</text></g><g transform="translate(1035.2459564208984 563.8896484375) rotate(0 58.64994812011719 62.5)"><text direction="ltr" dominant-baseline="text-before-edge" fill="#1e1e1e" font-family="Virgil, Segoe UI Emoji" font-size="20px" style="white-space: pre;" text-anchor="start" x="0" y="0">Message</text><text direction="ltr" dominant-baseline="text-before-edge" fill="#1e1e1e" font-family="Virgil, Segoe UI Emoji" font-size="20px" style="white-space: pre;" text-anchor="start" x="0" y="25">  id</text><text direction="ltr" dominant-baseline="text-before-edge" fill="#1e1e1e" font-family="Virgil, Segoe UI Emoji" font-size="20px" style="white-space: pre;" text-anchor="start" x="0" y="50">  contents</text><text direction="ltr" dominant-baseline="text-before-edge" fill="#1e1e1e" font-family="Virgil, Segoe UI Emoji" font-size="20px" style="white-space: pre;" text-anchor="start" x="0" y="75">  creatorId</text><text direction="ltr" dominant-baseline="text-before-edge" fill="#1e1e1e" font-family="Virgil, Segoe UI Emoji" font-size="20px" style="white-space: pre;" text-anchor="start" x="0" y="100">  timestamp</text></g><g stroke-linecap="round" transform="translate(998.2005462646484 360.130859375) rotate(0 127.10546875 179.611328125)"><path d="M32 0 C89.02 0.51, 144.21 0.47, 222.21 0 M222.21 0 C241.61 -0.06, 252.41 9.09, 254.21 32 M254.21 32 C254.11 126.54, 254.54 222.48, 254.21 327.22 M254.21 327.22 C255.86 349.7, 243.01 361.04, 222.21 359.22 M222.21 359.22 C172.59 359.21, 125.26 361.45, 32 359.22 M32 359.22 C12.28 359.83, -0.94 347.66, 0 327.22 M0 327.22 C0.04 239.82, 0.37 155.3, 0 32 M0 32 C-0.4 10.18, 9.99 -0.2, 32 0" fill="none" stroke="#1e1e1e" stroke-dasharray="8 10" stroke-width="2.5"></path></g><g transform="translate(1055.9661712646484 381.005859375) rotate(0 72.79998016357422 17.5)"><text direction="ltr" dominant-baseline="text-before-edge" fill="#1e1e1e" font-family="Virgil, Segoe UI Emoji" font-size="28px" style="white-space: pre;" text-anchor="start" x="0" y="0">Messsages</text></g><g stroke-linecap="round" transform="translate(10 233.974609375) rotate(0 79.794921875 79.705078125)"><path d="M99.03 2.18 C109.39 3.12, 120.36 9.21, 128.77 15.81 C137.18 22.4, 144.34 32.1, 149.51 41.73 C154.68 51.37, 159 62.74, 159.77 73.63 C160.54 84.53, 157.84 96.94, 154.1 107.1 C150.37 117.27, 144.62 127.05, 137.38 134.62 C130.14 142.18, 120.45 148.3, 110.66 152.5 C100.88 156.69, 89.62 160.07, 78.67 159.78 C67.73 159.49, 54.92 155.52, 44.99 150.75 C35.06 145.98, 26.02 139.29, 19.07 131.15 C12.12 123.02, 6.44 112.35, 3.29 101.93 C0.13 91.51, -1.28 79.2, 0.13 68.65 C1.54 58.09, 6.13 47.74, 11.75 38.61 C17.38 29.48, 24.81 19.92, 33.87 13.87 C42.92 7.83, 54.41 3.9, 66.09 2.32 C77.77 0.74, 96.78 3.46, 103.96 4.4 C111.15 5.33, 109.63 6.71, 109.2 7.94 M49.72 6.52 C58.95 1.59, 71.28 0.01, 81.84 0.41 C92.41 0.81, 103.21 4.61, 113.12 8.91 C123.02 13.21, 134.35 18.32, 141.28 26.22 C148.2 34.12, 151.54 45.77, 154.66 56.31 C157.78 66.85, 161.3 78.66, 160.01 89.48 C158.71 100.3, 152.42 112.09, 146.92 121.23 C141.41 130.36, 135.72 138.07, 126.97 144.28 C118.21 150.49, 105.31 156.43, 94.36 158.47 C83.42 160.51, 71.52 159.2, 61.28 156.52 C51.04 153.83, 41.55 148.58, 32.93 142.36 C24.32 136.13, 14.96 128.57, 9.59 119.17 C4.22 109.77, 1.76 96.69, 0.69 85.95 C-0.38 75.21, -0.41 64.78, 3.17 54.74 C6.75 44.69, 14.84 33.63, 22.18 25.69 C29.52 17.75, 42.46 10.17, 47.21 7.1 C51.96 4.04, 50.09 6.25, 50.66 7.31" fill="none" stroke="#1e1e1e" stroke-width="1"></path></g><g transform="translate(62.82141897875704 301.31968626280894) rotate(0 27.049972534179688 12.499999999999998)"><text direction="ltr" dominant-baseline="text-before-edge" fill="#1e1e1e" font-family="Virgil, Segoe UI Emoji" font-size="20px" style="white-space: pre;" text-anchor="middle" x="27.049972534179688" y="0">Client</text></g><g transform="translate(162.07421875 217.7265625) rotate(0 49.859954833984375 25)"><text direction="ltr" dominant-baseline="text-before-edge" fill="#1e1e1e" font-family="Virgil, Segoe UI Emoji" font-size="20px" style="white-space: pre;" text-anchor="middle" x="49.859954833984375" y="0">WS </text><text direction="ltr" dominant-baseline="text-before-edge" fill="#1e1e1e" font-family="Virgil, Segoe UI Emoji" font-size="20px" style="white-space: pre;" text-anchor="middle" x="49.859954833984375" y="25">Connection</text></g><g stroke-linecap="round" transform="translate(259.68394470214844 250.2666015625) rotate(0 78.412109375 65.912109375)"><path d="M32 0 C69.96 -1.22, 105.33 0.27, 124.82 0 M32 0 C64.73 0.52, 95.84 1.13, 124.82 0 M124.82 0 C144.53 1.77, 157.62 9.61, 156.82 32 M124.82 0 C144.02 -0.23, 155.95 10.62, 156.82 32 M156.82 32 C156.53 49.97, 155.13 65.64, 156.82 99.82 M156.82 32 C158.23 59.45, 158.45 85.21, 156.82 99.82 M156.82 99.82 C157.92 119.55, 145.06 130.79, 124.82 131.82 M156.82 99.82 C158.45 121.46, 147.09 132.43, 124.82 131.82 M124.82 131.82 C98.06 130.65, 74.4 133.94, 32 131.82 M124.82 131.82 C97.86 131.6, 68.56 132.44, 32 131.82 M32 131.82 C9.97 130.7, 1.59 119.86, 0 99.82 M32 131.82 C10.07 133.15, 0.6 120.15, 0 99.82 M0 99.82 C0.04 82.94, 0.58 71.75, 0 32 M0 99.82 C0.61 80.75, 1.26 62.9, 0 32 M0 32 C-1.13 12.33, 9.76 -1.8, 32 0 M0 32 C-1.21 10.86, 12.22 -1.07, 32 0" fill="none" stroke="#1e1e1e" stroke-width="1"></path></g><g transform="translate(307.4460678100586 303.6787109375) rotate(0 30.649986267089844 12.5)"><text direction="ltr" dominant-baseline="text-before-edge" fill="#1e1e1e" font-family="Virgil, Segoe UI Emoji" font-size="20px" style="white-space: pre;" text-anchor="middle" x="30.649986267089844" y="0">L4 LB</text></g><g stroke-linecap="round"><g transform="translate(177.67808532714844 308.4755859375) rotate(0 34.798828125 -0.796875)"><path d="M0.16 0.52 C11.93 0.14, 58.17 -2.29, 69.91 -2.72 M-1.22 -0.25 C10.49 -0.49, 57.19 -1.66, 69.13 -1.77" fill="none" stroke="#1e1e1e" stroke-width="1"></path></g><g transform="translate(177.67808532714844 308.4755859375) rotate(0 34.798828125 -0.796875)"><path d="M41.13 9 C48.72 6.92, 52.66 5.56, 69.13 -1.77 M41.13 9 C47.73 6.96, 56.36 2.69, 69.13 -1.77" fill="none" stroke="#1e1e1e" stroke-width="1"></path></g><g transform="translate(177.67808532714844 308.4755859375) rotate(0 34.798828125 -0.796875)"><path d="M40.76 -11.51 C48.36 -8.7, 52.39 -5.16, 69.13 -1.77 M40.76 -11.51 C47.48 -8.12, 56.21 -6.95, 69.13 -1.77" fill="none" stroke="#1e1e1e" stroke-width="1"></path></g></g><mask></mask><g stroke-linecap="round"><g transform="translate(429.8673629760742 312.4736328125) rotate(0 26.9296875 -0.751953125)"><path d="M0.9 0.34 C9.9 0.31, 45.09 -0.51, 54.03 -0.72 M-0.08 -0.53 C8.77 -0.85, 44.13 -2.03, 53.17 -2.43" fill="none" stroke="#1e1e1e" stroke-width="2"></path></g><g transform="translate(429.8673629760742 312.4736328125) rotate(0 26.9296875 -0.751953125)"><path d="M28.23 7.74 C36.37 4.77, 44.63 2.6, 53.17 -2.43 M28.23 7.74 C36.57 3.81, 45.95 0.75, 53.17 -2.43" fill="none" stroke="#1e1e1e" stroke-width="2"></path></g><g transform="translate(429.8673629760742 312.4736328125) rotate(0 26.9296875 -0.751953125)"><path d="M27.52 -10.67 C35.79 -8.09, 44.28 -4.71, 53.17 -2.43 M27.52 -10.67 C36.03 -8.18, 45.65 -4.82, 53.17 -2.43" fill="none" stroke="#1e1e1e" stroke-width="2"></path></g></g><mask></mask></svg>