<svg height="729.353515625" version="1.1" viewbox="0 0 1263.1939739376012 729.353515625" width="1263.1939739376012" xmlns="http://www.w3.org/2000/svg">
<!-- svg-source:excalidraw -->
<!-- payload-type:application/vnd.excalidraw+json --><!-- payload-version:2 -->
<defs>
<style class="style-fonts">
</style>
</defs>
<rect fill="#ffffff" height="729.353515625" width="1263.1939739376012" x="0" y="0"></rect><g stroke-linecap="round" transform="translate(495.03151361045263 243.7724609375) rotate(0 78.412109375 65.912109375)"><path d="M32 0 C58.15 -0.12, 78.55 1.4, 124.82 0 M32 0 C53.8 0.4, 74.9 -1.13, 124.82 0 M124.82 0 C145.32 -0.76, 157.49 9.19, 156.82 32 M124.82 0 C143.87 -0.86, 158.31 12.35, 156.82 32 M156.82 32 C155.16 50.47, 156.13 70.66, 156.82 99.82 M156.82 32 C155.8 55.3, 155.98 78.05, 156.82 99.82 M156.82 99.82 C155.25 121.29, 147.15 133.43, 124.82 131.82 M156.82 99.82 C158.81 120.43, 147.16 131.89, 124.82 131.82 M124.82 131.82 C92.05 130.82, 62.49 131.47, 32 131.82 M124.82 131.82 C93.49 132.19, 64.16 133.43, 32 131.82 M32 131.82 C9.48 130.36, -0.58 121.13, 0 99.82 M32 131.82 C10.48 130.48, 0.87 120.07, 0 99.82 M0 99.82 C1.28 85.33, 0.8 72.01, 0 32 M0 99.82 C0.79 84.38, 0.4 69.57, 0 32 M0 32 C-1.61 10.09, 10.22 1.63, 32 0 M0 32 C1.01 10.91, 10.53 1.34, 32 0" fill="none" stroke="#1e1e1e" stroke-width="1"></path></g><g transform="translate(513.8936733394565 297.1845703125) rotate(0 59.549949645996094 12.5)"><text direction="ltr" dominant-baseline="text-before-edge" fill="#1e1e1e" font-family="Virgil, Segoe UI Emoji" font-size="20px" style="white-space: pre;" text-anchor="middle" x="59.549949645996094" y="0">Chat Server</text></g><g stroke-linecap="round" transform="translate(776.3752636104526 254.1044921875) rotate(0 88.328125 62.013671875)"><path d="M31.01 0 C62.97 -0.54, 98.29 -0.15, 145.65 0 M31.01 0 C72.8 0.59, 115.76 0.23, 145.65 0 M145.65 0 C164.33 -0.74, 177.95 11.8, 176.66 31.01 M145.65 0 C166.1 0.35, 175.4 8.31, 176.66 31.01 M176.66 31.01 C177.25 44.57, 177.06 59.43, 176.66 93.02 M176.66 31.01 C175.61 50.3, 176.89 70.26, 176.66 93.02 M176.66 93.02 C178.38 113.06, 167.19 124.09, 145.65 124.03 M176.66 93.02 C177.62 115.46, 167.48 122.86, 145.65 124.03 M145.65 124.03 C120.29 121.7, 95.44 122.35, 31.01 124.03 M145.65 124.03 C115.72 124.21, 86.69 124.93, 31.01 124.03 M31.01 124.03 C10.17 122.85, 0.76 112.75, 0 93.02 M31.01 124.03 C8.05 126.18, -0.78 115.89, 0 93.02 M0 93.02 C-1.93 77.66, 0.76 63.2, 0 31.01 M0 93.02 C-1.16 74.88, -0.58 58.12, 0 31.01 M0 31.01 C0.88 10.55, 10.22 1.16, 31.01 0 M0 31.01 C0.09 10.03, 12.48 -1.51, 31.01 0" fill="none" stroke="#1e1e1e" stroke-width="1"></path></g><g transform="translate(806.403431335062 291.1181640625) rotate(0 58.299957275390625 25)"><text direction="ltr" dominant-baseline="text-before-edge" fill="#1e1e1e" font-family="Virgil, Segoe UI Emoji" font-size="20px" style="white-space: pre;" text-anchor="middle" x="58.299957275390625" y="0">Database</text><text direction="ltr" dominant-baseline="text-before-edge" fill="#1e1e1e" font-family="Virgil, Segoe UI Emoji" font-size="20px" style="white-space: pre;" text-anchor="middle" x="58.299957275390625" y="25">(DynamoDB)</text></g><g stroke-linecap="round"><g transform="translate(664.7307323604526 314.4453248125696) rotate(0 46.234375 0.2670967914214941)"><path d="M-0.1 -1.02 C15.17 -1.14, 76.47 -0.03, 91.97 0.08 M-1.61 1.06 C13.43 1.03, 75.1 1.47, 90.76 1.38" fill="none" stroke="#1e1e1e" stroke-width="1"></path></g><g transform="translate(664.7307323604526 314.4453248125696) rotate(0 46.234375 0.2670967914214941)"><path d="M62.55 11.6 C70.12 7.4, 80.39 5.52, 90.76 1.38 M62.55 11.6 C69.68 10.13, 75.32 7.23, 90.76 1.38" fill="none" stroke="#1e1e1e" stroke-width="1"></path></g><g transform="translate(664.7307323604526 314.4453248125696) rotate(0 46.234375 0.2670967914214941)"><path d="M62.58 -8.92 C70.28 -6.33, 80.54 -1.42, 90.76 1.38 M62.58 -8.92 C69.5 -5.75, 75.13 -4, 90.76 1.38" fill="none" stroke="#1e1e1e" stroke-width="1"></path></g></g><mask></mask><g transform="translate(1053.2151073604527 87.3251953125) rotate(0 58.799964904785156 50)"><text direction="ltr" dominant-baseline="text-before-edge" fill="#1e1e1e" font-family="Virgil, Segoe UI Emoji" font-size="20px" style="white-space: pre;" text-anchor="start" x="0" y="0">Chat</text><text direction="ltr" dominant-baseline="text-before-edge" fill="#1e1e1e" font-family="Virgil, Segoe UI Emoji" font-size="20px" style="white-space: pre;" text-anchor="start" x="0" y="25">  id</text><text direction="ltr" dominant-baseline="text-before-edge" fill="#1e1e1e" font-family="Virgil, Segoe UI Emoji" font-size="20px" style="white-space: pre;" text-anchor="start" x="0" y="50">  name</text><text direction="ltr" dominant-baseline="text-before-edge" fill="#1e1e1e" font-family="Virgil, Segoe UI Emoji" font-size="20px" style="white-space: pre;" text-anchor="start" x="0" y="75">  metadata</text></g><g transform="translate(1051.7784465938512 243.8642578125) rotate(0 78.24993133544922 37.5)"><text direction="ltr" dominant-baseline="text-before-edge" fill="#1e1e1e" font-family="Virgil, Segoe UI Emoji" font-size="20px" style="white-space: pre;" text-anchor="start" x="0" y="0">ChatParticipant</text><text direction="ltr" dominant-baseline="text-before-edge" fill="#1e1e1e" font-family="Virgil, Segoe UI Emoji" font-size="20px" style="white-space: pre;" text-anchor="start" x="0" y="25">  chatId</text><text direction="ltr" dominant-baseline="text-before-edge" fill="#1e1e1e" font-family="Virgil, Segoe UI Emoji" font-size="20px" style="white-space: pre;" text-anchor="start" x="0" y="50">  participantId</text></g><g stroke-linecap="round" transform="translate(1005.7291301876011 10) rotate(0 123.732421875 159.720703125)"><path d="M32 0 C70.28 -1.38, 105.93 -2.28, 215.46 0 M215.46 0 C235.03 -1.22, 246.67 9.95, 247.46 32 M247.46 32 C245.21 119.55, 245.49 206.19, 247.46 287.44 M247.46 287.44 C245.89 308.91, 237.79 321.05, 215.46 319.44 M215.46 319.44 C144.67 321.09, 75.29 321.25, 32 319.44 M32 319.44 C9.65 317.97, 1.18 307.96, 0 287.44 M0 287.44 C0.95 202.17, 3.21 119.6, 0 32 M0 32 C-1.18 9.2, 10.09 -0.03, 32 0" fill="none" stroke="#1e1e1e" stroke-dasharray="8 10" stroke-width="2.5"></path></g><g transform="translate(1102.1236614376012 31.7109375) rotate(0 33.17998504638672 17.5)"><text direction="ltr" dominant-baseline="text-before-edge" fill="#1e1e1e" font-family="Virgil, Segoe UI Emoji" font-size="28px" style="white-space: pre;" text-anchor="start" x="0" y="0">Chat</text></g><g transform="translate(1044.0569042354527 437.8623046875) rotate(0 88.07991790771484 37.5)"><text direction="ltr" dominant-baseline="text-before-edge" fill="#1e1e1e" font-family="Virgil, Segoe UI Emoji" font-size="20px" style="white-space: pre;" text-anchor="start" x="0" y="0">Inbox</text><text direction="ltr" dominant-baseline="text-before-edge" fill="#1e1e1e" font-family="Virgil, Segoe UI Emoji" font-size="20px" style="white-space: pre;" text-anchor="start" x="0" y="25">  recipientClientId</text><text direction="ltr" dominant-baseline="text-before-edge" fill="#1e1e1e" font-family="Virgil, Segoe UI Emoji" font-size="20px" style="white-space: pre;" text-anchor="start" x="0" y="50">  messageId</text></g><g transform="translate(1033.6163372188512 563.8896484375) rotate(0 58.64994812011719 62.5)"><text direction="ltr" dominant-baseline="text-before-edge" fill="#1e1e1e" font-family="Virgil, Segoe UI Emoji" font-size="20px" style="white-space: pre;" text-anchor="start" x="0" y="0">Message</text><text direction="ltr" dominant-baseline="text-before-edge" fill="#1e1e1e" font-family="Virgil, Segoe UI Emoji" font-size="20px" style="white-space: pre;" text-anchor="start" x="0" y="25">  id</text><text direction="ltr" dominant-baseline="text-before-edge" fill="#1e1e1e" font-family="Virgil, Segoe UI Emoji" font-size="20px" style="white-space: pre;" text-anchor="start" x="0" y="50">  contents</text><text direction="ltr" dominant-baseline="text-before-edge" fill="#1e1e1e" font-family="Virgil, Segoe UI Emoji" font-size="20px" style="white-space: pre;" text-anchor="start" x="0" y="75">  creatorId</text><text direction="ltr" dominant-baseline="text-before-edge" fill="#1e1e1e" font-family="Virgil, Segoe UI Emoji" font-size="20px" style="white-space: pre;" text-anchor="start" x="0" y="100">  timestamp</text></g><g stroke-linecap="round" transform="translate(996.5709270626011 360.130859375) rotate(0 127.10546875 179.611328125)"><path d="M32 0 C78.28 -0.57, 123.52 -0.52, 222.21 0 M222.21 0 C243.74 -0.85, 253.49 9.1, 254.21 32 M254.21 32 C256.57 122.03, 255.94 213.05, 254.21 327.22 M254.21 327.22 C255.05 350.09, 244.55 358.21, 222.21 359.22 M222.21 359.22 C179.73 356.58, 137.75 357.24, 32 359.22 M32 359.22 C9.78 360.81, 1.59 347.37, 0 327.22 M0 327.22 C0.51 259.45, 1.19 192.71, 0 32 M0 32 C-1.99 12.54, 9.98 1.91, 32 0" fill="none" stroke="#1e1e1e" stroke-dasharray="8 10" stroke-width="2.5"></path></g><g transform="translate(1054.3365520626012 381.005859375) rotate(0 72.79998016357422 17.5)"><text direction="ltr" dominant-baseline="text-before-edge" fill="#1e1e1e" font-family="Virgil, Segoe UI Emoji" font-size="28px" style="white-space: pre;" text-anchor="start" x="0" y="0">Messsages</text></g><g stroke-linecap="round" transform="translate(708.6869625240269 431.9912109375) rotate(0 127.10546874999994 85.47265625)"><path d="M32 0 C79.86 -2.14, 127.08 0.08, 222.21 0 M222.21 0 C242.85 -0.52, 254.42 10.28, 254.21 32 M254.21 32 C255.07 66.35, 252.45 102.98, 254.21 138.95 M254.21 138.95 C255.1 159.54, 242.09 172.17, 222.21 170.95 M222.21 170.95 C145.31 172.84, 73.69 172.49, 32 170.95 M32 170.95 C10.99 172.6, 1.91 158.37, 0 138.95 M0 138.95 C0.75 106.15, -1.12 74.28, 0 32 M0 32 C-0.35 9.95, 11.38 0.64, 32 0" fill="none" stroke="#1e1e1e" stroke-dasharray="8 10" stroke-width="2.5"></path></g><g transform="translate(790.0002636104526 453.2822265625) rotate(0 45.47197723388672 17.5)"><text direction="ltr" dominant-baseline="text-before-edge" fill="#1e1e1e" font-family="Virgil, Segoe UI Emoji" font-size="28px" style="white-space: pre;" text-anchor="start" x="0" y="0">Clients</text></g><g transform="translate(740.802357116312 512.6416015625) rotate(0 42.01996612548828 37.5)"><text direction="ltr" dominant-baseline="text-before-edge" fill="#1e1e1e" font-family="Virgil, Segoe UI Emoji" font-size="20px" style="white-space: pre;" text-anchor="start" x="0" y="0">Clients</text><text direction="ltr" dominant-baseline="text-before-edge" fill="#1e1e1e" font-family="Virgil, Segoe UI Emoji" font-size="20px" style="white-space: pre;" text-anchor="start" x="0" y="25">  id</text><text direction="ltr" dominant-baseline="text-before-edge" fill="#1e1e1e" font-family="Virgil, Segoe UI Emoji" font-size="20px" style="white-space: pre;" text-anchor="start" x="0" y="50">  userId</text></g><g stroke-linecap="round" transform="translate(487.32856408652685 473.85148219373076) rotate(0 87.173828125 62.2578125)"><path d="M31.13 0 C58.23 -0.09, 84.67 1.2, 143.22 0 M31.13 0 C57.08 1.6, 84.47 1.53, 143.22 0 M143.22 0 C164.39 1.94, 172.47 11.04, 174.35 31.13 M143.22 0 C164.88 -0.01, 173.26 8.9, 174.35 31.13 M174.35 31.13 C173.28 54.01, 173.34 75.42, 174.35 93.39 M174.35 31.13 C174.74 54.37, 175.7 76.94, 174.35 93.39 M174.35 93.39 C176.26 112.32, 163.08 124.35, 143.22 124.52 M174.35 93.39 C174.68 112.62, 164.38 124.52, 143.22 124.52 M143.22 124.52 C116.01 125.57, 90.84 123.3, 31.13 124.52 M143.22 124.52 C119.3 125.43, 96.69 124.56, 31.13 124.52 M31.13 124.52 C9.95 124.37, 1.66 112.77, 0 93.39 M31.13 124.52 C11.99 124.62, 0.37 112.69, 0 93.39 M0 93.39 C-2.59 70.58, -1.93 47.95, 0 31.13 M0 93.39 C0.63 77.46, -0.51 62.39, 0 31.13 M0 31.13 C1.45 11.29, 10.82 -1.12, 31.13 0 M0 31.13 C1.03 12.15, 9.5 1.41, 31.13 0" fill="none" stroke="#1e1e1e" stroke-width="1"></path></g><g stroke-linecap="round" transform="translate(499.96332971152685 483.57804469373076) rotate(0 87.173828125 62.2578125)"><path d="M31.13 0 C63.34 1.18, 94.16 1.81, 143.22 0 M31.13 0 C57.3 -0.18, 83.85 0, 143.22 0 M143.22 0 C162.1 0.66, 175.14 10.37, 174.35 31.13 M143.22 0 C162.88 -1.48, 175.67 8.51, 174.35 31.13 M174.35 31.13 C173.67 54.94, 175.61 81.13, 174.35 93.39 M174.35 31.13 C174.96 48.24, 175.17 65.39, 174.35 93.39 M174.35 93.39 C173.46 113.97, 164.26 123.19, 143.22 124.52 M174.35 93.39 C174.76 114.15, 162.55 124.42, 143.22 124.52 M143.22 124.52 C120.02 125.36, 92.91 126.86, 31.13 124.52 M143.22 124.52 C109.29 125.48, 74.84 125.42, 31.13 124.52 M31.13 124.52 C12.04 123.14, 1.4 114.23, 0 93.39 M31.13 124.52 C10.75 123.07, 1.62 116.33, 0 93.39 M0 93.39 C-0.71 69.4, -0.4 44.26, 0 31.13 M0 93.39 C-0.87 75.83, 0.3 58.72, 0 31.13 M0 31.13 C0.44 9.26, 11.27 1.54, 31.13 0 M0 31.13 C-0.88 11.79, 10.71 -0.88, 31.13 0" fill="none" stroke="#1e1e1e" stroke-width="1"></path></g><g transform="translate(517.3672222286167 533.3358571937308) rotate(0 69.76993560791016 12.5)"><text direction="ltr" dominant-baseline="text-before-edge" fill="#1e1e1e" font-family="Virgil, Segoe UI Emoji" font-size="20px" style="white-space: pre;" text-anchor="middle" x="69.76993560791016" y="0">Redis Pub/Sub</text></g><g stroke-linecap="round"><g transform="translate(525.4202690958549 394.51945094373076) rotate(0 -0.4108125559287714 36.939453125)"><path d="M1.01 -0.79 C0.62 11.82, -1.41 62.31, -1.73 74.92 M0.08 1.41 C0 13.77, 0.81 61.41, 0.51 73.34" fill="none" stroke="#1e1e1e" stroke-width="1"></path></g><g transform="translate(525.4202690958549 394.51945094373076) rotate(0 -0.4108125559287714 36.939453125)"><path d="M10.22 27.76 C5.84 16.27, 5.63 7.55, 1.01 -0.79 M10.22 27.76 C5.73 17.36, 3.57 6.2, 1.01 -0.79" fill="none" stroke="#1e1e1e" stroke-width="1"></path></g><g transform="translate(525.4202690958549 394.51945094373076) rotate(0 -0.4108125559287714 36.939453125)"><path d="M-10.29 27 C-7.45 15.61, -0.43 7.16, 1.01 -0.79 M-10.29 27 C-7 16.69, -1.38 5.81, 1.01 -0.79" fill="none" stroke="#1e1e1e" stroke-width="1"></path></g><g transform="translate(525.4202690958549 394.51945094373076) rotate(0 -0.4108125559287714 36.939453125)"><path d="M-9.71 45.13 C-7.6 53.47, -0.96 64.75, 0.51 73.34 M-9.71 45.13 C-6.71 56.06, -1.51 66.42, 0.51 73.34" fill="none" stroke="#1e1e1e" stroke-width="1"></path></g><g transform="translate(525.4202690958549 394.51945094373076) rotate(0 -0.4108125559287714 36.939453125)"><path d="M10.81 45.16 C5.69 53.66, 5.1 64.93, 0.51 73.34 M10.81 45.16 C6.03 56.28, 3.45 66.62, 0.51 73.34" fill="none" stroke="#1e1e1e" stroke-width="1"></path></g></g><mask></mask><g stroke-linecap="round"><g transform="translate(562.3559078365269 398.77335719373076) rotate(0 0.4609375 33.478515625)"><path d="M-0.91 1.04 C-0.94 12.49, 0.48 56.73, 0.82 67.91 M0.82 0.53 C0.53 11.73, -0.13 55.31, -0.18 66.28" fill="none" stroke="#1e1e1e" stroke-width="1"></path></g><g transform="translate(562.3559078365269 398.77335719373076) rotate(0 0.4609375 33.478515625)"><path d="M10.03 28.97 C7.74 17.99, 3.4 7.85, -0.91 1.04 M10.03 28.97 C6.35 17.91, 1.14 6.19, -0.91 1.04" fill="none" stroke="#1e1e1e" stroke-width="1"></path></g><g transform="translate(562.3559078365269 398.77335719373076) rotate(0 0.4609375 33.478515625)"><path d="M-10.49 29.47 C-4.89 18.45, -1.36 8.12, -0.91 1.04 M-10.49 29.47 C-6.02 18.14, -3.09 6.22, -0.91 1.04" fill="none" stroke="#1e1e1e" stroke-width="1"></path></g><g transform="translate(562.3559078365269 398.77335719373076) rotate(0 0.4609375 33.478515625)"><path d="M-10.14 37.98 C-4.77 48.76, -1.09 60.22, -0.18 66.28 M-10.14 37.98 C-6.05 49.18, -2.97 59.78, -0.18 66.28" fill="none" stroke="#1e1e1e" stroke-width="1"></path></g><g transform="translate(562.3559078365269 398.77335719373076) rotate(0 0.4609375 33.478515625)"><path d="M10.38 38.2 C7.87 48.74, 3.67 60.11, -0.18 66.28 M10.38 38.2 C6.32 49.38, 1.26 59.89, -0.18 66.28" fill="none" stroke="#1e1e1e" stroke-width="1"></path></g></g><mask></mask><g stroke-linecap="round"><g transform="translate(613.1215328365269 399.80460719373076) rotate(0 0.900390625 33.75390625)"><path d="M-0.1 0.95 C0.39 12.22, 1.92 57.51, 2.05 68.67 M-1.61 0.4 C-1.18 11.89, 0.47 56.27, 1.24 67.16" fill="none" stroke="#1e1e1e" stroke-width="1"></path></g><g transform="translate(613.1215328365269 399.80460719373076) rotate(0 0.900390625 33.75390625)"><path d="M11.12 28.77 C9.94 22.94, 7.78 14.4, -0.1 0.95 M11.12 28.77 C6.8 18.86, 4.11 9.42, -0.1 0.95" fill="none" stroke="#1e1e1e" stroke-width="1"></path></g><g transform="translate(613.1215328365269 399.80460719373076) rotate(0 0.900390625 33.75390625)"><path d="M-9.39 29.48 C-5.97 23.5, -3.53 14.8, -0.1 0.95 M-9.39 29.48 C-6.88 19.33, -2.74 9.66, -0.1 0.95" fill="none" stroke="#1e1e1e" stroke-width="1"></path></g><g transform="translate(613.1215328365269 399.80460719373076) rotate(0 0.900390625 33.75390625)"><path d="M-10.45 39.53 C-6 46.16, -3.02 50.07, 1.24 67.16 M-10.45 39.53 C-6.92 48.09, -1.98 57.13, 1.24 67.16" fill="none" stroke="#1e1e1e" stroke-width="1"></path></g><g transform="translate(613.1215328365269 399.80460719373076) rotate(0 0.900390625 33.75390625)"><path d="M10.05 38.48 C9.9 45.33, 8.28 49.48, 1.24 67.16 M10.05 38.48 C6.75 47.4, 4.86 56.78, 1.24 67.16" fill="none" stroke="#1e1e1e" stroke-width="1"></path></g></g><mask></mask><g stroke-linecap="round" transform="translate(483.3638840076377 232.54125224179847) rotate(0 78.412109375 65.912109375)"><path d="M32 0 C67.84 2.33, 99.22 1.86, 124.82 0 M32 0 C67.37 1.59, 102.79 0.02, 124.82 0 M124.82 0 C144.81 0.93, 155.03 9.35, 156.82 32 M124.82 0 C148.11 -2.12, 155.7 9.71, 156.82 32 M156.82 32 C156.35 51.22, 157.08 74.45, 156.82 99.82 M156.82 32 C157.93 57.93, 156.27 83.08, 156.82 99.82 M156.82 99.82 C158.13 121.28, 144.5 131.01, 124.82 131.82 M156.82 99.82 C158.2 121.4, 147.67 132.01, 124.82 131.82 M124.82 131.82 C95.7 133.07, 69.44 131.34, 32 131.82 M124.82 131.82 C96.41 131.83, 68.17 131.47, 32 131.82 M32 131.82 C11.94 130.89, -1.5 119.55, 0 99.82 M32 131.82 C10.7 132.08, -0.54 122.29, 0 99.82 M0 99.82 C-2.08 77.69, 1.11 53.02, 0 32 M0 99.82 C-0.36 76.87, 0.17 54.9, 0 32 M0 32 C-1.07 11.14, 12.18 -0.45, 32 0 M0 32 C1.18 12.27, 10.78 -2.03, 32 0" fill="none" stroke="#1e1e1e" stroke-width="1"></path></g><g stroke-linecap="round" transform="translate(10 215.27540169199233) rotate(0 79.794921875 79.705078125)"><path d="M98.69 1.76 C108.9 3.08, 119.62 9.78, 128.37 16.52 C137.12 23.25, 146 32.56, 151.18 42.19 C156.37 51.82, 158.75 63.57, 159.48 74.29 C160.21 85.01, 159.41 96.27, 155.57 106.53 C151.73 116.78, 144.19 127.84, 136.41 135.83 C128.63 143.81, 118.68 150.6, 108.89 154.44 C99.1 158.28, 88.18 159.36, 77.67 158.86 C67.16 158.37, 55.72 156.15, 45.81 151.47 C35.9 146.8, 25.17 138.99, 18.18 130.82 C11.2 122.66, 6.94 112.86, 3.91 102.47 C0.88 92.08, -1.39 79.29, 0 68.48 C1.39 57.67, 6.32 46.61, 12.27 37.61 C18.22 28.62, 26.72 20.48, 35.7 14.48 C44.68 8.49, 54.19 3.16, 66.16 1.67 C78.13 0.18, 99.69 4.25, 107.52 5.56 C115.35 6.86, 113.81 8.21, 113.16 9.49 M103.49 3.06 C113.51 5.06, 124.22 12.49, 132.61 19.86 C141 27.22, 149.18 37.01, 153.82 47.25 C158.47 57.49, 160.91 70.67, 160.49 81.3 C160.07 91.94, 156.03 101.59, 151.29 111.08 C146.55 120.57, 139.99 130.73, 132.07 138.25 C124.15 145.76, 113.71 152.49, 103.77 156.16 C93.84 159.83, 83.15 161.67, 72.47 160.25 C61.79 158.83, 49.27 153.21, 39.69 147.64 C30.12 142.07, 21.58 135.52, 15.02 126.85 C8.46 118.17, 2.38 106.44, 0.33 95.58 C-1.73 84.73, 0.06 72.23, 2.68 61.71 C5.3 51.18, 9.67 40.89, 16.06 32.41 C22.45 23.94, 31.49 16.2, 41.02 10.86 C50.55 5.52, 62.43 1.45, 73.23 0.38 C84.04 -0.7, 100.66 3.78, 105.88 4.41 C111.09 5.03, 105.15 3.03, 104.52 4.15" fill="none" stroke="#1e1e1e" stroke-width="1"></path></g><g transform="translate(62.82141897875704 282.6204785798013) rotate(0 27.049972534179688 12.5)"><text direction="ltr" dominant-baseline="text-before-edge" fill="#1e1e1e" font-family="Virgil, Segoe UI Emoji" font-size="20px" style="white-space: pre;" text-anchor="middle" x="27.049972534179688" y="0">Client</text></g><g transform="translate(162.07421875 199.02735481699233) rotate(0 49.859954833984375 25)"><text direction="ltr" dominant-baseline="text-before-edge" fill="#1e1e1e" font-family="Virgil, Segoe UI Emoji" font-size="20px" style="white-space: pre;" text-anchor="middle" x="49.859954833984375" y="0">WS </text><text direction="ltr" dominant-baseline="text-before-edge" fill="#1e1e1e" font-family="Virgil, Segoe UI Emoji" font-size="20px" style="white-space: pre;" text-anchor="middle" x="49.859954833984375" y="25">Connection</text></g><g stroke-linecap="round" transform="translate(259.68394470214844 231.56739387949233) rotate(0 78.412109375 65.912109375)"><path d="M32 0 C54.53 -0.16, 81.06 0.43, 124.82 0 M32 0 C60.25 -1.53, 90.08 -1.56, 124.82 0 M124.82 0 C147.85 1.24, 155.82 12.59, 156.82 32 M124.82 0 C146.42 -1.17, 156.49 12.53, 156.82 32 M156.82 32 C156.63 57.72, 157.41 84.65, 156.82 99.82 M156.82 32 C157.9 53.27, 157.14 75.58, 156.82 99.82 M156.82 99.82 C158.73 122.43, 146.1 131.17, 124.82 131.82 M156.82 99.82 C154.93 119.73, 144.94 130.58, 124.82 131.82 M124.82 131.82 C92.45 130.67, 54.84 131.18, 32 131.82 M124.82 131.82 C103.33 133.04, 80.13 131.54, 32 131.82 M32 131.82 C10.6 132.53, -1.81 120.61, 0 99.82 M32 131.82 C12.01 130.07, 0.99 120.84, 0 99.82 M0 99.82 C-0.19 77.08, 0.4 51.67, 0 32 M0 99.82 C0.97 85.63, -0.23 70.47, 0 32 M0 32 C0.84 11.28, 10.35 0.4, 32 0 M0 32 C-1.08 9.31, 12.82 -1.52, 32 0" fill="none" stroke="#1e1e1e" stroke-width="1"></path></g><g transform="translate(307.4460678100586 284.97950325449233) rotate(0 30.649986267089844 12.5)"><text direction="ltr" dominant-baseline="text-before-edge" fill="#1e1e1e" font-family="Virgil, Segoe UI Emoji" font-size="20px" style="white-space: pre;" text-anchor="middle" x="30.649986267089844" y="0">L4 LB</text></g><g stroke-linecap="round"><g transform="translate(177.67808532714844 289.77637825449233) rotate(0 34.798828125 -0.796875)"><path d="M-0.07 0.1 C11.63 -0.2, 58.29 -0.21, 69.82 -0.66 M-1.57 -0.89 C10.03 -1, 57.38 -2.15, 68.99 -2.29" fill="none" stroke="#1e1e1e" stroke-width="1"></path></g><g transform="translate(177.67808532714844 289.77637825449233) rotate(0 34.798828125 -0.796875)"><path d="M41 8.5 C48.47 6.04, 57.25 2.01, 68.99 -2.29 M41 8.5 C47.9 6.99, 52.68 4.97, 68.99 -2.29" fill="none" stroke="#1e1e1e" stroke-width="1"></path></g><g transform="translate(177.67808532714844 289.77637825449233) rotate(0 34.798828125 -0.796875)"><path d="M40.61 -12.01 C48.38 -9.05, 57.26 -7.66, 68.99 -2.29 M40.61 -12.01 C47.75 -9.03, 52.62 -6.56, 68.99 -2.29" fill="none" stroke="#1e1e1e" stroke-width="1"></path></g></g><mask></mask><g stroke-linecap="round"><g transform="translate(427.6145978069418 300.2844519174258) rotate(0 21.8940437384355 0.4369148319242413)"><path d="M0.38 -0.21 C7.59 0.03, 36.08 1.1, 43.29 1.27 M-0.08 -0.8 C7.29 -0.68, 37.05 0.15, 44.26 0.51" fill="none" stroke="#1e1e1e" stroke-width="1"></path></g><g transform="translate(427.6145978069418 300.2844519174258) rotate(0 21.8940437384355 0.4369148319242413)"><path d="M23.42 7.24 C29.43 4.19, 36.93 2.72, 44.26 0.51 M23.42 7.24 C29.14 5.31, 34.94 3.62, 44.26 0.51" fill="none" stroke="#1e1e1e" stroke-width="1"></path></g><g transform="translate(427.6145978069418 300.2844519174258) rotate(0 21.8940437384355 0.4369148319242413)"><path d="M23.98 -7.73 C29.79 -6.19, 37.11 -3.07, 44.26 0.51 M23.98 -7.73 C29.58 -5.35, 35.21 -2.74, 44.26 0.51" fill="none" stroke="#1e1e1e" stroke-width="1"></path></g></g><mask></mask></svg>