<svg height="396.735595703125" version="1.1" viewbox="0 0 850.8203125 396.735595703125" width="850.8203125" xmlns="http://www.w3.org/2000/svg">
<!-- svg-source:excalidraw -->
<!-- payload-type:application/vnd.excalidraw+json --><!-- payload-version:2 -->
<defs>
<style class="style-fonts">
</style>
</defs>
<rect fill="#ffffff" height="396.735595703125" width="850.8203125" x="0" y="0"></rect><g stroke-linecap="round" transform="translate(10 11.615234375) rotate(0 79.794921875 79.705078125)"><path d="M65 2.05 C74.98 -1.25, 87.83 -1.22, 98.3 1.11 C108.76 3.45, 119.26 9.39, 127.78 16.07 C136.31 22.74, 144.19 31.66, 149.47 41.16 C154.75 50.66, 158.56 62.1, 159.47 73.06 C160.38 84.02, 158.59 96.84, 154.91 106.93 C151.23 117.02, 144.69 125.78, 137.39 133.61 C130.1 141.44, 121.09 149.56, 111.12 153.91 C101.16 158.26, 88.61 160.06, 77.59 159.72 C66.57 159.39, 54.85 156.41, 44.99 151.9 C35.14 147.39, 25.41 140.86, 18.46 132.67 C11.52 124.48, 6.15 113.37, 3.33 102.76 C0.51 92.14, 0.2 79.65, 1.56 68.99 C2.91 58.32, 5.9 48.04, 11.45 38.77 C17 29.5, 24.63 19.62, 34.85 13.35 C45.06 7.08, 65.43 3.05, 72.74 1.14 C80.06 -0.77, 78.8 0.76, 78.72 1.91 M82.66 0.89 C93.07 0.18, 106.47 3.43, 116.18 8.12 C125.9 12.8, 134.11 20.76, 140.95 29 C147.78 37.24, 154.43 47.24, 157.18 57.54 C159.93 67.83, 158.89 80.19, 157.46 90.78 C156.02 101.36, 154.23 112.05, 148.59 121.05 C142.95 130.04, 133.07 138.65, 123.62 144.76 C114.16 150.87, 102.6 155.57, 91.87 157.69 C81.13 159.8, 69.43 160.19, 59.2 157.47 C48.97 154.74, 39.1 148.09, 30.5 141.32 C21.89 134.54, 12.54 126.41, 7.59 116.82 C2.64 107.24, 1.02 94.88, 0.8 83.8 C0.57 72.73, 2.37 60.46, 6.22 50.4 C10.07 40.34, 16.46 30.79, 23.9 23.43 C31.33 16.07, 41.16 9.94, 50.86 6.24 C60.55 2.54, 76.55 2.03, 82.09 1.22 C87.63 0.41, 83.81 0.08, 84.1 1.36" fill="none" stroke="#1e1e1e" stroke-width="1"></path></g><g transform="translate(62.82141897875704 78.96031126280894) rotate(0 27.049972534179688 12.5)"><text direction="ltr" dominant-baseline="text-before-edge" fill="#1e1e1e" font-family="Virgil, Segoe UI Emoji" font-size="20px" style="white-space: pre;" text-anchor="middle" x="27.049972534179688" y="0">Client</text></g><g stroke-linecap="round" transform="translate(664.1640625 27.505859375) rotate(0 88.328125 62.013671875)"><path d="M31.01 0 C61.37 1.13, 91.68 -2.16, 145.65 0 M31.01 0 C62.13 0.46, 93.59 0.06, 145.65 0 M145.65 0 C168.31 -1.11, 175.32 11.18, 176.66 31.01 M145.65 0 C167.97 -1.18, 177.42 8.48, 176.66 31.01 M176.66 31.01 C175.96 50.18, 177.94 67.81, 176.66 93.02 M176.66 31.01 C175.99 49.75, 177.65 66.51, 176.66 93.02 M176.66 93.02 C177.28 112.69, 165.77 124.2, 145.65 124.03 M176.66 93.02 C177.2 112.76, 165.49 125.28, 145.65 124.03 M145.65 124.03 C104.86 124.42, 62.88 122.05, 31.01 124.03 M145.65 124.03 C115.98 122.02, 85.9 122.52, 31.01 124.03 M31.01 124.03 C9.43 124.8, 0.43 112.61, 0 93.02 M31.01 124.03 C8.1 124.41, 0.98 112.41, 0 93.02 M0 93.02 C-0.01 69.98, 1.5 44.47, 0 31.01 M0 93.02 C0.24 70.27, -0.31 45.67, 0 31.01 M0 31.01 C1.51 9.41, 11.47 -1.52, 31.01 0 M0 31.01 C-0.21 8.71, 12.43 1.22, 31.01 0" fill="none" stroke="#1e1e1e" stroke-width="1"></path></g><g transform="translate(694.1922302246094 64.51953125) rotate(0 58.299957275390625 25)"><text direction="ltr" dominant-baseline="text-before-edge" fill="#1e1e1e" font-family="Virgil, Segoe UI Emoji" font-size="20px" style="white-space: pre;" text-anchor="middle" x="58.299957275390625" y="0">Database</text><text direction="ltr" dominant-baseline="text-before-edge" fill="#1e1e1e" font-family="Virgil, Segoe UI Emoji" font-size="20px" style="white-space: pre;" text-anchor="middle" x="58.299957275390625" y="25">(DynamoDB)</text></g><g stroke-linecap="round"><g transform="translate(176.42301733987142 91.6928301006522) rotate(0 68.92716320506429 0.3513224763621423)"><path d="M-1.2 -0.32 C21.62 -0.31, 114.52 0.18, 137.66 0.39 M0.37 -1.54 C22.94 -1.38, 113.87 1.12, 136.61 1.76" fill="none" stroke="#1e1e1e" stroke-width="1"></path></g><g transform="translate(176.42301733987142 91.6928301006522) rotate(0 68.92716320506429 0.3513224763621423)"><path d="M108.14 11.24 C117.95 7.74, 128.34 4.28, 136.61 1.76 M108.14 11.24 C118.13 7.76, 125.45 5.74, 136.61 1.76" fill="none" stroke="#1e1e1e" stroke-width="1"></path></g><g transform="translate(176.42301733987142 91.6928301006522) rotate(0 68.92716320506429 0.3513224763621423)"><path d="M108.71 -9.27 C118.36 -5.3, 128.55 -1.29, 136.61 1.76 M108.71 -9.27 C118.52 -6.28, 125.66 -1.81, 136.61 1.76" fill="none" stroke="#1e1e1e" stroke-width="1"></path></g></g><mask></mask><g stroke-linecap="round"><g transform="translate(508.78125 91.58250759056364) rotate(0 68.10351562499994 -0.722110488436627)"><path d="M-0.2 -0.31 C22.67 -0.47, 113.27 -1.02, 136.01 -1.25 M-1.76 -1.53 C21.04 -1.43, 112.08 0.22, 134.95 0.38" fill="none" stroke="#1e1e1e" stroke-width="1"></path></g><g transform="translate(508.78125 91.58250759056364) rotate(0 68.10351562499994 -0.722110488436627)"><path d="M106.63 10.27 C111.8 8, 118.31 6.38, 134.95 0.38 M106.63 10.27 C113.69 8.12, 122.91 4.45, 134.95 0.38" fill="none" stroke="#1e1e1e" stroke-width="1"></path></g><g transform="translate(508.78125 91.58250759056364) rotate(0 68.10351562499994 -0.722110488436627)"><path d="M106.9 -10.25 C111.96 -8.41, 118.41 -5.93, 134.95 0.38 M106.9 -10.25 C114.09 -6.73, 123.23 -4.73, 134.95 0.38" fill="none" stroke="#1e1e1e" stroke-width="1"></path></g></g><mask></mask><g transform="translate(189.27734375 10) rotate(0 68.39994812011719 12.5)"><text direction="ltr" dominant-baseline="text-before-edge" fill="#1e1e1e" font-family="Virgil, Segoe UI Emoji" font-size="20px" style="white-space: pre;" text-anchor="start" x="0" y="0">WS Connection</text></g><g stroke-linecap="round" transform="translate(339.08203125 22.388671875) rotate(0 78.412109375 65.912109375)"><path d="M32 0 C57.67 -3.21, 82.72 -1.53, 124.82 0 C148.09 2.59, 158.27 9.99, 156.82 32 C157.92 50.73, 159.77 70.53, 156.82 99.82 C153.82 122.79, 145.08 129.12, 124.82 131.82 C99.2 130.12, 73.99 131.68, 32 131.82 C8.57 134.33, -0.59 123.38, 0 99.82 C0.14 86, -1.93 73.05, 0 32 C0.18 8.87, 7.68 -1.32, 32 0" fill="#ffffff" stroke="none" stroke-width="0"></path><path d="M32 0 C56.19 -1.02, 81.06 0.16, 124.82 0 M32 0 C55.86 -0.55, 77.59 -0.52, 124.82 0 M124.82 0 C144.6 -0.83, 155.91 11.44, 156.82 32 M124.82 0 C146.65 -1.24, 154.58 11.05, 156.82 32 M156.82 32 C154.5 56.67, 155.83 79, 156.82 99.82 M156.82 32 C156.96 55.18, 156.95 79.37, 156.82 99.82 M156.82 99.82 C157 119.85, 147.67 130.9, 124.82 131.82 M156.82 99.82 C158.13 119.41, 145.95 130.2, 124.82 131.82 M124.82 131.82 C88.5 131.2, 52.51 131.99, 32 131.82 M124.82 131.82 C105.78 132.36, 84.67 131.32, 32 131.82 M32 131.82 C12.59 131.25, -0.6 120.54, 0 99.82 M32 131.82 C10.73 132.1, -0.1 122.98, 0 99.82 M0 99.82 C-0.09 83.35, -1.59 68.24, 0 32 M0 99.82 C0.32 84.05, -0.64 67.72, 0 32 M0 32 C-0.07 8.85, 11.49 -0.44, 32 0 M0 32 C2.07 12.31, 8.59 -2.04, 32 0" fill="none" stroke="#1e1e1e" stroke-width="1"></path></g><g transform="translate(357.9441909790039 75.80078125) rotate(0 59.549949645996094 12.5)"><text direction="ltr" dominant-baseline="text-before-edge" fill="#1e1e1e" font-family="Virgil, Segoe UI Emoji" font-size="20px" style="white-space: pre;" text-anchor="middle" x="59.549949645996094" y="0">Chat Server</text></g><g stroke-linecap="round" transform="translate(340.951171875 252.493408203125) rotate(0 87.173828125 62.2578125)"><path d="M31.13 0 C58.3 -1.64, 84.25 -0.9, 143.22 0 M31.13 0 C66.77 0.17, 104.11 0.01, 143.22 0 M143.22 0 C165.51 0.92, 175.23 10.63, 174.35 31.13 M143.22 0 C166.06 -1.77, 172.16 9.84, 174.35 31.13 M174.35 31.13 C174.54 54.16, 173.66 72.56, 174.35 93.39 M174.35 31.13 C173.71 48.87, 174.94 66.17, 174.35 93.39 M174.35 93.39 C173.69 113.26, 165.87 126.25, 143.22 124.52 M174.35 93.39 C174.86 112.73, 166.01 125.15, 143.22 124.52 M143.22 124.52 C103.05 125.82, 67.69 122.3, 31.13 124.52 M143.22 124.52 C117.82 123.7, 89.89 124.75, 31.13 124.52 M31.13 124.52 C10.14 124.01, 1.04 114.45, 0 93.39 M31.13 124.52 C11.3 123.14, -0.19 116.03, 0 93.39 M0 93.39 C1.24 74.69, 2.36 58.46, 0 31.13 M0 93.39 C0.37 75.24, -0.93 55.52, 0 31.13 M0 31.13 C1.41 11.64, 9.92 -0.81, 31.13 0 M0 31.13 C-1.06 8.55, 12.31 -2.27, 31.13 0" fill="none" stroke="#1e1e1e" stroke-width="1"></path></g><g stroke-linecap="round" transform="translate(353.5859375 262.219970703125) rotate(0 87.173828125 62.2578125)"><path d="M31.13 0 C73.66 0.55, 113.88 0.57, 143.22 0 M31.13 0 C65.01 0.54, 97.21 -0.03, 143.22 0 M143.22 0 C162.16 1.91, 173.82 9.64, 174.35 31.13 M143.22 0 C163.19 0.15, 176.34 9.01, 174.35 31.13 M174.35 31.13 C173.81 49.44, 174.49 68.16, 174.35 93.39 M174.35 31.13 C175.24 47.95, 175.11 63.09, 174.35 93.39 M174.35 93.39 C175.62 113.78, 163.73 125.41, 143.22 124.52 M174.35 93.39 C175.64 113.56, 165.17 123.84, 143.22 124.52 M143.22 124.52 C114.44 123.83, 83.45 124.25, 31.13 124.52 M143.22 124.52 C109.6 123.76, 75.3 122.77, 31.13 124.52 M31.13 124.52 C9.89 124.62, 0.19 112.92, 0 93.39 M31.13 124.52 C11.57 126.17, -1.92 113.91, 0 93.39 M0 93.39 C-0.68 72.11, 1.64 47.28, 0 31.13 M0 93.39 C-1.37 69.3, 0.4 46.79, 0 31.13 M0 31.13 C-0.13 11.27, 10.35 -1.13, 31.13 0 M0 31.13 C-1.36 11.47, 10.62 -1.52, 31.13 0" fill="none" stroke="#1e1e1e" stroke-width="1"></path></g><g transform="translate(370.98983001708984 311.977783203125) rotate(0 69.76993560791016 12.5)"><text direction="ltr" dominant-baseline="text-before-edge" fill="#1e1e1e" font-family="Virgil, Segoe UI Emoji" font-size="20px" style="white-space: pre;" text-anchor="middle" x="69.76993560791016" y="0">Redis Pub/Sub</text></g><g stroke-linecap="round" transform="translate(349.5390625 34.186767578125) rotate(0 78.412109375 65.912109375)"><path d="M32 0 C50.12 0.06, 67.68 2.14, 124.82 0 C146.99 -1.12, 157.02 11.08, 156.82 32 C153.58 44.88, 159.06 62.35, 156.82 99.82 C159.05 124, 148.97 131.51, 124.82 131.82 C92.56 132.12, 54.66 130.12, 32 131.82 C13.74 130.74, 3.3 122.58, 0 99.82 C-0.77 83.45, 2.95 72.36, 0 32 C-2.62 14.03, 11.71 1.41, 32 0" fill="#ffffff" stroke="none" stroke-width="0"></path><path d="M32 0 C60.95 0.18, 93.59 -1, 124.82 0 M32 0 C53.01 0.3, 73.62 0.74, 124.82 0 M124.82 0 C146.12 -1.93, 155.01 8.72, 156.82 32 M124.82 0 C148.17 1.6, 154.92 10.98, 156.82 32 M156.82 32 C156.61 47.96, 154.49 63.27, 156.82 99.82 M156.82 32 C155.49 52.81, 155.19 71.41, 156.82 99.82 M156.82 99.82 C157.93 122.59, 146.48 133.63, 124.82 131.82 M156.82 99.82 C154.92 120.37, 146.89 130.12, 124.82 131.82 M124.82 131.82 C107.36 133.03, 85.57 130.69, 32 131.82 M124.82 131.82 C104.96 132.1, 84.08 131.53, 32 131.82 M32 131.82 C11.51 133.48, 1.28 120.63, 0 99.82 M32 131.82 C10.85 130.4, -1.36 120.42, 0 99.82 M0 99.82 C0.88 78.4, -0.16 58.1, 0 32 M0 99.82 C-0.49 82.97, 1.1 64.68, 0 32 M0 32 C-1.84 9.13, 10.2 -1.78, 32 0 M0 32 C2.13 11.38, 8.8 2, 32 0" fill="none" stroke="#1e1e1e" stroke-width="1"></path></g><g transform="translate(368.4012222290039 87.598876953125) rotate(0 59.549949645996094 12.5)"><text direction="ltr" dominant-baseline="text-before-edge" fill="#1e1e1e" font-family="Virgil, Segoe UI Emoji" font-size="20px" style="white-space: pre;" text-anchor="middle" x="59.549949645996094" y="0">Chat Server</text></g><g stroke-linecap="round"><g transform="translate(379.04287688432805 173.161376953125) rotate(0 -0.4108125559287714 36.939453125)"><path d="M-0.51 -0.56 C-0.55 11.63, 0.33 60.44, 0.21 72.96 M1.42 1.75 C1.27 14.09, 0.41 62.22, -0.19 74.01" fill="none" stroke="#1e1e1e" stroke-width="1"></path></g><g transform="translate(379.04287688432805 173.161376953125) rotate(0 -0.4108125559287714 36.939453125)"><path d="M10.07 27.51 C5.6 19.7, 1.42 7.85, -0.51 -0.56 M10.07 27.51 C6.45 16.96, 1.51 7.59, -0.51 -0.56" fill="none" stroke="#1e1e1e" stroke-width="1"></path></g><g transform="translate(379.04287688432805 173.161376953125) rotate(0 -0.4108125559287714 36.939453125)"><path d="M-10.45 27.74 C-7.99 19.94, -5.22 8.01, -0.51 -0.56 M-10.45 27.74 C-6.82 17.07, -4.5 7.62, -0.51 -0.56" fill="none" stroke="#1e1e1e" stroke-width="1"></path></g><g transform="translate(379.04287688432805 173.161376953125) rotate(0 -0.4108125559287714 36.939453125)"><path d="M-9.55 45.51 C-7.38 56.91, -4.81 64.19, -0.19 74.01 M-9.55 45.51 C-5.93 54.93, -3.82 65.58, -0.19 74.01" fill="none" stroke="#1e1e1e" stroke-width="1"></path></g><g transform="translate(379.04287688432805 173.161376953125) rotate(0 -0.4108125559287714 36.939453125)"><path d="M10.96 46.16 C6.2 57.25, 1.84 64.31, -0.19 74.01 M10.96 46.16 C7.32 55.39, 2.18 65.81, -0.19 74.01" fill="none" stroke="#1e1e1e" stroke-width="1"></path></g></g><mask></mask><g stroke-linecap="round"><g transform="translate(415.978515625 177.415283203125) rotate(0 0.4609375 33.478515625)"><path d="M-0.36 -0.2 C-0.05 10.97, 1.41 55.72, 1.76 66.89 M1.65 -1.35 C1.88 10.03, 1.29 56.82, 1.26 68.4" fill="none" stroke="#1e1e1e" stroke-width="1"></path></g><g transform="translate(415.978515625 177.415283203125) rotate(0 0.4609375 33.478515625)"><path d="M10.78 27.66 C7.21 20.87, 4.17 12.74, -0.36 -0.2 M10.78 27.66 C6.69 19.07, 4.83 11.76, -0.36 -0.2" fill="none" stroke="#1e1e1e" stroke-width="1"></path></g><g transform="translate(415.978515625 177.415283203125) rotate(0 0.4609375 33.478515625)"><path d="M-9.73 28.3 C-7.29 21.38, -4.32 13.07, -0.36 -0.2 M-9.73 28.3 C-7.8 19.38, -3.64 11.89, -0.36 -0.2" fill="none" stroke="#1e1e1e" stroke-width="1"></path></g><g transform="translate(415.978515625 177.415283203125) rotate(0 0.4609375 33.478515625)"><path d="M-8.78 40.13 C-6.19 49.84, -3.03 58.16, 1.26 68.4 M-8.78 40.13 C-6.34 47.86, -1.99 57.03, 1.26 68.4" fill="none" stroke="#1e1e1e" stroke-width="1"></path></g><g transform="translate(415.978515625 177.415283203125) rotate(0 0.4609375 33.478515625)"><path d="M11.74 40.29 C8.32 49.9, 5.47 58.16, 1.26 68.4 M11.74 40.29 C8.16 48.12, 6.49 57.24, 1.26 68.4" fill="none" stroke="#1e1e1e" stroke-width="1"></path></g></g><mask></mask><g stroke-linecap="round"><g transform="translate(466.744140625 178.446533203125) rotate(0 0.900390625 33.75390625)"><path d="M-1.1 0.16 C-0.76 11.43, 1.59 55.59, 1.88 66.8 M0.53 -0.81 C0.73 10.69, 0.57 56.39, 0.98 67.96" fill="none" stroke="#1e1e1e" stroke-width="1"></path></g><g transform="translate(466.744140625 178.446533203125) rotate(0 0.900390625 33.75390625)"><path d="M10.45 27.85 C7.56 19.86, 2.77 9.86, -1.1 0.16 M10.45 27.85 C7.16 19.96, 3.51 11.34, -1.1 0.16" fill="none" stroke="#1e1e1e" stroke-width="1"></path></g><g transform="translate(466.744140625 178.446533203125) rotate(0 0.900390625 33.75390625)"><path d="M-10.05 28.79 C-6.99 20.72, -5.84 10.44, -1.1 0.16 M-10.05 28.79 C-7.4 20.54, -5.12 11.65, -1.1 0.16" fill="none" stroke="#1e1e1e" stroke-width="1"></path></g><g transform="translate(466.744140625 178.446533203125) rotate(0 0.900390625 33.75390625)"><path d="M-9.66 39.91 C-6.52 48.27, -4.88 54.41, 0.98 67.96 M-9.66 39.91 C-7.08 48.05, -4.31 55.55, 0.98 67.96" fill="none" stroke="#1e1e1e" stroke-width="1"></path></g><g transform="translate(466.744140625 178.446533203125) rotate(0 0.900390625 33.75390625)"><path d="M10.86 39.63 C8.05 47.89, 3.75 54.11, 0.98 67.96 M10.86 39.63 C7.51 47.93, 4.34 55.52, 0.98 67.96" fill="none" stroke="#1e1e1e" stroke-width="1"></path></g></g><mask></mask><g transform="translate(512.486328125 199.223876953125) rotate(0 154.849853515625 12.5)"><text direction="ltr" dominant-baseline="text-before-edge" fill="#1e1e1e" font-family="Virgil, Segoe UI Emoji" font-size="20px" style="white-space: pre;" text-anchor="start" x="0" y="0">Subscribe to Topics for UserId</text></g></svg>