<svg height="341.8125" version="1.1" viewbox="0 0 669.828125 341.8125" width="669.828125" xmlns="http://www.w3.org/2000/svg">
<!-- svg-source:excalidraw -->
<!-- payload-type:application/vnd.excalidraw+json --><!-- payload-version:2 -->
<defs>
<style class="style-fonts">
</style>
</defs>
<rect fill="#ffffff" height="341.8125" width="669.828125" x="0" y="0"></rect><g stroke-linecap="round" transform="translate(10 130.23046875) rotate(0 79.794921875 79.705078125)"><path d="M101.7 3.06 C111.92 4.97, 123.43 13.1, 131.68 20 C139.94 26.91, 146.57 35, 151.24 44.5 C155.92 53.99, 159.49 66.17, 159.72 76.98 C159.95 87.8, 156.73 99.16, 152.63 109.38 C148.53 119.6, 142.9 130.64, 135.14 138.3 C127.37 145.95, 116.49 151.69, 106.05 155.32 C95.61 158.96, 83.3 160.97, 72.51 160.11 C61.73 159.25, 50.56 155.64, 41.36 150.17 C32.17 144.7, 23.85 135.9, 17.36 127.3 C10.88 118.69, 4.98 108.77, 2.48 98.54 C-0.03 88.3, 0.41 76.53, 2.33 65.86 C4.25 55.2, 8.18 43.45, 14 34.54 C19.81 25.63, 28.06 18.13, 37.22 12.42 C46.38 6.72, 57.08 1.51, 68.95 0.32 C80.83 -0.87, 101.42 3.93, 108.46 5.28 C115.5 6.63, 111.65 7.22, 111.2 8.43 M75.75 -0.85 C86.12 -2.19, 99.84 2.54, 110 6.78 C120.16 11.03, 129 16.79, 136.71 24.63 C144.41 32.46, 152.37 43.68, 156.24 53.8 C160.12 63.93, 160.89 74.67, 159.95 85.38 C159.01 96.09, 155.94 108.71, 150.59 118.04 C145.25 127.38, 136.46 134.95, 127.9 141.4 C119.34 147.85, 109.32 154.12, 99.22 156.75 C89.13 159.39, 78.14 159.18, 67.34 157.2 C56.54 155.23, 43.9 150.71, 34.44 144.91 C24.99 139.12, 16.39 131.39, 10.61 122.44 C4.83 113.49, 1.13 102.1, -0.23 91.22 C-1.58 80.35, -0.47 67.62, 2.48 57.19 C5.43 46.76, 10.36 37.07, 17.47 28.64 C24.58 20.21, 35.05 11.25, 45.14 6.6 C55.22 1.96, 72.47 1.7, 77.96 0.78 C83.46 -0.14, 78.18 -0.08, 78.08 1.09" fill="none" stroke="#1e1e1e" stroke-width="1"></path></g><g transform="translate(62.82141897875704 197.575545637809) rotate(0 27.049972534179688 12.5)"><text direction="ltr" dominant-baseline="text-before-edge" fill="#1e1e1e" font-family="Virgil, Segoe UI Emoji" font-size="20px" style="white-space: pre;" text-anchor="middle" x="27.049972534179688" y="0">Client</text></g><g stroke-linecap="round" transform="translate(262.59765625 140.1953125) rotate(0 78.412109375 65.912109375)"><path d="M32 0 C56.56 -2.67, 83.77 -2.15, 124.82 0 M32 0 C52.48 -0.76, 71.93 -1.39, 124.82 0 M124.82 0 C148.06 -0.66, 157.69 12.45, 156.82 32 M124.82 0 C144.07 0.64, 157.4 12.94, 156.82 32 M156.82 32 C154.97 58.55, 155.88 81.6, 156.82 99.82 M156.82 32 C156.99 59.31, 157.14 84.64, 156.82 99.82 M156.82 99.82 C156.09 120.65, 144.4 130.63, 124.82 131.82 M156.82 99.82 C157.22 122.63, 145.35 132.21, 124.82 131.82 M124.82 131.82 C88.11 132.66, 52.39 130.86, 32 131.82 M124.82 131.82 C105.07 130.98, 82.92 131.08, 32 131.82 M32 131.82 C8.68 132.55, -1.33 121.8, 0 99.82 M32 131.82 C9.71 131.07, -1.9 121.48, 0 99.82 M0 99.82 C1.63 79.53, -0.09 56.69, 0 32 M0 99.82 C-0.46 81.08, 0.2 61.23, 0 32 M0 32 C1.28 10.65, 10.68 0.43, 32 0 M0 32 C-0.08 8.8, 11.87 0.29, 32 0" fill="none" stroke="#1e1e1e" stroke-width="1"></path></g><g transform="translate(281.4598159790039 193.607421875) rotate(0 59.549949645996094 12.5)"><text direction="ltr" dominant-baseline="text-before-edge" fill="#1e1e1e" font-family="Virgil, Segoe UI Emoji" font-size="20px" style="white-space: pre;" text-anchor="middle" x="59.549949645996094" y="0">Chat Server</text></g><g stroke-linecap="round" transform="translate(483.171875 141.90234375) rotate(0 88.328125 62.013671875)"><path d="M31.01 0 C53.1 -0.95, 79.55 2.27, 145.65 0 M31.01 0 C62.29 0.81, 92.1 2.03, 145.65 0 M145.65 0 C164.5 0.56, 177.16 12.31, 176.66 31.01 M145.65 0 C167.95 -0.12, 176.67 8.24, 176.66 31.01 M176.66 31.01 C178.15 54.5, 175.03 76.75, 176.66 93.02 M176.66 31.01 C176.36 55.25, 175.85 79.4, 176.66 93.02 M176.66 93.02 C177 114.97, 165.62 124.36, 145.65 124.03 M176.66 93.02 C178.87 115.69, 167.18 124.12, 145.65 124.03 M145.65 124.03 C106.9 123.52, 70.81 125.22, 31.01 124.03 M145.65 124.03 C117.79 123.75, 91.25 123.71, 31.01 124.03 M31.01 124.03 C9.5 123.37, -1.65 113.97, 0 93.02 M31.01 124.03 C10.75 121.82, 1.38 114.82, 0 93.02 M0 93.02 C-0.07 70.77, 2.22 47.16, 0 31.01 M0 93.02 C0.45 70.7, -0.19 48.61, 0 31.01 M0 31.01 C-0.07 8.71, 11.39 0.25, 31.01 0 M0 31.01 C-1.27 10.87, 11.5 2.13, 31.01 0" fill="none" stroke="#1e1e1e" stroke-width="1"></path></g><g transform="translate(522.0600357055664 191.416015625) rotate(0 49.439964294433594 12.5)"><text direction="ltr" dominant-baseline="text-before-edge" fill="#1e1e1e" font-family="Virgil, Segoe UI Emoji" font-size="20px" style="white-space: pre;" text-anchor="middle" x="49.439964294433594" y="0">Database</text></g><g stroke-linecap="round"><g transform="translate(176.4226481908961 210.38565128783785) rotate(0 30.68516027955195 0.060688685384945984)"><path d="M0.91 -0.43 C11.4 -0.69, 51.67 -1.09, 61.94 -1.07 M-0.08 -1.69 C10.4 -1.9, 50.89 -0.58, 61.29 -0.16" fill="none" stroke="#1e1e1e" stroke-width="1"></path></g><g transform="translate(176.4226481908961 210.38565128783785) rotate(0 30.68516027955195 0.060688685384945984)"><path d="M32.76 9.11 C38.13 7.86, 42.98 6.82, 61.29 -0.16 M32.76 9.11 C39.42 6.66, 48.2 4.9, 61.29 -0.16" fill="none" stroke="#1e1e1e" stroke-width="1"></path></g><g transform="translate(176.4226481908961 210.38565128783785) rotate(0 30.68516027955195 0.060688685384945984)"><path d="M33.48 -11.4 C38.79 -8.25, 43.48 -4.89, 61.29 -0.16 M33.48 -11.4 C40.04 -8.37, 48.62 -4.66, 61.29 -0.16" fill="none" stroke="#1e1e1e" stroke-width="1"></path></g></g><mask></mask><g stroke-linecap="round"><g transform="translate(432.296875 207.26872897181852) rotate(0 15.849609375000057 -0.4425150242688005)"><path d="M0.52 -0.18 C5.8 -0.16, 26.83 -0.3, 31.94 -0.39 M0.13 -0.75 C5.33 -0.82, 26.27 -1.22, 31.63 -1.11" fill="none" stroke="#1e1e1e" stroke-width="1"></path></g><g transform="translate(432.296875 207.26872897181852) rotate(0 15.849609375000057 -0.4425150242688005)"><path d="M16.74 4.34 C21.68 2.72, 27.82 -0.24, 31.63 -1.11 M16.74 4.34 C21.9 2.46, 26.5 0.33, 31.63 -1.11" fill="none" stroke="#1e1e1e" stroke-width="1"></path></g><g transform="translate(432.296875 207.26872897181852) rotate(0 15.849609375000057 -0.4425150242688005)"><path d="M16.72 -6.51 C21.61 -4.36, 27.76 -3.55, 31.63 -1.11 M16.72 -6.51 C21.9 -4.83, 26.51 -3.4, 31.63 -1.11" fill="none" stroke="#1e1e1e" stroke-width="1"></path></g></g><mask></mask><g stroke-linecap="round" transform="translate(262.6875 10) rotate(0 76.556640625 38.82421875)"><path d="M19.41 0 C66.33 -2.32, 110.24 0, 133.7 0 M19.41 0 C64.99 -0.85, 111.25 -0.4, 133.7 0 M133.7 0 C145.92 1.77, 153.7 5.12, 153.11 19.41 M133.7 0 C146.56 2.18, 153.37 6.31, 153.11 19.41 M153.11 19.41 C151.82 29.98, 154.29 39.16, 153.11 58.24 M153.11 19.41 C153.86 31.74, 153.73 44.58, 153.11 58.24 M153.11 58.24 C151.81 69.64, 146.88 77.24, 133.7 77.65 M153.11 58.24 C155.34 69.67, 145.59 76.36, 133.7 77.65 M133.7 77.65 C111.4 76.06, 87.15 75.24, 19.41 77.65 M133.7 77.65 C98.41 77.04, 62.55 76.18, 19.41 77.65 M19.41 77.65 C6.48 77.35, 0.33 73.17, 0 58.24 M19.41 77.65 C5.66 79.02, 0.72 71.36, 0 58.24 M0 58.24 C0.43 44.03, -1.62 31.02, 0 19.41 M0 58.24 C0.72 47.03, 1 33.02, 0 19.41 M0 19.41 C1.9 4.72, 7.54 0.99, 19.41 0 M0 19.41 C0.49 5.59, 4.4 -1.72, 19.41 0" fill="none" stroke="#1e1e1e" stroke-width="1"></path></g><g transform="translate(275.0041961669922 36.32421875) rotate(0 64.23994445800781 12.5)"><text direction="ltr" dominant-baseline="text-before-edge" fill="#1e1e1e" font-family="Virgil, Segoe UI Emoji" font-size="20px" style="white-space: pre;" text-anchor="middle" x="64.23994445800781" y="0">Blob Storage</text></g><g stroke-linecap="round"><g transform="translate(146.1484375 130.609375) rotate(0 49.13671875 -29.974609375)"><path d="M0.01 -1.09 C16.38 -11.16, 82.8 -50.86, 99.11 -60.49 M-1.45 0.95 C14.76 -8.96, 82.21 -48.97, 98.6 -59.24" fill="none" stroke="#1e1e1e" stroke-width="1"></path></g><g transform="translate(146.1484375 130.609375) rotate(0 49.13671875 -29.974609375)"><path d="M79.83 -35.83 C84.98 -43.13, 92.86 -53.92, 98.6 -59.24 M79.83 -35.83 C87.02 -43.85, 94.46 -53.97, 98.6 -59.24" fill="none" stroke="#1e1e1e" stroke-width="1"></path></g><g transform="translate(146.1484375 130.609375) rotate(0 49.13671875 -29.974609375)"><path d="M69.17 -53.37 C78.27 -54.16, 90.1 -58.45, 98.6 -59.24 M69.17 -53.37 C80.55 -54.5, 92.14 -57.8, 98.6 -59.24" fill="none" stroke="#1e1e1e" stroke-width="1"></path></g></g><mask></mask><g stroke-linecap="round"><g transform="translate(256.55078125 90.43359375) rotate(0 -48.71484375 26.724609375)"><path d="M0.83 -0.54 C-15.48 8.72, -81.54 45.65, -97.86 54.51 M-0.19 1.78 C-16.7 10.83, -82.79 44.32, -99.03 52.95" fill="none" stroke="#1e1e1e" stroke-width="1"></path></g><g transform="translate(256.55078125 90.43359375) rotate(0 -48.71484375 26.724609375)"><path d="M-78.72 30.88 C-85.93 36.93, -89.35 44.86, -99.03 52.95 M-78.72 30.88 C-83.33 36.13, -88.54 41.08, -99.03 52.95" fill="none" stroke="#1e1e1e" stroke-width="1"></path></g><g transform="translate(256.55078125 90.43359375) rotate(0 -48.71484375 26.724609375)"><path d="M-69.28 49.1 C-79.16 49.75, -85.42 52.2, -99.03 52.95 M-69.28 49.1 C-76.09 50.21, -83.49 50.92, -99.03 52.95" fill="none" stroke="#1e1e1e" stroke-width="1"></path></g></g><mask></mask><g stroke-linecap="round"><g transform="translate(241.15625 192.3203125) rotate(0 -30.9140625 -0.919921875)"><path d="M-0.43 1.06 C-10.82 0.71, -51.24 -2.36, -61.48 -2.65 M1.54 0.58 C-9.04 0.41, -51.54 -1.03, -62.24 -1.54" fill="none" stroke="#1e1e1e" stroke-width="1"></path></g><g transform="translate(241.15625 192.3203125) rotate(0 -30.9140625 -0.919921875)"><path d="M-33.67 -10.69 C-42.49 -6.82, -56.17 -4.1, -62.24 -1.54 M-33.67 -10.69 C-45.31 -7.34, -57.11 -4.08, -62.24 -1.54" fill="none" stroke="#1e1e1e" stroke-width="1"></path></g><g transform="translate(241.15625 192.3203125) rotate(0 -30.9140625 -0.919921875)"><path d="M-34.47 9.82 C-42.91 6.11, -56.29 1.26, -62.24 -1.54 M-34.47 9.82 C-45.82 5.06, -57.3 0.23, -62.24 -1.54" fill="none" stroke="#1e1e1e" stroke-width="1"></path></g></g><mask></mask><g stroke-linecap="round"><g transform="translate(339.47265625 97.80859375) rotate(0 -0.919921875 15.7890625)"><path d="M0.16 -0.37 C-0.12 4.9, -1.54 26.78, -1.86 32.1 M-0.42 0.63 C-0.75 5.99, -2.02 26.15, -2.3 31.4" fill="none" stroke="#1e1e1e" stroke-width="1"></path></g><g transform="translate(339.47265625 97.80859375) rotate(0 -0.919921875 15.7890625)"><path d="M-6.83 16.25 C-6.1 20.22, -3.62 24.34, -2.3 31.4 M-6.83 16.25 C-5.88 20.46, -4.13 25.39, -2.3 31.4" fill="none" stroke="#1e1e1e" stroke-width="1"></path></g><g transform="translate(339.47265625 97.80859375) rotate(0 -0.919921875 15.7890625)"><path d="M3.97 16.88 C1.84 20.7, 1.47 24.65, -2.3 31.4 M3.97 16.88 C1.76 20.9, 0.33 25.64, -2.3 31.4" fill="none" stroke="#1e1e1e" stroke-width="1"></path></g></g><mask></mask><g stroke-linecap="round"><g transform="translate(363.828125 121.890625) rotate(0 -0.001953125 -12.23828125)"><path d="M-0.02 0.52 C-0.04 -3.5, 0.09 -20.32, 0.06 -24.51 M-0.69 0.31 C-0.79 -3.59, -0.35 -19.77, -0.34 -23.83" fill="none" stroke="#1e1e1e" stroke-width="1"></path></g><g transform="translate(363.828125 121.890625) rotate(0 -0.001953125 -12.23828125)"><path d="M3.67 -12.27 C2.97 -16.01, 1.02 -20.11, -0.34 -23.83 M3.67 -12.27 C2.67 -15.26, 1.41 -18.59, -0.34 -23.83" fill="none" stroke="#1e1e1e" stroke-width="1"></path></g><g transform="translate(363.828125 121.890625) rotate(0 -0.001953125 -12.23828125)"><path d="M-4.7 -12.4 C-2.65 -16.09, -1.83 -20.15, -0.34 -23.83 M-4.7 -12.4 C-3.4 -15.33, -2.36 -18.62, -0.34 -23.83" fill="none" stroke="#1e1e1e" stroke-width="1"></path></g></g><mask></mask><g transform="translate(136.73828125 281.8125) rotate(0 78.1599349975586 25)"><text direction="ltr" dominant-baseline="text-before-edge" fill="#1e1e1e" font-family="Virgil, Segoe UI Emoji" font-size="20px" style="white-space: pre;" text-anchor="middle" x="78.1599349975586" y="0">Retrieve Upload</text><text direction="ltr" dominant-baseline="text-before-edge" fill="#1e1e1e" font-family="Virgil, Segoe UI Emoji" font-size="20px" style="white-space: pre;" text-anchor="middle" x="78.1599349975586" y="25">Target</text></g><g transform="translate(87.34738159179688 30.6875) rotate(0 54.679962158203125 25)"><text direction="ltr" dominant-baseline="text-before-edge" fill="#1e1e1e" font-family="Virgil, Segoe UI Emoji" font-size="20px" style="white-space: pre;" text-anchor="middle" x="54.679962158203125" y="0">Read/Write</text><text direction="ltr" dominant-baseline="text-before-edge" fill="#1e1e1e" font-family="Virgil, Segoe UI Emoji" font-size="20px" style="white-space: pre;" text-anchor="middle" x="54.679962158203125" y="25">Media</text></g></svg>