<svg height="251.5390625" version="1.1" viewbox="0 0 1144.7467956542969 251.5390625" width="1144.7467956542969" xmlns="http://www.w3.org/2000/svg">
<!-- svg-source:excalidraw -->
<!-- payload-type:application/vnd.excalidraw+json --><!-- payload-version:2 -->
<defs>
<style class="style-fonts">
</style>
</defs>
<rect fill="#ffffff" height="251.5390625" width="1144.7467956542969" x="0" y="0"></rect><g stroke-linecap="round" transform="translate(10 78.099609375) rotate(0 79.794921875 79.705078125)"><path d="M93.41 1.12 C103.51 1.67, 114.12 7.14, 123.18 12.98 C132.23 18.82, 141.67 27.12, 147.74 36.18 C153.81 45.25, 158.16 56.46, 159.59 67.37 C161.02 78.27, 159.32 91.15, 156.32 101.62 C153.32 112.09, 148.5 121.91, 141.6 130.18 C134.69 138.45, 124.54 146.34, 114.89 151.24 C105.24 156.13, 94.43 159.28, 83.69 159.55 C72.96 159.82, 60.69 156.96, 50.48 152.87 C40.27 148.77, 30.15 142.57, 22.45 134.96 C14.75 127.35, 8.02 117.23, 4.27 107.22 C0.53 97.21, -0.66 85.76, 0 74.89 C0.65 64.03, 3.11 51.64, 8.21 42.05 C13.32 32.46, 21.99 23.88, 30.64 17.35 C39.29 10.82, 48.82 5.6, 60.12 2.89 C71.42 0.18, 91.43 0.75, 98.42 1.1 C105.42 1.45, 102.58 3.55, 102.11 5 M45.58 8.4 C54.56 2.74, 68.31 -0.23, 78.98 -0.76 C89.66 -1.3, 99.79 0.89, 109.63 5.19 C119.48 9.49, 130.32 17.33, 138.06 25.06 C145.79 32.79, 152.53 41.58, 156.04 51.56 C159.56 61.54, 159.92 73.8, 159.14 84.96 C158.35 96.12, 156.21 108.76, 151.32 118.52 C146.44 128.28, 138.72 137.31, 129.84 143.53 C120.97 149.75, 108.95 153.48, 98.07 155.85 C87.18 158.22, 75.18 159.4, 64.55 157.74 C53.91 156.08, 43.3 151.93, 34.27 145.87 C25.24 139.82, 16.02 130.86, 10.36 121.43 C4.7 112, 1.54 99.8, 0.32 89.31 C-0.91 78.82, -0.03 68.6, 3 58.48 C6.03 48.37, 11.52 37.01, 18.5 28.64 C25.47 20.27, 40.4 11.27, 44.83 8.27 C49.26 5.27, 44.19 9.68, 45.08 10.64" fill="none" stroke="#1e1e1e" stroke-width="1"></path></g><g transform="translate(62.82141897875704 145.44468626280894) rotate(0 27.049972534179688 12.5)"><text direction="ltr" dominant-baseline="text-before-edge" fill="#1e1e1e" font-family="Virgil, Segoe UI Emoji" font-size="20px" style="white-space: pre;" text-anchor="middle" x="27.049972534179688" y="0">Client</text></g><g stroke-linecap="round" transform="translate(509.203125 97.466796875) rotate(0 78.412109375 65.912109375)"><path d="M32 0 C60.87 -1.38, 89.29 -1.15, 124.82 0 M32 0 C56.52 -0.66, 81.9 0.28, 124.82 0 M124.82 0 C146.57 0.22, 154.97 10.07, 156.82 32 M124.82 0 C145.06 -1.64, 156.32 10.29, 156.82 32 M156.82 32 C156.96 54.31, 156.46 76.85, 156.82 99.82 M156.82 32 C156.52 57.49, 156.27 82.6, 156.82 99.82 M156.82 99.82 C156.8 121.16, 146.51 132.59, 124.82 131.82 M156.82 99.82 C158.99 119.94, 145.28 130.56, 124.82 131.82 M124.82 131.82 C92.15 132.2, 62.09 134.27, 32 131.82 M124.82 131.82 C91.03 131.36, 57.33 132, 32 131.82 M32 131.82 C10.08 132.36, -1.96 121.11, 0 99.82 M32 131.82 C10.08 130.39, -0.38 123.12, 0 99.82 M0 99.82 C0.33 80.65, 1.57 65.82, 0 32 M0 99.82 C-0.38 83.08, 0.77 67.02, 0 32 M0 32 C0.8 10.94, 10.61 -1.84, 32 0 M0 32 C-1.28 12.17, 10.55 -1.4, 32 0" fill="none" stroke="#1e1e1e" stroke-width="1"></path></g><g transform="translate(528.0652847290039 150.87890625) rotate(0 59.549949645996094 12.5)"><text direction="ltr" dominant-baseline="text-before-edge" fill="#1e1e1e" font-family="Virgil, Segoe UI Emoji" font-size="20px" style="white-space: pre;" text-anchor="middle" x="59.549949645996094" y="0">Chat Server</text></g><g stroke-linecap="round" transform="translate(777.6328125 94.998046875) rotate(0 88.328125 62.013671875)"><path d="M31.01 0 C54.92 1.71, 80.81 0.12, 145.65 0 M31.01 0 C61.73 -0.59, 91.12 -1, 145.65 0 M145.65 0 C165.37 -1.42, 176.21 10.01, 176.66 31.01 M145.65 0 C166.89 -2.05, 175.09 11.19, 176.66 31.01 M176.66 31.01 C178.32 48.66, 177.75 70.6, 176.66 93.02 M176.66 31.01 C176.68 48.04, 176.87 65.46, 176.66 93.02 M176.66 93.02 C178.54 112.63, 165.56 122.93, 145.65 124.03 M176.66 93.02 C177.39 114.18, 167.97 121.87, 145.65 124.03 M145.65 124.03 C114.14 126.86, 81.12 124.39, 31.01 124.03 M145.65 124.03 C121.09 124.02, 96.14 123.73, 31.01 124.03 M31.01 124.03 C9.82 122.78, -0.33 115.4, 0 93.02 M31.01 124.03 C9.52 124.93, -0.74 114.38, 0 93.02 M0 93.02 C-1.87 78.31, -2.21 62.74, 0 31.01 M0 93.02 C-0.1 79.59, -0.53 64.97, 0 31.01 M0 31.01 C-1.12 11.64, 10.24 -1.22, 31.01 0 M0 31.01 C-0.91 11.13, 10.94 1.83, 31.01 0" fill="none" stroke="#1e1e1e" stroke-width="1"></path></g><g transform="translate(807.6609802246094 132.01171875) rotate(0 58.299957275390625 25)"><text direction="ltr" dominant-baseline="text-before-edge" fill="#1e1e1e" font-family="Virgil, Segoe UI Emoji" font-size="20px" style="white-space: pre;" text-anchor="middle" x="58.299957275390625" y="0">Database</text><text direction="ltr" dominant-baseline="text-before-edge" fill="#1e1e1e" font-family="Virgil, Segoe UI Emoji" font-size="20px" style="white-space: pre;" text-anchor="middle" x="58.299957275390625" y="25">(DynamoDB)</text></g><g stroke-linecap="round"><g transform="translate(678.90234375 164.019732804338) rotate(0 39.77734375 -1.605671975993829)"><path d="M0.25 0.13 C13.3 -0.59, 65.32 -2.87, 78.44 -3.57 M-1.08 -0.85 C12.31 -1.46, 67.4 -1.83, 80.57 -2.22" fill="none" stroke="#1e1e1e" stroke-width="1"></path></g><g transform="translate(678.90234375 164.019732804338) rotate(0 39.77734375 -1.605671975993829)"><path d="M52.56 8.52 C61.44 3.26, 69.35 0.82, 80.57 -2.22 M52.56 8.52 C59.24 5.21, 64.72 4.02, 80.57 -2.22" fill="none" stroke="#1e1e1e" stroke-width="1"></path></g><g transform="translate(678.90234375 164.019732804338) rotate(0 39.77734375 -1.605671975993829)"><path d="M52.21 -12 C61.32 -10.87, 69.35 -6.91, 80.57 -2.22 M52.21 -12 C58.92 -10.61, 64.49 -7.11, 80.57 -2.22" fill="none" stroke="#1e1e1e" stroke-width="1"></path></g></g><mask></mask><g transform="translate(979.68359375 10) rotate(0 58.799964904785156 50)"><text direction="ltr" dominant-baseline="text-before-edge" fill="#1e1e1e" font-family="Virgil, Segoe UI Emoji" font-size="20px" style="white-space: pre;" text-anchor="start" x="0" y="0">Chat</text><text direction="ltr" dominant-baseline="text-before-edge" fill="#1e1e1e" font-family="Virgil, Segoe UI Emoji" font-size="20px" style="white-space: pre;" text-anchor="start" x="0" y="25">  id</text><text direction="ltr" dominant-baseline="text-before-edge" fill="#1e1e1e" font-family="Virgil, Segoe UI Emoji" font-size="20px" style="white-space: pre;" text-anchor="start" x="0" y="50">  name</text><text direction="ltr" dominant-baseline="text-before-edge" fill="#1e1e1e" font-family="Virgil, Segoe UI Emoji" font-size="20px" style="white-space: pre;" text-anchor="start" x="0" y="75">  metadata</text></g><g transform="translate(162.07421875 61.8515625) rotate(0 49.859954833984375 25)"><text direction="ltr" dominant-baseline="text-before-edge" fill="#1e1e1e" font-family="Virgil, Segoe UI Emoji" font-size="20px" style="white-space: pre;" text-anchor="middle" x="49.859954833984375" y="0">WS </text><text direction="ltr" dominant-baseline="text-before-edge" fill="#1e1e1e" font-family="Virgil, Segoe UI Emoji" font-size="20px" style="white-space: pre;" text-anchor="middle" x="49.859954833984375" y="25">Connection</text></g><g transform="translate(978.2469329833984 166.5390625) rotate(0 78.24993133544922 37.5)"><text direction="ltr" dominant-baseline="text-before-edge" fill="#1e1e1e" font-family="Virgil, Segoe UI Emoji" font-size="20px" style="white-space: pre;" text-anchor="start" x="0" y="0">ChatParticipant</text><text direction="ltr" dominant-baseline="text-before-edge" fill="#1e1e1e" font-family="Virgil, Segoe UI Emoji" font-size="20px" style="white-space: pre;" text-anchor="start" x="0" y="25">  chatId</text><text direction="ltr" dominant-baseline="text-before-edge" fill="#1e1e1e" font-family="Virgil, Segoe UI Emoji" font-size="20px" style="white-space: pre;" text-anchor="start" x="0" y="50">  participantId</text></g><g stroke-linecap="round" transform="translate(259.68394470214844 94.3916015625) rotate(0 78.412109375 65.912109375)"><path d="M32 0 C69.25 0.9, 101.07 0.3, 124.82 0 M32 0 C64.86 0.44, 96.74 -0.09, 124.82 0 M124.82 0 C145.26 -1.72, 158.09 10.5, 156.82 32 M124.82 0 C144.52 0.37, 156.56 11.73, 156.82 32 M156.82 32 C156.95 58.73, 158.08 81.06, 156.82 99.82 M156.82 32 C155.63 48.95, 156.91 66.43, 156.82 99.82 M156.82 99.82 C156.6 121.44, 146.11 133.56, 124.82 131.82 M156.82 99.82 C157.5 122.45, 148.08 130.22, 124.82 131.82 M124.82 131.82 C103.38 131.82, 81.45 130.02, 32 131.82 M124.82 131.82 C90.06 133.23, 55.53 133.3, 32 131.82 M32 131.82 C10.86 131.42, 1.84 121.74, 0 99.82 M32 131.82 C12.59 130.49, 1.66 120.02, 0 99.82 M0 99.82 C0.42 72.58, 1.32 48.97, 0 32 M0 99.82 C0.05 73.22, -0.73 47.04, 0 32 M0 32 C-1.94 12.52, 9.45 0.14, 32 0 M0 32 C-0.76 10.5, 12.66 -0.44, 32 0" fill="none" stroke="#1e1e1e" stroke-width="1"></path></g><g transform="translate(307.4460678100586 147.8037109375) rotate(0 30.649986267089844 12.5)"><text direction="ltr" dominant-baseline="text-before-edge" fill="#1e1e1e" font-family="Virgil, Segoe UI Emoji" font-size="20px" style="white-space: pre;" text-anchor="middle" x="30.649986267089844" y="0">L4 LB</text></g><g stroke-linecap="round"><g transform="translate(177.67808532714844 152.6005859375) rotate(0 34.798828125 -0.796875)"><path d="M-1 -0.17 C10.82 -0.34, 57.98 -1.19, 69.78 -1.57 M0.68 -1.3 C12.46 -1.21, 57.51 0.03, 68.93 -0.02" fill="none" stroke="#1e1e1e" stroke-width="1"></path></g><g transform="translate(177.67808532714844 152.6005859375) rotate(0 34.798828125 -0.796875)"><path d="M40.61 9.85 C46.19 8.37, 52.33 6.44, 68.93 -0.02 M40.61 9.85 C47.29 7.32, 54.22 5.61, 68.93 -0.02" fill="none" stroke="#1e1e1e" stroke-width="1"></path></g><g transform="translate(177.67808532714844 152.6005859375) rotate(0 34.798828125 -0.796875)"><path d="M40.89 -10.67 C46.32 -7.94, 52.4 -5.65, 68.93 -0.02 M40.89 -10.67 C47.45 -8.49, 54.32 -5.5, 68.93 -0.02" fill="none" stroke="#1e1e1e" stroke-width="1"></path></g></g><mask></mask><g stroke-linecap="round"><g transform="translate(428.55308532714844 166.9287109375) rotate(0 33.478515625 0.19140625)"><path d="M-0.97 -0.57 C10.02 -0.36, 54.99 0.42, 66.51 0.66 M0.72 1.74 C11.46 1.63, 54.12 -0.82, 65.33 -1.32" fill="none" stroke="#1e1e1e" stroke-width="1"></path></g><g transform="translate(428.55308532714844 166.9287109375) rotate(0 33.478515625 0.19140625)"><path d="M37.7 10.37 C46.46 5.76, 57.53 4.37, 65.33 -1.32 M37.7 10.37 C46.8 6.56, 56.45 2.26, 65.33 -1.32" fill="none" stroke="#1e1e1e" stroke-width="1"></path></g><g transform="translate(428.55308532714844 166.9287109375) rotate(0 33.478515625 0.19140625)"><path d="M36.65 -10.13 C45.67 -7.56, 57.1 -1.79, 65.33 -1.32 M36.65 -10.13 C46.16 -7.05, 56.17 -4.46, 65.33 -1.32" fill="none" stroke="#1e1e1e" stroke-width="1"></path></g></g><mask></mask></svg>