<svg height="478.35848642068777" version="1.1" viewbox="0 0 1061.2456944715427 478.35848642068777" width="1061.2456944715427" xmlns="http://www.w3.org/2000/svg">
<!-- svg-source:excalidraw -->
<!-- payload-type:application/vnd.excalidraw+json --><!-- payload-version:2 -->
<defs>
<style class="style-fonts">
</style>
</defs>
<rect fill="#ffffff" height="478.35848642068777" width="1061.2456944715427" x="0" y="0"></rect><g stroke-linecap="round" transform="translate(399.1152757098577 383.00692392068777) rotate(0 64.1640625 42.67578125)"><path d="M21.34 0 C46.06 -2.16, 70.47 -0.4, 106.99 0 M21.34 0 C53.57 -0.29, 87.72 -0.22, 106.99 0 M106.99 0 C121.18 -1.28, 128.84 7.76, 128.33 21.34 M106.99 0 C120.98 -0.07, 127.64 6.02, 128.33 21.34 M128.33 21.34 C127.28 37.1, 127.3 53.23, 128.33 64.01 M128.33 21.34 C129 36.93, 128.61 50.5, 128.33 64.01 M128.33 64.01 C129.83 78.07, 122.93 84.83, 106.99 85.35 M128.33 64.01 C130.47 76.59, 121.04 84.22, 106.99 85.35 M106.99 85.35 C83.16 85.28, 61.06 84.92, 21.34 85.35 M106.99 85.35 C76.16 85.28, 45.7 85.19, 21.34 85.35 M21.34 85.35 C8.28 83.63, -0.77 79.21, 0 64.01 M21.34 85.35 C9.05 87.47, 2.18 79.57, 0 64.01 M0 64.01 C-0.76 50.3, -1.09 36.12, 0 21.34 M0 64.01 C0.62 54.4, 0.1 44.76, 0 21.34 M0 21.34 C-1.27 6.49, 7.85 -0.16, 21.34 0 M0 21.34 C1.44 8.83, 7.36 2.12, 21.34 0" fill="none" stroke="#1e1e1e" stroke-width="1"></path></g><g transform="translate(412.8418382098577 415.68270517068777) rotate(0 50.4375 10)"><text direction="ltr" dominant-baseline="text-before-edge" fill="#1e1e1e" font-family="Virgil, Segoe UI Emoji" font-size="16px" style="white-space: pre;" text-anchor="middle" x="50.4375" y="0">Click Processor</text></g><g stroke-linecap="round"><g transform="translate(539.681427027597 423.7170963345252) rotate(0 12.189072306922242 -0.19957899977089255)"><path d="M0.06 0.47 C4.19 0.39, 20.37 0.11, 24.36 -0.01 M-0.58 0.23 C3.52 -0.03, 19.64 -0.54, 23.92 -0.77" fill="none" stroke="#1e1e1e" stroke-width="1"></path></g><g transform="translate(539.681427027597 423.7170963345252) rotate(0 12.189072306922242 -0.19957899977089255)"><path d="M12.65 3.88 C15.65 2.81, 18.07 1.37, 23.92 -0.77 M12.65 3.88 C16.37 2.12, 20.19 0.87, 23.92 -0.77" fill="none" stroke="#1e1e1e" stroke-width="1"></path></g><g transform="translate(539.681427027597 423.7170963345252) rotate(0 12.189072306922242 -0.19957899977089255)"><path d="M12.29 -4.45 C15.41 -3.66, 17.91 -3.26, 23.92 -0.77 M12.29 -4.45 C16.15 -3.45, 20.09 -1.94, 23.92 -0.77" fill="none" stroke="#1e1e1e" stroke-width="1"></path></g></g><mask></mask><g stroke-linecap="round" transform="translate(573.7238890737021 404.7372919106974) rotate(0 79.82031250000003 18.873046875)"><path d="M9.44 0 C54.54 -1.38, 97.44 1.03, 150.2 0 M9.44 0 C57.41 1.22, 104.77 0.87, 150.2 0 M150.2 0 C155.9 -0.95, 161.03 2.51, 159.64 9.44 M150.2 0 C157 -1.05, 159.64 2.12, 159.64 9.44 M159.64 9.44 C160.07 17.19, 161.36 22.45, 159.64 28.31 M159.64 9.44 C160.59 14.27, 160.66 18.93, 159.64 28.31 M159.64 28.31 C159.48 33.61, 155.93 36.07, 150.2 37.75 M159.64 28.31 C157.79 33.95, 157.21 38.42, 150.2 37.75 M150.2 37.75 C106.06 39.27, 62.15 40.26, 9.44 37.75 M150.2 37.75 C109.1 37.02, 69.62 37.45, 9.44 37.75 M9.44 37.75 C5.04 38.9, 0.46 34, 0 28.31 M9.44 37.75 C4.71 36.73, 0.08 33.2, 0 28.31 M0 28.31 C-0.97 23.73, 0.87 17.39, 0 9.44 M0 28.31 C0.47 21.13, 0.71 14.8, 0 9.44 M0 9.44 C0.22 4.99, 1.34 -0.78, 9.44 0 M0 9.44 C0.56 1.59, 4.62 1.97, 9.44 0" fill="none" stroke="#1e1e1e" stroke-width="1"></path></g><g transform="translate(629.5442015737021 413.6103387856974) rotate(0 24.00000000000003 10)"><text direction="ltr" dominant-baseline="text-before-edge" fill="#1e1e1e" font-family="Virgil, Segoe UI Emoji" font-size="16px" style="white-space: pre;" text-anchor="middle" x="24" y="0">Kinesis</text></g><g stroke-linecap="round"><g transform="translate(743.891857823702 418.69016807719254) rotate(0 11.866442510026047 -0.2482063744369043)"><path d="M0.27 0.21 C4.29 0.04, 19.79 -0.76, 23.72 -0.85 M-0.26 -0.15 C3.72 -0.27, 19.31 -0.14, 23.29 -0.33" fill="none" stroke="#1e1e1e" stroke-width="1"></path></g><g transform="translate(743.891857823702 418.69016807719254) rotate(0 11.866442510026047 -0.2482063744369043)"><path d="M12.2 3.91 C14.96 2.91, 16.88 2.1, 23.29 -0.33 M12.2 3.91 C15.8 2.36, 19.78 1, 23.29 -0.33" fill="none" stroke="#1e1e1e" stroke-width="1"></path></g><g transform="translate(743.891857823702 418.69016807719254) rotate(0 11.866442510026047 -0.2482063744369043)"><path d="M12.07 -4.21 C14.87 -3.36, 16.82 -2.31, 23.29 -0.33 M12.07 -4.21 C15.71 -3.06, 19.73 -1.72, 23.29 -0.33" fill="none" stroke="#1e1e1e" stroke-width="1"></path></g></g><mask></mask><g stroke-linecap="round" transform="translate(776.9805580283177 382.42148804048793) rotate(0 40.23065809100831 37.686811470070325)"><path d="M18.84 0 C32.48 0.52, 49.32 -0.19, 61.62 0 M18.84 0 C32.24 -0.11, 44.48 -0.25, 61.62 0 M61.62 0 C74.18 -0.89, 80.83 7.19, 80.46 18.84 M61.62 0 C72.85 0.43, 82.59 8.27, 80.46 18.84 M80.46 18.84 C80.18 33.85, 79.82 47.29, 80.46 56.53 M80.46 18.84 C80.15 26.6, 79.63 35.75, 80.46 56.53 M80.46 56.53 C81.08 69.68, 74.43 76.6, 61.62 75.37 M80.46 56.53 C82.53 68.95, 74.47 75.34, 61.62 75.37 M61.62 75.37 C44.38 74.85, 31.56 77.31, 18.84 75.37 M61.62 75.37 C45.08 75.32, 28.77 75.18, 18.84 75.37 M18.84 75.37 C6.35 74.15, -0.32 67.78, 0 56.53 M18.84 75.37 C5.16 74.04, 0.95 70, 0 56.53 M0 56.53 C-0.91 46.37, -0.44 35.99, 0 18.84 M0 56.53 C-0.95 42.02, 0.2 27.62, 0 18.84 M0 18.84 C1.28 8, 6.03 0.45, 18.84 0 M0 18.84 C0.22 5.36, 6.45 0.57, 18.84 0" fill="none" stroke="#1e1e1e" stroke-width="1"></path></g><g transform="translate(800.316684869326 410.10829951055825) rotate(0 16.89453125 10)"><text direction="ltr" dominant-baseline="text-before-edge" fill="#1e1e1e" font-family="Virgil, Segoe UI Emoji" font-size="16px" style="white-space: pre;" text-anchor="middle" x="16.89453125" y="0">Flink</text></g><g stroke-linecap="round"><g transform="translate(815.8469398933811 378.1458039556828) rotate(0 0.15276288302800367 -26.974080749090263)"><path d="M-0.12 -0.03 C-0.18 -9.19, -0.26 -45.47, -0.05 -54.52 M-1.64 -1.1 C-1.92 -10.13, -1.6 -44.59, -1.19 -53.28" fill="none" stroke="#1e1e1e" stroke-width="1"></path></g><g transform="translate(815.8469398933811 378.1458039556828) rotate(0 0.15276288302800367 -26.974080749090263)"><path d="M7.41 -27.71 C4.47 -36.64, 0.78 -42.98, -1.19 -53.28 M7.41 -27.71 C5.05 -35.05, 2.92 -41.01, -1.19 -53.28" fill="none" stroke="#1e1e1e" stroke-width="1"></path></g><g transform="translate(815.8469398933811 378.1458039556828) rotate(0 0.15276288302800367 -26.974080749090263)"><path d="M-11.04 -28.17 C-7.97 -36.93, -5.65 -43.12, -1.19 -53.28 M-11.04 -28.17 C-8.45 -35.3, -5.63 -41.14, -1.19 -53.28" fill="none" stroke="#1e1e1e" stroke-width="1"></path></g></g><mask></mask><g stroke-linecap="round" transform="translate(755.9615482746752 203.30074160587537) rotate(0 62.92936798114465 59.195253689893434)"><path d="M83.86 3.52 C92.86 5.65, 102.19 12.76, 108.92 19.43 C115.65 26.1, 121.65 34.55, 124.24 43.54 C126.82 52.54, 126.56 64.26, 124.45 73.38 C122.33 82.5, 117.98 91.34, 111.55 98.27 C105.12 105.2, 95.08 111.51, 85.86 114.95 C76.65 118.4, 65.93 119.85, 56.25 118.92 C46.56 117.99, 35.96 114.61, 27.74 109.37 C19.53 104.12, 11.66 95.7, 6.96 87.45 C2.25 79.2, -0.31 69.13, -0.49 59.84 C-0.66 50.56, 1.49 39.8, 5.92 31.71 C10.34 23.63, 17.96 16.5, 26.08 11.33 C34.21 6.15, 44.29 1.62, 54.65 0.68 C65.01 -0.27, 82.31 4.54, 88.24 5.65 C94.17 6.76, 90.75 6.48, 90.24 7.34 M58.96 0.82 C68.23 -0.08, 81.2 2.91, 90.4 6.75 C99.59 10.6, 108.33 16.91, 114.14 23.86 C119.95 30.81, 123.62 39.68, 125.25 48.46 C126.87 57.23, 126.92 67.85, 123.91 76.51 C120.9 85.17, 114.33 94.02, 107.19 100.41 C100.04 106.8, 90.47 112.16, 81.01 114.84 C71.56 117.52, 59.88 117.93, 50.45 116.48 C41.02 115.03, 31.95 111.51, 24.41 106.15 C16.87 100.78, 9.42 92.85, 5.21 84.28 C1.01 75.72, -1.58 64.13, -0.81 54.77 C-0.04 45.41, 4.43 35.67, 9.84 28.12 C15.26 20.57, 23.36 13.9, 31.67 9.46 C39.98 5.01, 55.27 2.93, 59.7 1.47 C64.13 0, 58.16 0.1, 58.25 0.68" fill="none" stroke="#1e1e1e" stroke-width="1"></path></g><g transform="translate(784.8892271705689 252.63862999758715) rotate(0 34.00390625 10)"><text direction="ltr" dominant-baseline="text-before-edge" fill="#1e1e1e" font-family="Virgil, Segoe UI Emoji" font-size="16px" style="white-space: pre;" text-anchor="middle" x="34.00390625" y="0">OLAP DB</text></g><g stroke-linecap="round" transform="translate(741.4214316464712 10) rotate(0 77.5434786312237 35.58840984914019)"><path d="M17.79 0 C61.02 -0.26, 105.18 0.1, 137.29 0 M17.79 0 C59.97 0.64, 100.83 -0.53, 137.29 0 M137.29 0 C150.65 -0.17, 156.8 5.41, 155.09 17.79 M137.29 0 C151.3 -1.65, 154.91 4.8, 155.09 17.79 M155.09 17.79 C154.22 28.08, 155.37 37.37, 155.09 53.38 M155.09 17.79 C155.53 30.64, 156.03 43.41, 155.09 53.38 M155.09 53.38 C156.25 63.52, 148.38 72.15, 137.29 71.18 M155.09 53.38 C157.03 67.36, 151.33 72.51, 137.29 71.18 M137.29 71.18 C97.81 72.06, 58.87 71.67, 17.79 71.18 M137.29 71.18 C109.68 70.88, 81.13 71.25, 17.79 71.18 M17.79 71.18 C4.66 70.56, 0.74 65.09, 0 53.38 M17.79 71.18 C7.37 72.89, 0.25 67.36, 0 53.38 M0 53.38 C-1.21 47.2, 1.85 38.22, 0 17.79 M0 53.38 C0.04 42.16, -0.77 29.91, 0 17.79 M0 17.79 C-0.24 5.03, 7.79 1.31, 17.79 0 M0 17.79 C0.7 5.5, 7.83 -0.37, 17.79 0" fill="none" stroke="#1e1e1e" stroke-width="1"></path></g><g transform="translate(764.9727227776949 35.58840984914019) rotate(0 53.9921875 10)"><text direction="ltr" dominant-baseline="text-before-edge" fill="#1e1e1e" font-family="Virgil, Segoe UI Emoji" font-size="16px" style="white-space: pre;" text-anchor="middle" x="53.9921875" y="0">Analyst Browser</text></g><g stroke-linecap="round" transform="translate(768.8739438395813 116.90008943763041) rotate(0 51.13453969928662 25)"><path d="M12.5 0 C36.58 -1.3, 59.23 1.71, 89.77 0 M12.5 0 C43.1 0.15, 73.06 -0.02, 89.77 0 M89.77 0 C99.97 -1.44, 102.11 3.18, 102.27 12.5 M89.77 0 C97.45 -1.93, 100.42 3.51, 102.27 12.5 M102.27 12.5 C103.57 22.57, 102.22 29.31, 102.27 37.5 M102.27 12.5 C103.01 19.1, 102.04 27.91, 102.27 37.5 M102.27 37.5 C103.96 47.67, 100 51.16, 89.77 50 M102.27 37.5 C102.8 45.14, 99.67 48.98, 89.77 50 M89.77 50 C65.02 48.9, 41.73 50.7, 12.5 50 M89.77 50 C62.9 50.28, 37.67 50.51, 12.5 50 M12.5 50 C5.42 51.49, 0.22 47.67, 0 37.5 M12.5 50 C2.09 49.1, 0.56 44.28, 0 37.5 M0 37.5 C0.23 28.59, -1.02 19.45, 0 12.5 M0 37.5 C0.06 28.93, 1.11 21.92, 0 12.5 M0 12.5 C0.61 3.79, 5.82 -0.32, 12.5 0 M0 12.5 C0.74 4.77, 3.41 0.62, 12.5 0" fill="none" stroke="#1e1e1e" stroke-width="1"></path></g><g transform="translate(787.348327288868 121.90008943763041) rotate(0 32.66015625 20)"><text direction="ltr" dominant-baseline="text-before-edge" fill="#1e1e1e" font-family="Virgil, Segoe UI Emoji" font-size="16px" style="white-space: pre;" text-anchor="middle" x="32.66015625" y="0">Analytics </text><text direction="ltr" dominant-baseline="text-before-edge" fill="#1e1e1e" font-family="Virgil, Segoe UI Emoji" font-size="16px" style="white-space: pre;" text-anchor="middle" x="32.66015625" y="20">Service</text></g><g stroke-linecap="round"><g transform="translate(821.0983029640064 86.79278662922206) rotate(0 -0.018329159458971844 11.669999486472648)"><path d="M0.51 0.47 C0.6 4.32, 0.28 19.37, 0.25 23.17 M0.11 0.24 C0.18 4.16, -0.05 19.85, -0.03 23.78" fill="none" stroke="#1e1e1e" stroke-width="1"></path></g><g transform="translate(821.0983029640064 86.79278662922206) rotate(0 -0.018329159458971844 11.669999486472648)"><path d="M-3.96 12.8 C-2.49 15.75, -2.23 18.53, -0.03 23.78 M-3.96 12.8 C-2.5 15.8, -1.64 19.07, -0.03 23.78" fill="none" stroke="#1e1e1e" stroke-width="1"></path></g><g transform="translate(821.0983029640064 86.79278662922206) rotate(0 -0.018329159458971844 11.669999486472648)"><path d="M4.02 12.84 C3.56 15.82, 1.89 18.59, -0.03 23.78 M4.02 12.84 C3.16 15.82, 1.68 19.07, -0.03 23.78" fill="none" stroke="#1e1e1e" stroke-width="1"></path></g></g><mask></mask><g stroke-linecap="round"><g transform="translate(819.1912276012039 171.91437360933196) rotate(0 -0.38601381970147486 11.359815943839294)"><path d="M0.29 -0.17 C0.15 3.53, -0.26 18.88, -0.36 22.67 M-0.23 -0.73 C-0.45 3.3, -0.55 19.38, -0.58 23.35" fill="none" stroke="#1e1e1e" stroke-width="1"></path></g><g transform="translate(819.1912276012039 171.91437360933196) rotate(0 -0.38601381970147486 11.359815943839294)"><path d="M-4.39 12.64 C-3.02 17.26, -1.4 21.52, -0.58 23.35 M-4.39 12.64 C-3.32 15.45, -2.33 18.28, -0.58 23.35" fill="none" stroke="#1e1e1e" stroke-width="1"></path></g><g transform="translate(819.1912276012039 171.91437360933196) rotate(0 -0.38601381970147486 11.359815943839294)"><path d="M3.39 12.7 C1.7 17.31, 0.27 21.55, -0.58 23.35 M3.39 12.7 C2.33 15.46, 1.18 18.28, -0.58 23.35" fill="none" stroke="#1e1e1e" stroke-width="1"></path></g></g><mask></mask><g stroke-linecap="round" transform="translate(334.9506027334896 135.07889785719908) rotate(0 65.490234375 47.623046875)"><path d="M23.81 0 C53.04 1.09, 82.09 1.24, 107.17 0 M23.81 0 C42.54 -0.43, 61.04 0.13, 107.17 0 M107.17 0 C123.66 0.58, 131.23 9.17, 130.98 23.81 M107.17 0 C125.11 -0.15, 131.27 7.9, 130.98 23.81 M130.98 23.81 C129.21 40.31, 131.9 60.04, 130.98 71.43 M130.98 23.81 C131.66 42.18, 132.11 60.7, 130.98 71.43 M130.98 71.43 C131.05 86.09, 122.72 93.94, 107.17 95.25 M130.98 71.43 C129.86 85.98, 123.99 96.16, 107.17 95.25 M107.17 95.25 C82.44 95.45, 58.8 95.97, 23.81 95.25 M107.17 95.25 C75.03 95.62, 44.95 95.34, 23.81 95.25 M23.81 95.25 C9.22 96.96, -0.25 87.76, 0 71.43 M23.81 95.25 C8.16 94.32, 0.17 87.88, 0 71.43 M0 71.43 C-0.65 62.5, 1.56 50.45, 0 23.81 M0 71.43 C-0.07 58.3, -0.73 44.9, 0 23.81 M0 23.81 C1.75 7.23, 6.21 -0.59, 23.81 0 M0 23.81 C2.04 8.49, 7.65 1.02, 23.81 0" fill="none" stroke="#1e1e1e" stroke-width="1"></path></g><g transform="translate(353.3431808584896 162.70194473219908) rotate(0 47.09765625 20)"><text direction="ltr" dominant-baseline="text-before-edge" fill="#1e1e1e" font-family="Virgil, Segoe UI Emoji" font-size="16px" style="white-space: pre;" text-anchor="middle" x="47.09765625" y="0">Ad Placement </text><text direction="ltr" dominant-baseline="text-before-edge" fill="#1e1e1e" font-family="Virgil, Segoe UI Emoji" font-size="16px" style="white-space: pre;" text-anchor="middle" x="47.09765625" y="20">Service</text></g><g stroke-linecap="round" transform="translate(559.7126283454215 118.64664689480651) rotate(0 72.69127211417478 70.84147595836083)"><path d="M69.02 -0.75 C78.99 -2.09, 91.54 1.94, 101.37 6.18 C111.2 10.41, 120.98 16.82, 128 24.67 C135.02 32.53, 140.81 43.4, 143.49 53.29 C146.17 63.19, 146.12 74, 144.07 84.03 C142.03 94.05, 137.47 105.11, 131.23 113.44 C125 121.77, 116.08 129.37, 106.65 134 C97.23 138.64, 85.07 140.8, 74.67 141.24 C64.26 141.69, 53.56 140.52, 44.22 136.66 C34.87 132.8, 25.44 125.94, 18.59 118.08 C11.73 110.23, 6.03 99.45, 3.09 89.52 C0.14 79.58, -0.82 68.57, 0.95 58.46 C2.71 48.36, 7.51 37.29, 13.69 28.9 C19.87 20.51, 28.15 13, 38.01 8.1 C47.87 3.2, 66.44 0.54, 72.85 -0.48 C79.26 -1.51, 76.32 0.72, 76.48 1.96 M100.41 5.02 C110.4 7.93, 120.34 16.42, 127.36 24.24 C134.38 32.07, 139.88 42.42, 142.5 51.95 C145.13 61.48, 144.74 71.72, 143.11 81.44 C141.49 91.16, 138.36 101.53, 132.75 110.26 C127.13 118.98, 118.67 128.52, 109.43 133.79 C100.19 139.06, 87.91 141.51, 77.28 141.87 C66.66 142.23, 55.37 139.77, 45.67 135.95 C35.97 132.13, 26.36 126.53, 19.07 118.93 C11.79 111.32, 5 100.32, 1.94 90.32 C-1.12 80.33, -1.34 68.8, 0.73 58.98 C2.81 49.15, 8.29 39.74, 14.4 31.39 C20.5 23.04, 28.24 14.14, 37.37 8.9 C46.5 3.65, 58.66 0.48, 69.15 -0.09 C79.65 -0.65, 95.39 4.37, 100.34 5.53 C105.28 6.68, 99.13 5.91, 98.81 6.85" fill="none" stroke="#1e1e1e" stroke-width="1"></path></g><g transform="translate(609.6127840145866 179.3956348137466) rotate(0 22.89062500000003 10)"><text direction="ltr" dominant-baseline="text-before-edge" fill="#1e1e1e" font-family="Virgil, Segoe UI Emoji" font-size="16px" style="white-space: pre;" text-anchor="middle" x="22.890625" y="0">Ad DB</text></g><g transform="translate(568.131490701164 18.796790023960966) rotate(0 60.903953552246065 40)"><text direction="ltr" dominant-baseline="text-before-edge" fill="#1e1e1e" font-family="Virgil, Segoe UI Emoji" font-size="16px" style="white-space: pre;" text-anchor="start" x="0" y="0">Advertisement:</text><text direction="ltr" dominant-baseline="text-before-edge" fill="#1e1e1e" font-family="Virgil, Segoe UI Emoji" font-size="16px" style="white-space: pre;" text-anchor="start" x="0" y="20">- AdId</text><text direction="ltr" dominant-baseline="text-before-edge" fill="#1e1e1e" font-family="Virgil, Segoe UI Emoji" font-size="16px" style="white-space: pre;" text-anchor="start" x="0" y="40">- RedirectUrl</text><text direction="ltr" dominant-baseline="text-before-edge" fill="#1e1e1e" font-family="Virgil, Segoe UI Emoji" font-size="16px" style="white-space: pre;" text-anchor="start" x="0" y="60">- ... metadata </text></g><g stroke-linecap="round"><g transform="translate(478.6280361113401 193.80088796116706) rotate(0 36.91240173703113 -0.18481720816680536)"><path d="M-0.96 -0.34 C11.46 -0.18, 61.71 -0.14, 74.2 -0.02 M0.73 -1.57 C13.06 -1.69, 61.35 -1.95, 73.45 -1.96" fill="none" stroke="#1e1e1e" stroke-width="1"></path></g><g transform="translate(478.6280361113401 193.80088796116706) rotate(0 36.91240173703113 -0.18481720816680536)"><path d="M27.27 -10.49 C18.95 -7.34, 12.44 -4.95, -0.96 -0.34 M27.27 -10.49 C17.28 -6.85, 7.58 -3.28, -0.96 -0.34" fill="none" stroke="#1e1e1e" stroke-width="1"></path></g><g transform="translate(478.6280361113401 193.80088796116706) rotate(0 36.91240173703113 -0.18481720816680536)"><path d="M27.18 10.04 C19.06 7.61, 12.57 4.43, -0.96 -0.34 M27.18 10.04 C17.04 6.25, 7.37 2.41, -0.96 -0.34" fill="none" stroke="#1e1e1e" stroke-width="1"></path></g><g transform="translate(478.6280361113401 193.80088796116706) rotate(0 36.91240173703113 -0.18481720816680536)"><path d="M45.29 8.4 C52.45 6.43, 61.25 3.25, 73.45 -1.96 M45.29 8.4 C55.5 4.66, 66.18 0.82, 73.45 -1.96" fill="none" stroke="#1e1e1e" stroke-width="1"></path></g><g transform="translate(478.6280361113401 193.80088796116706) rotate(0 36.91240173703113 -0.18481720816680536)"><path d="M45.22 -12.12 C52.23 -8.52, 61.05 -6.12, 73.45 -1.96 M45.22 -12.12 C55.64 -8.45, 66.34 -4.87, 73.45 -1.96" fill="none" stroke="#1e1e1e" stroke-width="1"></path></g></g><mask></mask><g transform="translate(897.9498265516207 216.73699973711973) rotate(0 76.64793395996094 50)"><text direction="ltr" dominant-baseline="text-before-edge" fill="#1e1e1e" font-family="Virgil, Segoe UI Emoji" font-size="16px" style="white-space: pre;" text-anchor="start" x="0" y="0">Aggregated Data</text><text direction="ltr" dominant-baseline="text-before-edge" fill="#1e1e1e" font-family="Virgil, Segoe UI Emoji" font-size="16px" style="white-space: pre;" text-anchor="start" x="0" y="20">- AdId</text><text direction="ltr" dominant-baseline="text-before-edge" fill="#1e1e1e" font-family="Virgil, Segoe UI Emoji" font-size="16px" style="white-space: pre;" text-anchor="start" x="0" y="40">- AdvertiserId (PK)</text><text direction="ltr" dominant-baseline="text-before-edge" fill="#1e1e1e" font-family="Virgil, Segoe UI Emoji" font-size="16px" style="white-space: pre;" text-anchor="start" x="0" y="60">- Minute (SK)</text><text direction="ltr" dominant-baseline="text-before-edge" fill="#1e1e1e" font-family="Virgil, Segoe UI Emoji" font-size="16px" style="white-space: pre;" text-anchor="start" x="0" y="80">- Click Count</text></g><g transform="translate(410.4193573604496 314.0709607156641) rotate(0 183.97589111328128 30)"><text direction="ltr" dominant-baseline="text-before-edge" fill="#1e1e1e" font-family="Virgil, Segoe UI Emoji" font-size="16px" style="white-space: pre;" text-anchor="start" x="0" y="0">- Both Kinesis and Flink partition by AdId with</text><text direction="ltr" dominant-baseline="text-before-edge" fill="#1e1e1e" font-family="Virgil, Segoe UI Emoji" font-size="16px" style="white-space: pre;" text-anchor="start" x="0" y="20">   celebrity solution for hot shards</text><text direction="ltr" dominant-baseline="text-before-edge" fill="#1e1e1e" font-family="Virgil, Segoe UI Emoji" font-size="16px" style="white-space: pre;" text-anchor="start" x="0" y="40">- 7 day retention period on Kinesis</text></g><g stroke-linecap="round" transform="translate(199.26532885268892 169.81391348717625) rotate(0 41.82508274689235 135.50951017640364)"><path d="M20.91 0 C33.86 -0.12, 47.04 0.88, 62.74 0 M20.91 0 C32.62 0.85, 45.95 1.28, 62.74 0 M62.74 0 C78.57 1.16, 84.11 6.37, 83.65 20.91 M62.74 0 C78.24 -1.02, 83.73 5.57, 83.65 20.91 M83.65 20.91 C81.39 86.66, 83.05 150.81, 83.65 250.11 M83.65 20.91 C82.73 107.16, 82.94 194.17, 83.65 250.11 M83.65 250.11 C83.87 265.89, 74.87 270.24, 62.74 271.02 M83.65 250.11 C84.21 262.49, 78.15 272.99, 62.74 271.02 M62.74 271.02 C49.91 271.21, 39.19 269.59, 20.91 271.02 M62.74 271.02 C53.33 271.48, 42.36 270.64, 20.91 271.02 M20.91 271.02 C8.63 270.7, 0.64 264.57, 0 250.11 M20.91 271.02 C6.21 271.64, 2.02 263.23, 0 250.11 M0 250.11 C0.98 200.95, 1.33 150.91, 0 20.91 M0 250.11 C1.61 184.42, 1.49 118.7, 0 20.91 M0 20.91 C0.62 5.14, 8.49 -1.18, 20.91 0 M0 20.91 C1.5 6.89, 8.03 2.19, 20.91 0" fill="none" stroke="#1e1e1e" stroke-width="1"></path></g><g transform="translate(205.75447409958127 285.3234236635799) rotate(0 35.3359375 20)"><text direction="ltr" dominant-baseline="text-before-edge" fill="#1e1e1e" font-family="Virgil, Segoe UI Emoji" font-size="16px" style="white-space: pre;" text-anchor="middle" x="35.3359375" y="0">LB &amp; API </text><text direction="ltr" dominant-baseline="text-before-edge" fill="#1e1e1e" font-family="Virgil, Segoe UI Emoji" font-size="16px" style="white-space: pre;" text-anchor="middle" x="35.3359375" y="20">Gateway</text></g><g stroke-linecap="round" transform="translate(10 259.64809044298454) rotate(0 55.98632812499999 44.6328125)"><path d="M22.32 0 C43.16 0.74, 62.72 -1.19, 89.66 0 M22.32 0 C46.74 -0.04, 69.5 -0.92, 89.66 0 M89.66 0 C105.89 -0.89, 112.04 6.22, 111.97 22.32 M89.66 0 C104.16 -1.51, 110.85 6.11, 111.97 22.32 M111.97 22.32 C113.68 36.28, 111.53 53.51, 111.97 66.95 M111.97 22.32 C112.36 36.28, 111.35 48.01, 111.97 66.95 M111.97 66.95 C112.46 80.47, 105.81 90.98, 89.66 89.27 M111.97 66.95 C111.68 82.34, 104.75 88.34, 89.66 89.27 M89.66 89.27 C67.9 88.54, 47.35 90.63, 22.32 89.27 M89.66 89.27 C65.89 88.98, 40.78 89.4, 22.32 89.27 M22.32 89.27 C6.78 89.8, 1.75 81.12, 0 66.95 M22.32 89.27 C5.45 88.59, 2.04 82.38, 0 66.95 M0 66.95 C-0.48 53.13, -1.57 42.81, 0 22.32 M0 66.95 C0.03 53.31, 0.49 40.92, 0 22.32 M0 22.32 C1.3 7.37, 8.36 1.91, 22.32 0 M0 22.32 C1.27 8.43, 5.62 -1.73, 22.32 0" fill="none" stroke="#1e1e1e" stroke-width="1"></path></g><g transform="translate(38.880859375 294.28090294298454) rotate(0 27.10546875 10)"><text direction="ltr" dominant-baseline="text-before-edge" fill="#1e1e1e" font-family="Virgil, Segoe UI Emoji" font-size="16px" style="white-space: pre;" text-anchor="middle" x="27.10546875" y="0">Browser</text></g><g stroke-linecap="round"><g transform="translate(134.99271419461374 303.97266727642636) rotate(0 28.49354597393547 0.061418079753821075)"><path d="M-0.46 0.58 C9.09 0.96, 48.23 1.19, 58 1.23 M1.5 -0.16 C10.91 0, 48.17 -0.15, 57.58 -0.32" fill="none" stroke="#1e1e1e" stroke-width="1"></path></g><g transform="translate(134.99271419461374 303.97266727642636) rotate(0 28.49354597393547 0.061418079753821075)"><path d="M26.44 -8.82 C17.69 -3.87, 8.92 -0.29, -0.46 0.58 M26.44 -8.82 C17.51 -5.98, 7.24 -2.78, -0.46 0.58" fill="none" stroke="#1e1e1e" stroke-width="1"></path></g><g transform="translate(134.99271419461374 303.97266727642636) rotate(0 28.49354597393547 0.061418079753821075)"><path d="M26.19 10.67 C17.7 8.64, 9.02 5.24, -0.46 0.58 M26.19 10.67 C17.31 6.54, 7.13 2.76, -0.46 0.58" fill="none" stroke="#1e1e1e" stroke-width="1"></path></g><g transform="translate(134.99271419461374 303.97266727642636) rotate(0 28.49354597393547 0.061418079753821075)"><path d="M30.9 9.68 C41.52 7.89, 51.94 4.52, 57.58 -0.32 M30.9 9.68 C41.11 5.74, 50.01 2, 57.58 -0.32" fill="none" stroke="#1e1e1e" stroke-width="1"></path></g><g transform="translate(134.99271419461374 303.97266727642636) rotate(0 28.49354597393547 0.061418079753821075)"><path d="M30.71 -9.81 C41.23 -4.62, 51.72 -1.01, 57.58 -0.32 M30.71 -9.81 C41.03 -6.77, 50 -3.55, 57.58 -0.32" fill="none" stroke="#1e1e1e" stroke-width="1"></path></g></g><mask></mask><g stroke-linecap="round"><g transform="translate(295.213602149306 364.99871621246257) rotate(0 48.97119861655193 29.978607841885832)"><path d="M1.01 1.1 C17.6 11.11, 82.88 50.9, 99.08 60.65 M0.08 0.64 C16.66 10.25, 82.48 48.88, 98.73 58.89" fill="none" stroke="#1e1e1e" stroke-width="1"></path></g><g transform="translate(295.213602149306 364.99871621246257) rotate(0 48.97119861655193 29.978607841885832)"><path d="M30.43 6.97 C24.55 7.58, 16.18 4.61, 1.01 1.1 M30.43 6.97 C22.48 4.65, 14.34 3.02, 1.01 1.1" fill="none" stroke="#1e1e1e" stroke-width="1"></path></g><g transform="translate(295.213602149306 364.99871621246257) rotate(0 48.97119861655193 29.978607841885832)"><path d="M19.78 24.51 C16.59 20.44, 11.01 12.89, 1.01 1.1 M19.78 24.51 C14.58 17.49, 9.32 11.13, 1.01 1.1" fill="none" stroke="#1e1e1e" stroke-width="1"></path></g><g transform="translate(295.213602149306 364.99871621246257) rotate(0 48.97119861655193 29.978607841885832)"><path d="M69.27 53.21 C78.84 56.34, 85.86 56.39, 98.73 58.89 M69.27 53.21 C77.3 54.26, 85.06 55.75, 98.73 58.89" fill="none" stroke="#1e1e1e" stroke-width="1"></path></g><g transform="translate(295.213602149306 364.99871621246257) rotate(0 48.97119861655193 29.978607841885832)"><path d="M79.82 35.6 C86.71 43.43, 90.98 48.08, 98.73 58.89 M79.82 35.6 C85.12 41.37, 90.03 47.61, 98.73 58.89" fill="none" stroke="#1e1e1e" stroke-width="1"></path></g></g><mask></mask><g stroke-linecap="round"><g transform="translate(290.44346373588587 231.6863060210908) rotate(0 17.104613218133522 -21.35349127125596)"><path d="M1.14 0.69 C6.72 -6.67, 28.84 -35.74, 34.49 -43.07 M0.27 0.01 C5.63 -6.66, 27.95 -34.68, 33.68 -41.72" fill="none" stroke="#1e1e1e" stroke-width="1"></path></g><g transform="translate(290.44346373588587 231.6863060210908) rotate(0 17.104613218133522 -21.35349127125596)"><path d="M9.26 -25.43 C7.53 -14.85, 2.66 -3.91, 1.14 0.69 M9.26 -25.43 C7.03 -19.46, 4.63 -12.7, 1.14 0.69" fill="none" stroke="#1e1e1e" stroke-width="1"></path></g><g transform="translate(290.44346373588587 231.6863060210908) rotate(0 17.104613218133522 -21.35349127125596)"><path d="M24.15 -14.1 C16.6 -7.74, 6 -1.15, 1.14 0.69 M24.15 -14.1 C18.11 -11.11, 11.9 -7.25, 1.14 0.69" fill="none" stroke="#1e1e1e" stroke-width="1"></path></g><g transform="translate(290.44346373588587 231.6863060210908) rotate(0 17.104613218133522 -21.35349127125596)"><path d="M24.86 -15.82 C29.17 -25.4, 30.8 -34.45, 33.68 -41.72 M24.86 -15.82 C26.94 -23.04, 28.87 -29.59, 33.68 -41.72" fill="none" stroke="#1e1e1e" stroke-width="1"></path></g><g transform="translate(290.44346373588587 231.6863060210908) rotate(0 17.104613218133522 -21.35349127125596)"><path d="M10.28 -27.55 C20.3 -32.76, 27.54 -37.3, 33.68 -41.72 M10.28 -27.55 C16.09 -31.69, 21.75 -35.23, 33.68 -41.72" fill="none" stroke="#1e1e1e" stroke-width="1"></path></g></g><mask></mask></svg>