<svg height="478.35848642068777" version="1.1" viewbox="0 0 1061.2456944715427 478.35848642068777" width="1061.2456944715427" xmlns="http://www.w3.org/2000/svg">
<!-- svg-source:excalidraw -->
<!-- payload-type:application/vnd.excalidraw+json --><!-- payload-version:2 -->
<defs>
<style class="style-fonts">
</style>
</defs>
<rect fill="#ffffff" height="478.35848642068777" width="1061.2456944715427" x="0" y="0"></rect><g stroke-linecap="round" transform="translate(399.1152757098577 383.00692392068777) rotate(0 64.1640625 42.67578125)"><path d="M21.34 0 C43.25 -0.99, 64.48 -0.42, 106.99 0 M21.34 0 C52.29 -0.59, 86.17 -0.7, 106.99 0 M106.99 0 C120.49 -0.9, 127.28 8.47, 128.33 21.34 M106.99 0 C122.18 1.33, 126.42 7.8, 128.33 21.34 M128.33 21.34 C129.1 32.8, 129.42 39.53, 128.33 64.01 M128.33 21.34 C128.83 33.82, 129.34 46.88, 128.33 64.01 M128.33 64.01 C128.98 78.41, 119.83 84.78, 106.99 85.35 M128.33 64.01 C127.17 77.43, 121.45 86.97, 106.99 85.35 M106.99 85.35 C73.38 85.51, 41.01 87.81, 21.34 85.35 M106.99 85.35 C88.31 85.55, 68.64 85.26, 21.34 85.35 M21.34 85.35 C7.85 86.72, -1.59 78.89, 0 64.01 M21.34 85.35 C8.21 85.62, -0.44 76.43, 0 64.01 M0 64.01 C-0.45 51.46, 0.11 37.9, 0 21.34 M0 64.01 C0.34 54.13, -0.14 45.5, 0 21.34 M0 21.34 C0.35 7.59, 6.76 0.62, 21.34 0 M0 21.34 C0.55 7.55, 7.95 2.28, 21.34 0" fill="none" stroke="#1e1e1e" stroke-width="1"></path></g><g transform="translate(412.8418382098577 415.68270517068777) rotate(0 50.4375 10)"><text direction="ltr" dominant-baseline="text-before-edge" fill="#1e1e1e" font-family="Virgil, Segoe UI Emoji" font-size="16px" style="white-space: pre;" text-anchor="middle" x="50.4375" y="0">Click Processor</text></g><g stroke-linecap="round"><g transform="translate(539.681427027597 423.7170963345252) rotate(0 12.189072306922242 -0.19957899977089255)"><path d="M0 0.4 C4.17 0.38, 20.91 0, 24.88 -0.16 M-0.67 0.13 C3.49 -0.05, 20.45 -0.98, 24.71 -1" fill="none" stroke="#1e1e1e" stroke-width="1"></path></g><g transform="translate(539.681427027597 423.7170963345252) rotate(0 12.189072306922242 -0.19957899977089255)"><path d="M13.4 3.55 C16.91 2.88, 19.79 0.48, 24.71 -1 M13.4 3.55 C16.42 2.16, 19.52 1.24, 24.71 -1" fill="none" stroke="#1e1e1e" stroke-width="1"></path></g><g transform="translate(539.681427027597 423.7170963345252) rotate(0 12.189072306922242 -0.19957899977089255)"><path d="M13.12 -4.79 C16.7 -3.2, 19.66 -3.34, 24.71 -1 M13.12 -4.79 C16.26 -3.85, 19.44 -2.45, 24.71 -1" fill="none" stroke="#1e1e1e" stroke-width="1"></path></g></g><mask></mask><g stroke-linecap="round" transform="translate(573.7238890737023 404.7372919106974) rotate(0 79.8203125 18.873046875)"><path d="M9.44 0 C52.48 -3.27, 93.34 0.58, 150.2 0 M9.44 0 C46.65 1.32, 85.32 1.22, 150.2 0 M150.2 0 C154.84 0.6, 158.31 4.71, 159.64 9.44 M150.2 0 C157.8 0.5, 161.38 4.02, 159.64 9.44 M159.64 9.44 C161.38 14.03, 159.36 19.04, 159.64 28.31 M159.64 9.44 C159.05 15.39, 159.23 21.55, 159.64 28.31 M159.64 28.31 C159.84 36.01, 158.41 36.48, 150.2 37.75 M159.64 28.31 C161.19 34.92, 156.01 39.8, 150.2 37.75 M150.2 37.75 C94.13 38.26, 40.07 36.81, 9.44 37.75 M150.2 37.75 C105.08 39.03, 62.03 38.82, 9.44 37.75 M9.44 37.75 C2.76 36.17, 0.35 33.08, 0 28.31 M9.44 37.75 C0.92 36.85, 1.14 34.36, 0 28.31 M0 28.31 C0.62 23.08, -1.24 15.59, 0 9.44 M0 28.31 C-0.2 23.36, 0.19 18.02, 0 9.44 M0 9.44 C0.73 5.13, 3.57 0.11, 9.44 0 M0 9.44 C-2.3 1.54, 3.88 1.35, 9.44 0" fill="none" stroke="#1e1e1e" stroke-width="1"></path></g><g transform="translate(629.5442015737023 413.6103387856974) rotate(0 24 10)"><text direction="ltr" dominant-baseline="text-before-edge" fill="#1e1e1e" font-family="Virgil, Segoe UI Emoji" font-size="16px" style="white-space: pre;" text-anchor="middle" x="24" y="0">Kinesis</text></g><g stroke-linecap="round"><g transform="translate(743.891857823702 418.69016807719254) rotate(0 11.866442510026047 -0.2482063744369043)"><path d="M0.51 -0.18 C4.53 -0.28, 19.71 -0.75, 23.53 -0.75 M0.12 -0.74 C4.09 -0.76, 19.19 -0.13, 23 -0.17" fill="none" stroke="#1e1e1e" stroke-width="1"></path></g><g transform="translate(743.891857823702 418.69016807719254) rotate(0 11.866442510026047 -0.2482063744369043)"><path d="M11.77 3.68 C13.84 2.64, 16.02 1.77, 23 -0.17 M11.77 3.68 C15.65 2.32, 19.83 1.04, 23 -0.17" fill="none" stroke="#1e1e1e" stroke-width="1"></path></g><g transform="translate(743.891857823702 418.69016807719254) rotate(0 11.866442510026047 -0.2482063744369043)"><path d="M11.92 -4.44 C13.95 -3.85, 16.1 -3.09, 23 -0.17 M11.92 -4.44 C15.76 -2.81, 19.89 -1.1, 23 -0.17" fill="none" stroke="#1e1e1e" stroke-width="1"></path></g></g><mask></mask><g stroke-linecap="round" transform="translate(776.9805580283177 382.42148804048793) rotate(0 40.23065809100831 37.686811470070325)"><path d="M18.84 0 C34.77 -0.89, 53.87 1, 61.62 0 M18.84 0 C33.49 0.65, 50.04 0.09, 61.62 0 M61.62 0 C75.69 0.76, 78.75 6.2, 80.46 18.84 M61.62 0 C75.33 2.12, 81.13 5.95, 80.46 18.84 M80.46 18.84 C80.75 31.79, 80 46.49, 80.46 56.53 M80.46 18.84 C81.46 28.19, 81.17 38.94, 80.46 56.53 M80.46 56.53 C80.04 70.88, 76.07 73.8, 61.62 75.37 M80.46 56.53 C80.47 68.44, 74.77 76.39, 61.62 75.37 M61.62 75.37 C52.18 73.94, 40.65 76.48, 18.84 75.37 M61.62 75.37 C48.47 74.28, 34 74.65, 18.84 75.37 M18.84 75.37 C7.28 75.16, 0.98 67.38, 0 56.53 M18.84 75.37 C8.34 75.93, 1.65 67.39, 0 56.53 M0 56.53 C0.56 43.97, 0.7 32.59, 0 18.84 M0 56.53 C0.07 44.56, -1.14 31.78, 0 18.84 M0 18.84 C0.64 7.46, 6.86 0.08, 18.84 0 M0 18.84 C1.63 4.88, 4.48 0.77, 18.84 0" fill="none" stroke="#1e1e1e" stroke-width="1"></path></g><g transform="translate(800.316684869326 410.10829951055825) rotate(0 16.89453125 10)"><text direction="ltr" dominant-baseline="text-before-edge" fill="#1e1e1e" font-family="Virgil, Segoe UI Emoji" font-size="16px" style="white-space: pre;" text-anchor="middle" x="16.89453125" y="0">Flink</text></g><g stroke-linecap="round"><g transform="translate(815.8469398933811 378.1458039556828) rotate(0 0.15276288302800367 -26.974080749090263)"><path d="M0.51 0.7 C0.5 -8.37, -0.52 -44.64, -0.69 -53.59 M-0.69 0.02 C-0.28 -9.5, 1.06 -46.38, 1.5 -55.53" fill="none" stroke="#1e1e1e" stroke-width="1"></path></g><g transform="translate(815.8469398933811 378.1458039556828) rotate(0 0.15276288302800367 -26.974080749090263)"><path d="M9.67 -29.82 C8.63 -37.81, 6.04 -43.86, 1.5 -55.53 M9.67 -29.82 C7.19 -39.14, 2.49 -49.29, 1.5 -55.53" fill="none" stroke="#1e1e1e" stroke-width="1"></path></g><g transform="translate(815.8469398933811 378.1458039556828) rotate(0 0.15276288302800367 -26.974080749090263)"><path d="M-8.77 -30.58 C-5.23 -38.46, -3.25 -44.32, 1.5 -55.53 M-8.77 -30.58 C-4.27 -39.66, -2 -49.51, 1.5 -55.53" fill="none" stroke="#1e1e1e" stroke-width="1"></path></g></g><mask></mask><g stroke-linecap="round" transform="translate(755.9615482746752 203.30074160587537) rotate(0 62.92936798114465 59.195253689893434)"><path d="M42.53 4.02 C50.9 0.11, 63.08 -1.52, 72.68 -0.2 C82.27 1.13, 92.15 6.35, 100.1 11.96 C108.05 17.58, 116.12 25.2, 120.39 33.49 C124.65 41.77, 126.07 52.52, 125.69 61.69 C125.31 70.86, 122.83 80.78, 118.09 88.52 C113.35 96.27, 105.54 103.31, 97.27 108.16 C88.99 113.02, 78.22 116.66, 68.44 117.64 C58.66 118.61, 47.43 117.27, 38.59 114.02 C29.74 110.77, 21.66 105.06, 15.36 98.12 C9.06 91.18, 2.94 81.54, 0.79 72.38 C-1.37 63.23, -0.43 51.97, 2.42 43.18 C5.28 34.39, 10.62 26.51, 17.93 19.63 C25.24 12.76, 40.63 4.8, 46.29 1.91 C51.95 -0.97, 51.42 1.45, 51.89 2.33 M66.42 0.65 C75.75 0.29, 88.53 4.57, 96.95 9.14 C105.37 13.72, 112.1 20.41, 116.95 28.1 C121.8 35.8, 125.79 46.05, 126.05 55.31 C126.31 64.57, 122.54 75.19, 118.5 83.66 C114.45 92.13, 109.18 100.71, 101.79 106.14 C94.4 111.58, 83.65 114.67, 74.14 116.28 C64.63 117.89, 53.92 118.64, 44.71 115.82 C35.5 113, 25.85 106.04, 18.89 99.35 C11.93 92.66, 5.86 84.22, 2.95 75.67 C0.05 67.13, -0.33 56.93, 1.45 48.07 C3.24 39.21, 7.54 29.65, 13.68 22.5 C19.81 15.35, 29.18 8.64, 38.26 5.17 C47.34 1.69, 63.23 2.28, 68.15 1.65 C73.08 1.03, 68.25 0.86, 67.83 1.42" fill="none" stroke="#1e1e1e" stroke-width="1"></path></g><g transform="translate(784.8892271705689 252.63862999758715) rotate(0 34.00390625 10)"><text direction="ltr" dominant-baseline="text-before-edge" fill="#1e1e1e" font-family="Virgil, Segoe UI Emoji" font-size="16px" style="white-space: pre;" text-anchor="middle" x="34.00390625" y="0">OLAP DB</text></g><g stroke-linecap="round" transform="translate(741.4214316464712 10) rotate(0 77.5434786312237 35.58840984914019)"><path d="M17.79 0 C46.1 0.83, 74.29 -2.39, 137.29 0 M17.79 0 C53.43 -1.25, 89.29 -0.81, 137.29 0 M137.29 0 C149.81 0.18, 153.71 5.36, 155.09 17.79 M137.29 0 C148 -0.81, 155.32 7.55, 155.09 17.79 M155.09 17.79 C155.14 31.45, 156.65 47.84, 155.09 53.38 M155.09 17.79 C155.34 26.11, 154.62 33.68, 155.09 53.38 M155.09 53.38 C155.83 66.61, 147.57 71.83, 137.29 71.18 M155.09 53.38 C156.18 65.51, 148.72 69.37, 137.29 71.18 M137.29 71.18 C98.58 71.02, 61.22 71, 17.79 71.18 M137.29 71.18 C112.4 70.73, 86.31 71.24, 17.79 71.18 M17.79 71.18 C6.28 71.65, -0.35 65.86, 0 53.38 M17.79 71.18 C6.48 71.62, 0.84 67.53, 0 53.38 M0 53.38 C-1.42 42.59, 1.16 31.1, 0 17.79 M0 53.38 C-1.04 42.91, 0.19 31.64, 0 17.79 M0 17.79 C0.37 7.24, 6.97 0.6, 17.79 0 M0 17.79 C0.04 5.42, 7.87 1.69, 17.79 0" fill="none" stroke="#1e1e1e" stroke-width="1"></path></g><g transform="translate(764.9727227776949 35.58840984914019) rotate(0 53.9921875 10)"><text direction="ltr" dominant-baseline="text-before-edge" fill="#1e1e1e" font-family="Virgil, Segoe UI Emoji" font-size="16px" style="white-space: pre;" text-anchor="middle" x="53.9921875" y="0">Analyst Browser</text></g><g stroke-linecap="round" transform="translate(768.8739438395813 116.90008943763041) rotate(0 51.13453969928662 25)"><path d="M12.5 0 C41.44 1.67, 72.39 1.24, 89.77 0 M12.5 0 C34.9 -0.14, 55.96 -0.52, 89.77 0 M89.77 0 C97.09 -0.7, 102.47 5.57, 102.27 12.5 M89.77 0 C100.3 -1.46, 103.81 4.49, 102.27 12.5 M102.27 12.5 C100.91 19.49, 101.93 26.96, 102.27 37.5 M102.27 12.5 C102.52 21.79, 101.36 30.04, 102.27 37.5 M102.27 37.5 C103.22 46.06, 97.72 48.43, 89.77 50 M102.27 37.5 C102.67 44.09, 95.88 49.11, 89.77 50 M89.77 50 C61.03 52.17, 36.21 51.81, 12.5 50 M89.77 50 C72.49 50.06, 54.69 50.13, 12.5 50 M12.5 50 C4.64 50.38, 0.73 47.82, 0 37.5 M12.5 50 C4.65 50.12, -2.3 44.22, 0 37.5 M0 37.5 C-0.07 30.62, -1.37 19.33, 0 12.5 M0 37.5 C0.07 29.81, 0.41 21.12, 0 12.5 M0 12.5 C0.03 3.73, 5.86 1.47, 12.5 0 M0 12.5 C2.21 3.77, 2.44 0.2, 12.5 0" fill="none" stroke="#1e1e1e" stroke-width="1"></path></g><g transform="translate(787.348327288868 121.90008943763041) rotate(0 32.66015625 20)"><text direction="ltr" dominant-baseline="text-before-edge" fill="#1e1e1e" font-family="Virgil, Segoe UI Emoji" font-size="16px" style="white-space: pre;" text-anchor="middle" x="32.66015625" y="0">Analytics </text><text direction="ltr" dominant-baseline="text-before-edge" fill="#1e1e1e" font-family="Virgil, Segoe UI Emoji" font-size="16px" style="white-space: pre;" text-anchor="middle" x="32.66015625" y="20">Service</text></g><g stroke-linecap="round"><g transform="translate(821.0983029640064 86.79278662922206) rotate(0 -0.018329159458971844 11.669999486472648)"><path d="M0.16 -0.08 C0.18 3.75, 0.41 19.59, 0.4 23.5 M-0.42 -0.59 C-0.46 3.3, 0.15 18.52, 0.2 22.62" fill="none" stroke="#1e1e1e" stroke-width="1"></path></g><g transform="translate(821.0983029640064 86.79278662922206) rotate(0 -0.018329159458971844 11.669999486472648)"><path d="M-4.09 11.77 C-2.62 16.03, -0.86 19.55, 0.2 22.62 M-4.09 11.77 C-2.95 15.02, -1.45 18.68, 0.2 22.62" fill="none" stroke="#1e1e1e" stroke-width="1"></path></g><g transform="translate(821.0983029640064 86.79278662922206) rotate(0 -0.018329159458971844 11.669999486472648)"><path d="M3.89 11.55 C2.57 15.9, 1.53 19.5, 0.2 22.62 M3.89 11.55 C2.57 14.86, 1.6 18.59, 0.2 22.62" fill="none" stroke="#1e1e1e" stroke-width="1"></path></g></g><mask></mask><g stroke-linecap="round"><g transform="translate(819.1912276012039 171.91437360933196) rotate(0 -0.38601381970147486 11.359815943839294)"><path d="M0.44 0.16 C0.32 3.97, -0.33 19.03, -0.59 22.77 M0 -0.23 C-0.19 3.68, -0.92 19.61, -0.93 23.49" fill="none" stroke="#1e1e1e" stroke-width="1"></path></g><g transform="translate(819.1912276012039 171.91437360933196) rotate(0 -0.38601381970147486 11.359815943839294)"><path d="M-4.52 12.71 C-3.18 16.43, -2.12 19.4, -0.93 23.49 M-4.52 12.71 C-3.55 15.84, -2.33 18.38, -0.93 23.49" fill="none" stroke="#1e1e1e" stroke-width="1"></path></g><g transform="translate(819.1912276012039 171.91437360933196) rotate(0 -0.38601381970147486 11.359815943839294)"><path d="M3.25 12.92 C2.04 16.6, 0.54 19.5, -0.93 23.49 M3.25 12.92 C2.12 15.98, 1.23 18.47, -0.93 23.49" fill="none" stroke="#1e1e1e" stroke-width="1"></path></g></g><mask></mask><g stroke-linecap="round" transform="translate(334.9506027334896 135.07889785719908) rotate(0 65.490234375 47.623046875)"><path d="M23.81 0 C55.68 -1.65, 86.62 -1.28, 107.17 0 M23.81 0 C46.84 -1.22, 68.63 -0.45, 107.17 0 M107.17 0 C122.62 1.79, 132.87 6.36, 130.98 23.81 M107.17 0 C123.06 -0.65, 131.57 8.96, 130.98 23.81 M130.98 23.81 C132.42 34.26, 131.7 48.83, 130.98 71.43 M130.98 23.81 C131.06 37.89, 129.92 53.09, 130.98 71.43 M130.98 71.43 C131.98 87.1, 124.02 93.53, 107.17 95.25 M130.98 71.43 C133.04 87.87, 124.69 93.54, 107.17 95.25 M107.17 95.25 C80.65 95.04, 53.79 95.86, 23.81 95.25 M107.17 95.25 C80.78 96.13, 52.97 95.37, 23.81 95.25 M23.81 95.25 C8.58 96.42, 0.58 87.38, 0 71.43 M23.81 95.25 C9.57 93.84, -1.8 88.08, 0 71.43 M0 71.43 C1.37 56.06, 0.66 38.63, 0 23.81 M0 71.43 C0.56 58.03, -1.15 45.05, 0 23.81 M0 23.81 C-0.63 6.43, 8.92 -1.82, 23.81 0 M0 23.81 C0.66 7.48, 6.2 -1.6, 23.81 0" fill="none" stroke="#1e1e1e" stroke-width="1"></path></g><g transform="translate(353.3431808584896 162.70194473219908) rotate(0 47.09765625 20)"><text direction="ltr" dominant-baseline="text-before-edge" fill="#1e1e1e" font-family="Virgil, Segoe UI Emoji" font-size="16px" style="white-space: pre;" text-anchor="middle" x="47.09765625" y="0">Ad Placement </text><text direction="ltr" dominant-baseline="text-before-edge" fill="#1e1e1e" font-family="Virgil, Segoe UI Emoji" font-size="16px" style="white-space: pre;" text-anchor="middle" x="47.09765625" y="20">Service</text></g><g stroke-linecap="round" transform="translate(559.7126283454215 118.64664689480651) rotate(0 72.69127211417478 70.84147595836083)"><path d="M75.71 0.76 C85.64 -0.01, 98.13 3.48, 107.62 8.43 C117.1 13.38, 126.64 22.1, 132.62 30.45 C138.6 38.81, 141.87 48.6, 143.49 58.57 C145.12 68.55, 145.02 80.53, 142.38 90.31 C139.73 100.09, 134.51 109.56, 127.62 117.26 C120.73 124.96, 110.7 132.58, 101.05 136.5 C91.4 140.42, 80.2 141.3, 69.73 140.8 C59.25 140.3, 47.55 138.32, 38.23 133.52 C28.9 128.72, 20.09 120.35, 13.77 111.98 C7.45 103.61, 2.28 93.51, 0.31 83.29 C-1.65 73.07, -0.95 60.47, 1.96 50.66 C4.88 40.85, 10.75 31.88, 17.82 24.44 C24.89 17.01, 34.1 9.9, 44.38 6.04 C54.65 2.18, 72.82 1.79, 79.48 1.29 C86.13 0.78, 84.42 1.96, 84.31 3.03 M64.23 0.91 C74.05 -1.25, 86.94 0.7, 97 4.24 C107.06 7.79, 117.16 14.99, 124.6 22.2 C132.03 29.4, 138.46 38.23, 141.6 47.47 C144.74 56.72, 144.57 67.35, 143.43 77.67 C142.29 87.98, 140.02 100.5, 134.75 109.37 C129.49 118.23, 120.65 125.69, 111.85 130.85 C103.05 136.01, 92.67 139.08, 81.95 140.31 C71.24 141.54, 57.55 141.48, 47.56 138.23 C37.57 134.98, 29.2 127.95, 22 120.79 C14.8 113.63, 7.84 104.83, 4.37 95.27 C0.91 85.71, 0.11 73.81, 1.23 63.41 C2.36 53.01, 5.47 41.44, 11.14 32.87 C16.8 24.3, 26.1 17.44, 35.24 11.99 C44.37 6.54, 61.22 1.86, 65.94 0.19 C70.65 -1.47, 63.72 0.96, 63.53 1.99" fill="none" stroke="#1e1e1e" stroke-width="1"></path></g><g transform="translate(609.6127840145867 179.3956348137466) rotate(0 22.890625 10)"><text direction="ltr" dominant-baseline="text-before-edge" fill="#1e1e1e" font-family="Virgil, Segoe UI Emoji" font-size="16px" style="white-space: pre;" text-anchor="middle" x="22.890625" y="0">Ad DB</text></g><g transform="translate(568.1314907011639 18.796790023960966) rotate(0 60.903953552246094 40)"><text direction="ltr" dominant-baseline="text-before-edge" fill="#1e1e1e" font-family="Virgil, Segoe UI Emoji" font-size="16px" style="white-space: pre;" text-anchor="start" x="0" y="0">Advertisement:</text><text direction="ltr" dominant-baseline="text-before-edge" fill="#1e1e1e" font-family="Virgil, Segoe UI Emoji" font-size="16px" style="white-space: pre;" text-anchor="start" x="0" y="20">- AdId</text><text direction="ltr" dominant-baseline="text-before-edge" fill="#1e1e1e" font-family="Virgil, Segoe UI Emoji" font-size="16px" style="white-space: pre;" text-anchor="start" x="0" y="40">- RedirectUrl</text><text direction="ltr" dominant-baseline="text-before-edge" fill="#1e1e1e" font-family="Virgil, Segoe UI Emoji" font-size="16px" style="white-space: pre;" text-anchor="start" x="0" y="60">- ... metadata </text></g><g stroke-linecap="round"><g transform="translate(478.6280361113401 193.80088796116706) rotate(0 36.91240173703113 -0.18481720816680536)"><path d="M0.81 0.17 C12.88 0.41, 61.22 0.95, 73.57 0.7 M-0.23 -0.79 C11.56 -0.79, 59.99 -0.9, 72.49 -0.86" fill="none" stroke="#1e1e1e" stroke-width="1"></path></g><g transform="translate(478.6280361113401 193.80088796116706) rotate(0 36.91240173703113 -0.18481720816680536)"><path d="M29.11 -9.79 C18.12 -6.08, 8.44 0.16, 0.81 0.17 M29.11 -9.79 C23.1 -7.23, 16.12 -5.32, 0.81 0.17" fill="none" stroke="#1e1e1e" stroke-width="1"></path></g><g transform="translate(478.6280361113401 193.80088796116706) rotate(0 36.91240173703113 -0.18481720816680536)"><path d="M28.89 10.73 C18.12 6.32, 8.53 4.45, 0.81 0.17 M28.89 10.73 C22.93 8.76, 16 6.13, 0.81 0.17" fill="none" stroke="#1e1e1e" stroke-width="1"></path></g><g transform="translate(478.6280361113401 193.80088796116706) rotate(0 36.91240173703113 -0.18481720816680536)"><path d="M44.3 9.39 C55.79 4.73, 68.46 2.98, 72.49 -0.86 M44.3 9.39 C50.79 7.65, 56.29 5.09, 72.49 -0.86" fill="none" stroke="#1e1e1e" stroke-width="1"></path></g><g transform="translate(478.6280361113401 193.80088796116706) rotate(0 36.91240173703113 -0.18481720816680536)"><path d="M44.31 -11.13 C55.67 -7.67, 68.33 -1.3, 72.49 -0.86 M44.31 -11.13 C50.79 -8.33, 56.3 -6.36, 72.49 -0.86" fill="none" stroke="#1e1e1e" stroke-width="1"></path></g></g><mask></mask><g transform="translate(897.9498265516207 216.73699973711973) rotate(0 76.64793395996094 50)"><text direction="ltr" dominant-baseline="text-before-edge" fill="#1e1e1e" font-family="Virgil, Segoe UI Emoji" font-size="16px" style="white-space: pre;" text-anchor="start" x="0" y="0">Aggregated Data</text><text direction="ltr" dominant-baseline="text-before-edge" fill="#1e1e1e" font-family="Virgil, Segoe UI Emoji" font-size="16px" style="white-space: pre;" text-anchor="start" x="0" y="20">- AdId</text><text direction="ltr" dominant-baseline="text-before-edge" fill="#1e1e1e" font-family="Virgil, Segoe UI Emoji" font-size="16px" style="white-space: pre;" text-anchor="start" x="0" y="40">- AdvertiserId (PK)</text><text direction="ltr" dominant-baseline="text-before-edge" fill="#1e1e1e" font-family="Virgil, Segoe UI Emoji" font-size="16px" style="white-space: pre;" text-anchor="start" x="0" y="60">- Minute (SK)</text><text direction="ltr" dominant-baseline="text-before-edge" fill="#1e1e1e" font-family="Virgil, Segoe UI Emoji" font-size="16px" style="white-space: pre;" text-anchor="start" x="0" y="80">- Click Count</text></g><g transform="translate(410.4193573604496 327.9403261879879) rotate(0 183.97589111328128 30)"><text direction="ltr" dominant-baseline="text-before-edge" fill="#1e1e1e" font-family="Virgil, Segoe UI Emoji" font-size="16px" style="white-space: pre;" text-anchor="start" x="0" y="0">- Both Kinesis and Flink partition by AdId with</text><text direction="ltr" dominant-baseline="text-before-edge" fill="#1e1e1e" font-family="Virgil, Segoe UI Emoji" font-size="16px" style="white-space: pre;" text-anchor="start" x="0" y="20">   celebrity solution for hot shards</text><text direction="ltr" dominant-baseline="text-before-edge" fill="#1e1e1e" font-family="Virgil, Segoe UI Emoji" font-size="16px" style="white-space: pre;" text-anchor="start" x="0" y="40"></text></g><g stroke-linecap="round" transform="translate(199.26532885268892 169.81391348717625) rotate(0 41.82508274689235 135.50951017640364)"><path d="M20.91 0 C36.84 0.51, 54.78 -0.95, 62.74 0 M20.91 0 C33.29 0.04, 47.73 -0.17, 62.74 0 M62.74 0 C76.3 -1.57, 84 5.45, 83.65 20.91 M62.74 0 C74.45 -0.89, 84.79 6.73, 83.65 20.91 M83.65 20.91 C82.39 102.12, 80.72 181.29, 83.65 250.11 M83.65 20.91 C83.84 84.75, 84.19 148.23, 83.65 250.11 M83.65 250.11 C84.38 266.03, 77.1 271.12, 62.74 271.02 M83.65 250.11 C81.35 262.44, 77.42 272.37, 62.74 271.02 M62.74 271.02 C47.75 269.75, 35.88 272.21, 20.91 271.02 M62.74 271.02 C51.23 271.59, 38.69 271.07, 20.91 271.02 M20.91 271.02 C8.66 272.49, 1.92 263.71, 0 250.11 M20.91 271.02 C5.24 271.22, -0.72 262.31, 0 250.11 M0 250.11 C1.44 168.82, 0.59 88.84, 0 20.91 M0 250.11 C2.21 190.55, 1.4 130.67, 0 20.91 M0 20.91 C1.11 8.89, 5.36 0.51, 20.91 0 M0 20.91 C2.29 5.5, 7.47 1.13, 20.91 0" fill="none" stroke="#1e1e1e" stroke-width="1"></path></g><g transform="translate(205.75447409958127 285.3234236635799) rotate(0 35.3359375 20)"><text direction="ltr" dominant-baseline="text-before-edge" fill="#1e1e1e" font-family="Virgil, Segoe UI Emoji" font-size="16px" style="white-space: pre;" text-anchor="middle" x="35.3359375" y="0">LB &amp; API </text><text direction="ltr" dominant-baseline="text-before-edge" fill="#1e1e1e" font-family="Virgil, Segoe UI Emoji" font-size="16px" style="white-space: pre;" text-anchor="middle" x="35.3359375" y="20">Gateway</text></g><g stroke-linecap="round" transform="translate(10 259.64809044298454) rotate(0 55.98632812499999 44.6328125)"><path d="M22.32 0 C44.53 1.06, 67.53 -1.27, 89.66 0 M22.32 0 C44.52 -0.86, 67.27 -0.84, 89.66 0 M89.66 0 C102.6 -0.78, 112.97 7.23, 111.97 22.32 M89.66 0 C105.66 -1.97, 114.03 8, 111.97 22.32 M111.97 22.32 C111.19 39.25, 112.12 55.14, 111.97 66.95 M111.97 22.32 C112.44 38.07, 112.29 51.9, 111.97 66.95 M111.97 66.95 C109.97 80.43, 105.18 90.44, 89.66 89.27 M111.97 66.95 C112.64 81.91, 106.17 87.86, 89.66 89.27 M89.66 89.27 C74.48 89.93, 61.1 90.61, 22.32 89.27 M89.66 89.27 C68.28 89.85, 46.18 88.95, 22.32 89.27 M22.32 89.27 C5.94 89.44, -0.63 80.32, 0 66.95 M22.32 89.27 C8.57 87.17, 0.66 81.37, 0 66.95 M0 66.95 C-0.49 55.15, 0.55 48.04, 0 22.32 M0 66.95 C0.73 54.22, -0.63 39.82, 0 22.32 M0 22.32 C1.99 6.16, 7.87 0.98, 22.32 0 M0 22.32 C0.2 9.02, 7.35 -1.91, 22.32 0" fill="none" stroke="#1e1e1e" stroke-width="1"></path></g><g transform="translate(38.88085937499999 294.28090294298454) rotate(0 27.10546875 10)"><text direction="ltr" dominant-baseline="text-before-edge" fill="#1e1e1e" font-family="Virgil, Segoe UI Emoji" font-size="16px" style="white-space: pre;" text-anchor="middle" x="27.10546875" y="0">Browser</text></g><g stroke-linecap="round"><g transform="translate(134.99271419461374 303.97266727642636) rotate(0 28.49354597393547 0.061418079753821075)"><path d="M-0.95 0.39 C8.56 0.3, 47.94 0.46, 57.56 0.26 M0.75 -0.45 C10.12 -0.4, 47.72 1.79, 56.91 1.87" fill="none" stroke="#1e1e1e" stroke-width="1"></path></g><g transform="translate(134.99271419461374 303.97266727642636) rotate(0 28.49354597393547 0.061418079753821075)"><path d="M25.81 -9.37 C17.51 -5.35, 8.06 -3.39, -0.95 0.39 M25.81 -9.37 C18.94 -7.8, 14.47 -5.36, -0.95 0.39" fill="none" stroke="#1e1e1e" stroke-width="1"></path></g><g transform="translate(134.99271419461374 303.97266727642636) rotate(0 28.49354597393547 0.061418079753821075)"><path d="M25.83 10.12 C17.38 7.57, 7.94 2.96, -0.95 0.39 M25.83 10.12 C18.91 7.37, 14.45 5.5, -0.95 0.39" fill="none" stroke="#1e1e1e" stroke-width="1"></path></g><g transform="translate(134.99271419461374 303.97266727642636) rotate(0 28.49354597393547 0.061418079753821075)"><path d="M29.8 10.63 C39.52 8.85, 48.24 4.56, 56.91 1.87 M29.8 10.63 C34.82 8.51, 42.28 6.85, 56.91 1.87" fill="none" stroke="#1e1e1e" stroke-width="1"></path></g><g transform="translate(134.99271419461374 303.97266727642636) rotate(0 28.49354597393547 0.061418079753821075)"><path d="M30.51 -8.84 C40.13 -4.07, 48.61 -1.79, 56.91 1.87 M30.51 -8.84 C35.4 -6.66, 42.71 -4, 56.91 1.87" fill="none" stroke="#1e1e1e" stroke-width="1"></path></g></g><mask></mask><g stroke-linecap="round"><g transform="translate(295.213602149306 364.99871621246257) rotate(0 48.97119861655193 29.978607841885832)"><path d="M0.57 0.14 C17.01 9.91, 81.45 49.2, 97.71 59.01 M-0.59 -0.84 C15.76 9.02, 80.3 49.94, 96.65 60.06" fill="none" stroke="#1e1e1e" stroke-width="1"></path></g><g transform="translate(295.213602149306 364.99871621246257) rotate(0 48.97119861655193 29.978607841885832)"><path d="M30 5.97 C23.72 4.44, 15.43 3.89, 0.57 0.14 M30 5.97 C23.96 4.44, 17.36 2.39, 0.57 0.14" fill="none" stroke="#1e1e1e" stroke-width="1"></path></g><g transform="translate(295.213602149306 364.99871621246257) rotate(0 48.97119861655193 29.978607841885832)"><path d="M19.36 23.52 C15.37 18.07, 9.43 13.65, 0.57 0.14 M19.36 23.52 C15.88 18.1, 11.66 12.11, 0.57 0.14" fill="none" stroke="#1e1e1e" stroke-width="1"></path></g><g transform="translate(295.213602149306 364.99871621246257) rotate(0 48.97119861655193 29.978607841885832)"><path d="M67.31 53.77 C74.03 54.64, 78.69 56.75, 96.65 60.06 M67.31 53.77 C74.32 55.19, 80.88 55.85, 96.65 60.06" fill="none" stroke="#1e1e1e" stroke-width="1"></path></g><g transform="translate(295.213602149306 364.99871621246257) rotate(0 48.97119861655193 29.978607841885832)"><path d="M78.21 36.39 C82.58 41.14, 84.85 47.09, 96.65 60.06 M78.21 36.39 C82.61 41.66, 86.73 46.21, 96.65 60.06" fill="none" stroke="#1e1e1e" stroke-width="1"></path></g></g><mask></mask><g stroke-linecap="round"><g transform="translate(290.44346373588587 231.6863060210908) rotate(0 17.104613218133522 -21.35349127125596)"><path d="M-0.23 -0.94 C5.41 -8.24, 28.87 -36.58, 34.42 -43.62 M-1.81 1.18 C3.64 -6, 27.39 -35.35, 33.58 -42.56" fill="none" stroke="#1e1e1e" stroke-width="1"></path></g><g transform="translate(290.44346373588587 231.6863060210908) rotate(0 17.104613218133522 -21.35349127125596)"><path d="M8.72 -26.8 C4.07 -17.48, 1.01 -10.78, -0.23 -0.94 M8.72 -26.8 C7 -20.91, 5.07 -13.06, -0.23 -0.94" fill="none" stroke="#1e1e1e" stroke-width="1"></path></g><g transform="translate(290.44346373588587 231.6863060210908) rotate(0 17.104613218133522 -21.35349127125596)"><path d="M23.25 -15 C13.53 -9.81, 5.43 -7.21, -0.23 -0.94 M23.25 -15 C17.67 -12.21, 11.95 -7.44, -0.23 -0.94" fill="none" stroke="#1e1e1e" stroke-width="1"></path></g><g transform="translate(290.44346373588587 231.6863060210908) rotate(0 17.104613218133522 -21.35349127125596)"><path d="M24.38 -16.8 C25.97 -25.38, 29.22 -36.62, 33.58 -42.56 M24.38 -16.8 C27.14 -24.37, 29.95 -30, 33.58 -42.56" fill="none" stroke="#1e1e1e" stroke-width="1"></path></g><g transform="translate(290.44346373588587 231.6863060210908) rotate(0 17.104613218133522 -21.35349127125596)"><path d="M9.97 -28.74 C16.59 -33.15, 24.84 -40.23, 33.58 -42.56 M9.97 -28.74 C16.56 -33.18, 23.13 -35.69, 33.58 -42.56" fill="none" stroke="#1e1e1e" stroke-width="1"></path></g></g><mask></mask></svg>