<svg height="684.144660873706" version="1.1" viewbox="0 0 1921.7801483012486 684.144660873706" width="1921.7801483012486" xmlns="http://www.w3.org/2000/svg">
<!-- svg-source:excalidraw -->
<!-- payload-type:application/vnd.excalidraw+json --><!-- payload-version:2 -->
<defs>
<style class="style-fonts">
</style>
</defs>
<rect fill="#ffffff" height="684.144660873706" width="1921.7801483012486" x="0" y="0"></rect><g stroke-linecap="round" transform="translate(508.0260275903588 38.298335079576646) rotate(0 98.697265625 53.470703125)"><path d="M4.03 10.13 C4.03 10.13, 4.03 10.13, 4.03 10.13 M4.03 10.13 C4.03 10.13, 4.03 10.13, 4.03 10.13 M3.51 22.93 C8.9 14.31, 16.19 9.6, 19.25 4.81 M3.51 22.93 C8.42 18.08, 11.51 13.36, 19.25 4.81 M3.64 34.97 C15.83 20.94, 23.54 8.73, 31.2 3.27 M3.64 34.97 C10.36 27.35, 16.75 20.01, 31.2 3.27 M3.12 47.76 C17.11 32.95, 33.32 14.22, 41.17 3.99 M3.12 47.76 C12.23 36.23, 20.86 27.54, 41.17 3.99 M3.25 59.8 C20.21 43.01, 33.08 26.36, 51.8 3.95 M3.25 59.8 C16.87 41.79, 32.06 25.2, 51.8 3.95 M3.39 71.84 C26.71 49.19, 45.1 21.95, 62.43 3.92 M3.39 71.84 C16.6 56.66, 28.82 42.74, 62.43 3.92 M0.89 86.9 C18.87 66.5, 36.75 46.51, 73.06 3.89 M0.89 86.9 C25.79 58.23, 51.02 27.23, 73.06 3.89 M3.65 95.93 C22.73 73.88, 39.25 54.32, 83.69 3.85 M3.65 95.93 C26.34 70.17, 46.08 46.48, 83.69 3.85 M9.69 101.17 C37.71 72.62, 64.87 40.79, 94.32 3.82 M9.69 101.17 C30.45 77.16, 52.28 53.83, 94.32 3.82 M15.73 106.42 C51.82 65.71, 82.26 26.16, 104.95 3.78 M15.73 106.42 C36.82 84.46, 56.31 60.61, 104.95 3.78 M25.7 107.14 C43.57 86.32, 63.52 62.84, 115.58 3.75 M25.7 107.14 C51.25 77.21, 76.68 49.27, 115.58 3.75 M32.4 111.64 C68.98 67.56, 105.34 25.23, 126.21 3.71 M32.4 111.64 C56.93 83.02, 82.67 53.55, 126.21 3.71 M43.03 111.6 C61.92 88.57, 81.68 66.38, 136.84 3.68 M43.03 111.6 C75.3 75.27, 104.72 40.23, 136.84 3.68 M53.66 111.57 C83.32 81.02, 113.13 45.53, 147.47 3.64 M53.66 111.57 C83.5 78.28, 112.89 44.12, 147.47 3.64 M64.29 111.53 C94.29 72.42, 129.23 36.01, 158.1 3.61 M64.29 111.53 C92.95 79.8, 118.84 48.51, 158.1 3.61 M74.92 111.5 C105.53 72.52, 138.16 36.37, 171.36 0.56 M74.92 111.5 C96.7 87.55, 118.41 63.5, 171.36 0.56 M85.55 111.46 C110.6 82.5, 135.09 54.38, 180.67 2.03 M85.55 111.46 C105.94 86.48, 126.73 62.67, 180.67 2.03 M96.18 111.43 C130.17 69.7, 165.74 28.79, 188.68 5.02 M96.18 111.43 C115.72 89.57, 135.53 66.79, 188.68 5.02 M106.81 111.39 C134.49 77.49, 162.73 43.81, 194.06 11.02 M106.81 111.39 C126.56 88.09, 146.95 66.01, 194.06 11.02 M116.78 112.12 C142.32 81.07, 173.11 49.22, 196.82 20.04 M116.78 112.12 C136.19 88.77, 158.66 63.82, 196.82 20.04 M127.41 112.08 C153.92 80.87, 183.27 47.5, 202.86 25.29 M127.41 112.08 C155.65 80.9, 182.44 50.04, 202.86 25.29 M138.04 112.05 C160.35 87.28, 180.15 62.65, 202.99 37.33 M138.04 112.05 C154.88 93.57, 170.14 72.58, 202.99 37.33 M148.67 112.01 C164.22 97.07, 177.41 77.47, 203.12 49.37 M148.67 112.01 C165.23 92.82, 181.68 73.89, 203.12 49.37 M159.3 111.98 C174.23 97.31, 188.64 79.44, 203.26 61.41 M159.3 111.98 C171.57 96.65, 184.86 81.71, 203.26 61.41 M172.55 108.92 C176.71 101.34, 185.02 94.62, 197.48 80.24 M172.55 108.92 C180.43 100.41, 189.83 89.19, 197.48 80.24" fill="none" stroke="#ffffff" stroke-width="1"></path><path d="M26.74 0 C84.1 -2.15, 142.5 -0.91, 170.66 0 M26.74 0 C55.58 0.58, 85.01 0.23, 170.66 0 M170.66 0 C190.37 -1.86, 196.58 8.15, 197.39 26.74 M170.66 0 C189.76 0.73, 197.15 8.66, 197.39 26.74 M197.39 26.74 C196.78 46.56, 196.71 64.76, 197.39 80.21 M197.39 26.74 C197.01 42.64, 197.31 58.98, 197.39 80.21 M197.39 80.21 C196.4 98.61, 188.82 108.28, 170.66 106.94 M197.39 80.21 C198.06 99.87, 190.59 106.62, 170.66 106.94 M170.66 106.94 C122 105.28, 76.7 107.92, 26.74 106.94 M170.66 106.94 C137.38 105.67, 105.83 105.72, 26.74 106.94 M26.74 106.94 C8.43 105.77, 0.27 96.92, 0 80.21 M26.74 106.94 C8.69 108.13, -0.28 98, 0 80.21 M0 80.21 C-1.68 68.05, 1.22 53.27, 0 26.74 M0 80.21 C0.43 65.57, -0.78 49.15, 0 26.74 M0 26.74 C1.32 7.52, 7.09 1.99, 26.74 0 M0 26.74 C-1.78 10.33, 7.6 0.99, 26.74 0" fill="none" stroke="#1e1e1e" stroke-width="2"></path></g><g transform="translate(534.2525900903588 79.26903820457665) rotate(0 72.470703125 12.5)"><text direction="ltr" dominant-baseline="text-before-edge" fill="#1e1e1e" font-family="Virgil, Segoe UI Emoji" font-size="20px" style="white-space: pre;" text-anchor="middle" x="72.470703125" y="0">Scheduler Service</text></g><g stroke-linecap="round"><g transform="translate(713.0768088403588 134.46398173693524) rotate(0 39.22324959116702 15.758255254877895)"><path d="M0.13 -1.14 C13.17 3.77, 64.68 25.19, 77.62 30.51 M-1.26 0.87 C12.21 6.42, 66.31 26.38, 79.89 31.52" fill="none" stroke="#1e1e1e" stroke-width="2"></path></g><g transform="translate(713.0768088403588 134.46398173693524) rotate(0 39.22324959116702 15.758255254877895)"><path d="M30.11 -0.02 C20.74 -1.66, 13.52 -1.76, 0.13 -1.14 M30.11 -0.02 C23.94 -1.51, 15.47 -1.23, 0.13 -1.14" fill="none" stroke="#1e1e1e" stroke-width="2"></path></g><g transform="translate(713.0768088403588 134.46398173693524) rotate(0 39.22324959116702 15.758255254877895)"><path d="M22.38 18.98 C14.76 12.62, 9.46 7.79, 0.13 -1.14 M22.38 18.98 C18.17 13.06, 11.53 8.83, 0.13 -1.14" fill="none" stroke="#1e1e1e" stroke-width="2"></path></g><g transform="translate(713.0768088403588 134.46398173693524) rotate(0 39.22324959116702 15.758255254877895)"><path d="M49.89 31.26 C55.44 29.91, 63.13 30.14, 79.89 31.52 M49.89 31.26 C57.96 30.69, 63.73 31.29, 79.89 31.52" fill="none" stroke="#1e1e1e" stroke-width="2"></path></g><g transform="translate(713.0768088403588 134.46398173693524) rotate(0 39.22324959116702 15.758255254877895)"><path d="M57.08 12.04 C61.01 15.47, 66.91 20.49, 79.89 31.52 M57.08 12.04 C63.31 15.96, 67.38 21.13, 79.89 31.52" fill="none" stroke="#1e1e1e" stroke-width="2"></path></g></g><mask></mask><g stroke-linecap="round" transform="translate(805.6700272284193 80.20730335450207) rotate(0 89.47739173275393 87.55859375)"><path d="M31.71 20.94 C31.71 20.94, 31.71 20.94, 31.71 20.94 M31.71 20.94 C31.71 20.94, 31.71 20.94, 31.71 20.94 M15.45 51.85 C22.47 43.9, 30.3 35.37, 51.53 10.34 M15.45 51.85 C27.98 39.49, 37.99 26.42, 51.53 10.34 M1.15 80.5 C14.46 63.32, 27.91 48.55, 64.78 7.29 M1.15 80.5 C19.8 59.57, 37.43 39.65, 64.78 7.29 M2.59 91.03 C30.5 56.39, 61.29 22.53, 76.73 5.75 M2.59 91.03 C18.6 72.72, 33.94 56.2, 76.73 5.75 M3.38 102.31 C33.04 69.69, 61.44 32.69, 88.67 4.2 M3.38 102.31 C22.17 81.47, 39.86 63.02, 88.67 4.2 M4.83 112.85 C40.34 69.25, 81.15 29.39, 99.95 3.41 M4.83 112.85 C25.52 87.56, 47.97 62.98, 99.95 3.41 M10.21 118.85 C37.06 90.94, 62.32 58.85, 108.62 5.64 M10.21 118.85 C49.08 73.98, 88.3 29.86, 108.62 5.64 M14.28 126.36 C35.49 100.77, 58.26 78.91, 116.62 8.63 M14.28 126.36 C36.5 101.79, 57.38 78.46, 116.62 8.63 M18.35 133.87 C58.31 83.29, 101.39 34.94, 125.28 10.86 M18.35 133.87 C47.98 99.6, 77.38 67.28, 125.28 10.86 M20.45 143.65 C50.03 108.71, 80.14 76.57, 133.95 13.09 M20.45 143.65 C58.23 99.42, 98.82 54.63, 133.95 13.09 M27.14 148.14 C66.28 103.36, 106.03 57.45, 139.98 18.33 M27.14 148.14 C51.24 120.94, 74.4 93.48, 139.98 18.33 M33.18 153.39 C58.84 124.37, 84.88 92.17, 146.68 22.83 M33.18 153.39 C72.71 106.74, 113.94 61.35, 146.68 22.83 M39.87 157.89 C75.66 117.33, 109.44 80.11, 153.37 27.32 M39.87 157.89 C66.55 127.52, 91.52 98.89, 153.37 27.32 M45.91 163.14 C86.7 114.52, 129.09 68.15, 159.41 32.57 M45.91 163.14 C83.41 120.34, 121.53 75.54, 159.41 32.57 M51.95 168.38 C76.26 139.38, 101.79 113.08, 163.48 40.08 M51.95 168.38 C86.3 131.03, 118.98 91.58, 163.48 40.08 M60.61 170.61 C81.68 146.01, 103.86 120.78, 167.55 47.6 M60.61 170.61 C92.14 132.75, 124.38 94.83, 167.55 47.6 M69.27 172.84 C90 148.92, 114.26 121.03, 171.62 55.11 M69.27 172.84 C94.96 145.57, 117.89 116.12, 171.62 55.11 M77.93 175.07 C102.75 144.57, 128.38 115.12, 175.69 62.62 M77.93 175.07 C105.08 145.34, 130.76 114.01, 175.69 62.62 M85.94 178.06 C107.03 152.66, 129.44 127.49, 177.13 73.15 M85.94 178.06 C106.34 155.13, 125.83 131.51, 177.13 73.15 M97.23 177.27 C121.16 149.09, 147.18 116.97, 178.58 83.68 M97.23 177.27 C124.09 146.4, 151.58 114.99, 178.58 83.68 M108.51 176.48 C132.36 149.05, 154.08 125.1, 179.37 94.97 M108.51 176.48 C126.06 157.27, 143.61 136.3, 179.37 94.97 M119.8 175.69 C136.92 155.99, 156.15 135.77, 173.59 113.8 M119.8 175.69 C141.33 151.19, 162.42 127.5, 173.59 113.8" fill="none" stroke="#ffffff" stroke-width="1"></path><path d="M61.79 4.94 C71.68 0.52, 85.09 -0.99, 96.55 -0.06 C108.02 0.88, 120.27 5.31, 130.59 10.54 C140.91 15.77, 151.11 22.76, 158.47 31.33 C165.84 39.89, 171.32 51.39, 174.77 61.93 C178.21 72.46, 180.24 83.42, 179.16 94.55 C178.08 105.69, 173.76 118.64, 168.29 128.72 C162.82 138.8, 155.02 147.82, 146.34 155.04 C137.66 162.27, 127.02 168.93, 116.23 172.07 C105.44 175.21, 93.05 175.13, 81.61 173.88 C70.17 172.62, 57.79 169.65, 47.6 164.54 C37.42 159.42, 27.69 151.63, 20.49 143.19 C13.28 134.74, 7.61 124.39, 4.37 113.86 C1.13 103.33, -0.08 91.01, 1.03 80.01 C2.14 69.01, 5.85 57.76, 11.01 47.86 C16.17 37.97, 23.04 28.08, 31.98 20.64 C40.93 13.19, 58.85 6, 64.68 3.18 C70.5 0.37, 66.45 2.2, 66.95 3.74 M56.5 4.85 C66.47 -0.24, 81.03 -1.15, 92.54 -0.84 C104.05 -0.53, 115.2 2.15, 125.55 6.71 C135.89 11.26, 146.73 18.1, 154.62 26.48 C162.51 34.87, 168.86 46.43, 172.88 56.99 C176.91 67.56, 179.17 78.82, 178.74 89.87 C178.32 100.92, 175.08 113.28, 170.32 123.27 C165.55 133.27, 158.19 142.02, 150.15 149.85 C142.1 157.68, 132.71 166.07, 122.05 170.25 C111.4 174.42, 97.63 175.58, 86.22 174.91 C74.8 174.25, 63.69 170.58, 53.56 166.26 C43.43 161.94, 33.55 156.93, 25.46 148.98 C17.37 141.04, 9.11 129.4, 5.03 118.6 C0.96 107.8, 0.8 95.05, 1.02 84.18 C1.25 73.31, 2.1 63.27, 6.39 53.4 C10.68 43.53, 18.39 32.77, 26.75 24.94 C35.12 17.12, 51.14 9.19, 56.6 6.44 C62.06 3.7, 58.86 7.18, 59.52 8.45" fill="none" stroke="#1e1e1e" stroke-width="2"></path></g><g transform="translate(840.3871141290577 142.852621712719) rotate(0 54.990234375 25)"><text direction="ltr" dominant-baseline="text-before-edge" fill="#1e1e1e" font-family="Virgil, Segoe UI Emoji" font-size="20px" style="white-space: pre;" text-anchor="middle" x="54.990234375" y="0">Job Store</text><text direction="ltr" dominant-baseline="text-before-edge" fill="#1e1e1e" font-family="Virgil, Segoe UI Emoji" font-size="20px" style="white-space: pre;" text-anchor="middle" x="54.990234375" y="25">(DynamoDB)</text></g><g transform="translate(1016.2349601902583 84.85453224957018) rotate(0 49.43994903564453 75)"><text direction="ltr" dominant-baseline="text-before-edge" fill="#1e1e1e" font-family="Virgil, Segoe UI Emoji" font-size="20px" style="white-space: pre;" text-anchor="start" x="0" y="0">Jobs</text><text direction="ltr" dominant-baseline="text-before-edge" fill="#1e1e1e" font-family="Virgil, Segoe UI Emoji" font-size="20px" style="white-space: pre;" text-anchor="start" x="0" y="25">- id</text><text direction="ltr" dominant-baseline="text-before-edge" fill="#1e1e1e" font-family="Virgil, Segoe UI Emoji" font-size="20px" style="white-space: pre;" text-anchor="start" x="0" y="50">- userId</text><text direction="ltr" dominant-baseline="text-before-edge" fill="#1e1e1e" font-family="Virgil, Segoe UI Emoji" font-size="20px" style="white-space: pre;" text-anchor="start" x="0" y="75">- taskId</text><text direction="ltr" dominant-baseline="text-before-edge" fill="#1e1e1e" font-family="Virgil, Segoe UI Emoji" font-size="20px" style="white-space: pre;" text-anchor="start" x="0" y="100">- params</text><text direction="ltr" dominant-baseline="text-before-edge" fill="#1e1e1e" font-family="Virgil, Segoe UI Emoji" font-size="20px" style="white-space: pre;" text-anchor="start" x="0" y="125">- schedule</text></g><g transform="translate(1150.680960829815 85.09289955331406) rotate(0 52.00994873046875 75)"><text direction="ltr" dominant-baseline="text-before-edge" fill="#1e1e1e" font-family="Virgil, Segoe UI Emoji" font-size="20px" style="white-space: pre;" text-anchor="start" x="0" y="0">Executions</text><text direction="ltr" dominant-baseline="text-before-edge" fill="#1e1e1e" font-family="Virgil, Segoe UI Emoji" font-size="20px" style="white-space: pre;" text-anchor="start" x="0" y="25">- time</text><text direction="ltr" dominant-baseline="text-before-edge" fill="#1e1e1e" font-family="Virgil, Segoe UI Emoji" font-size="20px" style="white-space: pre;" text-anchor="start" x="0" y="50">- jobId</text><text direction="ltr" dominant-baseline="text-before-edge" fill="#1e1e1e" font-family="Virgil, Segoe UI Emoji" font-size="20px" style="white-space: pre;" text-anchor="start" x="0" y="75">- userId</text><text direction="ltr" dominant-baseline="text-before-edge" fill="#1e1e1e" font-family="Virgil, Segoe UI Emoji" font-size="20px" style="white-space: pre;" text-anchor="start" x="0" y="100">- status</text><text direction="ltr" dominant-baseline="text-before-edge" fill="#1e1e1e" font-family="Virgil, Segoe UI Emoji" font-size="20px" style="white-space: pre;" text-anchor="start" x="0" y="125">- attempt</text></g><g stroke-linecap="round"><g transform="translate(897.3487370461567 266.83669326697054) rotate(0 0.9476839926498997 58.65029357750063)"><path d="M-0.49 -0.46 C-0.25 19.34, 2.19 98.08, 2.56 117.68 M1.45 -1.75 C1.49 17.78, 2.05 95.73, 1.96 115.76" fill="none" stroke="#1e1e1e" stroke-width="2"></path></g><g transform="translate(897.3487370461567 266.83669326697054) rotate(0 0.9476839926498997 58.65029357750063)"><path d="M10.5 27.46 C5.66 17.51, 2.73 5.17, -0.49 -0.46 M10.5 27.46 C6.34 18.99, 4.55 10.89, -0.49 -0.46" fill="none" stroke="#1e1e1e" stroke-width="2"></path></g><g transform="translate(897.3487370461567 266.83669326697054) rotate(0 0.9476839926498997 58.65029357750063)"><path d="M-10.02 27.99 C-6.76 17.91, -1.6 5.37, -0.49 -0.46 M-10.02 27.99 C-8.24 19.25, -4.1 11, -0.49 -0.46" fill="none" stroke="#1e1e1e" stroke-width="2"></path></g><g transform="translate(897.3487370461567 266.83669326697054) rotate(0 0.9476839926498997 58.65029357750063)"><path d="M-8.36 87.59 C-5.31 99.86, 0.16 109.64, 1.96 115.76 M-8.36 87.59 C-6.07 95.22, -1.7 103.33, 1.96 115.76" fill="none" stroke="#1e1e1e" stroke-width="2"></path></g><g transform="translate(897.3487370461567 266.83669326697054) rotate(0 0.9476839926498997 58.65029357750063)"><path d="M12.17 87.55 C7.11 99.75, 4.49 109.55, 1.96 115.76 M12.17 87.55 C8.52 95.31, 6.96 103.42, 1.96 115.76" fill="none" stroke="#1e1e1e" stroke-width="2"></path></g></g><mask></mask><g stroke-linecap="round" transform="translate(773.227066420804 394.80041886689287) rotate(0 125.57617187499999 63.78515625000003)"><path d="M4.79 12.11 C4.79 12.11, 4.79 12.11, 4.79 12.11 M4.79 12.11 C4.79 12.11, 4.79 12.11, 4.79 12.11 M2.95 26.42 C7.03 18.52, 13.29 11.52, 25.26 0.76 M2.95 26.42 C7.43 20.96, 13.4 14.74, 25.26 0.76 M3.08 38.46 C16.4 24.14, 25.95 9.96, 34.58 2.23 M3.08 38.46 C11.85 28.8, 22.25 16.83, 34.58 2.23 M2.56 51.25 C15.48 36.67, 30.3 20.55, 45.21 2.2 M2.56 51.25 C13.83 38.12, 26.54 24.33, 45.21 2.2 M2.69 63.29 C20.84 39.09, 39.05 16.51, 55.84 2.16 M2.69 63.29 C23.97 38.88, 43.68 14.82, 55.84 2.16 M2.83 75.33 C21.69 53.91, 40.07 35.74, 66.47 2.13 M2.83 75.33 C22.03 51.6, 41.5 28.99, 66.47 2.13 M2.96 87.37 C19.94 66.6, 38.07 45.26, 77.1 2.09 M2.96 87.37 C26.19 59.56, 51.87 30.84, 77.1 2.09 M3.09 99.42 C29 70.78, 50.81 40.03, 87.73 2.06 M3.09 99.42 C28.82 71.55, 53.94 42.57, 87.73 2.06 M5.85 108.44 C40.06 65.04, 77.39 22.46, 98.36 2.02 M5.85 108.44 C27.08 82.58, 47.82 57.9, 98.36 2.02 M7.95 118.21 C48.25 71.54, 86.04 28.5, 108.99 1.99 M7.95 118.21 C34.92 88.43, 62.6 57.29, 108.99 1.99 M13.33 124.22 C49.9 81.17, 86.18 40.56, 119.62 1.95 M13.33 124.22 C41.85 91.76, 69.81 58.22, 119.62 1.95 M22 126.45 C63 79.3, 105.78 30.98, 130.25 1.92 M22 126.45 C51.98 90.58, 84.46 53.28, 130.25 1.92 M28.69 130.94 C54.96 100.29, 78.02 71.98, 140.22 2.64 M28.69 130.94 C66.77 86.7, 104.22 44.11, 140.22 2.64 M38.01 132.42 C81.15 85.12, 121.21 38.07, 150.85 2.61 M38.01 132.42 C72.16 91.33, 109.11 50.79, 150.85 2.61 M48.64 132.38 C81.44 94.98, 113.1 58.7, 161.48 2.57 M48.64 132.38 C72.95 105.13, 96.19 77.05, 161.48 2.57 M59.27 132.35 C82.35 105.69, 102.54 82.49, 172.11 2.54 M59.27 132.35 C91.7 95.17, 125.87 58.08, 172.11 2.54 M69.9 132.31 C96.59 100.79, 124.16 68.08, 182.74 2.5 M69.9 132.31 C94.15 104.65, 118.41 78.22, 182.74 2.5 M79.87 133.03 C105.92 100.96, 133.02 70.43, 193.37 2.47 M79.87 133.03 C110.33 99.72, 140.55 65.49, 193.37 2.47 M90.5 133 C127.79 93.08, 159.56 54.95, 204 2.43 M90.5 133 C124.42 95.11, 155.95 58.93, 204 2.43 M101.13 132.96 C147.43 80.06, 191.26 29.64, 214.63 2.4 M101.13 132.96 C131.92 97.25, 162.61 62.89, 214.63 2.4 M111.76 132.93 C144.61 93.97, 179.48 53.84, 223.95 3.87 M111.76 132.93 C147.88 87.65, 186.2 44.64, 223.95 3.87 M122.39 132.89 C149.55 98.21, 179.22 67.24, 234.58 3.84 M122.39 132.89 C152.78 97.93, 184.08 61.54, 234.58 3.84 M133.02 132.86 C159.58 101.81, 183.36 72.88, 241.93 7.58 M133.02 132.86 C169.75 91.22, 205.28 49.95, 241.93 7.58 M143.65 132.83 C166.84 107.6, 187.08 85.82, 247.31 13.58 M143.65 132.83 C166 106.77, 186.34 83.16, 247.31 13.58 M154.28 132.79 C180.18 102.98, 209.31 69.1, 250.72 21.85 M154.28 132.79 C190.79 91.95, 226.2 49.36, 250.72 21.85 M164.91 132.76 C189.75 104.03, 216.69 73.47, 255.45 28.61 M164.91 132.76 C193.89 101.58, 222.21 69.11, 255.45 28.61 M175.54 132.72 C206.79 98.86, 232.28 66.97, 255.58 40.65 M175.54 132.72 C194.07 114.4, 210.8 93.53, 255.58 40.65 M186.17 132.69 C209.43 108.03, 231.47 81.68, 255.72 52.69 M186.17 132.69 C202.05 114.34, 216.82 97.01, 255.72 52.69 M196.8 132.65 C210.79 117.58, 226.44 98.79, 255.85 64.73 M196.8 132.65 C217.3 108.31, 238.75 85.88, 255.85 64.73 M207.43 132.62 C217.97 118.46, 228.39 108.8, 255.98 76.77 M207.43 132.62 C221.85 116.61, 235.61 99.72, 255.98 76.77 M221.34 128.81 C235.41 111.48, 248.12 99.36, 256.12 88.81 M221.34 128.81 C234.05 114.06, 244.12 101.49, 256.12 88.81 M233.94 126.51 C239.9 120.73, 244.7 113.58, 252.97 104.63 M233.94 126.51 C238.93 120.26, 243.1 114.94, 252.97 104.63" fill="none" stroke="#ffffff" stroke-width="1"></path><path d="M31.89 0 C81.1 -1.26, 128.82 -0.03, 219.26 0 M31.89 0 C99.16 0.36, 165.6 0.9, 219.26 0 M219.26 0 C242.4 0.27, 249.38 9.88, 251.15 31.89 M219.26 0 C239.16 -0.72, 250.01 11.3, 251.15 31.89 M251.15 31.89 C253.19 53.92, 251.3 72.85, 251.15 95.68 M251.15 31.89 C250.34 49.31, 251.65 65.49, 251.15 95.68 M251.15 95.68 C249.32 116.05, 239.25 126.3, 219.26 127.57 M251.15 95.68 C252.19 115.61, 239.97 126.22, 219.26 127.57 M219.26 127.57 C161.52 127.15, 101.69 126.21, 31.89 127.57 M219.26 127.57 C162.63 126.64, 104.69 125.9, 31.89 127.57 M31.89 127.57 C11.32 125.88, 1.22 118.52, 0 95.68 M31.89 127.57 C9.26 127.11, 1.52 115.34, 0 95.68 M0 95.68 C0.6 81.2, 0.22 70.91, 0 31.89 M0 95.68 C0.51 71.43, 0.64 47.88, 0 31.89 M0 31.89 C-1.22 12.02, 12.45 -1.78, 31.89 0 M0 31.89 C-1.58 9.2, 12.54 1.77, 31.89 0" fill="none" stroke="#1e1e1e" stroke-width="2"></path></g><g transform="translate(780.478042983304 421.08557511689287) rotate(0 118.3251953125 37.5)"><text direction="ltr" dominant-baseline="text-before-edge" fill="#1e1e1e" font-family="Virgil, Segoe UI Emoji" font-size="20px" style="white-space: pre;" text-anchor="middle" x="118.3251953125" y="0">Watcher</text><text direction="ltr" dominant-baseline="text-before-edge" fill="#1e1e1e" font-family="Virgil, Segoe UI Emoji" font-size="20px" style="white-space: pre;" text-anchor="middle" x="118.3251953125" y="25">- polls for Jobs that should be</text><text direction="ltr" dominant-baseline="text-before-edge" fill="#1e1e1e" font-family="Virgil, Segoe UI Emoji" font-size="20px" style="white-space: pre;" text-anchor="middle" x="118.3251953125" y="50">executed soon</text></g><g stroke-linecap="round"><g transform="translate(1045.0360844359452 454.62135711951487) rotate(0 36.28125 -0.10546875)"><path d="M0.6 0.67 C12.55 0.57, 59.45 -0.51, 71.56 -0.76 M-0.54 -0.02 C11.78 0.04, 61.52 0.45, 73.74 0.49" fill="none" stroke="#1e1e1e" stroke-width="2"></path></g><g transform="translate(1045.0360844359452 454.62135711951487) rotate(0 36.28125 -0.10546875)"><path d="M45.49 10.58 C54.79 5.85, 60.93 5.7, 73.74 0.49 M45.49 10.58 C53.49 8.18, 58.74 5.14, 73.74 0.49" fill="none" stroke="#1e1e1e" stroke-width="2"></path></g><g transform="translate(1045.0360844359452 454.62135711951487) rotate(0 36.28125 -0.10546875)"><path d="M45.61 -9.94 C54.86 -8.74, 60.96 -2.95, 73.74 0.49 M45.61 -9.94 C53.64 -7.2, 58.86 -5.09, 73.74 0.49" fill="none" stroke="#1e1e1e" stroke-width="2"></path></g></g><mask></mask><g stroke-linecap="round" transform="translate(1127.4398554819923 412.24635711951487) rotate(0 128.51953125 42.5)"><path d="M3.19 8.07 C3.19 8.07, 3.19 8.07, 3.19 8.07 M3.19 8.07 C3.19 8.07, 3.19 8.07, 3.19 8.07 M0.7 23.13 C4.77 17.4, 9.67 14.68, 20.38 0.49 M0.7 23.13 C6.14 18.48, 9.66 11.95, 20.38 0.49 M0.83 35.17 C6.98 24.39, 18.81 16.99, 31.01 0.46 M0.83 35.17 C9.83 24.61, 18.93 15.04, 31.01 0.46 M0.96 47.21 C14.81 28.31, 31.66 12.82, 41.64 0.42 M0.96 47.21 C10.24 36.5, 17.33 25.91, 41.64 0.42 M1.1 59.25 C10.25 47.5, 21.37 32.25, 52.27 0.39 M1.1 59.25 C13.03 45.61, 25.14 31.74, 52.27 0.39 M1.23 71.29 C27.24 42.5, 48.51 14.28, 62.9 0.35 M1.23 71.29 C16.59 52.44, 33.02 34.23, 62.9 0.35 M5.3 78.81 C19.24 58.13, 37.02 41.57, 73.53 0.32 M5.3 78.81 C24.14 58.79, 41.32 36.83, 73.53 0.32 M11.99 83.3 C26.71 67.04, 42.87 50.59, 84.16 0.28 M11.99 83.3 C29.27 60.52, 47.5 39.44, 84.16 0.28 M20.65 85.53 C39.67 64.95, 55.51 42.69, 94.79 0.25 M20.65 85.53 C41.5 62.03, 61.37 37.23, 94.79 0.25 M31.28 85.5 C54.17 57.77, 81.33 30.84, 105.42 0.21 M31.28 85.5 C55.92 55.76, 81.62 25.9, 105.42 0.21 M41.91 85.46 C66.46 57.87, 89.68 30.69, 116.05 0.18 M41.91 85.46 C58.26 65.9, 75.35 47.15, 116.05 0.18 M52.54 85.43 C70.84 60.75, 91.8 39.49, 126.68 0.14 M52.54 85.43 C69.96 67.71, 84.62 48.4, 126.68 0.14 M63.17 85.39 C80.73 66.77, 96.17 46.55, 137.31 0.11 M63.17 85.39 C85.66 59.17, 109.74 31.31, 137.31 0.11 M73.8 85.36 C93.02 61.04, 112.92 40.73, 147.94 0.08 M73.8 85.36 C102.6 51.32, 132.77 16.69, 147.94 0.08 M84.44 85.32 C109.92 57.99, 136.12 27.39, 157.91 0.8 M84.44 85.32 C112.4 53.3, 140.43 19.89, 157.91 0.8 M95.07 85.29 C122.44 51.69, 152.23 21.34, 168.54 0.76 M95.07 85.29 C122.97 52.88, 151.08 20.85, 168.54 0.76 M105.7 85.25 C123.87 64.57, 141.11 44.91, 179.17 0.73 M105.7 85.25 C129.54 57.28, 153.23 29.8, 179.17 0.73 M116.33 85.22 C132.71 65.1, 151.9 45.78, 189.8 0.69 M116.33 85.22 C137.4 62.66, 158.09 37.27, 189.8 0.69 M126.3 85.94 C153.61 58.01, 177.84 26.79, 200.43 0.66 M126.3 85.94 C146.36 63.38, 165.76 39.55, 200.43 0.66 M136.93 85.91 C154.17 66.19, 172.22 44.62, 211.06 0.62 M136.93 85.91 C166.72 50.92, 196.63 17, 211.06 0.62 M147.56 85.87 C174.83 54.12, 196.9 25.84, 221.69 0.59 M147.56 85.87 C167.34 63.88, 184.52 43.16, 221.69 0.59 M158.19 85.84 C183.91 55.8, 210.21 27.61, 232.32 0.55 M158.19 85.84 C177.62 65.07, 195.04 42.98, 232.32 0.55 M168.82 85.8 C186.97 63.62, 205.87 40.36, 242.3 1.27 M168.82 85.8 C187.95 65.09, 206.81 42.82, 242.3 1.27 M179.45 85.77 C204.49 61.35, 223.83 33.65, 250.3 4.26 M179.45 85.77 C202.4 60.05, 224.55 35.88, 250.3 4.26 M190.08 85.73 C204.83 69.36, 220.55 51.3, 254.37 11.77 M190.08 85.73 C204.15 69.13, 218.69 53.59, 254.37 11.77 M200.71 85.7 C215.14 69.39, 232.15 52.82, 257.13 20.79 M200.71 85.7 C217.97 66.68, 235.19 44.74, 257.13 20.79 M211.34 85.66 C227.81 68.93, 246.6 49.66, 257.26 32.83 M211.34 85.66 C222.64 73.36, 234.02 60.47, 257.26 32.83 M221.97 85.63 C234.72 73.94, 245.01 59.17, 257.4 44.88 M221.97 85.63 C232.93 72.4, 245.45 60, 257.4 44.88 M232.6 85.6 C236.54 78.42, 241.62 73.55, 257.53 56.92 M232.6 85.6 C241.88 75.9, 248.78 66.16, 257.53 56.92 M244.54 84.05 C250.39 79.86, 254.11 74.45, 257.01 69.71 M244.54 84.05 C247.49 80.47, 250.17 76.27, 257.01 69.71" fill="none" stroke="#ffffff" stroke-width="1"></path><path d="M21.25 0 C95.6 2.54, 170.69 2.07, 235.79 0 M21.25 0 C85.78 -0.58, 151.36 -0.53, 235.79 0 M235.79 0 C248.96 0.58, 257.37 8.43, 257.04 21.25 M235.79 0 C250.62 1.85, 259.14 6.76, 257.04 21.25 M257.04 21.25 C255.49 33.77, 257.42 50.36, 257.04 63.75 M257.04 21.25 C256.02 30.25, 257.1 39.95, 257.04 63.75 M257.04 63.75 C256.56 76.74, 250.23 83.89, 235.79 85 M257.04 63.75 C256.82 79.1, 249.68 84.97, 235.79 85 M235.79 85 C182.63 84.52, 133.46 82.86, 21.25 85 M235.79 85 C174.43 84.1, 111.47 83.23, 21.25 85 M21.25 85 C8.4 83.61, -1.82 79.91, 0 63.75 M21.25 85 C5.3 86.42, -1.31 78.9, 0 63.75 M0 63.75 C-0.16 47.89, -1.87 31.37, 0 21.25 M0 63.75 C1.17 53.82, -0.43 45.05, 0 21.25 M0 21.25 C1.66 8.62, 8.72 0.57, 21.25 0 M0 21.25 C-0.46 5.08, 8.18 0.43, 21.25 0" fill="none" stroke="#1e1e1e" stroke-width="2"></path></g><g transform="translate(1164.8656367319923 442.24635711951487) rotate(0 91.09375 12.5)"><text direction="ltr" dominant-baseline="text-before-edge" fill="#1e1e1e" font-family="Virgil, Segoe UI Emoji" font-size="20px" style="white-space: pre;" text-anchor="middle" x="91.09375" y="0">Message Queue (SQS)</text></g><g stroke-linecap="round"><g transform="translate(1533.1259281859452 452.9199643811262) rotate(0 -70.70827072697625 0.08719451623176155)"><path d="M0.34 0.05 C-23.15 0.21, -116.48 0.39, -140.29 0.34 M-0.95 -0.96 C-24.55 -0.54, -117.44 1.67, -140.64 1.96" fill="none" stroke="#1e1e1e" stroke-width="2"></path></g><g transform="translate(1533.1259281859452 452.9199643811262) rotate(0 -70.70827072697625 0.08719451623176155)"><path d="M-112.65 -8.83 C-122.55 -3.04, -132.3 -2.87, -140.64 1.96 M-112.65 -8.83 C-120.56 -5.79, -127.26 -2.58, -140.64 1.96" fill="none" stroke="#1e1e1e" stroke-width="2"></path></g><g transform="translate(1533.1259281859452 452.9199643811262) rotate(0 -70.70827072697625 0.08719451623176155)"><path d="M-112.26 11.69 C-122.2 10.2, -132.09 3.09, -140.64 1.96 M-112.26 11.69 C-120.16 9.33, -126.95 7.16, -140.64 1.96" fill="none" stroke="#1e1e1e" stroke-width="2"></path></g></g><mask></mask><g transform="translate(1086.8428464977192 518.6761017369208) rotate(0 175.6998291015625 37.5)"><text direction="ltr" dominant-baseline="text-before-edge" fill="#1e1e1e" font-family="Virgil, Segoe UI Emoji" font-size="20px" style="white-space: pre;" text-anchor="start" x="0" y="0">- delivery delay until execution time</text><text direction="ltr" dominant-baseline="text-before-edge" fill="#1e1e1e" font-family="Virgil, Segoe UI Emoji" font-size="20px" style="white-space: pre;" text-anchor="start" x="0" y="25">- retry with exponential backoff</text><text direction="ltr" dominant-baseline="text-before-edge" fill="#1e1e1e" font-family="Virgil, Segoe UI Emoji" font-size="20px" style="white-space: pre;" text-anchor="start" x="0" y="50">- partition by execution time</text></g><g stroke-linecap="round" transform="translate(504.89188796474673 185.00736021688863) rotate(0 98.697265625 53.470703125)"><path d="M4.03 10.13 C4.03 10.13, 4.03 10.13, 4.03 10.13 M4.03 10.13 C4.03 10.13, 4.03 10.13, 4.03 10.13 M3.51 22.93 C10.79 15.64, 14.36 8.35, 19.25 4.81 M3.51 22.93 C7.49 18.57, 13.16 12.05, 19.25 4.81 M3.64 34.97 C11.76 26.14, 21.62 15.71, 31.2 3.27 M3.64 34.97 C10.68 26.38, 19.33 17.26, 31.2 3.27 M3.12 47.76 C15.92 30.04, 28.61 13.79, 41.17 3.99 M3.12 47.76 C18.53 30.09, 32.29 12.87, 41.17 3.99 M3.25 59.8 C17.85 43.26, 31.93 30.03, 51.8 3.95 M3.25 59.8 C17.78 41.58, 32.57 24.35, 51.8 3.95 M3.39 71.84 C16.75 55.16, 31.21 38.04, 62.43 3.92 M3.39 71.84 C21.72 49.67, 42.37 26.73, 62.43 3.92 M0.89 86.9 C23.24 62.56, 41.42 36, 73.06 3.89 M0.89 86.9 C22.87 63.17, 44.37 38.36, 73.06 3.89 M3.65 95.93 C33 58.22, 65.35 21.37, 83.69 3.85 M3.65 95.93 C22.03 73.49, 39.83 52.18, 83.69 3.85 M9.69 101.17 C43.59 61.88, 75.04 26.12, 94.32 3.82 M9.69 101.17 C32.34 76.3, 55.61 50.21, 94.32 3.82 M15.73 106.42 C46.42 70.05, 76.79 36.24, 104.95 3.78 M15.73 106.42 C39.55 79.24, 62.99 50.9, 104.95 3.78 M25.7 107.14 C59.58 68.04, 95.37 27.76, 115.58 3.75 M25.7 107.14 C50.48 77.34, 77.57 46.25, 115.58 3.75 M32.4 111.64 C54.78 85.62, 73.92 61.82, 126.21 3.71 M32.4 111.64 C64.53 74.33, 95.99 38.63, 126.21 3.71 M43.03 111.6 C79.04 72.13, 112.17 33.03, 136.84 3.68 M43.03 111.6 C71.3 77.48, 102.2 43.91, 136.84 3.68 M53.66 111.57 C80.86 80.35, 106.99 50.43, 147.47 3.64 M53.66 111.57 C73.99 89.06, 93.12 65.7, 147.47 3.64 M64.29 111.53 C83.66 89.16, 100 70.38, 158.1 3.61 M64.29 111.53 C91.2 80.63, 119.81 49.92, 158.1 3.61 M74.92 111.5 C97.48 84.53, 121.03 56.44, 171.36 0.56 M74.92 111.5 C95.61 87.77, 116.42 65.31, 171.36 0.56 M85.55 111.46 C107.13 84.31, 129.86 58.8, 180.67 2.03 M85.55 111.46 C111.05 83.53, 136.47 54.83, 180.67 2.03 M96.18 111.43 C126.89 78.85, 152.31 48.03, 188.68 5.02 M96.18 111.43 C124 80.4, 149.63 51.02, 188.68 5.02 M106.81 111.39 C142.76 70.34, 176.35 31.7, 194.06 11.02 M106.81 111.39 C130.67 83.83, 154.16 57.75, 194.06 11.02 M116.78 112.12 C139.9 84.66, 164.85 55.95, 196.82 20.04 M116.78 112.12 C142.29 79.57, 169.8 48.98, 196.82 20.04 M127.41 112.08 C145.35 88.44, 165.69 68.21, 202.86 25.29 M127.41 112.08 C147.72 88.72, 168.94 63.93, 202.86 25.29 M138.04 112.05 C154.52 93.04, 167.99 75.97, 202.99 37.33 M138.04 112.05 C159.83 86.96, 180.81 62.44, 202.99 37.33 M148.67 112.01 C161.51 97.83, 171.82 87.49, 203.12 49.37 M148.67 112.01 C160.69 97.99, 170.94 85.97, 203.12 49.37 M159.3 111.98 C170.35 99.32, 184.91 82.21, 203.26 61.41 M159.3 111.98 C176.11 93.66, 192.01 73.51, 203.26 61.41 M172.55 108.92 C178.88 101.4, 187.29 92.16, 197.48 80.24 M172.55 108.92 C180.82 100.72, 188.96 91.48, 197.48 80.24" fill="none" stroke="#ffffff" stroke-width="1"></path><path d="M26.74 0 C82.71 0.09, 139.55 0.29, 170.66 0 M26.74 0 C74.39 -0.16, 122.38 -1.11, 170.66 0 M170.66 0 C189.05 -0.62, 197.07 7.49, 197.39 26.74 M170.66 0 C186.84 0.59, 198.78 7.23, 197.39 26.74 M197.39 26.74 C195.88 38.79, 196 48.56, 197.39 80.21 M197.39 26.74 C197.37 40.15, 197.35 52.52, 197.39 80.21 M197.39 80.21 C196.21 98.11, 187.29 105.28, 170.66 106.94 M197.39 80.21 C198.23 99.46, 187.14 106.68, 170.66 106.94 M170.66 106.94 C124.12 106.63, 74.03 109.14, 26.74 106.94 M170.66 106.94 C136.72 108.99, 103.77 108.8, 26.74 106.94 M26.74 106.94 C10.82 108.3, -0.13 98.16, 0 80.21 M26.74 106.94 C9.99 105.12, 1.39 96.02, 0 80.21 M0 80.21 C-2.15 66.05, -1.61 56.31, 0 26.74 M0 80.21 C-0.64 59.18, 0.04 40.07, 0 26.74 M0 26.74 C-0.47 9.87, 8.59 1.28, 26.74 0 M0 26.74 C0.32 7.47, 9.91 2.18, 26.74 0" fill="none" stroke="#1e1e1e" stroke-width="2"></path></g><g transform="translate(546.1135676522467 225.97806334188863) rotate(0 57.4755859375 12.5)"><text direction="ltr" dominant-baseline="text-before-edge" fill="#1e1e1e" font-family="Virgil, Segoe UI Emoji" font-size="20px" style="white-space: pre;" text-anchor="middle" x="57.4755859375" y="0">Query Service</text></g><g stroke-linecap="round"><g transform="translate(713.1796195906968 248.90050879019327) rotate(0 45.30548925832454 -23.285791106315628)"><path d="M-0.6 0.35 C14.66 -7.22, 75.55 -38.11, 90.81 -45.77 M1.29 -0.51 C16.47 -8.38, 75.12 -39.64, 89.97 -47.47" fill="none" stroke="#1e1e1e" stroke-width="2"></path></g><g transform="translate(713.1796195906968 248.90050879019327) rotate(0 45.30548925832454 -23.285791106315628)"><path d="M19.95 -21.51 C15.52 -16.01, 11.33 -10.51, -0.6 0.35 M19.95 -21.51 C12.62 -13.53, 4.37 -5.63, -0.6 0.35" fill="none" stroke="#1e1e1e" stroke-width="2"></path></g><g transform="translate(713.1796195906968 248.90050879019327) rotate(0 45.30548925832454 -23.285791106315628)"><path d="M29.2 -3.19 C22.59 -2.15, 16.18 -1.05, -0.6 0.35 M29.2 -3.19 C18.18 -2.19, 6.41 -1.25, -0.6 0.35" fill="none" stroke="#1e1e1e" stroke-width="2"></path></g><g transform="translate(713.1796195906968 248.90050879019327) rotate(0 45.30548925832454 -23.285791106315628)"><path d="M69.87 -25.2 C75.36 -30.13, 80.96 -35.25, 89.97 -47.47 M69.87 -25.2 C77.59 -33.94, 84.79 -42.81, 89.97 -47.47" fill="none" stroke="#1e1e1e" stroke-width="2"></path></g><g transform="translate(713.1796195906968 248.90050879019327) rotate(0 45.30548925832454 -23.285791106315628)"><path d="M60.25 -43.33 C68.01 -43.84, 75.92 -44.6, 89.97 -47.47 M60.25 -43.33 C71.8 -45.17, 82.65 -47.14, 89.97 -47.47" fill="none" stroke="#1e1e1e" stroke-width="2"></path></g></g><mask></mask><g stroke-linecap="round" transform="translate(1541.9930389262486 380.6297750829399) rotate(0 72.099609375 68.462890625)"><path d="M7.86 8.16 C7.86 8.16, 7.86 8.16, 7.86 8.16 M7.86 8.16 C7.86 8.16, 7.86 8.16, 7.86 8.16 M1.43 27.75 C5.66 19.16, 15.57 13.98, 24.4 1.33 M1.43 27.75 C8.38 19.63, 15.41 12.45, 24.4 1.33 M0.91 40.54 C12.73 23.91, 27.57 10.73, 36.34 -0.21 M0.91 40.54 C9.1 31.17, 15.07 21.86, 36.34 -0.21 M1.04 52.58 C8.99 42.33, 18.83 28.55, 46.31 0.51 M1.04 52.58 C11.56 40.56, 22.27 28.31, 46.31 0.51 M1.18 64.62 C24.88 38.49, 43.84 12.92, 56.94 0.47 M1.18 64.62 C14.99 47.54, 29.89 31.08, 56.94 0.47 M1.31 76.67 C14.79 56.53, 32.11 40.51, 67.57 0.44 M1.31 76.67 C19.64 57.25, 36.3 35.88, 67.57 0.44 M1.44 88.71 C17.13 71.37, 34.25 53.81, 78.2 0.41 M1.44 88.71 C19.84 64.53, 39.25 42.11, 78.2 0.41 M0.92 101.5 C23.32 77.08, 42.44 51.05, 88.83 0.37 M0.92 101.5 C25.54 73.55, 49.31 44.25, 88.83 0.37 M1.05 113.54 C32.03 76.52, 67.18 40.39, 99.46 0.34 M1.05 113.54 C33.99 74.07, 68.11 34.53, 99.46 0.34 M3.81 122.56 C38.59 83.64, 71.9 44.84, 110.09 0.3 M3.81 122.56 C27.23 94.74, 51.69 67.51, 110.09 0.3 M8.54 129.32 C36.8 92.87, 67.7 60.18, 120.07 1.02 M8.54 129.32 C34.4 102.21, 57.15 73.58, 120.07 1.02 M15.23 133.82 C41.6 104.79, 66.02 74.25, 128.07 4.01 M15.23 133.82 C49.85 93.68, 86.35 51.54, 128.07 4.01 M23.89 136.05 C52.83 100.13, 82.54 68.55, 135.42 7.75 M23.89 136.05 C67.67 84.95, 112.78 33.12, 135.42 7.75 M33.87 136.77 C70.67 96.58, 107.87 53.34, 140.15 14.5 M33.87 136.77 C74.66 90.21, 115.15 42.47, 140.15 14.5 M44.5 136.73 C81.58 91.96, 121.05 50.47, 142.91 23.53 M44.5 136.73 C82 93.62, 119.55 50.73, 142.91 23.53 M55.13 136.7 C77.31 111.66, 98.41 87.57, 144.35 34.06 M55.13 136.7 C84.21 102.9, 113.04 69.52, 144.35 34.06 M65.76 136.66 C83.43 115.12, 103.88 94.35, 144.48 46.1 M65.76 136.66 C88.33 112.43, 110.51 85.32, 144.48 46.1 M76.39 136.63 C101.58 111.08, 123.7 82.28, 144.62 58.14 M76.39 136.63 C94.87 115.92, 112.64 93.97, 144.62 58.14 M86.36 137.35 C99.58 122.36, 113.65 105.37, 144.09 70.93 M86.36 137.35 C109.63 109.98, 132.99 83.59, 144.09 70.93 M96.99 137.31 C115.05 116.41, 127.82 98.85, 144.23 82.97 M96.99 137.31 C109.91 123.12, 120.37 110.13, 144.23 82.97 M107.62 137.28 C120.41 121.99, 133.89 108.55, 144.36 95.02 M107.62 137.28 C117.46 127.39, 125.58 116, 144.36 95.02 M118.91 136.49 C124.48 128.61, 130.64 120.01, 143.84 107.81 M118.91 136.49 C124.89 129.93, 131.15 122.14, 143.84 107.81 M134.79 130.42 C137.21 128.99, 137.61 126.35, 140.03 124.38 M134.79 130.42 C136.73 128.29, 138.41 126.88, 140.03 124.38" fill="none" stroke="#ffffff" stroke-width="1"></path><path d="M32 0 C53.42 0.44, 73.77 1.7, 112.2 0 M32 0 C54.77 -0.46, 77.15 0.5, 112.2 0 M112.2 0 C134.74 -1.46, 142.37 9.78, 144.2 32 M112.2 0 C132.07 -1.46, 145.24 9.34, 144.2 32 M144.2 32 C142.66 51.92, 144.8 71.99, 144.2 104.93 M144.2 32 C143.17 52.95, 144.13 76.17, 144.2 104.93 M144.2 104.93 C143.03 126.03, 134.22 135.23, 112.2 136.93 M144.2 104.93 C145.6 128.07, 132.16 136.47, 112.2 136.93 M112.2 136.93 C84.84 134.65, 54.74 135.06, 32 136.93 M112.2 136.93 C84.64 137.53, 57.67 136.68, 32 136.93 M32 136.93 C11.87 135.18, -1.22 127.65, 0 104.93 M32 136.93 C12.76 134.88, -1.58 124.83, 0 104.93 M0 104.93 C0.01 76.61, -2.3 50.04, 0 32 M0 104.93 C0.01 82.31, 0.31 57.79, 0 32 M0 32 C0.87 12.56, 12.31 -0.74, 32 0 M0 32 C1.81 8.8, 8.84 -1.53, 32 0" fill="none" stroke="#1e1e1e" stroke-width="2"></path></g><g transform="translate(1553.5457733012486 424.0926657079399) rotate(0 60.546875 25)"><text direction="ltr" dominant-baseline="text-before-edge" fill="#1e1e1e" font-family="Virgil, Segoe UI Emoji" font-size="20px" style="white-space: pre;" text-anchor="middle" x="60.546875" y="0">worker</text><text direction="ltr" dominant-baseline="text-before-edge" fill="#1e1e1e" font-family="Virgil, Segoe UI Emoji" font-size="20px" style="white-space: pre;" text-anchor="middle" x="60.546875" y="25">- consume jobs</text></g><g stroke-linecap="round"><g transform="translate(1695.2196014262486 433.5594625829399) rotate(0 38.1015625 -51.3203125)"><path d="M1.1 -0.17 C13.8 -17.5, 64.06 -85.79, 76.54 -103.01 M0.22 -1.3 C12.76 -18.54, 63.28 -84.78, 75.77 -101.67" fill="none" stroke="#1e1e1e" stroke-width="2"></path></g><g transform="translate(1695.2196014262486 433.5594625829399) rotate(0 38.1015625 -51.3203125)"><path d="M67.03 -72.97 C69.39 -81.92, 71.93 -92.25, 75.77 -101.67 M67.03 -72.97 C69.84 -80.3, 70.32 -86.58, 75.77 -101.67" fill="none" stroke="#1e1e1e" stroke-width="2"></path></g><g transform="translate(1695.2196014262486 433.5594625829399) rotate(0 38.1015625 -51.3203125)"><path d="M50.63 -85.31 C58.48 -90.35, 66.41 -96.62, 75.77 -101.67 M50.63 -85.31 C57.1 -89.85, 61.34 -93.31, 75.77 -101.67" fill="none" stroke="#1e1e1e" stroke-width="2"></path></g></g><mask></mask><g stroke-linecap="round" transform="translate(1784.4083153420138 244.71668662290176) rotate(0 60.580078125 54.958984375)"><path d="M3.58 11.06 C3.58 11.06, 3.58 11.06, 3.58 11.06 M3.58 11.06 C3.58 11.06, 3.58 11.06, 3.58 11.06 M1.09 26.12 C9.58 19.1, 14.02 12.14, 22.74 1.22 M1.09 26.12 C6.66 17.57, 13.56 10.53, 22.74 1.22 M1.22 38.16 C14.99 26.37, 24.09 9.82, 34.02 0.43 M1.22 38.16 C8.8 29.42, 15.64 21.69, 34.02 0.43 M1.35 50.2 C12.22 37.69, 23.21 25.64, 44.65 0.39 M1.35 50.2 C16.27 33.39, 31.22 14.21, 44.65 0.39 M0.83 63 C14.04 47.42, 24.81 34.47, 55.28 0.36 M0.83 63 C16.51 45.18, 29.43 29.33, 55.28 0.36 M0.96 75.04 C22.73 53.57, 43.72 28.83, 65.91 0.32 M0.96 75.04 C16.7 56.55, 33.72 38.76, 65.91 0.32 M1.1 87.08 C31.87 52.54, 57.06 19.03, 76.54 0.29 M1.1 87.08 C19.01 68.58, 35.42 48.27, 76.54 0.29 M3.2 96.86 C19.85 77.48, 38.6 55.38, 87.18 0.25 M3.2 96.86 C27.1 68.84, 50.85 42.82, 87.18 0.25 M7.93 103.62 C42.99 61.33, 77.81 20.77, 97.81 0.22 M7.93 103.62 C31.4 76.22, 56.06 47.99, 97.81 0.22 M15.27 107.35 C33.6 84.96, 52.82 63.41, 106.47 2.45 M15.27 107.35 C46.67 72.02, 75.23 37.98, 106.47 2.45 M23.94 109.58 C52.37 80.37, 80.99 46.26, 113.82 6.19 M23.94 109.58 C52.54 77.7, 80.71 44.95, 113.82 6.19 M34.57 109.55 C61.22 74.38, 92.78 41.85, 118.54 12.95 M34.57 109.55 C60.32 81.15, 83.33 53.16, 118.54 12.95 M45.2 109.51 C69 78.62, 94.59 50.58, 120.64 22.72 M45.2 109.51 C62.37 90.79, 79.38 72.15, 120.64 22.72 M55.83 109.48 C73.49 89.03, 90.33 69.72, 121.43 34.01 M55.83 109.48 C69.92 92.06, 84.12 75.83, 121.43 34.01 M65.8 110.2 C85.8 84.74, 107.05 60.31, 121.57 46.05 M65.8 110.2 C77.37 96.91, 89.45 83.03, 121.57 46.05 M76.43 110.17 C90.13 92.23, 104.26 74.77, 121.04 58.85 M76.43 110.17 C86.2 97.85, 96.89 86.92, 121.04 58.85 M87.06 110.13 C96.91 97.06, 112.07 83.19, 121.18 70.89 M87.06 110.13 C94.89 100.38, 105.47 89.1, 121.18 70.89 M98.35 109.34 C105.9 100.26, 116.42 88.54, 121.31 82.93 M98.35 109.34 C107.56 99.52, 115.67 90.14, 121.31 82.93" fill="none" stroke="#ffffff" stroke-width="1"></path><path d="M27.48 0 C52.78 -0.51, 77.9 -1.61, 93.68 0 M27.48 0 C48.12 0.04, 69.94 -0.15, 93.68 0 M93.68 0 C112.9 -1.16, 120.68 7.99, 121.16 27.48 M93.68 0 C112.31 -1.28, 120.94 10.35, 121.16 27.48 M121.16 27.48 C121.24 42.12, 119.49 59.87, 121.16 82.44 M121.16 27.48 C121.18 46.53, 121.45 68.07, 121.16 82.44 M121.16 82.44 C119.97 100.36, 113.32 108.53, 93.68 109.92 M121.16 82.44 C119.07 103.05, 110.22 111.33, 93.68 109.92 M93.68 109.92 C78.95 110.42, 61.63 111.49, 27.48 109.92 M93.68 109.92 C78.45 110.03, 65.34 108.45, 27.48 109.92 M27.48 109.92 C7.79 108.68, 1.66 102.3, 0 82.44 M27.48 109.92 C11.05 110.57, -0.46 98.76, 0 82.44 M0 82.44 C0.86 63, 1.17 44.49, 0 27.48 M0 82.44 C0.59 69.02, 0.55 55.54, 0 27.48 M0 27.48 C-1.59 7.83, 7.96 -1.58, 27.48 0 M0 27.48 C-1.93 8.8, 8.62 -0.87, 27.48 0" fill="none" stroke="#1e1e1e" stroke-width="2"></path></g><g transform="translate(1799.1778465920138 287.17567099790176) rotate(0 45.810546875 12.5)"><text direction="ltr" dominant-baseline="text-before-edge" fill="#1e1e1e" font-family="Virgil, Segoe UI Emoji" font-size="20px" style="white-space: pre;" text-anchor="middle" x="45.810546875" y="0">execute job</text></g><g stroke-linecap="round" transform="translate(1786.5067108012486 393.9129782079399) rotate(0 60.580078125 54.958984375)"><path d="M3.58 11.06 C3.58 11.06, 3.58 11.06, 3.58 11.06 M3.58 11.06 C3.58 11.06, 3.58 11.06, 3.58 11.06 M1.09 26.12 C8.74 19.08, 15.37 7.11, 22.74 1.22 M1.09 26.12 C6.26 20.19, 10.84 16.83, 22.74 1.22 M1.22 38.16 C12.23 22.04, 28.78 10.08, 34.02 0.43 M1.22 38.16 C7.96 29.04, 16 21.04, 34.02 0.43 M1.35 50.2 C13.8 38.95, 24.39 23.74, 44.65 0.39 M1.35 50.2 C18.04 30.22, 35.4 11.25, 44.65 0.39 M0.83 63 C11.81 48.78, 24.54 38.46, 55.28 0.36 M0.83 63 C12.72 49.74, 23.73 37.77, 55.28 0.36 M0.96 75.04 C24.8 43.61, 51.33 14.3, 65.91 0.32 M0.96 75.04 C19.28 54.05, 37.21 34.92, 65.91 0.32 M1.1 87.08 C20.25 63.43, 40.34 42.83, 76.54 0.29 M1.1 87.08 C25.89 57.62, 53.49 27.79, 76.54 0.29 M3.2 96.86 C32.24 63.68, 61.74 29.56, 87.18 0.25 M3.2 96.86 C21.37 76.73, 38.49 56.22, 87.18 0.25 M7.93 103.62 C28.13 80.69, 48.72 54.76, 97.81 0.22 M7.93 103.62 C39.04 66.52, 72.05 30.59, 97.81 0.22 M15.27 107.35 C44.15 74.64, 71.15 45.21, 106.47 2.45 M15.27 107.35 C36.72 82.79, 56.61 59.99, 106.47 2.45 M23.94 109.58 C56.27 70.8, 89.96 34.44, 113.82 6.19 M23.94 109.58 C53.72 75.73, 83.95 40.02, 113.82 6.19 M34.57 109.55 C52.83 87.52, 72.18 68.33, 118.54 12.95 M34.57 109.55 C60.52 81.67, 85.02 51.64, 118.54 12.95 M45.2 109.51 C59.61 92.36, 75.22 74.7, 120.64 22.72 M45.2 109.51 C67.32 83.03, 89.9 56.23, 120.64 22.72 M55.83 109.48 C68.56 94.78, 84.61 76.35, 121.43 34.01 M55.83 109.48 C72.62 92.28, 86.8 72.9, 121.43 34.01 M65.8 110.2 C79.19 92.32, 93.81 75.55, 121.57 46.05 M65.8 110.2 C81.42 93.35, 95.67 75.17, 121.57 46.05 M76.43 110.17 C86.01 97.14, 97.32 84.73, 121.04 58.85 M76.43 110.17 C86.62 98.87, 95.96 86.93, 121.04 58.85 M87.06 110.13 C96.62 98.98, 107.79 83.94, 121.18 70.89 M87.06 110.13 C98.67 97.05, 110.38 83.8, 121.18 70.89 M98.35 109.34 C106.83 99.68, 112.77 93.89, 121.31 82.93 M98.35 109.34 C104.29 103.79, 109.78 96.69, 121.31 82.93" fill="none" stroke="#ffffff" stroke-width="1"></path><path d="M27.48 0 C46.78 1.68, 63.6 -1.36, 93.68 0 M27.48 0 C44.85 -0.16, 61.08 -0.17, 93.68 0 M93.68 0 C112.27 -1.11, 120.97 10.19, 121.16 27.48 M93.68 0 C111.72 -0.03, 119.8 9.26, 121.16 27.48 M121.16 27.48 C121.95 39.53, 120.47 54.6, 121.16 82.44 M121.16 27.48 C120.9 39.11, 122.15 50.45, 121.16 82.44 M121.16 82.44 C119.34 102.75, 110.45 111.15, 93.68 109.92 M121.16 82.44 C119.85 101.74, 114.19 111.48, 93.68 109.92 M93.68 109.92 C72.66 111.43, 53.06 109.01, 27.48 109.92 M93.68 109.92 C68.54 108.71, 45.61 110.1, 27.48 109.92 M27.48 109.92 C10.8 110.49, -0.4 99.02, 0 82.44 M27.48 109.92 C10.26 110.35, -0.54 101.86, 0 82.44 M0 82.44 C-1.6 67.71, 1.54 52.9, 0 27.48 M0 82.44 C-1.23 67.32, -1.03 52.74, 0 27.48 M0 27.48 C-1.68 8.85, 8.69 -0.75, 27.48 0 M0 27.48 C0.09 10.93, 7.67 1.83, 27.48 0" fill="none" stroke="#1e1e1e" stroke-width="2"></path></g><g transform="translate(1801.2762420512486 436.3719625829399) rotate(0 45.810546875 12.5)"><text direction="ltr" dominant-baseline="text-before-edge" fill="#1e1e1e" font-family="Virgil, Segoe UI Emoji" font-size="20px" style="white-space: pre;" text-anchor="middle" x="45.810546875" y="0">execute job</text></g><g stroke-linecap="round" transform="translate(1790.6199920512486 564.226692123706) rotate(0 60.580078125 54.958984375)"><path d="M3.58 11.06 C3.58 11.06, 3.58 11.06, 3.58 11.06 M3.58 11.06 C3.58 11.06, 3.58 11.06, 3.58 11.06 M1.09 26.12 C7.58 15.43, 17.15 8.32, 22.74 1.22 M1.09 26.12 C6.44 20.26, 9.47 14.34, 22.74 1.22 M1.22 38.16 C6.6 31.09, 13.74 20.41, 34.02 0.43 M1.22 38.16 C8.75 29.57, 16.49 20.73, 34.02 0.43 M1.35 50.2 C20.19 29.67, 34.27 9.72, 44.65 0.39 M1.35 50.2 C11.87 36.85, 23.57 24.08, 44.65 0.39 M0.83 63 C11.58 46.16, 26.12 33.34, 55.28 0.36 M0.83 63 C16.06 47.2, 29.63 29.39, 55.28 0.36 M0.96 75.04 C14.16 60.47, 28.8 45.76, 65.91 0.32 M0.96 75.04 C16.48 54.44, 32.87 35.49, 65.91 0.32 M1.1 87.08 C20.44 66.13, 36.59 43.51, 76.54 0.29 M1.1 87.08 C22.31 63.16, 42.54 37.92, 76.54 0.29 M3.2 96.86 C29.36 65.36, 59.76 34.7, 87.18 0.25 M3.2 96.86 C31.2 63.17, 60.31 29.39, 87.18 0.25 M7.93 103.62 C37.48 70.47, 65.64 37.6, 97.81 0.22 M7.93 103.62 C27.74 80.01, 48.43 57.11, 97.81 0.22 M15.27 107.35 C38.12 77.3, 63.61 50.83, 106.47 2.45 M15.27 107.35 C36.55 85.35, 54.89 61.79, 106.47 2.45 M23.94 109.58 C45.08 86.73, 64.17 62.31, 113.82 6.19 M23.94 109.58 C51.35 77.7, 80.49 44.03, 113.82 6.19 M34.57 109.55 C56.34 82.18, 78.82 58.91, 118.54 12.95 M34.57 109.55 C67.3 71.02, 101.41 31.86, 118.54 12.95 M45.2 109.51 C71.36 81.41, 98.22 50.06, 120.64 22.72 M45.2 109.51 C73.94 76.62, 102.71 42.35, 120.64 22.72 M55.83 109.48 C80.14 79.41, 106.87 52.57, 121.43 34.01 M55.83 109.48 C80.7 80.45, 105.83 51.85, 121.43 34.01 M65.8 110.2 C79.46 94.41, 92.37 79.73, 121.57 46.05 M65.8 110.2 C83.75 88.79, 101.67 67.94, 121.57 46.05 M76.43 110.17 C85.74 97.85, 97.97 86.54, 121.04 58.85 M76.43 110.17 C89.28 96.81, 101.74 80.89, 121.04 58.85 M87.06 110.13 C100 98.33, 109.93 83.55, 121.18 70.89 M87.06 110.13 C96.45 100.17, 104.78 89.08, 121.18 70.89 M98.35 109.34 C103.02 104.37, 108.65 97.08, 121.31 82.93 M98.35 109.34 C107.77 98.13, 117.26 87.7, 121.31 82.93" fill="none" stroke="#ffffff" stroke-width="1"></path><path d="M27.48 0 C50.45 -0.66, 73.93 1.51, 93.68 0 M27.48 0 C43.65 -0.17, 59.44 0.91, 93.68 0 M93.68 0 C111.76 -0.03, 119.98 9.24, 121.16 27.48 M93.68 0 C110.63 -1.91, 122 10.59, 121.16 27.48 M121.16 27.48 C119.4 41.99, 122.68 52.86, 121.16 82.44 M121.16 27.48 C120.61 43.87, 120.75 58.88, 121.16 82.44 M121.16 82.44 C120.02 101.62, 113.9 111.27, 93.68 109.92 M121.16 82.44 C121.01 100.91, 113.08 108.1, 93.68 109.92 M93.68 109.92 C71.22 111.34, 44.2 108.14, 27.48 109.92 M93.68 109.92 C78.75 110.71, 61.97 109.56, 27.48 109.92 M27.48 109.92 C10.11 110.3, -0.47 101.72, 0 82.44 M27.48 109.92 C8.79 111.39, 0.32 99.32, 0 82.44 M0 82.44 C-1.26 65.14, -2.14 43.11, 0 27.48 M0 82.44 C-0.51 69.44, 0.1 56.37, 0 27.48 M0 27.48 C0.08 10.7, 7.87 1.6, 27.48 0 M0 27.48 C-0.73 11.45, 10.59 -0.29, 27.48 0" fill="none" stroke="#1e1e1e" stroke-width="2"></path></g><g transform="translate(1805.3895233012486 606.685676498706) rotate(0 45.810546875 12.5)"><text direction="ltr" dominant-baseline="text-before-edge" fill="#1e1e1e" font-family="Virgil, Segoe UI Emoji" font-size="20px" style="white-space: pre;" text-anchor="middle" x="45.810546875" y="0">execute job</text></g><g stroke-linecap="round"><g transform="translate(1695.6219451762486 454.3250875829399) rotate(0 39.7421875 0)"><path d="M0.54 -0.69 C13.87 -0.68, 66.01 -0.71, 79.19 -0.7 M-0.63 1.56 C12.58 1.77, 64.83 0.67, 78.09 0.46" fill="none" stroke="#1e1e1e" stroke-width="2"></path></g><g transform="translate(1695.6219451762486 454.3250875829399) rotate(0 39.7421875 0)"><path d="M50.09 11.23 C55.63 8.08, 62.23 6.28, 78.09 0.46 M50.09 11.23 C56.83 8.44, 63.21 5.86, 78.09 0.46" fill="none" stroke="#1e1e1e" stroke-width="2"></path></g><g transform="translate(1695.6219451762486 454.3250875829399) rotate(0 39.7421875 0)"><path d="M49.72 -9.28 C55.21 -7.59, 61.91 -4.53, 78.09 0.46 M49.72 -9.28 C56.53 -7.06, 63 -4.62, 78.09 0.46" fill="none" stroke="#1e1e1e" stroke-width="2"></path></g></g><mask></mask><g stroke-linecap="round"><g transform="translate(1696.7156951762486 483.2782125829399) rotate(0 39.23828125 67.58484139794155)"><path d="M-0.29 -0.7 C12.73 21.83, 65.53 111.75, 78.64 134.5 M1.76 1.54 C14.58 24.28, 65.15 113.65, 77.78 135.69" fill="none" stroke="#1e1e1e" stroke-width="2"></path></g><g transform="translate(1696.7156951762486 483.2782125829399) rotate(0 39.23828125 67.58484139794155)"><path d="M54.92 116.26 C61.52 123.3, 69.48 129.54, 77.78 135.69 M54.92 116.26 C62.35 123.14, 70.38 129.1, 77.78 135.69" fill="none" stroke="#1e1e1e" stroke-width="2"></path></g><g transform="translate(1696.7156951762486 483.2782125829399) rotate(0 39.23828125 67.58484139794155)"><path d="M72.76 106.11 C73.15 116.61, 74.94 126.35, 77.78 135.69 M72.76 106.11 C73.9 116.56, 75.66 126.09, 77.78 135.69" fill="none" stroke="#1e1e1e" stroke-width="2"></path></g></g><mask></mask><g stroke-linecap="round"><g transform="translate(1827.9969920921972 231.9459372070669) rotate(0 -285.6260318187452 -57.13644433600666)"><path d="M0.16 -0.67 C-28.4 -19.49, -76.42 -95.2, -171.68 -113.65 C-266.94 -132.11, -504.68 -111.79, -571.4 -111.4 M-1.21 1.6 C-29.92 -17.52, -77.52 -96.83, -172.69 -115.45 C-267.86 -134.07, -505.67 -110.97, -572.24 -110.09" fill="none" stroke="#1e1e1e" stroke-width="2"></path></g><g transform="translate(1827.9969920921972 231.9459372070669) rotate(0 -285.6260318187452 -57.13644433600666)"><path d="M-544.62 -121.8 C-553.41 -118.72, -558.89 -115.54, -572.24 -110.09 M-544.62 -121.8 C-553.53 -119.12, -560.82 -114.18, -572.24 -110.09" fill="none" stroke="#1e1e1e" stroke-width="2"></path></g><g transform="translate(1827.9969920921972 231.9459372070669) rotate(0 -285.6260318187452 -57.13644433600666)"><path d="M-543.55 -101.31 C-552.52 -103.88, -558.29 -106.35, -572.24 -110.09 M-543.55 -101.31 C-552.66 -104.75, -560.27 -105.92, -572.24 -110.09" fill="none" stroke="#1e1e1e" stroke-width="2"></path></g></g><mask></mask><g transform="translate(1509.2794542717525 58.786073905070225) rotate(0 73.59992980957031 12.5)"><text direction="ltr" dominant-baseline="text-before-edge" fill="#1e1e1e" font-family="Virgil, Segoe UI Emoji" font-size="20px" style="white-space: pre;" text-anchor="start" x="0" y="0">update status</text></g><g stroke-linecap="round" transform="translate(10 121.27111257574688) rotate(0 61.80078125 35.58203125)"><path d="M4.74 4.12 C4.74 4.12, 4.74 4.12, 4.74 4.12 M4.74 4.12 C4.74 4.12, 4.74 4.12, 4.74 4.12 M0.28 21.44 C6.59 17.81, 7.54 13.16, 18.65 0.31 M0.28 21.44 C4.53 16.74, 8.62 12.14, 18.65 0.31 M0.41 33.48 C7.89 24.51, 17.11 14.97, 29.28 0.27 M0.41 33.48 C7.4 25.56, 14.36 16.42, 29.28 0.27 M0.54 45.52 C11.8 35.28, 19.7 20.09, 39.91 0.24 M0.54 45.52 C11.88 33.03, 24.38 20.15, 39.91 0.24 M0.68 57.56 C17.15 37.56, 33.14 21.02, 50.54 0.21 M0.68 57.56 C17.27 40.14, 31.97 19.89, 50.54 0.21 M4.09 65.83 C16.83 51.6, 32.52 35.08, 60.51 0.93 M4.09 65.83 C19.8 49.22, 33.71 33.64, 60.51 0.93 M10.78 70.32 C24.62 54.38, 37.81 37.75, 71.14 0.89 M10.78 70.32 C31.47 46.22, 51.18 22.03, 71.14 0.89 M20.76 71.04 C34.13 53.21, 49.67 37.56, 81.77 0.86 M20.76 71.04 C43.22 46.65, 63.47 22.64, 81.77 0.86 M31.39 71.01 C50.16 51.04, 67.94 25.89, 92.4 0.82 M31.39 71.01 C48.28 51.35, 67.45 31.7, 92.4 0.82 M42.02 70.98 C56.54 55.84, 70.3 40.86, 103.03 0.79 M42.02 70.98 C57.39 52.58, 71.03 36.67, 103.03 0.79 M52.65 70.94 C68.39 55.25, 83.28 34.59, 113 1.51 M52.65 70.94 C71.65 47.75, 90.19 25.62, 113 1.51 M63.28 70.91 C76.97 54.77, 93.66 37.92, 119.7 6 M63.28 70.91 C84.3 46.08, 106.25 21, 119.7 6 M73.25 71.63 C85.47 57.67, 96.34 43.02, 123.77 13.51 M73.25 71.63 C87.36 53.15, 102.71 35.44, 123.77 13.51 M83.88 71.59 C94.15 57.35, 107.04 44.61, 123.9 25.55 M83.88 71.59 C92.56 60.17, 102 49, 123.9 25.55 M94.51 71.56 C100.17 63.25, 105.49 57.24, 123.38 38.35 M94.51 71.56 C102.83 61, 111.37 53.1, 123.38 38.35 M105.14 71.52 C110.15 63.77, 116.49 61.19, 123.51 50.39 M105.14 71.52 C109.99 66.5, 113.47 62.96, 123.51 50.39" fill="none" stroke="#ffffff" stroke-width="1"></path><path d="M17.79 0 C43.33 -1.07, 69.01 -1.09, 105.81 0 M17.79 0 C36.3 -0.66, 56.32 -1.39, 105.81 0 M105.81 0 C118.89 1.58, 122.41 5.53, 123.6 17.79 M105.81 0 C119.19 -1.6, 121.51 8.22, 123.6 17.79 M123.6 17.79 C124.68 27.61, 125.18 33.5, 123.6 53.37 M123.6 17.79 C124.37 27.82, 123.16 40.29, 123.6 53.37 M123.6 53.37 C125.43 63.45, 116.3 69.92, 105.81 71.16 M123.6 53.37 C125.51 67.01, 119.56 71.82, 105.81 71.16 M105.81 71.16 C81.52 71.12, 57.44 71.26, 17.79 71.16 M105.81 71.16 C74.22 71.56, 42.59 70.24, 17.79 71.16 M17.79 71.16 C7.51 69.54, -1.59 63.91, 0 53.37 M17.79 71.16 C4.56 69.35, -1.93 64.88, 0 53.37 M0 53.37 C1.67 42.24, 1.73 33.05, 0 17.79 M0 53.37 C-0.8 38.83, -0.21 24.72, 0 17.79 M0 17.79 C-1.9 4.34, 7.82 0.27, 17.79 0 M0 17.79 C-0.29 6.58, 7.86 0.97, 17.79 0" fill="none" stroke="#1e1e1e" stroke-width="2"></path></g><g transform="translate(49.5888671875 144.35314382574688) rotate(0 22.2119140625 12.5)"><text direction="ltr" dominant-baseline="text-before-edge" fill="#1e1e1e" font-family="Virgil, Segoe UI Emoji" font-size="20px" style="white-space: pre;" text-anchor="middle" x="22.2119140625" y="0">client</text></g><g stroke-linecap="round" transform="translate(223.38525405024757 10) rotate(0 46.477155548504925 143.3449778590912)"><path d="M5.53 6.13 C5.53 6.13, 5.53 6.13, 5.53 6.13 M5.53 6.13 C5.53 6.13, 5.53 6.13, 5.53 6.13 M0.41 24.21 C6.42 14.59, 13.71 7.23, 20.75 0.81 M0.41 24.21 C6.4 17.42, 14.04 9.69, 20.75 0.81 M0.55 36.25 C8.35 24.46, 17.51 14.38, 31.38 0.78 M0.55 36.25 C10.86 24.14, 20.9 12.92, 31.38 0.78 M0.68 48.29 C16.48 31.05, 31.4 12.76, 42.01 0.75 M0.68 48.29 C15.23 30.44, 28.78 13.96, 42.01 0.75 M0.81 60.33 C12.7 48.81, 22.65 36.22, 52.64 0.71 M0.81 60.33 C20.29 37.21, 40.13 14.48, 52.64 0.71 M0.29 73.13 C21.08 45.83, 43.76 24.1, 63.27 0.68 M0.29 73.13 C16.03 53.4, 33.71 33.96, 63.27 0.68 M0.42 85.17 C26.94 58.19, 51.8 28.71, 73.9 0.64 M0.42 85.17 C23.62 58.06, 47.82 31.14, 73.9 0.64 M0.56 97.21 C18.28 76.07, 33.27 59.64, 82.56 2.87 M0.56 97.21 C19.86 75.82, 38.6 53.35, 82.56 2.87 M0.69 109.25 C35.53 70.44, 68.37 29.36, 88.6 8.12 M0.69 109.25 C27.32 76.27, 55.42 44.29, 88.6 8.12 M0.82 121.29 C28.41 88.18, 58.91 55.23, 92.02 16.39 M0.82 121.29 C19.67 99.54, 38.26 78.51, 92.02 16.39 M0.3 134.09 C36.39 94.42, 73.61 52.5, 92.8 27.67 M0.3 134.09 C25.58 105.12, 50.98 76.66, 92.8 27.67 M0.43 146.13 C35.27 106.45, 68.37 67.1, 92.94 39.71 M0.43 146.13 C34.2 106.22, 69.3 68.27, 92.94 39.71 M0.57 158.17 C30.02 127.17, 60.37 91.15, 93.07 51.76 M0.57 158.17 C22.91 132.73, 44.48 107.39, 93.07 51.76 M0.7 170.21 C22.55 144.74, 47.18 116.61, 93.2 63.8 M0.7 170.21 C23.98 143.2, 47.72 116.53, 93.2 63.8 M0.83 182.25 C23.01 158.48, 44.34 133.04, 93.34 75.84 M0.83 182.25 C19.91 158.77, 39.95 136.74, 93.34 75.84 M0.31 195.05 C19.05 171.54, 40.82 148.39, 93.47 87.88 M0.31 195.05 C23.65 166.72, 48.38 137.75, 93.47 87.88 M0.44 207.09 C36.01 165.73, 74.85 123.78, 92.95 100.67 M0.44 207.09 C33.51 169.47, 66.14 132.57, 92.95 100.67 M0.58 219.13 C30.3 182.09, 63.41 144.46, 93.08 112.71 M0.58 219.13 C29.35 184.97, 60.43 149.92, 93.08 112.71 M0.71 231.17 C29.25 200.02, 54.89 166.68, 93.21 124.76 M0.71 231.17 C31.67 193.52, 63.92 157.08, 93.21 124.76 M0.84 243.21 C20.96 217.79, 42.33 193.38, 93.35 136.8 M0.84 243.21 C21.81 218.61, 44.1 192.99, 93.35 136.8 M0.32 256.01 C21.78 227.42, 47.25 200.21, 93.48 148.84 M0.32 256.01 C24.25 229.68, 46.58 202.47, 93.48 148.84 M0.45 268.05 C26.38 238.76, 48.65 209.9, 93.61 160.88 M0.45 268.05 C29.1 236.27, 56.73 203.58, 93.61 160.88 M3.87 276.31 C25.88 254.02, 45.6 229.88, 93.09 173.67 M3.87 276.31 C26.22 248.56, 49.64 222.49, 93.09 173.67 M8.59 283.07 C29.52 262.14, 45.5 239.17, 93.22 185.71 M8.59 283.07 C36.84 250.88, 64.45 217.49, 93.22 185.71 M16.6 286.06 C44.15 253.13, 73.51 218.75, 93.36 197.75 M16.6 286.06 C41.27 259.57, 63.68 232.27, 93.36 197.75 M26.57 286.78 C42.86 267.4, 63.27 244.72, 93.49 209.8 M26.57 286.78 C41.38 268.05, 58.79 249.69, 93.49 209.8 M37.2 286.74 C54.45 267.53, 69.68 249.56, 93.62 221.84 M37.2 286.74 C52.48 267.98, 70.24 250.13, 93.62 221.84 M47.83 286.71 C58.81 269.35, 74.06 255.14, 93.1 234.63 M47.83 286.71 C57.35 275.83, 66.22 263.7, 93.1 234.63 M58.46 286.67 C63.99 277.59, 71.38 269.63, 93.23 246.67 M58.46 286.67 C66.22 277.16, 75.12 266.55, 93.23 246.67 M69.09 286.64 C74.11 282.23, 79.73 275.75, 93.37 258.71 M69.09 286.64 C78.55 275.85, 87.52 265.98, 93.37 258.71 M82.35 283.58 C86.56 279.31, 89.43 274.35, 91.53 273.02 M82.35 283.58 C85.18 280.07, 88.92 276.05, 91.53 273.02" fill="none" stroke="#ffffff" stroke-width="1"></path><path d="M23.24 0 C32.78 1.01, 46.88 -0.89, 69.72 0 M23.24 0 C37.26 1.18, 49.46 0.19, 69.72 0 M69.72 0 C86.53 -1.39, 91.14 9.74, 92.95 23.24 M69.72 0 C83.43 1.42, 91.65 8.73, 92.95 23.24 M92.95 23.24 C94.42 118.94, 92.99 214.09, 92.95 263.45 M92.95 23.24 C92.49 73.6, 91.16 124.93, 92.95 263.45 M92.95 263.45 C94.61 280.48, 86.85 287.26, 69.72 286.69 M92.95 263.45 C92.5 276.94, 86.31 287.12, 69.72 286.69 M69.72 286.69 C58.14 286.89, 42.75 287.48, 23.24 286.69 M69.72 286.69 C52.16 285.71, 32.25 285.86, 23.24 286.69 M23.24 286.69 C6.55 285.11, -1.68 278.63, 0 263.45 M23.24 286.69 C7.21 285.82, 0.09 280.71, 0 263.45 M0 263.45 C0.06 207.95, -1.8 149.41, 0 23.24 M0 263.45 C-0.81 198.72, 0.77 135.42, 0 23.24 M0 23.24 C-0.25 8.31, 9.42 0.84, 23.24 0 M0 23.24 C-0.76 9.69, 7.94 1.91, 23.24 0" fill="none" stroke="#1e1e1e" stroke-width="2"></path></g><g transform="translate(236.5469799112525 128.3449778590912) rotate(0 33.3154296875 25)"><text direction="ltr" dominant-baseline="text-before-edge" fill="#1e1e1e" font-family="Virgil, Segoe UI Emoji" font-size="20px" style="white-space: pre;" text-anchor="middle" x="33.3154296875" y="0">api</text><text direction="ltr" dominant-baseline="text-before-edge" fill="#1e1e1e" font-family="Virgil, Segoe UI Emoji" font-size="20px" style="white-space: pre;" text-anchor="middle" x="33.3154296875" y="25">gateway</text></g><g stroke-linecap="round"><g transform="translate(337.95024823652443 148.8254995576026) rotate(0 80.37115011700234 -32.611960363182334)"><path d="M-0.7 -0.14 C26.09 -11.3, 134.13 -55.55, 161.15 -66.24 M1.13 -1.26 C27.76 -12.37, 133.76 -54.43, 160.42 -65.24" fill="none" stroke="#1e1e1e" stroke-width="2"></path></g><g transform="translate(337.95024823652443 148.8254995576026) rotate(0 80.37115011700234 -32.611960363182334)"><path d="M138.07 -45.22 C145.24 -51.14, 151.3 -57.34, 160.42 -65.24 M138.07 -45.22 C147.32 -53.46, 154.22 -59.35, 160.42 -65.24" fill="none" stroke="#1e1e1e" stroke-width="2"></path></g><g transform="translate(337.95024823652443 148.8254995576026) rotate(0 80.37115011700234 -32.611960363182334)"><path d="M130.44 -64.27 C140.29 -63.74, 148.92 -63.53, 160.42 -65.24 M130.44 -64.27 C142.47 -65.27, 152.26 -63.95, 160.42 -65.24" fill="none" stroke="#1e1e1e" stroke-width="2"></path></g></g><mask></mask><g stroke-linecap="round"><g transform="translate(140.27197545416084 155.28489391676703) rotate(0 39.47190311800534 0)"><path d="M0.41 -1.02 C13.81 -0.84, 66.71 0.82, 79.68 0.95 M-0.83 1.06 C12.53 0.93, 65.52 -0.66, 79.11 -0.68" fill="none" stroke="#1e1e1e" stroke-width="2"></path></g><g transform="translate(140.27197545416084 155.28489391676703) rotate(0 39.47190311800534 0)"><path d="M28.86 -10.55 C20.28 -6.93, 16.67 -7.03, 0.41 -1.02 M28.86 -10.55 C20.04 -7.08, 12.21 -4.79, 0.41 -1.02" fill="none" stroke="#1e1e1e" stroke-width="2"></path></g><g transform="translate(140.27197545416084 155.28489391676703) rotate(0 39.47190311800534 0)"><path d="M28.33 9.97 C19.9 8.63, 16.42 3.56, 0.41 -1.02 M28.33 9.97 C19.53 7.69, 11.84 4.24, 0.41 -1.02" fill="none" stroke="#1e1e1e" stroke-width="2"></path></g><g transform="translate(140.27197545416084 155.28489391676703) rotate(0 39.47190311800534 0)"><path d="M51.1 10.07 C56.19 8.6, 66.24 3.59, 79.11 -0.68 M51.1 10.07 C57.97 8.25, 65.95 4.86, 79.11 -0.68" fill="none" stroke="#1e1e1e" stroke-width="2"></path></g><g transform="translate(140.27197545416084 155.28489391676703) rotate(0 39.47190311800534 0)"><path d="M50.75 -10.45 C55.9 -6.96, 66.03 -7.01, 79.11 -0.68 M50.75 -10.45 C57.85 -6.52, 65.93 -4.16, 79.11 -0.68" fill="none" stroke="#1e1e1e" stroke-width="2"></path></g></g><mask></mask><g stroke-linecap="round"><g transform="translate(327.8613771308885 175.46338655069667) rotate(0 81.29092357431307 31.910407413380653)"><path d="M0.73 0.95 C27.64 11.71, 134.76 53.24, 161.87 63.58 M-0.34 0.4 C26.92 11.44, 136.98 54.42, 164.2 64.99" fill="none" stroke="#1e1e1e" stroke-width="2"></path></g><g transform="translate(327.8613771308885 175.46338655069667) rotate(0 81.29092357431307 31.910407413380653)"><path d="M30.72 1.63 C22.28 0.39, 10.28 2.68, 0.73 0.95 M30.72 1.63 C23.05 2.39, 16.34 2.04, 0.73 0.95" fill="none" stroke="#1e1e1e" stroke-width="2"></path></g><g transform="translate(327.8613771308885 175.46338655069667) rotate(0 81.29092357431307 31.910407413380653)"><path d="M23.27 20.75 C17.48 13.07, 7.97 8.96, 0.73 0.95 M23.27 20.75 C17.48 17.03, 12.5 12.28, 0.73 0.95" fill="none" stroke="#1e1e1e" stroke-width="2"></path></g><g transform="translate(327.8613771308885 175.46338655069667) rotate(0 81.29092357431307 31.910407413380653)"><path d="M134.21 64.31 C145.81 63.17, 153.86 65.9, 164.2 64.99 M134.21 64.31 C140.34 64.79, 147.46 64.76, 164.2 64.99" fill="none" stroke="#1e1e1e" stroke-width="2"></path></g><g transform="translate(327.8613771308885 175.46338655069667) rotate(0 81.29092357431307 31.910407413380653)"><path d="M141.67 45.19 C150.61 50.48, 156.17 59.61, 164.2 64.99 M141.67 45.19 C145.9 50.15, 151.3 54.52, 164.2 64.99" fill="none" stroke="#1e1e1e" stroke-width="2"></path></g></g><mask></mask></svg>