<svg height="547.3636111822125" version="1.1" viewbox="0 0 1854.529155424821 547.3636111822125" width="1854.529155424821" xmlns="http://www.w3.org/2000/svg">
<!-- svg-source:excalidraw -->
<!-- payload-type:application/vnd.excalidraw+json --><!-- payload-version:2 -->
<defs>
<style class="style-fonts">
</style>
</defs>
<rect fill="#ffffff" height="547.3636111822125" width="1854.529155424821" x="0" y="0"></rect><g stroke-linecap="round" transform="translate(10 121.2711125757478) rotate(0 61.80078125 35.58203125)"><path d="M4.74 4.12 C4.74 4.12, 4.74 4.12, 4.74 4.12 M4.74 4.12 C4.74 4.12, 4.74 4.12, 4.74 4.12 M0.28 21.44 C4.27 14.22, 12.19 9.36, 18.65 0.31 M0.28 21.44 C6.37 15.12, 12.68 8.5, 18.65 0.31 M0.41 33.48 C9.13 26.3, 16.24 17.11, 29.28 0.27 M0.41 33.48 C7.87 24.11, 17.15 13.81, 29.28 0.27 M0.54 45.52 C15.46 26.16, 29.57 10.38, 39.91 0.24 M0.54 45.52 C14.57 30.53, 27.19 15.46, 39.91 0.24 M0.68 57.56 C13.69 39.02, 30.62 24.12, 50.54 0.21 M0.68 57.56 C19.76 35.53, 39.2 12.73, 50.54 0.21 M4.09 65.83 C25.15 40.54, 41.82 18.78, 60.51 0.93 M4.09 65.83 C16.21 51.51, 29.57 37.74, 60.51 0.93 M10.78 70.32 C23.31 54, 41.02 35.45, 71.14 0.89 M10.78 70.32 C30.75 47.56, 50.47 22.95, 71.14 0.89 M20.76 71.04 C37.61 48.97, 56.57 29.75, 81.77 0.86 M20.76 71.04 C41.04 46.03, 61.36 23.46, 81.77 0.86 M31.39 71.01 C53.35 42.62, 77.61 16.04, 92.4 0.82 M31.39 71.01 C54.55 44.8, 77.4 16.88, 92.4 0.82 M42.02 70.98 C65.65 44.01, 86.56 17.1, 103.03 0.79 M42.02 70.98 C63.78 46.45, 84.16 20.99, 103.03 0.79 M52.65 70.94 C67.15 54.18, 80.91 37.31, 113 1.51 M52.65 70.94 C71.83 50.28, 90.11 28.15, 113 1.51 M63.28 70.91 C79.09 49.5, 97.23 30.42, 119.7 6 M63.28 70.91 C76.24 55.94, 91.03 38.99, 119.7 6 M73.25 71.63 C85.76 55.29, 100.83 39.83, 123.77 13.51 M73.25 71.63 C92.44 50.3, 112.1 27.84, 123.77 13.51 M83.88 71.59 C93.19 59.62, 106.19 47.48, 123.9 25.55 M83.88 71.59 C95.36 57.8, 108.13 45.88, 123.9 25.55 M94.51 71.56 C102.77 61.43, 113.34 49.4, 123.38 38.35 M94.51 71.56 C106.44 58.83, 116.78 45.22, 123.38 38.35 M105.14 71.52 C109.4 64.44, 115.97 59.41, 123.51 50.39 M105.14 71.52 C111.18 64.82, 116.09 59.85, 123.51 50.39" fill="none" stroke="#ffffff" stroke-width="1"></path><path d="M17.79 0 C38.67 0.99, 58.7 0.27, 105.81 0 M17.79 0 C47.03 -0.66, 73.72 0.12, 105.81 0 M105.81 0 C118.78 0.63, 124.64 7, 123.6 17.79 M105.81 0 C119.87 0.08, 124.94 6.64, 123.6 17.79 M123.6 17.79 C124.02 29.66, 124.27 44.53, 123.6 53.37 M123.6 17.79 C124.13 30.99, 123.73 42.11, 123.6 53.37 M123.6 53.37 C124.58 64.79, 119.45 70.67, 105.81 71.16 M123.6 53.37 C123.82 67.13, 118.04 71.92, 105.81 71.16 M105.81 71.16 C76.13 70.68, 48.79 70.93, 17.79 71.16 M105.81 71.16 C73.66 69.85, 41.04 70.36, 17.79 71.16 M17.79 71.16 C3.94 73.02, -1.82 65.97, 0 53.37 M17.79 71.16 C4.99 72.35, 1.83 64.43, 0 53.37 M0 53.37 C1.8 39.97, 1.55 25.25, 0 17.79 M0 53.37 C0.52 45.43, -0.25 35.11, 0 17.79 M0 17.79 C1.79 6.01, 6.29 0.18, 17.79 0 M0 17.79 C0.91 7.31, 8.09 -0.14, 17.79 0" fill="none" stroke="#1e1e1e" stroke-width="2"></path></g><g transform="translate(49.5888671875 144.3531438257478) rotate(0 22.2119140625 12.5)"><text direction="ltr" dominant-baseline="text-before-edge" fill="#1e1e1e" font-family="Virgil, Segoe UI Emoji" font-size="20px" style="white-space: pre;" text-anchor="middle" x="22.2119140625" y="0">client</text></g><g stroke-linecap="round" transform="translate(664.8042548292352 31.787517778202528) rotate(0 98.697265625 53.470703125)"><path d="M4.03 10.13 C4.03 10.13, 4.03 10.13, 4.03 10.13 M4.03 10.13 C4.03 10.13, 4.03 10.13, 4.03 10.13 M3.51 22.93 C7.19 19.83, 11.57 15.67, 19.25 4.81 M3.51 22.93 C8.91 17.03, 13.94 10.09, 19.25 4.81 M3.64 34.97 C14.1 22.72, 26.07 8.47, 31.2 3.27 M3.64 34.97 C13.76 24.72, 21.38 13.61, 31.2 3.27 M3.12 47.76 C12.37 39.64, 18.09 31.08, 41.17 3.99 M3.12 47.76 C14.68 34.6, 27.03 19.91, 41.17 3.99 M3.25 59.8 C18.04 44.47, 29.88 28.48, 51.8 3.95 M3.25 59.8 C23.25 38.31, 42.59 16.65, 51.8 3.95 M3.39 71.84 C14.99 56.59, 29.39 41.68, 62.43 3.92 M3.39 71.84 C21.56 50.37, 40.16 27.25, 62.43 3.92 M0.89 86.9 C22.52 64.22, 42.52 38.07, 73.06 3.89 M0.89 86.9 C27.28 58.63, 52.23 27.65, 73.06 3.89 M3.65 95.93 C22.32 74.62, 41.24 53.74, 83.69 3.85 M3.65 95.93 C22.02 76.71, 38.15 56.2, 83.69 3.85 M9.69 101.17 C32.37 78.78, 50.15 54.14, 94.32 3.82 M9.69 101.17 C40.33 68.63, 68.17 34.73, 94.32 3.82 M15.73 106.42 C39.08 81.4, 59.66 56.97, 104.95 3.78 M15.73 106.42 C42.31 77.74, 68.6 46.94, 104.95 3.78 M25.7 107.14 C47.75 81.27, 70.55 57.37, 115.58 3.75 M25.7 107.14 C59.4 69.21, 93.3 28.8, 115.58 3.75 M32.4 111.64 C57.88 81.84, 85.69 50.69, 126.21 3.71 M32.4 111.64 C68.23 68.56, 105.58 26.37, 126.21 3.71 M43.03 111.6 C68.27 83.87, 89.95 56.75, 136.84 3.68 M43.03 111.6 C76.83 72.23, 111.07 31.79, 136.84 3.68 M53.66 111.57 C80.62 78.41, 107.23 46.56, 147.47 3.64 M53.66 111.57 C74.88 86.62, 96.11 60.57, 147.47 3.64 M64.29 111.53 C104.21 69.4, 140.02 26.9, 158.1 3.61 M64.29 111.53 C97.55 74.64, 129.67 35.68, 158.1 3.61 M74.92 111.5 C103.93 77.53, 132.6 46.34, 171.36 0.56 M74.92 111.5 C97.92 84.91, 119.12 59.36, 171.36 0.56 M85.55 111.46 C103 91.25, 122.68 68.19, 180.67 2.03 M85.55 111.46 C110.1 81.73, 135.18 55.37, 180.67 2.03 M96.18 111.43 C120.15 85.79, 140.6 57.83, 188.68 5.02 M96.18 111.43 C127.03 75.56, 159.01 37.85, 188.68 5.02 M106.81 111.39 C141.12 71.07, 176.23 33.73, 194.06 11.02 M106.81 111.39 C136.64 78.67, 165 44.33, 194.06 11.02 M116.78 112.12 C140.3 82.2, 168.55 54.57, 196.82 20.04 M116.78 112.12 C134.26 93.93, 151.51 73.23, 196.82 20.04 M127.41 112.08 C149.55 87.38, 172.2 61.7, 202.86 25.29 M127.41 112.08 C151.39 83.38, 175.09 56.58, 202.86 25.29 M138.04 112.05 C154.74 89.85, 175.49 68.74, 202.99 37.33 M138.04 112.05 C163.94 82.98, 189.18 55.57, 202.99 37.33 M148.67 112.01 C158.73 98.14, 171.62 86.06, 203.12 49.37 M148.67 112.01 C165.05 94.37, 178.81 77.74, 203.12 49.37 M159.3 111.98 C169.85 96.23, 183.37 85.47, 203.26 61.41 M159.3 111.98 C173.65 95.84, 186.59 79.82, 203.26 61.41 M172.55 108.92 C177.7 102.2, 185.27 94.27, 197.48 80.24 M172.55 108.92 C182.14 98.92, 191.61 87.56, 197.48 80.24" fill="none" stroke="#ffffff" stroke-width="1"></path><path d="M26.74 0 C77.23 -1.05, 128.23 1.44, 170.66 0 M26.74 0 C69.99 -0.76, 112.66 -0.54, 170.66 0 M170.66 0 C190.4 0.07, 198.56 9.53, 197.39 26.74 M170.66 0 C190.02 -0.37, 199.54 9.46, 197.39 26.74 M197.39 26.74 C198.47 39.5, 197.97 53.56, 197.39 80.21 M197.39 26.74 C197.96 47.68, 198.36 68.82, 197.39 80.21 M197.39 80.21 C197.58 99.68, 188.8 107.6, 170.66 106.94 M197.39 80.21 C198.2 97.94, 190.74 106.72, 170.66 106.94 M170.66 106.94 C138.69 106.42, 103.01 107.59, 26.74 106.94 M170.66 106.94 C140.45 107.21, 111.32 106.65, 26.74 106.94 M26.74 106.94 C8.09 107.97, 1.59 97.33, 0 80.21 M26.74 106.94 C10.79 106.48, -1.25 100.02, 0 80.21 M0 80.21 C-1.52 63.44, -1.95 48.12, 0 26.74 M0 80.21 C1.05 60.3, 0.33 40.4, 0 26.74 M0 26.74 C0.79 10.11, 10.79 -0.12, 26.74 0 M0 26.74 C-0.78 7.96, 10.55 0.64, 26.74 0" fill="none" stroke="#1e1e1e" stroke-width="2"></path></g><g transform="translate(691.0308173292352 72.75822090320253) rotate(0 72.470703125 12.5)"><text direction="ltr" dominant-baseline="text-before-edge" fill="#1e1e1e" font-family="Virgil, Segoe UI Emoji" font-size="20px" style="white-space: pre;" text-anchor="middle" x="72.470703125" y="0">Scheduler Service</text></g><g stroke-linecap="round"><g transform="translate(869.8550360792352 127.95316443555839) rotate(0 39.22324959116702 15.758255254877895)"><path d="M0.97 -0.04 C13.94 5.22, 64.28 27.09, 77.31 32.42 M0.01 -1.11 C13.39 3.75, 66.31 25.62, 79.42 30.76" fill="none" stroke="#1e1e1e" stroke-width="2"></path></g><g transform="translate(869.8550360792352 127.95316443555839) rotate(0 39.22324959116702 15.758255254877895)"><path d="M30.92 1.57 C23.18 -0.5, 17.09 2.1, 0.97 -0.04 M30.92 1.57 C21.95 1.23, 11.65 0.97, 0.97 -0.04" fill="none" stroke="#1e1e1e" stroke-width="2"></path></g><g transform="translate(869.8550360792352 127.95316443555839) rotate(0 39.22324959116702 15.758255254877895)"><path d="M22.88 20.45 C17.06 13.49, 13.02 11.25, 0.97 -0.04 M22.88 20.45 C16.47 13.81, 8.84 7.3, 0.97 -0.04" fill="none" stroke="#1e1e1e" stroke-width="2"></path></g><g transform="translate(869.8550360792352 127.95316443555839) rotate(0 39.22324959116702 15.758255254877895)"><path d="M49.44 29.73 C57.05 27.86, 66.28 31.13, 79.42 30.76 M49.44 29.73 C60.34 29.95, 69.89 30.56, 79.42 30.76" fill="none" stroke="#1e1e1e" stroke-width="2"></path></g><g transform="translate(869.8550360792352 127.95316443555839) rotate(0 39.22324959116702 15.758255254877895)"><path d="M57.12 10.7 C62.9 13.75, 70.17 21.89, 79.42 30.76 M57.12 10.7 C65.57 17.26, 72.58 24.18, 79.42 30.76" fill="none" stroke="#1e1e1e" stroke-width="2"></path></g></g><mask></mask><g stroke-linecap="round" transform="translate(962.4482544672952 73.69648605312614) rotate(0 89.47739173275392 87.55859375)"><path d="M19.94 33.23 C19.94 33.23, 19.94 33.23, 19.94 33.23 M19.94 33.23 C19.94 33.23, 19.94 33.23, 19.94 33.23 M4.33 63.39 C20.66 46.72, 36.52 27.32, 50.25 10.56 M4.33 63.39 C23.32 42.93, 40.96 22.51, 50.25 10.56 M3.15 76.94 C23.17 55.09, 41.4 34.02, 65.47 5.24 M3.15 76.94 C23.03 52.79, 44.37 30.78, 65.47 5.24 M1.97 90.49 C31.15 57.56, 60.08 24.55, 80.69 -0.08 M1.97 90.49 C27.22 60.9, 54.79 31.69, 80.69 -0.08 M2.1 102.53 C29.2 71.53, 54.77 44.92, 90.01 1.4 M2.1 102.53 C32.32 64.07, 64.99 27.32, 90.01 1.4 M4.86 111.55 C28.77 85.16, 53.76 56.55, 99.33 2.87 M4.86 111.55 C40.43 73.14, 74.25 32.82, 99.33 2.87 M7.62 120.57 C46.7 75.88, 82.1 34.24, 109.3 3.59 M7.62 120.57 C48.35 74.26, 89.82 28, 109.3 3.59 M11.03 128.84 C37.15 94.71, 68.19 64.39, 117.97 5.82 M11.03 128.84 C46.11 88.04, 82.2 48.14, 117.97 5.82 M15.75 135.6 C56.15 89.79, 93.11 47.84, 125.32 9.56 M15.75 135.6 C57.98 86.4, 99.55 39.11, 125.32 9.56 M21.14 141.6 C52.27 104.16, 81.52 68.82, 132.67 13.3 M21.14 141.6 C65.43 91.01, 108.87 40.35, 132.67 13.3 M25.86 148.36 C55.64 115.37, 82.51 82.32, 140.02 17.04 M25.86 148.36 C67.88 99.39, 111.43 50.43, 140.02 17.04 M31.24 154.36 C69.66 113.59, 104.19 68.89, 146.71 21.53 M31.24 154.36 C54.29 128.14, 77.88 101.59, 146.71 21.53 M37.94 158.85 C69.13 125.5, 97.99 90.47, 152.09 27.53 M37.94 158.85 C77.63 115.18, 116.71 69.39, 152.09 27.53 M45.29 162.59 C72.5 132.68, 103.09 100.54, 157.47 33.54 M45.29 162.59 C83.98 118.83, 122.16 76.68, 157.47 33.54 M53.29 165.58 C94.14 117.79, 133.44 72.71, 162.85 39.54 M53.29 165.58 C92.79 120.62, 133.15 75.85, 162.85 39.54 M60.64 169.32 C90.83 133.18, 124.41 98.05, 168.24 45.54 M60.64 169.32 C89.97 135.35, 120.17 100.08, 168.24 45.54 M68.65 172.3 C105.32 127.92, 145.21 85.59, 170.99 54.57 M68.65 172.3 C88.59 147.11, 109.07 124.04, 170.99 54.57 M78.62 173.02 C108.07 143.38, 134.19 109.22, 173.75 63.59 M78.62 173.02 C118.12 129.99, 153.83 86.62, 173.75 63.59 M87.94 174.5 C107.9 149.71, 127.59 128.91, 176.51 72.61 M87.94 174.5 C120.28 138.28, 151.94 100.6, 176.51 72.61 M97.91 175.22 C117.03 150.24, 138.05 126.41, 178.61 82.39 M97.91 175.22 C128.43 140.03, 159.29 104.52, 178.61 82.39 M111.82 171.41 C133.01 146.59, 154.04 121.84, 177.43 95.94 M111.82 171.41 C126.78 154.12, 142.32 137.09, 177.43 95.94 M126.39 166.85 C139.46 152.39, 148.31 140.78, 176.91 108.73 M126.39 166.85 C136.98 153.19, 149.53 138.81, 176.91 108.73 M152.11 149.45 C154.21 145.37, 156.85 144.82, 163.26 136.62 M152.11 149.45 C155.15 145.41, 159.37 141.41, 163.26 136.62" fill="none" stroke="#ffffff" stroke-width="1"></path><path d="M114.51 4.3 C125.27 5.92, 136.17 12.63, 145.08 19.51 C153.99 26.4, 162.44 35.82, 167.96 45.63 C173.48 55.45, 176.9 67.53, 178.2 78.41 C179.5 89.3, 178.81 100.3, 175.77 110.94 C172.74 121.58, 167.03 133.41, 159.97 142.25 C152.92 151.1, 143.45 158.54, 133.45 164.01 C123.44 169.48, 111.22 173.76, 99.97 175.08 C88.71 176.4, 76.97 174.98, 65.94 171.91 C54.9 168.85, 42.89 163.49, 33.74 156.68 C24.6 149.86, 16.65 140.87, 11.08 131.04 C5.51 121.22, 1.48 108.95, 0.35 97.73 C-0.79 86.51, 1.02 74.44, 4.25 63.74 C7.47 53.05, 12.73 42.15, 19.68 33.53 C26.62 24.92, 36.01 17.65, 45.91 12.04 C55.81 6.44, 66.53 1.11, 79.08 -0.1 C91.64 -1.3, 113.35 3.19, 121.23 4.79 C129.11 6.39, 127.1 7.93, 126.36 9.52 M46.27 11.49 C54.75 5.56, 68.35 2.06, 79.87 0.93 C91.38 -0.21, 104.01 1.57, 115.34 4.69 C126.67 7.82, 138.75 12.72, 147.84 19.67 C156.92 26.63, 164.87 36.25, 169.86 46.43 C174.85 56.62, 176.89 69.43, 177.76 80.78 C178.63 92.14, 178.44 104.26, 175.08 114.57 C171.72 124.89, 164.94 134.44, 157.59 142.66 C150.25 150.87, 140.87 158.32, 131.01 163.86 C121.15 169.39, 109.85 174.85, 98.44 175.84 C87.04 176.84, 73.37 173.3, 62.57 169.83 C51.77 166.35, 42.32 161.86, 33.65 154.98 C24.99 148.09, 16.03 138.26, 10.59 128.51 C5.14 118.77, 1.83 107.69, 0.97 96.53 C0.11 85.37, 2.22 72.48, 5.42 61.56 C8.61 50.64, 12.9 39.51, 20.14 31 C27.37 22.49, 43.98 13.71, 48.83 10.51 C53.69 7.32, 48.93 10.42, 49.27 11.81" fill="none" stroke="#1e1e1e" stroke-width="2"></path></g><g transform="translate(997.1653413679337 136.34180441134308) rotate(0 54.990234375 25)"><text direction="ltr" dominant-baseline="text-before-edge" fill="#1e1e1e" font-family="Virgil, Segoe UI Emoji" font-size="20px" style="white-space: pre;" text-anchor="middle" x="54.990234375" y="0">Job Store</text><text direction="ltr" dominant-baseline="text-before-edge" fill="#1e1e1e" font-family="Virgil, Segoe UI Emoji" font-size="20px" style="white-space: pre;" text-anchor="middle" x="54.990234375" y="25">(DynamoDB)</text></g><g transform="translate(1173.0131874291342 78.34371494819425) rotate(0 49.43994903564453 75)"><text direction="ltr" dominant-baseline="text-before-edge" fill="#1e1e1e" font-family="Virgil, Segoe UI Emoji" font-size="20px" style="white-space: pre;" text-anchor="start" x="0" y="0">Jobs</text><text direction="ltr" dominant-baseline="text-before-edge" fill="#1e1e1e" font-family="Virgil, Segoe UI Emoji" font-size="20px" style="white-space: pre;" text-anchor="start" x="0" y="25">- id</text><text direction="ltr" dominant-baseline="text-before-edge" fill="#1e1e1e" font-family="Virgil, Segoe UI Emoji" font-size="20px" style="white-space: pre;" text-anchor="start" x="0" y="50">- userId</text><text direction="ltr" dominant-baseline="text-before-edge" fill="#1e1e1e" font-family="Virgil, Segoe UI Emoji" font-size="20px" style="white-space: pre;" text-anchor="start" x="0" y="75">- taskId</text><text direction="ltr" dominant-baseline="text-before-edge" fill="#1e1e1e" font-family="Virgil, Segoe UI Emoji" font-size="20px" style="white-space: pre;" text-anchor="start" x="0" y="100">- params</text><text direction="ltr" dominant-baseline="text-before-edge" fill="#1e1e1e" font-family="Virgil, Segoe UI Emoji" font-size="20px" style="white-space: pre;" text-anchor="start" x="0" y="125">- schedule</text></g><g transform="translate(1307.4591880686908 78.58208225193812) rotate(0 52.00994873046875 75)"><text direction="ltr" dominant-baseline="text-before-edge" fill="#1e1e1e" font-family="Virgil, Segoe UI Emoji" font-size="20px" style="white-space: pre;" text-anchor="start" x="0" y="0">Executions</text><text direction="ltr" dominant-baseline="text-before-edge" fill="#1e1e1e" font-family="Virgil, Segoe UI Emoji" font-size="20px" style="white-space: pre;" text-anchor="start" x="0" y="25">- time</text><text direction="ltr" dominant-baseline="text-before-edge" fill="#1e1e1e" font-family="Virgil, Segoe UI Emoji" font-size="20px" style="white-space: pre;" text-anchor="start" x="0" y="50">- jobId</text><text direction="ltr" dominant-baseline="text-before-edge" fill="#1e1e1e" font-family="Virgil, Segoe UI Emoji" font-size="20px" style="white-space: pre;" text-anchor="start" x="0" y="75">- userId</text><text direction="ltr" dominant-baseline="text-before-edge" fill="#1e1e1e" font-family="Virgil, Segoe UI Emoji" font-size="20px" style="white-space: pre;" text-anchor="start" x="0" y="100">- status</text><text direction="ltr" dominant-baseline="text-before-edge" fill="#1e1e1e" font-family="Virgil, Segoe UI Emoji" font-size="20px" style="white-space: pre;" text-anchor="start" x="0" y="125">- attempt</text></g><g stroke-linecap="round"><g transform="translate(1054.1269642850325 260.3258759655946) rotate(0 0.9476839926498997 58.65029357750063)"><path d="M0.7 0.37 C0.96 19.88, 2.31 97.57, 2.7 117.11 M-0.39 -0.48 C-0.32 19.21, 1.63 98.62, 2.17 118.54" fill="none" stroke="#1e1e1e" stroke-width="2"></path></g><g transform="translate(1054.1269642850325 260.3258759655946) rotate(0 0.9476839926498997 58.65029357750063)"><path d="M11.43 28.38 C7.79 18.7, 2.6 8.14, 0.7 0.37 M11.43 28.38 C8.44 19.79, 4.6 10.47, 0.7 0.37" fill="none" stroke="#1e1e1e" stroke-width="2"></path></g><g transform="translate(1054.1269642850325 260.3258759655946) rotate(0 0.9476839926498997 58.65029357750063)"><path d="M-9.09 28.73 C-4.61 18.78, -1.67 8.09, 0.7 0.37 M-9.09 28.73 C-5.43 19.95, -2.63 10.51, 0.7 0.37" fill="none" stroke="#1e1e1e" stroke-width="2"></path></g><g transform="translate(1054.1269642850325 260.3258759655946) rotate(0 0.9476839926498997 58.65029357750063)"><path d="M-8.8 90.62 C-3.83 102.95, -0.43 114.52, 2.17 118.54 M-8.8 90.62 C-5.1 100.06, -1.91 108.86, 2.17 118.54" fill="none" stroke="#1e1e1e" stroke-width="2"></path></g><g transform="translate(1054.1269642850325 260.3258759655946) rotate(0 0.9476839926498997 58.65029357750063)"><path d="M11.72 90.1 C8.56 102.75, 3.85 114.53, 2.17 118.54 M11.72 90.1 C8.77 99.79, 5.32 108.75, 2.17 118.54" fill="none" stroke="#1e1e1e" stroke-width="2"></path></g></g><mask></mask><g stroke-linecap="round" transform="translate(930.00529365968 388.28960156551693) rotate(0 125.576171875 63.78515625000003)"><path d="M4.79 12.11 C4.79 12.11, 4.79 12.11, 4.79 12.11 M4.79 12.11 C4.79 12.11, 4.79 12.11, 4.79 12.11 M2.95 26.42 C12.71 14.75, 21.09 6.65, 25.26 0.76 M2.95 26.42 C7.89 19.39, 13.51 11.97, 25.26 0.76 M3.08 38.46 C11.33 28.74, 22.95 15.84, 34.58 2.23 M3.08 38.46 C14.35 25.28, 23.74 14.06, 34.58 2.23 M2.56 51.25 C19.69 30.72, 37.24 10.96, 45.21 2.2 M2.56 51.25 C19.45 33.1, 33.8 12.82, 45.21 2.2 M2.69 63.29 C18.01 45.36, 32.63 30.27, 55.84 2.16 M2.69 63.29 C22.64 38.68, 43.82 16.78, 55.84 2.16 M2.83 75.33 C15.1 59.58, 30.21 42.83, 66.47 2.13 M2.83 75.33 C17.95 56.01, 33.92 38.03, 66.47 2.13 M2.96 87.37 C27.74 59.87, 47.56 32.62, 77.1 2.09 M2.96 87.37 C25.63 59.58, 48.27 33.08, 77.1 2.09 M3.09 99.42 C24.39 72.36, 49.66 44.37, 87.73 2.06 M3.09 99.42 C23.29 74.46, 45.15 48.55, 87.73 2.06 M5.85 108.44 C25.11 85.83, 45.63 60.57, 98.36 2.02 M5.85 108.44 C25.27 85.66, 45.08 63.04, 98.36 2.02 M7.95 118.21 C30.2 94.53, 52.79 69.23, 108.99 1.99 M7.95 118.21 C36.88 83.48, 65.07 50.43, 108.99 1.99 M13.33 124.22 C52.77 79.35, 91.72 38.1, 119.62 1.95 M13.33 124.22 C42.03 92.14, 69.63 60.6, 119.62 1.95 M22 126.45 C47.41 95.36, 76.18 65.24, 130.25 1.92 M22 126.45 C57.94 84.12, 94.33 44.01, 130.25 1.92 M28.69 130.94 C60.31 92.78, 93.4 57.08, 140.22 2.64 M28.69 130.94 C70.04 81.5, 112.34 33.6, 140.22 2.64 M38.01 132.42 C81.39 82.56, 125.68 29.85, 150.85 2.61 M38.01 132.42 C71.07 92.19, 104.81 53.73, 150.85 2.61 M48.64 132.38 C93.37 82.52, 136.96 30.35, 161.48 2.57 M48.64 132.38 C85.66 88.34, 123.77 44.17, 161.48 2.57 M59.27 132.35 C86.98 100.1, 114.33 66.66, 172.11 2.54 M59.27 132.35 C104.25 83.38, 147.44 31.52, 172.11 2.54 M69.9 132.31 C91.64 102.97, 118.37 78.45, 182.74 2.5 M69.9 132.31 C101.56 95.12, 135.07 58.86, 182.74 2.5 M79.87 133.03 C104.96 106.68, 128.83 76.44, 193.37 2.47 M79.87 133.03 C115.84 89.78, 152.74 48.39, 193.37 2.47 M90.5 133 C125.55 96.45, 155.86 57.52, 204 2.43 M90.5 133 C113.65 105.34, 136.44 79.04, 204 2.43 M101.13 132.96 C135.14 94.58, 167.58 56.01, 214.63 2.4 M101.13 132.96 C136.17 93.37, 172.18 52.02, 214.63 2.4 M111.76 132.93 C155.99 83.69, 197.75 36.37, 223.95 3.87 M111.76 132.93 C138.36 103.93, 163.37 73.06, 223.95 3.87 M122.39 132.89 C154.14 98.22, 182.41 63.23, 234.58 3.84 M122.39 132.89 C152.91 96.77, 185.7 58.57, 234.58 3.84 M133.02 132.86 C176.85 85.82, 219.8 34.4, 241.93 7.58 M133.02 132.86 C154.43 107.11, 177.13 82, 241.93 7.58 M143.65 132.83 C178.73 92.98, 212.05 55.72, 247.31 13.58 M143.65 132.83 C172.83 98.71, 200.84 66.14, 247.31 13.58 M154.28 132.79 C179.58 100.67, 209.96 73.27, 250.72 21.85 M154.28 132.79 C177.5 105.83, 202.18 78.55, 250.72 21.85 M164.91 132.76 C184.44 107.9, 205.16 83.77, 255.45 28.61 M164.91 132.76 C186.11 107.79, 207.5 84.94, 255.45 28.61 M175.54 132.72 C204.24 100.76, 231.77 67.91, 255.58 40.65 M175.54 132.72 C191.68 112.85, 207.72 95.08, 255.58 40.65 M186.17 132.69 C210.72 104.51, 237.31 74.87, 255.72 52.69 M186.17 132.69 C211.72 102.51, 238.48 73.24, 255.72 52.69 M196.8 132.65 C216.03 109.25, 236.42 86.64, 255.85 64.73 M196.8 132.65 C210.85 116.27, 224.78 101.02, 255.85 64.73 M207.43 132.62 C220.28 117.62, 233.83 101.11, 255.98 76.77 M207.43 132.62 C220.56 116.78, 235.26 101.72, 255.98 76.77 M221.34 128.81 C233.62 114.09, 246.22 99.2, 256.12 88.81 M221.34 128.81 C232.64 114.46, 246.87 99.65, 256.12 88.81 M233.94 126.51 C238.8 118.47, 248.1 110.03, 252.97 104.63 M233.94 126.51 C241.76 119.05, 248.77 109.75, 252.97 104.63" fill="none" stroke="#ffffff" stroke-width="1"></path><path d="M31.89 0 C98.7 0.61, 166.64 -2.44, 219.26 0 M31.89 0 C94.87 -0.63, 158.49 0.13, 219.26 0 M219.26 0 C240.81 -0.33, 252.13 10.19, 251.15 31.89 M219.26 0 C242.57 -0.57, 251.37 12.53, 251.15 31.89 M251.15 31.89 C251.28 54.02, 251.17 70.86, 251.15 95.68 M251.15 31.89 C250.94 56.86, 251.52 81.64, 251.15 95.68 M251.15 95.68 C253.1 116.02, 238.53 129.43, 219.26 127.57 M251.15 95.68 C249.06 117.79, 239.58 128.75, 219.26 127.57 M219.26 127.57 C147.76 128.02, 78.79 129.28, 31.89 127.57 M219.26 127.57 C149.09 125.74, 79.64 127.25, 31.89 127.57 M31.89 127.57 C10.05 125.74, 1.79 117.02, 0 95.68 M31.89 127.57 C11.04 127.78, 0.91 118.32, 0 95.68 M0 95.68 C-0.79 71.97, 0.59 46.3, 0 31.89 M0 95.68 C0.02 75.06, -0.06 56.69, 0 31.89 M0 31.89 C1.76 10.4, 9.05 -0.61, 31.89 0 M0 31.89 C-1.52 8.44, 9.37 -1.96, 31.89 0" fill="none" stroke="#1e1e1e" stroke-width="2"></path></g><g transform="translate(937.25627022218 414.57475781551693) rotate(0 118.3251953125 37.5)"><text direction="ltr" dominant-baseline="text-before-edge" fill="#1e1e1e" font-family="Virgil, Segoe UI Emoji" font-size="20px" style="white-space: pre;" text-anchor="middle" x="118.3251953125" y="0">Watcher</text><text direction="ltr" dominant-baseline="text-before-edge" fill="#1e1e1e" font-family="Virgil, Segoe UI Emoji" font-size="20px" style="white-space: pre;" text-anchor="middle" x="118.3251953125" y="25">- polls for Jobs that should be</text><text direction="ltr" dominant-baseline="text-before-edge" fill="#1e1e1e" font-family="Virgil, Segoe UI Emoji" font-size="20px" style="white-space: pre;" text-anchor="middle" x="118.3251953125" y="50">executed soon</text></g><g stroke-linecap="round"><g transform="translate(1201.814311674821 448.11053981813893) rotate(0 36.28125 -0.10546875)"><path d="M-0.71 0.44 C11.26 0.44, 60.74 0.39, 72.94 0.32 M1.11 -0.38 C12.86 -0.76, 60.43 -1.83, 72.19 -1.53" fill="none" stroke="#1e1e1e" stroke-width="2"></path></g><g transform="translate(1201.814311674821 448.11053981813893) rotate(0 36.28125 -0.10546875)"><path d="M44.02 8.8 C55.8 5.53, 67.03 0.74, 72.19 -1.53 M44.02 8.8 C53.1 5.07, 62.43 1.72, 72.19 -1.53" fill="none" stroke="#1e1e1e" stroke-width="2"></path></g><g transform="translate(1201.814311674821 448.11053981813893) rotate(0 36.28125 -0.10546875)"><path d="M43.98 -11.72 C55.82 -6.92, 67.07 -3.64, 72.19 -1.53 M43.98 -11.72 C53.18 -8.91, 62.53 -5.71, 72.19 -1.53" fill="none" stroke="#1e1e1e" stroke-width="2"></path></g></g><mask></mask><g stroke-linecap="round" transform="translate(1284.218082720868 405.73553981813893) rotate(0 128.51953125 42.5)"><path d="M3.19 8.07 C3.19 8.07, 3.19 8.07, 3.19 8.07 M3.19 8.07 C3.19 8.07, 3.19 8.07, 3.19 8.07 M3.98 19.36 C7.51 14.71, 9.85 10.81, 13.82 8.04 M3.98 19.36 C6.43 16.42, 8.71 14.72, 13.82 8.04 M4.11 31.4 C12.12 24.39, 16.9 13.61, 27.07 4.98 M4.11 31.4 C10.47 23.97, 16.52 16.73, 27.07 4.98 M4.24 43.44 C12 37.4, 18.97 25.93, 37.7 4.95 M4.24 43.44 C10.84 35.82, 17.58 27.82, 37.7 4.95 M3.72 56.23 C18.41 39.03, 29.26 24.76, 48.33 4.91 M3.72 56.23 C21.72 36.33, 37.85 17.88, 48.33 4.91 M1.89 70.54 C16.9 54.31, 26.89 39.77, 58.96 4.88 M1.89 70.54 C18.42 51.74, 35.2 30.51, 58.96 4.88 M5.3 78.81 C21.1 60.94, 34.2 42.1, 69.59 4.85 M5.3 78.81 C22.69 58.53, 38.88 40.38, 69.59 4.85 M11.99 83.3 C30.54 62.28, 46.77 43.61, 80.22 4.81 M11.99 83.3 C30.56 61.87, 49.14 41.16, 80.22 4.81 M18.03 88.55 C36.65 68.99, 51.88 51.14, 90.85 4.78 M18.03 88.55 C42.75 60.64, 68.12 32.91, 90.85 4.78 M27.35 90.02 C52.86 63.1, 73.56 34.41, 101.48 4.74 M27.35 90.02 C43.48 72, 59.16 53.65, 101.48 4.74 M37.98 89.99 C63.47 59.27, 91.09 26.98, 112.11 4.71 M37.98 89.99 C61.43 62.18, 85 36.14, 112.11 4.71 M48.61 89.96 C72.56 62.4, 94.06 36.41, 122.74 4.67 M48.61 89.96 C75.73 57.5, 103.49 25.77, 122.74 4.67 M59.24 89.92 C86.92 58.62, 111.62 28.15, 132.72 5.39 M59.24 89.92 C74.72 71.64, 90.35 53.9, 132.72 5.39 M69.87 89.89 C90.85 66.6, 107.72 44.05, 143.35 5.36 M69.87 89.89 C86.34 69.92, 104.54 49.37, 143.35 5.36 M80.5 89.85 C104.66 59.55, 130.41 29.73, 153.98 5.32 M80.5 89.85 C106.81 60.97, 131.48 31.85, 153.98 5.32 M91.13 89.82 C105 71.74, 124.66 51.02, 164.61 5.29 M91.13 89.82 C109.05 68.82, 125.48 50.33, 164.61 5.29 M101.1 90.54 C129.22 59.23, 153.88 33.02, 175.24 5.26 M101.1 90.54 C125.98 62.3, 151.98 33.46, 175.24 5.26 M111.73 90.5 C128.99 71.2, 142.83 53.35, 185.87 5.22 M111.73 90.5 C133.59 66.19, 156.54 39.43, 185.87 5.22 M122.36 90.47 C146.37 66.07, 166.06 40.57, 196.5 5.19 M122.36 90.47 C146.55 63.4, 170.21 35.57, 196.5 5.19 M132.99 90.43 C151.99 65.2, 174.69 42.66, 207.13 5.15 M132.99 90.43 C151.1 69.46, 170.14 47.2, 207.13 5.15 M143.62 90.4 C160.13 71.33, 180.23 48.46, 217.76 5.12 M143.62 90.4 C168.41 62.26, 193.9 32.35, 217.76 5.12 M154.25 90.36 C170.9 68.8, 189.59 50.55, 228.39 5.08 M154.25 90.36 C172.28 68.38, 193.39 45.86, 228.39 5.08 M164.88 90.33 C183.46 66.87, 202.28 45.83, 240.33 3.54 M164.88 90.33 C189.94 62.1, 214.55 32.96, 240.33 3.54 M175.51 90.3 C197.57 67.27, 216.85 41.41, 249.65 5.01 M175.51 90.3 C201.34 58.88, 227.83 30.02, 249.65 5.01 M186.14 90.26 C213.42 56.3, 242.85 25.39, 256.34 9.51 M186.14 90.26 C211.62 60.53, 236.47 31.52, 256.34 9.51 M196.77 90.23 C213.61 72.79, 226.5 56.55, 259.1 18.53 M196.77 90.23 C213.91 69.2, 233.18 47.56, 259.1 18.53 M207.4 90.19 C226.13 69.17, 242.11 47.74, 259.23 30.57 M207.4 90.19 C226.24 68.06, 245.45 46.91, 259.23 30.57 M218.03 90.16 C230.75 74.13, 244.59 59.47, 259.37 42.61 M218.03 90.16 C231.1 73.83, 245.11 58.07, 259.37 42.61 M228.66 90.12 C239.2 78.83, 247.29 68.26, 259.5 54.65 M228.66 90.12 C236.38 81.83, 242.97 73.88, 259.5 54.65 M240.61 88.58 C246.02 79.99, 252.34 75.08, 260.29 65.94 M240.61 88.58 C245.07 83.27, 249.48 78.12, 260.29 65.94" fill="none" stroke="#ffffff" stroke-width="1"></path><path d="M21.25 0 C73.65 -0.68, 124.84 0.36, 235.79 0 M21.25 0 C106.6 0.12, 191.88 0.09, 235.79 0 M235.79 0 C250.14 1.65, 257.36 7.74, 257.04 21.25 M235.79 0 C250.76 -0.09, 259.3 6.86, 257.04 21.25 M257.04 21.25 C258.92 31.4, 256.68 42.43, 257.04 63.75 M257.04 21.25 C256.46 30.81, 256.55 38.87, 257.04 63.75 M257.04 63.75 C256.22 78.94, 251.54 84.3, 235.79 85 M257.04 63.75 C258.92 77.45, 248.71 86.99, 235.79 85 M235.79 85 C168.52 83.88, 101.87 84.94, 21.25 85 M235.79 85 C156.53 83.32, 75.87 83.36, 21.25 85 M21.25 85 C7.87 86.2, 1.88 77.79, 0 63.75 M21.25 85 C6.31 84.05, 1.64 78.55, 0 63.75 M0 63.75 C1.32 48.22, -1.62 33.4, 0 21.25 M0 63.75 C-1.16 47.85, -1.04 31.62, 0 21.25 M0 21.25 C-1.09 5.38, 8.96 -0.87, 21.25 0 M0 21.25 C0.54 7.91, 8.77 0.53, 21.25 0" fill="none" stroke="#1e1e1e" stroke-width="2"></path></g><g transform="translate(1321.643863970868 435.73553981813893) rotate(0 91.09375 12.5)"><text direction="ltr" dominant-baseline="text-before-edge" fill="#1e1e1e" font-family="Virgil, Segoe UI Emoji" font-size="20px" style="white-space: pre;" text-anchor="middle" x="91.09375" y="0">Message Queue (SQS)</text></g><g stroke-linecap="round" transform="translate(1700.329936674821 373.67694606813893) rotate(0 72.099609375 68.462890625)"><path d="M7.86 8.16 C7.86 8.16, 7.86 8.16, 7.86 8.16 M7.86 8.16 C7.86 8.16, 7.86 8.16, 7.86 8.16 M2.75 26.24 C5.2 21.77, 12.19 17.71, 21.12 5.11 M2.75 26.24 C6.86 21.87, 10.75 17.18, 21.12 5.11 M2.88 38.28 C14.9 26.58, 28.86 10.98, 34.37 2.05 M2.88 38.28 C13.06 26.25, 25.48 13.55, 34.37 2.05 M2.36 51.07 C17.06 31.48, 34.23 11.58, 45 2.02 M2.36 51.07 C16.24 36.37, 29.01 20.75, 45 2.02 M2.49 63.11 C16.17 47.9, 27.04 37.72, 55.63 1.98 M2.49 63.11 C15.79 46.14, 30.62 31.46, 55.63 1.98 M2.62 75.16 C16.81 59.85, 31.59 42.89, 66.26 1.95 M2.62 75.16 C26.94 47.52, 53.09 19.38, 66.26 1.95 M2.76 87.2 C25.34 60.88, 50.65 36.24, 76.23 2.67 M2.76 87.2 C20.1 65.75, 39.39 46.34, 76.23 2.67 M2.89 99.24 C20.66 76.1, 41.43 55.34, 86.86 2.63 M2.89 99.24 C25.39 71.34, 49.03 46.12, 86.86 2.63 M1.05 113.54 C22.35 88, 42.89 64.39, 97.49 2.6 M1.05 113.54 C32.74 75.97, 64.61 40.17, 97.49 2.6 M4.47 121.81 C38.64 83.25, 73.77 42.6, 108.12 2.57 M4.47 121.81 C41.1 79.82, 75.45 38.54, 108.12 2.57 M8.54 129.32 C44.28 89.09, 80.1 49.57, 120.07 1.02 M8.54 129.32 C39.62 93.73, 69.68 58.66, 120.07 1.02 M15.23 133.82 C45.91 100.9, 72.84 67.04, 128.07 4.01 M15.23 133.82 C41.85 106.18, 67.06 76.67, 128.07 4.01 M21.92 138.31 C59.79 94.91, 101.81 50.35, 135.42 7.75 M21.92 138.31 C58.31 94.41, 96.62 51.69, 135.42 7.75 M29.93 141.29 C61.62 106.63, 94.47 67.91, 141.46 12.99 M29.93 141.29 C61.84 105.1, 94.81 67.08, 141.46 12.99 M40.56 141.26 C68 110.4, 92.7 82, 145.53 20.51 M40.56 141.26 C67.75 110.35, 96.04 76.2, 145.53 20.51 M51.19 141.23 C80.2 104.39, 112.89 70.36, 145.01 33.3 M51.19 141.23 C72.16 118.26, 90.29 97.09, 145.01 33.3 M61.82 141.19 C79.4 119.02, 96.05 99.56, 145.14 45.34 M61.82 141.19 C89.84 107.6, 120.03 74.44, 145.14 45.34 M72.45 141.16 C93.08 117.64, 111.34 93.92, 145.27 57.38 M72.45 141.16 C97.06 111.97, 122.44 84.9, 145.27 57.38 M82.42 141.88 C103.31 118.35, 123.63 95.54, 144.75 70.18 M82.42 141.88 C104.39 116.34, 126.4 89.92, 144.75 70.18 M93.05 141.84 C103.13 130.77, 113.55 115.39, 144.88 82.22 M93.05 141.84 C112.83 117.93, 133.68 95.09, 144.88 82.22 M103.68 141.81 C118.66 124.85, 131.77 107.31, 145.02 94.26 M103.68 141.81 C118.37 124.3, 134.93 106.82, 145.02 94.26 M115.63 140.26 C120.99 134.93, 126.51 124.11, 145.15 106.3 M115.63 140.26 C123.98 128.82, 133.69 118.85, 145.15 106.3 M128.88 137.21 C132.76 134.19, 134.71 130.06, 143.97 119.85 M128.88 137.21 C134.43 130.44, 140.56 124.73, 143.97 119.85" fill="none" stroke="#ffffff" stroke-width="1"></path><path d="M32 0 C57.58 -0.15, 78.99 0.55, 112.2 0 M32 0 C54.39 1.03, 76.75 0.53, 112.2 0 M112.2 0 C134.23 -0.08, 146.17 10.47, 144.2 32 M112.2 0 C131.98 2.24, 142.94 12.36, 144.2 32 M144.2 32 C141.98 56.83, 142.99 75.76, 144.2 104.93 M144.2 32 C143.13 61.17, 144.33 88.97, 144.2 104.93 M144.2 104.93 C145.83 125.86, 132.45 138.65, 112.2 136.93 M144.2 104.93 C144.41 127.96, 132.43 135.63, 112.2 136.93 M112.2 136.93 C90.59 136.73, 64.22 139.1, 32 136.93 M112.2 136.93 C88.21 137.6, 64.38 136.94, 32 136.93 M32 136.93 C9.99 136.1, 1.43 126.81, 0 104.93 M32 136.93 C11.7 137.18, -1.66 127.82, 0 104.93 M0 104.93 C1.91 88, 0.34 65.98, 0 32 M0 104.93 C-0.06 84.43, 1.42 65.2, 0 32 M0 32 C0.47 11.39, 12.13 0.46, 32 0 M0 32 C1.48 12.04, 12.63 -0.51, 32 0" fill="none" stroke="#1e1e1e" stroke-width="2"></path></g><g transform="translate(1713.567241362321 417.13983669313893) rotate(0 58.8623046875 25)"><text direction="ltr" dominant-baseline="text-before-edge" fill="#1e1e1e" font-family="Virgil, Segoe UI Emoji" font-size="20px" style="white-space: pre;" text-anchor="middle" x="58.8623046875" y="0">Worker</text><text direction="ltr" dominant-baseline="text-before-edge" fill="#1e1e1e" font-family="Virgil, Segoe UI Emoji" font-size="20px" style="white-space: pre;" text-anchor="middle" x="58.8623046875" y="25">- execute tasks</text></g><g stroke-linecap="round"><g transform="translate(1689.904155424821 447.16522731813893) rotate(0 -70.70827072697625 -0.29084560296348627)"><path d="M0.59 -0.26 C-22.83 -0.38, -116.7 -0.99, -140.35 -0.88 M-0.56 -1.45 C-24.06 -1.37, -117.16 0.49, -140.73 0.5" fill="none" stroke="#1e1e1e" stroke-width="2"></path></g><g transform="translate(1689.904155424821 447.16522731813893) rotate(0 -70.70827072697625 -0.29084560296348627)"><path d="M-112.66 -10.08 C-121.94 -4.83, -130.83 -3.1, -140.73 0.5 M-112.66 -10.08 C-123.04 -5.98, -133.14 -1.99, -140.73 0.5" fill="none" stroke="#1e1e1e" stroke-width="2"></path></g><g transform="translate(1689.904155424821 447.16522731813893) rotate(0 -70.70827072697625 -0.29084560296348627)"><path d="M-112.43 10.44 C-121.75 9.24, -130.71 4.52, -140.73 0.5 M-112.43 10.44 C-122.93 6.69, -133.12 2.83, -140.73 0.5" fill="none" stroke="#1e1e1e" stroke-width="2"></path></g></g><mask></mask><g stroke-linecap="round"><g transform="translate(1765.688475013048 358.69709439618964) rotate(0 -172.0858683876338 -109.42230805932036)"><path d="M1.07 -0.3 C-17.04 -29.18, -50.53 -137.2, -108.04 -173.56 C-165.55 -209.92, -304.69 -210.89, -343.98 -218.45 M0.17 -1.5 C-18.13 -30.68, -51.46 -138.65, -108.93 -175.16 C-166.4 -211.68, -305.58 -213.47, -344.64 -220.58" fill="none" stroke="#1e1e1e" stroke-width="2"></path></g><g transform="translate(1765.688475013048 358.69709439618964) rotate(0 -172.0858683876338 -109.42230805932036)"><path d="M-315.53 -227.83 C-326.21 -224.85, -334.22 -222.19, -344.64 -220.58 M-315.53 -227.83 C-324.22 -225.52, -335.58 -222.04, -344.64 -220.58" fill="none" stroke="#1e1e1e" stroke-width="2"></path></g><g transform="translate(1765.688475013048 358.69709439618964) rotate(0 -172.0858683876338 -109.42230805932036)"><path d="M-317.69 -207.42 C-327.56 -211.59, -334.82 -216.05, -344.64 -220.58 M-317.69 -207.42 C-325.73 -211.91, -336.37 -215.22, -344.64 -220.58" fill="none" stroke="#1e1e1e" stroke-width="2"></path></g></g><mask></mask><g transform="translate(1696.4752147658087 165.9896205299665) rotate(0 73.59992980957031 12.5)"><text direction="ltr" dominant-baseline="text-before-edge" fill="#1e1e1e" font-family="Virgil, Segoe UI Emoji" font-size="20px" style="white-space: pre;" text-anchor="start" x="0" y="0">update status</text></g><g transform="translate(1243.8667020878588 512.3636111822125) rotate(0 175.6998291015625 12.5)"><text direction="ltr" dominant-baseline="text-before-edge" fill="#1e1e1e" font-family="Virgil, Segoe UI Emoji" font-size="20px" style="white-space: pre;" text-anchor="start" x="0" y="0">- delivery delay until execution time</text></g><g stroke-linecap="round" transform="translate(661.6701152036227 178.4965429155145) rotate(0 98.697265625 53.470703125)"><path d="M4.03 10.13 C4.03 10.13, 4.03 10.13, 4.03 10.13 M4.03 10.13 C4.03 10.13, 4.03 10.13, 4.03 10.13 M0.88 25.94 C5.43 17.49, 13.78 12.45, 22.53 1.04 M0.88 25.94 C8.78 16.88, 17.06 6.93, 22.53 1.04 M1.02 37.99 C13.89 22.55, 22.19 10.41, 33.82 0.25 M1.02 37.99 C7.76 29.74, 15.87 22, 33.82 0.25 M1.15 50.03 C9.69 38.3, 23.28 24.49, 44.45 0.22 M1.15 50.03 C15.46 33.85, 29.4 15.9, 44.45 0.22 M1.28 62.07 C16.05 42.42, 32.85 25.7, 55.08 0.18 M1.28 62.07 C19.12 39.9, 37.01 20.13, 55.08 0.18 M1.42 74.11 C24.64 44.25, 50.17 16.21, 65.71 0.15 M1.42 74.11 C25.82 46.46, 49.94 17.09, 65.71 0.15 M0.89 86.9 C29.81 53.81, 56.14 20.67, 76.34 0.11 M0.89 86.9 C27.75 56.58, 53.2 25.3, 76.34 0.11 M3.65 95.93 C23.27 73.19, 42.39 50.15, 86.97 0.08 M3.65 95.93 C29.98 67.12, 55.28 36.92, 86.97 0.08 M9.03 101.93 C34.83 68.61, 63.23 37.72, 97.6 0.04 M9.03 101.93 C29.68 77.9, 52.23 52.03, 97.6 0.04 M16.38 105.67 C40.27 76.73, 66.27 48.7, 108.23 0.01 M16.38 105.67 C51.5 66.35, 86.9 25.79, 108.23 0.01 M25.7 107.14 C48.73 79.34, 75.71 51.11, 118.86 -0.03 M25.7 107.14 C52.95 75.99, 81.16 46.3, 118.86 -0.03 M36.33 107.11 C67.14 70.46, 100.55 32.14, 128.84 0.69 M36.33 107.11 C72.89 65.26, 108.37 22.74, 128.84 0.69 M46.96 107.07 C75.39 71.71, 106.65 38.29, 139.47 0.66 M46.96 107.07 C74.32 75.99, 100.47 46.58, 139.47 0.66 M57.59 107.04 C94.22 63.97, 130.87 23.33, 150.1 0.63 M57.59 107.04 C79.23 81.34, 100.59 57.14, 150.1 0.63 M68.22 107 C93.35 79.27, 113.84 52.19, 160.73 0.59 M68.22 107 C97.34 73.86, 128.81 38.69, 160.73 0.59 M78.85 106.97 C99.03 85.92, 119.96 58.5, 171.36 0.56 M78.85 106.97 C109.05 73.41, 136.92 39.92, 171.36 0.56 M89.48 106.94 C116.98 73.77, 147.47 39.48, 180.67 2.03 M89.48 106.94 C108.91 84.29, 126.96 62.79, 180.67 2.03 M100.11 106.9 C127.43 73.85, 156.44 41.26, 188.68 5.02 M100.11 106.9 C128.25 73.98, 156.39 41.26, 188.68 5.02 M110.74 106.87 C133.68 82.09, 154.14 59.09, 194.06 11.02 M110.74 106.87 C129.8 84.68, 149.56 60.84, 194.06 11.02 M121.37 106.83 C148.62 75.54, 173.02 47.96, 196.82 20.04 M121.37 106.83 C141.85 82.74, 161.95 59.41, 196.82 20.04 M132 106.8 C157.67 79.17, 179.39 54.02, 197.61 31.33 M132 106.8 C148.02 89.92, 161.68 71.8, 197.61 31.33 M141.98 107.52 C158.79 86.71, 177.58 68.69, 197.74 43.37 M141.98 107.52 C156.77 89.97, 172.85 71.22, 197.74 43.37 M152.61 107.48 C166.91 89.15, 183.46 72.35, 197.87 55.41 M152.61 107.48 C165.73 93.02, 181.19 76.15, 197.87 55.41 M163.24 107.45 C174.01 95.47, 184.96 82.98, 198.01 67.45 M163.24 107.45 C175.66 92.36, 188.47 77.33, 198.01 67.45 M174.52 106.66 C178.24 101.84, 185.55 94.87, 197.48 80.24 M174.52 106.66 C181.49 98.48, 188.12 90.81, 197.48 80.24" fill="none" stroke="#ffffff" stroke-width="1"></path><path d="M26.74 0 C72.14 1.46, 117.52 -1.86, 170.66 0 M26.74 0 C84.09 -1.45, 141.89 -2.03, 170.66 0 M170.66 0 C190.44 -0.92, 195.4 10.77, 197.39 26.74 M170.66 0 C186.39 0.85, 196.45 10.09, 197.39 26.74 M197.39 26.74 C196.8 45.94, 198.93 67.49, 197.39 80.21 M197.39 26.74 C197.01 45.95, 197.62 67.45, 197.39 80.21 M197.39 80.21 C196.81 96.2, 190.27 107.02, 170.66 106.94 M197.39 80.21 C197.81 98.24, 189.39 108.32, 170.66 106.94 M170.66 106.94 C113.11 107.88, 57.77 107.35, 26.74 106.94 M170.66 106.94 C125.48 107.13, 80.66 108.59, 26.74 106.94 M26.74 106.94 C10.67 106.71, -1.58 97.42, 0 80.21 M26.74 106.94 C7.39 104.75, -1.26 96.07, 0 80.21 M0 80.21 C0.96 60.63, 0.69 39.4, 0 26.74 M0 80.21 C0.38 60.03, 0.03 42.6, 0 26.74 M0 26.74 C0.07 10.72, 8.68 0.32, 26.74 0 M0 26.74 C1.18 7.05, 9.71 0.35, 26.74 0" fill="none" stroke="#1e1e1e" stroke-width="2"></path></g><g transform="translate(702.8917948911227 219.4672460405145) rotate(0 57.4755859375 12.5)"><text direction="ltr" dominant-baseline="text-before-edge" fill="#1e1e1e" font-family="Virgil, Segoe UI Emoji" font-size="20px" style="white-space: pre;" text-anchor="middle" x="57.4755859375" y="0">Query Service</text></g><g stroke-linecap="round"><g transform="translate(869.9578468295732 242.38969148881642) rotate(0 45.30548925832454 -23.285791106315628)"><path d="M-0.81 1.17 C13.98 -6.43, 74.69 -37.65, 89.95 -45.69 M0.96 0.74 C16.05 -7.17, 77.46 -39.57, 92.32 -47.35" fill="none" stroke="#1e1e1e" stroke-width="2"></path></g><g transform="translate(869.9578468295732 242.38969148881642) rotate(0 45.30548925832454 -23.285791106315628)"><path d="M19.55 -20.86 C13.37 -13.32, 4.78 -3.18, -0.81 1.17 M19.55 -20.86 C15.37 -15.77, 8.08 -8.62, -0.81 1.17" fill="none" stroke="#1e1e1e" stroke-width="2"></path></g><g transform="translate(869.9578468295732 242.38969148881642) rotate(0 45.30548925832454 -23.285791106315628)"><path d="M28.95 -2.62 C19.04 -2.41, 6.71 0.47, -0.81 1.17 M28.95 -2.62 C22.18 -2.38, 12.44 0, -0.81 1.17" fill="none" stroke="#1e1e1e" stroke-width="2"></path></g><g transform="translate(869.9578468295732 242.38969148881642) rotate(0 45.30548925832454 -23.285791106315628)"><path d="M72.14 -25.15 C82.15 -34.95, 89.71 -42.42, 92.32 -47.35 M72.14 -25.15 C78.23 -31.21, 81.52 -35.61, 92.32 -47.35" fill="none" stroke="#1e1e1e" stroke-width="2"></path></g><g transform="translate(869.9578468295732 242.38969148881642) rotate(0 45.30548925832454 -23.285791106315628)"><path d="M62.59 -43.31 C76.39 -45.82, 87.74 -46.05, 92.32 -47.35 M62.59 -43.31 C71.3 -44.54, 77.09 -44.2, 92.32 -47.35" fill="none" stroke="#1e1e1e" stroke-width="2"></path></g></g><mask></mask><g stroke-linecap="round" transform="translate(446.7284780057398 65.5656386265573) rotate(0 84.03842312442168 18.65006517957636)"><path d="M2.48 2.16 C2.48 2.16, 2.48 2.16, 2.48 2.16 M2.48 2.16 C2.48 2.16, 2.48 2.16, 2.48 2.16 M-0.01 17.22 C6.65 9.06, 13.42 1.7, 15.08 -0.14 M-0.01 17.22 C6.59 11.28, 10.48 3.03, 15.08 -0.14 M0.78 28.5 C7.94 19.52, 14.66 13.51, 25.05 0.58 M0.78 28.5 C9.45 16.83, 19.56 7.68, 25.05 0.58 M4.85 36.02 C10.43 28.35, 18.7 19.47, 35.68 0.54 M4.85 36.02 C11.77 26.46, 19.52 17.92, 35.68 0.54 M14.82 36.74 C26.35 24.55, 32.75 12.75, 46.31 0.51 M14.82 36.74 C24.51 24.52, 33.74 13.44, 46.31 0.51 M25.45 36.7 C32.68 26.71, 43.36 15.5, 56.94 0.48 M25.45 36.7 C32.51 27.82, 40.77 17.56, 56.94 0.48 M36.08 36.67 C42.37 29.25, 49.58 19.32, 67.57 0.44 M36.08 36.67 C42.16 29.26, 49.1 21.45, 67.57 0.44 M46.06 37.39 C53.56 30.38, 61.35 22.11, 78.2 0.41 M46.06 37.39 C55.5 25.76, 64.06 15.28, 78.2 0.41 M56.69 37.35 C69.19 23.06, 81.7 12.22, 88.83 0.37 M56.69 37.35 C65.43 27.16, 73.39 18.22, 88.83 0.37 M67.32 37.32 C74.5 27.7, 84.34 19.36, 99.47 0.34 M67.32 37.32 C77.66 24.39, 88.78 13.35, 99.47 0.34 M77.95 37.28 C85.99 25.73, 95.58 17.05, 110.1 0.3 M77.95 37.28 C90.14 22.33, 102.74 8.6, 110.1 0.3 M88.58 37.25 C101.39 24.12, 114.23 7.59, 120.73 0.27 M88.58 37.25 C97.89 25.17, 107.58 14.38, 120.73 0.27 M99.21 37.22 C111.57 24.39, 122.9 9.32, 130.7 0.99 M99.21 37.22 C109.22 25.03, 119.46 12.91, 130.7 0.99 M109.84 37.18 C117.1 28.33, 124.56 17.77, 141.33 0.95 M109.84 37.18 C122.61 23.93, 134.06 8.58, 141.33 0.95 M120.47 37.15 C125.19 27.55, 134.68 22.86, 151.96 0.92 M120.47 37.15 C128.62 26.94, 139.33 16.9, 151.96 0.92 M131.1 37.11 C138.78 30.31, 145.12 20.24, 162.59 0.89 M131.1 37.11 C140.91 24.68, 151.44 13.62, 162.59 0.89 M141.73 37.08 C150.51 29.31, 155.53 19.48, 167.97 6.89 M141.73 37.08 C147.29 30.6, 152.28 24.77, 167.97 6.89 M151.7 37.8 C157.58 32.26, 161.66 26.31, 168.1 18.93 M151.7 37.8 C156.01 32.28, 161.74 25.77, 168.1 18.93 M162.99 37.01 C165.31 34.38, 167.04 32.64, 167.58 31.73 M162.99 37.01 C164.24 36.06, 164.79 34.68, 167.58 31.73" fill="none" stroke="#ffffff" stroke-width="1"></path><path d="M9.33 0 C45.51 1.09, 77.98 2.26, 158.75 0 M9.33 0 C38.66 1.62, 69.08 1.06, 158.75 0 M158.75 0 C164.15 1.03, 169.67 2.41, 168.08 9.33 M158.75 0 C166.85 -0.46, 166.83 5.1, 168.08 9.33 M168.08 9.33 C167.17 14.86, 166.77 21.74, 168.08 27.98 M168.08 9.33 C168.86 16.32, 168.19 23.32, 168.08 27.98 M168.08 27.98 C168.86 35.39, 166.85 37.18, 158.75 37.3 M168.08 27.98 C167.3 33.24, 166.61 37.94, 158.75 37.3 M158.75 37.3 C108.6 35.35, 54.15 35.17, 9.33 37.3 M158.75 37.3 C103.14 36.82, 48.45 36.18, 9.33 37.3 M9.33 37.3 C2.02 35.6, 1.87 33.32, 0 27.98 M9.33 37.3 C3.64 38.13, 1.69 34.72, 0 27.98 M0 27.98 C-0.53 22.74, -1.85 15.3, 0 9.33 M0 27.98 C-0.12 20.88, 0.47 12.73, 0 9.33 M0 9.33 C0.69 3.41, 2.35 1.89, 9.33 0 M0 9.33 C0.59 1.6, 2.55 -2.03, 9.33 0" fill="none" stroke="#1e1e1e" stroke-width="2"></path></g><g transform="translate(504.6682683176615 71.71570380613366) rotate(0 26.0986328125 12.5)"><text direction="ltr" dominant-baseline="text-before-edge" fill="#1e1e1e" font-family="Virgil, Segoe UI Emoji" font-size="20px" style="white-space: pre;" text-anchor="middle" x="26.0986328125" y="0">Queue</text></g><g stroke-linecap="round" transform="translate(372.00452987576614 64.2946678933713) rotate(0 20.5038540279578 19.218353121645123)"><path d="M2.56 2.22 C2.56 2.22, 2.56 2.22, 2.56 2.22 M2.56 2.22 C2.56 2.22, 2.56 2.22, 2.56 2.22 M0.72 16.53 C5.5 13.92, 8.54 10.92, 15.16 -0.08 M0.72 16.53 C6.01 9.66, 11.19 4.37, 15.16 -0.08 M0.2 29.32 C7.62 21.46, 13.1 14.34, 25.79 -0.11 M0.2 29.32 C4.95 23.01, 12.21 15.76, 25.79 -0.11 M4.27 36.84 C12.24 26.52, 24.38 14.38, 35.1 1.37 M4.27 36.84 C12.79 27.89, 20.45 19.08, 35.1 1.37 M12.93 39.07 C20.58 32.85, 28.05 23.17, 40.49 7.37 M12.93 39.07 C19.15 32.79, 26.23 24.15, 40.49 7.37 M23.56 39.03 C28.01 34.4, 35.95 25.21, 41.27 18.65 M23.56 39.03 C29.32 32.15, 36.39 24, 41.27 18.65 M35.5 37.49 C36.48 35.06, 39.61 33.01, 40.75 31.45 M35.5 37.49 C37.05 35.36, 39.04 33.33, 40.75 31.45" fill="none" stroke="#ffffff" stroke-width="1"></path><path d="M9.61 0 C14.5 1.8, 22.35 -2.15, 31.4 0 M9.61 0 C17.76 0.43, 27.53 -0.43, 31.4 0 M31.4 0 C39.44 -0.4, 39.92 4.93, 41.01 9.61 M31.4 0 C38.01 1.7, 39.9 1.91, 41.01 9.61 M41.01 9.61 C42.26 14.58, 39.1 22.39, 41.01 28.83 M41.01 9.61 C41.42 16.03, 41.95 21.24, 41.01 28.83 M41.01 28.83 C40.33 34.41, 39.23 38.99, 31.4 38.44 M41.01 28.83 C42.04 35.48, 36.14 40, 31.4 38.44 M31.4 38.44 C27.15 40.08, 20 36.74, 9.61 38.44 M31.4 38.44 C24.98 37.38, 20.59 37.79, 9.61 38.44 M9.61 38.44 C3.67 39.16, 1.47 35.69, 0 28.83 M9.61 38.44 C4.68 39.81, 1.97 34.72, 0 28.83 M0 28.83 C1.88 21.52, 1.92 13.85, 0 9.61 M0 28.83 C0.23 22.9, -0.47 17.59, 0 9.61 M0 9.61 C0.51 1.89, 2.71 -1.77, 9.61 0 M0 9.61 C-2.19 3.57, 4.1 1.39, 9.61 0" fill="none" stroke="#1e1e1e" stroke-width="2"></path></g><g stroke-linecap="round" transform="translate(223.3852540502471 10) rotate(0 46.477155548504925 143.3449778590912)"><path d="M5.53 6.13 C5.53 6.13, 5.53 6.13, 5.53 6.13 M5.53 6.13 C5.53 6.13, 5.53 6.13, 5.53 6.13 M0.41 24.21 C5.64 21.29, 9.95 12.88, 20.75 0.81 M0.41 24.21 C4.23 19.64, 8.23 14.79, 20.75 0.81 M0.55 36.25 C11.12 23.86, 17.71 14.48, 31.38 0.78 M0.55 36.25 C13.2 22.38, 24.13 9.91, 31.38 0.78 M0.68 48.29 C12.1 36.1, 18.58 25.59, 42.01 0.75 M0.68 48.29 C12.57 34.92, 24.69 19.06, 42.01 0.75 M0.81 60.33 C13.69 45.97, 23.83 30.52, 52.64 0.71 M0.81 60.33 C14.94 43.88, 27.9 29.45, 52.64 0.71 M0.29 73.13 C17.54 53.61, 32.49 36.41, 63.27 0.68 M0.29 73.13 C17.41 53.33, 34.6 34.22, 63.27 0.68 M0.42 85.17 C19.19 65.45, 34.57 47.43, 73.9 0.64 M0.42 85.17 C25.37 57, 50.96 29.02, 73.9 0.64 M0.56 97.21 C28.62 67.35, 51.85 35.74, 82.56 2.87 M0.56 97.21 C18.38 77.23, 35.8 56.87, 82.56 2.87 M0.69 109.25 C31.28 72.79, 63.93 34.7, 88.6 8.12 M0.69 109.25 C28.58 76.32, 56.5 45.27, 88.6 8.12 M0.82 121.29 C30.09 87.62, 56.97 55.43, 92.02 16.39 M0.82 121.29 C34.31 81.54, 68.42 42.5, 92.02 16.39 M0.3 134.09 C34.93 94.49, 66.76 55.82, 92.8 27.67 M0.3 134.09 C19.61 110.99, 39.27 88.62, 92.8 27.67 M0.43 146.13 C26.54 116.88, 48.53 88.45, 92.94 39.71 M0.43 146.13 C21.19 121.02, 43.88 95.29, 92.94 39.71 M0.57 158.17 C31.1 120.25, 63.32 82.99, 93.07 51.76 M0.57 158.17 C33.52 121.89, 64.73 85.27, 93.07 51.76 M0.7 170.21 C18.67 147.29, 42.61 121.64, 93.2 63.8 M0.7 170.21 C23.3 144.01, 44.2 120.38, 93.2 63.8 M0.83 182.25 C35.45 143.65, 66.57 110.02, 93.34 75.84 M0.83 182.25 C32.06 146.89, 64.23 110.96, 93.34 75.84 M0.31 195.05 C21.69 170.91, 39.69 148.26, 93.47 87.88 M0.31 195.05 C27.87 164.38, 56.5 131.08, 93.47 87.88 M0.44 207.09 C29.99 176.52, 55.02 144.87, 92.95 100.67 M0.44 207.09 C30.56 173.18, 60.14 138.54, 92.95 100.67 M0.58 219.13 C24.66 188.08, 52.49 159.65, 93.08 112.71 M0.58 219.13 C23.34 192.76, 47.18 164.97, 93.08 112.71 M0.71 231.17 C21.63 207.12, 46.01 179.33, 93.21 124.76 M0.71 231.17 C31.82 195.89, 63.56 158.78, 93.21 124.76 M0.84 243.21 C21.68 216.73, 44.55 193.68, 93.35 136.8 M0.84 243.21 C23.55 215.75, 49.53 187.63, 93.35 136.8 M0.32 256.01 C23.47 227.48, 46.69 201.39, 93.48 148.84 M0.32 256.01 C31.27 220.98, 61.83 185, 93.48 148.84 M0.45 268.05 C27.89 238.82, 52.51 206.83, 93.61 160.88 M0.45 268.05 C33.13 228.8, 66.43 192.1, 93.61 160.88 M3.87 276.31 C38.83 233.65, 75.84 194.02, 93.09 173.67 M3.87 276.31 C36.3 238.62, 67.96 201.77, 93.09 173.67 M8.59 283.07 C31.17 259.37, 49.6 236.75, 93.22 185.71 M8.59 283.07 C32.12 254.56, 57.92 225.39, 93.22 185.71 M16.6 286.06 C44.11 255.2, 68.61 223.96, 93.36 197.75 M16.6 286.06 C44.35 253.53, 72.66 221.91, 93.36 197.75 M26.57 286.78 C47.67 260.62, 70.11 236.07, 93.49 209.8 M26.57 286.78 C47.99 260.67, 70.48 235.16, 93.49 209.8 M37.2 286.74 C56.36 266.02, 72.86 245.78, 93.62 221.84 M37.2 286.74 C50.6 272.18, 62.81 257.75, 93.62 221.84 M47.83 286.71 C62.02 268.26, 77.04 253.34, 93.1 234.63 M47.83 286.71 C58.29 274.58, 68.82 262.38, 93.1 234.63 M58.46 286.67 C65.73 276.34, 72.81 271.45, 93.23 246.67 M58.46 286.67 C69.32 273.92, 78.52 263.53, 93.23 246.67 M69.09 286.64 C74.81 280.69, 82.79 273.21, 93.37 258.71 M69.09 286.64 C76.17 278.93, 84.13 269.72, 93.37 258.71 M82.35 283.58 C82.77 281.04, 87.32 279.57, 91.53 273.02 M82.35 283.58 C84.43 281.06, 87.31 277.44, 91.53 273.02" fill="none" stroke="#ffffff" stroke-width="1"></path><path d="M23.24 0 C39.6 -2.44, 59.66 -2.27, 69.72 0 M23.24 0 C39.69 -0.59, 55.37 -0.44, 69.72 0 M69.72 0 C84.13 1.73, 93.13 9.22, 92.95 23.24 M69.72 0 C84.1 -1.29, 92.67 5.96, 92.95 23.24 M92.95 23.24 C92.89 108.29, 94.48 190.65, 92.95 263.45 M92.95 23.24 C94.53 97.4, 93.46 171.32, 92.95 263.45 M92.95 263.45 C94.38 279.5, 86.1 286.91, 69.72 286.69 M92.95 263.45 C91.29 280.51, 84.2 284.88, 69.72 286.69 M69.72 286.69 C57.98 285.52, 46.1 285.78, 23.24 286.69 M69.72 286.69 C61.13 285.86, 50.9 286.66, 23.24 286.69 M23.24 286.69 C9.21 287.15, 1.28 280.14, 0 263.45 M23.24 286.69 C9.71 286.18, 1.92 276.8, 0 263.45 M0 263.45 C-0.27 179.45, -1.5 96.7, 0 23.24 M0 263.45 C-1.01 211.62, -0.48 157.68, 0 23.24 M0 23.24 C-0.49 5.98, 5.84 0.32, 23.24 0 M0 23.24 C0.9 9.13, 5.96 2.21, 23.24 0" fill="none" stroke="#1e1e1e" stroke-width="2"></path></g><g transform="translate(236.54697991125204 128.3449778590912) rotate(0 33.3154296875 25)"><text direction="ltr" dominant-baseline="text-before-edge" fill="#1e1e1e" font-family="Virgil, Segoe UI Emoji" font-size="20px" style="white-space: pre;" text-anchor="middle" x="33.3154296875" y="0">api</text><text direction="ltr" dominant-baseline="text-before-edge" fill="#1e1e1e" font-family="Virgil, Segoe UI Emoji" font-size="20px" style="white-space: pre;" text-anchor="middle" x="33.3154296875" y="25">gateway</text></g><g stroke-linecap="round"><g transform="translate(326.59821846615137 126.18615305161711) rotate(0 20.608240202992874 -20.746324505709254)"><path d="M-1.09 0.44 C5.9 -6.56, 33.51 -33.82, 40.72 -40.88 M0.54 -0.37 C7.43 -7.21, 32.62 -35.93, 39.52 -42.67" fill="none" stroke="#1e1e1e" stroke-width="2"></path></g><g transform="translate(326.59821846615137 126.18615305161711) rotate(0 20.608240202992874 -20.746324505709254)"><path d="M28 -15.8 C30.8 -21.9, 33.4 -24.88, 39.52 -42.67 M28 -15.8 C30.29 -22.03, 33.97 -29.27, 39.52 -42.67" fill="none" stroke="#1e1e1e" stroke-width="2"></path></g><g transform="translate(326.59821846615137 126.18615305161711) rotate(0 20.608240202992874 -20.746324505709254)"><path d="M13.42 -29.49 C19.27 -32.72, 24.79 -32.95, 39.52 -42.67 M13.42 -29.49 C19.68 -32.06, 27.23 -35.68, 39.52 -42.67" fill="none" stroke="#1e1e1e" stroke-width="2"></path></g></g><mask></mask><g stroke-linecap="round"><g transform="translate(417.45095383401144 85.72408444583925) rotate(0 11.18819642986466 -0.4277245474395386)"><path d="M-0.23 0.28 C3.66 0.07, 18.97 -0.84, 22.81 -1.05 M0.66 -0.05 C4.55 -0.2, 18.93 -0.39, 22.61 -0.45" fill="none" stroke="#1e1e1e" stroke-width="2"></path></g><g transform="translate(417.45095383401144 85.72408444583925) rotate(0 11.18819642986466 -0.4277245474395386)"><path d="M12.15 3.54 C14.61 3.17, 16.32 2.35, 22.61 -0.45 M12.15 3.54 C15.11 2.59, 17.88 1.11, 22.61 -0.45" fill="none" stroke="#1e1e1e" stroke-width="2"></path></g><g transform="translate(417.45095383401144 85.72408444583925) rotate(0 11.18819642986466 -0.4277245474395386)"><path d="M12.03 -4.12 C14.54 -2.88, 16.26 -2.1, 22.61 -0.45 M12.03 -4.12 C15 -2.93, 17.81 -2.27, 22.61 -0.45" fill="none" stroke="#1e1e1e" stroke-width="2"></path></g></g><mask></mask><g stroke-linecap="round"><g transform="translate(621.3846293972767 88.30390336976325) rotate(0 21.291925896930934 -0.6062237680239377)"><path d="M0.44 -0.19 C7.65 -0.46, 36.06 -1.23, 43.03 -1.32 M0 -0.77 C7.19 -0.98, 35.87 -0.55, 42.83 -0.68" fill="none" stroke="#1e1e1e" stroke-width="2"></path></g><g transform="translate(621.3846293972767 88.30390336976325) rotate(0 21.291925896930934 -0.6062237680239377)"><path d="M22.82 6.6 C27.63 5.45, 32.97 2.21, 42.83 -0.68 M22.82 6.6 C30.31 3.43, 38.22 0.51, 42.83 -0.68" fill="none" stroke="#1e1e1e" stroke-width="2"></path></g><g transform="translate(621.3846293972767 88.30390336976325) rotate(0 21.291925896930934 -0.6062237680239377)"><path d="M22.82 -7.97 C27.67 -5.34, 33 -4.81, 42.83 -0.68 M22.82 -7.97 C30.31 -5.51, 38.23 -2.8, 42.83 -0.68" fill="none" stroke="#1e1e1e" stroke-width="2"></path></g></g><mask></mask><g stroke-linecap="round"><g transform="translate(326.9619527269658 182.10692774200652) rotate(0 161.6192565551919 24.76760883360157)"><path d="M0.98 -0.24 C54.59 8.26, 268.86 42.13, 322.59 50.57 M0.04 -1.41 C53.95 6.81, 271.19 40.67, 324.96 48.99" fill="none" stroke="#1e1e1e" stroke-width="2"></path></g><g transform="translate(326.9619527269658 182.10692774200652) rotate(0 161.6192565551919 24.76760883360157)"><path d="M30.43 -5.97 C18.83 -4.64, 9.79 -1.2, 0.98 -0.24 M30.43 -5.97 C19.27 -4.77, 8.86 -1.12, 0.98 -0.24" fill="none" stroke="#1e1e1e" stroke-width="2"></path></g><g transform="translate(326.9619527269658 182.10692774200652) rotate(0 161.6192565551919 24.76760883360157)"><path d="M27.22 14.3 C16.91 7.91, 9.09 3.66, 0.98 -0.24 M27.22 14.3 C17.36 7.94, 8.15 4.01, 0.98 -0.24" fill="none" stroke="#1e1e1e" stroke-width="2"></path></g><g transform="translate(326.9619527269658 182.10692774200652) rotate(0 161.6192565551919 24.76760883360157)"><path d="M295.53 54.8 C306.31 51.28, 319.61 50.33, 324.96 48.99 M295.53 54.8 C306.44 52.02, 318.04 51.36, 324.96 48.99" fill="none" stroke="#1e1e1e" stroke-width="2"></path></g><g transform="translate(326.9619527269658 182.10692774200652) rotate(0 161.6192565551919 24.76760883360157)"><path d="M298.68 34.53 C308.2 38.72, 320.3 45.47, 324.96 48.99 M298.68 34.53 C308.31 39.31, 318.74 46.22, 324.96 48.99" fill="none" stroke="#1e1e1e" stroke-width="2"></path></g></g><mask></mask><g stroke-linecap="round"><g transform="translate(140.2719754541606 155.28489391676794) rotate(0 39.47190311800534 0)"><path d="M-0.65 1.04 C12.36 1.22, 65.88 1.17, 79.05 0.89 M1.21 0.54 C13.99 0.42, 65.48 -0.73, 78.16 -0.77" fill="none" stroke="#1e1e1e" stroke-width="2"></path></g><g transform="translate(140.2719754541606 155.28489391676794) rotate(0 39.47190311800534 0)"><path d="M27.55 -9.2 C18.49 -5.27, 7.48 -2.5, -0.65 1.04 M27.55 -9.2 C21.14 -6.19, 13.5 -5.34, -0.65 1.04" fill="none" stroke="#1e1e1e" stroke-width="2"></path></g><g transform="translate(140.2719754541606 155.28489391676794) rotate(0 39.47190311800534 0)"><path d="M27.53 11.32 C18.53 7.42, 7.52 2.36, -0.65 1.04 M27.53 11.32 C21.15 9.32, 13.51 5.17, -0.65 1.04" fill="none" stroke="#1e1e1e" stroke-width="2"></path></g><g transform="translate(140.2719754541606 155.28489391676794) rotate(0 39.47190311800534 0)"><path d="M50.12 9.88 C62.57 6.15, 73.02 0.94, 78.16 -0.77 M50.12 9.88 C57.44 8.23, 63.51 3.99, 78.16 -0.77" fill="none" stroke="#1e1e1e" stroke-width="2"></path></g><g transform="translate(140.2719754541606 155.28489391676794) rotate(0 39.47190311800534 0)"><path d="M49.83 -10.64 C62.35 -6.54, 72.91 -3.91, 78.16 -0.77 M49.83 -10.64 C57.2 -7.28, 63.34 -6.52, 78.16 -0.77" fill="none" stroke="#1e1e1e" stroke-width="2"></path></g></g><mask></mask><g transform="translate(354.68273178023946 25.10240303525825) rotate(0 40.929954528808594 12.5)"><text direction="ltr" dominant-baseline="text-before-edge" fill="#1e1e1e" font-family="Virgil, Segoe UI Emoji" font-size="20px" style="white-space: pre;" text-anchor="start" x="0" y="0">producer</text></g></svg>