<svg height="957.3824707271306" version="1.1" viewbox="0 0 1798.8153147453313 957.3824707271306" width="1798.8153147453313" xmlns="http://www.w3.org/2000/svg">
<!-- svg-source:excalidraw -->
<!-- payload-type:application/vnd.excalidraw+json --><!-- payload-version:2 -->
<defs>
<style class="style-fonts">
</style>
</defs>
<rect fill="#ffffff" height="957.3824707271306" width="1798.8153147453313" x="0" y="0"></rect><g stroke-linecap="round" transform="translate(10 342.80869222417095) rotate(0 66.41791896430016 54.30053481342259)"><path d="M27.15 0 C46.94 0.5, 68.36 0.92, 105.69 0 M27.15 0 C53.91 0.85, 82.09 -0.04, 105.69 0 M105.69 0 C124.41 -1.4, 131.93 10.2, 132.84 27.15 M105.69 0 C124.04 -0.95, 130.55 8.99, 132.84 27.15 M132.84 27.15 C131.91 40.97, 131.54 51.84, 132.84 81.45 M132.84 27.15 C132.66 47.2, 133.42 68.13, 132.84 81.45 M132.84 81.45 C134.8 101.15, 122.8 107.26, 105.69 108.6 M132.84 81.45 C133.53 101.22, 122.98 108.92, 105.69 108.6 M105.69 108.6 C73.81 108.66, 43.49 108.01, 27.15 108.6 M105.69 108.6 C82.62 108.56, 58.74 107.87, 27.15 108.6 M27.15 108.6 C8.73 109.36, -1.99 99.36, 0 81.45 M27.15 108.6 C9.08 106.42, 0.34 100.18, 0 81.45 M0 81.45 C-1.24 67.28, -0.07 48.87, 0 27.15 M0 81.45 C-0.67 70.68, 0.71 58.48, 0 27.15 M0 27.15 C0.36 10.66, 8.73 -0.04, 27.15 0 M0 27.15 C-1.26 8.49, 9.11 1.56, 27.15 0" fill="none" stroke="#1e1e1e" stroke-width="2"></path></g><g transform="translate(51.974559589300156 384.60922703759354) rotate(0 24.443359375 12.5)"><text direction="ltr" dominant-baseline="text-before-edge" fill="#1e1e1e" font-family="Virgil, Segoe UI Emoji" font-size="20px" style="white-space: pre;" text-anchor="middle" x="24.443359375" y="0">Client</text></g><g stroke-linecap="round" transform="translate(273.2528845617529 193.82069936825428) rotate(0 91.13351565247496 195.92611917101357)"><path d="M32 0 C72.02 1.18, 109.19 -1.17, 150.27 0 M32 0 C72.81 -0.15, 112.55 1.13, 150.27 0 M150.27 0 C171.82 -0.82, 180.28 10.61, 182.27 32 M150.27 0 C169.76 -0.47, 180.16 9.73, 182.27 32 M182.27 32 C182.03 162.34, 180.79 289.18, 182.27 359.85 M182.27 32 C183.11 112.04, 182.1 190.53, 182.27 359.85 M182.27 359.85 C182.87 382.63, 170.9 392.13, 150.27 391.85 M182.27 359.85 C184.45 382.34, 169.7 390.84, 150.27 391.85 M150.27 391.85 C110.58 393.34, 71.31 392.74, 32 391.85 M150.27 391.85 C116.87 391.19, 82.8 390.71, 32 391.85 M32 391.85 C10.7 389.96, 0.3 381.73, 0 359.85 M32 391.85 C10.56 392.21, 1.66 379.86, 0 359.85 M0 359.85 C-1.33 230.1, -0.14 100.43, 0 32 M0 359.85 C-0.87 252.9, -1.1 144.83, 0 32 M0 32 C-1.09 10.18, 10.71 1.35, 32 0 M0 32 C2.23 12.39, 12.05 1.09, 32 0" fill="none" stroke="#1e1e1e" stroke-width="2"></path></g><g transform="translate(301.9108142767279 339.74681853926785) rotate(0 62.4755859375 50)"><text direction="ltr" dominant-baseline="text-before-edge" fill="#1e1e1e" font-family="Virgil, Segoe UI Emoji" font-size="20px" style="white-space: pre;" text-anchor="middle" x="62.4755859375" y="0">API Gateway</text><text direction="ltr" dominant-baseline="text-before-edge" fill="#1e1e1e" font-family="Virgil, Segoe UI Emoji" font-size="20px" style="white-space: pre;" text-anchor="middle" x="62.4755859375" y="25">- authentication</text><text direction="ltr" dominant-baseline="text-before-edge" fill="#1e1e1e" font-family="Virgil, Segoe UI Emoji" font-size="20px" style="white-space: pre;" text-anchor="middle" x="62.4755859375" y="50">- rate limiting</text><text direction="ltr" dominant-baseline="text-before-edge" fill="#1e1e1e" font-family="Virgil, Segoe UI Emoji" font-size="20px" style="white-space: pre;" text-anchor="middle" x="62.4755859375" y="75">- routing</text></g><g stroke-linecap="round"><g transform="translate(156.9605616707032 396.9823636565725) rotate(0 56.38036740573851 -0.5551085060830019)"><path d="M-0.34 0.51 C18.45 0.34, 94.89 -1.26, 113.81 -1.67 M1.69 -0.27 C20.32 -0.23, 94.93 -0.29, 113.41 -0.43" fill="none" stroke="#1e1e1e" stroke-width="2"></path></g><g transform="translate(156.9605616707032 396.9823636565725) rotate(0 56.38036740573851 -0.5551085060830019)"><path d="M27.66 -10.27 C17.55 -4.41, 4.86 -1.33, -0.34 0.51 M27.66 -10.27 C21.28 -8.04, 13.74 -5.18, -0.34 0.51" fill="none" stroke="#1e1e1e" stroke-width="2"></path></g><g transform="translate(156.9605616707032 396.9823636565725) rotate(0 56.38036740573851 -0.5551085060830019)"><path d="M28.04 10.25 C17.89 8.12, 5.05 3.2, -0.34 0.51 M28.04 10.25 C21.66 7.76, 14.03 5.9, -0.34 0.51" fill="none" stroke="#1e1e1e" stroke-width="2"></path></g><g transform="translate(156.9605616707032 396.9823636565725) rotate(0 56.38036740573851 -0.5551085060830019)"><path d="M85.25 9.93 C97.12 7.72, 106.31 2.56, 113.41 -0.43 M85.25 9.93 C91.88 6.98, 97.25 4.98, 113.41 -0.43" fill="none" stroke="#1e1e1e" stroke-width="2"></path></g><g transform="translate(156.9605616707032 396.9823636565725) rotate(0 56.38036740573851 -0.5551085060830019)"><path d="M85.18 -10.59 C96.97 -4.81, 106.18 -1.97, 113.41 -0.43 M85.18 -10.59 C91.73 -8.82, 97.12 -6.1, 113.41 -0.43" fill="none" stroke="#1e1e1e" stroke-width="2"></path></g></g><mask></mask><g stroke-linecap="round" transform="translate(680.0516580664367 329.0849623405138) rotate(0 133.45758189228422 69.29831816266892)"><path d="M32 0 C86.35 -1.03, 141.1 -2.39, 234.92 0 M32 0 C103.67 0.72, 176.4 0.56, 234.92 0 M234.92 0 C254.42 -0.81, 268.79 9.48, 266.92 32 M234.92 0 C257.16 1.84, 269.06 10.43, 266.92 32 M266.92 32 C265.94 51.24, 268.08 65.57, 266.92 106.6 M266.92 32 C266.79 49.51, 268.09 67.25, 266.92 106.6 M266.92 106.6 C265.26 127.05, 256.96 138.4, 234.92 138.6 M266.92 106.6 C266.98 127.91, 257.92 139.04, 234.92 138.6 M234.92 138.6 C163.8 138.37, 96.54 136.88, 32 138.6 M234.92 138.6 C176.09 137.12, 116.96 137.01, 32 138.6 M32 138.6 C12.11 137.44, 1.87 127.94, 0 106.6 M32 138.6 C10.12 136.38, -1.16 127.71, 0 106.6 M0 106.6 C-1.93 91.6, 1.41 75.55, 0 32 M0 106.6 C0.43 85.05, 1.38 62.9, 0 32 M0 32 C1.2 11.61, 9.85 1.77, 32 0 M0 32 C-1.3 12.02, 10.52 -0.54, 32 0" fill="none" stroke="#1e1e1e" stroke-width="2"></path></g><g transform="translate(757.698693083721 385.88328050318273) rotate(0 55.810546875 12.5)"><text direction="ltr" dominant-baseline="text-before-edge" fill="#1e1e1e" font-family="Virgil, Segoe UI Emoji" font-size="20px" style="white-space: pre;" text-anchor="middle" x="55.810546875" y="0">Event Service</text></g><g stroke-linecap="round"><g transform="translate(470.0909273878159 406.8464539599445) rotate(0 98.12245388739251 1.71820194628026)"><path d="M-0.54 0.69 C32.12 1.32, 163.78 2.49, 196.38 2.94 M1.37 0.01 C33.86 0.87, 162.84 3.44, 195.5 4.22" fill="none" stroke="#1e1e1e" stroke-width="2"></path></g><g transform="translate(470.0909273878159 406.8464539599445) rotate(0 98.12245388739251 1.71820194628026)"><path d="M27.76 -9.24 C19.48 -5.87, 8.13 -4.79, -0.54 0.69 M27.76 -9.24 C18.36 -6.75, 11.79 -3.99, -0.54 0.69" fill="none" stroke="#1e1e1e" stroke-width="2"></path></g><g transform="translate(470.0909273878159 406.8464539599445) rotate(0 98.12245388739251 1.71820194628026)"><path d="M27.53 11.28 C19.46 7.86, 8.2 2.15, -0.54 0.69 M27.53 11.28 C18.35 7.67, 11.86 4.33, -0.54 0.69" fill="none" stroke="#1e1e1e" stroke-width="2"></path></g><g transform="translate(470.0909273878159 406.8464539599445) rotate(0 98.12245388739251 1.71820194628026)"><path d="M167.09 13.87 C177.71 11.02, 185.14 5.62, 195.5 4.22 M167.09 13.87 C174.69 10.65, 184.99 7.6, 195.5 4.22" fill="none" stroke="#1e1e1e" stroke-width="2"></path></g><g transform="translate(470.0909273878159 406.8464539599445) rotate(0 98.12245388739251 1.71820194628026)"><path d="M167.53 -6.65 C177.87 -2.71, 185.15 -1.32, 195.5 4.22 M167.53 -6.65 C174.84 -3.77, 185.01 -0.72, 195.5 4.22" fill="none" stroke="#1e1e1e" stroke-width="2"></path></g></g><mask></mask><g stroke-linecap="round" transform="translate(1122.8556036195332 283.38875988430846) rotate(0 112.92030416412285 108.78506994587957)"><path d="M58.81 12.28 C69.25 5.15, 84.67 3.28, 98.09 1.83 C111.51 0.37, 125.93 0.42, 139.33 3.55 C152.74 6.69, 167.29 13.29, 178.51 20.62 C189.73 27.96, 199.3 36.83, 206.64 47.57 C213.98 58.31, 219.59 72.01, 222.53 85.07 C225.48 98.13, 226.1 113.07, 224.31 125.93 C222.52 138.79, 218.59 150.96, 211.79 162.22 C204.98 173.49, 194.04 185.22, 183.47 193.5 C172.91 201.79, 161.21 207.8, 148.41 211.94 C135.6 216.08, 120.27 219.16, 106.66 218.34 C93.05 217.52, 79.21 212.52, 66.73 207.01 C54.25 201.49, 41.41 194.47, 31.8 185.25 C22.19 176.03, 14.34 163.69, 9.05 151.71 C3.76 139.73, 0.5 126.42, 0.06 113.4 C-0.37 100.37, 2 86.05, 6.43 73.56 C10.85 61.07, 17.12 48.97, 26.62 38.45 C36.12 27.92, 56.05 15.29, 63.45 10.43 C70.85 5.56, 70.09 7.6, 71.03 9.26 M61.29 12.23 C72.13 4.83, 88.45 1.13, 102.21 -0.27 C115.98 -1.68, 131.02 0.47, 143.9 3.8 C156.78 7.14, 168.92 11.99, 179.51 19.73 C190.1 27.47, 200.32 38.89, 207.44 50.25 C214.56 61.61, 219.35 75.26, 222.25 87.91 C225.14 100.57, 226.88 113.14, 224.82 126.18 C222.77 139.21, 217.08 154.7, 209.92 166.13 C202.75 177.56, 192.75 187, 181.82 194.76 C170.89 202.52, 157.31 208.77, 144.32 212.68 C131.34 216.59, 117.08 219.04, 103.91 218.24 C90.74 217.43, 77.38 213.62, 65.28 207.87 C53.18 202.12, 40.93 193.29, 31.31 183.76 C21.68 174.22, 12.87 162.77, 7.51 150.65 C2.16 138.52, -0.76 124.37, -0.84 110.99 C-0.92 97.62, 2.23 82.99, 7.04 70.37 C11.85 57.76, 19.14 44.94, 28.04 35.33 C36.94 25.72, 54.57 16.1, 60.46 12.69 C66.36 9.27, 62.6 13.2, 63.4 14.83" fill="none" stroke="#1e1e1e" stroke-width="2"></path></g><g transform="translate(1180.377437163057 367.2511691796037) rotate(0 55.5517578125 25)"><text direction="ltr" dominant-baseline="text-before-edge" fill="#1e1e1e" font-family="Virgil, Segoe UI Emoji" font-size="20px" style="white-space: pre;" text-anchor="middle" x="55.5517578125" y="0">Database</text><text direction="ltr" dominant-baseline="text-before-edge" fill="#1e1e1e" font-family="Virgil, Segoe UI Emoji" font-size="20px" style="white-space: pre;" text-anchor="middle" x="55.5517578125" y="25">(PostgreSQL)</text></g><g stroke-linecap="round"><g transform="translate(955.7234170581863 396.8944771316037) rotate(0 75.14656532720915 0.29807728076474405)"><path d="M-0.96 -0.25 C24.11 -0.22, 123.8 0.09, 149.19 0.11 M0.74 -1.42 C26.26 -1.23, 126.25 1.02, 151.33 1.39" fill="none" stroke="#1e1e1e" stroke-width="2"></path></g><g transform="translate(955.7234170581863 396.8944771316037) rotate(0 75.14656532720915 0.29807728076474405)"><path d="M27.26 -10.44 C21.19 -10.45, 15.13 -4.7, -0.96 -0.25 M27.26 -10.44 C21.44 -7.86, 13.03 -5.88, -0.96 -0.25" fill="none" stroke="#1e1e1e" stroke-width="2"></path></g><g transform="translate(955.7234170581863 396.8944771316037) rotate(0 75.14656532720915 0.29807728076474405)"><path d="M27.21 10.08 C21.15 5.96, 15.11 7.59, -0.96 -0.25 M27.21 10.08 C21.32 7.72, 12.92 4.76, -0.96 -0.25" fill="none" stroke="#1e1e1e" stroke-width="2"></path></g><g transform="translate(955.7234170581863 396.8944771316037) rotate(0 75.14656532720915 0.29807728076474405)"><path d="M122.95 11.11 C128.23 7.56, 133.52 9.32, 151.33 1.39 M122.95 11.11 C130.68 8.45, 135.89 5.63, 151.33 1.39" fill="none" stroke="#1e1e1e" stroke-width="2"></path></g><g transform="translate(955.7234170581863 396.8944771316037) rotate(0 75.14656532720915 0.29807728076474405)"><path d="M123.34 -9.4 C128.54 -8.85, 133.75 -2.98, 151.33 1.39 M123.34 -9.4 C131.05 -7.13, 136.17 -5.01, 151.33 1.39" fill="none" stroke="#1e1e1e" stroke-width="2"></path></g></g><mask></mask><g transform="translate(1377.2220778901242 248.4795822577562) rotate(0 65.74993133544916 100)"><text direction="ltr" dominant-baseline="text-before-edge" fill="#1e1e1e" font-family="Virgil, Segoe UI Emoji" font-size="20px" style="white-space: pre;" text-anchor="start" x="0" y="0">Event</text><text direction="ltr" dominant-baseline="text-before-edge" fill="#1e1e1e" font-family="Virgil, Segoe UI Emoji" font-size="20px" style="white-space: pre;" text-anchor="start" x="0" y="25">- id</text><text direction="ltr" dominant-baseline="text-before-edge" fill="#1e1e1e" font-family="Virgil, Segoe UI Emoji" font-size="20px" style="white-space: pre;" text-anchor="start" x="0" y="50">- venueId</text><text direction="ltr" dominant-baseline="text-before-edge" fill="#1e1e1e" font-family="Virgil, Segoe UI Emoji" font-size="20px" style="white-space: pre;" text-anchor="start" x="0" y="75">- performerId</text><text direction="ltr" dominant-baseline="text-before-edge" fill="#1e1e1e" font-family="Virgil, Segoe UI Emoji" font-size="20px" style="white-space: pre;" text-anchor="start" x="0" y="100">- tickets[]</text><text direction="ltr" dominant-baseline="text-before-edge" fill="#1e1e1e" font-family="Virgil, Segoe UI Emoji" font-size="20px" style="white-space: pre;" text-anchor="start" x="0" y="125">- name</text><text direction="ltr" dominant-baseline="text-before-edge" fill="#1e1e1e" font-family="Virgil, Segoe UI Emoji" font-size="20px" style="white-space: pre;" text-anchor="start" x="0" y="150">- description</text><text direction="ltr" dominant-baseline="text-before-edge" fill="#1e1e1e" font-family="Virgil, Segoe UI Emoji" font-size="20px" style="white-space: pre;" text-anchor="start" x="0" y="175">- ....</text></g><g transform="translate(1547.4297951596423 246.65944632439823) rotate(0 51.58995819091797 62.5)"><text direction="ltr" dominant-baseline="text-before-edge" fill="#1e1e1e" font-family="Virgil, Segoe UI Emoji" font-size="20px" style="white-space: pre;" text-anchor="start" x="0" y="0">Venue</text><text direction="ltr" dominant-baseline="text-before-edge" fill="#1e1e1e" font-family="Virgil, Segoe UI Emoji" font-size="20px" style="white-space: pre;" text-anchor="start" x="0" y="25">- id</text><text direction="ltr" dominant-baseline="text-before-edge" fill="#1e1e1e" font-family="Virgil, Segoe UI Emoji" font-size="20px" style="white-space: pre;" text-anchor="start" x="0" y="50">- location</text><text direction="ltr" dominant-baseline="text-before-edge" fill="#1e1e1e" font-family="Virgil, Segoe UI Emoji" font-size="20px" style="white-space: pre;" text-anchor="start" x="0" y="75">- seatMap</text><text direction="ltr" dominant-baseline="text-before-edge" fill="#1e1e1e" font-family="Virgil, Segoe UI Emoji" font-size="20px" style="white-space: pre;" text-anchor="start" x="0" y="100">- ...</text></g><g transform="translate(1694.4554209465032 252.07797672986817) rotate(0 47.17994689941406 37.5)"><text direction="ltr" dominant-baseline="text-before-edge" fill="#1e1e1e" font-family="Virgil, Segoe UI Emoji" font-size="20px" style="white-space: pre;" text-anchor="start" x="0" y="0">Performer</text><text direction="ltr" dominant-baseline="text-before-edge" fill="#1e1e1e" font-family="Virgil, Segoe UI Emoji" font-size="20px" style="white-space: pre;" text-anchor="start" x="0" y="25">- id</text><text direction="ltr" dominant-baseline="text-before-edge" fill="#1e1e1e" font-family="Virgil, Segoe UI Emoji" font-size="20px" style="white-space: pre;" text-anchor="start" x="0" y="50">...</text></g><g transform="translate(500.4303415041543 362.7018156796894) rotate(0 64.13993835449219 12.5)"><text direction="ltr" dominant-baseline="text-before-edge" fill="#1e1e1e" font-family="Virgil, Segoe UI Emoji" font-size="20px" style="white-space: pre;" text-anchor="start" x="0" y="0">view(eventId)</text></g><g stroke-linecap="round" transform="translate(673.9729602040698 81.61372336185377) rotate(0 133.45758189228422 69.29831816266892)"><path d="M32 0 C110.8 1.38, 191.16 3, 234.92 0 M32 0 C109.32 1.87, 185.78 1.34, 234.92 0 M234.92 0 C258.14 1, 265.26 9.79, 266.92 32 M234.92 0 C257.06 -0.22, 266.98 10.65, 266.92 32 M266.92 32 C266.68 59.87, 265.29 87.28, 266.92 106.6 M266.92 32 C266.19 56.27, 266.32 82.72, 266.92 106.6 M266.92 106.6 C266.83 128.24, 257.69 137.44, 234.92 138.6 M266.92 106.6 C269.07 127.94, 255.7 136.38, 234.92 138.6 M234.92 138.6 C184.75 137.68, 132.05 137.21, 32 138.6 M234.92 138.6 C157.18 138.34, 80.44 139.16, 32 138.6 M32 138.6 C12.61 140.09, 1.2 128.87, 0 106.6 M32 138.6 C9.72 140.64, -1.3 129.28, 0 106.6 M0 106.6 C-1.36 83.49, 1.09 64.12, 0 32 M0 106.6 C-0.22 79.64, -0.28 53.98, 0 32 M0 32 C-0.03 10.99, 12.47 -1.17, 32 0 M0 32 C-1.36 9.92, 8.5 1.81, 32 0" fill="none" stroke="#1e1e1e" stroke-width="2"></path></g><g transform="translate(780.223510846354 138.4120415245227) rotate(0 27.20703125 12.5)"><text direction="ltr" dominant-baseline="text-before-edge" fill="#1e1e1e" font-family="Virgil, Segoe UI Emoji" font-size="20px" style="white-space: pre;" text-anchor="middle" x="27.20703125" y="0">Search</text></g><g stroke-linecap="round"><g transform="translate(471.9508776560606 340.47306822446626) rotate(0 91.06573938924032 -87.90528581908586)"><path d="M1.18 0.96 C31.42 -28.42, 151.32 -147.3, 181.54 -176.62 M0.34 0.41 C30.97 -28.8, 153.68 -145.96, 183.95 -175.5" fill="none" stroke="#1e1e1e" stroke-width="2"></path></g><g transform="translate(471.9508776560606 340.47306822446626) rotate(0 91.06573938924032 -87.90528581908586)"><path d="M14.06 -26.14 C11.62 -18.66, 4.72 -8.74, 1.18 0.96 M14.06 -26.14 C10.11 -15.53, 3.54 -6.38, 1.18 0.96" fill="none" stroke="#1e1e1e" stroke-width="2"></path></g><g transform="translate(471.9508776560606 340.47306822446626) rotate(0 91.06573938924032 -87.90528581908586)"><path d="M28.46 -11.52 C21.63 -8.4, 10.3 -2.97, 1.18 0.96 M28.46 -11.52 C19.2 -6.34, 7.27 -2.63, 1.18 0.96" fill="none" stroke="#1e1e1e" stroke-width="2"></path></g><g transform="translate(471.9508776560606 340.47306822446626) rotate(0 91.06573938924032 -87.90528581908586)"><path d="M170.77 -148.55 C176.49 -157.95, 177.61 -164.65, 183.95 -175.5 M170.77 -148.55 C176.72 -158.11, 179.85 -169.09, 183.95 -175.5" fill="none" stroke="#1e1e1e" stroke-width="2"></path></g><g transform="translate(471.9508776560606 340.47306822446626) rotate(0 91.06573938924032 -87.90528581908586)"><path d="M156.53 -163.33 C166.59 -168.32, 172.08 -170.48, 183.95 -175.5 M156.53 -163.33 C167.73 -167.4, 176.17 -172.87, 183.95 -175.5" fill="none" stroke="#1e1e1e" stroke-width="2"></path></g></g><mask></mask><g transform="translate(164.10218856898587 10) rotate(0 468.1796569824219 12.5)"><text direction="ltr" dominant-baseline="text-before-edge" fill="#1e1e1e" font-family="Virgil, Segoe UI Emoji" font-size="20px" style="white-space: pre;" text-anchor="start" x="0" y="0">GET /search?term={term}&amp;location={location}&amp;type={type}&amp;date={date} -&gt; Partial&lt;Event&gt;[]</text></g><g stroke-linecap="round"><g transform="translate(953.8188527498186 155.73515170866267) rotate(0 94.5310340571823 70.88740422814305)"><path d="M0.36 0.87 C31.9 24.66, 157 118.36, 188.64 141.94 M-0.91 0.28 C30.49 24.36, 155.65 120.22, 187.47 143.56" fill="none" stroke="#1e1e1e" stroke-width="2"></path></g><g transform="translate(953.8188527498186 155.73515170866267) rotate(0 94.5310340571823 70.88740422814305)"><path d="M29.07 9.57 C23.38 6.77, 15 7.19, 0.36 0.87 M29.07 9.57 C19.45 6.3, 9.07 3.34, 0.36 0.87" fill="none" stroke="#1e1e1e" stroke-width="2"></path></g><g transform="translate(953.8188527498186 155.73515170866267) rotate(0 94.5310340571823 70.88740422814305)"><path d="M16.76 25.99 C14.26 19.03, 8.97 15.33, 0.36 0.87 M16.76 25.99 C11.58 17.03, 5.52 8.32, 0.36 0.87" fill="none" stroke="#1e1e1e" stroke-width="2"></path></g><g transform="translate(953.8188527498186 155.73515170866267) rotate(0 94.5310340571823 70.88740422814305)"><path d="M158.77 134.82 C167.37 136.22, 173.39 141.02, 187.47 143.56 M158.77 134.82 C169.1 137.91, 178.82 141.06, 187.47 143.56" fill="none" stroke="#1e1e1e" stroke-width="2"></path></g><g transform="translate(953.8188527498186 155.73515170866267) rotate(0 94.5310340571823 70.88740422814305)"><path d="M171.11 118.42 C176.5 123.98, 179.43 132.88, 187.47 143.56 M171.11 118.42 C176.98 127.2, 182.39 136.09, 187.47 143.56" fill="none" stroke="#1e1e1e" stroke-width="2"></path></g></g><mask></mask><g transform="translate(1019.4699252994565 153.8242919347158) rotate(0 129.81988525390625 25)"><text direction="ltr" dominant-baseline="text-before-edge" fill="#1e1e1e" font-family="Virgil, Segoe UI Emoji" font-size="20px" style="white-space: pre;" text-anchor="middle" x="129.81988525390625" y="0">Query event table directly</text><text direction="ltr" dominant-baseline="text-before-edge" fill="#1e1e1e" font-family="Virgil, Segoe UI Emoji" font-size="20px" style="white-space: pre;" text-anchor="middle" x="129.81988525390625" y="25">for search</text></g><g stroke-linecap="round" transform="translate(691.3079702354098 613.8894445030364) rotate(0 132.1456120008337 76.0151989733738)"><path d="M32 0 C85.96 -3.19, 137.32 -1.07, 232.29 0 M32 0 C90.79 0.19, 148.65 -0.15, 232.29 0 M232.29 0 C253.69 -1.77, 263.97 11.43, 264.29 32 M232.29 0 C251.34 -0.22, 264.33 8.49, 264.29 32 M264.29 32 C264.84 61.16, 263.38 89.3, 264.29 120.03 M264.29 32 C263.58 58.35, 263.14 85.17, 264.29 120.03 M264.29 120.03 C265.17 139.64, 253.99 153.64, 232.29 152.03 M264.29 120.03 C263.92 141.31, 252.37 151.47, 232.29 152.03 M232.29 152.03 C173.07 154.86, 112 153.04, 32 152.03 M232.29 152.03 C154.38 152.88, 76.28 152.4, 32 152.03 M32 152.03 C9.47 152.94, 1.35 142.55, 0 120.03 M32 152.03 C8.7 153.22, -1.98 141.02, 0 120.03 M0 120.03 C-0.55 103.51, -2.05 82.2, 0 32 M0 120.03 C0.7 96.98, 0.6 73.51, 0 32 M0 32 C-1.82 10.28, 10.71 -0.26, 32 0 M0 32 C-2.14 12.12, 11.95 0.05, 32 0" fill="none" stroke="#1e1e1e" stroke-width="2"></path></g><g transform="translate(789.0053400487434 677.4046434764102) rotate(0 34.4482421875 12.5)"><text direction="ltr" dominant-baseline="text-before-edge" fill="#1e1e1e" font-family="Virgil, Segoe UI Emoji" font-size="20px" style="white-space: pre;" text-anchor="middle" x="34.4482421875" y="0">Booking</text></g><g stroke-linecap="round"><g transform="translate(972.9638959666909 691.0048860455345) rotate(0 103.18857837129764 -93.90316276844442)"><path d="M0.43 -0.12 C34.99 -31.33, 171.94 -156.57, 206.41 -187.82 M-0.81 -1.22 C33.69 -32.19, 170.86 -155.47, 205.48 -186.29" fill="none" stroke="#1e1e1e" stroke-width="2"></path></g><g transform="translate(972.9638959666909 691.0048860455345) rotate(0 103.18857837129764 -93.90316276844442)"><path d="M191.32 -159.84 C194.32 -165.58, 197.58 -169.94, 205.48 -186.29 M191.32 -159.84 C195.76 -169.14, 200.09 -176.32, 205.48 -186.29" fill="none" stroke="#1e1e1e" stroke-width="2"></path></g><g transform="translate(972.9638959666909 691.0048860455345) rotate(0 103.18857837129764 -93.90316276844442)"><path d="M177.63 -175.13 C183.54 -177.59, 189.77 -178.63, 205.48 -186.29 M177.63 -175.13 C186.51 -179.52, 195.21 -181.82, 205.48 -186.29" fill="none" stroke="#1e1e1e" stroke-width="2"></path></g></g><mask></mask><g stroke-linecap="round" transform="translate(697.9943755026304 860.1277425167518) rotate(0 132.68811403083762 43.62736410518937)"><path d="M21.81 0 C96.18 1.2, 170.91 0.68, 243.56 0 M21.81 0 C83.99 2.02, 145.59 1.61, 243.56 0 M243.56 0 C258.13 -1.9, 265.67 7.82, 265.38 21.81 M243.56 0 C258 0.35, 267.04 5.94, 265.38 21.81 M265.38 21.81 C263.45 37.98, 265.19 54.28, 265.38 65.44 M265.38 21.81 C265.75 36.93, 265.41 50.4, 265.38 65.44 M265.38 65.44 C264.28 79.5, 258.15 88.61, 243.56 87.25 M265.38 65.44 C267.61 81.7, 259.49 88.34, 243.56 87.25 M243.56 87.25 C187.16 86.07, 128.31 85.59, 21.81 87.25 M243.56 87.25 C194.67 88.64, 143.87 88.57, 21.81 87.25 M21.81 87.25 C5.55 86.96, -1.84 81.97, 0 65.44 M21.81 87.25 C7.24 87.63, 2.07 78.64, 0 65.44 M0 65.44 C1.72 54.67, 1.18 43.98, 0 21.81 M0 65.44 C0.42 49.55, -0.53 34.55, 0 21.81 M0 21.81 C1.12 7.31, 5.4 -1.84, 21.81 0 M0 21.81 C2.07 7.31, 8.64 -1.79, 21.81 0" fill="none" stroke="#1e1e1e" stroke-width="2"></path></g><g transform="translate(806.795770783468 891.2551066219412) rotate(0 23.88671875 12.5)"><text direction="ltr" dominant-baseline="text-before-edge" fill="#1e1e1e" font-family="Virgil, Segoe UI Emoji" font-size="20px" style="white-space: pre;" text-anchor="middle" x="23.88671875" y="0">Stripe</text></g><g stroke-linecap="round"><g transform="translate(777.7883709218486 849.5280874689824) rotate(0 -0.0951187552088868 -36.923922624306954)"><path d="M0.51 -0.23 C0.34 -12.75, 0 -62.71, -0.15 -74.91 M-0.68 -1.39 C-1.08 -13.82, -0.98 -61.58, -1.08 -73.93" fill="none" stroke="#1e1e1e" stroke-width="2"></path></g><g transform="translate(777.7883709218486 849.5280874689824) rotate(0 -0.0951187552088868 -36.923922624306954)"><path d="M-10 -28.33 C-6.4 -17.83, -3.88 -7.75, 0.51 -0.23 M-10 -28.33 C-6.71 -19.76, -3.02 -9.04, 0.51 -0.23" fill="none" stroke="#1e1e1e" stroke-width="2"></path></g><g transform="translate(777.7883709218486 849.5280874689824) rotate(0 -0.0951187552088868 -36.923922624306954)"><path d="M10.53 -28.51 C6.47 -17.86, 1.35 -7.7, 0.51 -0.23 M10.53 -28.51 C6.87 -19.9, 3.62 -9.12, 0.51 -0.23" fill="none" stroke="#1e1e1e" stroke-width="2"></path></g></g><mask></mask><g stroke-linecap="round"><g transform="translate(877.8704912097674 854.4987043592746) rotate(0 -0.587293208775435 -40.253123116126005)"><path d="M0.04 -1.06 C-0.27 -14.36, -0.96 -66.79, -1.37 -80.05 M-1.4 1 C-1.93 -12.65, -2.63 -68.54, -2.41 -81.93" fill="none" stroke="#1e1e1e" stroke-width="2"></path></g><g transform="translate(877.8704912097674 854.4987043592746) rotate(0 -0.587293208775435 -40.253123116126005)"><path d="M7.88 -53.75 C2.64 -63.72, 1.64 -75.05, -2.41 -81.93 M7.88 -53.75 C5.03 -61.76, 1.85 -70.07, -2.41 -81.93" fill="none" stroke="#1e1e1e" stroke-width="2"></path></g><g transform="translate(877.8704912097674 854.4987043592746) rotate(0 -0.587293208775435 -40.253123116126005)"><path d="M-12.64 -53.73 C-10.85 -63.71, -4.82 -75.05, -2.41 -81.93 M-12.64 -53.73 C-9.53 -61.55, -6.75 -69.87, -2.41 -81.93" fill="none" stroke="#1e1e1e" stroke-width="2"></path></g></g><mask></mask><g stroke-linecap="round"><g transform="translate(472.7920967941061 530.6228330156746) rotate(0 103.31966170318998 73.45913294030242)"><path d="M-0.19 0.46 C34.04 25.1, 170.97 122.58, 205.45 146.8 M-1.75 -0.35 C32.83 24.58, 172.92 123.81, 207.53 148.28" fill="none" stroke="#1e1e1e" stroke-width="2"></path></g><g transform="translate(472.7920967941061 530.6228330156746) rotate(0 103.31966170318998 73.45913294030242)"><path d="M28.72 8.47 C20.79 4.01, 11.07 3.59, -0.19 0.46 M28.72 8.47 C22.73 7.06, 17.57 4.68, -0.19 0.46" fill="none" stroke="#1e1e1e" stroke-width="2"></path></g><g transform="translate(472.7920967941061 530.6228330156746) rotate(0 103.31966170318998 73.45913294030242)"><path d="M16.81 25.18 C12.63 15.67, 6.53 10.19, -0.19 0.46 M16.81 25.18 C13.24 20.31, 10.52 14.5, -0.19 0.46" fill="none" stroke="#1e1e1e" stroke-width="2"></path></g><g transform="translate(472.7920967941061 530.6228330156746) rotate(0 103.31966170318998 73.45913294030242)"><path d="M178.6 140.37 C188.06 140.83, 195.89 145.24, 207.53 148.28 M178.6 140.37 C184.5 142.07, 191.2 142.96, 207.53 148.28" fill="none" stroke="#1e1e1e" stroke-width="2"></path></g><g transform="translate(472.7920967941061 530.6228330156746) rotate(0 103.31966170318998 73.45913294030242)"><path d="M190.45 123.62 C196.18 129.14, 200.41 138.64, 207.53 148.28 M190.45 123.62 C193.95 128.79, 198.22 133.12, 207.53 148.28" fill="none" stroke="#1e1e1e" stroke-width="2"></path></g></g><mask></mask><g transform="translate(552.4600150895986 546.3495810899103) rotate(0 108.139892578125 12.5)"><text direction="ltr" dominant-baseline="text-before-edge" fill="#1e1e1e" font-family="Virgil, Segoe UI Emoji" font-size="20px" style="white-space: pre;" text-anchor="middle" x="108.139892578125" y="0">book(ticketId, userId)</text></g><g transform="translate(1373.076281767333 488.93251171886004) rotate(0 134.03988647460938 87.5)"><text direction="ltr" dominant-baseline="text-before-edge" fill="#1e1e1e" font-family="Virgil, Segoe UI Emoji" font-size="20px" style="white-space: pre;" text-anchor="start" x="0" y="0">Ticket</text><text direction="ltr" dominant-baseline="text-before-edge" fill="#1e1e1e" font-family="Virgil, Segoe UI Emoji" font-size="20px" style="white-space: pre;" text-anchor="start" x="0" y="25">- id</text><text direction="ltr" dominant-baseline="text-before-edge" fill="#1e1e1e" font-family="Virgil, Segoe UI Emoji" font-size="20px" style="white-space: pre;" text-anchor="start" x="0" y="50">- eventId</text><text direction="ltr" dominant-baseline="text-before-edge" fill="#1e1e1e" font-family="Virgil, Segoe UI Emoji" font-size="20px" style="white-space: pre;" text-anchor="start" x="0" y="75">- seat</text><text direction="ltr" dominant-baseline="text-before-edge" fill="#1e1e1e" font-family="Virgil, Segoe UI Emoji" font-size="20px" style="white-space: pre;" text-anchor="start" x="0" y="100">- price</text><text direction="ltr" dominant-baseline="text-before-edge" fill="#1e1e1e" font-family="Virgil, Segoe UI Emoji" font-size="20px" style="white-space: pre;" text-anchor="start" x="0" y="125">- status: available, booked</text><text direction="ltr" dominant-baseline="text-before-edge" fill="#1e1e1e" font-family="Virgil, Segoe UI Emoji" font-size="20px" style="white-space: pre;" text-anchor="start" x="0" y="150">- userId</text></g><g transform="translate(1673.2581223875195 490.06405698375784) rotate(0 43.38995361328125 50)"><text direction="ltr" dominant-baseline="text-before-edge" fill="#1e1e1e" font-family="Virgil, Segoe UI Emoji" font-size="20px" style="white-space: pre;" text-anchor="start" x="0" y="0">Booking</text><text direction="ltr" dominant-baseline="text-before-edge" fill="#1e1e1e" font-family="Virgil, Segoe UI Emoji" font-size="20px" style="white-space: pre;" text-anchor="start" x="0" y="25">- id</text><text direction="ltr" dominant-baseline="text-before-edge" fill="#1e1e1e" font-family="Virgil, Segoe UI Emoji" font-size="20px" style="white-space: pre;" text-anchor="start" x="0" y="50">- userId</text><text direction="ltr" dominant-baseline="text-before-edge" fill="#1e1e1e" font-family="Virgil, Segoe UI Emoji" font-size="20px" style="white-space: pre;" text-anchor="start" x="0" y="75">- tickets</text></g><g transform="translate(1074.3915922314 611.719409801859) rotate(0 58.849952697753906 12.5)"><text direction="ltr" dominant-baseline="text-before-edge" fill="#1e1e1e" font-family="Virgil, Segoe UI Emoji" font-size="20px" style="white-space: pre;" text-anchor="start" x="0" y="0">Transaction</text></g></svg>