<svg height="231.33433763173872" version="1.1" viewbox="0 0 171.74609375 231.33433763173872" width="171.74609375" xmlns="http://www.w3.org/2000/svg">
<!-- svg-source:excalidraw -->
<!-- payload-type:application/vnd.excalidraw+json --><!-- payload-version:2 -->
<defs>
<style class="style-fonts">
</style>
</defs>
<rect fill="#ffffff" height="231.33433763173872" width="171.74609375" x="0" y="0"></rect><g transform="translate(60.90052285356444 10) rotate(0 26.55799102783203 17.5)"><text direction="ltr" dominant-baseline="text-before-edge" fill="#1e1e1e" font-family="Virgil, Segoe UI Emoji" font-size="28px" style="white-space: pre;" text-anchor="start" x="0" y="0">Pad</text></g><g stroke-linecap="round" transform="translate(24.16796875 72.45933763173872) rotate(0 31.3515625 35.16796875)"><path d="M15.68 0 C25.94 -3.43, 32.21 -0.75, 47.03 0 C54.24 -2.52, 62.43 4.8, 62.7 15.68 C65.7 26.51, 66.26 46.04, 62.7 54.66 C59.23 62.83, 56.93 71.63, 47.03 70.34 C40.38 70.74, 28.46 69.78, 15.68 70.34 C6.23 71.2, -2.21 64.9, 0 54.66 C-0.25 40.45, -2.13 31.53, 0 15.68 C-1.32 8.44, 7.41 3.38, 15.68 0" fill="#e03131" stroke="none" stroke-width="0"></path><path d="M15.68 0 C24.9 1.8, 31.61 -1.32, 47.03 0 M15.68 0 C27.68 0.95, 40.7 0.02, 47.03 0 M47.03 0 C57.64 -1.07, 64.33 6.29, 62.7 15.68 M47.03 0 C57.94 0.13, 61.75 4.72, 62.7 15.68 M62.7 15.68 C64.66 24.27, 64.81 36.35, 62.7 54.66 M62.7 15.68 C62.21 29.78, 63.58 42.19, 62.7 54.66 M62.7 54.66 C62.3 65.27, 57.55 69.24, 47.03 70.34 M62.7 54.66 C62.01 64.27, 57.5 68.85, 47.03 70.34 M47.03 70.34 C38.74 69.91, 30.44 71.86, 15.68 70.34 M47.03 70.34 C35.94 70.4, 24.68 69.48, 15.68 70.34 M15.68 70.34 C5.66 71.88, 1.42 64.87, 0 54.66 M15.68 70.34 C6.94 69.81, 1.72 65.84, 0 54.66 M0 54.66 C0.88 43.22, 1.68 37.18, 0 15.68 M0 54.66 C-1.1 46.68, 0.54 37.07, 0 15.68 M0 15.68 C1.4 5.58, 4.79 -0.27, 15.68 0 M0 15.68 C-0.86 6.72, 5.73 1.61, 15.68 0" fill="none" stroke="#e03131" stroke-width="2"></path></g><g stroke-linecap="round" transform="translate(26.85546875 138.40269700673872) rotate(0 30.369140625 33.171875)"><path d="M15.18 0 C23.96 -0.02, 32.81 -2.03, 45.55 0 C55.4 -0.43, 63.2 4.87, 60.74 15.18 C64.88 24.88, 57.81 29, 60.74 51.16 C60.19 62.58, 54.62 63.69, 45.55 66.34 C33.8 65.62, 26.24 67.24, 15.18 66.34 C2.85 66.13, -0.63 62.58, 0 51.16 C-1.88 42.19, -1.32 38.64, 0 15.18 C2.18 8.44, 4.88 -0.98, 15.18 0" fill="#e03131" stroke="none" stroke-width="0"></path><path d="M15.18 0 C24.72 -1.59, 35.3 -1.92, 45.55 0 M15.18 0 C25.32 -0.25, 33.9 -0.83, 45.55 0 M45.55 0 C57.31 1.06, 61.14 5.18, 60.74 15.18 M45.55 0 C54.72 -0.5, 59.69 6.83, 60.74 15.18 M60.74 15.18 C62.85 26.84, 62.04 36.36, 60.74 51.16 M60.74 15.18 C61.56 25.45, 60.4 37.42, 60.74 51.16 M60.74 51.16 C60.81 60.19, 55.08 65.62, 45.55 66.34 M60.74 51.16 C60.76 59.8, 54.41 64.35, 45.55 66.34 M45.55 66.34 C32.53 67.48, 23.08 66.93, 15.18 66.34 M45.55 66.34 C39.45 65.91, 33.47 67.23, 15.18 66.34 M15.18 66.34 C6.49 66.1, 1.49 60.83, 0 51.16 M15.18 66.34 C6.78 67.07, -1.24 62.76, 0 51.16 M0 51.16 C1.73 41.99, -1.75 29.93, 0 15.18 M0 51.16 C1 41.52, 1.06 32.54, 0 15.18 M0 15.18 C-0.44 4.79, 4.31 1.3, 15.18 0 M0 15.18 C0.51 6.67, 4.83 -0.21, 15.18 0" fill="none" stroke="#e03131" stroke-width="2"></path></g><g stroke-linecap="round" transform="translate(10 60.11168138173872) rotate(0 75.873046875 80.611328125)"><path d="M32 0 C67.97 -1.07, 100.65 0.38, 119.75 0 M32 0 C66.92 -0.57, 102.49 0.5, 119.75 0 M119.75 0 C141.49 0.12, 150.91 10.23, 151.75 32 M119.75 0 C140.03 1.77, 151.76 12.57, 151.75 32 M151.75 32 C153.64 54.25, 152.78 76.64, 151.75 129.22 M151.75 32 C152.49 65.59, 152.72 98.47, 151.75 129.22 M151.75 129.22 C151.15 149.83, 141.1 159.93, 119.75 161.22 M151.75 129.22 C150.48 148.56, 143.12 160.53, 119.75 161.22 M119.75 161.22 C97.65 162.46, 71.31 161.99, 32 161.22 M119.75 161.22 C90.41 161.51, 61.36 160.62, 32 161.22 M32 161.22 C12.16 160.77, 1.5 151.19, 0 129.22 M32 161.22 C9.43 162.7, 0.05 151.85, 0 129.22 M0 129.22 C-2.49 109.56, -1.71 86.87, 0 32 M0 129.22 C0.08 93.45, -0.84 57.19, 0 32 M0 32 C-0.75 11.97, 11.11 1.4, 32 0 M0 32 C-0.23 10.46, 11.67 0.75, 32 0" fill="none" stroke="#1e1e1e" stroke-width="2"></path></g><g stroke-linecap="round" transform="translate(86.9521484375 135.2900736428192) rotate(0 30.369140625 33.171875)"><path d="M15.18 0 C21.65 0.95, 28.82 -1.85, 45.55 0 C55.44 0.24, 58.08 2.26, 60.74 15.18 C63.43 30.43, 58.01 41.06, 60.74 51.16 C60.07 62.69, 52.24 67.77, 45.55 66.34 C36.74 68.49, 30.17 66.69, 15.18 66.34 C7.98 64.85, 0.75 64.25, 0 51.16 C2.79 44.43, -1.95 34.62, 0 15.18 C-3.04 5.03, 2.45 -0.12, 15.18 0" fill="#e03131" stroke="none" stroke-width="0"></path><path d="M15.18 0 C25.68 -1.7, 36.76 0.74, 45.55 0 M15.18 0 C27 1.08, 39.96 0.28, 45.55 0 M45.55 0 C54.45 0.05, 60.27 4.07, 60.74 15.18 M45.55 0 C55.28 0.04, 59.86 5.95, 60.74 15.18 M60.74 15.18 C60.3 23.52, 61.59 32.25, 60.74 51.16 M60.74 15.18 C60.9 25.75, 59.94 36.75, 60.74 51.16 M60.74 51.16 C62.43 59.38, 55.73 67.28, 45.55 66.34 M60.74 51.16 C60.98 61.5, 57.35 65.23, 45.55 66.34 M45.55 66.34 C33.95 64.95, 21.49 67.63, 15.18 66.34 M45.55 66.34 C35.55 66.27, 23.78 65.96, 15.18 66.34 M15.18 66.34 C3.81 64.58, 1.09 61.06, 0 51.16 M15.18 66.34 C2.93 66.93, 1.26 60.66, 0 51.16 M0 51.16 C-1.15 40.29, 0.87 31.01, 0 15.18 M0 51.16 C0.49 41.61, -0.23 31.47, 0 15.18 M0 15.18 C-1.98 5.7, 6.88 1.61, 15.18 0 M0 15.18 C1.49 5.53, 2.98 0.25, 15.18 0" fill="none" stroke="#e03131" stroke-width="2"></path></g></svg>