<svg height="200.94921875" version="1.1" viewbox="0 0 658.23046875 200.94921875" width="658.23046875" xmlns="http://www.w3.org/2000/svg">
<!-- svg-source:excalidraw -->
<!-- payload-type:application/vnd.excalidraw+json --><!-- payload-version:2 -->
<defs>
<style class="style-fonts">
</style>
</defs>
<rect fill="#ffffff" height="200.94921875" width="658.23046875" x="0" y="0"></rect><g stroke-linecap="round" transform="translate(10 42.34375) rotate(0 70.88671875 70.6796875)"><path d="M100.38 6.19 C109.52 9.29, 118.45 18.2, 124.92 26.32 C131.39 34.44, 136.8 44.93, 139.19 54.9 C141.58 64.86, 141.21 76.28, 139.28 86.13 C137.35 95.99, 133.63 105.91, 127.6 114.01 C121.58 122.12, 112.38 130.05, 103.12 134.77 C93.85 139.49, 82.37 142.4, 72.03 142.32 C61.68 142.24, 50.49 138.91, 41.05 134.3 C31.62 129.68, 21.94 122.59, 15.42 114.64 C8.89 106.69, 4.29 96.33, 1.89 86.59 C-0.51 76.86, -1.13 66.22, 1.01 56.24 C3.15 46.25, 8.3 34.86, 14.75 26.66 C21.21 18.46, 30.54 11.35, 39.75 7.01 C48.96 2.68, 58.72 0.15, 70.03 0.66 C81.34 1.18, 100.5 7.53, 107.59 10.1 C114.67 12.68, 113.15 15.09, 112.54 16.13 M76.59 0.23 C86.49 0.52, 99.18 6.3, 108.06 11.37 C116.95 16.45, 124.23 22.1, 129.91 30.66 C135.59 39.23, 140.65 52.21, 142.12 62.77 C143.59 73.33, 142.06 84.59, 138.72 94.02 C135.38 103.44, 129.49 112.03, 122.09 119.34 C114.69 126.66, 103.92 134.31, 94.29 137.9 C84.67 141.49, 74.13 142.11, 64.34 140.9 C54.56 139.69, 44.25 135.71, 35.59 130.64 C26.94 125.57, 18.44 119.12, 12.43 110.47 C6.42 101.83, 1.11 89.2, -0.49 78.76 C-2.08 68.31, -0.69 57.26, 2.83 47.82 C6.35 38.38, 13.53 29.29, 20.66 22.13 C27.8 14.98, 36.11 8.54, 45.64 4.91 C55.16 1.28, 72.67 1.12, 77.81 0.37 C82.95 -0.38, 76.62 -0.94, 76.51 0.42" fill="none" stroke="#1e1e1e" stroke-width="2"></path></g><g stroke-linecap="round" transform="translate(168.78515625 45.890625) rotate(0 70.88671875 70.6796875)"><path d="M92.45 3.9 C102.03 6.17, 112.33 13.5, 119.69 20.65 C127.06 27.81, 132.85 37.38, 136.62 46.85 C140.39 56.32, 143.02 67.24, 142.3 77.47 C141.57 87.69, 137.67 99.28, 132.26 108.2 C126.85 117.12, 118.55 125.61, 109.85 130.99 C101.14 136.36, 90.38 139.44, 80.05 140.45 C69.73 141.46, 57.66 140.33, 47.88 137.06 C38.1 133.79, 28.75 127.76, 21.39 120.83 C14.02 113.91, 7.23 105.12, 3.67 95.52 C0.12 85.91, -1.1 73.53, 0.06 63.21 C1.21 52.88, 5.25 42.12, 10.61 33.58 C15.97 25.05, 23.61 17.5, 32.21 12 C40.81 6.49, 50.84 1.34, 62.19 0.55 C73.55 -0.24, 92.96 5.48, 100.33 7.26 C107.71 9.04, 106.89 10.32, 106.44 11.23 M41.01 7.93 C49.48 2.6, 60.66 -1.51, 71 -1.44 C81.33 -1.37, 93.65 3.44, 103.01 8.36 C112.38 13.28, 120.94 20.31, 127.16 28.07 C133.39 35.83, 138.44 44.98, 140.37 54.93 C142.31 64.88, 141.15 77.76, 138.8 87.77 C136.44 97.78, 132.28 107.27, 126.25 114.99 C120.23 122.71, 111.8 129.48, 102.64 134.08 C93.49 138.68, 82.01 142.73, 71.34 142.58 C60.67 142.43, 48.12 137.97, 38.62 133.17 C29.13 128.37, 20.43 121.54, 14.39 113.76 C8.35 105.99, 4.59 96.34, 2.38 86.55 C0.17 76.76, -1.12 65.08, 1.14 55.03 C3.39 44.99, 9.5 34.54, 15.9 26.28 C22.3 18.02, 35.3 8.32, 39.53 5.48 C43.77 2.64, 40.51 7.77, 41.29 9.24" fill="none" stroke="#1e1e1e" stroke-width="2"></path></g><g stroke-linecap="round" transform="translate(342.01953125 49.58984375) rotate(0 70.88671875 70.6796875)"><path d="M52.09 2.96 C61.25 -0.52, 73.08 -0.13, 83.41 1.66 C93.73 3.46, 105.5 7.59, 114.02 13.73 C122.54 19.88, 129.82 29.3, 134.51 38.54 C139.21 47.79, 141.93 59.17, 142.19 69.21 C142.45 79.24, 140.36 89.69, 136.08 98.78 C131.8 107.87, 124.34 117.12, 116.49 123.75 C108.64 130.37, 98.93 135.7, 88.99 138.52 C79.06 141.35, 67 142.64, 56.89 140.71 C46.78 138.78, 36.43 133.18, 28.34 126.94 C20.25 120.69, 13.1 112.1, 8.35 103.24 C3.61 94.38, 0.23 83.95, -0.13 73.78 C-0.5 63.61, 2.02 51.55, 6.17 42.22 C10.32 32.9, 16.36 24.6, 24.77 17.83 C33.19 11.07, 50.68 4.26, 56.67 1.63 C62.65 -1, 60.63 1.05, 60.69 2.06 M68.26 -1.41 C78.04 -2.78, 91.01 2.64, 100.54 7.21 C110.06 11.77, 118.9 18.45, 125.43 25.96 C131.96 33.47, 137.41 42.42, 139.73 52.28 C142.06 62.14, 141.34 75.01, 139.37 85.11 C137.4 95.2, 133.64 104.88, 127.93 112.84 C122.22 120.8, 114.07 127.91, 105.09 132.87 C96.12 137.82, 84.74 142.3, 74.08 142.55 C63.41 142.79, 50.76 138.77, 41.1 134.32 C31.44 129.88, 22.47 123.4, 16.12 115.88 C9.77 108.35, 5.61 98.89, 3.02 89.2 C0.43 79.5, -1.31 67.83, 0.56 57.7 C2.43 47.57, 8.14 36.93, 14.22 28.43 C20.31 19.93, 28 11.23, 37.09 6.69 C46.17 2.15, 63.38 1.89, 68.75 1.21 C74.12 0.52, 69.34 1.69, 69.29 2.58" fill="none" stroke="#1e1e1e" stroke-width="2"></path></g><g stroke-linecap="round" transform="translate(506.45703125 48.10546875) rotate(0 70.88671875 70.6796875)"><path d="M78.48 0.9 C88.53 0.87, 100.99 5.36, 109.92 10.91 C118.84 16.47, 126.72 25.34, 132.04 34.23 C137.37 43.12, 140.86 54.26, 141.84 64.25 C142.82 74.24, 141.54 84.81, 137.92 94.16 C134.31 103.52, 127.52 113.24, 120.16 120.39 C112.8 127.54, 103.49 133.57, 93.76 137.09 C84.04 140.6, 72.03 142.69, 61.81 141.47 C51.59 140.25, 40.94 135.41, 32.44 129.76 C23.94 124.1, 16.19 116.06, 10.82 107.55 C5.45 99.05, 1.3 88.85, 0.22 78.73 C-0.87 68.61, 0.84 56.43, 4.32 46.84 C7.81 37.25, 13.8 28.34, 21.11 21.19 C28.41 14.04, 38.12 7.39, 48.15 3.96 C58.17 0.52, 75.67 0.98, 81.25 0.6 C86.84 0.22, 81.86 0.43, 81.65 1.67 M98.17 6.21 C107.76 9.26, 116.92 16.78, 123.74 24.04 C130.55 31.31, 136.36 40.06, 139.04 49.82 C141.72 59.58, 141.42 72.43, 139.82 82.59 C138.22 92.75, 134.84 102.59, 129.43 110.76 C124.01 118.94, 116.14 126.37, 107.35 131.64 C98.55 136.92, 87.29 141.81, 76.64 142.42 C65.99 143.03, 53.27 139.42, 43.46 135.32 C33.66 131.21, 24.44 125.07, 17.82 117.79 C11.19 110.52, 6.66 101.26, 3.71 91.66 C0.76 82.06, -1.39 70.41, 0.12 60.22 C1.62 50.02, 6.94 39.22, 12.73 30.51 C18.51 21.79, 25.92 12.77, 34.83 7.91 C43.74 3.05, 55.69 1.62, 66.19 1.34 C76.69 1.05, 92.83 5.45, 97.85 6.19 C102.87 6.94, 96.81 4.9, 96.3 5.81" fill="none" stroke="#1e1e1e" stroke-width="2"></path></g><g transform="translate(47.43359375 11.66796875) rotate(0 26.85997772216797 12.5)"><text direction="ltr" dominant-baseline="text-before-edge" fill="#1e1e1e" font-family="Virgil, Segoe UI Emoji" font-size="20px" style="white-space: pre;" text-anchor="start" x="0" y="0">Hole 1</text></g><g transform="translate(207.99158477783203 12.2578125) rotate(0 31.269973754882812 12.5)"><text direction="ltr" dominant-baseline="text-before-edge" fill="#1e1e1e" font-family="Virgil, Segoe UI Emoji" font-size="20px" style="white-space: pre;" text-anchor="start" x="0" y="0">Hole 2</text></g><g transform="translate(383.0972137451172 13.9140625) rotate(0 30.959976196289062 12.5)"><text direction="ltr" dominant-baseline="text-before-edge" fill="#1e1e1e" font-family="Virgil, Segoe UI Emoji" font-size="20px" style="white-space: pre;" text-anchor="start" x="0" y="0">Hole 3</text></g><g transform="translate(546.3837738037109 10) rotate(0 30.549972534179688 12.5)"><text direction="ltr" dominant-baseline="text-before-edge" fill="#1e1e1e" font-family="Virgil, Segoe UI Emoji" font-size="20px" style="white-space: pre;" text-anchor="start" x="0" y="0">Hole 4</text></g><g stroke-linecap="round" transform="translate(577.251953125 115.423828125) rotate(0 9.0234375 10.732421875)"><path d="M9.57 -0.14 C11.31 -0.25, 13.36 1.12, 14.76 2.71 C16.16 4.3, 17.55 7.09, 17.95 9.41 C18.36 11.73, 18.15 14.71, 17.2 16.62 C16.26 18.53, 14.23 20.18, 12.27 20.88 C10.31 21.59, 7.31 21.75, 5.46 20.84 C3.61 19.93, 2.14 17.5, 1.18 15.43 C0.23 13.36, -0.71 10.57, -0.27 8.43 C0.17 6.29, 2.15 4.06, 3.82 2.61 C5.48 1.16, 8.82 0.18, 9.72 -0.26 C10.62 -0.7, 9.3 -0.25, 9.24 -0.05 M10.64 0.41 C12.43 0.86, 15 2.76, 16.22 4.5 C17.43 6.24, 17.9 8.68, 17.93 10.85 C17.96 13.02, 17.62 15.85, 16.4 17.49 C15.17 19.14, 12.73 20.35, 10.6 20.7 C8.46 21.06, 5.22 20.84, 3.57 19.65 C1.93 18.46, 1.12 15.82, 0.71 13.56 C0.31 11.3, 0.37 8.03, 1.13 6.09 C1.9 4.15, 3.69 2.8, 5.29 1.93 C6.9 1.07, 9.93 1.23, 10.77 0.92 C11.6 0.6, 10.27 -0.13, 10.3 0.03" fill="#e9ecef" stroke="none" stroke-width="0"></path><path d="M10.94 -0.01 C12.72 0.37, 15.15 2.19, 16.28 4.15 C17.41 6.11, 17.87 9.46, 17.72 11.75 C17.57 14.04, 16.66 16.33, 15.39 17.92 C14.13 19.5, 12.03 20.92, 10.12 21.26 C8.2 21.6, 5.53 21.24, 3.92 19.98 C2.31 18.73, 0.97 15.92, 0.44 13.73 C-0.08 11.53, -0.03 8.92, 0.75 6.83 C1.53 4.74, 3.28 2.25, 5.13 1.18 C6.97 0.12, 10.71 0.53, 11.82 0.42 C12.92 0.32, 11.81 0.34, 11.75 0.55 M11.2 0.77 C13.1 1.26, 15.14 2.86, 16.3 4.5 C17.47 6.15, 18.35 8.37, 18.18 10.65 C18.01 12.94, 16.57 16.44, 15.3 18.21 C14.03 19.98, 12.27 21.01, 10.57 21.26 C8.87 21.51, 6.71 20.76, 5.11 19.7 C3.51 18.63, 1.81 17.07, 0.97 14.85 C0.13 12.64, -0.49 8.71, 0.06 6.41 C0.61 4.11, 2.41 2.04, 4.25 1.05 C6.09 0.07, 10.07 0.56, 11.08 0.5 C12.1 0.44, 10.4 0.55, 10.32 0.68" fill="none" stroke="#1e1e1e" stroke-width="2"></path></g><g stroke-linecap="round" transform="translate(214.669921875 80.0390625) rotate(0 9.0234375 10.732421875)"><path d="M9.75 0.12 C11.53 0.29, 14.05 1.9, 15.51 3.6 C16.96 5.29, 18.28 8.06, 18.47 10.3 C18.66 12.53, 17.92 15.19, 16.66 17.01 C15.4 18.83, 12.83 20.75, 10.91 21.23 C9 21.71, 6.91 20.95, 5.15 19.9 C3.39 18.84, 1.08 16.87, 0.35 14.89 C-0.37 12.91, 0.15 10.25, 0.81 8.04 C1.47 5.82, 2.75 2.95, 4.31 1.59 C5.87 0.22, 9.06 0.06, 10.17 -0.15 C11.27 -0.36, 10.86 0.05, 10.96 0.31 M7.85 0.52 C9.67 0.01, 11.94 0.32, 13.67 1.4 C15.4 2.48, 17.57 4.89, 18.24 7 C18.91 9.11, 18.62 11.91, 17.68 14.07 C16.74 16.24, 14.29 18.88, 12.58 19.98 C10.87 21.09, 9.13 21.25, 7.43 20.71 C5.74 20.16, 3.57 18.31, 2.42 16.7 C1.27 15.09, 0.58 13.12, 0.55 11.05 C0.51 8.98, 1.09 6.16, 2.2 4.27 C3.32 2.38, 6.25 0.26, 7.21 -0.29 C8.18 -0.85, 7.94 0.61, 8.01 0.92" fill="#e9ecef" stroke="none" stroke-width="0"></path><path d="M8.2 -0.2 C10.01 -0.42, 12.31 0.93, 13.88 2.24 C15.44 3.56, 17.02 5.55, 17.59 7.7 C18.17 9.84, 18.13 12.93, 17.32 15.11 C16.52 17.29, 14.52 19.78, 12.76 20.78 C11.01 21.78, 8.64 21.68, 6.79 21.1 C4.93 20.53, 2.74 19.2, 1.62 17.33 C0.51 15.46, -0.06 12.27, 0.12 9.89 C0.3 7.52, 1.36 4.8, 2.73 3.09 C4.1 1.38, 7.25 0.09, 8.34 -0.36 C9.44 -0.81, 9.17 0.15, 9.31 0.37 M7.15 0.85 C8.85 0.06, 11.55 -0.14, 13.14 0.86 C14.74 1.86, 15.96 4.72, 16.74 6.85 C17.51 8.98, 18.14 11.57, 17.81 13.66 C17.48 15.75, 16.31 18.02, 14.76 19.41 C13.21 20.8, 10.65 22.3, 8.52 22.01 C6.39 21.72, 3.46 19.48, 1.97 17.67 C0.49 15.86, -0.39 13.3, -0.37 11.14 C-0.35 8.98, 0.95 6.46, 2.1 4.7 C3.24 2.94, 5.68 1.28, 6.5 0.59 C7.31 -0.11, 6.97 0.52, 6.98 0.54" fill="none" stroke="#1e1e1e" stroke-width="2"></path></g><g stroke-linecap="round" transform="translate(252.951171875 97.67578125) rotate(0 9.0234375 10.732421875)"><path d="M11.03 -0.05 C12.81 0.26, 15.23 2.5, 16.31 4.31 C17.4 6.13, 17.69 8.47, 17.54 10.83 C17.38 13.2, 16.59 16.68, 15.39 18.5 C14.2 20.32, 12.29 21.58, 10.37 21.74 C8.44 21.9, 5.57 20.76, 3.86 19.46 C2.15 18.15, 0.66 16, 0.11 13.92 C-0.44 11.84, -0.28 9.14, 0.56 6.97 C1.39 4.8, 3.3 1.97, 5.1 0.89 C6.91 -0.18, 10.22 0.51, 11.37 0.54 C12.51 0.57, 12.03 0.95, 12 1.07 M10.29 -0.46 C12.14 -0.13, 14.74 2.41, 15.95 4.42 C17.15 6.44, 17.66 9.3, 17.51 11.65 C17.36 13.99, 16.14 16.89, 15.04 18.49 C13.93 20.1, 12.59 21.14, 10.9 21.27 C9.21 21.4, 6.71 20.45, 4.9 19.28 C3.09 18.11, 0.63 16.39, 0.03 14.25 C-0.58 12.12, 0.4 8.64, 1.27 6.47 C2.13 4.3, 3.63 2.2, 5.21 1.23 C6.8 0.26, 9.77 0.77, 10.76 0.67 C11.76 0.56, 11.3 0.47, 11.2 0.59" fill="#e9ecef" stroke="none" stroke-width="0"></path><path d="M8.23 -0.06 C10.15 -0.36, 13.05 0.76, 14.64 2.12 C16.23 3.48, 17.28 5.86, 17.77 8.09 C18.26 10.32, 18.4 13.41, 17.57 15.5 C16.74 17.59, 14.64 19.77, 12.79 20.62 C10.95 21.47, 8.42 21.26, 6.49 20.61 C4.56 19.96, 2.24 18.49, 1.19 16.72 C0.14 14.96, -0.04 12.38, 0.19 10.02 C0.43 7.66, 1.14 4.15, 2.61 2.55 C4.09 0.94, 7.93 0.72, 9.04 0.39 C10.15 0.06, 9.3 0.49, 9.27 0.57 M7.33 0.9 C9 0.43, 11.44 0.94, 13.23 1.87 C15.03 2.8, 17.46 4.44, 18.09 6.46 C18.73 8.47, 17.84 11.63, 17.04 13.94 C16.24 16.26, 14.82 19.18, 13.29 20.34 C11.75 21.51, 9.64 21.37, 7.83 20.94 C6.02 20.51, 3.73 19.53, 2.43 17.76 C1.13 15.98, 0.19 12.59, 0.02 10.29 C-0.15 7.99, 0.09 5.58, 1.41 3.95 C2.74 2.31, 6.88 1.11, 7.98 0.48 C9.08 -0.15, 8.11 0.04, 7.99 0.18" fill="none" stroke="#1e1e1e" stroke-width="2"></path></g><g stroke-linecap="round" transform="translate(548.857421875 85.3046875) rotate(0 9.0234375 10.732421875)"><path d="M8.21 0.11 C10 -0.33, 12.43 0.67, 14.04 1.98 C15.64 3.28, 17.21 5.87, 17.83 7.95 C18.46 10.02, 18.5 12.38, 17.78 14.44 C17.05 16.49, 15.35 19.2, 13.48 20.26 C11.61 21.33, 8.5 21.31, 6.56 20.84 C4.62 20.37, 2.99 19.24, 1.85 17.44 C0.71 15.65, -0.31 12.37, -0.28 10.07 C-0.25 7.78, 0.68 5.32, 2.06 3.65 C3.44 1.97, 6.82 0.56, 8.01 0.02 C9.19 -0.51, 9.12 0.3, 9.18 0.42 M10.34 -0.58 C12.2 -0.38, 14.82 1.32, 16.15 3.2 C17.47 5.08, 18.2 8.4, 18.3 10.7 C18.39 12.99, 18.05 15.16, 16.71 16.95 C15.37 18.74, 12.38 20.92, 10.28 21.44 C8.18 21.96, 5.78 21.1, 4.12 20.05 C2.46 19.01, 1.04 17.29, 0.32 15.19 C-0.41 13.08, -0.79 9.61, -0.23 7.45 C0.33 5.28, 1.87 3.45, 3.7 2.18 C5.52 0.91, 9.65 0.09, 10.74 -0.16 C11.84 -0.42, 10.26 0.32, 10.28 0.65" fill="#e9ecef" stroke="none" stroke-width="0"></path><path d="M7.08 -0.3 C8.81 -0.72, 11.61 0.67, 13.4 1.98 C15.18 3.29, 17.14 5.51, 17.77 7.55 C18.4 9.6, 17.96 12.15, 17.19 14.25 C16.42 16.34, 14.81 18.88, 13.14 20.12 C11.48 21.36, 9 22.17, 7.18 21.69 C5.37 21.21, 3.45 19.06, 2.23 17.24 C1.01 15.41, -0.16 12.92, -0.15 10.71 C-0.15 8.51, 0.91 5.8, 2.26 4 C3.6 2.2, 6.82 0.6, 7.92 -0.07 C9.02 -0.74, 8.8 -0.15, 8.86 -0.02 M6.4 0.78 C8.08 0.19, 10.47 0.74, 12.4 1.68 C14.32 2.61, 16.97 4.44, 17.96 6.37 C18.96 8.31, 19.09 11.01, 18.36 13.27 C17.63 15.53, 15.22 18.62, 13.59 19.94 C11.96 21.26, 10.37 21.5, 8.58 21.2 C6.8 20.89, 4.32 19.67, 2.86 18.1 C1.4 16.53, -0.03 14.06, -0.16 11.79 C-0.29 9.52, 0.99 6.37, 2.08 4.47 C3.17 2.58, 5.64 1, 6.38 0.41 C7.11 -0.18, 6.35 0.82, 6.49 0.95" fill="none" stroke="#1e1e1e" stroke-width="2"></path></g><g stroke-linecap="round" transform="translate(215.169921875 124.890625) rotate(0 9.0234375 10.732421875)"><path d="M10.31 0.33 C12.01 0.58, 14.14 1.99, 15.36 3.6 C16.59 5.22, 17.49 7.71, 17.65 10.03 C17.82 12.35, 17.52 15.62, 16.35 17.52 C15.18 19.43, 12.54 21.07, 10.64 21.47 C8.74 21.86, 6.56 21.06, 4.94 19.89 C3.32 18.71, 1.62 16.45, 0.92 14.4 C0.23 12.35, 0.18 9.67, 0.78 7.59 C1.37 5.52, 2.83 3.24, 4.49 1.96 C6.14 0.69, 9.59 0.22, 10.73 -0.04 C11.88 -0.29, 11.44 0.29, 11.35 0.43 M7.88 -0.41 C9.62 -0.81, 11.71 0.45, 13.28 1.74 C14.85 3.04, 16.71 5.32, 17.3 7.36 C17.88 9.4, 17.54 11.76, 16.77 13.97 C16 16.18, 14.26 19.37, 12.65 20.62 C11.05 21.86, 8.88 21.95, 7.14 21.44 C5.4 20.93, 3.42 19.33, 2.21 17.57 C1.01 15.8, -0.08 13.24, -0.08 10.84 C-0.08 8.44, 0.92 4.9, 2.2 3.17 C3.47 1.45, 6.59 1.07, 7.55 0.49 C8.51 -0.09, 7.95 -0.37, 7.96 -0.29" fill="#e9ecef" stroke="none" stroke-width="0"></path><path d="M8.1 0.5 C9.93 0.04, 12.5 0.29, 14.16 1.5 C15.82 2.72, 17.55 5.54, 18.06 7.79 C18.57 10.05, 18.06 12.88, 17.22 15.04 C16.39 17.19, 14.83 19.66, 13.05 20.72 C11.27 21.77, 8.47 22.01, 6.53 21.36 C4.58 20.71, 2.57 18.7, 1.4 16.81 C0.24 14.93, -0.71 12.28, -0.47 10.05 C-0.23 7.82, 1.44 5.15, 2.83 3.42 C4.22 1.68, 6.91 0.19, 7.88 -0.35 C8.85 -0.88, 8.62 0.03, 8.64 0.22 M7.03 0.82 C8.99 0.29, 12.19 0.28, 13.91 1.33 C15.64 2.38, 16.72 5, 17.39 7.12 C18.06 9.24, 18.5 11.99, 17.92 14.03 C17.35 16.07, 15.58 18.12, 13.94 19.36 C12.3 20.6, 9.95 21.66, 8.09 21.47 C6.22 21.29, 4.03 19.93, 2.76 18.25 C1.49 16.57, 0.59 13.7, 0.49 11.39 C0.39 9.08, 1.14 6.2, 2.16 4.38 C3.18 2.55, 5.73 1.1, 6.62 0.44 C7.51 -0.22, 7.39 0.24, 7.5 0.43" fill="none" stroke="#1e1e1e" stroke-width="2"></path></g><g stroke-linecap="round" transform="translate(411.837890625 96.7734375) rotate(0 9.0234375 10.732421875)"><path d="M7.25 -0.04 C8.95 -0.58, 11.65 0.51, 13.27 1.75 C14.9 2.99, 16.22 5.36, 17 7.4 C17.77 9.44, 18.5 11.85, 17.91 14 C17.32 16.16, 15.16 19.15, 13.45 20.32 C11.74 21.49, 9.48 21.4, 7.65 21.01 C5.82 20.61, 3.74 19.59, 2.47 17.96 C1.21 16.33, 0.19 13.5, 0.07 11.24 C-0.04 8.97, 0.53 6.18, 1.79 4.39 C3.04 2.6, 6.61 1.22, 7.6 0.49 C8.59 -0.24, 7.64 -0.16, 7.71 0.01 M8.68 0.57 C10.43 0.41, 12.92 1.45, 14.48 2.64 C16.03 3.83, 17.51 5.69, 18 7.69 C18.49 9.68, 18.18 12.38, 17.42 14.6 C16.65 16.83, 15.27 19.89, 13.44 21.04 C11.6 22.18, 8.27 22.05, 6.39 21.46 C4.51 20.87, 3.14 19.4, 2.15 17.5 C1.17 15.6, 0.46 12.47, 0.5 10.07 C0.53 7.66, 1.08 4.77, 2.37 3.09 C3.66 1.41, 7.36 0.38, 8.23 -0.03 C9.09 -0.44, 7.58 0.56, 7.57 0.63" fill="#e9ecef" stroke="none" stroke-width="0"></path><path d="M7.63 0.51 C9.37 -0.09, 11.86 0.11, 13.58 1.18 C15.29 2.25, 17.29 4.82, 17.9 6.94 C18.52 9.06, 18.02 11.76, 17.26 13.92 C16.49 16.08, 14.95 18.64, 13.31 19.89 C11.66 21.15, 9.31 21.87, 7.4 21.46 C5.48 21.04, 3.03 19.21, 1.81 17.41 C0.6 15.61, 0.07 12.97, 0.12 10.65 C0.16 8.32, 0.9 5.31, 2.09 3.48 C3.28 1.64, 6.21 0.2, 7.25 -0.34 C8.3 -0.89, 8.25 -0.07, 8.37 0.21 M9.38 -0.45 C11.22 -0.49, 13.54 1.68, 15.01 3.21 C16.49 4.74, 18 6.55, 18.24 8.74 C18.47 10.94, 17.38 14.33, 16.42 16.35 C15.45 18.38, 14.25 20.22, 12.44 20.89 C10.63 21.57, 7.59 21.26, 5.56 20.41 C3.53 19.57, 1.1 17.76, 0.27 15.82 C-0.56 13.88, -0.03 11.03, 0.6 8.78 C1.23 6.53, 2.63 3.75, 4.03 2.34 C5.43 0.92, 8.12 0.61, 9 0.28 C9.88 -0.04, 9.22 0.24, 9.33 0.39" fill="none" stroke="#1e1e1e" stroke-width="2"></path></g></svg>