<svg height="233.6494140625" version="1.1" viewbox="0 0 190 233.6494140625" width="190" xmlns="http://www.w3.org/2000/svg">
<!-- svg-source:excalidraw -->
<!-- payload-type:application/vnd.excalidraw+json --><!-- payload-version:2 -->
<defs>
<style class="style-fonts">
</style>
</defs>
<rect fill="#ffffff" height="233.6494140625" width="190" x="0" y="0"></rect><g transform="translate(70.73682403564453 71.1025390625) rotate(0 18 72.9)"><text direction="ltr" dominant-baseline="text-before-edge" fill="#1e1e1e" font-family="Segoe UI Emoji" font-size="36px" style="white-space: pre;" text-anchor="middle" x="18" y="0">30</text><text direction="ltr" dominant-baseline="text-before-edge" fill="#1e1e1e" font-family="Segoe UI Emoji" font-size="36px" style="white-space: pre;" text-anchor="middle" x="18" y="48.6">12</text><text direction="ltr" dominant-baseline="text-before-edge" fill="#1e1e1e" font-family="Segoe UI Emoji" font-size="36px" style="white-space: pre;" text-anchor="middle" x="18" y="97.2">...</text></g><g stroke-linecap="round" transform="translate(10 68) rotate(0 85 77.82470703125)"><path d="M32 0 C72.67 1.98, 111.2 2.59, 138 0 M32 0 C68.07 0.11, 102.06 -0.62, 138 0 M138 0 C160.71 -1.75, 169.09 9.56, 170 32 M138 0 C159.84 -0.12, 170.51 11.7, 170 32 M170 32 C169.25 58.46, 170.44 83.46, 170 123.65 M170 32 C169.98 66.38, 169.74 101.85, 170 123.65 M170 123.65 C168.61 143.94, 161.25 157.22, 138 155.65 M170 123.65 C169.66 146.86, 160.15 156.99, 138 155.65 M138 155.65 C104.96 155.51, 70.49 155.73, 32 155.65 M138 155.65 C97.89 155.45, 59.4 155.49, 32 155.65 M32 155.65 C11.83 155.08, -0.04 144.54, 0 123.65 M32 155.65 C11.9 157.11, -0.71 144.43, 0 123.65 M0 123.65 C-2.7 95.22, -0.87 71.82, 0 32 M0 123.65 C0.98 89.12, 1.02 53.9, 0 32 M0 32 C0.33 11.59, 12.1 -1.46, 32 0 M0 32 C0.54 9.63, 11.73 -1.07, 32 0" fill="none" stroke="#1e1e1e" stroke-width="2"></path></g><g transform="translate(46.173828125 10) rotate(0 44.84197235107422 17.5)"><text direction="ltr" dominant-baseline="text-before-edge" fill="#1e1e1e" font-family="Virgil, Segoe UI Emoji" font-size="28px" style="white-space: pre;" text-anchor="start" x="0" y="0">Sketch</text></g></svg>