<svg height="231.33433763173878" version="1.1" viewbox="0 0 171.74609375 231.33433763173878" width="171.74609375" xmlns="http://www.w3.org/2000/svg">
<!-- svg-source:excalidraw -->
<!-- payload-type:application/vnd.excalidraw+json --><!-- payload-version:2 -->
<defs>
<style class="style-fonts">
</style>
</defs>
<rect fill="#ffffff" height="231.33433763173878" width="171.74609375" x="0" y="0"></rect><g transform="translate(60.90052285356455 10) rotate(0 26.55799102783203 17.5)"><text direction="ltr" dominant-baseline="text-before-edge" fill="#1e1e1e" font-family="Virgil, Segoe UI Emoji" font-size="28px" style="white-space: pre;" text-anchor="start" x="0" y="0">Pad</text></g><g stroke-linecap="round" transform="translate(24.16796875 72.45933763173878) rotate(0 31.3515625 35.16796875)"><path d="M15.68 0 C24.67 0.79, 35.21 -2.17, 47.03 0 C57.89 1.44, 61.79 8.18, 62.7 15.68 C66.46 28.19, 62.76 37.44, 62.7 54.66 C64.52 67.27, 54.36 73.89, 47.03 70.34 C38.55 68.4, 31.27 70.25, 15.68 70.34 C7 68, -3.22 64.05, 0 54.66 C-0.74 43.51, 0.92 32.37, 0 15.68 C2.87 5.02, 8.19 -1.29, 15.68 0" fill="#e03131" stroke="none" stroke-width="0"></path><path d="M15.68 0 C22.47 -0.06, 30.49 -0.11, 47.03 0 M15.68 0 C25.71 1.13, 35.72 -0.2, 47.03 0 M47.03 0 C57.01 1.64, 62.45 4.8, 62.7 15.68 M47.03 0 C56.76 1.8, 62.66 7.07, 62.7 15.68 M62.7 15.68 C61.2 29.29, 62.3 46.87, 62.7 54.66 M62.7 15.68 C63.2 30.6, 63.37 47.17, 62.7 54.66 M62.7 54.66 C62.12 67.04, 58.65 69.22, 47.03 70.34 M62.7 54.66 C62.6 65.24, 56.18 68.15, 47.03 70.34 M47.03 70.34 C39.45 71.8, 32.91 72.03, 15.68 70.34 M47.03 70.34 C36.06 70.47, 24.85 70.71, 15.68 70.34 M15.68 70.34 C3.47 70.86, 0.3 66.31, 0 54.66 M15.68 70.34 C7.22 70.68, 1.74 64.77, 0 54.66 M0 54.66 C0.17 43.01, -1.02 32.49, 0 15.68 M0 54.66 C-1 41, -0.66 29.17, 0 15.68 M0 15.68 C-0.64 4.11, 6.06 0.55, 15.68 0 M0 15.68 C1.82 4.07, 5.64 -1.78, 15.68 0" fill="none" stroke="#e03131" stroke-width="2"></path></g><g stroke-linecap="round" transform="translate(80.4375 137.81285325673878) rotate(0 30.369140625 33.171875)"><path d="M15.18 0 C27.93 -2.16, 35.44 1.29, 45.55 0 C54.76 2.96, 58.64 7.78, 60.74 15.18 C60.84 29.71, 63.14 40.55, 60.74 51.16 C57.62 64.84, 55.14 63.45, 45.55 66.34 C39.14 66.09, 30.28 63.73, 15.18 66.34 C1.85 65.28, 0.86 60.23, 0 51.16 C0.88 41.6, 3.04 25.91, 0 15.18 C2.96 3.77, 6.63 2.38, 15.18 0" fill="#e03131" stroke="none" stroke-width="0"></path><path d="M15.18 0 C27.41 0.1, 38.58 -0.05, 45.55 0 M15.18 0 C21.04 -0.76, 27.25 0.57, 45.55 0 M45.55 0 C55.43 -0.42, 60.11 6.63, 60.74 15.18 M45.55 0 C55.64 1.85, 62.88 4.33, 60.74 15.18 M60.74 15.18 C60.21 24.31, 62.46 31.02, 60.74 51.16 M60.74 15.18 C61.93 26.61, 60.71 38.17, 60.74 51.16 M60.74 51.16 C61.91 60.16, 55.58 66.46, 45.55 66.34 M60.74 51.16 C59.44 59.1, 53.68 66.12, 45.55 66.34 M45.55 66.34 C35.92 68.29, 29.07 64.88, 15.18 66.34 M45.55 66.34 C39.39 67.08, 31.16 66.72, 15.18 66.34 M15.18 66.34 C5.36 67.55, 1.73 61.58, 0 51.16 M15.18 66.34 C6.8 66, -0.24 59.67, 0 51.16 M0 51.16 C-1.28 39.98, 0.74 29.19, 0 15.18 M0 51.16 C-0.15 43.42, -0.04 33.69, 0 15.18 M0 15.18 C0.84 5.61, 6.64 -1.01, 15.18 0 M0 15.18 C0.42 3.28, 4.29 1.47, 15.18 0" fill="none" stroke="#e03131" stroke-width="2"></path></g><g stroke-linecap="round" transform="translate(10 60.11168138173878) rotate(0 75.873046875 80.611328125)"><path d="M32 0 C59.61 -0.08, 84.29 -0.31, 119.75 0 M32 0 C65.36 1.26, 99.07 0.23, 119.75 0 M119.75 0 C140.46 1.57, 151.71 12.27, 151.75 32 M119.75 0 C143.22 -0.73, 150.32 9.08, 151.75 32 M151.75 32 C153.58 51.58, 151.73 75.23, 151.75 129.22 M151.75 32 C152.35 56.16, 153.22 77.83, 151.75 129.22 M151.75 129.22 C151.65 150.67, 139.95 159.33, 119.75 161.22 M151.75 129.22 C149.74 150.33, 140.9 160.19, 119.75 161.22 M119.75 161.22 C88.17 160.29, 52.52 162.81, 32 161.22 M119.75 161.22 C89.24 162.03, 60.63 162.37, 32 161.22 M32 161.22 C12.4 161.52, 1.51 150.26, 0 129.22 M32 161.22 C10.43 159.61, 0.51 150.44, 0 129.22 M0 129.22 C1.35 103.02, -0.67 72.87, 0 32 M0 129.22 C0.09 104.92, 0.83 82.01, 0 32 M0 32 C1.58 9.66, 11.03 -1.55, 32 0 M0 32 C-0.77 12.13, 11.28 0.41, 32 0" fill="none" stroke="#1e1e1e" stroke-width="2"></path></g><g stroke-linecap="round" transform="translate(84.1748046875 73.53226114281927) rotate(0 30.369140625 33.171875)"><path d="M15.18 0 C21.68 2.74, 27.9 2.5, 45.55 0 C56.49 3.23, 63.83 4.59, 60.74 15.18 C57.95 32.45, 60.53 39.71, 60.74 51.16 C60.05 61.74, 53.85 68.46, 45.55 66.34 C33.21 64.93, 28.15 64.94, 15.18 66.34 C6.79 65.4, 1.48 62, 0 51.16 C2.45 36.11, 1.05 26.03, 0 15.18 C3.38 8.05, 5.31 1.02, 15.18 0" fill="#e03131" stroke="none" stroke-width="0"></path><path d="M15.18 0 C22.54 -0.25, 35.46 -0.58, 45.55 0 M15.18 0 C22.63 -0.46, 30.02 0.54, 45.55 0 M45.55 0 C55.64 1.61, 62.6 4.42, 60.74 15.18 M45.55 0 C54.25 -1.58, 58.78 4.74, 60.74 15.18 M60.74 15.18 C61.21 28.47, 59.86 40.62, 60.74 51.16 M60.74 15.18 C61.22 26.9, 60.59 39.8, 60.74 51.16 M60.74 51.16 C59.61 59.38, 53.94 66.15, 45.55 66.34 M60.74 51.16 C60.56 60.25, 57.38 65.47, 45.55 66.34 M45.55 66.34 C32.28 66.92, 22.87 67.28, 15.18 66.34 M45.55 66.34 C34.71 67.02, 24.43 66.57, 15.18 66.34 M15.18 66.34 C6.58 66.05, -0.21 59.88, 0 51.16 M15.18 66.34 C5.57 66.23, -0.42 59.79, 0 51.16 M0 51.16 C-1.43 38.09, -1.25 27.25, 0 15.18 M0 51.16 C0.53 38.06, 0.91 23.91, 0 15.18 M0 15.18 C0.36 3.52, 4.39 1.28, 15.18 0 M0 15.18 C0.62 5.47, 5.66 1.8, 15.18 0" fill="none" stroke="#e03131" stroke-width="2"></path></g><g stroke-linecap="round" transform="translate(28.76953125 140.98357506586933) rotate(0 30.369140625 33.171875)"><path d="M15.18 0 C20.57 2.57, 25.82 3.37, 45.55 0 C54.15 -0.98, 63.51 6.07, 60.74 15.18 C59.9 24.04, 61.7 31.51, 60.74 51.16 C57.27 59.43, 52.93 66.98, 45.55 66.34 C36.44 65.88, 30.33 66.59, 15.18 66.34 C2.47 67.07, 2.5 58.8, 0 51.16 C0.62 40.19, -1.45 36.27, 0 15.18 C2.44 1.65, 8.01 1.04, 15.18 0" fill="#e03131" stroke="none" stroke-width="0"></path><path d="M15.18 0 C24.3 1.42, 33 -0.95, 45.55 0 M15.18 0 C23.68 -0.53, 29.71 0.03, 45.55 0 M45.55 0 C55.55 0.63, 60.87 6.09, 60.74 15.18 M45.55 0 C53.92 -0.76, 60.56 5.92, 60.74 15.18 M60.74 15.18 C59.4 26.49, 61.35 35.58, 60.74 51.16 M60.74 15.18 C59.97 23.34, 59.81 33.64, 60.74 51.16 M60.74 51.16 C60.75 62.17, 56.21 64.84, 45.55 66.34 M60.74 51.16 C59.61 59.15, 56.49 65.04, 45.55 66.34 M45.55 66.34 C36.04 65.81, 27.82 66.23, 15.18 66.34 M45.55 66.34 C33.01 66.08, 22.21 65.86, 15.18 66.34 M15.18 66.34 C5.46 65.06, 1.56 59.99, 0 51.16 M15.18 66.34 C3.03 66.24, -2.26 59.11, 0 51.16 M0 51.16 C0.3 38.74, 0.89 24.74, 0 15.18 M0 51.16 C-0.37 43.6, 0.25 35, 0 15.18 M0 15.18 C-1.93 3.61, 3.27 -0.97, 15.18 0 M0 15.18 C2.06 6.47, 3.75 -1.54, 15.18 0" fill="none" stroke="#e03131" stroke-width="2"></path></g><g stroke-linecap="round" transform="translate(29.625 118.46404381586933) rotate(0 53.9453125 40.376953125)"><path d="M20.19 0 C31.89 -2.13, 48.15 -1.83, 87.7 0 C103.98 -2.49, 108.51 8.62, 107.89 20.19 C106.94 30.95, 108.31 46.07, 107.89 60.57 C108.82 74.42, 102.75 77.3, 87.7 80.75 C72.93 82.21, 56.49 78.42, 20.19 80.75 C9.35 80.48, 1.7 75.71, 0 60.57 C-0.65 48.89, -1.68 40.48, 0 20.19 C1.98 3.87, 5.61 -2.27, 20.19 0" fill="#e03131" stroke="none" stroke-width="0"></path><path d="M20.19 0 C35.98 0.79, 52.23 1.35, 87.7 0 M20.19 0 C36.92 -0.33, 54.32 0.89, 87.7 0 M87.7 0 C101.12 -1.46, 109.88 4.87, 107.89 20.19 M87.7 0 C103.08 -0.79, 106.33 6.56, 107.89 20.19 M107.89 20.19 C108 36.62, 106.65 48.74, 107.89 60.57 M107.89 20.19 C107.51 36.49, 108.54 52.92, 107.89 60.57 M107.89 60.57 C105.96 75.13, 103.01 81.37, 87.7 80.75 M107.89 60.57 C109.96 73.67, 99.42 81.39, 87.7 80.75 M87.7 80.75 C65.8 81.51, 45.34 83.25, 20.19 80.75 M87.7 80.75 C69.24 79.53, 51.06 80.55, 20.19 80.75 M20.19 80.75 C7.87 82.04, 0.72 73.31, 0 60.57 M20.19 80.75 C8.71 82.94, -1.64 76.15, 0 60.57 M0 60.57 C-1.97 53.94, -0.7 44.36, 0 20.19 M0 60.57 C-0.4 50.53, 0.39 40.5, 0 20.19 M0 20.19 C0.15 6.77, 7.81 0.2, 20.19 0 M0 20.19 C-0.32 8.77, 5.89 0.05, 20.19 0" fill="none" stroke="#e03131" stroke-width="2"></path></g></svg>