<svg height="776.6484375" version="1.1" viewbox="0 0 743.30078125 776.6484375" width="743.30078125" xmlns="http://www.w3.org/2000/svg">
<!-- svg-source:excalidraw -->
<!-- payload-type:application/vnd.excalidraw+json --><!-- payload-version:2 -->
<defs>
<style class="style-fonts">
</style>
</defs>
<rect fill="#ffffff" height="776.6484375" width="743.30078125" x="0" y="0"></rect><g transform="translate(515.0703125 161.34375) rotate(0 37.51996612548828 12.5)"><text direction="ltr" dominant-baseline="text-before-edge" fill="#1e1e1e" font-family="Virgil, Segoe UI Emoji" font-size="20px" style="white-space: pre;" text-anchor="start" x="0" y="0">user123</text></g><g transform="translate(485.30078125 116.5390625) rotate(0 67.449951171875 12.5)"><text direction="ltr" dominant-baseline="text-before-edge" fill="#1e1e1e" font-family="Virgil, Segoe UI Emoji" font-size="20px" style="white-space: pre;" text-anchor="start" x="0" y="0">1. Input Value</text></g><g stroke-linecap="round"><g transform="translate(548.5546875 201.23828125) rotate(0 0.171875 30.970703125)"><path d="M0.86 0.4 C0.87 10.75, -0.71 52.3, -0.69 62.43 M-0.15 -0.44 C0.3 9.52, 1.36 50.14, 1.48 60.56" fill="none" stroke="#1e1e1e" stroke-width="2"></path></g><g transform="translate(548.5546875 201.23828125) rotate(0 0.171875 30.970703125)"><path d="M-9.35 32.58 C-6.08 37.3, -3.42 46.6, 1.48 60.56 M-9.35 32.58 C-7.21 38.46, -3.85 46.58, 1.48 60.56" fill="none" stroke="#1e1e1e" stroke-width="2"></path></g><g transform="translate(548.5546875 201.23828125) rotate(0 0.171875 30.970703125)"><path d="M11.17 32.17 C9.65 37.13, 7.54 46.53, 1.48 60.56 M11.17 32.17 C8.45 38.21, 6.95 46.43, 1.48 60.56" fill="none" stroke="#1e1e1e" stroke-width="2"></path></g></g><mask></mask><g transform="translate(510.26953125 275.96484375) rotate(0 37.40997314453125 12.5)"><text direction="ltr" dominant-baseline="text-before-edge" fill="#1e1e1e" font-family="Virgil, Segoe UI Emoji" font-size="20px" style="white-space: pre;" text-anchor="start" x="0" y="0">2. Hash</text></g><g transform="translate(490.45703125 326.37109375) rotate(0 64.482421875 23)"><text direction="ltr" dominant-baseline="text-before-edge" fill="#1e1e1e" font-family="Helvetica, Segoe UI Emoji" font-size="20px" style="white-space: pre;" text-anchor="start" x="0" y="0">hash(user123)</text><text direction="ltr" dominant-baseline="text-before-edge" fill="#1e1e1e" font-family="Helvetica, Segoe UI Emoji" font-size="20px" style="white-space: pre;" text-anchor="start" x="0" y="23"></text></g><g transform="translate(484.62109375 384.83984375) rotate(0 11.71875 12)"><text direction="ltr" dominant-baseline="text-before-edge" fill="#1e1e1e" font-family="Cascadia, Segoe UI Emoji" font-size="20px" style="white-space: pre;" text-anchor="start" x="0" y="0">01</text></g><g transform="translate(527.509765625 384.1328125) rotate(0 58.59375 12)"><text direction="ltr" dominant-baseline="text-before-edge" fill="#1e1e1e" font-family="Cascadia, Segoe UI Emoji" font-size="20px" style="white-space: pre;" text-anchor="start" x="0" y="0">0101110101</text></g><g stroke-linecap="round"><g transform="translate(432.6015625 446.56640625) rotate(0 22.927734375 -15.658203125)"><path d="M-0.31 -0.01 C6.22 -1.15, 31.51 -2.15, 39.03 -7.29 C46.55 -12.44, 43.65 -26.83, 44.79 -30.89 M1.73 -1.07 C8.17 -1.97, 30.87 -0.54, 38.43 -5.86 C46 -11.19, 45.84 -28.86, 47.12 -33.01" fill="none" stroke="#1e1e1e" stroke-width="1"></path></g><g transform="translate(432.6015625 446.56640625) rotate(0 22.927734375 -15.658203125)"><path d="M49.63 -20.58 C48.94 -23.5, 48 -28.94, 47.12 -33.01 M49.63 -20.58 C48.46 -24.45, 48.14 -28.53, 47.12 -33.01" fill="none" stroke="#1e1e1e" stroke-width="1"></path></g><g transform="translate(432.6015625 446.56640625) rotate(0 22.927734375 -15.658203125)"><path d="M41.05 -21.88 C42.85 -24.4, 44.41 -29.46, 47.12 -33.01 M41.05 -21.88 C42.76 -25.29, 45.31 -28.93, 47.12 -33.01" fill="none" stroke="#1e1e1e" stroke-width="1"></path></g></g><mask></mask><g transform="translate(401.5859375 458.58203125) rotate(0 33.95996856689453 12.5)"><text direction="ltr" dominant-baseline="text-before-edge" fill="#1e1e1e" font-family="Virgil, Segoe UI Emoji" font-size="20px" style="white-space: pre;" text-anchor="start" x="0" y="0">Bucket</text></g><g stroke-linecap="round" transform="translate(445.4453125 89.09765625) rotate(0 107.41796875 52.8125)"><path d="M26.41 0 C61.89 -0.01, 92.35 0.84, 188.43 0 M26.41 0 C70.34 -0.63, 115.59 -0.67, 188.43 0 M188.43 0 C206.91 -0.5, 212.85 9.07, 214.84 26.41 M188.43 0 C207 0.96, 214.51 8.07, 214.84 26.41 M214.84 26.41 C215.3 39.72, 214.06 53.42, 214.84 79.22 M214.84 26.41 C215.12 36.17, 215.03 46.93, 214.84 79.22 M214.84 79.22 C213.08 95.74, 207.43 107.17, 188.43 105.63 M214.84 79.22 C216.81 96.18, 206.01 104.95, 188.43 105.63 M188.43 105.63 C127.08 105.21, 66.85 107.72, 26.41 105.63 M188.43 105.63 C150.82 105.65, 113.67 107.03, 26.41 105.63 M26.41 105.63 C10.04 106.24, 0.14 98.54, 0 79.22 M26.41 105.63 C6.97 107.03, 0.05 95.33, 0 79.22 M0 79.22 C-1.33 58.74, 0.05 36.47, 0 26.41 M0 79.22 C-0.24 66.92, 0.72 55.26, 0 26.41 M0 26.41 C0.76 10.42, 10.58 1.98, 26.41 0 M0 26.41 C-2.27 8.26, 8.3 0.95, 26.41 0" fill="none" stroke="#1e1e1e" stroke-width="1"></path></g><g stroke-linecap="round" transform="translate(375.8828125 264.80078125) rotate(0 178.708984375 126.87109375)"><path d="M32 0 C135.57 -3.59, 242.62 -1.25, 325.42 0 M32 0 C130.08 -1.33, 226.84 -1.63, 325.42 0 M325.42 0 C347.74 -1.84, 357.1 9.98, 357.42 32 M325.42 0 C344.77 -0.88, 356.13 11.04, 357.42 32 M357.42 32 C360.62 99.57, 357.09 168.76, 357.42 221.74 M357.42 32 C355.25 101.86, 355.24 174.47, 357.42 221.74 M357.42 221.74 C358.9 241.09, 348.03 252.03, 325.42 253.74 M357.42 221.74 C357.18 243.23, 345.3 254.18, 325.42 253.74 M325.42 253.74 C210.4 251.44, 96.2 251.39, 32 253.74 M325.42 253.74 C259.43 253.78, 191.79 253.22, 32 253.74 M32 253.74 C11.76 253.4, -0.26 244.95, 0 221.74 M32 253.74 C12.64 251.49, -0.98 244.88, 0 221.74 M0 221.74 C-3.16 157.12, -0.21 95.68, 0 32 M0 221.74 C-0.95 160.23, -0.24 99.29, 0 32 M0 32 C1.45 11.44, 11.73 -0.8, 32 0 M0 32 C-0.78 10.16, 10.2 0.09, 32 0" fill="none" stroke="#1e1e1e" stroke-width="1"></path></g><g stroke-linecap="round"><g transform="translate(564.6328125 456.734375) rotate(0 7.888671875 -19.8046875)"><path d="M0.15 -0.02 C2.69 -2.24, 13.09 -6.15, 14.72 -12.94 C16.35 -19.73, 10.63 -36.47, 9.95 -40.75 M-1.23 -1.07 C1.72 -3.68, 15.19 -8.22, 16.88 -14.72 C18.57 -21.21, 9.88 -35.71, 8.9 -40.04" fill="none" stroke="#1e1e1e" stroke-width="1"></path></g><g transform="translate(564.6328125 456.734375) rotate(0 7.888671875 -19.8046875)"><path d="M17.77 -30.16 C15.46 -33.82, 13.95 -35.76, 8.9 -40.04 M17.77 -30.16 C16 -32.55, 14.48 -34.73, 8.9 -40.04" fill="none" stroke="#1e1e1e" stroke-width="1"></path></g><g transform="translate(564.6328125 456.734375) rotate(0 7.888671875 -19.8046875)"><path d="M9.34 -26.77 C9.16 -31.31, 9.8 -34.11, 8.9 -40.04 M9.34 -26.77 C9.29 -29.93, 9.49 -32.8, 8.9 -40.04" fill="none" stroke="#1e1e1e" stroke-width="1"></path></g></g><mask></mask><g transform="translate(516.68359375 463.90234375) rotate(0 88.63993072509766 12.5)"><text direction="ltr" dominant-baseline="text-before-edge" fill="#1e1e1e" font-family="Virgil, Segoe UI Emoji" font-size="20px" style="white-space: pre;" text-anchor="start" x="0" y="0">Count Leading 0's</text></g><g stroke-linecap="round" transform="translate(381.4296875 579.01953125) rotate(0 175.40234375 93.814453125)"><path d="M32 0 C127.89 0.54, 226.26 0.89, 318.8 0 M32 0 C97.77 -2.46, 164.37 -2.49, 318.8 0 M318.8 0 C338.79 -0.13, 349.66 9.48, 350.8 32 M318.8 0 C339.71 -0.61, 351.39 12.67, 350.8 32 M350.8 32 C351.96 70.78, 352.47 110.62, 350.8 155.63 M350.8 32 C351.8 73.72, 351.23 117.88, 350.8 155.63 M350.8 155.63 C349.66 178.88, 341.12 186.61, 318.8 187.63 M350.8 155.63 C348.95 177.33, 341.77 187.72, 318.8 187.63 M318.8 187.63 C262.45 187.64, 202.89 187.97, 32 187.63 M318.8 187.63 C239.74 187.45, 162.28 187.52, 32 187.63 M32 187.63 C10.31 186.05, 1.67 178.39, 0 155.63 M32 187.63 C11.29 188.53, -2.07 178.15, 0 155.63 M0 155.63 C-1.58 126.71, -2.08 96.59, 0 32 M0 155.63 C0.36 123.26, 0.08 91.02, 0 32 M0 32 C1.49 11.32, 10.08 -1.8, 32 0 M0 32 C1.75 12.62, 10.91 0.37, 32 0" fill="none" stroke="#1e1e1e" stroke-width="1"></path></g><g transform="translate(463.5703125 595.2109375) rotate(0 95.3999252319336 12.5)"><text direction="ltr" dominant-baseline="text-before-edge" fill="#1e1e1e" font-family="Virgil, Segoe UI Emoji" font-size="20px" style="white-space: pre;" text-anchor="start" x="0" y="0">3. Update Register</text></g><g transform="translate(405.0234375 647.25390625) rotate(0 11.71875 48)"><text direction="ltr" dominant-baseline="text-before-edge" fill="#1e1e1e" font-family="Cascadia, Segoe UI Emoji" font-size="20px" style="white-space: pre;" text-anchor="start" x="0" y="0">00</text><text direction="ltr" dominant-baseline="text-before-edge" fill="#1e1e1e" font-family="Cascadia, Segoe UI Emoji" font-size="20px" style="white-space: pre;" text-anchor="start" x="0" y="24">01</text><text direction="ltr" dominant-baseline="text-before-edge" fill="#1e1e1e" font-family="Cascadia, Segoe UI Emoji" font-size="20px" style="white-space: pre;" text-anchor="start" x="0" y="48">10</text><text direction="ltr" dominant-baseline="text-before-edge" fill="#1e1e1e" font-family="Cascadia, Segoe UI Emoji" font-size="20px" style="white-space: pre;" text-anchor="start" x="0" y="72">11</text></g><g transform="translate(456.7109375 648.92578125) rotate(0 5.859375 48)"><text direction="ltr" dominant-baseline="text-before-edge" fill="#1e1e1e" font-family="Cascadia, Segoe UI Emoji" font-size="20px" style="white-space: pre;" text-anchor="start" x="0" y="0">0</text><text direction="ltr" dominant-baseline="text-before-edge" fill="#1e1e1e" font-family="Cascadia, Segoe UI Emoji" font-size="20px" style="white-space: pre;" text-anchor="start" x="0" y="24">1</text><text direction="ltr" dominant-baseline="text-before-edge" fill="#1e1e1e" font-family="Cascadia, Segoe UI Emoji" font-size="20px" style="white-space: pre;" text-anchor="start" x="0" y="48">0</text><text direction="ltr" dominant-baseline="text-before-edge" fill="#1e1e1e" font-family="Cascadia, Segoe UI Emoji" font-size="20px" style="white-space: pre;" text-anchor="start" x="0" y="72">0</text></g><g stroke-linecap="round"><g transform="translate(559.96875 687.359375) rotate(0 -39.892578125 -5.205078125)"><path d="M-1.08 0.03 C-5.72 -1.71, -14.22 -9.41, -27.22 -10.66 C-40.23 -11.91, -70.3 -8.07, -79.12 -7.48 M0.55 -0.99 C-4.25 -2.54, -14.52 -8.29, -27.86 -9.25 C-41.21 -10.21, -70.83 -7.23, -79.53 -6.76" fill="none" stroke="#1e1e1e" stroke-width="1"></path></g><g transform="translate(559.96875 687.359375) rotate(0 -39.892578125 -5.205078125)"><path d="M-55.76 -17.47 C-64.08 -12.94, -72.9 -9.04, -79.53 -6.76 M-55.76 -17.47 C-60.89 -14.82, -65.8 -12.56, -79.53 -6.76" fill="none" stroke="#1e1e1e" stroke-width="1"></path></g><g transform="translate(559.96875 687.359375) rotate(0 -39.892578125 -5.205078125)"><path d="M-54.44 0.31 C-63.19 -1.42, -72.48 -3.77, -79.53 -6.76 M-54.44 0.31 C-59.78 -0.68, -64.97 -2.06, -79.53 -6.76" fill="none" stroke="#1e1e1e" stroke-width="1"></path></g></g><mask></mask><g transform="translate(565.35546875 654.24609375) rotate(0 80.38993835449219 37.5)"><text direction="ltr" dominant-baseline="text-before-edge" fill="#1e1e1e" font-family="Virgil, Segoe UI Emoji" font-size="20px" style="white-space: pre;" text-anchor="middle" x="80.38993835449219" y="0">1 Leading 0. </text><text direction="ltr" dominant-baseline="text-before-edge" fill="#1e1e1e" font-family="Virgil, Segoe UI Emoji" font-size="20px" style="white-space: pre;" text-anchor="middle" x="80.38993835449219" y="25">Increase if not </text><text direction="ltr" dominant-baseline="text-before-edge" fill="#1e1e1e" font-family="Virgil, Segoe UI Emoji" font-size="20px" style="white-space: pre;" text-anchor="middle" x="80.38993835449219" y="50">already 1.</text></g><g stroke-linecap="round"><g transform="translate(551.9453125 525.61328125) rotate(0 0.3203125 21.423828125)"><path d="M0.31 -0.36 C0.42 6.67, 0.59 35.34, 0.61 42.51 M-0.2 0.64 C-0.16 7.72, 0.13 35.96, 0.17 43.04" fill="none" stroke="#1e1e1e" stroke-width="1"></path></g><g transform="translate(551.9453125 525.61328125) rotate(0 0.3203125 21.423828125)"><path d="M-7.32 22.96 C-5.75 28.72, -3.53 34.25, 0.17 43.04 M-7.32 22.96 C-5.17 28.07, -3.01 33.43, 0.17 43.04" fill="none" stroke="#1e1e1e" stroke-width="1"></path></g><g transform="translate(551.9453125 525.61328125) rotate(0 0.3203125 21.423828125)"><path d="M7.34 22.85 C4.65 28.68, 2.62 34.25, 0.17 43.04 M7.34 22.85 C5.62 27.92, 3.91 33.31, 0.17 43.04" fill="none" stroke="#1e1e1e" stroke-width="1"></path></g></g><mask></mask><g stroke-linecap="round" transform="translate(10 105.59765625) rotate(0 144.03515625 100.80078124999997)"><path d="M182.17 4.02 C197.72 5.27, 213.06 11.18, 226.36 17.82 C239.66 24.46, 252.61 34.22, 261.96 43.84 C271.3 53.45, 278 64.39, 282.42 75.5 C286.84 86.62, 289.84 99.28, 288.5 110.54 C287.15 121.8, 281.36 132.69, 274.37 143.08 C267.37 153.46, 258.02 164.81, 246.55 172.83 C235.08 180.86, 220.6 186.63, 205.56 191.25 C190.53 195.88, 172.69 199.48, 156.35 200.57 C140.01 201.66, 123.34 200.64, 107.53 197.78 C91.72 194.91, 75.15 189.84, 61.5 183.39 C47.85 176.94, 35.15 168.63, 25.62 159.08 C16.1 149.53, 8.53 137.18, 4.36 126.1 C0.19 115.02, -1.05 103.98, 0.6 92.58 C2.25 81.19, 7.35 68.33, 14.24 57.73 C21.13 47.14, 30.28 36.92, 41.92 28.99 C53.56 21.07, 69.19 14.89, 84.07 10.18 C98.95 5.47, 113.77 1.5, 131.2 0.74 C148.63 -0.01, 178.08 4.18, 188.65 5.67 C199.22 7.16, 195.34 8.15, 194.63 9.69 M80.88 9.82 C94.4 3.3, 114.86 0.16, 131.29 -0.99 C147.73 -2.14, 163.78 -0.08, 179.46 2.94 C195.14 5.95, 211.71 10.42, 225.35 17.11 C239 23.8, 251.51 33.45, 261.34 43.1 C271.16 52.74, 279.83 64.09, 284.31 74.98 C288.79 85.88, 289.63 97.2, 288.21 108.48 C286.79 119.76, 282.54 132.21, 275.8 142.68 C269.05 153.15, 259.55 163.34, 247.73 171.31 C235.9 179.28, 219.84 185.39, 204.84 190.49 C189.84 195.6, 173.93 200.44, 157.73 201.94 C141.53 203.44, 123.65 202.48, 107.66 199.5 C91.67 196.52, 75.4 190.85, 61.8 184.08 C48.2 177.3, 35.46 168.05, 26.04 158.83 C16.61 149.61, 9.71 139.8, 5.26 128.76 C0.81 117.71, -1.91 104.03, -0.66 92.58 C0.6 81.13, 5.66 70.7, 12.81 60.06 C19.97 49.43, 30.48 37.06, 42.26 28.77 C54.05 20.48, 76.47 13.05, 83.52 10.33 C90.58 7.6, 83.98 10.95, 84.58 12.43" fill="none" stroke="#1e1e1e" stroke-width="1"></path></g><g transform="translate(510.3583984375 10) rotate(0 45.1259765625 22.5)"><text direction="ltr" dominant-baseline="text-before-edge" fill="#1e1e1e" font-family="Virgil, Segoe UI Emoji" font-size="36px" style="white-space: pre;" text-anchor="middle" x="45.1259765625" y="0">Write</text></g><g transform="translate(104.49889373779297 24.14453125) rotate(0 44.29798126220703 22.5)"><text direction="ltr" dominant-baseline="text-before-edge" fill="#1e1e1e" font-family="Virgil, Segoe UI Emoji" font-size="36px" style="white-space: pre;" text-anchor="middle" x="44.29798126220703" y="0">Read</text></g><g stroke-linecap="round"><g transform="translate(264.9249013955704 189.38757324218756) rotate(0 91.89887742721481 226.0266051621695)"><path d="M0.13 0.83 C30.72 75.81, 153.93 375.69, 184.55 450.87 M-1.26 0.22 C29.15 75.82, 153.26 376.3, 184 451.78" fill="none" stroke="#1e1e1e" stroke-width="1"></path></g><g transform="translate(264.9249013955704 189.38757324218756) rotate(0 91.89887742721481 226.0266051621695)"><path d="M163.8 429.6 C173.14 439.36, 177.55 446.77, 184 451.78 M163.8 429.6 C169.2 436.61, 174.94 442.88, 184 451.78" fill="none" stroke="#1e1e1e" stroke-width="1"></path></g><g transform="translate(264.9249013955704 189.38757324218756) rotate(0 91.89887742721481 226.0266051621695)"><path d="M182.79 421.8 C184.89 434.59, 181.99 444.99, 184 451.78 M182.79 421.8 C182.72 431.05, 183.03 439.54, 184 451.78" fill="none" stroke="#1e1e1e" stroke-width="1"></path></g></g><mask></mask><g transform="translate(44.2547607421875 151.51171875) rotate(0 113.2999267578125 50)"><text direction="ltr" dominant-baseline="text-before-edge" fill="#1e1e1e" font-family="Virgil, Segoe UI Emoji" font-size="20px" style="white-space: pre;" text-anchor="middle" x="113.2999267578125" y="0">1. Take harmonic mean </text><text direction="ltr" dominant-baseline="text-before-edge" fill="#1e1e1e" font-family="Virgil, Segoe UI Emoji" font-size="20px" style="white-space: pre;" text-anchor="middle" x="113.2999267578125" y="25">of all registers.</text><text direction="ltr" dominant-baseline="text-before-edge" fill="#1e1e1e" font-family="Virgil, Segoe UI Emoji" font-size="20px" style="white-space: pre;" text-anchor="middle" x="113.2999267578125" y="50"></text><text direction="ltr" dominant-baseline="text-before-edge" fill="#1e1e1e" font-family="Virgil, Segoe UI Emoji" font-size="20px" style="white-space: pre;" text-anchor="middle" x="113.2999267578125" y="75">2. Apply corrections.</text></g></svg>