<svg height="222.40102797783908" version="1.1" viewbox="0 0 616.771484375 222.40102797783908" width="616.771484375" xmlns="http://www.w3.org/2000/svg">
<!-- svg-source:excalidraw -->
<!-- payload-type:application/vnd.excalidraw+json --><!-- payload-version:2 -->
<defs>
<style class="style-fonts">
</style>
</defs>
<rect fill="#ffffff" height="222.40102797783908" width="616.771484375" x="0" y="0"></rect><g transform="translate(58.294128300254215 10) rotate(0 29.689971923828125 12.5)"><text direction="ltr" dominant-baseline="text-before-edge" fill="#1e1e1e" font-family="Virgil, Segoe UI Emoji" font-size="20px" style="white-space: pre;" text-anchor="start" x="0" y="0">Albert</text></g><g transform="translate(495.9699095502542 22.75) rotate(0 42.479957580566406 12.5)"><text direction="ltr" dominant-baseline="text-before-edge" fill="#1e1e1e" font-family="Virgil, Segoe UI Emoji" font-size="20px" style="white-space: pre;" text-anchor="start" x="0" y="0">Christina</text></g><g transform="translate(287.9152220502542 17.80859375) rotate(0 27.59998321533203 12.5)"><text direction="ltr" dominant-baseline="text-before-edge" fill="#1e1e1e" font-family="Virgil, Segoe UI Emoji" font-size="20px" style="white-space: pre;" text-anchor="start" x="0" y="0">Bryan</text></g><g stroke-linecap="round" transform="translate(24.16796875 56.77798110283908) rotate(0 31.3515625 35.16796875)"><path d="M15.68 0 C25.54 2.87, 40.3 2.24, 47.03 0 C54.01 -2.74, 62.34 2.22, 62.7 15.68 C64.03 24.71, 63.57 35.57, 62.7 54.66 C64.65 62.63, 58.82 66.98, 47.03 70.34 C34.49 72.53, 28.7 71.24, 15.68 70.34 C4.21 73.44, -0.69 66.54, 0 54.66 C1.28 44.97, 1.51 39.22, 0 15.68 C2.16 7.03, 4.31 -2.49, 15.68 0" fill="#1e1e1e" stroke="none" stroke-width="0"></path><path d="M15.68 0 C23.35 0.44, 29.65 0.47, 47.03 0 M15.68 0 C26.96 -0.71, 36.61 1.12, 47.03 0 M47.03 0 C58.23 0.18, 64.57 6.77, 62.7 15.68 M47.03 0 C59.65 -0.68, 63.47 5.28, 62.7 15.68 M62.7 15.68 C61.48 28.87, 62.3 43.79, 62.7 54.66 M62.7 15.68 C62.13 25.24, 63.42 36.24, 62.7 54.66 M62.7 54.66 C64.02 64.28, 58.99 70.41, 47.03 70.34 M62.7 54.66 C60.63 66.34, 59.05 69.24, 47.03 70.34 M47.03 70.34 C38.63 71.46, 29.66 69.92, 15.68 70.34 M47.03 70.34 C39.72 69.94, 33.13 70.51, 15.68 70.34 M15.68 70.34 C5.23 70.12, 0.02 63.37, 0 54.66 M15.68 70.34 C6.84 68.84, -1.58 64.32, 0 54.66 M0 54.66 C0.45 39.83, -1.73 25.07, 0 15.68 M0 54.66 C0.86 39.9, 0.73 25.54, 0 15.68 M0 15.68 C0.15 6.99, 3.46 -1.16, 15.68 0 M0 15.68 C1.51 7.09, 5.95 -1.95, 15.68 0" fill="none" stroke="#1e1e1e" stroke-width="2"></path></g><g stroke-linecap="round" transform="translate(80.4375 122.13149672783908) rotate(0 30.369140625 33.171875)"><path d="M15.18 0 C22.35 0.81, 31.54 -2.44, 45.55 0 C53.76 2.56, 60.13 5.83, 60.74 15.18 C60.99 24.15, 58.83 36.42, 60.74 51.16 C57.22 60.69, 55.62 66.41, 45.55 66.34 C36.87 69.27, 24.34 66.95, 15.18 66.34 C8.65 67.55, 0.27 61.53, 0 51.16 C-2.56 40.39, -2.91 24.73, 0 15.18 C-1.85 3.6, 4.37 2.69, 15.18 0" fill="#1e1e1e" stroke="none" stroke-width="0"></path><path d="M15.18 0 C22.73 0.13, 29.81 0.14, 45.55 0 M15.18 0 C20.97 -0.14, 28.74 -0.02, 45.55 0 M45.55 0 C54.41 0.36, 60.03 3.25, 60.74 15.18 M45.55 0 C54.13 1.59, 59.48 5.33, 60.74 15.18 M60.74 15.18 C59.89 28.45, 62.37 39.65, 60.74 51.16 M60.74 15.18 C61.29 23.05, 61.71 31.82, 60.74 51.16 M60.74 51.16 C62.7 60.26, 57.58 67.02, 45.55 66.34 M60.74 51.16 C62.53 59.07, 53.93 66.11, 45.55 66.34 M45.55 66.34 C39.09 67.1, 32.32 66.84, 15.18 66.34 M45.55 66.34 C35.53 65.2, 25.19 65.96, 15.18 66.34 M15.18 66.34 C3.59 65.36, 1.45 63.05, 0 51.16 M15.18 66.34 C5.9 65.69, 1.98 60.84, 0 51.16 M0 51.16 C2.06 39.68, -0.47 27.59, 0 15.18 M0 51.16 C-0.47 38.55, -0.52 26.92, 0 15.18 M0 15.18 C1.29 3.06, 4.18 0.22, 15.18 0 M0 15.18 C-0.99 3.86, 5.97 -0.56, 15.18 0" fill="none" stroke="#1e1e1e" stroke-width="2"></path></g><g stroke-linecap="round" transform="translate(10 44.43032485283908) rotate(0 75.873046875 80.611328125)"><path d="M32 0 C65.18 -1.19, 100.03 1.11, 119.75 0 M32 0 C51.01 1.74, 69.46 0.87, 119.75 0 M119.75 0 C141.64 -0.98, 151.46 10.81, 151.75 32 M119.75 0 C139.05 0.24, 149.72 9.87, 151.75 32 M151.75 32 C151.34 70.12, 149.79 107.72, 151.75 129.22 M151.75 32 C152.1 68.33, 152.9 107.06, 151.75 129.22 M151.75 129.22 C150.69 152.16, 139.49 162.08, 119.75 161.22 M151.75 129.22 C150.61 150.03, 140.02 159.28, 119.75 161.22 M119.75 161.22 C98.61 159.82, 77.37 161.13, 32 161.22 M119.75 161.22 C89.1 161.53, 56.78 161.44, 32 161.22 M32 161.22 C8.82 161.8, 0.09 152.05, 0 129.22 M32 161.22 C8.87 160.97, 0.43 149.31, 0 129.22 M0 129.22 C1.35 104.53, 0.3 79.72, 0 32 M0 129.22 C-0.02 107.09, -0.79 84.09, 0 32 M0 32 C0.88 9.67, 10.21 -1.97, 32 0 M0 32 C1.05 12.07, 10.39 -0.9, 32 0" fill="none" stroke="#1e1e1e" stroke-width="2"></path></g><g stroke-linecap="round" transform="translate(251.408203125 60.56118422783908) rotate(0 31.3515625 35.16796875)"><path d="M15.68 0 C25.13 -2.6, 30.67 -0.05, 47.03 0 C57.74 2.48, 59.43 6.3, 62.7 15.68 C65.31 24.82, 64.98 38.15, 62.7 54.66 C66.24 62.94, 55.74 73.18, 47.03 70.34 C34.01 67.19, 24.98 70.77, 15.68 70.34 C3.73 69.4, 0.72 67.88, 0 54.66 C1.35 43.03, -2.08 30.31, 0 15.68 C-0.28 7.37, 2.08 -0.89, 15.68 0" fill="#1e1e1e" stroke="none" stroke-width="0"></path><path d="M15.68 0 C23.18 -0.21, 28.89 -0.26, 47.03 0 M15.68 0 C26.63 0.54, 38.58 -0.55, 47.03 0 M47.03 0 C58.76 1.94, 63.56 3.96, 62.7 15.68 M47.03 0 C58.9 -2.2, 61.3 4.25, 62.7 15.68 M62.7 15.68 C63.19 26.1, 62.89 36.58, 62.7 54.66 M62.7 15.68 C62.76 28.16, 63 40.38, 62.7 54.66 M62.7 54.66 C61.8 65.03, 57.2 69.11, 47.03 70.34 M62.7 54.66 C64.64 64.77, 55.19 72.52, 47.03 70.34 M47.03 70.34 C36.5 71.23, 24.45 69.43, 15.68 70.34 M47.03 70.34 C35.98 69.95, 25.49 70.39, 15.68 70.34 M15.68 70.34 C4.18 71.27, 0.39 64.18, 0 54.66 M15.68 70.34 C3.69 68.87, 0.2 66.77, 0 54.66 M0 54.66 C-1.67 44.09, 0.73 34.69, 0 15.68 M0 54.66 C-0.07 39.87, -0.49 23.46, 0 15.68 M0 15.68 C-0.58 5.2, 7.22 -1, 15.68 0 M0 15.68 C1.67 3.34, 5.51 -2.03, 15.68 0" fill="none" stroke="#1e1e1e" stroke-width="2"></path></g><g stroke-linecap="round" transform="translate(253.248046875 125.83657485283908) rotate(0 30.369140625 33.171875)"><path d="M15.18 0 C27.74 0.66, 37.73 2.82, 45.55 0 C52.4 1.07, 59.38 6.3, 60.74 15.18 C63.19 24.83, 64.7 28.27, 60.74 51.16 C59 64.12, 57.65 64.97, 45.55 66.34 C35.65 66.09, 23.84 64.9, 15.18 66.34 C5.79 69.11, 1.38 61.9, 0 51.16 C-2.22 41.17, -0.54 29.26, 0 15.18 C-3.15 4.17, 5.77 -3.51, 15.18 0" fill="#1e1e1e" stroke="none" stroke-width="0"></path><path d="M15.18 0 C22.43 -0.3, 33.29 1.81, 45.55 0 M15.18 0 C22.44 -0.82, 31.02 0.86, 45.55 0 M45.55 0 C56.53 -1.26, 61.98 3.15, 60.74 15.18 M45.55 0 C54.28 -0.97, 59.73 7.29, 60.74 15.18 M60.74 15.18 C60.57 25.84, 61.23 36.24, 60.74 51.16 M60.74 15.18 C60.63 28.38, 60.19 42.61, 60.74 51.16 M60.74 51.16 C60.46 60.06, 57.36 66.05, 45.55 66.34 M60.74 51.16 C58.45 63.47, 56.93 66.73, 45.55 66.34 M45.55 66.34 C37.8 65.78, 31.48 67.76, 15.18 66.34 M45.55 66.34 C38.93 66.67, 32.57 66.79, 15.18 66.34 M15.18 66.34 C5.45 65.42, -1.33 60.01, 0 51.16 M15.18 66.34 C5.26 68, -1.44 62.97, 0 51.16 M0 51.16 C1.27 35.62, 2.24 21.83, 0 15.18 M0 51.16 C-0.61 42.45, -0.19 33.78, 0 15.18 M0 15.18 C1.99 4.06, 6.51 -1.64, 15.18 0 M0 15.18 C0.29 3.04, 3.14 -1.72, 15.18 0" fill="none" stroke="#1e1e1e" stroke-width="2"></path></g><g stroke-linecap="round" transform="translate(237.240234375 48.21352797783908) rotate(0 75.873046875 80.611328125)"><path d="M32 0 C58.47 1.92, 81.12 -1.19, 119.75 0 M32 0 C62.32 1.59, 91.77 -0.01, 119.75 0 M119.75 0 C142.32 -1.91, 150.53 9.82, 151.75 32 M119.75 0 C140.07 2.23, 151.06 10.79, 151.75 32 M151.75 32 C152.13 64.94, 153.29 94.14, 151.75 129.22 M151.75 32 C151.28 59.79, 151.59 87.06, 151.75 129.22 M151.75 129.22 C153.43 150.26, 139.09 163.12, 119.75 161.22 M151.75 129.22 C153 150.94, 139.79 161.91, 119.75 161.22 M119.75 161.22 C89.49 162.15, 55.85 159.95, 32 161.22 M119.75 161.22 C93.63 162, 68.76 161.07, 32 161.22 M32 161.22 C9.33 159.95, 0.18 152, 0 129.22 M32 161.22 C9.23 162.91, 2.11 148.96, 0 129.22 M0 129.22 C1.5 105.29, -1.67 83.04, 0 32 M0 129.22 C0.4 92.33, 1.69 54.97, 0 32 M0 32 C1.45 9.02, 10.91 -1.76, 32 0 M0 32 C-1.92 8.94, 12.21 1.7, 32 0" fill="none" stroke="#1e1e1e" stroke-width="2"></path></g><g stroke-linecap="round" transform="translate(474.490234375 125.42055922783908) rotate(0 31.3515625 35.16796875)"><path d="M15.68 0 C19.96 -2.72, 31.69 -2.36, 47.03 0 C58.1 -0.5, 65.78 7.13, 62.7 15.68 C60.1 30.32, 63.93 47.09, 62.7 54.66 C60.65 65.03, 60.89 71.73, 47.03 70.34 C36.58 69.68, 31.18 67.17, 15.68 70.34 C6.59 70.94, 0.32 62.75, 0 54.66 C1.52 45.19, -0.28 34.03, 0 15.68 C2.94 5.16, 4.63 2.66, 15.68 0" fill="#1e1e1e" stroke="none" stroke-width="0"></path><path d="M15.68 0 C27.27 1.7, 39.75 1.79, 47.03 0 M15.68 0 C28.75 -0.09, 40.85 -1.03, 47.03 0 M47.03 0 C56.55 -0.54, 64.09 4.65, 62.7 15.68 M47.03 0 C56.38 1.65, 62.34 3.73, 62.7 15.68 M62.7 15.68 C62.59 25.99, 62.23 39.11, 62.7 54.66 M62.7 15.68 C61.87 27.12, 62.89 39.49, 62.7 54.66 M62.7 54.66 C64.31 66.83, 59.03 69.29, 47.03 70.34 M62.7 54.66 C62.45 66.7, 56.06 69.33, 47.03 70.34 M47.03 70.34 C40.69 71.91, 29.07 71.52, 15.68 70.34 M47.03 70.34 C37.11 70.65, 29.45 69.71, 15.68 70.34 M15.68 70.34 C3.48 71.93, -0.72 63.5, 0 54.66 M15.68 70.34 C3.36 71.77, 1.37 67.31, 0 54.66 M0 54.66 C-1.29 46.53, -1.95 37.27, 0 15.68 M0 54.66 C0.67 43.23, 0.14 32.21, 0 15.68 M0 15.68 C1.99 6.03, 5.46 -1.72, 15.68 0 M0 15.68 C-1.55 7.51, 5.63 -0.04, 15.68 0" fill="none" stroke="#1e1e1e" stroke-width="2"></path></g><g stroke-linecap="round" transform="translate(526.853515625 67.54360610283908) rotate(0 30.369140625 33.171875)"><path d="M15.18 0 C28.14 -1.62, 38.24 -0.15, 45.55 0 C58.76 1.9, 63.26 4.69, 60.74 15.18 C61.59 30.55, 58.23 40.71, 60.74 51.16 C64.15 62.68, 55.29 64.99, 45.55 66.34 C41.31 63.63, 33.86 66.92, 15.18 66.34 C5.38 63.99, -1.4 59.12, 0 51.16 C-0.9 41.82, 2.74 32.95, 0 15.18 C-0.59 7.72, 6.32 2.71, 15.18 0" fill="#1e1e1e" stroke="none" stroke-width="0"></path><path d="M15.18 0 C26.64 1.63, 37.54 -0.29, 45.55 0 M15.18 0 C26.19 -0.9, 35.8 -0.29, 45.55 0 M45.55 0 C57.07 -0.58, 59.78 6.5, 60.74 15.18 M45.55 0 C55.32 -1.5, 61.02 3.28, 60.74 15.18 M60.74 15.18 C60.6 28.21, 60.69 41.85, 60.74 51.16 M60.74 15.18 C60.94 29.96, 61.32 44.1, 60.74 51.16 M60.74 51.16 C62.29 60.23, 55.46 67.72, 45.55 66.34 M60.74 51.16 C59.32 60.27, 54.79 64.54, 45.55 66.34 M45.55 66.34 C33.49 67.6, 24.46 68.02, 15.18 66.34 M45.55 66.34 C39.14 66.04, 29.85 67.29, 15.18 66.34 M15.18 66.34 C4.34 64.73, -1.62 62.53, 0 51.16 M15.18 66.34 C6.43 68.54, -1.69 61.65, 0 51.16 M0 51.16 C-1.66 38.53, 0.18 24.83, 0 15.18 M0 51.16 C-0.17 43.26, 0.79 34.22, 0 15.18 M0 15.18 C0.24 3.35, 3.71 1.99, 15.18 0 M0 15.18 C0.41 5.02, 3.4 -1.69, 15.18 0" fill="none" stroke="#1e1e1e" stroke-width="2"></path></g><g stroke-linecap="round" transform="translate(455.025390625 51.17837172783908) rotate(0 75.873046875 80.611328125)"><path d="M32 0 C68.17 -0.85, 101.53 0.62, 119.75 0 M32 0 C58.36 0.5, 86.33 0.48, 119.75 0 M119.75 0 C140.13 1.44, 151.43 9.36, 151.75 32 M119.75 0 C141.36 -1.78, 153.76 10.88, 151.75 32 M151.75 32 C151.58 50.91, 153.46 71.04, 151.75 129.22 M151.75 32 C152.96 61.13, 152.93 88.02, 151.75 129.22 M151.75 129.22 C151.53 151.93, 139.85 160.35, 119.75 161.22 M151.75 129.22 C150.86 148.76, 142.14 163.36, 119.75 161.22 M119.75 161.22 C87.06 163.14, 53.4 160.42, 32 161.22 M119.75 161.22 C88.27 161.62, 58.18 160.02, 32 161.22 M32 161.22 C9.05 162.47, 1.19 152.47, 0 129.22 M32 161.22 C8.98 161.59, 1.35 149.14, 0 129.22 M0 129.22 C0.87 96.12, -0.26 65.19, 0 32 M0 129.22 C0.96 98.69, 0.08 66.5, 0 32 M0 32 C-1.35 12.65, 11.02 -0.03, 32 0 M0 32 C-1.66 8.98, 12.26 -1.83, 32 0" fill="none" stroke="#1e1e1e" stroke-width="2"></path></g></svg>