<svg height="480.0720125333919" version="1.1" viewbox="0 0 1106.1807126439026 480.0720125333919" width="1106.1807126439026" xmlns="http://www.w3.org/2000/svg">
<!-- svg-source:excalidraw -->
<!-- payload-type:application/vnd.excalidraw+json --><!-- payload-version:2 -->
<defs>
<style class="style-fonts">
</style>
</defs>
<rect fill="#ffffff" height="480.0720125333919" width="1106.1807126439026" x="0" y="0"></rect><g stroke-linecap="round" transform="translate(10 136.4417545404017) rotate(0 55.98632812499999 44.6328125)"><path d="M22.32 0 C49.39 -0.44, 73.4 -0.3, 89.66 0 M22.32 0 C46.17 -0.23, 69.73 -1.36, 89.66 0 M89.66 0 C102.9 0.02, 110.87 7.15, 111.97 22.32 M89.66 0 C106.21 -1.51, 113.08 7.84, 111.97 22.32 M111.97 22.32 C112.77 31.5, 112.74 44.41, 111.97 66.95 M111.97 22.32 C112.23 34.97, 111.88 48.75, 111.97 66.95 M111.97 66.95 C111.91 82.28, 102.55 87.37, 89.66 89.27 M111.97 66.95 C111.56 81.75, 105.23 91.4, 89.66 89.27 M89.66 89.27 C72.82 90.15, 59.43 88.13, 22.32 89.27 M89.66 89.27 C64.82 90.4, 40.93 90, 22.32 89.27 M22.32 89.27 C7.81 87.66, 1.68 80.83, 0 66.95 M22.32 89.27 C5.82 87.65, -1.9 81.89, 0 66.95 M0 66.95 C-1.93 53.72, -1.51 41.45, 0 22.32 M0 66.95 C-0.35 57.92, 0.45 48.59, 0 22.32 M0 22.32 C0.95 8.18, 5.55 -1.49, 22.32 0 M0 22.32 C-0.39 8.38, 8.4 2.22, 22.32 0" fill="none" stroke="#1e1e1e" stroke-width="1"></path></g><g transform="translate(38.88085937499999 171.0745670404017) rotate(0 27.10546875 10)"><text direction="ltr" dominant-baseline="text-before-edge" fill="#1e1e1e" font-family="Virgil, Segoe UI Emoji" font-size="16px" style="white-space: pre;" text-anchor="middle" x="27.10546875" y="0">Browser</text></g><g stroke-linecap="round" transform="translate(261.9480910247312 35.6860171786484) rotate(0 65.490234375 47.623046875)"><path d="M23.81 0 C46.1 0.06, 67.28 -0.21, 107.17 0 M23.81 0 C49.5 0.8, 76.27 0.65, 107.17 0 M107.17 0 C124.5 -1.32, 131.95 8.29, 130.98 23.81 M107.17 0 C121.58 2.21, 132.72 8.36, 130.98 23.81 M130.98 23.81 C131.18 33.02, 130.62 47.27, 130.98 71.43 M130.98 23.81 C131.1 33.58, 130.14 41.94, 130.98 71.43 M130.98 71.43 C130.62 87.24, 123.65 97.11, 107.17 95.25 M130.98 71.43 C129.58 88.38, 122.14 94.39, 107.17 95.25 M107.17 95.25 C78.45 92.91, 49.13 93, 23.81 95.25 M107.17 95.25 C77.37 94.61, 48.05 94.91, 23.81 95.25 M23.81 95.25 C6.53 93.84, -1.66 87.36, 0 71.43 M23.81 95.25 C7.87 96.05, 1.45 85.27, 0 71.43 M0 71.43 C-1.45 58.03, -0.26 42.41, 0 23.81 M0 71.43 C0.16 55.59, -1.26 38.27, 0 23.81 M0 23.81 C-0.34 8.76, 8.77 1.93, 23.81 0 M0 23.81 C0.41 10.11, 9.62 -1.84, 23.81 0" fill="none" stroke="#1e1e1e" stroke-width="1"></path></g><g transform="translate(280.3406691497312 63.3090640536484) rotate(0 47.09765625 20)"><text direction="ltr" dominant-baseline="text-before-edge" fill="#1e1e1e" font-family="Virgil, Segoe UI Emoji" font-size="16px" style="white-space: pre;" text-anchor="middle" x="47.09765625" y="0">Ad Placement </text><text direction="ltr" dominant-baseline="text-before-edge" fill="#1e1e1e" font-family="Virgil, Segoe UI Emoji" font-size="16px" style="white-space: pre;" text-anchor="middle" x="47.09765625" y="20">Service</text></g><g stroke-linecap="round"><g transform="translate(134.0925241049199 163.23350087219978) rotate(0 62.39560422619138 -34.695175134860335)"><path d="M-0.32 0.22 C20.34 -11.66, 103.09 -58.93, 123.78 -70.53 M1.71 -0.72 C22.75 -12.55, 105.22 -58.37, 125.97 -69.59" fill="none" stroke="#1e1e1e" stroke-width="1"></path></g><g transform="translate(134.0925241049199 163.23350087219978) rotate(0 62.39560422619138 -34.695175134860335)"><path d="M19.07 -22.68 C14.01 -17.85, 6.2 -11.24, -0.32 0.22 M19.07 -22.68 C13.83 -16.47, 7.75 -8.75, -0.32 0.22" fill="none" stroke="#1e1e1e" stroke-width="1"></path></g><g transform="translate(134.0925241049199 163.23350087219978) rotate(0 62.39560422619138 -34.695175134860335)"><path d="M29.25 -4.86 C21.17 -5.16, 10.44 -3.66, -0.32 0.22 M29.25 -4.86 C21.05 -4.03, 11.9 -1.67, -0.32 0.22" fill="none" stroke="#1e1e1e" stroke-width="1"></path></g><g transform="translate(134.0925241049199 163.23350087219978) rotate(0 62.39560422619138 -34.695175134860335)"><path d="M106.2 -47.03 C112.08 -55.11, 115.48 -61.53, 125.97 -69.59 M106.2 -47.03 C113 -54.45, 118.71 -60.41, 125.97 -69.59" fill="none" stroke="#1e1e1e" stroke-width="1"></path></g><g transform="translate(134.0925241049199 163.23350087219978) rotate(0 62.39560422619138 -34.695175134860335)"><path d="M96.32 -65.01 C105.14 -67.92, 111.37 -69.19, 125.97 -69.59 M96.32 -65.01 C106 -67, 114.67 -67.55, 125.97 -69.59" fill="none" stroke="#1e1e1e" stroke-width="1"></path></g></g><mask></mask><g stroke-linecap="round"><g transform="translate(404.8205866605349 79.16639910969752) rotate(0 47.34102570860614 0.022474603057730747)"><path d="M-1.01 -1.14 C14.66 -1.17, 77.87 -0.11, 93.7 0.06 M0.66 0.87 C16.73 1.03, 80.53 1.56, 95.9 1.6" fill="none" stroke="#1e1e1e" stroke-width="1"></path></g><g transform="translate(404.8205866605349 79.16639910969752) rotate(0 47.34102570860614 0.022474603057730747)"><path d="M27.31 -11.06 C17.69 -10.22, 11.88 -6.98, -1.01 -1.14 M27.31 -11.06 C19.78 -8.24, 10.58 -4.62, -1.01 -1.14" fill="none" stroke="#1e1e1e" stroke-width="1"></path></g><g transform="translate(404.8205866605349 79.16639910969752) rotate(0 47.34102570860614 0.022474603057730747)"><path d="M27.06 9.46 C17.47 4.7, 11.73 2.33, -1.01 -1.14 M27.06 9.46 C19.45 6.43, 10.33 4.19, -1.01 -1.14" fill="none" stroke="#1e1e1e" stroke-width="1"></path></g><g transform="translate(404.8205866605349 79.16639910969752) rotate(0 47.34102570860614 0.022474603057730747)"><path d="M67.65 11.7 C73.45 7.55, 83.09 5.31, 95.9 1.6 M67.65 11.7 C76.12 9.18, 83.06 7.08, 95.9 1.6" fill="none" stroke="#1e1e1e" stroke-width="1"></path></g><g transform="translate(404.8205866605349 79.16639910969752) rotate(0 47.34102570860614 0.022474603057730747)"><path d="M67.77 -8.83 C73.57 -7.37, 83.18 -4, 95.9 1.6 M67.77 -8.83 C76.36 -5.49, 83.26 -1.73, 95.9 1.6" fill="none" stroke="#1e1e1e" stroke-width="1"></path></g></g><mask></mask><g stroke-linecap="round" transform="translate(500.9849255355389 10) rotate(0 72.69127211417481 70.84147595836083)"><path d="M52.2 3.17 C61.56 -0.74, 74.71 -1.39, 85.34 0.41 C95.97 2.22, 107.41 8.04, 115.96 13.99 C124.51 19.95, 131.72 27.21, 136.64 36.15 C141.55 45.1, 144.93 57.47, 145.45 67.66 C145.98 77.85, 143.92 87.82, 139.79 97.29 C135.66 106.77, 128.73 117.53, 120.68 124.53 C112.64 131.54, 101.75 136.64, 91.53 139.32 C81.31 142, 69.5 142.58, 59.34 140.6 C49.19 138.63, 39.17 133.44, 30.61 127.46 C22.05 121.47, 13.07 113.45, 7.98 104.67 C2.89 95.9, 0.3 85.13, 0.07 74.82 C-0.17 64.52, 2.43 52.42, 6.58 42.85 C10.72 33.29, 16.55 24.21, 24.94 17.43 C33.33 10.65, 50.57 4.8, 56.91 2.19 C63.24 -0.42, 62.55 0.88, 62.96 1.77 M99.47 5.84 C109.38 8.28, 120.02 15.22, 127.43 22.72 C134.84 30.22, 141.28 40.96, 143.91 50.85 C146.55 60.73, 145.47 71.8, 143.24 82.03 C141 92.25, 136.47 103.59, 130.51 112.18 C124.55 120.77, 116.34 128.87, 107.47 133.55 C98.61 138.23, 87.81 140, 77.32 140.26 C66.83 140.52, 54.27 139.1, 44.55 135.13 C34.83 131.16, 25.85 124.01, 19.01 116.43 C12.16 108.86, 6.49 99.19, 3.47 89.66 C0.45 80.12, -0.96 69.1, 0.9 59.21 C2.76 49.32, 8.35 38.65, 14.63 30.31 C20.91 21.98, 29.76 14.43, 38.58 9.21 C47.41 3.99, 57.25 -0.52, 67.59 -1.02 C77.93 -1.53, 95.05 4.6, 100.61 6.15 C106.17 7.71, 101.31 7.07, 100.93 8.29" fill="none" stroke="#1e1e1e" stroke-width="1"></path></g><g transform="translate(550.8850812047041 70.74898791894012) rotate(0 22.890625 10)"><text direction="ltr" dominant-baseline="text-before-edge" fill="#1e1e1e" font-family="Virgil, Segoe UI Emoji" font-size="16px" style="white-space: pre;" text-anchor="middle" x="22.890625" y="0">Ad DB</text></g><g transform="translate(657.5239754078711 18.709967329693427) rotate(0 60.903953552246094 40)"><text direction="ltr" dominant-baseline="text-before-edge" fill="#1e1e1e" font-family="Virgil, Segoe UI Emoji" font-size="16px" style="white-space: pre;" text-anchor="start" x="0" y="0">Advertisement:</text><text direction="ltr" dominant-baseline="text-before-edge" fill="#1e1e1e" font-family="Virgil, Segoe UI Emoji" font-size="16px" style="white-space: pre;" text-anchor="start" x="0" y="20">- AdId</text><text direction="ltr" dominant-baseline="text-before-edge" fill="#1e1e1e" font-family="Virgil, Segoe UI Emoji" font-size="16px" style="white-space: pre;" text-anchor="start" x="0" y="40">- RedirectUrl</text><text direction="ltr" dominant-baseline="text-before-edge" fill="#1e1e1e" font-family="Virgil, Segoe UI Emoji" font-size="16px" style="white-space: pre;" text-anchor="start" x="0" y="60">- ... metadata </text></g><g stroke-linecap="round" transform="translate(261.55734531268445 229.49806682777444) rotate(0 67.78910812950699 50.98985562394745)"><path d="M25.49 0 C57.39 -1.68, 90.5 1.11, 110.08 0 M25.49 0 C52.92 -0.08, 78.41 -0.36, 110.08 0 M110.08 0 C128.43 -1.99, 136.23 6.75, 135.58 25.49 M110.08 0 C127.01 0.53, 133.3 6.32, 135.58 25.49 M135.58 25.49 C137.42 38.66, 136.49 53.48, 135.58 76.48 M135.58 25.49 C135.44 39.45, 134.89 53.11, 135.58 76.48 M135.58 76.48 C133.69 94.67, 125.22 102.38, 110.08 101.98 M135.58 76.48 C136.01 91.64, 129.02 100.83, 110.08 101.98 M110.08 101.98 C90.69 101.22, 71.9 102.54, 25.49 101.98 M110.08 101.98 C92.74 100.52, 74.85 101.12, 25.49 101.98 M25.49 101.98 C8.25 102.79, 1.33 94.51, 0 76.48 M25.49 101.98 C9.59 102.83, -2.17 91.77, 0 76.48 M0 76.48 C1.73 62.41, 1.68 49.09, 0 25.49 M0 76.48 C0.48 64.29, 0.76 54.3, 0 25.49 M0 25.49 C0.67 8.51, 7.77 -0.15, 25.49 0 M0 25.49 C1.76 6.8, 8.67 -0.17, 25.49 0" fill="none" stroke="#1e1e1e" stroke-width="1"></path></g><g transform="translate(278.90895344219143 270.4879224517219) rotate(0 50.4375 10)"><text direction="ltr" dominant-baseline="text-before-edge" fill="#1e1e1e" font-family="Virgil, Segoe UI Emoji" font-size="16px" style="white-space: pre;" text-anchor="middle" x="50.4375" y="0">Click Processor</text></g><g mask="url(#mask-ozWoHi2ZxUzB3UKY06HNc)" stroke-linecap="round"><g transform="translate(130.5561836138795 219.16983332759128) rotate(0 62.281662865861335 30.85117700084629)"><path d="M0.91 0.22 C21.66 10.34, 103.04 51.64, 123.75 61.9 M-0.07 -0.71 C21.13 9.53, 105.24 49.25, 126.03 59.89" fill="none" stroke="#1e1e1e" stroke-width="1"></path></g><g transform="translate(130.5561836138795 219.16983332759128) rotate(0 62.281662865861335 30.85117700084629)"><path d="M30.71 3.7 C24 1.75, 16.93 3.29, 0.91 0.22 M30.71 3.7 C22.3 1.57, 12.83 0.63, 0.91 0.22" fill="none" stroke="#1e1e1e" stroke-width="1"></path></g><g transform="translate(130.5561836138795 219.16983332759128) rotate(0 62.281662865861335 30.85117700084629)"><path d="M21.5 22.04 C16.79 15.68, 11.9 12.89, 0.91 0.22 M21.5 22.04 C16.08 14.32, 9.43 7.77, 0.91 0.22" fill="none" stroke="#1e1e1e" stroke-width="1"></path></g><g transform="translate(130.5561836138795 219.16983332759128) rotate(0 62.281662865861335 30.85117700084629)"><path d="M96.2 56.72 C103.65 55.89, 110.66 58.99, 126.03 59.89 M96.2 56.72 C105.97 56.76, 114.75 57.85, 126.03 59.89" fill="none" stroke="#1e1e1e" stroke-width="1"></path></g><g transform="translate(130.5561836138795 219.16983332759128) rotate(0 62.281662865861335 30.85117700084629)"><path d="M105.22 38.29 C110.71 41.87, 115.6 49.34, 126.03 59.89 M105.22 38.29 C112.06 43.94, 118.07 50.67, 126.03 59.89" fill="none" stroke="#1e1e1e" stroke-width="1"></path></g></g><mask id="mask-ozWoHi2ZxUzB3UKY06HNc"><rect fill="#fff" height="380.87218732928386" width="355.1195093456022" x="0" y="0"></rect><rect fill="#000" height="20" opacity="1" width="35.5390625" x="175.06831522974085" y="240.02101032843757"></rect></mask><g transform="translate(175.06831522974085 240.02101032843757) rotate(0 18.468734844494605 9.745083922324682)"><text direction="ltr" dominant-baseline="text-before-edge" fill="#1e1e1e" font-family="Virgil, Segoe UI Emoji" font-size="16px" style="white-space: pre;" text-anchor="middle" x="17.76953125" y="0">/click</text></g><g stroke-linecap="round" transform="translate(491.59414922797714 211.95657694029524) rotate(0 72.69127211417481 70.84147595836083)"><path d="M39.23 7.78 C47.57 2.36, 60.07 0.34, 70.79 -0.02 C81.51 -0.39, 94.01 1.31, 103.53 5.6 C113.05 9.89, 121.3 17.58, 127.93 25.72 C134.56 33.85, 140.5 44.52, 143.29 54.4 C146.09 64.29, 146.82 75.11, 144.71 85.02 C142.6 94.92, 137.28 105.53, 130.62 113.83 C123.97 122.13, 114.1 130.23, 104.78 134.8 C95.46 139.37, 85.06 141.36, 74.7 141.24 C64.34 141.13, 52.2 138.51, 42.63 134.11 C33.06 129.71, 23.96 122.76, 17.3 114.85 C10.64 106.94, 5.24 96.42, 2.65 86.65 C0.07 76.88, -0.16 65.97, 1.8 56.24 C3.76 46.52, 6.86 37.07, 14.42 28.3 C21.99 19.53, 40.4 7.91, 47.18 3.63 C53.95 -0.66, 54.57 1.35, 55.07 2.57 M85.3 0.05 C95.29 0.69, 107.2 5.89, 115.86 11.96 C124.51 18.04, 132.37 27.17, 137.24 36.48 C142.12 45.8, 144.53 57.43, 145.1 67.87 C145.67 78.3, 144.62 89.65, 140.69 99.09 C136.76 108.52, 129.82 118.01, 121.54 124.48 C113.26 130.95, 101.29 135.11, 91.01 137.91 C80.73 140.7, 69.88 142.57, 59.86 141.23 C49.85 139.88, 39.38 135.68, 30.93 129.84 C22.47 124, 14.1 115.62, 9.14 106.18 C4.19 96.74, 1.89 83.59, 1.19 73.22 C0.49 62.85, 0.99 53.47, 4.94 43.98 C8.89 34.49, 16.76 23.11, 24.89 16.29 C33.02 9.46, 43.56 5.56, 53.71 3.03 C63.86 0.49, 80.64 1.19, 85.77 1.08 C90.89 0.97, 84.57 1.37, 84.46 2.35" fill="none" stroke="#1e1e1e" stroke-width="1"></path></g><g transform="translate(520.6114923971423 272.7055648592353) rotate(0 43.7734375 10)"><text direction="ltr" dominant-baseline="text-before-edge" fill="#1e1e1e" font-family="Virgil, Segoe UI Emoji" font-size="16px" style="white-space: pre;" text-anchor="middle" x="43.7734375" y="0">Analytics DB</text></g><g stroke-linecap="round"><g transform="translate(413.1380123315712 283.6776920585271) rotate(0 36.95190064367671 -0.02351976363297581)"><path d="M0.81 -1.2 C13.38 -1.34, 62.12 -1.33, 74.29 -1.1 M-0.23 0.79 C12.31 0.79, 61.33 -0.26, 73.55 -0.11" fill="none" stroke="#1e1e1e" stroke-width="1"></path></g><g transform="translate(413.1380123315712 283.6776920585271) rotate(0 36.95190064367671 -0.02351976363297581)"><path d="M45.43 10.34 C49.29 8.63, 55.37 5.76, 73.55 -0.11 M45.43 10.34 C54.43 7.2, 63.99 4.79, 73.55 -0.11" fill="none" stroke="#1e1e1e" stroke-width="1"></path></g><g transform="translate(413.1380123315712 283.6776920585271) rotate(0 36.95190064367671 -0.02351976363297581)"><path d="M45.29 -10.18 C49.13 -7.63, 55.24 -6.25, 73.55 -0.11 M45.29 -10.18 C54.14 -6.69, 63.74 -2.48, 73.55 -0.11" fill="none" stroke="#1e1e1e" stroke-width="1"></path></g></g><mask></mask><g stroke-linecap="round" transform="translate(720.8925572627913 232.47293851419226) rotate(0 67.78910812950699 50.98985562394745)"><path d="M25.49 0 C54.82 -0.33, 88.1 -2.26, 110.08 0 M25.49 0 C43.17 0.96, 59.64 0.49, 110.08 0 M110.08 0 C126.29 -0.74, 136.73 10.46, 135.58 25.49 M110.08 0 C126.08 1.26, 133.31 10.33, 135.58 25.49 M135.58 25.49 C136.28 36.35, 134.28 48.15, 135.58 76.48 M135.58 25.49 C134.39 38.28, 135.19 51.36, 135.58 76.48 M135.58 76.48 C136.84 91.7, 127.12 100.63, 110.08 101.98 M135.58 76.48 C136.76 91.44, 128.21 101.32, 110.08 101.98 M110.08 101.98 C86.81 103.49, 62.21 100.66, 25.49 101.98 M110.08 101.98 C91.42 103.29, 72.1 103.27, 25.49 101.98 M25.49 101.98 C9.97 100.38, -1 94.29, 0 76.48 M25.49 101.98 C9.01 99.72, 1.16 94.04, 0 76.48 M0 76.48 C-0.16 61, -1.48 42.62, 0 25.49 M0 76.48 C0.52 62.31, 0.27 47.2, 0 25.49 M0 25.49 C-1.46 8.27, 7.15 -1.32, 25.49 0 M0 25.49 C-2.17 10.55, 7.52 -0.12, 25.49 0" fill="none" stroke="#1e1e1e" stroke-width="1"></path></g><g transform="translate(732.0332278922983 273.4627941381397) rotate(0 56.6484375 10)"><text direction="ltr" dominant-baseline="text-before-edge" fill="#1e1e1e" font-family="Virgil, Segoe UI Emoji" font-size="16px" style="white-space: pre;" text-anchor="middle" x="56.6484375" y="0">Analytics Service</text></g><g stroke-linecap="round" transform="translate(941.0937553814551 246.8409096678106) rotate(0 77.5434786312237 35.58840984914019)"><path d="M17.79 0 C51.4 0.83, 88.72 1.79, 137.29 0 M17.79 0 C64.36 -0.93, 112.29 0.43, 137.29 0 M137.29 0 C148.29 1.1, 153.11 7.52, 155.09 17.79 M137.29 0 C146.99 1.37, 152.94 6.39, 155.09 17.79 M155.09 17.79 C153.81 27.73, 153.4 38.81, 155.09 53.38 M155.09 17.79 C155.71 27.67, 155.1 38.65, 155.09 53.38 M155.09 53.38 C156.12 63.47, 150.14 70.6, 137.29 71.18 M155.09 53.38 C154.8 66.17, 150.68 72.36, 137.29 71.18 M137.29 71.18 C94.27 69.71, 55.04 70.89, 17.79 71.18 M137.29 71.18 C90.62 71.5, 41.98 72.71, 17.79 71.18 M17.79 71.18 C6.37 69.22, 1.01 65.73, 0 53.38 M17.79 71.18 C6.7 71.2, -0.84 65.07, 0 53.38 M0 53.38 C0.11 40.84, 1.06 28.07, 0 17.79 M0 53.38 C-0.9 39.95, -0.85 26.09, 0 17.79 M0 17.79 C-1.89 7.71, 5.08 -0.11, 17.79 0 M0 17.79 C0.49 6.6, 3.84 0.1, 17.79 0" fill="none" stroke="#1e1e1e" stroke-width="1"></path></g><g transform="translate(964.6450465126788 272.4293195169508) rotate(0 53.9921875 10)"><text direction="ltr" dominant-baseline="text-before-edge" fill="#1e1e1e" font-family="Virgil, Segoe UI Emoji" font-size="16px" style="white-space: pre;" text-anchor="middle" x="53.9921875" y="0">Analyst Browser</text></g><g stroke-linecap="round"><g transform="translate(710.041863201573 285.2517571371445) rotate(0 -34.665750668433475 -0.012512452867099455)"><path d="M0.36 1.12 C-11.28 1.21, -58.37 0.8, -70.06 0.53 M-0.91 0.66 C-12.14 0.4, -56.08 -1.29, -67.74 -1.3" fill="none" stroke="#1e1e1e" stroke-width="1"></path></g><g transform="translate(710.041863201573 285.2517571371445) rotate(0 -34.665750668433475 -0.012512452867099455)"><path d="M-27.89 11.2 C-18.06 7.05, -11.02 4.64, 0.36 1.12 M-27.89 11.2 C-20.95 8.82, -14.08 6.42, 0.36 1.12" fill="none" stroke="#1e1e1e" stroke-width="1"></path></g><g transform="translate(710.041863201573 285.2517571371445) rotate(0 -34.665750668433475 -0.012512452867099455)"><path d="M-27.77 -9.32 C-17.98 -7.68, -10.97 -4.3, 0.36 1.12 M-27.77 -9.32 C-20.74 -6.3, -13.9 -3.31, 0.36 1.12" fill="none" stroke="#1e1e1e" stroke-width="1"></path></g><g transform="translate(710.041863201573 285.2517571371445) rotate(0 -34.665750668433475 -0.012512452867099455)"><path d="M-39.33 -10.95 C-45.49 -9.36, -54.43 -6.2, -67.74 -1.3 M-39.33 -10.95 C-47.18 -7.58, -55.2 -4.8, -67.74 -1.3" fill="none" stroke="#1e1e1e" stroke-width="1"></path></g><g transform="translate(710.041863201573 285.2517571371445) rotate(0 -34.665750668433475 -0.012512452867099455)"><path d="M-39.77 9.57 C-45.8 5.37, -54.62 2.74, -67.74 -1.3 M-39.77 9.57 C-47.62 7.53, -55.53 4.92, -67.74 -1.3" fill="none" stroke="#1e1e1e" stroke-width="1"></path></g></g><mask></mask><g stroke-linecap="round"><g transform="translate(931.4914248619798 279.35422101909535) rotate(0 -31.318669526471467 0.1251245286714493)"><path d="M-0.73 0.56 C-11.31 0.34, -52.91 -0.34, -63.11 -0.19 M1.09 -0.19 C-9.72 0.26, -53.73 1.13, -64.31 1.11" fill="none" stroke="#1e1e1e" stroke-width="1"></path></g><g transform="translate(931.4914248619798 279.35422101909535) rotate(0 -31.318669526471467 0.1251245286714493)"><path d="M-29.07 10.4 C-18.88 6.53, -11.19 5.23, -0.73 0.56 M-29.07 10.4 C-18.73 7.12, -7.4 3, -0.73 0.56" fill="none" stroke="#1e1e1e" stroke-width="1"></path></g><g transform="translate(931.4914248619798 279.35422101909535) rotate(0 -31.318669526471467 0.1251245286714493)"><path d="M-28.77 -10.12 C-18.48 -7.21, -10.9 -1.75, -0.73 0.56 M-28.77 -10.12 C-18.64 -5.23, -7.43 -1.17, -0.73 0.56" fill="none" stroke="#1e1e1e" stroke-width="1"></path></g><g transform="translate(931.4914248619798 279.35422101909535) rotate(0 -31.318669526471467 0.1251245286714493)"><path d="M-36.23 -9.47 C-44.47 -6.93, -55.41 -1.5, -64.31 1.11 M-36.23 -9.47 C-48.44 -4.3, -59.58 -0.29, -64.31 1.11" fill="none" stroke="#1e1e1e" stroke-width="1"></path></g><g transform="translate(931.4914248619798 279.35422101909535) rotate(0 -31.318669526471467 0.1251245286714493)"><path d="M-36 11.05 C-44.51 6.81, -55.52 5.47, -64.31 1.11 M-36 11.05 C-48.21 8.05, -59.44 3.89, -64.31 1.11" fill="none" stroke="#1e1e1e" stroke-width="1"></path></g></g><mask></mask><g transform="translate(505.245454567274 370.0720125333919) rotate(0 56.92796325683594 50)"><text direction="ltr" dominant-baseline="text-before-edge" fill="#1e1e1e" font-family="Virgil, Segoe UI Emoji" font-size="16px" style="white-space: pre;" text-anchor="start" x="0" y="0">Ad Click Event</text><text direction="ltr" dominant-baseline="text-before-edge" fill="#1e1e1e" font-family="Virgil, Segoe UI Emoji" font-size="16px" style="white-space: pre;" text-anchor="start" x="0" y="20">- eventId</text><text direction="ltr" dominant-baseline="text-before-edge" fill="#1e1e1e" font-family="Virgil, Segoe UI Emoji" font-size="16px" style="white-space: pre;" text-anchor="start" x="0" y="40">- AdId</text><text direction="ltr" dominant-baseline="text-before-edge" fill="#1e1e1e" font-family="Virgil, Segoe UI Emoji" font-size="16px" style="white-space: pre;" text-anchor="start" x="0" y="60">- UserId</text><text direction="ltr" dominant-baseline="text-before-edge" fill="#1e1e1e" font-family="Virgil, Segoe UI Emoji" font-size="16px" style="white-space: pre;" text-anchor="start" x="0" y="80">- Timestamp</text></g></svg>