<svg height="376.1424893525307" version="1.1" viewbox="0 0 990.3382413846731 376.1424893525307" width="990.3382413846731" xmlns="http://www.w3.org/2000/svg">
<!-- svg-source:excalidraw -->
<!-- payload-type:application/vnd.excalidraw+json --><!-- payload-version:2 -->
<defs>
<style class="style-fonts">
</style>
</defs>
<rect fill="#ffffff" height="376.1424893525307" width="990.3382413846731" x="0" y="0"></rect><g stroke-linecap="round" transform="translate(10 157.96001684376148) rotate(0 46.552734375 44.4140625)"><path d="M22.21 0 C34.75 0.71, 44.93 -1.65, 70.9 0 M22.21 0 C37.63 0.84, 51.28 -0.54, 70.9 0 M70.9 0 C84.55 -0.42, 91.19 6.56, 93.11 22.21 M70.9 0 C87.69 -1.68, 92.09 6.92, 93.11 22.21 M93.11 22.21 C93.56 31.68, 91.69 39.76, 93.11 66.62 M93.11 22.21 C91.91 39.71, 93.44 56.35, 93.11 66.62 M93.11 66.62 C93.53 80.13, 86.97 89.85, 70.9 88.83 M93.11 66.62 C94.27 82.39, 87.55 87.89, 70.9 88.83 M70.9 88.83 C53.32 87.63, 41.37 88.79, 22.21 88.83 M70.9 88.83 C53.89 89.89, 36.4 88.8, 22.21 88.83 M22.21 88.83 C8.28 88.17, -1.71 79.97, 0 66.62 M22.21 88.83 C8.8 88.15, 0.59 80.11, 0 66.62 M0 66.62 C1.82 50.35, 0.74 33.61, 0 22.21 M0 66.62 C-0.97 55.91, 0.49 42.76, 0 22.21 M0 22.21 C-1.33 6.23, 7.46 0.13, 22.21 0 M0 22.21 C-0.99 6.62, 9.67 -0.16, 22.21 0" fill="none" stroke="#1e1e1e" stroke-width="2"></path></g><g transform="translate(34.3408203125 189.87407934376148) rotate(0 22.2119140625 12.5)"><text direction="ltr" dominant-baseline="text-before-edge" fill="#1e1e1e" font-family="Virgil, Segoe UI Emoji" font-size="20px" style="white-space: pre;" text-anchor="middle" x="22.2119140625" y="0">client</text></g><g stroke-linecap="round"><g transform="translate(112.28125 203.251426840995) rotate(0 92.51891356707856 -0.485282177770614)"><path d="M-1.16 -0.04 C29.73 -0.14, 154.39 -1.38, 185.61 -1.41 M0.43 -1.11 C31.2 -0.97, 154.03 0.07, 184.97 -0.1" fill="none" stroke="#1e1e1e" stroke-width="2"></path></g><g transform="translate(112.28125 203.251426840995) rotate(0 92.51891356707856 -0.485282177770614)"><path d="M156.75 10.09 C165.82 8.05, 174.22 5.77, 184.97 -0.1 M156.75 10.09 C166.48 6.36, 176.43 2.42, 184.97 -0.1" fill="none" stroke="#1e1e1e" stroke-width="2"></path></g><g transform="translate(112.28125 203.251426840995) rotate(0 92.51891356707856 -0.485282177770614)"><path d="M156.8 -10.43 C165.71 -5.88, 174.1 -1.57, 184.97 -0.1 M156.8 -10.43 C166.55 -6.66, 176.48 -3.09, 184.97 -0.1" fill="none" stroke="#1e1e1e" stroke-width="2"></path></g></g><mask></mask><g transform="translate(133.51583375393386 147.0596753176673) rotate(0 73.05992889404297 12.5)"><text direction="ltr" dominant-baseline="text-before-edge" fill="#1e1e1e" font-family="Virgil, Segoe UI Emoji" font-size="20px" style="white-space: pre;" text-anchor="start" x="0" y="0">get/set/delete</text></g><g stroke-linecap="round" transform="translate(326.7774088999188 52.02305585899444) rotate(0 326.78041624237716 157.05971674676812)"><path d="M32 0 C237.67 -2.15, 441.72 -2.76, 621.56 0 M32 0 C196.85 0.7, 360.83 0.91, 621.56 0 M621.56 0 C641.04 0.93, 653.62 10.92, 653.56 32 M621.56 0 C643.2 -1.87, 652.57 12.41, 653.56 32 M653.56 32 C656.34 93.43, 656.26 153.27, 653.56 282.12 M653.56 32 C655.27 91.21, 655.51 149.39, 653.56 282.12 M653.56 282.12 C654.03 303.43, 642.21 312.29, 621.56 314.12 M653.56 282.12 C652.37 305.74, 643.04 315.33, 621.56 314.12 M621.56 314.12 C496.66 314.41, 370.16 314.88, 32 314.12 M621.56 314.12 C464.47 312.28, 307 312.17, 32 314.12 M32 314.12 C12.12 314.85, -1.47 305.44, 0 282.12 M32 314.12 C10.99 315.15, 0.09 302.57, 0 282.12 M0 282.12 C3.08 196.04, 0.57 106.57, 0 32 M0 282.12 C-0.41 221.5, 0.75 161.38, 0 32 M0 32 C-1.99 8.89, 11.48 0.05, 32 0 M0 32 C-1.18 8.78, 11.62 1.99, 32 0" fill="none" stroke="#1e1e1e" stroke-width="2"></path></g><g transform="translate(571.8961423222535 10) rotate(0 28.53997802734375 12.5)"><text direction="ltr" dominant-baseline="text-before-edge" fill="#1e1e1e" font-family="Virgil, Segoe UI Emoji" font-size="20px" style="white-space: pre;" text-anchor="start" x="0" y="0">Cache</text></g><g stroke-linecap="round" transform="translate(373.5184775641035 99.4800567829688) rotate(0 161.29302651203164 107.27918615046528)"><path d="M0 0 C102.51 -0.04, 205.02 2.49, 322.59 0 M0 0 C72.6 0.8, 146.52 0.56, 322.59 0 M322.59 0 C322.39 66.22, 322.31 132.84, 322.59 214.56 M322.59 0 C323.89 81.16, 324.26 163.9, 322.59 214.56 M322.59 214.56 C208.88 216.69, 96.28 215.89, 0 214.56 M322.59 214.56 C255.34 217.15, 187.4 217.01, 0 214.56 M0 214.56 C-2.03 147.24, -2.29 76.9, 0 0 M0 214.56 C-0.91 165.36, -0.5 117.48, 0 0" fill="none" stroke="#1e1e1e" stroke-width="2"></path></g><g stroke-linecap="round"><g transform="translate(481.05517496312973 100.11525119608564) rotate(0 0 109.12682935888964)"><path d="M0 0 C-1.13 54.39, -1.67 105.01, 0 218.25 M0 0 C-1.73 60.97, -1.64 121.02, 0 218.25" fill="none" stroke="#1e1e1e" stroke-width="2"></path></g></g><mask></mask><g stroke-linecap="round"><g transform="translate(372.03073898546427 151.28595999099446) rotate(0 148.07656383745842 -0.20534486759763126)"><path d="M0 0 C59.45 -2.63, 120.74 -3.43, 296.15 -0.41 M0 0 C102.7 -1.02, 204.88 0, 296.15 -0.41" fill="none" stroke="#1e1e1e" stroke-width="2"></path></g></g><mask></mask><g stroke-linecap="round"><g transform="translate(373.81032364580585 210.3574773918362) rotate(0 156.3888532454897 0.003571215088641111)"><path d="M0 0 C120.52 -0.33, 242.3 1.04, 312.78 0.01 M0 0 C97.44 2.35, 195.07 2.32, 312.78 0.01" fill="none" stroke="#1e1e1e" stroke-width="2"></path></g></g><mask></mask><g stroke-linecap="round"><g transform="translate(371.87109423218635 267.89474090545167) rotate(0 156.44780810469268 0.0035712150886695326)"><path d="M0 0 C80.68 2.11, 160.22 2.26, 312.9 0.01 M0 0 C68.07 -1.18, 136.29 -1.11, 312.9 0.01" fill="none" stroke="#1e1e1e" stroke-width="2"></path></g></g><mask></mask><g transform="translate(441.4206819267026 68.2590861222638) rotate(0 40.47996520996094 12.5)"><text direction="ltr" dominant-baseline="text-before-edge" fill="#1e1e1e" font-family="Virgil, Segoe UI Emoji" font-size="20px" style="white-space: pre;" text-anchor="start" x="0" y="0">Hashmap</text></g><g transform="translate(404.8438552651071 114.40638764876917) rotate(0 18.999984741210938 12.5)"><text direction="ltr" dominant-baseline="text-before-edge" fill="#1e1e1e" font-family="Virgil, Segoe UI Emoji" font-size="20px" style="white-space: pre;" text-anchor="start" x="0" y="0">Key1</text></g><g transform="translate(504.9502920526261 115.89810951739656) rotate(0 85.96991729736328 12.5)"><text direction="ltr" dominant-baseline="text-before-edge" fill="#1e1e1e" font-family="Virgil, Segoe UI Emoji" font-size="20px" style="white-space: pre;" text-anchor="start" x="0" y="0">value1, expireTime</text></g><g transform="translate(405.45557686956954 169.87795017754655) rotate(0 23.40998077392578 12.5)"><text direction="ltr" dominant-baseline="text-before-edge" fill="#1e1e1e" font-family="Virgil, Segoe UI Emoji" font-size="20px" style="white-space: pre;" text-anchor="start" x="0" y="0">Key2</text></g><g transform="translate(502.6067690156442 170.48742711213185) rotate(0 90.37991333007812 12.5)"><text direction="ltr" dominant-baseline="text-before-edge" fill="#1e1e1e" font-family="Virgil, Segoe UI Emoji" font-size="20px" style="white-space: pre;" text-anchor="start" x="0" y="0">value2, expireTime</text></g><g transform="translate(406.8540524122757 225.78364376178035) rotate(0 23.09998321533203 12.5)"><text direction="ltr" dominant-baseline="text-before-edge" fill="#1e1e1e" font-family="Virgil, Segoe UI Emoji" font-size="20px" style="white-space: pre;" text-anchor="start" x="0" y="0">Key3</text></g><g transform="translate(409.50174611198827 280.1323286699307) rotate(0 22.689979553222656 12.5)"><text direction="ltr" dominant-baseline="text-before-edge" fill="#1e1e1e" font-family="Virgil, Segoe UI Emoji" font-size="20px" style="white-space: pre;" text-anchor="start" x="0" y="0">Key4</text></g><g transform="translate(504.492551445029 226.96311544686495) rotate(0 32.48997497558594 12.5)"><text direction="ltr" dominant-baseline="text-before-edge" fill="#1e1e1e" font-family="Virgil, Segoe UI Emoji" font-size="20px" style="white-space: pre;" text-anchor="start" x="0" y="0">value3</text></g><g transform="translate(507.2511947247226 279.1926665805691) rotate(0 89.659912109375 25)"><text direction="ltr" dominant-baseline="text-before-edge" fill="#1e1e1e" font-family="Virgil, Segoe UI Emoji" font-size="20px" style="white-space: pre;" text-anchor="start" x="0" y="0">value4, expireTime</text><text direction="ltr" dominant-baseline="text-before-edge" fill="#1e1e1e" font-family="Virgil, Segoe UI Emoji" font-size="20px" style="white-space: pre;" text-anchor="start" x="0" y="25"></text></g><g stroke-linecap="round" transform="translate(753.9592046103322 102.23117159352415) rotate(0 98.08664746376996 31.222357964583182)"><path d="M15.61 0 C62.37 -2.48, 111.55 0.41, 180.56 0 M15.61 0 C67.88 1.83, 118.31 0.52, 180.56 0 M180.56 0 C189.04 0.71, 195.69 3.87, 196.17 15.61 M180.56 0 C191.2 0.23, 194.57 3.51, 196.17 15.61 M196.17 15.61 C195.62 29.21, 195.59 37.48, 196.17 46.83 M196.17 15.61 C195.64 22.68, 197.08 31.48, 196.17 46.83 M196.17 46.83 C195.57 56.67, 191.21 62.32, 180.56 62.44 M196.17 46.83 C195 55.72, 189.21 62.93, 180.56 62.44 M180.56 62.44 C145.88 61.75, 114.05 62.35, 15.61 62.44 M180.56 62.44 C120.07 61.64, 57.17 62.32, 15.61 62.44 M15.61 62.44 C3.59 62.81, -1.31 57.93, 0 46.83 M15.61 62.44 C6.44 63.05, -0.61 57.37, 0 46.83 M0 46.83 C-0.21 38.64, -1.36 34.33, 0 15.61 M0 46.83 C-0.12 38.94, 0.64 32.78, 0 15.61 M0 15.61 C-0.2 5.67, 3.57 -0.74, 15.61 0 M0 15.61 C0.36 3.51, 4.42 0.54, 15.61 0" fill="none" stroke="#1e1e1e" stroke-width="2"></path></g><g transform="translate(816.6858819813287 120.95352955810733) rotate(0 35.35997009277344 12.5)"><text direction="ltr" dominant-baseline="text-before-edge" fill="#1e1e1e" font-family="Virgil, Segoe UI Emoji" font-size="20px" style="white-space: pre;" text-anchor="middle" x="35.35997009277344" y="0">Janitor</text></g><g stroke-linecap="round"><g transform="translate(853.4939897059257 176.4983817990921) rotate(0 -70.28097812592733 36.01286332690228)"><path d="M0.6 1.14 C0.48 13.18, 21.92 60.14, -1.78 71.99 C-25.48 83.83, -118.4 72.09, -141.62 72.2 M-0.55 0.69 C-0.75 12.38, 20.3 57.91, -2.82 70.06 C-25.94 82.22, -116.23 73.55, -139.28 73.61" fill="none" stroke="#1e1e1e" stroke-width="2"></path></g><g transform="translate(853.4939897059257 176.4983817990921) rotate(0 -70.28097812592733 36.01286332690228)"><path d="M-110.68 64.56 C-114.84 66.33, -122.14 66.75, -139.28 73.61 M-110.68 64.56 C-119.47 66.9, -129.3 70.06, -139.28 73.61" fill="none" stroke="#1e1e1e" stroke-width="2"></path></g><g transform="translate(853.4939897059257 176.4983817990921) rotate(0 -70.28097812592733 36.01286332690228)"><path d="M-111.56 85.06 C-115.49 82.5, -122.6 78.6, -139.28 73.61 M-111.56 85.06 C-119.98 80.95, -129.54 77.66, -139.28 73.61" fill="none" stroke="#1e1e1e" stroke-width="2"></path></g></g><mask></mask><g transform="translate(759.8103965952984 261.58360342203736) rotate(0 97.37992095947266 37.5)"><text direction="ltr" dominant-baseline="text-before-edge" fill="#1e1e1e" font-family="Virgil, Segoe UI Emoji" font-size="20px" style="white-space: pre;" text-anchor="middle" x="97.37992095947266" y="0">Run every n minutes</text><text direction="ltr" dominant-baseline="text-before-edge" fill="#1e1e1e" font-family="Virgil, Segoe UI Emoji" font-size="20px" style="white-space: pre;" text-anchor="middle" x="97.37992095947266" y="25">to remove expired </text><text direction="ltr" dominant-baseline="text-before-edge" fill="#1e1e1e" font-family="Virgil, Segoe UI Emoji" font-size="20px" style="white-space: pre;" text-anchor="middle" x="97.37992095947266" y="50">key-value pairs.</text></g></svg>