<svg height="937.5560997690758" version="1.1" viewbox="0 0 661.2749137452513 937.5560997690758" width="661.2749137452513" xmlns="http://www.w3.org/2000/svg">
<!-- svg-source:excalidraw -->
<!-- payload-type:application/vnd.excalidraw+json --><!-- payload-version:2 -->
<defs>
<style class="style-fonts">
</style>
</defs>
<rect fill="#ffffff" height="937.5560997690758" width="661.2749137452513" x="0" y="0"></rect><g stroke-linecap="round" transform="translate(10 422.69349495022067) rotate(0 46.552734375 44.4140625)"><path d="M22.21 0 C39.83 -0.79, 53 1.65, 70.9 0 M22.21 0 C40.25 0.6, 56.64 0.29, 70.9 0 M70.9 0 C87.68 1.43, 92.44 6.18, 93.11 22.21 M70.9 0 C86.94 2.01, 93.64 5.34, 93.11 22.21 M93.11 22.21 C93.38 37.81, 94.86 59.17, 93.11 66.62 M93.11 22.21 C92.64 39.04, 94 55.57, 93.11 66.62 M93.11 66.62 C94.32 79.52, 84.09 89.3, 70.9 88.83 M93.11 66.62 C93.74 82.76, 84.38 89.64, 70.9 88.83 M70.9 88.83 C55.95 89.59, 44.74 90.52, 22.21 88.83 M70.9 88.83 C51.55 89.57, 32.77 89.03, 22.21 88.83 M22.21 88.83 C7.93 86.86, -1.11 82.67, 0 66.62 M22.21 88.83 C8.15 88.65, 1.66 79.65, 0 66.62 M0 66.62 C0.81 53.34, -1.06 42, 0 22.21 M0 66.62 C-0.48 55.82, -0.7 43.97, 0 22.21 M0 22.21 C-1.23 9.09, 7.2 -0.49, 22.21 0 M0 22.21 C1.48 6.62, 5.11 1.35, 22.21 0" fill="none" stroke="#1e1e1e" stroke-width="2"></path></g><g transform="translate(34.3408203125 454.60755745022067) rotate(0 22.2119140625 12.5)"><text direction="ltr" dominant-baseline="text-before-edge" fill="#1e1e1e" font-family="Virgil, Segoe UI Emoji" font-size="20px" style="white-space: pre;" text-anchor="middle" x="22.2119140625" y="0">client</text></g><g stroke-linecap="round"><g transform="translate(112.61267447310081 459.35083420601836) rotate(0 106.40510452433824 -148.2384625096781)"><path d="M1.07 0.69 C36.45 -48.74, 176.46 -247.73, 211.87 -297.2" fill="none" stroke="#1e1e1e" stroke-dasharray="8 10" stroke-width="2.5"></path></g><g transform="translate(112.61267447310081 459.35083420601836) rotate(0 106.40510452433824 -148.2384625096781)"><path d="M8.97 -28.25 C7.85 -22.03, 3.4 -11.48, 1.07 0.69" fill="none" stroke="#1e1e1e" stroke-width="2.5"></path></g><g transform="translate(112.61267447310081 459.35083420601836) rotate(0 106.40510452433824 -148.2384625096781)"><path d="M25.72 -16.4 C20.21 -13.19, 11.28 -5.8, 1.07 0.69" fill="none" stroke="#1e1e1e" stroke-width="2.5"></path></g><g transform="translate(112.61267447310081 459.35083420601836) rotate(0 106.40510452433824 -148.2384625096781)"><path d="M203.94 -268.27 C207.36 -277.61, 207.12 -282.5, 211.87 -297.2" fill="none" stroke="#1e1e1e" stroke-width="2.5"></path></g><g transform="translate(112.61267447310081 459.35083420601836) rotate(0 106.40510452433824 -148.2384625096781)"><path d="M187.2 -280.14 C195.02 -286.47, 199.25 -288.18, 211.87 -297.2" fill="none" stroke="#1e1e1e" stroke-width="2.5"></path></g></g><mask></mask><g stroke-linecap="round" transform="translate(347.412357169344 10) rotate(0 88.23450257863317 98.93473203061866)"><path d="M32 0 C74.54 2.15, 120.1 0.12, 144.47 0 M32 0 C65.41 -1.41, 100.02 0.07, 144.47 0 M144.47 0 C166.27 -1.8, 178.38 11.22, 176.47 32 M144.47 0 C166.47 0.17, 174.21 12.54, 176.47 32 M176.47 32 C178.91 82.97, 178.54 138.13, 176.47 165.87 M176.47 32 C176.47 84.28, 177.55 136.66, 176.47 165.87 M176.47 165.87 C175.32 187.91, 165.25 196.2, 144.47 197.87 M176.47 165.87 C175.47 185.26, 166.92 198.27, 144.47 197.87 M144.47 197.87 C100.81 198.11, 56.68 199.24, 32 197.87 M144.47 197.87 C110.05 197.38, 77.06 196.68, 32 197.87 M32 197.87 C12.11 196.32, -0.19 185.67, 0 165.87 M32 197.87 C11.6 198.41, -0.44 185.59, 0 165.87 M0 165.87 C2.51 116.69, 0.96 68.07, 0 32 M0 165.87 C0.73 136.41, 1.47 107.1, 0 32 M0 32 C-1.99 11.84, 10.17 0.03, 32 0 M0 32 C1.96 10.85, 9 1.72, 32 0" fill="none" stroke="#1e1e1e" stroke-width="2"></path></g><g transform="translate(375.69080506047715 96.43473203061865) rotate(0 59.9560546875 12.5)"><text direction="ltr" dominant-baseline="text-before-edge" fill="#1e1e1e" font-family="Virgil, Segoe UI Emoji" font-size="20px" style="white-space: pre;" text-anchor="middle" x="59.9560546875" y="0">cache replica 1</text></g><g stroke-linecap="round" transform="translate(352.2582205380561 360.10393560935825) rotate(0 88.23450257863317 98.93473203061865)"><path d="M32 0 C72.88 2.4, 115.18 -0.24, 144.47 0 M32 0 C59.11 -1.88, 86.71 -0.71, 144.47 0 M144.47 0 C166.39 0.15, 174.5 12.3, 176.47 32 M144.47 0 C167.91 1.51, 177.83 12.47, 176.47 32 M176.47 32 C179.04 63.59, 175.36 91.14, 176.47 165.87 M176.47 32 C176.26 75.7, 176.56 117.86, 176.47 165.87 M176.47 165.87 C175.6 185.51, 166.77 198.22, 144.47 197.87 M176.47 165.87 C178.66 189.44, 166.25 198.78, 144.47 197.87 M144.47 197.87 C110.64 199.04, 74.8 197.41, 32 197.87 M144.47 197.87 C104.46 197.01, 62.92 197.02, 32 197.87 M32 197.87 C11.48 198.34, -0.38 185.8, 0 165.87 M32 197.87 C12.04 196.62, -0.15 189.25, 0 165.87 M0 165.87 C-1.79 131.23, 1.53 98.87, 0 32 M0 165.87 C-1.86 129.61, -1.11 92.19, 0 32 M0 32 C1.7 10.82, 9.22 1.5, 32 0 M0 32 C1.86 8.42, 10.38 0.26, 32 0" fill="none" stroke="#1e1e1e" stroke-width="2"></path></g><g transform="translate(380.53666842918926 446.5386676399769) rotate(0 59.9560546875 12.5)"><text direction="ltr" dominant-baseline="text-before-edge" fill="#1e1e1e" font-family="Virgil, Segoe UI Emoji" font-size="20px" style="white-space: pre;" text-anchor="middle" x="59.9560546875" y="0">cache replica 2</text></g><g stroke-linecap="round" transform="translate(350.8886488379186 729.6866357078385) rotate(0 88.23450257863317 98.93473203061865)"><path d="M32 0 C75.64 1.45, 123.47 0.84, 144.47 0 M32 0 C55.93 -0.24, 78.3 0.5, 144.47 0 M144.47 0 C167.64 1.31, 177.65 12.23, 176.47 32 M144.47 0 C164.12 1.37, 177.92 12.71, 176.47 32 M176.47 32 C175.67 80.81, 176.36 127.37, 176.47 165.87 M176.47 32 C175.66 76.04, 176.58 121.95, 176.47 165.87 M176.47 165.87 C178.37 189.15, 166.19 198.66, 144.47 197.87 M176.47 165.87 C176.49 188.46, 167.13 197.89, 144.47 197.87 M144.47 197.87 C109.03 197.9, 70.95 198.69, 32 197.87 M144.47 197.87 C119.84 197.24, 94.2 196.3, 32 197.87 M32 197.87 C11.86 196.78, -0.13 188.98, 0 165.87 M32 197.87 C9.51 198.14, -1.68 185.32, 0 165.87 M0 165.87 C-1.62 135.26, -1.8 100.08, 0 32 M0 165.87 C1.18 117.93, -0.39 70.58, 0 32 M0 32 C1.62 8.72, 10.42 0.23, 32 0 M0 32 C-1.52 12.12, 11.39 -0.53, 32 0" fill="none" stroke="#1e1e1e" stroke-width="2"></path></g><g transform="translate(379.16709672905176 816.1213677384571) rotate(0 59.9560546875 12.5)"><text direction="ltr" dominant-baseline="text-before-edge" fill="#1e1e1e" font-family="Virgil, Segoe UI Emoji" font-size="20px" style="white-space: pre;" text-anchor="middle" x="59.9560546875" y="0">cache replica 3</text></g><g stroke-linecap="round"><g transform="translate(127.05581079399894 472.2475783758098) rotate(0 103.19053601705036 0.7865281058452922)"><path d="M0.28 -1.08 C34.76 -0.93, 173.12 1.45, 207.53 1.91" fill="none" stroke="#1e1e1e" stroke-dasharray="8 10" stroke-width="2.5"></path></g><g transform="translate(127.05581079399894 472.2475783758098) rotate(0 103.19053601705036 0.7865281058452922)"><path d="M28.61 -10.94 C16.88 -5.48, 9.22 -3.32, 0.28 -1.08" fill="none" stroke="#1e1e1e" stroke-width="2.5"></path></g><g transform="translate(127.05581079399894 472.2475783758098) rotate(0 103.19053601705036 0.7865281058452922)"><path d="M28.32 9.58 C16.52 7.79, 8.95 2.69, 0.28 -1.08" fill="none" stroke="#1e1e1e" stroke-width="2.5"></path></g><g transform="translate(127.05581079399894 472.2475783758098) rotate(0 103.19053601705036 0.7865281058452922)"><path d="M179.18 11.73 C187.32 10.1, 199.7 5.3, 207.53 1.91" fill="none" stroke="#1e1e1e" stroke-width="2.5"></path></g><g transform="translate(127.05581079399894 472.2475783758098) rotate(0 103.19053601705036 0.7865281058452922)"><path d="M179.5 -8.78 C187.71 -3.16, 199.97 -0.7, 207.53 1.91" fill="none" stroke="#1e1e1e" stroke-width="2.5"></path></g></g><mask></mask><g stroke-linecap="round"><g transform="translate(121.89161887610999 503.58256244222173) rotate(0 104.84986493155333 157.05606335700793)"><path d="M1.15 0.33 C36.11 52.88, 175.49 261.74, 210.05 314.2" fill="none" stroke="#1e1e1e" stroke-dasharray="8 10" stroke-width="2.5"></path></g><g transform="translate(121.89161887610999 503.58256244222173) rotate(0 104.84986493155333 157.05606335700793)"><path d="M25.32 18.11 C18.22 13.18, 10.01 4.89, 1.15 0.33" fill="none" stroke="#1e1e1e" stroke-width="2.5"></path></g><g transform="translate(121.89161887610999 503.58256244222173) rotate(0 104.84986493155333 157.05606335700793)"><path d="M8.24 29.48 C6.77 20.72, 4.07 8.75, 1.15 0.33" fill="none" stroke="#1e1e1e" stroke-width="2.5"></path></g><g transform="translate(121.89161887610999 503.58256244222173) rotate(0 104.84986493155333 157.05606335700793)"><path d="M185.91 296.39 C194.11 302.5, 201.5 305.71, 210.05 314.2" fill="none" stroke="#1e1e1e" stroke-width="2.5"></path></g><g transform="translate(121.89161887610999 503.58256244222173) rotate(0 104.84986493155333 157.05606335700793)"><path d="M203.01 285.04 C205.58 294.98, 207.45 301.86, 210.05 314.2" fill="none" stroke="#1e1e1e" stroke-width="2.5"></path></g></g><mask></mask><g transform="translate(47.90638713092676 636.4909286229041) rotate(0 68.0499496459961 25)"><text direction="ltr" dominant-baseline="text-before-edge" fill="#868e96" font-family="Virgil, Segoe UI Emoji" font-size="20px" style="white-space: pre;" text-anchor="middle" x="68.0499496459961" y="0">write to ANY </text><text direction="ltr" dominant-baseline="text-before-edge" fill="#868e96" font-family="Virgil, Segoe UI Emoji" font-size="20px" style="white-space: pre;" text-anchor="middle" x="68.0499496459961" y="25">of the nodes</text></g><g stroke-linecap="round"><g transform="translate(431.8923134414057 340.34031516340696) rotate(0 0 -56.53155211207917)"><path d="M-0.39 -0.06 C-0.6 -18.73, -0.19 -93.86, -0.07 -112.51 M1.61 -1.14 C1.13 -20.12, -0.75 -95.58, -1.06 -114.35" fill="none" stroke="#1e1e1e" stroke-width="2"></path></g><g transform="translate(431.8923134414057 340.34031516340696) rotate(0 0 -56.53155211207917)"><path d="M-10.6 -28.27 C-6.78 -17.19, -1.71 -5.37, -0.39 -0.06 M-10.6 -28.27 C-7.33 -17.42, -2.45 -5.5, -0.39 -0.06" fill="none" stroke="#1e1e1e" stroke-width="2"></path></g><g transform="translate(431.8923134414057 340.34031516340696) rotate(0 0 -56.53155211207917)"><path d="M9.92 -28.23 C5.61 -17.23, 2.55 -5.43, -0.39 -0.06 M9.92 -28.23 C5.2 -17.35, 2.1 -5.44, -0.39 -0.06" fill="none" stroke="#1e1e1e" stroke-width="2"></path></g><g transform="translate(431.8923134414057 340.34031516340696) rotate(0 0 -56.53155211207917)"><path d="M9.8 -86.38 C5.51 -97.62, 2.23 -108.06, -1.06 -114.35 M9.8 -86.38 C4.43 -97.34, 1.11 -107.28, -1.06 -114.35" fill="none" stroke="#1e1e1e" stroke-width="2"></path></g><g transform="translate(431.8923134414057 340.34031516340696) rotate(0 0 -56.53155211207917)"><path d="M-10.71 -85.94 C-6.88 -97.29, -2.03 -107.9, -1.06 -114.35 M-10.71 -85.94 C-8.1 -97.12, -3.43 -107.24, -1.06 -114.35" fill="none" stroke="#1e1e1e" stroke-width="2"></path></g></g><mask></mask><g stroke-linecap="round"><g transform="translate(432.5383180233241 704.2106316979672) rotate(0 0 -56.53155211207917)"><path d="M-0.28 -0.01 C-0.18 -18.73, 0.2 -93.29, 0.33 -112.08 M1.77 -1.07 C1.76 -20.13, -0.15 -95.32, -0.45 -113.69" fill="none" stroke="#1e1e1e" stroke-width="2"></path></g><g transform="translate(432.5383180233241 704.2106316979672) rotate(0 0 -56.53155211207917)"><path d="M-10.39 -28.26 C-7.56 -19.86, -3.1 -11.79, -0.28 -0.01 M-10.39 -28.26 C-7.03 -18.81, -4.35 -9.38, -0.28 -0.01" fill="none" stroke="#1e1e1e" stroke-width="2"></path></g><g transform="translate(432.5383180233241 704.2106316979672) rotate(0 0 -56.53155211207917)"><path d="M10.13 -28.15 C7.27 -19.83, 6.04 -11.79, -0.28 -0.01 M10.13 -28.15 C6.81 -18.77, 2.81 -9.37, -0.28 -0.01" fill="none" stroke="#1e1e1e" stroke-width="2"></path></g><g transform="translate(432.5383180233241 704.2106316979672) rotate(0 0 -56.53155211207917)"><path d="M10.41 -85.72 C7.32 -92.96, 5.96 -100.48, -0.45 -113.69 M10.41 -85.72 C6.9 -94.61, 2.74 -103.47, -0.45 -113.69" fill="none" stroke="#1e1e1e" stroke-width="2"></path></g><g transform="translate(432.5383180233241 704.2106316979672) rotate(0 0 -56.53155211207917)"><path d="M-10.11 -85.29 C-7.51 -92.6, -3.18 -100.24, -0.45 -113.69 M-10.11 -85.29 C-6.94 -94.28, -4.42 -103.29, -0.45 -113.69" fill="none" stroke="#1e1e1e" stroke-width="2"></path></g></g><mask></mask><g transform="translate(467.4150809815794 261.0725843812057) rotate(0 91.92991638183594 25)"><text direction="ltr" dominant-baseline="text-before-edge" fill="#868e96" font-family="Virgil, Segoe UI Emoji" font-size="20px" style="white-space: pre;" text-anchor="middle" x="91.92991638183594" y="0">Propogate changes</text><text direction="ltr" dominant-baseline="text-before-edge" fill="#868e96" font-family="Virgil, Segoe UI Emoji" font-size="20px" style="white-space: pre;" text-anchor="middle" x="91.92991638183594" y="25"> to other nodes</text></g></svg>