<svg height="684.1779328541697" version="1.1" viewbox="0 0 1929.0278751910446 684.1779328541697" width="1929.0278751910446" xmlns="http://www.w3.org/2000/svg">
<!-- svg-source:excalidraw -->
<!-- payload-type:application/vnd.excalidraw+json --><!-- payload-version:2 -->
<defs>
<style class="style-fonts">
</style>
</defs>
<rect fill="#ffffff" height="684.1779328541697" width="1929.0278751910446" x="0" y="0"></rect><g stroke-linecap="round" transform="translate(515.2737544801546 38.33160706004219) rotate(0 98.697265625 53.470703125)"><path d="M4.03 10.13 C4.03 10.13, 4.03 10.13, 4.03 10.13 M4.03 10.13 C4.03 10.13, 4.03 10.13, 4.03 10.13 M0.88 25.94 C9.29 16.35, 16.21 9.64, 22.53 1.04 M0.88 25.94 C6.84 19.11, 14.48 11.5, 22.53 1.04 M1.02 37.99 C9.06 31.07, 16.62 20.87, 33.82 0.25 M1.02 37.99 C11.94 25.1, 23.42 12.81, 33.82 0.25 M1.15 50.03 C13.31 33.63, 27.76 18.72, 44.45 0.22 M1.15 50.03 C12.34 36.36, 25.01 22.13, 44.45 0.22 M1.28 62.07 C11.04 48.92, 23.32 35.34, 55.08 0.18 M1.28 62.07 C13.04 47.79, 25.86 33.24, 55.08 0.18 M1.42 74.11 C16.38 54.98, 31.84 38.53, 65.71 0.15 M1.42 74.11 C25.46 45.86, 49.52 17.66, 65.71 0.15 M0.89 86.9 C24.86 59.62, 48.29 34.97, 76.34 0.11 M0.89 86.9 C27.94 54.89, 55.55 22.64, 76.34 0.11 M3.65 95.93 C32.18 63.24, 62.69 29.32, 86.97 0.08 M3.65 95.93 C25.81 69.77, 48.53 42.62, 86.97 0.08 M9.03 101.93 C28.76 82.25, 45.71 62.35, 97.6 0.04 M9.03 101.93 C30.72 76.2, 54.38 50.2, 97.6 0.04 M16.38 105.67 C42.26 75.41, 70.11 43.85, 108.23 0.01 M16.38 105.67 C43.8 73.51, 72.06 41.63, 108.23 0.01 M25.7 107.14 C57.69 72.41, 88.09 34.32, 118.86 -0.03 M25.7 107.14 C52.47 75.73, 78.38 44.44, 118.86 -0.03 M36.33 107.11 C58.36 80.74, 82.58 52.57, 128.84 0.69 M36.33 107.11 C66.71 73.96, 95.92 38.53, 128.84 0.69 M46.96 107.07 C67.27 83.78, 88.08 57.85, 139.47 0.66 M46.96 107.07 C83.45 67.06, 117.87 27.8, 139.47 0.66 M57.59 107.04 C83.9 79.3, 111.99 45.67, 150.1 0.63 M57.59 107.04 C82.51 76.41, 110.04 45.05, 150.1 0.63 M68.22 107 C93.98 74.52, 121.77 45.38, 160.73 0.59 M68.22 107 C96.49 74.35, 127.4 39.27, 160.73 0.59 M78.85 106.97 C112.47 66.59, 148.64 26.28, 171.36 0.56 M78.85 106.97 C101.5 81.86, 122.18 55.98, 171.36 0.56 M89.48 106.94 C115.39 75.77, 139.56 47.13, 180.67 2.03 M89.48 106.94 C109.31 82.89, 130.12 59.39, 180.67 2.03 M100.11 106.9 C134.78 66.08, 168.97 26.1, 188.68 5.02 M100.11 106.9 C130.69 73.26, 158.56 39.12, 188.68 5.02 M110.74 106.87 C144.01 71.98, 175.23 35.59, 194.06 11.02 M110.74 106.87 C133.22 80.49, 156.79 53.94, 194.06 11.02 M121.37 106.83 C144.56 80.5, 170.52 52.58, 196.82 20.04 M121.37 106.83 C138.6 87.13, 154.12 69.45, 196.82 20.04 M132 106.8 C156.1 83.13, 178.78 56.76, 197.61 31.33 M132 106.8 C158 77.35, 182.85 47.4, 197.61 31.33 M141.98 107.52 C153.64 92.85, 166.6 81.64, 197.74 43.37 M141.98 107.52 C155.62 90.63, 170.15 74.61, 197.74 43.37 M152.61 107.48 C168.37 89.91, 186.27 68.92, 197.87 55.41 M152.61 107.48 C168.1 89.25, 185.86 70.16, 197.87 55.41 M163.24 107.45 C173.16 95.57, 181.32 87.26, 198.01 67.45 M163.24 107.45 C172.88 95.86, 184.08 84.26, 198.01 67.45 M174.52 106.66 C181.86 96.87, 191.48 84.82, 197.48 80.24 M174.52 106.66 C182.33 97.95, 188.34 90.57, 197.48 80.24" fill="none" stroke="#ffffff" stroke-width="1"></path><path d="M26.74 0 C75.59 -2.91, 121.52 -1.51, 170.66 0 M26.74 0 C73.88 -0.3, 120.71 -0.64, 170.66 0 M170.66 0 C186.72 -0.09, 198.47 10.81, 197.39 26.74 M170.66 0 C189.8 1.01, 197.14 9.42, 197.39 26.74 M197.39 26.74 C197.78 42.72, 197.44 54.14, 197.39 80.21 M197.39 26.74 C196.91 41.44, 197.24 54.16, 197.39 80.21 M197.39 80.21 C198.89 96.59, 189.68 108.62, 170.66 106.94 M197.39 80.21 C195.94 99.73, 188.3 106.01, 170.66 106.94 M170.66 106.94 C133.82 106.35, 94.89 109.34, 26.74 106.94 M170.66 106.94 C125.23 107.45, 80.58 106.87, 26.74 106.94 M26.74 106.94 C10.77 108.12, 1.79 97.52, 0 80.21 M26.74 106.94 C9.26 107.01, -0.58 100.03, 0 80.21 M0 80.21 C0.13 66.86, -1.02 55.91, 0 26.74 M0 80.21 C-0.61 66.87, -0.15 52.44, 0 26.74 M0 26.74 C-0.72 10.55, 9.1 1.83, 26.74 0 M0 26.74 C0.64 8.6, 7.56 -0.2, 26.74 0" fill="none" stroke="#1e1e1e" stroke-width="2"></path></g><g transform="translate(529.9311031129671 79.30231018504219) rotate(0 84.0399169921875 12.5)"><text direction="ltr" dominant-baseline="text-before-edge" fill="#1e1e1e" font-family="Virgil, Segoe UI Emoji" font-size="20px" style="white-space: pre;" text-anchor="middle" x="84.0399169921875" y="0">Scheduler Service</text></g><g stroke-linecap="round"><g transform="translate(720.3245357301546 134.49725371739896) rotate(0 39.22324959116702 15.758255254877895)"><path d="M-0.13 0.31 C13.17 5.65, 65.66 26.84, 78.81 32.13 M-1.65 -0.57 C11.6 4.41, 64.74 25.24, 78.05 30.33" fill="none" stroke="#1e1e1e" stroke-width="2"></path></g><g transform="translate(720.3245357301546 134.49725371739896) rotate(0 39.22324959116702 15.758255254877895)"><path d="M29.86 1.33 C23.79 1.68, 17.72 1.38, -0.13 0.31 M29.86 1.33 C18.66 0.96, 9.76 1.61, -0.13 0.31" fill="none" stroke="#1e1e1e" stroke-width="2"></path></g><g transform="translate(720.3245357301546 134.49725371739896) rotate(0 39.22324959116702 15.758255254877895)"><path d="M22.18 20.37 C17.79 16.54, 13.4 12.07, -0.13 0.31 M22.18 20.37 C13.58 13.44, 7.32 7.53, -0.13 0.31" fill="none" stroke="#1e1e1e" stroke-width="2"></path></g><g transform="translate(720.3245357301546 134.49725371739896) rotate(0 39.22324959116702 15.758255254877895)"><path d="M48.05 29.7 C55.15 30.47, 62.25 30.54, 78.05 30.33 M48.05 29.7 C57.5 29.85, 69.23 31.06, 78.05 30.33" fill="none" stroke="#1e1e1e" stroke-width="2"></path></g><g transform="translate(720.3245357301546 134.49725371739896) rotate(0 39.22324959116702 15.758255254877895)"><path d="M55.47 10.57 C60.96 15.53, 66.42 19.8, 78.05 30.33 M55.47 10.57 C62.4 17.31, 71.59 25.1, 78.05 30.33" fill="none" stroke="#1e1e1e" stroke-width="2"></path></g></g><mask></mask><g stroke-linecap="round" transform="translate(812.917754118215 80.24057533496762) rotate(0 89.47739173275392 87.55859375)"><path d="M12.91 43.02 C12.91 43.02, 12.91 43.02, 12.91 43.02 M12.91 43.02 C12.91 43.02, 12.91 43.02, 12.91 43.02 M4.51 64.87 C14.94 54.25, 24.94 39.56, 52.4 9.78 M4.51 64.87 C20.26 44.47, 38.01 25.82, 52.4 9.78 M0.71 81.44 C24.53 56.47, 46.84 27.75, 68.94 2.95 M0.71 81.44 C19.09 58.79, 38.63 37.35, 68.94 2.95 M2.15 91.97 C18.66 72.09, 36.42 51.04, 80.23 2.16 M2.15 91.97 C23.96 66.57, 47.38 39.48, 80.23 2.16 M2.94 103.26 C28.17 72.9, 56.82 41.72, 92.17 0.62 M2.94 103.26 C29.98 71.13, 58.41 39.64, 92.17 0.62 M4.39 113.79 C31.31 85.79, 54.38 56.49, 102.8 0.58 M4.39 113.79 C34.24 80.39, 62.62 47.6, 102.8 0.58 M8.46 121.3 C31.08 96.39, 52.15 69.41, 110.8 3.57 M8.46 121.3 C37.21 90.32, 65.19 57.48, 110.8 3.57 M12.53 128.82 C51.65 82.32, 92.47 34.85, 118.81 6.55 M12.53 128.82 C46.46 89.56, 81.6 51.56, 118.81 6.55 M17.25 135.57 C53.66 91.31, 93.82 46.74, 126.82 9.54 M17.25 135.57 C57.55 87.83, 98.86 40.11, 126.82 9.54 M21.98 142.33 C65.51 92.86, 106.31 42.67, 134.82 12.52 M21.98 142.33 C47.28 114.01, 72.43 85.86, 134.82 12.52 M28.02 147.58 C72.03 98.09, 117.17 47.1, 140.86 17.77 M28.02 147.58 C63.6 106.95, 99.2 66.36, 140.86 17.77 M33.4 153.58 C71.55 111.69, 106.26 69.84, 146.9 23.02 M33.4 153.58 C72.06 108.96, 112.76 63.69, 146.9 23.02 M39.44 158.83 C85.26 107.61, 126.09 60.27, 152.93 28.27 M39.44 158.83 C71.49 120.92, 102.96 83.5, 152.93 28.27 M46.13 163.33 C89.75 113.56, 136.93 59.19, 159.63 32.76 M46.13 163.33 C84.49 120.03, 123.14 73.51, 159.63 32.76 M54.14 166.31 C82.38 135.88, 107.71 101.52, 164.35 39.52 M54.14 166.31 C98.24 115.92, 140.74 64.49, 164.35 39.52 M62.14 169.29 C88.15 137.19, 118.53 107.16, 167.77 47.79 M62.14 169.29 C102.38 123.75, 142.28 78.77, 167.77 47.79 M70.15 172.28 C89.74 149.68, 113 125.14, 171.84 55.3 M70.15 172.28 C96.25 144.13, 121.34 113.72, 171.84 55.3 M78.15 175.26 C107.69 141.16, 134.92 110.78, 175.91 62.81 M78.15 175.26 C107.41 143.92, 133.91 113.08, 175.91 62.81 M89.44 174.47 C121.96 134.78, 156.7 95.4, 177.35 73.34 M89.44 174.47 C120.93 137.9, 151.67 102.09, 177.35 73.34 M101.38 172.93 C127.31 140.95, 155.68 109.95, 177.48 85.38 M101.38 172.93 C119.09 152.42, 135.46 134.41, 177.48 85.38 M112.67 172.14 C139.56 142.94, 163.42 113.85, 178.27 96.67 M112.67 172.14 C131.23 149.7, 151.16 127.57, 178.27 96.67 M129.86 164.56 C140.07 152.3, 150.8 137.61, 173.81 113.99 M129.86 164.56 C141.45 152.53, 150.85 139.61, 173.81 113.99" fill="none" stroke="#ffffff" stroke-width="1"></path><path d="M101.36 -0.12 C112.21 0, 124.25 6.49, 134.27 12.33 C144.29 18.16, 154.47 26.16, 161.48 34.92 C168.5 43.68, 173.56 54.25, 176.37 64.9 C179.19 75.55, 179.88 87.76, 178.4 98.83 C176.91 109.9, 173.19 121.49, 167.44 131.32 C161.69 141.14, 153.08 151.13, 143.91 157.79 C134.73 164.45, 123.51 168.42, 112.4 171.27 C101.3 174.13, 88.7 176.41, 77.26 174.95 C65.82 173.49, 53.41 168.3, 43.76 162.53 C34.11 156.75, 26.17 148.91, 19.36 140.3 C12.55 131.68, 6.13 121.47, 2.91 110.86 C-0.31 100.24, -1.6 87.92, 0.06 76.61 C1.72 65.31, 6.92 52.83, 12.88 43.05 C18.85 33.27, 26.98 24.68, 35.84 17.95 C44.7 11.21, 53.26 5.05, 66.03 2.63 C78.79 0.21, 103.03 2.69, 112.44 3.42 C121.85 4.15, 122.87 5.58, 122.51 7.02 M94.16 0.41 C104.82 -0.45, 117.71 3.22, 128.33 8.22 C138.94 13.22, 150.01 22, 157.86 30.4 C165.71 38.81, 171.88 48.22, 175.41 58.64 C178.94 69.06, 180 81.49, 179.02 92.92 C178.04 104.35, 174.75 117.16, 169.53 127.22 C164.32 137.29, 155.97 146.1, 147.72 153.31 C139.47 160.52, 130.8 167, 120.05 170.49 C109.29 173.98, 94.81 175.05, 83.2 174.24 C71.6 173.43, 60.34 170.44, 50.4 165.63 C40.46 160.82, 31.2 153.54, 23.56 145.39 C15.92 137.24, 8.39 127.32, 4.55 116.74 C0.71 106.16, -0.14 92.96, 0.52 81.91 C1.17 70.86, 3.53 60.18, 8.5 50.43 C13.46 40.67, 21.6 31.01, 30.31 23.37 C39.01 15.73, 50.11 8.47, 60.73 4.58 C71.35 0.69, 88.53 0.54, 94.03 0.03 C99.53 -0.49, 93.62 -0.09, 93.75 1.49" fill="none" stroke="#1e1e1e" stroke-width="2"></path></g><g transform="translate(844.3251181184629 142.88589369318456) rotate(0 58.299957275390625 25)"><text direction="ltr" dominant-baseline="text-before-edge" fill="#1e1e1e" font-family="Virgil, Segoe UI Emoji" font-size="20px" style="white-space: pre;" text-anchor="middle" x="58.299957275390625" y="0">Job Store</text><text direction="ltr" dominant-baseline="text-before-edge" fill="#1e1e1e" font-family="Virgil, Segoe UI Emoji" font-size="20px" style="white-space: pre;" text-anchor="middle" x="58.299957275390625" y="25">(DynamoDB)</text></g><g transform="translate(1023.4826870800541 84.88780423003573) rotate(0 49.83995574712753 75)"><text direction="ltr" dominant-baseline="text-before-edge" fill="#1e1e1e" font-family="Virgil, Segoe UI Emoji" font-size="20px" style="white-space: pre;" text-anchor="start" x="0" y="0">Jobs</text><text direction="ltr" dominant-baseline="text-before-edge" fill="#1e1e1e" font-family="Virgil, Segoe UI Emoji" font-size="20px" style="white-space: pre;" text-anchor="start" x="0" y="25">- id</text><text direction="ltr" dominant-baseline="text-before-edge" fill="#1e1e1e" font-family="Virgil, Segoe UI Emoji" font-size="20px" style="white-space: pre;" text-anchor="start" x="0" y="50">- userId</text><text direction="ltr" dominant-baseline="text-before-edge" fill="#1e1e1e" font-family="Virgil, Segoe UI Emoji" font-size="20px" style="white-space: pre;" text-anchor="start" x="0" y="75">- taskId</text><text direction="ltr" dominant-baseline="text-before-edge" fill="#1e1e1e" font-family="Virgil, Segoe UI Emoji" font-size="20px" style="white-space: pre;" text-anchor="start" x="0" y="100">- params</text><text direction="ltr" dominant-baseline="text-before-edge" fill="#1e1e1e" font-family="Virgil, Segoe UI Emoji" font-size="20px" style="white-space: pre;" text-anchor="start" x="0" y="125">- schedule</text></g><g transform="translate(1157.9286877196107 85.1261715337796) rotate(0 52.149956211447716 75)"><text direction="ltr" dominant-baseline="text-before-edge" fill="#1e1e1e" font-family="Virgil, Segoe UI Emoji" font-size="20px" style="white-space: pre;" text-anchor="start" x="0" y="0">Executions</text><text direction="ltr" dominant-baseline="text-before-edge" fill="#1e1e1e" font-family="Virgil, Segoe UI Emoji" font-size="20px" style="white-space: pre;" text-anchor="start" x="0" y="25">- time</text><text direction="ltr" dominant-baseline="text-before-edge" fill="#1e1e1e" font-family="Virgil, Segoe UI Emoji" font-size="20px" style="white-space: pre;" text-anchor="start" x="0" y="50">- jobId</text><text direction="ltr" dominant-baseline="text-before-edge" fill="#1e1e1e" font-family="Virgil, Segoe UI Emoji" font-size="20px" style="white-space: pre;" text-anchor="start" x="0" y="75">- userId</text><text direction="ltr" dominant-baseline="text-before-edge" fill="#1e1e1e" font-family="Virgil, Segoe UI Emoji" font-size="20px" style="white-space: pre;" text-anchor="start" x="0" y="100">- status</text><text direction="ltr" dominant-baseline="text-before-edge" fill="#1e1e1e" font-family="Virgil, Segoe UI Emoji" font-size="20px" style="white-space: pre;" text-anchor="start" x="0" y="125">- attempt</text></g><g stroke-linecap="round"><g transform="translate(904.5964639359524 266.8699652474361) rotate(0 0.9476839926498997 58.65029357750063)"><path d="M0.65 1.14 C1.25 20.79, 2.39 98.42, 2.58 117.83 M-0.47 0.69 C0.13 19.98, 1.76 96.26, 1.99 115.98" fill="none" stroke="#1e1e1e" stroke-width="2"></path></g><g transform="translate(904.5964639359524 266.8699652474361) rotate(0 0.9476839926498997 58.65029357750063)"><path d="M11.41 29.14 C11.04 24.41, 7.73 17.11, 0.65 1.14 M11.41 29.14 C7.9 20.23, 5.25 11.04, 0.65 1.14" fill="none" stroke="#1e1e1e" stroke-width="2"></path></g><g transform="translate(904.5964639359524 266.8699652474361) rotate(0 0.9476839926498997 58.65029357750063)"><path d="M-9.11 29.51 C-5.13 24.59, -4.08 17.21, 0.65 1.14 M-9.11 29.51 C-6.01 20.37, -2.05 11.06, 0.65 1.14" fill="none" stroke="#1e1e1e" stroke-width="2"></path></g><g transform="translate(904.5964639359524 266.8699652474361) rotate(0 0.9476839926498997 58.65029357750063)"><path d="M-8.76 87.97 C-4.59 95, -3.33 99.57, 1.99 115.98 M-8.76 87.97 C-5.49 96.99, -1.21 105.84, 1.99 115.98" fill="none" stroke="#1e1e1e" stroke-width="2"></path></g><g transform="translate(904.5964639359524 266.8699652474361) rotate(0 0.9476839926498997 58.65029357750063)"><path d="M11.76 87.62 C11.58 94.82, 8.48 99.48, 1.99 115.98 M11.76 87.62 C8.42 96.85, 6.09 105.82, 1.99 115.98" fill="none" stroke="#1e1e1e" stroke-width="2"></path></g></g><mask></mask><g stroke-linecap="round" transform="translate(780.4747933105998 394.8336908473584) rotate(0 125.576171875 63.78515625)"><path d="M4.79 12.11 C4.79 12.11, 4.79 12.11, 4.79 12.11 M4.79 12.11 C4.79 12.11, 4.79 12.11, 4.79 12.11 M2.95 26.42 C10.6 17.9, 15.92 13.95, 25.26 0.76 M2.95 26.42 C9.47 19.8, 14.83 11.92, 25.26 0.76 M3.08 38.46 C15.35 23.9, 25.23 12.24, 34.58 2.23 M3.08 38.46 C12.55 27.27, 20.77 17.64, 34.58 2.23 M2.56 51.25 C14.31 36.86, 25.61 23.21, 45.21 2.2 M2.56 51.25 C17.49 33.95, 31.72 16.6, 45.21 2.2 M2.69 63.29 C19.47 43.66, 40.06 23.35, 55.84 2.16 M2.69 63.29 C18.39 44.58, 35.32 25.95, 55.84 2.16 M2.83 75.33 C19.11 58.67, 33.39 42.51, 66.47 2.13 M2.83 75.33 C21.83 52.83, 41.6 32.11, 66.47 2.13 M2.96 87.37 C29.94 58.19, 54.81 27.12, 77.1 2.09 M2.96 87.37 C25.88 59.97, 48.62 33.38, 77.1 2.09 M3.09 99.42 C28.33 71.17, 52.6 40.08, 87.73 2.06 M3.09 99.42 C36.78 61.97, 68.71 24.03, 87.73 2.06 M5.85 108.44 C36.83 73.23, 69.35 36.25, 98.36 2.02 M5.85 108.44 C25.64 86.26, 45.53 64.08, 98.36 2.02 M7.95 118.21 C43.77 75, 80.42 34.29, 108.99 1.99 M7.95 118.21 C41.96 77.55, 77.48 36.7, 108.99 1.99 M13.33 124.22 C46.98 84.64, 81.75 47.37, 119.62 1.95 M13.33 124.22 C34.14 98.28, 55.32 73.63, 119.62 1.95 M22 126.45 C63.14 77.5, 107.53 28.41, 130.25 1.92 M22 126.45 C47.7 97.01, 74.06 65.82, 130.25 1.92 M28.69 130.94 C53.06 102.48, 73.94 78.72, 140.22 2.64 M28.69 130.94 C74.02 79.25, 117.29 30.44, 140.22 2.64 M38.01 132.42 C65.63 102.62, 94.88 70.65, 150.85 2.61 M38.01 132.42 C64.88 102.07, 90.79 72.79, 150.85 2.61 M48.64 132.38 C75.73 101.81, 100.29 71.63, 161.48 2.57 M48.64 132.38 C90.33 82.12, 133.85 32.59, 161.48 2.57 M59.27 132.35 C94.55 90.28, 129.85 50.65, 172.11 2.54 M59.27 132.35 C98.8 87.38, 138.03 44.25, 172.11 2.54 M69.9 132.31 C105.15 91.17, 142.6 48.15, 182.74 2.5 M69.9 132.31 C98.28 97.39, 129.96 63.15, 182.74 2.5 M79.87 133.03 C111.41 97.44, 142.08 58.52, 193.37 2.47 M79.87 133.03 C120.31 87.31, 160.44 40.74, 193.37 2.47 M90.5 133 C125.17 95.1, 156.22 56.19, 204 2.43 M90.5 133 C117.77 101.69, 147.46 67.29, 204 2.43 M101.13 132.96 C135.76 94.23, 169.32 55.28, 214.63 2.4 M101.13 132.96 C133.41 94.23, 165.85 56.02, 214.63 2.4 M111.76 132.93 C143.01 99.97, 172.58 63.97, 223.95 3.87 M111.76 132.93 C139.09 102.44, 167.36 71.48, 223.95 3.87 M122.39 132.89 C150.78 100.12, 179.28 70.06, 234.58 3.84 M122.39 132.89 C160.55 90.45, 196.21 48.33, 234.58 3.84 M133.02 132.86 C163.37 98.85, 193.99 62.51, 241.93 7.58 M133.02 132.86 C159.61 103.74, 185.76 75.03, 241.93 7.58 M143.65 132.83 C174.49 95.97, 206.69 60.34, 247.31 13.58 M143.65 132.83 C174.05 97.24, 205.8 61.78, 247.31 13.58 M154.28 132.79 C178.12 104.14, 201.24 76.87, 250.72 21.85 M154.28 132.79 C186.21 95.79, 218.19 60.29, 250.72 21.85 M164.91 132.76 C192.9 98.08, 226.43 63.66, 255.45 28.61 M164.91 132.76 C197.98 92.93, 233.48 55.45, 255.45 28.61 M175.54 132.72 C206.84 98.99, 238.32 62.52, 255.58 40.65 M175.54 132.72 C201.91 102.61, 228.46 71.44, 255.58 40.65 M186.17 132.69 C206.79 108.71, 231.7 82.28, 255.72 52.69 M186.17 132.69 C213.49 102.27, 240.18 70.82, 255.72 52.69 M196.8 132.65 C211.82 115.39, 223.48 101.4, 255.85 64.73 M196.8 132.65 C217.12 108.12, 237.83 86, 255.85 64.73 M207.43 132.62 C222.93 114.24, 241.19 97.28, 255.98 76.77 M207.43 132.62 C220.86 115.41, 236.18 99.53, 255.98 76.77 M221.34 128.81 C226.79 120.55, 236.83 112.99, 256.12 88.81 M221.34 128.81 C234.24 114.58, 247.06 97.9, 256.12 88.81 M233.94 126.51 C241 120.9, 248.4 109.88, 252.97 104.63 M233.94 126.51 C240.16 119.46, 248.41 110.27, 252.97 104.63" fill="none" stroke="#ffffff" stroke-width="1"></path><path d="M31.89 0 C99.06 -1.29, 164.91 -1.61, 219.26 0 M31.89 0 C98.8 -0.21, 163.42 -0.52, 219.26 0 M219.26 0 C241.71 -1.76, 249.55 12.51, 251.15 31.89 M219.26 0 C239.43 -0.25, 252.87 8.97, 251.15 31.89 M251.15 31.89 C253.16 54.68, 250.88 77.12, 251.15 95.68 M251.15 31.89 C250.81 54.53, 252.3 76.14, 251.15 95.68 M251.15 95.68 C252.68 117.42, 239.52 127.91, 219.26 127.57 M251.15 95.68 C250.62 115.98, 242.65 128.93, 219.26 127.57 M219.26 127.57 C146.36 127.35, 75.09 126.43, 31.89 127.57 M219.26 127.57 C160.07 127.29, 102.09 127.34, 31.89 127.57 M31.89 127.57 C12.07 127.29, -0.45 117.81, 0 95.68 M31.89 127.57 C11.17 127.06, -0.83 118.82, 0 95.68 M0 95.68 C-0.85 74.76, -0.76 54.79, 0 31.89 M0 95.68 C-0.87 77.84, -0.34 60.01, 0 31.89 M0 31.89 C-0.12 9.46, 11.01 -1.05, 31.89 0 M0 31.89 C-0.52 11.86, 11.6 0.74, 31.89 0" fill="none" stroke="#1e1e1e" stroke-width="2"></path></g><g transform="translate(795.7810600952678 408.6188470973584) rotate(0 110.26990509033203 50)"><text direction="ltr" dominant-baseline="text-before-edge" fill="#1e1e1e" font-family="Virgil, Segoe UI Emoji" font-size="20px" style="white-space: pre;" text-anchor="middle" x="110.26990509033203" y="0">Watcher</text><text direction="ltr" dominant-baseline="text-before-edge" fill="#1e1e1e" font-family="Virgil, Segoe UI Emoji" font-size="20px" style="white-space: pre;" text-anchor="middle" x="110.26990509033203" y="25">- polls for Jobs that </text><text direction="ltr" dominant-baseline="text-before-edge" fill="#1e1e1e" font-family="Virgil, Segoe UI Emoji" font-size="20px" style="white-space: pre;" text-anchor="middle" x="110.26990509033203" y="50">should be executed </text><text direction="ltr" dominant-baseline="text-before-edge" fill="#1e1e1e" font-family="Virgil, Segoe UI Emoji" font-size="20px" style="white-space: pre;" text-anchor="middle" x="110.26990509033203" y="75">soon</text></g><g stroke-linecap="round"><g transform="translate(1052.283811325741 454.6546290999804) rotate(0 36.28125 -0.10546875)"><path d="M-0.33 0.64 C11.77 0.57, 60.13 0.01, 72.42 -0.15 M1.7 -0.07 C13.64 0.05, 59.5 1.26, 71.39 1.42" fill="none" stroke="#1e1e1e" stroke-width="2"></path></g><g transform="translate(1052.283811325741 454.6546290999804) rotate(0 36.28125 -0.10546875)"><path d="M43 11.1 C52.25 8.14, 59.49 6.98, 71.39 1.42 M43 11.1 C51.86 7.55, 58.64 6.58, 71.39 1.42" fill="none" stroke="#1e1e1e" stroke-width="2"></path></g><g transform="translate(1052.283811325741 454.6546290999804) rotate(0 36.28125 -0.10546875)"><path d="M43.42 -9.42 C52.6 -6.45, 59.72 -1.68, 71.39 1.42 M43.42 -9.42 C51.98 -7.06, 58.63 -2.12, 71.39 1.42" fill="none" stroke="#1e1e1e" stroke-width="2"></path></g></g><mask></mask><g stroke-linecap="round" transform="translate(1134.687582371788 412.2796290999804) rotate(0 128.51953125 42.5)"><path d="M3.19 8.07 C3.19 8.07, 3.19 8.07, 3.19 8.07 M3.19 8.07 C3.19 8.07, 3.19 8.07, 3.19 8.07 M0.7 23.13 C8.01 15.37, 16.64 5.24, 20.38 0.49 M0.7 23.13 C4.22 18.56, 8.49 12.78, 20.38 0.49 M0.83 35.17 C8.89 26.04, 15.88 14.77, 31.01 0.46 M0.83 35.17 C10.44 24.02, 19.82 12.6, 31.01 0.46 M0.96 47.21 C12.44 34.04, 23.12 19.81, 41.64 0.42 M0.96 47.21 C9.42 36.32, 19.27 27.28, 41.64 0.42 M1.1 59.25 C17.59 38.89, 34.16 21.17, 52.27 0.39 M1.1 59.25 C15.82 42.47, 31.72 24.77, 52.27 0.39 M1.23 71.29 C21.7 46.87, 41.7 24.17, 62.9 0.35 M1.23 71.29 C22.78 47.45, 43.87 22.5, 62.9 0.35 M5.3 78.81 C27.28 53, 47.16 27.38, 73.53 0.32 M5.3 78.81 C21.49 60.4, 37.58 41.63, 73.53 0.32 M11.99 83.3 C33.45 61.05, 53.59 36.28, 84.16 0.28 M11.99 83.3 C32.87 59.84, 53.23 37, 84.16 0.28 M20.65 85.53 C43.76 58.15, 68.31 31.41, 94.79 0.25 M20.65 85.53 C41.48 61.64, 60.86 38.21, 94.79 0.25 M31.28 85.5 C56.64 54.2, 81.74 25.52, 105.42 0.21 M31.28 85.5 C49.59 64.84, 67.06 44.63, 105.42 0.21 M41.91 85.46 C66.97 57.78, 88.42 29.88, 116.05 0.18 M41.91 85.46 C62.86 61.26, 82.83 38.64, 116.05 0.18 M52.54 85.43 C70.42 64.65, 90.34 43.86, 126.68 0.14 M52.54 85.43 C78.88 57.95, 101.91 28.73, 126.68 0.14 M63.17 85.39 C90.48 55.83, 115.39 23.29, 137.31 0.11 M63.17 85.39 C92.66 51.28, 123.61 17.94, 137.31 0.11 M73.8 85.36 C105.48 53.33, 133.05 20.46, 147.94 0.08 M73.8 85.36 C99.43 56.58, 124.82 26.5, 147.94 0.08 M84.44 85.32 C103.76 62.13, 120.72 41.99, 157.91 0.8 M84.44 85.32 C103.9 61.14, 124.72 36.98, 157.91 0.8 M95.07 85.29 C117.88 58.83, 141.37 31.81, 168.54 0.76 M95.07 85.29 C122.9 52.52, 151.25 20.86, 168.54 0.76 M105.7 85.25 C123.57 62.49, 140.78 45.1, 179.17 0.73 M105.7 85.25 C127.03 61.66, 147.53 37.68, 179.17 0.73 M116.33 85.22 C136.79 62.43, 156.51 40.6, 189.8 0.69 M116.33 85.22 C135.41 64.86, 153.67 42.64, 189.8 0.69 M126.3 85.94 C148.6 57.25, 175.27 32.21, 200.43 0.66 M126.3 85.94 C145.16 65.77, 162.64 45.14, 200.43 0.66 M136.93 85.91 C162.19 56.21, 186.49 25.51, 211.06 0.62 M136.93 85.91 C155.09 65.1, 174.81 43.43, 211.06 0.62 M147.56 85.87 C172.32 56.09, 198.97 29.19, 221.69 0.59 M147.56 85.87 C172.76 58.71, 195.91 31.57, 221.69 0.59 M158.19 85.84 C186.73 56.44, 213.55 23.23, 232.32 0.55 M158.19 85.84 C185.64 53.25, 214.77 20.86, 232.32 0.55 M168.82 85.8 C191.1 61.88, 213.24 38.19, 242.3 1.27 M168.82 85.8 C196.88 53.97, 223.81 22.71, 242.3 1.27 M179.45 85.77 C196.67 63.46, 216.58 42.42, 250.3 4.26 M179.45 85.77 C203.71 57.74, 227.59 29.45, 250.3 4.26 M190.08 85.73 C204.71 66.52, 220.42 48.03, 254.37 11.77 M190.08 85.73 C211.56 58.65, 234.57 34.4, 254.37 11.77 M200.71 85.7 C215.37 66.89, 228.39 53.08, 257.13 20.79 M200.71 85.7 C218.66 63.64, 239.42 41.62, 257.13 20.79 M211.34 85.66 C226.87 65.19, 246.23 44.5, 257.26 32.83 M211.34 85.66 C224.22 69.18, 239.13 54.81, 257.26 32.83 M221.97 85.63 C230.7 74.84, 242.52 62.49, 257.4 44.88 M221.97 85.63 C232.13 74.95, 241.18 62.57, 257.4 44.88 M232.6 85.6 C240.99 73.76, 248.28 63.83, 257.53 56.92 M232.6 85.6 C241.71 74.73, 250.98 65.26, 257.53 56.92 M244.54 84.05 C249.58 77.41, 252.84 73.75, 257.01 69.71 M244.54 84.05 C249.76 78.22, 253.49 74.59, 257.01 69.71" fill="none" stroke="#ffffff" stroke-width="1"></path><path d="M21.25 0 C79.87 1.45, 138.11 -1.33, 235.79 0 M21.25 0 C75.79 2.48, 131.31 1.56, 235.79 0 M235.79 0 C251.45 -1.44, 258.23 8.76, 257.04 21.25 M235.79 0 C248.5 1.7, 256.86 6.16, 257.04 21.25 M257.04 21.25 C258.86 31.14, 258.39 45.49, 257.04 63.75 M257.04 21.25 C256.86 34.68, 257.13 47.36, 257.04 63.75 M257.04 63.75 C258.89 79.1, 251.74 84.49, 235.79 85 M257.04 63.75 C257.39 77.99, 249.38 87, 235.79 85 M235.79 85 C186.91 85.78, 136.84 86.9, 21.25 85 M235.79 85 C180.34 85.12, 125.49 84.55, 21.25 85 M21.25 85 C6.36 86.63, 0.19 79.74, 0 63.75 M21.25 85 C7.72 84.69, -1.35 77.71, 0 63.75 M0 63.75 C0.94 52.61, -0.83 43.91, 0 21.25 M0 63.75 C0.22 54.51, -0.2 46.85, 0 21.25 M0 21.25 C0.84 7.73, 7.94 -1.96, 21.25 0 M0 21.25 C1.51 5.33, 8.28 0.04, 21.25 0" fill="none" stroke="#1e1e1e" stroke-width="2"></path></g><g transform="translate(1155.9772094469834 442.2796290999804) rotate(0 107.22990417480469 12.5)"><text direction="ltr" dominant-baseline="text-before-edge" fill="#1e1e1e" font-family="Virgil, Segoe UI Emoji" font-size="20px" style="white-space: pre;" text-anchor="middle" x="107.22990417480469" y="0">Message Queue (SQS)</text></g><g stroke-linecap="round"><g transform="translate(1540.3736550757408 452.9532363615899) rotate(0 -70.70827072697625 0.08719451623176155)"><path d="M-1.07 -0.51 C-24.66 -0.63, -117.15 -1.18, -140.7 -0.88 M0.57 -1.82 C-23.18 -1.82, -117.85 -0.13, -141.27 0.1" fill="none" stroke="#1e1e1e" stroke-width="2"></path></g><g transform="translate(1540.3736550757408 452.9532363615899) rotate(0 -70.70827072697625 0.08719451623176155)"><path d="M-113.23 -10.56 C-124.47 -5.67, -135.76 -4.52, -141.27 0.1 M-113.23 -10.56 C-123.58 -7.11, -134.77 -1.36, -141.27 0.1" fill="none" stroke="#1e1e1e" stroke-width="2"></path></g><g transform="translate(1540.3736550757408 452.9532363615899) rotate(0 -70.70827072697625 0.08719451623176155)"><path d="M-112.94 9.96 C-124.26 7.25, -135.66 0.81, -141.27 0.1 M-112.94 9.96 C-123.3 5.33, -134.61 3, -141.27 0.1" fill="none" stroke="#1e1e1e" stroke-width="2"></path></g></g><mask></mask><g transform="translate(1094.090573387515 518.907700464054) rotate(0 189.2597936987877 25)"><text direction="ltr" dominant-baseline="text-before-edge" fill="#1e1e1e" font-family="Virgil, Segoe UI Emoji" font-size="20px" style="white-space: pre;" text-anchor="start" x="0" y="0">- delivery delay until execution time</text><text direction="ltr" dominant-baseline="text-before-edge" fill="#1e1e1e" font-family="Virgil, Segoe UI Emoji" font-size="20px" style="white-space: pre;" text-anchor="start" x="0" y="25">- partition by execution time</text></g><g stroke-linecap="round" transform="translate(512.1396148545425 185.04063219735417) rotate(0 98.697265625 53.470703125)"><path d="M4.03 10.13 C4.03 10.13, 4.03 10.13, 4.03 10.13 M4.03 10.13 C4.03 10.13, 4.03 10.13, 4.03 10.13 M0.88 25.94 C9.58 15.36, 15.94 7.74, 22.53 1.04 M0.88 25.94 C7.4 18.04, 12.77 11.69, 22.53 1.04 M1.02 37.99 C9.9 26.79, 18.42 16.33, 33.82 0.25 M1.02 37.99 C12.48 24.6, 23.31 11.15, 33.82 0.25 M1.15 50.03 C14.58 34.11, 31.89 17.57, 44.45 0.22 M1.15 50.03 C13.81 34.77, 27.74 19.59, 44.45 0.22 M1.28 62.07 C15.34 47.96, 27.33 34.45, 55.08 0.18 M1.28 62.07 C17.31 42.93, 34.14 25.59, 55.08 0.18 M1.42 74.11 C24.91 48.98, 46.31 21.9, 65.71 0.15 M1.42 74.11 C21.21 50.25, 40.88 27.19, 65.71 0.15 M0.89 86.9 C23.43 61.88, 44.93 33.97, 76.34 0.11 M0.89 86.9 C30.98 53.57, 59.39 19.68, 76.34 0.11 M3.65 95.93 C31.43 64.36, 60.85 30.95, 86.97 0.08 M3.65 95.93 C21.47 75.9, 39.43 55.95, 86.97 0.08 M9.03 101.93 C40.39 64.01, 72.53 28.47, 97.6 0.04 M9.03 101.93 C38.74 66.26, 69.92 30.4, 97.6 0.04 M16.38 105.67 C45.34 71.35, 75.57 39.3, 108.23 0.01 M16.38 105.67 C34.34 83.19, 52.56 61.92, 108.23 0.01 M25.7 107.14 C60.95 65, 99.53 22.6, 118.86 -0.03 M25.7 107.14 C47.84 81.94, 70.49 55.01, 118.86 -0.03 M36.33 107.11 C56.82 83.3, 73.81 64.02, 128.84 0.69 M36.33 107.11 C74.04 64.12, 109.82 23.92, 128.84 0.69 M46.96 107.07 C69.45 82.95, 93.66 56.77, 139.47 0.66 M46.96 107.07 C69.08 82.24, 90.37 58.27, 139.47 0.66 M57.59 107.04 C79.86 81.81, 99.7 57.07, 150.1 0.63 M57.59 107.04 C91.62 65.83, 127.4 25.2, 150.1 0.63 M68.22 107 C97.03 72.25, 125.8 40.13, 160.73 0.59 M68.22 107 C100.74 70.01, 132.96 34.94, 160.73 0.59 M78.85 106.97 C107.63 73.31, 138.56 37.77, 171.36 0.56 M78.85 106.97 C101.97 78.24, 128.24 50.24, 171.36 0.56 M89.48 106.94 C114.94 78.69, 139.37 46.95, 180.67 2.03 M89.48 106.94 C121.91 70.29, 154.25 32.68, 180.67 2.03 M100.11 106.9 C127.29 77.56, 151.05 47.04, 188.68 5.02 M100.11 106.9 C121.26 82.64, 144.64 55.5, 188.68 5.02 M110.74 106.87 C136.67 78.71, 161.28 50.06, 194.06 11.02 M110.74 106.87 C134.43 78.29, 158.03 50.24, 194.06 11.02 M121.37 106.83 C142.45 85.22, 162 60.73, 196.82 20.04 M121.37 106.83 C139.6 86.34, 158.99 65.58, 196.82 20.04 M132 106.8 C148.73 87.51, 165.8 70.59, 197.61 31.33 M132 106.8 C154.58 82.27, 175.01 57.67, 197.61 31.33 M141.98 107.52 C157.59 90.46, 173.15 71.46, 197.74 43.37 M141.98 107.52 C155.75 92.69, 169.47 78.28, 197.74 43.37 M152.61 107.48 C165.41 90.97, 180.13 75.44, 197.87 55.41 M152.61 107.48 C165.87 91.79, 179.92 76.69, 197.87 55.41 M163.24 107.45 C172.15 96.25, 179.92 86.65, 198.01 67.45 M163.24 107.45 C174.44 93.61, 185.96 81.64, 198.01 67.45 M174.52 106.66 C180.5 97.23, 191.58 88.63, 197.48 80.24 M174.52 106.66 C182.32 95.85, 192.62 87.35, 197.48 80.24" fill="none" stroke="#ffffff" stroke-width="1"></path><path d="M26.74 0 C80.36 0.2, 130.02 2.65, 170.66 0 M26.74 0 C58.9 -0.47, 92.26 -1.61, 170.66 0 M170.66 0 C187.83 0.92, 198.61 10.53, 197.39 26.74 M170.66 0 C186.8 1.33, 199.15 9.19, 197.39 26.74 M197.39 26.74 C197.86 46.4, 196.68 68.83, 197.39 80.21 M197.39 26.74 C198.03 45.97, 197.62 66, 197.39 80.21 M197.39 80.21 C195.97 98.29, 190.36 107.14, 170.66 106.94 M197.39 80.21 C196.1 96.94, 188.66 105.96, 170.66 106.94 M170.66 106.94 C118.02 107.09, 63.19 105.89, 26.74 106.94 M170.66 106.94 C116 108.12, 60.2 108.17, 26.74 106.94 M26.74 106.94 C7.51 106.39, 0.59 98.85, 0 80.21 M26.74 106.94 C7.34 105.85, -0.34 95.85, 0 80.21 M0 80.21 C-0.74 64.04, 1.38 49.63, 0 26.74 M0 80.21 C0.43 61.67, 0.29 44.68, 0 26.74 M0 26.74 C0 10.62, 8.21 -0.67, 26.74 0 M0 26.74 C1.31 10.79, 9.9 -2.06, 26.74 0" fill="none" stroke="#1e1e1e" stroke-width="2"></path></g><g transform="translate(544.8869445664566 226.01133532235417) rotate(0 65.94993591308594 12.5)"><text direction="ltr" dominant-baseline="text-before-edge" fill="#1e1e1e" font-family="Virgil, Segoe UI Emoji" font-size="20px" style="white-space: pre;" text-anchor="middle" x="65.94993591308594" y="0">Query Service</text></g><g stroke-linecap="round"><g transform="translate(720.4273464804926 248.933780770657) rotate(0 45.30548925832454 -23.285791106315628)"><path d="M0.9 -0.87 C16.21 -8.44, 76.5 -38.1, 91.33 -45.57 M-0.09 1.29 C15.18 -6.58, 75.35 -39.02, 90.75 -47.16" fill="none" stroke="#1e1e1e" stroke-width="2"></path></g><g transform="translate(720.4273464804926 248.933780770657) rotate(0 45.30548925832454 -23.285791106315628)"><path d="M21.64 -22.54 C14.94 -15.72, 12.81 -12.7, 0.9 -0.87 M21.64 -22.54 C13.54 -14.06, 6.72 -5.6, 0.9 -0.87" fill="none" stroke="#1e1e1e" stroke-width="2"></path></g><g transform="translate(720.4273464804926 248.933780770657) rotate(0 45.30548925832454 -23.285791106315628)"><path d="M30.72 -4.14 C21.74 -1.9, 17.33 -3.52, 0.9 -0.87 M30.72 -4.14 C19.24 -2.58, 9.02 -1, 0.9 -0.87" fill="none" stroke="#1e1e1e" stroke-width="2"></path></g><g transform="translate(720.4273464804926 248.933780770657) rotate(0 45.30548925832454 -23.285791106315628)"><path d="M70.72 -24.83 C74.36 -29.43, 82.54 -37.52, 90.75 -47.16 M70.72 -24.83 C77.9 -32.64, 86.33 -40.64, 90.75 -47.16" fill="none" stroke="#1e1e1e" stroke-width="2"></path></g><g transform="translate(720.4273464804926 248.933780770657) rotate(0 45.30548925832454 -23.285791106315628)"><path d="M61.05 -42.93 C67.12 -43.03, 77.73 -46.55, 90.75 -47.16 M61.05 -42.93 C71.84 -43.93, 83.88 -45.16, 90.75 -47.16" fill="none" stroke="#1e1e1e" stroke-width="2"></path></g></g><mask></mask><g stroke-linecap="round" transform="translate(1549.2407658160446 380.66304706340543) rotate(0 72.099609375 68.462890625)"><path d="M7.86 8.16 C7.86 8.16, 7.86 8.16, 7.86 8.16 M7.86 8.16 C7.86 8.16, 7.86 8.16, 7.86 8.16 M1.43 27.75 C7.52 20.82, 12.55 11.8, 24.4 1.33 M1.43 27.75 C8.74 19.18, 15.82 10.4, 24.4 1.33 M0.91 40.54 C10.93 29.05, 20.13 16.52, 36.34 -0.21 M0.91 40.54 C8.22 30.98, 16.88 23.29, 36.34 -0.21 M1.04 52.58 C15.63 34.41, 30.28 18.9, 46.31 0.51 M1.04 52.58 C13.98 37.84, 28.13 22.16, 46.31 0.51 M1.18 64.62 C19.64 42.5, 37.63 22.11, 56.94 0.47 M1.18 64.62 C20.74 43.09, 39.8 20.48, 56.94 0.47 M1.31 76.67 C22.67 51.57, 41.92 26.66, 67.57 0.44 M1.31 76.67 C17.05 58.79, 32.68 40.54, 67.57 0.44 M1.44 88.71 C24.17 64.98, 45.63 38.7, 78.2 0.41 M1.44 88.71 C23.6 63.79, 45.25 39.45, 78.2 0.41 M0.92 101.5 C28.62 69.05, 57.61 37.19, 88.83 0.37 M0.92 101.5 C25.45 73.21, 48.63 45.4, 88.83 0.37 M1.05 113.54 C34.65 72.56, 68.12 34.25, 99.46 0.34 M1.05 113.54 C25.27 86.27, 48.68 59.21, 99.46 0.34 M3.81 122.56 C39.34 83.06, 70.92 43.51, 110.09 0.3 M3.81 122.56 C33.48 88.11, 62.49 55.09, 110.09 0.3 M8.54 129.32 C35.58 97.99, 64.44 66.92, 120.07 1.02 M8.54 129.32 C47.68 87.58, 83.09 44.1, 120.07 1.02 M15.23 133.82 C56.32 88.16, 95.43 39.29, 128.07 4.01 M15.23 133.82 C60.39 82.13, 106.77 31.03, 128.07 4.01 M23.89 136.05 C70.54 87.37, 112.78 37.63, 135.42 7.75 M23.89 136.05 C62.65 92.67, 100.87 47.82, 135.42 7.75 M33.87 136.77 C61.16 103.95, 86.4 74.3, 140.15 14.5 M33.87 136.77 C62.45 101.93, 92.46 67.19, 140.15 14.5 M44.5 136.73 C75.36 100.87, 107.03 64.44, 142.91 23.53 M44.5 136.73 C81.81 92.96, 119.68 50.33, 142.91 23.53 M55.13 136.7 C76.91 109.4, 97.97 87.58, 144.35 34.06 M55.13 136.7 C80.87 107.98, 105.73 78.98, 144.35 34.06 M65.76 136.66 C87.61 112.28, 108.75 88.82, 144.48 46.1 M65.76 136.66 C86.16 114.83, 105.73 91.1, 144.48 46.1 M76.39 136.63 C96.78 110.12, 121.58 87.24, 144.62 58.14 M76.39 136.63 C93.82 118.14, 109.88 99.15, 144.62 58.14 M86.36 137.35 C106.01 114.2, 124.72 89.94, 144.09 70.93 M86.36 137.35 C100.39 121.17, 116.05 104.18, 144.09 70.93 M96.99 137.31 C112.35 117.99, 129.78 101.7, 144.23 82.97 M96.99 137.31 C113.31 120.06, 127.75 102.94, 144.23 82.97 M107.62 137.28 C122.61 123.36, 135.76 105.87, 144.36 95.02 M107.62 137.28 C120.86 121.17, 135.84 105.05, 144.36 95.02 M118.91 136.49 C126.44 128.8, 134.21 121.65, 143.84 107.81 M118.91 136.49 C128.68 125.3, 137.32 115.08, 143.84 107.81 M134.79 130.42 C135.54 128.76, 137.36 127.41, 140.03 124.38 M134.79 130.42 C136.47 128.42, 138.13 126.18, 140.03 124.38" fill="none" stroke="#ffffff" stroke-width="1"></path><path d="M32 0 C63.72 -1.74, 93.58 -0.64, 112.2 0 M32 0 C53.43 0.44, 72.92 0.21, 112.2 0 M112.2 0 C135.06 0.24, 145.73 11.14, 144.2 32 M112.2 0 C132.38 0.39, 143.67 9.7, 144.2 32 M144.2 32 C144.12 60.94, 144.69 88.77, 144.2 104.93 M144.2 32 C144.62 60.34, 143.12 87.99, 144.2 104.93 M144.2 104.93 C144.36 125.41, 134.97 136.65, 112.2 136.93 M144.2 104.93 C143.68 127.26, 134.07 136.41, 112.2 136.93 M112.2 136.93 C92.87 137.55, 69.62 135.83, 32 136.93 M112.2 136.93 C89.15 137.11, 64.82 136.23, 32 136.93 M32 136.93 C10.37 135.03, -0.12 125.09, 0 104.93 M32 136.93 C11.1 135.72, -0.52 127.49, 0 104.93 M0 104.93 C-2.19 81.29, -1.76 56.06, 0 32 M0 104.93 C-0.35 82.58, 0.57 61.72, 0 32 M0 32 C0.86 8.87, 9.6 -0.47, 32 0 M0 32 C1.08 11.75, 12.51 -1.52, 32 0" fill="none" stroke="#1e1e1e" stroke-width="2"></path></g><g transform="translate(1569.0904209674118 411.62593768840543) rotate(0 52.24995422363281 37.5)"><text direction="ltr" dominant-baseline="text-before-edge" fill="#1e1e1e" font-family="Virgil, Segoe UI Emoji" font-size="20px" style="white-space: pre;" text-anchor="middle" x="52.24995422363281" y="0">worker</text><text direction="ltr" dominant-baseline="text-before-edge" fill="#1e1e1e" font-family="Virgil, Segoe UI Emoji" font-size="20px" style="white-space: pre;" text-anchor="middle" x="52.24995422363281" y="25">- consume </text><text direction="ltr" dominant-baseline="text-before-edge" fill="#1e1e1e" font-family="Virgil, Segoe UI Emoji" font-size="20px" style="white-space: pre;" text-anchor="middle" x="52.24995422363281" y="50">jobs</text></g><g stroke-linecap="round"><g transform="translate(1702.4673283160446 433.59273456340543) rotate(0 38.1015625 -51.3203125)"><path d="M-0.09 -0.48 C12.67 -17.65, 62.97 -85.23, 75.81 -102.09 M-1.6 -1.78 C11.03 -19.38, 61.63 -86.97, 74.66 -103.92" fill="none" stroke="#1e1e1e" stroke-width="2"></path></g><g transform="translate(1702.4673283160446 433.59273456340543) rotate(0 38.1015625 -51.3203125)"><path d="M65.83 -75.25 C66.9 -82.69, 70.72 -87.62, 74.66 -103.92 M65.83 -75.25 C70.17 -86.11, 73.53 -96.92, 74.66 -103.92" fill="none" stroke="#1e1e1e" stroke-width="2"></path></g><g transform="translate(1702.4673283160446 433.59273456340543) rotate(0 38.1015625 -51.3203125)"><path d="M49.47 -87.63 C54.51 -92.13, 62.2 -94.12, 74.66 -103.92 M49.47 -87.63 C59.95 -93.86, 69.55 -99.96, 74.66 -103.92" fill="none" stroke="#1e1e1e" stroke-width="2"></path></g></g><mask></mask><g stroke-linecap="round" transform="translate(1791.6560422318098 244.74995860336549) rotate(0 60.580078125 54.958984375)"><path d="M3.58 11.06 C3.58 11.06, 3.58 11.06, 3.58 11.06 M3.58 11.06 C3.58 11.06, 3.58 11.06, 3.58 11.06 M1.09 26.12 C4.09 20.77, 9.55 15.04, 22.74 1.22 M1.09 26.12 C5.45 20.42, 10.92 14.32, 22.74 1.22 M1.22 38.16 C8.28 27.91, 16.11 20.23, 34.02 0.43 M1.22 38.16 C13.36 23.73, 25.43 9.33, 34.02 0.43 M1.35 50.2 C15.61 33.85, 29.35 20.35, 44.65 0.39 M1.35 50.2 C16.79 31.72, 32.64 13, 44.65 0.39 M0.83 63 C19.33 42.17, 39.66 19.95, 55.28 0.36 M0.83 63 C15.13 45.98, 29.95 27.93, 55.28 0.36 M0.96 75.04 C15.74 60.84, 27.94 46.41, 65.91 0.32 M0.96 75.04 C16.65 56.36, 34.34 37.23, 65.91 0.32 M1.1 87.08 C22.06 62.51, 45.02 36.56, 76.54 0.29 M1.1 87.08 C23.56 60.52, 46.82 34.39, 76.54 0.29 M3.2 96.86 C32.08 65.73, 59.4 31.18, 87.18 0.25 M3.2 96.86 C27.35 68.55, 50.6 40.32, 87.18 0.25 M7.93 103.62 C29.27 78.01, 52.84 50.6, 97.81 0.22 M7.93 103.62 C37.46 71.42, 65.82 36.96, 97.81 0.22 M15.27 107.35 C35.29 84.41, 55.79 58.82, 106.47 2.45 M15.27 107.35 C51.25 67.9, 85.18 29.22, 106.47 2.45 M23.94 109.58 C49.5 82.69, 76.83 49.93, 113.82 6.19 M23.94 109.58 C48.13 79.84, 74.91 49.33, 113.82 6.19 M34.57 109.55 C57.87 79.96, 83.09 53.76, 118.54 12.95 M34.57 109.55 C60.17 79.99, 88.34 48.08, 118.54 12.95 M45.2 109.51 C72.45 76.44, 102.17 43.54, 120.64 22.72 M45.2 109.51 C63.73 89.17, 80.38 67.92, 120.64 22.72 M55.83 109.48 C74.58 86.52, 91.67 66.04, 121.43 34.01 M55.83 109.48 C70.08 92.05, 85.24 75.06, 121.43 34.01 M65.8 110.2 C87.74 84.44, 108.91 59.45, 121.57 46.05 M65.8 110.2 C85.3 88.95, 102.3 67.32, 121.57 46.05 M76.43 110.17 C94.81 92.22, 111.24 72.84, 121.04 58.85 M76.43 110.17 C88.07 96.29, 100.95 82.05, 121.04 58.85 M87.06 110.13 C96.83 98.93, 109.61 86.17, 121.18 70.89 M87.06 110.13 C95.2 100.79, 101.54 93.67, 121.18 70.89 M98.35 109.34 C107.72 102.27, 115.96 92.51, 121.31 82.93 M98.35 109.34 C107.91 99, 116.12 88.2, 121.31 82.93" fill="none" stroke="#ffffff" stroke-width="1"></path><path d="M27.48 0 C47.73 1.43, 67.78 -1.25, 93.68 0 M27.48 0 C51.93 0.16, 74.36 0.09, 93.68 0 M93.68 0 C111.54 -0.84, 123.01 10.34, 121.16 27.48 M93.68 0 C114.06 -0.59, 121.51 9.23, 121.16 27.48 M121.16 27.48 C121.9 44.46, 121.84 56.56, 121.16 82.44 M121.16 27.48 C121.92 41.22, 120.98 55.68, 121.16 82.44 M121.16 82.44 C121.63 100.31, 111.28 111.55, 93.68 109.92 M121.16 82.44 C121.38 102.86, 112.64 109.61, 93.68 109.92 M93.68 109.92 C77.15 110.04, 62.56 108.09, 27.48 109.92 M93.68 109.92 C76.91 108.7, 60.44 108.77, 27.48 109.92 M27.48 109.92 C8.71 110.98, 0.84 101.41, 0 82.44 M27.48 109.92 C10.15 107.67, 1.51 99, 0 82.44 M0 82.44 C1.7 62.4, -0.68 44.9, 0 27.48 M0 82.44 C-0.77 61.23, 0.23 40.97, 0 27.48 M0 27.48 C1.6 7.84, 9.92 1.83, 27.48 0 M0 27.48 C-0.72 9.58, 8.63 1.31, 27.48 0" fill="none" stroke="#1e1e1e" stroke-width="2"></path></g><g transform="translate(1808.8561612503645 274.7089429783655) rotate(0 43.37995910644531 25)"><text direction="ltr" dominant-baseline="text-before-edge" fill="#1e1e1e" font-family="Virgil, Segoe UI Emoji" font-size="20px" style="white-space: pre;" text-anchor="middle" x="43.37995910644531" y="0">execute </text><text direction="ltr" dominant-baseline="text-before-edge" fill="#1e1e1e" font-family="Virgil, Segoe UI Emoji" font-size="20px" style="white-space: pre;" text-anchor="middle" x="43.37995910644531" y="25">job</text></g><g stroke-linecap="round" transform="translate(1793.7544376910446 393.94625018840543) rotate(0 60.580078125 54.958984375)"><path d="M3.58 11.06 C3.58 11.06, 3.58 11.06, 3.58 11.06 M3.58 11.06 C3.58 11.06, 3.58 11.06, 3.58 11.06 M1.09 26.12 C6.12 18.5, 14.84 10.25, 22.74 1.22 M1.09 26.12 C7.21 17.75, 14.8 10.24, 22.74 1.22 M1.22 38.16 C11.27 29.16, 17.96 18.72, 34.02 0.43 M1.22 38.16 C11.18 27, 20.19 16.49, 34.02 0.43 M1.35 50.2 C11.68 40.13, 19.83 28.01, 44.65 0.39 M1.35 50.2 C13.82 37.34, 25.65 23.08, 44.65 0.39 M0.83 63 C20.62 39.35, 41.9 14.35, 55.28 0.36 M0.83 63 C17.73 42.55, 36.23 23.7, 55.28 0.36 M0.96 75.04 C22.16 48.69, 47.03 21.71, 65.91 0.32 M0.96 75.04 C24.85 46.66, 49.5 18.11, 65.91 0.32 M1.1 87.08 C30.23 54.15, 56.89 20.23, 76.54 0.29 M1.1 87.08 C18.13 68.06, 35.03 49.4, 76.54 0.29 M3.2 96.86 C35.9 60.25, 69.79 22.21, 87.18 0.25 M3.2 96.86 C29.56 66.48, 56.21 36.18, 87.18 0.25 M7.93 103.62 C38.24 70.5, 65.22 37.53, 97.81 0.22 M7.93 103.62 C38.39 68.24, 70.95 32.34, 97.81 0.22 M15.27 107.35 C52.4 65.96, 84.69 28.46, 106.47 2.45 M15.27 107.35 C41.01 76.96, 66.12 46.84, 106.47 2.45 M23.94 109.58 C58.41 70.45, 96.23 26.85, 113.82 6.19 M23.94 109.58 C54.31 75.5, 84.81 38.36, 113.82 6.19 M34.57 109.55 C56.2 86.8, 75.04 59.91, 118.54 12.95 M34.57 109.55 C68.36 71.26, 100.39 31.87, 118.54 12.95 M45.2 109.51 C63.4 86.31, 85.93 65.32, 120.64 22.72 M45.2 109.51 C73.87 76.93, 102.5 44.91, 120.64 22.72 M55.83 109.48 C67.91 95.1, 83.79 79.05, 121.43 34.01 M55.83 109.48 C73.02 91.61, 88.93 71.75, 121.43 34.01 M65.8 110.2 C82.92 90.27, 97.9 73.99, 121.57 46.05 M65.8 110.2 C82.85 92.22, 97.52 74.99, 121.57 46.05 M76.43 110.17 C92.7 89.73, 111.05 69.21, 121.04 58.85 M76.43 110.17 C92.51 91.36, 107.97 73.11, 121.04 58.85 M87.06 110.13 C97.82 95.98, 110.88 82.59, 121.18 70.89 M87.06 110.13 C95.21 100.61, 102.32 93.26, 121.18 70.89 M98.35 109.34 C108.93 99.66, 116.02 89.86, 121.31 82.93 M98.35 109.34 C104.3 101.15, 111.64 93.51, 121.31 82.93" fill="none" stroke="#ffffff" stroke-width="1"></path><path d="M27.48 0 C52.51 2.01, 75.47 2.01, 93.68 0 M27.48 0 C48.69 -0.53, 71.29 0.48, 93.68 0 M93.68 0 C113.79 -0.51, 121.47 9.22, 121.16 27.48 M93.68 0 C111.42 2, 119.52 9.46, 121.16 27.48 M121.16 27.48 C120.27 49.29, 120.37 72.22, 121.16 82.44 M121.16 27.48 C121.27 42.98, 120.67 59.75, 121.16 82.44 M121.16 82.44 C121.35 102.59, 112.55 109.65, 93.68 109.92 M121.16 82.44 C119.81 100.55, 110.39 109.28, 93.68 109.92 M93.68 109.92 C70.92 109.17, 48.17 109.34, 27.48 109.92 M93.68 109.92 C77.47 110.1, 62.13 109.89, 27.48 109.92 M27.48 109.92 C10.02 107.96, 1.31 99.23, 0 82.44 M27.48 109.92 C10.35 109.96, 0 102.72, 0 82.44 M0 82.44 C1.81 68.74, -1.61 52.25, 0 27.48 M0 82.44 C0.54 66.59, 0.12 52.97, 0 27.48 M0 27.48 C-0.62 9.52, 8.7 1.14, 27.48 0 M0 27.48 C0.53 9, 7.43 1.32, 27.48 0" fill="none" stroke="#1e1e1e" stroke-width="2"></path></g><g transform="translate(1810.9545567095993 423.90523456340543) rotate(0 43.37995910644531 25)"><text direction="ltr" dominant-baseline="text-before-edge" fill="#1e1e1e" font-family="Virgil, Segoe UI Emoji" font-size="20px" style="white-space: pre;" text-anchor="middle" x="43.37995910644531" y="0">execute </text><text direction="ltr" dominant-baseline="text-before-edge" fill="#1e1e1e" font-family="Virgil, Segoe UI Emoji" font-size="20px" style="white-space: pre;" text-anchor="middle" x="43.37995910644531" y="25">job</text></g><g stroke-linecap="round" transform="translate(1797.8677189410446 564.2599641041697) rotate(0 60.580078125 54.958984375)"><path d="M3.58 11.06 C3.58 11.06, 3.58 11.06, 3.58 11.06 M3.58 11.06 C3.58 11.06, 3.58 11.06, 3.58 11.06 M1.09 26.12 C7.28 19.03, 12.57 10.99, 22.74 1.22 M1.09 26.12 C5.36 20.03, 10.94 15.89, 22.74 1.22 M1.22 38.16 C11.76 24.62, 22.37 13.76, 34.02 0.43 M1.22 38.16 C10.37 27.74, 20.83 16.29, 34.02 0.43 M1.35 50.2 C15.57 32.94, 29.32 17.43, 44.65 0.39 M1.35 50.2 C16.72 33.57, 31.5 15.87, 44.65 0.39 M0.83 63 C18.46 42.15, 33.97 21.55, 55.28 0.36 M0.83 63 C13.84 48.34, 26.74 33.23, 55.28 0.36 M0.96 75.04 C20.42 55.11, 38.5 32.72, 65.91 0.32 M0.96 75.04 C19.83 53.87, 38.15 33.37, 65.91 0.32 M1.1 87.08 C24.64 59.22, 49.61 31.99, 76.54 0.29 M1.1 87.08 C22.28 62.77, 42.01 38.92, 76.54 0.29 M3.2 96.86 C31.9 61.63, 60.39 29.05, 87.18 0.25 M3.2 96.86 C23.9 73.52, 43.78 50.53, 87.18 0.25 M7.93 103.62 C38.11 70.14, 64.52 36.54, 97.81 0.22 M7.93 103.62 C33.15 74.4, 57.54 46.68, 97.81 0.22 M15.27 107.35 C37.33 81.76, 61.33 56.28, 106.47 2.45 M15.27 107.35 C47.45 73.37, 76.13 37.64, 106.47 2.45 M23.94 109.58 C56.85 73.47, 87.53 34.29, 113.82 6.19 M23.94 109.58 C59.8 68.32, 97.02 27.76, 113.82 6.19 M34.57 109.55 C70.18 73.14, 101.61 35.83, 118.54 12.95 M34.57 109.55 C63.65 76.93, 92.42 42.97, 118.54 12.95 M45.2 109.51 C65 85.74, 82.46 65.04, 120.64 22.72 M45.2 109.51 C65.21 84.69, 86.58 59.9, 120.64 22.72 M55.83 109.48 C76.1 85.99, 97 61.94, 121.43 34.01 M55.83 109.48 C80.67 80.18, 106.01 51.99, 121.43 34.01 M65.8 110.2 C79.28 92.53, 92.16 80.12, 121.57 46.05 M65.8 110.2 C82.19 92.37, 97.77 74.04, 121.57 46.05 M76.43 110.17 C89.27 96.09, 101.2 83.22, 121.04 58.85 M76.43 110.17 C88.27 97.92, 99.31 84.01, 121.04 58.85 M87.06 110.13 C96.47 96.27, 110.46 85.82, 121.18 70.89 M87.06 110.13 C96.24 101.36, 104.07 91.84, 121.18 70.89 M98.35 109.34 C106.11 100.09, 112.95 89.48, 121.31 82.93 M98.35 109.34 C103.64 102.97, 110.66 95.9, 121.31 82.93" fill="none" stroke="#ffffff" stroke-width="1"></path><path d="M27.48 0 C52.87 -1.5, 77.64 -0.97, 93.68 0 M27.48 0 C45.46 -0.65, 61.81 -0.36, 93.68 0 M93.68 0 C111.5 1.74, 119.73 9.42, 121.16 27.48 M93.68 0 C114.16 0.23, 119.87 8.07, 121.16 27.48 M121.16 27.48 C120.65 43.95, 121.79 61.79, 121.16 82.44 M121.16 27.48 C121.06 43.66, 121.24 57.88, 121.16 82.44 M121.16 82.44 C119.99 100.58, 110.6 109.36, 93.68 109.92 M121.16 82.44 C121.84 101.7, 110.43 108.82, 93.68 109.92 M93.68 109.92 C73.64 110.26, 54.9 109.42, 27.48 109.92 M93.68 109.92 C70.72 109.15, 47.55 109.37, 27.48 109.92 M27.48 109.92 C10.2 109.95, 0 102.46, 0 82.44 M27.48 109.92 C8.35 109.15, 1.31 102.63, 0 82.44 M0 82.44 C0.02 64.53, 1.44 46.34, 0 27.48 M0 82.44 C-0.52 69.76, -0.44 57.29, 0 27.48 M0 27.48 C0.46 9.02, 7.65 1.15, 27.48 0 M0 27.48 C-1.05 7.39, 10.13 -2.13, 27.48 0" fill="none" stroke="#1e1e1e" stroke-width="2"></path></g><g transform="translate(1815.0678379595993 594.2189484791697) rotate(0 43.37995910644531 25)"><text direction="ltr" dominant-baseline="text-before-edge" fill="#1e1e1e" font-family="Virgil, Segoe UI Emoji" font-size="20px" style="white-space: pre;" text-anchor="middle" x="43.37995910644531" y="0">execute </text><text direction="ltr" dominant-baseline="text-before-edge" fill="#1e1e1e" font-family="Virgil, Segoe UI Emoji" font-size="20px" style="white-space: pre;" text-anchor="middle" x="43.37995910644531" y="25">job</text></g><g stroke-linecap="round"><g transform="translate(1702.8696720660446 454.35835956340543) rotate(0 39.7421875 0)"><path d="M-0.28 -0.5 C13.26 -0.42, 67.12 0.68, 80.6 0.71 M1.78 -1.81 C15.3 -2.09, 67.14 -1.49, 80.23 -1.04" fill="none" stroke="#1e1e1e" stroke-width="2"></path></g><g transform="translate(1702.8696720660446 454.35835956340543) rotate(0 39.7421875 0)"><path d="M51.84 8.64 C58.08 8.14, 67.2 5.65, 80.23 -1.04 M51.84 8.64 C59.36 6.84, 66.7 3.44, 80.23 -1.04" fill="none" stroke="#1e1e1e" stroke-width="2"></path></g><g transform="translate(1702.8696720660446 454.35835956340543) rotate(0 39.7421875 0)"><path d="M52.26 -11.88 C58.43 -7.25, 67.45 -4.61, 80.23 -1.04 M52.26 -11.88 C59.7 -8.04, 66.92 -5.81, 80.23 -1.04" fill="none" stroke="#1e1e1e" stroke-width="2"></path></g></g><mask></mask><g stroke-linecap="round"><g transform="translate(1703.9634220660446 483.31148456340543) rotate(0 39.23828125 67.58484139794155)"><path d="M1.11 0.71 C14.42 23.27, 66.62 112.45, 79.55 134.86 M0.24 0.04 C13.5 22.82, 66.21 113.49, 79.16 136.24" fill="none" stroke="#1e1e1e" stroke-width="2"></path></g><g transform="translate(1703.9634220660446 483.31148456340543) rotate(0 39.23828125 67.58484139794155)"><path d="M56.2 116.94 C63.66 123.86, 68.33 127.72, 79.16 136.24 M56.2 116.94 C62.4 122.72, 71.01 128.54, 79.16 136.24" fill="none" stroke="#1e1e1e" stroke-width="2"></path></g><g transform="translate(1703.9634220660446 483.31148456340543) rotate(0 39.23828125 67.58484139794155)"><path d="M73.98 106.69 C76.47 116.61, 76.22 123.31, 79.16 136.24 M73.98 106.69 C74.76 115.73, 77.99 124.66, 79.16 136.24" fill="none" stroke="#1e1e1e" stroke-width="2"></path></g></g><mask></mask><g stroke-linecap="round"><g transform="translate(1835.2447189819936 231.97920918753243) rotate(0 -285.6260318187452 -57.13644433600666)"><path d="M1.07 -0.31 C-27.68 -19.46, -75.95 -95.9, -171.39 -114.24 C-266.82 -132.57, -504.77 -110.84, -571.55 -110.34 M0.18 -1.51 C-28.81 -20.52, -76.8 -94.24, -172.24 -112.68 C-267.68 -131.12, -505.8 -112.57, -572.48 -112.13" fill="none" stroke="#1e1e1e" stroke-width="2"></path></g><g transform="translate(1835.2447189819936 231.97920918753243) rotate(0 -285.6260318187452 -57.13644433600666)"><path d="M-544.71 -123.48 C-556.06 -118.47, -566.39 -114.82, -572.48 -112.13 M-544.71 -123.48 C-554.6 -118.95, -566.85 -115.13, -572.48 -112.13" fill="none" stroke="#1e1e1e" stroke-width="2"></path></g><g transform="translate(1835.2447189819936 231.97920918753243) rotate(0 -285.6260318187452 -57.13644433600666)"><path d="M-543.91 -102.97 C-555.69 -106.01, -566.34 -110.42, -572.48 -112.13 M-543.91 -102.97 C-553.97 -106.38, -566.53 -110.5, -572.48 -112.13" fill="none" stroke="#1e1e1e" stroke-width="2"></path></g></g><mask></mask><g transform="translate(1516.527181161549 58.81934588553577) rotate(0 73.8999334871769 12.5)"><text direction="ltr" dominant-baseline="text-before-edge" fill="#1e1e1e" font-family="Virgil, Segoe UI Emoji" font-size="20px" style="white-space: pre;" text-anchor="start" x="0" y="0">update status</text></g><g stroke-linecap="round" transform="translate(10 121.27111257574688) rotate(0 61.80078125 35.58203125)"><path d="M4.74 4.12 C4.74 4.12, 4.74 4.12, 4.74 4.12 M4.74 4.12 C4.74 4.12, 4.74 4.12, 4.74 4.12 M0.28 21.44 C6.14 14.06, 11.86 6.39, 18.65 0.31 M0.28 21.44 C4.98 15.85, 10.22 10.01, 18.65 0.31 M0.41 33.48 C8.68 23.17, 16.67 13.4, 29.28 0.27 M0.41 33.48 C7.22 25.7, 13.94 18.83, 29.28 0.27 M0.54 45.52 C15.46 27.67, 30.22 10.69, 39.91 0.24 M0.54 45.52 C10.16 35.85, 19.73 24.88, 39.91 0.24 M0.68 57.56 C21.24 34.56, 39.67 15.71, 50.54 0.21 M0.68 57.56 C18.36 36.93, 36.05 17.28, 50.54 0.21 M4.09 65.83 C23.36 40.81, 44.64 17.11, 60.51 0.93 M4.09 65.83 C18.64 49.9, 33.1 33.17, 60.51 0.93 M10.78 70.32 C28.87 50.92, 45.18 29.1, 71.14 0.89 M10.78 70.32 C28.56 49.84, 45.99 30.42, 71.14 0.89 M20.76 71.04 C34.33 54.06, 52.81 34.51, 81.77 0.86 M20.76 71.04 C37.38 53.15, 52.62 35.5, 81.77 0.86 M31.39 71.01 C47.77 52.14, 66.58 30.06, 92.4 0.82 M31.39 71.01 C54.62 43.14, 80.64 16.18, 92.4 0.82 M42.02 70.98 C58.81 52.26, 72.64 37.75, 103.03 0.79 M42.02 70.98 C55.58 53.7, 69.66 37.52, 103.03 0.79 M52.65 70.94 C74.3 42.44, 101 17.84, 113 1.51 M52.65 70.94 C70.95 47.78, 90.76 25.92, 113 1.51 M63.28 70.91 C79.69 55.27, 93.94 36.44, 119.7 6 M63.28 70.91 C80.28 52.08, 95.76 32.39, 119.7 6 M73.25 71.63 C86.01 58.29, 95.62 46.46, 123.77 13.51 M73.25 71.63 C84.19 58.37, 95.21 44.87, 123.77 13.51 M83.88 71.59 C95.75 58.55, 108.74 41, 123.9 25.55 M83.88 71.59 C93.07 61.05, 103.83 49.49, 123.9 25.55 M94.51 71.56 C106.85 56.99, 118.18 45.11, 123.38 38.35 M94.51 71.56 C104.4 59.52, 115.14 48.94, 123.38 38.35 M105.14 71.52 C110.83 65.31, 116.66 55.39, 123.51 50.39 M105.14 71.52 C112 64.32, 119.95 56.53, 123.51 50.39" fill="none" stroke="#ffffff" stroke-width="1"></path><path d="M17.79 0 C47.28 -1.2, 73.55 2.1, 105.81 0 M17.79 0 C45.17 -0.01, 73.11 0.28, 105.81 0 M105.81 0 C117.22 0.87, 124.07 5.49, 123.6 17.79 M105.81 0 C116.84 1.88, 123.82 8.03, 123.6 17.79 M123.6 17.79 C123.38 28.05, 123 41.69, 123.6 53.37 M123.6 17.79 C123.21 28.98, 123.3 41.47, 123.6 53.37 M123.6 53.37 C123.98 64.19, 117.22 72.23, 105.81 71.16 M123.6 53.37 C124.57 65.98, 118.66 68.91, 105.81 71.16 M105.81 71.16 C73.67 71.62, 43.16 70.92, 17.79 71.16 M105.81 71.16 C82.78 70.98, 58.36 71.65, 17.79 71.16 M17.79 71.16 C6.87 72.11, 1.6 63.91, 0 53.37 M17.79 71.16 C6.81 73.27, -0.72 65.65, 0 53.37 M0 53.37 C-0.34 42.01, 0.95 32.75, 0 17.79 M0 53.37 C-0.42 45.15, -0.25 36.71, 0 17.79 M0 17.79 C-0.18 6.01, 4.53 -1.76, 17.79 0 M0 17.79 C0.42 5.53, 4.15 -0.12, 17.79 0" fill="none" stroke="#1e1e1e" stroke-width="2"></path></g><g transform="translate(46.170806884765625 144.35314382574688) rotate(0 25.629974365234375 12.5)"><text direction="ltr" dominant-baseline="text-before-edge" fill="#1e1e1e" font-family="Virgil, Segoe UI Emoji" font-size="20px" style="white-space: pre;" text-anchor="middle" x="25.629974365234375" y="0">client</text></g><g stroke-linecap="round" transform="translate(223.38525405024757 10) rotate(0 46.477155548504925 143.3449778590912)"><path d="M5.53 6.13 C5.53 6.13, 5.53 6.13, 5.53 6.13 M5.53 6.13 C5.53 6.13, 5.53 6.13, 5.53 6.13 M3.69 20.44 C7.15 16.42, 10.81 10.92, 16.82 5.34 M3.69 20.44 C8.48 15.55, 13.65 9.46, 16.82 5.34 M3.83 32.48 C9.17 25.76, 18.34 17.94, 28.1 4.55 M3.83 32.48 C11.08 24.35, 17.31 16.95, 28.1 4.55 M3.3 45.27 C10.68 33.39, 19.45 25.27, 38.73 4.52 M3.3 45.27 C16.59 30.1, 28.45 16.77, 38.73 4.52 M3.44 57.31 C13.98 45.56, 22.7 34.86, 49.36 4.48 M3.44 57.31 C13.73 46.16, 23.18 33.76, 49.36 4.48 M3.57 69.35 C18.24 52.68, 33.86 35.79, 59.99 4.45 M3.57 69.35 C21.09 48.33, 39.99 27.89, 59.99 4.45 M3.7 81.4 C25.74 55.27, 47.28 30.78, 72.59 2.15 M3.7 81.4 C17.41 65.43, 32.34 47.72, 72.59 2.15 M3.84 93.44 C30.26 60.14, 58.69 31.3, 81.91 3.63 M3.84 93.44 C22.94 71.78, 42.27 47.55, 81.91 3.63 M3.31 106.23 C37.58 68.85, 68.52 30.14, 89.26 7.37 M3.31 106.23 C27.93 75.3, 55.32 46.32, 89.26 7.37 M3.45 118.27 C22.7 93.45, 47.15 68.13, 92.67 15.63 M3.45 118.27 C27.47 92.87, 50.15 65.89, 92.67 15.63 M3.58 130.31 C25.59 105.41, 48.59 76.49, 97.4 22.39 M3.58 130.31 C27.59 101.87, 51.59 75.67, 97.4 22.39 M3.71 142.35 C33.96 106.84, 64.81 71.9, 97.53 34.43 M3.71 142.35 C34.18 107.17, 65.37 73.69, 97.53 34.43 M3.85 154.4 C30.65 123.74, 61.66 90.18, 97.66 46.47 M3.85 154.4 C33.72 120.96, 62.62 86.23, 97.66 46.47 M3.32 167.19 C37.01 129.79, 72.28 87.93, 97.8 58.51 M3.32 167.19 C37.44 127.49, 70.3 89.03, 97.8 58.51 M3.46 179.23 C24.19 156.47, 42.61 132.52, 97.93 70.55 M3.46 179.23 C25.43 152.69, 47.23 127.51, 97.93 70.55 M3.59 191.27 C40.1 153.44, 71.38 113.43, 97.41 83.35 M3.59 191.27 C38.01 151.13, 72.8 110, 97.41 83.35 M3.72 203.31 C37.48 161.65, 72.32 122.75, 97.54 95.39 M3.72 203.31 C29.86 174.32, 54.21 145.64, 97.54 95.39 M3.86 215.35 C27.57 190.72, 50.99 161.76, 97.67 107.43 M3.86 215.35 C27.1 188.05, 52.06 159.89, 97.67 107.43 M3.33 228.15 C26.13 201.12, 48.6 175.89, 97.81 119.47 M3.33 228.15 C38.11 189.34, 71.33 150.05, 97.81 119.47 M3.47 240.19 C26.2 216.14, 49.77 188.4, 97.94 131.51 M3.47 240.19 C23.34 216.97, 44.04 193.24, 97.94 131.51 M3.6 252.23 C40.28 211.05, 78 167.6, 98.07 143.55 M3.6 252.23 C37.47 212.49, 71.82 173.7, 98.07 143.55 M3.73 264.27 C27.3 235.58, 54.36 209.05, 97.55 156.35 M3.73 264.27 C37.72 227.42, 71.31 188.65, 97.55 156.35 M5.83 274.05 C30.54 246.02, 59.89 215.3, 97.68 168.39 M5.83 274.05 C28.84 249.45, 50.07 225.53, 97.68 168.39 M8.59 283.07 C40.25 247.14, 70.27 213.55, 97.82 180.43 M8.59 283.07 C34.25 256.28, 58.16 228.43, 97.82 180.43 M15.29 287.57 C43.15 256.69, 69.22 223.87, 97.95 192.47 M15.29 287.57 C32.88 265.41, 52.22 245.8, 97.95 192.47 M25.26 288.29 C38.21 270.41, 56.03 255.93, 98.08 204.51 M25.26 288.29 C45.02 266.66, 65.44 243.02, 98.08 204.51 M35.89 288.25 C57.73 262.63, 82.17 234.46, 98.22 216.55 M35.89 288.25 C52.79 269.4, 70.46 249.68, 98.22 216.55 M46.52 288.22 C61.41 272.18, 71.3 258.07, 97.69 229.35 M46.52 288.22 C65.63 268.26, 81.74 247.34, 97.69 229.35 M57.15 288.18 C74.24 272.46, 87.09 251.12, 97.83 241.39 M57.15 288.18 C66.25 275.69, 76.83 264.31, 97.83 241.39 M67.78 288.15 C74.74 278.22, 84.61 269.05, 97.96 253.43 M67.78 288.15 C74.71 281.38, 79.66 273.63, 97.96 253.43 M77.75 288.87 C83.77 284.9, 85.59 278.12, 96.78 266.98 M77.75 288.87 C83.49 282.71, 90.41 276.02, 96.78 266.98" fill="none" stroke="#ffffff" stroke-width="1"></path><path d="M23.24 0 C34.07 -1.56, 43.55 -0.28, 69.72 0 M23.24 0 C34.98 0.5, 47.41 -0.16, 69.72 0 M69.72 0 C84.48 1.63, 93.15 9.57, 92.95 23.24 M69.72 0 C85.84 -0.31, 91.6 7.54, 92.95 23.24 M92.95 23.24 C93.08 77.33, 91.61 133.46, 92.95 263.45 M92.95 23.24 C92.99 72.08, 92.64 122.25, 92.95 263.45 M92.95 263.45 C93.8 279.59, 86.07 284.73, 69.72 286.69 M92.95 263.45 C94.46 277.19, 86.4 286.73, 69.72 286.69 M69.72 286.69 C55.1 287.66, 43.45 287.39, 23.24 286.69 M69.72 286.69 C60.41 287.05, 50.97 285.92, 23.24 286.69 M23.24 286.69 C8.51 288.52, -0.62 279.31, 0 263.45 M23.24 286.69 C7.22 288, 0.53 278.79, 0 263.45 M0 263.45 C-2.43 210.18, -2.69 155.07, 0 23.24 M0 263.45 C0.12 198.15, -0.39 132.06, 0 23.24 M0 23.24 C0.36 7.4, 6.19 -0.1, 23.24 0 M0 23.24 C-0.78 7.12, 6.1 -0.39, 23.24 0" fill="none" stroke="#1e1e1e" stroke-width="2"></path></g><g transform="translate(229.61244011633062 128.3449778590912) rotate(0 40.249969482421875 25)"><text direction="ltr" dominant-baseline="text-before-edge" fill="#1e1e1e" font-family="Virgil, Segoe UI Emoji" font-size="20px" style="white-space: pre;" text-anchor="middle" x="40.249969482421875" y="0">api</text><text direction="ltr" dominant-baseline="text-before-edge" fill="#1e1e1e" font-family="Virgil, Segoe UI Emoji" font-size="20px" style="white-space: pre;" text-anchor="middle" x="40.249969482421875" y="25">gateway</text></g><g stroke-linecap="round"><g transform="translate(337.95024823652466 148.8254995576026) rotate(0 80.37115011700234 -32.611960363182334)"><path d="M0.09 -0.51 C27.14 -11.31, 134.87 -54.69, 161.6 -65.39 M-1.31 -1.82 C25.71 -12.39, 134.29 -53.11, 161.11 -63.94" fill="none" stroke="#1e1e1e" stroke-width="2"></path></g><g transform="translate(337.95024823652466 148.8254995576026) rotate(0 80.37115011700234 -32.611960363182334)"><path d="M138.53 -44.19 C143.28 -47.59, 149.36 -54.29, 161.11 -63.94 M138.53 -44.19 C145.87 -50.1, 154.08 -56.79, 161.11 -63.94" fill="none" stroke="#1e1e1e" stroke-width="2"></path></g><g transform="translate(337.95024823652466 148.8254995576026) rotate(0 80.37115011700234 -32.611960363182334)"><path d="M131.11 -63.32 C137.58 -62.06, 145.47 -64.1, 161.11 -63.94 M131.11 -63.32 C141.05 -62.65, 151.81 -62.77, 161.11 -63.94" fill="none" stroke="#1e1e1e" stroke-width="2"></path></g></g><mask></mask><g stroke-linecap="round"><g transform="translate(140.27197545416084 155.28489391676703) rotate(0 39.47190311800534 0)"><path d="M0.86 -0.17 C13.96 0.01, 65.61 0.54, 78.67 0.52 M-0.15 -1.3 C12.76 -1.44, 64.46 -1.7, 77.58 -1.33" fill="none" stroke="#1e1e1e" stroke-width="2"></path></g><g transform="translate(140.27197545416084 155.28489391676703) rotate(0 39.47190311800534 0)"><path d="M29.15 -10.14 C20.12 -7.32, 12.56 -3.33, 0.86 -0.17 M29.15 -10.14 C21.35 -6.23, 13.68 -4.5, 0.86 -0.17" fill="none" stroke="#1e1e1e" stroke-width="2"></path></g><g transform="translate(140.27197545416084 155.28489391676703) rotate(0 39.47190311800534 0)"><path d="M28.95 10.38 C20.07 6.88, 12.56 4.55, 0.86 -0.17 M28.95 10.38 C21.28 8.59, 13.66 4.62, 0.86 -0.17" fill="none" stroke="#1e1e1e" stroke-width="2"></path></g><g transform="translate(140.27197545416084 155.28489391676703) rotate(0 39.47190311800534 0)"><path d="M49.3 8.68 C57.78 4.94, 67.63 2.78, 77.58 -1.33 M49.3 8.68 C57.29 6.58, 65.33 2.75, 77.58 -1.33" fill="none" stroke="#1e1e1e" stroke-width="2"></path></g><g transform="translate(140.27197545416084 155.28489391676703) rotate(0 39.47190311800534 0)"><path d="M49.49 -11.85 C57.82 -9.26, 67.61 -5.1, 77.58 -1.33 M49.49 -11.85 C57.35 -8.24, 65.33 -6.37, 77.58 -1.33" fill="none" stroke="#1e1e1e" stroke-width="2"></path></g></g><mask></mask><g stroke-linecap="round"><g transform="translate(327.8613771308883 175.46338655069667) rotate(0 81.29092357431307 31.910407413380653)"><path d="M-0.27 0.52 C26.73 11.14, 135.79 52.84, 162.86 63.55 M1.79 -0.25 C28.58 10.56, 135.5 54.41, 162.06 64.95" fill="none" stroke="#1e1e1e" stroke-width="2"></path></g><g transform="translate(327.8613771308883 175.46338655069667) rotate(0 81.29092357431307 31.910407413380653)"><path d="M29.72 1.09 C19.44 1.28, 6.98 -0.12, -0.27 0.52 M29.72 1.09 C18.55 1.02, 6.24 0.84, -0.27 0.52" fill="none" stroke="#1e1e1e" stroke-width="2"></path></g><g transform="translate(327.8613771308883 175.46338655069667) rotate(0 81.29092357431307 31.910407413380653)"><path d="M22.34 20.24 C14.83 13.32, 5.11 4.8, -0.27 0.52 M22.34 20.24 C13.97 12.79, 4.47 5.3, -0.27 0.52" fill="none" stroke="#1e1e1e" stroke-width="2"></path></g><g transform="translate(327.8613771308883 175.46338655069667) rotate(0 81.29092357431307 31.910407413380653)"><path d="M132.08 63.9 C144.09 64.82, 153.93 64.02, 162.06 64.95 M132.08 63.9 C143.8 63.89, 154.38 64.34, 162.06 64.95" fill="none" stroke="#1e1e1e" stroke-width="2"></path></g><g transform="translate(327.8613771308883 175.46338655069667) rotate(0 81.29092357431307 31.910407413380653)"><path d="M139.77 44.87 C148.9 52.85, 155.87 59.13, 162.06 64.95 M139.77 44.87 C148.58 52.2, 156.22 59.91, 162.06 64.95" fill="none" stroke="#1e1e1e" stroke-width="2"></path></g></g><mask></mask></svg>