<svg height="724.7610524762589" version="1.1" viewbox="0 0 540.7544513977628 724.7610524762589" width="540.7544513977628" xmlns="http://www.w3.org/2000/svg">
<!-- svg-source:excalidraw -->
<!-- payload-type:application/vnd.excalidraw+json --><!-- payload-version:2 -->
<defs>
<style class="style-fonts">
</style>
</defs>
<rect fill="#ffffff" height="724.7610524762589" width="540.7544513977628" x="0" y="0"></rect><g stroke-linecap="round" transform="translate(12.126198454226426 306.4280365682023) rotate(0 46.552734375 44.4140625)"><path d="M22.21 0 C38.98 -0.04, 57.48 0.83, 70.9 0 M22.21 0 C39.6 0.26, 55.74 1.1, 70.9 0 M70.9 0 C86.39 -0.41, 91.18 5.55, 93.11 22.21 M70.9 0 C84.48 -0.72, 93.44 8.51, 93.11 22.21 M93.11 22.21 C93.19 30.46, 94.22 41.64, 93.11 66.62 M93.11 22.21 C93.77 38.89, 93.09 53.51, 93.11 66.62 M93.11 66.62 C91.28 83.35, 85.8 90.48, 70.9 88.83 M93.11 66.62 C95.39 82.42, 85.41 88.65, 70.9 88.83 M70.9 88.83 C54.22 86.74, 41.13 89.43, 22.21 88.83 M70.9 88.83 C55.65 88.64, 38.35 88.6, 22.21 88.83 M22.21 88.83 C7.23 89.93, -1.72 83.11, 0 66.62 M22.21 88.83 C7 91.07, 0.11 82.99, 0 66.62 M0 66.62 C1.78 53.31, 1.03 45.07, 0 22.21 M0 66.62 C-0.19 54.42, -0.21 44.56, 0 22.21 M0 22.21 C-0.4 8.88, 8.63 1.9, 22.21 0 M0 22.21 C-1.94 7.9, 8.12 0.4, 22.21 0" fill="none" stroke="#1e1e1e" stroke-width="2"></path></g><g transform="translate(36.467018766726426 338.3420990682023) rotate(0 22.2119140625 12.5)"><text direction="ltr" dominant-baseline="text-before-edge" fill="#1e1e1e" font-family="Virgil, Segoe UI Emoji" font-size="20px" style="white-space: pre;" text-anchor="middle" x="22.2119140625" y="0">client</text></g><g stroke-linecap="round"><g transform="translate(114.73887292732724 352.2898162058822) rotate(0 105.67422881884198 -108.03879081940775)"><path d="M0.64 0.5 C36.02 -35.46, 177.16 -180.75, 212.42 -216.86 M-0.49 -0.28 C34.82 -36.02, 176.64 -179.97, 212.04 -215.74" fill="none" stroke="#1e1e1e" stroke-width="2"></path></g><g transform="translate(114.73887292732724 352.2898162058822) rotate(0 105.67422881884198 -108.03879081940775)"><path d="M12.96 -26.85 C9.75 -16.52, 3.78 -8.37, 0.64 0.5 M12.96 -26.85 C9.75 -18.92, 4.82 -11.61, 0.64 0.5" fill="none" stroke="#1e1e1e" stroke-width="2"></path></g><g transform="translate(114.73887292732724 352.2898162058822) rotate(0 105.67422881884198 -108.03879081940775)"><path d="M27.66 -12.53 C20.02 -6.56, 9.51 -2.83, 0.64 0.5 M27.66 -12.53 C20.09 -8.69, 10.85 -5.59, 0.64 0.5" fill="none" stroke="#1e1e1e" stroke-width="2"></path></g><g transform="translate(114.73887292732724 352.2898162058822) rotate(0 105.67422881884198 -108.03879081940775)"><path d="M199.54 -188.47 C204.49 -195.18, 206.21 -203.93, 212.04 -215.74 M199.54 -188.47 C203.49 -196.79, 205.86 -205.52, 212.04 -215.74" fill="none" stroke="#1e1e1e" stroke-width="2"></path></g><g transform="translate(114.73887292732724 352.2898162058822) rotate(0 105.67422881884198 -108.03879081940775)"><path d="M184.93 -202.89 C194.27 -205.21, 200.51 -209.5, 212.04 -215.74 M184.93 -202.89 C193.21 -207.08, 199.87 -211.58, 212.04 -215.74" fill="none" stroke="#1e1e1e" stroke-width="2"></path></g></g><mask></mask><g stroke-linecap="round" transform="translate(348.0768042125779 10) rotate(0 88.23450257863317 98.93473203061866)"><path d="M32 0 C70.39 0.48, 111.27 -0.54, 144.47 0 M32 0 C73.53 -0.69, 116.45 -0.08, 144.47 0 M144.47 0 C166.1 0.96, 174.77 12.49, 176.47 32 M144.47 0 C166.5 -0.37, 174.97 11.48, 176.47 32 M176.47 32 C178.27 74.77, 178.76 115.65, 176.47 165.87 M176.47 32 C175.29 65.48, 176.24 97.74, 176.47 165.87 M176.47 165.87 C176.21 187.05, 166.32 199.81, 144.47 197.87 M176.47 165.87 C175.4 186.28, 163.66 200.14, 144.47 197.87 M144.47 197.87 C105 198.93, 67.76 196.43, 32 197.87 M144.47 197.87 C109.51 199.33, 76.1 199.46, 32 197.87 M32 197.87 C10.76 199.23, -0.88 187.54, 0 165.87 M32 197.87 C10.66 200, -2.22 188.47, 0 165.87 M0 165.87 C0.89 116.43, -1.2 68.18, 0 32 M0 165.87 C0.88 119.46, -0.57 71.37, 0 32 M0 32 C0.62 11.01, 12.09 -0.25, 32 0 M0 32 C2.1 12.04, 9.77 1.49, 32 0" fill="none" stroke="#1e1e1e" stroke-width="2"></path></g><g transform="translate(365.2713592814454 96.43473203061865) rotate(0 71.03994750976562 12.5)"><text direction="ltr" dominant-baseline="text-before-edge" fill="#1e1e1e" font-family="Virgil, Segoe UI Emoji" font-size="20px" style="white-space: pre;" text-anchor="middle" x="71.03994750976562" y="0">cache replica 1</text></g><g stroke-linecap="round" transform="translate(354.28544624049647 266.1605515537334) rotate(0 88.23450257863317 98.93473203061865)"><path d="M32 0 C75.65 0.42, 115.78 -2.19, 144.47 0 M32 0 C55.47 0.83, 77.79 1.26, 144.47 0 M144.47 0 C166.41 -0.32, 175.16 11.38, 176.47 32 M144.47 0 C166.16 1.35, 178.55 11.83, 176.47 32 M176.47 32 C176.36 73.84, 179.4 119.44, 176.47 165.87 M176.47 32 C177.67 83.11, 178.06 135.35, 176.47 165.87 M176.47 165.87 C175.54 186.4, 163.94 199.84, 144.47 197.87 M176.47 165.87 C177.43 187.89, 164.66 196.66, 144.47 197.87 M144.47 197.87 C101.68 197.2, 59.86 195.66, 32 197.87 M144.47 197.87 C101.33 199.64, 57.66 199.13, 32 197.87 M32 197.87 C10.66 199.72, -1.93 188.3, 0 165.87 M32 197.87 C12.05 196.82, -2.16 187.52, 0 165.87 M0 165.87 C2.28 133.43, 2.69 103.03, 0 32 M0 165.87 C1.44 113.15, 1.84 59.96, 0 32 M0 32 C1.83 11.86, 9.88 1.3, 32 0 M0 32 C-0.51 11.12, 12.76 0.16, 32 0" fill="none" stroke="#1e1e1e" stroke-width="2"></path></g><g transform="translate(367.07000527664917 352.59528358435205) rotate(0 75.44994354248047 12.5)"><text direction="ltr" dominant-baseline="text-before-edge" fill="#1e1e1e" font-family="Virgil, Segoe UI Emoji" font-size="20px" style="white-space: pre;" text-anchor="middle" x="75.44994354248047" y="0">cache replica 2</text></g><g stroke-linecap="round" transform="translate(352.1198173717044 516.8915884150216) rotate(0 88.23450257863317 98.93473203061865)"><path d="M32 0 C67.76 0.02, 106.59 1.37, 144.47 0 M32 0 C71.44 -1.18, 109.61 -0.67, 144.47 0 M144.47 0 C166.11 1.17, 178.28 11.68, 176.47 32 M144.47 0 C166.41 1.73, 175.51 9.38, 176.47 32 M176.47 32 C179.41 61.9, 178.62 87.57, 176.47 165.87 M176.47 32 C176.35 70.74, 175.88 111.27, 176.47 165.87 M176.47 165.87 C177.3 187.8, 164.81 196.82, 144.47 197.87 M176.47 165.87 C178.33 187.36, 164.79 197.94, 144.47 197.87 M144.47 197.87 C113.39 196.56, 80.89 197, 32 197.87 M144.47 197.87 C103.08 198.98, 60.73 198.61, 32 197.87 M32 197.87 C11.87 196.96, -1.87 187.48, 0 165.87 M32 197.87 C9.27 195.79, -1.43 188.44, 0 165.87 M0 165.87 C0.91 126.72, -0.55 91.58, 0 32 M0 165.87 C-0.03 123.97, -1.34 81.53, 0 32 M0 32 C-0.44 11.06, 12.49 0.14, 32 0 M0 32 C-1.92 11.95, 9.69 0.59, 32 0" fill="none" stroke="#1e1e1e" stroke-width="2"></path></g><g transform="translate(365.21437396645086 603.3263204456402) rotate(0 75.13994598388672 12.5)"><text direction="ltr" dominant-baseline="text-before-edge" fill="#1e1e1e" font-family="Virgil, Segoe UI Emoji" font-size="20px" style="white-space: pre;" text-anchor="middle" x="75.13994598388672" y="0">cache replica 3</text></g><g stroke-linecap="round"><g transform="translate(129.18200924822537 355.41539850323966) rotate(0 103.14104964115734 8.460231459951899)"><path d="M0.18 0.58 C34.49 3.64, 170.85 15.32, 205.26 18.01 M-1.19 -0.17 C33.55 2.62, 172.9 13.44, 207.44 16.46" fill="none" stroke="#1e1e1e" stroke-width="2"></path></g><g transform="translate(129.18200924822537 355.41539850323966) rotate(0 103.14104964115734 8.460231459951899)"><path d="M29.14 -7.24 C22.93 -6.96, 16.64 -2.73, 0.18 0.58 M29.14 -7.24 C21.02 -4.33, 13.55 -2.19, 0.18 0.58" fill="none" stroke="#1e1e1e" stroke-width="2"></path></g><g transform="translate(129.18200924822537 355.41539850323966) rotate(0 103.14104964115734 8.460231459951899)"><path d="M27.39 13.21 C21.67 8.44, 15.82 7.62, 0.18 0.58 M27.39 13.21 C19.9 10.31, 12.92 6.64, 0.18 0.58" fill="none" stroke="#1e1e1e" stroke-width="2"></path></g><g transform="translate(129.18200924822537 355.41539850323966) rotate(0 103.14104964115734 8.460231459951899)"><path d="M178.51 24.39 C186.63 20.7, 194.63 21.04, 207.44 16.46 M178.51 24.39 C186.93 22.62, 195.89 20.29, 207.44 16.46" fill="none" stroke="#1e1e1e" stroke-width="2"></path></g><g transform="translate(129.18200924822537 355.41539850323966) rotate(0 103.14104964115734 8.460231459951899)"><path d="M180.18 3.94 C187.83 5.29, 195.41 10.68, 207.44 16.46 M180.18 3.94 C187.99 7.98, 196.48 11.46, 207.44 16.46" fill="none" stroke="#1e1e1e" stroke-width="2"></path></g></g><mask></mask><g stroke-linecap="round"><g transform="translate(124.01781733033641 373.93033542544094) rotate(0 104.40234997133302 123.2147633865003)"><path d="M-1.02 1.09 C33.81 42.03, 174.33 205.27, 209.17 246.24 M0.65 0.62 C35.34 41.7, 173.43 206.98, 208.41 247.67" fill="none" stroke="#1e1e1e" stroke-width="2"></path></g><g transform="translate(124.01781733033641 373.93033542544094) rotate(0 104.40234997133302 123.2147633865003)"><path d="M25.12 15.81 C18.65 11.56, 8.28 5.02, -1.02 1.09 M25.12 15.81 C17.23 11.53, 7.82 6.84, -1.02 1.09" fill="none" stroke="#1e1e1e" stroke-width="2"></path></g><g transform="translate(124.01781733033641 373.93033542544094) rotate(0 104.40234997133302 123.2147633865003)"><path d="M9.55 29.17 C7.91 20.85, 2.44 10.1, -1.02 1.09 M9.55 29.17 C6.86 20.32, 2.68 11.14, -1.02 1.09" fill="none" stroke="#1e1e1e" stroke-width="2"></path></g><g transform="translate(124.01781733033641 373.93033542544094) rotate(0 104.40234997133302 123.2147633865003)"><path d="M182.37 232.77 C192.45 238.29, 198.51 241.06, 208.41 247.67 M182.37 232.77 C192.04 238.13, 200.13 243.37, 208.41 247.67" fill="none" stroke="#1e1e1e" stroke-width="2"></path></g><g transform="translate(124.01781733033641 373.93033542544094) rotate(0 104.40234997133302 123.2147633865003)"><path d="M198.04 219.52 C203.26 229.07, 204.38 236.02, 208.41 247.67 M198.04 219.52 C202.47 229.41, 205.31 239.11, 208.41 247.67" fill="none" stroke="#1e1e1e" stroke-width="2"></path></g></g><mask></mask><g transform="translate(10 514.3200179659793) rotate(0 111.32991027832028 25)"><text direction="ltr" dominant-baseline="text-before-edge" fill="#868e96" font-family="Virgil, Segoe UI Emoji" font-size="20px" style="white-space: pre;" text-anchor="middle" x="111.32991027832031" y="0">write to all, </text><text direction="ltr" dominant-baseline="text-before-edge" fill="#868e96" font-family="Virgil, Segoe UI Emoji" font-size="20px" style="white-space: pre;" text-anchor="middle" x="111.32991027832031" y="25">wait for all to confirm</text></g></svg>