<svg height="941.4797615612865" version="1.1" viewbox="0 0 1258.786415121505 941.4797615612865" width="1258.786415121505" xmlns="http://www.w3.org/2000/svg">
<!-- svg-source:excalidraw -->
<!-- payload-type:application/vnd.excalidraw+json --><!-- payload-version:2 -->
<defs>
<style class="style-fonts">
</style>
</defs>
<rect fill="#ffffff" height="941.4797615612865" width="1258.786415121505" x="0" y="0"></rect><g stroke-linecap="round" transform="translate(156.06143906969237 159.1413152200248) rotate(0 311.15629960823435 313.5150513542821)"><path d="M406.77 15.8 C428.64 17.74, 449.55 32.95, 468.93 44.2 C488.31 55.46, 506.74 68.2, 523.04 83.32 C539.34 98.43, 554.01 116.45, 566.74 134.92 C579.46 153.4, 590.86 173.33, 599.39 194.17 C607.92 215, 614.05 237.76, 617.92 259.93 C621.8 282.09, 623.8 304.93, 622.65 327.18 C621.51 349.43, 616.91 371.78, 611.08 393.41 C605.24 415.05, 597.9 436.97, 587.62 457 C577.34 477.04, 563.68 496.35, 549.38 513.62 C535.08 530.89, 519.31 546.66, 501.82 560.63 C484.32 574.59, 464.66 587.56, 444.42 597.43 C424.17 607.3, 402.08 615.01, 380.35 619.84 C358.63 624.68, 336.31 626.27, 314.08 626.43 C291.85 626.58, 268.83 625.22, 246.97 620.78 C225.11 616.34, 203.09 608.93, 182.91 599.78 C162.74 590.63, 143.79 579.3, 125.92 565.88 C108.06 552.45, 90.48 536.22, 75.73 519.23 C60.98 502.25, 47.86 483.79, 37.41 463.95 C26.97 444.1, 19.06 421.78, 13.06 400.17 C7.06 378.55, 3 356.81, 1.42 334.25 C-0.17 311.7, 0.35 287.06, 3.56 264.86 C6.78 242.66, 12.65 221.8, 20.68 201.06 C28.72 180.32, 39.31 159.41, 51.78 140.43 C64.24 121.44, 79.47 102.87, 95.48 87.17 C111.5 71.47, 129.07 57.85, 147.87 46.23 C166.67 34.6, 187.06 24.86, 208.29 17.42 C229.53 9.98, 252.93 4.35, 275.27 1.58 C297.61 -1.19, 318.14 -2.1, 342.34 0.79 C366.53 3.69, 405.75 13.87, 420.43 18.95 C435.11 24.03, 432.31 26.13, 430.42 31.28 M264.47 4.68 C284.88 -3.43, 311.48 -1.59, 333.71 -0.11 C355.94 1.36, 376.51 6.83, 397.84 13.52 C419.18 20.21, 442.11 29.39, 461.73 40.03 C481.34 50.68, 498.78 62.94, 515.56 77.38 C532.35 91.82, 549.23 108.58, 562.44 126.65 C575.64 144.73, 585.88 165.36, 594.81 185.84 C603.74 206.31, 611.36 227.54, 615.99 249.5 C620.62 271.46, 622.94 294.81, 622.59 317.58 C622.25 340.35, 618.95 364.05, 613.92 386.14 C608.9 408.23, 602.25 430.12, 592.42 450.13 C582.6 470.13, 569 488.64, 554.97 506.17 C540.95 523.7, 525.08 540.71, 508.26 555.32 C491.44 569.93, 473.85 583.74, 454.05 593.83 C434.25 603.91, 410.93 610.12, 389.47 615.84 C368 621.55, 347.5 626.97, 325.25 628.13 C303.01 629.28, 277.98 626.83, 255.99 622.78 C234.01 618.72, 213.8 612.3, 193.35 603.81 C172.9 595.31, 151.63 584.69, 133.29 571.8 C114.96 558.92, 98.59 543.08, 83.34 526.5 C68.08 509.92, 53.01 491.91, 41.78 472.32 C30.55 452.72, 22.67 430.52, 15.97 408.91 C9.27 387.31, 4.09 365.13, 1.59 342.68 C-0.9 320.23, -1.66 296.35, 0.99 274.21 C3.64 252.07, 9.85 230.7, 17.49 209.84 C25.13 188.97, 34.83 168.01, 46.83 149.03 C58.82 130.05, 74.09 111.97, 89.48 95.94 C104.87 79.92, 120.54 65.57, 139.18 52.88 C157.82 40.18, 180.1 28.13, 201.33 19.78 C222.55 11.43, 255.78 4.3, 266.51 2.8 C277.24 1.3, 265.05 5.42, 265.7 10.78" fill="none" stroke="#343a40" stroke-width="2"></path></g><g stroke-linecap="round" transform="translate(402.8493928369671 10) rotate(0 65.94913579124659 61.686331430918244)"><path d="M60.43 1.12 C70.19 -0.69, 82.38 0.84, 91.75 4.39 C101.13 7.94, 110.17 15.03, 116.68 22.42 C123.2 29.81, 128.7 39.32, 130.85 48.72 C133 58.13, 132.33 69.62, 129.57 78.85 C126.81 88.07, 121.5 97.35, 114.29 104.06 C107.09 110.78, 96.08 116.16, 86.32 119.14 C76.55 122.13, 65.81 123.39, 55.69 121.97 C45.57 120.55, 33.81 116.33, 25.59 110.62 C17.37 104.9, 10.66 96.13, 6.38 87.7 C2.09 79.28, -0.4 69.38, -0.12 60.07 C0.16 50.75, 2.97 40.32, 8.06 31.82 C13.14 23.32, 21.42 14.28, 30.39 9.06 C39.37 3.84, 56.36 1.75, 61.89 0.53 C67.42 -0.7, 63.37 0.6, 63.58 1.71 M58.28 1.9 C67.62 0.03, 78.54 1.83, 88.1 4.85 C97.66 7.86, 108.97 13.21, 115.66 20 C122.36 26.78, 125.66 36.34, 128.26 45.56 C130.86 54.78, 133.26 65.81, 131.29 75.33 C129.31 84.85, 123.46 95.44, 116.41 102.66 C109.36 109.88, 98.61 115.4, 88.98 118.64 C79.35 121.88, 68.57 122.86, 58.63 122.11 C48.69 121.37, 37.92 119.19, 29.33 114.18 C20.75 109.17, 12.2 100.57, 7.13 92.07 C2.06 83.56, -0.85 72.75, -1.08 63.18 C-1.31 53.61, 0.78 43.27, 5.76 34.63 C10.74 25.99, 20.09 17.08, 28.79 11.33 C37.49 5.58, 53.21 1.96, 57.97 0.12 C62.74 -1.71, 57.48 -0.95, 57.37 0.34" fill="none" stroke="#1e1e1e" stroke-width="2"></path></g><g transform="translate(455.38145091479953 49.0675081695951) rotate(0 13.28399658203125 22.5)"><text direction="ltr" dominant-baseline="text-before-edge" fill="#1e1e1e" font-family="Virgil, Segoe UI Emoji" font-size="36px" style="white-space: pre;" text-anchor="middle" x="13.28399658203125" y="0">n1</text></g><g stroke-linecap="round" transform="translate(706.6416979127334 153.03484797385136) rotate(0 65.94913579124659 61.686331430918244)"><path d="M94.52 6.08 C103.7 9.23, 113.2 16.88, 119.34 24.62 C125.48 32.36, 129.75 43.02, 131.36 52.5 C132.96 61.98, 132.44 72.67, 128.97 81.51 C125.49 90.35, 118.03 99.06, 110.51 105.55 C103 112.04, 93.74 117.79, 83.87 120.46 C74 123.12, 61.31 123.51, 51.29 121.52 C41.26 119.53, 31.45 114.44, 23.72 108.53 C15.99 102.62, 8.91 94.64, 4.89 86.05 C0.87 77.46, -1.33 66.73, -0.42 57 C0.5 47.27, 4.78 35.77, 10.38 27.67 C15.98 19.58, 24.33 12.96, 33.18 8.42 C42.04 3.89, 52.09 0.15, 63.5 0.48 C74.9 0.8, 94.58 7.99, 101.63 10.36 C108.67 12.72, 106.5 13.82, 105.77 14.68 M95.31 5.9 C104.29 8.71, 111.1 16.61, 117.24 24.23 C123.38 31.86, 130.18 42.02, 132.12 51.66 C134.07 61.3, 132.55 73.03, 128.91 82.06 C125.27 91.09, 117.79 99.51, 110.28 105.84 C102.77 112.17, 93.45 117.13, 83.85 120.04 C74.25 122.95, 62.79 124.93, 52.7 123.31 C42.6 121.69, 31.37 116.46, 23.28 110.3 C15.19 104.14, 8.23 95.17, 4.16 86.35 C0.1 77.54, -2.31 67.06, -1.11 57.43 C0.09 47.79, 5.52 36.8, 11.38 28.53 C17.23 20.26, 25.32 12.77, 34.01 7.79 C42.71 2.8, 53.61 -1.31, 63.56 -1.4 C73.52 -1.5, 88.47 5.92, 93.74 7.2 C99.01 8.47, 95.67 5.38, 95.18 6.26" fill="none" stroke="#343a40" stroke-width="2"></path></g><g transform="translate(751.2357600799213 192.10235614344646) rotate(0 21.22199249267578 22.5)"><text direction="ltr" dominant-baseline="text-before-edge" fill="#343a40" font-family="Virgil, Segoe UI Emoji" font-size="36px" style="white-space: pre;" text-anchor="middle" x="21.22199249267578" y="0">n2</text></g><g stroke-linecap="round" transform="translate(789.8729530481451 409.5491003566085) rotate(0 65.94913579124659 61.686331430918244)"><path d="M62.61 0.26 C72.3 -1.1, 84.91 1.59, 94.04 5.37 C103.18 9.15, 111.26 15.46, 117.42 22.96 C123.58 30.45, 129.28 40.83, 131.02 50.32 C132.77 59.82, 131.02 70.81, 127.89 79.92 C124.75 89.03, 119.36 98.08, 112.21 104.99 C105.07 111.9, 94.88 118.36, 85.01 121.38 C75.13 124.4, 63 125.1, 52.97 123.11 C42.93 121.12, 32.74 115.42, 24.81 109.42 C16.87 103.41, 9.52 95.64, 5.35 87.07 C1.17 78.51, -1.06 67.47, -0.23 58.02 C0.6 48.57, 4.99 38.51, 10.35 30.36 C15.71 22.21, 22.56 14.02, 31.92 9.11 C41.28 4.19, 59.83 2.18, 66.51 0.86 C73.18 -0.45, 71.81 0.24, 71.97 1.23 M65.25 -0.17 C75.24 -1.12, 86.67 2.92, 95.45 7.1 C104.22 11.28, 112 17.48, 117.9 24.91 C123.79 32.35, 129.08 41.98, 130.8 51.69 C132.52 61.41, 131.68 73.88, 128.23 83.2 C124.78 92.52, 117.73 101.2, 110.09 107.62 C102.44 114.04, 92.28 119.19, 82.36 121.71 C72.44 124.23, 60.18 124.87, 50.57 122.72 C40.95 120.57, 32.13 115.15, 24.69 108.81 C17.25 102.46, 9.95 93.72, 5.91 84.66 C1.88 75.6, -0.21 63.69, 0.49 54.45 C1.19 45.21, 4.36 37.14, 10.14 29.23 C15.93 21.33, 26.3 11.74, 35.2 7.02 C44.1 2.3, 58.52 1.65, 63.53 0.94 C68.55 0.22, 65.19 1.86, 65.29 2.73" fill="none" stroke="#343a40" stroke-width="2"></path></g><g transform="translate(835.0250138725595 448.61660852620355) rotate(0 20.663993835449276 22.5)"><text direction="ltr" dominant-baseline="text-before-edge" fill="#343a40" font-family="Virgil, Segoe UI Emoji" font-size="36px" style="white-space: pre;" text-anchor="middle" x="20.66399383544922" y="0">n3</text></g><g stroke-linecap="round" transform="translate(682.6279000162112 692.0167266198414) rotate(0 65.94913579124659 61.686331430918244)"><path d="M70.99 -0.76 C80.66 -0.95, 93.13 3.9, 101.7 9.14 C110.26 14.39, 117.37 22.39, 122.38 30.71 C127.4 39.02, 131.32 49.27, 131.79 59.02 C132.25 68.77, 129.72 80.34, 125.18 89.19 C120.64 98.03, 112.74 106.59, 104.53 112.07 C96.33 117.54, 85.98 120.65, 75.95 122.05 C65.92 123.46, 54.06 123.41, 44.35 120.49 C34.65 117.58, 24.58 111.42, 17.71 104.57 C10.83 97.71, 5.86 88.57, 3.11 79.37 C0.35 70.17, -0.81 58.72, 1.15 49.36 C3.11 40, 8.16 30.68, 14.86 23.21 C21.57 15.75, 30.78 8.17, 41.39 4.59 C52.01 1, 71.56 2.03, 78.55 1.68 C85.54 1.34, 83.71 1.48, 83.34 2.49 M60.32 -0.25 C69.8 -2.03, 82.76 0.25, 92.32 4.38 C101.87 8.52, 111.4 16.79, 117.66 24.58 C123.91 32.37, 128.14 41.84, 129.85 51.12 C131.56 60.4, 130.99 71.15, 127.93 80.27 C124.87 89.39, 118.32 99.16, 111.5 105.84 C104.68 112.52, 96.39 117.66, 87.03 120.35 C77.68 123.04, 65.6 123.87, 55.38 121.97 C45.17 120.08, 34.08 114.57, 25.75 108.99 C17.42 103.42, 9.44 97.1, 5.41 88.51 C1.38 79.92, 1.01 67.04, 1.56 57.45 C2.11 47.86, 3.51 38.79, 8.69 30.97 C13.86 23.15, 23.83 15.68, 32.61 10.54 C41.39 5.41, 56.34 1.77, 61.36 0.15 C66.38 -1.47, 62.69 -0.23, 62.72 0.81" fill="none" stroke="#343a40" stroke-width="2"></path></g><g transform="translate(728.517959803028 731.0842347894364) rotate(0 19.925994873046875 22.5)"><text direction="ltr" dominant-baseline="text-before-edge" fill="#343a40" font-family="Virgil, Segoe UI Emoji" font-size="36px" style="white-space: pre;" text-anchor="middle" x="19.925994873046875" y="0">n4</text></g><g stroke-linecap="round" transform="translate(415.49926477623467 808.10709869945) rotate(0 65.94913579124659 61.686331430918244)"><path d="M33.53 7.01 C41.55 1.87, 54.55 -0.64, 64.89 -0.59 C75.23 -0.53, 86.54 2.78, 95.56 7.33 C104.57 11.87, 113.04 19.14, 118.97 26.71 C124.91 34.28, 129.7 43.34, 131.15 52.75 C132.6 62.15, 131.18 73.96, 127.66 83.12 C124.14 92.28, 117.43 101.16, 110.04 107.69 C102.65 114.21, 93.18 119.85, 83.31 122.27 C73.45 124.69, 60.96 124.36, 50.86 122.21 C40.75 120.05, 30.24 115.65, 22.68 109.33 C15.13 103, 9.12 93.14, 5.53 84.23 C1.94 75.32, 0.23 65.49, 1.15 55.85 C2.07 46.22, 5.14 34.57, 11.06 26.43 C16.99 18.28, 31.86 10.3, 36.68 6.99 C41.49 3.68, 39.35 5.91, 39.97 6.57 M57.64 1.69 C67.06 -0.06, 78.69 1.53, 88.08 4.76 C97.47 7.99, 107.23 13.97, 113.98 21.07 C120.72 28.16, 125.69 38.2, 128.56 47.35 C131.43 56.51, 133.21 66.89, 131.2 75.98 C129.2 85.07, 123.42 94.91, 116.54 101.88 C109.65 108.85, 99.67 114.07, 89.88 117.79 C80.1 121.5, 67.76 125.17, 57.83 124.18 C47.89 123.18, 38.71 117.25, 30.25 111.82 C21.8 106.38, 11.95 99.63, 7.08 91.58 C2.22 83.53, 1.07 73.22, 1.08 63.51 C1.08 53.81, 2.44 42.17, 7.12 33.34 C11.81 24.52, 20.86 16.03, 29.2 10.56 C37.53 5.09, 52.35 2.16, 57.13 0.55 C61.9 -1.06, 57.59 -0.07, 57.87 0.91" fill="none" stroke="#343a40" stroke-width="2"></path></g><g transform="translate(461.785328286196 847.1746068690451) rotate(0 19.529991149902344 22.5)"><text direction="ltr" dominant-baseline="text-before-edge" fill="#343a40" font-family="Virgil, Segoe UI Emoji" font-size="36px" style="white-space: pre;" text-anchor="middle" x="19.529991149902344" y="0">n5</text></g><g stroke-linecap="round" transform="translate(91.33430719506532 164.83571137803392) rotate(0 65.94913579124659 61.686331430918244)"><path d="M49.65 2.56 C58.72 -0.31, 70.76 0.51, 80.69 2.53 C90.63 4.56, 101.52 8.47, 109.26 14.7 C117.01 20.93, 123.55 30.83, 127.19 39.92 C130.82 49.01, 132.11 59.66, 131.08 69.23 C130.06 78.8, 126.79 89.48, 121.05 97.37 C115.31 105.25, 105.82 112.08, 96.65 116.56 C87.48 121.04, 76.06 124.28, 66.03 124.23 C56.01 124.18, 45.41 120.7, 36.51 116.27 C27.62 111.85, 18.67 105.66, 12.66 97.69 C6.65 89.73, 1.94 77.95, 0.47 68.48 C-0.99 59, 0.3 49.59, 3.86 40.84 C7.42 32.1, 13.76 22.74, 21.81 16.03 C29.87 9.32, 46.91 2.92, 52.2 0.59 C57.49 -1.74, 53.51 0.91, 53.55 2.06 M90.49 5.4 C99.74 8.07, 108.7 16, 115.55 23.27 C122.41 30.54, 129.19 39.84, 131.65 49 C134.11 58.15, 133.3 69.22, 130.34 78.19 C127.38 87.16, 121.18 95.61, 113.88 102.81 C106.57 110, 95.98 118.18, 86.51 121.34 C77.05 124.5, 67.17 123.32, 57.07 121.77 C46.96 120.23, 34.13 117.38, 25.88 112.05 C17.62 106.72, 11.89 98.58, 7.55 89.81 C3.2 81.04, -0.58 69.33, -0.21 59.44 C0.15 49.55, 4.7 38.76, 9.74 30.48 C14.77 22.19, 21.54 14.91, 30 9.73 C38.45 4.55, 50.16 0.26, 60.48 -0.59 C70.79 -1.44, 86.82 3.36, 91.89 4.63 C96.96 5.9, 91.26 5.87, 90.9 7.03" fill="none" stroke="#343a40" stroke-width="2"></path></g><g transform="translate(134.9743669818821 203.90321954762902) rotate(0 22.175994873046875 22.5)"><text direction="ltr" dominant-baseline="text-before-edge" fill="#343a40" font-family="Virgil, Segoe UI Emoji" font-size="36px" style="white-space: pre;" text-anchor="middle" x="22.175994873046875" y="0">n8</text></g><g stroke-linecap="round" transform="translate(10 428.39069562926943) rotate(0 65.94913579124659 61.686331430918244)"><path d="M87.9 2.98 C97.43 5.09, 107.2 13.06, 114.09 20.25 C120.99 27.44, 126.46 36.81, 129.26 46.12 C132.06 55.43, 133.14 66.79, 130.92 76.11 C128.7 85.43, 122.71 94.76, 115.94 102.03 C109.18 109.3, 99.62 116.28, 90.34 119.75 C81.06 123.23, 70.25 123.86, 60.26 122.87 C50.27 121.89, 39.09 119.25, 30.41 113.86 C21.72 108.47, 13.27 98.87, 8.15 90.51 C3.04 82.15, -0.06 73.03, -0.28 63.69 C-0.51 54.35, 2.1 43.27, 6.79 34.46 C11.49 25.64, 19.62 16.48, 27.88 10.8 C36.14 5.11, 45.77 1.32, 56.38 0.37 C66.99 -0.59, 84.87 3.92, 91.53 5.08 C98.19 6.24, 96.56 6.51, 96.32 7.33 M79.03 0.89 C89.13 1.43, 99.77 7.04, 107.65 12.72 C115.53 18.4, 122.38 25.98, 126.31 34.97 C130.24 43.96, 131.64 57.04, 131.23 66.68 C130.81 76.32, 129.13 84.69, 123.82 92.81 C118.51 100.94, 108.18 110.1, 99.37 115.42 C90.56 120.74, 81.08 124.32, 70.95 124.74 C60.81 125.16, 47.89 122.2, 38.57 117.93 C29.25 113.66, 21.35 106.65, 15.02 99.13 C8.68 91.61, 2.56 82.25, 0.57 72.81 C-1.42 63.37, -0.11 51.64, 3.07 42.47 C6.26 33.3, 12.48 24.25, 19.67 17.81 C26.86 11.37, 36.4 6.44, 46.22 3.82 C56.03 1.21, 73.55 2.46, 78.57 2.11 C83.6 1.77, 76.85 0.92, 76.36 1.76" fill="none" stroke="#343a40" stroke-width="2"></path></g><g transform="translate(57.726058321973056 467.4582037988645) rotate(0 18.08999633789061 22.5)"><text direction="ltr" dominant-baseline="text-before-edge" fill="#343a40" font-family="Virgil, Segoe UI Emoji" font-size="36px" style="white-space: pre;" text-anchor="middle" x="18.089996337890625" y="0">n7</text></g><g stroke-linecap="round" transform="translate(110.5098221426083 675.3846849406282) rotate(0 65.94913579124659 61.686331430918244)"><path d="M46.49 3.09 C55.65 -0.33, 68.96 0.23, 79.01 2.03 C89.06 3.82, 98.95 7.92, 106.79 13.86 C114.63 19.81, 121.73 29.06, 126.04 37.71 C130.34 46.35, 133.16 56.24, 132.63 65.74 C132.1 75.25, 128.39 86.73, 122.87 94.73 C117.36 102.73, 108.5 108.89, 99.53 113.76 C90.57 118.64, 79.29 123.29, 69.07 124 C58.86 124.71, 47.38 122.27, 38.24 118.01 C29.1 113.75, 20.46 106.11, 14.21 98.45 C7.96 90.78, 2.67 81.3, 0.73 72.04 C-1.22 62.77, -0.75 52, 2.54 42.84 C5.84 33.68, 11.84 24.19, 20.51 17.1 C29.19 10, 47.73 3.06, 54.61 0.29 C61.49 -2.47, 61.6 -0.76, 61.79 0.5 M63.24 -1.39 C72.64 -2.42, 83.99 2.9, 93.45 7.07 C102.9 11.23, 113.83 16.04, 119.98 23.6 C126.13 31.17, 128.74 42.66, 130.36 52.47 C131.97 62.28, 132.79 73.55, 129.66 82.47 C126.53 91.4, 118.91 99.72, 111.56 106.03 C104.21 112.33, 95.4 117.61, 85.56 120.31 C75.72 123.01, 62.68 124.15, 52.5 122.23 C42.33 120.32, 32.31 114.87, 24.51 108.81 C16.7 102.75, 9.77 94.33, 5.69 85.86 C1.6 77.4, -0.82 67.31, 0.02 58.01 C0.87 48.7, 5.51 38.36, 10.75 30.01 C15.99 21.66, 22.92 12.89, 31.46 7.91 C39.99 2.94, 56.54 1.05, 61.97 0.17 C67.39 -0.71, 63.92 1.77, 64.01 2.63" fill="none" stroke="#343a40" stroke-width="2"></path></g><g transform="translate(156.39988192942508 714.4521931102232) rotate(0 19.925994873046875 22.5)"><text direction="ltr" dominant-baseline="text-before-edge" fill="#343a40" font-family="Virgil, Segoe UI Emoji" font-size="36px" style="white-space: pre;" text-anchor="middle" x="19.925994873046875" y="0">n6</text></g><g transform="translate(453.52703200733276 179.84433506335427) rotate(0 12.383995056152344 22.5)"><text direction="ltr" dominant-baseline="text-before-edge" fill="#868e96" font-family="Virgil, Segoe UI Emoji" font-size="36px" style="white-space: pre;" text-anchor="start" x="0" y="0">0</text></g><g transform="translate(708.6203496033145 450.02798009490016) rotate(0 23.939987182617188 22.5)"><text direction="ltr" dominant-baseline="text-before-edge" fill="#868e96" font-family="Virgil, Segoe UI Emoji" font-size="36px" style="white-space: pre;" text-anchor="start" x="0" y="0">25</text></g><g transform="translate(453.0324688065207 716.865826052187) rotate(0 23.50798797607422 22.5)"><text direction="ltr" dominant-baseline="text-before-edge" fill="#868e96" font-family="Virgil, Segoe UI Emoji" font-size="36px" style="white-space: pre;" text-anchor="start" x="0" y="0">50</text></g><g transform="translate(183.75111736457984 460.1455381253463) rotate(0 20.80799102783203 22.5)"><text direction="ltr" dominant-baseline="text-before-edge" fill="#868e96" font-family="Virgil, Segoe UI Emoji" font-size="36px" style="white-space: pre;" text-anchor="start" x="0" y="0">75</text></g><g transform="translate(655.6009320093244 276.8094272615572) rotate(0 17.693992614746094 22.5)"><text direction="ltr" dominant-baseline="text-before-edge" fill="#868e96" font-family="Virgil, Segoe UI Emoji" font-size="36px" style="white-space: pre;" text-anchor="start" x="0" y="0">12</text></g><g transform="translate(646.174015879054 630.0609199280325) rotate(0 21.941993713378906 22.5)"><text direction="ltr" dominant-baseline="text-before-edge" fill="#868e96" font-family="Virgil, Segoe UI Emoji" font-size="36px" style="white-space: pre;" text-anchor="start" x="0" y="0">37</text></g><g transform="translate(251.4430647031695 627.4819232900354) rotate(0 24.33599090576172 22.5)"><text direction="ltr" dominant-baseline="text-before-edge" fill="#868e96" font-family="Virgil, Segoe UI Emoji" font-size="36px" style="white-space: pre;" text-anchor="start" x="0" y="0">62</text></g><g transform="translate(242.84663009654105 294.13772698629055) rotate(0 23.453994750976562 22.5)"><text direction="ltr" dominant-baseline="text-before-edge" fill="#868e96" font-family="Virgil, Segoe UI Emoji" font-size="36px" style="white-space: pre;" text-anchor="start" x="0" y="0">87</text></g><g transform="translate(974.1066055511924 536.3301464229663) rotate(0 137.33990478515625 25)"><text direction="ltr" dominant-baseline="text-before-edge" fill="#868e96" font-family="Virgil, Segoe UI Emoji" font-size="20px" style="white-space: pre;" text-anchor="start" x="0" y="0">1. hash(key) = 28</text><text direction="ltr" dominant-baseline="text-before-edge" fill="#868e96" font-family="Virgil, Segoe UI Emoji" font-size="20px" style="white-space: pre;" text-anchor="start" x="0" y="25">2. Find 28 on the hash ring</text></g><g stroke-linecap="round"><g transform="translate(962.7762012726719 569.2376017111028) rotate(0 -91.68700233567256 -0.40406830874894695)"><path d="M0.14 -0.37 C-30.53 -0.79, -152.7 -1.56, -183.4 -1.79 M-1.25 -1.6 C-32.13 -1.97, -153.7 -0.88, -184.36 -0.76" fill="none" stroke="#868e96" stroke-width="2"></path></g><g transform="translate(962.7762012726719 569.2376017111028) rotate(0 -91.68700233567256 -0.40406830874894695)"><path d="M-156.23 -11.21 C-166.6 -7.56, -177.45 -5.04, -184.36 -0.76 M-156.23 -11.21 C-162.41 -9.76, -169.72 -6.47, -184.36 -0.76" fill="none" stroke="#868e96" stroke-width="2"></path></g><g transform="translate(962.7762012726719 569.2376017111028) rotate(0 -91.68700233567256 -0.40406830874894695)"><path d="M-156.1 9.31 C-166.65 5.79, -177.54 1.14, -184.36 -0.76 M-156.1 9.31 C-162.26 6.18, -169.6 4.9, -184.36 -0.76" fill="none" stroke="#868e96" stroke-width="2"></path></g></g><mask></mask><g stroke-linecap="round"><g transform="translate(785.9172878584891 598.1673879153046) rotate(0 -21.231979301816295 43.09894014485667)"><path d="M0.36 0.51 C-2.1 10.25, -8.18 43.99, -15.18 58.41 C-22.18 72.84, -37.2 82.27, -41.65 87.06 M-0.91 -0.27 C-3.47 9.13, -9.12 42.38, -15.97 56.62 C-22.82 70.86, -37.77 80.42, -41.99 85.17" fill="none" stroke="#868e96" stroke-width="2"></path></g><g transform="translate(785.9172878584891 598.1673879153046) rotate(0 -21.231979301816295 43.09894014485667)"><path d="M-32.79 67.87 C-34.43 73.03, -36.69 78.5, -41.99 85.17 M-32.79 67.87 C-36.04 74.59, -40.37 81.04, -41.99 85.17" fill="none" stroke="#868e96" stroke-width="2"></path></g><g transform="translate(785.9172878584891 598.1673879153046) rotate(0 -21.231979301816295 43.09894014485667)"><path d="M-23.82 77.84 C-27.86 80.35, -32.53 83.15, -41.99 85.17 M-23.82 77.84 C-30.45 80.92, -38.12 83.66, -41.99 85.17" fill="none" stroke="#868e96" stroke-width="2"></path></g></g><mask></mask><g transform="translate(800.4819771257044 628.2492549098228) rotate(0 184.3798828125 25)"><text direction="ltr" dominant-baseline="text-before-edge" fill="#868e96" font-family="Virgil, Segoe UI Emoji" font-size="20px" style="white-space: pre;" text-anchor="start" x="0" y="0">3. Walk clockwise until we hit a node.</text><text direction="ltr" dominant-baseline="text-before-edge" fill="#868e96" font-family="Virgil, Segoe UI Emoji" font-size="20px" style="white-space: pre;" text-anchor="start" x="0" y="25">4. Store data on that node! </text></g></svg>