<svg height="958" version="1.1" viewbox="0 0 1042 958" width="1042" xmlns="http://www.w3.org/2000/svg">
<!-- svg-source:excalidraw -->
<!-- payload-type:application/vnd.excalidraw+json --><!-- payload-version:2 -->
<defs>
<style class="style-fonts">
</style>
</defs>
<rect fill="#ffffff" height="958" width="1042" x="0" y="0"></rect><g stroke-linecap="round" transform="translate(10 10) rotate(0 75 32.5)"><path d="M0 0 C31.03 -0.66, 65.78 -0.89, 150 0 M0 0 C59.11 -0.26, 118.48 -0.56, 150 0 M150 0 C149.08 22.96, 150.84 47.76, 150 65 M150 0 C149.42 20.12, 149.64 39.79, 150 65 M150 65 C110 62.89, 64.82 63.15, 0 65 M150 65 C101.66 64.66, 54.3 66.13, 0 65 M0 65 C-0.06 43.68, -1.44 18.89, 0 0 M0 65 C-0.05 42.44, 0.46 22.4, 0 0" fill="none" stroke="#1e1e1e" stroke-width="2"></path></g><g stroke-linecap="round" transform="translate(10 883) rotate(0 75 32.5)"><path d="M0 0 C36.88 -0.62, 73.79 3.1, 150 0 M0 0 C56.94 -0.73, 113.34 -1.31, 150 0 M150 0 C150.55 21.67, 149.81 45.07, 150 65 M150 0 C149.14 23.27, 149.36 45.45, 150 65 M150 65 C106.85 62.16, 67.27 64.61, 0 65 M150 65 C104.41 65.22, 57.39 63.72, 0 65 M0 65 C-1.66 40.35, 0.8 14.71, 0 0 M0 65 C0.35 41.79, 0.96 17.51, 0 0" fill="none" stroke="#1e1e1e" stroke-width="2"></path></g><g stroke-linecap="round" transform="translate(267 10) rotate(0 75 32.5)"><path d="M0 0 C35.14 3.27, 68.08 1.7, 150 0 M0 0 C58.78 -0.87, 116.55 -1.32, 150 0 M150 0 C150.38 15.5, 151.41 29.25, 150 65 M150 0 C149.51 20.29, 149.49 43.3, 150 65 M150 65 C118.73 64.81, 86.77 63.87, 0 65 M150 65 C113.02 65.92, 75.75 66.25, 0 65 M0 65 C1.25 38.81, 1.94 14.28, 0 0 M0 65 C0.62 51.75, -0.69 38.78, 0 0" fill="none" stroke="#1e1e1e" stroke-width="2"></path></g><g stroke-linecap="round" transform="translate(267 883) rotate(0 75 32.5)"><path d="M0 0 C33.06 -1.09, 64.84 -0.18, 150 0 M0 0 C54.06 -0.44, 106.57 0.44, 150 0 M150 0 C151.17 15.74, 150.56 33.24, 150 65 M150 0 C149.63 20.95, 148.98 39.3, 150 65 M150 65 C116.53 65.71, 81.64 67.67, 0 65 M150 65 C91.22 63.99, 31.73 63.3, 0 65 M0 65 C1.15 45.06, -2.03 27.1, 0 0 M0 65 C-1.08 41.85, -1.08 15.89, 0 0" fill="none" stroke="#1e1e1e" stroke-width="2"></path></g><g stroke-linecap="round" transform="translate(467 10) rotate(0 75 32.5)"><path d="M0 0 C61.19 1, 120.04 1.19, 150 0 M0 0 C44.21 1.11, 89.35 0.74, 150 0 M150 0 C150.89 19.36, 150.54 40.01, 150 65 M150 0 C148.97 12.78, 149.1 27.35, 150 65 M150 65 C96.95 66.97, 47.83 66.07, 0 65 M150 65 C113.87 63.8, 76 65.03, 0 65 M0 65 C-2.25 49.82, 0.99 35.79, 0 0 M0 65 C-0.23 42.33, -0.4 20.86, 0 0" fill="none" stroke="#1e1e1e" stroke-width="2"></path></g><g stroke-linecap="round" transform="translate(467 883) rotate(0 75 32.5)"><path d="M0 0 C48.84 0.52, 95.37 -0.05, 150 0 M0 0 C37.78 -0.58, 76.43 -0.07, 150 0 M150 0 C150.34 14.81, 148.34 30.01, 150 65 M150 0 C148.67 25.6, 149.89 50.86, 150 65 M150 65 C106.93 67.55, 58.91 68.01, 0 65 M150 65 C107.99 63.99, 65.48 64.34, 0 65 M0 65 C2.02 49.88, 1.31 30.83, 0 0 M0 65 C-0.41 38.6, 0.07 13.42, 0 0" fill="none" stroke="#1e1e1e" stroke-width="2"></path></g><g stroke-linecap="round" transform="translate(682 10) rotate(0 75 32.5)"><path d="M0 0 C54.47 -0.2, 108.06 -2.4, 150 0 M0 0 C51.46 0.48, 102.05 0.18, 150 0 M150 0 C148.23 16.25, 151.86 31.64, 150 65 M150 0 C149.98 14.51, 149.51 28.32, 150 65 M150 65 C89.17 67.34, 30.08 67.46, 0 65 M150 65 C117.77 66.18, 86.37 64.59, 0 65 M0 65 C0.26 43.92, 1.53 24.17, 0 0 M0 65 C0.18 51.17, 0.46 36.37, 0 0" fill="none" stroke="#1e1e1e" stroke-width="2"></path></g><g stroke-linecap="round" transform="translate(682 883) rotate(0 75 32.5)"><path d="M0 0 C55.07 -1.97, 112.81 -1.43, 150 0 M0 0 C45.16 -0.59, 91.21 -0.77, 150 0 M150 0 C151.21 16.35, 147.84 34.72, 150 65 M150 0 C150.31 20.45, 151.29 42.87, 150 65 M150 65 C96.57 67.81, 42.17 66, 0 65 M150 65 C99.55 65.12, 50.09 66.74, 0 65 M0 65 C1.76 39.96, -1.87 15.89, 0 0 M0 65 C0.16 48.02, 0.79 30.98, 0 0" fill="none" stroke="#1e1e1e" stroke-width="2"></path></g><g stroke-linecap="round" transform="translate(882 10) rotate(0 75 32.5)"><path d="M0 0 C52.6 0.22, 103.61 1.19, 150 0 M0 0 C53.07 -0.31, 106.78 -1.31, 150 0 M150 0 C149.02 16.51, 151.03 36.98, 150 65 M150 0 C150.98 21.15, 150.54 39.83, 150 65 M150 65 C91.69 66.09, 37.62 64.94, 0 65 M150 65 C94.82 64.36, 40.22 64, 0 65 M0 65 C-2.28 48.13, -1.49 33.86, 0 0 M0 65 C0.61 42.58, -0.46 20.34, 0 0" fill="none" stroke="#1e1e1e" stroke-width="2"></path></g><g stroke-linecap="round" transform="translate(882 883) rotate(0 75 32.5)"><path d="M0 0 C35.37 0.79, 71.66 -0.75, 150 0 M0 0 C48.71 -1.04, 97.62 0.78, 150 0 M150 0 C149.94 14.69, 149.7 27.49, 150 65 M150 0 C151.17 15.72, 151.41 32.3, 150 65 M150 65 C93.24 63.58, 36.51 63.94, 0 65 M150 65 C119.24 66.44, 86.52 67.07, 0 65 M0 65 C-0.31 49.06, 1.28 34.41, 0 0 M0 65 C-0.87 46.1, -1.26 28.75, 0 0" fill="none" stroke="#1e1e1e" stroke-width="2"></path></g><g stroke-linecap="round"><g transform="translate(85 75) rotate(0 0 404)"><path d="M0 0 C0.63 211.42, 0.39 423.55, 0 808 M0 0 C-0.78 249.51, -1.04 497.98, 0 808" fill="none" stroke="#999" stroke-width="1"></path></g></g><mask></mask><g stroke-linecap="round"><g transform="translate(342 75) rotate(0 0 404)"><path d="M0 0 C2.04 250.99, 1.9 502.5, 0 808 M0 0 C-1.09 168.28, -1.04 337.27, 0 808" fill="none" stroke="#999" stroke-width="1"></path></g></g><mask></mask><g stroke-linecap="round"><g transform="translate(542 75) rotate(0 0 404)"><path d="M0 0 C0.91 189.19, 0.11 378.53, 0 808 M0 0 C-3.16 315.52, -2.67 630.91, 0 808" fill="none" stroke="#999" stroke-width="1"></path></g></g><mask></mask><g stroke-linecap="round"><g transform="translate(757 75) rotate(0 0 404)"><path d="M0 0 C-0.46 207.48, 0.99 414.61, 0 808 M0 0 C-2.25 179.15, -2.44 358.02, 0 808" fill="none" stroke="#999" stroke-width="1"></path></g></g><mask></mask><g stroke-linecap="round"><g transform="translate(957 75) rotate(0 0 404)"><path d="M0 0 C-2.23 224.5, -3.58 449.81, 0 808 M0 0 C1.52 260.2, 1.91 521.18, 0 808" fill="none" stroke="#999" stroke-width="1"></path></g></g><mask></mask><g stroke-linecap="round"><g transform="translate(86.5 117) rotate(0 125.5 0)"><path d="M-1.06 -0.94 C40.67 -1.08, 207.99 0.09, 250.09 0.27 M0.58 1.18 C42.71 1.18, 210.58 -1.77, 252.33 -1.72" fill="none" stroke="#1e1e1e" stroke-width="2"></path></g><g transform="translate(86.5 117) rotate(0 125.5 0)"><path d="M224.24 8.81 C230.36 4.63, 240.16 4.16, 252.33 -1.72 M224.24 8.81 C233.94 6.65, 242.22 1.88, 252.33 -1.72" fill="none" stroke="#1e1e1e" stroke-width="2"></path></g><g transform="translate(86.5 117) rotate(0 125.5 0)"><path d="M224.05 -11.71 C230.41 -10.2, 240.27 -4.98, 252.33 -1.72 M224.05 -11.71 C233.81 -7.5, 242.15 -5.9, 252.33 -1.72" fill="none" stroke="#1e1e1e" stroke-width="2"></path></g></g><mask></mask><g stroke-linecap="round"><g transform="translate(342.5 168.5) rotate(0 30.25 10.5)"><path d="M-0.91 0.27 C9.45 -1.14, 50.83 -14.31, 61.06 -9.37 C71.3 -4.44, 70.31 24.64, 60.5 29.9 C50.69 35.16, 11.99 23.75, 2.18 22.16 M0.82 -0.64 C11.16 -1.75, 50.59 -13.03, 60.41 -7.77 C70.23 -2.51, 69.91 26.24, 59.74 30.9 C49.56 35.57, 9.26 21.97, -0.61 20.22" fill="none" stroke="#1e1e1e" stroke-width="2"></path></g><g transform="translate(342.5 168.5) rotate(0 30.25 10.5)"><path d="M29.24 17.27 C23.35 18.61, 16.8 18.29, -0.61 20.22 M29.24 17.27 C22.34 17.76, 15.11 18.83, -0.61 20.22" fill="none" stroke="#1e1e1e" stroke-width="2"></path></g><g transform="translate(342.5 168.5) rotate(0 30.25 10.5)"><path d="M24.15 37.15 C19.49 34.33, 14.02 29.81, -0.61 20.22 M24.15 37.15 C18.33 32.62, 12.37 28.72, -0.61 20.22" fill="none" stroke="#1e1e1e" stroke-width="2"></path></g></g><mask></mask><g stroke-linecap="round"><g transform="translate(343.5 251) rotate(0 204.5 0)"><path d="M0.56 0.13 C68.88 -0.02, 340.73 -0.77, 409 -0.6 M-0.6 -0.85 C67.64 -0.87, 339.61 0.58, 408.05 0.62" fill="none" stroke="#1e1e1e" stroke-width="2"></path></g><g transform="translate(343.5 251) rotate(0 204.5 0)"><path d="M379.83 10.79 C386.35 8.38, 391.48 8.06, 408.05 0.62 M379.83 10.79 C391.75 6.7, 403.01 1.98, 408.05 0.62" fill="none" stroke="#1e1e1e" stroke-width="2"></path></g><g transform="translate(343.5 251) rotate(0 204.5 0)"><path d="M379.9 -9.73 C386.45 -7.54, 391.56 -3.24, 408.05 0.62 M379.9 -9.73 C391.9 -5.67, 403.14 -2.25, 408.05 0.62" fill="none" stroke="#1e1e1e" stroke-width="2"></path></g></g><mask></mask><g stroke-linecap="round"><g transform="translate(343.5 303) rotate(0 304.5 0)"><path d="M0 -0.6 C101.6 -0.43, 508.57 1.17, 610.18 1.16 M-1.46 1.7 C100.04 1.56, 508.07 -0.12, 609.85 -0.35" fill="none" stroke="#1e1e1e" stroke-width="2"></path></g><g transform="translate(343.5 303) rotate(0 304.5 0)"><path d="M581.7 10.01 C590.46 8.38, 603.17 3.89, 609.85 -0.35 M581.7 10.01 C589.38 6.62, 595.41 5.29, 609.85 -0.35" fill="none" stroke="#1e1e1e" stroke-width="2"></path></g><g transform="translate(343.5 303) rotate(0 304.5 0)"><path d="M581.63 -10.52 C590.43 -5.02, 603.17 -2.39, 609.85 -0.35 M581.63 -10.52 C589.49 -8.85, 595.54 -5.12, 609.85 -0.35" fill="none" stroke="#1e1e1e" stroke-width="2"></path></g></g><mask></mask><g stroke-linecap="round"><g transform="translate(755.5 355) rotate(0 -204.5 0)"><path d="M1.18 1.16 C-66.88 1.16, -340.15 -0.41, -408.36 -0.64" fill="none" stroke="#1e1e1e" stroke-dasharray="1.5 8" stroke-width="2.5"></path></g><g transform="translate(755.5 355) rotate(0 -204.5 0)"><path d="M-380.12 -10.77 C-386.7 -6.39, -398.19 -2.88, -408.36 -0.64" fill="none" stroke="#1e1e1e" stroke-dasharray="1.5 6" stroke-width="2.5"></path></g><g transform="translate(755.5 355) rotate(0 -204.5 0)"><path d="M-380.22 9.75 C-386.67 7.98, -398.12 5.33, -408.36 -0.64" fill="none" stroke="#1e1e1e" stroke-dasharray="1.5 6" stroke-width="2.5"></path></g></g><mask></mask><g stroke-linecap="round"><g transform="translate(955.5 407) rotate(0 -304.5 0)"><path d="M0.64 -0.64 C-100.9 -0.88, -506.64 -0.17, -608.08 -0.25" fill="none" stroke="#1e1e1e" stroke-dasharray="1.5 8" stroke-width="2.5"></path></g><g transform="translate(955.5 407) rotate(0 -304.5 0)"><path d="M-579.89 -10.52 C-592.09 -4.74, -602.66 -0.53, -608.08 -0.25" fill="none" stroke="#1e1e1e" stroke-dasharray="1.5 6" stroke-width="2.5"></path></g><g transform="translate(955.5 407) rotate(0 -304.5 0)"><path d="M-579.88 10 C-592.28 7.6, -602.86 3.64, -608.08 -0.25" fill="none" stroke="#1e1e1e" stroke-dasharray="1.5 6" stroke-width="2.5"></path></g></g><mask></mask><g stroke-linecap="round"><g transform="translate(340.5 459) rotate(0 -125.5 0)"><path d="M0.92 -0.25 C-40.85 -0.32, -208 -1.18, -250.01 -1.07" fill="none" stroke="#1e1e1e" stroke-dasharray="1.5 8" stroke-width="2.5"></path></g><g transform="translate(340.5 459) rotate(0 -125.5 0)"><path d="M-221.8 -11.28 C-232.23 -5.8, -243.58 -4.01, -250.01 -1.07" fill="none" stroke="#1e1e1e" stroke-dasharray="1.5 6" stroke-width="2.5"></path></g><g transform="translate(340.5 459) rotate(0 -125.5 0)"><path d="M-221.83 9.24 C-232.15 7.47, -243.48 2.01, -250.01 -1.07" fill="none" stroke="#1e1e1e" stroke-dasharray="1.5 6" stroke-width="2.5"></path></g></g><mask></mask><g stroke-linecap="round"><g transform="translate(86.5 511) rotate(0 225.5 0)"><path d="M0.99 -1.07 C75.99 -0.97, 376.04 0.08, 450.91 0.4 M0.06 0.98 C74.81 0.73, 374.47 -1.17, 449.91 -1.52" fill="none" stroke="#1e1e1e" stroke-width="2"></path></g><g transform="translate(86.5 511) rotate(0 225.5 0)"><path d="M421.78 8.9 C430.61 4.59, 443.66 -0.49, 449.91 -1.52 M421.78 8.9 C432.22 6.04, 443.19 1.85, 449.91 -1.52" fill="none" stroke="#1e1e1e" stroke-width="2"></path></g><g transform="translate(86.5 511) rotate(0 225.5 0)"><path d="M421.66 -11.62 C430.5 -8.2, 443.59 -5.55, 449.91 -1.52 M421.66 -11.62 C432.05 -6.93, 443.06 -3.56, 449.91 -1.52" fill="none" stroke="#1e1e1e" stroke-width="2"></path></g></g><mask></mask><g stroke-linecap="round"><g transform="translate(543.5 563) rotate(0 104.5 0)"><path d="M-0.09 0.4 C34.44 0.71, 173.46 1.06, 208.22 0.82 M-1.6 -0.44 C33.23 -0.36, 175.69 -0.89, 210.52 -0.88" fill="none" stroke="#1e1e1e" stroke-width="2"></path></g><g transform="translate(543.5 563) rotate(0 104.5 0)"><path d="M182.34 9.44 C193.89 4.2, 205.37 0.62, 210.52 -0.88 M182.34 9.44 C188.89 7.44, 193.48 5.91, 210.52 -0.88" fill="none" stroke="#1e1e1e" stroke-width="2"></path></g><g transform="translate(543.5 563) rotate(0 104.5 0)"><path d="M182.31 -11.08 C193.68 -8.46, 205.18 -4.19, 210.52 -0.88 M182.31 -11.08 C188.87 -8.79, 193.46 -6.01, 210.52 -0.88" fill="none" stroke="#1e1e1e" stroke-width="2"></path></g></g><mask></mask><g stroke-linecap="round"><g transform="translate(543.5 615) rotate(0 204.5 0)"><path d="M-0.78 0.82 C67.3 0.57, 340.13 -1.09, 408.43 -1.09 M1.01 0.2 C68.89 0.03, 339.3 0.08, 407.19 -0.12" fill="none" stroke="#1e1e1e" stroke-width="2"></path></g><g transform="translate(543.5 615) rotate(0 204.5 0)"><path d="M379.01 10.17 C388.57 6.4, 393.63 4.42, 407.19 -0.12 M379.01 10.17 C388.75 7.24, 399.22 1.61, 407.19 -0.12" fill="none" stroke="#1e1e1e" stroke-width="2"></path></g><g transform="translate(543.5 615) rotate(0 204.5 0)"><path d="M378.98 -10.35 C388.62 -8.12, 393.68 -4.11, 407.19 -0.12 M378.98 -10.35 C388.87 -5.65, 399.35 -3.67, 407.19 -0.12" fill="none" stroke="#1e1e1e" stroke-width="2"></path></g></g><mask></mask><g stroke-linecap="round"><g transform="translate(755.5 667) rotate(0 -104.5 0)"><path d="M-0.57 -1.09 C-35.26 -1.08, -174.34 0.6, -208.95 0.86" fill="none" stroke="#1e1e1e" stroke-dasharray="1.5 8" stroke-width="2.5"></path></g><g transform="translate(755.5 667) rotate(0 -104.5 0)"><path d="M-180.87 -9.68 C-189.2 -7.26, -192.55 -3.57, -208.95 0.86" fill="none" stroke="#1e1e1e" stroke-dasharray="1.5 6" stroke-width="2.5"></path></g><g transform="translate(755.5 667) rotate(0 -104.5 0)"><path d="M-180.66 10.84 C-189.18 8.44, -192.58 7.32, -208.95 0.86" fill="none" stroke="#1e1e1e" stroke-dasharray="1.5 6" stroke-width="2.5"></path></g></g><mask></mask><g stroke-linecap="round"><g transform="translate(955.5 719) rotate(0 -204.5 0)"><path d="M0.05 0.86 C-67.9 1.11, -339.91 0.38, -408.22 0.44" fill="none" stroke="#1e1e1e" stroke-dasharray="1.5 8" stroke-width="2.5"></path></g><g transform="translate(955.5 719) rotate(0 -204.5 0)"><path d="M-380.02 -9.79 C-385.81 -5.9, -393.64 -5.94, -408.22 0.44" fill="none" stroke="#1e1e1e" stroke-dasharray="1.5 6" stroke-width="2.5"></path></g><g transform="translate(955.5 719) rotate(0 -204.5 0)"><path d="M-380.04 10.73 C-385.64 9.44, -393.46 4.22, -408.22 0.44" fill="none" stroke="#1e1e1e" stroke-dasharray="1.5 6" stroke-width="2.5"></path></g></g><mask></mask><g stroke-linecap="round"><g transform="translate(542.5 770.5) rotate(0 30.25 10.5)"><path d="M0.78 0.44 C10.72 -1.09, 49.89 -13.15, 59.71 -8.3 C69.53 -3.46, 69.66 24.72, 59.71 29.52 C49.76 34.32, 9.86 21.84, 0 20.49 M-0.27 -0.38 C10.05 -2.28, 51.59 -14.92, 62 -9.8 C72.41 -4.68, 72.57 25.14, 62.19 30.33 C51.81 35.52, 9.66 22.71, -0.28 21.33" fill="none" stroke="#1e1e1e" stroke-width="2"></path></g><g transform="translate(542.5 770.5) rotate(0 30.25 10.5)"><path d="M29.46 17.42 C21.18 17.48, 13.41 18.67, -0.28 21.33 M29.46 17.42 C22.57 18.52, 16.35 18.79, -0.28 21.33" fill="none" stroke="#1e1e1e" stroke-width="2"></path></g><g transform="translate(542.5 770.5) rotate(0 30.25 10.5)"><path d="M25.02 37.45 C17.94 31.4, 11.52 26.5, -0.28 21.33 M25.02 37.45 C19.26 34.2, 14.02 30.08, -0.28 21.33" fill="none" stroke="#1e1e1e" stroke-width="2"></path></g></g><mask></mask><g stroke-linecap="round"><g transform="translate(540.5 853) rotate(0 -225.5 0)"><path d="M-0.79 1.2 C-76.22 0.96, -376.59 -0.69, -451.79 -0.98" fill="none" stroke="#1e1e1e" stroke-dasharray="1.5 8" stroke-width="2.5"></path></g><g transform="translate(540.5 853) rotate(0 -225.5 0)"><path d="M-423.55 -11.1 C-431.83 -8.91, -445.75 -5.57, -451.79 -0.98" fill="none" stroke="#1e1e1e" stroke-dasharray="1.5 6" stroke-width="2.5"></path></g><g transform="translate(540.5 853) rotate(0 -225.5 0)"><path d="M-423.65 9.42 C-431.96 4.12, -445.86 -0.02, -451.79 -0.98" fill="none" stroke="#1e1e1e" stroke-dasharray="1.5 6" stroke-width="2.5"></path></g></g><mask></mask><g transform="translate(65.4453125 32.5) rotate(0 19.5546875 10)"><text direction="ltr" dominant-baseline="text-before-edge" fill="#000" font-family="Virgil, Segoe UI Emoji" font-size="16px" style="white-space: pre;" text-anchor="middle" x="19.5546875" y="0">Client</text></g><g transform="translate(65.4453125 905.5) rotate(0 19.5546875 10)"><text direction="ltr" dominant-baseline="text-before-edge" fill="#000" font-family="Virgil, Segoe UI Emoji" font-size="16px" style="white-space: pre;" text-anchor="middle" x="19.5546875" y="0">Client</text></g><g transform="translate(303.12109375 32.5) rotate(0 38.87890625 10)"><text direction="ltr" dominant-baseline="text-before-edge" fill="#000" font-family="Virgil, Segoe UI Emoji" font-size="16px" style="white-space: pre;" text-anchor="middle" x="38.87890625" y="0">Ingest Node</text></g><g transform="translate(303.12109375 905.5) rotate(0 38.87890625 10)"><text direction="ltr" dominant-baseline="text-before-edge" fill="#000" font-family="Virgil, Segoe UI Emoji" font-size="16px" style="white-space: pre;" text-anchor="middle" x="38.87890625" y="0">Ingest Node</text></g><g transform="translate(480.453125 32.5) rotate(0 61.546875 10)"><text direction="ltr" dominant-baseline="text-before-edge" fill="#000" font-family="Virgil, Segoe UI Emoji" font-size="16px" style="white-space: pre;" text-anchor="middle" x="61.546875" y="0">Coordinating Node</text></g><g transform="translate(480.453125 905.5) rotate(0 61.546875 10)"><text direction="ltr" dominant-baseline="text-before-edge" fill="#000" font-family="Virgil, Segoe UI Emoji" font-size="16px" style="white-space: pre;" text-anchor="middle" x="61.546875" y="0">Coordinating Node</text></g><g transform="translate(716.5703125 32.5) rotate(0 40.4296875 10)"><text direction="ltr" dominant-baseline="text-before-edge" fill="#000" font-family="Virgil, Segoe UI Emoji" font-size="16px" style="white-space: pre;" text-anchor="middle" x="40.4296875" y="0">Data Node 1</text></g><g transform="translate(716.5703125 905.5) rotate(0 40.4296875 10)"><text direction="ltr" dominant-baseline="text-before-edge" fill="#000" font-family="Virgil, Segoe UI Emoji" font-size="16px" style="white-space: pre;" text-anchor="middle" x="40.4296875" y="0">Data Node 1</text></g><g transform="translate(916.5703125 32.5) rotate(0 40.4296875 10)"><text direction="ltr" dominant-baseline="text-before-edge" fill="#000" font-family="Virgil, Segoe UI Emoji" font-size="16px" style="white-space: pre;" text-anchor="middle" x="40.4296875" y="0">Data Node 2</text></g><g transform="translate(916.5703125 905.5) rotate(0 40.4296875 10)"><text direction="ltr" dominant-baseline="text-before-edge" fill="#000" font-family="Virgil, Segoe UI Emoji" font-size="16px" style="white-space: pre;" text-anchor="middle" x="40.4296875" y="0">Data Node 2</text></g><g transform="translate(104.88671875 133.734375) rotate(0 104.93594360351562 10)"><text direction="ltr" dominant-baseline="text-before-edge" fill="#1e1e1e" font-family="Virgil, Segoe UI Emoji" font-size="16px" style="white-space: pre;" text-anchor="start" x="0" y="0">Send document for indexing</text></g><g transform="translate(420.19921875 215.39453125) rotate(0 111.72792053222656 10)"><text direction="ltr" dominant-baseline="text-before-edge" fill="#1e1e1e" font-family="Virgil, Segoe UI Emoji" font-size="16px" style="white-space: pre;" text-anchor="start" x="0" y="0">Forward processed document</text></g><g transform="translate(505.9609375 276.74609375) rotate(0 146.7198944091797 10)"><text direction="ltr" dominant-baseline="text-before-edge" fill="#1e1e1e" font-family="Virgil, Segoe UI Emoji" font-size="16px" style="white-space: pre;" text-anchor="start" x="0" y="0">Forward processed document (replica)</text></g><g transform="translate(487.8828125 332.8125) rotate(0 78.0239486694336 10)"><text direction="ltr" dominant-baseline="text-before-edge" fill="#1e1e1e" font-family="Virgil, Segoe UI Emoji" font-size="16px" style="white-space: pre;" text-anchor="start" x="0" y="0">Acknowledge indexing</text></g><g transform="translate(635.6640625 380.734375) rotate(0 78.0239486694336 10)"><text direction="ltr" dominant-baseline="text-before-edge" fill="#1e1e1e" font-family="Virgil, Segoe UI Emoji" font-size="16px" style="white-space: pre;" text-anchor="start" x="0" y="0">Acknowledge indexing</text></g><g transform="translate(133.51953125 427.9609375) rotate(0 98.54393768310547 10)"><text direction="ltr" dominant-baseline="text-before-edge" fill="#1e1e1e" font-family="Virgil, Segoe UI Emoji" font-size="16px" style="white-space: pre;" text-anchor="start" x="0" y="0">Confirm document indexed</text></g><g transform="translate(207.77734375 528.56640625) rotate(0 80.95995330810547 10)"><text direction="ltr" dominant-baseline="text-before-edge" fill="#1e1e1e" font-family="Virgil, Segoe UI Emoji" font-size="16px" style="white-space: pre;" text-anchor="start" x="0" y="0">Send search request</text></g><g transform="translate(557.875 531.203125) rotate(0 87.79194641113281 10)"><text direction="ltr" dominant-baseline="text-before-edge" fill="#1e1e1e" font-family="Virgil, Segoe UI Emoji" font-size="16px" style="white-space: pre;" text-anchor="start" x="0" y="0">Query relevant shards</text></g><g transform="translate(659.2109375 587.02734375) rotate(0 87.79194641113281 10)"><text direction="ltr" dominant-baseline="text-before-edge" fill="#1e1e1e" font-family="Virgil, Segoe UI Emoji" font-size="16px" style="white-space: pre;" text-anchor="start" x="0" y="0">Query relevant shards</text></g><g transform="translate(575.01953125 641.47265625) rotate(0 88.14393615722656 10)"><text direction="ltr" dominant-baseline="text-before-edge" fill="#1e1e1e" font-family="Virgil, Segoe UI Emoji" font-size="16px" style="white-space: pre;" text-anchor="start" x="0" y="0">Return partial results</text></g><g transform="translate(662.2578125 695.06640625) rotate(0 88.14393615722656 10)"><text direction="ltr" dominant-baseline="text-before-edge" fill="#1e1e1e" font-family="Virgil, Segoe UI Emoji" font-size="16px" style="white-space: pre;" text-anchor="start" x="0" y="0">Return partial results</text></g><g transform="translate(620.328125 773.515625) rotate(0 53.999961853027344 10)"><text direction="ltr" dominant-baseline="text-before-edge" fill="#1e1e1e" font-family="Virgil, Segoe UI Emoji" font-size="16px" style="white-space: pre;" text-anchor="start" x="0" y="0">Merge results</text></g><g transform="translate(229.60546875 822.0859375) rotate(0 78.52794647216797 10)"><text direction="ltr" dominant-baseline="text-before-edge" fill="#1e1e1e" font-family="Virgil, Segoe UI Emoji" font-size="16px" style="white-space: pre;" text-anchor="start" x="0" y="0">Return final results</text></g><g transform="translate(429.15625 169.578125) rotate(0 132.22390747070312 10)"><text direction="ltr" dominant-baseline="text-before-edge" fill="#1e1e1e" font-family="Virgil, Segoe UI Emoji" font-size="16px" style="white-space: pre;" text-anchor="start" x="0" y="0">Process document (ingest pipeline)</text></g></svg>