<svg height="483.6671251290845" version="1.1" viewbox="0 0 1429.2979326632521 483.6671251290845" width="1429.2979326632521" xmlns="http://www.w3.org/2000/svg">
<!-- svg-source:excalidraw -->
<!-- payload-type:application/vnd.excalidraw+json --><!-- payload-version:2 -->
<defs>
<style class="style-fonts">
</style>
</defs>
<rect fill="#ffffff" height="483.6671251290845" width="1429.2979326632521" x="0" y="0"></rect><g stroke-linecap="round" transform="translate(10 59.445063892188045) rotate(0 61.80078125 35.58203125)"><path d="M4.74 4.12 C4.74 4.12, 4.74 4.12, 4.74 4.12 M4.74 4.12 C4.74 4.12, 4.74 4.12, 4.74 4.12 M0.28 21.44 C8.71 11.07, 13.25 6.27, 18.65 0.31 M0.28 21.44 C4.59 16.03, 8.62 11.37, 18.65 0.31 M0.41 33.48 C6.32 25.21, 16.43 15.86, 29.28 0.27 M0.41 33.48 C10.84 22.99, 19.65 10.98, 29.28 0.27 M0.54 45.52 C12.39 31.9, 22.94 21.17, 39.91 0.24 M0.54 45.52 C9.77 34.82, 18.96 24.03, 39.91 0.24 M0.68 57.56 C16.42 39.66, 35.45 18.48, 50.54 0.21 M0.68 57.56 C19.09 36.73, 37.87 14.77, 50.54 0.21 M4.09 65.83 C22.97 44.29, 43.85 21.61, 60.51 0.93 M4.09 65.83 C21.34 45.75, 38.69 27.76, 60.51 0.93 M10.78 70.32 C32.71 44.3, 53.37 21.39, 71.14 0.89 M10.78 70.32 C29.36 49.96, 48.86 29.32, 71.14 0.89 M20.76 71.04 C42.81 43.15, 66.68 13.87, 81.77 0.86 M20.76 71.04 C38.81 48.8, 58.75 26.94, 81.77 0.86 M31.39 71.01 C51.36 47.52, 71.33 26.65, 92.4 0.82 M31.39 71.01 C52.18 48.18, 72.23 26.08, 92.4 0.82 M42.02 70.98 C57.37 52.86, 76.25 30.57, 103.03 0.79 M42.02 70.98 C61.77 48.57, 80.94 28.29, 103.03 0.79 M52.65 70.94 C65.28 57.25, 77.83 41.09, 113 1.51 M52.65 70.94 C67.91 53.39, 82.94 36.47, 113 1.51 M63.28 70.91 C78.63 52.86, 95.52 31.93, 119.7 6 M63.28 70.91 C77.11 56.76, 89.02 41.89, 119.7 6 M73.25 71.63 C90.52 54.03, 105.55 32.86, 123.77 13.51 M73.25 71.63 C87.39 54.79, 102.58 38.04, 123.77 13.51 M83.88 71.59 C99.35 55.2, 115.89 35.05, 123.9 25.55 M83.88 71.59 C96.93 56.88, 108.08 43.31, 123.9 25.55 M94.51 71.56 C101.37 61.4, 110.69 53.37, 123.38 38.35 M94.51 71.56 C102.19 61.38, 110.82 54.09, 123.38 38.35 M105.14 71.52 C110.43 63.9, 117.43 58.41, 123.51 50.39 M105.14 71.52 C110.72 64.76, 116.01 58.53, 123.51 50.39" fill="none" stroke="#ffffff" stroke-width="1"></path><path d="M17.79 0 C42.93 -1.18, 72.75 -0.54, 105.81 0 M17.79 0 C44.47 -0.04, 72.08 1.26, 105.81 0 M105.81 0 C118.25 -1.27, 124.82 4.78, 123.6 17.79 M105.81 0 C118.77 1.73, 125.36 3.78, 123.6 17.79 M123.6 17.79 C125.87 29.32, 125.82 41.17, 123.6 53.37 M123.6 17.79 C123.06 24.92, 123.52 31.93, 123.6 53.37 M123.6 53.37 C123.46 64.77, 118.19 72.94, 105.81 71.16 M123.6 53.37 C121.54 65.92, 115.56 71.75, 105.81 71.16 M105.81 71.16 C71.76 71.73, 38.82 73.34, 17.79 71.16 M105.81 71.16 C78.96 72.82, 50.19 71.06, 17.79 71.16 M17.79 71.16 C4.31 71.62, 0.38 65.47, 0 53.37 M17.79 71.16 C7.08 70.22, -0.44 63.18, 0 53.37 M0 53.37 C0.35 43.19, 0.51 35.6, 0 17.79 M0 53.37 C0.63 44.16, 0.54 33.82, 0 17.79 M0 17.79 C1.48 6.58, 4.78 0.75, 17.79 0 M0 17.79 C1.13 6.18, 5.94 -0.21, 17.79 0" fill="none" stroke="#1e1e1e" stroke-width="2"></path></g><g transform="translate(49.5888671875 82.52709514218805) rotate(0 22.2119140625 12.5)"><text direction="ltr" dominant-baseline="text-before-edge" fill="#1e1e1e" font-family="Virgil, Segoe UI Emoji" font-size="20px" style="white-space: pre;" text-anchor="middle" x="22.2119140625" y="0">client</text></g><g stroke-linecap="round"><g transform="translate(145.46618824101324 98.02840299157833) rotate(0 43.8671875 0)"><path d="M-0.29 0.04 C14.43 -0.25, 72.98 -0.88, 87.64 -1.05 M1.76 -0.98 C16.37 -1.22, 72.46 -0.21, 86.65 -0.07" fill="none" stroke="#1e1e1e" stroke-width="2"></path></g><g transform="translate(145.46618824101324 98.02840299157833) rotate(0 43.8671875 0)"><path d="M27.77 -10.58 C21.06 -8.21, 12.38 -5.55, -0.29 0.04 M27.77 -10.58 C22 -8.75, 16.18 -6.36, -0.29 0.04" fill="none" stroke="#1e1e1e" stroke-width="2"></path></g><g transform="translate(145.46618824101324 98.02840299157833) rotate(0 43.8671875 0)"><path d="M28.03 9.94 C21.14 7.3, 12.39 4.96, -0.29 0.04 M28.03 9.94 C22.04 7.28, 16.16 5.17, -0.29 0.04" fill="none" stroke="#1e1e1e" stroke-width="2"></path></g><g transform="translate(145.46618824101324 98.02840299157833) rotate(0 43.8671875 0)"><path d="M58.32 9.8 C65.24 7.3, 70.33 4.97, 86.65 -0.07 M58.32 9.8 C64.72 6.86, 71.25 4.76, 86.65 -0.07" fill="none" stroke="#1e1e1e" stroke-width="2"></path></g><g transform="translate(145.46618824101324 98.02840299157833) rotate(0 43.8671875 0)"><path d="M58.6 -10.72 C65.58 -8.21, 70.6 -5.54, 86.65 -0.07 M58.6 -10.72 C65.12 -9.16, 71.58 -6.77, 86.65 -0.07" fill="none" stroke="#1e1e1e" stroke-width="2"></path></g></g><mask></mask><g stroke-linecap="round" transform="translate(242.12109375 44.413813892188045) rotate(0 98.697265625 53.470703125)"><path d="M4.03 10.13 C4.03 10.13, 4.03 10.13, 4.03 10.13 M4.03 10.13 C4.03 10.13, 4.03 10.13, 4.03 10.13 M0.88 25.94 C8.98 16.91, 16.26 7.15, 22.53 1.04 M0.88 25.94 C6.85 18.59, 12.34 13.37, 22.53 1.04 M1.02 37.99 C10.76 25.41, 25.89 9.44, 33.82 0.25 M1.02 37.99 C11.88 25.51, 22.82 12.41, 33.82 0.25 M1.15 50.03 C18.48 30.37, 35.41 10.52, 44.45 0.22 M1.15 50.03 C16.96 31.6, 32.99 14.81, 44.45 0.22 M1.28 62.07 C14.5 45.13, 29.67 29.42, 55.08 0.18 M1.28 62.07 C19.77 39.6, 39.88 18.07, 55.08 0.18 M1.42 74.11 C23.6 49.03, 44.16 24.69, 65.71 0.15 M1.42 74.11 C26.41 47.07, 48.91 19.12, 65.71 0.15 M0.89 86.9 C17.55 65.57, 38.33 46.5, 76.34 0.11 M0.89 86.9 C28.34 53.06, 56.75 20.29, 76.34 0.11 M3.65 95.93 C20.04 75.02, 36.09 57.64, 86.97 0.08 M3.65 95.93 C25.62 70.92, 47.14 45.75, 86.97 0.08 M9.03 101.93 C37.45 70.43, 66.21 37.75, 97.6 0.04 M9.03 101.93 C43.89 60.98, 79.09 22.17, 97.6 0.04 M16.38 105.67 C38.94 81.67, 59.41 56.86, 108.23 0.01 M16.38 105.67 C53.27 63.17, 90.85 20.84, 108.23 0.01 M25.7 107.14 C55.05 73.62, 84.21 39.75, 118.86 -0.03 M25.7 107.14 C53.13 73.28, 82.63 40.78, 118.86 -0.03 M36.33 107.11 C63.43 78.37, 91.22 46.04, 128.84 0.69 M36.33 107.11 C69.02 68.43, 103.39 29.24, 128.84 0.69 M46.96 107.07 C74.24 75.1, 101 45.26, 139.47 0.66 M46.96 107.07 C75.94 72, 107.76 37.22, 139.47 0.66 M57.59 107.04 C84.61 75.99, 112.34 41.14, 150.1 0.63 M57.59 107.04 C89.23 69.22, 121.65 32.67, 150.1 0.63 M68.22 107 C102.49 68.27, 132.71 31.68, 160.73 0.59 M68.22 107 C104.89 65.03, 140.57 23.37, 160.73 0.59 M78.85 106.97 C115.41 64.75, 151.21 21.86, 171.36 0.56 M78.85 106.97 C112.48 67.81, 146.75 29.58, 171.36 0.56 M89.48 106.94 C116.1 79.35, 138.67 52.28, 180.67 2.03 M89.48 106.94 C118.75 70.72, 149.18 37.35, 180.67 2.03 M100.11 106.9 C119.49 88.21, 137.57 65.24, 188.68 5.02 M100.11 106.9 C119.02 83.51, 137.68 62, 188.68 5.02 M110.74 106.87 C129.88 88.22, 147.1 65.5, 194.06 11.02 M110.74 106.87 C133.43 79.94, 157.88 52.66, 194.06 11.02 M121.37 106.83 C146.37 78.52, 169.75 53.43, 196.82 20.04 M121.37 106.83 C148.19 76.38, 173.56 47.57, 196.82 20.04 M132 106.8 C145.93 90.47, 160.57 72.7, 197.61 31.33 M132 106.8 C151.07 84.6, 171.48 62.74, 197.61 31.33 M141.98 107.52 C157.13 90.36, 172.76 73.67, 197.74 43.37 M141.98 107.52 C161.66 84.21, 180.63 61.13, 197.74 43.37 M152.61 107.48 C169.48 89.93, 186.63 69.63, 197.87 55.41 M152.61 107.48 C167.76 88.8, 183.5 71.52, 197.87 55.41 M163.24 107.45 C176.32 93.19, 185.17 80.81, 198.01 67.45 M163.24 107.45 C174.51 95.41, 184.56 81.93, 198.01 67.45 M174.52 106.66 C183.31 96.14, 191.03 87.72, 197.48 80.24 M174.52 106.66 C180.8 99.15, 187.92 92.35, 197.48 80.24" fill="none" stroke="#ffffff" stroke-width="1"></path><path d="M26.74 0 C64.71 0.03, 104.57 1.78, 170.66 0 M26.74 0 C77.59 0.34, 127.7 1.66, 170.66 0 M170.66 0 C190.01 -1.87, 198.09 10.79, 197.39 26.74 M170.66 0 C188.3 2.22, 196.95 11.07, 197.39 26.74 M197.39 26.74 C195.21 39.9, 196.4 55.69, 197.39 80.21 M197.39 26.74 C197.62 40.43, 196.46 52.66, 197.39 80.21 M197.39 80.21 C195.56 98.54, 190.01 108.78, 170.66 106.94 M197.39 80.21 C198.46 96.95, 188.67 106.05, 170.66 106.94 M170.66 106.94 C116.36 107.78, 60.87 105.74, 26.74 106.94 M170.66 106.94 C138.99 107.39, 107.45 106.86, 26.74 106.94 M26.74 106.94 C8.53 105.16, -0.64 98.26, 0 80.21 M26.74 106.94 C7.5 107.39, -0.73 98.67, 0 80.21 M0 80.21 C0 61.57, 1.65 41.81, 0 26.74 M0 80.21 C-0.97 62.29, 0.1 43.74, 0 26.74 M0 26.74 C0.01 8.73, 8.6 0.34, 26.74 0 M0 26.74 C-1.09 10.11, 8.93 2.23, 26.74 0" fill="none" stroke="#1e1e1e" stroke-width="2"></path></g><g transform="translate(271.677734375 85.38451701718805) rotate(0 69.140625 12.5)"><text direction="ltr" dominant-baseline="text-before-edge" fill="#1e1e1e" font-family="Virgil, Segoe UI Emoji" font-size="20px" style="white-space: pre;" text-anchor="middle" x="69.140625" y="0">Schedule Service</text></g><g stroke-linecap="round"><g transform="translate(446.89454957081125 97.17293424157833) rotate(0 37.94921875 -0.435546875)"><path d="M1 0.59 C13.72 0.48, 63.64 -1.28, 76.24 -1.63 M0.07 -0.15 C12.66 -0.03, 62.78 -0.42, 75.48 -0.5" fill="none" stroke="#1e1e1e" stroke-width="2"></path></g><g transform="translate(446.89454957081125 97.17293424157833) rotate(0 37.94921875 -0.435546875)"><path d="M28.89 -10.48 C21.53 -6.39, 11.03 -2.48, 1 0.59 M28.89 -10.48 C22.94 -8.52, 15.76 -3.96, 1 0.59" fill="none" stroke="#1e1e1e" stroke-width="2"></path></g><g transform="translate(446.89454957081125 97.17293424157833) rotate(0 37.94921875 -0.435546875)"><path d="M29.48 10.04 C22.12 8.06, 11.44 5.91, 1 0.59 M29.48 10.04 C23.29 7.02, 15.97 6.61, 1 0.59" fill="none" stroke="#1e1e1e" stroke-width="2"></path></g><g transform="translate(446.89454957081125 97.17293424157833) rotate(0 37.94921875 -0.435546875)"><path d="M47.36 9.95 C56.74 7.2, 62.81 4.76, 75.48 -0.5 M47.36 9.95 C54.89 6.27, 61.3 5.61, 75.48 -0.5" fill="none" stroke="#1e1e1e" stroke-width="2"></path></g><g transform="translate(446.89454957081125 97.17293424157833) rotate(0 37.94921875 -0.435546875)"><path d="M47.22 -10.57 C56.48 -7.25, 62.58 -3.63, 75.48 -0.5 M47.22 -10.57 C54.89 -9.27, 61.32 -4.95, 75.48 -0.5" fill="none" stroke="#1e1e1e" stroke-width="2"></path></g></g><mask></mask><g stroke-linecap="round" transform="translate(537.2170317057262 10) rotate(0 89.47739173275392 87.55859375)"><path d="M21.6 32.03 C21.6 32.03, 21.6 32.03, 21.6 32.03 M21.6 32.03 C21.6 32.03, 21.6 32.03, 21.6 32.03 M4.68 63.69 C19.64 45.25, 38.08 28.69, 51.91 9.35 M4.68 63.69 C14.66 52.94, 24.2 40.37, 51.91 9.35 M2.84 78 C24.85 53.08, 46.38 27.72, 65.17 6.3 M2.84 78 C24.46 53.85, 44.42 31.01, 65.17 6.3 M1.01 92.3 C23.48 68.58, 43.7 43.67, 79.08 2.49 M1.01 92.3 C20.28 69.06, 40.27 44.99, 79.08 2.49 M3.76 101.32 C22.33 82.08, 38.78 59.2, 89.71 2.46 M3.76 101.32 C25.12 76.67, 45.23 52.2, 89.71 2.46 M6.52 110.35 C35.26 80.38, 58.22 50.98, 99.68 3.18 M6.52 110.35 C38.15 74.12, 69.19 37.28, 99.68 3.18 M9.28 119.37 C37.62 89.27, 63.99 55.9, 109.66 3.9 M9.28 119.37 C30.12 95.52, 53.19 70.42, 109.66 3.9 M12.04 128.39 C36.38 100.3, 60.93 71.76, 118.32 6.13 M12.04 128.39 C46.14 90.03, 78.51 51.58, 118.32 6.13 M16.76 135.15 C56 90.9, 93.18 48.33, 125.67 9.87 M16.76 135.15 C41.6 104.51, 67.85 74.36, 125.67 9.87 M22.14 141.15 C61.75 96.24, 97.64 54.3, 133.02 13.6 M22.14 141.15 C53.01 104.96, 84.07 68.94, 133.02 13.6 M26.87 147.91 C61.46 108.83, 97.4 68.12, 140.37 17.34 M26.87 147.91 C54.33 115.26, 82.13 83.36, 140.37 17.34 M31.59 154.67 C72.53 109.15, 113.81 61.28, 147.06 21.84 M31.59 154.67 C70.85 108.52, 111.27 62.28, 147.06 21.84 M38.94 158.41 C66.43 129.35, 92.25 95.3, 152.44 27.84 M38.94 158.41 C68.13 123.68, 99.18 88.28, 152.44 27.84 M45.64 162.9 C89.97 114.12, 132.01 63.8, 157.82 33.84 M45.64 162.9 C71.32 134.6, 96.41 106.89, 157.82 33.84 M52.99 166.64 C89.64 128.14, 120.06 89.94, 163.21 39.85 M52.99 166.64 C79.93 137.36, 104.85 107.56, 163.21 39.85 M60.34 170.38 C90.19 137.92, 116.83 104.94, 168.59 45.85 M60.34 170.38 C82.72 143.48, 105.53 118.22, 168.59 45.85 M69.66 171.85 C99.34 139.64, 129.11 104.6, 172 54.12 M69.66 171.85 C89.19 147.76, 110.61 124.49, 172 54.12 M79.63 172.57 C113.23 133.14, 152.11 90.28, 174.76 63.14 M79.63 172.57 C104.22 142.68, 130.63 115.38, 174.76 63.14 M88.95 174.05 C123.61 134.19, 160.24 92.08, 177.52 72.16 M88.95 174.05 C117.51 140.4, 145.78 107.54, 177.52 72.16 M99.58 174.01 C120.34 150.44, 141.29 129.6, 179.62 81.94 M99.58 174.01 C122.09 145.76, 147.2 118.3, 179.62 81.94 M113.49 170.2 C134.2 147.02, 153.83 122.28, 178.44 95.49 M113.49 170.2 C130.79 148.84, 149.95 128.23, 178.44 95.49 M128.05 165.64 C145.16 148.63, 159.92 128.86, 176.6 109.79 M128.05 165.64 C142.36 150.44, 154.21 135.61, 176.6 109.79 M155.09 146.74 C156.15 145.61, 157.14 144.5, 157.71 143.72 M155.09 146.74 C155.74 146.05, 156.27 145.53, 157.71 143.72" fill="none" stroke="#ffffff" stroke-width="1"></path><path d="M117.11 4.81 C127.81 6.69, 137.27 13.78, 146.04 20.82 C154.82 27.86, 164.19 37.21, 169.78 47.03 C175.37 56.85, 178.58 68.61, 179.58 79.71 C180.57 90.82, 179.5 102.82, 175.76 113.65 C172.01 124.48, 164.74 136.24, 157.11 144.69 C149.47 153.14, 139.97 159.41, 129.96 164.36 C119.95 169.32, 108.38 173.29, 97.05 174.4 C85.72 175.5, 72.87 174.25, 61.99 171 C51.1 167.75, 40.24 162.22, 31.75 154.9 C23.25 147.59, 16.19 137.21, 11.01 127.11 C5.82 117.01, 1.74 105.14, 0.64 94.29 C-0.46 83.44, 0.86 72.43, 4.39 62.01 C7.92 51.59, 14.62 40.43, 21.84 31.76 C29.05 23.08, 37.77 15.07, 47.67 9.98 C57.58 4.89, 69.17 2.11, 81.27 1.22 C93.37 0.32, 113.16 3.29, 120.26 4.62 C127.37 5.96, 124.26 7.75, 123.89 9.22 M55.47 6.86 C65.29 1.39, 78.86 -0.36, 90.17 -0.62 C101.49 -0.88, 113.04 0.91, 123.38 5.31 C133.73 9.71, 144.26 17.61, 152.23 25.78 C160.2 33.95, 166.83 43.94, 171.2 54.3 C175.57 64.65, 178.15 76.85, 178.48 87.92 C178.8 98.99, 177.55 110.49, 173.15 120.73 C168.76 130.97, 160.2 141.22, 152.09 149.36 C143.97 157.51, 134.8 165.19, 124.47 169.59 C114.14 173.99, 101.44 175.85, 90.09 175.75 C78.75 175.64, 67.18 173.24, 56.39 168.96 C45.61 164.68, 33.52 158.02, 25.38 150.07 C17.25 142.12, 11.8 131.71, 7.57 121.28 C3.34 110.84, 0.18 98.62, 0.01 87.47 C-0.16 76.32, 2.32 64.52, 6.56 54.36 C10.8 44.19, 17.35 34.17, 25.46 26.46 C33.57 18.76, 50.25 11.38, 55.2 8.14 C60.14 4.89, 54.73 6.04, 55.12 6.99" fill="none" stroke="#1e1e1e" stroke-width="2"></path></g><g transform="translate(571.9341186063647 72.64531835821694) rotate(0 54.990234375 25.000000000000014)"><text direction="ltr" dominant-baseline="text-before-edge" fill="#1e1e1e" font-family="Virgil, Segoe UI Emoji" font-size="20px" style="white-space: pre;" text-anchor="middle" x="54.990234375" y="0">Job Store</text><text direction="ltr" dominant-baseline="text-before-edge" fill="#1e1e1e" font-family="Virgil, Segoe UI Emoji" font-size="20px" style="white-space: pre;" text-anchor="middle" x="54.990234375" y="25">(DynamoDB)</text></g><g transform="translate(747.7819646675653 14.64722889506811) rotate(0 49.43994903564453 75)"><text direction="ltr" dominant-baseline="text-before-edge" fill="#1e1e1e" font-family="Virgil, Segoe UI Emoji" font-size="20px" style="white-space: pre;" text-anchor="start" x="0" y="0">Jobs</text><text direction="ltr" dominant-baseline="text-before-edge" fill="#1e1e1e" font-family="Virgil, Segoe UI Emoji" font-size="20px" style="white-space: pre;" text-anchor="start" x="0" y="25">- id</text><text direction="ltr" dominant-baseline="text-before-edge" fill="#1e1e1e" font-family="Virgil, Segoe UI Emoji" font-size="20px" style="white-space: pre;" text-anchor="start" x="0" y="50">- userId</text><text direction="ltr" dominant-baseline="text-before-edge" fill="#1e1e1e" font-family="Virgil, Segoe UI Emoji" font-size="20px" style="white-space: pre;" text-anchor="start" x="0" y="75">- taskId</text><text direction="ltr" dominant-baseline="text-before-edge" fill="#1e1e1e" font-family="Virgil, Segoe UI Emoji" font-size="20px" style="white-space: pre;" text-anchor="start" x="0" y="100">- params</text><text direction="ltr" dominant-baseline="text-before-edge" fill="#1e1e1e" font-family="Virgil, Segoe UI Emoji" font-size="20px" style="white-space: pre;" text-anchor="start" x="0" y="125">- schedule</text></g><g transform="translate(882.2279653071218 14.885596198811982) rotate(0 52.00994873046875 75)"><text direction="ltr" dominant-baseline="text-before-edge" fill="#1e1e1e" font-family="Virgil, Segoe UI Emoji" font-size="20px" style="white-space: pre;" text-anchor="start" x="0" y="0">Executions</text><text direction="ltr" dominant-baseline="text-before-edge" fill="#1e1e1e" font-family="Virgil, Segoe UI Emoji" font-size="20px" style="white-space: pre;" text-anchor="start" x="0" y="25">- time</text><text direction="ltr" dominant-baseline="text-before-edge" fill="#1e1e1e" font-family="Virgil, Segoe UI Emoji" font-size="20px" style="white-space: pre;" text-anchor="start" x="0" y="50">- jobId</text><text direction="ltr" dominant-baseline="text-before-edge" fill="#1e1e1e" font-family="Virgil, Segoe UI Emoji" font-size="20px" style="white-space: pre;" text-anchor="start" x="0" y="75">- userId</text><text direction="ltr" dominant-baseline="text-before-edge" fill="#1e1e1e" font-family="Virgil, Segoe UI Emoji" font-size="20px" style="white-space: pre;" text-anchor="start" x="0" y="100">- status</text><text direction="ltr" dominant-baseline="text-before-edge" fill="#1e1e1e" font-family="Virgil, Segoe UI Emoji" font-size="20px" style="white-space: pre;" text-anchor="start" x="0" y="125">- attempt</text></g><g stroke-linecap="round"><g transform="translate(628.8957415234636 196.62938991246665) rotate(0 0.9476839926498997 58.65029357750063)"><path d="M0.42 1.13 C0.56 21.06, 1.59 98.91, 1.8 118.46 M-0.82 0.68 C-0.92 20.4, 0.53 97.61, 0.8 116.94" fill="none" stroke="#1e1e1e" stroke-width="2"></path></g><g transform="translate(628.8957415234636 196.62938991246665) rotate(0 0.9476839926498997 58.65029357750063)"><path d="M11.01 29.2 C9.16 18.5, 5.22 7.71, 0.42 1.13 M11.01 29.2 C7.76 17.19, 1.87 6.73, 0.42 1.13" fill="none" stroke="#1e1e1e" stroke-width="2"></path></g><g transform="translate(628.8957415234636 196.62938991246665) rotate(0 0.9476839926498997 58.65029357750063)"><path d="M-9.51 29.44 C-3.63 18.58, 0.16 7.7, 0.42 1.13 M-9.51 29.44 C-4.68 17.53, -2.48 6.97, 0.42 1.13" fill="none" stroke="#1e1e1e" stroke-width="2"></path></g><g transform="translate(628.8957415234636 196.62938991246665) rotate(0 0.9476839926498997 58.65029357750063)"><path d="M-9.92 88.92 C-4.26 99.28, -0.18 109.6, 0.8 116.94 M-9.92 88.92 C-4.89 99.22, -2.38 110.85, 0.8 116.94" fill="none" stroke="#1e1e1e" stroke-width="2"></path></g><g transform="translate(628.8957415234636 196.62938991246665) rotate(0 0.9476839926498997 58.65029357750063)"><path d="M10.6 88.59 C8.53 99.14, 4.88 109.59, 0.8 116.94 M10.6 88.59 C7.54 98.82, 1.96 110.59, 0.8 116.94" fill="none" stroke="#1e1e1e" stroke-width="2"></path></g></g><mask></mask><g stroke-linecap="round" transform="translate(504.77407089811095 324.5931155123908) rotate(0 125.576171875 63.78515625)"><path d="M4.79 12.11 C4.79 12.11, 4.79 12.11, 4.79 12.11 M4.79 12.11 C4.79 12.11, 4.79 12.11, 4.79 12.11 M0.33 29.43 C10.62 18.16, 18.13 9.73, 25.26 0.76 M0.33 29.43 C8.06 20.06, 17.23 10.38, 25.26 0.76 M0.46 41.48 C12.86 26.88, 24.98 15.31, 36.54 -0.03 M0.46 41.48 C11.57 30.27, 21.09 17.99, 36.54 -0.03 M0.59 53.52 C12.47 40.36, 22.07 31.48, 46.52 0.69 M0.59 53.52 C13.5 39.75, 25.73 25.57, 46.52 0.69 M0.73 65.56 C11.65 52.23, 26.71 38.3, 57.15 0.65 M0.73 65.56 C10.62 52.64, 22.4 39.14, 57.15 0.65 M0.86 77.6 C17.36 61.79, 33.72 44.44, 67.78 0.62 M0.86 77.6 C23.6 51.03, 45.57 25.85, 67.78 0.62 M0.34 90.39 C26.36 60.59, 53.2 29.79, 78.41 0.58 M0.34 90.39 C20.43 66.9, 41.86 43.01, 78.41 0.58 M0.47 102.43 C21.77 78.88, 44.53 52.97, 89.04 0.55 M0.47 102.43 C34.03 65.45, 65.58 27.33, 89.04 0.55 M3.23 111.46 C23.73 87.28, 48.42 59.37, 99.67 0.51 M3.23 111.46 C37.1 73.45, 69.37 35.79, 99.67 0.51 M7.95 118.21 C35.33 86.14, 63.95 54.27, 110.3 0.48 M7.95 118.21 C50.08 71.36, 90.08 24.4, 110.3 0.48 M13.99 123.46 C40.27 93.32, 65.1 66.21, 120.93 0.45 M13.99 123.46 C57.28 74.04, 98.52 25.84, 120.93 0.45 M22 126.45 C53.73 90.47, 85.69 56.25, 131.56 0.41 M22 126.45 C52.61 93.24, 80.86 59.89, 131.56 0.41 M31.31 127.92 C72.02 78.59, 114.85 32.38, 142.19 0.38 M31.31 127.92 C65.7 89.38, 100.51 50.45, 142.19 0.38 M41.94 127.89 C83.03 79.25, 130.23 28.71, 152.82 0.34 M41.94 127.89 C66.86 98.44, 93.73 69.2, 152.82 0.34 M52.57 127.85 C83.98 89.94, 116.7 55.01, 163.45 0.31 M52.57 127.85 C82.33 95, 110.61 61.4, 163.45 0.31 M63.2 127.82 C86.98 99.91, 112.54 72.2, 174.08 0.27 M63.2 127.82 C104.21 82.42, 143.65 35.48, 174.08 0.27 M73.83 127.78 C103.94 92.37, 129.92 61.17, 184.71 0.24 M73.83 127.78 C112.44 83.29, 151.72 36.41, 184.71 0.24 M84.47 127.75 C125.42 79.02, 165.14 33.3, 195.34 0.2 M84.47 127.75 C123.45 83.83, 160.72 40.2, 195.34 0.2 M95.1 127.72 C120.95 99.59, 148.28 67.55, 205.97 0.17 M95.1 127.72 C138.37 78.01, 181 26.39, 205.97 0.17 M105.07 128.44 C144.02 82.68, 182.77 39.47, 216.6 0.13 M105.07 128.44 C132.94 98.11, 158.78 66.61, 216.6 0.13 M115.7 128.4 C157.57 81.73, 199.74 34.58, 226.57 0.86 M115.7 128.4 C147.37 90.67, 181.65 53.1, 226.57 0.86 M126.33 128.37 C151.83 99.08, 176.12 70.81, 235.24 3.08 M126.33 128.37 C166.02 83.69, 205.55 38.78, 235.24 3.08 M136.96 128.33 C164.83 94.25, 195.02 63.26, 241.93 7.58 M136.96 128.33 C165.15 93.77, 194.99 60.67, 241.93 7.58 M147.59 128.3 C168.22 104.67, 188.64 82.87, 247.31 13.58 M147.59 128.3 C168.6 105.51, 188.15 81.44, 247.31 13.58 M158.22 128.26 C176.46 106.87, 195.25 82.12, 250.07 22.6 M158.22 128.26 C182.83 98.93, 209.83 68.96, 250.07 22.6 M168.85 128.23 C189.79 105.93, 208.99 81.72, 250.86 33.89 M168.85 128.23 C192.45 102.67, 216.48 74.29, 250.86 33.89 M179.48 128.19 C198.32 107.45, 214.08 84.64, 250.99 45.93 M179.48 128.19 C204.13 101.98, 228.74 73.33, 250.99 45.93 M190.11 128.16 C202.92 113.03, 216.45 96.4, 251.12 57.97 M190.11 128.16 C208.73 105.74, 229.2 83.43, 251.12 57.97 M200.74 128.13 C216.87 106.41, 236 87, 251.26 70.01 M200.74 128.13 C210.4 117.48, 222.03 104.28, 251.26 70.01 M211.37 128.09 C224.89 112.27, 237.73 96.24, 251.39 82.05 M211.37 128.09 C220.31 117.36, 230.61 104.74, 251.39 82.05 M222.66 127.3 C228.03 120.81, 236.05 111.08, 251.52 94.09 M222.66 127.3 C232.82 116.3, 242.78 103.73, 251.52 94.09 M235.25 125 C237.47 120.5, 240.79 117.31, 249.69 108.4 M235.25 125 C237.47 121.39, 241.45 117.09, 249.69 108.4" fill="none" stroke="#ffffff" stroke-width="1"></path><path d="M31.89 0 C96.54 -0.24, 159.22 -0.29, 219.26 0 M31.89 0 C69.87 1.34, 109.17 0.98, 219.26 0 M219.26 0 C240.38 -0.46, 251.67 12.41, 251.15 31.89 M219.26 0 C238.46 0.68, 249.04 11.22, 251.15 31.89 M251.15 31.89 C250.8 56.05, 250.97 81.64, 251.15 95.68 M251.15 31.89 C251.63 52.97, 250.61 71.32, 251.15 95.68 M251.15 95.68 C249.53 117.39, 240.9 127.81, 219.26 127.57 M251.15 95.68 C252.3 115.99, 240.08 125.52, 219.26 127.57 M219.26 127.57 C169.39 125.78, 119.29 127.74, 31.89 127.57 M219.26 127.57 C167.13 128.25, 114.45 127.9, 31.89 127.57 M31.89 127.57 C12.11 128.22, -1.15 117.69, 0 95.68 M31.89 127.57 C11.76 127.82, 0.01 116.72, 0 95.68 M0 95.68 C0.93 77.54, 1.83 58.37, 0 31.89 M0 95.68 C-0.02 82.17, -0.48 69.22, 0 31.89 M0 31.89 C-1.44 12.54, 10.32 0.8, 31.89 0 M0 31.89 C1.31 8.4, 8.81 1.85, 31.89 0" fill="none" stroke="#1e1e1e" stroke-width="2"></path></g><g transform="translate(512.025047460611 350.8782717623908) rotate(0 118.3251953125 37.5)"><text direction="ltr" dominant-baseline="text-before-edge" fill="#1e1e1e" font-family="Virgil, Segoe UI Emoji" font-size="20px" style="white-space: pre;" text-anchor="middle" x="118.3251953125" y="0">Watcher</text><text direction="ltr" dominant-baseline="text-before-edge" fill="#1e1e1e" font-family="Virgil, Segoe UI Emoji" font-size="20px" style="white-space: pre;" text-anchor="middle" x="118.3251953125" y="25">- polls for Jobs that should be</text><text direction="ltr" dominant-baseline="text-before-edge" fill="#1e1e1e" font-family="Virgil, Segoe UI Emoji" font-size="20px" style="white-space: pre;" text-anchor="middle" x="118.3251953125" y="50">executed soon</text></g><g stroke-linecap="round"><g transform="translate(776.5830889132521 384.4140537650128) rotate(0 36.28125 -0.10546875)"><path d="M-0.26 -1.11 C12.04 -1.51, 61.63 -1.33, 73.6 -1.23 M1.8 0.92 C14.05 1.15, 61.18 -0.18, 73.19 -0.22" fill="none" stroke="#1e1e1e" stroke-width="2"></path></g><g transform="translate(776.5830889132521 384.4140537650128) rotate(0 36.28125 -0.10546875)"><path d="M45.18 10.51 C51.09 9.29, 59.11 2.85, 73.19 -0.22 M45.18 10.51 C52.86 7.5, 60.89 5.66, 73.19 -0.22" fill="none" stroke="#1e1e1e" stroke-width="2"></path></g><g transform="translate(776.5830889132521 384.4140537650128) rotate(0 36.28125 -0.10546875)"><path d="M44.83 -10.01 C51.03 -5.47, 59.15 -6.15, 73.19 -0.22 M44.83 -10.01 C52.53 -7.38, 60.66 -3.56, 73.19 -0.22" fill="none" stroke="#1e1e1e" stroke-width="2"></path></g></g><mask></mask><g stroke-linecap="round" transform="translate(858.9868599592992 342.0390537650128) rotate(0 128.51953125 42.5)"><path d="M3.19 8.07 C3.19 8.07, 3.19 8.07, 3.19 8.07 M3.19 8.07 C3.19 8.07, 3.19 8.07, 3.19 8.07 M0.7 23.13 C6.92 15.98, 11.8 11.79, 20.38 0.49 M0.7 23.13 C5.2 17.98, 9.59 12.69, 20.38 0.49 M0.83 35.17 C10.05 24.82, 22.55 11.14, 31.01 0.46 M0.83 35.17 C11.63 22.9, 22.98 9.5, 31.01 0.46 M0.96 47.21 C14.29 31.92, 29.67 15.57, 41.64 0.42 M0.96 47.21 C13.36 32.56, 26 19.99, 41.64 0.42 M1.1 59.25 C19.79 36.91, 37.33 17.6, 52.27 0.39 M1.1 59.25 C16.8 42.02, 33.5 24.61, 52.27 0.39 M1.23 71.29 C23.54 43.11, 47.67 13.52, 62.9 0.35 M1.23 71.29 C19.48 48.81, 39.63 26.72, 62.9 0.35 M5.3 78.81 C27.6 52.67, 49.88 29.14, 73.53 0.32 M5.3 78.81 C28.5 53.26, 50.9 28.46, 73.53 0.32 M11.99 83.3 C30.37 61.59, 52.35 35.73, 84.16 0.28 M11.99 83.3 C35.3 56.89, 57.92 32.63, 84.16 0.28 M20.65 85.53 C36.25 68.43, 51.81 48.8, 94.79 0.25 M20.65 85.53 C39.4 64.06, 57.87 43.18, 94.79 0.25 M31.28 85.5 C51.78 61.44, 74 34.38, 105.42 0.21 M31.28 85.5 C49.3 66.7, 65.25 47.18, 105.42 0.21 M41.91 85.46 C66.8 58.88, 89.69 28.67, 116.05 0.18 M41.91 85.46 C62.95 60.69, 85 36.04, 116.05 0.18 M52.54 85.43 C81.76 53.53, 111.91 17.72, 126.68 0.14 M52.54 85.43 C76.03 58.52, 97.88 32.63, 126.68 0.14 M63.17 85.39 C83.29 60.21, 105.9 36.89, 137.31 0.11 M63.17 85.39 C82.83 60.67, 103.9 39.06, 137.31 0.11 M73.8 85.36 C99.05 54.85, 125.59 26.89, 147.94 0.08 M73.8 85.36 C97.4 57.83, 120.6 30.98, 147.94 0.08 M84.44 85.32 C103.22 63.11, 124.28 38.42, 157.91 0.8 M84.44 85.32 C102.36 64.6, 120.25 44.86, 157.91 0.8 M95.07 85.29 C120.05 54.22, 150.09 20.15, 168.54 0.76 M95.07 85.29 C119.34 58.92, 141.35 30.57, 168.54 0.76 M105.7 85.25 C133.12 50.82, 163.77 17.25, 179.17 0.73 M105.7 85.25 C122.47 66.46, 137.49 47.1, 179.17 0.73 M116.33 85.22 C140.8 59.04, 164.21 30.1, 189.8 0.69 M116.33 85.22 C136.19 62.09, 157.38 39.72, 189.8 0.69 M126.3 85.94 C147.37 61.03, 171.07 33.1, 200.43 0.66 M126.3 85.94 C147.11 61.89, 167.46 37.7, 200.43 0.66 M136.93 85.91 C160.63 60.35, 185.29 31.19, 211.06 0.62 M136.93 85.91 C156.55 63.21, 176.84 40.65, 211.06 0.62 M147.56 85.87 C175.71 51.01, 204.31 21, 221.69 0.59 M147.56 85.87 C169.72 62.08, 190.06 37.71, 221.69 0.59 M158.19 85.84 C177.08 62.15, 198.75 38.76, 232.32 0.55 M158.19 85.84 C180.21 58.93, 203.05 33.32, 232.32 0.55 M168.82 85.8 C199.15 51.36, 226.58 18.91, 242.3 1.27 M168.82 85.8 C190.67 60.64, 212.91 35.42, 242.3 1.27 M179.45 85.77 C207.81 54.74, 237.25 20.74, 250.3 4.26 M179.45 85.77 C199.78 62.36, 220.05 39.36, 250.3 4.26 M190.08 85.73 C203.14 68.34, 216.59 55.91, 254.37 11.77 M190.08 85.73 C204.09 71.44, 216.92 56.23, 254.37 11.77 M200.71 85.7 C215.19 66.11, 234.58 48.6, 257.13 20.79 M200.71 85.7 C213.31 72.76, 224.31 58.37, 257.13 20.79 M211.34 85.66 C220.72 73.43, 234.71 62.16, 257.26 32.83 M211.34 85.66 C225.86 70.32, 238.61 55.25, 257.26 32.83 M221.97 85.63 C230.13 74.46, 238.67 66.67, 257.4 44.88 M221.97 85.63 C236.39 68.8, 249.25 53.49, 257.4 44.88 M232.6 85.6 C237.23 77.77, 246.46 73.5, 257.53 56.92 M232.6 85.6 C239.26 77.83, 245.78 69.72, 257.53 56.92 M244.54 84.05 C247.18 77.82, 253.59 73.64, 257.01 69.71 M244.54 84.05 C248.66 78.97, 252.84 75.17, 257.01 69.71" fill="none" stroke="#ffffff" stroke-width="1"></path><path d="M21.25 0 C79.4 -3.11, 140.07 -2.29, 235.79 0 M21.25 0 C72.88 1.21, 123.27 0.7, 235.79 0 M235.79 0 C248.12 0.51, 258.56 8.92, 257.04 21.25 M235.79 0 C251.02 -1.08, 257.22 6.2, 257.04 21.25 M257.04 21.25 C258.66 39.55, 259.04 54, 257.04 63.75 M257.04 21.25 C256.88 30.78, 257.19 39.65, 257.04 63.75 M257.04 63.75 C256.65 76.13, 249.32 85.23, 235.79 85 M257.04 63.75 C255.62 78.37, 249.22 85.64, 235.79 85 M235.79 85 C157.18 84.95, 80.09 84.79, 21.25 85 M235.79 85 C161.9 85.94, 89.46 85.71, 21.25 85 M21.25 85 C7.09 84.81, -0.31 78.26, 0 63.75 M21.25 85 C6 86.2, 0.02 80.14, 0 63.75 M0 63.75 C-0.91 52.17, 0.43 40.65, 0 21.25 M0 63.75 C0.15 48.8, 0.88 32.07, 0 21.25 M0 21.25 C-1.58 8.69, 5.63 1.57, 21.25 0 M0 21.25 C-0.38 7.79, 5.62 0.38, 21.25 0" fill="none" stroke="#1e1e1e" stroke-width="2"></path></g><g transform="translate(896.4126412092992 372.0390537650128) rotate(0 91.09375 12.5)"><text direction="ltr" dominant-baseline="text-before-edge" fill="#1e1e1e" font-family="Virgil, Segoe UI Emoji" font-size="20px" style="white-space: pre;" text-anchor="middle" x="91.09375" y="0">Message Queue (SQS)</text></g><g stroke-linecap="round" transform="translate(1275.0987139132521 309.9804600150128) rotate(0 72.099609375 68.462890625)"><path d="M7.86 8.16 C7.86 8.16, 7.86 8.16, 7.86 8.16 M7.86 8.16 C7.86 8.16, 7.86 8.16, 7.86 8.16 M1.43 27.75 C6.45 20.99, 14.17 13, 24.4 1.33 M1.43 27.75 C9.73 18.55, 17.51 9.22, 24.4 1.33 M0.91 40.54 C14.92 24.42, 26.29 9.51, 36.34 -0.21 M0.91 40.54 C15.47 24.25, 28.23 8.32, 36.34 -0.21 M1.04 52.58 C16.52 32.86, 32.25 16.34, 46.31 0.51 M1.04 52.58 C12.03 38.88, 23.32 27.84, 46.31 0.51 M1.18 64.62 C12.65 50.11, 22.42 37.53, 56.94 0.47 M1.18 64.62 C19.7 43.78, 36.7 21.71, 56.94 0.47 M1.31 76.67 C20.97 56.64, 39.28 32.88, 67.57 0.44 M1.31 76.67 C18.61 56.68, 35.73 37.3, 67.57 0.44 M1.44 88.71 C20.61 65.48, 39.09 45.78, 78.2 0.41 M1.44 88.71 C24.43 61.46, 48.45 32.89, 78.2 0.41 M0.92 101.5 C33.78 62.56, 67.23 26.73, 88.83 0.37 M0.92 101.5 C21.67 75.53, 44.2 49.46, 88.83 0.37 M1.05 113.54 C36.27 71.81, 72.37 31.35, 99.46 0.34 M1.05 113.54 C26.87 84.86, 51.86 53.75, 99.46 0.34 M3.81 122.56 C40.69 78.1, 79.67 37.18, 110.09 0.3 M3.81 122.56 C43.48 78.26, 81.68 33.2, 110.09 0.3 M8.54 129.32 C51.38 80.3, 94.45 30.37, 120.07 1.02 M8.54 129.32 C44.81 88.23, 78.5 47.82, 120.07 1.02 M15.23 133.82 C59.54 84.62, 102.57 34.25, 128.07 4.01 M15.23 133.82 C45.25 99.62, 74.06 65.03, 128.07 4.01 M23.89 136.05 C54.14 102.44, 85.89 65.87, 135.42 7.75 M23.89 136.05 C46.86 107.4, 70.51 80.49, 135.42 7.75 M33.87 136.77 C66.15 99.35, 97.71 62.8, 140.15 14.5 M33.87 136.77 C67.52 98.07, 100.25 59.95, 140.15 14.5 M44.5 136.73 C77.25 96.98, 113.69 59.59, 142.91 23.53 M44.5 136.73 C74.14 103.49, 102.54 68.25, 142.91 23.53 M55.13 136.7 C84.12 103.51, 114.43 72.46, 144.35 34.06 M55.13 136.7 C91.16 98.01, 125.27 57.08, 144.35 34.06 M65.76 136.66 C82.4 117.19, 103.63 96.27, 144.48 46.1 M65.76 136.66 C92.8 106.81, 118.56 76.26, 144.48 46.1 M76.39 136.63 C101.27 106.07, 127.85 77.09, 144.62 58.14 M76.39 136.63 C95.76 114.24, 116.81 90.19, 144.62 58.14 M86.36 137.35 C105.81 115.37, 126.02 91.41, 144.09 70.93 M86.36 137.35 C103.97 117.1, 120.63 97.82, 144.09 70.93 M96.99 137.31 C113.71 118.77, 131.71 97.77, 144.23 82.97 M96.99 137.31 C112.64 119.59, 127.11 101.95, 144.23 82.97 M107.62 137.28 C115.29 126.53, 123.86 119.94, 144.36 95.02 M107.62 137.28 C120.61 122.67, 133.55 106.32, 144.36 95.02 M118.91 136.49 C126.47 127.53, 135.67 117.96, 143.84 107.81 M118.91 136.49 C126.94 128.3, 133.63 120.98, 143.84 107.81 M134.79 130.42 C136.32 127.89, 138.13 126.33, 140.03 124.38 M134.79 130.42 C136.78 128.2, 138.01 126.64, 140.03 124.38" fill="none" stroke="#ffffff" stroke-width="1"></path><path d="M32 0 C48.03 0.16, 66.02 0.83, 112.2 0 M32 0 C62.26 0.02, 95.12 0.68, 112.2 0 M112.2 0 C134.46 -0.94, 144.36 9.89, 144.2 32 M112.2 0 C135.56 0.35, 142.66 12.46, 144.2 32 M144.2 32 C143.33 58.84, 145.36 89.29, 144.2 104.93 M144.2 32 C144.37 53.85, 144.25 77.6, 144.2 104.93 M144.2 104.93 C142.97 126.65, 132.9 137.48, 112.2 136.93 M144.2 104.93 C145.72 125.82, 132.46 136.81, 112.2 136.93 M112.2 136.93 C85.22 138.7, 57.21 136.08, 32 136.93 M112.2 136.93 C85.15 136.92, 57.93 137.18, 32 136.93 M32 136.93 C9.72 137.97, 0.01 128.2, 0 104.93 M32 136.93 C9.51 134.91, -1.66 124.79, 0 104.93 M0 104.93 C1.21 85.13, 1.89 67.91, 0 32 M0 104.93 C-1.21 80.93, -1.14 56.1, 0 32 M0 32 C-0.33 11.28, 9.39 0.33, 32 0 M0 32 C-1.15 10.21, 12.75 1.17, 32 0" fill="none" stroke="#1e1e1e" stroke-width="2"></path></g><g transform="translate(1288.3360186007521 353.4433506400128) rotate(0 58.8623046875 25)"><text direction="ltr" dominant-baseline="text-before-edge" fill="#1e1e1e" font-family="Virgil, Segoe UI Emoji" font-size="20px" style="white-space: pre;" text-anchor="middle" x="58.8623046875" y="0">Worker</text><text direction="ltr" dominant-baseline="text-before-edge" fill="#1e1e1e" font-family="Virgil, Segoe UI Emoji" font-size="20px" style="white-space: pre;" text-anchor="middle" x="58.8623046875" y="25">- execute tasks</text></g><g stroke-linecap="round"><g transform="translate(1264.6729326632521 383.4687412650128) rotate(0 -70.70827072697625 -0.29084560296348627)"><path d="M0.31 1.06 C-23.42 1.07, -118.69 0, -142.49 -0.23 M-0.98 0.58 C-24.35 0.24, -117.14 -2.26, -140.35 -2.16" fill="none" stroke="#1e1e1e" stroke-width="2"></path></g><g transform="translate(1264.6729326632521 383.4687412650128) rotate(0 -70.70827072697625 -0.29084560296348627)"><path d="M-112.02 -12.04 C-118.56 -10.87, -128.03 -8.02, -140.35 -2.16 M-112.02 -12.04 C-120.7 -9.04, -130.3 -5.74, -140.35 -2.16" fill="none" stroke="#1e1e1e" stroke-width="2"></path></g><g transform="translate(1264.6729326632521 383.4687412650128) rotate(0 -70.70827072697625 -0.29084560296348627)"><path d="M-112.29 8.48 C-118.71 3.64, -128.1 0.49, -140.35 -2.16 M-112.29 8.48 C-121.04 4.8, -130.55 1.42, -140.35 -2.16" fill="none" stroke="#1e1e1e" stroke-width="2"></path></g></g><mask></mask><g stroke-linecap="round"><g transform="translate(1340.457252251479 295.0006083430617) rotate(0 -172.0858683876338 -109.42230805932036)"><path d="M-1.08 0.36 C-19.34 -28.86, -52.22 -137.9, -109.25 -174.25 C-166.28 -210.6, -304.2 -210.22, -343.26 -217.74 M0.56 -0.5 C-17.37 -29.58, -49.77 -139.71, -107.12 -176.21 C-164.47 -212.71, -304.22 -212.44, -343.54 -219.51" fill="none" stroke="#1e1e1e" stroke-width="2"></path></g><g transform="translate(1340.457252251479 295.0006083430617) rotate(0 -172.0858683876338 -109.42230805932036)"><path d="M-314.5 -227.01 C-323.3 -226.66, -332.86 -220.86, -343.54 -219.51 M-314.5 -227.01 C-325.76 -224.59, -336.34 -221.12, -343.54 -219.51" fill="none" stroke="#1e1e1e" stroke-width="2"></path></g><g transform="translate(1340.457252251479 295.0006083430617) rotate(0 -172.0858683876338 -109.42230805932036)"><path d="M-316.47 -206.58 C-324.82 -212.87, -333.73 -213.73, -343.54 -219.51 M-316.47 -206.58 C-327.06 -212.16, -336.86 -216.68, -343.54 -219.51" fill="none" stroke="#1e1e1e" stroke-width="2"></path></g></g><mask></mask><g transform="translate(1271.2439920042398 102.29313447684035) rotate(0 73.59992980957031 12.5)"><text direction="ltr" dominant-baseline="text-before-edge" fill="#1e1e1e" font-family="Virgil, Segoe UI Emoji" font-size="20px" style="white-space: pre;" text-anchor="start" x="0" y="0">update status</text></g><g transform="translate(818.6354793262899 448.6671251290845) rotate(0 175.6998291015625 12.5)"><text direction="ltr" dominant-baseline="text-before-edge" fill="#1e1e1e" font-family="Virgil, Segoe UI Emoji" font-size="20px" style="white-space: pre;" text-anchor="start" x="0" y="0">- delivery delay until execution time</text></g></svg>