<svg height="421.140625" version="1.1" viewbox="0 0 677.2723688355828 421.140625" width="677.2723688355828" xmlns="http://www.w3.org/2000/svg">
<!-- svg-source:excalidraw -->
<!-- payload-type:application/vnd.excalidraw+json --><!-- payload-version:2 -->
<defs>
<style class="style-fonts">
</style>
</defs>
<rect fill="#ffffff" height="421.140625" width="677.2723688355828" x="0" y="0"></rect><g stroke-linecap="round" transform="translate(130.5067438355828 363.7890625) rotate(0 268.3828125 23.67578125)"><path d="M11.84 0 C165.85 1.89, 318.87 2.11, 524.93 0 C530.76 -2.15, 533.68 1.97, 536.77 11.84 C534.36 20.15, 536.87 21.86, 536.77 35.51 C538.48 44.36, 529.64 45.04, 524.93 47.35 C319.07 49.52, 114.87 48.12, 11.84 47.35 C3.12 46.63, 2.1 41.13, 0 35.51 C0.29 27.01, 1.72 20.32, 0 11.84 C2.3 2.76, 2.22 -1.02, 11.84 0" fill="#ffffff" stroke="none" stroke-width="0"></path><path d="M11.84 0 C214.82 -0.25, 417.83 1.3, 524.93 0 M11.84 0 C159.33 -0.99, 306.51 -1.05, 524.93 0 M524.93 0 C531.6 -1.27, 535.4 2.58, 536.77 11.84 M524.93 0 C533.79 0.67, 537.49 3.07, 536.77 11.84 M536.77 11.84 C535.9 18.23, 537.29 21.9, 536.77 35.51 M536.77 11.84 C536.37 19.12, 537.36 24.93, 536.77 35.51 M536.77 35.51 C535.25 43.23, 531.55 46.63, 524.93 47.35 M536.77 35.51 C535.25 43, 532.93 45.71, 524.93 47.35 M524.93 47.35 C376.01 46.24, 226.03 47.39, 11.84 47.35 M524.93 47.35 C392.5 46.6, 260.38 46.14, 11.84 47.35 M11.84 47.35 C2.05 48.62, -0.05 44.62, 0 35.51 M11.84 47.35 C1.85 48.25, 2.02 45.68, 0 35.51 M0 35.51 C0.57 25.92, 2.02 20.07, 0 11.84 M0 35.51 C1.04 29.93, -0.73 26.21, 0 11.84 M0 11.84 C-1.49 3.08, 2.37 -1.69, 11.84 0 M0 11.84 C1.9 2.52, 5.06 0.28, 11.84 0" fill="none" stroke="#e03131" stroke-width="1"></path></g><g transform="translate(301.02959387220386 369.96484375) rotate(0 97.8599624633789 17.5)"><text direction="ltr" dominant-baseline="text-before-edge" fill="#e03131" font-family="Virgil, Segoe UI Emoji" font-size="28px" style="white-space: pre;" text-anchor="middle" x="97.8599624633789" y="0">Core Concepts</text></g><g stroke-linecap="round" transform="translate(150.38565008558285 291.78515625) rotate(0 123.13281249999997 27.43359375)"><path d="M13.72 0 C70.33 -1.27, 127.83 -1.11, 232.55 0 C240.93 -2.48, 248.8 2.46, 246.27 13.72 C248.03 24.2, 243.14 30.47, 246.27 41.15 C249.84 49.7, 242.52 52.39, 232.55 54.87 C146.08 54.06, 62.85 52.71, 13.72 54.87 C6.13 57.65, 2.35 50.91, 0 41.15 C2.02 32.02, -2 24.25, 0 13.72 C-1.27 5.2, 2.94 -3.46, 13.72 0" fill="#ffffff" stroke="none" stroke-width="0"></path><path d="M13.72 0 C57.54 -0.74, 102.93 -0.42, 232.55 0 M13.72 0 C97.16 -1.83, 181.06 -1.87, 232.55 0 M232.55 0 C242.54 0.59, 246.9 3.81, 246.27 13.72 M232.55 0 C239.84 0.83, 247.82 3.47, 246.27 13.72 M246.27 13.72 C246.09 21.8, 247.18 33.08, 246.27 41.15 M246.27 13.72 C245.73 23.12, 245.85 32.33, 246.27 41.15 M246.27 41.15 C244.94 49.94, 241.79 53.44, 232.55 54.87 M246.27 41.15 C246.06 51.82, 241.02 56.18, 232.55 54.87 M232.55 54.87 C180.05 57.6, 128.28 55.28, 13.72 54.87 M232.55 54.87 C159.59 53.78, 88.25 53.76, 13.72 54.87 M13.72 54.87 C2.75 55.65, 1.75 52.27, 0 41.15 M13.72 54.87 C5.26 53.21, -0.94 50.76, 0 41.15 M0 41.15 C-2.12 34.42, 1.44 31.45, 0 13.72 M0 41.15 C-0.52 34.38, -0.56 27.64, 0 13.72 M0 13.72 C1.65 3.33, 5.54 0.24, 13.72 0 M0 13.72 C-0.03 2.71, 3.1 1.21, 13.72 0" fill="none" stroke="#1971c2" stroke-width="1"></path></g><g transform="translate(159.78251593030936 301.71875) rotate(0 113.73594665527344 17.5)"><text direction="ltr" dominant-baseline="text-before-edge" fill="#1971c2" font-family="Virgil, Segoe UI Emoji" font-size="28px" style="white-space: pre;" text-anchor="middle" x="113.73594665527344" y="0">Key Technologies</text></g><g stroke-linecap="round" transform="translate(417.04190008558277 290.203125) rotate(0 117.654296875 29.283203125)"><path d="M14.64 0 C63.45 -0.4, 115.87 -0.07, 220.67 0 C232.14 0.4, 232.13 6.59, 235.31 14.64 C238.42 23.61, 235.66 31.28, 235.31 43.92 C238.62 52.89, 230.24 57.75, 220.67 58.57 C164.39 58.95, 107.43 57.02, 14.64 58.57 C4.5 60.62, 1.06 55.99, 0 43.92 C-1.02 36.73, -1.38 24.83, 0 14.64 C2.38 7.51, 5.44 1.04, 14.64 0" fill="#ffffff" stroke="none" stroke-width="0"></path><path d="M14.64 0 C90.61 0.01, 164.8 -2.55, 220.67 0 M14.64 0 C63.77 1.51, 112.43 0.91, 220.67 0 M220.67 0 C228.82 0.72, 236.66 3.93, 235.31 14.64 M220.67 0 C231.8 0.51, 234.92 4.61, 235.31 14.64 M235.31 14.64 C236.35 22.44, 234.32 25.48, 235.31 43.92 M235.31 14.64 C234.46 23, 235.17 31, 235.31 43.92 M235.31 43.92 C235.13 55.01, 229.84 59.71, 220.67 58.57 M235.31 43.92 C233.85 53.27, 232.26 57.59, 220.67 58.57 M220.67 58.57 C144.97 56.53, 66.68 55.72, 14.64 58.57 M220.67 58.57 C145.02 60.03, 71.78 60.56, 14.64 58.57 M14.64 58.57 C5.48 57.13, -0.81 54.09, 0 43.92 M14.64 58.57 C2.82 60.69, 0.2 51.53, 0 43.92 M0 43.92 C-1.63 34.86, 0.71 27.66, 0 14.64 M0 43.92 C1.06 35.79, 0.71 29.02, 0 14.64 M0 14.64 C-0.03 3.27, 3.6 1.05, 14.64 0 M0 14.64 C-0.76 5.71, 4.48 -1.32, 14.64 0" fill="none" stroke="#2f9e44" stroke-width="1"></path></g><g transform="translate(472.4662241212273 301.986328125) rotate(0 62.22997283935547 17.5)"><text direction="ltr" dominant-baseline="text-before-edge" fill="#2f9e44" font-family="Virgil, Segoe UI Emoji" font-size="28px" style="white-space: pre;" text-anchor="middle" x="62.22997283935547" y="0">Patterns</text></g><g stroke-linecap="round" transform="translate(166.3661188355828 226.3984375) rotate(0 236.494140625 24.8359375)"><path d="M12.42 0 C116.79 2.49, 217.94 3.13, 460.57 0 C469.8 -3.18, 470.68 7.71, 472.99 12.42 C476.4 18.66, 472.9 25.68, 472.99 37.25 C472.26 47.63, 466.57 51.22, 460.57 49.67 C291.36 51.34, 123.03 51.46, 12.42 49.67 C2.95 47.95, -1.02 44.26, 0 37.25 C2.58 32, 0.77 22.52, 0 12.42 C-0.94 2.57, 5.8 -2.18, 12.42 0" fill="#ffffff" stroke="none" stroke-width="0"></path><path d="M12.42 0 C183.48 0.66, 355.12 1.74, 460.57 0 M12.42 0 C159.62 1.01, 307.94 0.6, 460.57 0 M460.57 0 C470.04 0.44, 472.65 3.91, 472.99 12.42 M460.57 0 C466.8 0.98, 472.56 5.19, 472.99 12.42 M472.99 12.42 C472.68 20.61, 472.13 30.01, 472.99 37.25 M472.99 12.42 C472.91 20.09, 472.71 27.01, 472.99 37.25 M472.99 37.25 C471.72 45.17, 470.45 48.82, 460.57 49.67 M472.99 37.25 C474.6 44.56, 467.39 50.35, 460.57 49.67 M460.57 49.67 C348.83 47.58, 236.46 46.72, 12.42 49.67 M460.57 49.67 C308.8 51.48, 156.54 51.92, 12.42 49.67 M12.42 49.67 C2.35 51.52, 0.18 43.66, 0 37.25 M12.42 49.67 C3.04 51.62, 2.12 43.94, 0 37.25 M0 37.25 C-0.99 30.32, -1.81 28.19, 0 12.42 M0 37.25 C-0.13 30.54, -0.76 25.97, 0 12.42 M0 12.42 C-0.66 4.86, 3.79 -1.14, 12.42 0 M0 12.42 C-1.38 2.17, 2.88 -0.49, 12.42 0" fill="none" stroke="#f08c00" stroke-width="4"></path></g><g transform="translate(273.93432562269214 233.734375) rotate(0 128.92593383789062 17.5)"><text direction="ltr" dominant-baseline="text-before-edge" fill="#f08c00" font-family="Virgil, Segoe UI Emoji" font-size="28px" style="white-space: pre;" text-anchor="middle" x="128.92593383789062" y="0">Delivery Framework</text></g><g stroke-linecap="round" transform="translate(222.4383844605828 143.73003594888746) rotate(0 36.93997940173807 29.29883692336523)"><path d="M14.65 0 C29.3 3.89, 44.71 1.8, 59.23 0 C66.41 -1.47, 74.6 1.66, 73.88 14.65 C72.2 29.2, 77.25 35.16, 73.88 43.95 C70.85 55.43, 66.31 57.04, 59.23 58.6 C47.13 61.01, 39.93 59.21, 14.65 58.6 C1.98 56.3, 1.9 52.52, 0 43.95 C-2.06 31.02, -1.88 23.49, 0 14.65 C-2.48 7.42, 2.77 1.71, 14.65 0" fill="#ffffff" stroke="none" stroke-width="0"></path><path d="M14.65 0 C25.56 0.44, 34.53 -1.8, 59.23 0 M59.23 0 C69.72 1.35, 72.93 6.08, 73.88 14.65 M73.88 14.65 C72.05 24.94, 73.46 34.44, 73.88 43.95 M73.88 43.95 C75.5 52.6, 67.48 58.43, 59.23 58.6 M59.23 58.6 C48.33 58.4, 36.71 58.13, 14.65 58.6 M14.65 58.6 C6.21 58.01, 1.14 52.45, 0 43.95 M0 43.95 C1.17 34.85, -1.5 28.03, 0 14.65 M0 14.65 C-0.99 3.16, 2.99 1.26, 14.65 0" fill="none" stroke="#1e1e1e" stroke-dasharray="8 9" stroke-width="1.5"></path></g><g transform="translate(237.46533895997712 160.57227066864888) rotate(0 21.91302490234375 12.456602203603808)"><text direction="ltr" dominant-baseline="text-before-edge" fill="#1e1e1e" font-family="Virgil, Segoe UI Emoji" font-size="19.930563525766097px" style="white-space: pre;" text-anchor="middle" x="21.91302490234375" y="0">Uber</text></g><g stroke-linecap="round" transform="translate(309.93655552142576 143.40318665580526) rotate(0 44.13724502673807 29.38672754836523)"><path d="M14.69 0 C34.93 -1.78, 61.07 -3.54, 73.58 0 C86.71 0.32, 84.91 3.18, 88.27 14.69 C85.73 27.72, 86.07 35.74, 88.27 44.08 C85.44 50.83, 86.35 56.54, 73.58 58.77 C50.15 56.46, 34.44 57.57, 14.69 58.77 C6.2 58.14, -2.06 51.72, 0 44.08 C-2.19 40.32, -1.82 33.2, 0 14.69 C0.4 1.72, 6.61 0.95, 14.69 0" fill="#ffffff" stroke="none" stroke-width="0"></path><path d="M14.69 0 C34.95 1.83, 52.8 1.67, 73.58 0 M73.58 0 C83.82 -0.33, 88.04 3.12, 88.27 14.69 M88.27 14.69 C89.84 23.66, 86.71 34.67, 88.27 44.08 M88.27 44.08 C87.01 53.16, 82.05 58.42, 73.58 58.77 M73.58 58.77 C56.97 58.13, 38.85 57.45, 14.69 58.77 M14.69 58.77 C4.53 60.37, -0.85 55.28, 0 44.08 M0 44.08 C-0.8 34.79, -1.71 30.2, 0 14.69 M0 14.69 C-0.05 6.11, 3.07 0.78, 14.69 0" fill="none" stroke="#1e1e1e" stroke-dasharray="8 9" stroke-width="1.5"></path></g><g transform="translate(335.9474806629099 160.33331200056668) rotate(0 18.126319885253906 12.456602203603808)"><text direction="ltr" dominant-baseline="text-before-edge" fill="#1e1e1e" font-family="Virgil, Segoe UI Emoji" font-size="19.930563525766097px" style="white-space: pre;" text-anchor="middle" x="18.126319885253906" y="0">Yelp</text></g><g stroke-linecap="round" transform="translate(416.090162425262 143.69100191748322) rotate(0 44.13724502673807 29.98243067336523)"><path d="M14.99 0 C33.43 1.26, 41.85 -0.78, 73.28 0 C86.33 3.32, 85.78 1.96, 88.27 14.99 C85.04 22.37, 90.85 33.61, 88.27 44.97 C90.02 55.4, 83.23 57.06, 73.28 59.96 C60.82 58.98, 43.71 57.46, 14.99 59.96 C1.91 57.99, -0.76 52.48, 0 44.97 C0.72 30.69, 2.03 23.71, 0 14.99 C-3.18 2.69, 8.57 -0.59, 14.99 0" fill="#ffffff" stroke="none" stroke-width="0"></path><path d="M14.99 0 C36.87 -0.68, 57.62 -2.13, 73.28 0 M73.28 0 C84.13 -0.37, 89.19 6.61, 88.27 14.99 M88.27 14.99 C86.78 21.6, 86.73 29.3, 88.27 44.97 M88.27 44.97 C88.37 53.54, 83.1 61.29, 73.28 59.96 M73.28 59.96 C57.14 61.19, 40.88 61, 14.99 59.96 M14.99 59.96 C4.15 58.7, 0.59 53.98, 0 44.97 M0 44.97 C0.23 39.77, -1.54 32.92, 0 14.99 M0 14.99 C1.75 6.97, 5.59 -1.44, 14.99 0" fill="none" stroke="#1e1e1e" stroke-dasharray="8 9" stroke-width="1.5"></path></g><g transform="translate(423.2772121395001 148.76022818364083) rotate(0 36.9501953125 24.913204407207616)"><text direction="ltr" dominant-baseline="text-before-edge" fill="#1e1e1e" font-family="Virgil, Segoe UI Emoji" font-size="19.930563525766097px" style="white-space: pre;" text-anchor="middle" x="36.9501953125" y="0">Google </text><text direction="ltr" dominant-baseline="text-before-edge" fill="#1e1e1e" font-family="Virgil, Segoe UI Emoji" font-size="19.930563525766097px" style="white-space: pre;" text-anchor="middle" x="36.9501953125" y="24.913204407207623">Docs</text></g><g stroke-linecap="round" transform="translate(521.6248319071067 141.81248240326954) rotate(0 38.61576065173807 31.14649317336523)"><path d="M15.57 0 C24.7 -3.8, 40.53 -3.45, 61.66 0 C70.48 -2.83, 74.19 8.17, 77.23 15.57 C77.46 20.07, 75.2 32.28, 77.23 46.72 C76.04 58.4, 71.41 60.23, 61.66 62.29 C49.83 59.36, 42.06 59.73, 15.57 62.29 C6.9 62.69, -3.18 58.81, 0 46.72 C4.07 35.96, 1.32 23.92, 0 15.57 C3.31 4.39, 5 -0.82, 15.57 0" fill="#ffffff" stroke="none" stroke-width="0"></path><path d="M15.57 0 C26.21 1.7, 33.9 -1.43, 61.66 0 M61.66 0 C71.87 -1.27, 76.51 3.87, 77.23 15.57 M77.23 15.57 C77.07 25.69, 76.66 34.3, 77.23 46.72 M77.23 46.72 C75.96 56.74, 73.64 61.45, 61.66 62.29 M61.66 62.29 C45.2 61.02, 25.83 60.11, 15.57 62.29 M15.57 62.29 C6.46 62.24, 1.21 55.28, 0 46.72 M0 46.72 C0.32 34.72, -1.09 26.01, 0 15.57 M0 15.57 C-1.79 7.04, 5.37 -1.87, 15.57 0" fill="none" stroke="#1e1e1e" stroke-dasharray="8 9" stroke-width="1.5"></path></g><g transform="translate(552.0493694143134 160.50237337303096) rotate(0 8.19122314453125 12.456602203603808)"><text direction="ltr" dominant-baseline="text-before-edge" fill="#1e1e1e" font-family="Virgil, Segoe UI Emoji" font-size="19.930563525766097px" style="white-space: pre;" text-anchor="middle" x="8.19122314453125" y="0">...</text></g><g stroke-linecap="round" transform="translate(192.2137750855828 90.109375) rotate(0 212.62109375 63.2421875)"><path d="M31.62 0 C165.86 -2.2, 300.41 -0.75, 393.62 0 M31.62 0 C108.11 -2.12, 184.36 -1.69, 393.62 0 M393.62 0 C414.26 -0.1, 424.79 10.14, 425.24 31.62 M393.62 0 C416.04 -1.46, 426.23 12.32, 425.24 31.62 M425.24 31.62 C426.49 55.31, 426.63 77.17, 425.24 94.86 M425.24 31.62 C425.24 47.11, 424.1 64.17, 425.24 94.86 M425.24 94.86 C426.7 116.26, 415.28 125.96, 393.62 126.48 M425.24 94.86 C424.24 117.01, 413.31 125.43, 393.62 126.48 M393.62 126.48 C291.08 126.31, 190.97 127.48, 31.62 126.48 M393.62 126.48 C252.42 128.17, 111.49 128.07, 31.62 126.48 M31.62 126.48 C10.01 126.16, -1.36 115.46, 0 94.86 M31.62 126.48 C10.11 126.14, -1.46 117.67, 0 94.86 M0 94.86 C-0.99 79.23, -0.53 66.27, 0 31.62 M0 94.86 C-0.14 69.93, -0.78 46.76, 0 31.62 M0 31.62 C-1.33 10.58, 11.39 -0.35, 31.62 0 M0 31.62 C-1.23 10.32, 11.93 1.36, 31.62 0" fill="none" stroke="#1e1e1e" stroke-width="1"></path></g><g transform="translate(268.63565008558277 103.140625) rotate(0 127.16988372802734 12.5)"><text direction="ltr" dominant-baseline="text-before-edge" fill="#1e1e1e" font-family="Virgil, Segoe UI Emoji" font-size="20px" style="white-space: pre;" text-anchor="start" x="0" y="0">Practice Common Problems</text></g><g stroke-linecap="round"><g transform="translate(46.061431335582796 53.06647977597174) rotate(0 38.787109375 94.51754136201414)"><path d="M-0.25 -0.09 C-5.28 24.54, -49.27 115.83, -31.17 147.46 C-13.07 179.09, 84.98 182.95, 108.37 189.69 M1.82 -1.18 C-3.25 23.14, -50.06 114.29, -31.89 145.77 C-13.72 177.25, 87.29 180.58, 110.84 187.69" fill="none" stroke="#1e1e1e" stroke-width="2"></path></g><g transform="translate(46.061431335582796 53.06647977597174) rotate(0 38.787109375 94.51754136201414)"><path d="M81.35 193.22 C87.65 192.79, 95.58 189.52, 110.84 187.69 M81.35 193.22 C91.77 192.18, 102.28 189.16, 110.84 187.69" fill="none" stroke="#1e1e1e" stroke-width="2"></path></g><g transform="translate(46.061431335582796 53.06647977597174) rotate(0 38.787109375 94.51754136201414)"><path d="M84.69 172.97 C90.22 176.95, 97.42 178.1, 110.84 187.69 M84.69 172.97 C93.92 179.08, 103.24 183.23, 110.84 187.69" fill="none" stroke="#1e1e1e" stroke-width="2"></path></g></g><mask></mask><g transform="translate(32.983306335582796 10) rotate(0 62.99994659423828 12.5)"><text direction="ltr" dominant-baseline="text-before-edge" fill="#1e1e1e" font-family="Virgil, Segoe UI Emoji" font-size="20px" style="white-space: pre;" text-anchor="start" x="0" y="0">You are here</text></g></svg>