<svg height="1644.5595645807662" version="1.1" viewbox="0 0 3032.708903277493 1644.5595645807662" width="3032.708903277493" xmlns="http://www.w3.org/2000/svg">
<!-- svg-source:excalidraw -->
<!-- payload-type:application/vnd.excalidraw+json --><!-- payload-version:2 -->
<defs>
<style class="style-fonts">
</style>
</defs>
<rect fill="#ffffff" height="1644.5595645807662" width="3032.708903277493" x="0" y="0"></rect><g stroke-linecap="round" transform="translate(10 362.89553726527083) rotate(0 101.90695988861125 75.10347326861086)"><path d="M32 0 C62.16 0.99, 88.26 0.45, 171.81 0 M32 0 C59.35 -0.12, 89.14 -1.5, 171.81 0 M171.81 0 C191.9 -0.59, 205.18 10.06, 203.81 32 M171.81 0 C193.35 0.59, 204.45 12.13, 203.81 32 M203.81 32 C205.33 52.68, 205.55 78.2, 203.81 118.21 M203.81 32 C203.41 51.52, 204.77 69.52, 203.81 118.21 M203.81 118.21 C203.13 138.36, 191.62 151.42, 171.81 150.21 M203.81 118.21 C203.94 138.87, 190.88 151.09, 171.81 150.21 M171.81 150.21 C137.54 148.96, 104.23 150.89, 32 150.21 M171.81 150.21 C140.55 151.7, 107.97 151.68, 32 150.21 M32 150.21 C11.08 151.5, 1.49 139.59, 0 118.21 M32 150.21 C9.27 149.72, -1.06 138.97, 0 118.21 M0 118.21 C1.08 94.54, -0.73 69.54, 0 32 M0 118.21 C-0.26 86.53, -0.26 52.75, 0 32 M0 32 C-0.85 9.17, 11.99 1, 32 0 M0 32 C-1.77 12.97, 9.26 1.05, 32 0" fill="none" stroke="#1e1e1e" stroke-width="2"></path></g><g transform="translate(87.46360051361125 425.4990105338817) rotate(0 24.443359375 12.5)"><text direction="ltr" dominant-baseline="text-before-edge" fill="#1e1e1e" font-family="Virgil, Segoe UI Emoji" font-size="20px" style="white-space: pre;" text-anchor="middle" x="24.443359375" y="0">Client</text></g><g stroke-linecap="round"><g transform="translate(236.1491615041191 443.48805171971253) rotate(0 104.61353691157768 0.4828270098806797)"><path d="M0.4 -1.19 C34.99 -0.74, 173.62 1.26, 208.27 1.79 M-0.85 0.8 C34.05 0.99, 175.21 0.21, 210.48 0.1" fill="none" stroke="#1e1e1e" stroke-width="2"></path></g><g transform="translate(236.1491615041191 443.48805171971253) rotate(0 104.61353691157768 0.4828270098806797)"><path d="M182.33 10.48 C190.56 5.06, 204.05 1.41, 210.48 0.1 M182.33 10.48 C192.44 6.35, 204.57 2.35, 210.48 0.1" fill="none" stroke="#1e1e1e" stroke-width="2"></path></g><g transform="translate(236.1491615041191 443.48805171971253) rotate(0 104.61353691157768 0.4828270098806797)"><path d="M182.25 -10.04 C190.36 -8.08, 203.88 -4.34, 210.48 0.1 M182.25 -10.04 C192.57 -6.28, 204.73 -2.39, 210.48 0.1" fill="none" stroke="#1e1e1e" stroke-width="2"></path></g></g><mask></mask><g transform="translate(272.2000815948336 303.020895035952) rotate(0 89.23990631103516 62.5)"><text direction="ltr" dominant-baseline="text-before-edge" fill="#1e1e1e" font-family="Virgil, Segoe UI Emoji" font-size="20px" style="white-space: pre;" text-anchor="start" x="0" y="0">/subscribe</text><text direction="ltr" dominant-baseline="text-before-edge" fill="#1e1e1e" font-family="Virgil, Segoe UI Emoji" font-size="20px" style="white-space: pre;" text-anchor="start" x="0" y="25"></text><text direction="ltr" dominant-baseline="text-before-edge" fill="#1e1e1e" font-family="Virgil, Segoe UI Emoji" font-size="20px" style="white-space: pre;" text-anchor="start" x="0" y="50">(gets initial prices</text><text direction="ltr" dominant-baseline="text-before-edge" fill="#1e1e1e" font-family="Virgil, Segoe UI Emoji" font-size="20px" style="white-space: pre;" text-anchor="start" x="0" y="75">and subscribes to</text><text direction="ltr" dominant-baseline="text-before-edge" fill="#1e1e1e" font-family="Virgil, Segoe UI Emoji" font-size="20px" style="white-space: pre;" text-anchor="start" x="0" y="100">feed)</text></g><g stroke-linecap="round" transform="translate(470.31465591944243 260.7945000011241) rotate(0 106.39453125 292.3810662019501)"><path d="M32 0 C66.47 2.97, 96.47 -0.12, 180.79 0 M32 0 C72.31 0.71, 112.73 1.09, 180.79 0 M180.79 0 C201.35 0.59, 213.57 11.93, 212.79 32 M180.79 0 C199.98 1.71, 214.08 8.75, 212.79 32 M212.79 32 C212.72 211.51, 212.17 389.81, 212.79 552.76 M212.79 32 C211.22 157.46, 210.81 283.3, 212.79 552.76 M212.79 552.76 C211.71 573.55, 200.93 584.85, 180.79 584.76 M212.79 552.76 C212.31 575.42, 203.87 583.06, 180.79 584.76 M180.79 584.76 C139.92 583.89, 97.38 585.65, 32 584.76 M180.79 584.76 C125.89 584.59, 71.75 584.55, 32 584.76 M32 584.76 C10.16 585.59, 0.01 575.53, 0 552.76 M32 584.76 C10.66 584.33, -1.55 575.89, 0 552.76 M0 552.76 C-0.11 408.3, -1.05 264.24, 0 32 M0 552.76 C-1.69 435.87, -1.63 318.35, 0 32 M0 32 C-1.64 11.71, 12.31 1.08, 32 0 M0 32 C2.23 9.07, 12.86 1.84, 32 0" fill="none" stroke="#1e1e1e" stroke-width="2"></path></g><g transform="translate(505.23847336577774 323.75196205241446) rotate(0 83.77995300292969 62.5)"><text direction="ltr" dominant-baseline="text-before-edge" fill="#1e1e1e" font-family="Virgil, Segoe UI Emoji" font-size="20px" style="white-space: pre;" text-anchor="start" x="0" y="0">API Gateway</text><text direction="ltr" dominant-baseline="text-before-edge" fill="#1e1e1e" font-family="Virgil, Segoe UI Emoji" font-size="20px" style="white-space: pre;" text-anchor="start" x="0" y="25">&amp; Load Balancer</text><text direction="ltr" dominant-baseline="text-before-edge" fill="#1e1e1e" font-family="Virgil, Segoe UI Emoji" font-size="20px" style="white-space: pre;" text-anchor="start" x="0" y="50">- routing</text><text direction="ltr" dominant-baseline="text-before-edge" fill="#1e1e1e" font-family="Virgil, Segoe UI Emoji" font-size="20px" style="white-space: pre;" text-anchor="start" x="0" y="75">- authentication</text><text direction="ltr" dominant-baseline="text-before-edge" fill="#1e1e1e" font-family="Virgil, Segoe UI Emoji" font-size="20px" style="white-space: pre;" text-anchor="start" x="0" y="100">- rate limiting</text></g><g stroke-linecap="round"><g transform="translate(703.1221613313933 432.4914618560142) rotate(0 116.92782630300144 -1.204961730855075)"><path d="M-0.75 -0.36 C38.18 -0.71, 195.55 -2.48, 234.67 -2.77 M1.06 -1.59 C39.8 -1.71, 195.46 -1.59, 234.15 -1.43" fill="none" stroke="#1e1e1e" stroke-width="2"></path></g><g transform="translate(703.1221613313933 432.4914618560142) rotate(0 116.92782630300144 -1.204961730855075)"><path d="M205.94 8.77 C216.47 6.31, 227.52 1.12, 234.15 -1.43 M205.94 8.77 C214.71 5.57, 224.67 2.59, 234.15 -1.43" fill="none" stroke="#1e1e1e" stroke-width="2"></path></g><g transform="translate(703.1221613313933 432.4914618560142) rotate(0 116.92782630300144 -1.204961730855075)"><path d="M205.98 -11.75 C216.38 -6.16, 227.42 -3.3, 234.15 -1.43 M205.98 -11.75 C214.8 -8.27, 224.74 -4.58, 234.15 -1.43" fill="none" stroke="#1e1e1e" stroke-width="2"></path></g></g><mask></mask><g stroke-linecap="round" transform="translate(965.1041017541679 308.6794290300968) rotate(0 167.23280526761846 116.62194406415028)"><path d="M32 0 C95.8 -1.3, 160.94 -1.01, 302.47 0 M32 0 C130.63 -0.13, 227.92 -0.04, 302.47 0 M302.47 0 C324.92 -1.67, 335.34 9.95, 334.47 32 M302.47 0 C321.99 1.95, 335.8 11.05, 334.47 32 M334.47 32 C334.68 77.06, 332.89 119.93, 334.47 201.24 M334.47 32 C332.95 89.32, 333.34 147.13, 334.47 201.24 M334.47 201.24 C335.98 221.1, 323.51 234.21, 302.47 233.24 M334.47 201.24 C335.21 224.46, 322.24 235.09, 302.47 233.24 M302.47 233.24 C215.8 233.87, 128.74 234.09, 32 233.24 M302.47 233.24 C228.05 234.68, 153.62 233.97, 32 233.24 M32 233.24 C9.32 234.81, -0.47 223.4, 0 201.24 M32 233.24 C9.61 235.37, -1.07 222, 0 201.24 M0 201.24 C2.26 156.12, 3.26 112.86, 0 32 M0 201.24 C2.21 143.27, 2.36 83.52, 0 32 M0 32 C1.91 12.26, 8.73 -0.09, 32 0 M0 32 C1.47 11.58, 12.17 0.46, 32 0" fill="none" stroke="#1e1e1e" stroke-width="2"></path></g><g transform="translate(1038.2011648342864 375.3013730942471) rotate(0 94.1357421875 50)"><text direction="ltr" dominant-baseline="text-before-edge" fill="#1e1e1e" font-family="Virgil, Segoe UI Emoji" font-size="20px" style="white-space: pre;" text-anchor="middle" x="94.1357421875" y="0">Symbol Service</text><text direction="ltr" dominant-baseline="text-before-edge" fill="#1e1e1e" font-family="Virgil, Segoe UI Emoji" font-size="20px" style="white-space: pre;" text-anchor="middle" x="94.1357421875" y="25"></text><text direction="ltr" dominant-baseline="text-before-edge" fill="#1e1e1e" font-family="Virgil, Segoe UI Emoji" font-size="20px" style="white-space: pre;" text-anchor="middle" x="94.1357421875" y="50">Tracks:</text><text direction="ltr" dominant-baseline="text-before-edge" fill="#1e1e1e" font-family="Virgil, Segoe UI Emoji" font-size="20px" style="white-space: pre;" text-anchor="middle" x="94.1357421875" y="75">Symbol -&gt; Set&lt;userId&gt;</text></g><g stroke-linecap="round"><g transform="translate(946.6217266469353 463.5119609493195) rotate(0 -358.76094557408715 1.0026034003785753)"><path d="M0.33 0.76 C-119.35 1.1, -598.42 2.02, -717.98 2.36 M-0.95 0.12 C-120.84 0.06, -599.74 0.3, -719.17 0.42" fill="none" stroke="#1e1e1e" stroke-width="2"></path></g><g transform="translate(946.6217266469353 463.5119609493195) rotate(0 -358.76094557408715 1.0026034003785753)"><path d="M-690.99 -9.86 C-698.4 -7.38, -707.78 -2.66, -719.17 0.42 M-690.99 -9.86 C-700.76 -6.75, -711.12 -2.54, -719.17 0.42" fill="none" stroke="#1e1e1e" stroke-width="2"></path></g><g transform="translate(946.6217266469353 463.5119609493195) rotate(0 -358.76094557408715 1.0026034003785753)"><path d="M-690.98 10.66 C-698.44 6.81, -707.83 5.19, -719.17 0.42 M-690.98 10.66 C-700.56 6.32, -710.92 3.08, -719.17 0.42" fill="none" stroke="#1e1e1e" stroke-width="2"></path></g></g><mask></mask><g transform="translate(736.1115373543466 485.1837713767818) rotate(0 97.85990905761719 12.5)"><text direction="ltr" dominant-baseline="text-before-edge" fill="#1e1e1e" font-family="Virgil, Segoe UI Emoji" font-size="20px" style="white-space: pre;" text-anchor="start" x="0" y="0">SSE (price updates)</text></g><g stroke-linecap="round" transform="translate(1443.5606819711315 73.51642694684779) rotate(0 206.18050859452387 120.60326796357754)"><path d="M258.75 30.25 C286.82 43.81, 313.68 62.61, 360.61 90.75 M258.75 30.25 C280.3 44.57, 303.73 56.99, 360.61 90.75 M360.61 90.75 C411.67 119.82, 410.83 122.21, 360.61 151.25 M360.61 90.75 C412.48 120.33, 410.09 121.88, 360.61 151.25 M360.61 151.25 C335.5 164.9, 311.52 181.51, 258.75 210.96 M360.61 151.25 C337.84 166.05, 313.83 179.52, 258.75 210.96 M258.75 210.96 C207.41 242.5, 208.49 241.25, 155.25 210.96 M258.75 210.96 C205.6 240.72, 205.94 240.64, 155.25 210.96 M155.25 210.96 C128.03 194.57, 97.82 176.84, 51.75 151.25 M155.25 210.96 C115.79 189.72, 76.64 165.97, 51.75 151.25 M51.75 151.25 C-0.85 119.5, 1.33 122, 51.75 90.75 M51.75 151.25 C-1.77 123.3, -1.4 122.05, 51.75 90.75 M51.75 90.75 C75.08 78.65, 95.17 65.43, 155.25 30.25 M51.75 90.75 C92.29 68.22, 131.61 45.04, 155.25 30.25 M155.25 30.25 C206.24 -0.74, 207.03 1.8, 258.75 30.25 M155.25 30.25 C208.15 -0.18, 207.38 0.1, 258.75 30.25" fill="none" stroke="#1e1e1e" stroke-width="2"></path></g><g transform="translate(1591.0474206433935 181.81806092863656) rotate(0 58.603515625 12.5)"><text direction="ltr" dominant-baseline="text-before-edge" fill="#1e1e1e" font-family="Virgil, Segoe UI Emoji" font-size="20px" style="white-space: pre;" text-anchor="middle" x="58.603515625" y="0">Symbol Cache</text></g><g transform="translate(1452.5082213349592 10) rotate(0 234.70980834960938 25)"><text direction="ltr" dominant-baseline="text-before-edge" fill="#1e1e1e" font-family="Virgil, Segoe UI Emoji" font-size="20px" style="white-space: pre;" text-anchor="start" x="0" y="0">Key: Symbol </text><text direction="ltr" dominant-baseline="text-before-edge" fill="#1e1e1e" font-family="Virgil, Segoe UI Emoji" font-size="20px" style="white-space: pre;" text-anchor="start" x="0" y="25">Value: JSON with symbol details + current price</text></g><g stroke-linecap="round"><g transform="translate(1311.7515346299365 378.36458262665474) rotate(0 99.20246400744509 -67.46841604922889)"><path d="M0.53 -0.43 C33.32 -22.58, 164.37 -111.53, 197.46 -133.92 M-0.66 -1.7 C32.45 -24.08, 166.45 -113.57, 199.68 -135.51" fill="none" stroke="#1e1e1e" stroke-width="2"></path></g><g transform="translate(1311.7515346299365 378.36458262665474) rotate(0 99.20246400744509 -67.46841604922889)"><path d="M181.88 -111.35 C187.7 -121.6, 196.45 -127.46, 199.68 -135.51 M181.88 -111.35 C186.84 -118.29, 193.29 -126.83, 199.68 -135.51" fill="none" stroke="#1e1e1e" stroke-width="2"></path></g><g transform="translate(1311.7515346299365 378.36458262665474) rotate(0 99.20246400744509 -67.46841604922889)"><path d="M170.52 -128.44 C180.24 -132.65, 193.04 -132.44, 199.68 -135.51 M170.52 -128.44 C179.01 -129.9, 189.06 -133.03, 199.68 -135.51" fill="none" stroke="#1e1e1e" stroke-width="2"></path></g></g><mask></mask><g transform="translate(1266.1467493208252 233.34128963492185) rotate(0 108.26988983154297 25)"><text direction="ltr" dominant-baseline="text-before-edge" fill="#1e1e1e" font-family="Virgil, Segoe UI Emoji" font-size="20px" style="white-space: pre;" text-anchor="start" x="0" y="0">Queries (initial prices </text><text direction="ltr" dominant-baseline="text-before-edge" fill="#1e1e1e" font-family="Virgil, Segoe UI Emoji" font-size="20px" style="white-space: pre;" text-anchor="start" x="0" y="25">on subscription)</text></g><g stroke-linecap="round" transform="translate(2028.4406162861737 357.758121123461) rotate(0 158.99204359673047 91.78681198910078)"><path d="M32 0 C88.54 -1.75, 143.59 -2.43, 285.98 0 M32 0 C122.78 0.91, 214.72 0.38, 285.98 0 M285.98 0 C306.12 0.09, 317.57 11.82, 317.98 32 M285.98 0 C309.06 -1.7, 317.66 11.77, 317.98 32 M317.98 32 C320.57 72.15, 320.26 112.96, 317.98 151.57 M317.98 32 C316.8 67.91, 317 104.72, 317.98 151.57 M317.98 151.57 C318 174.34, 307.32 183.2, 285.98 183.57 M317.98 151.57 C316.43 174.7, 306.78 184.52, 285.98 183.57 M285.98 183.57 C221.08 181.93, 155.79 183.69, 32 183.57 M285.98 183.57 C196.61 186, 107.55 186.05, 32 183.57 M32 183.57 C12.31 184.66, 1.94 171.52, 0 151.57 M32 183.57 C12.86 185.41, -2.23 172.8, 0 151.57 M0 151.57 C-0.07 107.29, -1.21 64.56, 0 32 M0 151.57 C-0.43 104.96, 0.18 58.08, 0 32 M0 32 C-1.95 12.12, 12.27 1.95, 32 0 M0 32 C-1.38 8.81, 10.24 0.47, 32 0" fill="none" stroke="#1e1e1e" stroke-width="2"></path></g><g transform="translate(2091.8857848829043 437.0449331125618) rotate(0 95.546875 12.5)"><text direction="ltr" dominant-baseline="text-before-edge" fill="#1e1e1e" font-family="Virgil, Segoe UI Emoji" font-size="20px" style="white-space: pre;" text-anchor="middle" x="95.546875" y="0">Symbol Price Processor</text></g><g stroke-linecap="round" transform="translate(2732.351366400118 355.40602391188077) rotate(0 145.17876843868748 94.99884226153995)"><path d="M32 0 C93.15 1.57, 151.74 -0.21, 258.36 0 M32 0 C108.09 0.56, 185.03 1.02, 258.36 0 M258.36 0 C281.21 -1.48, 290.07 11.63, 290.36 32 M258.36 0 C280.43 1.89, 288.8 12.51, 290.36 32 M290.36 32 C291.22 71.17, 290.75 111.85, 290.36 158 M290.36 32 C290.04 67.39, 290.03 101.15, 290.36 158 M290.36 158 C289.01 180.89, 279.22 190.82, 258.36 190 M290.36 158 C289.3 181.46, 278.62 189.42, 258.36 190 M258.36 190 C200.92 189.97, 143.49 190.24, 32 190 M258.36 190 C180.8 191.48, 102.67 190.42, 32 190 M32 190 C12.57 191.59, -1.94 179.24, 0 158 M32 190 C12.14 190.91, 1.5 179.79, 0 158 M0 158 C2.27 126.01, 0.31 92.34, 0 32 M0 158 C-1.95 120.4, -0.18 82.32, 0 32 M0 32 C-1.2 9.05, 10.29 0.41, 32 0 M0 32 C2.2 12.49, 10.49 -1.33, 32 0" fill="none" stroke="#1e1e1e" stroke-width="2"></path></g><g transform="translate(2838.106306713805 437.9048661734207) rotate(0 39.423828125 12.5)"><text direction="ltr" dominant-baseline="text-before-edge" fill="#1e1e1e" font-family="Virgil, Segoe UI Emoji" font-size="20px" style="white-space: pre;" text-anchor="middle" x="39.423828125" y="0">Exchange</text></g><g stroke-linecap="round"><g transform="translate(2719.572113073325 445.74994033678377) rotate(0 -179.97303150410653 0.7409526144458596)"><path d="M-1.18 0.46 C-61.29 0.71, -300.68 0.98, -360.6 1.16 M0.4 -0.34 C-59.32 0.11, -298.47 1.99, -358.23 2.52" fill="none" stroke="#1e1e1e" stroke-width="2"></path></g><g transform="translate(2719.572113073325 445.74994033678377) rotate(0 -179.97303150410653 0.7409526144458596)"><path d="M-330.12 -7.97 C-337.97 -6.13, -347.86 -3.03, -358.23 2.52 M-330.12 -7.97 C-337.94 -5.35, -347.4 -0.94, -358.23 2.52" fill="none" stroke="#1e1e1e" stroke-width="2"></path></g><g transform="translate(2719.572113073325 445.74994033678377) rotate(0 -179.97303150410653 0.7409526144458596)"><path d="M-329.95 12.55 C-337.79 8.13, -347.73 4.95, -358.23 2.52 M-329.95 12.55 C-337.78 8.92, -347.29 7.09, -358.23 2.52" fill="none" stroke="#1e1e1e" stroke-width="2"></path></g></g><mask></mask><g transform="translate(2479.6742322940113 400.3113031728353) rotate(0 68.10993194580078 12.5)"><text direction="ltr" dominant-baseline="text-before-edge" fill="#1e1e1e" font-family="Virgil, Segoe UI Emoji" font-size="20px" style="white-space: pre;" text-anchor="start" x="0" y="0">Price updates</text></g><g stroke-linecap="round"><g transform="translate(1999.871607243927 416.94275072660093) rotate(0 -127.29449728811574 -68.9348568564194)"><path d="M-0.72 0.05 C-43.08 -22.75, -212.68 -114.04, -254.84 -137.18 M1.11 -0.96 C-41.38 -24.09, -213.4 -116.11, -255.92 -138.94" fill="none" stroke="#1e1e1e" stroke-width="2"></path></g><g transform="translate(1999.871607243927 416.94275072660093) rotate(0 -127.29449728811574 -68.9348568564194)"><path d="M-226.22 -134.67 C-233.42 -136.31, -239.66 -135.43, -255.92 -138.94 M-226.22 -134.67 C-232.6 -134.67, -240.31 -135.65, -255.92 -138.94" fill="none" stroke="#1e1e1e" stroke-width="2"></path></g><g transform="translate(1999.871607243927 416.94275072660093) rotate(0 -127.29449728811574 -68.9348568564194)"><path d="M-235.92 -116.58 C-240.68 -122.61, -244.54 -126.17, -255.92 -138.94 M-235.92 -116.58 C-240.08 -120.71, -245.6 -125.78, -255.92 -138.94" fill="none" stroke="#1e1e1e" stroke-width="2"></path></g></g><mask></mask><g transform="translate(1873.7274643523047 294.9396697824013) rotate(0 40.97996520996094 12.5)"><text direction="ltr" dominant-baseline="text-before-edge" fill="#1e1e1e" font-family="Virgil, Segoe UI Emoji" font-size="20px" style="white-space: pre;" text-anchor="start" x="0" y="0">Updates</text></g><g transform="translate(767.355268601204 389.03279652463607) rotate(0 51.209938049316406 12.5)"><text direction="ltr" dominant-baseline="text-before-edge" fill="#1e1e1e" font-family="Virgil, Segoe UI Emoji" font-size="20px" style="white-space: pre;" text-anchor="start" x="0" y="0">subscribe()</text></g><g stroke-linecap="round"><g transform="translate(707.6795241858122 648.8176410849956) rotate(0 129.87386636088775 44.11267239925246)"><path d="M-0.17 0.58 C43.03 15.59, 216.95 74.44, 260.14 89.21 M-1.72 -0.17 C41.28 14.61, 215.54 73.02, 259.39 87.6" fill="none" stroke="#1e1e1e" stroke-width="2"></path></g><g transform="translate(707.6795241858122 648.8176410849956) rotate(0 129.87386636088775 44.11267239925246)"><path d="M229.4 88.4 C241.64 88.79, 253.59 86.49, 259.39 87.6 M229.4 88.4 C241.55 87.93, 251.6 87.39, 259.39 87.6" fill="none" stroke="#1e1e1e" stroke-width="2"></path></g><g transform="translate(707.6795241858122 648.8176410849956) rotate(0 129.87386636088775 44.11267239925246)"><path d="M235.91 68.94 C245.56 76.63, 255.06 81.65, 259.39 87.6 M235.91 68.94 C245.62 75.91, 253.2 82.77, 259.39 87.6" fill="none" stroke="#1e1e1e" stroke-width="2"></path></g></g><mask></mask><g stroke-linecap="round"><g transform="translate(232.58488405108028 504.2770966832977) rotate(0 109.89263004273954 -0.04744355488583096)"><path d="M0.39 0.98 C36.91 1.03, 182.37 0.92, 218.97 0.87 M-0.87 0.46 C36.05 0.13, 184.55 -0.46, 221.26 -0.75" fill="none" stroke="#1e1e1e" stroke-width="2"></path></g><g transform="translate(232.58488405108028 504.2770966832977) rotate(0 109.89263004273954 -0.04744355488583096)"><path d="M193.13 9.67 C202.76 5.25, 210.76 4.04, 221.26 -0.75 M193.13 9.67 C202.71 5.65, 213.12 1.81, 221.26 -0.75" fill="none" stroke="#1e1e1e" stroke-width="2"></path></g><g transform="translate(232.58488405108028 504.2770966832977) rotate(0 109.89263004273954 -0.04744355488583096)"><path d="M193.01 -10.85 C202.77 -9.41, 210.81 -4.76, 221.26 -0.75 M193.01 -10.85 C202.79 -7.38, 213.24 -3.73, 221.26 -0.75" fill="none" stroke="#1e1e1e" stroke-width="2"></path></g></g><mask></mask><g transform="translate(215.39735147524289 523.2235993516551) rotate(0 121.58992767333984 25)"><text direction="ltr" dominant-baseline="text-before-edge" fill="#1e1e1e" font-family="Virgil, Segoe UI Emoji" font-size="20px" style="white-space: pre;" text-anchor="start" x="0" y="0">POST + DELETE /order</text><text direction="ltr" dominant-baseline="text-before-edge" fill="#1e1e1e" font-family="Virgil, Segoe UI Emoji" font-size="20px" style="white-space: pre;" text-anchor="start" x="0" y="25">GET /orders</text></g><g transform="translate(743.3605959546835 717.3065861054565) rotate(0 67.12993621826172 37.5)"><text direction="ltr" dominant-baseline="text-before-edge" fill="#1e1e1e" font-family="Virgil, Segoe UI Emoji" font-size="20px" style="white-space: pre;" text-anchor="start" x="0" y="0">createOrder()</text><text direction="ltr" dominant-baseline="text-before-edge" fill="#1e1e1e" font-family="Virgil, Segoe UI Emoji" font-size="20px" style="white-space: pre;" text-anchor="start" x="0" y="25">deleteOrder()</text><text direction="ltr" dominant-baseline="text-before-edge" fill="#1e1e1e" font-family="Virgil, Segoe UI Emoji" font-size="20px" style="white-space: pre;" text-anchor="start" x="0" y="50">getOrders()</text></g><g stroke-linecap="round" transform="translate(979.5545494320863 651.9924933368529) rotate(0 163.9612217241738 114.22912540394009)"><path d="M32 0 C116.64 -2.52, 200.87 -2.29, 295.92 0 M32 0 C104.63 -0.29, 177.24 -1.01, 295.92 0 M295.92 0 C315.9 1.56, 327.46 11.49, 327.92 32 M295.92 0 C316.2 2.12, 326.85 10.09, 327.92 32 M327.92 32 C327.69 72.81, 328.69 115.48, 327.92 196.46 M327.92 32 C327.4 89.4, 327.55 145.02, 327.92 196.46 M327.92 196.46 C329.83 219.39, 315.32 228.36, 295.92 228.46 M327.92 196.46 C329.39 218.7, 318.76 228.92, 295.92 228.46 M295.92 228.46 C228.24 229.29, 157.57 228.75, 32 228.46 M295.92 228.46 C214.86 228.64, 135.98 228.84, 32 228.46 M32 228.46 C9.47 226.84, -0.38 218.2, 0 196.46 M32 228.46 C12.86 230.28, -0.17 216.46, 0 196.46 M0 196.46 C-0.68 144.47, 0.89 90.25, 0 32 M0 196.46 C-1.88 160.72, -1.85 125.93, 0 32 M0 32 C0.44 10.5, 11.34 0.17, 32 0 M0 32 C0.28 8.92, 8.71 0.01, 32 0" fill="none" stroke="#1e1e1e" stroke-width="2"></path></g><g transform="translate(1085.2316056188897 758.536848595897) rotate(0 65.77993774414062 12.5)"><text direction="ltr" dominant-baseline="text-before-edge" fill="#1e1e1e" font-family="Virgil, Segoe UI Emoji" font-size="20px" style="white-space: pre;" text-anchor="start" x="0" y="0">Order Service</text></g><g stroke-linecap="round"><g transform="translate(1314.1155002872215 767.732183970209) rotate(0 95.79123168866204 0.49291694012663356)"><path d="M-0.55 -0.3 C31.45 -0.01, 159.25 1.12, 191.28 1.48 M1.35 -1.5 C33.23 -1.55, 158.59 -0.63, 190.17 -0.38" fill="none" stroke="#1e1e1e" stroke-width="2"></path></g><g transform="translate(1314.1155002872215 767.732183970209) rotate(0 95.79123168866204 0.49291694012663356)"><path d="M161.9 9.67 C168.19 6.89, 176.27 5.01, 190.17 -0.38 M161.9 9.67 C171.74 6.77, 182.69 2.66, 190.17 -0.38" fill="none" stroke="#1e1e1e" stroke-width="2"></path></g><g transform="translate(1314.1155002872215 767.732183970209) rotate(0 95.79123168866204 0.49291694012663356)"><path d="M162.05 -10.85 C168.26 -8.73, 176.31 -5.7, 190.17 -0.38 M162.05 -10.85 C171.83 -6.12, 182.73 -2.6, 190.17 -0.38" fill="none" stroke="#1e1e1e" stroke-width="2"></path></g></g><mask></mask><g stroke-linecap="round"><g transform="translate(1854.1541289908487 770.4623689076834) rotate(0 436.4976978411646 -115.58644986493118)"><path d="M-0.31 0.49 C145.29 -37.84, 727.45 -191.66, 873 -230.31 M1.73 -0.29 C147.22 -38.93, 726.98 -193.66, 872.06 -231.98" fill="none" stroke="#1e1e1e" stroke-width="2"></path></g><g transform="translate(1854.1541289908487 770.4623689076834) rotate(0 436.4976978411646 -115.58644986493118)"><path d="M847.45 -214.83 C854.56 -219.1, 861.42 -223.47, 872.06 -231.98 M847.45 -214.83 C854.25 -219.43, 860.95 -223.74, 872.06 -231.98" fill="none" stroke="#1e1e1e" stroke-width="2"></path></g><g transform="translate(1854.1541289908487 770.4623689076834) rotate(0 436.4976978411646 -115.58644986493118)"><path d="M842.18 -234.66 C850.58 -233.89, 858.78 -233.23, 872.06 -231.98 M842.18 -234.66 C850.33 -233.73, 858.51 -232.46, 872.06 -231.98" fill="none" stroke="#1e1e1e" stroke-width="2"></path></g></g><mask></mask><g transform="translate(2226.024173198544 688.7146847928816) rotate(0 174.79986572265625 12.5)"><text direction="ltr" dominant-baseline="text-before-edge" fill="#1e1e1e" font-family="Virgil, Segoe UI Emoji" font-size="20px" style="white-space: pre;" text-anchor="start" x="0" y="0">Execute order creations / cancels </text></g><g stroke-linecap="round" transform="translate(1519.6693763227372 647.7510283395459) rotate(0 156.69140625 118.0625)"><path d="M32 0 C106.68 -1.1, 183.26 -0.38, 281.38 0 M32 0 C116.65 -2.09, 201.71 -2.5, 281.38 0 M281.38 0 C304.04 1, 311.84 12.67, 313.38 32 M281.38 0 C301.31 1.05, 311.5 11.87, 313.38 32 M313.38 32 C312.93 99.73, 315.91 161.7, 313.38 204.13 M313.38 32 C315.14 83.03, 314.1 133.29, 313.38 204.13 M313.38 204.13 C313.41 227.26, 303.72 235.97, 281.38 236.13 M313.38 204.13 C313.76 225.55, 304.5 235.7, 281.38 236.13 M281.38 236.13 C232.43 236.77, 178.96 237.45, 32 236.13 M281.38 236.13 C201.37 237.27, 121.68 237.75, 32 236.13 M32 236.13 C10.91 235.46, 1.38 226.36, 0 204.13 M32 236.13 C11.28 234.09, 1.37 227.42, 0 204.13 M0 204.13 C-0.24 168.49, 1.46 132.65, 0 32 M0 204.13 C-1.06 151.04, -0.04 97.65, 0 32 M0 32 C-1.27 10.78, 11.85 -1.87, 32 0 M0 32 C-0.8 12.07, 11.83 0.66, 32 0" fill="none" stroke="#1e1e1e" stroke-width="2"></path></g><g transform="translate(1576.9564856977372 753.3135283395459) rotate(0 99.404296875 12.5)"><text direction="ltr" dominant-baseline="text-before-edge" fill="#1e1e1e" font-family="Virgil, Segoe UI Emoji" font-size="20px" style="white-space: pre;" text-anchor="middle" x="99.404296875" y="0">Order Dispatch Gateway</text></g><g transform="translate(1339.7269401044755 788.0088408395459) rotate(0 67.12993621826172 25)"><text direction="ltr" dominant-baseline="text-before-edge" fill="#1e1e1e" font-family="Virgil, Segoe UI Emoji" font-size="20px" style="white-space: pre;" text-anchor="start" x="0" y="0">createOrder()</text><text direction="ltr" dominant-baseline="text-before-edge" fill="#1e1e1e" font-family="Virgil, Segoe UI Emoji" font-size="20px" style="white-space: pre;" text-anchor="start" x="0" y="25">deleteOrder()</text></g><g stroke-linecap="round" transform="translate(913.2889611844234 1086.8096801640786) rotate(0 133.1893516127518 144.91196769801354)"><path d="M101.72 4.57 C114.69 -1.15, 132.08 -1.4, 146.71 -0.07 C161.35 1.25, 176.44 5.99, 189.55 12.5 C202.65 19.01, 214.96 27.95, 225.34 38.99 C235.72 50.02, 245.12 64.51, 251.8 78.72 C258.48 92.92, 263.47 108.69, 265.42 124.22 C267.38 139.75, 266.06 156.79, 263.52 171.9 C260.97 187, 257.09 201.22, 250.14 214.85 C243.2 228.48, 232.66 242.94, 221.84 253.65 C211.02 264.37, 198.47 273.23, 185.22 279.14 C171.97 285.05, 156.87 288.16, 142.36 289.11 C127.85 290.06, 111.96 288.78, 98.16 284.85 C84.35 280.91, 71.45 274.26, 59.55 265.5 C47.65 256.75, 35.59 244.8, 26.77 232.33 C17.95 219.85, 11.1 205.74, 6.61 190.64 C2.12 175.54, -0.51 157.4, -0.17 141.73 C0.16 126.05, 3.54 111.26, 8.62 96.57 C13.7 81.88, 21.55 65.96, 30.32 53.57 C39.09 41.18, 47.22 30.74, 61.25 22.21 C75.27 13.69, 103.47 5.63, 114.44 2.43 C125.42 -0.77, 126.91 0.75, 127.1 3.02 M134.89 0.68 C148.64 -1.67, 163.88 1.5, 177.47 6.76 C191.05 12.03, 205.37 22.6, 216.41 32.28 C227.45 41.97, 236.24 52.12, 243.7 64.85 C251.16 77.58, 257.41 93.21, 261.15 108.65 C264.9 124.09, 267.15 141.6, 266.19 157.48 C265.23 173.36, 261.28 189.75, 255.4 203.91 C249.51 218.07, 241.02 230.98, 230.91 242.45 C220.8 253.92, 207.42 265.2, 194.72 272.71 C182.01 280.22, 168.88 284.98, 154.71 287.5 C140.53 290.02, 123.75 290.63, 109.65 287.81 C95.55 285, 82.67 278.01, 70.1 270.61 C57.53 263.21, 43.96 254.72, 34.22 243.44 C24.49 232.15, 17.46 217.65, 11.71 202.89 C5.97 188.13, 1.02 170.72, -0.25 154.86 C-1.52 139, 0.49 122.64, 4.09 107.73 C7.69 92.83, 13.46 78.47, 21.34 65.42 C29.22 52.38, 39.61 39.18, 51.35 29.47 C63.1 19.76, 78.21 12.28, 91.82 7.14 C105.43 2.01, 126.08 -0.71, 133 -1.35 C139.92 -1.98, 133.22 0.84, 133.33 3.33" fill="none" stroke="#1e1e1e" stroke-width="2"></path></g><g transform="translate(1002.695703464959 1219.2534128277407) rotate(0 43.603515625 12.5)"><text direction="ltr" dominant-baseline="text-before-edge" fill="#1e1e1e" font-family="Virgil, Segoe UI Emoji" font-size="20px" style="white-space: pre;" text-anchor="middle" x="43.603515625" y="0">Orders DB</text></g><g stroke-linecap="round"><g transform="translate(1158.2941983535416 892.4944483054169) rotate(0 -31.677558095592303 91.97736663118303)"><path d="M-0.51 -0.9 C-10.84 29.91, -51.93 153.55, -62.56 184.55 M1.42 1.25 C-8.95 31.73, -52.54 152.38, -63.09 182.75" fill="none" stroke="#1e1e1e" stroke-width="2"></path></g><g transform="translate(1158.2941983535416 892.4944483054169) rotate(0 -31.677558095592303 91.97736663118303)"><path d="M0.3 29.09 C-1.33 22.81, 0.96 12.35, -0.51 -0.9 M0.3 29.09 C-0.66 17.62, 0.66 5.65, -0.51 -0.9" fill="none" stroke="#1e1e1e" stroke-width="2"></path></g><g transform="translate(1158.2941983535416 892.4944483054169) rotate(0 -31.677558095592303 91.97736663118303)"><path d="M-19.17 22.59 C-15.88 18.05, -8.65 9.23, -0.51 -0.9 M-19.17 22.59 C-12.38 13.64, -3.28 4.26, -0.51 -0.9" fill="none" stroke="#1e1e1e" stroke-width="2"></path></g><g transform="translate(1158.2941983535416 892.4944483054169) rotate(0 -31.677558095592303 91.97736663118303)"><path d="M-63.33 152.75 C-64.84 161.68, -62.28 166.42, -63.09 182.75 M-63.33 152.75 C-64.24 165.27, -62.5 177.29, -63.09 182.75" fill="none" stroke="#1e1e1e" stroke-width="2"></path></g><g transform="translate(1158.2941983535416 892.4944483054169) rotate(0 -31.677558095592303 91.97736663118303)"><path d="M-43.99 159.61 C-50.38 166.72, -52.73 169.72, -63.09 182.75 M-43.99 159.61 C-52.59 169.48, -58.59 178.75, -63.09 182.75" fill="none" stroke="#1e1e1e" stroke-width="2"></path></g></g><mask></mask><g transform="translate(886.4908329467903 967.3975011885377) rotate(0 111.87991333007812 12.5)"><text direction="ltr" dominant-baseline="text-before-edge" fill="#1e1e1e" font-family="Virgil, Segoe UI Emoji" font-size="20px" style="white-space: pre;" text-anchor="start" x="0" y="0">Update / query orders</text></g><g stroke-linecap="round" transform="translate(2056.7890067238145 1032.502730649183) rotate(0 147.80564180134252 87.84863200912878)"><path d="M32 0 C118.54 0.47, 202.46 0.12, 263.61 0 M32 0 C114.42 -1.65, 196 -0.39, 263.61 0 M263.61 0 C283 -0.09, 296.89 11.46, 295.61 32 M263.61 0 C286.45 0.46, 294.73 9.82, 295.61 32 M295.61 32 C296.46 66.01, 296.7 100.91, 295.61 143.7 M295.61 32 C295.32 64.4, 293.92 94.04, 295.61 143.7 M295.61 143.7 C295.24 165.44, 286.86 177.28, 263.61 175.7 M295.61 143.7 C295.44 163.7, 285.51 175.72, 263.61 175.7 M263.61 175.7 C192.06 177.51, 117.47 178.06, 32 175.7 M263.61 175.7 C173.61 173.06, 85.27 173.78, 32 175.7 M32 175.7 C11.34 175.87, 0.24 163.51, 0 143.7 M32 175.7 C8.71 175.7, 0.39 164.32, 0 143.7 M0 143.7 C-1.93 116.61, 1.15 91.93, 0 32 M0 143.7 C0.39 106.37, 0.01 70.5, 0 32 M0 32 C-0.74 9.81, 12.33 -0.63, 32 0 M0 32 C-1.31 8.6, 9.88 0.66, 32 0" fill="none" stroke="#1e1e1e" stroke-width="2"></path></g><g transform="translate(2140.244062587657 1107.8513626583117) rotate(0 64.3505859375 12.5)"><text direction="ltr" dominant-baseline="text-before-edge" fill="#1e1e1e" font-family="Virgil, Segoe UI Emoji" font-size="20px" style="white-space: pre;" text-anchor="middle" x="64.3505859375" y="0">Trade Processor</text></g><g stroke-linecap="round"><g transform="translate(2132.5054815864855 1225.5380236210185) rotate(0 -475.18274614383336 74.66389496341208)"><path d="M-0.98 0.63 C-88.68 25.53, -368.88 140.18, -526.91 149.98 C-684.95 159.78, -878.81 74.22, -949.2 59.43 M0.7 -0.09 C-87 24.42, -369 138.13, -527.34 148.2 C-685.68 158.26, -878.57 75.15, -949.35 60.31" fill="none" stroke="#1e1e1e" stroke-width="2"></path></g><g transform="translate(2132.5054815864855 1225.5380236210185) rotate(0 -475.18274614383336 74.66389496341208)"><path d="M-919.41 58.49 C-925.51 60.33, -932.62 61.06, -949.35 60.31 M-919.41 58.49 C-927.26 59.1, -932.56 59.96, -949.35 60.31" fill="none" stroke="#1e1e1e" stroke-width="2"></path></g><g transform="translate(2132.5054815864855 1225.5380236210185) rotate(0 -475.18274614383336 74.66389496341208)"><path d="M-925.25 78.16 C-930.04 75.35, -935.76 71.38, -949.35 60.31 M-925.25 78.16 C-931.94 74.19, -935.89 70.52, -949.35 60.31" fill="none" stroke="#1e1e1e" stroke-width="2"></path></g></g><mask></mask><g transform="translate(1927.7560130119814 1312.9318260051732) rotate(0 71.27993774414062 12.5)"><text direction="ltr" dominant-baseline="text-before-edge" fill="#1e1e1e" font-family="Virgil, Segoe UI Emoji" font-size="20px" style="white-space: pre;" text-anchor="start" x="0" y="0">Update orders</text></g><g stroke-linecap="round"><g transform="translate(2885.5621280991068 558.7145503026077) rotate(0 -260.3818370722224 258.5996814608725)"><path d="M1.17 -0.83 C-85.6 85.42, -432.44 431.83, -519.62 518.16 M0.32 1.34 C-86.59 87.21, -433.31 430.36, -519.97 516.54" fill="none" stroke="#1e1e1e" stroke-width="2"></path></g><g transform="translate(2885.5621280991068 558.7145503026077) rotate(0 -260.3818370722224 258.5996814608725)"><path d="M-507.17 489.4 C-513.31 501.81, -515.21 508.34, -519.97 516.54 M-507.17 489.4 C-510.13 497.66, -514.94 505.11, -519.97 516.54" fill="none" stroke="#1e1e1e" stroke-width="2"></path></g><g transform="translate(2885.5621280991068 558.7145503026077) rotate(0 -260.3818370722224 258.5996814608725)"><path d="M-492.72 503.97 C-504.46 510.95, -511.89 511.91, -519.97 516.54 M-492.72 503.97 C-500.04 507.99, -509.11 511.13, -519.97 516.54" fill="none" stroke="#1e1e1e" stroke-width="2"></path></g></g><mask></mask><g transform="translate(2561.2460577124743 900.3446111128615) rotate(0 74.68993377685547 12.5)"><text direction="ltr" dominant-baseline="text-before-edge" fill="#1e1e1e" font-family="Virgil, Segoe UI Emoji" font-size="20px" style="white-space: pre;" text-anchor="start" x="0" y="0">Trade updates</text></g><g stroke-linecap="round" transform="translate(1460.6980403703087 485.35910918073205) rotate(0 172.75057718334529 58.1354987660219)"><path d="M29.07 0 C142.61 3.07, 256.9 3.09, 316.43 0 M29.07 0 C121.02 1.48, 213.32 0.74, 316.43 0 M316.43 0 C336.14 0.08, 347.05 9.32, 345.5 29.07 M316.43 0 C333.57 1.67, 347.34 11.94, 345.5 29.07 M345.5 29.07 C345.44 44.93, 346.62 56.81, 345.5 87.2 M345.5 29.07 C345.77 42.81, 346.34 57.68, 345.5 87.2 M345.5 87.2 C346.04 104.81, 337 117.98, 316.43 116.27 M345.5 87.2 C343.42 104.42, 333.8 114.13, 316.43 116.27 M316.43 116.27 C224.07 117.18, 130.31 115.72, 29.07 116.27 M316.43 116.27 C229.66 115.64, 144.3 114.89, 29.07 116.27 M29.07 116.27 C8.99 117.49, 1.02 107.16, 0 87.2 M29.07 116.27 C8.69 114.29, -0.23 105.2, 0 87.2 M0 87.2 C-1 74.19, -0.78 56.72, 0 29.07 M0 87.2 C0.12 74.4, -0.75 62.83, 0 29.07 M0 29.07 C1.15 7.74, 11.57 0.15, 29.07 0 M0 29.07 C-0.53 8.86, 9.97 1.38, 29.07 0" fill="none" stroke="#1e1e1e" stroke-width="2"></path></g><g transform="translate(1576.500375366154 530.994607946754) rotate(0 56.9482421875 12.5)"><text direction="ltr" dominant-baseline="text-before-edge" fill="#1e1e1e" font-family="Virgil, Segoe UI Emoji" font-size="20px" style="white-space: pre;" text-anchor="middle" x="56.9482421875" y="0">Redis pub/sub</text></g><g stroke-linecap="round"><g transform="translate(2023.5407015172455 475.81706514501275) rotate(0 -98.41254677175402 29.6945176438104)"><path d="M0.78 0.24 C-32.22 9.98, -164.35 48.91, -197.28 58.95 M-0.26 -0.68 C-33.54 9.19, -165.59 50.35, -198.47 60.25" fill="none" stroke="#1e1e1e" stroke-width="2"></path></g><g transform="translate(2023.5407015172455 475.81706514501275) rotate(0 -98.41254677175402 29.6945176438104)"><path d="M-174.53 42.17 C-182.77 48.14, -192.63 55.52, -198.47 60.25 M-174.53 42.17 C-183.62 49.25, -192.35 56.07, -198.47 60.25" fill="none" stroke="#1e1e1e" stroke-width="2"></path></g><g transform="translate(2023.5407015172455 475.81706514501275) rotate(0 -98.41254677175402 29.6945176438104)"><path d="M-168.51 61.79 C-179.02 60.66, -191.07 60.89, -198.47 60.25 M-168.51 61.79 C-180.04 61.21, -191.12 60.38, -198.47 60.25" fill="none" stroke="#1e1e1e" stroke-width="2"></path></g></g><mask></mask><g transform="translate(1899.3552598061283 530.1283685284507) rotate(0 32.559959411621094 12.5)"><text direction="ltr" dominant-baseline="text-before-edge" fill="#1e1e1e" font-family="Virgil, Segoe UI Emoji" font-size="20px" style="white-space: pre;" text-anchor="start" x="0" y="0">Publish</text></g><g stroke-linecap="round"><g transform="translate(1318.4418505765057 455.954197314928) rotate(0 61.60443701403801 23.965880076112285)"><path d="M0.02 1.08 C20.73 9.13, 103.25 40.02, 123.81 47.84 M-1.43 0.6 C19.21 8.89, 102.48 41.2, 123.18 49.32" fill="none" stroke="#1e1e1e" stroke-width="2"></path></g><g transform="translate(1318.4418505765057 455.954197314928) rotate(0 61.60443701403801 23.965880076112285)"><path d="M93.19 48.64 C102.84 49.82, 108.73 49.32, 123.18 49.32 M93.19 48.64 C101.34 49.63, 112.24 50.09, 123.18 49.32" fill="none" stroke="#1e1e1e" stroke-width="2"></path></g><g transform="translate(1318.4418505765057 455.954197314928) rotate(0 61.60443701403801 23.965880076112285)"><path d="M100.65 29.52 C108.28 35.71, 112.22 40.22, 123.18 49.32 M100.65 29.52 C106.68 36.31, 115.31 42.59, 123.18 49.32" fill="none" stroke="#1e1e1e" stroke-width="2"></path></g></g><mask></mask><g transform="translate(1352.8340168053069 438.6876658243127) rotate(0 113.3598861694336 12.5)"><text direction="ltr" dominant-baseline="text-before-edge" fill="#1e1e1e" font-family="Virgil, Segoe UI Emoji" font-size="20px" style="white-space: pre;" text-anchor="start" x="0" y="0">Subscribe / unsubscribe</text></g><g stroke-linecap="round"><g transform="translate(1447.1195036296044 545.4306387201541) rotate(0 -67.77379720298222 -26.305063926550474)"><path d="M0.2 0.05 C-22.34 -8.74, -111.8 -44.2, -134.62 -52.83 M-1.16 -0.97 C-23.82 -9.57, -112.87 -42.64, -135.08 -51.41" fill="none" stroke="#1e1e1e" stroke-width="2"></path></g><g transform="translate(1447.1195036296044 545.4306387201541) rotate(0 -67.77379720298222 -26.305063926550474)"><path d="M-105.08 -50.95 C-115.5 -49.51, -126.46 -53.17, -135.08 -51.41 M-105.08 -50.95 C-116.87 -51.64, -127.64 -50.8, -135.08 -51.41" fill="none" stroke="#1e1e1e" stroke-width="2"></path></g><g transform="translate(1447.1195036296044 545.4306387201541) rotate(0 -67.77379720298222 -26.305063926550474)"><path d="M-112.4 -31.78 C-120.24 -37.07, -128.64 -47.44, -135.08 -51.41 M-112.4 -31.78 C-121.61 -39.68, -129.65 -45.99, -135.08 -51.41" fill="none" stroke="#1e1e1e" stroke-width="2"></path></g></g><mask></mask><g transform="translate(1188.796121733259 547.7830138592362) rotate(0 110.9898910522461 12.5)"><text direction="ltr" dominant-baseline="text-before-edge" fill="#1e1e1e" font-family="Virgil, Segoe UI Emoji" font-size="20px" style="white-space: pre;" text-anchor="start" x="0" y="0">Consume price updates</text></g><g stroke-linecap="round" transform="translate(1416.6724135165819 1022.6791844056315) rotate(0 132.2202920324894 124.03962627353394)"><path d="M182.88 9.59 C196.08 13.02, 209.72 23.63, 220.65 32.6 C231.57 41.58, 241.58 51.85, 248.43 63.45 C255.28 75.05, 259.34 88.97, 261.75 102.21 C264.17 115.45, 265.05 129.57, 262.93 142.92 C260.81 156.26, 255.58 170.36, 249.02 182.28 C242.45 194.2, 234.02 205.21, 223.54 214.42 C213.05 223.63, 199.05 232.18, 186.09 237.54 C173.13 242.9, 160.03 245.56, 145.78 246.6 C131.53 247.65, 114.78 246.74, 100.56 243.81 C86.35 240.88, 72.42 236, 60.48 229.01 C48.54 222.02, 37.68 212.38, 28.91 201.88 C20.14 191.39, 12.79 178.86, 7.84 166.03 C2.9 153.19, -0.54 138.29, -0.75 124.87 C-0.96 111.46, 2.06 98.25, 6.6 85.53 C11.13 72.81, 17.83 59.19, 26.48 48.55 C35.12 37.92, 46.7 29.17, 58.47 21.72 C70.24 14.27, 83.18 7.36, 97.09 3.87 C111.01 0.39, 126.27 -0.63, 141.96 0.8 C157.65 2.24, 182.27 9.53, 191.25 12.48 C200.23 15.43, 196.97 16.66, 195.85 18.5 M150.09 0.51 C163.79 0.05, 177.13 5.3, 189.68 11.37 C202.23 17.44, 215.17 27.36, 225.39 36.95 C235.61 46.53, 244.9 56.89, 251 68.9 C257.11 80.91, 260.13 95.8, 262.04 109.03 C263.94 122.26, 264.93 135.15, 262.44 148.29 C259.94 161.43, 254.63 176.2, 247.07 187.87 C239.52 199.54, 228.26 209.53, 217.12 218.32 C205.97 227.1, 193.31 235.63, 180.21 240.59 C167.11 245.54, 152.77 247.42, 138.51 248.04 C124.24 248.66, 108.63 248.15, 94.63 244.31 C80.63 240.48, 66.24 233.19, 54.53 225.05 C42.81 216.9, 32.71 206.17, 24.34 195.44 C15.98 184.71, 8.25 173.38, 4.34 160.67 C0.44 147.96, 0.18 132.65, 0.91 119.18 C1.64 105.71, 3.54 92.52, 8.73 79.86 C13.91 67.19, 22.8 53.43, 32.04 43.2 C41.29 32.97, 51.84 25.36, 64.21 18.48 C76.58 11.6, 92.01 4.99, 106.27 1.92 C120.52 -1.15, 142.88 -0.44, 149.75 0.05 C156.62 0.53, 148.13 2.6, 147.49 4.86" fill="none" stroke="#1e1e1e" stroke-width="2"></path></g><g transform="translate(1486.7064576299324 1121.5095498053047) rotate(0 62.1923828125 25)"><text direction="ltr" dominant-baseline="text-before-edge" fill="#1e1e1e" font-family="Virgil, Segoe UI Emoji" font-size="20px" style="white-space: pre;" text-anchor="middle" x="62.1923828125" y="0">External Order </text><text direction="ltr" dominant-baseline="text-before-edge" fill="#1e1e1e" font-family="Virgil, Segoe UI Emoji" font-size="20px" style="white-space: pre;" text-anchor="middle" x="62.1923828125" y="25">Metadata DB</text></g><g stroke-linecap="round"><g transform="translate(1300.720803894846 890.2710901289029) rotate(0 79.36272438455626 77.16168208210092)"><path d="M-0.72 -0.97 C25.54 24.6, 131.73 128.53, 158.5 154.57 M1.1 1.14 C27.1 26.83, 131 127.2, 157.43 152.58" fill="none" stroke="#1e1e1e" stroke-width="2"></path></g><g transform="translate(1300.720803894846 890.2710901289029) rotate(0 79.36272438455626 77.16168208210092)"><path d="M130.02 140.4 C138.94 144.82, 151.38 151.73, 157.43 152.58 M130.02 140.4 C140.65 145.19, 150.93 149.46, 157.43 152.58" fill="none" stroke="#1e1e1e" stroke-width="2"></path></g><g transform="translate(1300.720803894846 890.2710901289029) rotate(0 79.36272438455626 77.16168208210092)"><path d="M144.26 125.63 C147.91 135.57, 154.95 148.1, 157.43 152.58 M144.26 125.63 C149.48 135.93, 154.35 145.81, 157.43 152.58" fill="none" stroke="#1e1e1e" stroke-width="2"></path></g></g><mask></mask><g transform="translate(1399.4647198846428 939.7907858892686) rotate(0 35.54997253417969 12.5)"><text direction="ltr" dominant-baseline="text-before-edge" fill="#1e1e1e" font-family="Virgil, Segoe UI Emoji" font-size="20px" style="white-space: pre;" text-anchor="start" x="0" y="0">Update</text></g><g stroke-linecap="round"><g transform="translate(2042.3193139970422 1106.148517864167) rotate(0 -178.01148723727283 9.845845657855534)"><path d="M1.15 0.95 C-58.17 4.08, -296.63 15.87, -356.11 19 M0.29 0.4 C-59.17 3.65, -297.67 16.73, -357.11 20.17" fill="none" stroke="#1e1e1e" stroke-width="2"></path></g><g transform="translate(2042.3193139970422 1106.148517864167) rotate(0 -178.01148723727283 9.845845657855534)"><path d="M-26.49 12.62 C-17.16 8.92, -12.13 6.28, 1.15 0.95 M-26.49 12.62 C-17.49 9.65, -9.6 4.8, 1.15 0.95" fill="none" stroke="#1e1e1e" stroke-width="2"></path></g><g transform="translate(2042.3193139970422 1106.148517864167) rotate(0 -178.01148723727283 9.845845657855534)"><path d="M-27.52 -7.88 C-17.86 -5.82, -12.54 -2.7, 1.15 0.95 M-27.52 -7.88 C-18.19 -4.67, -9.99 -3.35, 1.15 0.95" fill="none" stroke="#1e1e1e" stroke-width="2"></path></g><g transform="translate(2042.3193139970422 1106.148517864167) rotate(0 -178.01148723727283 9.845845657855534)"><path d="M-329.54 8.35 C-335.68 11.79, -346.18 15.75, -357.11 20.17 M-329.54 8.35 C-337.13 12.27, -345.85 14.49, -357.11 20.17" fill="none" stroke="#1e1e1e" stroke-width="2"></path></g><g transform="translate(2042.3193139970422 1106.148517864167) rotate(0 -178.01148723727283 9.845845657855534)"><path d="M-328.39 28.84 C-334.9 26.52, -345.72 24.73, -357.11 20.17 M-328.39 28.84 C-336.35 26.59, -345.42 22.64, -357.11 20.17" fill="none" stroke="#1e1e1e" stroke-width="2"></path></g></g><mask></mask><g transform="translate(1850.7510087557944 1082.0998144821606) rotate(0 27.189971923828125 12.5)"><text direction="ltr" dominant-baseline="text-before-edge" fill="#1e1e1e" font-family="Virgil, Segoe UI Emoji" font-size="20px" style="white-space: pre;" text-anchor="start" x="0" y="0">Query</text></g><g transform="translate(1397.538536462394 1276.6869032678806) rotate(0 181.15985107421875 25)"><text direction="ltr" dominant-baseline="text-before-edge" fill="#1e1e1e" font-family="Virgil, Segoe UI Emoji" font-size="20px" style="white-space: pre;" text-anchor="start" x="0" y="0">Key-value store, mapping: </text><text direction="ltr" dominant-baseline="text-before-edge" fill="#1e1e1e" font-family="Virgil, Segoe UI Emoji" font-size="20px" style="white-space: pre;" text-anchor="start" x="0" y="25">externalOrderId -&gt; (orderId, userId)</text></g><g stroke-linecap="round" transform="translate(2579.0095374119514 1236.6285249558605) rotate(0 127.81075051563721 57.32710359052089)"><path d="M28.66 0 C92.35 1.14, 158.27 0.29, 226.96 0 M28.66 0 C69.72 -2.63, 111.71 -2.62, 226.96 0 M226.96 0 C246.5 -0.16, 256.29 9.72, 255.62 28.66 M226.96 0 C246.35 -1.75, 253.66 9.56, 255.62 28.66 M255.62 28.66 C255.56 48.01, 253.58 64.29, 255.62 85.99 M255.62 28.66 C255.48 48.5, 255.81 69.46, 255.62 85.99 M255.62 85.99 C254.67 105.6, 245.32 113.8, 226.96 114.65 M255.62 85.99 C257.53 104.37, 244.76 112.58, 226.96 114.65 M226.96 114.65 C173.09 112.6, 121.7 115.65, 28.66 114.65 M226.96 114.65 C186.55 114.44, 146.72 115.41, 28.66 114.65 M28.66 114.65 C11.02 114.73, 0.53 107.05, 0 85.99 M28.66 114.65 C8.57 114.98, -0.17 104.39, 0 85.99 M0 85.99 C0.13 72.34, 0.96 60.54, 0 28.66 M0 85.99 C0.82 70.15, 0.82 54.58, 0 28.66 M0 28.66 C-1.37 11.43, 7.83 0.35, 28.66 0 M0 28.66 C-1.37 9.44, 10.94 -0.4, 28.66 0" fill="none" stroke="#1e1e1e" stroke-width="2"></path></g><g transform="translate(2627.9531004275887 1281.4556285463814) rotate(0 78.8671875 12.5)"><text direction="ltr" dominant-baseline="text-before-edge" fill="#1e1e1e" font-family="Virgil, Segoe UI Emoji" font-size="20px" style="white-space: pre;" text-anchor="middle" x="78.8671875" y="0">Order Clean-up Job</text></g><g stroke-linecap="round"><g transform="translate(2783.9237335571775 1224.7347673265303) rotate(0 58.303983071671155 -332.66489876667947)"><path d="M0.32 -1.06 C19.74 -111.87, 98.12 -553.41, 117.32 -664.3 M-0.97 1 C18.28 -110.17, 96.94 -554.77, 116.75 -665.89" fill="none" stroke="#1e1e1e" stroke-width="2"></path></g><g transform="translate(2783.9237335571775 1224.7347673265303) rotate(0 58.303983071671155 -332.66489876667947)"><path d="M-4.88 -30.61 C-4.59 -18.52, 0.8 -10.61, 0.32 -1.06 M-4.88 -30.61 C-3.85 -24.55, -2.66 -18.3, 0.32 -1.06" fill="none" stroke="#1e1e1e" stroke-width="2"></path></g><g transform="translate(2783.9237335571775 1224.7347673265303) rotate(0 58.303983071671155 -332.66489876667947)"><path d="M15.33 -27.04 C8.14 -16.22, 6.07 -9.63, 0.32 -1.06 M15.33 -27.04 C12.23 -21.91, 9.26 -16.39, 0.32 -1.06" fill="none" stroke="#1e1e1e" stroke-width="2"></path></g><g transform="translate(2783.9237335571775 1224.7347673265303) rotate(0 58.303983071671155 -332.66489876667947)"><path d="M121.93 -636.34 C118.11 -646.05, 119.68 -659.95, 116.75 -665.89 M121.93 -636.34 C121.34 -642.55, 120.39 -648.48, 116.75 -665.89" fill="none" stroke="#1e1e1e" stroke-width="2"></path></g><g transform="translate(2783.9237335571775 1224.7347673265303) rotate(0 58.303983071671155 -332.66489876667947)"><path d="M101.72 -639.92 C105.38 -648.36, 114.41 -660.94, 116.75 -665.89 M101.72 -639.92 C105.26 -645.21, 108.47 -650.4, 116.75 -665.89" fill="none" stroke="#1e1e1e" stroke-width="2"></path></g></g><mask></mask><g transform="translate(2871.9690861765243 854.384975686171) rotate(0 35.58995819091797 12.5)"><text direction="ltr" dominant-baseline="text-before-edge" fill="#1e1e1e" font-family="Virgil, Segoe UI Emoji" font-size="20px" style="white-space: pre;" text-anchor="start" x="0" y="0">Queries</text></g><g stroke-linecap="round"><g transform="translate(2564.2602003744464 1337.6982543877457) rotate(0 -707.9421687926829 52.95631683054853)"><path d="M-1.09 -1.13 C-112.5 16.17, -432.02 102.85, -667.78 104.8 C-903.54 106.75, -1291.01 26.24, -1415.62 10.57 M0.55 0.89 C-110.57 18.82, -429.49 103.92, -665.62 105.75 C-901.75 107.57, -1291.35 27.47, -1416.25 11.84" fill="none" stroke="#1e1e1e" stroke-width="2"></path></g><g transform="translate(2564.2602003744464 1337.6982543877457) rotate(0 -707.9421687926829 52.95631683054853)"><path d="M-1386.8 6.14 C-1399.21 6.17, -1409.78 10.41, -1416.25 11.84 M-1386.8 6.14 C-1395.25 7.07, -1404.82 9.49, -1416.25 11.84" fill="none" stroke="#1e1e1e" stroke-width="2"></path></g><g transform="translate(2564.2602003744464 1337.6982543877457) rotate(0 -707.9421687926829 52.95631683054853)"><path d="M-1390.03 26.41 C-1401.46 19.19, -1410.86 16.13, -1416.25 11.84 M-1390.03 26.41 C-1397.61 21.42, -1406.24 17.93, -1416.25 11.84" fill="none" stroke="#1e1e1e" stroke-width="2"></path></g></g><mask></mask><g transform="translate(2243.31732038118 1411.9570597035126) rotate(0 40.97996520996094 12.5)"><text direction="ltr" dominant-baseline="text-before-edge" fill="#1e1e1e" font-family="Virgil, Segoe UI Emoji" font-size="20px" style="white-space: pre;" text-anchor="start" x="0" y="0">Updates</text></g><g transform="translate(948.261318382632 1409.5595645807662) rotate(0 437.099609375 112.5)"><text direction="ltr" dominant-baseline="text-before-edge" fill="#1e1e1e" font-family="Virgil, Segoe UI Emoji" font-size="20px" style="white-space: pre;" text-anchor="start" x="0" y="0">Order</text><text direction="ltr" dominant-baseline="text-before-edge" fill="#1e1e1e" font-family="Virgil, Segoe UI Emoji" font-size="20px" style="white-space: pre;" text-anchor="start" x="0" y="25">- orderId</text><text direction="ltr" dominant-baseline="text-before-edge" fill="#1e1e1e" font-family="Virgil, Segoe UI Emoji" font-size="20px" style="white-space: pre;" text-anchor="start" x="0" y="50">- userId</text><text direction="ltr" dominant-baseline="text-before-edge" fill="#1e1e1e" font-family="Virgil, Segoe UI Emoji" font-size="20px" style="white-space: pre;" text-anchor="start" x="0" y="75">- externalOrderId</text><text direction="ltr" dominant-baseline="text-before-edge" fill="#1e1e1e" font-family="Virgil, Segoe UI Emoji" font-size="20px" style="white-space: pre;" text-anchor="start" x="0" y="100">- symbol</text><text direction="ltr" dominant-baseline="text-before-edge" fill="#1e1e1e" font-family="Virgil, Segoe UI Emoji" font-size="20px" style="white-space: pre;" text-anchor="start" x="0" y="125">- shares</text><text direction="ltr" dominant-baseline="text-before-edge" fill="#1e1e1e" font-family="Virgil, Segoe UI Emoji" font-size="20px" style="white-space: pre;" text-anchor="start" x="0" y="150">- price</text><text direction="ltr" dominant-baseline="text-before-edge" fill="#1e1e1e" font-family="Virgil, Segoe UI Emoji" font-size="20px" style="white-space: pre;" text-anchor="start" x="0" y="175">- state (pending | submitted | filled | partially_filled | pending_cancel | cancelled | failed)</text><text direction="ltr" dominant-baseline="text-before-edge" fill="#1e1e1e" font-family="Virgil, Segoe UI Emoji" font-size="20px" style="white-space: pre;" text-anchor="start" x="0" y="200">... (execution data)</text></g></svg>