<svg height="595.6729377102807" version="1.1" viewbox="0 0 1798.8153147453313 595.6729377102807" width="1798.8153147453313" xmlns="http://www.w3.org/2000/svg">
<!-- svg-source:excalidraw -->
<!-- payload-type:application/vnd.excalidraw+json --><!-- payload-version:2 -->
<defs>
<style class="style-fonts">
</style>
</defs>
<rect fill="#ffffff" height="595.6729377102807" width="1798.8153147453313" x="0" y="0"></rect><g stroke-linecap="round" transform="translate(10 342.8086922241703) rotate(0 66.41791896430016 54.30053481342259)"><path d="M27.15 0 C52.33 1.13, 75.88 1.88, 105.69 0 M27.15 0 C44.66 0.52, 63.2 -0.85, 105.69 0 M105.69 0 C122.3 0.03, 131.99 10.75, 132.84 27.15 M105.69 0 C125.95 1.16, 132.84 8.15, 132.84 27.15 M132.84 27.15 C131.65 45.09, 131.82 60.62, 132.84 81.45 M132.84 27.15 C132.17 39.21, 132.96 51.31, 132.84 81.45 M132.84 81.45 C132.63 99.21, 122.99 107.82, 105.69 108.6 M132.84 81.45 C134.59 101.46, 123.89 108.83, 105.69 108.6 M105.69 108.6 C78.97 109.96, 51.47 110.04, 27.15 108.6 M105.69 108.6 C82.55 109.04, 58.92 109.52, 27.15 108.6 M27.15 108.6 C7.81 107.84, -1.43 100.59, 0 81.45 M27.15 108.6 C9.29 108.07, -2.08 101.51, 0 81.45 M0 81.45 C-0.73 63.01, 0.79 40, 0 27.15 M0 81.45 C0.49 62.29, -1.21 42.15, 0 27.15 M0 27.15 C0.08 10.03, 9.24 1.32, 27.15 0 M0 27.15 C-2.08 7.52, 10.19 1.81, 27.15 0" fill="none" stroke="#1e1e1e" stroke-width="2"></path></g><g transform="translate(51.974559589300156 384.60922703759286) rotate(0 24.443359375 12.5)"><text direction="ltr" dominant-baseline="text-before-edge" fill="#1e1e1e" font-family="Virgil, Segoe UI Emoji" font-size="20px" style="white-space: pre;" text-anchor="middle" x="24.443359375" y="0">Client</text></g><g stroke-linecap="round" transform="translate(273.25288456175304 193.8206993682536) rotate(0 91.13351565247496 195.92611917101357)"><path d="M32 0 C69.94 -1.83, 111.56 -2.22, 150.27 0 M32 0 C77.28 0.58, 123.62 1.41, 150.27 0 M150.27 0 C173.48 1.01, 182.27 9.88, 182.27 32 M150.27 0 C171.74 0.23, 183.2 9.24, 182.27 32 M182.27 32 C179.9 152.05, 179.94 270.85, 182.27 359.85 M182.27 32 C182.35 141.99, 182.15 251.95, 182.27 359.85 M182.27 359.85 C183.8 382.85, 171.69 392.05, 150.27 391.85 M182.27 359.85 C183.48 381.29, 171.76 392.98, 150.27 391.85 M150.27 391.85 C107.06 393.53, 65.89 393.15, 32 391.85 M150.27 391.85 C118.02 391.66, 86.29 392.56, 32 391.85 M32 391.85 C10.87 391.39, -1.81 382.89, 0 359.85 M32 391.85 C12.34 389.56, 0.05 379.72, 0 359.85 M0 359.85 C0.68 232.86, 0.9 105.36, 0 32 M0 359.85 C2.02 231.95, 2.06 103.84, 0 32 M0 32 C-1.81 9.33, 11.66 1.57, 32 0 M0 32 C1.7 10.13, 9.75 1.47, 32 0" fill="none" stroke="#1e1e1e" stroke-width="2"></path></g><g transform="translate(301.910814276728 339.74681853926717) rotate(0 62.4755859375 50.00000000000003)"><text direction="ltr" dominant-baseline="text-before-edge" fill="#1e1e1e" font-family="Virgil, Segoe UI Emoji" font-size="20px" style="white-space: pre;" text-anchor="middle" x="62.4755859375" y="0">API Gateway</text><text direction="ltr" dominant-baseline="text-before-edge" fill="#1e1e1e" font-family="Virgil, Segoe UI Emoji" font-size="20px" style="white-space: pre;" text-anchor="middle" x="62.4755859375" y="25">- authentication</text><text direction="ltr" dominant-baseline="text-before-edge" fill="#1e1e1e" font-family="Virgil, Segoe UI Emoji" font-size="20px" style="white-space: pre;" text-anchor="middle" x="62.4755859375" y="50">- rate limiting</text><text direction="ltr" dominant-baseline="text-before-edge" fill="#1e1e1e" font-family="Virgil, Segoe UI Emoji" font-size="20px" style="white-space: pre;" text-anchor="middle" x="62.4755859375" y="75">- routing</text></g><g stroke-linecap="round"><g transform="translate(156.96056167070333 396.98236365657226) rotate(0 56.38036740573851 -0.5551085060830019)"><path d="M-0.84 1.07 C17.98 0.69, 93.53 -1.32, 112.32 -1.68 M0.92 0.59 C19.6 0.31, 92.24 -0.39, 111.14 -0.45" fill="none" stroke="#1e1e1e" stroke-width="2"></path></g><g transform="translate(156.96056167070333 396.98236365657226) rotate(0 56.38036740573851 -0.5551085060830019)"><path d="M27.09 -9.88 C21.96 -8.08, 12.26 -6.1, -0.84 1.07 M27.09 -9.88 C19.57 -5.84, 10.21 -3.44, -0.84 1.07" fill="none" stroke="#1e1e1e" stroke-width="2"></path></g><g transform="translate(156.96056167070333 396.98236365657226) rotate(0 56.38036740573851 -0.5551085060830019)"><path d="M27.6 10.63 C22.24 7.31, 12.42 4.18, -0.84 1.07 M27.6 10.63 C20.01 8.5, 10.5 4.72, -0.84 1.07" fill="none" stroke="#1e1e1e" stroke-width="2"></path></g><g transform="translate(156.96056167070333 396.98236365657226) rotate(0 56.38036740573851 -0.5551085060830019)"><path d="M83.02 10.01 C91.76 6.86, 96.04 3.5, 111.14 -0.45 M83.02 10.01 C92.48 7.12, 100.01 3.08, 111.14 -0.45" fill="none" stroke="#1e1e1e" stroke-width="2"></path></g><g transform="translate(156.96056167070333 396.98236365657226) rotate(0 56.38036740573851 -0.5551085060830019)"><path d="M82.88 -10.51 C91.75 -8.54, 96.06 -6.78, 111.14 -0.45 M82.88 -10.51 C92.29 -7.22, 99.87 -5.08, 111.14 -0.45" fill="none" stroke="#1e1e1e" stroke-width="2"></path></g></g><mask></mask><g stroke-linecap="round" transform="translate(680.0516580664369 329.08496234051313) rotate(0 133.45758189228422 69.29831816266892)"><path d="M32 0 C77.87 -0.66, 125.47 -0.09, 234.92 0 M32 0 C110.09 -1.26, 188.23 -0.83, 234.92 0 M234.92 0 C257.06 -1.24, 268.23 9.6, 266.92 32 M234.92 0 C256.51 -1.94, 267.14 8.78, 266.92 32 M266.92 32 C268.69 48.83, 266.84 65.28, 266.92 106.6 M266.92 32 C267.53 51.56, 268.01 70.97, 266.92 106.6 M266.92 106.6 C267.06 128.91, 257.55 139.76, 234.92 138.6 M266.92 106.6 C268.51 127.88, 257.24 140.83, 234.92 138.6 M234.92 138.6 C169.44 137.47, 102.71 137.3, 32 138.6 M234.92 138.6 C162.65 138.94, 92.65 137.28, 32 138.6 M32 138.6 C10.71 137.32, 1.8 128.18, 0 106.6 M32 138.6 C9.54 140.2, 1.37 129.9, 0 106.6 M0 106.6 C1.01 78.2, 0.3 49.84, 0 32 M0 106.6 C1.17 80.08, 1.41 51.76, 0 32 M0 32 C-0.8 11.95, 9.75 -0.91, 32 0 M0 32 C0.07 9.63, 12.76 1.9, 32 0" fill="none" stroke="#1e1e1e" stroke-width="2"></path></g><g transform="translate(757.6986930837211 385.88328050318205) rotate(0 55.810546875 12.5)"><text direction="ltr" dominant-baseline="text-before-edge" fill="#1e1e1e" font-family="Virgil, Segoe UI Emoji" font-size="20px" style="white-space: pre;" text-anchor="middle" x="55.810546875" y="0">Event Service</text></g><g stroke-linecap="round"><g transform="translate(470.090927387816 406.8464539599445) rotate(0 98.12245388739251 1.71820194628026)"><path d="M-0.51 1.02 C32.54 1.69, 164.58 3.72, 197.37 4.04 M1.43 0.51 C34.49 0.82, 164.67 1.65, 197.02 2.24" fill="none" stroke="#1e1e1e" stroke-width="2"></path></g><g transform="translate(470.090927387816 406.8464539599445) rotate(0 98.12245388739251 1.71820194628026)"><path d="M27.84 -8.79 C23.14 -4.82, 16.05 -4.48, -0.51 1.02 M27.84 -8.79 C20.86 -6.82, 13.72 -4.18, -0.51 1.02" fill="none" stroke="#1e1e1e" stroke-width="2"></path></g><g transform="translate(470.090927387816 406.8464539599445) rotate(0 98.12245388739251 1.71820194628026)"><path d="M27.51 11.73 C22.88 11.07, 15.87 6.78, -0.51 1.02 M27.51 11.73 C20.6 8.34, 13.55 5.63, -0.51 1.02" fill="none" stroke="#1e1e1e" stroke-width="2"></path></g><g transform="translate(470.090927387816 406.8464539599445) rotate(0 98.12245388739251 1.71820194628026)"><path d="M168.71 12.17 C176.8 11.93, 182.5 7.81, 197.02 2.24 M168.71 12.17 C176.49 8.93, 184.13 6.43, 197.02 2.24" fill="none" stroke="#1e1e1e" stroke-width="2"></path></g><g transform="translate(470.090927387816 406.8464539599445) rotate(0 98.12245388739251 1.71820194628026)"><path d="M168.95 -8.35 C176.98 -3.96, 182.63 -3.45, 197.02 2.24 M168.95 -8.35 C176.68 -6.24, 184.25 -3.39, 197.02 2.24" fill="none" stroke="#1e1e1e" stroke-width="2"></path></g></g><mask></mask><g stroke-linecap="round" transform="translate(1122.8556036195332 283.3887598843078) rotate(0 112.92030416412285 108.78506994587957)"><path d="M113.13 0.41 C126.01 -1.17, 140.62 3.35, 153.19 8.04 C165.76 12.74, 178.54 19.84, 188.54 28.58 C198.54 37.32, 207.2 48.89, 213.21 60.49 C219.21 72.08, 223.11 85.1, 224.55 98.14 C225.99 111.18, 225.33 126.03, 221.86 138.73 C218.39 151.42, 212.01 163.96, 203.72 174.32 C195.43 184.69, 183.86 193.9, 172.1 200.93 C160.34 207.96, 146.37 214.03, 133.17 216.5 C119.97 218.97, 106.18 218.2, 92.89 215.74 C79.61 213.28, 65.16 208.65, 53.48 201.75 C41.8 194.84, 30.91 184.77, 22.79 174.33 C14.67 163.89, 8.39 151.6, 4.77 139.1 C1.15 126.6, -0.11 112.41, 1.08 99.33 C2.26 86.26, 5.73 72.43, 11.86 60.63 C18 48.84, 27.89 37.45, 37.9 28.56 C47.91 19.67, 56.71 11.98, 71.91 7.3 C87.1 2.62, 117.14 0.74, 129.06 0.48 C140.98 0.21, 143.65 3.79, 143.44 5.7 M100.98 -0.77 C113.84 -4.26, 128.11 -1.04, 141.32 2.53 C154.52 6.1, 169.29 12.67, 180.2 20.66 C191.11 28.64, 199.43 39.27, 206.78 50.42 C214.13 61.58, 221.16 74.73, 224.29 87.6 C227.43 100.47, 228.15 114.72, 225.6 127.65 C223.04 140.57, 216.04 153.96, 208.96 165.15 C201.88 176.34, 193.52 186.69, 183.11 194.78 C172.7 202.87, 159.71 210.1, 146.49 213.69 C133.27 217.27, 117.23 217.18, 103.77 216.31 C90.3 215.44, 77.6 213.9, 65.7 208.45 C53.8 202.99, 41.99 193.09, 32.37 183.58 C22.76 174.07, 13.51 163.55, 8.01 151.39 C2.5 139.24, -0.45 124, -0.66 110.63 C-0.87 97.26, 1.79 83.19, 6.75 71.19 C11.71 59.19, 19.99 48.46, 29.09 38.63 C38.18 28.8, 49.51 18.74, 61.33 12.22 C73.15 5.71, 93.54 1.22, 100 -0.46 C106.46 -2.14, 100.11 -0.05, 100.08 2.12" fill="none" stroke="#1e1e1e" stroke-width="2"></path></g><g transform="translate(1199.2836871630573 379.75116917960304) rotate(0 36.6455078125 12.5)"><text direction="ltr" dominant-baseline="text-before-edge" fill="#1e1e1e" font-family="Virgil, Segoe UI Emoji" font-size="20px" style="white-space: pre;" text-anchor="middle" x="36.6455078125" y="0">Database</text></g><g stroke-linecap="round"><g transform="translate(955.7234170581864 396.8944771316035) rotate(0 75.14656532720915 0.29807728076474405)"><path d="M0.07 0.12 C25.2 0.17, 125.61 -0.12, 150.78 -0.15 M-1.35 -0.86 C23.67 -0.63, 124.74 0.7, 150.09 1" fill="none" stroke="#1e1e1e" stroke-width="2"></path></g><g transform="translate(955.7234170581864 396.8944771316035) rotate(0 75.14656532720915 0.29807728076474405)"><path d="M28.25 -10.19 C19.95 -6.27, 10.05 -2.67, 0.07 0.12 M28.25 -10.19 C21.41 -8.71, 13.66 -4.99, 0.07 0.12" fill="none" stroke="#1e1e1e" stroke-width="2"></path></g><g transform="translate(955.7234170581864 396.8944771316035) rotate(0 75.14656532720915 0.29807728076474405)"><path d="M28.28 10.33 C20.05 8.1, 10.14 5.53, 0.07 0.12 M28.28 10.33 C21.41 6.76, 13.65 5.42, 0.07 0.12" fill="none" stroke="#1e1e1e" stroke-width="2"></path></g><g transform="translate(955.7234170581864 396.8944771316035) rotate(0 75.14656532720915 0.29807728076474405)"><path d="M121.77 10.9 C130.51 8.72, 137.57 6.25, 150.09 1 M121.77 10.9 C128.83 7.88, 135 6.62, 150.09 1" fill="none" stroke="#1e1e1e" stroke-width="2"></path></g><g transform="translate(955.7234170581864 396.8944771316035) rotate(0 75.14656532720915 0.29807728076474405)"><path d="M122.03 -9.62 C130.61 -5.64, 137.59 -1.95, 150.09 1 M122.03 -9.62 C129.05 -7.58, 135.15 -3.79, 150.09 1" fill="none" stroke="#1e1e1e" stroke-width="2"></path></g></g><mask></mask><g transform="translate(1377.2220778901242 248.47958225775574) rotate(0 65.74993133544922 100)"><text direction="ltr" dominant-baseline="text-before-edge" fill="#1e1e1e" font-family="Virgil, Segoe UI Emoji" font-size="20px" style="white-space: pre;" text-anchor="start" x="0" y="0">Event</text><text direction="ltr" dominant-baseline="text-before-edge" fill="#1e1e1e" font-family="Virgil, Segoe UI Emoji" font-size="20px" style="white-space: pre;" text-anchor="start" x="0" y="25">- id</text><text direction="ltr" dominant-baseline="text-before-edge" fill="#1e1e1e" font-family="Virgil, Segoe UI Emoji" font-size="20px" style="white-space: pre;" text-anchor="start" x="0" y="50">- venueId</text><text direction="ltr" dominant-baseline="text-before-edge" fill="#1e1e1e" font-family="Virgil, Segoe UI Emoji" font-size="20px" style="white-space: pre;" text-anchor="start" x="0" y="75">- performerId</text><text direction="ltr" dominant-baseline="text-before-edge" fill="#1e1e1e" font-family="Virgil, Segoe UI Emoji" font-size="20px" style="white-space: pre;" text-anchor="start" x="0" y="100">- tickets[]</text><text direction="ltr" dominant-baseline="text-before-edge" fill="#1e1e1e" font-family="Virgil, Segoe UI Emoji" font-size="20px" style="white-space: pre;" text-anchor="start" x="0" y="125">- name</text><text direction="ltr" dominant-baseline="text-before-edge" fill="#1e1e1e" font-family="Virgil, Segoe UI Emoji" font-size="20px" style="white-space: pre;" text-anchor="start" x="0" y="150">- description</text><text direction="ltr" dominant-baseline="text-before-edge" fill="#1e1e1e" font-family="Virgil, Segoe UI Emoji" font-size="20px" style="white-space: pre;" text-anchor="start" x="0" y="175">- ....</text></g><g transform="translate(1547.4297951596423 246.65944632439755) rotate(0 51.58995819091797 62.5)"><text direction="ltr" dominant-baseline="text-before-edge" fill="#1e1e1e" font-family="Virgil, Segoe UI Emoji" font-size="20px" style="white-space: pre;" text-anchor="start" x="0" y="0">Venue</text><text direction="ltr" dominant-baseline="text-before-edge" fill="#1e1e1e" font-family="Virgil, Segoe UI Emoji" font-size="20px" style="white-space: pre;" text-anchor="start" x="0" y="25">- id</text><text direction="ltr" dominant-baseline="text-before-edge" fill="#1e1e1e" font-family="Virgil, Segoe UI Emoji" font-size="20px" style="white-space: pre;" text-anchor="start" x="0" y="50">- location</text><text direction="ltr" dominant-baseline="text-before-edge" fill="#1e1e1e" font-family="Virgil, Segoe UI Emoji" font-size="20px" style="white-space: pre;" text-anchor="start" x="0" y="75">- seatMap</text><text direction="ltr" dominant-baseline="text-before-edge" fill="#1e1e1e" font-family="Virgil, Segoe UI Emoji" font-size="20px" style="white-space: pre;" text-anchor="start" x="0" y="100">- ...</text></g><g transform="translate(1694.4554209465032 252.07797672986794) rotate(0 47.17994689941406 37.5)"><text direction="ltr" dominant-baseline="text-before-edge" fill="#1e1e1e" font-family="Virgil, Segoe UI Emoji" font-size="20px" style="white-space: pre;" text-anchor="start" x="0" y="0">Performer</text><text direction="ltr" dominant-baseline="text-before-edge" fill="#1e1e1e" font-family="Virgil, Segoe UI Emoji" font-size="20px" style="white-space: pre;" text-anchor="start" x="0" y="25">- id</text><text direction="ltr" dominant-baseline="text-before-edge" fill="#1e1e1e" font-family="Virgil, Segoe UI Emoji" font-size="20px" style="white-space: pre;" text-anchor="start" x="0" y="50">...</text></g><g transform="translate(500.4303415041544 362.7018156796894) rotate(0 64.13993835449219 12.5)"><text direction="ltr" dominant-baseline="text-before-edge" fill="#1e1e1e" font-family="Virgil, Segoe UI Emoji" font-size="20px" style="white-space: pre;" text-anchor="start" x="0" y="0">view(eventId)</text></g><g stroke-linecap="round" transform="translate(673.9729602040699 81.61372336185264) rotate(0 133.45758189228422 69.29831816266892)"><path d="M32 0 C95.46 1.43, 158.99 1.12, 234.92 0 M32 0 C90.09 1.45, 146.85 0.8, 234.92 0 M234.92 0 C257.3 0.09, 267.06 11.65, 266.92 32 M234.92 0 C257.74 1.34, 268.51 10.61, 266.92 32 M266.92 32 C266.99 57.57, 267.96 81.93, 266.92 106.6 M266.92 32 C266.49 51.31, 265.48 71.93, 266.92 106.6 M266.92 106.6 C268.37 125.94, 256.29 137.32, 234.92 138.6 M266.92 106.6 C268.98 128.22, 255.12 140.2, 234.92 138.6 M234.92 138.6 C163.63 138.5, 90.59 140.15, 32 138.6 M234.92 138.6 C163.31 139.2, 93.77 140.5, 32 138.6 M32 138.6 C12.14 138.13, -0.8 129.21, 0 106.6 M32 138.6 C9.61 137.55, 0.07 126.9, 0 106.6 M0 106.6 C-1.07 77.59, -2.2 48.19, 0 32 M0 106.6 C1 87.81, 0.55 70.18, 0 32 M0 32 C-0.46 10.09, 8.91 -1.62, 32 0 M0 32 C1.22 8.78, 9.24 -1.57, 32 0" fill="none" stroke="#1e1e1e" stroke-width="2"></path></g><g transform="translate(780.2235108463541 138.41204152452156) rotate(0 27.20703125 12.5)"><text direction="ltr" dominant-baseline="text-before-edge" fill="#1e1e1e" font-family="Virgil, Segoe UI Emoji" font-size="20px" style="white-space: pre;" text-anchor="middle" x="27.20703125" y="0">Search</text></g><g stroke-linecap="round"><g transform="translate(471.9508776560607 340.47306822446467) rotate(0 91.06573938924032 -87.90528581908586)"><path d="M-0.12 -0.21 C30.14 -29.74, 151.13 -147.18, 181.65 -176.28 M-1.65 -1.36 C28.41 -30.8, 149.72 -145.78, 180.46 -174.99" fill="none" stroke="#1e1e1e" stroke-width="2"></path></g><g transform="translate(471.9508776560607 340.47306822446467) rotate(0 91.06573938924032 -87.90528581908586)"><path d="M12.96 -27.2 C8.8 -19.72, 4.35 -9.11, -0.12 -0.21 M12.96 -27.2 C8.49 -16.8, 3.02 -6.02, -0.12 -0.21" fill="none" stroke="#1e1e1e" stroke-width="2"></path></g><g transform="translate(471.9508776560607 340.47306822446467) rotate(0 91.06573938924032 -87.90528581908586)"><path d="M27.25 -12.47 C18.6 -9.53, 9.75 -3.44, -0.12 -0.21 M27.25 -12.47 C17.3 -7.7, 6.36 -2.56, -0.12 -0.21" fill="none" stroke="#1e1e1e" stroke-width="2"></path></g><g transform="translate(471.9508776560607 340.47306822446467) rotate(0 91.06573938924032 -87.90528581908586)"><path d="M167.08 -148.14 C170.64 -157.16, 174.31 -163.08, 180.46 -174.99 M167.08 -148.14 C172.72 -158.39, 177.38 -168.23, 180.46 -174.99" fill="none" stroke="#1e1e1e" stroke-width="2"></path></g><g transform="translate(471.9508776560607 340.47306822446467) rotate(0 91.06573938924032 -87.90528581908586)"><path d="M152.95 -163.02 C160.96 -167.46, 168.97 -168.81, 180.46 -174.99 M152.95 -163.02 C164 -167.58, 174.08 -171.72, 180.46 -174.99" fill="none" stroke="#1e1e1e" stroke-width="2"></path></g></g><mask></mask><g transform="translate(164.10218856898598 10) rotate(0 468.1796569824219 12.5)"><text direction="ltr" dominant-baseline="text-before-edge" fill="#1e1e1e" font-family="Virgil, Segoe UI Emoji" font-size="20px" style="white-space: pre;" text-anchor="start" x="0" y="0">GET /search?term={term}&amp;location={location}&amp;type={type}&amp;date={date} -&gt; Partial&lt;Event&gt;[]</text></g><g stroke-linecap="round"><g transform="translate(953.8188527498187 155.73515170866267) rotate(0 94.5310340571823 70.88740422814305)"><path d="M0.92 1 C32.52 24.72, 157.65 118.42, 189.11 141.89 M-0.06 0.47 C31.43 24.46, 156.64 119.71, 188.19 143.49" fill="none" stroke="#1e1e1e" stroke-width="2"></path></g><g transform="translate(953.8188527498187 155.73515170866267) rotate(0 94.5310340571823 70.88740422814305)"><path d="M29.63 9.68 C23.85 7.73, 14.92 6.43, 0.92 1 M29.63 9.68 C21.53 7.76, 12.83 4.51, 0.92 1" fill="none" stroke="#1e1e1e" stroke-width="2"></path></g><g transform="translate(953.8188527498187 155.73515170866267) rotate(0 94.5310340571823 70.88740422814305)"><path d="M17.33 26.11 C14.82 19.78, 9.08 14.21, 0.92 1 M17.33 26.11 C12.96 19.12, 8.01 10.87, 0.92 1" fill="none" stroke="#1e1e1e" stroke-width="2"></path></g><g transform="translate(953.8188527498187 155.73515170866267) rotate(0 94.5310340571823 70.88740422814305)"><path d="M159.53 134.64 C168.61 136.81, 174.61 140.08, 188.19 143.49 M159.53 134.64 C168.91 137.78, 177.69 139.87, 188.19 143.49" fill="none" stroke="#1e1e1e" stroke-width="2"></path></g><g transform="translate(953.8188527498187 155.73515170866267) rotate(0 94.5310340571823 70.88740422814305)"><path d="M171.92 118.29 C177.72 124.81, 180.49 132.33, 188.19 143.49 M171.92 118.29 C177.54 126.47, 182.54 133.54, 188.19 143.49" fill="none" stroke="#1e1e1e" stroke-width="2"></path></g></g><mask></mask><g transform="translate(1019.4699252994566 153.82429193471557) rotate(0 129.81988525390625 25)"><text direction="ltr" dominant-baseline="text-before-edge" fill="#1e1e1e" font-family="Virgil, Segoe UI Emoji" font-size="20px" style="white-space: pre;" text-anchor="middle" x="129.81988525390625" y="0">Query event table directly</text><text direction="ltr" dominant-baseline="text-before-edge" fill="#1e1e1e" font-family="Virgil, Segoe UI Emoji" font-size="20px" style="white-space: pre;" text-anchor="middle" x="129.81988525390625" y="25">for search</text></g></svg>