<svg height="957.7119562049638" version="1.1" viewbox="0 0 1798.8153147453309 957.7119562049638" width="1798.8153147453309" xmlns="http://www.w3.org/2000/svg">
<!-- svg-source:excalidraw -->
<!-- payload-type:application/vnd.excalidraw+json --><!-- payload-version:2 -->
<defs>
<style class="style-fonts">
</style>
</defs>
<rect fill="#ffffff" height="957.7119562049638" width="1798.8153147453309" x="0" y="0"></rect><g stroke-linecap="round" transform="translate(10 342.80869222417186) rotate(0 66.41791896430016 54.30053481342259)"><path d="M27.15 0 C56.04 -1.14, 88.58 -1.17, 105.69 0 M27.15 0 C51.07 -0.62, 77.24 1.16, 105.69 0 M105.69 0 C124.64 1.93, 133.64 8.27, 132.84 27.15 M105.69 0 C122.99 1.12, 132.77 7.37, 132.84 27.15 M132.84 27.15 C134.31 41.83, 132.72 59.87, 132.84 81.45 M132.84 27.15 C133.33 44.89, 133.24 60.67, 132.84 81.45 M132.84 81.45 C131.94 100.17, 122.14 109.46, 105.69 108.6 M132.84 81.45 C131.98 97.61, 123.16 109.74, 105.69 108.6 M105.69 108.6 C82.89 109.23, 58.01 107.77, 27.15 108.6 M105.69 108.6 C86.06 107.51, 64.7 108.2, 27.15 108.6 M27.15 108.6 C9.98 107.55, -0.75 98.82, 0 81.45 M27.15 108.6 C9.55 109.01, 1.01 100.91, 0 81.45 M0 81.45 C-0.03 61.87, 1.94 45.49, 0 27.15 M0 81.45 C0.52 67.18, -1.18 51.78, 0 27.15 M0 27.15 C1.05 10.09, 10.24 -1.41, 27.15 0 M0 27.15 C1.21 7.55, 7.31 -0.45, 27.15 0" fill="none" stroke="#1e1e1e" stroke-width="2"></path></g><g transform="translate(49.36794643012047 384.60922703759445) rotate(0 27.049972534179688 12.5)"><text direction="ltr" dominant-baseline="text-before-edge" fill="#1e1e1e" font-family="Virgil, Segoe UI Emoji" font-size="20px" style="white-space: pre;" text-anchor="middle" x="27.049972534179688" y="0">Client</text></g><g stroke-linecap="round" transform="translate(273.2528845617528 193.8206993682552) rotate(0 91.13351565247496 195.92611917101357)"><path d="M32 0 C59.13 0.9, 84.81 -0.8, 150.27 0 M32 0 C56.67 -0.02, 80.89 -1.38, 150.27 0 M150.27 0 C170.91 0.97, 182.21 9.21, 182.27 32 M150.27 0 C171.29 2.29, 181.47 11.74, 182.27 32 M182.27 32 C181.74 115.38, 182.19 200.6, 182.27 359.85 M182.27 32 C183.29 149.91, 183.03 267.68, 182.27 359.85 M182.27 359.85 C181.52 379.5, 171.06 392.84, 150.27 391.85 M182.27 359.85 C182.38 379.52, 173.89 393.17, 150.27 391.85 M150.27 391.85 C114.96 389.52, 79.88 392.86, 32 391.85 M150.27 391.85 C122.27 391.45, 92.97 391.61, 32 391.85 M32 391.85 C11.1 392.21, 0.88 382.37, 0 359.85 M32 391.85 C11.27 391.08, 1.23 380.94, 0 359.85 M0 359.85 C-2.32 292.8, -1.21 225.32, 0 32 M0 359.85 C2.33 239.08, 2.37 117.1, 0 32 M0 32 C1.06 9.36, 9.16 -0.39, 32 0 M0 32 C1.08 11.99, 12.56 -0.64, 32 0" fill="none" stroke="#1e1e1e" stroke-width="2"></path></g><g transform="translate(284.61647223571214 339.74681853926876) rotate(0 79.76992797851562 50.00000000000003)"><text direction="ltr" dominant-baseline="text-before-edge" fill="#1e1e1e" font-family="Virgil, Segoe UI Emoji" font-size="20px" style="white-space: pre;" text-anchor="middle" x="79.76992797851562" y="0">API Gateway</text><text direction="ltr" dominant-baseline="text-before-edge" fill="#1e1e1e" font-family="Virgil, Segoe UI Emoji" font-size="20px" style="white-space: pre;" text-anchor="middle" x="79.76992797851562" y="25">- authentication</text><text direction="ltr" dominant-baseline="text-before-edge" fill="#1e1e1e" font-family="Virgil, Segoe UI Emoji" font-size="20px" style="white-space: pre;" text-anchor="middle" x="79.76992797851562" y="50">- rate limiting</text><text direction="ltr" dominant-baseline="text-before-edge" fill="#1e1e1e" font-family="Virgil, Segoe UI Emoji" font-size="20px" style="white-space: pre;" text-anchor="middle" x="79.76992797851562" y="75">- routing</text></g><g stroke-linecap="round"><g transform="translate(156.9605616707031 396.9823636565752) rotate(0 56.380367405738525 -0.5551085060830019)"><path d="M-1.01 -1.14 C17.89 -1.08, 94.39 -0.31, 113.43 -0.11 M0.66 0.88 C19.46 0.67, 94.15 -1.28, 112.84 -1.7" fill="none" stroke="#1e1e1e" stroke-width="2"></path></g><g transform="translate(156.9605616707031 396.9823636565752) rotate(0 56.380367405738525 -0.5551085060830019)"><path d="M27.27 -11.16 C16.81 -7.26, 11.88 -4.51, -1.01 -1.14 M27.27 -11.16 C15.74 -6.81, 4.85 -4.05, -1.01 -1.14" fill="none" stroke="#1e1e1e" stroke-width="2"></path></g><g transform="translate(156.9605616707031 396.9823636565752) rotate(0 56.380367405738525 -0.5551085060830019)"><path d="M27.09 9.36 C16.78 7.09, 11.89 3.66, -1.01 -1.14 M27.09 9.36 C15.55 5.58, 4.73 0.19, -1.01 -1.14" fill="none" stroke="#1e1e1e" stroke-width="2"></path></g><g transform="translate(156.9605616707031 396.9823636565752) rotate(0 56.380367405738525 -0.5551085060830019)"><path d="M84.91 9.24 C91.46 7.3, 103.43 3.75, 112.84 -1.7 M84.91 9.24 C95.59 5.5, 106.99 -0.06, 112.84 -1.7" fill="none" stroke="#1e1e1e" stroke-width="2"></path></g><g transform="translate(156.9605616707031 396.9823636565752) rotate(0 56.380367405738525 -0.5551085060830019)"><path d="M84.41 -11.27 C91.02 -7.03, 103.15 -4.42, 112.84 -1.7 M84.41 -11.27 C95.38 -6.88, 106.97 -4.3, 112.84 -1.7" fill="none" stroke="#1e1e1e" stroke-width="2"></path></g></g><mask></mask><g stroke-linecap="round" transform="translate(680.0516580664366 329.08496234051654) rotate(0 133.45758189228422 69.29831816266892)"><path d="M32 0 C77.25 -0.25, 121.23 -0.3, 234.92 0 M32 0 C84.95 -1.54, 137.84 0.01, 234.92 0 M234.92 0 C255.56 0.94, 266.03 10.01, 266.92 32 M234.92 0 C258.07 0.37, 266.15 11.78, 266.92 32 M266.92 32 C265.79 58.53, 267.97 85.19, 266.92 106.6 M266.92 32 C266.36 58.07, 266.68 82.43, 266.92 106.6 M266.92 106.6 C268.91 129.07, 256.09 138.8, 234.92 138.6 M266.92 106.6 C265.06 127.06, 254.66 137.14, 234.92 138.6 M234.92 138.6 C154.37 139.83, 72.52 138.33, 32 138.6 M234.92 138.6 C181.83 139.45, 128.2 138.62, 32 138.6 M32 138.6 C11.74 138.38, -1.86 129.69, 0 106.6 M32 138.6 C10.06 138.03, 1.3 129.23, 0 106.6 M0 106.6 C0 79.13, 0.53 50.74, 0 32 M0 106.6 C-1.15 89.28, 0.07 72.93, 0 32 M0 32 C1.65 10.11, 12.54 -0.19, 32 0 M0 32 C-1.1 10.13, 11.76 0.79, 32 0" fill="none" stroke="#1e1e1e" stroke-width="2"></path></g><g transform="translate(746.9892967214162 385.88328050318546) rotate(0 66.51994323730469 12.5)"><text direction="ltr" dominant-baseline="text-before-edge" fill="#1e1e1e" font-family="Virgil, Segoe UI Emoji" font-size="20px" style="white-space: pre;" text-anchor="middle" x="66.51994323730469" y="0">Event Service</text></g><g stroke-linecap="round"><g transform="translate(470.0909273878158 406.8464539599454) rotate(0 98.12245388739251 1.71820194628026)"><path d="M0.48 -0.47 C33.04 0.01, 163.21 3.52, 195.83 4.02 M-0.72 -1.76 C31.59 -1.13, 161.97 1.34, 194.66 2.21" fill="none" stroke="#1e1e1e" stroke-width="2"></path></g><g transform="translate(470.0909273878158 406.8464539599454) rotate(0 98.12245388739251 1.71820194628026)"><path d="M28.91 -10.07 C18.48 -7.35, 10.48 -3.42, 0.48 -0.47 M28.91 -10.07 C22.1 -7.14, 15.55 -5.76, 0.48 -0.47" fill="none" stroke="#1e1e1e" stroke-width="2"></path></g><g transform="translate(470.0909273878158 406.8464539599454) rotate(0 98.12245388739251 1.71820194628026)"><path d="M28.43 10.45 C17.96 6.13, 10.13 3.02, 0.48 -0.47 M28.43 10.45 C21.75 8.72, 15.31 5.44, 0.48 -0.47" fill="none" stroke="#1e1e1e" stroke-width="2"></path></g><g transform="translate(470.0909273878158 406.8464539599454) rotate(0 98.12245388739251 1.71820194628026)"><path d="M166.25 11.84 C175.12 7.73, 186.62 5.06, 194.66 2.21 M166.25 11.84 C172.37 9.84, 178.72 6.85, 194.66 2.21" fill="none" stroke="#1e1e1e" stroke-width="2"></path></g><g transform="translate(470.0909273878158 406.8464539599454) rotate(0 98.12245388739251 1.71820194628026)"><path d="M166.71 -8.68 C175.62 -5.75, 186.96 -1.38, 194.66 2.21 M166.71 -8.68 C172.69 -6.02, 178.94 -4.34, 194.66 2.21" fill="none" stroke="#1e1e1e" stroke-width="2"></path></g></g><mask></mask><g stroke-linecap="round" transform="translate(1122.855603619533 283.3887598843112) rotate(0 112.92030416412285 108.78506994587957)"><path d="M112.37 -0.33 C125.46 -2.25, 140.21 1.62, 152.73 6.37 C165.26 11.13, 177.39 19.48, 187.51 28.19 C197.63 36.9, 207.1 47.01, 213.46 58.63 C219.83 70.26, 224.18 84.76, 225.69 97.94 C227.2 111.12, 226.29 125.25, 222.53 137.71 C218.78 150.17, 211.26 162.38, 203.17 172.7 C195.08 183.03, 185.24 192.6, 173.98 199.66 C162.72 206.72, 149.14 212.39, 135.62 215.06 C122.09 217.74, 106.24 217.87, 92.85 215.71 C79.46 213.55, 66.93 208.63, 55.29 202.1 C43.65 195.57, 31.35 186.89, 23.02 176.52 C14.69 166.16, 9.08 152.76, 5.32 139.91 C1.55 127.06, -0.46 112.59, 0.45 99.43 C1.36 86.27, 5.01 72.45, 10.78 60.94 C16.55 49.44, 25.19 39.19, 35.07 30.38 C44.96 21.58, 55.73 13.05, 70.1 8.12 C84.46 3.18, 111.27 1.58, 121.25 0.75 C131.24 -0.07, 130.2 1.39, 129.99 3.16 M123.37 -0.07 C136.42 -0.82, 151.84 4.98, 163.73 11.09 C175.63 17.2, 185.74 26.95, 194.73 36.56 C203.72 46.18, 212.36 56.68, 217.69 68.8 C223.02 80.92, 226.37 95.95, 226.69 109.29 C227 122.62, 224.81 136.65, 219.58 148.8 C214.35 160.95, 204.51 172.54, 195.3 182.21 C186.1 191.87, 176.15 201.16, 164.36 206.79 C152.58 212.43, 138.12 215.06, 124.59 216.02 C111.05 216.97, 96.58 215.95, 83.16 212.53 C69.73 209.12, 54.92 203.07, 44.03 195.52 C33.13 187.96, 24.61 178.34, 17.81 167.21 C11.01 156.07, 5.65 141.73, 3.23 128.7 C0.8 115.66, 1.13 101.87, 3.26 89 C5.39 76.12, 9 62.51, 16.01 51.46 C23.01 40.41, 34.11 30.45, 45.3 22.7 C56.49 14.94, 70.05 8.86, 83.14 4.95 C96.24 1.03, 117.43 -0.19, 123.86 -0.8 C130.29 -1.41, 121.87 -0.46, 121.74 1.3" fill="none" stroke="#1e1e1e" stroke-width="2"></path></g><g transform="translate(1171.2692599779984 367.25116917960645) rotate(0 64.6599349975586 25)"><text direction="ltr" dominant-baseline="text-before-edge" fill="#1e1e1e" font-family="Virgil, Segoe UI Emoji" font-size="20px" style="white-space: pre;" text-anchor="middle" x="64.6599349975586" y="0">Database</text><text direction="ltr" dominant-baseline="text-before-edge" fill="#1e1e1e" font-family="Virgil, Segoe UI Emoji" font-size="20px" style="white-space: pre;" text-anchor="middle" x="64.6599349975586" y="25">(PostgreSQL)</text></g><g stroke-linecap="round"><g transform="translate(955.7234170581862 396.89447713160644) rotate(0 75.14656532720915 0.29807728076474405)"><path d="M-0.16 1.19 C24.83 1.53, 124.89 1.32, 149.88 1.16 M-1.7 0.78 C23.09 0.84, 123.64 -0.76, 148.71 -0.67" fill="none" stroke="#1e1e1e" stroke-width="2"></path></g><g transform="translate(955.7234170581862 396.89447713160644) rotate(0 75.14656532720915 0.29807728076474405)"><path d="M28.04 -9.04 C21.57 -6.72, 12.14 -3.88, -0.16 1.19 M28.04 -9.04 C20.26 -5.78, 13.74 -2.94, -0.16 1.19" fill="none" stroke="#1e1e1e" stroke-width="2"></path></g><g transform="translate(955.7234170581862 396.89447713160644) rotate(0 75.14656532720915 0.29807728076474405)"><path d="M28.02 11.48 C21.71 7.7, 12.28 4.44, -0.16 1.19 M28.02 11.48 C20.08 9.27, 13.57 6.62, -0.16 1.19" fill="none" stroke="#1e1e1e" stroke-width="2"></path></g><g transform="translate(955.7234170581862 396.89447713160644) rotate(0 75.14656532720915 0.29807728076474405)"><path d="M120.6 9.8 C131.02 6.03, 138.33 2.73, 148.71 -0.67 M120.6 9.8 C127.69 7.44, 136.2 4.75, 148.71 -0.67" fill="none" stroke="#1e1e1e" stroke-width="2"></path></g><g transform="translate(955.7234170581862 396.89447713160644) rotate(0 75.14656532720915 0.29807728076474405)"><path d="M120.45 -10.72 C130.77 -8.39, 138.12 -5.59, 148.71 -0.67 M120.45 -10.72 C127.74 -7.6, 136.29 -4.81, 148.71 -0.67" fill="none" stroke="#1e1e1e" stroke-width="2"></path></g></g><mask></mask><g transform="translate(1377.222077890124 248.47958225775892) rotate(0 65.74993133544922 100)"><text direction="ltr" dominant-baseline="text-before-edge" fill="#1e1e1e" font-family="Virgil, Segoe UI Emoji" font-size="20px" style="white-space: pre;" text-anchor="start" x="0" y="0">Event</text><text direction="ltr" dominant-baseline="text-before-edge" fill="#1e1e1e" font-family="Virgil, Segoe UI Emoji" font-size="20px" style="white-space: pre;" text-anchor="start" x="0" y="25">- id</text><text direction="ltr" dominant-baseline="text-before-edge" fill="#1e1e1e" font-family="Virgil, Segoe UI Emoji" font-size="20px" style="white-space: pre;" text-anchor="start" x="0" y="50">- venueId</text><text direction="ltr" dominant-baseline="text-before-edge" fill="#1e1e1e" font-family="Virgil, Segoe UI Emoji" font-size="20px" style="white-space: pre;" text-anchor="start" x="0" y="75">- performerId</text><text direction="ltr" dominant-baseline="text-before-edge" fill="#1e1e1e" font-family="Virgil, Segoe UI Emoji" font-size="20px" style="white-space: pre;" text-anchor="start" x="0" y="100">- tickets[]</text><text direction="ltr" dominant-baseline="text-before-edge" fill="#1e1e1e" font-family="Virgil, Segoe UI Emoji" font-size="20px" style="white-space: pre;" text-anchor="start" x="0" y="125">- name</text><text direction="ltr" dominant-baseline="text-before-edge" fill="#1e1e1e" font-family="Virgil, Segoe UI Emoji" font-size="20px" style="white-space: pre;" text-anchor="start" x="0" y="150">- description</text><text direction="ltr" dominant-baseline="text-before-edge" fill="#1e1e1e" font-family="Virgil, Segoe UI Emoji" font-size="20px" style="white-space: pre;" text-anchor="start" x="0" y="175">- ....</text></g><g transform="translate(1547.4297951596418 246.65944632440096) rotate(0 51.59996551275253 62.5)"><text direction="ltr" dominant-baseline="text-before-edge" fill="#1e1e1e" font-family="Virgil, Segoe UI Emoji" font-size="20px" style="white-space: pre;" text-anchor="start" x="0" y="0">Venue</text><text direction="ltr" dominant-baseline="text-before-edge" fill="#1e1e1e" font-family="Virgil, Segoe UI Emoji" font-size="20px" style="white-space: pre;" text-anchor="start" x="0" y="25">- id</text><text direction="ltr" dominant-baseline="text-before-edge" fill="#1e1e1e" font-family="Virgil, Segoe UI Emoji" font-size="20px" style="white-space: pre;" text-anchor="start" x="0" y="50">- location</text><text direction="ltr" dominant-baseline="text-before-edge" fill="#1e1e1e" font-family="Virgil, Segoe UI Emoji" font-size="20px" style="white-space: pre;" text-anchor="start" x="0" y="75">- seatMap</text><text direction="ltr" dominant-baseline="text-before-edge" fill="#1e1e1e" font-family="Virgil, Segoe UI Emoji" font-size="20px" style="white-space: pre;" text-anchor="start" x="0" y="100">- ...</text></g><g transform="translate(1694.4554209465027 252.0779767298709) rotate(0 47.17994689941406 37.5)"><text direction="ltr" dominant-baseline="text-before-edge" fill="#1e1e1e" font-family="Virgil, Segoe UI Emoji" font-size="20px" style="white-space: pre;" text-anchor="start" x="0" y="0">Performer</text><text direction="ltr" dominant-baseline="text-before-edge" fill="#1e1e1e" font-family="Virgil, Segoe UI Emoji" font-size="20px" style="white-space: pre;" text-anchor="start" x="0" y="25">- id</text><text direction="ltr" dominant-baseline="text-before-edge" fill="#1e1e1e" font-family="Virgil, Segoe UI Emoji" font-size="20px" style="white-space: pre;" text-anchor="start" x="0" y="50">...</text></g><g transform="translate(500.43034150415417 362.7018156796921) rotate(0 64.2699395865202 12.5)"><text direction="ltr" dominant-baseline="text-before-edge" fill="#1e1e1e" font-family="Virgil, Segoe UI Emoji" font-size="20px" style="white-space: pre;" text-anchor="start" x="0" y="0">view(eventId)</text></g><g stroke-linecap="round" transform="translate(673.7122488405965 81.61372336185377) rotate(0 133.45758189228422 69.29831816266892)"><path d="M32 0 C87.16 -0.17, 138.81 -2.03, 234.92 0 M32 0 C98.79 -1.53, 166 -0.34, 234.92 0 M234.92 0 C256.34 -1.45, 268.91 11.81, 266.92 32 M234.92 0 C256.07 0.23, 265.06 9.8, 266.92 32 M266.92 32 C265.25 49.67, 266.64 67.38, 266.92 106.6 M266.92 32 C266.86 50.64, 267.08 69.51, 266.92 106.6 M266.92 106.6 C267.44 127.26, 257.32 138.38, 234.92 138.6 M266.92 106.6 C264.77 129.96, 255.64 138.03, 234.92 138.6 M234.92 138.6 C163.84 138.53, 90.74 141.03, 32 138.6 M234.92 138.6 C163.92 136.73, 91.3 137.14, 32 138.6 M32 138.6 C11.6 139.74, 1.65 127.37, 0 106.6 M32 138.6 C12.82 138.38, -1.1 127.39, 0 106.6 M0 106.6 C0.68 81.83, -1.9 53.34, 0 32 M0 106.6 C-0.49 91.56, -1.27 75.46, 0 32 M0 32 C-1.61 9.98, 11.85 1.01, 32 0 M0 32 C0.52 8.66, 10.68 1.93, 32 0" fill="none" stroke="#1e1e1e" stroke-width="2"></path></g><g transform="translate(735.9298939042675 138.4120415245227) rotate(0 71.23993682861328 12.5)"><text direction="ltr" dominant-baseline="text-before-edge" fill="#1e1e1e" font-family="Virgil, Segoe UI Emoji" font-size="20px" style="white-space: pre;" text-anchor="middle" x="71.23993682861328" y="0">Search Service</text></g><g stroke-linecap="round"><g transform="translate(471.95087765606047 340.47306822446717) rotate(0 90.93538370750376 -87.87295048122769)"><path d="M-0.54 0.37 C29.49 -28.68, 150.56 -145.71, 180.88 -175.23 M1.38 -0.48 C31.72 -29.81, 153.24 -147.84, 183.08 -177.08" fill="none" stroke="#1e1e1e" stroke-width="2"></path></g><g transform="translate(471.95087765606047 340.47306822446717) rotate(0 90.93538370750376 -87.87295048122769)"><path d="M12.59 -26.61 C8.28 -18.63, 3.81 -8.04, -0.54 0.37 M12.59 -26.61 C9.74 -21.45, 7.86 -14.34, -0.54 0.37" fill="none" stroke="#1e1e1e" stroke-width="2"></path></g><g transform="translate(471.95087765606047 340.47306822446717) rotate(0 90.93538370750376 -87.87295048122769)"><path d="M26.86 -11.86 C17.55 -9.24, 7.95 -3.95, -0.54 0.37 M26.86 -11.86 C20.97 -9.81, 16.01 -5.88, -0.54 0.37" fill="none" stroke="#1e1e1e" stroke-width="2"></path></g><g transform="translate(471.95087765606047 340.47306822446717) rotate(0 90.93538370750376 -87.87295048122769)"><path d="M170.05 -150.06 C175.56 -161.35, 180.47 -170.15, 183.08 -177.08 M170.05 -150.06 C172.98 -156.67, 176.74 -161.21, 183.08 -177.08" fill="none" stroke="#1e1e1e" stroke-width="2"></path></g><g transform="translate(471.95087765606047 340.47306822446717) rotate(0 90.93538370750376 -87.87295048122769)"><path d="M155.73 -164.75 C166.26 -170.7, 176.32 -174.23, 183.08 -177.08 M155.73 -164.75 C161.71 -168.27, 168.55 -169.63, 183.08 -177.08" fill="none" stroke="#1e1e1e" stroke-width="2"></path></g></g><mask></mask><g transform="translate(164.10218856898575 10) rotate(0 468.1796569824219 12.5)"><text direction="ltr" dominant-baseline="text-before-edge" fill="#1e1e1e" font-family="Virgil, Segoe UI Emoji" font-size="20px" style="white-space: pre;" text-anchor="start" x="0" y="0">GET /search?term={term}&amp;location={location}&amp;type={type}&amp;date={date} -&gt; Partial&lt;Event&gt;[]</text></g><g stroke-linecap="round"><g transform="translate(953.5581413863454 155.68593633389992) rotate(0 94.64702248989141 70.92741489771151)"><path d="M-0.45 -1.01 C31.21 22.64, 157.33 118.78, 188.97 142.45 M1.52 1.07 C33.08 24.33, 156.66 117.17, 187.85 140.63" fill="none" stroke="#1e1e1e" stroke-width="2"></path></g><g transform="translate(953.5581413863454 155.68593633389992) rotate(0 94.64702248989141 70.92741489771151)"><path d="M28.22 7.84 C20.25 5.26, 16.69 3.97, -0.45 -1.01 M28.22 7.84 C21.53 6.09, 14.28 3.6, -0.45 -1.01" fill="none" stroke="#1e1e1e" stroke-width="2"></path></g><g transform="translate(953.5581413863454 155.68593633389992) rotate(0 94.64702248989141 70.92741489771151)"><path d="M15.82 24.19 C10.49 18.1, 9.62 13.25, -0.45 -1.01 M15.82 24.19 C11.79 18.65, 7.36 12.44, -0.45 -1.01" fill="none" stroke="#1e1e1e" stroke-width="2"></path></g><g transform="translate(953.5581413863454 155.68593633389992) rotate(0 94.64702248989141 70.92741489771151)"><path d="M159.15 131.9 C163.74 133.36, 172.67 135.91, 187.85 140.63 M159.15 131.9 C165.68 133.82, 171.48 135.33, 187.85 140.63" fill="none" stroke="#1e1e1e" stroke-width="2"></path></g><g transform="translate(953.5581413863454 155.68593633389992) rotate(0 94.64702248989141 70.92741489771151)"><path d="M171.48 115.5 C173.46 120.48, 179.7 126.6, 187.85 140.63 M171.48 115.5 C175.37 121.22, 178.37 126.46, 187.85 140.63" fill="none" stroke="#1e1e1e" stroke-width="2"></path></g></g><mask></mask><g transform="translate(1019.0899234713819 153.82429193471853) rotate(0 130.1998870819807 25)"><text direction="ltr" dominant-baseline="text-before-edge" fill="#1e1e1e" font-family="Virgil, Segoe UI Emoji" font-size="20px" style="white-space: pre;" text-anchor="middle" x="130.1998870819807" y="0">Query event table directly</text><text direction="ltr" dominant-baseline="text-before-edge" fill="#1e1e1e" font-family="Virgil, Segoe UI Emoji" font-size="20px" style="white-space: pre;" text-anchor="middle" x="130.1998870819807" y="25">for search</text></g><g stroke-linecap="round" transform="translate(714.340067992064 609.7336760568678) rotate(0 132.1456120008337 76.0151989733738)"><path d="M32 0 C85.33 1.71, 142.29 -0.23, 232.29 0 M32 0 C93.46 0.11, 157.03 0.14, 232.29 0 M232.29 0 C254.07 0.2, 265.22 9.62, 264.29 32 M232.29 0 C252.76 -0.84, 264.79 11.08, 264.29 32 M264.29 32 C264.14 63.35, 264.6 90.7, 264.29 120.03 M264.29 32 C264.62 66.73, 264.88 101.03, 264.29 120.03 M264.29 120.03 C262.55 141.88, 254.68 153.07, 232.29 152.03 M264.29 120.03 C265.65 139.74, 254.84 150.53, 232.29 152.03 M232.29 152.03 C188.35 154.36, 141.85 154.56, 32 152.03 M232.29 152.03 C174.52 151.92, 116.78 152.03, 32 152.03 M32 152.03 C11.84 150.39, -1.39 139.63, 0 120.03 M32 152.03 C12.31 149.75, 0.09 143.42, 0 120.03 M0 120.03 C-1.32 101.3, 0.37 80.65, 0 32 M0 120.03 C-0.96 101.12, 0.76 82.07, 0 32 M0 32 C-1.98 10.74, 8.86 1.19, 32 0 M0 32 C-0.12 12.68, 8.74 -1.24, 32 0" fill="none" stroke="#1e1e1e" stroke-width="2"></path></g><g transform="translate(772.6357501833274 673.2488750302416) rotate(0 73.84992980957031 12.5)"><text direction="ltr" dominant-baseline="text-before-edge" fill="#1e1e1e" font-family="Virgil, Segoe UI Emoji" font-size="20px" style="white-space: pre;" text-anchor="middle" x="73.84992980957031" y="0">Booking Service</text></g><g stroke-linecap="round"><g transform="translate(995.9959937233451 667.4172997886226) rotate(0 93.13683258314887 -81.43537361839753)"><path d="M-0.09 0.12 C30.59 -27.22, 154.38 -136.03, 185.31 -163.32 M-1.6 -0.86 C29.35 -28.09, 155.93 -135.05, 187.51 -162.02" fill="none" stroke="#1e1e1e" stroke-width="2"></path></g><g transform="translate(995.9959937233451 667.4172997886226) rotate(0 93.13683258314887 -81.43537361839753)"><path d="M172.67 -135.95 C178.65 -147.97, 183.63 -158.17, 187.51 -162.02 M172.67 -135.95 C176.14 -141.93, 179.9 -148.72, 187.51 -162.02" fill="none" stroke="#1e1e1e" stroke-width="2"></path></g><g transform="translate(995.9959937233451 667.4172997886226) rotate(0 93.13683258314887 -81.43537361839753)"><path d="M159.38 -151.59 C170.77 -157.35, 181.06 -161.29, 187.51 -162.02 M159.38 -151.59 C166.15 -153.79, 173.05 -156.88, 187.51 -162.02" fill="none" stroke="#1e1e1e" stroke-width="2"></path></g></g><mask></mask><g stroke-linecap="round" transform="translate(718.092989650223 860.4572279945851) rotate(0 132.6881140308376 43.62736410518937)"><path d="M21.81 0 C85.96 0.35, 150.3 3.23, 243.56 0 M21.81 0 C75.58 -0.65, 128.22 -0.51, 243.56 0 M243.56 0 C258.54 0.36, 266.26 8.46, 265.38 21.81 M243.56 0 C258.71 -0.77, 266.61 7.03, 265.38 21.81 M265.38 21.81 C265.27 31.97, 266.89 41.51, 265.38 65.44 M265.38 21.81 C265.52 38.45, 265.59 53.35, 265.38 65.44 M265.38 65.44 C266.43 78.68, 256.6 86.87, 243.56 87.25 M265.38 65.44 C266.45 81.3, 260 86.61, 243.56 87.25 M243.56 87.25 C155.87 87.16, 69.58 88.03, 21.81 87.25 M243.56 87.25 C166.12 84.93, 90.5 84.82, 21.81 87.25 M21.81 87.25 C7.35 89.04, -1.48 81.43, 0 65.44 M21.81 87.25 C5.42 86.46, 1.36 81.14, 0 65.44 M0 65.44 C2.06 49.46, 0.02 38.84, 0 21.81 M0 65.44 C-0.47 55.08, 0.38 44.4, 0 21.81 M0 21.81 C-1.68 6.2, 5.51 -1.52, 21.81 0 M0 21.81 C0.18 6.78, 7.86 1.88, 21.81 0" fill="none" stroke="#1e1e1e" stroke-width="2"></path></g><g transform="translate(822.1611390814512 891.5845920997745) rotate(0 28.619964599609375 12.5)"><text direction="ltr" dominant-baseline="text-before-edge" fill="#1e1e1e" font-family="Virgil, Segoe UI Emoji" font-size="20px" style="white-space: pre;" text-anchor="middle" x="28.619964599609375" y="0">Stripe</text></g><g stroke-linecap="round"><g transform="translate(798.5416175919074 849.8575729468148) rotate(0 0.39784809959675727 -39.166549586309884)"><path d="M1.17 -0.71 C1.49 -13.62, 1.03 -65.17, 1.06 -78.21 M0.33 1.53 C0.58 -11.1, 0.16 -63.36, 0.25 -76.61" fill="none" stroke="#1e1e1e" stroke-width="2"></path></g><g transform="translate(798.5416175919074 849.8575729468148) rotate(0 0.39784809959675727 -39.166549586309884)"><path d="M-9.11 -28.9 C-8.1 -22.04, -4.34 -15.05, 1.17 -0.71 M-9.11 -28.9 C-6.45 -21.71, -3.68 -14.32, 1.17 -0.71" fill="none" stroke="#1e1e1e" stroke-width="2"></path></g><g transform="translate(798.5416175919074 849.8575729468148) rotate(0 0.39784809959675727 -39.166549586309884)"><path d="M11.41 -28.91 C7.68 -21.85, 6.71 -14.86, 1.17 -0.71 M11.41 -28.91 C8.99 -21.79, 6.68 -14.4, 1.17 -0.71" fill="none" stroke="#1e1e1e" stroke-width="2"></path></g></g><mask></mask><g stroke-linecap="round"><g transform="translate(898.4760993981602 854.828189837107) rotate(0 -0.08720523290409687 -42.49575007812837)"><path d="M0.27 0.12 C0.13 -14.03, 0.53 -71.36, 0.38 -85.62 M-1.05 -0.86 C-1.4 -14.8, -0.18 -70.5, -0.27 -84.42" fill="none" stroke="#1e1e1e" stroke-width="2"></path></g><g transform="translate(898.4760993981602 854.828189837107) rotate(0 -0.08720523290409687 -42.49575007812837)"><path d="M9.74 -56.13 C6.12 -66.44, 0.89 -79.36, -0.27 -84.42 M9.74 -56.13 C7.48 -62.98, 4.66 -71.36, -0.27 -84.42" fill="none" stroke="#1e1e1e" stroke-width="2"></path></g><g transform="translate(898.4760993981602 854.828189837107) rotate(0 -0.08720523290409687 -42.49575007812837)"><path d="M-10.78 -56.32 C-6.23 -66.59, -3.3 -79.45, -0.27 -84.42 M-10.78 -56.32 C-7.64 -63.15, -5.04 -71.48, -0.27 -84.42" fill="none" stroke="#1e1e1e" stroke-width="2"></path></g></g><mask></mask><g stroke-linecap="round"><g transform="translate(472.792096794106 524.5698121500145) rotate(0 114.83571058151716 76.17224648972388)"><path d="M0.56 -0.63 C38.72 24.67, 190.99 126.38, 229.22 151.91 M-0.61 1.65 C37.33 27.11, 189.72 127.83, 228.04 153.21" fill="none" stroke="#1e1e1e" stroke-width="2"></path></g><g transform="translate(472.792096794106 524.5698121500145) rotate(0 114.83571058151716 76.17224648972388)"><path d="M29.7 6.47 C19.25 3.57, 10.18 2.47, 0.56 -0.63 M29.7 6.47 C20.67 4.05, 11.68 2.02, 0.56 -0.63" fill="none" stroke="#1e1e1e" stroke-width="2"></path></g><g transform="translate(472.792096794106 524.5698121500145) rotate(0 114.83571058151716 76.17224648972388)"><path d="M18.32 23.55 C11.52 15.09, 6.12 8.49, 0.56 -0.63 M18.32 23.55 C12.83 15.63, 7.46 8.18, 0.56 -0.63" fill="none" stroke="#1e1e1e" stroke-width="2"></path></g><g transform="translate(472.792096794106 524.5698121500145) rotate(0 114.83571058151716 76.17224648972388)"><path d="M198.87 146.21 C207.22 147.59, 216.94 151.03, 228.04 153.21 M198.87 146.21 C208.43 147.93, 217.98 150.38, 228.04 153.21" fill="none" stroke="#1e1e1e" stroke-width="2"></path></g><g transform="translate(472.792096794106 524.5698121500145) rotate(0 114.83571058151716 76.17224648972388)"><path d="M210.19 129.1 C214.92 136.04, 220.99 144.99, 228.04 153.21 M210.19 129.1 C216.23 136.32, 222.18 144.22, 228.04 153.21" fill="none" stroke="#1e1e1e" stroke-width="2"></path></g></g><mask></mask><g transform="translate(1373.076281767333 488.93251171886095) rotate(0 134.05988830327988 87.5)"><text direction="ltr" dominant-baseline="text-before-edge" fill="#1e1e1e" font-family="Virgil, Segoe UI Emoji" font-size="20px" style="white-space: pre;" text-anchor="start" x="0" y="0">Ticket</text><text direction="ltr" dominant-baseline="text-before-edge" fill="#1e1e1e" font-family="Virgil, Segoe UI Emoji" font-size="20px" style="white-space: pre;" text-anchor="start" x="0" y="25">- id</text><text direction="ltr" dominant-baseline="text-before-edge" fill="#1e1e1e" font-family="Virgil, Segoe UI Emoji" font-size="20px" style="white-space: pre;" text-anchor="start" x="0" y="50">- eventId</text><text direction="ltr" dominant-baseline="text-before-edge" fill="#1e1e1e" font-family="Virgil, Segoe UI Emoji" font-size="20px" style="white-space: pre;" text-anchor="start" x="0" y="75">- seat</text><text direction="ltr" dominant-baseline="text-before-edge" fill="#1e1e1e" font-family="Virgil, Segoe UI Emoji" font-size="20px" style="white-space: pre;" text-anchor="start" x="0" y="100">- price</text><text direction="ltr" dominant-baseline="text-before-edge" fill="#1e1e1e" font-family="Virgil, Segoe UI Emoji" font-size="20px" style="white-space: pre;" text-anchor="start" x="0" y="125">- status: available, booked</text><text direction="ltr" dominant-baseline="text-before-edge" fill="#1e1e1e" font-family="Virgil, Segoe UI Emoji" font-size="20px" style="white-space: pre;" text-anchor="start" x="0" y="150">- userId</text></g><g transform="translate(1673.258122387519 490.06405698376057) rotate(0 43.489961087703705 50)"><text direction="ltr" dominant-baseline="text-before-edge" fill="#1e1e1e" font-family="Virgil, Segoe UI Emoji" font-size="20px" style="white-space: pre;" text-anchor="start" x="0" y="0">Booking</text><text direction="ltr" dominant-baseline="text-before-edge" fill="#1e1e1e" font-family="Virgil, Segoe UI Emoji" font-size="20px" style="white-space: pre;" text-anchor="start" x="0" y="25">- id</text><text direction="ltr" dominant-baseline="text-before-edge" fill="#1e1e1e" font-family="Virgil, Segoe UI Emoji" font-size="20px" style="white-space: pre;" text-anchor="start" x="0" y="50">- userId</text><text direction="ltr" dominant-baseline="text-before-edge" fill="#1e1e1e" font-family="Virgil, Segoe UI Emoji" font-size="20px" style="white-space: pre;" text-anchor="start" x="0" y="75">- tickets</text></g><g transform="translate(548.7767418033012 527.7275184743021) rotate(0 201.8998144492507 25)"><text direction="ltr" dominant-baseline="text-before-edge" fill="#1e1e1e" font-family="Virgil, Segoe UI Emoji" font-size="20px" style="white-space: pre;" text-anchor="start" x="0" y="0">reserve(ticketId, userId)</text><text direction="ltr" dominant-baseline="text-before-edge" fill="#1e1e1e" font-family="Virgil, Segoe UI Emoji" font-size="20px" style="white-space: pre;" text-anchor="start" x="0" y="25">confirm(ticketId, userId, paymentDetails)</text></g><g stroke-linecap="round" transform="translate(1133.453691668826 626.6461230082577) rotate(0 62.59547628591781 59.93944973184932)"><path d="M80.02 1.87 C89.13 3.6, 98.02 10.16, 105.05 16.68 C112.09 23.19, 118.88 32.44, 122.24 40.96 C125.6 49.49, 126.68 58.69, 125.21 67.83 C123.75 76.96, 119.18 88.03, 113.44 95.78 C107.69 103.52, 99.63 110.21, 90.77 114.31 C81.91 118.41, 70.16 120.85, 60.28 120.39 C50.39 119.92, 39.81 116.06, 31.43 111.52 C23.05 106.99, 15.08 100.68, 9.99 93.17 C4.89 85.66, 1.79 75.62, 0.86 66.45 C-0.08 57.29, 0.82 46.99, 4.38 38.18 C7.94 29.37, 14.79 19.64, 22.22 13.58 C29.64 7.53, 38.63 3.38, 48.96 1.87 C59.28 0.36, 77.61 3.68, 84.18 4.54 C90.75 5.4, 88.9 6.35, 88.36 7.01 M36.43 6.86 C44.04 2.79, 55.2 1, 64.68 1.16 C74.15 1.32, 84.58 3.16, 93.26 7.84 C101.94 12.51, 111.39 21.43, 116.74 29.2 C122.09 36.97, 124.85 45.1, 125.38 54.45 C125.91 63.79, 124.11 76.61, 119.92 85.28 C115.73 93.96, 107.61 101.04, 100.23 106.5 C92.84 111.96, 85.14 116.25, 75.61 118.06 C66.09 119.87, 52.76 119.79, 43.06 117.39 C33.35 114.98, 24.09 109.91, 17.4 103.61 C10.71 97.32, 5.89 88.75, 2.93 79.63 C-0.02 70.51, -1.79 58.45, -0.34 48.89 C1.11 39.33, 5.5 29.56, 11.64 22.28 C17.78 15, 32.21 7.61, 36.49 5.2 C40.76 2.79, 36.63 6.73, 37.28 7.83" fill="none" stroke="#1e1e1e" stroke-width="2"></path></g><g transform="translate(1160.0475148551782 649.2019813741263) rotate(0 36.239967346191406 37.5)"><text direction="ltr" dominant-baseline="text-before-edge" fill="#1e1e1e" font-family="Virgil, Segoe UI Emoji" font-size="20px" style="white-space: pre;" text-anchor="middle" x="36.239967346191406" y="0">Ticket </text><text direction="ltr" dominant-baseline="text-before-edge" fill="#1e1e1e" font-family="Virgil, Segoe UI Emoji" font-size="20px" style="white-space: pre;" text-anchor="middle" x="36.239967346191406" y="25">Lock</text><text direction="ltr" dominant-baseline="text-before-edge" fill="#1e1e1e" font-family="Virgil, Segoe UI Emoji" font-size="20px" style="white-space: pre;" text-anchor="middle" x="36.239967346191406" y="50">(Redis)</text></g><g stroke-linecap="round"><g transform="translate(1000.1172065960683 694.0822929717351) rotate(0 57.51430583474911 0.7548427886058562)"><path d="M-1.12 1.06 C17.89 1.28, 95.24 1.03, 114.71 1.22 M0.5 0.57 C19.27 0.98, 94.47 2.66, 113.6 2.6" fill="none" stroke="#1e1e1e" stroke-width="2"></path></g><g transform="translate(1000.1172065960683 694.0822929717351) rotate(0 57.51430583474911 0.7548427886058562)"><path d="M27.08 -9.18 C18.87 -6.35, 6.65 -1.08, -1.12 1.06 M27.08 -9.18 C16.24 -5.07, 7.58 -1.16, -1.12 1.06" fill="none" stroke="#1e1e1e" stroke-width="2"></path></g><g transform="translate(1000.1172065960683 694.0822929717351) rotate(0 57.51430583474911 0.7548427886058562)"><path d="M27.06 11.35 C18.88 6.92, 6.66 4.94, -1.12 1.06 M27.06 11.35 C16.06 8.13, 7.4 4.73, -1.12 1.06" fill="none" stroke="#1e1e1e" stroke-width="2"></path></g><g transform="translate(1000.1172065960683 694.0822929717351) rotate(0 57.51430583474911 0.7548427886058562)"><path d="M85.29 12.54 C97.07 8.76, 104.83 6.9, 113.6 2.6 M85.29 12.54 C94.43 9.06, 105.93 5.78, 113.6 2.6" fill="none" stroke="#1e1e1e" stroke-width="2"></path></g><g transform="translate(1000.1172065960683 694.0822929717351) rotate(0 57.51430583474911 0.7548427886058562)"><path d="M85.53 -7.98 C97.2 -4.51, 104.87 0.89, 113.6 2.6 M85.53 -7.98 C94.75 -4.14, 106.16 -0.11, 113.6 2.6" fill="none" stroke="#1e1e1e" stroke-width="2"></path></g></g><mask></mask><g transform="translate(1049.7607073460294 761.6225661774342) rotate(0 150.40988647937775 12.5)"><text direction="ltr" dominant-baseline="text-before-edge" fill="#1e1e1e" font-family="Virgil, Segoe UI Emoji" font-size="20px" style="white-space: pre;" text-anchor="start" x="0" y="0">{ticketId: userId} TTL 10 min</text></g><g stroke-linecap="round" transform="translate(974.9311850673867 256.7288420540799) rotate(0 56.58724715460437 49.969668064270536)"><path d="M79.49 4.7 C88 7.45, 97.21 14.2, 102.65 20.9 C108.08 27.6, 111.26 36.86, 112.12 44.91 C112.97 52.97, 111.48 61.58, 107.79 69.21 C104.11 76.83, 97.37 85.44, 89.99 90.65 C82.6 95.86, 72.87 99.44, 63.48 100.45 C54.1 101.46, 42.42 100.25, 33.67 96.7 C24.91 93.15, 16.55 85.93, 10.96 79.15 C5.36 72.38, 1.1 64.06, 0.12 56.03 C-0.86 48, 1.18 38.57, 5.07 30.96 C8.96 23.34, 16.06 15.57, 23.46 10.34 C30.86 5.12, 38.77 -0.21, 49.44 -0.38 C60.11 -0.55, 79.94 6.72, 87.46 9.31 C94.99 11.91, 94.81 14.73, 94.57 15.18 M77.44 3.97 C86.37 5.96, 94.86 10.46, 100.69 16.99 C106.52 23.51, 111.2 34.73, 112.43 43.12 C113.66 51.51, 111.24 59.87, 108.1 67.33 C104.96 74.79, 100.91 82.55, 93.61 87.89 C86.31 93.22, 74.01 97.71, 64.28 99.33 C54.56 100.95, 43.86 100.35, 35.27 97.62 C26.68 94.89, 18.7 89.68, 12.74 82.96 C6.78 76.23, 1.23 65.9, -0.51 57.27 C-2.25 48.64, -1.24 38.91, 2.32 31.19 C5.88 23.48, 13.26 15.89, 20.84 11 C28.42 6.12, 38.27 3.05, 47.79 1.89 C57.31 0.72, 73.09 3.87, 77.95 4.02 C82.81 4.17, 77.58 1.91, 76.95 2.8" fill="none" stroke="#1e1e1e" stroke-width="2"></path></g><g transform="translate(1005.945231359881 294.3646189764639) rotate(0 25.559974670410156 12.5)"><text direction="ltr" dominant-baseline="text-before-edge" fill="#1e1e1e" font-family="Virgil, Segoe UI Emoji" font-size="20px" style="white-space: pre;" text-anchor="middle" x="25.559974670410156" y="0">Redis</text></g><g stroke-linecap="round"><g transform="translate(969.1015672766069 300.4438938162102) rotate(0 -52.62610139680169 8.454302325060326)"><path d="M-1.05 0.31 C-12.44 0.73, -50.13 0.74, -67.38 3.37 C-84.63 6, -98.33 13.94, -104.54 16.06 M0.6 -0.57 C-10.98 -0.57, -50.41 -1.34, -68 1.58 C-85.59 4.49, -98.93 14.4, -104.93 16.94" fill="none" stroke="#1e1e1e" stroke-width="2"></path></g><g transform="translate(969.1015672766069 300.4438938162102) rotate(0 -52.62610139680169 8.454302325060326)"><path d="M-19.57 7.65 C-12.02 6.05, -4.42 3.38, -1.05 0.31 M-19.57 7.65 C-16.11 5.9, -10.64 4.98, -1.05 0.31" fill="none" stroke="#1e1e1e" stroke-width="2"></path></g><g transform="translate(969.1015672766069 300.4438938162102) rotate(0 -52.62610139680169 8.454302325060326)"><path d="M-19.95 -5.97 C-12.16 -2.36, -4.41 0.18, -1.05 0.31 M-19.95 -5.97 C-16.33 -4.6, -10.77 -2.39, -1.05 0.31" fill="none" stroke="#1e1e1e" stroke-width="2"></path></g><g transform="translate(969.1015672766069 300.4438938162102) rotate(0 -52.62610139680169 8.454302325060326)"><path d="M-91.61 2.13 C-96.08 8.72, -100.65 14.52, -104.93 16.94 M-91.61 2.13 C-95.34 5.25, -97.18 9.41, -104.93 16.94" fill="none" stroke="#1e1e1e" stroke-width="2"></path></g><g transform="translate(969.1015672766069 300.4438938162102) rotate(0 -52.62610139680169 8.454302325060326)"><path d="M-85.21 14.16 C-92.21 16.09, -99.23 17.29, -104.93 16.94 M-85.21 14.16 C-90.47 14.47, -93.78 15.88, -104.93 16.94" fill="none" stroke="#1e1e1e" stroke-width="2"></path></g></g><mask></mask><g transform="translate(843.4105770652836 260.76132555842287) rotate(0 60.319965824484825 12.5)"><text direction="ltr" dominant-baseline="text-before-edge" fill="#1e1e1e" font-family="Virgil, Segoe UI Emoji" font-size="20px" style="white-space: pre;" text-anchor="start" x="0" y="0">Event cache</text></g><g stroke-linecap="round" transform="translate(459.2770680490164 664.5881348343091) rotate(0 85.59164819917294 33.367475980854465)"><path d="M16.68 0 C63.86 0.24, 112.55 -2.33, 154.5 0 M16.68 0 C56.19 -1.07, 94.98 -0.88, 154.5 0 M154.5 0 C164.66 -0.47, 172.14 6.24, 171.18 16.68 M154.5 0 C167.88 1.07, 172.53 3.67, 171.18 16.68 M171.18 16.68 C168.91 24.45, 172.68 30.58, 171.18 50.05 M171.18 16.68 C171.5 29.6, 171.14 40.65, 171.18 50.05 M171.18 50.05 C171.19 62.86, 163.71 66.38, 154.5 66.73 M171.18 50.05 C172.95 60.05, 163.35 66.82, 154.5 66.73 M154.5 66.73 C127.34 64.98, 95.61 64.9, 16.68 66.73 M154.5 66.73 C123.92 67.26, 93.75 66.98, 16.68 66.73 M16.68 66.73 C6.62 64.94, -0.52 63.13, 0 50.05 M16.68 66.73 C4.58 67.62, 1.12 60.42, 0 50.05 M0 50.05 C-1.3 39.98, -2.1 25.91, 0 16.68 M0 50.05 C0.68 37.56, 0.07 25.55, 0 16.68 M0 16.68 C1.74 4.72, 3.68 -0.78, 16.68 0 M0 16.68 C-1.39 4.06, 6.26 -1.04, 16.68 0" fill="none" stroke="#1e1e1e" stroke-width="2"></path></g><g transform="translate(470.0487775885214 672.9556108151636) rotate(0 74.81993865966797 25)"><text direction="ltr" dominant-baseline="text-before-edge" fill="#1e1e1e" font-family="Virgil, Segoe UI Emoji" font-size="20px" style="white-space: pre;" text-anchor="middle" x="74.81993865966797" y="0">virtual waiting </text><text direction="ltr" dominant-baseline="text-before-edge" fill="#1e1e1e" font-family="Virgil, Segoe UI Emoji" font-size="20px" style="white-space: pre;" text-anchor="middle" x="74.81993865966797" y="25">queue</text></g><g stroke-linecap="round"><g transform="translate(639.553065281962 703.2060851282849) rotate(0 30.41810512492907 -0.13031178960045509)"><path d="M-0.91 -0.23 C9.22 -0.03, 50.94 0.49, 61.4 0.43 M0.82 -1.4 C10.78 -1.47, 50.62 -1.66, 60.74 -1.33" fill="none" stroke="#1e1e1e" stroke-width="2"></path></g><g transform="translate(639.553065281962 703.2060851282849) rotate(0 30.41810512492907 -0.13031178960045509)"><path d="M32.44 8.62 C42.11 6.26, 53.62 3.46, 60.74 -1.33 M32.44 8.62 C39.57 5.7, 48.23 3.57, 60.74 -1.33" fill="none" stroke="#1e1e1e" stroke-width="2"></path></g><g transform="translate(639.553065281962 703.2060851282849) rotate(0 30.41810512492907 -0.13031178960045509)"><path d="M32.67 -11.9 C42.12 -7.03, 53.56 -2.59, 60.74 -1.33 M32.67 -11.9 C39.93 -9.23, 48.53 -5.78, 60.74 -1.33" fill="none" stroke="#1e1e1e" stroke-width="2"></path></g></g><mask></mask><g stroke-linecap="round"><g transform="translate(424.7060655642292 597.7370673963842) rotate(0 12.491219607064124 47.049994805847746)"><path d="M0.56 0.69 C5.04 16.35, 21.71 78.22, 25.97 93.77 M-0.6 0 C3.88 15.87, 21.12 79.25, 25.54 95.13" fill="none" stroke="#1e1e1e" stroke-width="2"></path></g><g transform="translate(424.7060655642292 597.7370673963842) rotate(0 12.491219607064124 47.049994805847746)"><path d="M8.18 70.67 C13.17 77.72, 15.37 83.44, 25.54 95.13 M8.18 70.67 C13.58 78.16, 19.13 85.39, 25.54 95.13" fill="none" stroke="#1e1e1e" stroke-width="2"></path></g><g transform="translate(424.7060655642292 597.7370673963842) rotate(0 12.491219607064124 47.049994805847746)"><path d="M27.96 65.23 C28.51 73.6, 26.26 80.54, 25.54 95.13 M27.96 65.23 C27.59 74.25, 27.39 83.06, 25.54 95.13" fill="none" stroke="#1e1e1e" stroke-width="2"></path></g></g><mask></mask></svg>